g A001_BB03
v 14.852005 4.9216967 13.760171
v 14.97107 4.829974 13.697388
v 14.85655 4.8299704 13.869399
v -3.6897192 4.921691 16.717514
v -3.6496801 4.829965 16.819628
v -3.821721 4.829965 16.705069
v 13.201862 4.921704 3.7243419
v 13.161853 4.82998 3.6222315
v 13.333872 4.829975 3.7367895
v -5.3398557 4.921703 6.6816626
v -5.458957 4.8299747 6.7444773
v -5.3443775 4.82998 6.572441
v -20.236141 3.175613 11.830917
v -20.653173 2.9547064 12.324903
v -20.779882 2.9547093 12.117973
v 20.266424 3.1756148 11.711889
v 20.810772 2.9547064 11.967153
v 20.699854 2.9547057 12.203574
v -20.267725 3.1756532 -16.196144
v -20.812069 2.9547398 -16.451414
v -20.701162 2.954744 -16.68783
v 20.234844 3.175651 -16.18808
v 20.651855 2.9547439 -16.682066
v 20.778564 2.9547396 -16.47514
v 20.707764 2.3243105 12.425244
v -20.645273 2.323783 12.397963
v 20.699854 2.9547057 12.203574
v -20.653173 2.9547064 12.324903
v 20.699854 2.9547057 12.203574
v -20.645273 2.323783 12.397963
v -20.8987 2.3237853 11.9841
v -20.930878 2.3243487 -16.436665
v -20.779882 2.9547093 12.117973
v -20.812069 2.9547398 -16.451414
v -20.779882 2.9547093 12.117973
v -20.930878 2.3243487 -16.436665
v 2.0502563 3.8637118 1.439298
v 2.0566332 3.6202917 1.7226318
v 1.8372387 3.6202977 1.6329272
v 7.636401 3.8637133 -0.8162439
v 7.918513 3.6202927 -0.83036256
v 7.828794 3.6202931 -0.6109509
v 0.31184325 3.8637216 -2.9674878
v 0.029724121 3.6202986 -2.9533782
v 0.119426265 3.6203074 -3.172774
v 5.8979807 3.8637211 -5.2230377
v 5.8915744 3.6203089 -5.5063677
v 6.110996 3.6203039 -5.416661
v -5.210161 4.101679 1.1615319
v -5.232234 3.9919097 1.3431774
v -5.407368 3.9894161 1.1356677
v 2.4453638 4.2108665 2.1577332
v 2.6457055 4.10427 2.1836023
v 2.4232957 4.101098 2.3393786
v -4.620625 4.146083 -3.5605693
v -4.817844 4.033813 -3.5864384
v -4.5954394 4.0369883 -3.742227
v 3.0349157 4.2552695 -2.564375
v 3.0600903 4.1461763 -2.746032
v 3.2352343 4.1486697 -2.5385082
v 14.910014 4.666303 14.049487
v 14.85655 4.8299704 13.869399
v 15.141305 4.666303 13.702163
v 14.97107 4.829974 13.697388
v -3.9790258 4.666301 16.775513
v -3.821721 4.829965 16.705069
v -3.6317065 4.666301 17.006836
v -3.6496801 4.829965 16.819628
v 13.491181 4.666311 3.6663318
v 13.333872 4.829975 3.7367895
v 13.143862 4.6663136 3.435023
v 13.161853 4.82998 3.6222315
v -5.3978586 4.66631 6.392368
v -5.3443775 4.82998 6.572441
v -5.6291428 4.666311 6.7396827
v -5.458957 4.8299747 6.7444773
v 14.852005 4.9216967 13.760171
v 14.85655 4.8299704 13.869399
v -3.6897192 4.921691 16.717514
v -3.6496801 4.829965 16.819628
v 14.910014 4.666303 14.049487
v -3.6317065 4.666301 17.006836
v -5.458957 4.8299747 6.7444773
v -5.3398557 4.921703 6.6816626
v -3.821721 4.829965 16.705069
v -3.6897192 4.921691 16.717514
v -5.3398557 4.921703 6.6816626
v -5.3443775 4.82998 6.572441
v 13.201862 4.921704 3.7243419
v 13.161853 4.82998 3.6222315
v -5.3978586 4.66631 6.392368
v 13.143862 4.6663136 3.435023
v 14.97107 4.829974 13.697388
v 14.852005 4.9216967 13.760171
v 13.333872 4.829975 3.7367895
v 13.201862 4.921704 3.7243419
v -5.6291428 4.666311 6.7396827
v -5.458957 4.8299747 6.7444773
v -3.9790258 4.666301 16.775513
v -3.821721 4.829965 16.705069
v 15.141305 4.666303 13.702163
v 14.97107 4.829974 13.697388
v 13.491181 4.666311 3.6663318
v 13.333872 4.829975 3.7367895
v -20.645273 2.323783 12.397963
v -20.8987 2.3237853 11.9841
v -20.653173 2.9547064 12.324903
v -20.779882 2.9547093 12.117973
v 20.92957 2.3243108 11.952402
v 20.707764 2.3243105 12.425244
v 20.810772 2.9547064 11.967153
v 20.699854 2.9547057 12.203574
v -20.930878 2.3243487 -16.436665
v -20.709063 2.3243494 -16.909492
v -20.812069 2.9547398 -16.451414
v -20.701162 2.954744 -16.68783
v 20.643946 2.3243484 -16.903732
v 20.897373 2.3243477 -16.48988
v 20.651855 2.9547439 -16.682066
v 20.778564 2.9547396 -16.47514
v 20.699854 2.9547057 12.203574
v -20.653173 2.9547064 12.324903
v 20.266424 3.1756148 11.711889
v -20.236141 3.175613 11.830917
v 20.778564 2.9547396 -16.47514
v 20.810772 2.9547064 11.967153
v 20.234844 3.175651 -16.18808
v 20.266424 3.1756148 11.711889
v -20.701162 2.954744 -16.68783
v 20.651855 2.9547439 -16.682066
v -20.267725 3.1756532 -16.196144
v 20.234844 3.175651 -16.18808
v -20.779882 2.9547093 12.117973
v -20.812069 2.9547398 -16.451414
v -20.236141 3.175613 11.830917
v -20.267725 3.1756532 -16.196144
v 20.897373 2.3243477 -16.48988
v 20.92957 2.3243108 11.952402
v 20.778564 2.9547396 -16.47514
v 20.810772 2.9547064 11.967153
v -20.709063 2.3243494 -16.909492
v 20.643946 2.3243484 -16.903732
v -20.701162 2.954744 -16.68783
v 20.651855 2.9547439 -16.682066
v 2.1214964 3.410866 1.8771973
v 1.6826708 3.410866 1.6977758
v 2.0566332 3.6202917 1.7226318
v 1.8372387 3.6202977 1.6329272
v 8.073059 3.4108663 -0.8952075
v 7.893652 3.4108667 -0.45638916
v 7.918513 3.6202927 -0.83036256
v 7.828794 3.6202931 -0.6109509
v -0.12485107 3.410873 -2.8885295
v 0.054572754 3.4108744 -3.3273332
v 0.029724121 3.6202986 -2.9533782
v 0.119426265 3.6203074 -3.172774
v 5.8267307 3.410877 -5.6609235
v 6.2655396 3.4108758 -5.4815044
v 5.8915744 3.6203089 -5.5063677
v 6.110996 3.6203039 -5.416661
v 7.828794 3.6202931 -0.6109509
v 2.0566332 3.6202917 1.7226318
v 7.636401 3.8637133 -0.8162439
v 2.0502563 3.8637118 1.439298
v 6.110996 3.6203039 -5.416661
v 7.918513 3.6202927 -0.83036256
v 5.8979807 3.8637211 -5.2230377
v 7.636401 3.8637133 -0.8162439
v 0.119426265 3.6203074 -3.172774
v 5.8915744 3.6203089 -5.5063677
v 0.31184325 3.8637216 -2.9674878
v 5.8979807 3.8637211 -5.2230377
v 1.8372387 3.6202977 1.6329272
v 0.029724121 3.6202986 -2.9533782
v 2.0502563 3.8637118 1.439298
v 0.31184325 3.8637216 -2.9674878
v 7.893652 3.4108667 -0.45638916
v 2.1214964 3.410866 1.8771973
v 7.828794 3.6202931 -0.6109509
v 2.0566332 3.6202917 1.7226318
v 6.2655396 3.4108758 -5.4815044
v 8.073059 3.4108663 -0.8952075
v 6.110996 3.6203039 -5.416661
v 7.918513 3.6202927 -0.83036256
v 0.054572754 3.4108744 -3.3273332
v 5.8267307 3.410877 -5.6609235
v 0.119426265 3.6203074 -3.172774
v 5.8915744 3.6203089 -5.5063677
v 1.6826708 3.410866 1.6977758
v -0.12485107 3.410873 -2.8885295
v 1.8372387 3.6202977 1.6329272
v 0.029724121 3.6202986 -2.9533782
v -5.2517185 3.7001104 1.5248339
v -5.6019897 3.6951149 1.1097962
v -5.232234 3.9919097 1.3431774
v -5.407368 3.9894161 1.1356677
v 2.8486254 3.8156428 2.209448
v 2.4038255 3.8093 2.5210302
v 2.6457055 4.10427 2.1836023
v 2.4232957 4.101098 2.3393786
v -5.012456 3.7395153 -3.612309
v -4.567656 3.7458575 -3.9238799
v -4.817844 4.033813 -3.5864384
v -4.5954394 4.0369883 -3.742227
v 3.0878797 3.855046 -2.927678
v 3.438159 3.8600433 -2.5126476
v 3.0600903 4.1461763 -2.746032
v 3.2352343 4.1486697 -2.5385082
v 2.4232957 4.101098 2.3393786
v -5.232234 3.9919097 1.3431774
v 2.4453638 4.2108665 2.1577332
v -5.210161 4.101679 1.1615319
v 3.2352343 4.1486697 -2.5385082
v 2.6457055 4.10427 2.1836023
v 3.0349157 4.2552695 -2.564375
v 2.4453638 4.2108665 2.1577332
v -4.5954394 4.0369883 -3.742227
v 3.0600903 4.1461763 -2.746032
v -4.620625 4.146083 -3.5605693
v 3.0349157 4.2552695 -2.564375
v -5.407368 3.9894161 1.1356677
v -4.817844 4.033813 -3.5864384
v -5.210161 4.101679 1.1615319
v -4.620625 4.146083 -3.5605693
v 2.4038255 3.8093 2.5210302
v -5.2517185 3.7001104 1.5248339
v 2.4232957 4.101098 2.3393786
v -5.232234 3.9919097 1.3431774
v 3.438159 3.8600433 -2.5126476
v 2.8486254 3.8156428 2.209448
v 3.2352343 4.1486697 -2.5385082
v 2.6457055 4.10427 2.1836023
v -4.567656 3.7458575 -3.9238799
v 3.0878797 3.855046 -2.927678
v -4.5954394 4.0369883 -3.742227
v 3.0600903 4.1461763 -2.746032
v -5.6019897 3.6951149 1.1097962
v -5.012456 3.7395153 -3.612309
v -5.407368 3.9894161 1.1356677
v -4.817844 4.033813 -3.5864384
v 15.146106 -2.1841686 13.726181
v 14.856779 -2.439563 13.784184
v 14.91481 -2.1841686 14.073521
v -3.9742064 -2.184174 16.79952
v -3.6269066 -2.1841767 17.030844
v -3.6849048 -2.4395697 16.741518
v 13.143841 -2.184155 3.4350488
v 13.201853 -2.439548 3.7243383
v 13.491161 -2.1841555 3.666322
v -5.3978586 -2.1841545 6.3923645
v -5.629153 -2.1841545 6.7396836
v -5.3398557 -2.4395483 6.6816587
v -20.643934 -4.058805 12.43474
v -20.897373 -4.058801 12.020872
v -20.645273 2.323783 12.397963
v -20.8987 2.3237853 11.9841
v -20.645273 2.323783 12.397963
v -20.897373 -4.058801 12.020872
v -20.709063 2.3243494 -16.909492
v -20.930878 2.3243487 -16.436665
v -20.709072 -4.0587554 -16.909512
v -20.930878 -4.058756 -16.436684
v -20.709072 -4.0587554 -16.909512
v -20.930878 2.3243487 -16.436665
v -20.897373 -4.058801 12.020872
v -20.643934 -4.058805 12.43474
v -20.659746 -4.921703 11.991381
v 20.930878 -4.058802 11.989175
v 20.693262 -4.9217024 12.018686
v 20.709063 -4.0588055 12.462026
v -20.709072 -4.0587554 -16.909512
v -20.930878 -4.058756 -16.436684
v -20.693262 -4.9216557 -16.466175
v 20.643946 -4.0587554 -16.90375
v 20.659765 -4.9216557 -16.460413
v 20.897373 -4.058756 -16.489904
v 2.132251 -3.7919378 1.9028332
v 1.6934423 -3.7919366 1.7234143
v 2.1214964 3.410866 1.8771973
v 1.6826708 3.410866 1.6977758
v 2.1214964 3.410866 1.8771973
v 1.6934423 -3.7919366 1.7234143
v -5.183535 -1.3549279 1.554978
v -5.5338035 -1.3599243 1.139939
v -5.2517185 3.7001104 1.5248339
v -5.6019897 3.6951149 1.1097962
v -5.2517185 3.7001104 1.5248339
v -5.5338035 -1.3599243 1.139939
v -5.5338035 -1.3599243 1.139939
v -5.183535 -1.3549279 1.554978
v -5.1320114 -1.6511285 1.1916723
v 2.9168115 -1.2393962 2.2395923
v 2.524978 -1.6459641 2.1878686
v 2.4719896 -1.2457408 2.5511742
v -4.4955273 -1.3091285 -3.9238822
v -4.940349 -1.3154732 -3.6123118
v -4.537075 -1.7107008 -3.5605817
v 3.1599767 -1.199942 -2.927689
v 3.1184485 -1.601513 -2.5643847
v 3.5102563 -1.1949463 -2.5126562
v -4.537075 -1.7107008 -3.5605817
v -4.940349 -1.3154732 -3.6123118
v -5.1320114 -1.6511285 1.1916723
v -5.5338035 -1.3599243 1.139939
v -5.1320114 -1.6511285 1.1916723
v -4.940349 -1.3154732 -3.6123118
v -5.1320114 -1.6511285 1.1916723
v -5.183535 -1.3549279 1.554978
v 2.524978 -1.6459641 2.1878686
v 2.4719896 -1.2457408 2.5511742
v 2.524978 -1.6459641 2.1878686
v -5.183535 -1.3549279 1.554978
v 1.6934423 -3.7919366 1.7234143
v 2.132251 -3.7919378 1.9028332
v 2.0025733 -4.079995 1.5937072
v 8.083811 -3.7919347 -0.86957395
v 7.7747045 -4.079993 -0.7398706
v 7.9044065 -3.7919378 -0.43075806
v 0.054577634 -3.791927 -3.327351
v -0.12483154 -3.7919278 -2.8885436
v 0.1842871 -4.0799837 -3.0182402
v 5.8267283 -3.7919242 -5.6609406
v 5.956435 -4.079982 -5.351834
v 6.2655344 -3.791925 -5.481519
v 14.910014 4.666303 14.049487
v 14.91481 -2.1841686 14.073521
v -3.6317065 4.666301 17.006836
v -3.6269066 -2.1841767 17.030844
v -3.9790258 4.666301 16.775513
v -3.9742064 -2.184174 16.79952
v -5.6291428 4.666311 6.7396827
v -5.629153 -2.1841545 6.7396836
v -5.3978586 4.66631 6.392368
v -5.3978586 -2.1841545 6.3923645
v 13.143862 4.6663136 3.435023
v 13.143841 -2.184155 3.4350488
v 13.491181 4.666311 3.6663318
v 13.491161 -2.1841555 3.666322
v 15.141305 4.666303 13.702163
v 15.146106 -2.1841686 13.726181
v -3.6317065 4.666301 17.006836
v -3.6269066 -2.1841767 17.030844
v -3.9790258 4.666301 16.775513
v -3.9742064 -2.184174 16.79952
v 14.91481 -2.1841686 14.073521
v 14.910014 4.666303 14.049487
v 15.146106 -2.1841686 13.726181
v 15.141305 4.666303 13.702163
v -5.6291428 4.666311 6.7396827
v -5.629153 -2.1841545 6.7396836
v -5.3978586 4.66631 6.392368
v -5.3978586 -2.1841545 6.3923645
v 13.143862 4.6663136 3.435023
v 13.143841 -2.184155 3.4350488
v 13.491181 4.666311 3.6663318
v 13.491161 -2.1841555 3.666322
v 13.201853 -2.439548 3.7243383
v 14.856779 -2.439563 13.784184
v 13.491161 -2.1841555 3.666322
v 15.146106 -2.1841686 13.726181
v -5.3398557 -2.4395483 6.6816587
v 13.201853 -2.439548 3.7243383
v -5.3978586 -2.1841545 6.3923645
v 13.143841 -2.184155 3.4350488
v -3.6849048 -2.4395697 16.741518
v -5.3398557 -2.4395483 6.6816587
v -3.9742064 -2.184174 16.79952
v -5.629153 -2.1841545 6.7396836
v 14.856779 -2.439563 13.784184
v -3.6849048 -2.4395697 16.741518
v 14.91481 -2.1841686 14.073521
v -3.6269066 -2.1841767 17.030844
v -20.645273 2.323783 12.397963
v 20.707764 2.3243105 12.425244
v -20.643934 -4.058805 12.43474
v 20.709063 -4.0588055 12.462026
v 20.92957 2.3243108 11.952402
v 20.897373 2.3243477 -16.48988
v 20.930878 -4.058802 11.989175
v 20.897373 -4.058756 -16.489904
v 20.643946 2.3243484 -16.903732
v -20.709063 2.3243494 -16.909492
v 20.643946 -4.0587554 -16.90375
v -20.709072 -4.0587554 -16.909512
v -20.930878 2.3243487 -16.436665
v -20.8987 2.3237853 11.9841
v -20.930878 -4.058756 -16.436684
v -20.897373 -4.058801 12.020872
v 20.707764 2.3243105 12.425244
v 20.92957 2.3243108 11.952402
v 20.709063 -4.0588055 12.462026
v 20.930878 -4.058802 11.989175
v 20.897373 2.3243477 -16.48988
v 20.643946 2.3243484 -16.903732
v 20.897373 -4.058756 -16.489904
v 20.643946 -4.0587554 -16.90375
v -20.693262 -4.9216557 -16.466175
v -20.930878 -4.058756 -16.436684
v -20.659746 -4.921703 11.991381
v -20.897373 -4.058801 12.020872
v 20.659765 -4.9216557 -16.460413
v 20.643946 -4.0587554 -16.90375
v -20.693262 -4.9216557 -16.466175
v -20.709072 -4.0587554 -16.909512
v 20.693262 -4.9217024 12.018686
v 20.930878 -4.058802 11.989175
v 20.659765 -4.9216557 -16.460413
v 20.897373 -4.058756 -16.489904
v -20.659746 -4.921703 11.991381
v -20.643934 -4.058805 12.43474
v 20.693262 -4.9217024 12.018686
v 20.709063 -4.0588055 12.462026
v 2.1214964 3.410866 1.8771973
v 7.893652 3.4108667 -0.45638916
v 2.132251 -3.7919378 1.9028332
v 7.9044065 -3.7919378 -0.43075806
v 8.073059 3.4108663 -0.8952075
v 6.2655396 3.4108758 -5.4815044
v 8.083811 -3.7919347 -0.86957395
v 6.2655344 -3.791925 -5.481519
v 5.8267307 3.410877 -5.6609235
v 0.054572754 3.4108744 -3.3273332
v 5.8267283 -3.7919242 -5.6609406
v 0.054577634 -3.791927 -3.327351
v -0.12485107 3.410873 -2.8885295
v 1.6826708 3.410866 1.6977758
v -0.12483154 -3.7919278 -2.8885436
v 1.6934423 -3.7919366 1.7234143
v 7.893652 3.4108667 -0.45638916
v 8.073059 3.4108663 -0.8952075
v 7.9044065 -3.7919378 -0.43075806
v 8.083811 -3.7919347 -0.86957395
v 6.2655396 3.4108758 -5.4815044
v 5.8267307 3.410877 -5.6609235
v 6.2655344 -3.791925 -5.481519
v 5.8267283 -3.7919242 -5.6609406
v 0.054572754 3.4108744 -3.3273332
v -0.12485107 3.410873 -2.8885295
v 0.054577634 -3.791927 -3.327351
v -0.12483154 -3.7919278 -2.8885436
v -5.2517185 3.7001104 1.5248339
v 2.4038255 3.8093 2.5210302
v -5.183535 -1.3549279 1.554978
v 2.4719896 -1.2457408 2.5511742
v 2.8486254 3.8156428 2.209448
v 3.438159 3.8600433 -2.5126476
v 2.9168115 -1.2393962 2.2395923
v 3.5102563 -1.1949463 -2.5126562
v 3.0878797 3.855046 -2.927678
v -4.567656 3.7458575 -3.9238799
v 3.1599767 -1.199942 -2.927689
v -4.4955273 -1.3091285 -3.9238822
v -5.012456 3.7395153 -3.612309
v -5.6019897 3.6951149 1.1097962
v -4.940349 -1.3154732 -3.6123118
v -5.5338035 -1.3599243 1.139939
v 2.4038255 3.8093 2.5210302
v 2.8486254 3.8156428 2.209448
v 2.4719896 -1.2457408 2.5511742
v 2.9168115 -1.2393962 2.2395923
v 3.438159 3.8600433 -2.5126476
v 3.0878797 3.855046 -2.927678
v 3.5102563 -1.1949463 -2.5126562
v 3.1599767 -1.199942 -2.927689
v -4.567656 3.7458575 -3.9238799
v -5.012456 3.7395153 -3.612309
v -4.4955273 -1.3091285 -3.9238822
v -4.940349 -1.3154732 -3.6123118
v 3.1184485 -1.601513 -2.5643847
v 3.1599767 -1.199942 -2.927689
v -4.537075 -1.7107008 -3.5605817
v -4.4955273 -1.3091285 -3.9238822
v 2.524978 -1.6459641 2.1878686
v 2.9168115 -1.2393962 2.2395923
v 3.1184485 -1.601513 -2.5643847
v 3.5102563 -1.1949463 -2.5126562
v 0.1842871 -4.0799837 -3.0182402
v -0.12483154 -3.7919278 -2.8885436
v 2.0025733 -4.079995 1.5937072
v 1.6934423 -3.7919366 1.7234143
v 5.956435 -4.079982 -5.351834
v 5.8267283 -3.7919242 -5.6609406
v 0.1842871 -4.0799837 -3.0182402
v 0.054577634 -3.791927 -3.327351
v 7.7747045 -4.079993 -0.7398706
v 8.083811 -3.7919347 -0.86957395
v 5.956435 -4.079982 -5.351834
v 6.2655344 -3.791925 -5.481519
v 2.0025733 -4.079995 1.5937072
v 2.132251 -3.7919378 1.9028332
v 7.7747045 -4.079993 -0.7398706
v 7.9044065 -3.7919378 -0.43075806
v -3.6849048 -2.4395697 16.741518
v 14.856779 -2.439563 13.784184
v -5.3398557 -2.4395483 6.6816587
v 13.201853 -2.439548 3.7243383
v 20.693262 -4.9217024 12.018686
v 20.659765 -4.9216557 -16.460413
v -20.659746 -4.921703 11.991381
v -20.693262 -4.9216557 -16.466175
v 2.524978 -1.6459641 2.1878686
v 3.1184485 -1.601513 -2.5643847
v -5.1320114 -1.6511285 1.1916723
v -4.537075 -1.7107008 -3.5605817
v 7.7747045 -4.079993 -0.7398706
v 5.956435 -4.079982 -5.351834
v 2.0025733 -4.079995 1.5937072
v 0.1842871 -4.0799837 -3.0182402
v 13.201862 4.921704 3.7243419
v 14.852005 4.9216967 13.760171
v -5.3398557 4.921703 6.6816626
v -3.6897192 4.921691 16.717514
v -20.267725 3.1756532 -16.196144
v 20.234844 3.175651 -16.18808
v -20.236141 3.175613 11.830917
v 20.266424 3.1756148 11.711889
v 0.31184325 3.8637216 -2.9674878
v 5.8979807 3.8637211 -5.2230377
v 2.0502563 3.8637118 1.439298
v 7.636401 3.8637133 -0.8162439
v -4.620625 4.146083 -3.5605693
v 3.0349157 4.2552695 -2.564375
v -5.210161 4.101679 1.1615319
v 2.4453638 4.2108665 2.1577332
vt 0.018920898 0.9404297
vt 0.018920898 0.61035156
vt 0.018920898 0.61035156
vt 0.018920898 0.9404297
vt 0.018920898 0.61035156
vt 0.018920898 0.61035156
vt 0.018920898 0.9404297
vt 0.018920898 0.61035156
vt 0.018920898 0.61035156
vt 0.018920898 0.9404297
vt 0.018920898 0.61035156
vt 0.018920898 0.61035156
vt 0.027618408 0.9404297
vt 0.027618408 0.61035156
vt 0.027618408 0.61035156
vt 0.027618408 0.9404297
vt 0.027618408 0.61035156
vt 0.027618408 0.61035156
vt 0.027618408 0.9404297
vt 0.027618408 0.61035156
vt 0.027618408 0.61035156
vt 0.027618408 0.9404297
vt 0.027618408 0.61035156
vt 0.027618408 0.61035156
vt 0.027618408 0.006668091
vt 2.6855469 0.006668091
vt 0.027618408 0.61035156
vt 2.6855469 0.61035156
vt 0.027618408 0.61035156
vt 2.6855469 0.006668091
vt 0.027618408 0.006668091
vt 2.6933594 0.006668091
vt 0.027618408 0.61035156
vt 2.6933594 0.61035156
vt 0.027618408 0.61035156
vt 2.6933594 0.006668091
vt 0.018920898 0.9404297
vt 0.018920898 0.61035156
vt 0.018920898 0.61035156
vt 0.018920898 0.9404297
vt 0.018920898 0.61035156
vt 0.018920898 0.61035156
vt 0.018920898 0.9404297
vt 0.018920898 0.61035156
vt 0.018920898 0.61035156
vt 0.018920898 0.9404297
vt 0.018920898 0.61035156
vt 0.018920898 0.61035156
vt 0.018920898 0.9404297
vt 0.018920898 0.61035156
vt 0.018920898 0.61035156
vt 0.018920898 0.9404297
vt 0.018920898 0.61035156
vt 0.018920898 0.61035156
vt 0.018920898 0.9404297
vt 0.018920898 0.61035156
vt 0.018920898 0.61035156
vt 0.018920898 0.9404297
vt 0.018920898 0.61035156
vt 0.018920898 0.61035156
vt 0.018920898 0.006668091
vt 0.018920898 0.61035156
vt 0.018920898 0.006668091
vt 0.018920898 0.61035156
vt 0.018920898 0.006668091
vt 0.018920898 0.61035156
vt 0.018920898 0.006668091
vt 0.018920898 0.61035156
vt 0.018920898 0.006668091
vt 0.018920898 0.61035156
vt 0.018920898 0.006668091
vt 0.018920898 0.61035156
vt 0.018920898 0.006668091
vt 0.018920898 0.61035156
vt 0.018920898 0.006668091
vt 0.018920898 0.61035156
vt 0.25195312 0.9404297
vt 0.25195312 0.61035156
vt 0.018920898 0.9404297
vt 0.018920898 0.61035156
vt 0.25195312 0.006668091
vt 0.018920898 0.006668091
vt 0.018920898 0.61035156
vt 0.018920898 0.9404297
vt 0.31054688 0.61035156
vt 0.3137207 0.9404297
vt 0.25634766 0.9404297
vt 0.25170898 0.61035156
vt 0.018920898 0.9404297
vt 0.018920898 0.61035156
vt 0.25048828 0.006668091
vt 0.018920898 0.006668091
vt 0.018920898 0.61035156
vt 0.018920898 0.9404297
vt 0.3034668 0.61035156
vt 0.3083496 0.9404297
vt 0.018920898 0.006668091
vt 0.018920898 0.61035156
vt 0.31030273 0.006668091
vt 0.31054688 0.61035156
vt 0.018920898 0.006668091
vt 0.018920898 0.61035156
vt 0.3010254 0.006668091
vt 0.3034668 0.61035156
vt 0.027618408 0.006668091
vt 0.027618408 0.006668091
vt 0.027618408 0.61035156
vt 0.027618408 0.61035156
vt 0.027618408 0.006668091
vt 0.027618408 0.006668091
vt 0.027618408 0.61035156
vt 0.027618408 0.61035156
vt 0.027618408 0.006668091
vt 0.027618408 0.006668091
vt 0.027618408 0.61035156
vt 0.027618408 0.61035156
vt 0.027618408 0.006668091
vt 0.027618408 0.006668091
vt 0.027618408 0.61035156
vt 0.027618408 0.61035156
vt 0.027618408 0.61035156
vt 2.6855469 0.61035156
vt 0.027618408 0.9404297
vt 2.6855469 0.9404297
vt 0.027618408 0.61035156
vt 2.6933594 0.61035156
vt 0.027618408 0.9404297
vt 2.6933594 0.9404297
vt 0.027618408 0.61035156
vt 2.6855469 0.61035156
vt 0.027618408 0.9404297
vt 2.6855469 0.9404297
vt 0.027618408 0.61035156
vt 2.6933594 0.61035156
vt 0.027618408 0.9404297
vt 2.6933594 0.9404297
vt 0.027618408 0.006668091
vt 2.6933594 0.006668091
vt 0.027618408 0.61035156
vt 2.6933594 0.61035156
vt 0.027618408 0.006668091
vt 2.6855469 0.006668091
vt 0.027618408 0.61035156
vt 2.6855469 0.61035156
vt 0.018920898 0.006668091
vt 0.018920898 0.006668091
vt 0.018920898 0.61035156
vt 0.018920898 0.61035156
vt 0.018920898 0.006668091
vt 0.018920898 0.006668091
vt 0.018920898 0.61035156
vt 0.018920898 0.61035156
vt 0.018920898 0.006668091
vt 0.018920898 0.006668091
vt 0.018920898 0.61035156
vt 0.018920898 0.61035156
vt 0.018920898 0.006668091
vt 0.018920898 0.006668091
vt 0.018920898 0.61035156
vt 0.018920898 0.61035156
vt 0.018920898 0.61035156
vt 0.42895508 0.61035156
vt 0.018920898 0.9404297
vt 0.42895508 0.9404297
vt 0.018920898 0.61035156
vt 0.42895508 0.61035156
vt 0.018920898 0.9404297
vt 0.42895508 0.9404297
vt 0.018920898 0.61035156
vt 0.42895508 0.61035156
vt 0.018920898 0.9404297
vt 0.42895508 0.9404297
vt 0.018920898 0.61035156
vt 0.42895508 0.61035156
vt 0.018920898 0.9404297
vt 0.42895508 0.9404297
vt 0.018920898 0.006668091
vt 0.42895508 0.006668091
vt 0.018920898 0.61035156
vt 0.42895508 0.61035156
vt 0.018920898 0.006668091
vt 0.42895508 0.006668091
vt 0.018920898 0.61035156
vt 0.42895508 0.61035156
vt 0.018920898 0.006668091
vt 0.42895508 0.006668091
vt 0.018920898 0.61035156
vt 0.42895508 0.61035156
vt 0.018920898 0.006668091
vt 0.42895508 0.006668091
vt 0.018920898 0.61035156
vt 0.42895508 0.61035156
vt 0.018920898 0.006668091
vt 0.018920898 0.006668091
vt 0.018920898 0.61035156
vt 0.018920898 0.61035156
vt 0.018920898 0.006668091
vt 0.018920898 0.006668091
vt 0.018920898 0.61035156
vt 0.018920898 0.61035156
vt 0.018920898 0.006668091
vt 0.018920898 0.006668091
vt 0.018920898 0.61035156
vt 0.018920898 0.61035156
vt 0.018920898 0.006668091
vt 0.018920898 0.006668091
vt 0.018920898 0.61035156
vt 0.018920898 0.61035156
vt 0.018920898 0.61035156
vt 0.65771484 0.61035156
vt 0.018920898 0.9404297
vt 0.65771484 0.9404297
vt 0.018920898 0.61035156
vt 0.65966797 0.61035156
vt 0.018920898 0.9404297
vt 0.65966797 0.9404297
vt 0.018920898 0.61035156
vt 0.65771484 0.61035156
vt 0.018920898 0.9404297
vt 0.65771484 0.9404297
vt 0.018920898 0.61035156
vt 0.65966797 0.61035156
vt 0.018920898 0.9404297
vt 0.65966797 0.9404297
vt 0.018920898 0.006668091
vt 0.65771484 0.006668091
vt 0.018920898 0.61035156
vt 0.65771484 0.61035156
vt 0.018920898 0.006668091
vt 0.65966797 0.006668091
vt 0.018920898 0.61035156
vt 0.65966797 0.61035156
vt 0.018920898 0.006668091
vt 0.65771484 0.006668091
vt 0.018920898 0.61035156
vt 0.65771484 0.61035156
vt 0.018920898 0.006668091
vt 0.65966797 0.006668091
vt 0.018920898 0.61035156
vt 0.65966797 0.61035156
vt -25.921875 2.59375
vt -25.921875 2.5371094
vt -25.96875 2.5566406
vt -20.234375 2.6113281
vt -20.203125 2.6113281
vt -20.21875 2.5585938
vt -24.421875 2.5976562
vt -24.4375 2.5449219
vt -24.46875 2.5957031
vt -21.734375 2.6113281
vt -21.6875 2.6113281
vt -21.703125 2.5585938
vt -27.59375 -0.7163086
vt -27.671875 -0.72558594
vt -27.609375 0.19262695
vt -27.671875 0.19042969
vt -27.609375 0.19262695
vt -27.671875 -0.72558594
vt -11.59375 0.19592285
vt -11.53125 0.19396973
vt -11.6015625 -0.7163086
vt -11.5390625 -0.72314453
vt -11.6015625 -0.7163086
vt -11.53125 0.19396973
vt -27.671875 -0.72558594
vt -27.59375 -0.7163086
vt -27.609375 -0.8510742
vt -21.625 -0.70996094
vt -21.671875 -0.8383789
vt -21.6875 -0.70458984
vt -11.6015625 -0.7163086
vt -11.5390625 -0.72314453
vt -11.5859375 -0.8510742
vt -17.515625 -0.7060547
vt -17.546875 -0.8388672
vt -17.5625 -0.7089844
vt -25.53125 10.390625
vt -25.59375 10.40625
vt -25.515625 11.4296875
vt -25.59375 11.4375
vt -25.515625 11.4296875
vt -25.59375 10.40625
vt -31.28125 6.6484375
vt -31.359375 6.6679688
vt -31.265625 7.3828125
vt -31.34375 7.390625
vt -31.265625 7.3828125
vt -31.359375 6.6679688
vt -31.359375 6.6679688
vt -31.28125 6.6484375
vt -31.359375 6.5976562
vt -33.90625 6.6914062
vt -33.9375 6.6171875
vt -33.96875 6.6875
vt -32.09375 6.6757812
vt -32.03125 6.6757812
vt -32.0625 6.6015625
vt -33.1875 6.6953125
vt -33.21875 6.6210938
vt -33.25 6.6992188
vt -32.0625 6.6015625
vt -32.03125 6.6757812
vt -31.359375 6.5976562
vt -31.359375 6.6679688
vt -31.359375 6.5976562
vt -32.03125 6.6757812
vt -35.0625 6.5703125
vt -35.0625 6.6367188
vt -33.9375 6.6171875
vt -33.96875 6.6875
vt -33.9375 6.6171875
vt -35.0625 6.6367188
vt -25.59375 10.40625
vt -25.53125 10.390625
vt -25.59375 10.34375
vt -27.984375 10.4140625
vt -28 10.359375
vt -28.03125 10.4140625
vt -26.34375 10.40625
vt -26.296875 10.40625
vt -26.328125 10.34375
vt -27.234375 10.4140625
vt -27.265625 10.359375
vt -27.28125 10.4140625
vt -17.5 3.5566406
vt -17.515625 2.578125
vt -20.1875 3.5917969
vt -20.203125 2.6113281
vt -20.25 3.5917969
vt -20.234375 2.6113281
vt -21.6875 3.5917969
vt -21.6875 2.6113281
vt -21.75 3.5917969
vt -21.734375 2.6113281
vt -24.421875 3.5761719
vt -24.421875 2.5976562
vt -24.46875 3.5761719
vt -24.46875 2.5957031
vt -25.921875 3.5761719
vt -25.921875 2.59375
vt -20.1875 3.5917969
vt -20.203125 2.6113281
vt -20.25 3.5917969
vt -20.234375 2.6113281
vt -25.984375 2.59375
vt -25.984375 3.5742188
vt -25.921875 2.59375
vt -25.921875 3.5761719
vt -21.6875 3.5917969
vt -21.6875 2.6113281
vt -21.75 3.5917969
vt -21.734375 2.6113281
vt -24.421875 3.5761719
vt -24.421875 2.5976562
vt -24.46875 3.5761719
vt -24.46875 2.5957031
vt -24.4375 2.5449219
vt -25.921875 2.5371094
vt -24.46875 2.5957031
vt -25.921875 2.59375
vt -21.703125 2.5585938
vt -24.4375 2.5449219
vt -21.734375 2.6113281
vt -24.421875 2.5976562
vt -20.21875 2.5585938
vt -21.703125 2.5585938
vt -20.234375 2.6113281
vt -21.6875 2.6113281
vt -17.53125 2.5214844
vt -20.21875 2.5585938
vt -17.515625 2.578125
vt -20.203125 2.6113281
vt -27.609375 0.19262695
vt -21.6875 0.20874023
vt -27.59375 -0.7163086
vt -21.6875 -0.70458984
vt -21.625 0.20654297
vt -17.5625 0.20483398
vt -21.625 -0.70996094
vt -17.5625 -0.7089844
vt -17.5 0.20617676
vt -11.59375 0.19592285
vt -17.515625 -0.7060547
vt -11.6015625 -0.7163086
vt -11.53125 0.19396973
vt -7.4726562 0.19152832
vt -11.5390625 -0.72314453
vt -7.46875 -0.72265625
vt -21.6875 0.20874023
vt -21.625 0.20654297
vt -21.6875 -0.70458984
vt -21.625 -0.70996094
vt -17.5625 0.20483398
vt -17.5 0.20617676
vt -17.5625 -0.7089844
vt -17.515625 -0.7060547
vt -11.5859375 -0.8510742
vt -11.5390625 -0.72314453
vt -7.484375 -0.8510742
vt -7.46875 -0.72265625
vt -17.546875 -0.8388672
vt -17.515625 -0.7060547
vt -11.5859375 -0.8510742
vt -11.6015625 -0.7163086
vt -21.671875 -0.8383789
vt -21.625 -0.70996094
vt -17.546875 -0.8388672
vt -17.5625 -0.7089844
vt -27.609375 -0.8510742
vt -27.59375 -0.7163086
vt -21.671875 -0.8383789
vt -21.6875 -0.70458984
vt -28.921875 11.4296875
vt -28.03125 11.4453125
vt -28.90625 10.40625
vt -28.03125 10.4140625
vt -27.96875 11.4453125
vt -27.28125 11.4453125
vt -27.984375 10.4140625
vt -27.28125 10.4140625
vt -27.21875 11.4453125
vt -26.34375 11.4375
vt -27.234375 10.4140625
vt -26.34375 10.40625
vt -26.28125 11.4375
vt -25.59375 11.4375
vt -26.296875 10.40625
vt -25.59375 10.40625
vt -28.03125 11.4453125
vt -27.96875 11.4453125
vt -28.03125 10.4140625
vt -27.984375 10.4140625
vt -27.28125 11.4453125
vt -27.21875 11.4453125
vt -27.28125 10.4140625
vt -27.234375 10.4140625
vt -26.34375 11.4375
vt -26.28125 11.4375
vt -26.34375 10.40625
vt -26.296875 10.40625
vt -35.09375 7.359375
vt -34 7.4101562
vt -35.0625 6.6367188
vt -33.96875 6.6875
vt -33.90625 7.4140625
vt -33.25 7.421875
vt -33.90625 6.6914062
vt -33.25 6.6992188
vt -33.15625 7.421875
vt -32.0625 7.3984375
vt -33.1875 6.6953125
vt -32.09375 6.6757812
vt -32.03125 7.3984375
vt -31.34375 7.390625
vt -32.03125 6.6757812
vt -31.359375 6.6679688
vt -34 7.4101562
vt -33.90625 7.4140625
vt -33.96875 6.6875
vt -33.90625 6.6914062
vt -33.25 7.421875
vt -33.15625 7.421875
vt -33.25 6.6992188
vt -33.1875 6.6953125
vt -32.0625 7.3984375
vt -32.03125 7.3984375
vt -32.09375 6.6757812
vt -32.03125 6.6757812
vt -33.21875 6.6210938
vt -33.1875 6.6953125
vt -32.0625 6.6015625
vt -32.09375 6.6757812
vt -33.9375 6.6171875
vt -33.90625 6.6914062
vt -33.21875 6.6210938
vt -33.25 6.6992188
vt -26.328125 10.34375
vt -26.296875 10.40625
vt -25.59375 10.34375
vt -25.59375 10.40625
vt -27.265625 10.359375
vt -27.234375 10.4140625
vt -26.328125 10.34375
vt -26.34375 10.40625
vt -28 10.359375
vt -27.984375 10.4140625
vt -27.265625 10.359375
vt -27.28125 10.4140625
vt -28.90625 10.3359375
vt -28.90625 10.40625
vt -28 10.359375
vt -28.03125 10.4140625
vt 5.5625 -3.4335938
vt 5.6054688 -6.1210938
vt 4.1015625 -3.4511719
vt 4.1484375 -6.1367188
vt 3.8222656 -12.59375
vt 3.828125 -8.515625
vt 9.7421875 -12.59375
vt 9.75 -8.515625
vt 7.9453125 -6.5234375
vt 7.2578125 -6.5039062
vt 7.96875 -5.4179688
vt 7.2851562 -5.3984375
vt 10.296875 -5.5664062
vt 11 -5.5820312
vt 10.265625 -6.4570312
vt 10.9765625 -6.4726562
vt 7.421875 10.09375
vt 7.4609375 11.546875
vt 10.109375 10.0078125
vt 10.1484375 11.4609375
vt 10.9765625 2.7734375
vt 5.1757812 2.7734375
vt 10.96875 6.7851562
vt 5.171875 6.7695312
vt 12.0234375 11.609375
vt 12.0234375 10.75
vt 11.34375 11.6171875
vt 11.34375 10.7578125
vt 11.640625 6.7539062
vt 11.640625 5.6484375
vt 10.9609375 6.7539062
vt 10.9609375 5.6484375
vn 0.6816406 0.57421875 0.45385742
vn 0.6816406 0.57421875 0.45385742
vn 0.6816406 0.57421875 0.45385742
vn -0.4572754 0.5649414 0.6870117
vn -0.4572754 0.5649414 0.6870117
vn -0.4572754 0.5649414 0.6870117
vn 0.4572754 0.5649414 -0.68652344
vn 0.4572754 0.5649414 -0.68652344
vn 0.4572754 0.5649414 -0.68652344
vn -0.6816406 0.57421875 -0.45385742
vn -0.6816406 0.57421875 -0.45385742
vn -0.6816406 0.57421875 -0.45385742
vn -0.28881836 0.94091797 0.17687988
vn -0.28881836 0.94091797 0.17687988
vn -0.28881836 0.94091797 0.17687988
vn 0.31225586 0.93847656 0.14648438
vn 0.31225586 0.93847656 0.14648438
vn 0.31225586 0.93847656 0.14648438
vn -0.31225586 0.93847656 -0.14648438
vn -0.31225586 0.93847656 -0.14648438
vn -0.31225586 0.93847656 -0.14648438
vn 0.28881836 0.94091797 -0.17687988
vn 0.28881836 0.94091797 -0.17687988
vn 0.28881836 0.94091797 -0.17687988
vn -0.000626564 0.3317871 0.9433594
vn -0.000626564 0.3317871 0.9433594
vn -0.000626564 0.3317871 0.9433594
vn 0.0029144287 0.11505127 0.99316406
vn 0.0029144287 0.11505127 0.99316406
vn 0.0029144287 0.11505127 0.99316406
vn -0.98291016 0.18481445 0.0011167526
vn -0.98291016 0.18481445 0.0011167526
vn -0.98291016 0.18481445 0.0011167526
vn -0.98291016 0.18518066 0.0011072159
vn -0.98291016 0.18518066 0.0011072159
vn -0.98291016 0.18518066 0.0011072159
vn -0.25878906 0.72998047 0.6328125
vn -0.25878906 0.72998047 0.6328125
vn -0.25878906 0.72998047 0.6328125
vn 0.6381836 0.7246094 0.26098633
vn 0.6381836 0.7246094 0.26098633
vn 0.6381836 0.7246094 0.26098633
vn -0.6381836 0.7246094 -0.2607422
vn -0.6381836 0.7246094 -0.2607422
vn -0.6381836 0.7246094 -0.2607422
vn 0.25878906 0.72998047 -0.6328125
vn 0.25878906 0.72998047 -0.6328125
vn 0.25878906 0.72998047 -0.6328125
vn -0.49169922 0.7705078 0.40576172
vn -0.49169922 0.7705078 0.40576172
vn -0.49169922 0.7705078 0.40576172
vn 0.34985352 0.78222656 0.5151367
vn 0.34985352 0.78222656 0.5151367
vn 0.34985352 0.78222656 0.5151367
vn -0.3720703 0.77197266 -0.5151367
vn -0.3720703 0.77197266 -0.5151367
vn -0.3720703 0.77197266 -0.5151367
vn 0.46972656 0.7841797 -0.40576172
vn 0.46972656 0.7841797 -0.40576172
vn 0.46972656 0.7841797 -0.40576172
vn 0.6245117 0.6616211 0.41577148
vn 0.6245117 0.6616211 0.41577148
vn 0.6245117 0.6616211 0.41577148
vn 0.6245117 0.6616211 0.41552734
vn -0.41381836 0.66503906 0.62158203
vn -0.41381836 0.66503906 0.62158203
vn -0.41381836 0.66503906 0.62158203
vn -0.41381836 0.66552734 0.62158203
vn 0.41381836 0.66552734 -0.62158203
vn 0.41381836 0.66552734 -0.62158203
vn 0.41381836 0.66552734 -0.62158203
vn 0.41381836 0.66552734 -0.62158203
vn -0.6245117 0.6616211 -0.41577148
vn -0.6245117 0.6616211 -0.41577148
vn -0.6245117 0.6616211 -0.41577148
vn -0.6245117 0.6611328 -0.41577148
vn 0.101623535 0.7636719 0.63720703
vn 0.10235596 0.7597656 0.64208984
vn 0.10235596 0.7597656 0.64208984
vn 0.10235596 0.7597656 0.64208984
vn 0.103515625 0.75390625 0.6489258
vn 0.103515625 0.75390625 0.6489258
vn -0.5756836 0.8120117 0.09460449
vn -0.5756836 0.8120117 0.09460449
vn -0.5756836 0.8120117 0.09460449
vn -0.57421875 0.81347656 0.09442139
vn -0.101623535 0.7636719 -0.63720703
vn -0.10235596 0.7597656 -0.64208984
vn -0.10235596 0.7597656 -0.64208984
vn -0.10235596 0.7597656 -0.64208984
vn -0.103515625 0.75390625 -0.6489258
vn -0.103515625 0.75390625 -0.6489258
vn 0.5756836 0.8120117 -0.09460449
vn 0.5756836 0.8120117 -0.09460449
vn 0.5756836 0.8120117 -0.09460449
vn 0.57421875 0.81347656 -0.09436035
vn -0.6904297 0.71435547 0.11352539
vn -0.6904297 0.71435547 0.11352539
vn -0.6904297 0.71435547 0.11352539
vn -0.69140625 0.7133789 0.11364746
vn 0.6904297 0.71484375 -0.113464355
vn 0.6904297 0.71484375 -0.113464355
vn 0.6904297 0.71484375 -0.113464355
vn 0.69140625 0.7133789 -0.11364746
vn -0.8515625 0.049743652 0.5214844
vn -0.8515625 0.049743652 0.5214844
vn -0.8515625 0.049743652 0.5214844
vn -0.8515625 0.049743652 0.5214844
vn 0.89404297 0.1586914 0.41918945
vn 0.89404297 0.1586914 0.41918945
vn 0.89404297 0.1586914 0.41918945
vn 0.89404297 0.1586914 0.4194336
vn -0.89404297 0.1586914 -0.4194336
vn -0.89404297 0.1586914 -0.4194336
vn -0.89404297 0.1586914 -0.4194336
vn -0.89404297 0.1586914 -0.4194336
vn 0.84033203 0.17041016 -0.51464844
vn 0.84033203 0.17041016 -0.51464844
vn 0.84033203 0.17041016 -0.51464844
vn 0.84033203 0.17041016 -0.51464844
vn 0.0011997223 0.91259766 0.40893555
vn 0.0011997223 0.91259766 0.40893555
vn 0.0011997223 0.91259766 0.40893555
vn 0.0012025833 0.91259766 0.4091797
vn 0.3762207 0.9267578 -0.0004248619
vn 0.3762207 0.9267578 -0.0004248619
vn 0.3762207 0.9267578 -0.0004248619
vn 0.3762207 0.9267578 -0.0004246235
vn 5.7160854E-05 0.9121094 -0.4099121
vn 5.7160854E-05 0.9121094 -0.4099121
vn 5.7160854E-05 0.9121094 -0.4099121
vn 8.1300735E-05 0.91308594 -0.40820312
vn -0.3762207 0.9267578 0.0004248619
vn -0.3762207 0.9267578 0.0004248619
vn -0.3762207 0.9267578 0.0004248619
vn -0.3762207 0.9267578 0.00042533875
vn 0.98291016 0.18518066 -0.0011119843
vn 0.98291016 0.18518066 -0.0011119843
vn 0.98291016 0.18518066 -0.0011119843
vn 0.98291016 0.18518066 -0.0011129379
vn 0.00013136864 0.3317871 -0.9433594
vn 0.00013136864 0.3317871 -0.9433594
vn 0.00013136864 0.3317871 -0.9433594
vn 0.00013148785 0.3317871 -0.9433594
vn -0.3293457 0.49243164 0.80566406
vn -0.3293457 0.49243164 0.80566406
vn -0.3293457 0.49243164 0.80566406
vn -0.3293457 0.49243164 0.80566406
vn 0.80566406 0.49243164 0.3293457
vn 0.80566406 0.49243164 0.3293457
vn 0.80566406 0.49243164 0.3293457
vn 0.80566406 0.49267578 0.3293457
vn -0.80566406 0.49267578 -0.3293457
vn -0.80566406 0.49267578 -0.3293457
vn -0.80566406 0.49267578 -0.3293457
vn -0.80566406 0.49243164 -0.3293457
vn 0.3293457 0.49243164 -0.80566406
vn 0.3293457 0.49243164 -0.80566406
vn 0.3293457 0.49243164 -0.80566406
vn 0.3293457 0.49243164 -0.80566406
vn 0.2548828 0.73339844 0.6303711
vn 0.2548828 0.73339844 0.6303711
vn 0.2548828 0.73339844 0.6303711
vn 0.25317383 0.7368164 0.6269531
vn 0.62402344 0.7416992 -0.24597168
vn 0.62402344 0.7416992 -0.24597168
vn 0.62402344 0.7416992 -0.24597168
vn 0.62597656 0.7397461 -0.24694824
vn -0.2548828 0.73339844 -0.6303711
vn -0.2548828 0.73339844 -0.6303711
vn -0.2548828 0.73339844 -0.6303711
vn -0.25317383 0.7368164 -0.6269531
vn -0.62402344 0.7416992 0.24597168
vn -0.62402344 0.7416992 0.24597168
vn -0.62402344 0.7416992 0.24597168
vn -0.62597656 0.7397461 0.24694824
vn 0.2927246 0.625 0.7236328
vn 0.2927246 0.625 0.7236328
vn 0.2927246 0.625 0.7236328
vn 0.2927246 0.625 0.7236328
vn 0.7265625 0.6245117 -0.28637695
vn 0.7265625 0.6245117 -0.28637695
vn 0.7265625 0.6245117 -0.28637695
vn 0.7265625 0.6245117 -0.28637695
vn -0.2927246 0.625 -0.7236328
vn -0.2927246 0.625 -0.7236328
vn -0.2927246 0.625 -0.7236328
vn -0.2927246 0.625 -0.7236328
vn -0.7265625 0.625 0.28637695
vn -0.7265625 0.625 0.28637695
vn -0.7265625 0.625 0.28637695
vn -0.7265625 0.625 0.28637695
vn -0.69921875 0.41088867 0.58496094
vn -0.69921875 0.41088867 0.58496094
vn -0.69921875 0.41088867 0.58496094
vn -0.69921875 0.41088867 0.58496094
vn 0.51416016 0.42822266 0.74316406
vn 0.51416016 0.42822266 0.74316406
vn 0.51416016 0.42822266 0.74316406
vn 0.51416016 0.42822266 0.74316406
vn -0.5263672 0.41333008 -0.74316406
vn -0.5263672 0.41333008 -0.74316406
vn -0.5263672 0.41333008 -0.74316406
vn -0.5263672 0.41333008 -0.74316406
vn 0.6870117 0.43066406 -0.58496094
vn 0.6870117 0.43066406 -0.58496094
vn 0.6870117 0.43066406 -0.58496094
vn 0.6870117 0.43066406 -0.58496094
vn -0.078430176 0.8574219 0.50878906
vn -0.078430176 0.8574219 0.50878906
vn -0.078430176 0.8574219 0.50878906
vn -0.078430176 0.8574219 0.50878906
vn 0.4621582 0.88427734 0.065979004
vn 0.4621582 0.88427734 0.065979004
vn 0.4621582 0.88427734 0.065979004
vn 0.4621582 0.88427734 0.065979004
vn 0.05392456 0.859375 -0.50878906
vn 0.05392456 0.859375 -0.50878906
vn 0.05392456 0.859375 -0.50878906
vn 0.05392456 0.859375 -0.50878906
vn -0.48876953 0.87060547 -0.052825928
vn -0.48876953 0.87060547 -0.052825928
vn -0.48876953 0.87060547 -0.052825928
vn -0.48876953 0.87060547 -0.052825928
vn -0.11682129 0.53027344 0.83984375
vn -0.11682129 0.53027344 0.83984375
vn -0.11682129 0.53027344 0.83984375
vn -0.11682129 0.53027344 0.83984375
vn 0.80908203 0.578125 0.10644531
vn 0.80908203 0.578125 0.10644531
vn 0.80908203 0.578125 0.10644531
vn 0.80908203 0.578125 0.10644531
vn 0.101623535 0.5336914 -0.83984375
vn 0.101623535 0.5336914 -0.83984375
vn 0.101623535 0.5336914 -0.83984375
vn 0.101623535 0.5336914 -0.83984375
vn -0.8261719 0.5546875 -0.09790039
vn -0.8261719 0.5546875 -0.09790039
vn -0.8261719 0.5546875 -0.09790039
vn -0.8261719 0.5546875 -0.09790039
vn 0.64453125 -0.6328125 0.42919922
vn 0.64453125 -0.6328125 0.42919922
vn 0.64453125 -0.6328125 0.42919922
vn -0.42919922 -0.6328125 0.64453125
vn -0.42919922 -0.6328125 0.64453125
vn -0.42919922 -0.6328125 0.64453125
vn 0.42919922 -0.6328125 -0.64453125
vn 0.42919922 -0.6328125 -0.64453125
vn 0.42919922 -0.6328125 -0.64453125
vn -0.64453125 -0.6328125 -0.42919922
vn -0.64453125 -0.6328125 -0.42919922
vn -0.64453125 -0.6328125 -0.42919922
vn -0.85302734 0.0028305054 0.52246094
vn -0.85302734 0.0028305054 0.52246094
vn -0.85302734 0.0028305054 0.52246094
vn -0.85302734 0.0028305054 0.52197266
vn -0.85302734 0.0028305054 0.52197266
vn -0.85302734 0.0028305054 0.52197266
vn -0.90527344 2.682209E-06 -0.4248047
vn -0.90527344 2.682209E-06 -0.4248047
vn -0.90527344 2.682209E-06 -0.4248047
vn -0.90527344 1.3113022E-06 -0.4248047
vn -0.90527344 1.3113022E-06 -0.4248047
vn -0.90527344 1.3113022E-06 -0.4248047
vn -0.82666016 -0.24499512 0.50634766
vn -0.82666016 -0.24499512 0.50634766
vn -0.82666016 -0.24499512 0.50634766
vn 0.88134766 -0.22851562 0.41357422
vn 0.88134766 -0.22851562 0.41357422
vn 0.88134766 -0.22851562 0.41357422
vn -0.88134766 -0.22851562 -0.41357422
vn -0.88134766 -0.22851562 -0.41357422
vn -0.88134766 -0.22851562 -0.41357422
vn 0.82666016 -0.24499512 -0.50634766
vn 0.82666016 -0.24499512 -0.50634766
vn 0.82666016 -0.24499512 -0.50634766
vn -0.37841797 0.002729416 0.92578125
vn -0.37841797 0.002729416 0.92578125
vn -0.37841797 0.002729416 0.92578125
vn -0.37841797 0.002729416 0.92578125
vn -0.37841797 0.002729416 0.92578125
vn -0.37841797 0.002729416 0.92578125
vn -0.76416016 -0.006462097 0.64501953
vn -0.76416016 -0.006462097 0.64501953
vn -0.76416016 -0.006462097 0.64501953
vn -0.76416016 -0.006462097 0.64501953
vn -0.76416016 -0.006462097 0.64501953
vn -0.76416016 -0.006462097 0.64501953
vn -0.5551758 -0.6816406 0.47680664
vn -0.5551758 -0.6816406 0.47680664
vn -0.5551758 -0.6816406 0.47680664
vn 0.48339844 -0.5522461 0.6791992
vn 0.48339844 -0.5522461 0.6791992
vn 0.48339844 -0.5522461 0.6791992
vn -0.4675293 -0.56591797 -0.6791992
vn -0.4675293 -0.56591797 -0.6791992
vn -0.4675293 -0.56591797 -0.6791992
vn 0.64160156 -0.55029297 -0.53466797
vn 0.64160156 -0.55029297 -0.53466797
vn 0.64160156 -0.55029297 -0.53466797
vn -0.6928711 -0.7167969 -0.07775879
vn -0.6928711 -0.7167969 -0.07775879
vn -0.6928711 -0.7167969 -0.07775879
vn -0.578125 -0.8120117 -0.07977295
vn -0.578125 -0.8120117 -0.07977295
vn -0.578125 -0.8120117 -0.07977295
vn -0.08050537 -0.7783203 0.6230469
vn -0.08050537 -0.7783203 0.6230469
vn -0.08050537 -0.7783203 0.6230469
vn -0.085632324 -0.67578125 0.7319336
vn -0.085632324 -0.67578125 0.7319336
vn -0.085632324 -0.67578125 0.7319336
vn -0.29223633 -0.6352539 0.71484375
vn -0.29223633 -0.6352539 0.71484375
vn -0.29223633 -0.6352539 0.71484375
vn 0.71484375 -0.6352539 0.29223633
vn 0.71484375 -0.6352539 0.29223633
vn 0.71484375 -0.6352539 0.29223633
vn -0.71484375 -0.6352539 -0.29223633
vn -0.71484375 -0.6352539 -0.29223633
vn -0.71484375 -0.6352539 -0.29223633
vn 0.29223633 -0.6352539 -0.71484375
vn 0.29223633 -0.6352539 -0.71484375
vn 0.29223633 -0.6352539 -0.71484375
vn 0.1574707 0.0035743713 0.9873047
vn 0.1574707 0.0035743713 0.9873047
vn 0.1574707 0.0035743713 0.9873047
vn 0.1574707 0.0035705566 0.9873047
vn -0.9868164 -0.00012552738 0.16223145
vn -0.9868164 -0.00012552738 0.16223145
vn -0.9868164 -0.00012552738 0.16223145
vn -0.9868164 1.4305115E-06 0.16235352
vn -0.1574707 5.364418E-07 -0.9873047
vn -0.1574707 5.364418E-07 -0.9873047
vn -0.1574707 5.364418E-07 -0.9873047
vn -0.1574707 -3.2186508E-06 -0.9873047
vn 0.9868164 -2.5629997E-06 -0.16223145
vn 0.9868164 -2.5629997E-06 -0.16223145
vn 0.9868164 -2.5629997E-06 -0.16223145
vn 0.9868164 0.00012242794 -0.16235352
vn -0.5541992 0.0025291443 0.83251953
vn -0.5541992 0.0025291443 0.83251953
vn -0.5541992 0.0025291443 0.83251953
vn -0.5541992 0.002527237 0.83251953
vn 0.83251953 0.002527237 0.5541992
vn 0.83251953 0.002527237 0.5541992
vn 0.83251953 0.002527237 0.5541992
vn 0.83251953 0.002527237 0.5541992
vn -0.83251953 1.0728836E-06 -0.5541992
vn -0.83251953 1.0728836E-06 -0.5541992
vn -0.83251953 1.0728836E-06 -0.5541992
vn -0.83251953 2.9802322E-07 -0.5541992
vn 0.5541992 -4.7683716E-06 -0.83251953
vn 0.5541992 -4.7683716E-06 -0.83251953
vn 0.5541992 -4.7683716E-06 -0.83251953
vn 0.5541992 -4.172325E-07 -0.83251953
vn 0.6459961 -0.7558594 -0.10626221
vn 0.6459961 -0.7558594 -0.10626221
vn 0.6459961 -0.7558594 -0.10626221
vn 0.6459961 -0.7558594 -0.10626221
vn -0.103149414 -0.7558594 -0.6464844
vn -0.103149414 -0.7558594 -0.6464844
vn -0.103149414 -0.7558594 -0.6464844
vn -0.103149414 -0.7558594 -0.6464844
vn -0.6459961 -0.7558594 0.10626221
vn -0.6459961 -0.7558594 0.10626221
vn -0.6459961 -0.7558594 0.10626221
vn -0.6459961 -0.7558594 0.10626221
vn 0.103149414 -0.7558594 0.6464844
vn 0.103149414 -0.7558594 0.6464844
vn 0.103149414 -0.7558594 0.6464844
vn 0.103149414 -0.7558594 0.6464844
vn -0.0006599426 0.005760193 1
vn -0.0006599426 0.005760193 1
vn -0.0006599426 0.005760193 1
vn -0.0006599426 0.0057640076 1
vn 1 0.00019848347 -0.0011320114
vn 1 0.00019848347 -0.0011320114
vn 1 0.00019848347 -0.0011320114
vn 1 0 -0.0011768341
vn 0.00013923645 2.682209E-06 -1
vn 0.00013923645 2.682209E-06 -1
vn 0.00013923645 2.682209E-06 -1
vn 0.00013935566 3.0398369E-06 -1
vn -1 0 0.0011320114
vn -1 0 0.0011320114
vn -1 0 0.0011320114
vn -1 -0.00020134449 0.0011777878
vn 0.90527344 0.002632141 0.4248047
vn 0.90527344 0.002632141 0.4248047
vn 0.90527344 0.002632141 0.4248047
vn 0.90527344 0.002632141 0.4248047
vn 0.85302734 2.026558E-06 -0.52246094
vn 0.85302734 2.026558E-06 -0.52246094
vn 0.85302734 2.026558E-06 -0.52246094
vn 0.85302734 1.3709068E-06 -0.52246094
vn -0.9638672 -0.265625 0.0011348724
vn -0.9638672 -0.265625 0.0011348724
vn -0.9638672 -0.265625 0.0011348724
vn -0.9638672 -0.265625 0.0011348724
vn 0.00012397766 -0.45703125 -0.88964844
vn 0.00012397766 -0.45703125 -0.88964844
vn 0.00012397766 -0.45703125 -0.88964844
vn 0.00012397766 -0.45703125 -0.88964844
vn 0.9638672 -0.265625 -0.0011339188
vn 0.9638672 -0.265625 -0.0011339188
vn 0.9638672 -0.265625 -0.0011339188
vn 0.9638672 -0.265625 -0.0011348724
vn -0.0005874634 -0.45703125 0.88964844
vn -0.0005874634 -0.45703125 0.88964844
vn -0.0005874634 -0.45703125 0.88964844
vn -0.00058698654 -0.45703125 0.88964844
vn 0.37475586 0.0038585663 0.9272461
vn 0.37475586 0.0038585663 0.9272461
vn 0.37475586 0.0038585663 0.9272461
vn 0.37475586 0.0038585663 0.9272461
vn 0.9301758 8.3863735E-05 -0.36669922
vn 0.9301758 8.3863735E-05 -0.36669922
vn 0.9301758 8.3863735E-05 -0.36669922
vn 0.9301758 1.1920929E-07 -0.36669922
vn -0.37475586 2.3245811E-06 -0.9272461
vn -0.37475586 2.3245811E-06 -0.9272461
vn -0.37475586 2.3245811E-06 -0.9272461
vn -0.37475586 2.026558E-06 -0.9272461
vn -0.9301758 -3.2186508E-06 0.36669922
vn -0.9301758 -3.2186508E-06 0.36669922
vn -0.9301758 -3.2186508E-06 0.36669922
vn -0.9301758 -8.571148E-05 0.36669922
vn 0.92578125 0.002729416 0.37841797
vn 0.92578125 0.002729416 0.37841797
vn 0.92578125 0.002729416 0.37841797
vn 0.92578125 0.002729416 0.37841797
vn 0.37841797 1.6093254E-06 -0.92578125
vn 0.37841797 1.6093254E-06 -0.92578125
vn 0.37841797 1.6093254E-06 -0.92578125
vn 0.37841797 2.0861626E-06 -0.92578125
vn -0.92578125 2.9802322E-07 -0.37841797
vn -0.92578125 2.9802322E-07 -0.37841797
vn -0.92578125 2.9802322E-07 -0.37841797
vn -0.92578125 -1.7881393E-06 -0.37841797
vn -0.12915039 0.004173279 0.9916992
vn -0.12915039 0.004173279 0.9916992
vn -0.12915039 0.004173279 0.9916992
vn -0.12915039 0.004173279 0.9916992
vn 0.9921875 0.014122009 0.12402344
vn 0.9921875 0.014122009 0.12402344
vn 0.9921875 0.014122009 0.12402344
vn 0.9921875 0.014152527 0.12402344
vn 0.12902832 0.0018424988 -0.9916992
vn 0.12902832 0.0018424988 -0.9916992
vn 0.12902832 0.0018424988 -0.9916992
vn 0.12902832 0.0018415451 -0.9916992
vn -0.9921875 -0.014152527 -0.12402344
vn -0.9921875 -0.014152527 -0.12402344
vn -0.9921875 -0.014152527 -0.12402344
vn -0.9921875 -0.014122009 -0.12402344
vn 0.57373047 0.012619019 0.81884766
vn 0.57373047 0.012619019 0.81884766
vn 0.57373047 0.012619019 0.81884766
vn 0.57373047 0.012619019 0.81884766
vn 0.76416016 0.010902405 -0.64501953
vn 0.76416016 0.010902405 -0.64501953
vn 0.76416016 0.010902405 -0.64501953
vn 0.76416016 0.010902405 -0.64501953
vn -0.57373047 -0.00818634 -0.81884766
vn -0.57373047 -0.00818634 -0.81884766
vn -0.57373047 -0.00818634 -0.81884766
vn -0.57373047 -0.008178711 -0.81884766
vn 0.1048584 -0.67333984 -0.7319336
vn 0.1048584 -0.67333984 -0.7319336
vn 0.1048584 -0.67333984 -0.7319336
vn 0.1048584 -0.67333984 -0.7319336
vn 0.71240234 -0.69677734 0.082458496
vn 0.71240234 -0.69677734 0.082458496
vn 0.71240234 -0.69677734 0.082458496
vn 0.71240234 -0.69677734 0.082458496
vn -0.6064453 -0.7583008 0.23901367
vn -0.6064453 -0.7583008 0.23901367
vn -0.6064453 -0.7583008 0.23901367
vn -0.6064453 -0.7583008 0.23901367
vn -0.2442627 -0.7583008 -0.6044922
vn -0.2442627 -0.7583008 -0.6044922
vn -0.2442627 -0.7583008 -0.6044922
vn -0.2442627 -0.7583008 -0.6044922
vn 0.6064453 -0.7583008 -0.23913574
vn 0.6064453 -0.7583008 -0.23913574
vn 0.6064453 -0.7583008 -0.23913574
vn 0.6064453 -0.7583008 -0.23913574
vn 0.2442627 -0.7583008 0.6044922
vn 0.2442627 -0.7583008 0.6044922
vn 0.2442627 -0.7583008 0.6044922
vn 0.2442627 -0.7583008 0.6044922
vn -0 -1 -2.1457672E-06
vn -0 -1 -2.1457672E-06
vn -0 -1 -2.1457672E-06
vn -2.3841858E-07 -1 -1.4305115E-06
vn -0 -1 -1.6093254E-06
vn -0 -1 -1.6093254E-06
vn -0 -1 -1.6093254E-06
vn -0 -1 -1.66893E-06
vn 0.0018606186 -1 -0.009117126
vn 0.0018606186 -1 -0.009117126
vn 0.0018606186 -1 -0.009117126
vn 0.012428284 -1 0.014091492
vn -4.7683716E-07 -1 -2.2053719E-06
vn -4.7683716E-07 -1 -2.2053719E-06
vn -4.7683716E-07 -1 -2.2053719E-06
vn -5.364418E-07 -1 -2.2649765E-06
vn -0 1 7.1525574E-07
vn -0 1 7.1525574E-07
vn -0 1 7.1525574E-07
vn -1.1920929E-07 1 1.1920929E-06
vn -0 1 1.4305115E-06
vn -0 1 1.4305115E-06
vn -0 1 1.4305115E-06
vn -0 1 1.3113022E-06
vn 8.34465E-07 1 1.9073486E-06
vn 8.34465E-07 1 1.9073486E-06
vn 8.34465E-07 1 1.9073486E-06
vn 4.172325E-07 1 1.66893E-06
vn -0.015235901 1 0.007499695
vn -0.015235901 1 0.007499695
vn -0.015235901 1 0.007499695
vn -0.015235901 1 0.007499695
g A001_BB03_0
f 3/3/3 2/2/2 1/1/1
f 6/6/6 5/5/5 4/4/4
f 9/9/9 8/8/8 7/7/7
f 12/12/12 11/11/11 10/10/10
f 15/15/15 14/14/14 13/13/13
f 18/18/18 17/17/17 16/16/16
f 21/21/21 20/20/20 19/19/19
f 24/24/24 23/23/23 22/22/22
f 27/27/27 26/26/26 25/25/25
f 30/30/30 29/29/29 28/28/28
f 33/33/33 32/32/32 31/31/31
f 36/36/36 35/35/35 34/34/34
f 39/39/39 38/38/38 37/37/37
f 42/42/42 41/41/41 40/40/40
f 45/45/45 44/44/44 43/43/43
f 48/48/48 47/47/47 46/46/46
f 51/51/51 50/50/50 49/49/49
f 54/54/54 53/53/53 52/52/52
f 57/57/57 56/56/56 55/55/55
f 60/60/60 59/59/59 58/58/58
f 63/63/63 62/62/62 61/61/61
f 62/62/62 63/63/63 64/64/64
f 67/67/67 66/66/66 65/65/65
f 66/66/66 67/67/67 68/68/68
f 71/71/71 70/70/70 69/69/69
f 70/70/70 71/71/71 72/72/72
f 75/75/75 74/74/74 73/73/73
f 74/74/74 75/75/75 76/76/76
f 79/79/79 78/78/78 77/77/77
f 78/78/78 79/79/79 80/80/80
f 80/80/80 81/81/81 78/78/78
f 81/81/81 80/80/80 82/82/82
f 85/85/85 84/84/84 83/83/83
f 84/84/84 85/85/85 86/86/86
f 89/89/89 88/88/88 87/87/87
f 88/88/88 89/89/89 90/90/90
f 90/90/90 91/91/91 88/88/88
f 91/91/91 90/90/90 92/92/92
f 95/95/95 94/94/94 93/93/93
f 94/94/94 95/95/95 96/96/96
f 99/99/99 98/98/98 97/97/97
f 98/98/98 99/99/99 100/100/100
f 103/103/103 102/102/102 101/101/101
f 102/102/102 103/103/103 104/104/104
f 107/107/107 106/106/106 105/105/105
f 106/106/106 107/107/107 108/108/108
f 111/111/111 110/110/110 109/109/109
f 110/110/110 111/111/111 112/112/112
f 115/115/115 114/114/114 113/113/113
f 114/114/114 115/115/115 116/116/116
f 119/119/119 118/118/118 117/117/117
f 118/118/118 119/119/119 120/120/120
f 123/123/123 122/122/122 121/121/121
f 122/122/122 123/123/123 124/124/124
f 127/127/127 126/126/126 125/125/125
f 126/126/126 127/127/127 128/128/128
f 131/131/131 130/130/130 129/129/129
f 130/130/130 131/131/131 132/132/132
f 135/135/135 134/134/134 133/133/133
f 134/134/134 135/135/135 136/136/136
f 139/139/139 138/138/138 137/137/137
f 138/138/138 139/139/139 140/140/140
f 143/143/143 142/142/142 141/141/141
f 142/142/142 143/143/143 144/144/144
f 147/147/147 146/146/146 145/145/145
f 146/146/146 147/147/147 148/148/148
f 151/151/151 150/150/150 149/149/149
f 150/150/150 151/151/151 152/152/152
f 155/155/155 154/154/154 153/153/153
f 154/154/154 155/155/155 156/156/156
f 159/159/159 158/158/158 157/157/157
f 158/158/158 159/159/159 160/160/160
f 163/163/163 162/162/162 161/161/161
f 162/162/162 163/163/163 164/164/164
f 167/167/167 166/166/166 165/165/165
f 166/166/166 167/167/167 168/168/168
f 171/171/171 170/170/170 169/169/169
f 170/170/170 171/171/171 172/172/172
f 175/175/175 174/174/174 173/173/173
f 174/174/174 175/175/175 176/176/176
f 179/179/179 178/178/178 177/177/177
f 178/178/178 179/179/179 180/180/180
f 183/183/183 182/182/182 181/181/181
f 182/182/182 183/183/183 184/184/184
f 187/187/187 186/186/186 185/185/185
f 186/186/186 187/187/187 188/188/188
f 191/191/191 190/190/190 189/189/189
f 190/190/190 191/191/191 192/192/192
f 195/195/195 194/194/194 193/193/193
f 194/194/194 195/195/195 196/196/196
f 199/199/199 198/198/198 197/197/197
f 198/198/198 199/199/199 200/200/200
f 203/203/203 202/202/202 201/201/201
f 202/202/202 203/203/203 204/204/204
f 207/207/207 206/206/206 205/205/205
f 206/206/206 207/207/207 208/208/208
f 211/211/211 210/210/210 209/209/209
f 210/210/210 211/211/211 212/212/212
f 215/215/215 214/214/214 213/213/213
f 214/214/214 215/215/215 216/216/216
f 219/219/219 218/218/218 217/217/217
f 218/218/218 219/219/219 220/220/220
f 223/223/223 222/222/222 221/221/221
f 222/222/222 223/223/223 224/224/224
f 227/227/227 226/226/226 225/225/225
f 226/226/226 227/227/227 228/228/228
f 231/231/231 230/230/230 229/229/229
f 230/230/230 231/231/231 232/232/232
f 235/235/235 234/234/234 233/233/233
f 234/234/234 235/235/235 236/236/236
f 239/239/239 238/238/238 237/237/237
f 238/238/238 239/239/239 240/240/240
g A001_BB03_1
f 243/243/243 242/242/242 241/241/241
f 246/246/246 245/245/245 244/244/244
f 249/249/249 248/248/248 247/247/247
f 252/252/252 251/251/251 250/250/250
f 255/255/255 254/254/254 253/253/253
f 258/258/258 257/257/257 256/256/256
f 261/261/261 260/260/260 259/259/259
f 264/264/264 263/263/263 262/262/262
f 267/267/267 266/266/266 265/265/265
f 270/270/270 269/269/269 268/268/268
f 273/273/273 272/272/272 271/271/271
f 276/276/276 275/275/275 274/274/274
f 279/279/279 278/278/278 277/277/277
f 282/282/282 281/281/281 280/280/280
f 285/285/285 284/284/284 283/283/283
f 288/288/288 287/287/287 286/286/286
f 291/291/291 290/290/290 289/289/289
f 294/294/294 293/293/293 292/292/292
f 297/297/297 296/296/296 295/295/295
f 300/300/300 299/299/299 298/298/298
f 303/303/303 302/302/302 301/301/301
f 306/306/306 305/305/305 304/304/304
f 309/309/309 308/308/308 307/307/307
f 312/312/312 311/311/311 310/310/310
f 315/315/315 314/314/314 313/313/313
f 318/318/318 317/317/317 316/316/316
f 321/321/321 320/320/320 319/319/319
f 324/324/324 323/323/323 322/322/322
f 327/327/327 326/326/326 325/325/325
f 326/326/326 327/327/327 328/328/328
f 331/331/331 330/330/330 329/329/329
f 330/330/330 331/331/331 332/332/332
f 335/335/335 334/334/334 333/333/333
f 334/334/334 335/335/335 336/336/336
f 339/339/339 338/338/338 337/337/337
f 338/338/338 339/339/339 340/340/340
f 343/343/343 342/342/342 341/341/341
f 342/342/342 343/343/343 344/344/344
f 347/347/347 346/346/346 345/345/345
f 346/346/346 347/347/347 348/348/348
f 351/351/351 350/350/350 349/349/349
f 350/350/350 351/351/351 352/352/352
f 355/355/355 354/354/354 353/353/353
f 354/354/354 355/355/355 356/356/356
f 359/359/359 358/358/358 357/357/357
f 358/358/358 359/359/359 360/360/360
f 363/363/363 362/362/362 361/361/361
f 362/362/362 363/363/363 364/364/364
f 367/367/367 366/366/366 365/365/365
f 366/366/366 367/367/367 368/368/368
f 371/371/371 370/370/370 369/369/369
f 370/370/370 371/371/371 372/372/372
f 375/375/375 374/374/374 373/373/373
f 374/374/374 375/375/375 376/376/376
f 379/379/379 378/378/378 377/377/377
f 378/378/378 379/379/379 380/380/380
f 383/383/383 382/382/382 381/381/381
f 382/382/382 383/383/383 384/384/384
f 387/387/387 386/386/386 385/385/385
f 386/386/386 387/387/387 388/388/388
f 391/391/391 390/390/390 389/389/389
f 390/390/390 391/391/391 392/392/392
f 395/395/395 394/394/394 393/393/393
f 394/394/394 395/395/395 396/396/396
f 399/399/399 398/398/398 397/397/397
f 398/398/398 399/399/399 400/400/400
f 403/403/403 402/402/402 401/401/401
f 402/402/402 403/403/403 404/404/404
f 407/407/407 406/406/406 405/405/405
f 406/406/406 407/407/407 408/408/408
f 411/411/411 410/410/410 409/409/409
f 410/410/410 411/411/411 412/412/412
f 415/415/415 414/414/414 413/413/413
f 414/414/414 415/415/415 416/416/416
f 419/419/419 418/418/418 417/417/417
f 418/418/418 419/419/419 420/420/420
f 423/423/423 422/422/422 421/421/421
f 422/422/422 423/423/423 424/424/424
f 427/427/427 426/426/426 425/425/425
f 426/426/426 427/427/427 428/428/428
f 431/431/431 430/430/430 429/429/429
f 430/430/430 431/431/431 432/432/432
f 435/435/435 434/434/434 433/433/433
f 434/434/434 435/435/435 436/436/436
f 439/439/439 438/438/438 437/437/437
f 438/438/438 439/439/439 440/440/440
f 443/443/443 442/442/442 441/441/441
f 442/442/442 443/443/443 444/444/444
f 447/447/447 446/446/446 445/445/445
f 446/446/446 447/447/447 448/448/448
f 451/451/451 450/450/450 449/449/449
f 450/450/450 451/451/451 452/452/452
f 455/455/455 454/454/454 453/453/453
f 454/454/454 455/455/455 456/456/456
f 459/459/459 458/458/458 457/457/457
f 458/458/458 459/459/459 460/460/460
f 463/463/463 462/462/462 461/461/461
f 462/462/462 463/463/463 464/464/464
f 467/467/467 466/466/466 465/465/465
f 466/466/466 467/467/467 468/468/468
f 471/471/471 470/470/470 469/469/469
f 470/470/470 471/471/471 472/472/472
f 475/475/475 474/474/474 473/473/473
f 474/474/474 475/475/475 476/476/476
f 479/479/479 478/478/478 477/477/477
f 478/478/478 479/479/479 480/480/480
f 483/483/483 482/482/482 481/481/481
f 482/482/482 483/483/483 484/484/484
f 487/487/487 486/486/486 485/485/485
f 486/486/486 487/487/487 488/488/488
f 491/491/491 490/490/490 489/489/489
f 490/490/490 491/491/491 492/492/492
g A001_BB03_2
f 495/495/495 494/494/494 493/493/493
f 494/494/494 495/495/495 496/496/496
f 499/499/499 498/498/498 497/497/497
f 498/498/498 499/499/499 500/500/500
f 503/503/503 502/502/502 501/501/501
f 502/502/502 503/503/503 504/504/504
f 507/507/507 506/506/506 505/505/505
f 506/506/506 507/507/507 508/508/508
g A001_BB03_3
f 511/511/511 510/510/510 509/509/509
f 510/510/510 511/511/511 512/512/512
f 515/515/515 514/514/514 513/513/513
f 514/514/514 515/515/515 516/516/516
f 519/519/519 518/518/518 517/517/517
f 518/518/518 519/519/519 520/520/520
f 523/523/523 522/522/522 521/521/521
f 522/522/522 523/523/523 524/524/524
