g A001_BB04
v 0.81566405 5.474822 2.6073022
v 0.8395459 5.30453 2.985559
v 0.5726513 5.3045335 2.8899877
v 10.004741 5.4748254 -2.157174
v 10.390923 5.304535 -2.1841247
v 10.2953415 5.3045335 -1.9172205
v -5.0148582 5.4748387 -9.211727
v -5.401045 5.3045454 -9.184762
v -5.3054786 5.304548 -9.451666
v 4.1742234 5.474841 -13.97621
v 4.1503024 5.30455 -14.354448
v 4.4172363 5.304547 -14.258882
v 5.1228857 3.3938076 -3.269218
v 4.8515577 3.1656728 -2.7017353
v 4.6589403 3.1656759 -2.8931317
v 19.532656 3.3938057 -2.157553
v 19.919764 3.165671 -1.7491608
v 19.711803 3.165671 -1.5745331
v 6.1558056 3.3938348 -15.057307
v 5.7686815 3.1656988 -15.465698
v 5.9766407 3.165704 -15.640338
v 20.56557 3.3938315 -13.945646
v 20.836872 3.1656995 -14.513143
v 21.02951 3.1656954 -14.321727
v 3.852998 4.4833555 6.873374
v 3.7978516 4.399919 7.048049
v 3.6618164 4.399922 6.813032
v 3.852998 4.4833555 6.873374
v 16.435656 4.701857 10.7051
v 3.7978516 4.399919 7.048049
v 3.6618164 4.399922 6.813032
v 7.825215 4.399938 -5.675682
v 3.852998 4.4833555 6.873374
v 8.0163965 4.701879 -5.6153455
v 3.852998 4.4833555 6.873374
v 7.825215 4.399938 -5.675682
v 13.150996 3.7781858 -3.6506321
v 13.080967 3.7100964 -3.5464435
v 13.046662 3.7100232 -3.7203662
v 19.018948 3.7795053 -0.5863745
v 19.122837 3.710804 -0.5164856
v 18.948915 3.711416 -0.48218504
v 16.519217 3.7676961 -9.736876
v 16.426908 3.6995277 -9.821918
v 16.604046 3.6989202 -9.828917
v 22.099846 3.7690132 -6.6537876
v 22.18467 3.7002368 -6.745824
v 22.191668 3.7003102 -6.568682
v -21.379145 2.6511657 15.070937
v -21.921762 2.4302588 15.564921
v -22.086645 2.4302619 15.357993
v 15.138567 2.6224768 14.951909
v 15.846863 2.4015687 15.207172
v 15.702546 2.401568 15.443593
v -21.420238 2.6225173 -13.320397
v -22.12853 2.4016068 -13.575666
v -21.984213 2.4016109 -13.812082
v 15.097483 2.6225154 -13.439428
v 15.640085 2.4016104 -13.933413
v 15.804963 2.401606 -13.726486
v 15.712836 1.9913174 15.665263
v -21.91148 2.4270382 15.786601
v 15.702546 2.401568 15.443593
v -21.921762 2.4302588 15.564921
v 15.702546 2.401568 15.443593
v -21.91148 2.4270382 15.786601
v -22.241236 2.4270396 15.372739
v -22.28311 1.9913591 -13.560918
v -22.086645 2.4302619 15.357993
v -22.12853 2.4016068 -13.575666
v -22.086645 2.4302619 15.357993
v -22.28311 1.9913591 -13.560918
v 0.9252197 5.124873 3.166809
v 0.39140135 5.124872 2.9756665
v 0.8395459 5.30453 2.985559
v 0.5726513 5.3045335 2.8899877
v 10.572134 5.1248755 -2.2698083
v 10.38103 5.1248755 -1.7359802
v 10.390923 5.304535 -2.1841247
v 10.2953415 5.3045335 -1.9172205
v -5.582285 5.124887 -9.099091
v -5.391162 5.124887 -9.632908
v -5.401045 5.3045454 -9.184762
v -5.3054786 5.304548 -9.451666
v 4.064619 5.1248884 -14.535678
v 4.598467 5.124889 -14.344555
v 4.1503024 5.30455 -14.354448
v 4.4172363 5.304547 -14.258882
v 10.2953415 5.3045335 -1.9172205
v 0.8395459 5.30453 2.985559
v 10.004741 5.4748254 -2.157174
v 0.81566405 5.474822 2.6073022
v 4.4172363 5.304547 -14.258882
v 10.390923 5.304535 -2.1841247
v 4.1742234 5.474841 -13.97621
v 10.004741 5.4748254 -2.157174
v -5.3054786 5.304548 -9.451666
v 4.1503024 5.30455 -14.354448
v -5.0148582 5.4748387 -9.211727
v 4.1742234 5.474841 -13.97621
v 0.5726513 5.3045335 2.8899877
v -5.401045 5.3045454 -9.184762
v 0.81566405 5.474822 2.6073022
v -5.0148582 5.4748387 -9.211727
v 10.38103 5.1248755 -1.7359802
v 0.9252197 5.124873 3.166809
v 10.2953415 5.3045335 -1.9172205
v 0.8395459 5.30453 2.985559
v 4.598467 5.124889 -14.344555
v 10.572134 5.1248755 -2.2698083
v 4.4172363 5.304547 -14.258882
v 10.390923 5.304535 -2.1841247
v -5.391162 5.124887 -9.632908
v 4.064619 5.1248884 -14.535678
v -5.3054786 5.304548 -9.451666
v 4.1503024 5.30455 -14.354448
v 0.39140135 5.124872 2.9756665
v -5.582285 5.124887 -9.099091
v 0.5726513 5.3045335 2.8899877
v -5.401045 5.3045454 -9.184762
v 4.8438916 2.874181 -2.5186956
v 4.4586473 2.8741808 -2.9015203
v 4.8515577 3.1656728 -2.7017353
v 4.6589403 3.1656759 -2.8931317
v 20.120047 2.8741794 -1.7407941
v 19.70415 2.8741782 -1.3915032
v 19.919764 3.165671 -1.7491608
v 19.711803 3.165671 -1.5745331
v 5.5683985 2.8742065 -15.474089
v 5.984297 2.8742068 -15.82336
v 5.7686815 3.1656988 -15.465698
v 5.9766407 3.165704 -15.640338
v 20.844528 2.8742034 -14.696163
v 21.2298 2.8742032 -14.313353
v 20.836872 3.1656995 -14.513143
v 21.02951 3.1656954 -14.321727
v 19.711803 3.165671 -1.5745331
v 4.8515577 3.1656728 -2.7017353
v 19.532656 3.3938057 -2.157553
v 5.1228857 3.3938076 -3.269218
v 21.02951 3.1656954 -14.321727
v 19.919764 3.165671 -1.7491608
v 20.56557 3.3938315 -13.945646
v 19.532656 3.3938057 -2.157553
v 5.9766407 3.165704 -15.640338
v 20.836872 3.1656995 -14.513143
v 6.1558056 3.3938348 -15.057307
v 20.56557 3.3938315 -13.945646
v 4.6589403 3.1656759 -2.8931317
v 5.7686815 3.1656988 -15.465698
v 5.1228857 3.3938076 -3.269218
v 6.1558056 3.3938348 -15.057307
v 19.70415 2.8741782 -1.3915032
v 4.8438916 2.874181 -2.5186956
v 19.711803 3.165671 -1.5745331
v 4.8515577 3.1656728 -2.7017353
v 21.2298 2.8742032 -14.313353
v 20.120047 2.8741794 -1.7407941
v 21.02951 3.1656954 -14.321727
v 19.919764 3.165671 -1.7491608
v 5.984297 2.8742068 -15.82336
v 20.844528 2.8742034 -14.696163
v 5.9766407 3.165704 -15.640338
v 20.836872 3.1656995 -14.513143
v 4.4586473 2.8741808 -2.9015203
v 5.5683985 2.8742065 -15.474089
v 4.6589403 3.1656759 -2.8931317
v 5.7686815 3.1656988 -15.465698
v 16.435656 4.701857 10.7051
v 16.626839 4.3999176 10.76543
v 16.380535 4.3999176 10.879773
v 16.325403 4.0693226 11.054472
v 16.818005 4.0693226 10.825758
v 8.0163965 4.701879 -5.6153455
v 7.825215 4.399938 -5.675682
v 8.071513 4.3999414 -5.790044
v 8.12666 4.069343 -5.964725
v 7.6340427 4.069343 -5.7360277
v 20.355455 4.7018757 -1.7058814
v 20.410568 4.39994 -1.8805798
v 20.546616 4.3999357 -1.6455468
v 20.737783 4.0693407 -1.5852197
v 20.465698 4.0693407 -2.0552673
v 3.7427146 4.069324 7.2227464
v 3.4706445 4.069324 6.7527
v 3.7978516 4.399919 7.048049
v 3.6618164 4.399922 6.813032
v 16.380535 4.3999176 10.879773
v 3.7978516 4.399919 7.048049
v 16.435656 4.701857 10.7051
v 3.7427146 4.069324 7.2227464
v 16.325403 4.0693226 11.054472
v 16.435656 4.701857 10.7051
v 20.355455 4.7018757 -1.7058814
v 16.626839 4.3999176 10.76543
v 20.546616 4.3999357 -1.6455468
v 16.818005 4.0693226 10.825758
v 20.737783 4.0693407 -1.5852197
v 20.355455 4.7018757 -1.7058814
v 8.0163965 4.701879 -5.6153455
v 20.410568 4.39994 -1.8805798
v 8.071513 4.3999414 -5.790044
v 20.465698 4.0693407 -2.0552673
v 8.12666 4.069343 -5.964725
v 3.4706445 4.069324 6.7527
v 7.6340427 4.069343 -5.7360277
v 3.6618164 4.399922 6.813032
v 7.825215 4.399938 -5.675682
v 18.948915 3.711416 -0.48218504
v 13.080967 3.7100964 -3.5464435
v 19.018948 3.7795053 -0.5863745
v 13.150996 3.7781858 -3.6506321
v 22.191668 3.7003102 -6.568682
v 19.122837 3.710804 -0.5164856
v 22.099846 3.7690132 -6.6537876
v 19.018948 3.7795053 -0.5863745
v 16.604046 3.6989202 -9.828917
v 22.18467 3.7002368 -6.745824
v 16.519217 3.7676961 -9.736876
v 22.099846 3.7690132 -6.6537876
v 13.046662 3.7100232 -3.7203662
v 16.426908 3.6995277 -9.821918
v 13.150996 3.7781858 -3.6506321
v 16.519217 3.7676961 -9.736876
v 13.010544 3.5281723 -3.4421234
v 12.941938 3.5280194 -3.789973
v 13.080967 3.7100964 -3.5464435
v 13.046662 3.7100232 -3.7203662
v 19.226349 3.528267 -0.44648498
v 18.878506 3.5294888 -0.3778662
v 19.122837 3.710804 -0.5164856
v 18.948915 3.711416 -0.48218504
v 16.334223 3.5175269 -9.906881
v 16.688488 3.516302 -9.920874
v 16.426908 3.6995277 -9.821918
v 16.604046 3.6989202 -9.828917
v 22.269108 3.517621 -6.8377857
v 22.283108 3.5177734 -6.483513
v 22.18467 3.7002368 -6.745824
v 22.191668 3.7003102 -6.568682
v 18.878506 3.5294888 -0.3778662
v 13.010544 3.5281723 -3.4421234
v 18.948915 3.711416 -0.48218504
v 13.080967 3.7100964 -3.5464435
v 22.283108 3.5177734 -6.483513
v 19.226349 3.528267 -0.44648498
v 22.191668 3.7003102 -6.568682
v 19.122837 3.710804 -0.5164856
v 16.688488 3.516302 -9.920874
v 22.269108 3.517621 -6.8377857
v 16.604046 3.6989202 -9.828917
v 22.18467 3.7002368 -6.745824
v 12.941938 3.5280194 -3.789973
v 16.334223 3.5175269 -9.906881
v 13.046662 3.7100232 -3.7203662
v 16.426908 3.6995277 -9.821918
v -21.91148 2.4270382 15.786601
v -22.241236 2.4270396 15.372739
v -21.921762 2.4302588 15.564921
v -22.086645 2.4302619 15.357993
v 16.00145 1.991318 15.192422
v 15.712836 1.9913174 15.665263
v 15.846863 2.4015687 15.207172
v 15.702546 2.401568 15.443593
v -22.28311 1.9913591 -13.560918
v -21.994497 1.9913594 -14.033745
v -22.12853 2.4016068 -13.575666
v -21.984213 2.4016109 -13.812082
v 15.629794 1.9913589 -14.155079
v 15.959551 1.9913583 -13.741226
v 15.640085 2.4016104 -13.933413
v 15.804963 2.401606 -13.726486
v 15.702546 2.401568 15.443593
v -21.921762 2.4302588 15.564921
v 15.138567 2.6224768 14.951909
v -21.379145 2.6511657 15.070937
v 15.804963 2.401606 -13.726486
v 15.846863 2.4015687 15.207172
v 15.097483 2.6225154 -13.439428
v 15.138567 2.6224768 14.951909
v -21.984213 2.4016109 -13.812082
v 15.640085 2.4016104 -13.933413
v -21.420238 2.6225173 -13.320397
v 15.097483 2.6225154 -13.439428
v -22.086645 2.4302619 15.357993
v -22.12853 2.4016068 -13.575666
v -21.379145 2.6511657 15.070937
v -21.420238 2.6225173 -13.320397
v 15.959551 1.9913583 -13.741226
v 16.00145 1.991318 15.192422
v 15.804963 2.401606 -13.726486
v 15.846863 2.4015687 15.207172
v -21.994497 1.9913594 -14.033745
v 15.629794 1.9913589 -14.155079
v -21.984213 2.4016109 -13.812082
v 15.640085 2.4016104 -13.933413
v 0.4056201 0.71268475 3.0057237
v 0.9394531 0.71268445 3.1968713
v 0.76811033 0.4655671 2.834376
v 10.586343 0.7126855 -2.2397509
v 10.223877 0.46556795 -2.0683813
v 10.395234 0.71268463 -1.7059057
v -5.3911276 0.71269685 -9.632921
v -5.5822754 0.71269774 -9.099099
v -5.2197995 0.4655856 -9.270448
v 4.0646286 0.7126982 -14.535684
v 4.235996 0.46558642 -14.17321
v 4.5984616 0.7126967 -14.344561
v 4.457378 -2.7585678 -2.871158
v 4.842632 -2.7585666 -2.4883356
v 4.857983 -3.1595058 -2.8543804
v 20.118782 -2.7585666 -1.7104266
v 19.718191 -3.1595047 -1.7271868
v 19.702864 -2.7585673 -1.361137
v 5.984326 -2.758544 -15.823381
v 5.5684032 -2.7585442 -15.474106
v 5.968994 -3.1594837 -15.4573345
v 20.84454 -2.7585452 -14.696181
v 20.829231 -3.1594841 -14.330134
v 21.229801 -2.7585452 -14.313369
v 3.4615037 0.5420425 6.781688
v 3.7335742 0.54204226 7.251737
v 3.8438573 0.23638141 6.9023643
v 16.808865 0.54204214 10.854746
v 16.426516 0.23637882 10.734072
v 16.316242 0.54204196 11.083459
v 8.12667 0.5420581 -5.9647374
v 7.6340528 0.54205906 -5.736034
v 8.016416 0.23639552 -5.6153593
v 20.465715 0.5420563 -2.0552783
v 20.355461 0.23639263 -1.7058935
v 20.737787 0.5420556 -1.5852295
v 18.878506 3.5294888 -0.3778662
v 19.226349 3.528267 -0.44648498
v 18.853682 1.5111849 -0.35622618
v 19.20153 1.5099596 -0.42484313
v 18.853682 1.5111849 -0.35622618
v 19.226349 3.528267 -0.44648498
v 12.985732 1.5098675 -3.4204772
v 12.917129 1.5097138 -3.7683306
v 13.010544 3.5281723 -3.4421234
v 12.941938 3.5280194 -3.789973
v 13.010544 3.5281723 -3.4421234
v 12.917129 1.5097138 -3.7683306
v 15.712836 1.9913174 15.665263
v 16.00145 1.991318 15.192422
v 15.714536 -5.1465898 15.702045
v 16.003155 -5.146587 15.229194
v 15.714536 -5.1465898 15.702045
v 16.00145 1.991318 15.192422
v -21.90976 -5.1465893 15.823379
v -22.239515 -5.1465864 15.409512
v -21.91148 2.4270382 15.786601
v -22.241236 2.4270396 15.372739
v -21.91148 2.4270382 15.786601
v -22.239515 -5.1465864 15.409512
v -21.994497 1.9913594 -14.033745
v -22.28311 1.9913591 -13.560918
v -21.994497 -5.146535 -14.033764
v -22.28311 -5.1465354 -13.560937
v -21.994497 -5.146535 -14.033764
v -22.28311 1.9913591 -13.560918
v -22.239515 -5.1465864 15.409512
v -21.90976 -5.1465893 15.823379
v -21.930317 -5.4748406 15.380019
v 16.003155 -5.146587 15.229194
v 15.693967 -5.474839 15.258706
v 15.714536 -5.1465898 15.702045
v -21.994497 -5.146535 -14.033764
v -22.28311 -5.1465354 -13.560937
v -21.97393 -5.474789 -13.590429
v 15.629805 -5.1465354 -14.1551
v 15.650383 -5.474789 -13.711761
v 15.959556 -5.1465364 -13.741255
v -5.582285 5.124887 -9.099091
v 0.39140135 5.124872 2.9756665
v -5.5822754 0.71269774 -9.099099
v 0.4056201 0.71268475 3.0057237
v 0.9394531 0.71268445 3.1968713
v 0.4056201 0.71268475 3.0057237
v 0.9252197 5.124873 3.166809
v 0.39140135 5.124872 2.9756665
v -5.391162 5.124887 -9.632908
v -5.582285 5.124887 -9.099091
v -5.3911276 0.71269685 -9.632921
v -5.5822754 0.71269774 -9.099099
v 0.9252197 5.124873 3.166809
v 10.38103 5.1248755 -1.7359802
v 0.9394531 0.71268445 3.1968713
v 10.395234 0.71268463 -1.7059057
v 10.572134 5.1248755 -2.2698083
v 4.598467 5.124889 -14.344555
v 10.586343 0.7126855 -2.2397509
v 4.5984616 0.7126967 -14.344561
v 4.064619 5.1248884 -14.535678
v -5.391162 5.124887 -9.632908
v 4.0646286 0.7126982 -14.535684
v -5.3911276 0.71269685 -9.632921
v 10.38103 5.1248755 -1.7359802
v 10.572134 5.1248755 -2.2698083
v 10.395234 0.71268463 -1.7059057
v 10.586343 0.7126855 -2.2397509
v 4.598467 5.124889 -14.344555
v 4.064619 5.1248884 -14.535678
v 4.5984616 0.7126967 -14.344561
v 4.0646286 0.7126982 -14.535684
v -5.2197995 0.4655856 -9.270448
v -5.5822754 0.71269774 -9.099099
v 0.76811033 0.4655671 2.834376
v 0.4056201 0.71268475 3.0057237
v 4.235996 0.46558642 -14.17321
v 4.0646286 0.7126982 -14.535684
v -5.2197995 0.4655856 -9.270448
v -5.3911276 0.71269685 -9.632921
v 10.223877 0.46556795 -2.0683813
v 10.586343 0.7126855 -2.2397509
v 4.235996 0.46558642 -14.17321
v 4.5984616 0.7126967 -14.344561
v 0.76811033 0.4655671 2.834376
v 0.9394531 0.71268445 3.1968713
v 10.223877 0.46556795 -2.0683813
v 10.395234 0.71268463 -1.7059057
v 4.8438916 2.874181 -2.5186956
v 19.70415 2.8741782 -1.3915032
v 4.842632 -2.7585666 -2.4883356
v 19.702864 -2.7585673 -1.361137
v 20.120047 2.8741794 -1.7407941
v 21.2298 2.8742032 -14.313353
v 20.118782 -2.7585666 -1.7104266
v 21.229801 -2.7585452 -14.313369
v 20.844528 2.8742034 -14.696163
v 5.984297 2.8742068 -15.82336
v 20.84454 -2.7585452 -14.696181
v 5.984326 -2.758544 -15.823381
v 5.5683985 2.8742065 -15.474089
v 4.4586473 2.8741808 -2.9015203
v 5.5684032 -2.7585442 -15.474106
v 4.457378 -2.7585678 -2.871158
v 19.70415 2.8741782 -1.3915032
v 20.120047 2.8741794 -1.7407941
v 19.702864 -2.7585673 -1.361137
v 20.118782 -2.7585666 -1.7104266
v 4.842632 -2.7585666 -2.4883356
v 4.457378 -2.7585678 -2.871158
v 4.8438916 2.874181 -2.5186956
v 4.4586473 2.8741808 -2.9015203
v 21.2298 2.8742032 -14.313353
v 20.844528 2.8742034 -14.696163
v 21.229801 -2.7585452 -14.313369
v 20.84454 -2.7585452 -14.696181
v 5.984297 2.8742068 -15.82336
v 5.5683985 2.8742065 -15.474089
v 5.984326 -2.758544 -15.823381
v 5.5684032 -2.7585442 -15.474106
v 5.968994 -3.1594837 -15.4573345
v 5.5684032 -2.7585442 -15.474106
v 4.857983 -3.1595058 -2.8543804
v 4.457378 -2.7585678 -2.871158
v 20.829231 -3.1594841 -14.330134
v 20.84454 -2.7585452 -14.696181
v 5.968994 -3.1594837 -15.4573345
v 5.984326 -2.758544 -15.823381
v 19.718191 -3.1595047 -1.7271868
v 20.118782 -2.7585666 -1.7104266
v 20.829231 -3.1594841 -14.330134
v 21.229801 -2.7585452 -14.313369
v 4.857983 -3.1595058 -2.8543804
v 4.842632 -2.7585666 -2.4883356
v 19.718191 -3.1595047 -1.7271868
v 19.702864 -2.7585673 -1.361137
v 3.7427146 4.069324 7.2227464
v 16.325403 4.0693226 11.054472
v 3.7335742 0.54204226 7.251737
v 16.316242 0.54204196 11.083459
v 16.818005 4.0693226 10.825758
v 20.737783 4.0693407 -1.5852197
v 16.808865 0.54204214 10.854746
v 20.737787 0.5420556 -1.5852295
v 20.465698 4.0693407 -2.0552673
v 8.12666 4.069343 -5.964725
v 20.465715 0.5420563 -2.0552783
v 8.12667 0.5420581 -5.9647374
v 7.6340427 4.069343 -5.7360277
v 3.4706445 4.069324 6.7527
v 7.6340528 0.54205906 -5.736034
v 3.4615037 0.5420425 6.781688
v 16.325403 4.0693226 11.054472
v 16.818005 4.0693226 10.825758
v 16.316242 0.54204196 11.083459
v 16.808865 0.54204214 10.854746
v 3.7335742 0.54204226 7.251737
v 3.4615037 0.5420425 6.781688
v 3.7427146 4.069324 7.2227464
v 3.4706445 4.069324 6.7527
v 20.737783 4.0693407 -1.5852197
v 20.465698 4.0693407 -2.0552673
v 20.737787 0.5420556 -1.5852295
v 20.465715 0.5420563 -2.0552783
v 8.12666 4.069343 -5.964725
v 7.6340427 4.069343 -5.7360277
v 8.12667 0.5420581 -5.9647374
v 7.6340528 0.54205906 -5.736034
v 8.016416 0.23639552 -5.6153593
v 7.6340528 0.54205906 -5.736034
v 3.8438573 0.23638141 6.9023643
v 3.4615037 0.5420425 6.781688
v 20.355461 0.23639263 -1.7058935
v 20.465715 0.5420563 -2.0552783
v 8.016416 0.23639552 -5.6153593
v 8.12667 0.5420581 -5.9647374
v 16.426516 0.23637882 10.734072
v 16.808865 0.54204214 10.854746
v 20.355461 0.23639263 -1.7058935
v 20.737787 0.5420556 -1.5852295
v 3.8438573 0.23638141 6.9023643
v 3.7335742 0.54204226 7.251737
v 16.426516 0.23637882 10.734072
v 16.316242 0.54204196 11.083459
v 13.010544 3.5281723 -3.4421234
v 18.878506 3.5294888 -0.3778662
v 12.985732 1.5098675 -3.4204772
v 18.853682 1.5111849 -0.35622618
v 19.226349 3.528267 -0.44648498
v 22.283108 3.5177734 -6.483513
v 19.20153 1.5099596 -0.42484313
v 22.269356 1.4994141 -6.4812436
v 22.269108 3.517621 -6.8377857
v 16.688488 3.516302 -9.920874
v 22.255365 1.4992596 -6.8355155
v 16.674738 1.497943 -9.918599
v 16.334223 3.5175269 -9.906881
v 12.941938 3.5280194 -3.789973
v 16.320469 1.4991668 -9.904611
v 12.917129 1.5097138 -3.7683306
v 22.283108 3.5177734 -6.483513
v 22.269108 3.517621 -6.8377857
v 22.269356 1.4994141 -6.4812436
v 22.255365 1.4992596 -6.8355155
v 16.688488 3.516302 -9.920874
v 16.334223 3.5175269 -9.906881
v 16.674738 1.497943 -9.918599
v 16.320469 1.4991668 -9.904611
v -21.91148 2.4270382 15.786601
v 15.712836 1.9913174 15.665263
v -21.90976 -5.1465893 15.823379
v 15.714536 -5.1465898 15.702045
v 16.00145 1.991318 15.192422
v 15.959551 1.9913583 -13.741226
v 16.003155 -5.146587 15.229194
v 15.959556 -5.1465364 -13.741255
v 15.629794 1.9913589 -14.155079
v -21.994497 1.9913594 -14.033745
v 15.629805 -5.1465354 -14.1551
v -21.994497 -5.146535 -14.033764
v -22.28311 1.9913591 -13.560918
v -22.241236 2.4270396 15.372739
v -22.28311 -5.1465354 -13.560937
v -22.239515 -5.1465864 15.409512
v 15.959551 1.9913583 -13.741226
v 15.629794 1.9913589 -14.155079
v 15.959556 -5.1465364 -13.741255
v 15.629805 -5.1465354 -14.1551
v -21.97393 -5.474789 -13.590429
v -22.28311 -5.1465354 -13.560937
v -21.930317 -5.4748406 15.380019
v -22.239515 -5.1465864 15.409512
v 15.650383 -5.474789 -13.711761
v 15.629805 -5.1465354 -14.1551
v -21.97393 -5.474789 -13.590429
v -21.994497 -5.146535 -14.033764
v 15.693967 -5.474839 15.258706
v 16.003155 -5.146587 15.229194
v 15.650383 -5.474789 -13.711761
v 15.959556 -5.1465364 -13.741255
v -21.930317 -5.4748406 15.380019
v -21.90976 -5.1465893 15.823379
v 15.693967 -5.474839 15.258706
v 15.714536 -5.1465898 15.702045
v 12.917129 1.5097138 -3.7683306
v 12.985732 1.5098675 -3.4204772
v 13.124531 1.2584742 -3.6284332
v 19.20153 1.5099596 -0.42484313
v 18.99247 1.2597913 -0.5641821
v 18.853682 1.5111849 -0.35622618
v 16.674738 1.497943 -9.918599
v 16.320469 1.4991668 -9.904611
v 16.503742 1.2479291 -9.734323
v 22.255365 1.4992596 -6.8355155
v 22.084372 1.2492466 -6.651233
v 22.269356 1.4994141 -6.4812436
v 18.99247 1.2597913 -0.5641821
v 19.20153 1.5099596 -0.42484313
v 22.084372 1.2492466 -6.651233
v 22.269356 1.4994141 -6.4812436
v 22.084372 1.2492466 -6.651233
v 19.20153 1.5099596 -0.42484313
v 10.223877 0.46556795 -2.0683813
v 4.235996 0.46558642 -14.17321
v 0.76811033 0.4655671 2.834376
v -5.2197995 0.4655856 -9.270448
v 19.718191 -3.1595047 -1.7271868
v 20.829231 -3.1594841 -14.330134
v 4.857983 -3.1595058 -2.8543804
v 5.968994 -3.1594837 -15.4573345
v 16.426516 0.23637882 10.734072
v 20.355461 0.23639263 -1.7058935
v 3.8438573 0.23638141 6.9023643
v 8.016416 0.23639552 -5.6153593
v 18.99247 1.2597913 -0.5641821
v 22.084372 1.2492466 -6.651233
v 13.124531 1.2584742 -3.6284332
v 16.503742 1.2479291 -9.734323
v 16.503742 1.2479291 -9.734323
v 16.320469 1.4991668 -9.904611
v 13.124531 1.2584742 -3.6284332
v 12.917129 1.5097138 -3.7683306
v 22.084372 1.2492466 -6.651233
v 22.255365 1.4992596 -6.8355155
v 16.503742 1.2479291 -9.734323
v 16.674738 1.497943 -9.918599
v 13.124531 1.2584742 -3.6284332
v 12.985732 1.5098675 -3.4204772
v 18.99247 1.2597913 -0.5641821
v 18.853682 1.5111849 -0.35622618
v 15.693967 -5.474839 15.258706
v 15.650383 -5.474789 -13.711761
v -21.930317 -5.4748406 15.380019
v -21.97393 -5.474789 -13.590429
v -5.0148582 5.4748387 -9.211727
v 4.1742234 5.474841 -13.97621
v 0.81566405 5.474822 2.6073022
v 10.004741 5.4748254 -2.157174
v 6.1558056 3.3938348 -15.057307
v 20.56557 3.3938315 -13.945646
v 5.1228857 3.3938076 -3.269218
v 19.532656 3.3938057 -2.157553
v 8.0163965 4.701879 -5.6153455
v 20.355455 4.7018757 -1.7058814
v 3.852998 4.4833555 6.873374
v 16.435656 4.701857 10.7051
v 16.519217 3.7676961 -9.736876
v 22.099846 3.7690132 -6.6537876
v 13.150996 3.7781858 -3.6506321
v 19.018948 3.7795053 -0.5863745
v -21.420238 2.6225173 -13.320397
v 15.097483 2.6225154 -13.439428
v -21.379145 2.6511657 15.070937
v 15.138567 2.6224768 14.951909
vt 0.018920898 0.9404297
vt 0.018920898 0.61035156
vt 0.018920898 0.61035156
vt 0.018920898 0.9404297
vt 0.018920898 0.61035156
vt 0.018920898 0.61035156
vt 0.018920898 0.9404297
vt 0.018920898 0.61035156
vt 0.018920898 0.61035156
vt 0.018920898 0.9404297
vt 0.018920898 0.61035156
vt 0.018920898 0.61035156
vt 0.018920898 0.9404297
vt 0.018920898 0.61035156
vt 0.018920898 0.61035156
vt 0.018920898 0.9404297
vt 0.018920898 0.61035156
vt 0.018920898 0.61035156
vt 0.018920898 0.9404297
vt 0.018920898 0.61035156
vt 0.018920898 0.61035156
vt 0.018920898 0.9404297
vt 0.018920898 0.61035156
vt 0.018920898 0.61035156
vt 0.018920898 0.9404297
vt 0.018920898 0.61035156
vt 0.018920898 0.61035156
vt 0.65771484 0.9404297
vt 0.018920898 0.9404297
vt 0.65771484 0.61035156
vt 0.018920898 0.61035156
vt 0.65966797 0.61035156
vt 0.018920898 0.9404297
vt 0.65966797 0.9404297
vt 0.018920898 0.9404297
vt 0.65966797 0.61035156
vt 0.0026893616 0.9916992
vt 0.0026893616 0.70214844
vt 0.020477295 0.70214844
vt 0.021591187 0.9916992
vt 0.011558533 0.70214844
vt 0.03250122 0.70214844
vt 0.024627686 0.9916992
vt 0.009025574 0.70214844
vt 0.029052734 0.70214844
vt 0.040405273 0.9916992
vt 0.026184082 0.70214844
vt 0.047180176 0.70214844
vt 0.027618408 0.9404297
vt 0.027618408 0.61035156
vt 0.027618408 0.61035156
vt 0.027618408 0.9404297
vt 0.027618408 0.61035156
vt 0.027618408 0.61035156
vt 0.027618408 0.9404297
vt 0.027618408 0.61035156
vt 0.027618408 0.61035156
vt 0.027618408 0.9404297
vt 0.027618408 0.61035156
vt 0.027618408 0.61035156
vt 0.027618408 0.006668091
vt 2.6855469 0.006668091
vt 0.027618408 0.61035156
vt 2.6855469 0.61035156
vt 0.027618408 0.61035156
vt 2.6855469 0.006668091
vt 0.027618408 0.006668091
vt 2.6933594 0.006668091
vt 0.027618408 0.61035156
vt 2.6933594 0.61035156
vt 0.027618408 0.61035156
vt 2.6933594 0.006668091
vt 0.018920898 0.006668091
vt 0.018920898 0.006668091
vt 0.018920898 0.61035156
vt 0.018920898 0.61035156
vt 0.018920898 0.006668091
vt 0.018920898 0.006668091
vt 0.018920898 0.61035156
vt 0.018920898 0.61035156
vt 0.018920898 0.006668091
vt 0.018920898 0.006668091
vt 0.018920898 0.61035156
vt 0.018920898 0.61035156
vt 0.018920898 0.006668091
vt 0.018920898 0.006668091
vt 0.018920898 0.61035156
vt 0.018920898 0.61035156
vt 0.018920898 0.61035156
vt 0.65771484 0.61035156
vt 0.018920898 0.9404297
vt 0.65771484 0.9404297
vt 0.018920898 0.61035156
vt 0.65966797 0.61035156
vt 0.018920898 0.9404297
vt 0.65966797 0.9404297
vt 0.018920898 0.61035156
vt 0.65771484 0.61035156
vt 0.018920898 0.9404297
vt 0.65771484 0.9404297
vt 0.018920898 0.61035156
vt 0.65966797 0.61035156
vt 0.018920898 0.9404297
vt 0.65966797 0.9404297
vt 0.018920898 0.006668091
vt 0.65771484 0.006668091
vt 0.018920898 0.61035156
vt 0.65771484 0.61035156
vt 0.018920898 0.006668091
vt 0.65966797 0.006668091
vt 0.018920898 0.61035156
vt 0.65966797 0.61035156
vt 0.018920898 0.006668091
vt 0.65771484 0.006668091
vt 0.018920898 0.61035156
vt 0.65771484 0.61035156
vt 0.018920898 0.006668091
vt 0.65966797 0.006668091
vt 0.018920898 0.61035156
vt 0.65966797 0.61035156
vt 0.018920898 0.006668091
vt 0.018920898 0.006668091
vt 0.018920898 0.61035156
vt 0.018920898 0.61035156
vt 0.018920898 0.006668091
vt 0.018920898 0.006668091
vt 0.018920898 0.61035156
vt 0.018920898 0.61035156
vt 0.018920898 0.006668091
vt 0.018920898 0.006668091
vt 0.018920898 0.61035156
vt 0.018920898 0.61035156
vt 0.018920898 0.006668091
vt 0.018920898 0.006668091
vt 0.018920898 0.61035156
vt 0.018920898 0.61035156
vt 0.018920898 0.61035156
vt 0.65771484 0.61035156
vt 0.018920898 0.9404297
vt 0.65771484 0.9404297
vt 0.018920898 0.61035156
vt 0.65966797 0.61035156
vt 0.018920898 0.9404297
vt 0.65966797 0.9404297
vt 0.018920898 0.61035156
vt 0.65771484 0.61035156
vt 0.018920898 0.9404297
vt 0.65771484 0.9404297
vt 0.018920898 0.61035156
vt 0.65966797 0.61035156
vt 0.018920898 0.9404297
vt 0.65966797 0.9404297
vt 0.018920898 0.006668091
vt 0.65771484 0.006668091
vt 0.018920898 0.61035156
vt 0.65771484 0.61035156
vt 0.018920898 0.006668091
vt 0.65966797 0.006668091
vt 0.018920898 0.61035156
vt 0.65966797 0.61035156
vt 0.018920898 0.006668091
vt 0.65771484 0.006668091
vt 0.018920898 0.61035156
vt 0.65771484 0.61035156
vt 0.018920898 0.006668091
vt 0.65966797 0.006668091
vt 0.018920898 0.61035156
vt 0.65966797 0.61035156
vt 0.018920898 0.9404297
vt 0.018920898 0.61035156
vt 0.018920898 0.61035156
vt 0.018920898 0.006668091
vt 0.018920898 0.006668091
vt 0.018920898 0.9404297
vt 0.018920898 0.61035156
vt 0.018920898 0.61035156
vt 0.018920898 0.006668091
vt 0.018920898 0.006668091
vt 0.018920898 0.9404297
vt 0.018920898 0.61035156
vt 0.018920898 0.61035156
vt 0.018920898 0.006668091
vt 0.018920898 0.006668091
vt 0.018920898 0.006668091
vt 0.018920898 0.006668091
vt 0.018920898 0.61035156
vt 0.018920898 0.61035156
vt 0.018920898 0.61035156
vt 0.65771484 0.61035156
vt 0.018920898 0.9404297
vt 0.65771484 0.006668091
vt 0.018920898 0.006668091
vt 0.65966797 0.9404297
vt 0.018920898 0.9404297
vt 0.65966797 0.61035156
vt 0.018920898 0.61035156
vt 0.65966797 0.006668091
vt 0.018920898 0.006668091
vt 0.65771484 0.9404297
vt 0.018920898 0.9404297
vt 0.65771484 0.61035156
vt 0.018920898 0.61035156
vt 0.65771484 0.006668091
vt 0.018920898 0.006668091
vt 0.018920898 0.006668091
vt 0.65966797 0.006668091
vt 0.018920898 0.61035156
vt 0.65966797 0.61035156
vt 0.03250122 0.70214844
vt 0.80566406 0.70214844
vt 0.021591187 0.9916992
vt 0.80566406 0.9916992
vt 0.047180176 0.70214844
vt 0.99365234 0.70214844
vt 0.040405273 0.9916992
vt 1.0039062 0.9916992
vt 0.029052734 0.70214844
vt 0.8051758 0.70214844
vt 0.024627686 0.9916992
vt 0.81933594 0.9916992
vt 0.020477295 0.70214844
vt 0.9707031 0.70214844
vt 0.0026893616 0.9916992
vt 0.9863281 0.9916992
vt 0.0026893616 0.0960083
vt 0.020477295 0.0960083
vt 0.0026893616 0.70214844
vt 0.020477295 0.70214844
vt 0.010574341 0.0960083
vt 0.043518066 0.0960083
vt 0.011558533 0.70214844
vt 0.03250122 0.70214844
vt 0.00070619583 0.0960083
vt 0.033935547 0.0960083
vt 0.009025574 0.70214844
vt 0.029052734 0.70214844
vt 0.022140503 0.0960083
vt 0.054534912 0.0960083
vt 0.026184082 0.70214844
vt 0.047180176 0.70214844
vt 0.043518066 0.0960083
vt 0.80566406 0.0960083
vt 0.03250122 0.70214844
vt 0.80566406 0.70214844
vt 0.054534912 0.0960083
vt 0.9926758 0.0960083
vt 0.047180176 0.70214844
vt 0.99365234 0.70214844
vt 0.033935547 0.0960083
vt 0.80126953 0.0960083
vt 0.029052734 0.70214844
vt 0.8051758 0.70214844
vt 0.020477295 0.0960083
vt 0.96240234 0.0960083
vt 0.020477295 0.70214844
vt 0.9707031 0.70214844
vt 0.027618408 0.006668091
vt 0.027618408 0.006668091
vt 0.027618408 0.61035156
vt 0.027618408 0.61035156
vt 0.027618408 0.006668091
vt 0.027618408 0.006668091
vt 0.027618408 0.61035156
vt 0.027618408 0.61035156
vt 0.027618408 0.006668091
vt 0.027618408 0.006668091
vt 0.027618408 0.61035156
vt 0.027618408 0.61035156
vt 0.027618408 0.006668091
vt 0.027618408 0.006668091
vt 0.027618408 0.61035156
vt 0.027618408 0.61035156
vt 0.027618408 0.61035156
vt 2.6855469 0.61035156
vt 0.027618408 0.9404297
vt 2.6855469 0.9404297
vt 0.027618408 0.61035156
vt 2.6933594 0.61035156
vt 0.027618408 0.9404297
vt 2.6933594 0.9404297
vt 0.027618408 0.61035156
vt 2.6855469 0.61035156
vt 0.027618408 0.9404297
vt 2.6855469 0.9404297
vt 0.027618408 0.61035156
vt 2.6933594 0.61035156
vt 0.027618408 0.9404297
vt 2.6933594 0.9404297
vt 0.027618408 0.006668091
vt 2.6933594 0.006668091
vt 0.027618408 0.61035156
vt 2.6933594 0.61035156
vt 0.027618408 0.006668091
vt 2.6855469 0.006668091
vt 0.027618408 0.61035156
vt 2.6855469 0.61035156
vt -27.109375 9.0625
vt -27.0625 9.0546875
vt -27.09375 9.0078125
vt -25.6875 9.0390625
vt -25.71875 8.984375
vt -25.75 9.0390625
vt -28.828125 9.0546875
vt -28.78125 9.0546875
vt -28.796875 9.0078125
vt -23.953125 8.9921875
vt -24.015625 8.9765625
vt -24.015625 9.0390625
vt -28.984375 6.3125
vt -28.921875 6.2695312
vt -28.984375 6.2421875
vt -34.0625 6.3359375
vt -34.09375 6.2695312
vt -34.125 6.3359375
vt -30.609375 6.3164062
vt -30.546875 6.3164062
vt -30.59375 6.25
vt -32.4375 6.3320312
vt -32.46875 6.2695312
vt -32.5 6.3359375
vt -19.3125 10.4609375
vt -19.265625 10.4140625
vt -19.328125 10.3984375
vt -24.28125 10.4765625
vt -24.296875 10.421875
vt -24.328125 10.4765625
vt -21.015625 10.4609375
vt -20.953125 10.4609375
vt -21 10.40625
vt -22.609375 10.4765625
vt -22.640625 10.421875
vt -22.671875 10.4765625
vt -16.75 8.9296875
vt -16.71875 8.9296875
vt -16.75 8.6796875
vt -16.71875 8.6796875
vt -16.75 8.6796875
vt -16.71875 8.9296875
vt -14.109375 8.6328125
vt -14.1484375 8.640625
vt -14.109375 8.890625
vt -14.1484375 8.890625
vt -14.109375 8.890625
vt -14.1484375 8.640625
vt -21.203125 0.14916992
vt -21.15625 0.1459961
vt -21.21875 -0.7392578
vt -21.15625 -0.74560547
vt -21.21875 -0.7392578
vt -21.15625 0.1459961
vt -25.890625 -0.7182617
vt -25.953125 -0.7294922
vt -25.890625 0.21813965
vt -25.953125 0.21557617
vt -25.890625 0.21813965
vt -25.953125 -0.7294922
vt -12.8359375 0.12359619
vt -12.78125 0.121032715
vt -12.84375 -0.7631836
vt -12.7890625 -0.7709961
vt -12.84375 -0.7631836
vt -12.78125 0.121032715
vt -25.953125 -0.7294922
vt -25.890625 -0.7182617
vt -25.890625 -0.7807617
vt -21.15625 -0.74560547
vt -21.1875 -0.80126953
vt -21.21875 -0.7392578
vt -12.84375 -0.7631836
vt -12.7890625 -0.7709961
vt -12.828125 -0.8251953
vt -17.515625 -0.7416992
vt -17.546875 -0.8017578
vt -17.5625 -0.7446289
vt -28.765625 9.609375
vt -27.109375 9.609375
vt -28.78125 9.0546875
vt -27.109375 9.0625
vt -27.0625 9.0546875
vt -27.109375 9.0625
vt -27.046875 9.609375
vt -27.109375 9.609375
vt -28.84375 9.609375
vt -28.765625 9.609375
vt -28.828125 9.0546875
vt -28.78125 9.0546875
vt -27.046875 9.609375
vt -25.734375 9.5859375
vt -27.0625 9.0546875
vt -25.75 9.0390625
vt -25.671875 9.5859375
vt -24 9.5859375
vt -25.6875 9.0390625
vt -24.015625 9.0390625
vt -30.15625 9.5703125
vt -28.84375 9.609375
vt -30.140625 9.0234375
vt -28.828125 9.0546875
vt -25.734375 9.5859375
vt -25.671875 9.5859375
vt -25.75 9.0390625
vt -25.6875 9.0390625
vt -24 9.5859375
vt -23.9375 9.5859375
vt -24.015625 9.0390625
vt -23.9375 9.0390625
vt -28.796875 9.0078125
vt -28.78125 9.0546875
vt -27.09375 9.0078125
vt -27.109375 9.0625
vt -30.140625 8.96875
vt -30.140625 9.0234375
vt -28.796875 9.0078125
vt -28.828125 9.0546875
vt -25.71875 8.984375
vt -25.6875 9.0390625
vt -24.015625 8.9765625
vt -24.015625 9.0390625
vt -27.09375 9.0078125
vt -27.0625 9.0546875
vt -25.71875 8.984375
vt -25.75 9.0390625
vt -35.96875 6.9882812
vt -34.125 7.0351562
vt -35.96875 6.2851562
vt -34.125 6.3359375
vt -34.0625 7.0351562
vt -32.5 7.0351562
vt -34.0625 6.3359375
vt -32.5 6.3359375
vt -32.4375 7.0351562
vt -30.59375 7.015625
vt -32.4375 6.3320312
vt -30.609375 6.3164062
vt -30.546875 7.015625
vt -28.984375 7.015625
vt -30.546875 6.3164062
vt -28.984375 6.3125
vt -34.125 7.0351562
vt -34.0625 7.0351562
vt -34.125 6.3359375
vt -34.0625 6.3359375
vt -28.90625 6.3125
vt -28.984375 6.3125
vt -28.90625 7.015625
vt -28.984375 7.015625
vt -32.5 7.0351562
vt -32.4375 7.0351562
vt -32.5 6.3359375
vt -32.4375 6.3320312
vt -30.59375 7.015625
vt -30.546875 7.015625
vt -30.609375 6.3164062
vt -30.546875 6.3164062
vt -30.59375 6.25
vt -30.546875 6.3164062
vt -28.984375 6.2421875
vt -28.984375 6.3125
vt -32.46875 6.2695312
vt -32.4375 6.3320312
vt -30.59375 6.25
vt -30.609375 6.3164062
vt -34.09375 6.2695312
vt -34.0625 6.3359375
vt -32.46875 6.2695312
vt -32.5 6.3359375
vt -35.9375 6.21875
vt -35.96875 6.2851562
vt -34.09375 6.2695312
vt -34.125 6.3359375
vt -25.96875 10.8671875
vt -24.328125 10.9140625
vt -25.953125 10.4296875
vt -24.328125 10.4765625
vt -24.265625 10.9140625
vt -22.65625 10.9140625
vt -24.28125 10.4765625
vt -22.671875 10.4765625
vt -22.609375 10.9140625
vt -21 10.8984375
vt -22.609375 10.4765625
vt -21.015625 10.4609375
vt -20.953125 10.8984375
vt -19.3125 10.8984375
vt -20.953125 10.4609375
vt -19.3125 10.4609375
vt -24.328125 10.9140625
vt -24.265625 10.9140625
vt -24.328125 10.4765625
vt -24.28125 10.4765625
vt -19.25 10.4609375
vt -19.3125 10.4609375
vt -19.25 10.8984375
vt -19.3125 10.8984375
vt -22.65625 10.9140625
vt -22.609375 10.9140625
vt -22.671875 10.4765625
vt -22.609375 10.4765625
vt -21 10.8984375
vt -20.953125 10.8984375
vt -21.015625 10.4609375
vt -20.953125 10.4609375
vt -21 10.40625
vt -20.953125 10.4609375
vt -19.328125 10.3984375
vt -19.3125 10.4609375
vt -22.640625 10.421875
vt -22.609375 10.4765625
vt -21 10.40625
vt -21.015625 10.4609375
vt -24.296875 10.421875
vt -24.28125 10.4765625
vt -22.640625 10.421875
vt -22.671875 10.4765625
vt -25.9375 10.3671875
vt -25.953125 10.4296875
vt -24.296875 10.421875
vt -24.328125 10.4765625
vt -17.578125 8.921875
vt -16.75 8.9296875
vt -17.578125 8.671875
vt -16.75 8.6796875
vt -16.71875 8.9296875
vt -15.875 8.9296875
vt -16.71875 8.6796875
vt -15.875 8.6796875
vt -15.828125 8.9296875
vt -15.046875 8.8984375
vt -15.84375 8.6796875
vt -15.0546875 8.640625
vt -15.0078125 8.890625
vt -14.1484375 8.890625
vt -15.0234375 8.640625
vt -14.1484375 8.640625
vt -15.875 8.9296875
vt -15.828125 8.9296875
vt -15.875 8.6796875
vt -15.84375 8.6796875
vt -15.046875 8.8984375
vt -15.0078125 8.890625
vt -15.0546875 8.640625
vt -15.0234375 8.640625
vt -25.890625 0.21813965
vt -21.203125 0.14916992
vt -25.890625 -0.7182617
vt -21.21875 -0.7392578
vt -21.15625 0.1459961
vt -17.5625 0.14379883
vt -21.15625 -0.74560547
vt -17.5625 -0.7446289
vt -17.5 0.14489746
vt -12.8359375 0.12359619
vt -17.515625 -0.7416992
vt -12.84375 -0.7631836
vt -12.78125 0.121032715
vt -9.1875 0.17248535
vt -12.7890625 -0.7709961
vt -9.1875 -0.7705078
vt -17.5625 0.14379883
vt -17.5 0.14489746
vt -17.5625 -0.7446289
vt -17.515625 -0.7416992
vt -12.828125 -0.8251953
vt -12.7890625 -0.7709961
vt -9.1953125 -0.82666016
vt -9.1875 -0.7705078
vt -17.546875 -0.8017578
vt -17.515625 -0.7416992
vt -12.828125 -0.8251953
vt -12.84375 -0.7631836
vt -21.1875 -0.80126953
vt -21.15625 -0.74560547
vt -17.546875 -0.8017578
vt -17.5625 -0.7446289
vt -25.890625 -0.7807617
vt -25.890625 -0.7182617
vt -21.1875 -0.80126953
vt -21.21875 -0.7392578
vt -14.1484375 8.640625
vt -14.109375 8.6328125
vt -14.1484375 8.6015625
vt -16.71875 8.6796875
vt -16.71875 8.640625
vt -16.75 8.6796875
vt -15.0546875 8.640625
vt -15.0234375 8.640625
vt -15.0390625 8.6015625
vt -15.84375 8.6796875
vt -15.8515625 8.640625
vt -15.875 8.6796875
vt -16.71875 8.640625
vt -16.71875 8.6796875
vt -15.8515625 8.640625
vt -15.875 8.6796875
vt -15.8515625 8.640625
vt -16.71875 8.6796875
vt 4.3398438 -4.7890625
vt 2.6601562 -4.8515625
vt 4.3164062 -3.4628906
vt 2.6367188 -3.5253906
vt 6.890625 -9.53125
vt 5.3203125 -9.5
vt 6.9492188 -7.6757812
vt 5.375 -7.6445312
vt 8.671875 -5.8359375
vt 7.046875 -5.8125
vt 8.7109375 -4.203125
vt 7.0703125 -4.1992188
vt 4.734375 -3.6445312
vt 4.7578125 -2.7949219
vt 5.5546875 -3.6582031
vt 5.5507812 -2.7910156
vt -15.0390625 8.6015625
vt -15.0234375 8.640625
vt -14.1484375 8.6015625
vt -14.1484375 8.640625
vt -15.8515625 8.640625
vt -15.84375 8.6796875
vt -15.0390625 8.6015625
vt -15.0546875 8.640625
vt -17.578125 8.625
vt -17.578125 8.671875
vt -16.75 8.6328125
vt -16.75 8.6796875
vt 4.4414062 -12.3515625
vt 4.4453125 -8.7421875
vt 9.125 -12.3671875
vt 9.125 -8.7578125
vt 9.8046875 7.6523438
vt 9.7890625 6.3632812
vt 8.1640625 7.703125
vt 8.1484375 6.4140625
vt 8.1328125 7.5273438
vt 8.1484375 5.7265625
vt 6.6601562 7.5273438
vt 6.671875 5.7304688
vt 7.1835938 11.9296875
vt 7.1523438 10.3203125
vt 5.546875 11.9921875
vt 5.53125 10.3515625
vt 8.828125 9.125
vt 8.828125 8.3359375
vt 7.9570312 9.125
vt 7.984375 8.296875
vt 10.34375 3.0175781
vt 5.8046875 3.0039062
vt 10.34375 6.5507812
vt 5.796875 6.5351562
vn -0.14819336 0.8984375 0.41381836
vn -0.14819336 0.8984375 0.41381836
vn -0.14819336 0.8984375 0.41381836
vn 0.40771484 0.9013672 0.1459961
vn 0.40771484 0.9013672 0.1459961
vn 0.40771484 0.9013672 0.1459961
vn -0.40771484 0.9013672 -0.1459961
vn -0.40771484 0.9013672 -0.1459961
vn -0.40771484 0.9013672 -0.1459961
vn 0.14819336 0.8984375 -0.41381836
vn 0.14819336 0.8984375 -0.41381836
vn 0.14819336 0.8984375 -0.41381836
vn -0.25268555 0.93359375 0.25439453
vn -0.25268555 0.93359375 0.25439453
vn -0.25268555 0.93359375 0.25439453
vn 0.24194336 0.92626953 0.28808594
vn 0.24194336 0.92626953 0.28808594
vn 0.24194336 0.92626953 0.28808594
vn -0.24206543 0.92626953 -0.28808594
vn -0.24206543 0.92626953 -0.28808594
vn -0.24206543 0.92626953 -0.28808594
vn 0.25268555 0.93359375 -0.25439453
vn 0.25268555 0.93359375 -0.25439453
vn 0.25268555 0.93359375 -0.25439453
vn -0.4543457 0.8510742 0.26293945
vn -0.4543457 0.8510742 0.26293945
vn -0.4543457 0.8510742 0.26293945
vn -0.13513184 0.91015625 0.39208984
vn -0.13513184 0.91015625 0.39208984
vn -0.13513184 0.91015625 0.39208984
vn -0.36450195 0.92333984 -0.121520996
vn -0.36450195 0.92333984 -0.121520996
vn -0.36450195 0.92333984 -0.121520996
vn -0.79296875 0.55322266 -0.25463867
vn -0.79296875 0.55322266 -0.25463867
vn -0.79296875 0.55322266 -0.25463867
vn -0.59716797 0.79345703 0.11743164
vn -0.59716797 0.79345703 0.11743164
vn -0.59716797 0.79345703 0.11743164
vn 0.12084961 0.7919922 0.5986328
vn 0.12084961 0.7919922 0.5986328
vn 0.12084961 0.7919922 0.5986328
vn -0.02142334 0.7915039 -0.61083984
vn -0.02142334 0.7915039 -0.61083984
vn -0.02142334 0.7915039 -0.61083984
vn 0.61328125 0.7895508 -0.024551392
vn 0.61328125 0.7895508 -0.024551392
vn 0.61328125 0.7895508 -0.024551392
vn -0.22583008 0.95751953 0.18005371
vn -0.22583008 0.95751953 0.18005371
vn -0.22583008 0.95751953 0.18005371
vn 0.24487305 0.9580078 0.14953613
vn 0.24487305 0.9580078 0.14953613
vn 0.24487305 0.9580078 0.14953613
vn -0.24487305 0.9580078 -0.14953613
vn -0.24487305 0.9580078 -0.14953613
vn -0.24487305 0.9580078 -0.14953613
vn 0.22595215 0.95751953 -0.17993164
vn 0.22595215 0.95751953 -0.17993164
vn 0.22595215 0.95751953 -0.17993164
vn 0.008346558 0.47558594 0.8798828
vn 0.008346558 0.47558594 0.8798828
vn 0.008346558 0.47558594 0.8798828
vn 0.00080919266 1 0.01448822
vn 0.00080919266 1 0.01448822
vn 0.00080919266 1 0.01448822
vn -0.022262573 0.9995117 -0.015022278
vn -0.022262573 0.9995117 -0.015022278
vn -0.022262573 0.9995117 -0.015022278
vn -0.9355469 0.35253906 0.0010051727
vn -0.9355469 0.35253906 0.0010051727
vn -0.9355469 0.35253906 0.0010051727
vn -0.26464844 0.6196289 0.7392578
vn -0.26464844 0.6196289 0.7392578
vn -0.26464844 0.6196289 0.7392578
vn -0.26464844 0.6196289 0.7392578
vn 0.7392578 0.6191406 0.26464844
vn 0.7392578 0.6191406 0.26464844
vn 0.7392578 0.6191406 0.26464844
vn 0.7392578 0.6196289 0.26464844
vn -0.7392578 0.6196289 -0.26464844
vn -0.7392578 0.6196289 -0.26464844
vn -0.7392578 0.6196289 -0.26464844
vn -0.7392578 0.6196289 -0.26464844
vn 0.26464844 0.6196289 -0.7392578
vn 0.26464844 0.6196289 -0.7392578
vn 0.26464844 0.6196289 -0.7392578
vn 0.26464844 0.6196289 -0.7392578
vn 0.20288086 0.89746094 0.39135742
vn 0.20288086 0.89746094 0.39135742
vn 0.20288086 0.89746094 0.39135742
vn 0.20288086 0.89746094 0.39135742
vn 0.3984375 0.8959961 -0.19714355
vn 0.3984375 0.8959961 -0.19714355
vn 0.3984375 0.8959961 -0.19714355
vn 0.38500977 0.9033203 -0.1899414
vn -0.20288086 0.89746094 -0.39135742
vn -0.20288086 0.89746094 -0.39135742
vn -0.20288086 0.89746094 -0.39135742
vn -0.20288086 0.89746094 -0.39135742
vn -0.3984375 0.8959961 0.19714355
vn -0.3984375 0.8959961 0.19714355
vn -0.3984375 0.8959961 0.19714355
vn -0.38500977 0.9033203 0.1899414
vn 0.30737305 0.7446289 0.59277344
vn 0.30737305 0.7446289 0.59277344
vn 0.30737305 0.7446289 0.59277344
vn 0.30737305 0.7446289 0.59277344
vn 0.59814453 0.7446289 -0.29589844
vn 0.59814453 0.7446289 -0.29589844
vn 0.59814453 0.7446289 -0.29589844
vn 0.59814453 0.7446289 -0.29589844
vn -0.30737305 0.7446289 -0.59277344
vn -0.30737305 0.7446289 -0.59277344
vn -0.30737305 0.7446289 -0.59277344
vn -0.30737305 0.7446289 -0.59277344
vn -0.59814453 0.7446289 0.29589844
vn -0.59814453 0.7446289 0.29589844
vn -0.59814453 0.7446289 0.29589844
vn -0.59814453 0.7446289 0.29589844
vn -0.63964844 0.42089844 0.6435547
vn -0.63964844 0.42089844 0.6435547
vn -0.63964844 0.42089844 0.6435547
vn -0.63916016 0.42089844 0.6435547
vn 0.5834961 0.42089844 0.6948242
vn 0.5834961 0.42089844 0.6948242
vn 0.5834961 0.42089844 0.6948242
vn 0.5834961 0.42089844 0.6948242
vn -0.5834961 0.42089844 -0.6948242
vn -0.5834961 0.42089844 -0.6948242
vn -0.5834961 0.42089844 -0.6948242
vn -0.5834961 0.42089844 -0.6948242
vn 0.63916016 0.42089844 -0.6435547
vn 0.63916016 0.42089844 -0.6435547
vn 0.63916016 0.42089844 -0.6435547
vn 0.63916016 0.42089844 -0.6435547
vn -0.028198242 0.9277344 0.37182617
vn -0.028198242 0.9277344 0.37182617
vn -0.028198242 0.9277344 0.37182617
vn -0.027877808 0.9321289 0.36132812
vn 0.4675293 0.8828125 0.041290283
vn 0.4675293 0.8828125 0.041290283
vn 0.4675293 0.8828125 0.041290283
vn 0.47436523 0.87939453 0.04156494
vn 0.028198242 0.9277344 -0.37182617
vn 0.028198242 0.9277344 -0.37182617
vn 0.028198242 0.9277344 -0.37182617
vn 0.027877808 0.9321289 -0.36132812
vn -0.4675293 0.8828125 -0.041259766
vn -0.4675293 0.8828125 -0.041259766
vn -0.4675293 0.8828125 -0.041259766
vn -0.47436523 0.87939453 -0.04156494
vn -0.06402588 0.5317383 0.8442383
vn -0.06402588 0.5317383 0.8442383
vn -0.06402588 0.5317383 0.8442383
vn -0.06402588 0.5317383 0.8442383
vn 0.82128906 0.56640625 0.07244873
vn 0.82128906 0.56640625 0.07244873
vn 0.82128906 0.56640625 0.07244873
vn 0.82128906 0.56640625 0.07244873
vn 0.06402588 0.5317383 -0.8442383
vn 0.06402588 0.5317383 -0.8442383
vn 0.06402588 0.5317383 -0.8442383
vn 0.06402588 0.5317383 -0.8442383
vn -0.82128906 0.56640625 -0.07244873
vn -0.82128906 0.56640625 -0.07244873
vn -0.82128906 0.56640625 -0.07244873
vn -0.82128906 0.56640625 -0.07244873
vn 0.38427734 0.4086914 0.8276367
vn 0.38427734 0.4086914 0.8276367
vn 0.38427734 0.4086914 0.8276367
vn 0.38989258 0.3786621 0.83935547
vn 0.38989258 0.3786621 0.83935547
vn -0.38427734 0.4086914 -0.8276367
vn -0.38427734 0.4086914 -0.8276367
vn -0.38427734 0.4086914 -0.8276367
vn -0.38964844 0.3786621 -0.83935547
vn -0.38964844 0.3786621 -0.83935547
vn 0.79003906 0.4086914 -0.4572754
vn 0.79003906 0.4086914 -0.4572754
vn 0.79003906 0.4086914 -0.4572754
vn 0.80126953 0.3786621 -0.46362305
vn 0.80126953 0.3786621 -0.46362305
vn -0.80126953 0.3786621 0.46362305
vn -0.80126953 0.3786621 0.46362305
vn -0.80126953 0.3786621 0.46362305
vn -0.80126953 0.3786621 0.46362305
vn -0.24902344 0.5185547 0.8178711
vn -0.24902344 0.5185547 0.8178711
vn -0.24902344 0.5185547 0.8178711
vn -0.2548828 0.48461914 0.83691406
vn -0.2548828 0.48461914 0.83691406
vn 0.7944336 0.55322266 0.25097656
vn 0.7944336 0.55322266 0.25097656
vn 0.7944336 0.55322266 0.25097656
vn 0.7944336 0.55322266 0.25097656
vn 0.8154297 0.5185547 0.25756836
vn 0.8154297 0.5185547 0.25756836
vn 0.25830078 0.5185547 -0.8149414
vn 0.25830078 0.5185547 -0.8149414
vn 0.25830078 0.5185547 -0.8149414
vn 0.25830078 0.5185547 -0.8149414
vn 0.26416016 0.48461914 -0.8339844
vn 0.26416016 0.48461914 -0.8339844
vn -0.81103516 0.5185547 -0.2705078
vn -0.81103516 0.5185547 -0.2705078
vn -0.81103516 0.5185547 -0.2705078
vn -0.81103516 0.5185547 -0.2705078
vn -0.22192383 0.8779297 0.42456055
vn -0.22192383 0.8779297 0.42456055
vn -0.22192383 0.8779297 0.42456055
vn -0.22192383 0.8779297 0.42456055
vn 0.4428711 0.86816406 0.22314453
vn 0.4428711 0.86816406 0.22314453
vn 0.4428711 0.86816406 0.22314453
vn 0.4321289 0.875 0.21789551
vn 0.23791504 0.87060547 -0.43115234
vn 0.23791504 0.87060547 -0.43115234
vn 0.23791504 0.87060547 -0.43115234
vn 0.23791504 0.87060547 -0.43115234
vn -0.41796875 0.8779297 -0.23303223
vn -0.41796875 0.8779297 -0.23303223
vn -0.41796875 0.8779297 -0.23303223
vn -0.4260254 0.8730469 -0.23730469
vn -0.8808594 0.4404297 0.17358398
vn -0.8808594 0.4404297 0.17358398
vn -0.8808594 0.4404297 0.17358398
vn -0.8808594 0.4404297 0.17358398
vn 0.17553711 0.43774414 0.88183594
vn 0.17553711 0.43774414 0.88183594
vn 0.17553711 0.43774414 0.88183594
vn 0.17541504 0.43774414 0.88183594
vn -0.033996582 0.43701172 -0.8989258
vn -0.033996582 0.43701172 -0.8989258
vn -0.033996582 0.43701172 -0.8989258
vn -0.0340271 0.43701172 -0.8989258
vn 0.89990234 0.43408203 -0.0357666
vn 0.89990234 0.43408203 -0.0357666
vn 0.89990234 0.43408203 -0.0357666
vn 0.89990234 0.43432617 -0.035736084
vn -0.3815918 0.56640625 0.73046875
vn -0.3815918 0.56640625 0.73046875
vn -0.3815918 0.56640625 0.73046875
vn -0.3815918 0.56640625 0.73046875
vn 0.74560547 0.5493164 0.37670898
vn 0.74560547 0.5493164 0.37670898
vn 0.74560547 0.5493164 0.37670898
vn 0.73828125 0.5620117 0.37329102
vn 0.4025879 0.55322266 -0.7290039
vn 0.4025879 0.55322266 -0.7290039
vn 0.4025879 0.55322266 -0.7290039
vn 0.4025879 0.55322266 -0.7290039
vn -0.71972656 0.5673828 -0.40014648
vn -0.71972656 0.5673828 -0.40014648
vn -0.71972656 0.5673828 -0.40014648
vn -0.72558594 0.5576172 -0.40307617
vn -0.019348145 0.9995117 0.015419006
vn -0.019348145 0.9995117 0.015419006
vn -0.019348145 0.9995117 0.015419006
vn -0.019363403 0.9995117 0.0154418945
vn 0.81689453 0.28979492 0.49853516
vn 0.81689453 0.28979492 0.49853516
vn 0.81689453 0.28979492 0.49853516
vn 0.81689453 0.29003906 0.49853516
vn -0.81689453 0.28979492 -0.49853516
vn -0.81689453 0.28979492 -0.49853516
vn -0.81689453 0.28979492 -0.49853516
vn -0.81689453 0.28979492 -0.49853516
vn 0.74560547 0.3022461 -0.5942383
vn 0.74560547 0.3022461 -0.5942383
vn 0.74560547 0.3022461 -0.5942383
vn 0.74560547 0.3022461 -0.5942383
vn 0.0020122528 0.91308594 0.40795898
vn 0.0020122528 0.91308594 0.40795898
vn 0.0020122528 0.91308594 0.40795898
vn 0.0020523071 0.9121094 0.41015625
vn 0.29785156 0.95458984 -0.00043010712
vn 0.29785156 0.95458984 -0.00043010712
vn 0.29785156 0.95458984 -0.00043010712
vn 0.29785156 0.95458984 -0.0004298687
vn -0.0013179779 0.91259766 -0.40844727
vn -0.0013179779 0.91259766 -0.40844727
vn -0.0013179779 0.91259766 -0.40844727
vn -0.0013341904 0.9121094 -0.40942383
vn -0.29833984 0.95458984 -0.0005135536
vn -0.29833984 0.95458984 -0.0005135536
vn -0.29833984 0.95458984 -0.0005135536
vn -0.29760742 0.95458984 -0.0005326271
vn 0.9355469 0.35253906 -0.0013542175
vn 0.9355469 0.35253906 -0.0013542175
vn 0.9355469 0.35253906 -0.0013542175
vn 0.9355469 0.35253906 -0.0013542175
vn -0.0028362274 0.4753418 -0.8798828
vn -0.0028362274 0.4753418 -0.8798828
vn -0.0028362274 0.4753418 -0.8798828
vn -0.0028362274 0.4753418 -0.8798828
vn -0.22155762 -0.75390625 0.61865234
vn -0.22155762 -0.75390625 0.61865234
vn -0.22155762 -0.75390625 0.61865234
vn 0.61865234 -0.75390625 0.22143555
vn 0.61865234 -0.75390625 0.22143555
vn 0.61865234 -0.75390625 0.22143555
vn -0.61865234 -0.75390625 -0.22155762
vn -0.61865234 -0.75390625 -0.22155762
vn -0.61865234 -0.75390625 -0.22155762
vn 0.22143555 -0.75390625 -0.61865234
vn 0.22143555 -0.75390625 -0.61865234
vn 0.22143555 -0.75390625 -0.61865234
vn -0.58447266 -0.55908203 0.5878906
vn -0.58447266 -0.55908203 0.5878906
vn -0.58447266 -0.55908203 0.5878906
vn 0.5332031 -0.55908203 0.6347656
vn 0.5332031 -0.55908203 0.6347656
vn 0.5332031 -0.55908203 0.6347656
vn -0.5332031 -0.55908203 -0.6347656
vn -0.5332031 -0.55908203 -0.6347656
vn -0.5332031 -0.55908203 -0.6347656
vn 0.58447266 -0.55908203 -0.5878906
vn 0.58447266 -0.55908203 -0.5878906
vn 0.58447266 -0.55908203 -0.5878906
vn -0.6479492 -0.66259766 0.37524414
vn -0.6479492 -0.66259766 0.37524414
vn -0.6479492 -0.66259766 0.37524414
vn 0.3154297 -0.66259766 0.6791992
vn 0.3154297 -0.66259766 0.6791992
vn 0.3154297 -0.66259766 0.6791992
vn -0.3154297 -0.66259766 -0.6791992
vn -0.3154297 -0.66259766 -0.6791992
vn -0.3154297 -0.66259766 -0.6791992
vn 0.6479492 -0.66259766 -0.37524414
vn 0.6479492 -0.66259766 -0.37524414
vn 0.6479492 -0.66259766 -0.37524414
vn 0.19360352 0.008140564 0.98095703
vn 0.19360352 0.008140564 0.98095703
vn 0.19360352 0.008140564 0.98095703
vn 0.19360352 0.008140564 0.98095703
vn 0.19360352 0.008140564 0.98095703
vn 0.19360352 0.008140564 0.98095703
vn -0.98095703 0.014137268 0.19348145
vn -0.98095703 0.014137268 0.19348145
vn -0.98095703 0.014137268 0.19348145
vn -0.98095703 0.014129639 0.19348145
vn -0.98095703 0.014129639 0.19348145
vn -0.98095703 0.014129639 0.19348145
vn 0.8535156 0.0028877258 0.5209961
vn 0.8535156 0.0028877258 0.5209961
vn 0.8535156 0.0028877258 0.5209961
vn 0.8535156 0.0028877258 0.5209961
vn 0.8535156 0.0028877258 0.5209961
vn 0.8535156 0.0028877258 0.5209961
vn -0.78222656 0.0028476715 0.6230469
vn -0.78222656 0.0028476715 0.6230469
vn -0.78222656 0.0028476715 0.6230469
vn -0.78222656 0.0028476715 0.6230469
vn -0.78222656 0.0028476715 0.6230469
vn -0.78222656 0.0028476715 0.6230469
vn -0.8535156 1.4305115E-06 -0.5209961
vn -0.8535156 1.4305115E-06 -0.5209961
vn -0.8535156 1.4305115E-06 -0.5209961
vn -0.8535156 1.4305115E-06 -0.5209961
vn -0.8535156 1.4305115E-06 -0.5209961
vn -0.8535156 1.4305115E-06 -0.5209961
vn -0.61279297 -0.62109375 0.48828125
vn -0.61279297 -0.62109375 0.48828125
vn -0.61279297 -0.62109375 0.48828125
vn 0.68066406 -0.6035156 0.4152832
vn 0.68066406 -0.6035156 0.4152832
vn 0.68066406 -0.6035156 0.4152832
vn -0.68066406 -0.6035156 -0.4152832
vn -0.68066406 -0.6035156 -0.4152832
vn -0.68066406 -0.6035156 -0.4152832
vn 0.61279297 -0.62109375 -0.48828125
vn 0.61279297 -0.62109375 -0.48828125
vn 0.61279297 -0.62109375 -0.48828125
vn -0.8964844 -2.861023E-06 0.44335938
vn -0.8964844 -2.861023E-06 0.44335938
vn -0.8964844 -2.861023E-06 0.44335938
vn -0.8964844 0.00013196468 0.44335938
vn -0.3371582 0.0053253174 0.94140625
vn -0.3371582 0.0053253174 0.94140625
vn -0.3371582 0.0053253174 0.94140625
vn -0.3371582 0.0053253174 0.94140625
vn -0.94140625 -6.2584877E-06 -0.3371582
vn -0.94140625 -6.2584877E-06 -0.3371582
vn -0.94140625 -6.2584877E-06 -0.3371582
vn -0.94140625 -1.4305115E-06 -0.3371582
vn 0.46020508 0.007534027 0.8876953
vn 0.46020508 0.007534027 0.8876953
vn 0.46020508 0.007534027 0.8876953
vn 0.46020508 0.007534027 0.8876953
vn 0.8964844 -0.00013434887 -0.44335938
vn 0.8964844 -0.00013434887 -0.44335938
vn 0.8964844 -0.00013434887 -0.44335938
vn 0.8964844 -4.7683716E-07 -0.44335938
vn -0.46020508 0 -0.8876953
vn -0.46020508 0 -0.8876953
vn -0.46020508 0 -0.8876953
vn -0.46020508 -8.34465E-07 -0.8876953
vn 0.94140625 0.005329132 0.3371582
vn 0.94140625 0.005329132 0.3371582
vn 0.94140625 0.005329132 0.3371582
vn 0.94140625 0.005329132 0.33691406
vn 0.3371582 6.556511E-07 -0.94140625
vn 0.3371582 6.556511E-07 -0.94140625
vn 0.3371582 6.556511E-07 -0.94140625
vn 0.3371582 1.7881393E-06 -0.94140625
vn -0.47045898 -0.8510742 0.23266602
vn -0.47045898 -0.8510742 0.23266602
vn -0.47045898 -0.8510742 0.23266602
vn -0.47045898 -0.8510742 0.23266602
vn -0.24157715 -0.8510742 -0.46606445
vn -0.24157715 -0.8510742 -0.46606445
vn -0.24157715 -0.8510742 -0.46606445
vn -0.24157715 -0.8510742 -0.46606445
vn 0.47045898 -0.8510742 -0.23266602
vn 0.47045898 -0.8510742 -0.23266602
vn 0.47045898 -0.8510742 -0.23266602
vn 0.47045898 -0.8510742 -0.23266602
vn 0.24157715 -0.8510742 0.46606445
vn 0.24157715 -0.8510742 0.46606445
vn 0.24157715 -0.8510742 0.46606445
vn 0.24157715 -0.8510742 0.46606445
vn -0.07562256 0.0053901672 0.9970703
vn -0.07562256 0.0053901672 0.9970703
vn -0.07562256 0.0053901672 0.9970703
vn -0.07562256 0.005393982 0.9970703
vn 0.99609375 0.0002503395 0.08795166
vn 0.99609375 0.0002503395 0.08795166
vn 0.99609375 0.0002503395 0.08795166
vn 0.99609375 1.7881393E-07 0.08782959
vn 0.07562256 3.3974648E-06 -0.9970703
vn 0.07562256 3.3974648E-06 -0.9970703
vn 0.07562256 3.3974648E-06 -0.9970703
vn 0.07562256 4.053116E-06 -0.9970703
vn -0.99609375 -5.9604645E-07 -0.08795166
vn -0.99609375 -5.9604645E-07 -0.08795166
vn -0.99609375 -5.9604645E-07 -0.08795166
vn -0.99609375 -0.000248909 -0.08782959
vn 0.6430664 0.003982544 0.765625
vn 0.6430664 0.003982544 0.765625
vn 0.6430664 0.003982544 0.765625
vn 0.6430664 0.003982544 0.765625
vn -0.7050781 0.003982544 0.70947266
vn -0.7050781 0.003982544 0.70947266
vn -0.7050781 0.003982544 0.70947266
vn -0.7050781 0.003982544 0.70947266
vn 0.7050781 2.3245811E-06 -0.70947266
vn 0.7050781 2.3245811E-06 -0.70947266
vn 0.7050781 2.3245811E-06 -0.70947266
vn 0.7050781 3.8146973E-06 -0.70947266
vn -0.6430664 -5.364418E-07 -0.765625
vn -0.6430664 -5.364418E-07 -0.765625
vn -0.6430664 -5.364418E-07 -0.765625
vn -0.6430664 1.7881393E-06 -0.765625
vn -0.70458984 -0.70654297 -0.06213379
vn -0.70458984 -0.70654297 -0.06213379
vn -0.70458984 -0.70654297 -0.06213379
vn -0.70458984 -0.70654297 -0.06213379
vn 0.055847168 -0.6743164 -0.7363281
vn 0.055847168 -0.6743164 -0.7363281
vn 0.055847168 -0.6743164 -0.7363281
vn 0.055847168 -0.6743164 -0.7363281
vn 0.70458984 -0.70654297 0.06213379
vn 0.70458984 -0.70654297 0.06213379
vn 0.70458984 -0.70654297 0.06213379
vn 0.70458984 -0.70654297 0.06213379
vn -0.055847168 -0.6743164 0.7363281
vn -0.055847168 -0.6743164 0.7363281
vn -0.055847168 -0.6743164 0.7363281
vn -0.055847168 -0.6743164 0.7363281
vn -0.29125977 0.008613586 0.95654297
vn -0.29125977 0.008613586 0.95654297
vn -0.29125977 0.008613586 0.95654297
vn -0.29125977 0.008621216 0.95654297
vn 0.9536133 3.993511E-06 0.30126953
vn 0.9536133 3.993511E-06 0.30126953
vn 0.9536133 3.993511E-06 0.30126953
vn 0.9536133 4.7683716E-07 0.30126953
vn 0.30200195 4.4107437E-06 -0.953125
vn 0.30200195 4.4107437E-06 -0.953125
vn 0.30200195 4.4107437E-06 -0.953125
vn 0.30200195 4.1127205E-06 -0.953125
vn -0.94873047 -2.0861626E-06 -0.3161621
vn -0.94873047 -2.0861626E-06 -0.3161621
vn -0.94873047 -2.0861626E-06 -0.3161621
vn -0.94873047 -0.00014042854 -0.3161621
vn 0.42114258 0.0063591003 0.90722656
vn 0.42114258 0.0063591003 0.90722656
vn 0.42114258 0.0063591003 0.90722656
vn 0.42114258 0.006362915 0.90722656
vn -0.8652344 0.0063591003 0.50097656
vn -0.8652344 0.0063591003 0.50097656
vn -0.8652344 0.0063591003 0.50097656
vn -0.8652344 0.0063591003 0.50097656
vn 0.8652344 2.5629997E-06 -0.50097656
vn 0.8652344 2.5629997E-06 -0.50097656
vn 0.8652344 2.5629997E-06 -0.50097656
vn 0.8652344 5.7816505E-06 -0.50097656
vn -0.42114258 1.9669533E-06 -0.90722656
vn -0.42114258 1.9669533E-06 -0.90722656
vn -0.42114258 1.9669533E-06 -0.90722656
vn -0.42114258 4.172325E-07 -0.90722656
vn -0.5751953 -0.79541016 -0.19177246
vn -0.5751953 -0.79541016 -0.19177246
vn -0.5751953 -0.79541016 -0.19177246
vn -0.5751953 -0.79541016 -0.19177246
vn 0.19348145 -0.7680664 -0.61083984
vn 0.19348145 -0.7680664 -0.61083984
vn 0.19348145 -0.7680664 -0.61083984
vn 0.19348145 -0.7680664 -0.61083984
vn 0.578125 -0.79541016 0.18261719
vn 0.578125 -0.79541016 0.18261719
vn 0.578125 -0.79541016 0.18261719
vn 0.578125 -0.79541016 0.18261719
vn -0.18664551 -0.7680664 0.61279297
vn -0.18664551 -0.7680664 0.61279297
vn -0.18664551 -0.7680664 0.61279297
vn -0.18664551 -0.7680664 0.61279297
vn -0.46289062 0.015197754 0.88623047
vn -0.46289062 0.015197754 0.88623047
vn -0.46289062 0.015197754 0.88623047
vn -0.46289062 0.015197754 0.88623047
vn 0.89208984 -0.006126404 0.45166016
vn 0.89208984 -0.006126404 0.45166016
vn 0.89208984 -0.006126404 0.45166016
vn 0.89208984 -0.005569458 0.4519043
vn 0.48364258 -0.0042762756 -0.8754883
vn 0.48364258 -0.0042762756 -0.8754883
vn 0.48364258 -0.0042762756 -0.8754883
vn 0.48364258 -0.0042800903 -0.8754883
vn -0.8745117 0.0054130554 -0.48510742
vn -0.8745117 0.0054130554 -0.48510742
vn -0.8745117 0.0054130554 -0.48510742
vn -0.8745117 0.0055503845 -0.48510742
vn 0.99902344 -0.0068511963 -0.039489746
vn 0.99902344 -0.0068511963 -0.039489746
vn 0.99902344 -0.0068511963 -0.039489746
vn 0.99902344 -0.0068473816 -0.03945923
vn -0.03945923 -0.0008573532 -0.99902344
vn -0.03945923 -0.0008573532 -0.99902344
vn -0.03945923 -0.0008573532 -0.99902344
vn -0.03945923 -0.000854969 -0.99902344
vn 0.0032806396 0.0048561096 1
vn 0.0032806396 0.0048561096 1
vn 0.0032806396 0.0048561096 1
vn 0.0032253265 0.005153656 1
vn 1 0.00023126602 -0.0014476776
vn 1 0.00023126602 -0.0014476776
vn 1 0.00023126602 -0.0014476776
vn 1 7.1525574E-07 -0.0015048981
vn -0.0032253265 2.9206276E-06 -1
vn -0.0032253265 2.9206276E-06 -1
vn -0.0032253265 2.9206276E-06 -1
vn -0.0032253265 2.7418137E-06 -1
vn -1 0 0.0014476776
vn -1 0 0.0014476776
vn -1 0 0.0014476776
vn -1 -0.00021958351 0.0015048981
vn 0.78222656 2.9802322E-06 -0.6230469
vn 0.78222656 2.9802322E-06 -0.6230469
vn 0.78222656 2.9802322E-06 -0.6230469
vn 0.78222656 2.861023E-06 -0.6230469
vn -0.72802734 -0.6855469 0.0010948181
vn -0.72802734 -0.6855469 0.0010948181
vn -0.72802734 -0.6855469 0.0010948181
vn -0.72802734 -0.6855469 0.0010938644
vn -0.0019187927 -0.80371094 -0.59521484
vn -0.0019187927 -0.80371094 -0.59521484
vn -0.0019187927 -0.80371094 -0.59521484
vn -0.0019187927 -0.80371094 -0.59521484
vn 0.72802734 -0.6855469 -0.0010957718
vn 0.72802734 -0.6855469 -0.0010957718
vn 0.72802734 -0.6855469 -0.0010957718
vn 0.72802734 -0.6855469 -0.0010967255
vn 0.0019187927 -0.80371094 0.59521484
vn 0.0019187927 -0.80371094 0.59521484
vn 0.0019187927 -0.80371094 0.59521484
vn 0.0019187927 -0.80371094 0.59521484
vn -0.8027344 -0.57470703 0.15856934
vn -0.8027344 -0.57470703 0.15856934
vn -0.8027344 -0.57470703 0.15856934
vn 0.15612793 -0.57714844 0.8017578
vn 0.15612793 -0.57714844 0.8017578
vn 0.15612793 -0.57714844 0.8017578
vn -0.034210205 -0.5776367 -0.8154297
vn -0.034210205 -0.5776367 -0.8154297
vn -0.034210205 -0.5776367 -0.8154297
vn 0.81396484 -0.5800781 -0.03189087
vn 0.81396484 -0.5800781 -0.03189087
vn 0.81396484 -0.5800781 -0.03189087
vn 0.6308594 -0.7060547 0.3215332
vn 0.6308594 -0.7060547 0.3215332
vn 0.6308594 -0.7060547 0.3215332
vn 0.640625 -0.6953125 0.3256836
vn 0.640625 -0.6953125 0.3256836
vn 0.640625 -0.6953125 0.3256836
vn -5.364418E-07 -1 -1.2516975E-06
vn -5.364418E-07 -1 -1.2516975E-06
vn -5.364418E-07 -1 -1.2516975E-06
vn -5.364418E-07 -1 -1.2516975E-06
vn 1.7881393E-07 -1 -1.6093254E-06
vn 1.7881393E-07 -1 -1.6093254E-06
vn 1.7881393E-07 -1 -1.6093254E-06
vn -0 -1 -1.7881393E-06
vn 1.1920929E-07 -1 -1.0728836E-06
vn 1.1920929E-07 -1 -1.0728836E-06
vn 1.1920929E-07 -1 -1.0728836E-06
vn 1.1920929E-07 -1 -1.0728836E-06
vn -0.0005373955 -1 0.0014591217
vn -0.0005373955 -1 0.0014591217
vn -0.0005373955 -1 0.0014591217
vn -0.00054979324 -1 0.0014228821
vn -0.6298828 -0.6948242 -0.3474121
vn -0.6298828 -0.6948242 -0.3474121
vn -0.6298828 -0.6948242 -0.3474121
vn -0.62158203 -0.70410156 -0.34350586
vn 0.3461914 -0.6982422 -0.62646484
vn 0.3461914 -0.6982422 -0.62646484
vn 0.3461914 -0.6982422 -0.62646484
vn 0.3461914 -0.6982422 -0.62646484
vn -0.32910156 -0.703125 0.6303711
vn -0.32910156 -0.703125 0.6303711
vn -0.32910156 -0.703125 0.6303711
vn -0.32910156 -0.703125 0.6303711
vn -0 -1 -1.7285347E-06
vn -0 -1 -1.7285347E-06
vn -0 -1 -1.7285347E-06
vn -0 -1 -1.7881393E-06
vn 3.5762787E-07 1 1.1920929E-06
vn 3.5762787E-07 1 1.1920929E-06
vn 3.5762787E-07 1 1.1920929E-06
vn 2.9802322E-07 1 1.1920929E-06
vn -0 1 2.3245811E-06
vn -0 1 2.3245811E-06
vn -0 1 2.3245811E-06
vn -0 1 2.1457672E-06
vn -0.005012512 1 0.015823364
vn -0.005012512 1 0.015823364
vn -0.005012512 1 0.015823364
vn -0.015838623 1 -0.005001068
vn 0.00054836273 1 -0.001420021
vn 0.00054836273 1 -0.001420021
vn 0.00054836273 1 -0.001420021
vn 0.00053596497 1 -0.0014572144
vn -3.2186508E-06 1 -0.0010089874
vn -3.2186508E-06 1 -0.0010089874
vn -3.2186508E-06 1 -0.0010089874
vn 0.00078582764 1 2.3841858E-07
g A001_BB04_0
f 3/3/3 2/2/2 1/1/1
f 6/6/6 5/5/5 4/4/4
f 9/9/9 8/8/8 7/7/7
f 12/12/12 11/11/11 10/10/10
f 15/15/15 14/14/14 13/13/13
f 18/18/18 17/17/17 16/16/16
f 21/21/21 20/20/20 19/19/19
f 24/24/24 23/23/23 22/22/22
f 27/27/27 26/26/26 25/25/25
f 30/30/30 29/29/29 28/28/28
f 33/33/33 32/32/32 31/31/31
f 36/36/36 35/35/35 34/34/34
f 39/39/39 38/38/38 37/37/37
f 42/42/42 41/41/41 40/40/40
f 45/45/45 44/44/44 43/43/43
f 48/48/48 47/47/47 46/46/46
f 51/51/51 50/50/50 49/49/49
f 54/54/54 53/53/53 52/52/52
f 57/57/57 56/56/56 55/55/55
f 60/60/60 59/59/59 58/58/58
f 63/63/63 62/62/62 61/61/61
f 66/66/66 65/65/65 64/64/64
f 69/69/69 68/68/68 67/67/67
f 72/72/72 71/71/71 70/70/70
f 75/75/75 74/74/74 73/73/73
f 74/74/74 75/75/75 76/76/76
f 79/79/79 78/78/78 77/77/77
f 78/78/78 79/79/79 80/80/80
f 83/83/83 82/82/82 81/81/81
f 82/82/82 83/83/83 84/84/84
f 87/87/87 86/86/86 85/85/85
f 86/86/86 87/87/87 88/88/88
f 91/91/91 90/90/90 89/89/89
f 90/90/90 91/91/91 92/92/92
f 95/95/95 94/94/94 93/93/93
f 94/94/94 95/95/95 96/96/96
f 99/99/99 98/98/98 97/97/97
f 98/98/98 99/99/99 100/100/100
f 103/103/103 102/102/102 101/101/101
f 102/102/102 103/103/103 104/104/104
f 107/107/107 106/106/106 105/105/105
f 106/106/106 107/107/107 108/108/108
f 111/111/111 110/110/110 109/109/109
f 110/110/110 111/111/111 112/112/112
f 115/115/115 114/114/114 113/113/113
f 114/114/114 115/115/115 116/116/116
f 119/119/119 118/118/118 117/117/117
f 118/118/118 119/119/119 120/120/120
f 123/123/123 122/122/122 121/121/121
f 122/122/122 123/123/123 124/124/124
f 127/127/127 126/126/126 125/125/125
f 126/126/126 127/127/127 128/128/128
f 131/131/131 130/130/130 129/129/129
f 130/130/130 131/131/131 132/132/132
f 135/135/135 134/134/134 133/133/133
f 134/134/134 135/135/135 136/136/136
f 139/139/139 138/138/138 137/137/137
f 138/138/138 139/139/139 140/140/140
f 143/143/143 142/142/142 141/141/141
f 142/142/142 143/143/143 144/144/144
f 147/147/147 146/146/146 145/145/145
f 146/146/146 147/147/147 148/148/148
f 151/151/151 150/150/150 149/149/149
f 150/150/150 151/151/151 152/152/152
f 155/155/155 154/154/154 153/153/153
f 154/154/154 155/155/155 156/156/156
f 159/159/159 158/158/158 157/157/157
f 158/158/158 159/159/159 160/160/160
f 163/163/163 162/162/162 161/161/161
f 162/162/162 163/163/163 164/164/164
f 167/167/167 166/166/166 165/165/165
f 166/166/166 167/167/167 168/168/168
f 171/171/171 170/170/170 169/169/169
f 172/172/172 170/170/170 171/171/171
f 170/170/170 172/172/172 173/173/173
f 176/176/176 175/175/175 174/174/174
f 177/177/177 175/175/175 176/176/176
f 175/175/175 177/177/177 178/178/178
f 181/181/181 180/180/180 179/179/179
f 182/182/182 180/180/180 181/181/181
f 180/180/180 182/182/182 183/183/183
f 186/186/186 185/185/185 184/184/184
f 185/185/185 186/186/186 187/187/187
f 190/190/190 189/189/189 188/188/188
f 191/191/191 188/188/188 189/189/189
f 188/188/188 191/191/191 192/192/192
f 195/195/195 194/194/194 193/193/193
f 194/194/194 195/195/195 196/196/196
f 197/197/197 196/196/196 195/195/195
f 196/196/196 197/197/197 198/198/198
f 201/201/201 200/200/200 199/199/199
f 200/200/200 201/201/201 202/202/202
f 203/203/203 202/202/202 201/201/201
f 202/202/202 203/203/203 204/204/204
f 207/207/207 206/206/206 205/205/205
f 206/206/206 207/207/207 208/208/208
f 211/211/211 210/210/210 209/209/209
f 210/210/210 211/211/211 212/212/212
f 215/215/215 214/214/214 213/213/213
f 214/214/214 215/215/215 216/216/216
f 219/219/219 218/218/218 217/217/217
f 218/218/218 219/219/219 220/220/220
f 223/223/223 222/222/222 221/221/221
f 222/222/222 223/223/223 224/224/224
f 227/227/227 226/226/226 225/225/225
f 226/226/226 227/227/227 228/228/228
f 231/231/231 230/230/230 229/229/229
f 230/230/230 231/231/231 232/232/232
f 235/235/235 234/234/234 233/233/233
f 234/234/234 235/235/235 236/236/236
f 239/239/239 238/238/238 237/237/237
f 238/238/238 239/239/239 240/240/240
f 243/243/243 242/242/242 241/241/241
f 242/242/242 243/243/243 244/244/244
f 247/247/247 246/246/246 245/245/245
f 246/246/246 247/247/247 248/248/248
f 251/251/251 250/250/250 249/249/249
f 250/250/250 251/251/251 252/252/252
f 255/255/255 254/254/254 253/253/253
f 254/254/254 255/255/255 256/256/256
f 259/259/259 258/258/258 257/257/257
f 258/258/258 259/259/259 260/260/260
f 263/263/263 262/262/262 261/261/261
f 262/262/262 263/263/263 264/264/264
f 267/267/267 266/266/266 265/265/265
f 266/266/266 267/267/267 268/268/268
f 271/271/271 270/270/270 269/269/269
f 270/270/270 271/271/271 272/272/272
f 275/275/275 274/274/274 273/273/273
f 274/274/274 275/275/275 276/276/276
f 279/279/279 278/278/278 277/277/277
f 278/278/278 279/279/279 280/280/280
f 283/283/283 282/282/282 281/281/281
f 282/282/282 283/283/283 284/284/284
f 287/287/287 286/286/286 285/285/285
f 286/286/286 287/287/287 288/288/288
f 291/291/291 290/290/290 289/289/289
f 290/290/290 291/291/291 292/292/292
f 295/295/295 294/294/294 293/293/293
f 294/294/294 295/295/295 296/296/296
g A001_BB04_1
f 299/299/299 298/298/298 297/297/297
f 302/302/302 301/301/301 300/300/300
f 305/305/305 304/304/304 303/303/303
f 308/308/308 307/307/307 306/306/306
f 311/311/311 310/310/310 309/309/309
f 314/314/314 313/313/313 312/312/312
f 317/317/317 316/316/316 315/315/315
f 320/320/320 319/319/319 318/318/318
f 323/323/323 322/322/322 321/321/321
f 326/326/326 325/325/325 324/324/324
f 329/329/329 328/328/328 327/327/327
f 332/332/332 331/331/331 330/330/330
f 335/335/335 334/334/334 333/333/333
f 338/338/338 337/337/337 336/336/336
f 341/341/341 340/340/340 339/339/339
f 344/344/344 343/343/343 342/342/342
f 347/347/347 346/346/346 345/345/345
f 350/350/350 349/349/349 348/348/348
f 353/353/353 352/352/352 351/351/351
f 356/356/356 355/355/355 354/354/354
f 359/359/359 358/358/358 357/357/357
f 362/362/362 361/361/361 360/360/360
f 365/365/365 364/364/364 363/363/363
f 368/368/368 367/367/367 366/366/366
f 371/371/371 370/370/370 369/369/369
f 374/374/374 373/373/373 372/372/372
f 377/377/377 376/376/376 375/375/375
f 376/376/376 377/377/377 378/378/378
f 381/381/381 380/380/380 379/379/379
f 380/380/380 381/381/381 382/382/382
f 385/385/385 384/384/384 383/383/383
f 384/384/384 385/385/385 386/386/386
f 389/389/389 388/388/388 387/387/387
f 388/388/388 389/389/389 390/390/390
f 393/393/393 392/392/392 391/391/391
f 392/392/392 393/393/393 394/394/394
f 397/397/397 396/396/396 395/395/395
f 396/396/396 397/397/397 398/398/398
f 401/401/401 400/400/400 399/399/399
f 400/400/400 401/401/401 402/402/402
f 405/405/405 404/404/404 403/403/403
f 404/404/404 405/405/405 406/406/406
f 409/409/409 408/408/408 407/407/407
f 408/408/408 409/409/409 410/410/410
f 413/413/413 412/412/412 411/411/411
f 412/412/412 413/413/413 414/414/414
f 417/417/417 416/416/416 415/415/415
f 416/416/416 417/417/417 418/418/418
f 421/421/421 420/420/420 419/419/419
f 420/420/420 421/421/421 422/422/422
f 425/425/425 424/424/424 423/423/423
f 424/424/424 425/425/425 426/426/426
f 429/429/429 428/428/428 427/427/427
f 428/428/428 429/429/429 430/430/430
f 433/433/433 432/432/432 431/431/431
f 432/432/432 433/433/433 434/434/434
f 437/437/437 436/436/436 435/435/435
f 436/436/436 437/437/437 438/438/438
f 441/441/441 440/440/440 439/439/439
f 440/440/440 441/441/441 442/442/442
f 445/445/445 444/444/444 443/443/443
f 444/444/444 445/445/445 446/446/446
f 449/449/449 448/448/448 447/447/447
f 448/448/448 449/449/449 450/450/450
f 453/453/453 452/452/452 451/451/451
f 452/452/452 453/453/453 454/454/454
f 457/457/457 456/456/456 455/455/455
f 456/456/456 457/457/457 458/458/458
f 461/461/461 460/460/460 459/459/459
f 460/460/460 461/461/461 462/462/462
f 465/465/465 464/464/464 463/463/463
f 464/464/464 465/465/465 466/466/466
f 469/469/469 468/468/468 467/467/467
f 468/468/468 469/469/469 470/470/470
f 473/473/473 472/472/472 471/471/471
f 472/472/472 473/473/473 474/474/474
f 477/477/477 476/476/476 475/475/475
f 476/476/476 477/477/477 478/478/478
f 481/481/481 480/480/480 479/479/479
f 480/480/480 481/481/481 482/482/482
f 485/485/485 484/484/484 483/483/483
f 484/484/484 485/485/485 486/486/486
f 489/489/489 488/488/488 487/487/487
f 488/488/488 489/489/489 490/490/490
f 493/493/493 492/492/492 491/491/491
f 492/492/492 493/493/493 494/494/494
f 497/497/497 496/496/496 495/495/495
f 496/496/496 497/497/497 498/498/498
f 501/501/501 500/500/500 499/499/499
f 500/500/500 501/501/501 502/502/502
f 505/505/505 504/504/504 503/503/503
f 504/504/504 505/505/505 506/506/506
f 509/509/509 508/508/508 507/507/507
f 508/508/508 509/509/509 510/510/510
f 513/513/513 512/512/512 511/511/511
f 512/512/512 513/513/513 514/514/514
f 517/517/517 516/516/516 515/515/515
f 516/516/516 517/517/517 518/518/518
f 521/521/521 520/520/520 519/519/519
f 520/520/520 521/521/521 522/522/522
f 525/525/525 524/524/524 523/523/523
f 524/524/524 525/525/525 526/526/526
f 529/529/529 528/528/528 527/527/527
f 528/528/528 529/529/529 530/530/530
f 533/533/533 532/532/532 531/531/531
f 532/532/532 533/533/533 534/534/534
f 537/537/537 536/536/536 535/535/535
f 536/536/536 537/537/537 538/538/538
f 541/541/541 540/540/540 539/539/539
f 540/540/540 541/541/541 542/542/542
f 545/545/545 544/544/544 543/543/543
f 544/544/544 545/545/545 546/546/546
f 549/549/549 548/548/548 547/547/547
f 548/548/548 549/549/549 550/550/550
f 553/553/553 552/552/552 551/551/551
f 552/552/552 553/553/553 554/554/554
f 557/557/557 556/556/556 555/555/555
f 556/556/556 557/557/557 558/558/558
f 561/561/561 560/560/560 559/559/559
f 560/560/560 561/561/561 562/562/562
f 565/565/565 564/564/564 563/563/563
f 564/564/564 565/565/565 566/566/566
f 569/569/569 568/568/568 567/567/567
f 568/568/568 569/569/569 570/570/570
f 573/573/573 572/572/572 571/571/571
f 572/572/572 573/573/573 574/574/574
f 577/577/577 576/576/576 575/575/575
f 576/576/576 577/577/577 578/578/578
g A001_BB04_2
f 581/581/581 580/580/580 579/579/579
f 584/584/584 583/583/583 582/582/582
f 587/587/587 586/586/586 585/585/585
f 590/590/590 589/589/589 588/588/588
f 593/593/593 592/592/592 591/591/591
f 596/596/596 595/595/595 594/594/594
f 599/599/599 598/598/598 597/597/597
f 598/598/598 599/599/599 600/600/600
f 603/603/603 602/602/602 601/601/601
f 602/602/602 603/603/603 604/604/604
f 607/607/607 606/606/606 605/605/605
f 606/606/606 607/607/607 608/608/608
f 611/611/611 610/610/610 609/609/609
f 610/610/610 611/611/611 612/612/612
f 615/615/615 614/614/614 613/613/613
f 614/614/614 615/615/615 616/616/616
f 619/619/619 618/618/618 617/617/617
f 618/618/618 619/619/619 620/620/620
f 623/623/623 622/622/622 621/621/621
f 622/622/622 623/623/623 624/624/624
f 627/627/627 626/626/626 625/625/625
f 626/626/626 627/627/627 628/628/628
g A001_BB04_3
f 631/631/631 630/630/630 629/629/629
f 630/630/630 631/631/631 632/632/632
f 635/635/635 634/634/634 633/633/633
f 634/634/634 635/635/635 636/636/636
f 639/639/639 638/638/638 637/637/637
f 638/638/638 639/639/639 640/640/640
f 643/643/643 642/642/642 641/641/641
f 642/642/642 643/643/643 644/644/644
f 647/647/647 646/646/646 645/645/645
f 646/646/646 647/647/647 648/648/648
