g A001_BB01
v -3.6363819 4.456233 -0.96854186
v -3.2523143 4.221223 -0.62768495
v -3.3761377 4.2212205 -0.5382074
v -14.1524725 4.456233 -1.725036
v -14.4720745 4.2212195 -1.3510052
v -14.579912 4.2212195 -1.4609149
v -2.8511133 4.4562654 -9.1057005
v -2.5371337 4.221253 -9.428981
v -2.4292967 4.221249 -9.319072
v -13.63914 4.456264 -9.976763
v -14.028828 4.2212486 -10.266868
v -13.904995 4.221252 -10.356345
v -6.7676754 4.8111444 5.1771617
v -6.6466355 4.7194233 5.118265
v -6.766699 4.719418 5.286478
v -15.788427 4.811142 6.484492
v -15.751726 4.719416 6.5878515
v -15.91998 4.719416 6.4677634
v -8.096406 4.811156 -3.9806242
v -8.133086 4.7194324 -4.0839643
v -7.964868 4.7194276 -3.9638958
v -16.776009 4.811155 -2.6732965
v -16.897099 4.719426 -2.6143901
v -16.776999 4.719431 -2.7826128
v -17.363237 3.6788936 14.054663
v -17.905859 3.517088 14.548647
v -18.070738 3.5170898 14.341719
v 17.402632 3.678894 13.935635
v 18.110922 3.5170872 14.190898
v 17.966606 3.5170867 14.427319
v -17.404331 3.6789227 -13.9724
v -18.112621 3.517111 -14.227668
v -17.968306 3.5171144 -14.464085
v 17.361547 3.6789203 -14.091431
v 17.904144 3.5171137 -14.585415
v 18.069029 3.5171108 -14.378489
v 17.976898 3.055344 14.648989
v -17.895573 3.0585763 14.770327
v 17.966606 3.5170867 14.427319
v -17.905859 3.517088 14.548647
v 17.966606 3.5170867 14.427319
v -17.895573 3.0585763 14.770327
v -18.225332 3.0585775 14.356464
v -18.267206 3.0553713 -14.212919
v -18.070738 3.5170898 14.341719
v -18.112621 3.517111 -14.227668
v -18.070738 3.5170898 14.341719
v -18.267206 3.0553713 -14.212919
v -3.3841307 3.8705585 -0.43851256
v -3.3761377 4.2212205 -0.5382074
v -3.1364746 3.8705592 -0.6174701
v -3.2523143 4.221223 -0.62768495
v -14.695737 3.8705587 -1.4711322
v -14.579912 4.2212195 -1.4609149
v -14.480081 3.8705585 -1.251308
v -14.4720745 4.2212195 -1.3510052
v -2.3134716 3.870591 -9.308856
v -2.4292967 4.221249 -9.319072
v -2.5291405 3.8705926 -9.52867
v -2.5371337 4.221253 -9.428981
v -13.896984 3.870591 -10.456035
v -13.904995 4.221252 -10.356345
v -14.144658 3.8705907 -10.277082
v -14.028828 4.2212486 -10.266868
v -14.4720745 4.2212195 -1.3510052
v -14.1524725 4.456233 -1.725036
v -3.3761377 4.2212205 -0.5382074
v -3.6363819 4.456233 -0.96854186
v -14.028828 4.2212486 -10.266868
v -13.63914 4.456264 -9.976763
v -14.579912 4.2212195 -1.4609149
v -14.1524725 4.456233 -1.725036
v -2.5371337 4.221253 -9.428981
v -2.8511133 4.4562654 -9.1057005
v -13.904995 4.221252 -10.356345
v -13.63914 4.456264 -9.976763
v -3.2523143 4.221223 -0.62768495
v -3.6363819 4.456233 -0.96854186
v -2.4292967 4.221249 -9.319072
v -2.8511133 4.4562654 -9.1057005
v -14.480081 3.8705585 -1.251308
v -14.4720745 4.2212195 -1.3510052
v -3.3841307 3.8705585 -0.43851256
v -3.3761377 4.2212205 -0.5382074
v -14.144658 3.8705907 -10.277082
v -14.028828 4.2212486 -10.266868
v -14.695737 3.8705587 -1.4711322
v -14.579912 4.2212195 -1.4609149
v -2.5291405 3.8705926 -9.52867
v -2.5371337 4.221253 -9.428981
v -13.896984 3.870591 -10.456035
v -13.904995 4.221252 -10.356345
v -3.1364746 3.8705592 -0.6174701
v -3.2523143 4.221223 -0.62768495
v -2.3134716 3.870591 -9.308856
v -2.4292967 4.221249 -9.319072
v -6.7191014 4.555754 5.4682164
v -6.766699 4.719418 5.286478
v -6.4766307 4.5557537 5.128568
v -6.6466355 4.7194233 5.118265
v -16.079472 4.5557513 6.5330663
v -15.91998 4.719416 6.4677634
v -15.739846 4.5557513 6.7755466
v -15.751726 4.719416 6.5878515
v -7.8053613 4.555763 -4.029218
v -7.964868 4.7194276 -3.9638958
v -8.14498 4.5557656 -4.2716594
v -8.133086 4.7194324 -4.0839643
v -16.824587 4.555762 -2.9643316
v -16.776999 4.719431 -2.7826128
v -17.067041 4.555762 -2.6247027
v -16.897099 4.719426 -2.6143901
v -6.7676754 4.8111444 5.1771617
v -6.766699 4.719418 5.286478
v -15.788427 4.811142 6.484492
v -15.751726 4.719416 6.5878515
v -6.7191014 4.555754 5.4682164
v -15.739846 4.5557513 6.7755466
v -16.897099 4.719426 -2.6143901
v -16.776009 4.811155 -2.6732965
v -15.91998 4.719416 6.4677634
v -15.788427 4.811142 6.484492
v -16.776009 4.811155 -2.6732965
v -16.776999 4.719431 -2.7826128
v -8.096406 4.811156 -3.9806242
v -8.133086 4.7194324 -4.0839643
v -16.824587 4.555762 -2.9643316
v -8.14498 4.5557656 -4.2716594
v -6.6466355 4.7194233 5.118265
v -6.7676754 4.8111444 5.1771617
v -7.964868 4.7194276 -3.9638958
v -8.096406 4.811156 -3.9806242
v -17.067041 4.555762 -2.6247027
v -16.897099 4.719426 -2.6143901
v -16.079472 4.5557513 6.5330663
v -15.91998 4.719416 6.4677634
v -6.4766307 4.5557537 5.128568
v -6.6466355 4.7194233 5.118265
v -7.8053613 4.555763 -4.029218
v -7.964868 4.7194276 -3.9638958
v -17.895573 3.0585763 14.770327
v -18.225332 3.0585775 14.356464
v -17.905859 3.517088 14.548647
v -18.070738 3.5170898 14.341719
v 18.265512 3.055344 14.176147
v 17.976898 3.055344 14.648989
v 18.110922 3.5170872 14.190898
v 17.966606 3.5170867 14.427319
v -18.267206 3.0553713 -14.212919
v -17.978588 3.0553713 -14.685747
v -18.112621 3.517111 -14.227668
v -17.968306 3.5171144 -14.464085
v 17.893852 3.055371 -14.807082
v 18.223608 3.0553708 -14.3932295
v 17.904144 3.5171137 -14.585415
v 18.069029 3.5171108 -14.378489
v 17.966606 3.5170867 14.427319
v -17.905859 3.517088 14.548647
v 17.402632 3.678894 13.935635
v -17.363237 3.6788936 14.054663
v 18.069029 3.5171108 -14.378489
v 18.110922 3.5170872 14.190898
v 17.361547 3.6789203 -14.091431
v 17.402632 3.678894 13.935635
v -17.968306 3.5171144 -14.464085
v 17.904144 3.5171137 -14.585415
v -17.404331 3.6789227 -13.9724
v 17.361547 3.6789203 -14.091431
v -18.070738 3.5170898 14.341719
v -18.112621 3.517111 -14.227668
v -17.363237 3.6788936 14.054663
v -17.404331 3.6789227 -13.9724
v 18.223608 3.0553708 -14.3932295
v 18.265512 3.055344 14.176147
v 18.069029 3.5171108 -14.378489
v 18.110922 3.5170872 14.190898
v -17.978588 3.0553713 -14.685747
v 17.893852 3.055371 -14.807082
v -17.968306 3.5171144 -14.464085
v 17.904144 3.5171137 -14.585415
v -3.3854735 1.5018126 -0.42197022
v -3.3841307 3.8705585 -0.43851256
v -3.1378174 1.3674368 -0.60093385
v -3.1364746 3.8705592 -0.6174701
v -3.1378174 1.3674368 -0.60093385
v -3.3841307 3.8705585 -0.43851256
v -3.1378174 1.3674368 -0.60093385
v -3.3694873 1.1013631 -0.6213647
v -3.3854735 1.5018126 -0.42197022
v -14.697065 1.5018215 -1.4545959
v -14.481396 1.5018121 -1.2347717
v -14.4654045 1.1013638 -1.4341528
v -2.5291357 1.3231465 -9.528682
v -2.5451367 1.1013969 -9.329294
v -2.3134668 1.3231378 -9.308866
v -13.896992 1.36746 -10.456045
v -14.144655 1.5018362 -10.277093
v -13.912998 1.1013968 -10.256661
v -2.5451367 1.1013969 -9.329294
v -3.3694873 1.1013631 -0.6213647
v -2.3134668 1.3231378 -9.308866
v -3.1378174 1.3674368 -0.60093385
v -2.3134668 1.3231378 -9.308866
v -3.3694873 1.1013631 -0.6213647
v -13.912998 1.1013968 -10.256661
v -2.5451367 1.1013969 -9.329294
v -13.896992 1.36746 -10.456045
v -2.5291357 1.3231465 -9.528682
v -13.896992 1.36746 -10.456045
v -2.5451367 1.1013969 -9.329294
v -6.7150974 -2.2947183 5.492356
v -6.7191014 4.555754 5.4682164
v -6.4726267 -2.294718 5.152717
v -6.4766307 4.5557537 5.128568
v -6.4726267 -2.294718 5.152717
v -6.7191014 4.555754 5.4682164
v -6.4726267 -2.294718 5.152717
v -6.7636914 -2.5501158 5.2013307
v -6.7150974 -2.2947183 5.492356
v -16.075447 -2.2947195 6.557215
v -15.735827 -2.2947218 6.7997055
v -15.784409 -2.550115 6.5086412
v -8.14501 -2.2947018 -4.2716446
v -8.0964155 -2.550095 -3.9806292
v -7.8053756 -2.294702 -4.0292034
v -16.824587 -2.2947028 -2.9643254
v -17.06705 -2.2947028 -2.6247063
v -16.776014 -2.5500958 -2.6733
v -17.89385 -4.179114 14.807104
v -18.22361 -4.1791105 14.393237
v -17.895573 3.0585763 14.770327
v -18.225332 3.0585775 14.356464
v -17.895573 3.0585763 14.770327
v -18.22361 -4.1791105 14.393237
v -17.978588 3.0553713 -14.685747
v -18.267206 3.0553713 -14.212919
v -17.97859 -4.179077 -14.685766
v -18.267204 -4.179078 -14.212939
v -17.97859 -4.179077 -14.685766
v -18.267206 3.0553713 -14.212919
v -18.22361 -4.1791105 14.393237
v -17.89385 -4.179114 14.807104
v -17.914412 -4.8111553 14.363745
v 18.267212 -4.1791105 14.212919
v 17.958033 -4.811155 14.242436
v 17.978598 -4.1791143 14.685771
v -17.97859 -4.179077 -14.685766
v -18.267204 -4.179078 -14.212939
v -17.958025 -4.811122 -14.242433
v 17.893862 -4.1790776 -14.807101
v 17.914448 -4.811122 -14.363763
v 18.223618 -4.179079 -14.393256
v -3.3841307 3.8705585 -0.43851256
v -3.3854735 1.5018126 -0.42197022
v -14.480081 3.8705585 -1.251308
v -14.481396 1.5018121 -1.2347717
v -14.695737 3.8705587 -1.4711322
v -14.697065 1.5018215 -1.4545959
v -14.144658 3.8705907 -10.277082
v -14.144655 1.5018362 -10.277093
v -13.896984 3.870591 -10.456035
v -13.896992 1.36746 -10.456045
v -2.5291405 3.8705926 -9.52867
v -2.5291357 1.3231465 -9.528682
v -2.3134716 3.870591 -9.308856
v -2.3134668 1.3231378 -9.308866
v -3.1364746 3.8705592 -0.6174701
v -3.1378174 1.3674368 -0.60093385
v -14.480081 3.8705585 -1.251308
v -14.481396 1.5018121 -1.2347717
v -14.695737 3.8705587 -1.4711322
v -14.697065 1.5018215 -1.4545959
v -14.144658 3.8705907 -10.277082
v -14.144655 1.5018362 -10.277093
v -13.896984 3.870591 -10.456035
v -13.896992 1.36746 -10.456045
v -2.5291405 3.8705926 -9.52867
v -2.5291357 1.3231465 -9.528682
v -2.3134716 3.870591 -9.308856
v -2.3134668 1.3231378 -9.308866
v -14.4654045 1.1013638 -1.4341528
v -13.912998 1.1013968 -10.256661
v -14.697065 1.5018215 -1.4545959
v -14.144655 1.5018362 -10.277093
v -3.3694873 1.1013631 -0.6213647
v -14.4654045 1.1013638 -1.4341528
v -3.3854735 1.5018126 -0.42197022
v -14.481396 1.5018121 -1.2347717
v -6.7191014 4.555754 5.4682164
v -6.7150974 -2.2947183 5.492356
v -15.739846 4.5557513 6.7755466
v -15.735827 -2.2947218 6.7997055
v -16.079472 4.5557513 6.5330663
v -16.075447 -2.2947195 6.557215
v -17.067041 4.555762 -2.6247027
v -17.06705 -2.2947028 -2.6247063
v -16.824587 4.555762 -2.9643316
v -16.824587 -2.2947028 -2.9643254
v -8.14498 4.5557656 -4.2716594
v -8.14501 -2.2947018 -4.2716446
v -7.8053613 4.555763 -4.029218
v -7.8053756 -2.294702 -4.0292034
v -6.4766307 4.5557537 5.128568
v -6.4726267 -2.294718 5.152717
v -15.739846 4.5557513 6.7755466
v -15.735827 -2.2947218 6.7997055
v -16.079472 4.5557513 6.5330663
v -16.075447 -2.2947195 6.557215
v -17.067041 4.555762 -2.6247027
v -17.06705 -2.2947028 -2.6247063
v -16.824587 4.555762 -2.9643316
v -16.824587 -2.2947028 -2.9643254
v -8.14498 4.5557656 -4.2716594
v -8.14501 -2.2947018 -4.2716446
v -7.8053613 4.555763 -4.029218
v -7.8053756 -2.294702 -4.0292034
v -8.0964155 -2.550095 -3.9806292
v -6.7636914 -2.5501158 5.2013307
v -7.8053756 -2.294702 -4.0292034
v -6.4726267 -2.294718 5.152717
v -16.776014 -2.5500958 -2.6733
v -8.0964155 -2.550095 -3.9806292
v -16.824587 -2.2947028 -2.9643254
v -8.14501 -2.2947018 -4.2716446
v -15.784409 -2.550115 6.5086412
v -16.776014 -2.5500958 -2.6733
v -16.075447 -2.2947195 6.557215
v -17.06705 -2.2947028 -2.6247063
v -6.7636914 -2.5501158 5.2013307
v -15.784409 -2.550115 6.5086412
v -6.7150974 -2.2947183 5.492356
v -15.735827 -2.2947218 6.7997055
v -17.895573 3.0585763 14.770327
v 17.976898 3.055344 14.648989
v -17.89385 -4.179114 14.807104
v 17.978598 -4.1791143 14.685771
v 18.265512 3.055344 14.176147
v 18.223608 3.0553708 -14.3932295
v 18.267212 -4.1791105 14.212919
v 18.223618 -4.179079 -14.393256
v 17.893852 3.055371 -14.807082
v -17.978588 3.0553713 -14.685747
v 17.893862 -4.1790776 -14.807101
v -17.97859 -4.179077 -14.685766
v -18.267206 3.0553713 -14.212919
v -18.225332 3.0585775 14.356464
v -18.267204 -4.179078 -14.212939
v -18.22361 -4.1791105 14.393237
v 17.976898 3.055344 14.648989
v 18.265512 3.055344 14.176147
v 17.978598 -4.1791143 14.685771
v 18.267212 -4.1791105 14.212919
v 18.223608 3.0553708 -14.3932295
v 17.893852 3.055371 -14.807082
v 18.223618 -4.179079 -14.393256
v 17.893862 -4.1790776 -14.807101
v -17.958025 -4.811122 -14.242433
v -18.267204 -4.179078 -14.212939
v -17.914412 -4.8111553 14.363745
v -18.22361 -4.1791105 14.393237
v 17.914448 -4.811122 -14.363763
v 17.893862 -4.1790776 -14.807101
v -17.958025 -4.811122 -14.242433
v -17.97859 -4.179077 -14.685766
v 17.958033 -4.811155 14.242436
v 18.267212 -4.1791105 14.212919
v 17.914448 -4.811122 -14.363763
v 18.223618 -4.179079 -14.393256
v -17.914412 -4.8111553 14.363745
v -17.89385 -4.179114 14.807104
v 17.958033 -4.811155 14.242436
v 17.978598 -4.1791143 14.685771
v -14.4654045 1.1013638 -1.4341528
v -3.3694873 1.1013631 -0.6213647
v -13.912998 1.1013968 -10.256661
v -2.5451367 1.1013969 -9.329294
v -15.784409 -2.550115 6.5086412
v -6.7636914 -2.5501158 5.2013307
v -16.776014 -2.5500958 -2.6733
v -8.0964155 -2.550095 -3.9806292
v 17.958033 -4.811155 14.242436
v 17.914448 -4.811122 -14.363763
v -17.914412 -4.8111553 14.363745
v -17.958025 -4.811122 -14.242433
v -2.8511133 4.4562654 -9.1057005
v -3.6363819 4.456233 -0.96854186
v -13.63914 4.456264 -9.976763
v -14.1524725 4.456233 -1.725036
v -8.096406 4.811156 -3.9806242
v -6.7676754 4.8111444 5.1771617
v -16.776009 4.811155 -2.6732965
v -15.788427 4.811142 6.484492
v -17.404331 3.6789227 -13.9724
v 17.361547 3.6789203 -14.091431
v -17.363237 3.6788936 14.054663
v 17.402632 3.678894 13.935635
vt 0.018920898 0.9404297
vt 0.018920898 0.61035156
vt 0.018920898 0.61035156
vt 0.018920898 0.9404297
vt 0.018920898 0.61035156
vt 0.018920898 0.61035156
vt 0.018920898 0.9404297
vt 0.018920898 0.61035156
vt 0.018920898 0.61035156
vt 0.018920898 0.9404297
vt 0.018920898 0.61035156
vt 0.018920898 0.61035156
vt 0.018920898 0.9404297
vt 0.018920898 0.61035156
vt 0.018920898 0.61035156
vt 0.018920898 0.9404297
vt 0.018920898 0.61035156
vt 0.018920898 0.61035156
vt 0.018920898 0.9404297
vt 0.018920898 0.61035156
vt 0.018920898 0.61035156
vt 0.018920898 0.9404297
vt 0.018920898 0.61035156
vt 0.018920898 0.61035156
vt 0.027618408 0.9404297
vt 0.027618408 0.61035156
vt 0.027618408 0.61035156
vt 0.027618408 0.9404297
vt 0.027618408 0.61035156
vt 0.027618408 0.61035156
vt 0.027618408 0.9404297
vt 0.027618408 0.61035156
vt 0.027618408 0.61035156
vt 0.027618408 0.9404297
vt 0.027618408 0.61035156
vt 0.027618408 0.61035156
vt 0.027618408 0.006668091
vt 2.6855469 0.006668091
vt 0.027618408 0.61035156
vt 2.6855469 0.61035156
vt 0.027618408 0.61035156
vt 2.6855469 0.006668091
vt 0.027618408 0.006668091
vt 2.6933594 0.006668091
vt 0.027618408 0.61035156
vt 2.6933594 0.61035156
vt 0.027618408 0.61035156
vt 2.6933594 0.006668091
vt 0.018920898 0.006668091
vt 0.018920898 0.61035156
vt 0.018920898 0.006668091
vt 0.018920898 0.61035156
vt 0.018920898 0.006668091
vt 0.018920898 0.61035156
vt 0.018920898 0.006668091
vt 0.018920898 0.61035156
vt 0.018920898 0.006668091
vt 0.018920898 0.61035156
vt 0.018920898 0.006668091
vt 0.018920898 0.61035156
vt 0.018920898 0.006668091
vt 0.018920898 0.61035156
vt 0.018920898 0.006668091
vt 0.018920898 0.61035156
vt 0.018920898 0.61035156
vt 0.018920898 0.9404297
vt 0.65771484 0.61035156
vt 0.65771484 0.9404297
vt 0.018920898 0.61035156
vt 0.018920898 0.9404297
vt 0.65966797 0.61035156
vt 0.65966797 0.9404297
vt 0.018920898 0.61035156
vt 0.018920898 0.9404297
vt 0.65771484 0.61035156
vt 0.65771484 0.9404297
vt 0.018920898 0.61035156
vt 0.018920898 0.9404297
vt 0.65966797 0.61035156
vt 0.65966797 0.9404297
vt 0.018920898 0.006668091
vt 0.018920898 0.61035156
vt 0.65771484 0.006668091
vt 0.65771484 0.61035156
vt 0.018920898 0.006668091
vt 0.018920898 0.61035156
vt 0.65966797 0.006668091
vt 0.65966797 0.61035156
vt 0.018920898 0.006668091
vt 0.018920898 0.61035156
vt 0.65771484 0.006668091
vt 0.65771484 0.61035156
vt 0.018920898 0.006668091
vt 0.018920898 0.61035156
vt 0.65966797 0.006668091
vt 0.65966797 0.61035156
vt 0.018920898 0.006668091
vt 0.018920898 0.61035156
vt 0.018920898 0.006668091
vt 0.018920898 0.61035156
vt 0.018920898 0.006668091
vt 0.018920898 0.61035156
vt 0.018920898 0.006668091
vt 0.018920898 0.61035156
vt 0.018920898 0.006668091
vt 0.018920898 0.61035156
vt 0.018920898 0.006668091
vt 0.018920898 0.61035156
vt 0.018920898 0.006668091
vt 0.018920898 0.61035156
vt 0.018920898 0.006668091
vt 0.018920898 0.61035156
vt 0.25195312 0.9404297
vt 0.25195312 0.61035156
vt 0.018920898 0.9404297
vt 0.018920898 0.61035156
vt 0.25195312 0.006668091
vt 0.018920898 0.006668091
vt 0.018920898 0.61035156
vt 0.018920898 0.9404297
vt 0.31054688 0.61035156
vt 0.3137207 0.9404297
vt 0.25634766 0.9404297
vt 0.25170898 0.61035156
vt 0.018920898 0.9404297
vt 0.018920898 0.61035156
vt 0.25048828 0.006668091
vt 0.018920898 0.006668091
vt 0.018920898 0.61035156
vt 0.018920898 0.9404297
vt 0.3034668 0.61035156
vt 0.3083496 0.9404297
vt 0.018920898 0.006668091
vt 0.018920898 0.61035156
vt 0.31030273 0.006668091
vt 0.31054688 0.61035156
vt 0.018920898 0.006668091
vt 0.018920898 0.61035156
vt 0.3010254 0.006668091
vt 0.3034668 0.61035156
vt 0.027618408 0.006668091
vt 0.027618408 0.006668091
vt 0.027618408 0.61035156
vt 0.027618408 0.61035156
vt 0.027618408 0.006668091
vt 0.027618408 0.006668091
vt 0.027618408 0.61035156
vt 0.027618408 0.61035156
vt 0.027618408 0.006668091
vt 0.027618408 0.006668091
vt 0.027618408 0.61035156
vt 0.027618408 0.61035156
vt 0.027618408 0.006668091
vt 0.027618408 0.006668091
vt 0.027618408 0.61035156
vt 0.027618408 0.61035156
vt 0.027618408 0.61035156
vt 2.6855469 0.61035156
vt 0.027618408 0.9404297
vt 2.6855469 0.9404297
vt 0.027618408 0.61035156
vt 2.6933594 0.61035156
vt 0.027618408 0.9404297
vt 2.6933594 0.9404297
vt 0.027618408 0.61035156
vt 2.6855469 0.61035156
vt 0.027618408 0.9404297
vt 2.6855469 0.9404297
vt 0.027618408 0.61035156
vt 2.6933594 0.61035156
vt 0.027618408 0.9404297
vt 2.6933594 0.9404297
vt 0.027618408 0.006668091
vt 2.6933594 0.006668091
vt 0.027618408 0.61035156
vt 2.6933594 0.61035156
vt 0.027618408 0.006668091
vt 2.6855469 0.006668091
vt 0.027618408 0.61035156
vt 2.6855469 0.61035156
vt -12.2109375 -5.9609375
vt -12.1875 -5.53125
vt -12.1640625 -5.9921875
vt -12.1328125 -5.5351562
vt -12.1640625 -5.9921875
vt -12.1875 -5.53125
vt -12.1640625 -5.9921875
vt -12.21875 -6.0390625
vt -12.2109375 -5.9609375
vt -14.265625 -5.8359375
vt -14.21875 -5.8359375
vt -14.2421875 -5.9179688
vt -17.953125 -5.9023438
vt -17.96875 -5.9570312
vt -18 -5.9023438
vt -15.890625 -5.859375
vt -15.8359375 -5.8398438
vt -15.875 -5.9179688
vt -17.96875 -5.9570312
vt -19.578125 -5.9609375
vt -18 -5.9023438
vt -19.59375 -5.8945312
vt -18 -5.9023438
vt -19.578125 -5.9609375
vt -15.875 -5.9179688
vt -17.96875 -5.9570312
vt -15.890625 -5.859375
vt -17.953125 -5.9023438
vt -15.890625 -5.859375
vt -17.96875 -5.9570312
vt -36.0625 3.890625
vt -36.15625 5.140625
vt -36 3.9082031
vt -36.09375 5.1484375
vt -36 3.9082031
vt -36.15625 5.140625
vt -36 3.9082031
vt -36 3.8417969
vt -36.0625 3.890625
vt -30.984375 4.0742188
vt -30.9375 4.0703125
vt -30.96875 4.0078125
vt -34.28125 4.0273438
vt -34.3125 3.9589844
vt -34.34375 4.0234375
vt -32.71875 4.0703125
vt -32.65625 4.0742188
vt -32.6875 4.0078125
vt -29.015625 -0.81689453
vt -29.109375 -0.8305664
vt -29.015625 0.48999023
vt -29.109375 0.4868164
vt -29.015625 0.48999023
vt -29.109375 -0.8305664
vt -10.671875 0.46826172
vt -10.59375 0.46484375
vt -10.6875 -0.8442383
vt -10.609375 -0.85302734
vt -10.6875 -0.8442383
vt -10.59375 0.46484375
vt -29.109375 -0.8305664
vt -29.015625 -0.81689453
vt -29.015625 -0.9511719
vt -22.4375 -0.79589844
vt -22.484375 -0.9223633
vt -22.515625 -0.7895508
vt -10.6875 -0.8442383
vt -10.609375 -0.85302734
vt -10.6640625 -0.9785156
vt -17.1875 -0.79296875
vt -17.234375 -0.9238281
vt -17.25 -0.7949219
vt -12.1875 -5.53125
vt -12.2109375 -5.9609375
vt -14.203125 -5.40625
vt -14.21875 -5.8359375
vt -14.2578125 -5.40625
vt -14.265625 -5.8359375
vt -15.859375 -5.40625
vt -15.859375 -5.8359375
vt -15.90625 -5.4023438
vt -15.890625 -5.859375
vt -17.96875 -5.4414062
vt -17.953125 -5.9023438
vt -18.015625 -5.4414062
vt -18 -5.9023438
vt -19.59375 -5.4414062
vt -19.59375 -5.8945312
vt -14.203125 -5.40625
vt -14.21875 -5.8359375
vt -14.2578125 -5.40625
vt -14.265625 -5.8359375
vt -15.859375 -5.40625
vt -15.859375 -5.8359375
vt -15.90625 -5.4023438
vt -15.890625 -5.859375
vt -17.96875 -5.4414062
vt -17.953125 -5.9023438
vt -18.015625 -5.4414062
vt -18 -5.9023438
vt -14.2421875 -5.9179688
vt -15.875 -5.9179688
vt -14.265625 -5.8359375
vt -15.859375 -5.8359375
vt -12.21875 -6.0390625
vt -14.2421875 -5.9179688
vt -12.2109375 -5.9609375
vt -14.21875 -5.8359375
vt -29.265625 5.2773438
vt -29.296875 4.0351562
vt -30.921875 5.3164062
vt -30.9375 4.0703125
vt -30.984375 5.3164062
vt -30.984375 4.0742188
vt -32.65625 5.3164062
vt -32.65625 4.0742188
vt -32.71875 5.3164062
vt -32.71875 4.0703125
vt -34.34375 5.2695312
vt -34.28125 4.0273438
vt -34.40625 5.265625
vt -34.34375 4.0234375
vt -36.09375 5.1484375
vt -36 3.9082031
vt -30.921875 5.3164062
vt -30.9375 4.0703125
vt -30.984375 5.3164062
vt -30.984375 4.0742188
vt -32.65625 5.3164062
vt -32.65625 4.0742188
vt -32.71875 5.3164062
vt -32.71875 4.0703125
vt -34.34375 5.2695312
vt -34.28125 4.0273438
vt -34.40625 5.265625
vt -34.34375 4.0234375
vt -34.3125 3.9589844
vt -36 3.8417969
vt -34.34375 4.0234375
vt -36 3.9082031
vt -32.6875 4.0078125
vt -34.3125 3.9589844
vt -32.71875 4.0703125
vt -34.28125 4.0273438
vt -30.96875 4.0078125
vt -32.6875 4.0078125
vt -30.984375 4.0742188
vt -32.65625 4.0742188
vt -29.296875 3.9648438
vt -30.96875 4.0078125
vt -29.296875 4.0351562
vt -30.9375 4.0703125
vt -29.015625 0.48999023
vt -22.515625 0.5229492
vt -29.015625 -0.81689453
vt -22.515625 -0.7895508
vt -22.421875 0.5209961
vt -17.25 0.51904297
vt -22.4375 -0.79589844
vt -17.25 -0.7949219
vt -17.171875 0.51953125
vt -10.671875 0.46826172
vt -17.1875 -0.79296875
vt -10.6875 -0.8442383
vt -10.59375 0.46484375
vt -5.4179688 0.46240234
vt -10.609375 -0.85302734
vt -5.4179688 -0.85253906
vt -22.515625 0.5229492
vt -22.421875 0.5209961
vt -22.515625 -0.7895508
vt -22.4375 -0.79589844
vt -17.25 0.51904297
vt -17.171875 0.51953125
vt -17.25 -0.7949219
vt -17.1875 -0.79296875
vt -10.6640625 -0.9785156
vt -10.609375 -0.85302734
vt -5.4335938 -0.97998047
vt -5.4179688 -0.85253906
vt -17.234375 -0.9238281
vt -17.1875 -0.79296875
vt -10.6640625 -0.9785156
vt -10.6875 -0.8442383
vt -22.484375 -0.9223633
vt -22.4375 -0.79589844
vt -17.234375 -0.9238281
vt -17.25 -0.7949219
vt -29.015625 -0.9511719
vt -29.015625 -0.81689453
vt -22.484375 -0.9223633
vt -22.515625 -0.7895508
vt 4.7539062 -7.5351562
vt 4.7695312 -9.5546875
vt 3.1484375 -7.5273438
vt 3.1796875 -9.6015625
vt 8.5390625 -7.828125
vt 8.5546875 -9.484375
vt 6.859375 -7.90625
vt 6.8671875 -9.5
vt 3.5253906 -13.140625
vt 3.5332031 -7.9492188
vt 10.0390625 -13.1640625
vt 10.046875 -7.96875
vt 6.1171875 5.6601562
vt 4.6328125 5.7070312
vt 6.1484375 7.625
vt 4.6445312 7.6210938
vt 4.0664062 10.1796875
vt 4.109375 11.859375
vt 5.6601562 10.1484375
vt 5.765625 11.8203125
vt 11.234375 2.2421875
vt 4.921875 2.2207031
vt 11.2265625 7.3320312
vt 4.9140625 7.3085938
vn 0.24865723 0.90527344 0.34399414
vn 0.24865723 0.90527344 0.34399414
vn 0.24865723 0.90527344 0.34399414
vn -0.30859375 0.90185547 0.30273438
vn -0.30859375 0.90185547 0.30273438
vn -0.30859375 0.90185547 0.30273438
vn 0.33007812 0.88671875 -0.3239746
vn 0.33007812 0.88671875 -0.3239746
vn 0.33007812 0.88671875 -0.3239746
vn -0.26489258 0.89208984 -0.36669922
vn -0.26489258 0.89208984 -0.36669922
vn -0.26489258 0.89208984 -0.36669922
vn 0.6665039 0.57421875 0.47583008
vn 0.6665039 0.57421875 0.47583008
vn 0.6665039 0.57421875 0.47583008
vn -0.47924805 0.5649414 0.6713867
vn -0.47924805 0.5649414 0.6713867
vn -0.47924805 0.5649414 0.6713867
vn 0.4794922 0.5649414 -0.6713867
vn 0.4794922 0.5649414 -0.6713867
vn 0.4794922 0.5649414 -0.6713867
vn -0.6665039 0.57421875 -0.47583008
vn -0.6665039 0.57421875 -0.47583008
vn -0.6665039 0.57421875 -0.47583008
vn -0.16870117 0.9765625 0.13452148
vn -0.16870117 0.9765625 0.13452148
vn -0.16870117 0.9765625 0.13452148
vn 0.18286133 0.9765625 0.1116333
vn 0.18286133 0.9765625 0.1116333
vn 0.18286133 0.9765625 0.1116333
vn -0.18286133 0.9765625 -0.1116333
vn -0.18286133 0.9765625 -0.1116333
vn -0.18286133 0.9765625 -0.1116333
vn 0.16882324 0.9765625 -0.13452148
vn 0.16882324 0.9765625 -0.13452148
vn 0.16882324 0.9765625 -0.13452148
vn 0.0030879974 0.43286133 0.9013672
vn 0.0030879974 0.43286133 0.9013672
vn 0.0030879974 0.43286133 0.9013672
vn 0.0030441284 0.43530273 0.9003906
vn 0.0030441284 0.43530273 0.9003906
vn 0.0030441284 0.43530273 0.9003906
vn -0.9477539 0.31958008 0.0013532639
vn -0.9477539 0.31958008 0.0013532639
vn -0.9477539 0.31958008 0.0013532639
vn -0.9482422 0.31762695 0.0013904572
vn -0.9482422 0.31762695 0.0013904572
vn -0.9482422 0.31762695 0.0013904572
vn 0.5722656 0.2121582 0.7919922
vn 0.5722656 0.2121582 0.7919922
vn 0.5722656 0.2121582 0.7919922
vn 0.5722656 0.2121582 0.7919922
vn -0.6977539 0.21057129 0.6845703
vn -0.6977539 0.21057129 0.6845703
vn -0.6977539 0.21057129 0.6845703
vn -0.6977539 0.21057129 0.6845703
vn 0.6977539 0.21057129 -0.6845703
vn 0.6977539 0.21057129 -0.6845703
vn 0.6977539 0.21057129 -0.6845703
vn 0.6977539 0.21057129 -0.6845703
vn -0.5722656 0.2121582 -0.7919922
vn -0.5722656 0.2121582 -0.7919922
vn -0.5722656 0.2121582 -0.7919922
vn -0.5722656 0.2121582 -0.7919922
vn -0.037261963 0.86035156 0.50878906
vn -0.037261963 0.86035156 0.50878906
vn -0.037261963 0.86035156 0.50878906
vn -0.03564453 0.8676758 0.49560547
vn -0.49902344 0.86621094 -0.031234741
vn -0.49902344 0.86621094 -0.031234741
vn -0.49902344 0.86621094 -0.031234741
vn -0.49609375 0.8676758 -0.03086853
vn 0.045532227 0.8286133 -0.55810547
vn 0.045532227 0.8286133 -0.55810547
vn 0.045532227 0.8286133 -0.55810547
vn 0.04425049 0.8354492 -0.54833984
vn 0.4909668 0.8701172 0.04650879
vn 0.4909668 0.8701172 0.04650879
vn 0.4909668 0.8701172 0.04650879
vn 0.5048828 0.8618164 0.048706055
vn -0.070251465 0.27416992 0.9589844
vn -0.070251465 0.27416992 0.9589844
vn -0.070251465 0.27416992 0.9589844
vn -0.070251465 0.27416992 0.9589844
vn -0.9472656 0.31469727 -0.059295654
vn -0.9472656 0.31469727 -0.059295654
vn -0.9472656 0.31469727 -0.059295654
vn -0.9472656 0.31469727 -0.059295654
vn 0.078186035 0.27416992 -0.9584961
vn 0.078186035 0.27416992 -0.9584961
vn 0.078186035 0.27416992 -0.9584961
vn 0.078186035 0.27416992 -0.9584961
vn 0.9448242 0.31469727 0.08947754
vn 0.9448242 0.31469727 0.08947754
vn 0.9448242 0.31469727 0.08947754
vn 0.9448242 0.31469727 0.08947754
vn 0.61035156 0.6616211 0.43579102
vn 0.61035156 0.6616211 0.43579102
vn 0.61035156 0.6616211 0.43579102
vn 0.61035156 0.6616211 0.43579102
vn -0.4338379 0.66503906 0.6074219
vn -0.4338379 0.66503906 0.6074219
vn -0.4338379 0.66503906 0.6074219
vn -0.43359375 0.66552734 0.6074219
vn 0.4338379 0.66552734 -0.6074219
vn 0.4338379 0.66552734 -0.6074219
vn 0.4338379 0.66552734 -0.6074219
vn 0.4338379 0.66552734 -0.6074219
vn -0.61035156 0.6611328 -0.43579102
vn -0.61035156 0.6611328 -0.43579102
vn -0.61035156 0.6611328 -0.43579102
vn -0.61035156 0.6611328 -0.43579102
vn 0.0927124 0.7631836 0.63964844
vn 0.09301758 0.7607422 0.64208984
vn 0.09301758 0.7607422 0.64208984
vn 0.09301758 0.7607422 0.64208984
vn 0.09429932 0.75341797 0.6508789
vn 0.09429932 0.75341797 0.6508789
vn -0.5830078 0.8100586 0.06274414
vn -0.5830078 0.8100586 0.06274414
vn -0.5830078 0.8100586 0.06274414
vn -0.5761719 0.8149414 0.06213379
vn -0.09631348 0.7626953 -0.63916016
vn -0.09655762 0.76123047 -0.6411133
vn -0.09655762 0.76123047 -0.6411133
vn -0.09655762 0.76123047 -0.6411133
vn -0.097961426 0.7529297 -0.6503906
vn -0.097961426 0.7529297 -0.6503906
vn 0.5756836 0.81347656 -0.08355713
vn 0.5756836 0.81347656 -0.08355713
vn 0.5756836 0.81347656 -0.08355713
vn 0.57714844 0.8125 -0.083740234
vn -0.69384766 0.7158203 0.0748291
vn -0.69384766 0.7158203 0.0748291
vn -0.69384766 0.7158203 0.0748291
vn -0.69921875 0.7109375 0.07519531
vn 0.6933594 0.7138672 -0.10058594
vn 0.6933594 0.7138672 -0.10058594
vn 0.6933594 0.7138672 -0.10058594
vn 0.6923828 0.71484375 -0.10046387
vn -0.7524414 0.27294922 0.5996094
vn -0.7524414 0.27294922 0.5996094
vn -0.7524414 0.27294922 0.5996094
vn -0.7524414 0.27294922 0.5996094
vn 0.82421875 0.25976562 0.5029297
vn 0.82421875 0.25976562 0.5029297
vn 0.82421875 0.25976562 0.5029297
vn 0.82421875 0.26000977 0.5029297
vn -0.82421875 0.25976562 -0.5029297
vn -0.82421875 0.25976562 -0.5029297
vn -0.82421875 0.25976562 -0.5029297
vn -0.82421875 0.25976562 -0.5029297
vn 0.7529297 0.27124023 -0.5996094
vn 0.7529297 0.27124023 -0.5996094
vn 0.7529297 0.27124023 -0.5996094
vn 0.7529297 0.27124023 -0.5996094
vn 0.0010538101 0.9501953 0.31152344
vn 0.0010538101 0.9501953 0.31152344
vn 0.0010538101 0.9501953 0.31152344
vn 0.0010690689 0.9501953 0.31225586
vn 0.22277832 0.97509766 -0.0003259182
vn 0.22277832 0.97509766 -0.0003259182
vn 0.22277832 0.97509766 -0.0003259182
vn 0.22277832 0.97509766 -0.00032567978
vn -0.0010538101 0.9501953 -0.31152344
vn -0.0010538101 0.9501953 -0.31152344
vn -0.0010538101 0.9501953 -0.31152344
vn -0.0010690689 0.9501953 -0.31225586
vn -0.22277832 0.97509766 0.0003273487
vn -0.22277832 0.97509766 0.0003273487
vn -0.22277832 0.97509766 0.0003273487
vn -0.22277832 0.97509766 0.00032782555
vn 0.9482422 0.3173828 -0.0013904572
vn 0.9482422 0.3173828 -0.0013904572
vn 0.9482422 0.3173828 -0.0013904572
vn 0.9482422 0.31762695 -0.0013904572
vn -0.0030498505 0.43286133 -0.9013672
vn -0.0030498505 0.43286133 -0.9013672
vn -0.0030498505 0.43286133 -0.9013672
vn -0.0030498505 0.43286133 -0.9013672
vn 0.58740234 0.005317688 0.80908203
vn 0.58740234 0.005317688 0.80908203
vn 0.58740234 0.005317688 0.80908203
vn 0.5854492 0.005039215 0.8105469
vn 0.5854492 0.005039215 0.8105469
vn 0.5854492 0.005039215 0.8105469
vn 0.38500977 -0.39892578 0.83203125
vn 0.38500977 -0.39892578 0.83203125
vn 0.38500977 -0.39892578 0.83203125
vn -0.66796875 -0.35302734 0.65527344
vn -0.66796875 -0.35302734 0.65527344
vn -0.66796875 -0.35302734 0.65527344
vn 0.58984375 -0.5629883 -0.5786133
vn 0.58984375 -0.5629883 -0.5786133
vn 0.58984375 -0.5629883 -0.5786133
vn -0.6699219 -0.4189453 -0.61279297
vn -0.6699219 -0.4189453 -0.61279297
vn -0.6699219 -0.4189453 -0.61279297
vn 0.6870117 -0.7236328 0.06500244
vn 0.6870117 -0.7236328 0.06500244
vn 0.6870117 -0.7236328 0.06500244
vn 0.74902344 -0.6582031 0.074279785
vn 0.74902344 -0.6582031 0.074279785
vn 0.74902344 -0.6582031 0.074279785
vn 0.06500244 -0.6010742 -0.796875
vn 0.06500244 -0.6010742 -0.796875
vn 0.06500244 -0.6010742 -0.796875
vn 0.057769775 -0.6699219 -0.7402344
vn 0.057769775 -0.6699219 -0.7402344
vn 0.057769775 -0.6699219 -0.7402344
vn 0.81396484 0.0025234222 0.5810547
vn 0.81396484 0.0025234222 0.5810547
vn 0.81396484 0.0025234222 0.5810547
vn 0.81396484 0.0025234222 0.5810547
vn 0.81396484 0.0025234222 0.5810547
vn 0.81396484 0.0025234222 0.5810547
vn 0.6303711 -0.6328125 0.44995117
vn 0.6303711 -0.6328125 0.44995117
vn 0.6303711 -0.6328125 0.44995117
vn -0.44995117 -0.6328125 0.6303711
vn -0.44995117 -0.6328125 0.6303711
vn -0.44995117 -0.6328125 0.6303711
vn 0.44995117 -0.6328125 -0.6303711
vn 0.44995117 -0.6328125 -0.6303711
vn 0.44995117 -0.6328125 -0.6303711
vn -0.6303711 -0.6328125 -0.44995117
vn -0.6303711 -0.6328125 -0.44995117
vn -0.6303711 -0.6328125 -0.44995117
vn -0.78222656 0.0029792786 0.6230469
vn -0.78222656 0.0029792786 0.6230469
vn -0.78222656 0.0029792786 0.6230469
vn -0.78222656 0.0029792786 0.6230469
vn -0.78222656 0.0029792786 0.6230469
vn -0.78222656 0.0029792786 0.6230469
vn -0.8535156 1.66893E-06 -0.5209961
vn -0.8535156 1.66893E-06 -0.5209961
vn -0.8535156 1.66893E-06 -0.5209961
vn -0.8535156 1.1324883E-06 -0.5209961
vn -0.8535156 1.1324883E-06 -0.5209961
vn -0.8535156 1.1324883E-06 -0.5209961
vn -0.72314453 -0.38061523 0.5761719
vn -0.72314453 -0.38061523 0.5761719
vn -0.72314453 -0.38061523 0.5761719
vn 0.7944336 -0.3659668 0.48486328
vn 0.7944336 -0.3659668 0.48486328
vn 0.7944336 -0.3659668 0.48486328
vn -0.7944336 -0.3659668 -0.48486328
vn -0.7944336 -0.3659668 -0.48486328
vn -0.7944336 -0.3659668 -0.48486328
vn 0.72314453 -0.38061523 -0.5761719
vn 0.72314453 -0.38061523 -0.5761719
vn 0.72314453 -0.38061523 -0.5761719
vn -0.07305908 0.007007599 0.9970703
vn -0.07305908 0.007007599 0.9970703
vn -0.07305908 0.007007599 0.9970703
vn -0.07305908 0.007003784 0.9970703
vn -0.9980469 0.00012362003 -0.062469482
vn -0.9980469 0.00012362003 -0.062469482
vn -0.9980469 0.00012362003 -0.062469482
vn -0.9980469 -7.1525574E-07 -0.0625
vn 0.08129883 3.6358833E-06 -0.99658203
vn 0.08129883 3.6358833E-06 -0.99658203
vn 0.08129883 3.6358833E-06 -0.99658203
vn 0.08129883 4.4703484E-06 -0.99658203
vn 0.99560547 1.5497208E-06 0.09429932
vn 0.99560547 1.5497208E-06 0.09429932
vn 0.99560547 1.5497208E-06 0.09429932
vn 0.99560547 8.85725E-05 0.09423828
vn -0.7138672 0.0052871704 0.7001953
vn -0.7138672 0.0052871704 0.7001953
vn -0.7138672 0.0052871704 0.7001953
vn -0.7138672 0.005290985 0.7001953
vn -0.5854492 3.1590462E-06 -0.8105469
vn -0.5854492 3.1590462E-06 -0.8105469
vn -0.5854492 3.1590462E-06 -0.8105469
vn -0.5854492 4.887581E-06 -0.8105469
vn 0.7138672 4.4107437E-06 -0.7001953
vn 0.7138672 4.4107437E-06 -0.7001953
vn 0.7138672 4.4107437E-06 -0.7001953
vn 0.7138672 4.053116E-06 -0.7001953
vn -0.86328125 -0.5019531 -0.05404663
vn -0.86328125 -0.5019531 -0.05404663
vn -0.86328125 -0.5019531 -0.05404663
vn -0.86328125 -0.5019531 -0.05404663
vn -0.06536865 -0.44677734 0.89208984
vn -0.06536865 -0.44677734 0.89208984
vn -0.06536865 -0.44677734 0.89208984
vn -0.06536865 -0.44677734 0.89208984
vn 0.14343262 0.0035705566 0.9897461
vn 0.14343262 0.0035705566 0.9897461
vn 0.14343262 0.0035705566 0.9897461
vn 0.14343262 0.0035743713 0.9897461
vn -0.9941406 -0.00020635128 0.10723877
vn -0.9941406 -0.00020635128 0.10723877
vn -0.9941406 -0.00020635128 0.10723877
vn -0.9941406 1.3709068E-06 0.10736084
vn -0.14892578 -8.940697E-07 -0.98876953
vn -0.14892578 -8.940697E-07 -0.98876953
vn -0.14892578 -8.940697E-07 -0.98876953
vn -0.14892578 -1.4901161E-06 -0.98876953
vn 0.9897461 -2.4437904E-06 -0.14355469
vn 0.9897461 -2.4437904E-06 -0.14355469
vn 0.9897461 -2.4437904E-06 -0.14355469
vn 0.9897461 7.2062016E-05 -0.14367676
vn -0.5810547 0.0025291443 0.81396484
vn -0.5810547 0.0025291443 0.81396484
vn -0.5810547 0.0025291443 0.81396484
vn -0.5810547 0.002527237 0.81396484
vn -0.81396484 1.4901161E-06 -0.5810547
vn -0.81396484 1.4901161E-06 -0.5810547
vn -0.81396484 1.4901161E-06 -0.5810547
vn -0.81396484 -5.364418E-07 -0.5810547
vn 0.5810547 -4.23193E-06 -0.81396484
vn 0.5810547 -4.23193E-06 -0.81396484
vn 0.5810547 -4.23193E-06 -0.81396484
vn 0.5810547 -2.9802322E-06 -0.81396484
vn 0.6479492 -0.7558594 -0.09399414
vn 0.6479492 -0.7558594 -0.09399414
vn 0.6479492 -0.7558594 -0.09399414
vn 0.6479492 -0.7558594 -0.09399414
vn -0.097473145 -0.7558594 -0.64697266
vn -0.097473145 -0.7558594 -0.64697266
vn -0.097473145 -0.7558594 -0.64697266
vn -0.097473145 -0.7558594 -0.64746094
vn -0.6513672 -0.7553711 0.0703125
vn -0.6513672 -0.7553711 0.0703125
vn -0.6513672 -0.7553711 0.0703125
vn -0.6513672 -0.7553711 0.0703125
vn 0.09387207 -0.7558594 0.6479492
vn 0.09387207 -0.7558594 0.6479492
vn 0.09387207 -0.7558594 0.6479492
vn 0.09387207 -0.7558594 0.6479492
vn 0.0033836365 0.0050811768 1
vn 0.0033836365 0.0050811768 1
vn 0.0033836365 0.0050811768 1
vn 0.0033817291 0.0050849915 1
vn 1 0.00022745132 -0.0014667511
vn 1 0.00022745132 -0.0014667511
vn 1 0.00022745132 -0.0014667511
vn 1 1.3709068E-06 -0.0015239716
vn -0.0033817291 2.682209E-06 -1
vn -0.0033817291 2.682209E-06 -1
vn -0.0033817291 2.682209E-06 -1
vn -0.0033817291 2.682209E-06 -1
vn -1 -3.5762787E-07 0.0014657974
vn -1 -3.5762787E-07 0.0014657974
vn -1 -3.5762787E-07 0.0014657974
vn -1 -0.00023007393 0.0015239716
vn 0.8535156 0.0028495789 0.5209961
vn 0.8535156 0.0028495789 0.5209961
vn 0.8535156 0.0028495789 0.5209961
vn 0.8535156 0.0028495789 0.5209961
vn 0.78222656 3.3974648E-06 -0.6230469
vn 0.78222656 3.3974648E-06 -0.6230469
vn 0.78222656 3.3974648E-06 -0.6230469
vn 0.78222656 2.7418137E-06 -0.6230469
vn -0.8984375 -0.43945312 0.0013685226
vn -0.8984375 -0.43945312 0.0013685226
vn -0.8984375 -0.43945312 0.0013685226
vn -0.8984375 -0.43945312 0.0013685226
vn -0.0027694702 -0.57421875 -0.81884766
vn -0.0027694702 -0.57421875 -0.81884766
vn -0.0027694702 -0.57421875 -0.81884766
vn -0.0027694702 -0.57421875 -0.81884766
vn 0.8984375 -0.43945312 -0.0013694763
vn 0.8984375 -0.43945312 -0.0013694763
vn 0.8984375 -0.43945312 -0.0013694763
vn 0.8984375 -0.43945312 -0.0013694763
vn 0.0027675629 -0.57421875 0.81884766
vn 0.0027675629 -0.57421875 0.81884766
vn 0.0027675629 -0.57421875 0.81884766
vn 0.0027694702 -0.57421875 0.81884766
vn 1.7881393E-07 -1 -3.695488E-06
vn 1.7881393E-07 -1 -3.695488E-06
vn 1.7881393E-07 -1 -3.695488E-06
vn 3.5762787E-07 -1 -3.874302E-06
vn -4.172325E-07 -1 -2.026558E-06
vn -4.172325E-07 -1 -2.026558E-06
vn -4.172325E-07 -1 -2.026558E-06
vn -2.3841858E-07 -1 -2.2053719E-06
vn -0 -1 -1.1324883E-06
vn -0 -1 -1.1324883E-06
vn -0 -1 -1.1324883E-06
vn -0 -1 -1.1920929E-06
vn -4.7683716E-07 1 3.9339066E-06
vn -4.7683716E-07 1 3.9339066E-06
vn -4.7683716E-07 1 3.9339066E-06
vn -2.3841858E-07 1 3.695488E-06
vn -0 1 1.2516975E-06
vn -0 1 1.2516975E-06
vn -0 1 1.2516975E-06
vn -0 1 1.3709068E-06
vn -0 1 1.013279E-06
vn -0 1 1.013279E-06
vn -0 1 1.013279E-06
vn -0 1 9.536743E-07
g A001_BB01_0
f 3/3/3 2/2/2 1/1/1
f 6/6/6 5/5/5 4/4/4
f 9/9/9 8/8/8 7/7/7
f 12/12/12 11/11/11 10/10/10
f 15/15/15 14/14/14 13/13/13
f 18/18/18 17/17/17 16/16/16
f 21/21/21 20/20/20 19/19/19
f 24/24/24 23/23/23 22/22/22
f 27/27/27 26/26/26 25/25/25
f 30/30/30 29/29/29 28/28/28
f 33/33/33 32/32/32 31/31/31
f 36/36/36 35/35/35 34/34/34
f 39/39/39 38/38/38 37/37/37
f 42/42/42 41/41/41 40/40/40
f 45/45/45 44/44/44 43/43/43
f 48/48/48 47/47/47 46/46/46
f 51/51/51 50/50/50 49/49/49
f 50/50/50 51/51/51 52/52/52
f 55/55/55 54/54/54 53/53/53
f 54/54/54 55/55/55 56/56/56
f 59/59/59 58/58/58 57/57/57
f 58/58/58 59/59/59 60/60/60
f 63/63/63 62/62/62 61/61/61
f 62/62/62 63/63/63 64/64/64
f 67/67/67 66/66/66 65/65/65
f 66/66/66 67/67/67 68/68/68
f 71/71/71 70/70/70 69/69/69
f 70/70/70 71/71/71 72/72/72
f 75/75/75 74/74/74 73/73/73
f 74/74/74 75/75/75 76/76/76
f 79/79/79 78/78/78 77/77/77
f 78/78/78 79/79/79 80/80/80
f 83/83/83 82/82/82 81/81/81
f 82/82/82 83/83/83 84/84/84
f 87/87/87 86/86/86 85/85/85
f 86/86/86 87/87/87 88/88/88
f 91/91/91 90/90/90 89/89/89
f 90/90/90 91/91/91 92/92/92
f 95/95/95 94/94/94 93/93/93
f 94/94/94 95/95/95 96/96/96
f 99/99/99 98/98/98 97/97/97
f 98/98/98 99/99/99 100/100/100
f 103/103/103 102/102/102 101/101/101
f 102/102/102 103/103/103 104/104/104
f 107/107/107 106/106/106 105/105/105
f 106/106/106 107/107/107 108/108/108
f 111/111/111 110/110/110 109/109/109
f 110/110/110 111/111/111 112/112/112
f 115/115/115 114/114/114 113/113/113
f 114/114/114 115/115/115 116/116/116
f 116/116/116 117/117/117 114/114/114
f 117/117/117 116/116/116 118/118/118
f 121/121/121 120/120/120 119/119/119
f 120/120/120 121/121/121 122/122/122
f 125/125/125 124/124/124 123/123/123
f 124/124/124 125/125/125 126/126/126
f 126/126/126 127/127/127 124/124/124
f 127/127/127 126/126/126 128/128/128
f 131/131/131 130/130/130 129/129/129
f 130/130/130 131/131/131 132/132/132
f 135/135/135 134/134/134 133/133/133
f 134/134/134 135/135/135 136/136/136
f 139/139/139 138/138/138 137/137/137
f 138/138/138 139/139/139 140/140/140
f 143/143/143 142/142/142 141/141/141
f 142/142/142 143/143/143 144/144/144
f 147/147/147 146/146/146 145/145/145
f 146/146/146 147/147/147 148/148/148
f 151/151/151 150/150/150 149/149/149
f 150/150/150 151/151/151 152/152/152
f 155/155/155 154/154/154 153/153/153
f 154/154/154 155/155/155 156/156/156
f 159/159/159 158/158/158 157/157/157
f 158/158/158 159/159/159 160/160/160
f 163/163/163 162/162/162 161/161/161
f 162/162/162 163/163/163 164/164/164
f 167/167/167 166/166/166 165/165/165
f 166/166/166 167/167/167 168/168/168
f 171/171/171 170/170/170 169/169/169
f 170/170/170 171/171/171 172/172/172
f 175/175/175 174/174/174 173/173/173
f 174/174/174 175/175/175 176/176/176
f 179/179/179 178/178/178 177/177/177
f 178/178/178 179/179/179 180/180/180
g A001_BB01_1
f 183/183/183 182/182/182 181/181/181
f 186/186/186 185/185/185 184/184/184
f 189/189/189 188/188/188 187/187/187
f 192/192/192 191/191/191 190/190/190
f 195/195/195 194/194/194 193/193/193
f 198/198/198 197/197/197 196/196/196
f 201/201/201 200/200/200 199/199/199
f 204/204/204 203/203/203 202/202/202
f 207/207/207 206/206/206 205/205/205
f 210/210/210 209/209/209 208/208/208
f 213/213/213 212/212/212 211/211/211
f 216/216/216 215/215/215 214/214/214
f 219/219/219 218/218/218 217/217/217
f 222/222/222 221/221/221 220/220/220
f 225/225/225 224/224/224 223/223/223
f 228/228/228 227/227/227 226/226/226
f 231/231/231 230/230/230 229/229/229
f 234/234/234 233/233/233 232/232/232
f 237/237/237 236/236/236 235/235/235
f 240/240/240 239/239/239 238/238/238
f 243/243/243 242/242/242 241/241/241
f 246/246/246 245/245/245 244/244/244
f 249/249/249 248/248/248 247/247/247
f 252/252/252 251/251/251 250/250/250
f 255/255/255 254/254/254 253/253/253
f 254/254/254 255/255/255 256/256/256
f 259/259/259 258/258/258 257/257/257
f 258/258/258 259/259/259 260/260/260
f 263/263/263 262/262/262 261/261/261
f 262/262/262 263/263/263 264/264/264
f 267/267/267 266/266/266 265/265/265
f 266/266/266 267/267/267 268/268/268
f 271/271/271 270/270/270 269/269/269
f 270/270/270 271/271/271 272/272/272
f 275/275/275 274/274/274 273/273/273
f 274/274/274 275/275/275 276/276/276
f 279/279/279 278/278/278 277/277/277
f 278/278/278 279/279/279 280/280/280
f 283/283/283 282/282/282 281/281/281
f 282/282/282 283/283/283 284/284/284
f 287/287/287 286/286/286 285/285/285
f 286/286/286 287/287/287 288/288/288
f 291/291/291 290/290/290 289/289/289
f 290/290/290 291/291/291 292/292/292
f 295/295/295 294/294/294 293/293/293
f 294/294/294 295/295/295 296/296/296
f 299/299/299 298/298/298 297/297/297
f 298/298/298 299/299/299 300/300/300
f 303/303/303 302/302/302 301/301/301
f 302/302/302 303/303/303 304/304/304
f 307/307/307 306/306/306 305/305/305
f 306/306/306 307/307/307 308/308/308
f 311/311/311 310/310/310 309/309/309
f 310/310/310 311/311/311 312/312/312
f 315/315/315 314/314/314 313/313/313
f 314/314/314 315/315/315 316/316/316
f 319/319/319 318/318/318 317/317/317
f 318/318/318 319/319/319 320/320/320
f 323/323/323 322/322/322 321/321/321
f 322/322/322 323/323/323 324/324/324
f 327/327/327 326/326/326 325/325/325
f 326/326/326 327/327/327 328/328/328
f 331/331/331 330/330/330 329/329/329
f 330/330/330 331/331/331 332/332/332
f 335/335/335 334/334/334 333/333/333
f 334/334/334 335/335/335 336/336/336
f 339/339/339 338/338/338 337/337/337
f 338/338/338 339/339/339 340/340/340
f 343/343/343 342/342/342 341/341/341
f 342/342/342 343/343/343 344/344/344
f 347/347/347 346/346/346 345/345/345
f 346/346/346 347/347/347 348/348/348
f 351/351/351 350/350/350 349/349/349
f 350/350/350 351/351/351 352/352/352
f 355/355/355 354/354/354 353/353/353
f 354/354/354 355/355/355 356/356/356
f 359/359/359 358/358/358 357/357/357
f 358/358/358 359/359/359 360/360/360
f 363/363/363 362/362/362 361/361/361
f 362/362/362 363/363/363 364/364/364
f 367/367/367 366/366/366 365/365/365
f 366/366/366 367/367/367 368/368/368
f 371/371/371 370/370/370 369/369/369
f 370/370/370 371/371/371 372/372/372
g A001_BB01_2
f 375/375/375 374/374/374 373/373/373
f 374/374/374 375/375/375 376/376/376
f 379/379/379 378/378/378 377/377/377
f 378/378/378 379/379/379 380/380/380
f 383/383/383 382/382/382 381/381/381
f 382/382/382 383/383/383 384/384/384
g A001_BB01_3
f 387/387/387 386/386/386 385/385/385
f 386/386/386 387/387/387 388/388/388
f 391/391/391 390/390/390 389/389/389
f 390/390/390 391/391/391 392/392/392
f 395/395/395 394/394/394 393/393/393
f 394/394/394 395/395/395 396/396/396
