g C001_BB01
v 12.501743 -7.868849 10.762407
v 12.41726 1.2040287 10.787764
v 12.977485 -7.8520007 10.291221
v 12.893032 1.2178853 10.316577
v 12.977485 -7.8520007 10.291221
v 12.41726 1.2040287 10.787764
v -6.9406786 1.4164709 -3.4913573
v -6.85603 -7.609735 -3.5560493
v -6.464966 1.4302919 -3.9625523
v -6.380327 -7.592909 -4.027248
v -6.464966 1.4302919 -3.9625523
v -6.85603 -7.609735 -3.5560493
v 12.977485 -7.8520007 10.291221
v 12.082612 -8.445938 9.906674
v 12.501743 -7.868849 10.762407
v -6.21979 -7.908158 10.722988
v -5.748511 -7.905897 11.198809
v -5.5295362 -8.47 10.343091
v 11.171401 -7.555874 -4.5883784
v 11.177055 -8.177614 -4.1326785
v 11.64268 -7.5535545 -4.112556
v -6.380327 -7.592909 -4.027248
v -6.85603 -7.609735 -3.5560493
v -6.1250634 -8.17603 -3.5910823
v 11.177055 -8.177614 -4.1326785
v 12.082612 -8.445938 9.906674
v 11.64268 -7.5535545 -4.112556
v 12.977485 -7.8520007 10.291221
v 11.64268 -7.5535545 -4.112556
v 12.082612 -8.445938 9.906674
v 18.407661 -9.439985 11.259977
v 18.361021 2.3281705 11.272373
v 18.676138 -9.430784 11.010695
v 18.629507 2.335732 11.023086
v 18.676138 -9.430784 11.010695
v 18.361021 2.3281705 11.272373
v 8.249546 2.4442437 -1.749514
v 8.2969675 -9.29837 -1.7833915
v 8.518032 2.4518065 -1.9987925
v 8.565444 -9.289168 -2.0326614
v 8.518032 2.4518065 -1.9987925
v 8.2969675 -9.29837 -1.7833915
v 18.676138 -9.430784 11.010695
v 18.19357 -9.755756 10.784612
v 18.407661 -9.439985 11.259977
v 8.210669 -9.461498 10.907058
v 8.459985 -9.460247 11.175603
v 8.594858 -9.768923 10.711521
v 18.51312 -9.268908 -1.9482816
v 18.508148 -9.609093 -1.6989799
v 18.762426 -9.267638 -1.679749
v 8.565444 -9.289168 -2.0326614
v 8.2969675 -9.29837 -1.7833915
v 8.697349 -9.608219 -1.7896317
v 18.508148 -9.609093 -1.6989799
v 18.19357 -9.755756 10.784612
v 18.762426 -9.267638 -1.679749
v 18.676138 -9.430784 11.010695
v 18.762426 -9.267638 -1.679749
v 18.19357 -9.755756 10.784612
v -4.0901856 -9.568056 10.4525585
v -4.1511426 0.8527098 10.4701605
v -3.7444043 -9.55594 10.117349
v -3.8053417 0.862675 10.13494
v -3.7444043 -9.55594 10.117349
v -4.1511426 0.8527098 10.4701605
v -4.211748 1.0372925 1.4428662
v -4.1504 -9.34297 1.396999
v -3.8764942 1.0386692 1.7887061
v -3.8151367 -9.341304 1.7428547
v -3.8764942 1.0386692 1.7887061
v -4.1504 -9.34297 1.396999
v -3.7444043 -9.55594 10.117349
v -4.3850193 -9.983125 9.833886
v -4.0901856 -9.568056 10.4525585
v -19.428942 -9.596334 10.193472
v -19.09368 -9.594708 10.539326
v -18.929592 -10.000432 9.9256
v -4.1504 -9.34297 1.396999
v -4.4315233 -9.7901535 1.9761946
v -3.8151367 -9.341304 1.7428547
v -19.15388 -9.369614 1.4837788
v -19.499655 -9.381709 1.8189863
v -18.97367 -9.789014 2.0508492
v 19.24061 -3.5642889 14.647781
v 19.183012 4.175384 14.666219
v 19.56103 -3.5527434 14.318997
v 19.503462 4.1848917 14.337425
v 19.56103 -3.5527434 14.318997
v 19.183012 4.175384 14.666219
v -18.146904 4.321015 -8.719654
v -18.089643 -3.3866558 -8.765014
v -17.826475 4.3304935 -9.04844
v -17.769224 -3.3751237 -9.0938
v -17.826475 4.3304935 -9.04844
v -18.089643 -3.3866558 -8.765014
v 19.56103 -3.5527434 14.318997
v 18.942905 -3.9599853 14.066218
v 19.24061 -3.5642889 14.647781
v -18.055756 -3.5912519 14.317772
v -17.726938 -3.5897088 14.63827
v -17.587158 -3.9764843 14.048991
v 19.198286 -3.3496728 -9.084283
v 19.20767 -3.7760386 -8.771951
v 19.527143 -3.348145 -8.763793
v -17.769224 -3.3751237 -9.0938
v -18.089643 -3.3866558 -8.765014
v -17.588959 -3.774945 -8.797881
v 19.20767 -3.7760386 -8.771951
v 18.942905 -3.9599853 14.066218
v 19.527143 -3.348145 -8.763793
v 19.56103 -3.5527434 14.318997
v 19.527143 -3.348145 -8.763793
v 18.942905 -3.9599853 14.066218
v 12.41726 1.2040287 10.787764
v 12.501743 -7.868849 10.762407
v -5.832993 1.1736003 11.22417
v -5.748511 -7.905897 11.198809
v -6.3042626 1.1717368 10.748344
v -6.21979 -7.908158 10.722988
v -6.9406786 1.4164709 -3.4913573
v -6.85603 -7.609735 -3.5560493
v -6.464966 1.4302919 -3.9625523
v -6.380327 -7.592909 -4.027248
v 11.086792 1.4606906 -4.5236607
v 11.171401 -7.555874 -4.5883784
v 11.558042 1.4626048 -4.04785
v 11.64268 -7.5535545 -4.112556
v 12.893032 1.2178853 10.316577
v 12.977485 -7.8520007 10.291221
v -5.832993 1.1736003 11.22417
v -5.748511 -7.905897 11.198809
v -6.3042626 1.1717368 10.748344
v -6.21979 -7.908158 10.722988
v 11.086792 1.4606906 -4.5236607
v 11.171401 -7.555874 -4.5883784
v 11.558042 1.4626048 -4.04785
v 11.64268 -7.5535545 -4.112556
v -6.1250634 -8.17603 -3.5910823
v 11.177055 -8.177614 -4.1326785
v -6.380327 -7.592909 -4.027248
v 11.171401 -7.555874 -4.5883784
v -5.5295362 -8.47 10.343091
v -6.1250634 -8.17603 -3.5910823
v -6.21979 -7.908158 10.722988
v -6.85603 -7.609735 -3.5560493
v 12.082612 -8.445938 9.906674
v -5.5295362 -8.47 10.343091
v 12.501743 -7.868849 10.762407
v -5.748511 -7.905897 11.198809
v 18.361021 2.3281705 11.272373
v 18.407661 -9.439985 11.259977
v 8.413354 2.3115306 11.18799
v 8.459985 -9.460247 11.175603
v 8.164038 2.3104951 10.919446
v 8.210669 -9.461498 10.907058
v 8.249546 2.4442437 -1.749514
v 8.2969675 -9.29837 -1.7833915
v 8.518032 2.4518065 -1.9987925
v 8.565444 -9.289168 -2.0326614
v 18.465708 2.468433 -1.914409
v 18.51312 -9.268908 -1.9482816
v 18.715004 2.4694803 -1.6458738
v 18.762426 -9.267638 -1.679749
v 18.629507 2.335732 11.023086
v 18.676138 -9.430784 11.010695
v 8.413354 2.3115306 11.18799
v 8.459985 -9.460247 11.175603
v 8.164038 2.3104951 10.919446
v 8.210669 -9.461498 10.907058
v 18.465708 2.468433 -1.914409
v 18.51312 -9.268908 -1.9482816
v 18.715004 2.4694803 -1.6458738
v 18.762426 -9.267638 -1.679749
v 8.697349 -9.608219 -1.7896317
v 18.508148 -9.609093 -1.6989799
v 8.565444 -9.289168 -2.0326614
v 18.51312 -9.268908 -1.9482816
v 8.594858 -9.768923 10.711521
v 8.697349 -9.608219 -1.7896317
v 8.210669 -9.461498 10.907058
v 8.2969675 -9.29837 -1.7833915
v 18.19357 -9.755756 10.784612
v 8.594858 -9.768923 10.711521
v 18.407661 -9.439985 11.259977
v 8.459985 -9.460247 11.175603
v -4.1511426 0.8527098 10.4701605
v -4.0901856 -9.568056 10.4525585
v -19.15463 0.83082074 10.556919
v -19.09368 -9.594708 10.539326
v -19.489885 0.8294853 10.211063
v -19.428942 -9.596334 10.193472
v -19.561031 1.0054951 1.8648388
v -19.499655 -9.381709 1.8189863
v -19.215265 1.015436 1.5296313
v -19.15388 -9.369614 1.4837788
v -4.211748 1.0372925 1.4428662
v -4.1504 -9.34297 1.396999
v -3.8764942 1.0386692 1.7887061
v -3.8151367 -9.341304 1.7428547
v -3.8053417 0.862675 10.13494
v -3.7444043 -9.55594 10.117349
v -19.15463 0.83082074 10.556919
v -19.09368 -9.594708 10.539326
v -19.489885 0.8294853 10.211063
v -19.428942 -9.596334 10.193472
v -19.561031 1.0054951 1.8648388
v -19.499655 -9.381709 1.8189863
v -19.215265 1.015436 1.5296313
v -19.15388 -9.369614 1.4837788
v -4.4315233 -9.7901535 1.9761946
v -4.3850193 -9.983125 9.833886
v -3.8151367 -9.341304 1.7428547
v -3.7444043 -9.55594 10.117349
v -18.97367 -9.789014 2.0508492
v -4.4315233 -9.7901535 1.9761946
v -19.15388 -9.369614 1.4837788
v -4.1504 -9.34297 1.396999
v -18.929592 -10.000432 9.9256
v -18.97367 -9.789014 2.0508492
v -19.428942 -9.596334 10.193472
v -19.499655 -9.381709 1.8189863
v -4.3850193 -9.983125 9.833886
v -18.929592 -10.000432 9.9256
v -4.0901856 -9.568056 10.4525585
v -19.09368 -9.594708 10.539326
v 19.183012 4.175384 14.666219
v 19.24061 -3.5642889 14.647781
v -17.784521 4.154507 14.656688
v -17.726938 -3.5897088 14.63827
v -18.113369 4.1532426 14.33619
v -18.055756 -3.5912519 14.317772
v -18.146904 4.321015 -8.719654
v -18.089643 -3.3866558 -8.765014
v -17.826475 4.3304935 -9.04844
v -17.769224 -3.3751237 -9.0938
v 19.14106 4.3514 -9.038918
v 19.198286 -3.3496728 -9.084283
v 19.469877 4.3526397 -8.718426
v 19.527143 -3.348145 -8.763793
v 19.503462 4.1848917 14.337425
v 19.56103 -3.5527434 14.318997
v -17.784521 4.154507 14.656688
v -17.726938 -3.5897088 14.63827
v -18.113369 4.1532426 14.33619
v -18.055756 -3.5912519 14.317772
v 19.14106 4.3514 -9.038918
v 19.198286 -3.3496728 -9.084283
v 19.469877 4.3526397 -8.718426
v 19.527143 -3.348145 -8.763793
v -17.588959 -3.774945 -8.797881
v 19.20767 -3.7760386 -8.771951
v -17.769224 -3.3751237 -9.0938
v 19.198286 -3.3496728 -9.084283
v -17.587158 -3.9764843 14.048991
v -17.588959 -3.774945 -8.797881
v -18.055756 -3.5912519 14.317772
v -18.089643 -3.3866558 -8.765014
v 18.942905 -3.9599853 14.066218
v -17.587158 -3.9764843 14.048991
v 19.24061 -3.5642889 14.647781
v -17.726938 -3.5897088 14.63827
v -5.5295362 -8.47 10.343091
v 12.082612 -8.445938 9.906674
v -6.1250634 -8.17603 -3.5910823
v 11.177055 -8.177614 -4.1326785
v 8.594858 -9.768923 10.711521
v 18.19357 -9.755756 10.784612
v 8.697349 -9.608219 -1.7896317
v 18.508148 -9.609093 -1.6989799
v -18.929592 -10.000432 9.9256
v -4.3850193 -9.983125 9.833886
v -18.97367 -9.789014 2.0508492
v -4.4315233 -9.7901535 1.9761946
v -17.587158 -3.9764843 14.048991
v 18.942905 -3.9599853 14.066218
v -17.588959 -3.774945 -8.797881
v 19.20767 -3.7760386 -8.771951
v 12.084751 1.8923249 9.791162
v 12.649321 1.6574949 10.331069
v 12.411499 1.6505488 10.566669
v -5.5274167 1.8725413 10.227582
v -5.8387938 1.6201155 11.003052
v -6.0744286 1.6192076 10.765146
v 10.759966 2.1235082 -3.4790208
v 11.078745 1.9012437 -4.271252
v 11.314389 1.9021848 -4.0333643
v -6.1536765 2.1037383 -2.9179027
v -6.7108154 1.8639355 -3.4745347
v -6.472964 1.8708521 -3.7101464
v 12.649321 1.6574949 10.331069
v 12.084751 1.8923249 9.791162
v 11.314389 1.9021848 -4.0333643
v 10.759966 2.1235082 -3.4790208
v 11.314389 1.9021848 -4.0333643
v 12.084751 1.8923249 9.791162
v 18.196781 2.704751 10.721484
v 18.49599 2.5762637 11.026713
v 18.361753 2.572483 11.151352
v 8.598052 2.6939282 10.648398
v 8.414077 2.5558434 11.066973
v 8.289419 2.555326 10.932707
v 18.26852 2.831096 -1.3489158
v 18.45684 2.709483 -1.7765208
v 18.5815 2.7100003 -1.6422629
v 8.66978 2.820283 -1.4220115
v 8.374936 2.689074 -1.736262
v 8.509165 2.6928554 -1.8609006
v -4.382578 1.3477587 9.750834
v -3.9807227 1.1788578 10.143496
v -4.153584 1.1738627 10.311098
v -18.927155 1.3335252 9.842553
v -19.1571 1.1519743 10.3978615
v -19.324728 1.1513188 10.22494
v -4.454873 1.5140201 2.191648
v -4.219492 1.3541559 1.6243359
v -4.0518556 1.3548399 1.797251
v -18.99948 1.499805 2.283357
v -19.39587 1.3273284 1.8787085
v -19.22298 1.3322991 1.711101
v 18.942934 4.647327 13.987027
v 19.336517 4.486314 14.350318
v 19.176342 4.481546 14.514718
v -17.58708 4.633753 13.969803
v -17.791185 4.4606767 14.505184
v -17.955595 4.460052 14.34494
v 18.929634 4.8057914 -8.318812
v 19.138588 4.653392 -8.8657875
v 19.302992 4.6540384 -8.705548
v -17.600458 4.7922387 -8.336039
v -17.989136 4.6278152 -8.710906
v -17.82892 4.632554 -8.8752985
v 12.41726 1.2040287 10.787764
v 12.411499 1.6505488 10.566669
v 12.893032 1.2178853 10.316577
v 12.649321 1.6574949 10.331069
v -6.3042626 1.1717368 10.748344
v -6.0744286 1.6192076 10.765146
v -5.832993 1.1736003 11.22417
v -5.8387938 1.6201155 11.003052
v 11.558042 1.4626048 -4.04785
v 11.314389 1.9021848 -4.0333643
v 11.086792 1.4606906 -4.5236607
v 11.078745 1.9012437 -4.271252
v -6.464966 1.4302919 -3.9625523
v -6.472964 1.8708521 -3.7101464
v -6.9406786 1.4164709 -3.4913573
v -6.7108154 1.8639355 -3.4745347
v -5.8387938 1.6201155 11.003052
v -5.5274167 1.8725413 10.227582
v 12.411499 1.6505488 10.566669
v 12.084751 1.8923249 9.791162
v -6.7108154 1.8639355 -3.4745347
v -6.1536765 2.1037383 -2.9179027
v -6.0744286 1.6192076 10.765146
v -5.5274167 1.8725413 10.227582
v 11.078745 1.9012437 -4.271252
v 10.759966 2.1235082 -3.4790208
v -6.472964 1.8708521 -3.7101464
v -6.1536765 2.1037383 -2.9179027
v -5.832993 1.1736003 11.22417
v -5.8387938 1.6201155 11.003052
v 12.41726 1.2040287 10.787764
v 12.411499 1.6505488 10.566669
v -6.9406786 1.4164709 -3.4913573
v -6.7108154 1.8639355 -3.4745347
v -6.3042626 1.1717368 10.748344
v -6.0744286 1.6192076 10.765146
v 11.086792 1.4606906 -4.5236607
v 11.078745 1.9012437 -4.271252
v -6.464966 1.4302919 -3.9625523
v -6.472964 1.8708521 -3.7101464
v 12.893032 1.2178853 10.316577
v 12.649321 1.6574949 10.331069
v 11.558042 1.4626048 -4.04785
v 11.314389 1.9021848 -4.0333643
v 18.361021 2.3281705 11.272373
v 18.361753 2.572483 11.151352
v 18.629507 2.335732 11.023086
v 18.49599 2.5762637 11.026713
v 8.164038 2.3104951 10.919446
v 8.289419 2.555326 10.932707
v 8.413354 2.3115306 11.18799
v 8.414077 2.5558434 11.066973
v 18.715004 2.4694803 -1.6458738
v 18.5815 2.7100003 -1.6422629
v 18.465708 2.468433 -1.914409
v 18.45684 2.709483 -1.7765208
v 8.518032 2.4518065 -1.9987925
v 8.509165 2.6928554 -1.8609006
v 8.249546 2.4442437 -1.749514
v 8.374936 2.689074 -1.736262
v 8.414077 2.5558434 11.066973
v 8.598052 2.6939282 10.648398
v 18.361753 2.572483 11.151352
v 18.196781 2.704751 10.721484
v 8.374936 2.689074 -1.736262
v 8.66978 2.820283 -1.4220115
v 8.289419 2.555326 10.932707
v 8.598052 2.6939282 10.648398
v 18.45684 2.709483 -1.7765208
v 18.26852 2.831096 -1.3489158
v 8.509165 2.6928554 -1.8609006
v 8.66978 2.820283 -1.4220115
v 18.49599 2.5762637 11.026713
v 18.196781 2.704751 10.721484
v 18.5815 2.7100003 -1.6422629
v 18.26852 2.831096 -1.3489158
v 8.413354 2.3115306 11.18799
v 8.414077 2.5558434 11.066973
v 18.361021 2.3281705 11.272373
v 18.361753 2.572483 11.151352
v 8.249546 2.4442437 -1.749514
v 8.374936 2.689074 -1.736262
v 8.164038 2.3104951 10.919446
v 8.289419 2.555326 10.932707
v 18.465708 2.468433 -1.914409
v 18.45684 2.709483 -1.7765208
v 8.518032 2.4518065 -1.9987925
v 8.509165 2.6928554 -1.8609006
v 18.629507 2.335732 11.023086
v 18.49599 2.5762637 11.026713
v 18.715004 2.4694803 -1.6458738
v 18.5815 2.7100003 -1.6422629
v -4.1511426 0.8527098 10.4701605
v -4.153584 1.1738627 10.311098
v -3.8053417 0.862675 10.13494
v -3.9807227 1.1788578 10.143496
v -19.489885 0.8294853 10.211063
v -19.324728 1.1513188 10.22494
v -19.15463 0.83082074 10.556919
v -19.1571 1.1519743 10.3978615
v -3.8764942 1.0386692 1.7887061
v -4.0518556 1.3548399 1.797251
v -4.211748 1.0372925 1.4428662
v -4.219492 1.3541559 1.6243359
v -19.215265 1.015436 1.5296313
v -19.22298 1.3322991 1.711101
v -19.561031 1.0054951 1.8648388
v -19.39587 1.3273284 1.8787085
v -19.1571 1.1519743 10.3978615
v -18.927155 1.3335252 9.842553
v -4.153584 1.1738627 10.311098
v -4.382578 1.3477587 9.750834
v -19.39587 1.3273284 1.8787085
v -18.99948 1.499805 2.283357
v -19.324728 1.1513188 10.22494
v -18.927155 1.3335252 9.842553
v -4.219492 1.3541559 1.6243359
v -4.454873 1.5140201 2.191648
v -19.22298 1.3322991 1.711101
v -18.99948 1.499805 2.283357
v -3.9807227 1.1788578 10.143496
v -4.382578 1.3477587 9.750834
v -4.0518556 1.3548399 1.797251
v -4.454873 1.5140201 2.191648
v -19.15463 0.83082074 10.556919
v -19.1571 1.1519743 10.3978615
v -4.1511426 0.8527098 10.4701605
v -4.153584 1.1738627 10.311098
v -19.561031 1.0054951 1.8648388
v -19.39587 1.3273284 1.8787085
v -19.489885 0.8294853 10.211063
v -19.324728 1.1513188 10.22494
v -4.211748 1.0372925 1.4428662
v -4.219492 1.3541559 1.6243359
v -19.215265 1.015436 1.5296313
v -19.22298 1.3322991 1.711101
v -3.8053417 0.862675 10.13494
v -3.9807227 1.1788578 10.143496
v -3.8764942 1.0386692 1.7887061
v -4.0518556 1.3548399 1.797251
v 19.183012 4.175384 14.666219
v 19.176342 4.481546 14.514718
v 19.503462 4.1848917 14.337425
v 19.336517 4.486314 14.350318
v -18.113369 4.1532426 14.33619
v -17.955595 4.460052 14.34494
v -17.784521 4.154507 14.656688
v -17.791185 4.4606767 14.505184
v 19.469877 4.3526397 -8.718426
v 19.302992 4.6540384 -8.705548
v 19.14106 4.3514 -9.038918
v 19.138588 4.653392 -8.8657875
v -17.826475 4.3304935 -9.04844
v -17.82892 4.632554 -8.8752985
v -18.146904 4.321015 -8.719654
v -17.989136 4.6278152 -8.710906
v -17.791185 4.4606767 14.505184
v -17.58708 4.633753 13.969803
v 19.176342 4.481546 14.514718
v 18.942934 4.647327 13.987027
v -17.989136 4.6278152 -8.710906
v -17.600458 4.7922387 -8.336039
v -17.955595 4.460052 14.34494
v -17.58708 4.633753 13.969803
v 19.138588 4.653392 -8.8657875
v 18.929634 4.8057914 -8.318812
v -17.82892 4.632554 -8.8752985
v -17.600458 4.7922387 -8.336039
v 19.336517 4.486314 14.350318
v 18.942934 4.647327 13.987027
v 19.302992 4.6540384 -8.705548
v 18.929634 4.8057914 -8.318812
v -17.784521 4.154507 14.656688
v -17.791185 4.4606767 14.505184
v 19.183012 4.175384 14.666219
v 19.176342 4.481546 14.514718
v -18.146904 4.321015 -8.719654
v -17.989136 4.6278152 -8.710906
v -18.113369 4.1532426 14.33619
v -17.955595 4.460052 14.34494
v 19.14106 4.3514 -9.038918
v 19.138588 4.653392 -8.8657875
v -17.826475 4.3304935 -9.04844
v -17.82892 4.632554 -8.8752985
v 19.503462 4.1848917 14.337425
v 19.336517 4.486314 14.350318
v 19.469877 4.3526397 -8.718426
v 19.302992 4.6540384 -8.705548
v 10.759966 2.1235082 -3.4790208
v 12.084751 1.8923249 9.791162
v -6.1536765 2.1037383 -2.9179027
v -5.5274167 1.8725413 10.227582
v 18.26852 2.831096 -1.3489158
v 18.196781 2.704751 10.721484
v 8.66978 2.820283 -1.4220115
v 8.598052 2.6939282 10.648398
v -4.454873 1.5140201 2.191648
v -4.382578 1.3477587 9.750834
v -18.99948 1.499805 2.283357
v -18.927155 1.3335252 9.842553
v 18.929634 4.8057914 -8.318812
v 18.942934 4.647327 13.987027
v -17.600458 4.7922387 -8.336039
v -17.58708 4.633753 13.969803
vt -10.375 2.7226562
vt -10.3984375 3.6464844
vt -10.3203125 2.7421875
vt -10.328125 3.6503906
vt -10.3203125 2.7421875
vt -10.3984375 3.6464844
vt -7.03125 3.7265625
vt -7.0234375 2.8183594
vt -7.0859375 3.7246094
vt -7.0664062 2.8125
vt -7.0859375 3.7246094
vt -7.0234375 2.8183594
vt -10.3203125 2.7421875
vt -10.28125 2.6445312
vt -10.375 2.7226562
vt -5.6015625 2.7890625
vt -5.5625 2.7929688
vt -5.5898438 2.6972656
vt -8.8203125 2.765625
vt -8.8359375 2.6875
vt -8.875 2.7636719
vt -7.0664062 2.8125
vt -7.0234375 2.8183594
vt -7.046875 2.7324219
vt -8.8359375 2.6875
vt -10.28125 2.6445312
vt -8.875 2.7636719
vt -10.3203125 2.7421875
vt -8.875 2.7636719
vt -10.28125 2.6445312
vt -11.453125 -0.9536133
vt -11.4609375 0.23583984
vt -11.421875 -0.94433594
vt -11.421875 0.23669434
vt -11.421875 -0.94433594
vt -11.4609375 0.23583984
vt -9.1015625 0.2619629
vt -9.1015625 -0.9189453
vt -9.1328125 0.2607422
vt -9.125 -0.9223633
vt -9.1328125 0.2607422
vt -9.1015625 -0.9189453
vt -11.421875 -0.94433594
vt -11.3984375 -0.9980469
vt -11.453125 -0.9536133
vt -7.8359375 -0.9350586
vt -7.8125 -0.93359375
vt -7.828125 -0.98583984
vt -10.1171875 -0.9316406
vt -10.125 -0.9741211
vt -10.1484375 -0.9326172
vt -9.125 -0.9223633
vt -9.1015625 -0.9189453
vt -9.1171875 -0.9658203
vt -10.125 -0.9741211
vt -11.3984375 -0.9980469
vt -10.1484375 -0.9326172
vt -11.421875 -0.94433594
vt -10.1484375 -0.9326172
vt -11.3984375 -0.9980469
vt -11.53125 -2.453125
vt -11.546875 -1.3955078
vt -11.4921875 -2.4394531
vt -11.5 -1.3896484
vt -11.4921875 -2.4394531
vt -11.546875 -1.3955078
vt -10.6328125 -1.3720703
vt -10.6328125 -2.4121094
vt -10.671875 -1.3691406
vt -10.65625 -2.4121094
vt -10.671875 -1.3691406
vt -10.6328125 -2.4121094
vt -11.4921875 -2.4394531
vt -11.4609375 -2.5175781
vt -11.53125 -2.453125
vt -8.28125 -2.4375
vt -8.2578125 -2.4355469
vt -8.2734375 -2.5058594
vt -10.6328125 -2.4121094
vt -10.625 -2.4824219
vt -10.65625 -2.4121094
vt -9.140625 -2.4179688
vt -9.109375 -2.4160156
vt -9.1171875 -2.4863281
vt -13.078125 0.9316406
vt -13.0859375 1.7167969
vt -13.0390625 0.9428711
vt -13.0390625 1.7177734
vt -13.0390625 0.9428711
vt -13.0859375 1.7167969
vt -6.9453125 1.7949219
vt -6.9453125 1.0195312
vt -6.9804688 1.7939453
vt -6.9726562 1.0166016
vt -6.9804688 1.7939453
vt -6.9453125 1.0195312
vt -13.0390625 0.9428711
vt -13.015625 0.8745117
vt -13.078125 0.9316406
vt -4.6328125 0.99902344
vt -4.6054688 1.0019531
vt -4.6210938 0.93408203
vt -10.6796875 0.9580078
vt -10.6953125 0.90527344
vt -10.71875 0.95751953
vt -6.9726562 1.0166016
vt -6.9453125 1.0195312
vt -6.9609375 0.96191406
vt -10.6953125 0.90527344
vt -13.015625 0.8745117
vt -10.71875 0.95751953
vt -13.0390625 0.9428711
vt -10.71875 0.95751953
vt -13.015625 0.8745117
vt -3.7265625 3.6582031
vt -3.7480469 2.7460938
vt -5.5585938 3.7070312
vt -5.5625 2.7929688
vt -5.6171875 3.7050781
vt -5.6015625 2.7890625
vt -7.03125 3.7265625
vt -7.0234375 2.8183594
vt -7.0859375 3.7246094
vt -7.0664062 2.8125
vt -8.8359375 3.671875
vt -8.8203125 2.765625
vt -8.8828125 3.671875
vt -8.875 2.7636719
vt -10.328125 3.6503906
vt -10.3203125 2.7421875
vt -5.5585938 3.7070312
vt -5.5625 2.7929688
vt -5.6171875 3.7050781
vt -5.6015625 2.7890625
vt -8.8359375 3.671875
vt -8.8203125 2.765625
vt -8.8828125 3.671875
vt -8.875 2.7636719
vt -7.046875 2.7324219
vt -8.8359375 2.6875
vt -7.0664062 2.8125
vt -8.8203125 2.765625
vt -5.5898438 2.6972656
vt -7.046875 2.7324219
vt -5.6015625 2.7890625
vt -7.0234375 2.8183594
vt -3.8046875 2.6425781
vt -5.5898438 2.6972656
vt -3.7480469 2.7460938
vt -5.5625 2.7929688
vt -6.8085938 0.2364502
vt -6.8242188 -0.94677734
vt -7.8085938 0.24963379
vt -7.8125 -0.93359375
vt -7.8398438 0.24938965
vt -7.8359375 -0.9350586
vt -9.1015625 0.2619629
vt -9.1015625 -0.9189453
vt -9.1328125 0.2607422
vt -9.125 -0.9223633
vt -10.125 0.24902344
vt -10.1171875 -0.9316406
vt -10.15625 0.24890137
vt -10.1484375 -0.9326172
vt -11.421875 0.23669434
vt -11.421875 -0.94433594
vt -7.8085938 0.24963379
vt -7.8125 -0.93359375
vt -7.8398438 0.24938965
vt -7.8359375 -0.9350586
vt -10.125 0.24902344
vt -10.1171875 -0.9316406
vt -10.15625 0.24890137
vt -10.1484375 -0.9326172
vt -9.1171875 -0.9658203
vt -10.125 -0.9741211
vt -9.125 -0.9223633
vt -10.1171875 -0.9316406
vt -7.828125 -0.98583984
vt -9.1171875 -0.9658203
vt -7.8359375 -0.9350586
vt -9.1015625 -0.9189453
vt -6.8554688 -1.0039062
vt -7.828125 -0.98583984
vt -6.8242188 -0.94677734
vt -7.8125 -0.93359375
vt -6.7539062 -1.3974609
vt -6.7617188 -2.4433594
vt -8.2578125 -1.3847656
vt -8.2578125 -2.4355469
vt -8.296875 -1.3876953
vt -8.28125 -2.4375
vt -9.1171875 -1.3710938
vt -9.109375 -2.4160156
vt -9.1484375 -1.3710938
vt -9.140625 -2.4179688
vt -10.6328125 -1.3720703
vt -10.6328125 -2.4121094
vt -10.671875 -1.3691406
vt -10.65625 -2.4121094
vt -11.5 -1.3896484
vt -11.4921875 -2.4394531
vt -8.2578125 -1.3847656
vt -8.2578125 -2.4355469
vt -8.296875 -1.3876953
vt -8.28125 -2.4375
vt -9.1171875 -1.3710938
vt -9.109375 -2.4160156
vt -9.1484375 -1.3710938
vt -9.140625 -2.4179688
vt -10.625 -2.4824219
vt -11.4609375 -2.5175781
vt -10.65625 -2.4121094
vt -11.4921875 -2.4394531
vt -9.1171875 -2.4863281
vt -10.625 -2.4824219
vt -9.140625 -2.4179688
vt -10.6328125 -2.4121094
vt -8.2734375 -2.5058594
vt -9.1171875 -2.4863281
vt -8.28125 -2.4375
vt -9.109375 -2.4160156
vt -6.8007812 -2.5175781
vt -8.2734375 -2.5058594
vt -6.7617188 -2.4433594
vt -8.2578125 -2.4355469
vt -0.8984375 1.78125
vt -0.8984375 1.0039062
vt -4.6132812 1.7822266
vt -4.6054688 1.0019531
vt -4.640625 1.7802734
vt -4.6328125 0.99902344
vt -6.9453125 1.7949219
vt -6.9453125 1.0195312
vt -6.9804688 1.7939453
vt -6.9726562 1.0166016
vt -10.6953125 1.7333984
vt -10.6796875 0.9580078
vt -10.7265625 1.7324219
vt -10.71875 0.95751953
vt -13.0390625 1.7177734
vt -13.0390625 0.9428711
vt -4.6132812 1.7822266
vt -4.6054688 1.0019531
vt -4.640625 1.7802734
vt -4.6328125 0.99902344
vt -10.6953125 1.7333984
vt -10.6796875 0.9580078
vt -10.7265625 1.7324219
vt -10.71875 0.95751953
vt -6.9609375 0.96191406
vt -10.6953125 0.90527344
vt -6.9726562 1.0166016
vt -10.6796875 0.9580078
vt -4.6210938 0.93408203
vt -6.9609375 0.96191406
vt -4.6328125 0.99902344
vt -6.9453125 1.0195312
vt -0.93847656 0.9350586
vt -4.6210938 0.93408203
vt -0.8984375 1.0039062
vt -4.6054688 1.0019531
vt 10.8359375 -3.9960938
vt 10.859375 -5.7695312
vt 9.4296875 -3.9921875
vt 9.4453125 -5.734375
vt 12.6171875 -6.25
vt 12.5859375 -7.2148438
vt 11.359375 -6.2070312
vt 11.328125 -7.1953125
vt 10.5078125 -6.0273438
vt 10.5078125 -7.4921875
vt 9.7109375 -6.03125
vt 9.71875 -7.4921875
vt 9.640625 -8.2890625
vt 13.3125 -8.2890625
vt 9.640625 -10.5859375
vt 13.3359375 -10.5859375
vt 0.27075195 0.9628906
vt 0.27075195 0.61328125
vt 0.03060913 0.61328125
vt 0.27075195 0.9628906
vt 0.27075195 0.61328125
vt 0.03060913 0.61328125
vt 0.27075195 0.9628906
vt 0.27075195 0.61328125
vt 0.03060913 0.61328125
vt 0.27075195 0.9628906
vt 0.27075195 0.61328125
vt 0.03060913 0.61328125
vt 0.27075195 0.61328125
vt 0.27075195 0.9628906
vt 0.82714844 0.61328125
vt 0.82714844 0.9628906
vt 0.82714844 0.61328125
vt 0.27075195 0.9628906
vt 0.27075195 0.9628906
vt 0.27075195 0.61328125
vt 0.03060913 0.61328125
vt 0.27075195 0.9628906
vt 0.27075195 0.61328125
vt 0.03060913 0.61328125
vt 0.27075195 0.9628906
vt 0.27075195 0.61328125
vt 0.03060913 0.61328125
vt 0.27075195 0.9628906
vt 0.27075195 0.61328125
vt 0.03060913 0.61328125
vt 0.27075195 0.9628906
vt 0.27075195 0.61328125
vt 0.03060913 0.61328125
vt 0.27075195 0.9628906
vt 0.27075195 0.61328125
vt 0.03060913 0.61328125
vt 0.27075195 0.9628906
vt 0.27075195 0.61328125
vt 0.03060913 0.61328125
vt 0.27075195 0.9628906
vt 0.27075195 0.61328125
vt 0.03060913 0.61328125
vt 0.19628906 0.9663086
vt 0.17993164 0.6142578
vt 0.037200928 0.6142578
vt 0.19628906 0.9663086
vt 0.17993164 0.6142578
vt 0.037200928 0.6142578
vt 0.19628906 0.9663086
vt 0.17993164 0.6142578
vt 0.037200928 0.6142578
vt 0.19628906 0.9663086
vt 0.17993164 0.6142578
vt 0.037200928 0.6142578
vt 0.03060913 0.02067566
vt 0.03060913 0.61328125
vt 0.27075195 0.02067566
vt 0.27075195 0.61328125
vt 0.03060913 0.02067566
vt 0.03060913 0.61328125
vt 0.27075195 0.02067566
vt 0.27075195 0.61328125
vt 0.03060913 0.02067566
vt 0.03060913 0.61328125
vt 0.27075195 0.02067566
vt 0.27075195 0.61328125
vt 0.03060913 0.02067566
vt 0.03060913 0.61328125
vt 0.27075195 0.02067566
vt 0.27075195 0.61328125
vt 0.27075195 0.61328125
vt 0.27075195 0.9628906
vt 0.82714844 0.61328125
vt 0.82714844 0.9628906
vt 0.27075195 0.61328125
vt 0.27075195 0.9628906
vt 0.82714844 0.61328125
vt 0.82714844 0.9628906
vt 0.27075195 0.61328125
vt 0.27075195 0.9628906
vt 0.82714844 0.61328125
vt 0.82714844 0.9628906
vt 0.27075195 0.02067566
vt 0.27075195 0.61328125
vt 0.82714844 0.02067566
vt 0.82714844 0.61328125
vt 0.27075195 0.02067566
vt 0.27075195 0.61328125
vt 0.82714844 0.02067566
vt 0.82714844 0.61328125
vt 0.27075195 0.02067566
vt 0.27075195 0.61328125
vt 0.82714844 0.02067566
vt 0.82714844 0.61328125
vt 0.27075195 0.02067566
vt 0.27075195 0.61328125
vt 0.82714844 0.02067566
vt 0.82714844 0.61328125
vt 0.03060913 0.02067566
vt 0.03060913 0.61328125
vt 0.27075195 0.02067566
vt 0.27075195 0.61328125
vt 0.03060913 0.02067566
vt 0.03060913 0.61328125
vt 0.27075195 0.02067566
vt 0.27075195 0.61328125
vt 0.03060913 0.02067566
vt 0.03060913 0.61328125
vt 0.27075195 0.02067566
vt 0.27075195 0.61328125
vt 0.03060913 0.02067566
vt 0.03060913 0.61328125
vt 0.27075195 0.02067566
vt 0.27075195 0.61328125
vt 0.27075195 0.61328125
vt 0.27075195 0.9628906
vt 0.82714844 0.61328125
vt 0.82714844 0.9628906
vt 0.27075195 0.61328125
vt 0.27075195 0.9628906
vt 0.82714844 0.61328125
vt 0.82714844 0.9628906
vt 0.27075195 0.61328125
vt 0.27075195 0.9628906
vt 0.82714844 0.61328125
vt 0.82714844 0.9628906
vt 0.27075195 0.61328125
vt 0.27075195 0.9628906
vt 0.82714844 0.61328125
vt 0.82714844 0.9628906
vt 0.27075195 0.02067566
vt 0.27075195 0.61328125
vt 0.82714844 0.02067566
vt 0.82714844 0.61328125
vt 0.27075195 0.02067566
vt 0.27075195 0.61328125
vt 0.82714844 0.02067566
vt 0.82714844 0.61328125
vt 0.27075195 0.02067566
vt 0.27075195 0.61328125
vt 0.82714844 0.02067566
vt 0.82714844 0.61328125
vt 0.27075195 0.02067566
vt 0.27075195 0.61328125
vt 0.82714844 0.02067566
vt 0.82714844 0.61328125
vt 0.03060913 0.02067566
vt 0.03060913 0.61328125
vt 0.27075195 0.02067566
vt 0.27075195 0.61328125
vt 0.03060913 0.02067566
vt 0.03060913 0.61328125
vt 0.27075195 0.02067566
vt 0.27075195 0.61328125
vt 0.03060913 0.02067566
vt 0.03060913 0.61328125
vt 0.27075195 0.02067566
vt 0.27075195 0.61328125
vt 0.03060913 0.02067566
vt 0.03060913 0.61328125
vt 0.27075195 0.02067566
vt 0.27075195 0.61328125
vt 0.27075195 0.61328125
vt 0.27075195 0.9628906
vt 0.82714844 0.61328125
vt 0.82714844 0.9628906
vt 0.27075195 0.61328125
vt 0.27075195 0.9628906
vt 0.82714844 0.61328125
vt 0.82714844 0.9628906
vt 0.27075195 0.61328125
vt 0.27075195 0.9628906
vt 0.82714844 0.61328125
vt 0.82714844 0.9628906
vt 0.27075195 0.61328125
vt 0.27075195 0.9628906
vt 0.82714844 0.61328125
vt 0.82714844 0.9628906
vt 0.27075195 0.02067566
vt 0.27075195 0.61328125
vt 0.82714844 0.02067566
vt 0.82714844 0.61328125
vt 0.27075195 0.02067566
vt 0.27075195 0.61328125
vt 0.82714844 0.02067566
vt 0.82714844 0.61328125
vt 0.27075195 0.02067566
vt 0.27075195 0.61328125
vt 0.82714844 0.02067566
vt 0.82714844 0.61328125
vt 0.27075195 0.02067566
vt 0.27075195 0.61328125
vt 0.82714844 0.02067566
vt 0.82714844 0.61328125
vt 0.03262329 0.01386261
vt 0.037200928 0.6142578
vt 0.17443848 0.01386261
vt 0.17993164 0.6142578
vt 0.03262329 0.01386261
vt 0.037200928 0.6142578
vt 0.17443848 0.01386261
vt 0.17993164 0.6142578
vt 0.03262329 0.01386261
vt 0.037200928 0.6142578
vt 0.17443848 0.01386261
vt 0.17993164 0.6142578
vt 0.03262329 0.01386261
vt 0.037200928 0.6142578
vt 0.17443848 0.01386261
vt 0.17993164 0.6142578
vt 0.17993164 0.6142578
vt 0.19628906 0.9663086
vt 0.82910156 0.6142578
vt 0.82910156 0.9663086
vt 0.17993164 0.6142578
vt 0.19628906 0.9663086
vt 0.82910156 0.6142578
vt 0.82910156 0.9663086
vt 0.17993164 0.6142578
vt 0.19628906 0.9663086
vt 0.82910156 0.6142578
vt 0.82910156 0.9663086
vt 0.17993164 0.6142578
vt 0.19628906 0.9663086
vt 0.82910156 0.6142578
vt 0.82910156 0.9663086
vt 0.17443848 0.01386261
vt 0.17993164 0.6142578
vt 0.82910156 0.01386261
vt 0.82910156 0.6142578
vt 0.17443848 0.01386261
vt 0.17993164 0.6142578
vt 0.82910156 0.01386261
vt 0.82910156 0.6142578
vt 0.17443848 0.01386261
vt 0.17993164 0.6142578
vt 0.82910156 0.01386261
vt 0.82910156 0.6142578
vt 0.17443848 0.01386261
vt 0.17993164 0.6142578
vt 0.82910156 0.01386261
vt 0.82910156 0.6142578
vt 14.2578125 12.3359375
vt 12.9140625 12.2734375
vt 14.296875 14.0390625
vt 12.96875 14.046875
vt 11.4609375 13.7265625
vt 10.25 13.7421875
vt 11.4765625 14.6875
vt 10.265625 14.7109375
vt 10.1796875 13.3359375
vt 9.4140625 13.328125
vt 10.1640625 14.8046875
vt 9.40625 14.7890625
vt 11.3125 8.6640625
vt 9.0703125 8.65625
vt 11.296875 12.34375
vt 9.0546875 12.328125
vn 0.7036133 0.0045661926 0.7104492
vn 0.7036133 0.0045661926 0.7104492
vn 0.7036133 0.0045661926 0.7104492
vn 0.7036133 0.0045661926 0.7104492
vn 0.7036133 0.0045661926 0.7104492
vn 0.7036133 0.0045661926 0.7104492
vn -0.7036133 -0.0015068054 -0.7104492
vn -0.7036133 -0.0015068054 -0.7104492
vn -0.7036133 -0.0015068054 -0.7104492
vn -0.7036133 -0.0015068054 -0.7104492
vn -0.7036133 -0.0015068054 -0.7104492
vn -0.7036133 -0.0015068054 -0.7104492
vn 0.39746094 -0.83935547 0.3713379
vn 0.39746094 -0.83935547 0.3713379
vn 0.39746094 -0.83935547 0.3713379
vn -0.42163086 -0.8027344 0.42138672
vn -0.42163086 -0.8027344 0.42138672
vn -0.42163086 -0.8027344 0.42138672
vn 0.63427734 -0.453125 -0.62597656
vn 0.63427734 -0.453125 -0.62597656
vn 0.63427734 -0.453125 -0.62597656
vn -0.5263672 -0.64501953 -0.5541992
vn -0.5263672 -0.64501953 -0.5541992
vn -0.5263672 -0.64501953 -0.5541992
vn 0.80078125 -0.5957031 -0.06304932
vn 0.80078125 -0.5957031 -0.06304932
vn 0.80078125 -0.5957031 -0.06304932
vn 0.5722656 -0.81689453 -0.06994629
vn 0.5722656 -0.81689453 -0.06994629
vn 0.5722656 -0.81689453 -0.06994629
vn 0.6801758 0.0019245148 0.73291016
vn 0.6801758 0.0019245148 0.73291016
vn 0.6801758 0.0019245148 0.73291016
vn 0.6801758 0.0019245148 0.73291016
vn 0.6801758 0.0019245148 0.73291016
vn 0.6801758 0.0019245148 0.73291016
vn -0.6801758 -0.0006337166 -0.73291016
vn -0.6801758 -0.0006337166 -0.73291016
vn -0.6801758 -0.0006337166 -0.73291016
vn -0.6801758 -0.0006337166 -0.73291016
vn -0.6801758 -0.0006337166 -0.73291016
vn -0.6801758 -0.0006337166 -0.73291016
vn 0.3852539 -0.83935547 0.3840332
vn 0.3852539 -0.83935547 0.3840332
vn 0.3852539 -0.83935547 0.3840332
vn -0.4350586 -0.8027344 0.40771484
vn -0.4350586 -0.8027344 0.40771484
vn -0.4350586 -0.8027344 0.40771484
vn 0.6542969 -0.453125 -0.60546875
vn 0.6542969 -0.453125 -0.60546875
vn 0.6542969 -0.453125 -0.60546875
vn -0.5078125 -0.64501953 -0.5708008
vn -0.5078125 -0.64501953 -0.5708008
vn -0.5078125 -0.64501953 -0.5708008
vn 0.8017578 -0.59765625 0.013175964
vn 0.8017578 -0.59765625 0.013175964
vn 0.8017578 -0.59765625 0.013175964
vn 0.5605469 -0.828125 -0.006832123
vn 0.5605469 -0.828125 -0.006832123
vn 0.5605469 -0.828125 -0.006832123
vn 0.6958008 0.0028591156 0.7182617
vn 0.6958008 0.0028591156 0.7182617
vn 0.6958008 0.0028591156 0.7182617
vn 0.6958008 0.0028591156 0.7182617
vn 0.6958008 0.0028591156 0.7182617
vn 0.6958008 0.0028591156 0.7182617
vn 0.71777344 0.007320404 -0.6958008
vn 0.71777344 0.007320404 -0.6958008
vn 0.71777344 0.007320404 -0.6958008
vn 0.71777344 0.007320404 -0.6958008
vn 0.71777344 0.007320404 -0.6958008
vn 0.71777344 0.007320404 -0.6958008
vn 0.39331055 -0.83935547 0.37548828
vn 0.39331055 -0.83935547 0.37548828
vn 0.39331055 -0.83935547 0.37548828
vn -0.4260254 -0.8027344 0.41674805
vn -0.4260254 -0.8027344 0.41674805
vn -0.4260254 -0.8027344 0.41674805
vn 0.42919922 -0.80371094 -0.41210938
vn 0.42919922 -0.80371094 -0.41210938
vn 0.42919922 -0.80371094 -0.41210938
vn -0.41210938 -0.79003906 -0.45361328
vn -0.41210938 -0.79003906 -0.45361328
vn -0.41210938 -0.79003906 -0.45361328
vn 0.7163086 0.003665924 0.6982422
vn 0.7163086 0.003665924 0.6982422
vn 0.7163086 0.003665924 0.6982422
vn 0.7163086 0.003665924 0.6982422
vn 0.7163086 0.003665924 0.6982422
vn 0.7163086 0.003665924 0.6982422
vn -0.7163086 -0.0012130737 -0.6977539
vn -0.7163086 -0.0012130737 -0.6977539
vn -0.7163086 -0.0012130737 -0.6977539
vn -0.7163086 -0.00121212 -0.6977539
vn -0.7163086 -0.00121212 -0.6977539
vn -0.7163086 -0.00121212 -0.6977539
vn 0.40405273 -0.83935547 0.3642578
vn 0.40405273 -0.83935547 0.3642578
vn 0.40405273 -0.83935547 0.3642578
vn -0.4140625 -0.8027344 0.42871094
vn -0.4140625 -0.8027344 0.42871094
vn -0.4140625 -0.8027344 0.42871094
vn 0.6230469 -0.453125 -0.63720703
vn 0.6230469 -0.453125 -0.63720703
vn 0.6230469 -0.453125 -0.63720703
vn -0.5361328 -0.64501953 -0.5449219
vn -0.5361328 -0.64501953 -0.5449219
vn -0.5361328 -0.64501953 -0.5449219
vn 0.80126953 -0.59814453 0.004470825
vn 0.80126953 -0.59814453 0.004470825
vn 0.80126953 -0.59814453 0.004470825
vn 0.5522461 -0.8334961 -0.008201599
vn 0.5522461 -0.8334961 -0.008201599
vn 0.5522461 -0.8334961 -0.008201599
vn 0.023910522 -0.002571106 0.9995117
vn 0.023910522 -0.002571106 0.9995117
vn 0.023910522 -0.002571106 0.9995117
vn 0.023910522 -0.0025691986 0.9995117
vn -0.99902344 -0.009414673 0.04449463
vn -0.99902344 -0.009414673 0.04449463
vn -0.99902344 -0.009414673 0.04449463
vn -0.99902344 -0.009689331 0.044311523
vn -0.031951904 0.006866455 -0.9995117
vn -0.031951904 0.006866455 -0.9995117
vn -0.031951904 0.006866455 -0.9995117
vn -0.031982422 0.0068740845 -0.9995117
vn 0.99560547 0.010009766 -0.09234619
vn 0.99560547 0.010009766 -0.09234619
vn 0.99560547 0.010009766 -0.09234619
vn 0.99560547 0.009529114 -0.09210205
vn -0.7104492 -0.008575439 0.7036133
vn -0.7104492 -0.008575439 0.7036133
vn -0.7104492 -0.008575439 0.7036133
vn -0.7104492 -0.008575439 0.7036133
vn 0.7104492 0.01171875 -0.7036133
vn 0.7104492 0.01171875 -0.7036133
vn 0.7104492 0.01171875 -0.7036133
vn 0.7104492 0.01171875 -0.7036133
vn -0.02494812 -0.60595703 -0.79541016
vn -0.02494812 -0.60595703 -0.79541016
vn -0.02494812 -0.60595703 -0.79541016
vn -0.024520874 -0.5913086 -0.80615234
vn -0.6279297 -0.7783203 0.010414124
vn -0.6279297 -0.7783203 0.010414124
vn -0.6279297 -0.7783203 0.010414124
vn -0.6123047 -0.79052734 0.010749817
vn 0.01486969 -0.83251953 0.5541992
vn 0.01486969 -0.83251953 0.5541992
vn 0.01486969 -0.83251953 0.5541992
vn 0.014915466 -0.8330078 0.55322266
vn -0.008483887 -0.0010871887 1
vn -0.008483887 -0.0010871887 1
vn -0.008483887 -0.0010871887 1
vn -0.008476257 -0.001086235 1
vn -1 -0.0039520264 -0.006790161
vn -1 -0.0039520264 -0.006790161
vn -1 -0.0039520264 -0.006790161
vn -1 -0.004016876 -0.0068511963
vn 0.008476257 0.0029182434 -1
vn 0.008476257 0.0029182434 -1
vn 0.008476257 0.0029182434 -1
vn 0.008476257 0.0029201508 -1
vn 1 0.004020691 0.006790161
vn 1 0.004020691 0.006790161
vn 1 0.004020691 0.006790161
vn 1 0.003955841 0.0068511963
vn -0.73291016 -0.0036182404 0.6801758
vn -0.73291016 -0.0036182404 0.6801758
vn -0.73291016 -0.0036182404 0.6801758
vn -0.73291016 -0.0036182404 0.6801758
vn 0.73291016 0.004924774 -0.6801758
vn 0.73291016 0.004924774 -0.6801758
vn 0.73291016 0.004924774 -0.6801758
vn 0.73291016 0.004924774 -0.6801758
vn 0.00730896 -0.6040039 -0.796875
vn 0.00730896 -0.6040039 -0.796875
vn 0.00730896 -0.6040039 -0.796875
vn 0.008049011 -0.5913086 -0.8066406
vn -0.62939453 -0.77685547 -0.015144348
vn -0.62939453 -0.77685547 -0.015144348
vn -0.62939453 -0.77685547 -0.015144348
vn -0.6123047 -0.79052734 -0.014328003
vn -0.0030784607 -0.83251953 0.5541992
vn -0.0030784607 -0.83251953 0.5541992
vn -0.0030784607 -0.83251953 0.5541992
vn -0.0029964447 -0.8330078 0.55322266
vn 0.005783081 -0.0016555786 1
vn 0.005783081 -0.0016555786 1
vn 0.005783081 -0.0016555786 1
vn 0.0057868958 -0.0016536713 1
vn -1 -0.005859375 0.008399963
vn -1 -0.005859375 0.008399963
vn -1 -0.005859375 0.008399963
vn -1 -0.0059432983 0.008293152
vn -0.0057907104 0.0043792725 -1
vn -0.0057907104 0.0043792725 -1
vn -0.0057907104 0.0043792725 -1
vn -0.0057907104 0.004383087 -1
vn 1 0.005947113 -0.008399963
vn 1 0.005947113 -0.008399963
vn 1 0.005947113 -0.008399963
vn 1 0.0058631897 -0.008293152
vn -0.71777344 -0.0053710938 0.6958008
vn -0.71777344 -0.0053710938 0.6958008
vn -0.71777344 -0.0053710938 0.6958008
vn -0.71777344 -0.0053710938 0.6958008
vn -0.6958008 -0.0009431839 -0.71777344
vn -0.6958008 -0.0009431839 -0.71777344
vn -0.6958008 -0.0009431839 -0.71777344
vn -0.6958008 -0.0009441376 -0.71777344
vn 0.58251953 -0.8125 -0.023391724
vn 0.58251953 -0.8125 -0.023391724
vn 0.58251953 -0.8125 -0.023391724
vn 0.5625 -0.8261719 -0.025924683
vn -0.003112793 -0.8046875 -0.59375
vn -0.003112793 -0.8046875 -0.59375
vn -0.003112793 -0.8046875 -0.59375
vn -0.0021343231 -0.7910156 -0.6118164
vn -0.6347656 -0.77246094 -0.017196655
vn -0.6347656 -0.77246094 -0.017196655
vn -0.6347656 -0.77246094 -0.017196655
vn -0.60791016 -0.7939453 -0.015213013
vn 0.0044937134 -0.83154297 0.55566406
vn 0.0044937134 -0.83154297 0.55566406
vn 0.0044937134 -0.83154297 0.55566406
vn 0.004676819 -0.8334961 0.5522461
vn -0.0002565384 -0.0023841858 1
vn -0.0002565384 -0.0023841858 1
vn -0.0002565384 -0.0023841858 1
vn -0.00025558472 -0.002380371 1
vn -1 -0.0074424744 0.0013999939
vn -1 -0.0074424744 0.0013999939
vn -1 -0.0074424744 0.0013999939
vn -1 -0.0074386597 0.0014019012
vn 0.0002541542 0.0058898926 -1
vn 0.0002541542 0.0058898926 -1
vn 0.0002541542 0.0058898926 -1
vn 0.00025343895 0.0058937073 -1
vn 1 0.007446289 -0.0014028549
vn 1 0.007446289 -0.0014028549
vn 1 0.007446289 -0.0014028549
vn 1 0.0074424744 -0.0014019012
vn -0.6977539 -0.006893158 0.7163086
vn -0.6977539 -0.006893158 0.7163086
vn -0.6977539 -0.006893158 0.7163086
vn -0.6977539 -0.0068969727 0.7163086
vn 0.6977539 0.009407043 -0.7163086
vn 0.6977539 0.009407043 -0.7163086
vn 0.6977539 0.009407043 -0.7163086
vn 0.6977539 0.009407043 -0.7163086
vn 0.00054883957 -0.59472656 -0.80371094
vn 0.00054883957 -0.59472656 -0.80371094
vn 0.00054883957 -0.59472656 -0.80371094
vn 0.0006146431 -0.5908203 -0.8066406
vn -0.63720703 -0.7705078 -0.0067481995
vn -0.63720703 -0.7705078 -0.0067481995
vn -0.63720703 -0.7705078 -0.0067481995
vn -0.61328125 -0.79003906 -0.0061035156
vn 0.00010818243 -0.82666016 0.5625
vn 0.00010818243 -0.82666016 0.5625
vn 0.00010818243 -0.82666016 0.5625
vn 0.0004336834 -0.8359375 0.5488281
vn 0.0008420944 -1 -0.021133423
vn 0.0008420944 -1 -0.021133423
vn 0.0008420944 -1 -0.021133423
vn -0.00068855286 -1 -0.019058228
vn 0.0014696121 -1 -0.012840271
vn 0.0014696121 -1 -0.012840271
vn 0.0014696121 -1 -0.012840271
vn 1.9490719E-05 -1 -0.011749268
vn 0.0010204315 -0.9995117 -0.02684021
vn 0.0010204315 -0.9995117 -0.02684021
vn 0.0010204315 -0.9995117 -0.02684021
vn -0.00020444393 -0.9995117 -0.024551392
vn 0.00045585632 -1 -0.00881958
vn 0.00045585632 -1 -0.00881958
vn 0.00045585632 -1 -0.00881958
vn -2.4020672E-05 -1 -0.008056641
vn 0.18884277 0.95751953 0.21887207
vn 0.18884277 0.95751953 0.21887207
vn 0.18884277 0.95751953 0.21887207
vn -0.22460938 0.94970703 0.21887207
vn -0.22460938 0.94970703 0.21887207
vn -0.22460938 0.94970703 0.21887207
vn 0.19116211 0.96240234 -0.19311523
vn 0.19116211 0.96240234 -0.19311523
vn 0.19116211 0.96240234 -0.19311523
vn -0.21887207 0.95654297 -0.1928711
vn -0.21887207 0.95654297 -0.1928711
vn -0.21887207 0.95654297 -0.1928711
vn 0.40161133 0.91552734 -0.021728516
vn 0.40161133 0.91552734 -0.021728516
vn 0.40161133 0.91552734 -0.021728516
vn 0.35424805 0.9350586 -0.019073486
vn 0.35424805 0.9350586 -0.019073486
vn 0.35424805 0.9350586 -0.019073486
vn 0.1817627 0.95751953 0.22485352
vn 0.1817627 0.95751953 0.22485352
vn 0.1817627 0.95751953 0.22485352
vn -0.23168945 0.94970703 0.21142578
vn -0.23168945 0.94970703 0.21142578
vn -0.23168945 0.94970703 0.21142578
vn 0.19726562 0.96240234 -0.18688965
vn 0.19726562 0.96240234 -0.18688965
vn 0.19726562 0.96240234 -0.18688965
vn -0.21252441 0.95654297 -0.19995117
vn -0.21252441 0.95654297 -0.19995117
vn -0.21252441 0.95654297 -0.19995117
vn 0.18652344 0.95751953 0.22094727
vn 0.18652344 0.95751953 0.22094727
vn 0.18652344 0.95751953 0.22094727
vn -0.22705078 0.94970703 0.21643066
vn -0.22705078 0.94970703 0.21643066
vn -0.22705078 0.94970703 0.21643066
vn 0.19311523 0.96240234 -0.19104004
vn 0.19311523 0.96240234 -0.19104004
vn 0.19311523 0.96240234 -0.19104004
vn -0.21679688 0.95654297 -0.1953125
vn -0.21679688 0.95654297 -0.1953125
vn -0.21679688 0.95654297 -0.1953125
vn 0.19274902 0.95751953 0.2154541
vn 0.19274902 0.95751953 0.2154541
vn 0.19274902 0.95751953 0.2154541
vn -0.2208252 0.94970703 0.22277832
vn -0.2208252 0.94970703 0.22277832
vn -0.2208252 0.94970703 0.22277832
vn 0.18762207 0.96240234 -0.19641113
vn 0.18762207 0.96240234 -0.19641113
vn 0.18762207 0.96240234 -0.19641113
vn -0.22229004 0.95654297 -0.18908691
vn -0.22229004 0.95654297 -0.18908691
vn -0.22229004 0.95654297 -0.18908691
vn 0.65625 0.34155273 0.67285156
vn 0.65625 0.34155273 0.67285156
vn 0.65625 0.34155273 0.67285156
vn 0.65625 0.34179688 0.67285156
vn -0.67333984 0.32104492 0.6660156
vn -0.67333984 0.32104492 0.6660156
vn -0.67333984 0.32104492 0.6660156
vn -0.67333984 0.32104492 0.6660156
vn 0.65527344 0.38452148 -0.6503906
vn 0.65527344 0.38452148 -0.6503906
vn 0.65527344 0.38452148 -0.6503906
vn 0.65527344 0.38452148 -0.6503906
vn -0.66064453 0.36401367 -0.65625
vn -0.66064453 0.36401367 -0.65625
vn -0.66064453 0.36401367 -0.65625
vn -0.66064453 0.36401367 -0.65625
vn 0.0058670044 0.9501953 0.31176758
vn 0.0058670044 0.9501953 0.31176758
vn 0.0058670044 0.9501953 0.31176758
vn 0.0062408447 0.9555664 0.29516602
vn -0.42407227 0.90478516 0.03451538
vn -0.42407227 0.90478516 0.03451538
vn -0.42407227 0.90478516 0.03451538
vn -0.39160156 0.9194336 0.034820557
vn -0.010421753 0.96191406 -0.27392578
vn -0.010421753 0.96191406 -0.27392578
vn -0.010421753 0.96191406 -0.27392578
vn -0.010353088 0.9604492 -0.27807617
vn 0.02067566 0.44384766 0.8959961
vn 0.02067566 0.44384766 0.8959961
vn 0.02067566 0.44384766 0.8959961
vn 0.02067566 0.44384766 0.8959961
vn -0.88916016 0.45507812 0.047576904
vn -0.88916016 0.45507812 0.047576904
vn -0.88916016 0.45507812 0.047576904
vn -0.88916016 0.45483398 0.047546387
vn -0.02859497 0.49658203 -0.8676758
vn -0.02859497 0.49658203 -0.8676758
vn -0.02859497 0.49658203 -0.8676758
vn -0.02859497 0.49658203 -0.8676758
vn 0.87109375 0.48535156 -0.07269287
vn 0.87109375 0.48535156 -0.07269287
vn 0.87109375 0.48535156 -0.07269287
vn 0.87109375 0.48535156 -0.07269287
vn 0.63427734 0.34155273 0.6933594
vn 0.63427734 0.34155273 0.6933594
vn 0.63427734 0.34155273 0.6933594
vn 0.63427734 0.34155273 0.6933594
vn -0.6948242 0.32080078 0.6435547
vn -0.6948242 0.32080078 0.6435547
vn -0.6948242 0.32080078 0.6435547
vn -0.6948242 0.32104492 0.6435547
vn 0.67578125 0.38452148 -0.62890625
vn 0.67578125 0.38452148 -0.62890625
vn 0.67578125 0.38452148 -0.62890625
vn 0.67578125 0.38452148 -0.62890625
vn -0.63916016 0.36401367 -0.6772461
vn -0.63916016 0.36401367 -0.6772461
vn -0.63916016 0.36401367 -0.6772461
vn -0.63916016 0.36401367 -0.6772461
vn -0.004234314 0.9501953 0.31152344
vn -0.004234314 0.9501953 0.31152344
vn -0.004234314 0.9501953 0.31152344
vn -0.0033245087 0.9555664 0.29516602
vn -0.41259766 0.91064453 0.006832123
vn -0.41259766 0.91064453 0.006832123
vn -0.41259766 0.91064453 0.006832123
vn -0.40405273 0.9145508 0.007171631
vn 0.0007100105 0.96191406 -0.27319336
vn 0.0007100105 0.96191406 -0.27319336
vn 0.0007100105 0.96191406 -0.27319336
vn 0.0010442734 0.9604492 -0.27929688
vn 0.38378906 0.92333984 0.012336731
vn 0.38378906 0.92333984 0.012336731
vn 0.38378906 0.92333984 0.012336731
vn 0.37060547 0.92871094 0.011924744
vn -0.008346558 0.44384766 0.8959961
vn -0.008346558 0.44384766 0.8959961
vn -0.008346558 0.44384766 0.8959961
vn -0.008346558 0.44384766 0.8959961
vn -0.8901367 0.45581055 -0.0011940002
vn -0.8901367 0.45581055 -0.0011940002
vn -0.8901367 0.45581055 -0.0011940002
vn -0.8901367 0.45581055 -0.0011949539
vn 0.0065307617 0.49658203 -0.8676758
vn 0.0065307617 0.49658203 -0.8676758
vn 0.0065307617 0.49658203 -0.8676758
vn 0.0065307617 0.49682617 -0.8676758
vn 0.8745117 0.48510742 0.011024475
vn 0.8745117 0.48510742 0.011024475
vn 0.8745117 0.48510742 0.011024475
vn 0.8745117 0.48510742 0.011024475
vn 0.6489258 0.34155273 0.6796875
vn 0.6489258 0.34155273 0.6796875
vn 0.6489258 0.34155273 0.6796875
vn 0.6489258 0.34155273 0.6796875
vn -0.68066406 0.32080078 0.6586914
vn -0.68066406 0.32080078 0.6586914
vn -0.68066406 0.32080078 0.6586914
vn -0.68066406 0.32104492 0.6586914
vn 0.6621094 0.38452148 -0.6430664
vn 0.6621094 0.38452148 -0.6430664
vn 0.6621094 0.38452148 -0.6430664
vn 0.6621094 0.38452148 -0.6430664
vn -0.6538086 0.36401367 -0.6635742
vn -0.6538086 0.36401367 -0.6635742
vn -0.6538086 0.36401367 -0.6635742
vn -0.6538086 0.36401367 -0.6635742
vn 0.00041127205 0.9506836 0.31079102
vn 0.00041127205 0.9506836 0.31079102
vn 0.00041127205 0.9506836 0.31079102
vn 0.00093221664 0.9550781 0.29614258
vn -0.4182129 0.9082031 0.022720337
vn -0.4182129 0.9082031 0.022720337
vn -0.4182129 0.9082031 0.022720337
vn -0.39746094 0.91748047 0.023986816
vn -0.0029773712 0.96240234 -0.27246094
vn -0.0029773712 0.96240234 -0.27246094
vn -0.0029773712 0.96240234 -0.27246094
vn -0.002702713 0.95996094 -0.2800293
vn 0.3737793 0.9272461 0.01637268
vn 0.3737793 0.9272461 0.01637268
vn 0.3737793 0.9272461 0.01637268
vn 0.38134766 0.9243164 0.016677856
vn 0.004535675 0.44384766 0.8959961
vn 0.004535675 0.44384766 0.8959961
vn 0.004535675 0.44384766 0.8959961
vn 0.004535675 0.44384766 0.8959961
vn -0.88964844 0.45581055 0.017196655
vn -0.88964844 0.45581055 0.017196655
vn -0.88964844 0.45581055 0.017196655
vn -0.88964844 0.45581055 0.017196655
vn -0.0057411194 0.49682617 -0.8676758
vn -0.0057411194 0.49682617 -0.8676758
vn -0.0057411194 0.49682617 -0.8676758
vn -0.0057411194 0.49682617 -0.8676758
vn 0.8745117 0.48510742 0.0027713776
vn 0.8745117 0.48510742 0.0027713776
vn 0.8745117 0.48510742 0.0027713776
vn 0.8745117 0.48486328 0.002773285
vn 0.66796875 0.34155273 0.6611328
vn 0.66796875 0.34155273 0.6611328
vn 0.66796875 0.34155273 0.6611328
vn 0.66796875 0.34179688 0.66064453
vn -0.6616211 0.32104492 0.6777344
vn -0.6616211 0.32104492 0.6777344
vn -0.6616211 0.32104492 0.6777344
vn -0.6616211 0.32080078 0.6777344
vn 0.6435547 0.38452148 -0.6616211
vn 0.6435547 0.38452148 -0.6616211
vn 0.6435547 0.38452148 -0.6616211
vn 0.6435547 0.38476562 -0.6616211
vn -0.6723633 0.36401367 -0.64453125
vn -0.6723633 0.36401367 -0.64453125
vn -0.6723633 0.36401367 -0.64453125
vn -0.6723633 0.36401367 -0.64453125
vn -0.00061655045 0.95166016 0.30737305
vn -0.00061655045 0.95166016 0.30737305
vn -0.00061655045 0.95166016 0.30737305
vn -0.00049591064 0.95410156 0.2998047
vn -0.3955078 0.91845703 0.007259369
vn -0.3955078 0.91845703 0.007259369
vn -0.3955078 0.91845703 0.007259369
vn -0.4206543 0.90722656 0.0066986084
vn -0.00047397614 0.9633789 -0.2685547
vn -0.00047397614 0.9633789 -0.2685547
vn -0.00047397614 0.9633789 -0.2685547
vn -0.00022184849 0.9589844 -0.28393555
vn 0.3737793 0.9277344 0.0062026978
vn 0.3737793 0.9277344 0.0062026978
vn 0.3737793 0.9277344 0.0062026978
vn 0.38208008 0.9243164 0.006336212
vn -0.00048160553 0.44360352 0.8964844
vn -0.00048160553 0.44360352 0.8964844
vn -0.00048160553 0.44360352 0.8964844
vn -0.00048160553 0.44360352 0.8964844
vn -0.88916016 0.4572754 0.0046195984
vn -0.88916016 0.4572754 0.0046195984
vn -0.88916016 0.4572754 0.0046195984
vn -0.88916016 0.4572754 0.0046195984
vn -5.7816505E-05 0.49731445 -0.8676758
vn -5.7816505E-05 0.49731445 -0.8676758
vn -5.7816505E-05 0.49731445 -0.8676758
vn -5.710125E-05 0.49731445 -0.8676758
vn 0.875 0.484375 0.0022506714
vn 0.875 0.484375 0.0022506714
vn 0.875 0.484375 0.0022506714
vn 0.875 0.484375 0.0022506714
vn -0.0005888939 1 0.017471313
vn -0.0005888939 1 0.017471313
vn -0.0005888939 1 0.017471313
vn -0.0006866455 1 0.017623901
vn -0.001206398 1 0.0104599
vn -0.001206398 1 0.0104599
vn -0.001206398 1 0.0104599
vn -0.0012073517 1 0.0104599
vn -0.0008382797 1 0.022003174
vn -0.0008382797 1 0.022003174
vn -0.0008382797 1 0.022003174
vn -0.00083971024 1 0.022003174
vn -0.00037431717 1 0.0071029663
vn -0.00037431717 1 0.0071029663
vn -0.00037431717 1 0.0071029663
vn -0.00037503242 1 0.007106781
g C001_BB01_0
f 3/3/3 2/2/2 1/1/1
f 6/6/6 5/5/5 4/4/4
f 9/9/9 8/8/8 7/7/7
f 12/12/12 11/11/11 10/10/10
f 15/15/15 14/14/14 13/13/13
f 18/18/18 17/17/17 16/16/16
f 21/21/21 20/20/20 19/19/19
f 24/24/24 23/23/23 22/22/22
f 27/27/27 26/26/26 25/25/25
f 30/30/30 29/29/29 28/28/28
f 33/33/33 32/32/32 31/31/31
f 36/36/36 35/35/35 34/34/34
f 39/39/39 38/38/38 37/37/37
f 42/42/42 41/41/41 40/40/40
f 45/45/45 44/44/44 43/43/43
f 48/48/48 47/47/47 46/46/46
f 51/51/51 50/50/50 49/49/49
f 54/54/54 53/53/53 52/52/52
f 57/57/57 56/56/56 55/55/55
f 60/60/60 59/59/59 58/58/58
f 63/63/63 62/62/62 61/61/61
f 66/66/66 65/65/65 64/64/64
f 69/69/69 68/68/68 67/67/67
f 72/72/72 71/71/71 70/70/70
f 75/75/75 74/74/74 73/73/73
f 78/78/78 77/77/77 76/76/76
f 81/81/81 80/80/80 79/79/79
f 84/84/84 83/83/83 82/82/82
f 87/87/87 86/86/86 85/85/85
f 90/90/90 89/89/89 88/88/88
f 93/93/93 92/92/92 91/91/91
f 96/96/96 95/95/95 94/94/94
f 99/99/99 98/98/98 97/97/97
f 102/102/102 101/101/101 100/100/100
f 105/105/105 104/104/104 103/103/103
f 108/108/108 107/107/107 106/106/106
f 111/111/111 110/110/110 109/109/109
f 114/114/114 113/113/113 112/112/112
f 117/117/117 116/116/116 115/115/115
f 116/116/116 117/117/117 118/118/118
f 121/121/121 120/120/120 119/119/119
f 120/120/120 121/121/121 122/122/122
f 125/125/125 124/124/124 123/123/123
f 124/124/124 125/125/125 126/126/126
f 129/129/129 128/128/128 127/127/127
f 128/128/128 129/129/129 130/130/130
f 133/133/133 132/132/132 131/131/131
f 132/132/132 133/133/133 134/134/134
f 137/137/137 136/136/136 135/135/135
f 136/136/136 137/137/137 138/138/138
f 141/141/141 140/140/140 139/139/139
f 140/140/140 141/141/141 142/142/142
f 145/145/145 144/144/144 143/143/143
f 144/144/144 145/145/145 146/146/146
f 149/149/149 148/148/148 147/147/147
f 148/148/148 149/149/149 150/150/150
f 153/153/153 152/152/152 151/151/151
f 152/152/152 153/153/153 154/154/154
f 157/157/157 156/156/156 155/155/155
f 156/156/156 157/157/157 158/158/158
f 161/161/161 160/160/160 159/159/159
f 160/160/160 161/161/161 162/162/162
f 165/165/165 164/164/164 163/163/163
f 164/164/164 165/165/165 166/166/166
f 169/169/169 168/168/168 167/167/167
f 168/168/168 169/169/169 170/170/170
f 173/173/173 172/172/172 171/171/171
f 172/172/172 173/173/173 174/174/174
f 177/177/177 176/176/176 175/175/175
f 176/176/176 177/177/177 178/178/178
f 181/181/181 180/180/180 179/179/179
f 180/180/180 181/181/181 182/182/182
f 185/185/185 184/184/184 183/183/183
f 184/184/184 185/185/185 186/186/186
f 189/189/189 188/188/188 187/187/187
f 188/188/188 189/189/189 190/190/190
f 193/193/193 192/192/192 191/191/191
f 192/192/192 193/193/193 194/194/194
f 197/197/197 196/196/196 195/195/195
f 196/196/196 197/197/197 198/198/198
f 201/201/201 200/200/200 199/199/199
f 200/200/200 201/201/201 202/202/202
f 205/205/205 204/204/204 203/203/203
f 204/204/204 205/205/205 206/206/206
f 209/209/209 208/208/208 207/207/207
f 208/208/208 209/209/209 210/210/210
f 213/213/213 212/212/212 211/211/211
f 212/212/212 213/213/213 214/214/214
f 217/217/217 216/216/216 215/215/215
f 216/216/216 217/217/217 218/218/218
f 221/221/221 220/220/220 219/219/219
f 220/220/220 221/221/221 222/222/222
f 225/225/225 224/224/224 223/223/223
f 224/224/224 225/225/225 226/226/226
f 229/229/229 228/228/228 227/227/227
f 228/228/228 229/229/229 230/230/230
f 233/233/233 232/232/232 231/231/231
f 232/232/232 233/233/233 234/234/234
f 237/237/237 236/236/236 235/235/235
f 236/236/236 237/237/237 238/238/238
f 241/241/241 240/240/240 239/239/239
f 240/240/240 241/241/241 242/242/242
f 245/245/245 244/244/244 243/243/243
f 244/244/244 245/245/245 246/246/246
f 249/249/249 248/248/248 247/247/247
f 248/248/248 249/249/249 250/250/250
f 253/253/253 252/252/252 251/251/251
f 252/252/252 253/253/253 254/254/254
f 257/257/257 256/256/256 255/255/255
f 256/256/256 257/257/257 258/258/258
f 261/261/261 260/260/260 259/259/259
f 260/260/260 261/261/261 262/262/262
g C001_BB01_1
f 265/265/265 264/264/264 263/263/263
f 264/264/264 265/265/265 266/266/266
f 269/269/269 268/268/268 267/267/267
f 268/268/268 269/269/269 270/270/270
f 273/273/273 272/272/272 271/271/271
f 272/272/272 273/273/273 274/274/274
f 277/277/277 276/276/276 275/275/275
f 276/276/276 277/277/277 278/278/278
g C001_BB01_2
f 281/281/281 280/280/280 279/279/279
f 284/284/284 283/283/283 282/282/282
f 287/287/287 286/286/286 285/285/285
f 290/290/290 289/289/289 288/288/288
f 293/293/293 292/292/292 291/291/291
f 296/296/296 295/295/295 294/294/294
f 299/299/299 298/298/298 297/297/297
f 302/302/302 301/301/301 300/300/300
f 305/305/305 304/304/304 303/303/303
f 308/308/308 307/307/307 306/306/306
f 311/311/311 310/310/310 309/309/309
f 314/314/314 313/313/313 312/312/312
f 317/317/317 316/316/316 315/315/315
f 320/320/320 319/319/319 318/318/318
f 323/323/323 322/322/322 321/321/321
f 326/326/326 325/325/325 324/324/324
f 329/329/329 328/328/328 327/327/327
f 332/332/332 331/331/331 330/330/330
f 335/335/335 334/334/334 333/333/333
f 334/334/334 335/335/335 336/336/336
f 339/339/339 338/338/338 337/337/337
f 338/338/338 339/339/339 340/340/340
f 343/343/343 342/342/342 341/341/341
f 342/342/342 343/343/343 344/344/344
f 347/347/347 346/346/346 345/345/345
f 346/346/346 347/347/347 348/348/348
f 351/351/351 350/350/350 349/349/349
f 350/350/350 351/351/351 352/352/352
f 355/355/355 354/354/354 353/353/353
f 354/354/354 355/355/355 356/356/356
f 359/359/359 358/358/358 357/357/357
f 358/358/358 359/359/359 360/360/360
f 363/363/363 362/362/362 361/361/361
f 362/362/362 363/363/363 364/364/364
f 367/367/367 366/366/366 365/365/365
f 366/366/366 367/367/367 368/368/368
f 371/371/371 370/370/370 369/369/369
f 370/370/370 371/371/371 372/372/372
f 375/375/375 374/374/374 373/373/373
f 374/374/374 375/375/375 376/376/376
f 379/379/379 378/378/378 377/377/377
f 378/378/378 379/379/379 380/380/380
f 383/383/383 382/382/382 381/381/381
f 382/382/382 383/383/383 384/384/384
f 387/387/387 386/386/386 385/385/385
f 386/386/386 387/387/387 388/388/388
f 391/391/391 390/390/390 389/389/389
f 390/390/390 391/391/391 392/392/392
f 395/395/395 394/394/394 393/393/393
f 394/394/394 395/395/395 396/396/396
f 399/399/399 398/398/398 397/397/397
f 398/398/398 399/399/399 400/400/400
f 403/403/403 402/402/402 401/401/401
f 402/402/402 403/403/403 404/404/404
f 407/407/407 406/406/406 405/405/405
f 406/406/406 407/407/407 408/408/408
f 411/411/411 410/410/410 409/409/409
f 410/410/410 411/411/411 412/412/412
f 415/415/415 414/414/414 413/413/413
f 414/414/414 415/415/415 416/416/416
f 419/419/419 418/418/418 417/417/417
f 418/418/418 419/419/419 420/420/420
f 423/423/423 422/422/422 421/421/421
f 422/422/422 423/423/423 424/424/424
f 427/427/427 426/426/426 425/425/425
f 426/426/426 427/427/427 428/428/428
f 431/431/431 430/430/430 429/429/429
f 430/430/430 431/431/431 432/432/432
f 435/435/435 434/434/434 433/433/433
f 434/434/434 435/435/435 436/436/436
f 439/439/439 438/438/438 437/437/437
f 438/438/438 439/439/439 440/440/440
f 443/443/443 442/442/442 441/441/441
f 442/442/442 443/443/443 444/444/444
f 447/447/447 446/446/446 445/445/445
f 446/446/446 447/447/447 448/448/448
f 451/451/451 450/450/450 449/449/449
f 450/450/450 451/451/451 452/452/452
f 455/455/455 454/454/454 453/453/453
f 454/454/454 455/455/455 456/456/456
f 459/459/459 458/458/458 457/457/457
f 458/458/458 459/459/459 460/460/460
f 463/463/463 462/462/462 461/461/461
f 462/462/462 463/463/463 464/464/464
f 467/467/467 466/466/466 465/465/465
f 466/466/466 467/467/467 468/468/468
f 471/471/471 470/470/470 469/469/469
f 470/470/470 471/471/471 472/472/472
f 475/475/475 474/474/474 473/473/473
f 474/474/474 475/475/475 476/476/476
f 479/479/479 478/478/478 477/477/477
f 478/478/478 479/479/479 480/480/480
f 483/483/483 482/482/482 481/481/481
f 482/482/482 483/483/483 484/484/484
f 487/487/487 486/486/486 485/485/485
f 486/486/486 487/487/487 488/488/488
f 491/491/491 490/490/490 489/489/489
f 490/490/490 491/491/491 492/492/492
f 495/495/495 494/494/494 493/493/493
f 494/494/494 495/495/495 496/496/496
f 499/499/499 498/498/498 497/497/497
f 498/498/498 499/499/499 500/500/500
f 503/503/503 502/502/502 501/501/501
f 502/502/502 503/503/503 504/504/504
f 507/507/507 506/506/506 505/505/505
f 506/506/506 507/507/507 508/508/508
f 511/511/511 510/510/510 509/509/509
f 510/510/510 511/511/511 512/512/512
f 515/515/515 514/514/514 513/513/513
f 514/514/514 515/515/515 516/516/516
f 519/519/519 518/518/518 517/517/517
f 518/518/518 519/519/519 520/520/520
g C001_BB01_3
f 523/523/523 522/522/522 521/521/521
f 522/522/522 523/523/523 524/524/524
f 527/527/527 526/526/526 525/525/525
f 526/526/526 527/527/527 528/528/528
f 531/531/531 530/530/530 529/529/529
f 530/530/530 531/531/531 532/532/532
f 535/535/535 534/534/534 533/533/533
f 534/534/534 535/535/535 536/536/536
