g C001_BB02
v -16.805538 4.245007 14.054663
v -17.34816 4.083201 14.548647
v -17.513039 4.083203 14.341719
v 16.844923 4.245008 13.935635
v 17.553219 4.083201 14.190898
v 17.408903 4.0832 14.427319
v -16.846632 4.245042 -13.9724
v -17.554922 4.083231 -14.227668
v -17.410606 4.0832343 -14.464085
v 16.803839 4.2450404 -14.091431
v 17.346441 4.0832334 -14.585415
v 17.51132 4.083231 -14.378489
v 17.41919 3.621458 14.648989
v -17.337873 3.6246905 14.770327
v 17.408903 4.0832 14.427319
v -17.34816 4.083201 14.548647
v 17.408903 4.0832 14.427319
v -17.337873 3.6246905 14.770327
v -17.667633 3.6246917 14.356464
v -17.709507 3.6214917 -14.212919
v -17.513039 4.083203 14.341719
v -17.554922 4.083231 -14.227668
v -17.513039 4.083203 14.341719
v -17.709507 3.6214917 -14.212919
v -17.337873 3.6246905 14.770327
v -17.667633 3.6246917 14.356464
v -17.34816 4.083201 14.548647
v -17.513039 4.083203 14.341719
v 17.707804 3.621458 14.176147
v 17.41919 3.621458 14.648989
v 17.553219 4.083201 14.190898
v 17.408903 4.0832 14.427319
v -17.709507 3.6214917 -14.212919
v -17.420889 3.621492 -14.685747
v -17.554922 4.083231 -14.227668
v -17.410606 4.0832343 -14.464085
v 17.33615 3.6214917 -14.807082
v 17.665905 3.621491 -14.3932295
v 17.346441 4.0832334 -14.585415
v 17.51132 4.083231 -14.378489
v 17.408903 4.0832 14.427319
v -17.34816 4.083201 14.548647
v 16.844923 4.245008 13.935635
v -16.805538 4.245007 14.054663
v 17.51132 4.083231 -14.378489
v 17.553219 4.083201 14.190898
v 16.803839 4.2450404 -14.091431
v 16.844923 4.245008 13.935635
v -17.410606 4.0832343 -14.464085
v 17.346441 4.0832334 -14.585415
v -16.846632 4.245042 -13.9724
v 16.803839 4.2450404 -14.091431
v -17.513039 4.083203 14.341719
v -17.554922 4.083231 -14.227668
v -16.805538 4.245007 14.054663
v -16.846632 4.245042 -13.9724
v 17.665905 3.621491 -14.3932295
v 17.707804 3.621458 14.176147
v 17.51132 4.083231 -14.378489
v 17.553219 4.083201 14.190898
v -17.420889 3.621492 -14.685747
v 17.33615 3.6214917 -14.807082
v -17.410606 4.0832343 -14.464085
v 17.346441 4.0832334 -14.585415
v -17.336151 -3.6130002 14.807103
v -17.66591 -3.6129978 14.393236
v -17.337873 3.6246905 14.770327
v -17.667633 3.6246917 14.356464
v -17.337873 3.6246905 14.770327
v -17.66591 -3.6129978 14.393236
v -17.420889 3.621492 -14.685747
v -17.709507 3.6214917 -14.212919
v -17.420893 -3.612957 -14.685767
v -17.709505 -3.6129582 -14.21294
v -17.420893 -3.612957 -14.685767
v -17.709507 3.6214917 -14.212919
v -17.66591 -3.6129978 14.393236
v -17.336151 -3.6130002 14.807103
v -17.356712 -4.2450414 14.363744
v 17.709507 -3.612997 14.212918
v 17.400324 -4.245041 14.242435
v 17.420889 -3.6130004 14.68577
v -17.420893 -3.612957 -14.685767
v -17.709505 -3.6129582 -14.21294
v -17.400326 -4.245002 -14.242434
v 17.336159 -3.6129577 -14.807103
v 17.356739 -4.245002 -14.363765
v 17.665909 -3.612959 -14.393258
v -17.337873 3.6246905 14.770327
v 17.41919 3.621458 14.648989
v -17.336151 -3.6130002 14.807103
v 17.420889 -3.6130004 14.68577
v 17.707804 3.621458 14.176147
v 17.665905 3.621491 -14.3932295
v 17.709507 -3.612997 14.212918
v 17.665909 -3.612959 -14.393258
v 17.33615 3.6214917 -14.807082
v -17.420889 3.621492 -14.685747
v 17.336159 -3.6129577 -14.807103
v -17.420893 -3.612957 -14.685767
v -17.709507 3.6214917 -14.212919
v -17.667633 3.6246917 14.356464
v -17.709505 -3.6129582 -14.21294
v -17.66591 -3.6129978 14.393236
v 17.41919 3.621458 14.648989
v 17.707804 3.621458 14.176147
v 17.420889 -3.6130004 14.68577
v 17.709507 -3.612997 14.212918
v 17.665905 3.621491 -14.3932295
v 17.33615 3.6214917 -14.807082
v 17.665909 -3.612959 -14.393258
v 17.336159 -3.6129577 -14.807103
v -17.400326 -4.245002 -14.242434
v -17.709505 -3.6129582 -14.21294
v -17.356712 -4.2450414 14.363744
v -17.66591 -3.6129978 14.393236
v 17.356739 -4.245002 -14.363765
v 17.336159 -3.6129577 -14.807103
v -17.400326 -4.245002 -14.242434
v -17.420893 -3.612957 -14.685767
v 17.400324 -4.245041 14.242435
v 17.709507 -3.612997 14.212918
v 17.356739 -4.245002 -14.363765
v 17.665909 -3.612959 -14.393258
v -17.356712 -4.2450414 14.363744
v -17.336151 -3.6130002 14.807103
v 17.400324 -4.245041 14.242435
v 17.420889 -3.6130004 14.68577
v 17.400324 -4.245041 14.242435
v 17.356739 -4.245002 -14.363765
v -17.356712 -4.2450414 14.363744
v -17.400326 -4.245002 -14.242434
v -16.846632 4.245042 -13.9724
v 16.803839 4.2450404 -14.091431
v -16.805538 4.245007 14.054663
v 16.844923 4.245008 13.935635
vt 0.027618408 0.9404297
vt 0.027618408 0.61035156
vt 0.027618408 0.61035156
vt 0.027618408 0.9404297
vt 0.027618408 0.61035156
vt 0.027618408 0.61035156
vt 0.027618408 0.9404297
vt 0.027618408 0.61035156
vt 0.027618408 0.61035156
vt 0.027618408 0.9404297
vt 0.027618408 0.61035156
vt 0.027618408 0.61035156
vt 0.027618408 0.006668091
vt 2.6855469 0.006668091
vt 0.027618408 0.61035156
vt 2.6855469 0.61035156
vt 0.027618408 0.61035156
vt 2.6855469 0.006668091
vt 0.027618408 0.006668091
vt 2.6933594 0.006668091
vt 0.027618408 0.61035156
vt 2.6933594 0.61035156
vt 0.027618408 0.61035156
vt 2.6933594 0.006668091
vt 0.027618408 0.006668091
vt 0.027618408 0.006668091
vt 0.027618408 0.61035156
vt 0.027618408 0.61035156
vt 0.027618408 0.006668091
vt 0.027618408 0.006668091
vt 0.027618408 0.61035156
vt 0.027618408 0.61035156
vt 0.027618408 0.006668091
vt 0.027618408 0.006668091
vt 0.027618408 0.61035156
vt 0.027618408 0.61035156
vt 0.027618408 0.006668091
vt 0.027618408 0.006668091
vt 0.027618408 0.61035156
vt 0.027618408 0.61035156
vt 0.027618408 0.61035156
vt 2.6855469 0.61035156
vt 0.027618408 0.9404297
vt 2.6855469 0.9404297
vt 0.027618408 0.61035156
vt 2.6933594 0.61035156
vt 0.027618408 0.9404297
vt 2.6933594 0.9404297
vt 0.027618408 0.61035156
vt 2.6855469 0.61035156
vt 0.027618408 0.9404297
vt 2.6855469 0.9404297
vt 0.027618408 0.61035156
vt 2.6933594 0.61035156
vt 0.027618408 0.9404297
vt 2.6933594 0.9404297
vt 0.027618408 0.006668091
vt 2.6933594 0.006668091
vt 0.027618408 0.61035156
vt 2.6933594 0.61035156
vt 0.027618408 0.006668091
vt 2.6855469 0.006668091
vt 0.027618408 0.61035156
vt 2.6855469 0.61035156
vt -26.984375 -0.81103516
vt -27.046875 -0.8222656
vt -26.984375 0.2734375
vt -27.0625 0.27075195
vt -26.984375 0.2734375
vt -27.046875 -0.8222656
vt -12.109375 0.25561523
vt -12.0390625 0.2529297
vt -12.1171875 -0.8330078
vt -12.0546875 -0.84033203
vt -12.1171875 -0.8330078
vt -12.0390625 0.2529297
vt -27.046875 -0.8222656
vt -26.984375 -0.81103516
vt -26.984375 -0.9223633
vt -21.6875 -0.7944336
vt -21.734375 -0.89990234
vt -21.765625 -0.7895508
vt -12.1171875 -0.8330078
vt -12.0546875 -0.84033203
vt -12.1015625 -0.9448242
vt -17.34375 -0.7919922
vt -17.375 -0.9008789
vt -17.40625 -0.7939453
vt -26.984375 0.2734375
vt -21.75 0.2993164
vt -26.984375 -0.81103516
vt -21.765625 -0.7895508
vt -21.6875 0.29760742
vt -17.390625 0.29589844
vt -21.6875 -0.7944336
vt -17.40625 -0.7939453
vt -17.328125 0.29663086
vt -12.109375 0.25561523
vt -17.34375 -0.7919922
vt -12.1171875 -0.8330078
vt -12.0390625 0.2529297
vt -7.75 0.25097656
vt -12.0546875 -0.84033203
vt -7.75 -0.83984375
vt -21.75 0.2993164
vt -21.6875 0.29760742
vt -21.765625 -0.7895508
vt -21.6875 -0.7944336
vt -17.390625 0.29589844
vt -17.328125 0.29663086
vt -17.40625 -0.7939453
vt -17.34375 -0.7919922
vt -12.1015625 -0.9448242
vt -12.0546875 -0.84033203
vt -7.7617188 -0.9458008
vt -7.75 -0.83984375
vt -17.375 -0.9008789
vt -17.34375 -0.7919922
vt -12.1015625 -0.9448242
vt -12.1171875 -0.8330078
vt -21.734375 -0.89990234
vt -21.6875 -0.7944336
vt -17.375 -0.9008789
vt -17.40625 -0.7939453
vt -26.984375 -0.9223633
vt -26.984375 -0.81103516
vt -21.734375 -0.89990234
vt -21.765625 -0.7895508
vt 4.1640625 -12.703125
vt 4.171875 -8.390625
vt 9.3984375 -12.71875
vt 9.40625 -8.4140625
vt 10.609375 2.6757812
vt 5.5429688 2.65625
vt 10.6015625 6.8945312
vt 5.5351562 6.8789062
vn -0.16870117 0.9765625 0.13452148
vn -0.16870117 0.9765625 0.13452148
vn -0.16870117 0.9765625 0.13452148
vn 0.18286133 0.9765625 0.1116333
vn 0.18286133 0.9765625 0.1116333
vn 0.18286133 0.9765625 0.1116333
vn -0.18286133 0.9765625 -0.1116333
vn -0.18286133 0.9765625 -0.1116333
vn -0.18286133 0.9765625 -0.1116333
vn 0.16882324 0.9765625 -0.13439941
vn 0.16882324 0.9765625 -0.13439941
vn 0.16882324 0.9765625 -0.13439941
vn 0.0031871796 0.43286133 0.9013672
vn 0.0031871796 0.43286133 0.9013672
vn 0.0031871796 0.43286133 0.9013672
vn 0.0031433105 0.43530273 0.9003906
vn 0.0031433105 0.43530273 0.9003906
vn 0.0031433105 0.43530273 0.9003906
vn -0.9477539 0.31958008 0.0013532639
vn -0.9477539 0.31958008 0.0013532639
vn -0.9477539 0.31958008 0.0013532639
vn -0.9482422 0.31762695 0.0013904572
vn -0.9482422 0.31762695 0.0013904572
vn -0.9482422 0.31762695 0.0013904572
vn -0.7524414 0.27294922 0.5996094
vn -0.7524414 0.27294922 0.5996094
vn -0.7524414 0.27294922 0.5996094
vn -0.7524414 0.27294922 0.5996094
vn 0.82421875 0.25976562 0.5029297
vn 0.82421875 0.25976562 0.5029297
vn 0.82421875 0.25976562 0.5029297
vn 0.82421875 0.26000977 0.5029297
vn -0.82421875 0.25976562 -0.5029297
vn -0.82421875 0.25976562 -0.5029297
vn -0.82421875 0.25976562 -0.5029297
vn -0.82421875 0.25976562 -0.5029297
vn 0.7529297 0.27124023 -0.5996094
vn 0.7529297 0.27124023 -0.5996094
vn 0.7529297 0.27124023 -0.5996094
vn 0.7529297 0.27124023 -0.5996094
vn 0.0010871887 0.9501953 0.31152344
vn 0.0010871887 0.9501953 0.31152344
vn 0.0010871887 0.9501953 0.31152344
vn 0.0011053085 0.9501953 0.31225586
vn 0.22277832 0.97509766 -0.00032567978
vn 0.22277832 0.97509766 -0.00032567978
vn 0.22277832 0.97509766 -0.00032567978
vn 0.22277832 0.97509766 -0.00032544136
vn -0.0010871887 0.9501953 -0.31152344
vn -0.0010871887 0.9501953 -0.31152344
vn -0.0010871887 0.9501953 -0.31152344
vn -0.0011053085 0.9501953 -0.31225586
vn -0.22277832 0.97509766 0.00032758713
vn -0.22277832 0.97509766 0.00032758713
vn -0.22277832 0.97509766 0.00032758713
vn -0.22277832 0.97509766 0.00032782555
vn 0.9482422 0.31762695 -0.0013904572
vn 0.9482422 0.31762695 -0.0013904572
vn 0.9482422 0.31762695 -0.0013904572
vn 0.9482422 0.31762695 -0.0013904572
vn -0.0031471252 0.43286133 -0.9013672
vn -0.0031471252 0.43286133 -0.9013672
vn -0.0031471252 0.43286133 -0.9013672
vn -0.0031471252 0.43286133 -0.9013672
vn -0.78222656 0.0029792786 0.6230469
vn -0.78222656 0.0029792786 0.6230469
vn -0.78222656 0.0029792786 0.6230469
vn -0.78222656 0.0029792786 0.6230469
vn -0.78222656 0.0029792786 0.6230469
vn -0.78222656 0.0029792786 0.6230469
vn -0.8535156 1.7881393E-06 -0.5209961
vn -0.8535156 1.7881393E-06 -0.5209961
vn -0.8535156 1.7881393E-06 -0.5209961
vn -0.8535156 1.1920929E-06 -0.5209961
vn -0.8535156 1.1920929E-06 -0.5209961
vn -0.8535156 1.1920929E-06 -0.5209961
vn -0.72314453 -0.38061523 0.5761719
vn -0.72314453 -0.38061523 0.5761719
vn -0.72314453 -0.38061523 0.5761719
vn 0.7944336 -0.3659668 0.48486328
vn 0.7944336 -0.3659668 0.48486328
vn 0.7944336 -0.3659668 0.48486328
vn -0.7944336 -0.3659668 -0.48486328
vn -0.7944336 -0.3659668 -0.48486328
vn -0.7944336 -0.3659668 -0.48486328
vn 0.72314453 -0.38061523 -0.5761719
vn 0.72314453 -0.38061523 -0.5761719
vn 0.72314453 -0.38061523 -0.5761719
vn 0.0034923553 0.0050811768 1
vn 0.0034923553 0.0050811768 1
vn 0.0034923553 0.0050811768 1
vn 0.003490448 0.0050849915 1
vn 1 0.00022804737 -0.0014667511
vn 1 0.00022804737 -0.0014667511
vn 1 0.00022804737 -0.0014667511
vn 1 6.556511E-07 -0.0015239716
vn -0.003490448 2.861023E-06 -1
vn -0.003490448 2.861023E-06 -1
vn -0.003490448 2.861023E-06 -1
vn -0.003490448 2.861023E-06 -1
vn -1 -3.5762787E-07 0.0014657974
vn -1 -3.5762787E-07 0.0014657974
vn -1 -3.5762787E-07 0.0014657974
vn -1 -0.00023007393 0.0015239716
vn 0.8535156 0.0028495789 0.5209961
vn 0.8535156 0.0028495789 0.5209961
vn 0.8535156 0.0028495789 0.5209961
vn 0.8535156 0.0028495789 0.5209961
vn 0.78222656 2.9206276E-06 -0.6230469
vn 0.78222656 2.9206276E-06 -0.6230469
vn 0.78222656 2.9206276E-06 -0.6230469
vn 0.78222656 2.861023E-06 -0.6230469
vn -0.8984375 -0.43945312 0.0013685226
vn -0.8984375 -0.43945312 0.0013685226
vn -0.8984375 -0.43945312 0.0013685226
vn -0.8984375 -0.43945312 0.0013685226
vn -0.0028572083 -0.57421875 -0.81884766
vn -0.0028572083 -0.57421875 -0.81884766
vn -0.0028572083 -0.57421875 -0.81884766
vn -0.0028572083 -0.57421875 -0.81884766
vn 0.8984375 -0.43945312 -0.0013694763
vn 0.8984375 -0.43945312 -0.0013694763
vn 0.8984375 -0.43945312 -0.0013694763
vn 0.8984375 -0.43945312 -0.0013694763
vn 0.0028572083 -0.57421875 0.81884766
vn 0.0028572083 -0.57421875 0.81884766
vn 0.0028572083 -0.57421875 0.81884766
vn 0.0028572083 -0.57421875 0.81884766
vn -0 -1 -1.3709068E-06
vn -0 -1 -1.3709068E-06
vn -0 -1 -1.3709068E-06
vn -0 -1 -1.3709068E-06
vn -0 1 1.2516975E-06
vn -0 1 1.2516975E-06
vn -0 1 1.2516975E-06
vn -0 1 1.1324883E-06
g C001_BB02_0
f 3/3/3 2/2/2 1/1/1
f 6/6/6 5/5/5 4/4/4
f 9/9/9 8/8/8 7/7/7
f 12/12/12 11/11/11 10/10/10
f 15/15/15 14/14/14 13/13/13
f 18/18/18 17/17/17 16/16/16
f 21/21/21 20/20/20 19/19/19
f 24/24/24 23/23/23 22/22/22
f 27/27/27 26/26/26 25/25/25
f 26/26/26 27/27/27 28/28/28
f 31/31/31 30/30/30 29/29/29
f 30/30/30 31/31/31 32/32/32
f 35/35/35 34/34/34 33/33/33
f 34/34/34 35/35/35 36/36/36
f 39/39/39 38/38/38 37/37/37
f 38/38/38 39/39/39 40/40/40
f 43/43/43 42/42/42 41/41/41
f 42/42/42 43/43/43 44/44/44
f 47/47/47 46/46/46 45/45/45
f 46/46/46 47/47/47 48/48/48
f 51/51/51 50/50/50 49/49/49
f 50/50/50 51/51/51 52/52/52
f 55/55/55 54/54/54 53/53/53
f 54/54/54 55/55/55 56/56/56
f 59/59/59 58/58/58 57/57/57
f 58/58/58 59/59/59 60/60/60
f 63/63/63 62/62/62 61/61/61
f 62/62/62 63/63/63 64/64/64
g C001_BB02_1
f 67/67/67 66/66/66 65/65/65
f 70/70/70 69/69/69 68/68/68
f 73/73/73 72/72/72 71/71/71
f 76/76/76 75/75/75 74/74/74
f 79/79/79 78/78/78 77/77/77
f 82/82/82 81/81/81 80/80/80
f 85/85/85 84/84/84 83/83/83
f 88/88/88 87/87/87 86/86/86
f 91/91/91 90/90/90 89/89/89
f 90/90/90 91/91/91 92/92/92
f 95/95/95 94/94/94 93/93/93
f 94/94/94 95/95/95 96/96/96
f 99/99/99 98/98/98 97/97/97
f 98/98/98 99/99/99 100/100/100
f 103/103/103 102/102/102 101/101/101
f 102/102/102 103/103/103 104/104/104
f 107/107/107 106/106/106 105/105/105
f 106/106/106 107/107/107 108/108/108
f 111/111/111 110/110/110 109/109/109
f 110/110/110 111/111/111 112/112/112
f 115/115/115 114/114/114 113/113/113
f 114/114/114 115/115/115 116/116/116
f 119/119/119 118/118/118 117/117/117
f 118/118/118 119/119/119 120/120/120
f 123/123/123 122/122/122 121/121/121
f 122/122/122 123/123/123 124/124/124
f 127/127/127 126/126/126 125/125/125
f 126/126/126 127/127/127 128/128/128
g C001_BB02_2
f 131/131/131 130/130/130 129/129/129
f 130/130/130 131/131/131 132/132/132
g C001_BB02_3
f 135/135/135 134/134/134 133/133/133
f 134/134/134 135/135/135 136/136/136
