g C001_BB01
v -17.363237 4.2450104 14.054663
v -17.905859 4.0832047 14.548647
v -18.070738 4.0832067 14.341719
v 17.402632 4.245011 13.935635
v 18.110922 4.0832043 14.190898
v 17.966606 4.083204 14.427319
v -17.404331 4.245042 -13.9724
v -18.112621 4.0832305 -14.227668
v -17.968306 4.083234 -14.464085
v 17.361547 4.2450395 -14.091431
v 17.904144 4.083233 -14.585415
v 18.069029 4.08323 -14.378489
v 17.976898 3.6214612 14.648989
v -17.895573 3.6246932 14.770327
v 17.966606 4.083204 14.427319
v -17.905859 4.0832047 14.548647
v 17.966606 4.083204 14.427319
v -17.895573 3.6246932 14.770327
v -18.225332 3.6246943 14.356464
v -18.267206 3.6214907 -14.212919
v -18.070738 4.0832067 14.341719
v -18.112621 4.0832305 -14.227668
v -18.070738 4.0832067 14.341719
v -18.267206 3.6214907 -14.212919
v -17.895573 3.6246932 14.770327
v -18.225332 3.6246943 14.356464
v -17.905859 4.0832047 14.548647
v -18.070738 4.0832067 14.341719
v 18.265512 3.6214612 14.176147
v 17.976898 3.6214612 14.648989
v 18.110922 4.0832043 14.190898
v 17.966606 4.083204 14.427319
v -18.267206 3.6214907 -14.212919
v -17.978588 3.6214907 -14.685747
v -18.112621 4.0832305 -14.227668
v -17.968306 4.083234 -14.464085
v 17.893852 3.6214905 -14.807082
v 18.223608 3.62149 -14.3932295
v 17.904144 4.083233 -14.585415
v 18.069029 4.08323 -14.378489
v 17.966606 4.083204 14.427319
v -17.905859 4.0832047 14.548647
v 17.402632 4.245011 13.935635
v -17.363237 4.2450104 14.054663
v 18.069029 4.08323 -14.378489
v 18.110922 4.0832043 14.190898
v 17.361547 4.2450395 -14.091431
v 17.402632 4.245011 13.935635
v -17.968306 4.083234 -14.464085
v 17.904144 4.083233 -14.585415
v -17.404331 4.245042 -13.9724
v 17.361547 4.2450395 -14.091431
v -18.070738 4.0832067 14.341719
v -18.112621 4.0832305 -14.227668
v -17.363237 4.2450104 14.054663
v -17.404331 4.245042 -13.9724
v 18.223608 3.62149 -14.3932295
v 18.265512 3.6214612 14.176147
v 18.069029 4.08323 -14.378489
v 18.110922 4.0832043 14.190898
v -17.978588 3.6214907 -14.685747
v 17.893852 3.6214905 -14.807082
v -17.968306 4.083234 -14.464085
v 17.904144 4.083233 -14.585415
v -17.89385 -3.612997 14.807104
v -18.22361 -3.6129937 14.393237
v -17.895573 3.6246932 14.770327
v -18.225332 3.6246943 14.356464
v -17.895573 3.6246932 14.770327
v -18.22361 -3.6129937 14.393237
v -17.978588 3.6214907 -14.685747
v -18.267206 3.6214907 -14.212919
v -17.97859 -3.6129577 -14.685766
v -18.267204 -3.612959 -14.212939
v -17.97859 -3.6129577 -14.685766
v -18.267206 3.6214907 -14.212919
v -18.22361 -3.6129937 14.393237
v -17.89385 -3.612997 14.807104
v -17.914412 -4.2450385 14.363745
v 18.267212 -3.6129937 14.212919
v 17.958033 -4.2450376 14.242436
v 17.978598 -3.6129973 14.685771
v -17.97859 -3.6129577 -14.685766
v -18.267204 -3.612959 -14.212939
v -17.958025 -4.2450023 -14.242433
v 17.893862 -3.6129582 -14.807101
v 17.914448 -4.2450023 -14.363763
v 18.223618 -3.6129596 -14.393256
v -17.895573 3.6246932 14.770327
v 17.976898 3.6214612 14.648989
v -17.89385 -3.612997 14.807104
v 17.978598 -3.6129973 14.685771
v 18.265512 3.6214612 14.176147
v 18.223608 3.62149 -14.3932295
v 18.267212 -3.6129937 14.212919
v 18.223618 -3.6129596 -14.393256
v 17.893852 3.6214905 -14.807082
v -17.978588 3.6214907 -14.685747
v 17.893862 -3.6129582 -14.807101
v -17.97859 -3.6129577 -14.685766
v -18.267206 3.6214907 -14.212919
v -18.225332 3.6246943 14.356464
v -18.267204 -3.612959 -14.212939
v -18.22361 -3.6129937 14.393237
v 17.976898 3.6214612 14.648989
v 18.265512 3.6214612 14.176147
v 17.978598 -3.6129973 14.685771
v 18.267212 -3.6129937 14.212919
v 18.223608 3.62149 -14.3932295
v 17.893852 3.6214905 -14.807082
v 18.223618 -3.6129596 -14.393256
v 17.893862 -3.6129582 -14.807101
v -17.958025 -4.2450023 -14.242433
v -18.267204 -3.612959 -14.212939
v -17.914412 -4.2450385 14.363745
v -18.22361 -3.6129937 14.393237
v 17.914448 -4.2450023 -14.363763
v 17.893862 -3.6129582 -14.807101
v -17.958025 -4.2450023 -14.242433
v -17.97859 -3.6129577 -14.685766
v 17.958033 -4.2450376 14.242436
v 18.267212 -3.6129937 14.212919
v 17.914448 -4.2450023 -14.363763
v 18.223618 -3.6129596 -14.393256
v -17.914412 -4.2450385 14.363745
v -17.89385 -3.612997 14.807104
v 17.958033 -4.2450376 14.242436
v 17.978598 -3.6129973 14.685771
v 17.958033 -4.2450376 14.242436
v 17.914448 -4.2450023 -14.363763
v -17.914412 -4.2450385 14.363745
v -17.958025 -4.2450023 -14.242433
v -17.404331 4.245042 -13.9724
v 17.361547 4.2450395 -14.091431
v -17.363237 4.2450104 14.054663
v 17.402632 4.245011 13.935635
vt 0.027618408 0.9404297
vt 0.027618408 0.61035156
vt 0.027618408 0.61035156
vt 0.027618408 0.9404297
vt 0.027618408 0.61035156
vt 0.027618408 0.61035156
vt 0.027618408 0.9404297
vt 0.027618408 0.61035156
vt 0.027618408 0.61035156
vt 0.027618408 0.9404297
vt 0.027618408 0.61035156
vt 0.027618408 0.61035156
vt 0.027618408 0.006668091
vt 2.6855469 0.006668091
vt 0.027618408 0.61035156
vt 2.6855469 0.61035156
vt 0.027618408 0.61035156
vt 2.6855469 0.006668091
vt 0.027618408 0.006668091
vt 2.6933594 0.006668091
vt 0.027618408 0.61035156
vt 2.6933594 0.61035156
vt 0.027618408 0.61035156
vt 2.6933594 0.006668091
vt 0.027618408 0.006668091
vt 0.027618408 0.006668091
vt 0.027618408 0.61035156
vt 0.027618408 0.61035156
vt 0.027618408 0.006668091
vt 0.027618408 0.006668091
vt 0.027618408 0.61035156
vt 0.027618408 0.61035156
vt 0.027618408 0.006668091
vt 0.027618408 0.006668091
vt 0.027618408 0.61035156
vt 0.027618408 0.61035156
vt 0.027618408 0.006668091
vt 0.027618408 0.006668091
vt 0.027618408 0.61035156
vt 0.027618408 0.61035156
vt 0.027618408 0.61035156
vt 2.6855469 0.61035156
vt 0.027618408 0.9404297
vt 2.6855469 0.9404297
vt 0.027618408 0.61035156
vt 2.6933594 0.61035156
vt 0.027618408 0.9404297
vt 2.6933594 0.9404297
vt 0.027618408 0.61035156
vt 2.6855469 0.61035156
vt 0.027618408 0.9404297
vt 2.6855469 0.9404297
vt 0.027618408 0.61035156
vt 2.6933594 0.61035156
vt 0.027618408 0.9404297
vt 2.6933594 0.9404297
vt 0.027618408 0.006668091
vt 2.6933594 0.006668091
vt 0.027618408 0.61035156
vt 2.6933594 0.61035156
vt 0.027618408 0.006668091
vt 2.6855469 0.006668091
vt 0.027618408 0.61035156
vt 2.6855469 0.61035156
vt -23.453125 1.4404297
vt -23.53125 1.4306641
vt -23.453125 2.5058594
vt -23.53125 2.5058594
vt -23.453125 2.5058594
vt -23.53125 1.4306641
vt -8.546875 2.5058594
vt -8.484375 2.5058594
vt -8.5625 1.4384766
vt -8.5 1.4326172
vt -8.5625 1.4384766
vt -8.484375 2.5058594
vt -23.53125 1.4306641
vt -23.453125 1.4404297
vt -23.46875 1.3310547
vt -18.109375 1.4345703
vt -18.140625 1.3300781
vt -18.171875 1.4384766
vt -8.5625 1.4384766
vt -8.5 1.4326172
vt -8.5390625 1.3291016
vt -13.84375 1.4384766
vt -13.8828125 1.3300781
vt -13.8984375 1.4345703
vt -23.453125 2.5058594
vt -18.171875 2.5058594
vt -23.453125 1.4404297
vt -18.171875 1.4384766
vt -18.09375 2.5058594
vt -13.890625 2.5058594
vt -18.109375 1.4345703
vt -13.8984375 1.4345703
vt -13.828125 2.5058594
vt -8.546875 2.5058594
vt -13.84375 1.4384766
vt -8.5625 1.4384766
vt -8.484375 2.5058594
vt -4.28125 2.5058594
vt -8.5 1.4326172
vt -4.2734375 1.4335938
vt -18.171875 2.5058594
vt -18.09375 2.5058594
vt -18.171875 1.4384766
vt -18.109375 1.4345703
vt -13.890625 2.5058594
vt -13.828125 2.5058594
vt -13.8984375 1.4345703
vt -13.84375 1.4384766
vt -8.5390625 1.3291016
vt -8.5 1.4326172
vt -4.2851562 1.3291016
vt -4.2734375 1.4335938
vt -13.8828125 1.3300781
vt -13.84375 1.4384766
vt -8.5390625 1.3291016
vt -8.5625 1.4384766
vt -18.140625 1.3300781
vt -18.109375 1.4345703
vt -13.8828125 1.3300781
vt -13.8984375 1.4345703
vt -23.46875 1.3310547
vt -23.453125 1.4404297
vt -18.140625 1.3300781
vt -18.171875 1.4384766
vt 7.5039062 -8.6171875
vt 7.5117188 -4.3984375
vt 12.796875 -8.640625
vt 12.8046875 -4.4140625
vt 12.0390625 3.9511719
vt 6.9101562 3.9335938
vt 12.03125 8.0859375
vt 6.9023438 8.0703125
vn -0.16870117 0.9765625 0.13452148
vn -0.16870117 0.9765625 0.13452148
vn -0.16870117 0.9765625 0.13452148
vn 0.18286133 0.9765625 0.1116333
vn 0.18286133 0.9765625 0.1116333
vn 0.18286133 0.9765625 0.1116333
vn -0.18286133 0.9765625 -0.1116333
vn -0.18286133 0.9765625 -0.1116333
vn -0.18286133 0.9765625 -0.1116333
vn 0.16882324 0.9765625 -0.13452148
vn 0.16882324 0.9765625 -0.13452148
vn 0.16882324 0.9765625 -0.13452148
vn 0.0030879974 0.43286133 0.9013672
vn 0.0030879974 0.43286133 0.9013672
vn 0.0030879974 0.43286133 0.9013672
vn 0.0030441284 0.43530273 0.9003906
vn 0.0030441284 0.43530273 0.9003906
vn 0.0030441284 0.43530273 0.9003906
vn -0.9477539 0.31958008 0.0013532639
vn -0.9477539 0.31958008 0.0013532639
vn -0.9477539 0.31958008 0.0013532639
vn -0.9482422 0.31762695 0.0013904572
vn -0.9482422 0.31762695 0.0013904572
vn -0.9482422 0.31762695 0.0013904572
vn -0.7524414 0.27294922 0.5996094
vn -0.7524414 0.27294922 0.5996094
vn -0.7524414 0.27294922 0.5996094
vn -0.7524414 0.27294922 0.5996094
vn 0.82421875 0.25976562 0.5029297
vn 0.82421875 0.25976562 0.5029297
vn 0.82421875 0.25976562 0.5029297
vn 0.82421875 0.26000977 0.5029297
vn -0.82421875 0.25976562 -0.5029297
vn -0.82421875 0.25976562 -0.5029297
vn -0.82421875 0.25976562 -0.5029297
vn -0.82421875 0.25976562 -0.5029297
vn 0.7529297 0.27124023 -0.5996094
vn 0.7529297 0.27124023 -0.5996094
vn 0.7529297 0.27124023 -0.5996094
vn 0.7529297 0.27124023 -0.5996094
vn 0.0010538101 0.9501953 0.31152344
vn 0.0010538101 0.9501953 0.31152344
vn 0.0010538101 0.9501953 0.31152344
vn 0.0010690689 0.9501953 0.31225586
vn 0.22277832 0.97509766 -0.0003259182
vn 0.22277832 0.97509766 -0.0003259182
vn 0.22277832 0.97509766 -0.0003259182
vn 0.22277832 0.97509766 -0.00032567978
vn -0.0010538101 0.9501953 -0.31152344
vn -0.0010538101 0.9501953 -0.31152344
vn -0.0010538101 0.9501953 -0.31152344
vn -0.0010690689 0.9501953 -0.31225586
vn -0.22277832 0.97509766 0.00032758713
vn -0.22277832 0.97509766 0.00032758713
vn -0.22277832 0.97509766 0.00032758713
vn -0.22277832 0.97509766 0.00032782555
vn 0.9482422 0.3173828 -0.0013904572
vn 0.9482422 0.3173828 -0.0013904572
vn 0.9482422 0.3173828 -0.0013904572
vn 0.9482422 0.31762695 -0.0013904572
vn -0.0030498505 0.43286133 -0.9013672
vn -0.0030498505 0.43286133 -0.9013672
vn -0.0030498505 0.43286133 -0.9013672
vn -0.0030498505 0.43286133 -0.9013672
vn -0.78222656 0.0029792786 0.6230469
vn -0.78222656 0.0029792786 0.6230469
vn -0.78222656 0.0029792786 0.6230469
vn -0.78222656 0.0029792786 0.6230469
vn -0.78222656 0.0029792786 0.6230469
vn -0.78222656 0.0029792786 0.6230469
vn -0.8535156 1.66893E-06 -0.5209961
vn -0.8535156 1.66893E-06 -0.5209961
vn -0.8535156 1.66893E-06 -0.5209961
vn -0.8535156 1.1324883E-06 -0.5209961
vn -0.8535156 1.1324883E-06 -0.5209961
vn -0.8535156 1.1324883E-06 -0.5209961
vn -0.72314453 -0.38061523 0.5761719
vn -0.72314453 -0.38061523 0.5761719
vn -0.72314453 -0.38061523 0.5761719
vn 0.7944336 -0.3659668 0.48486328
vn 0.7944336 -0.3659668 0.48486328
vn 0.7944336 -0.3659668 0.48486328
vn -0.7944336 -0.3659668 -0.48486328
vn -0.7944336 -0.3659668 -0.48486328
vn -0.7944336 -0.3659668 -0.48486328
vn 0.72314453 -0.38061523 -0.5761719
vn 0.72314453 -0.38061523 -0.5761719
vn 0.72314453 -0.38061523 -0.5761719
vn 0.0033836365 0.0050811768 1
vn 0.0033836365 0.0050811768 1
vn 0.0033836365 0.0050811768 1
vn 0.0033817291 0.0050849915 1
vn 1 0.00022745132 -0.0014667511
vn 1 0.00022745132 -0.0014667511
vn 1 0.00022745132 -0.0014667511
vn 1 1.3709068E-06 -0.0015239716
vn -0.0033817291 2.682209E-06 -1
vn -0.0033817291 2.682209E-06 -1
vn -0.0033817291 2.682209E-06 -1
vn -0.0033817291 2.682209E-06 -1
vn -1 -3.5762787E-07 0.0014657974
vn -1 -3.5762787E-07 0.0014657974
vn -1 -3.5762787E-07 0.0014657974
vn -1 -0.00023007393 0.0015239716
vn 0.8535156 0.0028495789 0.5209961
vn 0.8535156 0.0028495789 0.5209961
vn 0.8535156 0.0028495789 0.5209961
vn 0.8535156 0.0028495789 0.5209961
vn 0.78222656 3.3974648E-06 -0.6230469
vn 0.78222656 3.3974648E-06 -0.6230469
vn 0.78222656 3.3974648E-06 -0.6230469
vn 0.78222656 2.7418137E-06 -0.6230469
vn -0.8984375 -0.43945312 0.0013685226
vn -0.8984375 -0.43945312 0.0013685226
vn -0.8984375 -0.43945312 0.0013685226
vn -0.8984375 -0.43945312 0.0013685226
vn -0.0027694702 -0.57421875 -0.81884766
vn -0.0027694702 -0.57421875 -0.81884766
vn -0.0027694702 -0.57421875 -0.81884766
vn -0.0027694702 -0.57421875 -0.81884766
vn 0.8984375 -0.43945312 -0.0013694763
vn 0.8984375 -0.43945312 -0.0013694763
vn 0.8984375 -0.43945312 -0.0013694763
vn 0.8984375 -0.43945312 -0.0013694763
vn 0.0027675629 -0.57421875 0.81884766
vn 0.0027675629 -0.57421875 0.81884766
vn 0.0027675629 -0.57421875 0.81884766
vn 0.0027694702 -0.57421875 0.81884766
vn -0 -1 -1.2516975E-06
vn -0 -1 -1.2516975E-06
vn -0 -1 -1.2516975E-06
vn -0 -1 -1.2516975E-06
vn -0 1 1.1324883E-06
vn -0 1 1.1324883E-06
vn -0 1 1.1324883E-06
vn -0 1 1.013279E-06
g C001_BB01_0
f 3/3/3 2/2/2 1/1/1
f 6/6/6 5/5/5 4/4/4
f 9/9/9 8/8/8 7/7/7
f 12/12/12 11/11/11 10/10/10
f 15/15/15 14/14/14 13/13/13
f 18/18/18 17/17/17 16/16/16
f 21/21/21 20/20/20 19/19/19
f 24/24/24 23/23/23 22/22/22
f 27/27/27 26/26/26 25/25/25
f 26/26/26 27/27/27 28/28/28
f 31/31/31 30/30/30 29/29/29
f 30/30/30 31/31/31 32/32/32
f 35/35/35 34/34/34 33/33/33
f 34/34/34 35/35/35 36/36/36
f 39/39/39 38/38/38 37/37/37
f 38/38/38 39/39/39 40/40/40
f 43/43/43 42/42/42 41/41/41
f 42/42/42 43/43/43 44/44/44
f 47/47/47 46/46/46 45/45/45
f 46/46/46 47/47/47 48/48/48
f 51/51/51 50/50/50 49/49/49
f 50/50/50 51/51/51 52/52/52
f 55/55/55 54/54/54 53/53/53
f 54/54/54 55/55/55 56/56/56
f 59/59/59 58/58/58 57/57/57
f 58/58/58 59/59/59 60/60/60
f 63/63/63 62/62/62 61/61/61
f 62/62/62 63/63/63 64/64/64
g C001_BB01_1
f 67/67/67 66/66/66 65/65/65
f 70/70/70 69/69/69 68/68/68
f 73/73/73 72/72/72 71/71/71
f 76/76/76 75/75/75 74/74/74
f 79/79/79 78/78/78 77/77/77
f 82/82/82 81/81/81 80/80/80
f 85/85/85 84/84/84 83/83/83
f 88/88/88 87/87/87 86/86/86
f 91/91/91 90/90/90 89/89/89
f 90/90/90 91/91/91 92/92/92
f 95/95/95 94/94/94 93/93/93
f 94/94/94 95/95/95 96/96/96
f 99/99/99 98/98/98 97/97/97
f 98/98/98 99/99/99 100/100/100
f 103/103/103 102/102/102 101/101/101
f 102/102/102 103/103/103 104/104/104
f 107/107/107 106/106/106 105/105/105
f 106/106/106 107/107/107 108/108/108
f 111/111/111 110/110/110 109/109/109
f 110/110/110 111/111/111 112/112/112
f 115/115/115 114/114/114 113/113/113
f 114/114/114 115/115/115 116/116/116
f 119/119/119 118/118/118 117/117/117
f 118/118/118 119/119/119 120/120/120
f 123/123/123 122/122/122 121/121/121
f 122/122/122 123/123/123 124/124/124
f 127/127/127 126/126/126 125/125/125
f 126/126/126 127/127/127 128/128/128
g C001_BB01_2
f 131/131/131 130/130/130 129/129/129
f 130/130/130 131/131/131 132/132/132
g C001_BB01_3
f 135/135/135 134/134/134 133/133/133
f 134/134/134 135/135/135 136/136/136
