g C001_BB03
v -20.236141 4.048633 14.054663
v -20.653173 3.8277261 14.548647
v -20.779882 3.8277295 14.341719
v 20.266424 4.048635 13.935635
v 20.810772 3.8277264 14.190898
v 20.699854 3.8277254 14.427319
v -20.267725 4.048679 -13.9724
v -20.812069 3.8277657 -14.227668
v -20.701162 3.82777 -14.464085
v 20.234844 4.048677 -13.964335
v 20.651855 3.8277698 -14.45832
v 20.778564 3.8277655 -14.251393
v 20.707764 3.1973302 14.648989
v -20.645273 3.1968026 14.621707
v 20.699854 3.8277254 14.427319
v -20.653173 3.8277261 14.548647
v 20.699854 3.8277254 14.427319
v -20.645273 3.1968026 14.621707
v -20.8987 3.1968052 14.207845
v -20.930878 3.1973746 -14.212919
v -20.779882 3.8277295 14.341719
v -20.812069 3.8277657 -14.227668
v -20.779882 3.8277295 14.341719
v -20.930878 3.1973746 -14.212919
v -20.645273 3.1968026 14.621707
v -20.8987 3.1968052 14.207845
v -20.653173 3.8277261 14.548647
v -20.779882 3.8277295 14.341719
v 20.92957 3.197331 14.176147
v 20.707764 3.1973302 14.648989
v 20.810772 3.8277264 14.190898
v 20.699854 3.8277254 14.427319
v -20.930878 3.1973746 -14.212919
v -20.709063 3.197375 -14.685747
v -20.812069 3.8277657 -14.227668
v -20.701162 3.82777 -14.464085
v 20.643946 3.1973746 -14.679988
v 20.897373 3.1973736 -14.266135
v 20.651855 3.8277698 -14.45832
v 20.778564 3.8277655 -14.251393
v 20.699854 3.8277254 14.427319
v -20.653173 3.8277261 14.548647
v 20.266424 4.048635 13.935635
v -20.236141 4.048633 14.054663
v 20.778564 3.8277655 -14.251393
v 20.810772 3.8277264 14.190898
v 20.234844 4.048677 -13.964335
v 20.266424 4.048635 13.935635
v -20.701162 3.82777 -14.464085
v 20.651855 3.8277698 -14.45832
v -20.267725 4.048679 -13.9724
v 20.234844 4.048677 -13.964335
v -20.779882 3.8277295 14.341719
v -20.812069 3.8277657 -14.227668
v -20.236141 4.048633 14.054663
v -20.267725 4.048679 -13.9724
v 20.897373 3.1973736 -14.266135
v 20.92957 3.197331 14.176147
v 20.778564 3.8277655 -14.251393
v 20.810772 3.8277264 14.190898
v -20.709063 3.197375 -14.685747
v 20.643946 3.1973746 -14.679988
v -20.701162 3.82777 -14.464085
v 20.651855 3.8277698 -14.45832
v -20.643934 -3.185785 14.6584835
v -20.897373 -3.1857812 14.2446165
v -20.645273 3.1968026 14.621707
v -20.8987 3.1968052 14.207845
v -20.645273 3.1968026 14.621707
v -20.897373 -3.1857812 14.2446165
v -20.709063 3.197375 -14.685747
v -20.930878 3.1973746 -14.212919
v -20.709072 -3.1857295 -14.685767
v -20.930878 -3.1857302 -14.21294
v -20.709072 -3.1857295 -14.685767
v -20.930878 3.1973746 -14.212919
v -20.897373 -3.1857812 14.2446165
v -20.643934 -3.185785 14.6584835
v -20.659746 -4.0486827 14.215124
v 20.930878 -3.1857822 14.212918
v 20.693262 -4.048682 14.24243
v 20.709063 -3.1857858 14.68577
v -20.709072 -3.1857295 -14.685767
v -20.930878 -3.1857302 -14.21294
v -20.693262 -4.0486298 -14.242432
v 20.643946 -3.1857295 -14.680006
v 20.659765 -4.0486298 -14.236669
v 20.897373 -3.1857302 -14.266161
v -20.645273 3.1968026 14.621707
v 20.707764 3.1973302 14.648989
v -20.643934 -3.185785 14.6584835
v 20.709063 -3.1857858 14.68577
v 20.92957 3.197331 14.176147
v 20.897373 3.1973736 -14.266135
v 20.930878 -3.1857822 14.212918
v 20.897373 -3.1857302 -14.266161
v 20.643946 3.1973746 -14.679988
v -20.709063 3.197375 -14.685747
v 20.643946 -3.1857295 -14.680006
v -20.709072 -3.1857295 -14.685767
v -20.930878 3.1973746 -14.212919
v -20.8987 3.1968052 14.207845
v -20.930878 -3.1857302 -14.21294
v -20.897373 -3.1857812 14.2446165
v 20.707764 3.1973302 14.648989
v 20.92957 3.197331 14.176147
v 20.709063 -3.1857858 14.68577
v 20.930878 -3.1857822 14.212918
v 20.897373 3.1973736 -14.266135
v 20.643946 3.1973746 -14.679988
v 20.897373 -3.1857302 -14.266161
v 20.643946 -3.1857295 -14.680006
v -20.693262 -4.0486298 -14.242432
v -20.930878 -3.1857302 -14.21294
v -20.659746 -4.0486827 14.215124
v -20.897373 -3.1857812 14.2446165
v 20.659765 -4.0486298 -14.236669
v 20.643946 -3.1857295 -14.680006
v -20.693262 -4.0486298 -14.242432
v -20.709072 -3.1857295 -14.685767
v 20.693262 -4.048682 14.24243
v 20.930878 -3.1857822 14.212918
v 20.659765 -4.0486298 -14.236669
v 20.897373 -3.1857302 -14.266161
v -20.659746 -4.0486827 14.215124
v -20.643934 -3.185785 14.6584835
v 20.693262 -4.048682 14.24243
v 20.709063 -3.1857858 14.68577
v 20.693262 -4.048682 14.24243
v 20.659765 -4.0486298 -14.236669
v -20.659746 -4.0486827 14.215124
v -20.693262 -4.0486298 -14.242432
v -20.267725 4.048679 -13.9724
v 20.234844 4.048677 -13.964335
v -20.236141 4.048633 14.054663
v 20.266424 4.048635 13.935635
vt 0.027618408 0.9404297
vt 0.027618408 0.61035156
vt 0.027618408 0.61035156
vt 0.027618408 0.9404297
vt 0.027618408 0.61035156
vt 0.027618408 0.61035156
vt 0.027618408 0.9404297
vt 0.027618408 0.61035156
vt 0.027618408 0.61035156
vt 0.027618408 0.9404297
vt 0.027618408 0.61035156
vt 0.027618408 0.61035156
vt 0.027618408 0.006668091
vt 2.6855469 0.006668091
vt 0.027618408 0.61035156
vt 2.6855469 0.61035156
vt 0.027618408 0.61035156
vt 2.6855469 0.006668091
vt 0.027618408 0.006668091
vt 2.6933594 0.006668091
vt 0.027618408 0.61035156
vt 2.6933594 0.61035156
vt 0.027618408 0.61035156
vt 2.6933594 0.006668091
vt 0.027618408 0.006668091
vt 0.027618408 0.006668091
vt 0.027618408 0.61035156
vt 0.027618408 0.61035156
vt 0.027618408 0.006668091
vt 0.027618408 0.006668091
vt 0.027618408 0.61035156
vt 0.027618408 0.61035156
vt 0.027618408 0.006668091
vt 0.027618408 0.006668091
vt 0.027618408 0.61035156
vt 0.027618408 0.61035156
vt 0.027618408 0.006668091
vt 0.027618408 0.006668091
vt 0.027618408 0.61035156
vt 0.027618408 0.61035156
vt 0.027618408 0.61035156
vt 2.6855469 0.61035156
vt 0.027618408 0.9404297
vt 2.6855469 0.9404297
vt 0.027618408 0.61035156
vt 2.6933594 0.61035156
vt 0.027618408 0.9404297
vt 2.6933594 0.9404297
vt 0.027618408 0.61035156
vt 2.6855469 0.61035156
vt 0.027618408 0.9404297
vt 2.6855469 0.9404297
vt 0.027618408 0.61035156
vt 2.6933594 0.61035156
vt 0.027618408 0.9404297
vt 2.6933594 0.9404297
vt 0.027618408 0.006668091
vt 2.6933594 0.006668091
vt 0.027618408 0.61035156
vt 2.6933594 0.61035156
vt 0.027618408 0.006668091
vt 2.6855469 0.006668091
vt 0.027618408 0.61035156
vt 2.6855469 0.61035156
vt -27.5625 -0.72314453
vt -27.640625 -0.73291016
vt -27.578125 0.18286133
vt -27.640625 0.18054199
vt -27.578125 0.18286133
vt -27.640625 -0.73291016
vt -11.6171875 0.17285156
vt -11.5546875 0.17041016
vt -11.625 -0.7373047
vt -11.5703125 -0.7441406
vt -11.625 -0.7373047
vt -11.5546875 0.17041016
vt -27.640625 -0.73291016
vt -27.5625 -0.72314453
vt -27.578125 -0.85791016
vt -21.625 -0.6923828
vt -21.65625 -0.8208008
vt -21.671875 -0.6875
vt -11.625 -0.7373047
vt -11.5703125 -0.7441406
vt -11.609375 -0.8720703
vt -17.515625 -0.68847656
vt -17.546875 -0.82128906
vt -17.5625 -0.69189453
vt -27.578125 0.18286133
vt -21.671875 0.22277832
vt -27.5625 -0.72314453
vt -21.671875 -0.6875
vt -21.609375 0.2211914
vt -17.5625 0.21960449
vt -21.625 -0.6923828
vt -17.5625 -0.69189453
vt -17.5 0.2208252
vt -11.6171875 0.17285156
vt -17.515625 -0.68847656
vt -11.625 -0.7373047
vt -11.5546875 0.17041016
vt -7.5078125 0.16784668
vt -11.5703125 -0.7441406
vt -7.5078125 -0.7441406
vt -21.671875 0.22277832
vt -21.609375 0.2211914
vt -21.671875 -0.6875
vt -21.625 -0.6923828
vt -17.5625 0.21960449
vt -17.5 0.2208252
vt -17.5625 -0.69189453
vt -17.515625 -0.68847656
vt -11.609375 -0.8720703
vt -11.5703125 -0.7441406
vt -7.5195312 -0.8720703
vt -7.5078125 -0.7441406
vt -17.546875 -0.82128906
vt -17.515625 -0.68847656
vt -11.609375 -0.8720703
vt -11.625 -0.7373047
vt -21.65625 -0.8208008
vt -21.625 -0.6923828
vt -17.546875 -0.82128906
vt -17.5625 -0.69189453
vt -27.578125 -0.85791016
vt -27.5625 -0.72314453
vt -21.65625 -0.8208008
vt -21.671875 -0.6875
vt 3.8300781 -12.5859375
vt 3.8359375 -8.5234375
vt 9.734375 -12.5859375
vt 9.7421875 -8.5234375
vt 10.96875 2.7792969
vt 5.1835938 2.7792969
vt 10.9609375 6.78125
vt 5.1796875 6.7617188
vn -0.28881836 0.94091797 0.17687988
vn -0.28881836 0.94091797 0.17687988
vn -0.28881836 0.94091797 0.17687988
vn 0.31225586 0.93847656 0.14648438
vn 0.31225586 0.93847656 0.14648438
vn 0.31225586 0.93847656 0.14648438
vn -0.31225586 0.93847656 -0.14648438
vn -0.31225586 0.93847656 -0.14648438
vn -0.31225586 0.93847656 -0.14648438
vn 0.28881836 0.94091797 -0.17687988
vn 0.28881836 0.94091797 -0.17687988
vn 0.28881836 0.94091797 -0.17687988
vn -0.000626564 0.3317871 0.9433594
vn -0.000626564 0.3317871 0.9433594
vn -0.000626564 0.3317871 0.9433594
vn 0.0029144287 0.11505127 0.99316406
vn 0.0029144287 0.11505127 0.99316406
vn 0.0029144287 0.11505127 0.99316406
vn -0.98291016 0.18481445 0.0011167526
vn -0.98291016 0.18481445 0.0011167526
vn -0.98291016 0.18481445 0.0011167526
vn -0.98291016 0.18518066 0.0011072159
vn -0.98291016 0.18518066 0.0011072159
vn -0.98291016 0.18518066 0.0011072159
vn -0.8515625 0.049743652 0.5214844
vn -0.8515625 0.049743652 0.5214844
vn -0.8515625 0.049743652 0.5214844
vn -0.8515625 0.049743652 0.5214844
vn 0.89404297 0.1586914 0.41918945
vn 0.89404297 0.1586914 0.41918945
vn 0.89404297 0.1586914 0.41918945
vn 0.89404297 0.1586914 0.4194336
vn -0.89404297 0.1586914 -0.4194336
vn -0.89404297 0.1586914 -0.4194336
vn -0.89404297 0.1586914 -0.4194336
vn -0.89404297 0.1586914 -0.4194336
vn 0.84033203 0.17041016 -0.51464844
vn 0.84033203 0.17041016 -0.51464844
vn 0.84033203 0.17041016 -0.51464844
vn 0.84033203 0.17041016 -0.51464844
vn 0.0011997223 0.91259766 0.40893555
vn 0.0011997223 0.91259766 0.40893555
vn 0.0011997223 0.91259766 0.40893555
vn 0.0012025833 0.91259766 0.4091797
vn 0.3762207 0.9267578 -0.0004248619
vn 0.3762207 0.9267578 -0.0004248619
vn 0.3762207 0.9267578 -0.0004248619
vn 0.3762207 0.9267578 -0.00042438507
vn 5.7160854E-05 0.9121094 -0.4099121
vn 5.7160854E-05 0.9121094 -0.4099121
vn 5.7160854E-05 0.9121094 -0.4099121
vn 8.1300735E-05 0.91308594 -0.40820312
vn -0.3762207 0.9267578 0.00042510033
vn -0.3762207 0.9267578 0.00042510033
vn -0.3762207 0.9267578 0.00042510033
vn -0.3762207 0.9267578 0.00042557716
vn 0.98291016 0.18518066 -0.0011119843
vn 0.98291016 0.18518066 -0.0011119843
vn 0.98291016 0.18518066 -0.0011119843
vn 0.98291016 0.18518066 -0.0011129379
vn 0.00013136864 0.3317871 -0.9433594
vn 0.00013136864 0.3317871 -0.9433594
vn 0.00013136864 0.3317871 -0.9433594
vn 0.00013148785 0.3317871 -0.9433594
vn -0.85302734 0.0028305054 0.52246094
vn -0.85302734 0.0028305054 0.52246094
vn -0.85302734 0.0028305054 0.52246094
vn -0.85302734 0.0028305054 0.52197266
vn -0.85302734 0.0028305054 0.52197266
vn -0.85302734 0.0028305054 0.52197266
vn -0.90527344 2.7418137E-06 -0.4248047
vn -0.90527344 2.7418137E-06 -0.4248047
vn -0.90527344 2.7418137E-06 -0.4248047
vn -0.90527344 1.3709068E-06 -0.4248047
vn -0.90527344 1.3709068E-06 -0.4248047
vn -0.90527344 1.3709068E-06 -0.4248047
vn -0.82666016 -0.24499512 0.50634766
vn -0.82666016 -0.24499512 0.50634766
vn -0.82666016 -0.24499512 0.50634766
vn 0.88134766 -0.22851562 0.41357422
vn 0.88134766 -0.22851562 0.41357422
vn 0.88134766 -0.22851562 0.41357422
vn -0.88134766 -0.22851562 -0.41357422
vn -0.88134766 -0.22851562 -0.41357422
vn -0.88134766 -0.22851562 -0.41357422
vn 0.82666016 -0.24499512 -0.50634766
vn 0.82666016 -0.24499512 -0.50634766
vn 0.82666016 -0.24499512 -0.50634766
vn -0.0006599426 0.005760193 1
vn -0.0006599426 0.005760193 1
vn -0.0006599426 0.005760193 1
vn -0.0006599426 0.005760193 1
vn 1 0.00019848347 -0.0011320114
vn 1 0.00019848347 -0.0011320114
vn 1 0.00019848347 -0.0011320114
vn 1 0 -0.0011768341
vn 0.00013923645 2.861023E-06 -1
vn 0.00013923645 2.861023E-06 -1
vn 0.00013923645 2.861023E-06 -1
vn 0.00013935566 3.2782555E-06 -1
vn -1 0 0.0011320114
vn -1 0 0.0011320114
vn -1 0 0.0011320114
vn -1 -0.00020134449 0.0011777878
vn 0.90527344 0.002632141 0.4248047
vn 0.90527344 0.002632141 0.4248047
vn 0.90527344 0.002632141 0.4248047
vn 0.90527344 0.002632141 0.4248047
vn 0.85302734 2.0861626E-06 -0.52246094
vn 0.85302734 2.0861626E-06 -0.52246094
vn 0.85302734 2.0861626E-06 -0.52246094
vn 0.85302734 1.4901161E-06 -0.52246094
vn -0.9638672 -0.265625 0.0011348724
vn -0.9638672 -0.265625 0.0011348724
vn -0.9638672 -0.265625 0.0011348724
vn -0.9638672 -0.265625 0.0011348724
vn 0.00012397766 -0.45703125 -0.88964844
vn 0.00012397766 -0.45703125 -0.88964844
vn 0.00012397766 -0.45703125 -0.88964844
vn 0.00012397766 -0.45703125 -0.88964844
vn 0.9638672 -0.265625 -0.0011348724
vn 0.9638672 -0.265625 -0.0011348724
vn 0.9638672 -0.265625 -0.0011348724
vn 0.9638672 -0.265625 -0.0011348724
vn -0.0005874634 -0.45703125 0.88964844
vn -0.0005874634 -0.45703125 0.88964844
vn -0.0005874634 -0.45703125 0.88964844
vn -0.00058698654 -0.45703125 0.88964844
vn -0 -1 -1.847744E-06
vn -0 -1 -1.847744E-06
vn -0 -1 -1.847744E-06
vn -0 -1 -1.847744E-06
vn -0 1 1.66893E-06
vn -0 1 1.66893E-06
vn -0 1 1.66893E-06
vn -0 1 1.4901161E-06
g C001_BB03_0
f 3/3/3 2/2/2 1/1/1
f 6/6/6 5/5/5 4/4/4
f 9/9/9 8/8/8 7/7/7
f 12/12/12 11/11/11 10/10/10
f 15/15/15 14/14/14 13/13/13
f 18/18/18 17/17/17 16/16/16
f 21/21/21 20/20/20 19/19/19
f 24/24/24 23/23/23 22/22/22
f 27/27/27 26/26/26 25/25/25
f 26/26/26 27/27/27 28/28/28
f 31/31/31 30/30/30 29/29/29
f 30/30/30 31/31/31 32/32/32
f 35/35/35 34/34/34 33/33/33
f 34/34/34 35/35/35 36/36/36
f 39/39/39 38/38/38 37/37/37
f 38/38/38 39/39/39 40/40/40
f 43/43/43 42/42/42 41/41/41
f 42/42/42 43/43/43 44/44/44
f 47/47/47 46/46/46 45/45/45
f 46/46/46 47/47/47 48/48/48
f 51/51/51 50/50/50 49/49/49
f 50/50/50 51/51/51 52/52/52
f 55/55/55 54/54/54 53/53/53
f 54/54/54 55/55/55 56/56/56
f 59/59/59 58/58/58 57/57/57
f 58/58/58 59/59/59 60/60/60
f 63/63/63 62/62/62 61/61/61
f 62/62/62 63/63/63 64/64/64
g C001_BB03_1
f 67/67/67 66/66/66 65/65/65
f 70/70/70 69/69/69 68/68/68
f 73/73/73 72/72/72 71/71/71
f 76/76/76 75/75/75 74/74/74
f 79/79/79 78/78/78 77/77/77
f 82/82/82 81/81/81 80/80/80
f 85/85/85 84/84/84 83/83/83
f 88/88/88 87/87/87 86/86/86
f 91/91/91 90/90/90 89/89/89
f 90/90/90 91/91/91 92/92/92
f 95/95/95 94/94/94 93/93/93
f 94/94/94 95/95/95 96/96/96
f 99/99/99 98/98/98 97/97/97
f 98/98/98 99/99/99 100/100/100
f 103/103/103 102/102/102 101/101/101
f 102/102/102 103/103/103 104/104/104
f 107/107/107 106/106/106 105/105/105
f 106/106/106 107/107/107 108/108/108
f 111/111/111 110/110/110 109/109/109
f 110/110/110 111/111/111 112/112/112
f 115/115/115 114/114/114 113/113/113
f 114/114/114 115/115/115 116/116/116
f 119/119/119 118/118/118 117/117/117
f 118/118/118 119/119/119 120/120/120
f 123/123/123 122/122/122 121/121/121
f 122/122/122 123/123/123 124/124/124
f 127/127/127 126/126/126 125/125/125
f 126/126/126 127/127/127 128/128/128
g C001_BB03_2
f 131/131/131 130/130/130 129/129/129
f 130/130/130 131/131/131 132/132/132
g C001_BB03_3
f 135/135/135 134/134/134 133/133/133
f 134/134/134 135/135/135 136/136/136
