g C001_FB04
v -17.363237 0.046166077 14.054664
v -17.905859 -0.11563965 14.548648
v -18.070738 -0.11563782 14.34172
v 17.402632 0.046166684 13.935636
v 18.110922 -0.11564025 14.190899
v 17.966606 -0.115640864 14.4273205
v -17.404331 0.046200864 -13.972399
v -18.112621 -0.115610346 -14.227667
v -17.968306 -0.11560699 -14.464083
v 17.361547 0.04619873 -14.091429
v 17.904144 -0.11560791 -14.585414
v 18.069029 -0.11561065 -14.378488
v 17.976898 -0.5773834 14.64899
v -17.895573 -0.5741513 14.770328
v 17.966606 -0.115640864 14.4273205
v -17.905859 -0.11563965 14.548648
v 17.966606 -0.115640864 14.4273205
v -17.895573 -0.5741513 14.770328
v -18.225332 -0.5741501 14.356465
v -18.267206 -0.57735014 -14.212918
v -18.070738 -0.11563782 14.34172
v -18.112621 -0.115610346 -14.227667
v -18.070738 -0.11563782 14.34172
v -18.267206 -0.57735014 -14.212918
v 1.6933422 4.73848 12.882926
v 1.7246069 4.472992 13.106565
v 1.4862182 4.4729967 13.101376
v 10.4696045 4.73848 6.7880144
v 10.659038 4.4729967 6.6987567
v 10.604707 4.4729967 6.924579
v -5.872075 4.7385283 1.7476602
v -6.1365185 4.4730206 1.8809878
v -6.0821824 4.473038 1.6551602
v 2.9041722 4.738544 -4.347257
v 2.7978978 4.4730573 -4.5268173
v 3.0363061 4.4730525 -4.5216346
v -17.895573 -0.5741513 14.770328
v -18.225332 -0.5741501 14.356465
v -17.905859 -0.11563965 14.548648
v -18.070738 -0.11563782 14.34172
v 18.265512 -0.5773834 14.176148
v 17.976898 -0.5773834 14.64899
v 18.110922 -0.11564025 14.190899
v 17.966606 -0.115640864 14.4273205
v -18.267206 -0.57735014 -14.212918
v -17.978588 -0.57735014 -14.685745
v -18.112621 -0.115610346 -14.227667
v -17.968306 -0.11560699 -14.464083
v 17.893852 -0.57735044 -14.807081
v 18.223608 -0.57735074 -14.393229
v 17.904144 -0.11560791 -14.585414
v 18.069029 -0.11561065 -14.378488
v 17.966606 -0.115640864 14.4273205
v -17.905859 -0.11563965 14.548648
v 17.402632 0.046166684 13.935636
v -17.363237 0.046166077 14.054664
v 18.069029 -0.11561065 -14.378488
v 18.110922 -0.11564025 14.190899
v 17.361547 0.04619873 -14.091429
v 17.402632 0.046166684 13.935636
v -17.968306 -0.11560699 -14.464083
v 17.904144 -0.11560791 -14.585414
v -17.404331 0.046200864 -13.972399
v 17.361547 0.04619873 -14.091429
v -18.070738 -0.11563782 14.34172
v -18.112621 -0.115610346 -14.227667
v -17.363237 0.046166077 14.054664
v -17.404331 0.046200864 -13.972399
v 18.223608 -0.57735074 -14.393229
v 18.265512 -0.5773834 14.176148
v 18.069029 -0.11561065 -14.378488
v 18.110922 -0.11564025 14.190899
v -17.978588 -0.57735014 -14.685745
v 17.893852 -0.57735044 -14.807081
v -17.968306 -0.11560699 -14.464083
v 17.904144 -0.11560791 -14.585414
v 10.604707 4.4729967 6.924579
v 1.7246069 4.472992 13.106565
v 10.4696045 4.73848 6.7880144
v 1.6933422 4.73848 12.882926
v 3.0363061 4.4730525 -4.5216346
v 10.659038 4.4729967 6.6987567
v 2.9041722 4.738544 -4.347257
v 10.4696045 4.73848 6.7880144
v -6.0821824 4.473038 1.6551602
v 2.7978978 4.4730573 -4.5268173
v -5.872075 4.7385283 1.7476602
v 2.9041722 4.738544 -4.347257
v 1.4862182 4.4729967 13.101376
v -6.1365185 4.4730206 1.8809878
v 1.6933422 4.73848 12.882926
v -5.872075 4.7385283 1.7476602
v 1.8166528 3.9645782 13.222072
v 1.3398461 3.9645782 13.211702
v 1.7246069 4.472992 13.106565
v 1.4862182 4.4729967 13.101376
v 10.805395 3.9645836 6.588439
v 10.696755 3.9645805 7.0400796
v 10.659038 4.4729967 6.6987567
v 10.604707 4.4729967 6.924579
v -6.282866 3.9646149 1.9912952
v -6.1742334 3.9646153 1.5396595
v -6.1365185 4.4730206 1.8809878
v -6.0821824 4.473038 1.6551602
v 2.7058618 3.9646416 -4.6423154
v 3.1826634 3.9646368 -4.631954
v 2.7978978 4.4730573 -4.5268173
v 3.0363061 4.4730525 -4.5216346
v 10.696755 3.9645805 7.0400796
v 1.8166528 3.9645782 13.222072
v 10.604707 4.4729967 6.924579
v 1.7246069 4.472992 13.106565
v 3.1826634 3.9646368 -4.631954
v 10.805395 3.9645836 6.588439
v 3.0363061 4.4730525 -4.5216346
v 10.659038 4.4729967 6.6987567
v -6.1742334 3.9646153 1.5396595
v 2.7058618 3.9646416 -4.6423154
v -6.0821824 4.473038 1.6551602
v 2.7978978 4.4730573 -4.5268173
v 1.3398461 3.9645782 13.211702
v -6.282866 3.9646149 1.9912952
v 1.4862182 4.4729967 13.101376
v -6.1365185 4.4730206 1.8809878
v 17.976898 -0.5773834 14.64899
v 18.265512 -0.5773834 14.176148
v 17.978598 -4.1064982 14.68577
v 18.267212 -4.1064944 14.212918
v 17.978598 -4.1064982 14.68577
v 18.265512 -0.5773834 14.176148
v -17.89385 -4.1064982 14.807103
v -18.22361 -4.1064944 14.393236
v -17.895573 -0.5741513 14.770328
v -18.225332 -0.5741501 14.356465
v -17.895573 -0.5741513 14.770328
v -18.22361 -4.1064944 14.393236
v -17.978588 -0.57735014 -14.685745
v -18.267206 -0.57735014 -14.212918
v -17.97859 -4.106455 -14.685767
v -18.267204 -4.1064563 -14.21294
v -17.97859 -4.106455 -14.685767
v -18.267206 -0.57735014 -14.212918
v -18.22361 -4.1064944 14.393236
v -17.89385 -4.1064982 14.807103
v -17.914412 -4.738539 14.363745
v 18.267212 -4.1064944 14.212918
v 17.958033 -4.7385387 14.242436
v 17.978598 -4.1064982 14.68577
v -17.97859 -4.106455 -14.685767
v -18.267204 -4.1064563 -14.21294
v -17.958025 -4.7384996 -14.242432
v 17.893862 -4.106456 -14.807103
v 17.914448 -4.7384996 -14.363762
v 18.223618 -4.1064568 -14.393258
v 1.8319116 -0.60417783 13.241212
v 1.3551098 -0.60417724 13.230836
v 1.8166528 3.9645782 13.222072
v 1.3398461 3.9645782 13.211702
v 1.8166528 3.9645782 13.222072
v 1.3551098 -0.60417724 13.230836
v 3.1826634 3.9646368 -4.631954
v 2.7058618 3.9646416 -4.6423154
v 3.1826537 -0.6041656 -4.631984
v 2.7058423 -0.60416687 -4.6423483
v 3.1826537 -0.6041656 -4.631984
v 2.7058618 3.9646416 -4.6423154
v -17.895573 -0.5741513 14.770328
v 17.976898 -0.5773834 14.64899
v -17.89385 -4.1064982 14.807103
v 17.978598 -4.1064982 14.68577
v 18.265512 -0.5773834 14.176148
v 18.223608 -0.57735074 -14.393229
v 18.267212 -4.1064944 14.212918
v 18.223618 -4.1064568 -14.393258
v 17.893852 -0.57735044 -14.807081
v -17.978588 -0.57735014 -14.685745
v 17.893862 -4.106456 -14.807103
v -17.97859 -4.106455 -14.685767
v -18.267206 -0.57735014 -14.212918
v -18.225332 -0.5741501 14.356465
v -18.267204 -4.1064563 -14.21294
v -18.22361 -4.1064944 14.393236
v 18.223608 -0.57735074 -14.393229
v 17.893852 -0.57735044 -14.807081
v 18.223618 -4.1064568 -14.393258
v 17.893862 -4.106456 -14.807103
v -17.958025 -4.7384996 -14.242432
v -18.267204 -4.1064563 -14.21294
v -17.914412 -4.738539 14.363745
v -18.22361 -4.1064944 14.393236
v 17.914448 -4.7384996 -14.363762
v 17.893862 -4.106456 -14.807103
v -17.958025 -4.7384996 -14.242432
v -17.97859 -4.106455 -14.685767
v 17.958033 -4.7385387 14.242436
v 18.267212 -4.1064944 14.212918
v 17.914448 -4.7384996 -14.363762
v 18.223618 -4.1064568 -14.393258
v -17.914412 -4.738539 14.363745
v -17.89385 -4.1064982 14.807103
v 17.958033 -4.7385387 14.242436
v 17.978598 -4.1064982 14.68577
v 1.8166528 3.9645782 13.222072
v 10.696755 3.9645805 7.0400796
v 1.8319116 -0.60417783 13.241212
v 10.712007 -0.6041791 7.0592313
v 10.805395 3.9645836 6.588439
v 3.1826634 3.9646368 -4.631954
v 10.820659 -0.6041742 6.607586
v 3.1826537 -0.6041656 -4.631984
v 2.7058618 3.9646416 -4.6423154
v -6.1742334 3.9646153 1.5396595
v 2.7058423 -0.60416687 -4.6423483
v -6.1742334 -0.6041742 1.5396245
v -6.282866 3.9646149 1.9912952
v 1.3398461 3.9645782 13.211702
v -6.2828956 -0.60417295 1.9912723
v 1.3551098 -0.60417724 13.230836
v 10.696755 3.9645805 7.0400796
v 10.805395 3.9645836 6.588439
v 10.712007 -0.6041791 7.0592313
v 10.820659 -0.6041742 6.607586
v -6.1742334 3.9646153 1.5396595
v -6.282866 3.9646149 1.9912952
v -6.1742334 -0.6041742 1.5396245
v -6.2828956 -0.60417295 1.9912723
v 1.3551098 -0.60417724 13.230836
v 1.8319116 -0.60417783 13.241212
v 1.6478442 -0.7501001 13.010194
v 10.820659 -0.6041742 6.607586
v 10.527929 -0.7501031 6.8282256
v 10.712007 -0.6041791 7.0592313
v -6.1742334 -0.6041742 1.5396245
v -6.2828956 -0.60417295 1.9912723
v -5.9901514 -0.7500885 1.7706279
v 2.7058423 -0.60416687 -4.6423483
v 2.889929 -0.75008637 -4.4113545
v 3.1826537 -0.6041656 -4.631984
v 17.958033 -4.7385387 14.242436
v 17.914448 -4.7384996 -14.363762
v -17.914412 -4.738539 14.363745
v -17.958025 -4.7384996 -14.242432
v 10.527929 -0.7501031 6.8282256
v 2.889929 -0.75008637 -4.4113545
v 1.6478442 -0.7501001 13.010194
v -5.9901514 -0.7500885 1.7706279
v -5.9901514 -0.7500885 1.7706279
v -6.2828956 -0.60417295 1.9912723
v 1.6478442 -0.7501001 13.010194
v 1.3551098 -0.60417724 13.230836
v 2.889929 -0.75008637 -4.4113545
v 2.7058423 -0.60416687 -4.6423483
v -5.9901514 -0.7500885 1.7706279
v -6.1742334 -0.6041742 1.5396245
v 10.527929 -0.7501031 6.8282256
v 10.820659 -0.6041742 6.607586
v 2.889929 -0.75008637 -4.4113545
v 3.1826537 -0.6041656 -4.631984
v 1.6478442 -0.7501001 13.010194
v 1.8319116 -0.60417783 13.241212
v 10.527929 -0.7501031 6.8282256
v 10.712007 -0.6041791 7.0592313
v -17.404331 0.046200864 -13.972399
v 17.361547 0.04619873 -14.091429
v -17.363237 0.046166077 14.054664
v 17.402632 0.046166684 13.935636
v -5.872075 4.7385283 1.7476602
v 2.9041722 4.738544 -4.347257
v 1.6933422 4.73848 12.882926
v 10.4696045 4.73848 6.7880144
vt 0.027618408 0.9404297
vt 0.027618408 0.61035156
vt 0.027618408 0.61035156
vt 0.027618408 0.9404297
vt 0.027618408 0.61035156
vt 0.027618408 0.61035156
vt 0.027618408 0.9404297
vt 0.027618408 0.61035156
vt 0.027618408 0.61035156
vt 0.027618408 0.9404297
vt 0.027618408 0.61035156
vt 0.027618408 0.61035156
vt 0.027618408 0.006668091
vt 2.6855469 0.006668091
vt 0.027618408 0.61035156
vt 2.6855469 0.61035156
vt 0.027618408 0.61035156
vt 2.6855469 0.006668091
vt 0.027618408 0.006668091
vt 2.6933594 0.006668091
vt 0.027618408 0.61035156
vt 2.6933594 0.61035156
vt 0.027618408 0.61035156
vt 2.6933594 0.006668091
vt 0.0026893616 0.9916992
vt 0.0026893616 0.70214844
vt 0.020477295 0.70214844
vt 0.021591187 0.9916992
vt 0.011558533 0.70214844
vt 0.03250122 0.70214844
vt 0.024627686 0.9916992
vt 0.009025574 0.70214844
vt 0.029052734 0.70214844
vt 0.040405273 0.9916992
vt 0.026184082 0.70214844
vt 0.047180176 0.70214844
vt 0.027618408 0.006668091
vt 0.027618408 0.006668091
vt 0.027618408 0.61035156
vt 0.027618408 0.61035156
vt 0.027618408 0.006668091
vt 0.027618408 0.006668091
vt 0.027618408 0.61035156
vt 0.027618408 0.61035156
vt 0.027618408 0.006668091
vt 0.027618408 0.006668091
vt 0.027618408 0.61035156
vt 0.027618408 0.61035156
vt 0.027618408 0.006668091
vt 0.027618408 0.006668091
vt 0.027618408 0.61035156
vt 0.027618408 0.61035156
vt 0.027618408 0.61035156
vt 2.6855469 0.61035156
vt 0.027618408 0.9404297
vt 2.6855469 0.9404297
vt 0.027618408 0.61035156
vt 2.6933594 0.61035156
vt 0.027618408 0.9404297
vt 2.6933594 0.9404297
vt 0.027618408 0.61035156
vt 2.6855469 0.61035156
vt 0.027618408 0.9404297
vt 2.6855469 0.9404297
vt 0.027618408 0.61035156
vt 2.6933594 0.61035156
vt 0.027618408 0.9404297
vt 2.6933594 0.9404297
vt 0.027618408 0.006668091
vt 2.6933594 0.006668091
vt 0.027618408 0.61035156
vt 2.6933594 0.61035156
vt 0.027618408 0.006668091
vt 2.6855469 0.006668091
vt 0.027618408 0.61035156
vt 2.6855469 0.61035156
vt 0.03250122 0.70214844
vt 0.80566406 0.70214844
vt 0.021591187 0.9916992
vt 0.80566406 0.9916992
vt 0.047180176 0.70214844
vt 0.99365234 0.70214844
vt 0.040405273 0.9916992
vt 1.0039062 0.9916992
vt 0.029052734 0.70214844
vt 0.8051758 0.70214844
vt 0.024627686 0.9916992
vt 0.81933594 0.9916992
vt 0.020477295 0.70214844
vt 0.9707031 0.70214844
vt 0.0026893616 0.9916992
vt 0.9863281 0.9916992
vt 0.0026893616 0.0960083
vt 0.020477295 0.0960083
vt 0.0026893616 0.70214844
vt 0.020477295 0.70214844
vt 0.010574341 0.0960083
vt 0.043518066 0.0960083
vt 0.011558533 0.70214844
vt 0.03250122 0.70214844
vt 0.00070619583 0.0960083
vt 0.033935547 0.0960083
vt 0.009025574 0.70214844
vt 0.029052734 0.70214844
vt 0.022140503 0.0960083
vt 0.054534912 0.0960083
vt 0.026184082 0.70214844
vt 0.047180176 0.70214844
vt 0.043518066 0.0960083
vt 0.80566406 0.0960083
vt 0.03250122 0.70214844
vt 0.80566406 0.70214844
vt 0.054534912 0.0960083
vt 0.9926758 0.0960083
vt 0.047180176 0.70214844
vt 0.99365234 0.70214844
vt 0.033935547 0.0960083
vt 0.80126953 0.0960083
vt 0.029052734 0.70214844
vt 0.8051758 0.70214844
vt 0.020477295 0.0960083
vt 0.96240234 0.0960083
vt 0.020477295 0.70214844
vt 0.9707031 0.70214844
vt -11.3203125 -0.6411133
vt -11.265625 -0.640625
vt -11.3125 -0.98339844
vt -11.265625 -0.98583984
vt -11.3125 -0.98339844
vt -11.265625 -0.640625
vt -14.78125 -1.1728516
vt -14.828125 -1.1826172
vt -14.8046875 -0.8334961
vt -14.8515625 -0.8388672
vt -14.8046875 -0.8334961
vt -14.828125 -1.1826172
vt -4.9726562 -0.703125
vt -4.9335938 -0.7050781
vt -4.9804688 -1.0458984
vt -4.9414062 -1.0498047
vt -4.9804688 -1.0458984
vt -4.9335938 -0.7050781
vt -14.828125 -1.1826172
vt -14.78125 -1.1728516
vt -14.78125 -1.2451172
vt -11.265625 -0.98583984
vt -11.2890625 -1.0546875
vt -11.3125 -0.98339844
vt -4.9804688 -1.0458984
vt -4.9414062 -1.0498047
vt -4.96875 -1.1171875
vt -8.4609375 -0.9838867
vt -8.484375 -1.0546875
vt -8.5 -0.98535156
vt -6.8359375 4.9375
vt -6.875 4.9492188
vt -6.8203125 5.390625
vt -6.8710938 5.390625
vt -6.8203125 5.390625
vt -6.875 4.9492188
vt -9.2890625 5.4375
vt -9.25 5.4335938
vt -9.3046875 4.9921875
vt -9.2734375 4.9882812
vt -9.3046875 4.9921875
vt -9.25 5.4335938
vt -14.8046875 -0.8334961
vt -11.3203125 -0.6411133
vt -14.78125 -1.1728516
vt -11.3125 -0.98339844
vt -11.265625 -0.640625
vt -8.4921875 -0.64208984
vt -11.265625 -0.98583984
vt -8.5 -0.98535156
vt -8.453125 -0.64160156
vt -4.9726562 -0.703125
vt -8.4609375 -0.9838867
vt -4.9804688 -1.0458984
vt -4.9335938 -0.7050781
vt -2.1601562 -0.7060547
vt -4.9414062 -1.0498047
vt -2.1601562 -1.0498047
vt -8.4921875 -0.64208984
vt -8.453125 -0.64160156
vt -8.5 -0.98535156
vt -8.4609375 -0.9838867
vt -4.96875 -1.1171875
vt -4.9414062 -1.0498047
vt -2.1679688 -1.1181641
vt -2.1601562 -1.0498047
vt -8.484375 -1.0546875
vt -8.4609375 -0.9838867
vt -4.96875 -1.1171875
vt -4.9804688 -1.0458984
vt -11.2890625 -1.0546875
vt -11.265625 -0.98583984
vt -8.484375 -1.0546875
vt -8.5 -0.98535156
vt -14.78125 -1.2451172
vt -14.78125 -1.1728516
vt -11.2890625 -1.0546875
vt -11.3125 -0.98339844
vt -11.703125 5.4453125
vt -10.6484375 5.4609375
vt -11.6953125 5.0039062
vt -10.6484375 5.015625
vt -10.609375 5.4609375
vt -9.2890625 5.4375
vt -10.6171875 5.015625
vt -9.3046875 4.9921875
vt -9.25 5.4335938
vt -8.2109375 5.3945312
vt -9.2734375 4.9882812
vt -8.2265625 4.9492188
vt -8.1796875 5.390625
vt -6.8710938 5.390625
vt -8.1953125 4.9492188
vt -6.875 4.9492188
vt -10.6484375 5.4609375
vt -10.609375 5.4609375
vt -10.6484375 5.015625
vt -10.6171875 5.015625
vt -8.2109375 5.3945312
vt -8.1796875 5.390625
vt -8.2265625 4.9492188
vt -8.1953125 4.9492188
vt -6.875 4.9492188
vt -6.8359375 4.9375
vt -6.875 4.9140625
vt -10.6171875 5.015625
vt -10.6328125 4.984375
vt -10.6484375 5.015625
vt -8.2265625 4.9492188
vt -8.1953125 4.9492188
vt -8.21875 4.9179688
vt -9.2734375 4.9882812
vt -9.2890625 4.9609375
vt -9.3046875 4.9921875
vt 4.9335938 -8.671875
vt 4.9375 -5.890625
vt 8.421875 -8.6875
vt 8.4296875 -5.9023438
vt 9.21875 -4.4335938
vt 9.140625 -3.1132812
vt 10.2734375 -4.3828125
vt 10.1953125 -3.0625
vt -8.21875 4.9179688
vt -8.1953125 4.9492188
vt -6.875 4.9140625
vt -6.875 4.9492188
vt -9.2890625 4.9609375
vt -9.2734375 4.9882812
vt -8.21875 4.9179688
vt -8.2265625 4.9492188
vt -10.6328125 4.984375
vt -10.6171875 5.015625
vt -9.2890625 4.9609375
vt -9.3046875 4.9921875
vt -11.6953125 4.9726562
vt -11.6953125 5.0039062
vt -10.6328125 4.984375
vt -10.6484375 5.015625
vt 9.1796875 0.97998047
vt 5.8007812 0.96875
vt 9.1796875 3.7050781
vt 5.796875 3.6933594
vt 9.7734375 8.6953125
vt 9.8046875 7.6601562
vt 8.4609375 8.6640625
vt 8.5 7.6289062
vn -0.16870117 0.9765625 0.13452148
vn -0.16870117 0.9765625 0.13452148
vn -0.16870117 0.9765625 0.13452148
vn 0.18286133 0.9765625 0.1116333
vn 0.18286133 0.9765625 0.1116333
vn 0.18286133 0.9765625 0.1116333
vn -0.18286133 0.9765625 -0.1116333
vn -0.18286133 0.9765625 -0.1116333
vn -0.18286133 0.9765625 -0.1116333
vn 0.16882324 0.9765625 -0.13452148
vn 0.16882324 0.9765625 -0.13452148
vn 0.16882324 0.9765625 -0.13452148
vn 0.0030879974 0.43286133 0.9013672
vn 0.0030879974 0.43286133 0.9013672
vn 0.0030879974 0.43286133 0.9013672
vn 0.0030441284 0.43530273 0.9003906
vn 0.0030441284 0.43530273 0.9003906
vn 0.0030441284 0.43530273 0.9003906
vn -0.9477539 0.31958008 0.0013532639
vn -0.9477539 0.31958008 0.0013532639
vn -0.9477539 0.31958008 0.0013532639
vn -0.9482422 0.31762695 0.0013904572
vn -0.9482422 0.31762695 0.0013904572
vn -0.9482422 0.31762695 0.0013904572
vn -0.016662598 0.6430664 0.765625
vn -0.016662598 0.6430664 0.765625
vn -0.016662598 0.6430664 0.765625
vn 0.828125 0.5239258 0.19921875
vn 0.828125 0.5239258 0.19921875
vn 0.828125 0.5239258 0.19921875
vn -0.7402344 0.6479492 -0.17810059
vn -0.7402344 0.6479492 -0.17810059
vn -0.7402344 0.6479492 -0.17810059
vn 0.018096924 0.5551758 -0.83154297
vn 0.018096924 0.5551758 -0.83154297
vn 0.018096924 0.5551758 -0.83154297
vn -0.7524414 0.27294922 0.5996094
vn -0.7524414 0.27294922 0.5996094
vn -0.7524414 0.27294922 0.5996094
vn -0.7524414 0.27294922 0.5996094
vn 0.82421875 0.25976562 0.5029297
vn 0.82421875 0.25976562 0.5029297
vn 0.82421875 0.25976562 0.5029297
vn 0.82421875 0.26000977 0.5029297
vn -0.82421875 0.25976562 -0.5029297
vn -0.82421875 0.25976562 -0.5029297
vn -0.82421875 0.25976562 -0.5029297
vn -0.82421875 0.25976562 -0.5029297
vn 0.7529297 0.27124023 -0.5996094
vn 0.7529297 0.27124023 -0.5996094
vn 0.7529297 0.27124023 -0.5996094
vn 0.7529297 0.27124023 -0.5996094
vn 0.0010538101 0.9501953 0.31152344
vn 0.0010538101 0.9501953 0.31152344
vn 0.0010538101 0.9501953 0.31152344
vn 0.0010690689 0.9501953 0.31225586
vn 0.22277832 0.97509766 -0.00032567978
vn 0.22277832 0.97509766 -0.00032567978
vn 0.22277832 0.97509766 -0.00032567978
vn 0.22277832 0.97509766 -0.00032544136
vn -0.0010538101 0.9501953 -0.31152344
vn -0.0010538101 0.9501953 -0.31152344
vn -0.0010538101 0.9501953 -0.31152344
vn -0.0010690689 0.9501953 -0.31225586
vn -0.22277832 0.97509766 0.00032758713
vn -0.22277832 0.97509766 0.00032758713
vn -0.22277832 0.97509766 0.00032758713
vn -0.22277832 0.97509766 0.00032782555
vn 0.9482422 0.3173828 -0.0013904572
vn 0.9482422 0.3173828 -0.0013904572
vn 0.9482422 0.3173828 -0.0013904572
vn 0.9482422 0.31762695 -0.0013904572
vn -0.0030498505 0.43286133 -0.9013672
vn -0.0030498505 0.43286133 -0.9013672
vn -0.0030498505 0.43286133 -0.9013672
vn -0.0030498505 0.43286133 -0.9013672
vn 0.46533203 0.5805664 0.66845703
vn 0.46533203 0.5805664 0.66845703
vn 0.46533203 0.5805664 0.66845703
vn 0.4543457 0.6044922 0.6542969
vn 0.65185547 0.6152344 -0.4428711
vn 0.65185547 0.6152344 -0.4428711
vn 0.65185547 0.6152344 -0.4428711
vn 0.65234375 0.6147461 -0.44335938
vn -0.4597168 0.59375 -0.66015625
vn -0.4597168 0.59375 -0.66015625
vn -0.4597168 0.59375 -0.66015625
vn -0.4489746 0.6166992 -0.6464844
vn -0.5541992 0.7421875 0.37646484
vn -0.5541992 0.7421875 0.37646484
vn -0.5541992 0.7421875 0.37646484
vn -0.5546875 0.7416992 0.37695312
vn -0.021224976 0.21789551 0.97558594
vn -0.021224976 0.21789551 0.97558594
vn -0.021224976 0.21789551 0.97558594
vn -0.021240234 0.21789551 0.97558594
vn 0.9477539 0.22338867 0.22802734
vn 0.9477539 0.22338867 0.22802734
vn 0.9477539 0.22338867 0.22802734
vn 0.9477539 0.22338867 0.22802734
vn -0.9477539 0.22338867 -0.22790527
vn -0.9477539 0.22338867 -0.22790527
vn -0.9477539 0.22338867 -0.22790527
vn -0.9477539 0.22338867 -0.22802734
vn 0.021209717 0.21777344 -0.97558594
vn 0.021209717 0.21777344 -0.97558594
vn 0.021209717 0.21777344 -0.97558594
vn 0.021224976 0.21789551 -0.97558594
vn 0.5488281 0.2783203 0.78808594
vn 0.5488281 0.2783203 0.78808594
vn 0.5488281 0.2783203 0.78808594
vn 0.5488281 0.2783203 0.78808594
vn 0.7783203 0.3388672 -0.5288086
vn 0.7783203 0.3388672 -0.5288086
vn 0.7783203 0.3388672 -0.5288086
vn 0.7783203 0.3388672 -0.5288086
vn -0.5488281 0.2783203 -0.78808594
vn -0.5488281 0.2783203 -0.78808594
vn -0.5488281 0.2783203 -0.78808594
vn -0.5488281 0.2783203 -0.78808594
vn -0.7783203 0.3388672 0.5288086
vn -0.7783203 0.3388672 0.5288086
vn -0.7783203 0.3388672 0.5288086
vn -0.7783203 0.3388672 0.5288086
vn 0.8535156 0.0058403015 0.5209961
vn 0.8535156 0.0058403015 0.5209961
vn 0.8535156 0.0058403015 0.5209961
vn 0.8535156 0.0058403015 0.5209961
vn 0.8535156 0.0058403015 0.5209961
vn 0.8535156 0.0058403015 0.5209961
vn -0.78222656 0.0061073303 0.6230469
vn -0.78222656 0.0061073303 0.6230469
vn -0.78222656 0.0061073303 0.6230469
vn -0.78222656 0.0061073303 0.6230469
vn -0.78222656 0.0061073303 0.6230469
vn -0.78222656 0.0061073303 0.6230469
vn -0.8535156 3.8146973E-06 -0.5209961
vn -0.8535156 3.8146973E-06 -0.5209961
vn -0.8535156 3.8146973E-06 -0.5209961
vn -0.8535156 2.682209E-06 -0.5209961
vn -0.8535156 2.682209E-06 -0.5209961
vn -0.8535156 2.682209E-06 -0.5209961
vn -0.72314453 -0.38061523 0.5761719
vn -0.72314453 -0.38061523 0.5761719
vn -0.72314453 -0.38061523 0.5761719
vn 0.7944336 -0.3659668 0.48486328
vn 0.7944336 -0.3659668 0.48486328
vn 0.7944336 -0.3659668 0.48486328
vn -0.7944336 -0.3659668 -0.48486328
vn -0.7944336 -0.3659668 -0.48486328
vn -0.7944336 -0.3659668 -0.48486328
vn 0.72314453 -0.38061523 -0.5761719
vn 0.72314453 -0.38061523 -0.5761719
vn 0.72314453 -0.38061523 -0.5761719
vn -0.021759033 0.0041160583 0.9995117
vn -0.021759033 0.0041160583 0.9995117
vn -0.021759033 0.0041160583 0.9995117
vn -0.021743774 0.0041160583 0.9995117
vn -0.021743774 0.0041160583 0.9995117
vn -0.021743774 0.0041160583 0.9995117
vn 0.021728516 6.556511E-06 -1
vn 0.021728516 6.556511E-06 -1
vn 0.021728516 6.556511E-06 -1
vn 0.021728516 7.033348E-06 -1
vn 0.021728516 7.033348E-06 -1
vn 0.021728516 7.033348E-06 -1
vn 0.0033836365 0.010414124 1
vn 0.0033836365 0.010414124 1
vn 0.0033836365 0.010414124 1
vn 0.0033817291 0.010421753 1
vn 1 0.00046610832 -0.0014667511
vn 1 0.00046610832 -0.0014667511
vn 1 0.00046610832 -0.0014667511
vn 1 2.8014183E-06 -0.0015239716
vn -0.0033817291 6.198883E-06 -1
vn -0.0033817291 6.198883E-06 -1
vn -0.0033817291 6.198883E-06 -1
vn -0.0033817291 6.198883E-06 -1
vn -1 -7.1525574E-07 0.0014657974
vn -1 -7.1525574E-07 0.0014657974
vn -1 -7.1525574E-07 0.0014657974
vn -1 -0.00047135353 0.0015239716
vn 0.78222656 7.3313713E-06 -0.6230469
vn 0.78222656 7.3313713E-06 -0.6230469
vn 0.78222656 7.3313713E-06 -0.6230469
vn 0.78222656 6.020069E-06 -0.6230469
vn -0.8984375 -0.43945312 0.0013685226
vn -0.8984375 -0.43945312 0.0013685226
vn -0.8984375 -0.43945312 0.0013685226
vn -0.8984375 -0.43945312 0.0013685226
vn -0.0027694702 -0.57421875 -0.81884766
vn -0.0027694702 -0.57421875 -0.81884766
vn -0.0027694702 -0.57421875 -0.81884766
vn -0.0027694702 -0.57421875 -0.81884766
vn 0.8984375 -0.43945312 -0.0013694763
vn 0.8984375 -0.43945312 -0.0013694763
vn 0.8984375 -0.43945312 -0.0013694763
vn 0.8984375 -0.43945312 -0.0013694763
vn 0.0027675629 -0.57421875 0.81884766
vn 0.0027675629 -0.57421875 0.81884766
vn 0.0027675629 -0.57421875 0.81884766
vn 0.0027694702 -0.57421875 0.81884766
vn 0.57128906 0.0053482056 0.8208008
vn 0.57128906 0.0053482056 0.8208008
vn 0.57128906 0.0053482056 0.8208008
vn 0.57128906 0.0053482056 0.8208008
vn 0.82714844 0.00040841103 -0.5620117
vn 0.82714844 0.00040841103 -0.5620117
vn 0.82714844 0.00040841103 -0.5620117
vn 0.82714844 1.9669533E-06 -0.5620117
vn -0.57128906 8.285046E-06 -0.8208008
vn -0.57128906 8.285046E-06 -0.8208008
vn -0.57128906 8.285046E-06 -0.8208008
vn -0.57128906 6.3180923E-06 -0.8208008
vn -0.82714844 2.503395E-06 0.5620117
vn -0.82714844 2.503395E-06 0.5620117
vn -0.82714844 2.503395E-06 0.5620117
vn -0.82714844 -0.0004093647 0.5620117
vn 0.97216797 0.0042266846 0.23388672
vn 0.97216797 0.0042266846 0.23388672
vn 0.97216797 0.0042266846 0.23388672
vn 0.97216797 0.0042266846 0.23388672
vn -0.97216797 1.7881393E-06 -0.23388672
vn -0.97216797 1.7881393E-06 -0.23388672
vn -0.97216797 1.7881393E-06 -0.23388672
vn -0.97216797 7.390976E-06 -0.23388672
vn -0.011764526 -0.8413086 0.54052734
vn -0.011764526 -0.8413086 0.54052734
vn -0.011764526 -0.8413086 0.54052734
vn 0.5161133 -0.84765625 0.12414551
vn 0.5161133 -0.84765625 0.12414551
vn 0.5161133 -0.84765625 0.12414551
vn -0.5161133 -0.84765625 -0.12414551
vn -0.5161133 -0.84765625 -0.12414551
vn -0.5161133 -0.84765625 -0.12414551
vn 0.011756897 -0.8413086 -0.54052734
vn 0.011756897 -0.8413086 -0.54052734
vn 0.011756897 -0.8413086 -0.54052734
vn -0 -1 -1.3709068E-06
vn -0 -1 -1.3709068E-06
vn -0 -1 -1.3709068E-06
vn -0 -1 -1.3709068E-06
vn -9.536743E-07 -1 -8.34465E-07
vn -9.536743E-07 -1 -8.34465E-07
vn -9.536743E-07 -1 -8.34465E-07
vn -2.9802322E-07 -1 -8.34465E-07
vn -0.30615234 -0.92871094 0.20812988
vn -0.30615234 -0.92871094 0.20812988
vn -0.30615234 -0.92871094 0.20812988
vn -0.30615234 -0.92871094 0.20812988
vn -0.25341797 -0.8959961 -0.36401367
vn -0.25341797 -0.8959961 -0.36401367
vn -0.25341797 -0.8959961 -0.36401367
vn -0.25341797 -0.8959961 -0.36401367
vn 0.30615234 -0.92871094 -0.20812988
vn 0.30615234 -0.92871094 -0.20812988
vn 0.30615234 -0.92871094 -0.20812988
vn 0.30615234 -0.92871094 -0.20812988
vn 0.25341797 -0.8959961 0.36401367
vn 0.25341797 -0.8959961 0.36401367
vn 0.25341797 -0.8959961 0.36401367
vn 0.25341797 -0.8959961 0.36401367
vn -0 1 1.2516975E-06
vn -0 1 1.2516975E-06
vn -0 1 1.2516975E-06
vn -0 1 1.1324883E-06
vn 8.34465E-07 1 3.7550926E-06
vn 8.34465E-07 1 3.7550926E-06
vn 8.34465E-07 1 3.7550926E-06
vn 2.7418137E-06 1 3.9339066E-06
g C001_FB04_0
f 3/3/3 2/2/2 1/1/1
f 6/6/6 5/5/5 4/4/4
f 9/9/9 8/8/8 7/7/7
f 12/12/12 11/11/11 10/10/10
f 15/15/15 14/14/14 13/13/13
f 18/18/18 17/17/17 16/16/16
f 21/21/21 20/20/20 19/19/19
f 24/24/24 23/23/23 22/22/22
f 27/27/27 26/26/26 25/25/25
f 30/30/30 29/29/29 28/28/28
f 33/33/33 32/32/32 31/31/31
f 36/36/36 35/35/35 34/34/34
f 39/39/39 38/38/38 37/37/37
f 38/38/38 39/39/39 40/40/40
f 43/43/43 42/42/42 41/41/41
f 42/42/42 43/43/43 44/44/44
f 47/47/47 46/46/46 45/45/45
f 46/46/46 47/47/47 48/48/48
f 51/51/51 50/50/50 49/49/49
f 50/50/50 51/51/51 52/52/52
f 55/55/55 54/54/54 53/53/53
f 54/54/54 55/55/55 56/56/56
f 59/59/59 58/58/58 57/57/57
f 58/58/58 59/59/59 60/60/60
f 63/63/63 62/62/62 61/61/61
f 62/62/62 63/63/63 64/64/64
f 67/67/67 66/66/66 65/65/65
f 66/66/66 67/67/67 68/68/68
f 71/71/71 70/70/70 69/69/69
f 70/70/70 71/71/71 72/72/72
f 75/75/75 74/74/74 73/73/73
f 74/74/74 75/75/75 76/76/76
f 79/79/79 78/78/78 77/77/77
f 78/78/78 79/79/79 80/80/80
f 83/83/83 82/82/82 81/81/81
f 82/82/82 83/83/83 84/84/84
f 87/87/87 86/86/86 85/85/85
f 86/86/86 87/87/87 88/88/88
f 91/91/91 90/90/90 89/89/89
f 90/90/90 91/91/91 92/92/92
f 95/95/95 94/94/94 93/93/93
f 94/94/94 95/95/95 96/96/96
f 99/99/99 98/98/98 97/97/97
f 98/98/98 99/99/99 100/100/100
f 103/103/103 102/102/102 101/101/101
f 102/102/102 103/103/103 104/104/104
f 107/107/107 106/106/106 105/105/105
f 106/106/106 107/107/107 108/108/108
f 111/111/111 110/110/110 109/109/109
f 110/110/110 111/111/111 112/112/112
f 115/115/115 114/114/114 113/113/113
f 114/114/114 115/115/115 116/116/116
f 119/119/119 118/118/118 117/117/117
f 118/118/118 119/119/119 120/120/120
f 123/123/123 122/122/122 121/121/121
f 122/122/122 123/123/123 124/124/124
g C001_FB04_1
f 127/127/127 126/126/126 125/125/125
f 130/130/130 129/129/129 128/128/128
f 133/133/133 132/132/132 131/131/131
f 136/136/136 135/135/135 134/134/134
f 139/139/139 138/138/138 137/137/137
f 142/142/142 141/141/141 140/140/140
f 145/145/145 144/144/144 143/143/143
f 148/148/148 147/147/147 146/146/146
f 151/151/151 150/150/150 149/149/149
f 154/154/154 153/153/153 152/152/152
f 157/157/157 156/156/156 155/155/155
f 160/160/160 159/159/159 158/158/158
f 163/163/163 162/162/162 161/161/161
f 166/166/166 165/165/165 164/164/164
f 169/169/169 168/168/168 167/167/167
f 168/168/168 169/169/169 170/170/170
f 173/173/173 172/172/172 171/171/171
f 172/172/172 173/173/173 174/174/174
f 177/177/177 176/176/176 175/175/175
f 176/176/176 177/177/177 178/178/178
f 181/181/181 180/180/180 179/179/179
f 180/180/180 181/181/181 182/182/182
f 185/185/185 184/184/184 183/183/183
f 184/184/184 185/185/185 186/186/186
f 189/189/189 188/188/188 187/187/187
f 188/188/188 189/189/189 190/190/190
f 193/193/193 192/192/192 191/191/191
f 192/192/192 193/193/193 194/194/194
f 197/197/197 196/196/196 195/195/195
f 196/196/196 197/197/197 198/198/198
f 201/201/201 200/200/200 199/199/199
f 200/200/200 201/201/201 202/202/202
f 205/205/205 204/204/204 203/203/203
f 204/204/204 205/205/205 206/206/206
f 209/209/209 208/208/208 207/207/207
f 208/208/208 209/209/209 210/210/210
f 213/213/213 212/212/212 211/211/211
f 212/212/212 213/213/213 214/214/214
f 217/217/217 216/216/216 215/215/215
f 216/216/216 217/217/217 218/218/218
f 221/221/221 220/220/220 219/219/219
f 220/220/220 221/221/221 222/222/222
f 225/225/225 224/224/224 223/223/223
f 224/224/224 225/225/225 226/226/226
g C001_FB04_2
f 229/229/229 228/228/228 227/227/227
f 232/232/232 231/231/231 230/230/230
f 235/235/235 234/234/234 233/233/233
f 238/238/238 237/237/237 236/236/236
f 241/241/241 240/240/240 239/239/239
f 240/240/240 241/241/241 242/242/242
f 245/245/245 244/244/244 243/243/243
f 244/244/244 245/245/245 246/246/246
f 249/249/249 248/248/248 247/247/247
f 248/248/248 249/249/249 250/250/250
f 253/253/253 252/252/252 251/251/251
f 252/252/252 253/253/253 254/254/254
f 257/257/257 256/256/256 255/255/255
f 256/256/256 257/257/257 258/258/258
f 261/261/261 260/260/260 259/259/259
f 260/260/260 261/261/261 262/262/262
g C001_FB04_3
f 265/265/265 264/264/264 263/263/263
f 264/264/264 265/265/265 266/266/266
f 269/269/269 268/268/268 267/267/267
f 268/268/268 269/269/269 270/270/270
