g C001_FB01
v -17.363237 2.392333 14.054664
v -17.905859 2.2305274 14.548648
v -18.070738 2.230529 14.34172
v 17.402632 2.3923335 13.935636
v 18.110922 2.2305267 14.190899
v 17.966606 2.230526 14.4273205
v -17.404331 2.3923678 -13.972399
v -18.112621 2.2305565 -14.227667
v -17.968306 2.23056 -14.464083
v 17.361547 2.3923657 -14.091429
v 17.904144 2.230559 -14.585414
v 18.069029 2.2305562 -14.378488
v 17.976898 1.7687836 14.64899
v -17.895573 1.7720157 14.770328
v 17.966606 2.230526 14.4273205
v -17.905859 2.2305274 14.548648
v 17.966606 2.230526 14.4273205
v -17.895573 1.7720157 14.770328
v -18.225332 1.7720169 14.356465
v -18.267206 1.7688168 -14.212918
v -18.070738 2.230529 14.34172
v -18.112621 2.2305565 -14.227667
v -18.070738 2.230529 14.34172
v -18.267206 1.7688168 -14.212918
v -17.895573 1.7720157 14.770328
v -18.225332 1.7720169 14.356465
v -17.905859 2.2305274 14.548648
v -18.070738 2.230529 14.34172
v 18.265512 1.7687836 14.176148
v 17.976898 1.7687836 14.64899
v 18.110922 2.2305267 14.190899
v 17.966606 2.230526 14.4273205
v -18.267206 1.7688168 -14.212918
v -17.978588 1.7688168 -14.685745
v -18.112621 2.2305565 -14.227667
v -17.968306 2.23056 -14.464083
v 17.893852 1.7688165 -14.807081
v 18.223608 1.7688162 -14.393229
v 17.904144 2.230559 -14.585414
v 18.069029 2.2305562 -14.378488
v 17.966606 2.230526 14.4273205
v -17.905859 2.2305274 14.548648
v 17.402632 2.3923335 13.935636
v -17.363237 2.392333 14.054664
v 18.069029 2.2305562 -14.378488
v 18.110922 2.2305267 14.190899
v 17.361547 2.3923657 -14.091429
v 17.402632 2.3923335 13.935636
v -17.968306 2.23056 -14.464083
v 17.904144 2.230559 -14.585414
v -17.404331 2.3923678 -13.972399
v 17.361547 2.3923657 -14.091429
v -18.070738 2.230529 14.34172
v -18.112621 2.2305565 -14.227667
v -17.363237 2.392333 14.054664
v -17.404331 2.3923678 -13.972399
v 18.223608 1.7688162 -14.393229
v 18.265512 1.7687836 14.176148
v 18.069029 2.2305562 -14.378488
v 18.110922 2.2305267 14.190899
v -17.978588 1.7688168 -14.685745
v 17.893852 1.7688165 -14.807081
v -17.968306 2.23056 -14.464083
v 17.904144 2.230559 -14.585414
v 17.976898 1.7687836 14.64899
v 18.265512 1.7687836 14.176148
v 17.978598 -1.7603314 14.68577
v 18.267212 -1.7603276 14.212918
v 17.978598 -1.7603314 14.68577
v 18.265512 1.7687836 14.176148
v -17.89385 -1.760331 14.807103
v -18.22361 -1.7603276 14.393236
v -17.895573 1.7720157 14.770328
v -18.225332 1.7720169 14.356465
v -17.895573 1.7720157 14.770328
v -18.22361 -1.7603276 14.393236
v -17.978588 1.7688168 -14.685745
v -18.267206 1.7688168 -14.212918
v -17.97859 -1.760288 -14.685767
v -18.267204 -1.7602894 -14.21294
v -17.97859 -1.760288 -14.685767
v -18.267206 1.7688168 -14.212918
v -18.22361 -1.7603276 14.393236
v -17.89385 -1.760331 14.807103
v -17.914412 -2.3923724 14.363745
v 18.267212 -1.7603276 14.212918
v 17.958033 -2.3923717 14.242436
v 17.978598 -1.7603314 14.68577
v -17.97859 -1.760288 -14.685767
v -18.267204 -1.7602894 -14.21294
v -17.958025 -2.3923328 -14.242432
v 17.893862 -1.7602887 -14.807103
v 17.914448 -2.3923328 -14.363762
v 18.223618 -1.76029 -14.393258
v -17.895573 1.7720157 14.770328
v 17.976898 1.7687836 14.64899
v -17.89385 -1.760331 14.807103
v 17.978598 -1.7603314 14.68577
v 18.265512 1.7687836 14.176148
v 18.223608 1.7688162 -14.393229
v 18.267212 -1.7603276 14.212918
v 18.223618 -1.76029 -14.393258
v 17.893852 1.7688165 -14.807081
v -17.978588 1.7688168 -14.685745
v 17.893862 -1.7602887 -14.807103
v -17.97859 -1.760288 -14.685767
v -18.267206 1.7688168 -14.212918
v -18.225332 1.7720169 14.356465
v -18.267204 -1.7602894 -14.21294
v -18.22361 -1.7603276 14.393236
v 18.223608 1.7688162 -14.393229
v 17.893852 1.7688165 -14.807081
v 18.223618 -1.76029 -14.393258
v 17.893862 -1.7602887 -14.807103
v -17.958025 -2.3923328 -14.242432
v -18.267204 -1.7602894 -14.21294
v -17.914412 -2.3923724 14.363745
v -18.22361 -1.7603276 14.393236
v 17.914448 -2.3923328 -14.363762
v 17.893862 -1.7602887 -14.807103
v -17.958025 -2.3923328 -14.242432
v -17.97859 -1.760288 -14.685767
v 17.958033 -2.3923717 14.242436
v 18.267212 -1.7603276 14.212918
v 17.914448 -2.3923328 -14.363762
v 18.223618 -1.76029 -14.393258
v -17.914412 -2.3923724 14.363745
v -17.89385 -1.760331 14.807103
v 17.958033 -2.3923717 14.242436
v 17.978598 -1.7603314 14.68577
v 17.958033 -2.3923717 14.242436
v 17.914448 -2.3923328 -14.363762
v -17.914412 -2.3923724 14.363745
v -17.958025 -2.3923328 -14.242432
v -17.404331 2.3923678 -13.972399
v 17.361547 2.3923657 -14.091429
v -17.363237 2.392333 14.054664
v 17.402632 2.3923335 13.935636
vt 0.027618408 0.9404297
vt 0.027618408 0.61035156
vt 0.027618408 0.61035156
vt 0.027618408 0.9404297
vt 0.027618408 0.61035156
vt 0.027618408 0.61035156
vt 0.027618408 0.9404297
vt 0.027618408 0.61035156
vt 0.027618408 0.61035156
vt 0.027618408 0.9404297
vt 0.027618408 0.61035156
vt 0.027618408 0.61035156
vt 0.027618408 0.006668091
vt 2.6855469 0.006668091
vt 0.027618408 0.61035156
vt 2.6855469 0.61035156
vt 0.027618408 0.61035156
vt 2.6855469 0.006668091
vt 0.027618408 0.006668091
vt 2.6933594 0.006668091
vt 0.027618408 0.61035156
vt 2.6933594 0.61035156
vt 0.027618408 0.61035156
vt 2.6933594 0.006668091
vt 0.027618408 0.006668091
vt 0.027618408 0.006668091
vt 0.027618408 0.61035156
vt 0.027618408 0.61035156
vt 0.027618408 0.006668091
vt 0.027618408 0.006668091
vt 0.027618408 0.61035156
vt 0.027618408 0.61035156
vt 0.027618408 0.006668091
vt 0.027618408 0.006668091
vt 0.027618408 0.61035156
vt 0.027618408 0.61035156
vt 0.027618408 0.006668091
vt 0.027618408 0.006668091
vt 0.027618408 0.61035156
vt 0.027618408 0.61035156
vt 0.027618408 0.61035156
vt 2.6855469 0.61035156
vt 0.027618408 0.9404297
vt 2.6855469 0.9404297
vt 0.027618408 0.61035156
vt 2.6933594 0.61035156
vt 0.027618408 0.9404297
vt 2.6933594 0.9404297
vt 0.027618408 0.61035156
vt 2.6855469 0.61035156
vt 0.027618408 0.9404297
vt 2.6855469 0.9404297
vt 0.027618408 0.61035156
vt 2.6933594 0.61035156
vt 0.027618408 0.9404297
vt 2.6933594 0.9404297
vt 0.027618408 0.006668091
vt 2.6933594 0.006668091
vt 0.027618408 0.61035156
vt 2.6933594 0.61035156
vt 0.027618408 0.006668091
vt 2.6855469 0.006668091
vt 0.027618408 0.61035156
vt 2.6855469 0.61035156
vt -10.8203125 -0.3671875
vt -10.7734375 -0.3671875
vt -10.8203125 -0.6923828
vt -10.78125 -0.6948242
vt -10.8203125 -0.6923828
vt -10.7734375 -0.3671875
vt -14.1328125 -0.69091797
vt -14.171875 -0.6972656
vt -14.125 -0.3671875
vt -14.171875 -0.3671875
vt -14.125 -0.3671875
vt -14.171875 -0.6972656
vt -4.8007812 -0.3671875
vt -4.7617188 -0.3671875
vt -4.8046875 -0.6923828
vt -4.7695312 -0.6953125
vt -4.8046875 -0.6923828
vt -4.7617188 -0.3671875
vt -14.171875 -0.6972656
vt -14.1328125 -0.69091797
vt -14.1328125 -0.75927734
vt -10.78125 -0.6948242
vt -10.8046875 -0.7597656
vt -10.8203125 -0.6923828
vt -4.8046875 -0.6923828
vt -4.7695312 -0.6953125
vt -4.7929688 -0.7602539
vt -8.109375 -0.6923828
vt -8.1328125 -0.7597656
vt -8.1484375 -0.69433594
vt -14.125 -0.3671875
vt -10.8203125 -0.3671875
vt -14.1328125 -0.69091797
vt -10.8203125 -0.6923828
vt -10.7734375 -0.3671875
vt -8.140625 -0.3671875
vt -10.78125 -0.6948242
vt -8.1484375 -0.69433594
vt -8.1015625 -0.3671875
vt -4.8007812 -0.3671875
vt -8.109375 -0.6923828
vt -4.8046875 -0.6923828
vt -4.7617188 -0.3671875
vt -2.1289062 -0.3671875
vt -4.7695312 -0.6953125
vt -2.125 -0.6948242
vt -8.140625 -0.3671875
vt -8.1015625 -0.3671875
vt -8.1484375 -0.69433594
vt -8.109375 -0.6923828
vt -4.7929688 -0.7602539
vt -4.7695312 -0.6953125
vt -2.1308594 -0.7602539
vt -2.125 -0.6948242
vt -8.1328125 -0.7597656
vt -8.109375 -0.6923828
vt -4.7929688 -0.7602539
vt -4.8046875 -0.6923828
vt -10.8046875 -0.7597656
vt -10.78125 -0.6948242
vt -8.1328125 -0.7597656
vt -8.1484375 -0.69433594
vt -14.1328125 -0.75927734
vt -14.1328125 -0.69091797
vt -10.8046875 -0.7597656
vt -10.8203125 -0.6923828
vt 8.1484375 -4.9570312
vt 8.15625 -2.3144531
vt 11.4609375 -4.9648438
vt 11.46875 -2.3242188
vt 11.03125 2.5390625
vt 7.8242188 2.5292969
vt 11.03125 5.1289062
vt 7.8203125 5.1171875
vn -0.16870117 0.9765625 0.13452148
vn -0.16870117 0.9765625 0.13452148
vn -0.16870117 0.9765625 0.13452148
vn 0.18286133 0.9765625 0.1116333
vn 0.18286133 0.9765625 0.1116333
vn 0.18286133 0.9765625 0.1116333
vn -0.18286133 0.9765625 -0.1116333
vn -0.18286133 0.9765625 -0.1116333
vn -0.18286133 0.9765625 -0.1116333
vn 0.16882324 0.9765625 -0.13452148
vn 0.16882324 0.9765625 -0.13452148
vn 0.16882324 0.9765625 -0.13452148
vn 0.0030879974 0.43286133 0.9013672
vn 0.0030879974 0.43286133 0.9013672
vn 0.0030879974 0.43286133 0.9013672
vn 0.0030441284 0.43530273 0.9003906
vn 0.0030441284 0.43530273 0.9003906
vn 0.0030441284 0.43530273 0.9003906
vn -0.9477539 0.31958008 0.0013532639
vn -0.9477539 0.31958008 0.0013532639
vn -0.9477539 0.31958008 0.0013532639
vn -0.9482422 0.31762695 0.0013904572
vn -0.9482422 0.31762695 0.0013904572
vn -0.9482422 0.31762695 0.0013904572
vn -0.7524414 0.27294922 0.5996094
vn -0.7524414 0.27294922 0.5996094
vn -0.7524414 0.27294922 0.5996094
vn -0.7524414 0.27294922 0.5996094
vn 0.82421875 0.25976562 0.5029297
vn 0.82421875 0.25976562 0.5029297
vn 0.82421875 0.25976562 0.5029297
vn 0.82421875 0.26000977 0.5029297
vn -0.82421875 0.25976562 -0.5029297
vn -0.82421875 0.25976562 -0.5029297
vn -0.82421875 0.25976562 -0.5029297
vn -0.82421875 0.25976562 -0.5029297
vn 0.7529297 0.27124023 -0.5996094
vn 0.7529297 0.27124023 -0.5996094
vn 0.7529297 0.27124023 -0.5996094
vn 0.7529297 0.27124023 -0.5996094
vn 0.0010538101 0.9501953 0.31152344
vn 0.0010538101 0.9501953 0.31152344
vn 0.0010538101 0.9501953 0.31152344
vn 0.0010690689 0.9501953 0.31225586
vn 0.22277832 0.97509766 -0.00032567978
vn 0.22277832 0.97509766 -0.00032567978
vn 0.22277832 0.97509766 -0.00032567978
vn 0.22277832 0.97509766 -0.00032544136
vn -0.0010538101 0.9501953 -0.31152344
vn -0.0010538101 0.9501953 -0.31152344
vn -0.0010538101 0.9501953 -0.31152344
vn -0.0010690689 0.9501953 -0.31225586
vn -0.22277832 0.97509766 0.00032758713
vn -0.22277832 0.97509766 0.00032758713
vn -0.22277832 0.97509766 0.00032758713
vn -0.22277832 0.97509766 0.00032782555
vn 0.9482422 0.3173828 -0.0013904572
vn 0.9482422 0.3173828 -0.0013904572
vn 0.9482422 0.3173828 -0.0013904572
vn 0.9482422 0.31762695 -0.0013904572
vn -0.0030498505 0.43286133 -0.9013672
vn -0.0030498505 0.43286133 -0.9013672
vn -0.0030498505 0.43286133 -0.9013672
vn -0.0030498505 0.43286133 -0.9013672
vn 0.8535156 0.0058403015 0.5209961
vn 0.8535156 0.0058403015 0.5209961
vn 0.8535156 0.0058403015 0.5209961
vn 0.8535156 0.0058403015 0.5209961
vn 0.8535156 0.0058403015 0.5209961
vn 0.8535156 0.0058403015 0.5209961
vn -0.78222656 0.0061073303 0.6230469
vn -0.78222656 0.0061073303 0.6230469
vn -0.78222656 0.0061073303 0.6230469
vn -0.78222656 0.0061073303 0.6230469
vn -0.78222656 0.0061073303 0.6230469
vn -0.78222656 0.0061073303 0.6230469
vn -0.8535156 3.8146973E-06 -0.5209961
vn -0.8535156 3.8146973E-06 -0.5209961
vn -0.8535156 3.8146973E-06 -0.5209961
vn -0.8535156 2.682209E-06 -0.5209961
vn -0.8535156 2.682209E-06 -0.5209961
vn -0.8535156 2.682209E-06 -0.5209961
vn -0.72314453 -0.38061523 0.5761719
vn -0.72314453 -0.38061523 0.5761719
vn -0.72314453 -0.38061523 0.5761719
vn 0.7944336 -0.3659668 0.48486328
vn 0.7944336 -0.3659668 0.48486328
vn 0.7944336 -0.3659668 0.48486328
vn -0.7944336 -0.3659668 -0.48486328
vn -0.7944336 -0.3659668 -0.48486328
vn -0.7944336 -0.3659668 -0.48486328
vn 0.72314453 -0.38061523 -0.5761719
vn 0.72314453 -0.38061523 -0.5761719
vn 0.72314453 -0.38061523 -0.5761719
vn 0.0033836365 0.010414124 1
vn 0.0033836365 0.010414124 1
vn 0.0033836365 0.010414124 1
vn 0.0033817291 0.010421753 1
vn 1 0.00046610832 -0.0014667511
vn 1 0.00046610832 -0.0014667511
vn 1 0.00046610832 -0.0014667511
vn 1 2.8014183E-06 -0.0015239716
vn -0.0033817291 6.198883E-06 -1
vn -0.0033817291 6.198883E-06 -1
vn -0.0033817291 6.198883E-06 -1
vn -0.0033817291 6.198883E-06 -1
vn -1 -7.1525574E-07 0.0014657974
vn -1 -7.1525574E-07 0.0014657974
vn -1 -7.1525574E-07 0.0014657974
vn -1 -0.00047135353 0.0015239716
vn 0.78222656 7.3313713E-06 -0.6230469
vn 0.78222656 7.3313713E-06 -0.6230469
vn 0.78222656 7.3313713E-06 -0.6230469
vn 0.78222656 6.020069E-06 -0.6230469
vn -0.8984375 -0.43945312 0.0013685226
vn -0.8984375 -0.43945312 0.0013685226
vn -0.8984375 -0.43945312 0.0013685226
vn -0.8984375 -0.43945312 0.0013685226
vn -0.0027694702 -0.57421875 -0.81884766
vn -0.0027694702 -0.57421875 -0.81884766
vn -0.0027694702 -0.57421875 -0.81884766
vn -0.0027694702 -0.57421875 -0.81884766
vn 0.8984375 -0.43945312 -0.0013694763
vn 0.8984375 -0.43945312 -0.0013694763
vn 0.8984375 -0.43945312 -0.0013694763
vn 0.8984375 -0.43945312 -0.0013694763
vn 0.0027675629 -0.57421875 0.81884766
vn 0.0027675629 -0.57421875 0.81884766
vn 0.0027675629 -0.57421875 0.81884766
vn 0.0027694702 -0.57421875 0.81884766
vn -0 -1 -1.3709068E-06
vn -0 -1 -1.3709068E-06
vn -0 -1 -1.3709068E-06
vn -0 -1 -1.3709068E-06
vn -0 1 1.2516975E-06
vn -0 1 1.2516975E-06
vn -0 1 1.2516975E-06
vn -0 1 1.1324883E-06
g C001_FB01_0
f 3/3/3 2/2/2 1/1/1
f 6/6/6 5/5/5 4/4/4
f 9/9/9 8/8/8 7/7/7
f 12/12/12 11/11/11 10/10/10
f 15/15/15 14/14/14 13/13/13
f 18/18/18 17/17/17 16/16/16
f 21/21/21 20/20/20 19/19/19
f 24/24/24 23/23/23 22/22/22
f 27/27/27 26/26/26 25/25/25
f 26/26/26 27/27/27 28/28/28
f 31/31/31 30/30/30 29/29/29
f 30/30/30 31/31/31 32/32/32
f 35/35/35 34/34/34 33/33/33
f 34/34/34 35/35/35 36/36/36
f 39/39/39 38/38/38 37/37/37
f 38/38/38 39/39/39 40/40/40
f 43/43/43 42/42/42 41/41/41
f 42/42/42 43/43/43 44/44/44
f 47/47/47 46/46/46 45/45/45
f 46/46/46 47/47/47 48/48/48
f 51/51/51 50/50/50 49/49/49
f 50/50/50 51/51/51 52/52/52
f 55/55/55 54/54/54 53/53/53
f 54/54/54 55/55/55 56/56/56
f 59/59/59 58/58/58 57/57/57
f 58/58/58 59/59/59 60/60/60
f 63/63/63 62/62/62 61/61/61
f 62/62/62 63/63/63 64/64/64
g C001_FB01_1
f 67/67/67 66/66/66 65/65/65
f 70/70/70 69/69/69 68/68/68
f 73/73/73 72/72/72 71/71/71
f 76/76/76 75/75/75 74/74/74
f 79/79/79 78/78/78 77/77/77
f 82/82/82 81/81/81 80/80/80
f 85/85/85 84/84/84 83/83/83
f 88/88/88 87/87/87 86/86/86
f 91/91/91 90/90/90 89/89/89
f 94/94/94 93/93/93 92/92/92
f 97/97/97 96/96/96 95/95/95
f 96/96/96 97/97/97 98/98/98
f 101/101/101 100/100/100 99/99/99
f 100/100/100 101/101/101 102/102/102
f 105/105/105 104/104/104 103/103/103
f 104/104/104 105/105/105 106/106/106
f 109/109/109 108/108/108 107/107/107
f 108/108/108 109/109/109 110/110/110
f 113/113/113 112/112/112 111/111/111
f 112/112/112 113/113/113 114/114/114
f 117/117/117 116/116/116 115/115/115
f 116/116/116 117/117/117 118/118/118
f 121/121/121 120/120/120 119/119/119
f 120/120/120 121/121/121 122/122/122
f 125/125/125 124/124/124 123/123/123
f 124/124/124 125/125/125 126/126/126
f 129/129/129 128/128/128 127/127/127
f 128/128/128 129/129/129 130/130/130
g C001_FB01_2
f 133/133/133 132/132/132 131/131/131
f 132/132/132 133/133/133 134/134/134
g C001_FB01_3
f 137/137/137 136/136/136 135/135/135
f 136/136/136 137/137/137 138/138/138
