g C001_BB04
v 18.656103 -0.7381475 11.861568
v 18.598505 7.001525 11.880011
v 18.976528 -0.7266021 11.532784
v 18.918955 7.011033 11.551217
v 18.976528 -0.7266021 11.532784
v 18.598505 7.001525 11.880011
v -18.976522 7.1471567 -11.505863
v -18.919268 -0.5605146 -11.551223
v -18.656094 7.1566343 -11.834649
v -18.598846 -0.5489838 -11.88001
v -18.656094 7.1566343 -11.834649
v -18.919268 -0.5605146 -11.551223
v 18.976528 -0.7266021 11.532784
v 18.358402 -1.1338432 11.280005
v 18.656103 -0.7381475 11.861568
v -18.88538 -0.7651104 11.531559
v -18.556562 -0.7635674 11.8520565
v -18.416777 -1.1503422 11.262779
v 18.613783 -0.52353215 -11.87049
v 18.623169 -0.94989693 -11.558156
v 18.942636 -0.5220039 -11.55
v -18.598846 -0.5489838 -11.88001
v -18.919268 -0.5605146 -11.551223
v -18.418583 -0.9488031 -11.584089
v 18.623169 -0.94989693 -11.558156
v 18.358402 -1.1338432 11.280005
v 18.942636 -0.5220039 -11.55
v 18.976528 -0.7266021 11.532784
v 18.942636 -0.5220039 -11.55
v 18.358402 -1.1338432 11.280005
v 0.7361328 -7.2905097 10.537757
v 0.76783204 0.18210281 10.442958
v 1.123164 -7.29696 10.157178
v 1.1548632 0.17565812 10.06236
v 1.123164 -7.29696 10.157178
v 0.76783204 0.18210281 10.442958
v -17.02249 0.16600966 -3.6749644
v -17.02703 -7.307141 -3.622117
v -16.894121 0.16052082 -4.202367
v -16.898682 -7.312628 -4.1495204
v -16.894121 0.16052082 -4.202367
v -17.02703 -7.307141 -3.622117
v 1.123164 -7.29696 10.157178
v 0.7385742 -7.5514884 10.158956
v 0.7361328 -7.2905097 10.537757
v -17.447119 -7.226154 10.234253
v -17.066484 -7.222255 10.62127
v -17.064072 -7.483239 10.242472
v 0.6235254 -7.3803015 -3.8703482
v 0.82466793 -7.631933 -3.5383852
v 1.1509082 -7.3774242 -3.7420132
v -16.898682 -7.312628 -4.1495204
v -17.02703 -7.307141 -3.622117
v -16.69752 -7.564259 -3.81756
v 0.82466793 -7.631933 -3.5383852
v 0.7385742 -7.5514884 10.158956
v 1.1509082 -7.3774242 -3.7420132
v 1.123164 -7.29696 10.157178
v 1.1509082 -7.3774242 -3.7420132
v 0.7385742 -7.5514884 10.158956
v -17.064072 -7.483239 10.242472
v -16.69752 -7.564259 -3.81756
v -17.447119 -7.226154 10.234253
v -17.02703 -7.307141 -3.622117
v -17.447119 -7.226154 10.234253
v -16.69752 -7.564259 -3.81756
v 10.066885 -3.7910342 7.054625
v 10.068378 -0.42810944 7.0376525
v 10.364238 -3.7910354 6.879095
v 10.365742 -0.4281131 6.8621154
v 10.364238 -3.7910354 6.879095
v 10.068378 -0.42810944 7.0376525
v 10.364238 -3.7910354 6.879095
v 10.064697 -4.2182913 6.7906384
v 10.066885 -3.7910342 7.054625
v -0.69097656 -3.7910342 5.375465
v -0.42993164 -3.7910342 5.6093774
v -0.35773435 -4.2182875 5.277313
v 11.312773 -3.7910314 -0.8664857
v 11.294619 -4.232218 -0.66176647
v 11.573818 -3.7910314 -0.6325795
v 0.80078125 -3.7910302 -2.3554823
v 0.50343746 -3.7910314 -2.179955
v 0.8297265 -4.2182837 -2.143334
v 11.294619 -4.232218 -0.66176647
v 10.064697 -4.2182913 6.7906384
v 11.573818 -3.7910314 -0.6325795
v 10.364238 -3.7910354 6.879095
v 11.573818 -3.7910314 -0.6325795
v 10.064697 -4.2182913 6.7906384
v 10.064697 -4.2182913 6.7906384
v -0.35773435 -4.2182875 5.277313
v 10.066885 -3.7910342 7.054625
v -0.42993164 -3.7910342 5.6093774
v 10.066885 -3.7910342 7.054625
v -0.35773435 -4.2182875 5.277313
v 6.1552634 -5.3760858 10.901871
v 6.15458 0.24234632 10.884803
v 6.3866796 -5.3760867 10.696188
v 6.3860154 0.24234146 10.67912
v 6.3866796 -5.3760867 10.696188
v 6.15458 0.24234632 10.884803
v 6.3866796 -5.3760867 10.696188
v 6.123203 -5.803343 10.638956
v 6.1552634 -5.3760858 10.901871
v -3.147959 -5.3760867 10.7260895
v -2.9003613 -5.3760858 10.932303
v -2.8773143 -5.8033404 10.593839
v 6.302373 -5.376084 2.8772225
v 6.3104296 -5.8172703 3.0831697
v 6.5499315 -5.376084 3.083431
v -2.7711132 -5.376084 2.8656185
v -3.0025194 -5.376084 3.0712948
v -2.7223437 -5.803337 3.0741048
v 6.3104296 -5.8172703 3.0831697
v 6.123203 -5.803343 10.638956
v 6.5499315 -5.376084 3.083431
v 6.3866796 -5.3760867 10.696188
v 6.5499315 -5.376084 3.083431
v 6.123203 -5.803343 10.638956
v 6.123203 -5.803343 10.638956
v -2.8773143 -5.8033404 10.593839
v 6.1552634 -5.3760858 10.901871
v -2.9003613 -5.3760858 10.932303
v 6.1552634 -5.3760858 10.901871
v -2.8773143 -5.8033404 10.593839
v 18.128456 -2.4310532 11.18347
v 18.127777 -0.18212573 11.1664
v 18.359873 -2.4310546 10.977787
v 18.35921 -0.1821306 10.960716
v 18.359873 -2.4310546 10.977787
v 18.127777 -0.18212573 11.1664
v 18.359873 -2.4310546 10.977787
v 18.096401 -2.8583105 10.920555
v 18.128456 -2.4310532 11.18347
v 9.914795 -2.4310546 11.007691
v 10.162393 -2.4310546 11.213904
v 10.18543 -2.858308 10.875441
v 18.015669 -2.4310515 1.7151634
v 18.02373 -2.8722398 1.9211106
v 18.263227 -2.431051 1.9213718
v 10.031738 -2.4310515 1.7035606
v 9.800332 -2.431051 1.9092369
v 10.080507 -2.8583043 1.9120469
v 18.02373 -2.8722398 1.9211106
v 18.096401 -2.8583105 10.920555
v 18.263227 -2.431051 1.9213718
v 18.359873 -2.4310546 10.977787
v 18.263227 -2.431051 1.9213718
v 18.096401 -2.8583105 10.920555
v 18.096401 -2.8583105 10.920555
v 10.18543 -2.858308 10.875441
v 18.128456 -2.4310532 11.18347
v 10.162393 -2.4310546 11.213904
v 18.128456 -2.4310532 11.18347
v 10.18543 -2.858308 10.875441
v 18.598505 7.001525 11.880011
v 18.656103 -0.7381475 11.861568
v -18.61414 6.9806485 11.87048
v -18.556562 -0.7635674 11.8520565
v -18.942987 6.979384 11.549981
v -18.88538 -0.7651104 11.531559
v -18.976522 7.1471567 -11.505863
v -18.919268 -0.5605146 -11.551223
v -18.656094 7.1566343 -11.834649
v -18.598846 -0.5489838 -11.88001
v 18.556553 7.1775413 -11.825126
v 18.613783 -0.52353215 -11.87049
v 18.88537 7.1787815 -11.504635
v 18.942636 -0.5220039 -11.55
v 18.918955 7.011033 11.551217
v 18.976528 -0.7266021 11.532784
v -18.61414 6.9806485 11.87048
v -18.556562 -0.7635674 11.8520565
v -18.942987 6.979384 11.549981
v -18.88538 -0.7651104 11.531559
v 18.556553 7.1775413 -11.825126
v 18.613783 -0.52353215 -11.87049
v 18.88537 7.1787815 -11.504635
v 18.942636 -0.5220039 -11.55
v -18.418583 -0.9488031 -11.584089
v 18.623169 -0.94989693 -11.558156
v -18.598846 -0.5489838 -11.88001
v 18.613783 -0.52353215 -11.87049
v -18.416777 -1.1503422 11.262779
v -18.418583 -0.9488031 -11.584089
v -18.88538 -0.7651104 11.531559
v -18.919268 -0.5605146 -11.551223
v 18.358402 -1.1338432 11.280005
v -18.416777 -1.1503422 11.262779
v 18.656103 -0.7381475 11.861568
v -18.556562 -0.7635674 11.8520565
v 0.76783204 0.18210281 10.442958
v 0.7361328 -7.2905097 10.537757
v -17.034824 0.25033766 10.526454
v -17.066484 -7.222255 10.62127
v -17.41543 0.2464412 10.139437
v -17.447119 -7.226154 10.234253
v -17.02249 0.16600966 -3.6749644
v -17.02703 -7.307141 -3.622117
v -16.894121 0.16052082 -4.202367
v -16.898682 -7.312628 -4.1495204
v 0.6280664 0.09285478 -3.9231846
v 0.6235254 -7.3803015 -3.8703482
v 1.1554785 0.09575028 -3.7948534
v 1.1509082 -7.3774242 -3.7420132
v 1.1548632 0.17565812 10.06236
v 1.123164 -7.29696 10.157178
v -17.034824 0.25033766 10.526454
v -17.066484 -7.222255 10.62127
v -17.41543 0.2464412 10.139437
v -17.447119 -7.226154 10.234253
v 0.6280664 0.09285478 -3.9231846
v 0.6235254 -7.3803015 -3.8703482
v 1.1554785 0.09575028 -3.7948534
v 1.1509082 -7.3774242 -3.7420132
v -16.69752 -7.564259 -3.81756
v 0.82466793 -7.631933 -3.5383852
v -16.898682 -7.312628 -4.1495204
v 0.6235254 -7.3803015 -3.8703482
v 0.7385742 -7.5514884 10.158956
v -17.064072 -7.483239 10.242472
v 0.7361328 -7.2905097 10.537757
v -17.066484 -7.222255 10.62127
v 10.068378 -0.42810944 7.0376525
v 10.066885 -3.7910342 7.054625
v -0.42842773 -0.42810875 5.592405
v -0.42993164 -3.7910342 5.6093774
v -0.6894531 -0.42811057 5.3584933
v -0.69097656 -3.7910342 5.375465
v 0.50342774 -0.45549917 -2.1799426
v 0.50343746 -3.7910314 -2.179955
v 0.8007715 -0.45549914 -2.3554688
v 0.80078125 -3.7910302 -2.3554823
v 11.312793 -0.45551386 -0.86646485
v 11.312773 -3.7910314 -0.8664857
v 11.573837 -0.45551264 -0.6325623
v 11.573818 -3.7910314 -0.6325795
v 10.365742 -0.4281131 6.8621154
v 10.364238 -3.7910354 6.879095
v -0.42842773 -0.42810875 5.592405
v -0.42993164 -3.7910342 5.6093774
v -0.6894531 -0.42811057 5.3584933
v -0.69097656 -3.7910342 5.375465
v 0.50342774 -0.45549917 -2.1799426
v 0.50343746 -3.7910314 -2.179955
v 0.8007715 -0.45549914 -2.3554688
v 0.80078125 -3.7910302 -2.3554823
v 11.312793 -0.45551386 -0.86646485
v 11.312773 -3.7910314 -0.8664857
v 11.573837 -0.45551264 -0.6325623
v 11.573818 -3.7910314 -0.6325795
v 0.8297265 -4.2182837 -2.143334
v 11.294619 -4.232218 -0.66176647
v 0.80078125 -3.7910302 -2.3554823
v 11.312773 -3.7910314 -0.8664857
v -0.35773435 -4.2182875 5.277313
v 0.8297265 -4.2182837 -2.143334
v -0.69097656 -3.7910342 5.375465
v 0.50343746 -3.7910314 -2.179955
v 6.15458 0.24234632 10.884803
v 6.1552634 -5.3760858 10.901871
v -2.901035 0.24234693 10.915237
v -2.9003613 -5.3760858 10.932303
v -3.1486034 0.24234204 10.709017
v -3.147959 -5.3760867 10.7260895
v -3.0025194 0.21495469 3.0713074
v -3.0025194 -5.376084 3.0712948
v -2.7711132 0.21495469 2.865626
v -2.7711132 -5.376084 2.8656185
v 6.302373 0.21494187 2.8772388
v 6.302373 -5.376084 2.8772225
v 6.5499315 0.21494187 3.0834422
v 6.5499315 -5.376084 3.083431
v 6.3860154 0.24234146 10.67912
v 6.3866796 -5.3760867 10.696188
v -2.901035 0.24234693 10.915237
v -2.9003613 -5.3760858 10.932303
v -3.1486034 0.24234204 10.709017
v -3.147959 -5.3760867 10.7260895
v -3.0025194 0.21495469 3.0713074
v -3.0025194 -5.376084 3.0712948
v -2.7711132 0.21495469 2.865626
v -2.7711132 -5.376084 2.8656185
v 6.302373 0.21494187 2.8772388
v 6.302373 -5.376084 2.8772225
v 6.5499315 0.21494187 3.0834422
v 6.5499315 -5.376084 3.083431
v -2.7223437 -5.803337 3.0741048
v 6.3104296 -5.8172703 3.0831697
v -2.7711132 -5.376084 2.8656185
v 6.302373 -5.376084 2.8772225
v -2.8773143 -5.8033404 10.593839
v -2.7223437 -5.803337 3.0741048
v -3.147959 -5.3760867 10.7260895
v -3.0025194 -5.376084 3.0712948
v 18.127777 -0.18212573 11.1664
v 18.128456 -2.4310532 11.18347
v 10.161709 -0.18212512 11.19683
v 10.162393 -2.4310546 11.213904
v 9.914141 -0.1821306 10.990609
v 9.914795 -2.4310546 11.007691
v 9.800332 -0.20951729 1.909248
v 9.800332 -2.431051 1.9092369
v 10.031738 -0.20951606 1.7035669
v 10.031738 -2.4310515 1.7035606
v 18.015673 -0.20952949 1.7151794
v 18.015669 -2.4310515 1.7151634
v 18.263231 -0.20953071 1.921383
v 18.263227 -2.431051 1.9213718
v 18.35921 -0.1821306 10.960716
v 18.359873 -2.4310546 10.977787
v 10.161709 -0.18212512 11.19683
v 10.162393 -2.4310546 11.213904
v 9.914141 -0.1821306 10.990609
v 9.914795 -2.4310546 11.007691
v 9.800332 -0.20951729 1.909248
v 9.800332 -2.431051 1.9092369
v 10.031738 -0.20951606 1.7035669
v 10.031738 -2.4310515 1.7035606
v 18.015673 -0.20952949 1.7151794
v 18.015669 -2.4310515 1.7151634
v 18.263231 -0.20953071 1.921383
v 18.263227 -2.431051 1.9213718
v 10.080507 -2.8583043 1.9120469
v 18.02373 -2.8722398 1.9211106
v 10.031738 -2.4310515 1.7035606
v 18.015669 -2.4310515 1.7151634
v 10.18543 -2.858308 10.875441
v 10.080507 -2.8583043 1.9120469
v 9.914795 -2.4310546 11.007691
v 9.800332 -2.431051 1.9092369
v -18.416777 -1.1503422 11.262779
v 18.358402 -1.1338432 11.280005
v -18.418583 -0.9488031 -11.584089
v 18.623169 -0.94989693 -11.558156
v -17.064072 -7.483239 10.242472
v 0.7385742 -7.5514884 10.158956
v -16.69752 -7.564259 -3.81756
v 0.82466793 -7.631933 -3.5383852
v -0.35773435 -4.2182875 5.277313
v 10.064697 -4.2182913 6.7906384
v 0.8297265 -4.2182837 -2.143334
v 11.294619 -4.232218 -0.66176647
v -2.8773143 -5.8033404 10.593839
v 6.123203 -5.803343 10.638956
v -2.7223437 -5.803337 3.0741048
v 6.3104296 -5.8172703 3.0831697
v 10.18543 -2.858308 10.875441
v 18.096401 -2.8583105 10.920555
v 10.080507 -2.8583043 1.9120469
v 18.02373 -2.8722398 1.9211106
v 18.358433 7.4734693 11.200821
v 18.752016 7.312455 11.564113
v 18.591835 7.3076873 11.728512
v -18.416698 7.4598947 11.183595
v -18.62081 7.286818 11.718976
v -18.785213 7.286193 11.558731
v 18.34513 7.6319327 -11.10502
v 18.554087 7.4795337 -11.651996
v 18.71849 7.4801803 -11.491756
v -18.430079 7.6183805 -11.122249
v -18.81876 7.4539576 -11.497115
v -18.658545 7.458696 -11.661508
v 0.68715817 0.7853193 9.793788
v 0.9658691 0.89780533 10.056427
v 0.772373 0.9010194 10.246719
v -16.96957 0.8529622 9.871004
v -17.031748 0.6380897 10.330646
v -17.22205 0.63613904 10.137152
v 0.91707027 0.7082826 -3.342157
v 0.72753906 0.4853035 -3.7624915
v 0.99125975 0.48672682 -3.6983337
v -16.484444 0.7753651 -3.7035801
v -16.858828 0.5557069 -3.7779722
v -16.794638 0.55294937 -4.041676
v -17.031748 0.6380897 10.330646
v -16.96957 0.8529622 9.871004
v 0.772373 0.9010194 10.246719
v 0.68715817 0.7853193 9.793788
v 0.772373 0.9010194 10.246719
v -16.96957 0.8529622 9.871004
v -16.858828 0.5557069 -3.7779722
v -16.484444 0.7753651 -3.7035801
v -17.22205 0.63613904 10.137152
v -16.96957 0.8529622 9.871004
v -17.22205 0.63613904 10.137152
v -16.484444 0.7753651 -3.7035801
v 0.72753906 0.4853035 -3.7624915
v 0.91707027 0.7082826 -3.342157
v -16.794638 0.55294937 -4.041676
v -16.484444 0.7753651 -3.7035801
v -16.794638 0.55294937 -4.041676
v 0.91707027 0.7082826 -3.342157
v 0.9658691 0.89780533 10.056427
v 0.68715817 0.7853193 9.793788
v 0.99125975 0.48672682 -3.6983337
v 0.91707027 0.7082826 -3.342157
v 0.99125975 0.48672682 -3.6983337
v 0.68715817 0.7853193 9.793788
v -17.034824 0.25033766 10.526454
v -17.031748 0.6380897 10.330646
v 0.76783204 0.18210281 10.442958
v 0.772373 0.9010194 10.246719
v 0.76783204 0.18210281 10.442958
v -17.031748 0.6380897 10.330646
v -17.02249 0.16600966 -3.6749644
v -16.858828 0.5557069 -3.7779722
v -17.41543 0.2464412 10.139437
v -17.22205 0.63613904 10.137152
v -17.41543 0.2464412 10.139437
v -16.858828 0.5557069 -3.7779722
v 1.1548632 0.17565812 10.06236
v 0.9658691 0.89780533 10.056427
v 1.1554785 0.09575028 -3.7948534
v 0.99125975 0.48672682 -3.6983337
v 1.1554785 0.09575028 -3.7948534
v 0.9658691 0.89780533 10.056427
v 10.066211 0.15449433 6.7739267
v 10.226142 -0.10872344 6.847528
v 10.07748 -0.10872467 6.935294
v -0.3562695 0.15449561 5.2606077
v -0.41936523 -0.108720936 5.4900465
v -0.54987305 -0.108720936 5.3730893
v 11.294629 0.117045924 -0.66175413
v 11.3037 -0.10870479 -0.76411134
v 11.434238 -0.10870358 -0.64716554
v 0.8284375 0.13224009 -2.1263745
v 0.6430273 -0.108702295 -2.1653466
v 0.79170895 -0.10868765 -2.2531104
v -0.41936523 -0.108720936 5.4900465
v -0.3562695 0.15449561 5.2606077
v 10.07748 -0.10872467 6.935294
v 10.066211 0.15449433 6.7739267
v 10.07748 -0.10872467 6.935294
v -0.3562695 0.15449561 5.2606077
v 0.6430273 -0.108702295 -2.1653466
v 0.8284375 0.13224009 -2.1263745
v -0.54987305 -0.108720936 5.3730893
v -0.3562695 0.15449561 5.2606077
v -0.54987305 -0.108720936 5.3730893
v 0.8284375 0.13224009 -2.1263745
v 6.1225586 0.82494885 10.622137
v 6.2662597 0.5617311 10.678992
v 6.150566 0.5617311 10.78183
v -2.8779979 0.82494885 10.57703
v -2.9050782 0.5617317 10.812264
v -3.0288768 0.5617317 10.709154
v 6.310439 0.78750044 3.08318
v 6.306416 0.56175095 2.9802086
v 6.4301953 0.56175095 3.0833044
v -2.7215037 0.8026933 3.0911388
v -2.8827832 0.56175154 3.071439
v -2.7670898 0.5617662 2.9685974
v -2.9050782 0.5617317 10.812264
v -2.8779979 0.82494885 10.57703
v 6.150566 0.5617311 10.78183
v 6.1225586 0.82494885 10.622137
v 6.150566 0.5617311 10.78183
v -2.8779979 0.82494885 10.57703
v -2.8827832 0.56175154 3.071439
v -2.7215037 0.8026933 3.0911388
v -3.0288768 0.5617317 10.709154
v -2.8779979 0.82494885 10.57703
v -3.0288768 0.5617317 10.709154
v -2.7215037 0.8026933 3.0911388
v 18.095757 0.40047622 10.903741
v 18.239452 0.13725843 10.960597
v 18.123764 0.13725904 11.063434
v 10.184746 0.40047622 10.858634
v 10.157666 0.13725965 11.0938635
v 10.033867 0.13725904 10.990753
v 18.02374 0.36302787 1.9211205
v 18.019712 0.13727959 1.8181493
v 18.143496 0.13727835 1.9212451
v 10.081347 0.37822074 1.9290795
v 9.920068 0.13727957 1.9093798
v 10.035762 0.13729545 1.8065381
v 10.157666 0.13725965 11.0938635
v 10.184746 0.40047622 10.858634
v 18.123764 0.13725904 11.063434
v 18.095757 0.40047622 10.903741
v 18.123764 0.13725904 11.063434
v 10.184746 0.40047622 10.858634
v 9.920068 0.13727957 1.9093798
v 10.081347 0.37822074 1.9290795
v 10.033867 0.13725904 10.990753
v 10.184746 0.40047622 10.858634
v 10.033867 0.13725904 10.990753
v 10.081347 0.37822074 1.9290795
v 18.598505 7.001525 11.880011
v 18.591835 7.3076873 11.728512
v 18.918955 7.011033 11.551217
v 18.752016 7.312455 11.564113
v -18.942987 6.979384 11.549981
v -18.785213 7.286193 11.558731
v -18.61414 6.9806485 11.87048
v -18.62081 7.286818 11.718976
v 18.88537 7.1787815 -11.504635
v 18.71849 7.4801803 -11.491756
v 18.556553 7.1775413 -11.825126
v 18.554087 7.4795337 -11.651996
v -18.656094 7.1566343 -11.834649
v -18.658545 7.458696 -11.661508
v -18.976522 7.1471567 -11.505863
v -18.81876 7.4539576 -11.497115
v -18.62081 7.286818 11.718976
v -18.416698 7.4598947 11.183595
v 18.591835 7.3076873 11.728512
v 18.358433 7.4734693 11.200821
v -18.81876 7.4539576 -11.497115
v -18.430079 7.6183805 -11.122249
v -18.785213 7.286193 11.558731
v -18.416698 7.4598947 11.183595
v 18.554087 7.4795337 -11.651996
v 18.34513 7.6319327 -11.10502
v -18.658545 7.458696 -11.661508
v -18.430079 7.6183805 -11.122249
v 18.752016 7.312455 11.564113
v 18.358433 7.4734693 11.200821
v 18.71849 7.4801803 -11.491756
v 18.34513 7.6319327 -11.10502
v -18.61414 6.9806485 11.87048
v -18.62081 7.286818 11.718976
v 18.598505 7.001525 11.880011
v 18.591835 7.3076873 11.728512
v -18.976522 7.1471567 -11.505863
v -18.81876 7.4539576 -11.497115
v -18.942987 6.979384 11.549981
v -18.785213 7.286193 11.558731
v 18.556553 7.1775413 -11.825126
v 18.554087 7.4795337 -11.651996
v -18.656094 7.1566343 -11.834649
v -18.658545 7.458696 -11.661508
v 18.918955 7.011033 11.551217
v 18.752016 7.312455 11.564113
v 18.88537 7.1787815 -11.504635
v 18.71849 7.4801803 -11.491756
v 0.76783204 0.18210281 10.442958
v 0.772373 0.9010194 10.246719
v 1.1548632 0.17565812 10.06236
v 0.9658691 0.89780533 10.056427
v -17.41543 0.2464412 10.139437
v -17.22205 0.63613904 10.137152
v -17.034824 0.25033766 10.526454
v -17.031748 0.6380897 10.330646
v 1.1554785 0.09575028 -3.7948534
v 0.99125975 0.48672682 -3.6983337
v 0.6280664 0.09285478 -3.9231846
v 0.72753906 0.4853035 -3.7624915
v -16.894121 0.16052082 -4.202367
v -16.794638 0.55294937 -4.041676
v -17.02249 0.16600966 -3.6749644
v -16.858828 0.5557069 -3.7779722
v 0.6280664 0.09285478 -3.9231846
v 0.72753906 0.4853035 -3.7624915
v -16.894121 0.16052082 -4.202367
v -16.794638 0.55294937 -4.041676
v 10.068378 -0.42810944 7.0376525
v 10.07748 -0.10872467 6.935294
v 10.365742 -0.4281131 6.8621154
v 10.226142 -0.10872344 6.847528
v -0.6894531 -0.42811057 5.3584933
v -0.54987305 -0.108720936 5.3730893
v -0.42842773 -0.42810875 5.592405
v -0.41936523 -0.108720936 5.4900465
v 11.573837 -0.45551264 -0.6325623
v 11.434238 -0.10870358 -0.64716554
v 11.312793 -0.45551386 -0.86646485
v 11.3037 -0.10870479 -0.76411134
v 0.8007715 -0.45549914 -2.3554688
v 0.79170895 -0.10868765 -2.2531104
v 0.50342774 -0.45549917 -2.1799426
v 0.6430273 -0.108702295 -2.1653466
v 11.3037 -0.10870479 -0.76411134
v 11.294629 0.117045924 -0.66175413
v 0.79170895 -0.10868765 -2.2531104
v 0.8284375 0.13224009 -2.1263745
v 10.226142 -0.10872344 6.847528
v 10.066211 0.15449433 6.7739267
v 11.434238 -0.10870358 -0.64716554
v 11.294629 0.117045924 -0.66175413
v -0.42842773 -0.42810875 5.592405
v -0.41936523 -0.108720936 5.4900465
v 10.068378 -0.42810944 7.0376525
v 10.07748 -0.10872467 6.935294
v 0.50342774 -0.45549917 -2.1799426
v 0.6430273 -0.108702295 -2.1653466
v -0.6894531 -0.42811057 5.3584933
v -0.54987305 -0.108720936 5.3730893
v 11.312793 -0.45551386 -0.86646485
v 11.3037 -0.10870479 -0.76411134
v 0.8007715 -0.45549914 -2.3554688
v 0.79170895 -0.10868765 -2.2531104
v 10.365742 -0.4281131 6.8621154
v 10.226142 -0.10872344 6.847528
v 11.573837 -0.45551264 -0.6325623
v 11.434238 -0.10870358 -0.64716554
v 6.15458 0.24234632 10.884803
v 6.150566 0.5617311 10.78183
v 6.3860154 0.24234146 10.67912
v 6.2662597 0.5617311 10.678992
v -3.1486034 0.24234204 10.709017
v -3.0288768 0.5617317 10.709154
v -2.901035 0.24234693 10.915237
v -2.9050782 0.5617317 10.812264
v 6.5499315 0.21494187 3.0834422
v 6.4301953 0.56175095 3.0833044
v 6.302373 0.21494187 2.8772388
v 6.306416 0.56175095 2.9802086
v -2.7711132 0.21495469 2.865626
v -2.7670898 0.5617662 2.9685974
v -3.0025194 0.21495469 3.0713074
v -2.8827832 0.56175154 3.071439
v 6.306416 0.56175095 2.9802086
v 6.310439 0.78750044 3.08318
v -2.7670898 0.5617662 2.9685974
v -2.7215037 0.8026933 3.0911388
v 6.2662597 0.5617311 10.678992
v 6.1225586 0.82494885 10.622137
v 6.4301953 0.56175095 3.0833044
v 6.310439 0.78750044 3.08318
v -2.901035 0.24234693 10.915237
v -2.9050782 0.5617317 10.812264
v 6.15458 0.24234632 10.884803
v 6.150566 0.5617311 10.78183
v -3.0025194 0.21495469 3.0713074
v -2.8827832 0.56175154 3.071439
v -3.1486034 0.24234204 10.709017
v -3.0288768 0.5617317 10.709154
v 6.302373 0.21494187 2.8772388
v 6.306416 0.56175095 2.9802086
v -2.7711132 0.21495469 2.865626
v -2.7670898 0.5617662 2.9685974
v 6.3860154 0.24234146 10.67912
v 6.2662597 0.5617311 10.678992
v 6.5499315 0.21494187 3.0834422
v 6.4301953 0.56175095 3.0833044
v 18.127777 -0.18212573 11.1664
v 18.123764 0.13725904 11.063434
v 18.35921 -0.1821306 10.960716
v 18.239452 0.13725843 10.960597
v 9.914141 -0.1821306 10.990609
v 10.033867 0.13725904 10.990753
v 10.161709 -0.18212512 11.19683
v 10.157666 0.13725965 11.0938635
v 18.263231 -0.20953071 1.921383
v 18.143496 0.13727835 1.9212451
v 18.015673 -0.20952949 1.7151794
v 18.019712 0.13727959 1.8181493
v 10.031738 -0.20951606 1.7035669
v 10.035762 0.13729545 1.8065381
v 9.800332 -0.20951729 1.909248
v 9.920068 0.13727957 1.9093798
v 18.019712 0.13727959 1.8181493
v 18.02374 0.36302787 1.9211205
v 10.035762 0.13729545 1.8065381
v 10.081347 0.37822074 1.9290795
v 18.239452 0.13725843 10.960597
v 18.095757 0.40047622 10.903741
v 18.143496 0.13727835 1.9212451
v 18.02374 0.36302787 1.9211205
v 10.161709 -0.18212512 11.19683
v 10.157666 0.13725965 11.0938635
v 18.127777 -0.18212573 11.1664
v 18.123764 0.13725904 11.063434
v 9.800332 -0.20951729 1.909248
v 9.920068 0.13727957 1.9093798
v 9.914141 -0.1821306 10.990609
v 10.033867 0.13725904 10.990753
v 18.015673 -0.20952949 1.7151794
v 18.019712 0.13727959 1.8181493
v 10.031738 -0.20951606 1.7035669
v 10.035762 0.13729545 1.8065381
v 18.35921 -0.1821306 10.960716
v 18.239452 0.13725843 10.960597
v 18.263231 -0.20953071 1.921383
v 18.143496 0.13727835 1.9212451
v 18.34513 7.6319327 -11.10502
v 18.358433 7.4734693 11.200821
v -18.430079 7.6183805 -11.122249
v -18.416698 7.4598947 11.183595
v 0.91707027 0.7082826 -3.342157
v 0.68715817 0.7853193 9.793788
v -16.484444 0.7753651 -3.7035801
v -16.96957 0.8529622 9.871004
v 11.294629 0.117045924 -0.66175413
v 10.066211 0.15449433 6.7739267
v 0.8284375 0.13224009 -2.1263745
v -0.3562695 0.15449561 5.2606077
v 6.310439 0.78750044 3.08318
v 6.1225586 0.82494885 10.622137
v -2.7215037 0.8026933 3.0911388
v -2.8779979 0.82494885 10.57703
v 18.02374 0.36302787 1.9211205
v 18.095757 0.40047622 10.903741
v 10.081347 0.37822074 1.9290795
v 10.184746 0.40047622 10.858634
vt -36 4.140625
vt -36 5.3476562
vt -35.9375 4.1601562
vt -35.9375 5.3476562
vt -35.9375 4.1601562
vt -36 5.3476562
vt -26.546875 5.4648438
vt -26.546875 4.2773438
vt -26.59375 5.4648438
vt -26.59375 4.2695312
vt -26.59375 5.4648438
vt -26.546875 4.2773438
vt -35.9375 4.1601562
vt -35.90625 4.0546875
vt -36 4.140625
vt -23 4.2460938
vt -22.953125 4.25
vt -22.984375 4.1445312
vt -32.3125 4.1835938
vt -32.34375 4.1015625
vt -32.375 4.1796875
vt -26.59375 4.2695312
vt -26.546875 4.2773438
vt -26.578125 4.1875
vt -32.34375 4.1015625
vt -35.90625 4.0546875
vt -32.375 4.1796875
vt -35.9375 4.1601562
vt -32.375 4.1796875
vt -35.90625 4.0546875
vt -15.28125 3.4121094
vt -15.2890625 4.578125
vt -15.203125 3.4277344
vt -15.203125 4.5820312
vt -15.203125 3.4277344
vt -15.2890625 4.578125
vt -10.265625 4.6171875
vt -10.25 3.4648438
vt -10.3359375 4.6210938
vt -10.3125 3.46875
vt -10.3359375 4.6210938
vt -10.25 3.4648438
vt -15.203125 3.4277344
vt -15.2109375 3.3613281
vt -15.28125 3.4121094
vt -8.125 3.4765625
vt -8.0625 3.4785156
vt -8.09375 3.4121094
vt -13.0078125 3.4121094
vt -13.0546875 3.3535156
vt -13.0703125 3.4160156
vt -10.3125 3.46875
vt -10.25 3.4648438
vt -10.3046875 3.40625
vt -13.0546875 3.3535156
vt -15.2109375 3.3613281
vt -13.0703125 3.4160156
vt -15.203125 3.4277344
vt -13.0703125 3.4160156
vt -15.2109375 3.3613281
vt -8.09375 3.4121094
vt -10.3046875 3.40625
vt -8.125 3.4765625
vt -10.25 3.4648438
vt -8.125 3.4765625
vt -10.3046875 3.40625
vt -11.1796875 9.6640625
vt -11.1953125 10.1875
vt -11.1328125 9.671875
vt -11.140625 10.1953125
vt -11.1328125 9.671875
vt -11.1953125 10.1875
vt -11.1328125 9.671875
vt -11.125 9.59375
vt -11.1796875 9.6640625
vt -7.0898438 9.7265625
vt -7.0546875 9.71875
vt -7.0820312 9.640625
vt -9.921875 9.671875
vt -9.9375 9.59375
vt -9.96875 9.671875
vt -8.296875 9.71875
vt -8.2578125 9.71875
vt -8.2734375 9.640625
vt -9.9375 9.59375
vt -11.125 9.59375
vt -9.96875 9.671875
vt -11.1328125 9.671875
vt -9.96875 9.671875
vt -11.125 9.59375
vt -5.4570312 9.5234375
vt -7.0820312 9.640625
vt -5.4375 9.6015625
vt -7.0546875 9.71875
vt -5.4375 9.6015625
vt -7.0820312 9.640625
vt -11.0625 5.4453125
vt -11.0703125 6.3164062
vt -11.015625 5.453125
vt -11.015625 6.3203125
vt -11.015625 5.453125
vt -11.0703125 6.3164062
vt -11.015625 5.453125
vt -11.0078125 5.3789062
vt -11.0625 5.4453125
vt -7.2109375 5.4804688
vt -7.1796875 5.4804688
vt -7.203125 5.4023438
vt -9.8046875 5.453125
vt -9.8203125 5.3789062
vt -9.84375 5.453125
vt -8.4140625 5.4765625
vt -8.3828125 5.4804688
vt -8.3984375 5.4023438
vt -9.8203125 5.3789062
vt -11.0078125 5.3789062
vt -9.84375 5.453125
vt -11.015625 5.453125
vt -9.84375 5.453125
vt -11.0078125 5.3789062
vt -5.8085938 5.3515625
vt -7.203125 5.4023438
vt -5.796875 5.4296875
vt -7.1796875 5.4804688
vt -5.796875 5.4296875
vt -7.203125 5.4023438
vt -11.171875 7.890625
vt -11.1875 8.2421875
vt -11.1328125 7.8984375
vt -11.1328125 8.2421875
vt -11.1328125 7.8984375
vt -11.1875 8.2421875
vt -11.1328125 7.8984375
vt -11.125 7.8242188
vt -11.171875 7.890625
vt -7.0507812 7.953125
vt -7.0195312 7.9492188
vt -7.046875 7.8710938
vt -9.6953125 7.8984375
vt -9.7109375 7.8242188
vt -9.734375 7.8984375
vt -8.4765625 7.9492188
vt -8.4453125 7.9492188
vt -8.4609375 7.875
vt -9.7109375 7.8242188
vt -11.125 7.8242188
vt -9.734375 7.8984375
vt -11.1328125 7.8984375
vt -9.734375 7.8984375
vt -11.125 7.8242188
vt -5.828125 7.734375
vt -7.046875 7.8710938
vt -5.8085938 7.8085938
vt -7.0195312 7.9492188
vt -5.8085938 7.8085938
vt -7.046875 7.8710938
vt -17.234375 5.4453125
vt -17.234375 4.2539062
vt -22.96875 5.4453125
vt -22.953125 4.25
vt -23.015625 5.4414062
vt -23 4.2460938
vt -26.546875 5.4648438
vt -26.546875 4.2773438
vt -26.59375 5.4648438
vt -26.59375 4.2695312
vt -32.34375 5.3710938
vt -32.3125 4.1835938
vt -32.40625 5.3710938
vt -32.375 4.1796875
vt -35.9375 5.3476562
vt -35.9375 4.1601562
vt -22.96875 5.4453125
vt -22.953125 4.25
vt -23.015625 5.4414062
vt -23 4.2460938
vt -32.34375 5.3710938
vt -32.3125 4.1835938
vt -32.40625 5.3710938
vt -32.375 4.1796875
vt -26.578125 4.1875
vt -32.34375 4.1015625
vt -26.59375 4.2695312
vt -32.3125 4.1835938
vt -22.984375 4.1445312
vt -26.578125 4.1875
vt -23 4.2460938
vt -26.546875 4.2773438
vt -17.296875 4.1484375
vt -22.984375 4.1445312
vt -17.234375 4.2539062
vt -22.953125 4.25
vt -5.3203125 4.6171875
vt -5.328125 3.4667969
vt -8.0625 4.6328125
vt -8.0625 3.4785156
vt -8.140625 4.6289062
vt -8.125 3.4765625
vt -10.265625 4.6171875
vt -10.25 3.4648438
vt -10.3359375 4.6210938
vt -10.3125 3.46875
vt -13.0234375 4.5664062
vt -13.0078125 3.4121094
vt -13.0859375 4.5664062
vt -13.0703125 3.4160156
vt -15.203125 4.5820312
vt -15.203125 3.4277344
vt -8.0625 4.6328125
vt -8.0625 3.4785156
vt -8.140625 4.6289062
vt -8.125 3.4765625
vt -13.0234375 4.5664062
vt -13.0078125 3.4121094
vt -13.0859375 4.5664062
vt -13.0703125 3.4160156
vt -10.3046875 3.40625
vt -13.0546875 3.3535156
vt -10.3125 3.46875
vt -13.0078125 3.4121094
vt -5.3359375 3.3964844
vt -8.09375 3.4121094
vt -5.328125 3.4667969
vt -8.0625 3.4785156
vt -5.3984375 10.1171875
vt -5.4375 9.6015625
vt -7.0273438 10.234375
vt -7.0546875 9.71875
vt -7.0859375 10.2421875
vt -7.0898438 9.7265625
vt -8.265625 10.234375
vt -8.2578125 9.71875
vt -8.3125 10.234375
vt -8.296875 9.71875
vt -9.9375 10.1875
vt -9.921875 9.671875
vt -9.9765625 10.1875
vt -9.96875 9.671875
vt -11.140625 10.1953125
vt -11.1328125 9.671875
vt -7.0273438 10.234375
vt -7.0546875 9.71875
vt -7.0859375 10.2421875
vt -7.0898438 9.7265625
vt -8.265625 10.234375
vt -8.2578125 9.71875
vt -8.3125 10.234375
vt -8.296875 9.71875
vt -9.9375 10.1875
vt -9.921875 9.671875
vt -9.9765625 10.1875
vt -9.96875 9.671875
vt -8.2734375 9.640625
vt -9.9375 9.59375
vt -8.296875 9.71875
vt -9.921875 9.671875
vt -7.0820312 9.640625
vt -8.2734375 9.640625
vt -7.0898438 9.7265625
vt -8.2578125 9.71875
vt -5.7617188 6.296875
vt -5.796875 5.4296875
vt -7.1601562 6.34375
vt -7.1796875 5.4804688
vt -7.2070312 6.3476562
vt -7.2109375 5.4804688
vt -8.3828125 6.34375
vt -8.3828125 5.4804688
vt -8.4296875 6.3398438
vt -8.4140625 5.4765625
vt -9.8203125 6.3164062
vt -9.8046875 5.453125
vt -9.8515625 6.3164062
vt -9.84375 5.453125
vt -11.015625 6.3203125
vt -11.015625 5.453125
vt -7.1601562 6.34375
vt -7.1796875 5.4804688
vt -7.2070312 6.3476562
vt -7.2109375 5.4804688
vt -8.3828125 6.34375
vt -8.3828125 5.4804688
vt -8.4296875 6.3398438
vt -8.4140625 5.4765625
vt -9.8203125 6.3164062
vt -9.8046875 5.453125
vt -9.8515625 6.3164062
vt -9.84375 5.453125
vt -8.3984375 5.4023438
vt -9.8203125 5.3789062
vt -8.4140625 5.4765625
vt -9.8046875 5.453125
vt -7.203125 5.4023438
vt -8.3984375 5.4023438
vt -7.2109375 5.4804688
vt -8.3828125 5.4804688
vt -5.7695312 8.15625
vt -5.8085938 7.8085938
vt -6.9921875 8.296875
vt -7.0195312 7.9492188
vt -7.046875 8.296875
vt -7.0507812 7.953125
vt -8.4453125 8.296875
vt -8.4453125 7.9492188
vt -8.4921875 8.2890625
vt -8.4765625 7.9492188
vt -9.7109375 8.2421875
vt -9.6953125 7.8984375
vt -9.75 8.2421875
vt -9.734375 7.8984375
vt -11.1328125 8.2421875
vt -11.1328125 7.8984375
vt -6.9921875 8.296875
vt -7.0195312 7.9492188
vt -7.046875 8.296875
vt -7.0507812 7.953125
vt -8.4453125 8.296875
vt -8.4453125 7.9492188
vt -8.4921875 8.2890625
vt -8.4765625 7.9492188
vt -9.7109375 8.2421875
vt -9.6953125 7.8984375
vt -9.75 8.2421875
vt -9.734375 7.8984375
vt -8.4609375 7.875
vt -9.7109375 7.8242188
vt -8.4765625 7.9492188
vt -9.6953125 7.8984375
vt -7.046875 7.8710938
vt -8.4609375 7.875
vt -7.0507812 7.953125
vt -8.4453125 7.9492188
vt 11.546875 -12.3671875
vt 17.21875 -12.3671875
vt 11.546875 -15.890625
vt 17.265625 -15.890625
vt 19.9375 -8.3984375
vt 19.828125 -11.140625
vt 17.765625 -8.3828125
vt 17.71875 -11.09375
vt 8.7109375 -4.75
vt 8.7421875 -6.375
vt 7.5546875 -4.7890625
vt 7.578125 -6.421875
vt 5.8476562 -4.609375
vt 5.8671875 -5.9960938
vt 4.6875 -4.640625
vt 4.703125 -6.0351562
vt 5.6875 -7.9179688
vt 5.7265625 -9.140625
vt 4.3046875 -7.9414062
vt 4.3359375 -9.1640625
vt 0.19628906 0.9663086
vt 0.17993164 0.6142578
vt 0.037200928 0.6142578
vt 0.19628906 0.9663086
vt 0.17993164 0.6142578
vt 0.037200928 0.6142578
vt 0.19628906 0.9663086
vt 0.17993164 0.6142578
vt 0.037200928 0.6142578
vt 0.19628906 0.9663086
vt 0.17993164 0.6142578
vt 0.037200928 0.6142578
vt 0.19628906 0.9628906
vt 0.17993164 0.6142578
vt 0.037200928 0.6142578
vt 0.19628906 0.9628906
vt 0.17993164 0.6142578
vt 0.037200928 0.6142578
vt 0.19628906 0.9628906
vt 0.17993164 0.6142578
vt 0.037200928 0.6142578
vt 0.19628906 0.9628906
vt 0.17993164 0.6142578
vt 0.037200928 0.6142578
vt 0.17993164 0.6142578
vt 0.19628906 0.9628906
vt 0.82910156 0.6142578
vt 0.82910156 0.9628906
vt 0.82910156 0.6142578
vt 0.19628906 0.9628906
vt 0.17993164 0.6142578
vt 0.19628906 0.9628906
vt 0.82910156 0.6142578
vt 0.82910156 0.9628906
vt 0.82910156 0.6142578
vt 0.19628906 0.9628906
vt 0.17993164 0.6142578
vt 0.19628906 0.9628906
vt 0.82910156 0.6142578
vt 0.82910156 0.9628906
vt 0.82910156 0.6142578
vt 0.19628906 0.9628906
vt 0.17993164 0.6142578
vt 0.19628906 0.9628906
vt 0.82910156 0.6142578
vt 0.82910156 0.9628906
vt 0.82910156 0.6142578
vt 0.19628906 0.9628906
vt 0.17443848 0.01386261
vt 0.17993164 0.6142578
vt 0.82910156 0.01386261
vt 0.82910156 0.6142578
vt 0.82910156 0.01386261
vt 0.17993164 0.6142578
vt 0.17443848 0.01386261
vt 0.17993164 0.6142578
vt 0.82910156 0.01386261
vt 0.82910156 0.6142578
vt 0.82910156 0.01386261
vt 0.17993164 0.6142578
vt 0.14440918 0.01386261
vt 0.17993164 0.6142578
vt 0.82910156 0.01386261
vt 0.82910156 0.6142578
vt 0.82910156 0.01386261
vt 0.17993164 0.6142578
vt 0.19628906 0.9628906
vt 0.17993164 0.6142578
vt 0.037200928 0.6142578
vt 0.19628906 0.9628906
vt 0.17993164 0.6142578
vt 0.037200928 0.6142578
vt 0.19628906 0.9628906
vt 0.17993164 0.6142578
vt 0.037200928 0.6142578
vt 0.19628906 0.9628906
vt 0.17993164 0.6142578
vt 0.037200928 0.6142578
vt 0.17993164 0.6142578
vt 0.19628906 0.9628906
vt 0.82910156 0.6142578
vt 0.82910156 0.9628906
vt 0.82910156 0.6142578
vt 0.19628906 0.9628906
vt 0.17993164 0.6142578
vt 0.19628906 0.9628906
vt 0.82910156 0.6142578
vt 0.82910156 0.9628906
vt 0.82910156 0.6142578
vt 0.19628906 0.9628906
vt 0.19628906 0.9628906
vt 0.17993164 0.6142578
vt 0.037200928 0.6142578
vt 0.19628906 0.9628906
vt 0.17993164 0.6142578
vt 0.037200928 0.6142578
vt 0.19628906 0.9628906
vt 0.17993164 0.6142578
vt 0.037200928 0.6142578
vt 0.19628906 0.9628906
vt 0.17993164 0.6142578
vt 0.037200928 0.6142578
vt 0.17993164 0.6142578
vt 0.19628906 0.9628906
vt 0.82910156 0.6142578
vt 0.82910156 0.9628906
vt 0.82910156 0.6142578
vt 0.19628906 0.9628906
vt 0.17993164 0.6142578
vt 0.19628906 0.9628906
vt 0.82910156 0.6142578
vt 0.82910156 0.9628906
vt 0.82910156 0.6142578
vt 0.19628906 0.9628906
vt 0.19628906 0.9628906
vt 0.17993164 0.6142578
vt 0.037200928 0.6142578
vt 0.19628906 0.9628906
vt 0.17993164 0.6142578
vt 0.037200928 0.6142578
vt 0.19628906 0.9628906
vt 0.17993164 0.6142578
vt 0.037200928 0.6142578
vt 0.19628906 0.9628906
vt 0.17993164 0.6142578
vt 0.037200928 0.6142578
vt 0.17993164 0.6142578
vt 0.19628906 0.9628906
vt 0.82910156 0.6142578
vt 0.82910156 0.9628906
vt 0.82910156 0.6142578
vt 0.19628906 0.9628906
vt 0.17993164 0.6142578
vt 0.19628906 0.9628906
vt 0.82910156 0.6142578
vt 0.82910156 0.9628906
vt 0.82910156 0.6142578
vt 0.19628906 0.9628906
vt 0.03262329 0.01386261
vt 0.037200928 0.6142578
vt 0.17443848 0.01386261
vt 0.17993164 0.6142578
vt 0.03262329 0.01386261
vt 0.037200928 0.6142578
vt 0.17443848 0.01386261
vt 0.17993164 0.6142578
vt 0.03262329 0.01386261
vt 0.037200928 0.6142578
vt 0.17443848 0.01386261
vt 0.17993164 0.6142578
vt 0.03262329 0.01386261
vt 0.037200928 0.6142578
vt 0.17443848 0.01386261
vt 0.17993164 0.6142578
vt 0.17993164 0.6142578
vt 0.19628906 0.9663086
vt 0.82910156 0.6142578
vt 0.82910156 0.9663086
vt 0.17993164 0.6142578
vt 0.19628906 0.9663086
vt 0.82910156 0.6142578
vt 0.82910156 0.9663086
vt 0.17993164 0.6142578
vt 0.19628906 0.9663086
vt 0.82910156 0.6142578
vt 0.82910156 0.9663086
vt 0.17993164 0.6142578
vt 0.19628906 0.9663086
vt 0.82910156 0.6142578
vt 0.82910156 0.9663086
vt 0.17443848 0.01386261
vt 0.17993164 0.6142578
vt 0.82910156 0.01386261
vt 0.82910156 0.6142578
vt 0.17443848 0.01386261
vt 0.17993164 0.6142578
vt 0.82910156 0.01386261
vt 0.82910156 0.6142578
vt 0.17443848 0.01386261
vt 0.17993164 0.6142578
vt 0.82910156 0.01386261
vt 0.82910156 0.6142578
vt 0.17443848 0.01386261
vt 0.17993164 0.6142578
vt 0.82910156 0.01386261
vt 0.82910156 0.6142578
vt 0.03262329 0.01386261
vt 0.037200928 0.6142578
vt 0.14440918 0.01386261
vt 0.17993164 0.6142578
vt 0.03262329 0.01386261
vt 0.037200928 0.6142578
vt 0.17443848 0.01386261
vt 0.17993164 0.6142578
vt 0.03262329 0.01386261
vt 0.037200928 0.6142578
vt 0.14440918 0.01386261
vt 0.17993164 0.6142578
vt 0.03262329 0.01386261
vt 0.037200928 0.6142578
vt 0.17443848 0.01386261
vt 0.17993164 0.6142578
vt 0.14440918 0.01386261
vt 0.17993164 0.6142578
vt 0.82910156 0.01386261
vt 0.82910156 0.6142578
vt 0.03262329 0.01386261
vt 0.037200928 0.6142578
vt 0.17443848 0.01386261
vt 0.17993164 0.6142578
vt 0.03262329 0.01386261
vt 0.037200928 0.6142578
vt 0.1472168 0.01386261
vt 0.17993164 0.6142578
vt 0.03262329 0.01386261
vt 0.037200928 0.6142578
vt 0.1472168 0.01386261
vt 0.17993164 0.6142578
vt 0.03262329 0.01386261
vt 0.037200928 0.6142578
vt 0.1472168 0.01386261
vt 0.17993164 0.6142578
vt 0.17993164 0.6142578
vt 0.19628906 0.9628906
vt 0.82910156 0.6142578
vt 0.82910156 0.9628906
vt 0.17993164 0.6142578
vt 0.19628906 0.9628906
vt 0.82910156 0.6142578
vt 0.82910156 0.9628906
vt 0.1472168 0.01386261
vt 0.17993164 0.6142578
vt 0.82910156 0.01386261
vt 0.82910156 0.6142578
vt 0.1472168 0.01386261
vt 0.17993164 0.6142578
vt 0.82910156 0.01386261
vt 0.82910156 0.6142578
vt 0.1472168 0.01386261
vt 0.17993164 0.6142578
vt 0.82910156 0.01386261
vt 0.82910156 0.6142578
vt 0.17443848 0.01386261
vt 0.17993164 0.6142578
vt 0.82910156 0.01386261
vt 0.82910156 0.6142578
vt 0.03262329 0.01386261
vt 0.037200928 0.6142578
vt 0.17443848 0.01386261
vt 0.17993164 0.6142578
vt 0.03262329 0.01386261
vt 0.037200928 0.6142578
vt 0.1472168 0.01386261
vt 0.17993164 0.6142578
vt 0.03262329 0.01386261
vt 0.037200928 0.6142578
vt 0.1472168 0.01386261
vt 0.17993164 0.6142578
vt 0.03262329 0.01386261
vt 0.037200928 0.6142578
vt 0.1472168 0.01386261
vt 0.17993164 0.6142578
vt 0.17993164 0.6142578
vt 0.19628906 0.9628906
vt 0.82910156 0.6142578
vt 0.82910156 0.9628906
vt 0.17993164 0.6142578
vt 0.19628906 0.9628906
vt 0.82910156 0.6142578
vt 0.82910156 0.9628906
vt 0.1472168 0.01386261
vt 0.17993164 0.6142578
vt 0.82910156 0.01386261
vt 0.82910156 0.6142578
vt 0.1472168 0.01386261
vt 0.17993164 0.6142578
vt 0.82910156 0.01386261
vt 0.82910156 0.6142578
vt 0.1472168 0.01386261
vt 0.17993164 0.6142578
vt 0.82910156 0.01386261
vt 0.82910156 0.6142578
vt 0.17443848 0.01386261
vt 0.17993164 0.6142578
vt 0.82910156 0.01386261
vt 0.82910156 0.6142578
vt 0.03262329 0.01386261
vt 0.037200928 0.6142578
vt 0.17443848 0.01386261
vt 0.17993164 0.6142578
vt 0.03262329 0.01386261
vt 0.037200928 0.6142578
vt 0.1472168 0.01386261
vt 0.17993164 0.6142578
vt 0.03262329 0.01386261
vt 0.037200928 0.6142578
vt 0.1472168 0.01386261
vt 0.17993164 0.6142578
vt 0.03262329 0.01386261
vt 0.037200928 0.6142578
vt 0.1472168 0.01386261
vt 0.17993164 0.6142578
vt 0.17993164 0.6142578
vt 0.19628906 0.9628906
vt 0.82910156 0.6142578
vt 0.82910156 0.9628906
vt 0.17993164 0.6142578
vt 0.19628906 0.9628906
vt 0.82910156 0.6142578
vt 0.82910156 0.9628906
vt 0.1472168 0.01386261
vt 0.17993164 0.6142578
vt 0.82910156 0.01386261
vt 0.82910156 0.6142578
vt 0.1472168 0.01386261
vt 0.17993164 0.6142578
vt 0.82910156 0.01386261
vt 0.82910156 0.6142578
vt 0.1472168 0.01386261
vt 0.17993164 0.6142578
vt 0.82910156 0.01386261
vt 0.82910156 0.6142578
vt 0.17443848 0.01386261
vt 0.17993164 0.6142578
vt 0.82910156 0.01386261
vt 0.82910156 0.6142578
vt 23.546875 7.375
vt 20.109375 7.3554688
vt 23.515625 13.046875
vt 20.078125 13.03125
vt 19.5 7.203125
vt 17.46875 7.2460938
vt 19.5625 9.890625
vt 17.46875 9.96875
vt 13.5546875 18.578125
vt 12.390625 18.609375
vt 13.5546875 20.203125
vt 12.40625 20.234375
vt 13.703125 15.6484375
vt 12.5390625 15.6796875
vt 13.703125 17.046875
vt 12.546875 17.0625
vt 13.859375 13.8046875
vt 12.4765625 13.8203125
vt 13.8828125 15.03125
vt 12.5 15.0390625
vn 0.7163086 0.003665924 0.6982422
vn 0.7163086 0.003665924 0.6982422
vn 0.7163086 0.003665924 0.6982422
vn 0.7163086 0.003665924 0.6982422
vn 0.7163086 0.003665924 0.6982422
vn 0.7163086 0.003665924 0.6982422
vn -0.7163086 -0.00121212 -0.6977539
vn -0.7163086 -0.00121212 -0.6977539
vn -0.7163086 -0.00121212 -0.6977539
vn -0.7163086 -0.00121212 -0.6977539
vn -0.7163086 -0.00121212 -0.6977539
vn -0.7163086 -0.00121212 -0.6977539
vn 0.40405273 -0.83935547 0.3642578
vn 0.40405273 -0.83935547 0.3642578
vn 0.40405273 -0.83935547 0.3642578
vn -0.4140625 -0.8027344 0.42871094
vn -0.4140625 -0.8027344 0.42871094
vn -0.4140625 -0.8027344 0.42871094
vn 0.6230469 -0.453125 -0.63720703
vn 0.6230469 -0.453125 -0.63720703
vn 0.6230469 -0.453125 -0.63720703
vn -0.5361328 -0.64501953 -0.5449219
vn -0.5361328 -0.64501953 -0.5449219
vn -0.5361328 -0.64501953 -0.5449219
vn 0.80126953 -0.59814453 0.004470825
vn 0.80126953 -0.59814453 0.004470825
vn 0.80126953 -0.59814453 0.004470825
vn 0.5522461 -0.8334961 -0.008201599
vn 0.5522461 -0.8334961 -0.008201599
vn 0.5522461 -0.8334961 -0.008201599
vn 0.7011719 0.0060691833 0.7128906
vn 0.7011719 0.0060691833 0.7128906
vn 0.7011719 0.0060691833 0.7128906
vn 0.7011719 0.006072998 0.7128906
vn 0.7011719 0.006072998 0.7128906
vn 0.7011719 0.006072998 0.7128906
vn -0.9716797 -0.0010814667 -0.2364502
vn -0.9716797 -0.0010814667 -0.2364502
vn -0.9716797 -0.0010814667 -0.2364502
vn -0.9716797 -0.0010795593 -0.2364502
vn -0.9716797 -0.0010795593 -0.2364502
vn -0.9716797 -0.0010795593 -0.2364502
vn 0.4794922 -0.7211914 0.5
vn 0.4794922 -0.7211914 0.5
vn 0.4794922 -0.7211914 0.5
vn -0.49243164 -0.7182617 0.49169922
vn -0.49243164 -0.7182617 0.49169922
vn -0.49243164 -0.7182617 0.49169922
vn 0.16394043 -0.73583984 -0.65722656
vn 0.16394043 -0.73583984 -0.65722656
vn 0.16394043 -0.73583984 -0.65722656
vn -0.66308594 -0.73291016 -0.15368652
vn -0.66308594 -0.73291016 -0.15368652
vn -0.66308594 -0.73291016 -0.15368652
vn 0.61816406 -0.78564453 0.0084991455
vn 0.61816406 -0.78564453 0.0084991455
vn 0.61816406 -0.78564453 0.0084991455
vn 0.5517578 -0.8339844 0.0059280396
vn 0.5517578 -0.8339844 0.0059280396
vn 0.5517578 -0.8339844 0.0059280396
vn -0.5571289 -0.8305664 -0.009742737
vn -0.5571289 -0.8305664 -0.009742737
vn -0.5571289 -0.8305664 -0.009742737
vn -0.6201172 -0.7841797 -0.014221191
vn -0.6201172 -0.7841797 -0.014221191
vn -0.6201172 -0.7841797 -0.014221191
vn 0.5083008 0.004119873 0.8613281
vn 0.5083008 0.004119873 0.8613281
vn 0.5083008 0.004119873 0.8613281
vn 0.5083008 0.004119873 0.8613281
vn 0.5083008 0.004119873 0.8613281
vn 0.5083008 0.004119873 0.8613281
vn 0.4482422 -0.47143555 0.75927734
vn 0.4482422 -0.47143555 0.75927734
vn 0.4482422 -0.47143555 0.75927734
vn -0.5488281 -0.56884766 0.6123047
vn -0.5488281 -0.56884766 0.6123047
vn -0.5488281 -0.56884766 0.6123047
vn 0.6254883 -0.34960938 -0.6977539
vn 0.6254883 -0.34960938 -0.6977539
vn 0.6254883 -0.34960938 -0.6977539
vn -0.46142578 -0.4194336 -0.7817383
vn -0.46142578 -0.4194336 -0.7817383
vn -0.46142578 -0.4194336 -0.7817383
vn 0.83251953 -0.5361328 0.13842773
vn 0.83251953 -0.5361328 0.13842773
vn 0.83251953 -0.5361328 0.13842773
vn 0.7993164 -0.58691406 0.12866211
vn 0.7993164 -0.58691406 0.12866211
vn 0.7993164 -0.58691406 0.12866211
vn -0.12261963 -0.5209961 0.84472656
vn -0.12261963 -0.5209961 0.84472656
vn -0.12261963 -0.5209961 0.84472656
vn -0.10687256 -0.62158203 0.7763672
vn -0.10687256 -0.62158203 0.7763672
vn -0.10687256 -0.62158203 0.7763672
vn 0.6645508 0.0023517609 0.7475586
vn 0.6645508 0.0023517609 0.7475586
vn 0.6645508 0.0023517609 0.7475586
vn 0.6640625 0.0023498535 0.7475586
vn 0.6640625 0.0023498535 0.7475586
vn 0.6640625 0.0023498535 0.7475586
vn 0.5917969 -0.45410156 0.6660156
vn 0.5917969 -0.45410156 0.6660156
vn 0.5917969 -0.45410156 0.6660156
vn -0.53808594 -0.5410156 0.6464844
vn -0.53808594 -0.5410156 0.6464844
vn -0.53808594 -0.5410156 0.6464844
vn 0.6044922 -0.32788086 -0.7260742
vn 0.6044922 -0.32788086 -0.7260742
vn 0.6044922 -0.32788086 -0.7260742
vn -0.60791016 -0.40307617 -0.68408203
vn -0.60791016 -0.40307617 -0.68408203
vn -0.60791016 -0.40307617 -0.68408203
vn 0.87841797 -0.47705078 0.022644043
vn 0.87841797 -0.47705078 0.022644043
vn 0.87841797 -0.47705078 0.022644043
vn 0.85009766 -0.5263672 0.018218994
vn 0.85009766 -0.5263672 0.018218994
vn 0.85009766 -0.5263672 0.018218994
vn -0.0042686462 -0.5239258 0.8515625
vn -0.0042686462 -0.5239258 0.8515625
vn -0.0042686462 -0.5239258 0.8515625
vn 0.0026340485 -0.62109375 0.7836914
vn 0.0026340485 -0.62109375 0.7836914
vn 0.0026340485 -0.62109375 0.7836914
vn 0.6645508 0.005874634 0.7475586
vn 0.6645508 0.005874634 0.7475586
vn 0.6645508 0.005874634 0.7475586
vn 0.6640625 0.005870819 0.7475586
vn 0.6640625 0.005870819 0.7475586
vn 0.6640625 0.005870819 0.7475586
vn 0.5917969 -0.45410156 0.6660156
vn 0.5917969 -0.45410156 0.6660156
vn 0.5917969 -0.45410156 0.6660156
vn -0.53808594 -0.5410156 0.6464844
vn -0.53808594 -0.5410156 0.6464844
vn -0.53808594 -0.5410156 0.6464844
vn 0.6044922 -0.32788086 -0.7260742
vn 0.6044922 -0.32788086 -0.7260742
vn 0.6044922 -0.32788086 -0.7260742
vn -0.60791016 -0.40307617 -0.68408203
vn -0.60791016 -0.40307617 -0.68408203
vn -0.60791016 -0.40307617 -0.68408203
vn 0.87890625 -0.47705078 -0.0063591003
vn 0.87890625 -0.47705078 -0.0063591003
vn 0.87890625 -0.47705078 -0.0063591003
vn 0.8515625 -0.5239258 -0.009086609
vn 0.8515625 -0.5239258 -0.009086609
vn 0.8515625 -0.5239258 -0.009086609
vn -0.0048561096 -0.5239258 0.8520508
vn -0.0048561096 -0.5239258 0.8520508
vn -0.0048561096 -0.5239258 0.8520508
vn 0.0029945374 -0.62109375 0.7836914
vn 0.0029945374 -0.62109375 0.7836914
vn 0.0029945374 -0.62109375 0.7836914
vn -0.00025486946 -0.0023841858 1
vn -0.00025486946 -0.0023841858 1
vn -0.00025486946 -0.0023841858 1
vn -0.0002539158 -0.002380371 1
vn -1 -0.0074424744 0.0013999939
vn -1 -0.0074424744 0.0013999939
vn -1 -0.0074424744 0.0013999939
vn -1 -0.007434845 0.0014019012
vn 0.0002527237 0.0058898926 -1
vn 0.0002527237 0.0058898926 -1
vn 0.0002527237 0.0058898926 -1
vn 0.00025177002 0.0058937073 -1
vn 1 0.007446289 -0.0014028549
vn 1 0.007446289 -0.0014028549
vn 1 0.007446289 -0.0014028549
vn 1 0.0074424744 -0.0014019012
vn -0.6977539 -0.006893158 0.7163086
vn -0.6977539 -0.006893158 0.7163086
vn -0.6977539 -0.006893158 0.7163086
vn -0.6977539 -0.0068969727 0.7163086
vn 0.6977539 0.009407043 -0.7163086
vn 0.6977539 0.009407043 -0.7163086
vn 0.6977539 0.009407043 -0.7163086
vn 0.6977539 0.009407043 -0.7163086
vn 0.0005450249 -0.59472656 -0.80371094
vn 0.0005450249 -0.59472656 -0.80371094
vn 0.0005450249 -0.59472656 -0.80371094
vn 0.00061035156 -0.5908203 -0.8066406
vn -0.63720703 -0.7705078 -0.0067481995
vn -0.63720703 -0.7705078 -0.0067481995
vn -0.63720703 -0.7705078 -0.0067481995
vn -0.61328125 -0.79003906 -0.0061035156
vn 0.000107467175 -0.82666016 0.5625
vn 0.000107467175 -0.82666016 0.5625
vn 0.000107467175 -0.82666016 0.5625
vn 0.00043082237 -0.8359375 0.5488281
vn 0.004737854 0.012664795 1
vn 0.004737854 0.012664795 1
vn 0.004737854 0.012664795 1
vn 0.004737854 0.012664795 1
vn -0.9995117 0.0038776398 -0.028457642
vn -0.9995117 0.0038776398 -0.028457642
vn -0.9995117 0.0038776398 -0.028457642
vn -0.9995117 0.00039315224 -0.030303955
vn 0.015899658 -0.007080078 -1
vn 0.015899658 -0.007080078 -1
vn 0.015899658 -0.007080078 -1
vn 0.015899658 -0.007080078 -1
vn 1 -0.00061130524 4.7922134E-05
vn 1 -0.00061130524 4.7922134E-05
vn 1 -0.00061130524 4.7922134E-05
vn 1 -0.0042152405 0.0020198822
vn -0.7128906 0.011917114 0.7011719
vn -0.7128906 0.011917114 0.7011719
vn -0.7128906 0.011917114 0.7011719
vn -0.7128906 0.011917114 0.7011719
vn 0.2364502 -0.0070114136 -0.9716797
vn 0.2364502 -0.0070114136 -0.9716797
vn 0.2364502 -0.0070114136 -0.9716797
vn 0.2364502 -0.0070152283 -0.9716797
vn 0.0065956116 -0.7949219 -0.6064453
vn 0.0065956116 -0.7949219 -0.6064453
vn 0.0065956116 -0.7949219 -0.6064453
vn 0.0065956116 -0.7949219 -0.6064453
vn -0.0004954338 -0.8232422 0.5673828
vn -0.0004954338 -0.8232422 0.5673828
vn -0.0004954338 -0.8232422 0.5673828
vn -0.00049591064 -0.8232422 0.5673828
vn -0.13635254 0.0050621033 0.99072266
vn -0.13635254 0.0050621033 0.99072266
vn -0.13635254 0.0050621033 0.99072266
vn -0.13635254 0.0050621033 0.99072266
vn -0.98779297 -0.0003414154 -0.15625
vn -0.98779297 -0.0003414154 -0.15625
vn -0.98779297 -0.0003414154 -0.15625
vn -0.98779297 -2.3245811E-06 -0.15612793
vn 0.14025879 4.4703484E-06 -0.9902344
vn 0.14025879 4.4703484E-06 -0.9902344
vn 0.14025879 4.4703484E-06 -0.9902344
vn 0.14025879 5.364418E-06 -0.9902344
vn 0.9873047 -6.6161156E-06 0.15917969
vn 0.9873047 -6.6161156E-06 0.15917969
vn 0.9873047 -6.6161156E-06 0.15917969
vn 0.9873047 0.00036120415 0.15893555
vn -0.66748047 0.004058838 0.7446289
vn -0.66748047 0.004058838 0.7446289
vn -0.66748047 0.004058838 0.7446289
vn -0.66748047 0.0040626526 0.7446289
vn -0.5083008 1.7285347E-06 -0.8613281
vn -0.5083008 1.7285347E-06 -0.8613281
vn -0.5083008 1.7285347E-06 -0.8613281
vn -0.5083008 2.026558E-06 -0.8613281
vn 0.66748047 7.748604E-07 -0.7446289
vn 0.66748047 7.748604E-07 -0.7446289
vn 0.66748047 7.748604E-07 -0.7446289
vn 0.66748047 0 -0.7446289
vn 0.12573242 -0.43432617 -0.89208984
vn 0.12573242 -0.43432617 -0.89208984
vn 0.12573242 -0.43432617 -0.89208984
vn 0.12719727 -0.421875 -0.8979492
vn -0.79589844 -0.5917969 -0.1274414
vn -0.79589844 -0.5917969 -0.1274414
vn -0.79589844 -0.5917969 -0.1274414
vn -0.7836914 -0.6088867 -0.12384033
vn 0.0033607483 0.0030384064 1
vn 0.0033607483 0.0030384064 1
vn 0.0033607483 0.0030384064 1
vn 0.0033607483 0.0030384064 1
vn -1 -0.00017285347 -0.019119263
vn -1 -0.00017285347 -0.019119263
vn -1 -0.00017285347 -0.019119263
vn -1 0 -0.018997192
vn 0.0012798309 1.3709068E-06 -1
vn 0.0012798309 1.3709068E-06 -1
vn 0.0012798309 1.3709068E-06 -1
vn 0.0012788773 2.9206276E-06 -1
vn 1 0 0.021575928
vn 1 0 0.021575928
vn 1 0 0.021575928
vn 1 0.00018334389 0.021438599
vn -0.6401367 0.0022563934 0.7685547
vn -0.6401367 0.0022563934 0.7685547
vn -0.6401367 0.0022563934 0.7685547
vn -0.6401367 0.0022621155 0.7685547
vn -0.6645508 1.66893E-06 -0.7475586
vn -0.6645508 1.66893E-06 -0.7475586
vn -0.6645508 1.66893E-06 -0.7475586
vn -0.6645508 1.013279E-06 -0.7475586
vn 0.6401367 2.2053719E-06 -0.7685547
vn 0.6401367 2.2053719E-06 -0.7685547
vn 0.6401367 2.2053719E-06 -0.7685547
vn 0.6401367 1.5497208E-06 -0.7685547
vn 0.00022554398 -0.43847656 -0.8989258
vn 0.00022554398 -0.43847656 -0.8989258
vn 0.00022554398 -0.43847656 -0.8989258
vn 0.0011587143 -0.42285156 -0.90625
vn -0.84716797 -0.53125 -0.017456055
vn -0.84716797 -0.53125 -0.017456055
vn -0.84716797 -0.53125 -0.017456055
vn -0.8359375 -0.54833984 -0.0158844
vn 0.0038204193 0.0075912476 1
vn 0.0038204193 0.0075912476 1
vn 0.0038204193 0.0075912476 1
vn 0.0038204193 0.0075950623 1
vn -1 -0.00019574165 0.012535095
vn -1 -0.00019574165 0.012535095
vn -1 -0.00019574165 0.012535095
vn -1 0 0.012580872
vn 0.0014543533 2.8014183E-06 -1
vn 0.0014543533 2.8014183E-06 -1
vn 0.0014543533 2.8014183E-06 -1
vn 0.0014533997 7.212162E-06 -1
vn 1 -2.1457672E-06 -0.010620117
vn 1 -2.1457672E-06 -0.010620117
vn 1 -2.1457672E-06 -0.010620117
vn 1 0.0002142191 -0.010673523
vn -0.6401367 0.0056381226 0.7685547
vn -0.6401367 0.0056381226 0.7685547
vn -0.6401367 0.0056381226 0.7685547
vn -0.6401367 0.0056495667 0.7685547
vn -0.6645508 3.7550926E-06 -0.7475586
vn -0.6645508 3.7550926E-06 -0.7475586
vn -0.6645508 3.7550926E-06 -0.7475586
vn -0.6645508 2.0861626E-06 -0.7475586
vn 0.6401367 4.1127205E-06 -0.7685547
vn 0.6401367 4.1127205E-06 -0.7685547
vn 0.6401367 4.1127205E-06 -0.7685547
vn 0.6401367 2.4437904E-06 -0.7685547
vn 0.00025606155 -0.43847656 -0.8989258
vn 0.00025606155 -0.43847656 -0.8989258
vn 0.00025606155 -0.43847656 -0.8989258
vn 0.0013170242 -0.42285156 -0.90625
vn -0.8432617 -0.5371094 0.0098724365
vn -0.8432617 -0.5371094 0.0098724365
vn -0.8432617 -0.5371094 0.0098724365
vn -0.8364258 -0.54833984 0.010520935
vn 0.00045275688 -1 -0.00881958
vn 0.00045275688 -1 -0.00881958
vn 0.00045275688 -1 -0.00881958
vn -2.3901463E-05 -1 -0.008056641
vn -0.0038070679 -1 0.0056648254
vn -0.0038070679 -1 0.0056648254
vn -0.0038070679 -1 0.0056648254
vn -0.003955841 -1 0.005847931
vn -2.3841858E-07 -1 -5.9604645E-07
vn -2.3841858E-07 -1 -5.9604645E-07
vn -2.3841858E-07 -1 -5.9604645E-07
vn -0.0015592575 -1 0.0016117096
vn -2.9802322E-07 -1 -4.172325E-07
vn -2.9802322E-07 -1 -4.172325E-07
vn -2.9802322E-07 -1 -4.172325E-07
vn -0.0015439987 -1 0.0018053055
vn -2.9802322E-07 -1 -4.172325E-07
vn -2.9802322E-07 -1 -4.172325E-07
vn -2.9802322E-07 -1 -4.172325E-07
vn -0.0017557144 -1 0.0015621185
vn 0.19274902 0.95751953 0.21557617
vn 0.19274902 0.95751953 0.21557617
vn 0.19274902 0.95751953 0.21557617
vn -0.2208252 0.94970703 0.22277832
vn -0.2208252 0.94970703 0.22277832
vn -0.2208252 0.94970703 0.22277832
vn 0.18762207 0.96240234 -0.19641113
vn 0.18762207 0.96240234 -0.19641113
vn 0.18762207 0.96240234 -0.19641113
vn -0.22229004 0.95654297 -0.18908691
vn -0.22229004 0.95654297 -0.18908691
vn -0.22229004 0.95654297 -0.18908691
vn -0.1899414 0.95947266 -0.20935059
vn -0.1899414 0.95947266 -0.20935059
vn -0.1899414 0.95947266 -0.20935059
vn -0.36743164 0.86083984 0.35253906
vn -0.36743164 0.86083984 0.35253906
vn -0.36743164 0.86083984 0.35253906
vn 0.11859131 0.8540039 -0.50634766
vn 0.11859131 0.8540039 -0.50634766
vn 0.11859131 0.8540039 -0.50634766
vn -0.4831543 0.86621094 -0.12670898
vn -0.4831543 0.86621094 -0.12670898
vn -0.4831543 0.86621094 -0.12670898
vn -0.011398315 0.90625 0.42211914
vn -0.011398315 0.90625 0.42211914
vn -0.011398315 0.90625 0.42211914
vn 0.002626419 0.96875 -0.2479248
vn 0.002626419 0.96875 -0.2479248
vn 0.002626419 0.96875 -0.2479248
vn -0.50341797 0.86376953 -0.018127441
vn -0.50341797 0.86376953 -0.018127441
vn -0.50341797 0.86376953 -0.018127441
vn -0.66796875 0.74365234 -0.028121948
vn -0.66796875 0.74365234 -0.028121948
vn -0.66796875 0.74365234 -0.028121948
vn 0.010932922 0.88134766 -0.4724121
vn 0.010932922 0.88134766 -0.4724121
vn 0.010932922 0.88134766 -0.4724121
vn 0.014808655 0.82910156 -0.55908203
vn 0.014808655 0.82910156 -0.55908203
vn 0.014808655 0.82910156 -0.55908203
vn -0.35083008 0.93603516 -0.028625488
vn -0.35083008 0.93603516 -0.028625488
vn -0.35083008 0.93603516 -0.028625488
vn 0.9550781 0.2956543 0.014984131
vn 0.9550781 0.2956543 0.014984131
vn 0.9550781 0.2956543 0.014984131
vn 0.0059127808 0.4506836 0.8925781
vn 0.0059127808 0.4506836 0.8925781
vn 0.0059127808 0.4506836 0.8925781
vn 0.0006585121 0.26342773 0.96484375
vn 0.0006585121 0.26342773 0.96484375
vn 0.0006585121 0.26342773 0.96484375
vn -0.9243164 0.38061523 -0.028503418
vn -0.9243164 0.38061523 -0.028503418
vn -0.9243164 0.38061523 -0.028503418
vn -0.8955078 0.44433594 -0.025939941
vn -0.8955078 0.44433594 -0.025939941
vn -0.8955078 0.44433594 -0.025939941
vn 0.96728516 0.25317383 -0.00141716
vn 0.96728516 0.25317383 -0.00141716
vn 0.96728516 0.25317383 -0.00141716
vn 0.92089844 0.3894043 -0.009933472
vn 0.92089844 0.3894043 -0.009933472
vn 0.92089844 0.3894043 -0.009933472
vn 0.44555664 0.48168945 0.75439453
vn 0.44555664 0.48168945 0.75439453
vn 0.44555664 0.48168945 0.75439453
vn -0.51904297 0.62890625 0.57910156
vn -0.51904297 0.62890625 0.57910156
vn -0.51904297 0.62890625 0.57910156
vn 0.6269531 0.3425293 -0.69970703
vn 0.6269531 0.3425293 -0.69970703
vn 0.6269531 0.3425293 -0.69970703
vn -0.4489746 0.46875 -0.7607422
vn -0.4489746 0.46875 -0.7607422
vn -0.4489746 0.46875 -0.7607422
vn -0.1015625 0.66748047 0.73779297
vn -0.1015625 0.66748047 0.73779297
vn -0.1015625 0.66748047 0.73779297
vn -0.123168945 0.51464844 0.8486328
vn -0.123168945 0.51464844 0.8486328
vn -0.123168945 0.51464844 0.8486328
vn -0.77685547 0.6176758 -0.122924805
vn -0.77685547 0.6176758 -0.122924805
vn -0.77685547 0.6176758 -0.122924805
vn -0.82470703 0.5493164 -0.13391113
vn -0.82470703 0.5493164 -0.13391113
vn -0.82470703 0.5493164 -0.13391113
vn 0.5883789 0.46435547 0.6621094
vn 0.5883789 0.46435547 0.6621094
vn 0.5883789 0.46435547 0.6621094
vn -0.51123047 0.6010742 0.61376953
vn -0.51123047 0.6010742 0.61376953
vn -0.51123047 0.6010742 0.61376953
vn 0.60595703 0.32104492 -0.72753906
vn 0.60595703 0.32104492 -0.72753906
vn 0.60595703 0.32104492 -0.72753906
vn -0.59277344 0.45141602 -0.6669922
vn -0.59277344 0.45141602 -0.6669922
vn -0.59277344 0.45141602 -0.6669922
vn 0.002506256 0.6660156 0.74560547
vn 0.002506256 0.6660156 0.74560547
vn 0.002506256 0.6660156 0.74560547
vn -0.004283905 0.5185547 0.85498047
vn -0.004283905 0.5185547 0.85498047
vn -0.004283905 0.5185547 0.85498047
vn -0.8300781 0.5571289 -0.0158844
vn -0.8300781 0.5571289 -0.0158844
vn -0.8300781 0.5571289 -0.0158844
vn -0.87158203 0.4897461 -0.019683838
vn -0.87158203 0.4897461 -0.019683838
vn -0.87158203 0.4897461 -0.019683838
vn 0.5883789 0.46435547 0.6621094
vn 0.5883789 0.46435547 0.6621094
vn 0.5883789 0.46435547 0.6621094
vn -0.51123047 0.6010742 0.61376953
vn -0.51123047 0.6010742 0.61376953
vn -0.51123047 0.6010742 0.61376953
vn 0.60595703 0.32104492 -0.72753906
vn 0.60595703 0.32104492 -0.72753906
vn 0.60595703 0.32104492 -0.72753906
vn -0.59277344 0.45141602 -0.6669922
vn -0.59277344 0.45141602 -0.6669922
vn -0.59277344 0.45141602 -0.6669922
vn 0.0028495789 0.6660156 0.74560547
vn 0.0028495789 0.6660156 0.74560547
vn 0.0028495789 0.6660156 0.74560547
vn -0.004875183 0.5185547 0.85498047
vn -0.004875183 0.5185547 0.85498047
vn -0.004875183 0.5185547 0.85498047
vn -0.83154297 0.55566406 0.010421753
vn -0.83154297 0.55566406 0.010421753
vn -0.83154297 0.55566406 0.010421753
vn -0.86572266 0.5004883 0.008773804
vn -0.86572266 0.5004883 0.008773804
vn -0.86572266 0.5004883 0.008773804
vn 0.66796875 0.34155273 0.6611328
vn 0.66796875 0.34155273 0.6611328
vn 0.66796875 0.34155273 0.6611328
vn 0.66796875 0.34179688 0.6611328
vn -0.6616211 0.32104492 0.6777344
vn -0.6616211 0.32104492 0.6777344
vn -0.6616211 0.32104492 0.6777344
vn -0.6616211 0.32080078 0.6777344
vn 0.6435547 0.38452148 -0.6616211
vn 0.6435547 0.38452148 -0.6616211
vn 0.6435547 0.38452148 -0.6616211
vn 0.6435547 0.38476562 -0.6616211
vn -0.6723633 0.36401367 -0.64453125
vn -0.6723633 0.36401367 -0.64453125
vn -0.6723633 0.36401367 -0.64453125
vn -0.6723633 0.36401367 -0.64453125
vn -0.0006122589 0.95166016 0.30737305
vn -0.0006122589 0.95166016 0.30737305
vn -0.0006122589 0.95166016 0.30737305
vn -0.0004925728 0.95410156 0.2998047
vn -0.3955078 0.91845703 0.007259369
vn -0.3955078 0.91845703 0.007259369
vn -0.3955078 0.91845703 0.007259369
vn -0.4206543 0.90722656 0.0066986084
vn -0.00047063828 0.9633789 -0.2685547
vn -0.00047063828 0.9633789 -0.2685547
vn -0.00047063828 0.9633789 -0.2685547
vn -0.00022041798 0.9589844 -0.28393555
vn 0.3737793 0.9277344 0.0062026978
vn 0.3737793 0.9277344 0.0062026978
vn 0.3737793 0.9277344 0.0062026978
vn 0.38208008 0.9243164 0.006336212
vn -0.00047826767 0.44360352 0.8964844
vn -0.00047826767 0.44360352 0.8964844
vn -0.00047826767 0.44360352 0.8964844
vn -0.0004785061 0.44360352 0.8964844
vn -0.88916016 0.4572754 0.0046195984
vn -0.88916016 0.4572754 0.0046195984
vn -0.88916016 0.4572754 0.0046195984
vn -0.88916016 0.4572754 0.0046195984
vn -5.7399273E-05 0.49731445 -0.8676758
vn -5.7399273E-05 0.49731445 -0.8676758
vn -5.7399273E-05 0.49731445 -0.8676758
vn -5.6684017E-05 0.49731445 -0.8676758
vn 0.875 0.484375 0.0022506714
vn 0.875 0.484375 0.0022506714
vn 0.875 0.484375 0.0022506714
vn 0.875 0.484375 0.0022506714
vn 0.6904297 0.18640137 0.69873047
vn 0.6904297 0.18640137 0.69873047
vn 0.6904297 0.18640137 0.69873047
vn 0.6904297 0.18640137 0.69873047
vn -0.67285156 0.33764648 0.6582031
vn -0.67285156 0.33764648 0.6582031
vn -0.67285156 0.33764648 0.6582031
vn -0.67285156 0.33764648 0.6582031
vn 0.22229004 0.32055664 -0.92089844
vn 0.22229004 0.32055664 -0.92089844
vn 0.22229004 0.32055664 -0.92089844
vn 0.22229004 0.32055664 -0.92089844
vn -0.91796875 0.3256836 -0.22680664
vn -0.91796875 0.3256836 -0.22680664
vn -0.91796875 0.3256836 -0.22680664
vn -0.91796875 0.32543945 -0.22680664
vn 0.016220093 0.37524414 -0.9267578
vn 0.016220093 0.37524414 -0.9267578
vn 0.016220093 0.37524414 -0.9267578
vn 0.016220093 0.37548828 -0.9267578
vn 0.49169922 0.2529297 0.8330078
vn 0.49169922 0.2529297 0.8330078
vn 0.49169922 0.2529297 0.8330078
vn 0.49194336 0.2529297 0.8330078
vn -0.6464844 0.24951172 0.7211914
vn -0.6464844 0.24951172 0.7211914
vn -0.6464844 0.24951172 0.7211914
vn -0.6464844 0.24951172 0.7211914
vn 0.64941406 0.23083496 -0.7246094
vn 0.64941406 0.23083496 -0.7246094
vn 0.64941406 0.23083496 -0.7246094
vn 0.64941406 0.23095703 -0.7246094
vn -0.49414062 0.23413086 -0.83740234
vn -0.49414062 0.23413086 -0.83740234
vn -0.49414062 0.23413086 -0.83740234
vn -0.49414062 0.23413086 -0.83740234
vn 0.12768555 0.41381836 -0.9013672
vn 0.12768555 0.41381836 -0.9013672
vn 0.12768555 0.41381836 -0.9013672
vn 0.12463379 0.44702148 -0.8857422
vn 0.8300781 0.5415039 0.13378906
vn 0.8300781 0.5415039 0.13378906
vn 0.8300781 0.5415039 0.13378906
vn 0.8388672 0.52734375 0.13586426
vn -0.12988281 0.3059082 0.9433594
vn -0.12988281 0.3059082 0.9433594
vn -0.12988281 0.3059082 0.9433594
vn -0.12988281 0.3059082 0.9433594
vn -0.91552734 0.37475586 -0.14624023
vn -0.91552734 0.37475586 -0.14624023
vn -0.91552734 0.37475586 -0.14624023
vn -0.9042969 0.40185547 -0.1430664
vn 0.13452148 0.2836914 -0.94921875
vn 0.13452148 0.2836914 -0.94921875
vn 0.13452148 0.2836914 -0.94921875
vn 0.13452148 0.2836914 -0.94921875
vn 0.9042969 0.40185547 0.14428711
vn 0.9042969 0.40185547 0.14428711
vn 0.9042969 0.40185547 0.14428711
vn 0.91552734 0.37475586 0.14758301
vn 0.64453125 0.24194336 0.72509766
vn 0.64453125 0.24194336 0.72509766
vn 0.64453125 0.24194336 0.72509766
vn 0.64453125 0.24194336 0.72509766
vn -0.6225586 0.23303223 0.7470703
vn -0.6225586 0.23303223 0.7470703
vn -0.6225586 0.23303223 0.7470703
vn -0.6225586 0.23303223 0.7470703
vn 0.625 0.2154541 -0.7504883
vn 0.625 0.2154541 -0.7504883
vn 0.625 0.2154541 -0.7504883
vn 0.625 0.2154541 -0.7504883
vn -0.64746094 0.22375488 -0.7285156
vn -0.64746094 0.22375488 -0.7285156
vn -0.64746094 0.22375488 -0.7285156
vn -0.64746094 0.22387695 -0.7285156
vn 0.00116539 0.41503906 -0.90966797
vn 0.00116539 0.41503906 -0.90966797
vn 0.00116539 0.41503906 -0.90966797
vn -2.2828579E-05 0.45336914 -0.8911133
vn 0.87597656 0.48217773 0.01890564
vn 0.87597656 0.48217773 0.01890564
vn 0.87597656 0.48217773 0.01890564
vn 0.8833008 0.46850586 0.019683838
vn 0.0031986237 0.30688477 0.95166016
vn 0.0031986237 0.30688477 0.95166016
vn 0.0031986237 0.30688477 0.95166016
vn 0.0031986237 0.30688477 0.95166016
vn -0.9453125 0.32641602 -0.019241333
vn -0.9453125 0.32641602 -0.019241333
vn -0.9453125 0.32641602 -0.019241333
vn -0.93603516 0.35107422 -0.017913818
vn 0.0012273788 0.28466797 -0.9584961
vn 0.0012273788 0.28466797 -0.9584961
vn 0.0012273788 0.28466797 -0.9584961
vn 0.0012273788 0.28466797 -0.9584961
vn 0.93603516 0.35107422 0.018936157
vn 0.93603516 0.35107422 0.018936157
vn 0.93603516 0.35107422 0.018936157
vn 0.9448242 0.32617188 0.020401001
vn 0.64453125 0.24194336 0.72509766
vn 0.64453125 0.24194336 0.72509766
vn 0.64453125 0.24194336 0.72509766
vn 0.64453125 0.24194336 0.72509766
vn -0.6225586 0.23303223 0.7470703
vn -0.6225586 0.23303223 0.7470703
vn -0.6225586 0.23303223 0.7470703
vn -0.6225586 0.23303223 0.7470703
vn 0.625 0.2154541 -0.7504883
vn 0.625 0.2154541 -0.7504883
vn 0.625 0.2154541 -0.7504883
vn 0.625 0.2154541 -0.7504883
vn -0.64746094 0.22375488 -0.7285156
vn -0.64746094 0.22375488 -0.7285156
vn -0.64746094 0.22375488 -0.7285156
vn -0.64746094 0.22387695 -0.7285156
vn 0.0013237 0.41503906 -0.90966797
vn 0.0013237 0.41503906 -0.90966797
vn 0.0013237 0.41503906 -0.90966797
vn -2.5987625E-05 0.45336914 -0.8911133
vn 0.87841797 0.47753906 -0.00932312
vn 0.87841797 0.47753906 -0.00932312
vn 0.87841797 0.47753906 -0.00932312
vn 0.8833008 0.46850586 -0.009033203
vn 0.0036354065 0.30688477 0.95166016
vn 0.0036354065 0.30688477 0.95166016
vn 0.0036354065 0.30688477 0.95166016
vn 0.0036354065 0.30688477 0.95166016
vn -0.9453125 0.32641602 0.010864258
vn -0.9453125 0.32641602 0.010864258
vn -0.9453125 0.32641602 0.010864258
vn -0.93652344 0.35107422 0.011734009
vn 0.0013952255 0.28466797 -0.9584961
vn 0.0013952255 0.28466797 -0.9584961
vn 0.0013952255 0.28466797 -0.9584961
vn 0.0013952255 0.28466797 -0.9584961
vn 0.93652344 0.35107422 -0.011001587
vn 0.93652344 0.35107422 -0.011001587
vn 0.93652344 0.35107422 -0.011001587
vn 0.9453125 0.32641602 -0.010032654
vn -0.00037193298 1 0.0071029663
vn -0.00037193298 1 0.0071029663
vn -0.00037193298 1 0.0071029663
vn -0.00037240982 1 0.007106781
vn 0.0039749146 1 -0.005794525
vn 0.0039749146 1 -0.005794525
vn 0.0039749146 1 -0.005794525
vn 0.0038070679 1 -0.005580902
vn 0.0021076202 1 -0.004688263
vn 0.0021076202 1 -0.004688263
vn 0.0021076202 1 -0.004688263
vn 0.00042772293 1 -0.0029449463
vn 0.0016775131 1 -0.004924774
vn 0.0016775131 1 -0.004924774
vn 0.0016775131 1 -0.004924774
vn 1.4901161E-05 1 -0.0029735565
vn 0.0019083023 1 -0.004184723
vn 0.0019083023 1 -0.004184723
vn 0.0019083023 1 -0.004184723
vn 1.41859055E-05 1 -0.0024929047
g C001_BB04_0
f 3/3/3 2/2/2 1/1/1
f 6/6/6 5/5/5 4/4/4
f 9/9/9 8/8/8 7/7/7
f 12/12/12 11/11/11 10/10/10
f 15/15/15 14/14/14 13/13/13
f 18/18/18 17/17/17 16/16/16
f 21/21/21 20/20/20 19/19/19
f 24/24/24 23/23/23 22/22/22
f 27/27/27 26/26/26 25/25/25
f 30/30/30 29/29/29 28/28/28
f 33/33/33 32/32/32 31/31/31
f 36/36/36 35/35/35 34/34/34
f 39/39/39 38/38/38 37/37/37
f 42/42/42 41/41/41 40/40/40
f 45/45/45 44/44/44 43/43/43
f 48/48/48 47/47/47 46/46/46
f 51/51/51 50/50/50 49/49/49
f 54/54/54 53/53/53 52/52/52
f 57/57/57 56/56/56 55/55/55
f 60/60/60 59/59/59 58/58/58
f 63/63/63 62/62/62 61/61/61
f 66/66/66 65/65/65 64/64/64
f 69/69/69 68/68/68 67/67/67
f 72/72/72 71/71/71 70/70/70
f 75/75/75 74/74/74 73/73/73
f 78/78/78 77/77/77 76/76/76
f 81/81/81 80/80/80 79/79/79
f 84/84/84 83/83/83 82/82/82
f 87/87/87 86/86/86 85/85/85
f 90/90/90 89/89/89 88/88/88
f 93/93/93 92/92/92 91/91/91
f 96/96/96 95/95/95 94/94/94
f 99/99/99 98/98/98 97/97/97
f 102/102/102 101/101/101 100/100/100
f 105/105/105 104/104/104 103/103/103
f 108/108/108 107/107/107 106/106/106
f 111/111/111 110/110/110 109/109/109
f 114/114/114 113/113/113 112/112/112
f 117/117/117 116/116/116 115/115/115
f 120/120/120 119/119/119 118/118/118
f 123/123/123 122/122/122 121/121/121
f 126/126/126 125/125/125 124/124/124
f 129/129/129 128/128/128 127/127/127
f 132/132/132 131/131/131 130/130/130
f 135/135/135 134/134/134 133/133/133
f 138/138/138 137/137/137 136/136/136
f 141/141/141 140/140/140 139/139/139
f 144/144/144 143/143/143 142/142/142
f 147/147/147 146/146/146 145/145/145
f 150/150/150 149/149/149 148/148/148
f 153/153/153 152/152/152 151/151/151
f 156/156/156 155/155/155 154/154/154
f 159/159/159 158/158/158 157/157/157
f 158/158/158 159/159/159 160/160/160
f 163/163/163 162/162/162 161/161/161
f 162/162/162 163/163/163 164/164/164
f 167/167/167 166/166/166 165/165/165
f 166/166/166 167/167/167 168/168/168
f 171/171/171 170/170/170 169/169/169
f 170/170/170 171/171/171 172/172/172
f 175/175/175 174/174/174 173/173/173
f 174/174/174 175/175/175 176/176/176
f 179/179/179 178/178/178 177/177/177
f 178/178/178 179/179/179 180/180/180
f 183/183/183 182/182/182 181/181/181
f 182/182/182 183/183/183 184/184/184
f 187/187/187 186/186/186 185/185/185
f 186/186/186 187/187/187 188/188/188
f 191/191/191 190/190/190 189/189/189
f 190/190/190 191/191/191 192/192/192
f 195/195/195 194/194/194 193/193/193
f 194/194/194 195/195/195 196/196/196
f 199/199/199 198/198/198 197/197/197
f 198/198/198 199/199/199 200/200/200
f 203/203/203 202/202/202 201/201/201
f 202/202/202 203/203/203 204/204/204
f 207/207/207 206/206/206 205/205/205
f 206/206/206 207/207/207 208/208/208
f 211/211/211 210/210/210 209/209/209
f 210/210/210 211/211/211 212/212/212
f 215/215/215 214/214/214 213/213/213
f 214/214/214 215/215/215 216/216/216
f 219/219/219 218/218/218 217/217/217
f 218/218/218 219/219/219 220/220/220
f 223/223/223 222/222/222 221/221/221
f 222/222/222 223/223/223 224/224/224
f 227/227/227 226/226/226 225/225/225
f 226/226/226 227/227/227 228/228/228
f 231/231/231 230/230/230 229/229/229
f 230/230/230 231/231/231 232/232/232
f 235/235/235 234/234/234 233/233/233
f 234/234/234 235/235/235 236/236/236
f 239/239/239 238/238/238 237/237/237
f 238/238/238 239/239/239 240/240/240
f 243/243/243 242/242/242 241/241/241
f 242/242/242 243/243/243 244/244/244
f 247/247/247 246/246/246 245/245/245
f 246/246/246 247/247/247 248/248/248
f 251/251/251 250/250/250 249/249/249
f 250/250/250 251/251/251 252/252/252
f 255/255/255 254/254/254 253/253/253
f 254/254/254 255/255/255 256/256/256
f 259/259/259 258/258/258 257/257/257
f 258/258/258 259/259/259 260/260/260
f 263/263/263 262/262/262 261/261/261
f 262/262/262 263/263/263 264/264/264
f 267/267/267 266/266/266 265/265/265
f 266/266/266 267/267/267 268/268/268
f 271/271/271 270/270/270 269/269/269
f 270/270/270 271/271/271 272/272/272
f 275/275/275 274/274/274 273/273/273
f 274/274/274 275/275/275 276/276/276
f 279/279/279 278/278/278 277/277/277
f 278/278/278 279/279/279 280/280/280
f 283/283/283 282/282/282 281/281/281
f 282/282/282 283/283/283 284/284/284
f 287/287/287 286/286/286 285/285/285
f 286/286/286 287/287/287 288/288/288
f 291/291/291 290/290/290 289/289/289
f 290/290/290 291/291/291 292/292/292
f 295/295/295 294/294/294 293/293/293
f 294/294/294 295/295/295 296/296/296
f 299/299/299 298/298/298 297/297/297
f 298/298/298 299/299/299 300/300/300
f 303/303/303 302/302/302 301/301/301
f 302/302/302 303/303/303 304/304/304
f 307/307/307 306/306/306 305/305/305
f 306/306/306 307/307/307 308/308/308
f 311/311/311 310/310/310 309/309/309
f 310/310/310 311/311/311 312/312/312
f 315/315/315 314/314/314 313/313/313
f 314/314/314 315/315/315 316/316/316
f 319/319/319 318/318/318 317/317/317
f 318/318/318 319/319/319 320/320/320
f 323/323/323 322/322/322 321/321/321
f 322/322/322 323/323/323 324/324/324
f 327/327/327 326/326/326 325/325/325
f 326/326/326 327/327/327 328/328/328
f 331/331/331 330/330/330 329/329/329
f 330/330/330 331/331/331 332/332/332
g C001_BB04_1
f 335/335/335 334/334/334 333/333/333
f 334/334/334 335/335/335 336/336/336
f 339/339/339 338/338/338 337/337/337
f 338/338/338 339/339/339 340/340/340
f 343/343/343 342/342/342 341/341/341
f 342/342/342 343/343/343 344/344/344
f 347/347/347 346/346/346 345/345/345
f 346/346/346 347/347/347 348/348/348
f 351/351/351 350/350/350 349/349/349
f 350/350/350 351/351/351 352/352/352
g C001_BB04_2
f 355/355/355 354/354/354 353/353/353
f 358/358/358 357/357/357 356/356/356
f 361/361/361 360/360/360 359/359/359
f 364/364/364 363/363/363 362/362/362
f 367/367/367 366/366/366 365/365/365
f 370/370/370 369/369/369 368/368/368
f 373/373/373 372/372/372 371/371/371
f 376/376/376 375/375/375 374/374/374
f 379/379/379 378/378/378 377/377/377
f 382/382/382 381/381/381 380/380/380
f 385/385/385 384/384/384 383/383/383
f 388/388/388 387/387/387 386/386/386
f 391/391/391 390/390/390 389/389/389
f 394/394/394 393/393/393 392/392/392
f 397/397/397 396/396/396 395/395/395
f 400/400/400 399/399/399 398/398/398
f 403/403/403 402/402/402 401/401/401
f 406/406/406 405/405/405 404/404/404
f 409/409/409 408/408/408 407/407/407
f 412/412/412 411/411/411 410/410/410
f 415/415/415 414/414/414 413/413/413
f 418/418/418 417/417/417 416/416/416
f 421/421/421 420/420/420 419/419/419
f 424/424/424 423/423/423 422/422/422
f 427/427/427 426/426/426 425/425/425
f 430/430/430 429/429/429 428/428/428
f 433/433/433 432/432/432 431/431/431
f 436/436/436 435/435/435 434/434/434
f 439/439/439 438/438/438 437/437/437
f 442/442/442 441/441/441 440/440/440
f 445/445/445 444/444/444 443/443/443
f 448/448/448 447/447/447 446/446/446
f 451/451/451 450/450/450 449/449/449
f 454/454/454 453/453/453 452/452/452
f 457/457/457 456/456/456 455/455/455
f 460/460/460 459/459/459 458/458/458
f 463/463/463 462/462/462 461/461/461
f 466/466/466 465/465/465 464/464/464
f 469/469/469 468/468/468 467/467/467
f 472/472/472 471/471/471 470/470/470
f 475/475/475 474/474/474 473/473/473
f 478/478/478 477/477/477 476/476/476
f 481/481/481 480/480/480 479/479/479
f 484/484/484 483/483/483 482/482/482
f 487/487/487 486/486/486 485/485/485
f 490/490/490 489/489/489 488/488/488
f 493/493/493 492/492/492 491/491/491
f 492/492/492 493/493/493 494/494/494
f 497/497/497 496/496/496 495/495/495
f 496/496/496 497/497/497 498/498/498
f 501/501/501 500/500/500 499/499/499
f 500/500/500 501/501/501 502/502/502
f 505/505/505 504/504/504 503/503/503
f 504/504/504 505/505/505 506/506/506
f 509/509/509 508/508/508 507/507/507
f 508/508/508 509/509/509 510/510/510
f 513/513/513 512/512/512 511/511/511
f 512/512/512 513/513/513 514/514/514
f 517/517/517 516/516/516 515/515/515
f 516/516/516 517/517/517 518/518/518
f 521/521/521 520/520/520 519/519/519
f 520/520/520 521/521/521 522/522/522
f 525/525/525 524/524/524 523/523/523
f 524/524/524 525/525/525 526/526/526
f 529/529/529 528/528/528 527/527/527
f 528/528/528 529/529/529 530/530/530
f 533/533/533 532/532/532 531/531/531
f 532/532/532 533/533/533 534/534/534
f 537/537/537 536/536/536 535/535/535
f 536/536/536 537/537/537 538/538/538
f 541/541/541 540/540/540 539/539/539
f 540/540/540 541/541/541 542/542/542
f 545/545/545 544/544/544 543/543/543
f 544/544/544 545/545/545 546/546/546
f 549/549/549 548/548/548 547/547/547
f 548/548/548 549/549/549 550/550/550
f 553/553/553 552/552/552 551/551/551
f 552/552/552 553/553/553 554/554/554
f 557/557/557 556/556/556 555/555/555
f 556/556/556 557/557/557 558/558/558
f 561/561/561 560/560/560 559/559/559
f 560/560/560 561/561/561 562/562/562
f 565/565/565 564/564/564 563/563/563
f 564/564/564 565/565/565 566/566/566
f 569/569/569 568/568/568 567/567/567
f 568/568/568 569/569/569 570/570/570
f 573/573/573 572/572/572 571/571/571
f 572/572/572 573/573/573 574/574/574
f 577/577/577 576/576/576 575/575/575
f 576/576/576 577/577/577 578/578/578
f 581/581/581 580/580/580 579/579/579
f 580/580/580 581/581/581 582/582/582
f 585/585/585 584/584/584 583/583/583
f 584/584/584 585/585/585 586/586/586
f 589/589/589 588/588/588 587/587/587
f 588/588/588 589/589/589 590/590/590
f 593/593/593 592/592/592 591/591/591
f 592/592/592 593/593/593 594/594/594
f 597/597/597 596/596/596 595/595/595
f 596/596/596 597/597/597 598/598/598
f 601/601/601 600/600/600 599/599/599
f 600/600/600 601/601/601 602/602/602
f 605/605/605 604/604/604 603/603/603
f 604/604/604 605/605/605 606/606/606
f 609/609/609 608/608/608 607/607/607
f 608/608/608 609/609/609 610/610/610
f 613/613/613 612/612/612 611/611/611
f 612/612/612 613/613/613 614/614/614
f 617/617/617 616/616/616 615/615/615
f 616/616/616 617/617/617 618/618/618
f 621/621/621 620/620/620 619/619/619
f 620/620/620 621/621/621 622/622/622
f 625/625/625 624/624/624 623/623/623
f 624/624/624 625/625/625 626/626/626
f 629/629/629 628/628/628 627/627/627
f 628/628/628 629/629/629 630/630/630
f 633/633/633 632/632/632 631/631/631
f 632/632/632 633/633/633 634/634/634
f 637/637/637 636/636/636 635/635/635
f 636/636/636 637/637/637 638/638/638
f 641/641/641 640/640/640 639/639/639
f 640/640/640 641/641/641 642/642/642
f 645/645/645 644/644/644 643/643/643
f 644/644/644 645/645/645 646/646/646
f 649/649/649 648/648/648 647/647/647
f 648/648/648 649/649/649 650/650/650
f 653/653/653 652/652/652 651/651/651
f 652/652/652 653/653/653 654/654/654
f 657/657/657 656/656/656 655/655/655
f 656/656/656 657/657/657 658/658/658
f 661/661/661 660/660/660 659/659/659
f 660/660/660 661/661/661 662/662/662
f 665/665/665 664/664/664 663/663/663
f 664/664/664 665/665/665 666/666/666
f 669/669/669 668/668/668 667/667/667
f 668/668/668 669/669/669 670/670/670
f 673/673/673 672/672/672 671/671/671
f 672/672/672 673/673/673 674/674/674
f 677/677/677 676/676/676 675/675/675
f 676/676/676 677/677/677 678/678/678
g C001_BB04_3
f 681/681/681 680/680/680 679/679/679
f 680/680/680 681/681/681 682/682/682
f 685/685/685 684/684/684 683/683/683
f 684/684/684 685/685/685 686/686/686
f 689/689/689 688/688/688 687/687/687
f 688/688/688 689/689/689 690/690/690
f 693/693/693 692/692/692 691/691/691
f 692/692/692 693/693/693 694/694/694
f 697/697/697 696/696/696 695/695/695
f 696/696/696 697/697/697 698/698/698
