g C001_BB04
v -18.23917 4.0630054 14.236796
v -18.781786 3.8420982 14.730781
v -18.946669 3.8421013 14.523852
v 18.278542 4.0343165 14.117768
v 18.986837 3.8134081 14.373032
v 18.842522 3.8134074 14.609453
v -18.280264 4.0343595 -14.154538
v -18.988554 3.8134487 -14.409807
v -18.844238 3.813453 -14.646223
v 18.237457 4.0343575 -14.273569
v 18.78006 3.8134525 -14.767553
v 18.944939 3.8134482 -14.560627
v 18.852812 3.403157 14.831122
v -18.771503 3.8388774 14.95246
v 18.842522 3.8134074 14.609453
v -18.781786 3.8420982 14.730781
v 18.842522 3.8134074 14.609453
v -18.771503 3.8388774 14.95246
v -19.10126 3.8388793 14.538598
v -19.143135 3.403201 -14.395059
v -18.946669 3.8421013 14.523852
v -18.988554 3.8134487 -14.409807
v -18.946669 3.8421013 14.523852
v -19.143135 3.403201 -14.395059
v -18.771503 3.8388774 14.95246
v -19.10126 3.8388793 14.538598
v -18.781786 3.8420982 14.730781
v -18.946669 3.8421013 14.523852
v 19.141426 3.4031575 14.358281
v 18.852812 3.403157 14.831122
v 18.986837 3.8134081 14.373032
v 18.842522 3.8134074 14.609453
v -19.143135 3.403201 -14.395059
v -18.85452 3.403201 -14.867886
v -18.988554 3.8134487 -14.409807
v -18.844238 3.813453 -14.646223
v 18.76977 3.4032009 -14.98922
v 19.099525 3.4032004 -14.575367
v 18.78006 3.8134525 -14.767553
v 18.944939 3.8134482 -14.560627
v 18.842522 3.8134074 14.609453
v -18.781786 3.8420982 14.730781
v 18.278542 4.0343165 14.117768
v -18.23917 4.0630054 14.236796
v 18.944939 3.8134482 -14.560627
v 18.986837 3.8134081 14.373032
v 18.237457 4.0343575 -14.273569
v 18.278542 4.0343165 14.117768
v -18.844238 3.813453 -14.646223
v 18.78006 3.8134525 -14.767553
v -18.280264 4.0343595 -14.154538
v 18.237457 4.0343575 -14.273569
v -18.946669 3.8421013 14.523852
v -18.988554 3.8134487 -14.409807
v -18.23917 4.0630054 14.236796
v -18.280264 4.0343595 -14.154538
v 19.099525 3.4032004 -14.575367
v 19.141426 3.4031575 14.358281
v 18.944939 3.8134482 -14.560627
v 18.986837 3.8134081 14.373032
v -18.85452 3.403201 -14.867886
v 18.76977 3.4032009 -14.98922
v -18.844238 3.813453 -14.646223
v 18.78006 3.8134525 -14.767553
v 18.852812 3.403157 14.831122
v 19.141426 3.4031575 14.358281
v 18.854511 -3.7347503 14.867905
v 19.14313 -3.7347472 14.395054
v 18.854511 -3.7347503 14.867905
v 19.141426 3.4031575 14.358281
v -18.769785 -3.7347496 14.989238
v -19.09954 -3.7347467 14.575371
v -18.771503 3.8388774 14.95246
v -19.10126 3.8388793 14.538598
v -18.771503 3.8388774 14.95246
v -19.09954 -3.7347467 14.575371
v -18.85452 3.403201 -14.867886
v -19.143135 3.403201 -14.395059
v -18.85452 -3.7346928 -14.867905
v -19.143135 -3.7346935 -14.395078
v -18.85452 -3.7346928 -14.867905
v -19.143135 3.403201 -14.395059
v -19.09954 -3.7347467 14.575371
v -18.769785 -3.7347496 14.989238
v -18.79034 -4.063001 14.545878
v 19.14313 -3.7347472 14.395054
v 18.833942 -4.0629997 14.424565
v 18.854511 -3.7347503 14.867905
v -18.85452 -3.7346928 -14.867905
v -19.143135 -3.7346935 -14.395078
v -18.833954 -4.0629473 -14.42457
v 18.76978 -3.7346935 -14.989241
v 18.790358 -4.0629473 -14.545901
v 19.099531 -3.7346942 -14.575396
v -18.771503 3.8388774 14.95246
v 18.852812 3.403157 14.831122
v -18.769785 -3.7347496 14.989238
v 18.854511 -3.7347503 14.867905
v 19.141426 3.4031575 14.358281
v 19.099525 3.4032004 -14.575367
v 19.14313 -3.7347472 14.395054
v 19.099531 -3.7346942 -14.575396
v 18.76977 3.4032009 -14.98922
v -18.85452 3.403201 -14.867886
v 18.76978 -3.7346935 -14.989241
v -18.85452 -3.7346928 -14.867905
v -19.143135 3.403201 -14.395059
v -19.10126 3.8388793 14.538598
v -19.143135 -3.7346935 -14.395078
v -19.09954 -3.7347467 14.575371
v 19.099525 3.4032004 -14.575367
v 18.76977 3.4032009 -14.98922
v 19.099531 -3.7346942 -14.575396
v 18.76978 -3.7346935 -14.989241
v -18.833954 -4.0629473 -14.42457
v -19.143135 -3.7346935 -14.395078
v -18.79034 -4.063001 14.545878
v -19.09954 -3.7347467 14.575371
v 18.790358 -4.0629473 -14.545901
v 18.76978 -3.7346935 -14.989241
v -18.833954 -4.0629473 -14.42457
v -18.85452 -3.7346928 -14.867905
v 18.833942 -4.0629997 14.424565
v 19.14313 -3.7347472 14.395054
v 18.790358 -4.0629473 -14.545901
v 19.099531 -3.7346942 -14.575396
v -18.79034 -4.063001 14.545878
v -18.769785 -3.7347496 14.989238
v 18.833942 -4.0629997 14.424565
v 18.854511 -3.7347503 14.867905
v 18.833942 -4.0629997 14.424565
v 18.790358 -4.0629473 -14.545901
v -18.79034 -4.063001 14.545878
v -18.833954 -4.0629473 -14.42457
v -18.280264 4.0343595 -14.154538
v 18.237457 4.0343575 -14.273569
v -18.23917 4.0630054 14.236796
v 18.278542 4.0343165 14.117768
vt 0.027618408 0.9404297
vt 0.027618408 0.61035156
vt 0.027618408 0.61035156
vt 0.027618408 0.9404297
vt 0.027618408 0.61035156
vt 0.027618408 0.61035156
vt 0.027618408 0.9404297
vt 0.027618408 0.61035156
vt 0.027618408 0.61035156
vt 0.027618408 0.9404297
vt 0.027618408 0.61035156
vt 0.027618408 0.61035156
vt 0.027618408 0.006668091
vt 2.6855469 0.006668091
vt 0.027618408 0.61035156
vt 2.6855469 0.61035156
vt 0.027618408 0.61035156
vt 2.6855469 0.006668091
vt 0.027618408 0.006668091
vt 2.6933594 0.006668091
vt 0.027618408 0.61035156
vt 2.6933594 0.61035156
vt 0.027618408 0.61035156
vt 2.6933594 0.006668091
vt 0.027618408 0.006668091
vt 0.027618408 0.006668091
vt 0.027618408 0.61035156
vt 0.027618408 0.61035156
vt 0.027618408 0.006668091
vt 0.027618408 0.006668091
vt 0.027618408 0.61035156
vt 0.027618408 0.61035156
vt 0.027618408 0.006668091
vt 0.027618408 0.006668091
vt 0.027618408 0.61035156
vt 0.027618408 0.61035156
vt 0.027618408 0.006668091
vt 0.027618408 0.006668091
vt 0.027618408 0.61035156
vt 0.027618408 0.61035156
vt 0.027618408 0.61035156
vt 2.6855469 0.61035156
vt 0.027618408 0.9404297
vt 2.6855469 0.9404297
vt 0.027618408 0.61035156
vt 2.6933594 0.61035156
vt 0.027618408 0.9404297
vt 2.6933594 0.9404297
vt 0.027618408 0.61035156
vt 2.6855469 0.61035156
vt 0.027618408 0.9404297
vt 2.6855469 0.9404297
vt 0.027618408 0.61035156
vt 2.6933594 0.61035156
vt 0.027618408 0.9404297
vt 2.6933594 0.9404297
vt 0.027618408 0.006668091
vt 2.6933594 0.006668091
vt 0.027618408 0.61035156
vt 2.6933594 0.61035156
vt 0.027618408 0.006668091
vt 2.6855469 0.006668091
vt 0.027618408 0.61035156
vt 2.6855469 0.61035156
vt -20.84375 1.0800781
vt -20.78125 1.0771484
vt -20.859375 0.12817383
vt -20.796875 0.121276855
vt -20.859375 0.12817383
vt -20.78125 1.0771484
vt -25.859375 0.15112305
vt -25.921875 0.13916016
vt -25.859375 1.1542969
vt -25.921875 1.1513672
vt -25.859375 1.1542969
vt -25.921875 0.13916016
vt -11.8828125 1.0517578
vt -11.8203125 1.0488281
vt -11.890625 0.101623535
vt -11.828125 0.09350586
vt -11.890625 0.101623535
vt -11.8203125 1.0488281
vt -25.921875 0.13916016
vt -25.859375 0.15112305
vt -25.859375 0.084106445
vt -20.796875 0.121276855
vt -20.828125 0.061584473
vt -20.859375 0.12817383
vt -11.890625 0.101623535
vt -11.828125 0.09350586
vt -11.8671875 0.03527832
vt -16.890625 0.12524414
vt -16.921875 0.060913086
vt -16.953125 0.12194824
vt -25.859375 1.1542969
vt -20.84375 1.0800781
vt -25.859375 0.15112305
vt -20.859375 0.12817383
vt -20.78125 1.0771484
vt -16.9375 1.0742188
vt -20.796875 0.121276855
vt -16.953125 0.12194824
vt -16.875 1.0751953
vt -11.8828125 1.0517578
vt -16.890625 0.12524414
vt -11.890625 0.101623535
vt -11.8203125 1.0488281
vt -7.9726562 1.1044922
vt -11.828125 0.09350586
vt -7.9726562 0.09387207
vt -16.9375 1.0742188
vt -16.875 1.0751953
vt -16.953125 0.12194824
vt -16.890625 0.12524414
vt -11.8671875 0.03527832
vt -11.828125 0.09350586
vt -7.9804688 0.033935547
vt -7.9726562 0.09387207
vt -16.921875 0.060913086
vt -16.890625 0.12524414
vt -11.8671875 0.03527832
vt -11.890625 0.101623535
vt -20.828125 0.061584473
vt -20.796875 0.121276855
vt -16.921875 0.060913086
vt -16.953125 0.12194824
vt -25.859375 0.084106445
vt -25.859375 0.15112305
vt -20.828125 0.061584473
vt -20.859375 0.12817383
vt 6.7109375 -12.34375
vt 6.71875 -8.484375
vt 11.7265625 -12.359375
vt 11.734375 -8.5
vt 13.046875 4.1679688
vt 8.171875 4.1523438
vt 13.0390625 7.9570312
vt 8.171875 7.9375
vn -0.22583008 0.95751953 0.18005371
vn -0.22583008 0.95751953 0.18005371
vn -0.22583008 0.95751953 0.18005371
vn 0.24487305 0.9580078 0.14953613
vn 0.24487305 0.9580078 0.14953613
vn 0.24487305 0.9580078 0.14953613
vn -0.24487305 0.9580078 -0.14953613
vn -0.24487305 0.9580078 -0.14953613
vn -0.24487305 0.9580078 -0.14953613
vn 0.22595215 0.95751953 -0.17993164
vn 0.22595215 0.95751953 -0.17993164
vn 0.22595215 0.95751953 -0.17993164
vn 0.008346558 0.47558594 0.8798828
vn 0.008346558 0.47558594 0.8798828
vn 0.008346558 0.47558594 0.8798828
vn 0.00080919266 1 0.01448822
vn 0.00080919266 1 0.01448822
vn 0.00080919266 1 0.01448822
vn -0.022262573 0.9995117 -0.015022278
vn -0.022262573 0.9995117 -0.015022278
vn -0.022262573 0.9995117 -0.015022278
vn -0.9355469 0.35253906 0.0010051727
vn -0.9355469 0.35253906 0.0010051727
vn -0.9355469 0.35253906 0.0010051727
vn -0.019348145 0.9995117 0.015419006
vn -0.019348145 0.9995117 0.015419006
vn -0.019348145 0.9995117 0.015419006
vn -0.019363403 0.9995117 0.0154418945
vn 0.81689453 0.28979492 0.49853516
vn 0.81689453 0.28979492 0.49853516
vn 0.81689453 0.28979492 0.49853516
vn 0.81689453 0.29003906 0.49853516
vn -0.81689453 0.28979492 -0.49853516
vn -0.81689453 0.28979492 -0.49853516
vn -0.81689453 0.28979492 -0.49853516
vn -0.81689453 0.28979492 -0.49853516
vn 0.74560547 0.3022461 -0.5942383
vn 0.74560547 0.3022461 -0.5942383
vn 0.74560547 0.3022461 -0.5942383
vn 0.74560547 0.3022461 -0.5942383
vn 0.0020122528 0.91308594 0.40795898
vn 0.0020122528 0.91308594 0.40795898
vn 0.0020122528 0.91308594 0.40795898
vn 0.0020523071 0.9121094 0.41015625
vn 0.29785156 0.95458984 -0.00043010712
vn 0.29785156 0.95458984 -0.00043010712
vn 0.29785156 0.95458984 -0.00043010712
vn 0.29785156 0.95458984 -0.00042963028
vn -0.0013179779 0.91259766 -0.40844727
vn -0.0013179779 0.91259766 -0.40844727
vn -0.0013179779 0.91259766 -0.40844727
vn -0.0013341904 0.9121094 -0.40942383
vn -0.29833984 0.95458984 -0.0005135536
vn -0.29833984 0.95458984 -0.0005135536
vn -0.29833984 0.95458984 -0.0005135536
vn -0.29760742 0.95458984 -0.0005326271
vn 0.9355469 0.35253906 -0.0013542175
vn 0.9355469 0.35253906 -0.0013542175
vn 0.9355469 0.35253906 -0.0013542175
vn 0.9355469 0.35253906 -0.0013542175
vn -0.0028362274 0.4753418 -0.8798828
vn -0.0028362274 0.4753418 -0.8798828
vn -0.0028362274 0.4753418 -0.8798828
vn -0.0028362274 0.4753418 -0.8798828
vn 0.8535156 0.0028877258 0.5209961
vn 0.8535156 0.0028877258 0.5209961
vn 0.8535156 0.0028877258 0.5209961
vn 0.8535156 0.0028877258 0.5209961
vn 0.8535156 0.0028877258 0.5209961
vn 0.8535156 0.0028877258 0.5209961
vn -0.78222656 0.0028476715 0.6230469
vn -0.78222656 0.0028476715 0.6230469
vn -0.78222656 0.0028476715 0.6230469
vn -0.78222656 0.0028476715 0.6230469
vn -0.78222656 0.0028476715 0.6230469
vn -0.78222656 0.0028476715 0.6230469
vn -0.8535156 1.4305115E-06 -0.5209961
vn -0.8535156 1.4305115E-06 -0.5209961
vn -0.8535156 1.4305115E-06 -0.5209961
vn -0.8535156 1.4305115E-06 -0.5209961
vn -0.8535156 1.4305115E-06 -0.5209961
vn -0.8535156 1.4305115E-06 -0.5209961
vn -0.61279297 -0.62109375 0.48828125
vn -0.61279297 -0.62109375 0.48828125
vn -0.61279297 -0.62109375 0.48828125
vn 0.68066406 -0.6035156 0.4152832
vn 0.68066406 -0.6035156 0.4152832
vn 0.68066406 -0.6035156 0.4152832
vn -0.68066406 -0.6035156 -0.4152832
vn -0.68066406 -0.6035156 -0.4152832
vn -0.68066406 -0.6035156 -0.4152832
vn 0.61279297 -0.62109375 -0.48828125
vn 0.61279297 -0.62109375 -0.48828125
vn 0.61279297 -0.62109375 -0.48828125
vn 0.0032806396 0.0048561096 1
vn 0.0032806396 0.0048561096 1
vn 0.0032806396 0.0048561096 1
vn 0.0032253265 0.005153656 1
vn 1 0.00023126602 -0.0014476776
vn 1 0.00023126602 -0.0014476776
vn 1 0.00023126602 -0.0014476776
vn 1 7.1525574E-07 -0.0015048981
vn -0.0032253265 2.9206276E-06 -1
vn -0.0032253265 2.9206276E-06 -1
vn -0.0032253265 2.9206276E-06 -1
vn -0.0032253265 2.7418137E-06 -1
vn -1 0 0.0014476776
vn -1 0 0.0014476776
vn -1 0 0.0014476776
vn -1 -0.00021958351 0.0015048981
vn 0.78222656 2.9802322E-06 -0.6230469
vn 0.78222656 2.9802322E-06 -0.6230469
vn 0.78222656 2.9802322E-06 -0.6230469
vn 0.78222656 2.861023E-06 -0.6230469
vn -0.72802734 -0.6855469 0.0010948181
vn -0.72802734 -0.6855469 0.0010948181
vn -0.72802734 -0.6855469 0.0010948181
vn -0.72802734 -0.6855469 0.0010938644
vn -0.0019187927 -0.80371094 -0.59521484
vn -0.0019187927 -0.80371094 -0.59521484
vn -0.0019187927 -0.80371094 -0.59521484
vn -0.0019187927 -0.80371094 -0.59521484
vn 0.72802734 -0.6855469 -0.0010967255
vn 0.72802734 -0.6855469 -0.0010967255
vn 0.72802734 -0.6855469 -0.0010967255
vn 0.72802734 -0.6855469 -0.0010967255
vn 0.0019187927 -0.80371094 0.59521484
vn 0.0019187927 -0.80371094 0.59521484
vn 0.0019187927 -0.80371094 0.59521484
vn 0.0019187927 -0.80371094 0.59521484
vn -0 -1 -1.7881393E-06
vn -0 -1 -1.7881393E-06
vn -0 -1 -1.7881393E-06
vn -0 -1 -1.847744E-06
vn -3.2186508E-06 1 -0.0010089874
vn -3.2186508E-06 1 -0.0010089874
vn -3.2186508E-06 1 -0.0010089874
vn 0.00078582764 1 2.9802322E-07
g C001_BB04_0
f 3/3/3 2/2/2 1/1/1
f 6/6/6 5/5/5 4/4/4
f 9/9/9 8/8/8 7/7/7
f 12/12/12 11/11/11 10/10/10
f 15/15/15 14/14/14 13/13/13
f 18/18/18 17/17/17 16/16/16
f 21/21/21 20/20/20 19/19/19
f 24/24/24 23/23/23 22/22/22
f 27/27/27 26/26/26 25/25/25
f 26/26/26 27/27/27 28/28/28
f 31/31/31 30/30/30 29/29/29
f 30/30/30 31/31/31 32/32/32
f 35/35/35 34/34/34 33/33/33
f 34/34/34 35/35/35 36/36/36
f 39/39/39 38/38/38 37/37/37
f 38/38/38 39/39/39 40/40/40
f 43/43/43 42/42/42 41/41/41
f 42/42/42 43/43/43 44/44/44
f 47/47/47 46/46/46 45/45/45
f 46/46/46 47/47/47 48/48/48
f 51/51/51 50/50/50 49/49/49
f 50/50/50 51/51/51 52/52/52
f 55/55/55 54/54/54 53/53/53
f 54/54/54 55/55/55 56/56/56
f 59/59/59 58/58/58 57/57/57
f 58/58/58 59/59/59 60/60/60
f 63/63/63 62/62/62 61/61/61
f 62/62/62 63/63/63 64/64/64
g C001_BB04_1
f 67/67/67 66/66/66 65/65/65
f 70/70/70 69/69/69 68/68/68
f 73/73/73 72/72/72 71/71/71
f 76/76/76 75/75/75 74/74/74
f 79/79/79 78/78/78 77/77/77
f 82/82/82 81/81/81 80/80/80
f 85/85/85 84/84/84 83/83/83
f 88/88/88 87/87/87 86/86/86
f 91/91/91 90/90/90 89/89/89
f 94/94/94 93/93/93 92/92/92
f 97/97/97 96/96/96 95/95/95
f 96/96/96 97/97/97 98/98/98
f 101/101/101 100/100/100 99/99/99
f 100/100/100 101/101/101 102/102/102
f 105/105/105 104/104/104 103/103/103
f 104/104/104 105/105/105 106/106/106
f 109/109/109 108/108/108 107/107/107
f 108/108/108 109/109/109 110/110/110
f 113/113/113 112/112/112 111/111/111
f 112/112/112 113/113/113 114/114/114
f 117/117/117 116/116/116 115/115/115
f 116/116/116 117/117/117 118/118/118
f 121/121/121 120/120/120 119/119/119
f 120/120/120 121/121/121 122/122/122
f 125/125/125 124/124/124 123/123/123
f 124/124/124 125/125/125 126/126/126
f 129/129/129 128/128/128 127/127/127
f 128/128/128 129/129/129 130/130/130
g C001_BB04_2
f 133/133/133 132/132/132 131/131/131
f 132/132/132 133/133/133 134/134/134
g C001_BB04_3
f 137/137/137 136/136/136 135/135/135
f 136/136/136 137/137/137 138/138/138
