g C003_BB04
v 18.656103 -0.7381451 11.861569
v 18.598505 7.001528 11.88001
v 18.976528 -0.7265997 11.532785
v 18.918955 7.0110354 11.551215
v 18.976528 -0.7265997 11.532785
v 18.598505 7.001528 11.88001
v -18.976522 7.147154 -11.505864
v -18.919268 -0.56051695 -11.551223
v -18.656094 7.1566315 -11.834651
v -18.598846 -0.5489862 -11.88001
v -18.656094 7.1566315 -11.834651
v -18.919268 -0.56051695 -11.551223
v 18.976528 -0.7265997 11.532785
v 18.358402 -1.1338409 11.280007
v 18.656103 -0.7381451 11.861569
v -18.88538 -0.765108 11.53156
v -18.556562 -0.76356506 11.852057
v -18.416777 -1.15034 11.26278
v 18.613783 -0.52353454 -11.87049
v 18.623169 -0.94989926 -11.558156
v 18.942636 -0.5220062 -11.55
v -18.598846 -0.5489862 -11.88001
v -18.919268 -0.56051695 -11.551223
v -18.418583 -0.9488055 -11.584089
v 18.623169 -0.94989926 -11.558156
v 18.358402 -1.1338409 11.280007
v 18.942636 -0.5220062 -11.55
v 18.976528 -0.7265997 11.532785
v 18.942636 -0.5220062 -11.55
v 18.358402 -1.1338409 11.280007
v 1.123164 -7.296958 10.15718
v 0.7385742 -7.5514865 10.1589575
v 0.7361328 -7.290508 10.537759
v -17.447119 -7.2261524 10.234255
v -17.066484 -7.2222533 10.621272
v -17.064072 -7.4832373 10.242473
v 0.6235254 -7.3803024 -3.8703465
v 0.82466793 -7.6319346 -3.5383837
v 1.1509082 -7.377425 -3.7420115
v -16.898682 -7.312629 -4.149519
v -17.02703 -7.3071423 -3.6221154
v -16.69752 -7.56426 -3.8175585
v 0.82466793 -7.6319346 -3.5383837
v 0.7385742 -7.5514865 10.1589575
v 1.1509082 -7.377425 -3.7420115
v 1.123164 -7.296958 10.15718
v 1.1509082 -7.377425 -3.7420115
v 0.7385742 -7.5514865 10.1589575
v -17.064072 -7.4832373 10.242473
v -16.69752 -7.56426 -3.8175585
v -17.447119 -7.2261524 10.234255
v -17.02703 -7.3071423 -3.6221154
v -17.447119 -7.2261524 10.234255
v -16.69752 -7.56426 -3.8175585
v 10.066885 -3.7910326 7.0546265
v 10.068378 -0.4281079 7.0376534
v 10.364238 -3.7910337 6.8790965
v 10.365742 -0.42811155 6.8621163
v 10.364238 -3.7910337 6.8790965
v 10.068378 -0.4281079 7.0376534
v 10.364238 -3.7910337 6.8790965
v 10.064697 -4.21829 6.7906394
v 10.066885 -3.7910326 7.0546265
v -0.69097656 -3.7910326 5.375465
v -0.42993164 -3.7910326 5.6093774
v -0.35773435 -4.218286 5.277314
v 11.312773 -3.7910314 -0.8664856
v 11.294619 -4.232218 -0.6617651
v 11.573818 -3.7910314 -0.6325793
v 0.80078125 -3.7910302 -2.355482
v 0.50343746 -3.7910314 -2.1799548
v 0.8297265 -4.2182837 -2.1433325
v 11.294619 -4.232218 -0.6617651
v 10.064697 -4.21829 6.7906394
v 11.573818 -3.7910314 -0.6325793
v 10.364238 -3.7910337 6.8790965
v 11.573818 -3.7910314 -0.6325793
v 10.064697 -4.21829 6.7906394
v 10.064697 -4.21829 6.7906394
v -0.35773435 -4.218286 5.277314
v 10.066885 -3.7910326 7.0546265
v -0.42993164 -3.7910326 5.6093774
v 10.066885 -3.7910326 7.0546265
v -0.35773435 -4.218286 5.277314
v 6.1552634 -5.376084 10.901873
v 6.15458 0.24234863 10.884802
v 6.3866796 -5.3760853 10.696189
v 6.3860154 0.24234374 10.679118
v 6.3866796 -5.3760853 10.696189
v 6.15458 0.24234863 10.884802
v 6.3866796 -5.3760853 10.696189
v 6.123203 -5.803341 10.638957
v 6.1552634 -5.376084 10.901873
v -3.147959 -5.3760853 10.726091
v -2.9003613 -5.376084 10.932304
v -2.8773143 -5.8033385 10.59384
v 6.302373 -5.376084 2.877224
v 6.3104296 -5.8172703 3.0831714
v 6.5499315 -5.376084 3.0834324
v -2.7711132 -5.376084 2.8656201
v -3.0025194 -5.376084 3.0712962
v -2.7223437 -5.803337 3.0741065
v 6.3104296 -5.8172703 3.0831714
v 6.123203 -5.803341 10.638957
v 6.5499315 -5.376084 3.0834324
v 6.3866796 -5.3760853 10.696189
v 6.5499315 -5.376084 3.0834324
v 6.123203 -5.803341 10.638957
v 6.123203 -5.803341 10.638957
v -2.8773143 -5.8033385 10.59384
v 6.1552634 -5.376084 10.901873
v -2.9003613 -5.376084 10.932304
v 6.1552634 -5.376084 10.901873
v -2.8773143 -5.8033385 10.59384
v 18.128456 -2.431051 11.183472
v 18.127777 -0.18212341 11.166399
v 18.359873 -2.4310522 10.977788
v 18.35921 -0.1821283 10.960715
v 18.359873 -2.4310522 10.977788
v 18.127777 -0.18212341 11.166399
v 18.359873 -2.4310522 10.977788
v 18.096401 -2.858308 10.920556
v 18.128456 -2.431051 11.183472
v 9.914795 -2.4310522 11.007692
v 10.162393 -2.4310522 11.213906
v 10.18543 -2.8583057 10.875442
v 18.015669 -2.4310515 1.7151636
v 18.02373 -2.8722398 1.9211107
v 18.263227 -2.431051 1.921372
v 10.031738 -2.4310515 1.7035607
v 9.800332 -2.431051 1.909237
v 10.080507 -2.8583043 1.912047
v 18.02373 -2.8722398 1.9211107
v 18.096401 -2.858308 10.920556
v 18.263227 -2.431051 1.921372
v 18.359873 -2.4310522 10.977788
v 18.263227 -2.431051 1.921372
v 18.096401 -2.858308 10.920556
v 18.096401 -2.858308 10.920556
v 10.18543 -2.8583057 10.875442
v 18.128456 -2.431051 11.183472
v 10.162393 -2.4310522 11.213906
v 18.128456 -2.431051 11.183472
v 10.18543 -2.8583057 10.875442
v 18.598505 7.001528 11.88001
v 18.656103 -0.7381451 11.861569
v -18.61414 6.980651 11.870479
v -18.556562 -0.76356506 11.852057
v -18.942987 6.9793863 11.54998
v -18.88538 -0.765108 11.53156
v -18.976522 7.147154 -11.505864
v -18.919268 -0.56051695 -11.551223
v -18.656094 7.1566315 -11.834651
v -18.598846 -0.5489862 -11.88001
v 18.556553 7.1775384 -11.825127
v 18.613783 -0.52353454 -11.87049
v 18.88537 7.1787786 -11.504636
v 18.942636 -0.5220062 -11.55
v 18.918955 7.0110354 11.551215
v 18.976528 -0.7265997 11.532785
v -18.61414 6.980651 11.870479
v -18.556562 -0.76356506 11.852057
v -18.942987 6.9793863 11.54998
v -18.88538 -0.765108 11.53156
v 18.556553 7.1775384 -11.825127
v 18.613783 -0.52353454 -11.87049
v 18.88537 7.1787786 -11.504636
v 18.942636 -0.5220062 -11.55
v -18.418583 -0.9488055 -11.584089
v 18.623169 -0.94989926 -11.558156
v -18.598846 -0.5489862 -11.88001
v 18.613783 -0.52353454 -11.87049
v -18.416777 -1.15034 11.26278
v -18.418583 -0.9488055 -11.584089
v -18.88538 -0.765108 11.53156
v -18.919268 -0.56051695 -11.551223
v 18.358402 -1.1338409 11.280007
v -18.416777 -1.15034 11.26278
v 18.656103 -0.7381451 11.861569
v -18.556562 -0.76356506 11.852057
v 0.76783204 0.1821051 10.442956
v 0.7361328 -7.290508 10.537759
v -17.034824 0.25033996 10.526452
v -17.066484 -7.2222533 10.621272
v -17.41543 0.24644287 10.139436
v -17.447119 -7.2261524 10.234255
v -17.02249 0.1660089 -3.6749644
v -17.02703 -7.3071423 -3.6221154
v -16.894121 0.16052002 -4.202367
v -16.898682 -7.312629 -4.149519
v 0.6280664 0.092854 -3.9231846
v 0.6235254 -7.3803024 -3.8703465
v 1.1554785 0.09574951 -3.7948534
v 1.1509082 -7.377425 -3.7420115
v 1.1548632 0.17565979 10.062358
v 1.123164 -7.296958 10.15718
v -17.034824 0.25033996 10.526452
v -17.066484 -7.2222533 10.621272
v -17.41543 0.24644287 10.139436
v -17.447119 -7.2261524 10.234255
v 0.7361328 -7.290508 10.537759
v 0.76783204 0.1821051 10.442956
v 1.123164 -7.296958 10.15718
v 1.1548632 0.17565979 10.062358
v -17.02249 0.1660089 -3.6749644
v -17.02703 -7.3071423 -3.6221154
v -16.894121 0.16052002 -4.202367
v -16.898682 -7.312629 -4.149519
v 0.6280664 0.092854 -3.9231846
v 0.6235254 -7.3803024 -3.8703465
v 1.1554785 0.09574951 -3.7948534
v 1.1509082 -7.377425 -3.7420115
v -16.69752 -7.56426 -3.8175585
v 0.82466793 -7.6319346 -3.5383837
v -16.898682 -7.312629 -4.149519
v 0.6235254 -7.3803024 -3.8703465
v 0.7385742 -7.5514865 10.1589575
v -17.064072 -7.4832373 10.242473
v 0.7361328 -7.290508 10.537759
v -17.066484 -7.2222533 10.621272
v 10.068378 -0.4281079 7.0376534
v 10.066885 -3.7910326 7.0546265
v -0.42842773 -0.4281079 5.592405
v -0.42993164 -3.7910326 5.6093774
v -0.6894531 -0.42810974 5.3584933
v -0.69097656 -3.7910326 5.375465
v 0.50342774 -0.45549986 -2.1799426
v 0.50343746 -3.7910314 -2.1799548
v 0.8007715 -0.45549986 -2.3554688
v 0.80078125 -3.7910302 -2.355482
v 11.312793 -0.4555139 -0.86646485
v 11.312773 -3.7910314 -0.8664856
v 11.573837 -0.45551267 -0.6325622
v 11.573818 -3.7910314 -0.6325793
v 10.365742 -0.42811155 6.8621163
v 10.364238 -3.7910337 6.8790965
v -0.42842773 -0.4281079 5.592405
v -0.42993164 -3.7910326 5.6093774
v -0.6894531 -0.42810974 5.3584933
v -0.69097656 -3.7910326 5.375465
v 0.50342774 -0.45549986 -2.1799426
v 0.50343746 -3.7910314 -2.1799548
v 0.8007715 -0.45549986 -2.3554688
v 0.80078125 -3.7910302 -2.355482
v 11.312793 -0.4555139 -0.86646485
v 11.312773 -3.7910314 -0.8664856
v 11.573837 -0.45551267 -0.6325622
v 11.573818 -3.7910314 -0.6325793
v 0.8297265 -4.2182837 -2.1433325
v 11.294619 -4.232218 -0.6617651
v 0.80078125 -3.7910302 -2.355482
v 11.312773 -3.7910314 -0.8664856
v -0.35773435 -4.218286 5.277314
v 0.8297265 -4.2182837 -2.1433325
v -0.69097656 -3.7910326 5.375465
v 0.50343746 -3.7910314 -2.1799548
v 6.15458 0.24234863 10.884802
v 6.1552634 -5.376084 10.901873
v -2.901035 0.24234924 10.915236
v -2.9003613 -5.376084 10.932304
v -3.1486034 0.24234435 10.709016
v -3.147959 -5.3760853 10.726091
v -3.0025194 0.21495543 3.0713074
v -3.0025194 -5.376084 3.0712962
v -2.7711132 0.21495543 2.865626
v -2.7711132 -5.376084 2.8656201
v 6.302373 0.21494262 2.8772388
v 6.302373 -5.376084 2.877224
v 6.5499315 0.21494262 3.0834422
v 6.5499315 -5.376084 3.0834324
v 6.3860154 0.24234374 10.679118
v 6.3866796 -5.3760853 10.696189
v -2.901035 0.24234924 10.915236
v -2.9003613 -5.376084 10.932304
v -3.1486034 0.24234435 10.709016
v -3.147959 -5.3760853 10.726091
v -3.0025194 0.21495543 3.0713074
v -3.0025194 -5.376084 3.0712962
v -2.7711132 0.21495543 2.865626
v -2.7711132 -5.376084 2.8656201
v 6.302373 0.21494262 2.8772388
v 6.302373 -5.376084 2.877224
v 6.5499315 0.21494262 3.0834422
v 6.5499315 -5.376084 3.0834324
v -2.7223437 -5.803337 3.0741065
v 6.3104296 -5.8172703 3.0831714
v -2.7711132 -5.376084 2.8656201
v 6.302373 -5.376084 2.877224
v -2.8773143 -5.8033385 10.59384
v -2.7223437 -5.803337 3.0741065
v -3.147959 -5.3760853 10.726091
v -3.0025194 -5.376084 3.0712962
v 18.127777 -0.18212341 11.166399
v 18.128456 -2.431051 11.183472
v 10.161709 -0.1821228 11.196828
v 10.162393 -2.4310522 11.213906
v 9.914141 -0.1821283 10.990607
v 9.914795 -2.4310522 11.007692
v 9.800332 -0.20951721 1.909248
v 9.800332 -2.431051 1.909237
v 10.031738 -0.20951599 1.7035669
v 10.031738 -2.4310515 1.7035607
v 18.015673 -0.20952941 1.7151794
v 18.015669 -2.4310515 1.7151636
v 18.263231 -0.20953064 1.921383
v 18.263227 -2.431051 1.921372
v 18.35921 -0.1821283 10.960715
v 18.359873 -2.4310522 10.977788
v 10.161709 -0.1821228 11.196828
v 10.162393 -2.4310522 11.213906
v 9.914141 -0.1821283 10.990607
v 9.914795 -2.4310522 11.007692
v 9.800332 -0.20951721 1.909248
v 9.800332 -2.431051 1.909237
v 10.031738 -0.20951599 1.7035669
v 10.031738 -2.4310515 1.7035607
v 18.015673 -0.20952941 1.7151794
v 18.015669 -2.4310515 1.7151636
v 18.263231 -0.20953064 1.921383
v 18.263227 -2.431051 1.921372
v 10.080507 -2.8583043 1.912047
v 18.02373 -2.8722398 1.9211107
v 10.031738 -2.4310515 1.7035607
v 18.015669 -2.4310515 1.7151636
v 10.18543 -2.8583057 10.875442
v 10.080507 -2.8583043 1.912047
v 9.914795 -2.4310522 11.007692
v 9.800332 -2.431051 1.909237
v -18.416777 -1.15034 11.26278
v 18.358402 -1.1338409 11.280007
v -18.418583 -0.9488055 -11.584089
v 18.623169 -0.94989926 -11.558156
v -17.064072 -7.4832373 10.242473
v 0.7385742 -7.5514865 10.1589575
v -16.69752 -7.56426 -3.8175585
v 0.82466793 -7.6319346 -3.5383837
v -0.35773435 -4.218286 5.277314
v 10.064697 -4.21829 6.7906394
v 0.8297265 -4.2182837 -2.1433325
v 11.294619 -4.232218 -0.6617651
v -2.8773143 -5.8033385 10.59384
v 6.123203 -5.803341 10.638957
v -2.7223437 -5.803337 3.0741065
v 6.3104296 -5.8172703 3.0831714
v 10.18543 -2.8583057 10.875442
v 18.096401 -2.858308 10.920556
v 10.080507 -2.8583043 1.912047
v 18.02373 -2.8722398 1.9211107
v 18.358433 7.4734707 11.20082
v 18.752016 7.3124576 11.564111
v 18.591835 7.3076897 11.728511
v -18.416698 7.4598966 11.183594
v -18.62081 7.2868204 11.718974
v -18.785213 7.2861953 11.55873
v 18.34513 7.6319304 -11.1050205
v 18.554087 7.4795303 -11.651997
v 18.71849 7.4801774 -11.491757
v -18.430079 7.618378 -11.12225
v -18.81876 7.453954 -11.497116
v -18.658545 7.458693 -11.661509
v 0.68715817 0.78532106 9.793786
v 0.9658691 0.897807 10.056425
v 0.772373 0.9010211 10.246718
v -16.96957 0.85296386 9.871003
v -17.031748 0.63809144 10.330645
v -17.22205 0.6361407 10.137151
v 0.91707027 0.7082818 -3.342157
v 0.72753906 0.48530272 -3.7624915
v 0.99125975 0.48672608 -3.6983337
v -16.484444 0.77536434 -3.7035801
v -16.858828 0.55570614 -3.7779722
v -16.794638 0.5529486 -4.041676
v -17.031748 0.63809144 10.330645
v -16.96957 0.85296386 9.871003
v 0.772373 0.9010211 10.246718
v 0.68715817 0.78532106 9.793786
v 0.772373 0.9010211 10.246718
v -16.96957 0.85296386 9.871003
v -16.858828 0.55570614 -3.7779722
v -16.484444 0.77536434 -3.7035801
v -17.22205 0.6361407 10.137151
v -16.96957 0.85296386 9.871003
v -17.22205 0.6361407 10.137151
v -16.484444 0.77536434 -3.7035801
v 0.72753906 0.48530272 -3.7624915
v 0.91707027 0.7082818 -3.342157
v -16.794638 0.5529486 -4.041676
v -16.484444 0.77536434 -3.7035801
v -16.794638 0.5529486 -4.041676
v 0.91707027 0.7082818 -3.342157
v 0.9658691 0.897807 10.056425
v 0.68715817 0.78532106 9.793786
v 0.99125975 0.48672608 -3.6983337
v 0.91707027 0.7082818 -3.342157
v 0.99125975 0.48672608 -3.6983337
v 0.68715817 0.78532106 9.793786
v 1.1554785 0.09574951 -3.7948534
v 0.9658691 0.897807 10.056425
v -17.034824 0.25033996 10.526452
v -17.031748 0.63809144 10.330645
v 0.76783204 0.1821051 10.442956
v 0.772373 0.9010211 10.246718
v 0.76783204 0.1821051 10.442956
v -17.031748 0.63809144 10.330645
v -17.02249 0.1660089 -3.6749644
v -16.858828 0.55570614 -3.7779722
v -17.41543 0.24644287 10.139436
v -17.22205 0.6361407 10.137151
v -17.41543 0.24644287 10.139436
v -16.858828 0.55570614 -3.7779722
v 1.1548632 0.17565979 10.062358
v 0.9658691 0.897807 10.056425
v 1.1554785 0.09574951 -3.7948534
v 10.066211 0.15449585 6.773926
v 10.226142 -0.10872192 6.8475266
v 10.07748 -0.10872314 6.9352927
v -0.3562695 0.15449646 5.2606077
v -0.41936523 -0.108720094 5.4900465
v -0.54987305 -0.108720094 5.3730893
v 11.294629 0.117045894 -0.66175413
v 11.3037 -0.108704835 -0.76411134
v 11.434238 -0.10870361 -0.64716554
v 0.8284375 0.13223937 -2.1263745
v 0.6430273 -0.108703 -2.1653466
v 0.79170895 -0.108688354 -2.2531104
v -0.41936523 -0.108720094 5.4900465
v -0.3562695 0.15449646 5.2606077
v 10.07748 -0.10872314 6.9352927
v 10.066211 0.15449585 6.773926
v 10.07748 -0.10872314 6.9352927
v -0.3562695 0.15449646 5.2606077
v 0.6430273 -0.108703 -2.1653466
v 0.8284375 0.13223937 -2.1263745
v -0.54987305 -0.108720094 5.3730893
v -0.3562695 0.15449646 5.2606077
v -0.54987305 -0.108720094 5.3730893
v 0.8284375 0.13223937 -2.1263745
v 6.1225586 0.8249512 10.622136
v 6.2662597 0.56173337 10.678991
v 6.150566 0.56173337 10.781828
v -2.8779979 0.8249512 10.577028
v -2.9050782 0.561734 10.812263
v -3.0288768 0.561734 10.709152
v 6.310439 0.7875012 3.08318
v 6.306416 0.5617517 2.9802086
v 6.4301953 0.5617517 3.0833044
v -2.7215037 0.8026941 3.0911388
v -2.8827832 0.5617523 3.071439
v -2.7670898 0.561767 2.9685974
v -2.9050782 0.561734 10.812263
v -2.8779979 0.8249512 10.577028
v 6.150566 0.56173337 10.781828
v 6.1225586 0.8249512 10.622136
v 6.150566 0.56173337 10.781828
v -2.8779979 0.8249512 10.577028
v -2.8827832 0.5617523 3.071439
v -2.7215037 0.8026941 3.0911388
v -3.0288768 0.561734 10.709152
v -2.8779979 0.8249512 10.577028
v -3.0288768 0.561734 10.709152
v -2.7215037 0.8026941 3.0911388
v 18.095757 0.4004785 10.90374
v 18.239452 0.13726074 10.960595
v 18.123764 0.13726135 11.063433
v 10.184746 0.4004785 10.858633
v 10.157666 0.13726196 11.093862
v 10.033867 0.13726135 10.990751
v 18.02374 0.36302796 1.9211205
v 18.019712 0.13727966 1.8181493
v 18.143496 0.13727844 1.9212451
v 10.081347 0.37822083 1.9290795
v 9.920068 0.13727966 1.9093798
v 10.035762 0.13729553 1.8065381
v 10.157666 0.13726196 11.093862
v 10.184746 0.4004785 10.858633
v 18.123764 0.13726135 11.063433
v 18.095757 0.4004785 10.90374
v 18.123764 0.13726135 11.063433
v 10.184746 0.4004785 10.858633
v 9.920068 0.13727966 1.9093798
v 10.081347 0.37822083 1.9290795
v 10.033867 0.13726135 10.990751
v 10.184746 0.4004785 10.858633
v 10.033867 0.13726135 10.990751
v 10.081347 0.37822083 1.9290795
v 18.598505 7.001528 11.88001
v 18.591835 7.3076897 11.728511
v 18.918955 7.0110354 11.551215
v 18.752016 7.3124576 11.564111
v -18.942987 6.9793863 11.54998
v -18.785213 7.2861953 11.55873
v -18.61414 6.980651 11.870479
v -18.62081 7.2868204 11.718974
v 18.88537 7.1787786 -11.504636
v 18.71849 7.4801774 -11.491757
v 18.556553 7.1775384 -11.825127
v 18.554087 7.4795303 -11.651997
v -18.656094 7.1566315 -11.834651
v -18.658545 7.458693 -11.661509
v -18.976522 7.147154 -11.505864
v -18.81876 7.453954 -11.497116
v -18.62081 7.2868204 11.718974
v -18.416698 7.4598966 11.183594
v 18.591835 7.3076897 11.728511
v 18.358433 7.4734707 11.20082
v -18.81876 7.453954 -11.497116
v -18.430079 7.618378 -11.12225
v -18.785213 7.2861953 11.55873
v -18.416698 7.4598966 11.183594
v 18.554087 7.4795303 -11.651997
v 18.34513 7.6319304 -11.1050205
v -18.658545 7.458693 -11.661509
v -18.430079 7.618378 -11.12225
v 18.752016 7.3124576 11.564111
v 18.358433 7.4734707 11.20082
v 18.71849 7.4801774 -11.491757
v 18.34513 7.6319304 -11.1050205
v -18.61414 6.980651 11.870479
v -18.62081 7.2868204 11.718974
v 18.598505 7.001528 11.88001
v 18.591835 7.3076897 11.728511
v -18.976522 7.147154 -11.505864
v -18.81876 7.453954 -11.497116
v -18.942987 6.9793863 11.54998
v -18.785213 7.2861953 11.55873
v 18.556553 7.1775384 -11.825127
v 18.554087 7.4795303 -11.651997
v -18.656094 7.1566315 -11.834651
v -18.658545 7.458693 -11.661509
v 18.918955 7.0110354 11.551215
v 18.752016 7.3124576 11.564111
v 18.88537 7.1787786 -11.504636
v 18.71849 7.4801774 -11.491757
v 0.76783204 0.1821051 10.442956
v 0.772373 0.9010211 10.246718
v 1.1548632 0.17565979 10.062358
v 0.9658691 0.897807 10.056425
v -17.41543 0.24644287 10.139436
v -17.22205 0.6361407 10.137151
v -17.034824 0.25033996 10.526452
v -17.031748 0.63809144 10.330645
v 1.1554785 0.09574951 -3.7948534
v 0.99125975 0.48672608 -3.6983337
v 0.6280664 0.092854 -3.9231846
v 0.72753906 0.48530272 -3.7624915
v -16.894121 0.16052002 -4.202367
v -16.794638 0.5529486 -4.041676
v -17.02249 0.1660089 -3.6749644
v -16.858828 0.55570614 -3.7779722
v 0.6280664 0.092854 -3.9231846
v 0.72753906 0.48530272 -3.7624915
v -16.894121 0.16052002 -4.202367
v -16.794638 0.5529486 -4.041676
v 10.068378 -0.4281079 7.0376534
v 10.07748 -0.10872314 6.9352927
v 10.365742 -0.42811155 6.8621163
v 10.226142 -0.10872192 6.8475266
v -0.6894531 -0.42810974 5.3584933
v -0.54987305 -0.108720094 5.3730893
v -0.42842773 -0.4281079 5.592405
v -0.41936523 -0.108720094 5.4900465
v 11.573837 -0.45551267 -0.6325622
v 11.434238 -0.10870361 -0.64716554
v 11.312793 -0.4555139 -0.86646485
v 11.3037 -0.108704835 -0.76411134
v 0.8007715 -0.45549986 -2.3554688
v 0.79170895 -0.108688354 -2.2531104
v 0.50342774 -0.45549986 -2.1799426
v 0.6430273 -0.108703 -2.1653466
v 11.3037 -0.108704835 -0.76411134
v 11.294629 0.117045894 -0.66175413
v 0.79170895 -0.108688354 -2.2531104
v 0.8284375 0.13223937 -2.1263745
v 10.226142 -0.10872192 6.8475266
v 10.066211 0.15449585 6.773926
v 11.434238 -0.10870361 -0.64716554
v 11.294629 0.117045894 -0.66175413
v -0.42842773 -0.4281079 5.592405
v -0.41936523 -0.108720094 5.4900465
v 10.068378 -0.4281079 7.0376534
v 10.07748 -0.10872314 6.9352927
v 0.50342774 -0.45549986 -2.1799426
v 0.6430273 -0.108703 -2.1653466
v -0.6894531 -0.42810974 5.3584933
v -0.54987305 -0.108720094 5.3730893
v 11.312793 -0.4555139 -0.86646485
v 11.3037 -0.108704835 -0.76411134
v 0.8007715 -0.45549986 -2.3554688
v 0.79170895 -0.108688354 -2.2531104
v 10.365742 -0.42811155 6.8621163
v 10.226142 -0.10872192 6.8475266
v 11.573837 -0.45551267 -0.6325622
v 11.434238 -0.10870361 -0.64716554
v 6.15458 0.24234863 10.884802
v 6.150566 0.56173337 10.781828
v 6.3860154 0.24234374 10.679118
v 6.2662597 0.56173337 10.678991
v -3.1486034 0.24234435 10.709016
v -3.0288768 0.561734 10.709152
v -2.901035 0.24234924 10.915236
v -2.9050782 0.561734 10.812263
v 6.5499315 0.21494262 3.0834422
v 6.4301953 0.5617517 3.0833044
v 6.302373 0.21494262 2.8772388
v 6.306416 0.5617517 2.9802086
v -2.7711132 0.21495543 2.865626
v -2.7670898 0.561767 2.9685974
v -3.0025194 0.21495543 3.0713074
v -2.8827832 0.5617523 3.071439
v 6.306416 0.5617517 2.9802086
v 6.310439 0.7875012 3.08318
v -2.7670898 0.561767 2.9685974
v -2.7215037 0.8026941 3.0911388
v 6.2662597 0.56173337 10.678991
v 6.1225586 0.8249512 10.622136
v 6.4301953 0.5617517 3.0833044
v 6.310439 0.7875012 3.08318
v -2.901035 0.24234924 10.915236
v -2.9050782 0.561734 10.812263
v 6.15458 0.24234863 10.884802
v 6.150566 0.56173337 10.781828
v -3.0025194 0.21495543 3.0713074
v -2.8827832 0.5617523 3.071439
v -3.1486034 0.24234435 10.709016
v -3.0288768 0.561734 10.709152
v 6.302373 0.21494262 2.8772388
v 6.306416 0.5617517 2.9802086
v -2.7711132 0.21495543 2.865626
v -2.7670898 0.561767 2.9685974
v 6.3860154 0.24234374 10.679118
v 6.2662597 0.56173337 10.678991
v 6.5499315 0.21494262 3.0834422
v 6.4301953 0.5617517 3.0833044
v 18.127777 -0.18212341 11.166399
v 18.123764 0.13726135 11.063433
v 18.35921 -0.1821283 10.960715
v 18.239452 0.13726074 10.960595
v 9.914141 -0.1821283 10.990607
v 10.033867 0.13726135 10.990751
v 10.161709 -0.1821228 11.196828
v 10.157666 0.13726196 11.093862
v 18.263231 -0.20953064 1.921383
v 18.143496 0.13727844 1.9212451
v 18.015673 -0.20952941 1.7151794
v 18.019712 0.13727966 1.8181493
v 10.031738 -0.20951599 1.7035669
v 10.035762 0.13729553 1.8065381
v 9.800332 -0.20951721 1.909248
v 9.920068 0.13727966 1.9093798
v 18.019712 0.13727966 1.8181493
v 18.02374 0.36302796 1.9211205
v 10.035762 0.13729553 1.8065381
v 10.081347 0.37822083 1.9290795
v 18.239452 0.13726074 10.960595
v 18.095757 0.4004785 10.90374
v 18.143496 0.13727844 1.9212451
v 18.02374 0.36302796 1.9211205
v 10.161709 -0.1821228 11.196828
v 10.157666 0.13726196 11.093862
v 18.127777 -0.18212341 11.166399
v 18.123764 0.13726135 11.063433
v 9.800332 -0.20951721 1.909248
v 9.920068 0.13727966 1.9093798
v 9.914141 -0.1821283 10.990607
v 10.033867 0.13726135 10.990751
v 18.015673 -0.20952941 1.7151794
v 18.019712 0.13727966 1.8181493
v 10.031738 -0.20951599 1.7035669
v 10.035762 0.13729553 1.8065381
v 18.35921 -0.1821283 10.960715
v 18.239452 0.13726074 10.960595
v 18.263231 -0.20953064 1.921383
v 18.143496 0.13727844 1.9212451
v 18.34513 7.6319304 -11.1050205
v 18.358433 7.4734707 11.20082
v -18.430079 7.618378 -11.12225
v -18.416698 7.4598966 11.183594
v 0.91707027 0.7082818 -3.342157
v 0.68715817 0.78532106 9.793786
v -16.484444 0.77536434 -3.7035801
v -16.96957 0.85296386 9.871003
v 11.294629 0.117045894 -0.66175413
v 10.066211 0.15449585 6.773926
v 0.8284375 0.13223937 -2.1263745
v -0.3562695 0.15449646 5.2606077
v 6.310439 0.7875012 3.08318
v 6.1225586 0.8249512 10.622136
v -2.7215037 0.8026941 3.0911388
v -2.8779979 0.8249512 10.577028
v 18.02374 0.36302796 1.9211205
v 18.095757 0.4004785 10.90374
v 10.081347 0.37822083 1.9290795
v 10.184746 0.4004785 10.858633
vt -36.0625 4.1289062
vt -36.0625 5.3476562
vt -36 4.1484375
vt -36 5.3476562
vt -36 4.1484375
vt -36.0625 5.3476562
vt -26.53125 5.4804688
vt -26.53125 4.28125
vt -26.59375 5.4804688
vt -26.578125 4.2773438
vt -26.59375 5.4804688
vt -26.53125 4.28125
vt -36 4.1484375
vt -35.9375 4.0429688
vt -36.0625 4.1289062
vt -22.953125 4.2460938
vt -22.921875 4.25
vt -22.953125 4.1445312
vt -32.34375 4.171875
vt -32.375 4.0898438
vt -32.40625 4.1679688
vt -26.578125 4.2773438
vt -26.53125 4.28125
vt -26.5625 4.1914062
vt -32.375 4.0898438
vt -35.9375 4.0429688
vt -32.40625 4.1679688
vt -36 4.1484375
vt -32.40625 4.1679688
vt -35.9375 4.0429688
vt -15.2578125 3.4257812
vt -15.2578125 3.359375
vt -15.3359375 3.4101562
vt -8.0859375 3.4726562
vt -8.0234375 3.4726562
vt -8.0546875 3.40625
vt -13.03125 3.4121094
vt -13.078125 3.3496094
vt -13.1015625 3.4140625
vt -10.3046875 3.4667969
vt -10.2421875 3.4609375
vt -10.2890625 3.4023438
vt -13.078125 3.3496094
vt -15.2578125 3.359375
vt -13.1015625 3.4140625
vt -15.2578125 3.4257812
vt -13.1015625 3.4140625
vt -15.2578125 3.359375
vt -8.0546875 3.40625
vt -10.2890625 3.4023438
vt -8.0859375 3.4726562
vt -10.2421875 3.4609375
vt -8.0859375 3.4726562
vt -10.2890625 3.4023438
vt -11.203125 9.6640625
vt -11.21875 10.1953125
vt -11.15625 9.6796875
vt -11.15625 10.203125
vt -11.15625 9.6796875
vt -11.21875 10.1953125
vt -11.15625 9.6796875
vt -11.1484375 9.6015625
vt -11.203125 9.6640625
vt -7.0742188 9.7109375
vt -7.0390625 9.703125
vt -7.0664062 9.625
vt -9.9296875 9.6796875
vt -9.9453125 9.6015625
vt -9.9765625 9.6796875
vt -8.2890625 9.703125
vt -8.25 9.7109375
vt -8.2734375 9.625
vt -9.9453125 9.6015625
vt -11.1484375 9.6015625
vt -9.9765625 9.6796875
vt -11.15625 9.6796875
vt -9.9765625 9.6796875
vt -11.1484375 9.6015625
vt -5.4179688 9.5703125
vt -7.0664062 9.625
vt -5.4023438 9.6484375
vt -7.0390625 9.703125
vt -5.4023438 9.6484375
vt -7.0664062 9.625
vt -11.0859375 5.453125
vt -11.09375 6.3320312
vt -11.046875 5.4609375
vt -11.046875 6.3359375
vt -11.046875 5.4609375
vt -11.09375 6.3320312
vt -11.046875 5.4609375
vt -11.03125 5.3828125
vt -11.0859375 5.453125
vt -7.1914062 5.4726562
vt -7.1601562 5.4726562
vt -7.1835938 5.390625
vt -9.8203125 5.4609375
vt -9.828125 5.3828125
vt -9.859375 5.4609375
vt -8.4140625 5.46875
vt -8.375 5.4726562
vt -8.390625 5.3945312
vt -9.828125 5.3828125
vt -11.03125 5.3828125
vt -9.859375 5.4609375
vt -11.046875 5.4609375
vt -9.859375 5.4609375
vt -11.03125 5.3828125
vt -5.7773438 5.3320312
vt -7.1835938 5.390625
vt -5.7617188 5.4101562
vt -7.1601562 5.4726562
vt -5.7617188 5.4101562
vt -7.1835938 5.390625
vt -11.203125 7.90625
vt -11.21875 8.2578125
vt -11.1640625 7.9140625
vt -11.1640625 8.265625
vt -11.1640625 7.9140625
vt -11.21875 8.2578125
vt -11.1640625 7.9140625
vt -11.1484375 7.8398438
vt -11.203125 7.90625
vt -7.03125 7.9335938
vt -6.9960938 7.9335938
vt -7.0234375 7.8515625
vt -9.7109375 7.9140625
vt -9.7265625 7.8398438
vt -9.75 7.9140625
vt -8.4765625 7.9296875
vt -8.4375 7.9335938
vt -8.453125 7.8554688
vt -9.7265625 7.8398438
vt -11.1484375 7.8398438
vt -9.75 7.9140625
vt -11.1640625 7.9140625
vt -9.75 7.9140625
vt -11.1484375 7.8398438
vt -5.7890625 7.7539062
vt -7.0234375 7.8515625
vt -5.7695312 7.8320312
vt -6.9960938 7.9335938
vt -5.7695312 7.8320312
vt -7.0234375 7.8515625
vt -17.140625 5.4570312
vt -17.140625 4.2539062
vt -22.9375 5.4570312
vt -22.921875 4.25
vt -22.96875 5.4570312
vt -22.953125 4.2460938
vt -26.53125 5.4804688
vt -26.53125 4.28125
vt -26.59375 5.4804688
vt -26.578125 4.2773438
vt -32.375 5.3710938
vt -32.34375 4.171875
vt -32.40625 5.3710938
vt -32.40625 4.1679688
vt -36 5.3476562
vt -36 4.1484375
vt -22.9375 5.4570312
vt -22.921875 4.25
vt -22.96875 5.4570312
vt -22.953125 4.2460938
vt -32.375 5.3710938
vt -32.34375 4.171875
vt -32.40625 5.3710938
vt -32.40625 4.1679688
vt -26.5625 4.1914062
vt -32.375 4.0898438
vt -26.578125 4.2773438
vt -32.34375 4.171875
vt -22.953125 4.1445312
vt -26.5625 4.1914062
vt -22.953125 4.2460938
vt -26.53125 4.28125
vt -17.203125 4.1484375
vt -22.953125 4.1445312
vt -17.140625 4.2539062
vt -22.921875 4.25
vt -5.25 4.6210938
vt -5.2617188 3.4609375
vt -8.0234375 4.6367188
vt -8.0234375 3.4726562
vt -8.1015625 4.6367188
vt -8.0859375 3.4726562
vt -10.25 4.625
vt -10.2421875 3.4609375
vt -10.328125 4.625
vt -10.3046875 3.4667969
vt -13.046875 4.578125
vt -13.03125 3.4121094
vt -13.109375 4.578125
vt -13.1015625 3.4140625
vt -15.2578125 4.5898438
vt -15.2578125 3.4257812
vt -8.0234375 4.6367188
vt -8.0234375 3.4726562
vt -8.1015625 4.6367188
vt -8.0859375 3.4726562
vt -15.3359375 3.4101562
vt -15.34375 4.5859375
vt -15.2578125 3.4257812
vt -15.2578125 4.5898438
vt -10.25 4.625
vt -10.2421875 3.4609375
vt -10.328125 4.625
vt -10.3046875 3.4667969
vt -13.046875 4.578125
vt -13.03125 3.4121094
vt -13.109375 4.578125
vt -13.1015625 3.4140625
vt -10.2890625 3.4023438
vt -13.078125 3.3496094
vt -10.3046875 3.4667969
vt -13.03125 3.4121094
vt -5.2695312 3.390625
vt -8.0546875 3.40625
vt -5.2617188 3.4609375
vt -8.0234375 3.4726562
vt -5.3789062 10.1640625
vt -5.4023438 9.6484375
vt -7.0273438 10.2265625
vt -7.0390625 9.703125
vt -7.078125 10.234375
vt -7.0742188 9.7109375
vt -8.2578125 10.2265625
vt -8.25 9.7109375
vt -8.3046875 10.2265625
vt -8.2890625 9.703125
vt -9.9453125 10.1953125
vt -9.9296875 9.6796875
vt -9.984375 10.1953125
vt -9.9765625 9.6796875
vt -11.15625 10.203125
vt -11.15625 9.6796875
vt -7.0273438 10.2265625
vt -7.0390625 9.703125
vt -7.078125 10.234375
vt -7.0742188 9.7109375
vt -8.2578125 10.2265625
vt -8.25 9.7109375
vt -8.3046875 10.2265625
vt -8.2890625 9.703125
vt -9.9453125 10.1953125
vt -9.9296875 9.6796875
vt -9.984375 10.1953125
vt -9.9765625 9.6796875
vt -8.2734375 9.625
vt -9.9453125 9.6015625
vt -8.2890625 9.703125
vt -9.9296875 9.6796875
vt -7.0664062 9.625
vt -8.2734375 9.625
vt -7.0742188 9.7109375
vt -8.25 9.7109375
vt -5.7226562 6.28125
vt -5.7617188 5.4101562
vt -7.1328125 6.34375
vt -7.1601562 5.4726562
vt -7.1875 6.3476562
vt -7.1914062 5.4726562
vt -8.375 6.34375
vt -8.375 5.4726562
vt -8.421875 6.3398438
vt -8.4140625 5.46875
vt -9.828125 6.3320312
vt -9.8203125 5.4609375
vt -9.8671875 6.3320312
vt -9.859375 5.4609375
vt -11.046875 6.3359375
vt -11.046875 5.4609375
vt -7.1328125 6.34375
vt -7.1601562 5.4726562
vt -7.1875 6.3476562
vt -7.1914062 5.4726562
vt -8.375 6.34375
vt -8.375 5.4726562
vt -8.421875 6.3398438
vt -8.4140625 5.46875
vt -9.828125 6.3320312
vt -9.8203125 5.4609375
vt -9.8671875 6.3320312
vt -9.859375 5.4609375
vt -8.390625 5.3945312
vt -9.828125 5.3828125
vt -8.4140625 5.46875
vt -9.8203125 5.4609375
vt -7.1835938 5.390625
vt -8.390625 5.3945312
vt -7.1914062 5.4726562
vt -8.375 5.4726562
vt -5.7382812 8.1796875
vt -5.7695312 7.8320312
vt -6.9765625 8.28125
vt -6.9960938 7.9335938
vt -7.0273438 8.28125
vt -7.03125 7.9335938
vt -8.4375 8.28125
vt -8.4375 7.9335938
vt -8.484375 8.2734375
vt -8.4765625 7.9296875
vt -9.71875 8.2578125
vt -9.7109375 7.9140625
vt -9.765625 8.2578125
vt -9.75 7.9140625
vt -11.1640625 8.265625
vt -11.1640625 7.9140625
vt -6.9765625 8.28125
vt -6.9960938 7.9335938
vt -7.0273438 8.28125
vt -7.03125 7.9335938
vt -8.4375 8.28125
vt -8.4375 7.9335938
vt -8.484375 8.2734375
vt -8.4765625 7.9296875
vt -9.71875 8.2578125
vt -9.7109375 7.9140625
vt -9.765625 8.2578125
vt -9.75 7.9140625
vt -8.453125 7.8554688
vt -9.7265625 7.8398438
vt -8.4765625 7.9296875
vt -9.7109375 7.9140625
vt -7.0234375 7.8515625
vt -8.453125 7.8554688
vt -7.03125 7.9335938
vt -8.4375 7.9335938
vt 11.8203125 -12.546875
vt 16.9375 -12.5390625
vt 11.8203125 -15.71875
vt 16.984375 -15.7109375
vt 20.03125 -8.2890625
vt 19.9375 -11.28125
vt 17.65625 -8.2265625
vt 17.625 -11.234375
vt 8.765625 -4.921875
vt 8.796875 -6.21875
vt 7.5039062 -4.9492188
vt 7.5273438 -6.2460938
vt 5.8984375 -4.546875
vt 5.9179688 -6.0585938
vt 4.6367188 -4.5820312
vt 4.6523438 -6.0976562
vt 5.7460938 -7.8632812
vt 5.7890625 -9.1953125
vt 4.2421875 -7.8867188
vt 4.2773438 -9.21875
vt 0.19628906 0.9663086
vt 0.17993164 0.6142578
vt 0.037200928 0.6142578
vt 0.19628906 0.9663086
vt 0.17993164 0.6142578
vt 0.037200928 0.6142578
vt 0.19628906 0.9663086
vt 0.17993164 0.6142578
vt 0.037200928 0.6142578
vt 0.19628906 0.9663086
vt 0.17993164 0.6142578
vt 0.037200928 0.6142578
vt 0.19628906 0.9628906
vt 0.17993164 0.6142578
vt 0.037200928 0.6142578
vt 0.19628906 0.9628906
vt 0.17993164 0.6142578
vt 0.037200928 0.6142578
vt 0.19628906 0.9628906
vt 0.17993164 0.6142578
vt 0.037200928 0.6142578
vt 0.19628906 0.9628906
vt 0.17993164 0.6142578
vt 0.037200928 0.6142578
vt 0.17993164 0.6142578
vt 0.19628906 0.9628906
vt 0.82910156 0.6142578
vt 0.82910156 0.9628906
vt 0.82910156 0.6142578
vt 0.19628906 0.9628906
vt 0.17993164 0.6142578
vt 0.19628906 0.9628906
vt 0.82910156 0.6142578
vt 0.82910156 0.9628906
vt 0.82910156 0.6142578
vt 0.19628906 0.9628906
vt 0.17993164 0.6142578
vt 0.19628906 0.9628906
vt 0.82910156 0.6142578
vt 0.82910156 0.9628906
vt 0.82910156 0.6142578
vt 0.19628906 0.9628906
vt 0.17993164 0.6142578
vt 0.19628906 0.9628906
vt 0.82910156 0.6142578
vt 0.82910156 0.9628906
vt 0.82910156 0.6142578
vt 0.19628906 0.9628906
vt 0.82910156 0.01386261
vt 0.17993164 0.6142578
vt 0.17443848 0.01386261
vt 0.17993164 0.6142578
vt 0.82910156 0.01386261
vt 0.82910156 0.6142578
vt 0.82910156 0.01386261
vt 0.17993164 0.6142578
vt 0.17443848 0.01386261
vt 0.17993164 0.6142578
vt 0.82910156 0.01386261
vt 0.82910156 0.6142578
vt 0.82910156 0.01386261
vt 0.17993164 0.6142578
vt 0.14440918 0.01386261
vt 0.17993164 0.6142578
vt 0.82910156 0.01386261
vt 0.19628906 0.9628906
vt 0.17993164 0.6142578
vt 0.037200928 0.6142578
vt 0.19628906 0.9628906
vt 0.17993164 0.6142578
vt 0.037200928 0.6142578
vt 0.19628906 0.9628906
vt 0.17993164 0.6142578
vt 0.037200928 0.6142578
vt 0.19628906 0.9628906
vt 0.17993164 0.6142578
vt 0.037200928 0.6142578
vt 0.17993164 0.6142578
vt 0.19628906 0.9628906
vt 0.82910156 0.6142578
vt 0.82910156 0.9628906
vt 0.82910156 0.6142578
vt 0.19628906 0.9628906
vt 0.17993164 0.6142578
vt 0.19628906 0.9628906
vt 0.82910156 0.6142578
vt 0.82910156 0.9628906
vt 0.82910156 0.6142578
vt 0.19628906 0.9628906
vt 0.19628906 0.9628906
vt 0.17993164 0.6142578
vt 0.037200928 0.6142578
vt 0.19628906 0.9628906
vt 0.17993164 0.6142578
vt 0.037200928 0.6142578
vt 0.19628906 0.9628906
vt 0.17993164 0.6142578
vt 0.037200928 0.6142578
vt 0.19628906 0.9628906
vt 0.17993164 0.6142578
vt 0.037200928 0.6142578
vt 0.17993164 0.6142578
vt 0.19628906 0.9628906
vt 0.82910156 0.6142578
vt 0.82910156 0.9628906
vt 0.82910156 0.6142578
vt 0.19628906 0.9628906
vt 0.17993164 0.6142578
vt 0.19628906 0.9628906
vt 0.82910156 0.6142578
vt 0.82910156 0.9628906
vt 0.82910156 0.6142578
vt 0.19628906 0.9628906
vt 0.19628906 0.9628906
vt 0.17993164 0.6142578
vt 0.037200928 0.6142578
vt 0.19628906 0.9628906
vt 0.17993164 0.6142578
vt 0.037200928 0.6142578
vt 0.19628906 0.9628906
vt 0.17993164 0.6142578
vt 0.037200928 0.6142578
vt 0.19628906 0.9628906
vt 0.17993164 0.6142578
vt 0.037200928 0.6142578
vt 0.17993164 0.6142578
vt 0.19628906 0.9628906
vt 0.82910156 0.6142578
vt 0.82910156 0.9628906
vt 0.82910156 0.6142578
vt 0.19628906 0.9628906
vt 0.17993164 0.6142578
vt 0.19628906 0.9628906
vt 0.82910156 0.6142578
vt 0.82910156 0.9628906
vt 0.82910156 0.6142578
vt 0.19628906 0.9628906
vt 0.03262329 0.01386261
vt 0.037200928 0.6142578
vt 0.17443848 0.01386261
vt 0.17993164 0.6142578
vt 0.03262329 0.01386261
vt 0.037200928 0.6142578
vt 0.17443848 0.01386261
vt 0.17993164 0.6142578
vt 0.03262329 0.01386261
vt 0.037200928 0.6142578
vt 0.17443848 0.01386261
vt 0.17993164 0.6142578
vt 0.03262329 0.01386261
vt 0.037200928 0.6142578
vt 0.17443848 0.01386261
vt 0.17993164 0.6142578
vt 0.17993164 0.6142578
vt 0.19628906 0.9663086
vt 0.82910156 0.6142578
vt 0.82910156 0.9663086
vt 0.17993164 0.6142578
vt 0.19628906 0.9663086
vt 0.82910156 0.6142578
vt 0.82910156 0.9663086
vt 0.17993164 0.6142578
vt 0.19628906 0.9663086
vt 0.82910156 0.6142578
vt 0.82910156 0.9663086
vt 0.17993164 0.6142578
vt 0.19628906 0.9663086
vt 0.82910156 0.6142578
vt 0.82910156 0.9663086
vt 0.17443848 0.01386261
vt 0.17993164 0.6142578
vt 0.82910156 0.01386261
vt 0.82910156 0.6142578
vt 0.17443848 0.01386261
vt 0.17993164 0.6142578
vt 0.82910156 0.01386261
vt 0.82910156 0.6142578
vt 0.17443848 0.01386261
vt 0.17993164 0.6142578
vt 0.82910156 0.01386261
vt 0.82910156 0.6142578
vt 0.17443848 0.01386261
vt 0.17993164 0.6142578
vt 0.82910156 0.01386261
vt 0.82910156 0.6142578
vt 0.03262329 0.01386261
vt 0.037200928 0.6142578
vt 0.14440918 0.01386261
vt 0.17993164 0.6142578
vt 0.03262329 0.01386261
vt 0.037200928 0.6142578
vt 0.17443848 0.01386261
vt 0.17993164 0.6142578
vt 0.03262329 0.01386261
vt 0.037200928 0.6142578
vt 0.14440918 0.01386261
vt 0.17993164 0.6142578
vt 0.03262329 0.01386261
vt 0.037200928 0.6142578
vt 0.17443848 0.01386261
vt 0.17993164 0.6142578
vt 0.14440918 0.01386261
vt 0.17993164 0.6142578
vt 0.82910156 0.01386261
vt 0.82910156 0.6142578
vt 0.03262329 0.01386261
vt 0.037200928 0.6142578
vt 0.17443848 0.01386261
vt 0.17993164 0.6142578
vt 0.03262329 0.01386261
vt 0.037200928 0.6142578
vt 0.1472168 0.01386261
vt 0.17993164 0.6142578
vt 0.03262329 0.01386261
vt 0.037200928 0.6142578
vt 0.1472168 0.01386261
vt 0.17993164 0.6142578
vt 0.03262329 0.01386261
vt 0.037200928 0.6142578
vt 0.1472168 0.01386261
vt 0.17993164 0.6142578
vt 0.17993164 0.6142578
vt 0.19628906 0.9628906
vt 0.82910156 0.6142578
vt 0.82910156 0.9628906
vt 0.17993164 0.6142578
vt 0.19628906 0.9628906
vt 0.82910156 0.6142578
vt 0.82910156 0.9628906
vt 0.1472168 0.01386261
vt 0.17993164 0.6142578
vt 0.82910156 0.01386261
vt 0.82910156 0.6142578
vt 0.1472168 0.01386261
vt 0.17993164 0.6142578
vt 0.82910156 0.01386261
vt 0.82910156 0.6142578
vt 0.1472168 0.01386261
vt 0.17993164 0.6142578
vt 0.82910156 0.01386261
vt 0.82910156 0.6142578
vt 0.17443848 0.01386261
vt 0.17993164 0.6142578
vt 0.82910156 0.01386261
vt 0.82910156 0.6142578
vt 0.03262329 0.01386261
vt 0.037200928 0.6142578
vt 0.17443848 0.01386261
vt 0.17993164 0.6142578
vt 0.03262329 0.01386261
vt 0.037200928 0.6142578
vt 0.1472168 0.01386261
vt 0.17993164 0.6142578
vt 0.03262329 0.01386261
vt 0.037200928 0.6142578
vt 0.1472168 0.01386261
vt 0.17993164 0.6142578
vt 0.03262329 0.01386261
vt 0.037200928 0.6142578
vt 0.1472168 0.01386261
vt 0.17993164 0.6142578
vt 0.17993164 0.6142578
vt 0.19628906 0.9628906
vt 0.82910156 0.6142578
vt 0.82910156 0.9628906
vt 0.17993164 0.6142578
vt 0.19628906 0.9628906
vt 0.82910156 0.6142578
vt 0.82910156 0.9628906
vt 0.1472168 0.01386261
vt 0.17993164 0.6142578
vt 0.82910156 0.01386261
vt 0.82910156 0.6142578
vt 0.1472168 0.01386261
vt 0.17993164 0.6142578
vt 0.82910156 0.01386261
vt 0.82910156 0.6142578
vt 0.1472168 0.01386261
vt 0.17993164 0.6142578
vt 0.82910156 0.01386261
vt 0.82910156 0.6142578
vt 0.17443848 0.01386261
vt 0.17993164 0.6142578
vt 0.82910156 0.01386261
vt 0.82910156 0.6142578
vt 0.03262329 0.01386261
vt 0.037200928 0.6142578
vt 0.17443848 0.01386261
vt 0.17993164 0.6142578
vt 0.03262329 0.01386261
vt 0.037200928 0.6142578
vt 0.1472168 0.01386261
vt 0.17993164 0.6142578
vt 0.03262329 0.01386261
vt 0.037200928 0.6142578
vt 0.1472168 0.01386261
vt 0.17993164 0.6142578
vt 0.03262329 0.01386261
vt 0.037200928 0.6142578
vt 0.1472168 0.01386261
vt 0.17993164 0.6142578
vt 0.17993164 0.6142578
vt 0.19628906 0.9628906
vt 0.82910156 0.6142578
vt 0.82910156 0.9628906
vt 0.17993164 0.6142578
vt 0.19628906 0.9628906
vt 0.82910156 0.6142578
vt 0.82910156 0.9628906
vt 0.1472168 0.01386261
vt 0.17993164 0.6142578
vt 0.82910156 0.01386261
vt 0.82910156 0.6142578
vt 0.1472168 0.01386261
vt 0.17993164 0.6142578
vt 0.82910156 0.01386261
vt 0.82910156 0.6142578
vt 0.1472168 0.01386261
vt 0.17993164 0.6142578
vt 0.82910156 0.01386261
vt 0.82910156 0.6142578
vt 0.17443848 0.01386261
vt 0.17993164 0.6142578
vt 0.82910156 0.01386261
vt 0.82910156 0.6142578
vt 23.375 7.6484375
vt 20.28125 7.6367188
vt 23.359375 12.765625
vt 20.265625 12.7578125
vt 19.578125 7.0585938
vt 17.375 7.1171875
vt 19.671875 10.0390625
vt 17.390625 10.078125
vt 13.6015625 18.75
vt 12.3359375 18.765625
vt 13.609375 20.046875
vt 12.3515625 20.0625
vt 13.7578125 15.5859375
vt 12.4921875 15.6171875
vt 13.75 17.109375
vt 12.4921875 17.125
vt 13.921875 13.75
vt 12.4140625 13.765625
vt 13.9453125 15.0859375
vt 12.4453125 15.09375
vn 0.7163086 0.003665924 0.6982422
vn 0.7163086 0.003665924 0.6982422
vn 0.7163086 0.003665924 0.6982422
vn 0.7163086 0.003665924 0.6982422
vn 0.7163086 0.003665924 0.6982422
vn 0.7163086 0.003665924 0.6982422
vn -0.7163086 -0.00121212 -0.6977539
vn -0.7163086 -0.00121212 -0.6977539
vn -0.7163086 -0.00121212 -0.6977539
vn -0.7163086 -0.00121212 -0.6977539
vn -0.7163086 -0.00121212 -0.6977539
vn -0.7163086 -0.00121212 -0.6977539
vn 0.40405273 -0.83935547 0.3642578
vn 0.40405273 -0.83935547 0.3642578
vn 0.40405273 -0.83935547 0.3642578
vn -0.4140625 -0.8027344 0.42871094
vn -0.4140625 -0.8027344 0.42871094
vn -0.4140625 -0.8027344 0.42871094
vn 0.6230469 -0.453125 -0.63720703
vn 0.6230469 -0.453125 -0.63720703
vn 0.6230469 -0.453125 -0.63720703
vn -0.5361328 -0.64501953 -0.5449219
vn -0.5361328 -0.64501953 -0.5449219
vn -0.5361328 -0.64501953 -0.5449219
vn 0.80126953 -0.59814453 0.004470825
vn 0.80126953 -0.59814453 0.004470825
vn 0.80126953 -0.59814453 0.004470825
vn 0.5522461 -0.8334961 -0.008201599
vn 0.5522461 -0.8334961 -0.008201599
vn 0.5522461 -0.8334961 -0.008201599
vn 0.4892578 -0.7216797 0.4892578
vn 0.4892578 -0.7216797 0.4892578
vn 0.4873047 -0.7553711 0.43847656
vn -0.39160156 -0.74609375 0.53808594
vn -0.48510742 -0.72753906 0.48510742
vn -0.39038086 -0.7807617 0.4880371
vn 0.097839355 -0.73339844 -0.6723633
vn 0.09692383 -0.7392578 -0.6665039
vn 0.09692383 -0.7392578 -0.6665039
vn -0.6850586 -0.7216797 -0.09790039
vn -0.6850586 -0.7216797 -0.09790039
vn -0.6850586 -0.7216797 -0.09790039
vn 0.58740234 -0.8076172 -0.048950195
vn 0.5883789 -0.80859375 0
vn 0.58740234 -0.8076172 -0.048950195
vn 0.58154297 -0.8120117 -0.048461914
vn 0.49023438 -0.8701172 -0.04901123
vn 0.49072266 -0.87109375 0
vn -0.49023438 -0.8701172 0.04901123
vn -0.58154297 -0.8120117 0.048461914
vn -0.49023438 -0.8701172 0.04901123
vn -0.6816406 -0.72998047 0.048675537
vn -0.58740234 -0.8076172 0.048950195
vn -0.6816406 -0.72998047 0.048675537
vn 0.5083008 0.004119873 0.8613281
vn 0.5083008 0.004119873 0.8613281
vn 0.5083008 0.004119873 0.8613281
vn 0.5083008 0.004119873 0.8613281
vn 0.5083008 0.004119873 0.8613281
vn 0.5083008 0.004119873 0.8613281
vn 0.4482422 -0.47143555 0.75927734
vn 0.4482422 -0.47143555 0.75927734
vn 0.4482422 -0.47143555 0.75927734
vn -0.5488281 -0.56884766 0.6123047
vn -0.5488281 -0.56884766 0.6123047
vn -0.5488281 -0.56884766 0.6123047
vn 0.6254883 -0.34960938 -0.6977539
vn 0.6254883 -0.34960938 -0.6977539
vn 0.6254883 -0.34960938 -0.6977539
vn -0.46142578 -0.4194336 -0.7817383
vn -0.46142578 -0.4194336 -0.7817383
vn -0.46142578 -0.4194336 -0.7817383
vn 0.83251953 -0.5361328 0.13842773
vn 0.83251953 -0.5361328 0.13842773
vn 0.83251953 -0.5361328 0.13842773
vn 0.7993164 -0.58691406 0.12866211
vn 0.7993164 -0.58691406 0.12866211
vn 0.7993164 -0.58691406 0.12866211
vn -0.12261963 -0.5209961 0.84472656
vn -0.12261963 -0.5209961 0.84472656
vn -0.12261963 -0.5209961 0.84472656
vn -0.10687256 -0.62158203 0.7763672
vn -0.10687256 -0.62158203 0.7763672
vn -0.10687256 -0.62158203 0.7763672
vn 0.6645508 0.0023517609 0.7475586
vn 0.6645508 0.0023517609 0.7475586
vn 0.6645508 0.0023517609 0.7475586
vn 0.6640625 0.0023498535 0.7475586
vn 0.6640625 0.0023498535 0.7475586
vn 0.6640625 0.0023498535 0.7475586
vn 0.5917969 -0.45410156 0.6660156
vn 0.5917969 -0.45410156 0.6660156
vn 0.5917969 -0.45410156 0.6660156
vn -0.53808594 -0.5410156 0.6464844
vn -0.53808594 -0.5410156 0.6464844
vn -0.53808594 -0.5410156 0.6464844
vn 0.6044922 -0.32788086 -0.7260742
vn 0.6044922 -0.32788086 -0.7260742
vn 0.6044922 -0.32788086 -0.7260742
vn -0.60791016 -0.40307617 -0.68408203
vn -0.60791016 -0.40307617 -0.68408203
vn -0.60791016 -0.40307617 -0.68408203
vn 0.87841797 -0.47705078 0.022644043
vn 0.87841797 -0.47705078 0.022644043
vn 0.87841797 -0.47705078 0.022644043
vn 0.85009766 -0.5263672 0.018218994
vn 0.85009766 -0.5263672 0.018218994
vn 0.85009766 -0.5263672 0.018218994
vn -0.0042686462 -0.5239258 0.8515625
vn -0.0042686462 -0.5239258 0.8515625
vn -0.0042686462 -0.5239258 0.8515625
vn 0.0026340485 -0.62109375 0.7836914
vn 0.0026340485 -0.62109375 0.7836914
vn 0.0026340485 -0.62109375 0.7836914
vn 0.6645508 0.005874634 0.7475586
vn 0.6645508 0.005874634 0.7475586
vn 0.6645508 0.005874634 0.7475586
vn 0.6640625 0.005870819 0.7475586
vn 0.6640625 0.005870819 0.7475586
vn 0.6640625 0.005870819 0.7475586
vn 0.5917969 -0.45410156 0.6660156
vn 0.5917969 -0.45410156 0.6660156
vn 0.5917969 -0.45410156 0.6660156
vn -0.53808594 -0.5410156 0.6464844
vn -0.53808594 -0.5410156 0.6464844
vn -0.53808594 -0.5410156 0.6464844
vn 0.6044922 -0.32788086 -0.7260742
vn 0.6044922 -0.32788086 -0.7260742
vn 0.6044922 -0.32788086 -0.7260742
vn -0.60791016 -0.40307617 -0.68408203
vn -0.60791016 -0.40307617 -0.68408203
vn -0.60791016 -0.40307617 -0.68408203
vn 0.87890625 -0.47705078 -0.0063591003
vn 0.87890625 -0.47705078 -0.0063591003
vn 0.87890625 -0.47705078 -0.0063591003
vn 0.8515625 -0.5239258 -0.009086609
vn 0.8515625 -0.5239258 -0.009086609
vn 0.8515625 -0.5239258 -0.009086609
vn -0.0048561096 -0.5239258 0.8520508
vn -0.0048561096 -0.5239258 0.8520508
vn -0.0048561096 -0.5239258 0.8520508
vn 0.0029945374 -0.62109375 0.7836914
vn 0.0029945374 -0.62109375 0.7836914
vn 0.0029945374 -0.62109375 0.7836914
vn -0.00025486946 -0.0023841858 1
vn -0.00025486946 -0.0023841858 1
vn -0.00025486946 -0.0023841858 1
vn -0.0002539158 -0.002380371 1
vn -1 -0.0074424744 0.0013999939
vn -1 -0.0074424744 0.0013999939
vn -1 -0.0074424744 0.0013999939
vn -1 -0.007434845 0.0014019012
vn 0.0002527237 0.0058898926 -1
vn 0.0002527237 0.0058898926 -1
vn 0.0002527237 0.0058898926 -1
vn 0.00025177002 0.0058937073 -1
vn 1 0.007446289 -0.0014028549
vn 1 0.007446289 -0.0014028549
vn 1 0.007446289 -0.0014028549
vn 1 0.0074424744 -0.0014019012
vn -0.6977539 -0.006893158 0.7163086
vn -0.6977539 -0.006893158 0.7163086
vn -0.6977539 -0.006893158 0.7163086
vn -0.6977539 -0.006893158 0.7163086
vn 0.6977539 0.009407043 -0.7163086
vn 0.6977539 0.009407043 -0.7163086
vn 0.6977539 0.009407043 -0.7163086
vn 0.6977539 0.009407043 -0.7163086
vn 0.0005450249 -0.59472656 -0.80371094
vn 0.0005450249 -0.59472656 -0.80371094
vn 0.0005450249 -0.59472656 -0.80371094
vn 0.00061035156 -0.5908203 -0.8066406
vn -0.63720703 -0.7705078 -0.0067481995
vn -0.63720703 -0.7705078 -0.0067481995
vn -0.63720703 -0.7705078 -0.0067481995
vn -0.61328125 -0.79003906 -0.0061035156
vn 0.000107467175 -0.82666016 0.5625
vn 0.000107467175 -0.82666016 0.5625
vn 0.000107467175 -0.82666016 0.5625
vn 0.00043082237 -0.8359375 0.5488281
vn 0.0970459 0.024261475 0.9951172
vn 0.0970459 0.024261475 0.9951172
vn 0.09710693 0 0.9951172
vn 0.09710693 0 0.9951172
vn -0.99853516 0 0.049926758
vn -0.99853516 0 0.049926758
vn -0.9970703 0 0.07476807
vn -0.99853516 0 0.049926758
vn -0.19494629 -0.024368286 -0.98046875
vn -0.19494629 0 -0.98095703
vn -0.09765625 -0.024414062 -0.9951172
vn -0.19494629 0 -0.98095703
vn 0.9951172 0 -0.099487305
vn 0.9951172 0 -0.099487305
vn 0.9951172 0 -0.099487305
vn 0.9951172 0 -0.099487305
vn -0.6303711 0 0.7758789
vn -0.6821289 0 0.73095703
vn -0.6821289 0 0.73095703
vn -0.6821289 0.024368286 0.73095703
vn 0.7758789 0 0.6303711
vn 0.73095703 0 0.6821289
vn 0.74316406 0 0.6689453
vn 0.73095703 0.024368286 0.6821289
vn -0.9848633 0 -0.17236328
vn -0.9848633 0 -0.17236328
vn -0.9848633 0 -0.17236328
vn -0.9848633 0 -0.17236328
vn 0.19494629 -0.024368286 -0.98046875
vn 0.19494629 0 -0.98095703
vn 0.19494629 0 -0.98095703
vn 0.19616699 0 -0.98046875
vn -0.09753418 -0.8046875 -0.5854492
vn -0.09729004 -0.8149414 -0.57177734
vn -0.09753418 -0.8046875 -0.5854492
vn -0.09753418 -0.8046875 -0.5854492
vn -0 -0.80859375 0.5883789
vn 0.09753418 -0.8046875 0.5854492
vn 0.09729004 -0.83935547 0.53515625
vn -0 -0.80859375 0.5883789
vn -0.13635254 0.0050621033 0.99072266
vn -0.13635254 0.0050621033 0.99072266
vn -0.13635254 0.0050621033 0.99072266
vn -0.13635254 0.0050621033 0.99072266
vn -0.98779297 -0.0003414154 -0.15625
vn -0.98779297 -0.0003414154 -0.15625
vn -0.98779297 -0.0003414154 -0.15625
vn -0.98779297 -2.3245811E-06 -0.15612793
vn 0.14025879 4.4107437E-06 -0.9902344
vn 0.14025879 4.4107437E-06 -0.9902344
vn 0.14025879 4.4107437E-06 -0.9902344
vn 0.14025879 5.364418E-06 -0.9902344
vn 0.9873047 -6.6161156E-06 0.15917969
vn 0.9873047 -6.6161156E-06 0.15917969
vn 0.9873047 -6.6161156E-06 0.15917969
vn 0.9873047 0.00036120415 0.15893555
vn -0.66748047 0.004058838 0.7446289
vn -0.66748047 0.004058838 0.7446289
vn -0.66748047 0.004058838 0.7446289
vn -0.66748047 0.0040626526 0.7446289
vn -0.5083008 1.66893E-06 -0.8613281
vn -0.5083008 1.66893E-06 -0.8613281
vn -0.5083008 1.66893E-06 -0.8613281
vn -0.5083008 1.9669533E-06 -0.8613281
vn 0.66748047 7.1525574E-07 -0.7446289
vn 0.66748047 7.1525574E-07 -0.7446289
vn 0.66748047 7.1525574E-07 -0.7446289
vn 0.66748047 0 -0.7446289
vn 0.12573242 -0.43432617 -0.89208984
vn 0.12573242 -0.43432617 -0.89208984
vn 0.12573242 -0.43432617 -0.89208984
vn 0.12719727 -0.421875 -0.8979492
vn -0.79589844 -0.5917969 -0.1274414
vn -0.79589844 -0.5917969 -0.1274414
vn -0.79589844 -0.5917969 -0.1274414
vn -0.7836914 -0.6088867 -0.12384033
vn 0.0033607483 0.0030384064 1
vn 0.0033607483 0.0030384064 1
vn 0.0033607483 0.0030384064 1
vn 0.0033607483 0.0030384064 1
vn -1 -0.00017285347 -0.019119263
vn -1 -0.00017285347 -0.019119263
vn -1 -0.00017285347 -0.019119263
vn -1 0 -0.018997192
vn 0.0012798309 1.0728836E-06 -1
vn 0.0012798309 1.0728836E-06 -1
vn 0.0012798309 1.0728836E-06 -1
vn 0.0012788773 2.6226044E-06 -1
vn 1 0 0.021575928
vn 1 0 0.021575928
vn 1 0 0.021575928
vn 1 0.00018334389 0.021438599
vn -0.6401367 0.0022583008 0.7685547
vn -0.6401367 0.0022583008 0.7685547
vn -0.6401367 0.0022583008 0.7685547
vn -0.6401367 0.0022621155 0.7685547
vn -0.6645508 1.4901161E-06 -0.7475586
vn -0.6645508 1.4901161E-06 -0.7475586
vn -0.6645508 1.4901161E-06 -0.7475586
vn -0.6645508 8.34465E-07 -0.7475586
vn 0.6401367 2.026558E-06 -0.7685547
vn 0.6401367 2.026558E-06 -0.7685547
vn 0.6401367 2.026558E-06 -0.7685547
vn 0.6401367 1.3709068E-06 -0.7685547
vn 0.00022554398 -0.43847656 -0.8989258
vn 0.00022554398 -0.43847656 -0.8989258
vn 0.00022554398 -0.43847656 -0.8989258
vn 0.0011587143 -0.42285156 -0.90625
vn -0.84716797 -0.53125 -0.017456055
vn -0.84716797 -0.53125 -0.017456055
vn -0.84716797 -0.53125 -0.017456055
vn -0.8359375 -0.54833984 -0.0158844
vn 0.0038204193 0.0075912476 1
vn 0.0038204193 0.0075912476 1
vn 0.0038204193 0.0075912476 1
vn 0.0038204193 0.0075950623 1
vn -1 -0.00019574165 0.012535095
vn -1 -0.00019574165 0.012535095
vn -1 -0.00019574165 0.012535095
vn -1 0 0.012580872
vn 0.0014543533 2.7418137E-06 -1
vn 0.0014543533 2.7418137E-06 -1
vn 0.0014543533 2.7418137E-06 -1
vn 0.0014533997 7.1525574E-06 -1
vn 1 -2.1457672E-06 -0.010620117
vn 1 -2.1457672E-06 -0.010620117
vn 1 -2.1457672E-06 -0.010620117
vn 1 0.0002142191 -0.010673523
vn -0.6401367 0.0056381226 0.7685547
vn -0.6401367 0.0056381226 0.7685547
vn -0.6401367 0.0056381226 0.7685547
vn -0.6401367 0.0056495667 0.7685547
vn -0.6645508 3.695488E-06 -0.7475586
vn -0.6645508 3.695488E-06 -0.7475586
vn -0.6645508 3.695488E-06 -0.7475586
vn -0.6645508 2.026558E-06 -0.7475586
vn 0.6401367 4.053116E-06 -0.7685547
vn 0.6401367 4.053116E-06 -0.7685547
vn 0.6401367 4.053116E-06 -0.7685547
vn 0.6401367 2.3841858E-06 -0.7685547
vn 0.00025606155 -0.43847656 -0.8989258
vn 0.00025606155 -0.43847656 -0.8989258
vn 0.00025606155 -0.43847656 -0.8989258
vn 0.0013170242 -0.42285156 -0.90625
vn -0.8432617 -0.5371094 0.0098724365
vn -0.8432617 -0.5371094 0.0098724365
vn -0.8432617 -0.5371094 0.0098724365
vn -0.8364258 -0.54833984 0.010520935
vn 0.00045275688 -1 -0.00881958
vn 0.00045275688 -1 -0.00881958
vn 0.00045275688 -1 -0.00881958
vn -2.3901463E-05 -1 -0.008056641
vn -0 -1 0
vn -0 -1 0
vn -0 -1 0
vn -0 -0.9995117 0.024383545
vn -2.9802322E-07 -1 -3.5762787E-07
vn -2.9802322E-07 -1 -3.5762787E-07
vn -2.9802322E-07 -1 -3.5762787E-07
vn -0.0015592575 -1 0.0016117096
vn -2.9802322E-07 -1 -1.7881393E-07
vn -2.9802322E-07 -1 -1.7881393E-07
vn -2.9802322E-07 -1 -1.7881393E-07
vn -0.0015439987 -1 0.0018053055
vn -2.9802322E-07 -1 -1.1920929E-07
vn -2.9802322E-07 -1 -1.1920929E-07
vn -2.9802322E-07 -1 -1.1920929E-07
vn -0.0017557144 -1 0.0015621185
vn 0.19274902 0.95751953 0.21557617
vn 0.19274902 0.95751953 0.21557617
vn 0.19274902 0.95751953 0.21557617
vn -0.2208252 0.94970703 0.22277832
vn -0.2208252 0.94970703 0.22277832
vn -0.2208252 0.94970703 0.22277832
vn 0.18762207 0.96240234 -0.19641113
vn 0.18762207 0.96240234 -0.19641113
vn 0.18762207 0.96240234 -0.19641113
vn -0.22229004 0.95654297 -0.18908691
vn -0.22229004 0.95654297 -0.18908691
vn -0.22229004 0.95654297 -0.18908691
vn -0.19580078 0.9609375 -0.19580078
vn -0.19580078 0.9609375 -0.19580078
vn -0.19580078 0.9609375 -0.19580078
vn -0.38989258 0.83447266 0.38989258
vn -0.29296875 0.8725586 0.390625
vn -0.29345703 0.8925781 0.34228516
vn 0.09753418 0.8535156 -0.51220703
vn 0.09753418 0.8535156 -0.51220703
vn 0.09753418 0.8535156 -0.51220703
vn -0.4885254 0.8671875 -0.097717285
vn -0.4885254 0.8671875 -0.097717285
vn -0.4885254 0.8671875 -0.097717285
vn 0.097839355 0.8925781 0.44018555
vn -0 0.92089844 0.39013672
vn -0 0.8979492 0.4399414
vn -0.09753418 0.9511719 -0.2927246
vn -0.097717285 0.96484375 -0.2442627
vn -0.097717285 0.96484375 -0.2442627
vn -0.4880371 0.8725586 0.024398804
vn -0.4880371 0.8725586 0.024398804
vn -0.48754883 0.87158203 0.04876709
vn -0.6791992 0.7338867 0
vn -0.58740234 0.8076172 0.048950195
vn -0.67871094 0.73291016 0.048461914
vn -0 0.8857422 -0.46435547
vn -0 0.8979492 -0.4399414
vn -0.097839355 0.8925781 -0.44018555
vn -0.09753418 0.8535156 -0.51220703
vn -0.09753418 0.8535156 -0.51220703
vn -0.09753418 0.8535156 -0.51220703
vn -0.29248047 0.95654297 0
vn -0.39013672 0.92089844 0
vn -0.39013672 0.92089844 0
vn 0.93359375 0.34399414 -0.0982666
vn 0.9238281 0.37060547 -0.097229004
vn 0.9213867 0.37597656 -0.09698486
vn 0.9189453 0.38085938 -0.1027832
vn 0.9277344 0.36010742 -0.09765625
vn 0.09777832 0.4645996 0.8803711
vn 0.09777832 0.4645996 0.8803711
vn 0.09777832 0.4645996 0.8803711
vn 0.098083496 0.2758789 0.9560547
vn 0.098083496 0.2758789 0.9560547
vn 0.098083496 0.2758789 0.9560547
vn -0.9316406 0.35546875 0.07354736
vn -0.92041016 0.3876953 0.048461914
vn -0.92041016 0.3876953 0.048461914
vn -0.8808594 0.47094727 0.048919678
vn -0.8808594 0.47094727 0.048919678
vn -0.8808594 0.47094727 0.048919678
vn 0.9658203 0.24145508 -0.09655762
vn 0.9658203 0.24145508 -0.09655762
vn 0.96972656 0.22424316 -0.09698486
vn 0.44555664 0.48168945 0.75439453
vn 0.44555664 0.48168945 0.75439453
vn 0.44555664 0.48168945 0.75439453
vn -0.51904297 0.62890625 0.57910156
vn -0.51904297 0.62890625 0.57910156
vn -0.51904297 0.62890625 0.57910156
vn 0.6269531 0.3425293 -0.69970703
vn 0.6269531 0.3425293 -0.69970703
vn 0.6269531 0.3425293 -0.69970703
vn -0.4489746 0.46875 -0.7607422
vn -0.4489746 0.46875 -0.7607422
vn -0.4489746 0.46875 -0.7607422
vn -0.1015625 0.66748047 0.73779297
vn -0.1015625 0.66748047 0.73779297
vn -0.1015625 0.66748047 0.73779297
vn -0.123168945 0.51464844 0.8486328
vn -0.123168945 0.51464844 0.8486328
vn -0.123168945 0.51464844 0.8486328
vn -0.77685547 0.6176758 -0.122924805
vn -0.77685547 0.6176758 -0.122924805
vn -0.77685547 0.6176758 -0.122924805
vn -0.82470703 0.5493164 -0.13391113
vn -0.82470703 0.5493164 -0.13391113
vn -0.82470703 0.5493164 -0.13391113
vn 0.5883789 0.46435547 0.6621094
vn 0.5883789 0.46435547 0.6621094
vn 0.5883789 0.46435547 0.6621094
vn -0.51123047 0.6010742 0.61376953
vn -0.51123047 0.6010742 0.61376953
vn -0.51123047 0.6010742 0.61376953
vn 0.60595703 0.32104492 -0.72753906
vn 0.60595703 0.32104492 -0.72753906
vn 0.60595703 0.32104492 -0.72753906
vn -0.59277344 0.45141602 -0.6669922
vn -0.59277344 0.45141602 -0.6669922
vn -0.59277344 0.45141602 -0.6669922
vn 0.002506256 0.6660156 0.74560547
vn 0.002506256 0.6660156 0.74560547
vn 0.002506256 0.6660156 0.74560547
vn -0.004283905 0.5185547 0.85498047
vn -0.004283905 0.5185547 0.85498047
vn -0.004283905 0.5185547 0.85498047
vn -0.8300781 0.5571289 -0.0158844
vn -0.8300781 0.5571289 -0.0158844
vn -0.8300781 0.5571289 -0.0158844
vn -0.87158203 0.4897461 -0.019683838
vn -0.87158203 0.4897461 -0.019683838
vn -0.87158203 0.4897461 -0.019683838
vn 0.5883789 0.46435547 0.6621094
vn 0.5883789 0.46435547 0.6621094
vn 0.5883789 0.46435547 0.6621094
vn -0.51123047 0.6010742 0.61376953
vn -0.51123047 0.6010742 0.61376953
vn -0.51123047 0.6010742 0.61376953
vn 0.60595703 0.32104492 -0.72753906
vn 0.60595703 0.32104492 -0.72753906
vn 0.60595703 0.32104492 -0.72753906
vn -0.59277344 0.45141602 -0.6669922
vn -0.59277344 0.45141602 -0.6669922
vn -0.59277344 0.45141602 -0.6669922
vn 0.0028495789 0.6660156 0.74560547
vn 0.0028495789 0.6660156 0.74560547
vn 0.0028495789 0.6660156 0.74560547
vn -0.004875183 0.5185547 0.85498047
vn -0.004875183 0.5185547 0.85498047
vn -0.004875183 0.5185547 0.85498047
vn -0.83154297 0.55566406 0.010421753
vn -0.83154297 0.55566406 0.010421753
vn -0.83154297 0.55566406 0.010421753
vn -0.86572266 0.5004883 0.008773804
vn -0.86572266 0.5004883 0.008773804
vn -0.86572266 0.5004883 0.008773804
vn 0.66796875 0.34155273 0.6611328
vn 0.66796875 0.34155273 0.6611328
vn 0.66796875 0.34155273 0.6611328
vn 0.66796875 0.34179688 0.6611328
vn -0.6616211 0.32104492 0.6777344
vn -0.6616211 0.32104492 0.6777344
vn -0.6616211 0.32104492 0.6777344
vn -0.6616211 0.32080078 0.6777344
vn 0.6435547 0.38452148 -0.6616211
vn 0.6435547 0.38452148 -0.6616211
vn 0.6435547 0.38452148 -0.6616211
vn 0.6435547 0.38476562 -0.6616211
vn -0.6723633 0.36401367 -0.64453125
vn -0.6723633 0.36401367 -0.64453125
vn -0.6723633 0.36401367 -0.64453125
vn -0.6723633 0.36401367 -0.64453125
vn -0.0006122589 0.95166016 0.30737305
vn -0.0006122589 0.95166016 0.30737305
vn -0.0006122589 0.95166016 0.30737305
vn -0.0004925728 0.95410156 0.2998047
vn -0.3955078 0.91845703 0.007259369
vn -0.3955078 0.91845703 0.007259369
vn -0.3955078 0.91845703 0.007259369
vn -0.4206543 0.90722656 0.0066986084
vn -0.00047063828 0.9633789 -0.2685547
vn -0.00047063828 0.9633789 -0.2685547
vn -0.00047063828 0.9633789 -0.2685547
vn -0.00022041798 0.9589844 -0.28393555
vn 0.3737793 0.9277344 0.0062026978
vn 0.3737793 0.9277344 0.0062026978
vn 0.3737793 0.9277344 0.0062026978
vn 0.38208008 0.9243164 0.006336212
vn -0.00047826767 0.44360352 0.8964844
vn -0.00047826767 0.44360352 0.8964844
vn -0.00047826767 0.44360352 0.8964844
vn -0.0004785061 0.44360352 0.8964844
vn -0.88916016 0.4572754 0.0046195984
vn -0.88916016 0.4572754 0.0046195984
vn -0.88916016 0.4572754 0.0046195984
vn -0.88916016 0.4572754 0.0046195984
vn -5.7399273E-05 0.49731445 -0.8676758
vn -5.7399273E-05 0.49731445 -0.8676758
vn -5.7399273E-05 0.49731445 -0.8676758
vn -5.6684017E-05 0.49731445 -0.8676758
vn 0.875 0.484375 0.0022506714
vn 0.875 0.484375 0.0022506714
vn 0.875 0.484375 0.0022506714
vn 0.875 0.484375 0.0022506714
vn 0.7246094 0.22338867 0.65185547
vn 0.72558594 0.21765137 0.65283203
vn 0.7246094 0.22338867 0.65185547
vn 0.77246094 0.19909668 0.6035156
vn -0.58935547 0.33154297 0.7368164
vn -0.58935547 0.33154297 0.7368164
vn -0.59033203 0.32592773 0.73828125
vn -0.59033203 0.32592773 0.73828125
vn 0.097961426 0.31835938 -0.9428711
vn 0.097961426 0.31835938 -0.9428711
vn 0.19567871 0.31201172 -0.9296875
vn 0.19567871 0.31201172 -0.9296875
vn -0.93310547 0.3190918 -0.16577148
vn -0.93310547 0.3190918 -0.16577148
vn -0.93408203 0.31958008 -0.15979004
vn -0.921875 0.34570312 -0.17590332
vn -0.097717285 0.40307617 -0.91015625
vn -0.0982666 0.40527344 -0.9086914
vn -0.1953125 0.39672852 -0.89697266
vn -0.1953125 0.39672852 -0.89697266
vn 0.49169922 0.2529297 0.8330078
vn 0.49169922 0.2529297 0.8330078
vn 0.49169922 0.2529297 0.8330078
vn 0.49194336 0.2529297 0.8330078
vn -0.6464844 0.24951172 0.7211914
vn -0.6464844 0.24951172 0.7211914
vn -0.6464844 0.24951172 0.7211914
vn -0.6464844 0.24951172 0.7211914
vn 0.64941406 0.23083496 -0.7246094
vn 0.64941406 0.23083496 -0.7246094
vn 0.64941406 0.23083496 -0.7246094
vn 0.64941406 0.23095703 -0.7246094
vn -0.49414062 0.23413086 -0.83740234
vn -0.49414062 0.23413086 -0.83740234
vn -0.49414062 0.23413086 -0.83740234
vn -0.49414062 0.23413086 -0.83740234
vn 0.12768555 0.41381836 -0.9013672
vn 0.12768555 0.41381836 -0.9013672
vn 0.12768555 0.41381836 -0.9013672
vn 0.12463379 0.44702148 -0.8857422
vn 0.8300781 0.5415039 0.13378906
vn 0.8300781 0.5415039 0.13378906
vn 0.8300781 0.5415039 0.13378906
vn 0.8388672 0.52734375 0.13586426
vn -0.12988281 0.3059082 0.9433594
vn -0.12988281 0.3059082 0.9433594
vn -0.12988281 0.3059082 0.9433594
vn -0.12988281 0.3059082 0.9433594
vn -0.91552734 0.37475586 -0.14624023
vn -0.91552734 0.37475586 -0.14624023
vn -0.91552734 0.37475586 -0.14624023
vn -0.9042969 0.40185547 -0.1430664
vn 0.13452148 0.2836914 -0.94921875
vn 0.13452148 0.2836914 -0.94921875
vn 0.13452148 0.2836914 -0.94921875
vn 0.13452148 0.2836914 -0.94921875
vn 0.9042969 0.40185547 0.14428711
vn 0.9042969 0.40185547 0.14428711
vn 0.9042969 0.40185547 0.14428711
vn 0.91552734 0.37475586 0.14758301
vn 0.64453125 0.24194336 0.72509766
vn 0.64453125 0.24194336 0.72509766
vn 0.64453125 0.24194336 0.72509766
vn 0.64453125 0.24194336 0.72509766
vn -0.6225586 0.23303223 0.7470703
vn -0.6225586 0.23303223 0.7470703
vn -0.6225586 0.23303223 0.7470703
vn -0.6225586 0.23303223 0.7470703
vn 0.625 0.2154541 -0.7504883
vn 0.625 0.2154541 -0.7504883
vn 0.625 0.2154541 -0.7504883
vn 0.625 0.2154541 -0.7504883
vn -0.64746094 0.22375488 -0.7285156
vn -0.64746094 0.22375488 -0.7285156
vn -0.64746094 0.22375488 -0.7285156
vn -0.64746094 0.22387695 -0.7285156
vn 0.00116539 0.41503906 -0.90966797
vn 0.00116539 0.41503906 -0.90966797
vn 0.00116539 0.41503906 -0.90966797
vn -2.2828579E-05 0.45336914 -0.8911133
vn 0.87597656 0.48217773 0.01890564
vn 0.87597656 0.48217773 0.01890564
vn 0.87597656 0.48217773 0.01890564
vn 0.8833008 0.46850586 0.019683838
vn 0.0031986237 0.30688477 0.95166016
vn 0.0031986237 0.30688477 0.95166016
vn 0.0031986237 0.30688477 0.95166016
vn 0.0031986237 0.30688477 0.95166016
vn -0.9453125 0.32641602 -0.019241333
vn -0.9453125 0.32641602 -0.019241333
vn -0.9453125 0.32641602 -0.019241333
vn -0.93603516 0.35107422 -0.017913818
vn 0.0012273788 0.28466797 -0.9584961
vn 0.0012273788 0.28466797 -0.9584961
vn 0.0012273788 0.28466797 -0.9584961
vn 0.0012273788 0.28466797 -0.9584961
vn 0.93603516 0.35107422 0.018936157
vn 0.93603516 0.35107422 0.018936157
vn 0.93603516 0.35107422 0.018936157
vn 0.9448242 0.32617188 0.020401001
vn 0.64453125 0.24194336 0.72509766
vn 0.64453125 0.24194336 0.72509766
vn 0.64453125 0.24194336 0.72509766
vn 0.64453125 0.24194336 0.72509766
vn -0.6225586 0.23303223 0.7470703
vn -0.6225586 0.23303223 0.7470703
vn -0.6225586 0.23303223 0.7470703
vn -0.6225586 0.23303223 0.7470703
vn 0.625 0.2154541 -0.7504883
vn 0.625 0.2154541 -0.7504883
vn 0.625 0.2154541 -0.7504883
vn 0.625 0.2154541 -0.7504883
vn -0.64746094 0.22375488 -0.7285156
vn -0.64746094 0.22375488 -0.7285156
vn -0.64746094 0.22375488 -0.7285156
vn -0.64746094 0.22387695 -0.7285156
vn 0.0013237 0.41503906 -0.90966797
vn 0.0013237 0.41503906 -0.90966797
vn 0.0013237 0.41503906 -0.90966797
vn -2.5987625E-05 0.45336914 -0.8911133
vn 0.87841797 0.47753906 -0.00932312
vn 0.87841797 0.47753906 -0.00932312
vn 0.87841797 0.47753906 -0.00932312
vn 0.8833008 0.46850586 -0.009033203
vn 0.0036354065 0.30688477 0.95166016
vn 0.0036354065 0.30688477 0.95166016
vn 0.0036354065 0.30688477 0.95166016
vn 0.0036354065 0.30688477 0.95166016
vn -0.9453125 0.32641602 0.010864258
vn -0.9453125 0.32641602 0.010864258
vn -0.9453125 0.32641602 0.010864258
vn -0.93652344 0.35107422 0.011734009
vn 0.0013952255 0.28466797 -0.9584961
vn 0.0013952255 0.28466797 -0.9584961
vn 0.0013952255 0.28466797 -0.9584961
vn 0.0013952255 0.28466797 -0.9584961
vn 0.93652344 0.35107422 -0.011009216
vn 0.93652344 0.35107422 -0.011009216
vn 0.93652344 0.35107422 -0.011009216
vn 0.9453125 0.32641602 -0.010032654
vn -0.00037193298 1 0.0071029663
vn -0.00037193298 1 0.0071029663
vn -0.00037193298 1 0.0071029663
vn -0.00037240982 1 0.007106781
vn -0 1 0
vn -0 1 0
vn -0 1 0
vn -0 1 0
vn 0.0021076202 1 -0.004688263
vn 0.0021076202 1 -0.004688263
vn 0.0021076202 1 -0.004688263
vn 0.0004274845 1 -0.0029449463
vn 0.0016775131 1 -0.004924774
vn 0.0016775131 1 -0.004924774
vn 0.0016775131 1 -0.004924774
vn 1.4901161E-05 1 -0.0029735565
vn 0.0019083023 1 -0.004184723
vn 0.0019083023 1 -0.004184723
vn 0.0019083023 1 -0.004184723
vn 1.41859055E-05 1 -0.0024929047
g C003_BB04_0
f 3/3/3 2/2/2 1/1/1
f 6/6/6 5/5/5 4/4/4
f 9/9/9 8/8/8 7/7/7
f 12/12/12 11/11/11 10/10/10
f 15/15/15 14/14/14 13/13/13
f 18/18/18 17/17/17 16/16/16
f 21/21/21 20/20/20 19/19/19
f 24/24/24 23/23/23 22/22/22
f 27/27/27 26/26/26 25/25/25
f 30/30/30 29/29/29 28/28/28
f 33/33/33 32/32/32 31/31/31
f 36/36/36 35/35/35 34/34/34
f 39/39/39 38/38/38 37/37/37
f 42/42/42 41/41/41 40/40/40
f 45/45/45 44/44/44 43/43/43
f 48/48/48 47/47/47 46/46/46
f 51/51/51 50/50/50 49/49/49
f 54/54/54 53/53/53 52/52/52
f 57/57/57 56/56/56 55/55/55
f 60/60/60 59/59/59 58/58/58
f 63/63/63 62/62/62 61/61/61
f 66/66/66 65/65/65 64/64/64
f 69/69/69 68/68/68 67/67/67
f 72/72/72 71/71/71 70/70/70
f 75/75/75 74/74/74 73/73/73
f 78/78/78 77/77/77 76/76/76
f 81/81/81 80/80/80 79/79/79
f 84/84/84 83/83/83 82/82/82
f 87/87/87 86/86/86 85/85/85
f 90/90/90 89/89/89 88/88/88
f 93/93/93 92/92/92 91/91/91
f 96/96/96 95/95/95 94/94/94
f 99/99/99 98/98/98 97/97/97
f 102/102/102 101/101/101 100/100/100
f 105/105/105 104/104/104 103/103/103
f 108/108/108 107/107/107 106/106/106
f 111/111/111 110/110/110 109/109/109
f 114/114/114 113/113/113 112/112/112
f 117/117/117 116/116/116 115/115/115
f 120/120/120 119/119/119 118/118/118
f 123/123/123 122/122/122 121/121/121
f 126/126/126 125/125/125 124/124/124
f 129/129/129 128/128/128 127/127/127
f 132/132/132 131/131/131 130/130/130
f 135/135/135 134/134/134 133/133/133
f 138/138/138 137/137/137 136/136/136
f 141/141/141 140/140/140 139/139/139
f 144/144/144 143/143/143 142/142/142
f 147/147/147 146/146/146 145/145/145
f 146/146/146 147/147/147 148/148/148
f 151/151/151 150/150/150 149/149/149
f 150/150/150 151/151/151 152/152/152
f 155/155/155 154/154/154 153/153/153
f 154/154/154 155/155/155 156/156/156
f 159/159/159 158/158/158 157/157/157
f 158/158/158 159/159/159 160/160/160
f 163/163/163 162/162/162 161/161/161
f 162/162/162 163/163/163 164/164/164
f 167/167/167 166/166/166 165/165/165
f 166/166/166 167/167/167 168/168/168
f 171/171/171 170/170/170 169/169/169
f 170/170/170 171/171/171 172/172/172
f 175/175/175 174/174/174 173/173/173
f 174/174/174 175/175/175 176/176/176
f 179/179/179 178/178/178 177/177/177
f 178/178/178 179/179/179 180/180/180
f 183/183/183 182/182/182 181/181/181
f 182/182/182 183/183/183 184/184/184
f 187/187/187 186/186/186 185/185/185
f 186/186/186 187/187/187 188/188/188
f 191/191/191 190/190/190 189/189/189
f 190/190/190 191/191/191 192/192/192
f 195/195/195 194/194/194 193/193/193
f 194/194/194 195/195/195 196/196/196
f 199/199/199 198/198/198 197/197/197
f 198/198/198 199/199/199 200/200/200
f 203/203/203 202/202/202 201/201/201
f 202/202/202 203/203/203 204/204/204
f 207/207/207 206/206/206 205/205/205
f 206/206/206 207/207/207 208/208/208
f 211/211/211 210/210/210 209/209/209
f 210/210/210 211/211/211 212/212/212
f 215/215/215 214/214/214 213/213/213
f 214/214/214 215/215/215 216/216/216
f 219/219/219 218/218/218 217/217/217
f 218/218/218 219/219/219 220/220/220
f 223/223/223 222/222/222 221/221/221
f 222/222/222 223/223/223 224/224/224
f 227/227/227 226/226/226 225/225/225
f 226/226/226 227/227/227 228/228/228
f 231/231/231 230/230/230 229/229/229
f 230/230/230 231/231/231 232/232/232
f 235/235/235 234/234/234 233/233/233
f 234/234/234 235/235/235 236/236/236
f 239/239/239 238/238/238 237/237/237
f 238/238/238 239/239/239 240/240/240
f 243/243/243 242/242/242 241/241/241
f 242/242/242 243/243/243 244/244/244
f 247/247/247 246/246/246 245/245/245
f 246/246/246 247/247/247 248/248/248
f 251/251/251 250/250/250 249/249/249
f 250/250/250 251/251/251 252/252/252
f 255/255/255 254/254/254 253/253/253
f 254/254/254 255/255/255 256/256/256
f 259/259/259 258/258/258 257/257/257
f 258/258/258 259/259/259 260/260/260
f 263/263/263 262/262/262 261/261/261
f 262/262/262 263/263/263 264/264/264
f 267/267/267 266/266/266 265/265/265
f 266/266/266 267/267/267 268/268/268
f 271/271/271 270/270/270 269/269/269
f 270/270/270 271/271/271 272/272/272
f 275/275/275 274/274/274 273/273/273
f 274/274/274 275/275/275 276/276/276
f 279/279/279 278/278/278 277/277/277
f 278/278/278 279/279/279 280/280/280
f 283/283/283 282/282/282 281/281/281
f 282/282/282 283/283/283 284/284/284
f 287/287/287 286/286/286 285/285/285
f 286/286/286 287/287/287 288/288/288
f 291/291/291 290/290/290 289/289/289
f 290/290/290 291/291/291 292/292/292
f 295/295/295 294/294/294 293/293/293
f 294/294/294 295/295/295 296/296/296
f 299/299/299 298/298/298 297/297/297
f 298/298/298 299/299/299 300/300/300
f 303/303/303 302/302/302 301/301/301
f 302/302/302 303/303/303 304/304/304
f 307/307/307 306/306/306 305/305/305
f 306/306/306 307/307/307 308/308/308
f 311/311/311 310/310/310 309/309/309
f 310/310/310 311/311/311 312/312/312
f 315/315/315 314/314/314 313/313/313
f 314/314/314 315/315/315 316/316/316
f 319/319/319 318/318/318 317/317/317
f 318/318/318 319/319/319 320/320/320
f 323/323/323 322/322/322 321/321/321
f 322/322/322 323/323/323 324/324/324
f 327/327/327 326/326/326 325/325/325
f 326/326/326 327/327/327 328/328/328
g C003_BB04_1
f 331/331/331 330/330/330 329/329/329
f 330/330/330 331/331/331 332/332/332
f 335/335/335 334/334/334 333/333/333
f 334/334/334 335/335/335 336/336/336
f 339/339/339 338/338/338 337/337/337
f 338/338/338 339/339/339 340/340/340
f 343/343/343 342/342/342 341/341/341
f 342/342/342 343/343/343 344/344/344
f 347/347/347 346/346/346 345/345/345
f 346/346/346 347/347/347 348/348/348
g C003_BB04_2
f 351/351/351 350/350/350 349/349/349
f 354/354/354 353/353/353 352/352/352
f 357/357/357 356/356/356 355/355/355
f 360/360/360 359/359/359 358/358/358
f 363/363/363 362/362/362 361/361/361
f 366/366/366 365/365/365 364/364/364
f 369/369/369 368/368/368 367/367/367
f 372/372/372 371/371/371 370/370/370
f 375/375/375 374/374/374 373/373/373
f 378/378/378 377/377/377 376/376/376
f 381/381/381 380/380/380 379/379/379
f 384/384/384 383/383/383 382/382/382
f 387/387/387 386/386/386 385/385/385
f 390/390/390 389/389/389 388/388/388
f 393/393/393 392/392/392 391/391/391
f 396/396/396 395/395/395 394/394/394
f 398/398/398 397/397/397 395/395/395
f 401/401/401 400/400/400 399/399/399
f 404/404/404 403/403/403 402/402/402
f 407/407/407 406/406/406 405/405/405
f 410/410/410 409/409/409 408/408/408
f 413/413/413 412/412/412 411/411/411
f 416/416/416 415/415/415 414/414/414
f 419/419/419 418/418/418 417/417/417
f 422/422/422 421/421/421 420/420/420
f 425/425/425 424/424/424 423/423/423
f 428/428/428 427/427/427 426/426/426
f 431/431/431 430/430/430 429/429/429
f 434/434/434 433/433/433 432/432/432
f 437/437/437 436/436/436 435/435/435
f 440/440/440 439/439/439 438/438/438
f 443/443/443 442/442/442 441/441/441
f 446/446/446 445/445/445 444/444/444
f 449/449/449 448/448/448 447/447/447
f 452/452/452 451/451/451 450/450/450
f 455/455/455 454/454/454 453/453/453
f 458/458/458 457/457/457 456/456/456
f 461/461/461 460/460/460 459/459/459
f 464/464/464 463/463/463 462/462/462
f 467/467/467 466/466/466 465/465/465
f 470/470/470 469/469/469 468/468/468
f 473/473/473 472/472/472 471/471/471
f 476/476/476 475/475/475 474/474/474
f 479/479/479 478/478/478 477/477/477
f 482/482/482 481/481/481 480/480/480
f 485/485/485 484/484/484 483/483/483
f 488/488/488 487/487/487 486/486/486
f 487/487/487 488/488/488 489/489/489
f 492/492/492 491/491/491 490/490/490
f 491/491/491 492/492/492 493/493/493
f 496/496/496 495/495/495 494/494/494
f 495/495/495 496/496/496 497/497/497
f 500/500/500 499/499/499 498/498/498
f 499/499/499 500/500/500 501/501/501
f 504/504/504 503/503/503 502/502/502
f 503/503/503 504/504/504 505/505/505
f 508/508/508 507/507/507 506/506/506
f 507/507/507 508/508/508 509/509/509
f 512/512/512 511/511/511 510/510/510
f 511/511/511 512/512/512 513/513/513
f 516/516/516 515/515/515 514/514/514
f 515/515/515 516/516/516 517/517/517
f 520/520/520 519/519/519 518/518/518
f 519/519/519 520/520/520 521/521/521
f 524/524/524 523/523/523 522/522/522
f 523/523/523 524/524/524 525/525/525
f 528/528/528 527/527/527 526/526/526
f 527/527/527 528/528/528 529/529/529
f 532/532/532 531/531/531 530/530/530
f 531/531/531 532/532/532 533/533/533
f 536/536/536 535/535/535 534/534/534
f 535/535/535 536/536/536 537/537/537
f 540/540/540 539/539/539 538/538/538
f 539/539/539 540/540/540 541/541/541
f 544/544/544 543/543/543 542/542/542
f 543/543/543 544/544/544 545/545/545
f 548/548/548 547/547/547 546/546/546
f 547/547/547 548/548/548 549/549/549
f 552/552/552 551/551/551 550/550/550
f 551/551/551 552/552/552 553/553/553
f 556/556/556 555/555/555 554/554/554
f 555/555/555 556/556/556 557/557/557
f 560/560/560 559/559/559 558/558/558
f 559/559/559 560/560/560 561/561/561
f 564/564/564 563/563/563 562/562/562
f 563/563/563 564/564/564 565/565/565
f 568/568/568 567/567/567 566/566/566
f 567/567/567 568/568/568 569/569/569
f 572/572/572 571/571/571 570/570/570
f 571/571/571 572/572/572 573/573/573
f 576/576/576 575/575/575 574/574/574
f 575/575/575 576/576/576 577/577/577
f 580/580/580 579/579/579 578/578/578
f 579/579/579 580/580/580 581/581/581
f 584/584/584 583/583/583 582/582/582
f 583/583/583 584/584/584 585/585/585
f 588/588/588 587/587/587 586/586/586
f 587/587/587 588/588/588 589/589/589
f 592/592/592 591/591/591 590/590/590
f 591/591/591 592/592/592 593/593/593
f 596/596/596 595/595/595 594/594/594
f 595/595/595 596/596/596 597/597/597
f 600/600/600 599/599/599 598/598/598
f 599/599/599 600/600/600 601/601/601
f 604/604/604 603/603/603 602/602/602
f 603/603/603 604/604/604 605/605/605
f 608/608/608 607/607/607 606/606/606
f 607/607/607 608/608/608 609/609/609
f 612/612/612 611/611/611 610/610/610
f 611/611/611 612/612/612 613/613/613
f 616/616/616 615/615/615 614/614/614
f 615/615/615 616/616/616 617/617/617
f 620/620/620 619/619/619 618/618/618
f 619/619/619 620/620/620 621/621/621
f 624/624/624 623/623/623 622/622/622
f 623/623/623 624/624/624 625/625/625
f 628/628/628 627/627/627 626/626/626
f 627/627/627 628/628/628 629/629/629
f 632/632/632 631/631/631 630/630/630
f 631/631/631 632/632/632 633/633/633
f 636/636/636 635/635/635 634/634/634
f 635/635/635 636/636/636 637/637/637
f 640/640/640 639/639/639 638/638/638
f 639/639/639 640/640/640 641/641/641
f 644/644/644 643/643/643 642/642/642
f 643/643/643 644/644/644 645/645/645
f 648/648/648 647/647/647 646/646/646
f 647/647/647 648/648/648 649/649/649
f 652/652/652 651/651/651 650/650/650
f 651/651/651 652/652/652 653/653/653
f 656/656/656 655/655/655 654/654/654
f 655/655/655 656/656/656 657/657/657
f 660/660/660 659/659/659 658/658/658
f 659/659/659 660/660/660 661/661/661
f 664/664/664 663/663/663 662/662/662
f 663/663/663 664/664/664 665/665/665
f 668/668/668 667/667/667 666/666/666
f 667/667/667 668/668/668 669/669/669
f 672/672/672 671/671/671 670/670/670
f 671/671/671 672/672/672 673/673/673
g C003_BB04_3
f 676/676/676 675/675/675 674/674/674
f 675/675/675 676/676/676 677/677/677
f 680/680/680 679/679/679 678/678/678
f 679/679/679 680/680/680 681/681/681
f 684/684/684 683/683/683 682/682/682
f 683/683/683 684/684/684 685/685/685
f 688/688/688 687/687/687 686/686/686
f 687/687/687 688/688/688 689/689/689
f 692/692/692 691/691/691 690/690/690
f 691/691/691 692/692/692 693/693/693
