g C003_BB01
v 12.501738 -7.8688455 14.473567
v 12.417255 1.2040325 14.49892
v 12.97748 -7.8519974 14.00238
v 12.893027 1.2178888 14.027734
v 12.97748 -7.8519974 14.00238
v 12.417255 1.2040325 14.49892
v 11.086787 1.4606898 -4.523663
v 11.171396 -7.5558743 -4.5883794
v 11.558037 1.462604 -4.0478525
v 11.642675 -7.553555 -4.1125565
v 11.558037 1.462604 -4.0478525
v 11.171396 -7.5558743 -4.5883794
v 12.97748 -7.8519974 14.00238
v 12.082607 -8.445935 13.617834
v 12.501738 -7.8688455 14.473567
v -6.2197948 -7.908155 14.434148
v -5.7485156 -7.9058933 14.909968
v -5.529541 -8.469996 14.05425
v 11.171396 -7.5558743 -4.5883794
v 11.177051 -8.177615 -4.1326785
v 11.642675 -7.553555 -4.1125565
v -6.380332 -7.5929093 -4.027249
v -6.856035 -7.6097355 -3.5560503
v -6.125068 -8.17603 -3.5910826
v 11.177051 -8.177615 -4.1326785
v 12.082607 -8.445935 13.617834
v 11.642675 -7.553555 -4.1125565
v 12.97748 -7.8519974 14.00238
v 11.642675 -7.553555 -4.1125565
v 12.082607 -8.445935 13.617834
v 18.407656 -9.439984 11.259977
v 18.361015 2.3281727 11.27237
v 18.676132 -9.430782 11.010695
v 18.629501 2.3357341 11.023084
v 18.676132 -9.430782 11.010695
v 18.361015 2.3281727 11.27237
v 8.249541 2.4442432 -1.7495166
v 8.296963 -9.29837 -1.7833923
v 8.518027 2.451806 -1.9987952
v 8.565439 -9.289168 -2.0326624
v 8.518027 2.451806 -1.9987952
v 8.296963 -9.29837 -1.7833923
v 18.465702 2.4684327 -1.9144115
v 18.513115 -9.268908 -1.9482825
v 18.715 2.46948 -1.6458764
v 18.76242 -9.267638 -1.6797497
v 18.715 2.46948 -1.6458764
v 18.513115 -9.268908 -1.9482825
v 18.676132 -9.430782 11.010695
v 18.193563 -9.755754 10.784612
v 18.407656 -9.439984 11.259977
v 8.210664 -9.461496 10.907058
v 8.45998 -9.460245 11.175603
v 8.594853 -9.768921 10.711521
v 18.513115 -9.268908 -1.9482825
v 18.508144 -9.609093 -1.6989807
v 18.76242 -9.267638 -1.6797497
v 8.565439 -9.289168 -2.0326624
v 8.296963 -9.29837 -1.7833923
v 8.697344 -9.608219 -1.7896326
v 18.508144 -9.609093 -1.6989807
v 18.193563 -9.755754 10.784612
v 18.76242 -9.267638 -1.6797497
v 18.676132 -9.430782 11.010695
v 18.76242 -9.267638 -1.6797497
v 18.193563 -9.755754 10.784612
v -4.0901904 -9.568052 14.163718
v -4.1511474 0.85271335 14.181318
v -3.744409 -9.555936 13.828508
v -3.8053465 0.86267835 13.846098
v -3.744409 -9.555936 13.828508
v -4.1511474 0.85271335 14.181318
v -4.211753 1.0372927 1.4428637
v -4.1504054 -9.34297 1.3969983
v -3.876499 1.0386696 1.7887036
v -3.8151414 -9.341304 1.742854
v -3.876499 1.0386696 1.7887036
v -4.1504054 -9.34297 1.3969983
v -3.744409 -9.555936 13.828508
v -4.3850245 -9.983121 13.545046
v -4.0901904 -9.568052 14.163718
v -19.428947 -9.596331 13.904631
v -19.093683 -9.594705 14.250485
v -18.929596 -10.000428 13.63676
v -4.1504054 -9.34297 1.3969983
v -4.431528 -9.7901535 1.9761938
v -3.8151414 -9.341304 1.742854
v -19.153883 -9.369614 1.483778
v -19.49966 -9.381709 1.8189856
v -18.973675 -9.789014 2.0508482
v -18.763672 2.7659817 14.678877
v -19.236519 2.765984 14.26501
v -18.766142 8.975257 14.642107
v -19.23898 8.975259 14.228245
v -18.766142 8.975257 14.642107
v -19.236519 2.765984 14.26501
v -19.236519 2.765984 14.26501
v -18.763672 2.7659817 14.678877
v -18.79316 1.9030838 14.2355175
v 19.468159 2.765984 14.08469
v 19.024828 1.9030842 14.114197
v 19.054312 2.7659824 14.557536
v -18.88519 2.76604 -14.813989
v -19.299028 2.766037 -14.341162
v -18.855698 1.9031391 -14.370651
v 18.932817 2.76604 -14.935329
v 18.962328 1.9031395 -14.491992
v 19.40565 2.7660375 -14.521484
v 19.240604 -3.5642862 13.040942
v 19.183008 4.1753864 13.05938
v 19.561026 -3.5527408 12.712158
v 19.503456 4.1848946 12.730586
v 19.561026 -3.5527408 12.712158
v 19.183008 4.1753864 13.05938
v -18.14691 4.3210125 -10.326494
v -18.089647 -3.3866582 -10.371853
v -17.826479 4.3304906 -10.65528
v -17.769228 -3.3751268 -10.70064
v -17.826479 4.3304906 -10.65528
v -18.089647 -3.3866582 -10.371853
v 19.561026 -3.5527408 12.712158
v 18.9429 -3.9599822 12.459379
v 19.240604 -3.5642862 13.040942
v -18.055761 -3.5912492 12.710933
v -17.726942 -3.5897064 13.03143
v -17.587162 -3.9764812 12.442153
v 19.19828 -3.3496754 -10.691122
v 19.207666 -3.7760406 -10.378788
v 19.527138 -3.3481474 -10.370631
v -17.769228 -3.3751268 -10.70064
v -18.089647 -3.3866582 -10.371853
v -17.588964 -3.774947 -10.404719
v 19.207666 -3.7760406 -10.378788
v 18.9429 -3.9599822 12.459379
v 19.527138 -3.3481474 -10.370631
v 19.561026 -3.5527408 12.712158
v 19.527138 -3.3481474 -10.370631
v 18.9429 -3.9599822 12.459379
v 12.417255 1.2040325 14.49892
v 12.501738 -7.8688455 14.473567
v -5.832998 1.1736044 14.935327
v -5.7485156 -7.9058933 14.909968
v -6.3042674 1.1717404 14.459501
v -6.2197948 -7.908155 14.434148
v -6.9406834 1.4164702 -3.4913597
v -6.856035 -7.6097355 -3.5560503
v -6.4649706 1.430291 -3.962555
v -6.380332 -7.5929093 -4.027249
v 11.086787 1.4606898 -4.523663
v 11.171396 -7.5558743 -4.5883794
v 11.558037 1.462604 -4.0478525
v 11.642675 -7.553555 -4.1125565
v 12.893027 1.2178888 14.027734
v 12.97748 -7.8519974 14.00238
v -5.832998 1.1736044 14.935327
v -5.7485156 -7.9058933 14.909968
v -6.3042674 1.1717404 14.459501
v -6.2197948 -7.908155 14.434148
v -6.9406834 1.4164702 -3.4913597
v -6.856035 -7.6097355 -3.5560503
v -6.4649706 1.430291 -3.962555
v -6.380332 -7.5929093 -4.027249
v -6.125068 -8.17603 -3.5910826
v 11.177051 -8.177615 -4.1326785
v -6.380332 -7.5929093 -4.027249
v 11.171396 -7.5558743 -4.5883794
v -5.529541 -8.469996 14.05425
v -6.125068 -8.17603 -3.5910826
v -6.2197948 -7.908155 14.434148
v -6.856035 -7.6097355 -3.5560503
v 12.082607 -8.445935 13.617834
v -5.529541 -8.469996 14.05425
v 12.501738 -7.8688455 14.473567
v -5.7485156 -7.9058933 14.909968
v 18.361015 2.3281727 11.27237
v 18.407656 -9.439984 11.259977
v 8.413349 2.3115327 11.187988
v 8.45998 -9.460245 11.175603
v 8.164033 2.3104973 10.919443
v 8.210664 -9.461496 10.907058
v 8.249541 2.4442432 -1.7495166
v 8.296963 -9.29837 -1.7833923
v 8.518027 2.451806 -1.9987952
v 8.565439 -9.289168 -2.0326624
v 18.465702 2.4684327 -1.9144115
v 18.513115 -9.268908 -1.9482825
v 18.715 2.46948 -1.6458764
v 18.76242 -9.267638 -1.6797497
v 18.629501 2.3357341 11.023084
v 18.676132 -9.430782 11.010695
v 8.413349 2.3115327 11.187988
v 8.45998 -9.460245 11.175603
v 8.164033 2.3104973 10.919443
v 8.210664 -9.461496 10.907058
v 8.697344 -9.608219 -1.7896326
v 18.508144 -9.609093 -1.6989807
v 8.565439 -9.289168 -2.0326624
v 18.513115 -9.268908 -1.9482825
v 8.594853 -9.768921 10.711521
v 8.697344 -9.608219 -1.7896326
v 8.210664 -9.461496 10.907058
v 8.296963 -9.29837 -1.7833923
v 18.193563 -9.755754 10.784612
v 8.594853 -9.768921 10.711521
v 18.407656 -9.439984 11.259977
v 8.45998 -9.460245 11.175603
v -4.1511474 0.85271335 14.181318
v -4.0901904 -9.568052 14.163718
v -19.154636 0.8308242 14.268076
v -19.093683 -9.594705 14.250485
v -19.48989 0.829489 13.922221
v -19.428947 -9.596331 13.904631
v -19.561037 1.0054955 1.8648363
v -19.49966 -9.381709 1.8189856
v -19.215271 1.0154364 1.5296289
v -19.153883 -9.369614 1.483778
v -4.211753 1.0372927 1.4428637
v -4.1504054 -9.34297 1.3969983
v -3.876499 1.0386696 1.7887036
v -3.8151414 -9.341304 1.742854
v -3.8053465 0.86267835 13.846098
v -3.744409 -9.555936 13.828508
v -19.154636 0.8308242 14.268076
v -19.093683 -9.594705 14.250485
v -19.48989 0.829489 13.922221
v -19.428947 -9.596331 13.904631
v -19.561037 1.0054955 1.8648363
v -19.49966 -9.381709 1.8189856
v -19.215271 1.0154364 1.5296289
v -19.153883 -9.369614 1.483778
v -4.431528 -9.7901535 1.9761938
v -4.3850245 -9.983121 13.545046
v -3.8151414 -9.341304 1.742854
v -3.744409 -9.555936 13.828508
v -18.973675 -9.789014 2.0508482
v -4.431528 -9.7901535 1.9761938
v -19.153883 -9.369614 1.483778
v -4.1504054 -9.34297 1.3969983
v -18.929596 -10.000428 13.63676
v -18.973675 -9.789014 2.0508482
v -19.428947 -9.596331 13.904631
v -19.49966 -9.381709 1.8189856
v -4.3850245 -9.983121 13.545046
v -18.929596 -10.000428 13.63676
v -4.0901904 -9.568052 14.163718
v -19.093683 -9.594705 14.250485
v -18.766142 8.975257 14.642107
v 19.05188 9.149097 14.520763
v -18.763672 2.7659817 14.678877
v 19.054312 2.7659824 14.557536
v 19.465717 9.149099 14.047922
v 19.40564 9.149139 -14.521459
v 19.468159 2.765984 14.08469
v 19.40565 2.7660375 -14.521484
v 18.932808 9.149141 -14.935311
v -18.88518 9.149141 -14.813968
v 18.932817 2.76604 -14.935329
v -18.88519 2.76604 -14.813989
v -19.299028 9.14914 -14.341141
v -19.23898 8.975259 14.228245
v -19.299028 2.766037 -14.341162
v -19.236519 2.765984 14.26501
v 19.05188 9.149097 14.520763
v 19.465717 9.149099 14.047922
v 19.054312 2.7659824 14.557536
v 19.468159 2.765984 14.08469
v 19.40564 9.149139 -14.521459
v 18.932808 9.149141 -14.935311
v 19.40565 2.7660375 -14.521484
v 18.932817 2.76604 -14.935329
v -18.88518 9.149141 -14.813968
v -19.299028 9.14914 -14.341141
v -18.88519 2.76604 -14.813989
v -19.299028 2.766037 -14.341162
v -18.855698 1.9031391 -14.370651
v -19.299028 2.766037 -14.341162
v -18.79316 1.9030838 14.2355175
v -19.236519 2.765984 14.26501
v 18.962328 1.9031395 -14.491992
v 18.932817 2.76604 -14.935329
v -18.855698 1.9031391 -14.370651
v -18.88519 2.76604 -14.813989
v 19.024828 1.9030842 14.114197
v 19.468159 2.765984 14.08469
v 18.962328 1.9031395 -14.491992
v 19.40565 2.7660375 -14.521484
v -18.79316 1.9030838 14.2355175
v -18.763672 2.7659817 14.678877
v 19.024828 1.9030842 14.114197
v 19.054312 2.7659824 14.557536
v 19.183008 4.1753864 13.05938
v 19.240604 -3.5642862 13.040942
v -17.784527 4.15451 13.049849
v -17.726942 -3.5897064 13.03143
v -18.113373 4.153245 12.72935
v -18.055761 -3.5912492 12.710933
v -18.14691 4.3210125 -10.326494
v -18.089647 -3.3866582 -10.371853
v -17.826479 4.3304906 -10.65528
v -17.769228 -3.3751268 -10.70064
v 19.141054 4.3513975 -10.645757
v 19.19828 -3.3496754 -10.691122
v 19.469873 4.352638 -10.325266
v 19.527138 -3.3481474 -10.370631
v 19.503456 4.1848946 12.730586
v 19.561026 -3.5527408 12.712158
v -17.784527 4.15451 13.049849
v -17.726942 -3.5897064 13.03143
v -18.113373 4.153245 12.72935
v -18.055761 -3.5912492 12.710933
v 19.141054 4.3513975 -10.645757
v 19.19828 -3.3496754 -10.691122
v 19.469873 4.352638 -10.325266
v 19.527138 -3.3481474 -10.370631
v -17.588964 -3.774947 -10.404719
v 19.207666 -3.7760406 -10.378788
v -17.769228 -3.3751268 -10.70064
v 19.19828 -3.3496754 -10.691122
v -17.587162 -3.9764812 12.442153
v -17.588964 -3.774947 -10.404719
v -18.055761 -3.5912492 12.710933
v -18.089647 -3.3866582 -10.371853
v 18.9429 -3.9599822 12.459379
v -17.587162 -3.9764812 12.442153
v 19.240604 -3.5642862 13.040942
v -17.726942 -3.5897064 13.03143
v -5.529541 -8.469996 14.05425
v 12.082607 -8.445935 13.617834
v -6.125068 -8.17603 -3.5910826
v 11.177051 -8.177615 -4.1326785
v 8.594853 -9.768921 10.711521
v 18.193563 -9.755754 10.784612
v 8.697344 -9.608219 -1.7896326
v 18.508144 -9.609093 -1.6989807
v -18.929596 -10.000428 13.63676
v -4.3850245 -9.983121 13.545046
v -18.973675 -9.789014 2.0508482
v -4.431528 -9.7901535 1.9761938
v 19.024828 1.9030842 14.114197
v 18.962328 1.9031395 -14.491992
v -18.79316 1.9030838 14.2355175
v -18.855698 1.9031391 -14.370651
v -17.587162 -3.9764812 12.442153
v 18.9429 -3.9599822 12.459379
v -17.588964 -3.774947 -10.404719
v 19.207666 -3.7760406 -10.378788
v 12.084745 1.8923283 13.502319
v 12.649316 1.6574982 14.042226
v 12.411494 1.6505523 14.277827
v -5.527422 1.8725446 13.93874
v -5.8387985 1.6201193 14.714209
v -6.0744333 1.6192111 14.476303
v 10.759961 2.1235075 -3.4790235
v 11.07874 1.901243 -4.271255
v 11.314384 1.9021841 -4.0333667
v -6.1536813 2.1037376 -2.917905
v -6.71082 1.8639348 -3.4745374
v -6.4729686 1.8708514 -3.7101488
v 18.196777 2.7047534 10.721481
v 18.495985 2.576266 11.026711
v 18.361748 2.5724857 11.15135
v 8.598046 2.6939306 10.648396
v 8.414072 2.5558455 11.06697
v 8.289413 2.5553284 10.932705
v 18.268515 2.8310955 -1.3489184
v 18.456835 2.7094827 -1.7765234
v 18.581493 2.71 -1.6422656
v 8.669775 2.8202825 -1.4220141
v 8.374931 2.6890738 -1.7362646
v 8.50916 2.6928551 -1.8609033
v -4.382583 1.3477616 13.461992
v -3.9807274 1.1788613 13.854653
v -4.153589 1.1738663 14.022256
v -18.92716 1.3335283 13.553711
v -19.157106 1.1519779 14.109018
v -19.324734 1.1513225 13.936098
v -4.454878 1.5140206 2.1916454
v -4.219497 1.3541561 1.6243335
v -4.0518603 1.3548404 1.7972485
v -18.999485 1.4998055 2.2833545
v -19.395876 1.327329 1.878706
v -19.222986 1.3322995 1.7110986
v -18.521782 10.000413 13.926448
v -18.680824 9.779492 14.529064
v -19.043804 9.779497 14.1129265
v 18.649527 10.000413 13.807409
v 19.244057 9.779494 14.062673
v 19.037123 9.779492 14.299089
v -18.530474 10.000431 -14.100621
v -19.077368 9.7795315 -14.355888
v -18.870434 9.779536 -14.592304
v 18.59061 10.000429 -14.219658
v 18.947563 9.779534 -14.713643
v 19.183979 9.77953 -14.506717
v -18.766142 8.975257 14.642107
v -19.23898 8.975259 14.228245
v -18.680824 9.779492 14.529064
v -19.043804 9.779497 14.1129265
v -18.680824 9.779492 14.529064
v -19.23898 8.975259 14.228245
v 19.037123 9.779492 14.299089
v -18.680824 9.779492 14.529064
v 18.649527 10.000413 13.807409
v -18.521782 10.000413 13.926448
v 18.649527 10.000413 13.807409
v -18.680824 9.779492 14.529064
v 19.05188 9.149097 14.520763
v -18.766142 8.975257 14.642107
v 19.037123 9.779492 14.299089
v -18.680824 9.779492 14.529064
v 19.037123 9.779492 14.299089
v -18.766142 8.975257 14.642107
v -19.23898 8.975259 14.228245
v -19.299028 9.14914 -14.341141
v -19.043804 9.779497 14.1129265
v -19.077368 9.7795315 -14.355888
v -19.043804 9.779497 14.1129265
v -19.299028 9.14914 -14.341141
v 18.942928 4.64733 12.380188
v 19.336514 4.4863167 12.743479
v 19.176338 4.481549 12.907878
v -17.587084 4.633755 12.362964
v -17.791191 4.460679 12.898344
v -17.9556 4.4600544 12.7381
v 18.929628 4.8057895 -9.925651
v 19.138584 4.653389 -10.472627
v 19.302988 4.6540365 -10.312387
v -17.600464 4.792237 -9.942878
v -17.98914 4.627813 -10.317746
v -17.828926 4.6325517 -10.482139
v 12.417255 1.2040325 14.49892
v 12.411494 1.6505523 14.277827
v 12.893027 1.2178888 14.027734
v 12.649316 1.6574982 14.042226
v -6.3042674 1.1717404 14.459501
v -6.0744333 1.6192111 14.476303
v -5.832998 1.1736044 14.935327
v -5.8387985 1.6201193 14.714209
v 11.558037 1.462604 -4.0478525
v 11.314384 1.9021841 -4.0333667
v 11.086787 1.4606898 -4.523663
v 11.07874 1.901243 -4.271255
v -6.4649706 1.430291 -3.962555
v -6.4729686 1.8708514 -3.7101488
v -6.9406834 1.4164702 -3.4913597
v -6.71082 1.8639348 -3.4745374
v -5.8387985 1.6201193 14.714209
v -5.527422 1.8725446 13.93874
v 12.411494 1.6505523 14.277827
v 12.084745 1.8923283 13.502319
v -6.71082 1.8639348 -3.4745374
v -6.1536813 2.1037376 -2.917905
v -6.0744333 1.6192111 14.476303
v -5.527422 1.8725446 13.93874
v 11.07874 1.901243 -4.271255
v 10.759961 2.1235075 -3.4790235
v -6.4729686 1.8708514 -3.7101488
v -6.1536813 2.1037376 -2.917905
v 12.649316 1.6574982 14.042226
v 12.084745 1.8923283 13.502319
v 11.314384 1.9021841 -4.0333667
v 10.759961 2.1235075 -3.4790235
v -5.832998 1.1736044 14.935327
v -5.8387985 1.6201193 14.714209
v 12.417255 1.2040325 14.49892
v 12.411494 1.6505523 14.277827
v -6.9406834 1.4164702 -3.4913597
v -6.71082 1.8639348 -3.4745374
v -6.3042674 1.1717404 14.459501
v -6.0744333 1.6192111 14.476303
v 11.086787 1.4606898 -4.523663
v 11.07874 1.901243 -4.271255
v -6.4649706 1.430291 -3.962555
v -6.4729686 1.8708514 -3.7101488
v 12.893027 1.2178888 14.027734
v 12.649316 1.6574982 14.042226
v 11.558037 1.462604 -4.0478525
v 11.314384 1.9021841 -4.0333667
v 18.361015 2.3281727 11.27237
v 18.361748 2.5724857 11.15135
v 18.629501 2.3357341 11.023084
v 18.495985 2.576266 11.026711
v 8.164033 2.3104973 10.919443
v 8.289413 2.5553284 10.932705
v 8.413349 2.3115327 11.187988
v 8.414072 2.5558455 11.06697
v 18.715 2.46948 -1.6458764
v 18.581493 2.71 -1.6422656
v 18.465702 2.4684327 -1.9144115
v 18.456835 2.7094827 -1.7765234
v 8.518027 2.451806 -1.9987952
v 8.50916 2.6928551 -1.8609033
v 8.249541 2.4442432 -1.7495166
v 8.374931 2.6890738 -1.7362646
v 8.414072 2.5558455 11.06697
v 8.598046 2.6939306 10.648396
v 18.361748 2.5724857 11.15135
v 18.196777 2.7047534 10.721481
v 8.374931 2.6890738 -1.7362646
v 8.669775 2.8202825 -1.4220141
v 8.289413 2.5553284 10.932705
v 8.598046 2.6939306 10.648396
v 18.456835 2.7094827 -1.7765234
v 18.268515 2.8310955 -1.3489184
v 8.50916 2.6928551 -1.8609033
v 8.669775 2.8202825 -1.4220141
v 18.495985 2.576266 11.026711
v 18.196777 2.7047534 10.721481
v 18.581493 2.71 -1.6422656
v 18.268515 2.8310955 -1.3489184
v 8.413349 2.3115327 11.187988
v 8.414072 2.5558455 11.06697
v 18.361015 2.3281727 11.27237
v 18.361748 2.5724857 11.15135
v 8.249541 2.4442432 -1.7495166
v 8.374931 2.6890738 -1.7362646
v 8.164033 2.3104973 10.919443
v 8.289413 2.5553284 10.932705
v 18.465702 2.4684327 -1.9144115
v 18.456835 2.7094827 -1.7765234
v 8.518027 2.451806 -1.9987952
v 8.50916 2.6928551 -1.8609033
v 18.629501 2.3357341 11.023084
v 18.495985 2.576266 11.026711
v 18.715 2.46948 -1.6458764
v 18.581493 2.71 -1.6422656
v -4.1511474 0.85271335 14.181318
v -4.153589 1.1738663 14.022256
v -3.8053465 0.86267835 13.846098
v -3.9807274 1.1788613 13.854653
v -19.48989 0.829489 13.922221
v -19.324734 1.1513225 13.936098
v -19.154636 0.8308242 14.268076
v -19.157106 1.1519779 14.109018
v -3.876499 1.0386696 1.7887036
v -4.0518603 1.3548404 1.7972485
v -4.211753 1.0372927 1.4428637
v -4.219497 1.3541561 1.6243335
v -19.215271 1.0154364 1.5296289
v -19.222986 1.3322995 1.7110986
v -19.561037 1.0054955 1.8648363
v -19.395876 1.327329 1.878706
v -19.157106 1.1519779 14.109018
v -18.92716 1.3335283 13.553711
v -4.153589 1.1738663 14.022256
v -4.382583 1.3477616 13.461992
v -19.395876 1.327329 1.878706
v -18.999485 1.4998055 2.2833545
v -19.324734 1.1513225 13.936098
v -18.92716 1.3335283 13.553711
v -4.219497 1.3541561 1.6243335
v -4.454878 1.5140206 2.1916454
v -19.222986 1.3322995 1.7110986
v -18.999485 1.4998055 2.2833545
v -3.9807274 1.1788613 13.854653
v -4.382583 1.3477616 13.461992
v -4.0518603 1.3548404 1.7972485
v -4.454878 1.5140206 2.1916454
v -19.154636 0.8308242 14.268076
v -19.157106 1.1519779 14.109018
v -4.1511474 0.85271335 14.181318
v -4.153589 1.1738663 14.022256
v -19.561037 1.0054955 1.8648363
v -19.395876 1.327329 1.878706
v -19.48989 0.829489 13.922221
v -19.324734 1.1513225 13.936098
v -4.211753 1.0372927 1.4428637
v -4.219497 1.3541561 1.6243335
v -19.215271 1.0154364 1.5296289
v -19.222986 1.3322995 1.7110986
v -3.8053465 0.86267835 13.846098
v -3.9807274 1.1788613 13.854653
v -3.876499 1.0386696 1.7887036
v -4.0518603 1.3548404 1.7972485
v 19.465717 9.149099 14.047922
v 19.05188 9.149097 14.520763
v 19.244057 9.779494 14.062673
v 19.037123 9.779492 14.299089
v -19.299028 9.14914 -14.341141
v -18.88518 9.149141 -14.813968
v -19.077368 9.7795315 -14.355888
v -18.870434 9.779536 -14.592304
v 18.932808 9.149141 -14.935311
v 19.40564 9.149139 -14.521459
v 18.947563 9.779534 -14.713643
v 19.183979 9.77953 -14.506717
v 19.183979 9.77953 -14.506717
v 19.244057 9.779494 14.062673
v 18.59061 10.000429 -14.219658
v 18.649527 10.000413 13.807409
v -18.870434 9.779536 -14.592304
v 18.947563 9.779534 -14.713643
v -18.530474 10.000431 -14.100621
v 18.59061 10.000429 -14.219658
v -19.043804 9.779497 14.1129265
v -19.077368 9.7795315 -14.355888
v -18.521782 10.000413 13.926448
v -18.530474 10.000431 -14.100621
v 19.40564 9.149139 -14.521459
v 19.465717 9.149099 14.047922
v 19.183979 9.77953 -14.506717
v 19.244057 9.779494 14.062673
v -18.88518 9.149141 -14.813968
v 18.932808 9.149141 -14.935311
v -18.870434 9.779536 -14.592304
v 18.947563 9.779534 -14.713643
v 19.183008 4.1753864 13.05938
v 19.176338 4.481549 12.907878
v 19.503456 4.1848946 12.730586
v 19.336514 4.4863167 12.743479
v -18.113373 4.153245 12.72935
v -17.9556 4.4600544 12.7381
v -17.784527 4.15451 13.049849
v -17.791191 4.460679 12.898344
v 19.469873 4.352638 -10.325266
v 19.302988 4.6540365 -10.312387
v 19.141054 4.3513975 -10.645757
v 19.138584 4.653389 -10.472627
v -17.826479 4.3304906 -10.65528
v -17.828926 4.6325517 -10.482139
v -18.14691 4.3210125 -10.326494
v -17.98914 4.627813 -10.317746
v -17.791191 4.460679 12.898344
v -17.587084 4.633755 12.362964
v 19.176338 4.481549 12.907878
v 18.942928 4.64733 12.380188
v -17.98914 4.627813 -10.317746
v -17.600464 4.792237 -9.942878
v -17.9556 4.4600544 12.7381
v -17.587084 4.633755 12.362964
v 19.138584 4.653389 -10.472627
v 18.929628 4.8057895 -9.925651
v -17.828926 4.6325517 -10.482139
v -17.600464 4.792237 -9.942878
v 19.336514 4.4863167 12.743479
v 18.942928 4.64733 12.380188
v 19.302988 4.6540365 -10.312387
v 18.929628 4.8057895 -9.925651
v -17.784527 4.15451 13.049849
v -17.791191 4.460679 12.898344
v 19.183008 4.1753864 13.05938
v 19.176338 4.481549 12.907878
v -18.14691 4.3210125 -10.326494
v -17.98914 4.627813 -10.317746
v -18.113373 4.153245 12.72935
v -17.9556 4.4600544 12.7381
v 19.141054 4.3513975 -10.645757
v 19.138584 4.653389 -10.472627
v -17.826479 4.3304906 -10.65528
v -17.828926 4.6325517 -10.482139
v 19.503456 4.1848946 12.730586
v 19.336514 4.4863167 12.743479
v 19.469873 4.352638 -10.325266
v 19.302988 4.6540365 -10.312387
v 10.759961 2.1235075 -3.4790235
v 12.084745 1.8923283 13.502319
v -6.1536813 2.1037376 -2.917905
v -5.527422 1.8725446 13.93874
v 18.268515 2.8310955 -1.3489184
v 18.196777 2.7047534 10.721481
v 8.669775 2.8202825 -1.4220141
v 8.598046 2.6939306 10.648396
v -4.454878 1.5140206 2.1916454
v -4.382583 1.3477616 13.461992
v -18.999485 1.4998055 2.2833545
v -18.92716 1.3335283 13.553711
v -18.530474 10.000431 -14.100621
v 18.59061 10.000429 -14.219658
v -18.521782 10.000413 13.926448
v 18.649527 10.000413 13.807409
v 18.929628 4.8057895 -9.925651
v 18.942928 4.64733 12.380188
v -17.600464 4.792237 -9.942878
v -17.587084 4.633755 12.362964
vt -32.34375 3.53125
vt -32.40625 4.9726562
vt -32.28125 3.5605469
vt -32.3125 4.96875
vt -32.28125 3.5605469
vt -32.40625 4.9726562
vt -29.546875 5.0351562
vt -29.34375 3.6230469
vt -29.546875 5.03125
vt -29.4375 3.609375
vt -29.546875 5.03125
vt -29.34375 3.6230469
vt -32.28125 3.5605469
vt -32.1875 3.4140625
vt -32.34375 3.53125
vt -23.84375 4.3242188
vt -23.796875 4.328125
vt -23.828125 4.1757812
vt -29.34375 3.6230469
vt -29.359375 3.4960938
vt -29.4375 3.609375
vt -26.65625 4.0664062
vt -26.609375 4.0742188
vt -26.640625 3.9433594
vt -29.359375 3.4960938
vt -32.1875 3.4140625
vt -29.4375 3.609375
vt -32.28125 3.5605469
vt -29.4375 3.609375
vt -32.1875 3.4140625
vt -22.703125 11.7734375
vt -22.859375 13.625
vt -22.65625 11.7890625
vt -22.796875 13.625
vt -22.65625 11.7890625
vt -22.859375 13.625
vt -19.28125 13.8984375
vt -19.0625 12.0625
vt -19.296875 13.8984375
vt -19.09375 12.0625
vt -19.296875 13.8984375
vt -19.0625 12.0625
vt -20.8125 13.765625
vt -20.640625 11.9375
vt -20.828125 13.7734375
vt -20.6875 11.9375
vt -20.828125 13.7734375
vt -20.640625 11.9375
vt -22.65625 11.7890625
vt -22.625 11.703125
vt -22.703125 11.7734375
vt -17.09375 12.25
vt -17.078125 12.2578125
vt -17.09375 12.171875
vt -20.640625 11.9375
vt -20.65625 11.875
vt -20.6875 11.9375
vt -19.09375 12.0625
vt -19.0625 12.0625
vt -19.078125 11.9921875
vt -20.65625 11.875
vt -22.625 11.703125
vt -20.6875 11.9375
vt -22.65625 11.7890625
vt -20.6875 11.9375
vt -22.625 11.703125
vt -19.328125 -0.74316406
vt -19.359375 0.91259766
vt -19.25 -0.71972656
vt -19.265625 0.921875
vt -19.25 -0.71972656
vt -19.359375 0.91259766
vt -17.328125 0.9506836
vt -17.3125 -0.67578125
vt -17.375 0.9536133
vt -17.359375 -0.6796875
vt -17.375 0.9536133
vt -17.3125 -0.67578125
vt -19.25 -0.71972656
vt -19.203125 -0.84033203
vt -19.328125 -0.74316406
vt -13.0390625 -0.71533203
vt -12.984375 -0.70947266
vt -13.015625 -0.8208008
vt -17.3125 -0.67578125
vt -17.3125 -0.7890625
vt -17.359375 -0.6796875
vt -14.9765625 -0.68603516
vt -14.921875 -0.68310547
vt -14.9296875 -0.7939453
vt -26.234375 -12.40625
vt -26.328125 -12.421875
vt -26.296875 -11.4375
vt -26.40625 -11.4453125
vt -26.296875 -11.4375
vt -26.328125 -12.421875
vt -26.328125 -12.421875
vt -26.234375 -12.40625
vt -26.234375 -12.5546875
vt -20.1875 -12.140625
vt -20.25 -12.2890625
vt -20.28125 -12.140625
vt -9.59375 -12.203125
vt -9.5 -12.2109375
vt -9.5859375 -12.359375
vt -15.5546875 -12.1484375
vt -15.6484375 -12.296875
vt -15.6640625 -12.1484375
vt -36.125 4.1210938
vt -36.125 5.3515625
vt -36.0625 4.140625
vt -36.0625 5.3515625
vt -36.0625 4.140625
vt -36.125 5.3515625
vt -26.53125 5.4921875
vt -26.53125 4.28125
vt -26.578125 5.4921875
vt -26.578125 4.2734375
vt -26.578125 5.4921875
vt -26.53125 4.28125
vt -36.0625 4.140625
vt -36.03125 4.0351562
vt -36.125 4.1210938
vt -22.90625 4.2460938
vt -22.859375 4.25
vt -22.890625 4.1445312
vt -32.375 4.1640625
vt -32.40625 4.0820312
vt -32.4375 4.1640625
vt -26.578125 4.2734375
vt -26.53125 4.28125
vt -26.546875 4.1914062
vt -32.40625 4.0820312
vt -36.03125 4.0351562
vt -32.4375 4.1640625
vt -36.0625 4.140625
vt -32.4375 4.1640625
vt -36.03125 4.0351562
vt -21.046875 5.8867188
vt -20.96875 4.4609375
vt -23.90625 5.7460938
vt -23.796875 4.328125
vt -24 5.7421875
vt -23.84375 4.3242188
vt -26.78125 5.4804688
vt -26.609375 4.0742188
vt -26.859375 5.4726562
vt -26.65625 4.0664062
vt -29.546875 5.0351562
vt -29.34375 3.6230469
vt -29.546875 5.03125
vt -29.4375 3.609375
vt -32.3125 4.96875
vt -32.28125 3.5605469
vt -23.90625 5.7460938
vt -23.796875 4.328125
vt -24 5.7421875
vt -23.84375 4.3242188
vt -26.78125 5.4804688
vt -26.609375 4.0742188
vt -26.859375 5.4726562
vt -26.65625 4.0664062
vt -26.640625 3.9433594
vt -29.359375 3.4960938
vt -26.65625 4.0664062
vt -29.34375 3.6230469
vt -23.828125 4.1757812
vt -26.640625 3.9433594
vt -23.84375 4.3242188
vt -26.609375 4.0742188
vt -21.046875 4.2929688
vt -23.828125 4.1757812
vt -20.96875 4.4609375
vt -23.796875 4.328125
vt -15.7265625 14.25
vt -15.5390625 12.4140625
vt -17.28125 14.09375
vt -17.078125 12.2578125
vt -17.3125 14.09375
vt -17.09375 12.25
vt -19.28125 13.8984375
vt -19.0625 12.0625
vt -19.296875 13.8984375
vt -19.09375 12.0625
vt -20.8125 13.765625
vt -20.640625 11.9375
vt -20.828125 13.7734375
vt -20.6875 11.9375
vt -22.796875 13.625
vt -22.65625 11.7890625
vt -17.28125 14.09375
vt -17.078125 12.2578125
vt -17.3125 14.09375
vt -17.09375 12.25
vt -19.078125 11.9921875
vt -20.65625 11.875
vt -19.09375 12.0625
vt -20.640625 11.9375
vt -17.09375 12.171875
vt -19.078125 11.9921875
vt -17.09375 12.25
vt -19.0625 12.0625
vt -15.578125 12.3203125
vt -17.09375 12.171875
vt -15.5390625 12.4140625
vt -17.078125 12.2578125
vt -10.6328125 0.91064453
vt -10.6484375 -0.7246094
vt -12.9921875 0.93310547
vt -12.984375 -0.70947266
vt -13.046875 0.92822266
vt -13.0390625 -0.71533203
vt -14.921875 0.95214844
vt -14.921875 -0.68310547
vt -14.984375 0.95166016
vt -14.9765625 -0.68603516
vt -17.328125 0.9506836
vt -17.3125 -0.67578125
vt -17.375 0.9536133
vt -17.359375 -0.6796875
vt -19.265625 0.921875
vt -19.25 -0.71972656
vt -12.9921875 0.93310547
vt -12.984375 -0.70947266
vt -13.046875 0.92822266
vt -13.0390625 -0.71533203
vt -14.921875 0.95214844
vt -14.921875 -0.68310547
vt -14.984375 0.95166016
vt -14.9765625 -0.68603516
vt -17.3125 -0.7890625
vt -19.203125 -0.84033203
vt -17.359375 -0.6796875
vt -19.25 -0.71972656
vt -14.9296875 -0.7939453
vt -17.3125 -0.7890625
vt -14.9765625 -0.68603516
vt -17.3125 -0.67578125
vt -13.015625 -0.8208008
vt -14.9296875 -0.7939453
vt -13.0390625 -0.71533203
vt -14.921875 -0.68310547
vt -10.7109375 -0.83984375
vt -13.015625 -0.8208008
vt -10.6484375 -0.7246094
vt -12.984375 -0.70947266
vt -26.296875 -11.4375
vt -20.328125 -11.1328125
vt -26.234375 -12.40625
vt -20.28125 -12.140625
vt -20.203125 -11.1328125
vt -15.6796875 -11.140625
vt -20.1875 -12.140625
vt -15.6640625 -12.1484375
vt -15.5546875 -11.140625
vt -9.59375 -11.203125
vt -15.5546875 -12.1484375
vt -9.59375 -12.203125
vt -9.4921875 -11.203125
vt -5 -11.234375
vt -9.5 -12.2109375
vt -4.9960938 -12.2109375
vt -20.328125 -11.1328125
vt -20.203125 -11.1328125
vt -20.28125 -12.140625
vt -20.1875 -12.140625
vt -15.6796875 -11.140625
vt -15.5546875 -11.140625
vt -15.6640625 -12.1484375
vt -15.5546875 -12.1484375
vt -9.59375 -11.203125
vt -9.4921875 -11.203125
vt -9.59375 -12.203125
vt -9.5 -12.2109375
vt -9.5859375 -12.359375
vt -9.5 -12.2109375
vt -5.0195312 -12.3671875
vt -4.9960938 -12.2109375
vt -15.6484375 -12.296875
vt -15.5546875 -12.1484375
vt -9.5859375 -12.359375
vt -9.59375 -12.203125
vt -20.25 -12.2890625
vt -20.1875 -12.140625
vt -15.6484375 -12.296875
vt -15.6640625 -12.1484375
vt -26.234375 -12.5546875
vt -26.234375 -12.40625
vt -20.25 -12.2890625
vt -20.28125 -12.140625
vt -17.0625 5.46875
vt -17.0625 4.2539062
vt -22.875 5.4726562
vt -22.859375 4.25
vt -22.921875 5.46875
vt -22.90625 4.2460938
vt -26.53125 5.4921875
vt -26.53125 4.28125
vt -26.578125 5.4921875
vt -26.578125 4.2734375
vt -32.40625 5.3789062
vt -32.375 4.1640625
vt -32.4375 5.375
vt -32.4375 4.1640625
vt -36.0625 5.3515625
vt -36.0625 4.140625
vt -22.875 5.4726562
vt -22.859375 4.25
vt -22.921875 5.46875
vt -22.90625 4.2460938
vt -32.40625 5.3789062
vt -32.375 4.1640625
vt -32.4375 5.375
vt -32.4375 4.1640625
vt -26.546875 4.1914062
vt -32.40625 4.0820312
vt -26.578125 4.2734375
vt -32.375 4.1640625
vt -22.890625 4.1445312
vt -26.546875 4.1914062
vt -22.90625 4.2460938
vt -26.53125 4.28125
vt -17.125 4.1445312
vt -22.890625 4.1445312
vt -17.0625 4.2539062
vt -22.859375 4.25
vt 21.046875 -0.48095703
vt 21.0625 -1.5576172
vt 19.8125 -0.48217773
vt 19.8125 -1.5478516
vt 22.15625 0.32592773
vt 22.125 -0.44213867
vt 21.15625 0.36499023
vt 21.125 -0.41992188
vt 18.921875 5.4765625
vt 18.90625 3.5039062
vt 16.71875 5.5078125
vt 16.71875 3.5371094
vt 16.765625 -1.7421875
vt 16.765625 -4.8632812
vt 12.640625 -1.7285156
vt 12.640625 -4.8476562
vt 11.8203125 -12.546875
vt 16.9375 -12.5390625
vt 11.8203125 -15.71875
vt 16.984375 -15.7109375
vt 0.27075195 0.9628906
vt 0.27075195 0.61328125
vt 0.03060913 0.61328125
vt 0.27075195 0.9628906
vt 0.27075195 0.61328125
vt 0.03060913 0.61328125
vt 0.27075195 0.9628906
vt 0.27075195 0.61328125
vt 0.03060913 0.61328125
vt 0.27075195 0.9628906
vt 0.27075195 0.61328125
vt 0.03060913 0.61328125
vt 0.27075195 0.9628906
vt 0.27075195 0.61328125
vt 0.03060913 0.61328125
vt 0.27075195 0.9628906
vt 0.27075195 0.61328125
vt 0.03060913 0.61328125
vt 0.27075195 0.9628906
vt 0.27075195 0.61328125
vt 0.03060913 0.61328125
vt 0.27075195 0.9628906
vt 0.27075195 0.61328125
vt 0.03060913 0.61328125
vt 0.27075195 0.9628906
vt 0.27075195 0.61328125
vt 0.03060913 0.61328125
vt 0.27075195 0.9628906
vt 0.27075195 0.61328125
vt 0.03060913 0.61328125
vt 0.27075195 0.9628906
vt 0.27075195 0.61328125
vt 0.03060913 0.61328125
vt 0.27075195 0.9628906
vt 0.27075195 0.61328125
vt 0.03060913 0.61328125
vt 0.027618408 0.9404297
vt 0.027618408 0.61035156
vt 0.027618408 0.61035156
vt 0.027618408 0.9404297
vt 0.027618408 0.61035156
vt 0.027618408 0.61035156
vt 0.027618408 0.9404297
vt 0.027618408 0.61035156
vt 0.027618408 0.61035156
vt 0.027618408 0.9404297
vt 0.027618408 0.61035156
vt 0.027618408 0.61035156
vt 0.027618408 0.006668091
vt 0.027618408 0.006668091
vt 0.027618408 0.61035156
vt 0.027618408 0.61035156
vt 0.027618408 0.61035156
vt 0.027618408 0.006668091
vt 0.027618408 0.61035156
vt 1.1650391 0.61035156
vt 0.027618408 0.9404297
vt 1.1650391 0.9404297
vt 0.027618408 0.9404297
vt 1.1650391 0.61035156
vt 0.027618408 0.006668091
vt 1.1650391 0.006668091
vt 0.027618408 0.61035156
vt 1.1650391 0.61035156
vt 0.027618408 0.61035156
vt 1.1650391 0.006668091
vt 0.027618408 0.006668091
vt 1.1689453 0.006668091
vt 0.027618408 0.61035156
vt 1.1689453 0.61035156
vt 0.027618408 0.61035156
vt 1.1689453 0.006668091
vt 0.19628906 0.9663086
vt 0.17993164 0.6142578
vt 0.037200928 0.6142578
vt 0.19628906 0.9663086
vt 0.17993164 0.6142578
vt 0.037200928 0.6142578
vt 0.19628906 0.9663086
vt 0.17993164 0.6142578
vt 0.037200928 0.6142578
vt 0.19628906 0.9663086
vt 0.17993164 0.6142578
vt 0.037200928 0.6142578
vt 0.03060913 0.02067566
vt 0.03060913 0.61328125
vt 0.27075195 0.02067566
vt 0.27075195 0.61328125
vt 0.03060913 0.02067566
vt 0.03060913 0.61328125
vt 0.27075195 0.02067566
vt 0.27075195 0.61328125
vt 0.03060913 0.02067566
vt 0.03060913 0.61328125
vt 0.27075195 0.02067566
vt 0.27075195 0.61328125
vt 0.03060913 0.02067566
vt 0.03060913 0.61328125
vt 0.27075195 0.02067566
vt 0.27075195 0.61328125
vt 0.27075195 0.61328125
vt 0.27075195 0.9628906
vt 0.82714844 0.61328125
vt 0.82714844 0.9628906
vt 0.27075195 0.61328125
vt 0.27075195 0.9628906
vt 0.82714844 0.61328125
vt 0.82714844 0.9628906
vt 0.27075195 0.61328125
vt 0.27075195 0.9628906
vt 0.82714844 0.61328125
vt 0.82714844 0.9628906
vt 0.27075195 0.61328125
vt 0.27075195 0.9628906
vt 0.82714844 0.61328125
vt 0.82714844 0.9628906
vt 0.27075195 0.02067566
vt 0.27075195 0.61328125
vt 0.82714844 0.02067566
vt 0.82714844 0.61328125
vt 0.27075195 0.02067566
vt 0.27075195 0.61328125
vt 0.82714844 0.02067566
vt 0.82714844 0.61328125
vt 0.27075195 0.02067566
vt 0.27075195 0.61328125
vt 0.82714844 0.02067566
vt 0.82714844 0.61328125
vt 0.27075195 0.02067566
vt 0.27075195 0.61328125
vt 0.82714844 0.02067566
vt 0.82714844 0.61328125
vt 0.03060913 0.02067566
vt 0.03060913 0.61328125
vt 0.27075195 0.02067566
vt 0.27075195 0.61328125
vt 0.03060913 0.02067566
vt 0.03060913 0.61328125
vt 0.27075195 0.02067566
vt 0.27075195 0.61328125
vt 0.03060913 0.02067566
vt 0.03060913 0.61328125
vt 0.27075195 0.02067566
vt 0.27075195 0.61328125
vt 0.03060913 0.02067566
vt 0.03060913 0.61328125
vt 0.27075195 0.02067566
vt 0.27075195 0.61328125
vt 0.27075195 0.61328125
vt 0.27075195 0.9628906
vt 0.82714844 0.61328125
vt 0.82714844 0.9628906
vt 0.27075195 0.61328125
vt 0.27075195 0.9628906
vt 0.82714844 0.61328125
vt 0.82714844 0.9628906
vt 0.27075195 0.61328125
vt 0.27075195 0.9628906
vt 0.82714844 0.61328125
vt 0.82714844 0.9628906
vt 0.27075195 0.61328125
vt 0.27075195 0.9628906
vt 0.82714844 0.61328125
vt 0.82714844 0.9628906
vt 0.27075195 0.02067566
vt 0.27075195 0.61328125
vt 0.82714844 0.02067566
vt 0.82714844 0.61328125
vt 0.27075195 0.02067566
vt 0.27075195 0.61328125
vt 0.82714844 0.02067566
vt 0.82714844 0.61328125
vt 0.27075195 0.02067566
vt 0.27075195 0.61328125
vt 0.82714844 0.02067566
vt 0.82714844 0.61328125
vt 0.27075195 0.02067566
vt 0.27075195 0.61328125
vt 0.82714844 0.02067566
vt 0.82714844 0.61328125
vt 0.03060913 0.02067566
vt 0.03060913 0.61328125
vt 0.27075195 0.02067566
vt 0.27075195 0.61328125
vt 0.03060913 0.02067566
vt 0.03060913 0.61328125
vt 0.27075195 0.02067566
vt 0.27075195 0.61328125
vt 0.03060913 0.02067566
vt 0.03060913 0.61328125
vt 0.27075195 0.02067566
vt 0.27075195 0.61328125
vt 0.03060913 0.02067566
vt 0.03060913 0.61328125
vt 0.27075195 0.02067566
vt 0.27075195 0.61328125
vt 0.27075195 0.61328125
vt 0.27075195 0.9628906
vt 0.82714844 0.61328125
vt 0.82714844 0.9628906
vt 0.27075195 0.61328125
vt 0.27075195 0.9628906
vt 0.82714844 0.61328125
vt 0.82714844 0.9628906
vt 0.27075195 0.61328125
vt 0.27075195 0.9628906
vt 0.82714844 0.61328125
vt 0.82714844 0.9628906
vt 0.27075195 0.61328125
vt 0.27075195 0.9628906
vt 0.82714844 0.61328125
vt 0.82714844 0.9628906
vt 0.27075195 0.02067566
vt 0.27075195 0.61328125
vt 0.82714844 0.02067566
vt 0.82714844 0.61328125
vt 0.27075195 0.02067566
vt 0.27075195 0.61328125
vt 0.82714844 0.02067566
vt 0.82714844 0.61328125
vt 0.27075195 0.02067566
vt 0.27075195 0.61328125
vt 0.82714844 0.02067566
vt 0.82714844 0.61328125
vt 0.27075195 0.02067566
vt 0.27075195 0.61328125
vt 0.82714844 0.02067566
vt 0.82714844 0.61328125
vt 0.027618408 0.006668091
vt 0.027618408 0.006668091
vt 0.027618408 0.61035156
vt 0.027618408 0.61035156
vt 0.027618408 0.006668091
vt 0.027618408 0.006668091
vt 0.027618408 0.61035156
vt 0.027618408 0.61035156
vt 0.027618408 0.006668091
vt 0.027618408 0.006668091
vt 0.027618408 0.61035156
vt 0.027618408 0.61035156
vt 0.027618408 0.61035156
vt 1.1689453 0.61035156
vt 0.027618408 0.9404297
vt 1.1689453 0.9404297
vt 0.027618408 0.61035156
vt 1.1650391 0.61035156
vt 0.027618408 0.9404297
vt 1.1650391 0.9404297
vt 0.027618408 0.61035156
vt 1.1689453 0.61035156
vt 0.027618408 0.9404297
vt 1.1689453 0.9404297
vt 0.027618408 0.006668091
vt 1.1689453 0.006668091
vt 0.027618408 0.61035156
vt 1.1689453 0.61035156
vt 0.027618408 0.006668091
vt 1.1650391 0.006668091
vt 0.027618408 0.61035156
vt 1.1650391 0.61035156
vt 0.03262329 0.01386261
vt 0.037200928 0.6142578
vt 0.17443848 0.01386261
vt 0.17993164 0.6142578
vt 0.03262329 0.01386261
vt 0.037200928 0.6142578
vt 0.17443848 0.01386261
vt 0.17993164 0.6142578
vt 0.03262329 0.01386261
vt 0.037200928 0.6142578
vt 0.17443848 0.01386261
vt 0.17993164 0.6142578
vt 0.03262329 0.01386261
vt 0.037200928 0.6142578
vt 0.17443848 0.01386261
vt 0.17993164 0.6142578
vt 0.17993164 0.6142578
vt 0.19628906 0.9663086
vt 0.82910156 0.6142578
vt 0.82910156 0.9663086
vt 0.17993164 0.6142578
vt 0.19628906 0.9663086
vt 0.82910156 0.6142578
vt 0.82910156 0.9663086
vt 0.17993164 0.6142578
vt 0.19628906 0.9663086
vt 0.82910156 0.6142578
vt 0.82910156 0.9663086
vt 0.17993164 0.6142578
vt 0.19628906 0.9663086
vt 0.82910156 0.6142578
vt 0.82910156 0.9663086
vt 0.17443848 0.01386261
vt 0.17993164 0.6142578
vt 0.82910156 0.01386261
vt 0.82910156 0.6142578
vt 0.17443848 0.01386261
vt 0.17993164 0.6142578
vt 0.82910156 0.01386261
vt 0.82910156 0.6142578
vt 0.17443848 0.01386261
vt 0.17993164 0.6142578
vt 0.82910156 0.01386261
vt 0.82910156 0.6142578
vt 0.17443848 0.01386261
vt 0.17993164 0.6142578
vt 0.82910156 0.01386261
vt 0.82910156 0.6142578
vt 19.90625 22.25
vt 18.6875 22.25
vt 19.90625 23.3125
vt 18.703125 23.3125
vt 15.6484375 23.96875
vt 14.6875 23.96875
vt 15.6640625 24.734375
vt 14.6953125 24.75
vt 14.6640625 23.171875
vt 12.5 23.109375
vt 14.625 25.140625
vt 12.4609375 25.078125
vt 9.5 16.90625
vt 9.4296875 20.953125
vt 12.5546875 16.953125
vt 12.484375 21
vt 23.375 7.6484375
vt 20.28125 7.6367188
vt 23.359375 12.765625
vt 20.265625 12.7578125
vn 0.7036133 0.0045661926 0.7104492
vn 0.7036133 0.0045661926 0.7104492
vn 0.7036133 0.0045661926 0.7104492
vn 0.7036133 0.0045661926 0.7104492
vn 0.7036133 0.0045661926 0.7104492
vn 0.7036133 0.0045661926 0.7104492
vn 0.7104492 0.01171875 -0.7036133
vn 0.7104492 0.01171875 -0.7036133
vn 0.7104492 0.01171875 -0.7036133
vn 0.7104492 0.01171875 -0.7036133
vn 0.7104492 0.01171875 -0.7036133
vn 0.7104492 0.01171875 -0.7036133
vn 0.39746094 -0.83935547 0.3713379
vn 0.39746094 -0.83935547 0.3713379
vn 0.39746094 -0.83935547 0.3713379
vn -0.42163086 -0.8027344 0.42138672
vn -0.42163086 -0.8027344 0.42138672
vn -0.42163086 -0.8027344 0.42138672
vn 0.63427734 -0.453125 -0.62597656
vn 0.63427734 -0.453125 -0.62597656
vn 0.63427734 -0.453125 -0.62597656
vn -0.5263672 -0.64501953 -0.5541992
vn -0.5263672 -0.64501953 -0.5541992
vn -0.5263672 -0.64501953 -0.5541992
vn 0.80126953 -0.5961914 -0.04989624
vn 0.80126953 -0.5961914 -0.04989624
vn 0.80126953 -0.5961914 -0.04989624
vn 0.5683594 -0.8208008 -0.055419922
vn 0.5683594 -0.8208008 -0.055419922
vn 0.5683594 -0.8208008 -0.055419922
vn 0.6801758 0.0019245148 0.73291016
vn 0.6801758 0.0019245148 0.73291016
vn 0.6801758 0.0019245148 0.73291016
vn 0.6801758 0.0019245148 0.73291016
vn 0.6801758 0.0019245148 0.73291016
vn 0.6801758 0.0019245148 0.73291016
vn -0.6801758 -0.0006337166 -0.73291016
vn -0.6801758 -0.0006337166 -0.73291016
vn -0.6801758 -0.0006337166 -0.73291016
vn -0.6801758 -0.0006337166 -0.73291016
vn -0.6801758 -0.0006337166 -0.73291016
vn -0.6801758 -0.0006337166 -0.73291016
vn 0.73291016 0.004924774 -0.6801758
vn 0.73291016 0.004924774 -0.6801758
vn 0.73291016 0.004924774 -0.6801758
vn 0.73291016 0.004924774 -0.6801758
vn 0.73291016 0.004924774 -0.6801758
vn 0.73291016 0.004924774 -0.6801758
vn 0.3852539 -0.83935547 0.3840332
vn 0.3852539 -0.83935547 0.3840332
vn 0.3852539 -0.83935547 0.3840332
vn -0.4350586 -0.8027344 0.40771484
vn -0.4350586 -0.8027344 0.40771484
vn -0.4350586 -0.8027344 0.40771484
vn 0.6542969 -0.453125 -0.60546875
vn 0.6542969 -0.453125 -0.60546875
vn 0.6542969 -0.453125 -0.60546875
vn -0.5078125 -0.64501953 -0.5708008
vn -0.5078125 -0.64501953 -0.5708008
vn -0.5078125 -0.64501953 -0.5708008
vn 0.8017578 -0.59765625 0.013175964
vn 0.8017578 -0.59765625 0.013175964
vn 0.8017578 -0.59765625 0.013175964
vn 0.5605469 -0.828125 -0.006832123
vn 0.5605469 -0.828125 -0.006832123
vn 0.5605469 -0.828125 -0.006832123
vn 0.6958008 0.0028591156 0.7182617
vn 0.6958008 0.0028591156 0.7182617
vn 0.6958008 0.0028591156 0.7182617
vn 0.6958008 0.0028591156 0.7182617
vn 0.6958008 0.0028591156 0.7182617
vn 0.6958008 0.0028591156 0.7182617
vn 0.71777344 0.007320404 -0.6958008
vn 0.71777344 0.007320404 -0.6958008
vn 0.71777344 0.007320404 -0.6958008
vn 0.71777344 0.007320404 -0.6958008
vn 0.71777344 0.007320404 -0.6958008
vn 0.71777344 0.007320404 -0.6958008
vn 0.39331055 -0.83935547 0.37548828
vn 0.39331055 -0.83935547 0.37548828
vn 0.39331055 -0.83935547 0.37548828
vn -0.4260254 -0.8027344 0.41674805
vn -0.4260254 -0.8027344 0.41674805
vn -0.4260254 -0.8027344 0.41674805
vn 0.42919922 -0.80371094 -0.41210938
vn 0.42919922 -0.80371094 -0.41210938
vn 0.42919922 -0.80371094 -0.41210938
vn -0.41210938 -0.79003906 -0.45361328
vn -0.41210938 -0.79003906 -0.45361328
vn -0.41210938 -0.79003906 -0.45361328
vn -0.6586914 0.0041923523 0.7524414
vn -0.6586914 0.0041923523 0.7524414
vn -0.6586914 0.0041923523 0.7524414
vn -0.6586914 0.004196167 0.7524414
vn -0.6586914 0.004196167 0.7524414
vn -0.6586914 0.004196167 0.7524414
vn -0.61865234 -0.34204102 0.70703125
vn -0.61865234 -0.34204102 0.70703125
vn -0.61865234 -0.34204102 0.70703125
vn 0.70703125 -0.34204102 0.61865234
vn 0.70703125 -0.34204102 0.61865234
vn 0.70703125 -0.34204102 0.61865234
vn -0.70703125 -0.34204102 -0.61865234
vn -0.70703125 -0.34204102 -0.61865234
vn -0.70703125 -0.34204102 -0.61865234
vn 0.61865234 -0.34204102 -0.70703125
vn 0.61865234 -0.34204102 -0.70703125
vn 0.61865234 -0.34204102 -0.70703125
vn 0.7163086 0.003665924 0.6982422
vn 0.7163086 0.003665924 0.6982422
vn 0.7163086 0.003665924 0.6982422
vn 0.7163086 0.003665924 0.6982422
vn 0.7163086 0.003665924 0.6982422
vn 0.7163086 0.003665924 0.6982422
vn -0.7163086 -0.0012130737 -0.6977539
vn -0.7163086 -0.0012130737 -0.6977539
vn -0.7163086 -0.0012130737 -0.6977539
vn -0.7163086 -0.00121212 -0.6977539
vn -0.7163086 -0.00121212 -0.6977539
vn -0.7163086 -0.00121212 -0.6977539
vn 0.40405273 -0.83935547 0.3642578
vn 0.40405273 -0.83935547 0.3642578
vn 0.40405273 -0.83935547 0.3642578
vn -0.4140625 -0.8027344 0.42871094
vn -0.4140625 -0.8027344 0.42871094
vn -0.4140625 -0.8027344 0.42871094
vn 0.6230469 -0.453125 -0.63720703
vn 0.6230469 -0.453125 -0.63720703
vn 0.6230469 -0.453125 -0.63720703
vn -0.5361328 -0.64501953 -0.5449219
vn -0.5361328 -0.64501953 -0.5449219
vn -0.5361328 -0.64501953 -0.5449219
vn 0.80126953 -0.59814453 0.004470825
vn 0.80126953 -0.59814453 0.004470825
vn 0.80126953 -0.59814453 0.004470825
vn 0.5522461 -0.8334961 -0.008201599
vn 0.5522461 -0.8334961 -0.008201599
vn 0.5522461 -0.8334961 -0.008201599
vn 0.023910522 -0.002571106 0.9995117
vn 0.023910522 -0.002571106 0.9995117
vn 0.023910522 -0.002571106 0.9995117
vn 0.023910522 -0.0025691986 0.9995117
vn -0.9995117 -0.009399414 0.035308838
vn -0.9995117 -0.009399414 0.035308838
vn -0.9995117 -0.009399414 0.035308838
vn -0.9995117 -0.0096206665 0.035186768
vn -0.031951904 0.006866455 -0.9995117
vn -0.031951904 0.006866455 -0.9995117
vn -0.031951904 0.006866455 -0.9995117
vn -0.031982422 0.0068740845 -0.9995117
vn 0.9970703 0.009887695 -0.07354736
vn 0.9970703 0.009887695 -0.07354736
vn 0.9970703 0.009887695 -0.07354736
vn 0.9970703 0.009490967 -0.07330322
vn -0.7104492 -0.008575439 0.7036133
vn -0.7104492 -0.008575439 0.7036133
vn -0.7104492 -0.008575439 0.7036133
vn -0.7104492 -0.008575439 0.7036133
vn -0.7036133 -0.0015077591 -0.7104492
vn -0.7036133 -0.0015077591 -0.7104492
vn -0.7036133 -0.0015077591 -0.7104492
vn -0.7036133 -0.0015068054 -0.7104492
vn -0.02494812 -0.60595703 -0.79541016
vn -0.02494812 -0.60595703 -0.79541016
vn -0.02494812 -0.60595703 -0.79541016
vn -0.024520874 -0.5913086 -0.80615234
vn -0.62841797 -0.77783203 0.008255005
vn -0.62841797 -0.77783203 0.008255005
vn -0.62841797 -0.77783203 0.008255005
vn -0.6123047 -0.79052734 0.0085372925
vn 0.01486969 -0.83251953 0.5541992
vn 0.01486969 -0.83251953 0.5541992
vn 0.01486969 -0.83251953 0.5541992
vn 0.014915466 -0.8330078 0.55322266
vn -0.008483887 -0.001086235 1
vn -0.008483887 -0.001086235 1
vn -0.008483887 -0.001086235 1
vn -0.008476257 -0.0010852814 1
vn -1 -0.0039520264 -0.006790161
vn -1 -0.0039520264 -0.006790161
vn -1 -0.0039520264 -0.006790161
vn -1 -0.004016876 -0.0068511963
vn 0.008476257 0.0029182434 -1
vn 0.008476257 0.0029182434 -1
vn 0.008476257 0.0029182434 -1
vn 0.008476257 0.0029201508 -1
vn 1 0.004020691 0.006790161
vn 1 0.004020691 0.006790161
vn 1 0.004020691 0.006790161
vn 1 0.003955841 0.0068511963
vn -0.73291016 -0.0036182404 0.6801758
vn -0.73291016 -0.0036182404 0.6801758
vn -0.73291016 -0.0036182404 0.6801758
vn -0.73291016 -0.0036182404 0.6801758
vn 0.00730896 -0.6040039 -0.796875
vn 0.00730896 -0.6040039 -0.796875
vn 0.00730896 -0.6040039 -0.796875
vn 0.008049011 -0.5913086 -0.8066406
vn -0.62939453 -0.77685547 -0.015144348
vn -0.62939453 -0.77685547 -0.015144348
vn -0.62939453 -0.77685547 -0.015144348
vn -0.6123047 -0.79052734 -0.014328003
vn -0.0030784607 -0.83251953 0.5541992
vn -0.0030784607 -0.83251953 0.5541992
vn -0.0030784607 -0.83251953 0.5541992
vn -0.0029964447 -0.8330078 0.55322266
vn 0.005783081 -0.0016546249 1
vn 0.005783081 -0.0016546249 1
vn 0.005783081 -0.0016546249 1
vn 0.0057868958 -0.0016536713 1
vn -1 -0.0058555603 0.0058135986
vn -1 -0.0058555603 0.0058135986
vn -1 -0.0058555603 0.0058135986
vn -1 -0.005935669 0.005744934
vn -0.0057907104 0.0043792725 -1
vn -0.0057907104 0.0043792725 -1
vn -0.0057907104 0.0043792725 -1
vn -0.0057907104 0.004383087 -1
vn 1 0.005935669 -0.0058135986
vn 1 0.005935669 -0.0058135986
vn 1 0.005935669 -0.0058135986
vn 1 0.005859375 -0.005748749
vn -0.71777344 -0.0053710938 0.6958008
vn -0.71777344 -0.0053710938 0.6958008
vn -0.71777344 -0.0053710938 0.6958008
vn -0.71777344 -0.0053710938 0.6958008
vn -0.6958008 -0.00094366074 -0.71777344
vn -0.6958008 -0.00094366074 -0.71777344
vn -0.6958008 -0.00094366074 -0.71777344
vn -0.6958008 -0.0009441376 -0.71777344
vn 0.58447266 -0.81103516 -0.0158844
vn 0.58447266 -0.81103516 -0.0158844
vn 0.58447266 -0.81103516 -0.0158844
vn 0.5600586 -0.828125 -0.017990112
vn -0.003112793 -0.8046875 -0.59375
vn -0.003112793 -0.8046875 -0.59375
vn -0.003112793 -0.8046875 -0.59375
vn -0.0021343231 -0.7910156 -0.6118164
vn -0.6328125 -0.77441406 -0.01171875
vn -0.6328125 -0.77441406 -0.01171875
vn -0.6328125 -0.77441406 -0.01171875
vn -0.609375 -0.79296875 -0.010513306
vn 0.0044937134 -0.83154297 0.55566406
vn 0.0044937134 -0.83154297 0.55566406
vn 0.0044937134 -0.83154297 0.55566406
vn 0.004676819 -0.8334961 0.5522461
vn 0.0031814575 0.005924225 1
vn 0.0031814575 0.005924225 1
vn 0.0031814575 0.005924225 1
vn 0.0032081604 0.005760193 1
vn 1 0.00037026405 -0.0021038055
vn 1 0.00037026405 -0.0021038055
vn 1 0.00037026405 -0.0021038055
vn 1 1.5497208E-06 -0.0021858215
vn -0.0032081604 2.861023E-06 -1
vn -0.0032081604 2.861023E-06 -1
vn -0.0032081604 2.861023E-06 -1
vn -0.0032081604 3.2186508E-06 -1
vn -1 0 0.0021018982
vn -1 0 0.0021018982
vn -1 0 0.0021018982
vn -1 -0.00038337708 0.0021858215
vn 0.7524414 0.004081726 0.6586914
vn 0.7524414 0.004081726 0.6586914
vn 0.7524414 0.004081726 0.6586914
vn 0.7524414 0.004081726 0.6586914
vn 0.6586914 3.993511E-06 -0.7524414
vn 0.6586914 3.993511E-06 -0.7524414
vn 0.6586914 3.993511E-06 -0.7524414
vn 0.6586914 3.1590462E-06 -0.7524414
vn -0.7524414 3.2782555E-06 -0.6586914
vn -0.7524414 3.2782555E-06 -0.6586914
vn -0.7524414 3.2782555E-06 -0.6586914
vn -0.7524414 2.1457672E-06 -0.6586914
vn -0.88964844 -0.45703125 0.0019435883
vn -0.88964844 -0.45703125 0.0019435883
vn -0.88964844 -0.45703125 0.0019435883
vn -0.88964844 -0.45703125 0.0019426346
vn -0.0028533936 -0.45703125 -0.88964844
vn -0.0028533936 -0.45703125 -0.88964844
vn -0.0028533936 -0.45703125 -0.88964844
vn -0.0028533936 -0.45703125 -0.88964844
vn 0.88964844 -0.45703125 -0.0019445419
vn 0.88964844 -0.45703125 -0.0019445419
vn 0.88964844 -0.45703125 -0.0019445419
vn 0.88964844 -0.45703125 -0.0019445419
vn 0.0028533936 -0.45703125 0.88964844
vn 0.0028533936 -0.45703125 0.88964844
vn 0.0028533936 -0.45703125 0.88964844
vn 0.0028533936 -0.45703125 0.88964844
vn -0.0002565384 -0.0023841858 1
vn -0.0002565384 -0.0023841858 1
vn -0.0002565384 -0.0023841858 1
vn -0.00025558472 -0.002380371 1
vn -1 -0.0074424744 0.0013999939
vn -1 -0.0074424744 0.0013999939
vn -1 -0.0074424744 0.0013999939
vn -1 -0.0074386597 0.0014019012
vn 0.0002541542 0.0058898926 -1
vn 0.0002541542 0.0058898926 -1
vn 0.0002541542 0.0058898926 -1
vn 0.00025343895 0.0058937073 -1
vn 1 0.007446289 -0.0014028549
vn 1 0.007446289 -0.0014028549
vn 1 0.007446289 -0.0014028549
vn 1 0.0074424744 -0.0014019012
vn -0.6977539 -0.006893158 0.7163086
vn -0.6977539 -0.006893158 0.7163086
vn -0.6977539 -0.006893158 0.7163086
vn -0.6977539 -0.0068969727 0.7163086
vn 0.6977539 0.009407043 -0.7163086
vn 0.6977539 0.009407043 -0.7163086
vn 0.6977539 0.009407043 -0.7163086
vn 0.6977539 0.009407043 -0.7163086
vn 0.00054883957 -0.59472656 -0.80371094
vn 0.00054883957 -0.59472656 -0.80371094
vn 0.00054883957 -0.59472656 -0.80371094
vn 0.0006146431 -0.5908203 -0.8066406
vn -0.63720703 -0.7705078 -0.0067481995
vn -0.63720703 -0.7705078 -0.0067481995
vn -0.63720703 -0.7705078 -0.0067481995
vn -0.61328125 -0.79003906 -0.0061035156
vn 0.00010818243 -0.82666016 0.5625
vn 0.00010818243 -0.82666016 0.5625
vn 0.00010818243 -0.82666016 0.5625
vn 0.0004336834 -0.8359375 0.5488281
vn 0.0009522438 -1 -0.016693115
vn 0.0009522438 -1 -0.016693115
vn 0.0009522438 -1 -0.016693115
vn -0.0005636215 -1 -0.015083313
vn 0.0014696121 -1 -0.012840271
vn 0.0014696121 -1 -0.012840271
vn 0.0014696121 -1 -0.012840271
vn 1.9431114E-05 -1 -0.011749268
vn 0.001074791 -1 -0.018249512
vn 0.001074791 -1 -0.018249512
vn 0.001074791 -1 -0.018249512
vn -0.00016403198 -1 -0.016677856
vn -0 -1 -1.9073486E-06
vn -0 -1 -1.9073486E-06
vn -0 -1 -1.9073486E-06
vn -0 -1 -1.9073486E-06
vn 0.00045585632 -1 -0.00881958
vn 0.00045585632 -1 -0.00881958
vn 0.00045585632 -1 -0.00881958
vn -2.4020672E-05 -1 -0.008056641
vn 0.18884277 0.95751953 0.21887207
vn 0.18884277 0.95751953 0.21887207
vn 0.18884277 0.95751953 0.21887207
vn -0.22460938 0.94970703 0.21887207
vn -0.22460938 0.94970703 0.21887207
vn -0.22460938 0.94970703 0.21887207
vn 0.19116211 0.96240234 -0.19311523
vn 0.19116211 0.96240234 -0.19311523
vn 0.19116211 0.96240234 -0.19311523
vn -0.21887207 0.95654297 -0.1928711
vn -0.21887207 0.95654297 -0.1928711
vn -0.21887207 0.95654297 -0.1928711
vn 0.1817627 0.95751953 0.22485352
vn 0.1817627 0.95751953 0.22485352
vn 0.1817627 0.95751953 0.22485352
vn -0.23168945 0.94970703 0.21142578
vn -0.23168945 0.94970703 0.21142578
vn -0.23168945 0.94970703 0.21142578
vn 0.19726562 0.96240234 -0.18688965
vn 0.19726562 0.96240234 -0.18688965
vn 0.19726562 0.96240234 -0.18688965
vn -0.21252441 0.95654297 -0.19995117
vn -0.21252441 0.95654297 -0.19995117
vn -0.21252441 0.95654297 -0.19995117
vn 0.18652344 0.95751953 0.22094727
vn 0.18652344 0.95751953 0.22094727
vn 0.18652344 0.95751953 0.22094727
vn -0.22705078 0.94970703 0.21643066
vn -0.22705078 0.94970703 0.21643066
vn -0.22705078 0.94970703 0.21643066
vn 0.19311523 0.96240234 -0.19104004
vn 0.19311523 0.96240234 -0.19104004
vn 0.19311523 0.96240234 -0.19104004
vn -0.21679688 0.95654297 -0.1953125
vn -0.21679688 0.95654297 -0.1953125
vn -0.21679688 0.95654297 -0.1953125
vn -0.29663086 0.9194336 0.25878906
vn -0.29663086 0.9194336 0.25878906
vn -0.29663086 0.9194336 0.25878906
vn 0.2541504 0.94140625 0.22253418
vn 0.2541504 0.94140625 0.22253418
vn 0.2541504 0.94140625 0.22253418
vn -0.2680664 0.9345703 -0.23449707
vn -0.2680664 0.9345703 -0.23449707
vn -0.2680664 0.9345703 -0.23449707
vn 0.2253418 0.9394531 -0.25732422
vn 0.2253418 0.9394531 -0.25732422
vn 0.2253418 0.9394531 -0.25732422
vn -0.6489258 0.17297363 0.74121094
vn -0.6489258 0.17297363 0.74121094
vn -0.6489258 0.17297363 0.74121094
vn -0.7260742 0.26708984 0.6333008
vn -0.7260742 0.26708984 0.6333008
vn -0.7260742 0.26708984 0.6333008
vn 0.00248909 0.91308594 0.40820312
vn 0.00248909 0.91308594 0.40820312
vn 0.00248909 0.91308594 0.40820312
vn 0.0011034012 0.93896484 0.34448242
vn 0.0011034012 0.93896484 0.34448242
vn 0.0011034012 0.93896484 0.34448242
vn 0.001502037 0.3317871 0.9433594
vn 0.001502037 0.3317871 0.9433594
vn 0.001502037 0.3317871 0.9433594
vn 0.006038666 0.1385498 0.9902344
vn 0.006038666 0.1385498 0.9902344
vn 0.006038666 0.1385498 0.9902344
vn -0.9716797 0.23632812 0.0034809113
vn -0.9716797 0.23632812 0.0034809113
vn -0.9716797 0.23632812 0.0034809113
vn -0.9433594 0.3317871 0.0011129379
vn -0.9433594 0.3317871 0.0011129379
vn -0.9433594 0.3317871 0.0011129379
vn 0.19274902 0.95751953 0.2154541
vn 0.19274902 0.95751953 0.2154541
vn 0.19274902 0.95751953 0.2154541
vn -0.2208252 0.94970703 0.22277832
vn -0.2208252 0.94970703 0.22277832
vn -0.2208252 0.94970703 0.22277832
vn 0.18762207 0.96240234 -0.19641113
vn 0.18762207 0.96240234 -0.19641113
vn 0.18762207 0.96240234 -0.19641113
vn -0.22229004 0.95654297 -0.18908691
vn -0.22229004 0.95654297 -0.18908691
vn -0.22229004 0.95654297 -0.18908691
vn 0.65625 0.34155273 0.67285156
vn 0.65625 0.34155273 0.67285156
vn 0.65625 0.34155273 0.67285156
vn 0.65625 0.34179688 0.67285156
vn -0.67333984 0.32104492 0.6660156
vn -0.67333984 0.32104492 0.6660156
vn -0.67333984 0.32104492 0.6660156
vn -0.67333984 0.32104492 0.6660156
vn 0.65527344 0.38452148 -0.6503906
vn 0.65527344 0.38452148 -0.6503906
vn 0.65527344 0.38452148 -0.6503906
vn 0.65527344 0.38452148 -0.6503906
vn -0.66064453 0.36401367 -0.65625
vn -0.66064453 0.36401367 -0.65625
vn -0.66064453 0.36401367 -0.65625
vn -0.66064453 0.36401367 -0.65625
vn 0.0058670044 0.9501953 0.31176758
vn 0.0058670044 0.9501953 0.31176758
vn 0.0058670044 0.9501953 0.31176758
vn 0.0062408447 0.9555664 0.29516602
vn -0.41796875 0.9082031 0.027191162
vn -0.41796875 0.9082031 0.027191162
vn -0.41796875 0.9082031 0.027191162
vn -0.39770508 0.9169922 0.027359009
vn -0.010421753 0.96191406 -0.27392578
vn -0.010421753 0.96191406 -0.27392578
vn -0.010421753 0.96191406 -0.27392578
vn -0.010353088 0.9604492 -0.27807617
vn 0.39770508 0.91748047 -0.016952515
vn 0.39770508 0.91748047 -0.016952515
vn 0.39770508 0.91748047 -0.016952515
vn 0.35766602 0.93359375 -0.015182495
vn 0.02067566 0.44384766 0.8959961
vn 0.02067566 0.44384766 0.8959961
vn 0.02067566 0.44384766 0.8959961
vn 0.02067566 0.44384766 0.8959961
vn -0.88964844 0.4555664 0.037750244
vn -0.88964844 0.4555664 0.037750244
vn -0.88964844 0.4555664 0.037750244
vn -0.88964844 0.45532227 0.037750244
vn -0.02859497 0.49658203 -0.8676758
vn -0.02859497 0.49658203 -0.8676758
vn -0.02859497 0.49658203 -0.8676758
vn -0.02859497 0.49658203 -0.8676758
vn 0.8725586 0.4855957 -0.057861328
vn 0.8725586 0.4855957 -0.057861328
vn 0.8725586 0.4855957 -0.057861328
vn 0.8725586 0.48535156 -0.057861328
vn 0.63427734 0.34155273 0.6933594
vn 0.63427734 0.34155273 0.6933594
vn 0.63427734 0.34155273 0.6933594
vn 0.63427734 0.34155273 0.6933594
vn -0.6948242 0.32080078 0.6435547
vn -0.6948242 0.32080078 0.6435547
vn -0.6948242 0.32080078 0.6435547
vn -0.6948242 0.32104492 0.6435547
vn 0.67578125 0.38452148 -0.62890625
vn 0.67578125 0.38452148 -0.62890625
vn 0.67578125 0.38452148 -0.62890625
vn 0.67578125 0.38452148 -0.62890625
vn -0.63916016 0.36401367 -0.6772461
vn -0.63916016 0.36401367 -0.6772461
vn -0.63916016 0.36401367 -0.6772461
vn -0.63916016 0.36401367 -0.6772461
vn -0.004234314 0.9501953 0.31152344
vn -0.004234314 0.9501953 0.31152344
vn -0.004234314 0.9501953 0.31152344
vn -0.0033245087 0.9555664 0.29516602
vn -0.41259766 0.91064453 0.006832123
vn -0.41259766 0.91064453 0.006832123
vn -0.41259766 0.91064453 0.006832123
vn -0.40405273 0.9145508 0.007171631
vn 0.0007100105 0.96191406 -0.27319336
vn 0.0007100105 0.96191406 -0.27319336
vn 0.0007100105 0.96191406 -0.27319336
vn 0.0010442734 0.9604492 -0.27929688
vn 0.38378906 0.92333984 0.012336731
vn 0.38378906 0.92333984 0.012336731
vn 0.38378906 0.92333984 0.012336731
vn 0.37060547 0.92871094 0.011924744
vn -0.008346558 0.44384766 0.8959961
vn -0.008346558 0.44384766 0.8959961
vn -0.008346558 0.44384766 0.8959961
vn -0.008346558 0.44384766 0.8959961
vn -0.8901367 0.45581055 -0.0011940002
vn -0.8901367 0.45581055 -0.0011940002
vn -0.8901367 0.45581055 -0.0011940002
vn -0.8901367 0.45581055 -0.0011949539
vn 0.0065307617 0.49658203 -0.8676758
vn 0.0065307617 0.49658203 -0.8676758
vn 0.0065307617 0.49658203 -0.8676758
vn 0.0065307617 0.49682617 -0.8676758
vn 0.8745117 0.48510742 0.011024475
vn 0.8745117 0.48510742 0.011024475
vn 0.8745117 0.48510742 0.011024475
vn 0.8745117 0.48510742 0.011024475
vn 0.6489258 0.34155273 0.6796875
vn 0.6489258 0.34155273 0.6796875
vn 0.6489258 0.34155273 0.6796875
vn 0.6489258 0.34155273 0.6796875
vn -0.68066406 0.32080078 0.6586914
vn -0.68066406 0.32080078 0.6586914
vn -0.68066406 0.32080078 0.6586914
vn -0.68066406 0.32104492 0.6586914
vn 0.6621094 0.38452148 -0.6430664
vn 0.6621094 0.38452148 -0.6430664
vn 0.6621094 0.38452148 -0.6430664
vn 0.6621094 0.38452148 -0.6430664
vn -0.6538086 0.36401367 -0.6635742
vn -0.6538086 0.36401367 -0.6635742
vn -0.6538086 0.36401367 -0.6635742
vn -0.6538086 0.36401367 -0.6635742
vn 0.00041127205 0.9506836 0.31079102
vn 0.00041127205 0.9506836 0.31079102
vn 0.00041127205 0.9506836 0.31079102
vn 0.00093221664 0.9550781 0.29614258
vn -0.41235352 0.91064453 0.015731812
vn -0.41235352 0.91064453 0.015731812
vn -0.41235352 0.91064453 0.015731812
vn -0.4038086 0.9145508 0.016082764
vn -0.0029773712 0.96240234 -0.27246094
vn -0.0029773712 0.96240234 -0.27246094
vn -0.0029773712 0.96240234 -0.27246094
vn -0.002702713 0.95996094 -0.2800293
vn 0.37817383 0.92578125 0.0112838745
vn 0.37817383 0.92578125 0.0112838745
vn 0.37817383 0.92578125 0.0112838745
vn 0.37695312 0.92626953 0.011245728
vn 0.004535675 0.44384766 0.8959961
vn 0.004535675 0.44384766 0.8959961
vn 0.004535675 0.44384766 0.8959961
vn 0.004535675 0.44384766 0.8959961
vn -0.88964844 0.4560547 0.011909485
vn -0.88964844 0.4560547 0.011909485
vn -0.88964844 0.4560547 0.011909485
vn -0.88964844 0.4560547 0.011909485
vn -0.0057411194 0.49682617 -0.8676758
vn -0.0057411194 0.49682617 -0.8676758
vn -0.0057411194 0.49682617 -0.8676758
vn -0.0057411194 0.49682617 -0.8676758
vn 0.8745117 0.48510742 0.0019187927
vn 0.8745117 0.48510742 0.0019187927
vn 0.8745117 0.48510742 0.0019187927
vn 0.8745117 0.48510742 0.0019197464
vn 0.72998047 0.24182129 0.63916016
vn 0.72998047 0.24182129 0.63916016
vn 0.72998047 0.24182129 0.63916016
vn 0.72998047 0.24182129 0.63916016
vn -0.72998047 0.24182129 -0.63916016
vn -0.72998047 0.24182129 -0.63916016
vn -0.72998047 0.24182129 -0.63916016
vn -0.72998047 0.24182129 -0.63916016
vn 0.63916016 0.24182129 -0.72998047
vn 0.63916016 0.24182129 -0.72998047
vn 0.63916016 0.24182129 -0.72998047
vn 0.63916016 0.24182129 -0.72998047
vn 0.3486328 0.9375 -0.00073194504
vn 0.3486328 0.9375 -0.00073194504
vn 0.3486328 0.9375 -0.00073194504
vn 0.3486328 0.9375 -0.0007324219
vn -0.0013122559 0.91259766 -0.40893555
vn -0.0013122559 0.91259766 -0.40893555
vn -0.0013122559 0.91259766 -0.40893555
vn -0.0013113022 0.91259766 -0.40893555
vn -0.38964844 0.92089844 0.00046038628
vn -0.38964844 0.92089844 0.00046038628
vn -0.38964844 0.92089844 0.00046038628
vn -0.37451172 0.9272461 0.0001167655
vn 0.9433594 0.3317871 -0.0019836426
vn 0.9433594 0.3317871 -0.0019836426
vn 0.9433594 0.3317871 -0.0019836426
vn 0.9433594 0.3317871 -0.0019836426
vn -0.0030269623 0.3317871 -0.9433594
vn -0.0030269623 0.3317871 -0.9433594
vn -0.0030269623 0.3317871 -0.9433594
vn -0.0030269623 0.3317871 -0.9433594
vn 0.66796875 0.34155273 0.6611328
vn 0.66796875 0.34155273 0.6611328
vn 0.66796875 0.34155273 0.6611328
vn 0.66796875 0.34179688 0.66064453
vn -0.6616211 0.32104492 0.6777344
vn -0.6616211 0.32104492 0.6777344
vn -0.6616211 0.32104492 0.6777344
vn -0.6616211 0.32080078 0.6777344
vn 0.6435547 0.38452148 -0.6616211
vn 0.6435547 0.38452148 -0.6616211
vn 0.6435547 0.38452148 -0.6616211
vn 0.6435547 0.38476562 -0.6616211
vn -0.6723633 0.36401367 -0.64453125
vn -0.6723633 0.36401367 -0.64453125
vn -0.6723633 0.36401367 -0.64453125
vn -0.6723633 0.36401367 -0.64453125
vn -0.00061655045 0.95166016 0.30737305
vn -0.00061655045 0.95166016 0.30737305
vn -0.00061655045 0.95166016 0.30737305
vn -0.00049591064 0.95410156 0.2998047
vn -0.3955078 0.91845703 0.007259369
vn -0.3955078 0.91845703 0.007259369
vn -0.3955078 0.91845703 0.007259369
vn -0.4206543 0.90722656 0.0066986084
vn -0.00047397614 0.9633789 -0.2685547
vn -0.00047397614 0.9633789 -0.2685547
vn -0.00047397614 0.9633789 -0.2685547
vn -0.00022184849 0.9589844 -0.28393555
vn 0.3737793 0.9277344 0.0062026978
vn 0.3737793 0.9277344 0.0062026978
vn 0.3737793 0.9277344 0.0062026978
vn 0.38208008 0.9243164 0.006336212
vn -0.00048160553 0.44360352 0.8964844
vn -0.00048160553 0.44360352 0.8964844
vn -0.00048160553 0.44360352 0.8964844
vn -0.00048160553 0.44360352 0.8964844
vn -0.88916016 0.4572754 0.0046195984
vn -0.88916016 0.4572754 0.0046195984
vn -0.88916016 0.4572754 0.0046195984
vn -0.88916016 0.4572754 0.0046195984
vn -5.7816505E-05 0.49731445 -0.8676758
vn -5.7816505E-05 0.49731445 -0.8676758
vn -5.7816505E-05 0.49731445 -0.8676758
vn -5.710125E-05 0.49731445 -0.8676758
vn 0.875 0.484375 0.0022506714
vn 0.875 0.484375 0.0022506714
vn 0.875 0.484375 0.0022506714
vn 0.875 0.484375 0.0022506714
vn -0.00071525574 1 0.013671875
vn -0.00071525574 1 0.013671875
vn -0.00071525574 1 0.013671875
vn -0.0007824898 1 0.01374054
vn -0.001206398 1 0.0104599
vn -0.001206398 1 0.0104599
vn -0.001206398 1 0.0104599
vn -0.0012073517 1 0.0104599
vn -0.0008840561 1 0.014755249
vn -0.0008840561 1 0.014755249
vn -0.0008840561 1 0.014755249
vn -0.0008854866 1 0.014755249
vn -0 1 6.556511E-07
vn -0 1 6.556511E-07
vn -0 1 6.556511E-07
vn -0 1 5.9604645E-07
vn -0.00037431717 1 0.0071029663
vn -0.00037431717 1 0.0071029663
vn -0.00037431717 1 0.0071029663
vn -0.00037503242 1 0.007106781
g C003_BB01_0
f 3/3/3 2/2/2 1/1/1
f 6/6/6 5/5/5 4/4/4
f 9/9/9 8/8/8 7/7/7
f 12/12/12 11/11/11 10/10/10
f 15/15/15 14/14/14 13/13/13
f 18/18/18 17/17/17 16/16/16
f 21/21/21 20/20/20 19/19/19
f 24/24/24 23/23/23 22/22/22
f 27/27/27 26/26/26 25/25/25
f 30/30/30 29/29/29 28/28/28
f 33/33/33 32/32/32 31/31/31
f 36/36/36 35/35/35 34/34/34
f 39/39/39 38/38/38 37/37/37
f 42/42/42 41/41/41 40/40/40
f 45/45/45 44/44/44 43/43/43
f 48/48/48 47/47/47 46/46/46
f 51/51/51 50/50/50 49/49/49
f 54/54/54 53/53/53 52/52/52
f 57/57/57 56/56/56 55/55/55
f 60/60/60 59/59/59 58/58/58
f 63/63/63 62/62/62 61/61/61
f 66/66/66 65/65/65 64/64/64
f 69/69/69 68/68/68 67/67/67
f 72/72/72 71/71/71 70/70/70
f 75/75/75 74/74/74 73/73/73
f 78/78/78 77/77/77 76/76/76
f 81/81/81 80/80/80 79/79/79
f 84/84/84 83/83/83 82/82/82
f 87/87/87 86/86/86 85/85/85
f 90/90/90 89/89/89 88/88/88
f 93/93/93 92/92/92 91/91/91
f 96/96/96 95/95/95 94/94/94
f 99/99/99 98/98/98 97/97/97
f 102/102/102 101/101/101 100/100/100
f 105/105/105 104/104/104 103/103/103
f 108/108/108 107/107/107 106/106/106
f 111/111/111 110/110/110 109/109/109
f 114/114/114 113/113/113 112/112/112
f 117/117/117 116/116/116 115/115/115
f 120/120/120 119/119/119 118/118/118
f 123/123/123 122/122/122 121/121/121
f 126/126/126 125/125/125 124/124/124
f 129/129/129 128/128/128 127/127/127
f 132/132/132 131/131/131 130/130/130
f 135/135/135 134/134/134 133/133/133
f 138/138/138 137/137/137 136/136/136
f 141/141/141 140/140/140 139/139/139
f 140/140/140 141/141/141 142/142/142
f 145/145/145 144/144/144 143/143/143
f 144/144/144 145/145/145 146/146/146
f 149/149/149 148/148/148 147/147/147
f 148/148/148 149/149/149 150/150/150
f 153/153/153 152/152/152 151/151/151
f 152/152/152 153/153/153 154/154/154
f 157/157/157 156/156/156 155/155/155
f 156/156/156 157/157/157 158/158/158
f 161/161/161 160/160/160 159/159/159
f 160/160/160 161/161/161 162/162/162
f 165/165/165 164/164/164 163/163/163
f 164/164/164 165/165/165 166/166/166
f 169/169/169 168/168/168 167/167/167
f 168/168/168 169/169/169 170/170/170
f 173/173/173 172/172/172 171/171/171
f 172/172/172 173/173/173 174/174/174
f 177/177/177 176/176/176 175/175/175
f 176/176/176 177/177/177 178/178/178
f 181/181/181 180/180/180 179/179/179
f 180/180/180 181/181/181 182/182/182
f 185/185/185 184/184/184 183/183/183
f 184/184/184 185/185/185 186/186/186
f 189/189/189 188/188/188 187/187/187
f 188/188/188 189/189/189 190/190/190
f 193/193/193 192/192/192 191/191/191
f 192/192/192 193/193/193 194/194/194
f 197/197/197 196/196/196 195/195/195
f 196/196/196 197/197/197 198/198/198
f 201/201/201 200/200/200 199/199/199
f 200/200/200 201/201/201 202/202/202
f 205/205/205 204/204/204 203/203/203
f 204/204/204 205/205/205 206/206/206
f 209/209/209 208/208/208 207/207/207
f 208/208/208 209/209/209 210/210/210
f 213/213/213 212/212/212 211/211/211
f 212/212/212 213/213/213 214/214/214
f 217/217/217 216/216/216 215/215/215
f 216/216/216 217/217/217 218/218/218
f 221/221/221 220/220/220 219/219/219
f 220/220/220 221/221/221 222/222/222
f 225/225/225 224/224/224 223/223/223
f 224/224/224 225/225/225 226/226/226
f 229/229/229 228/228/228 227/227/227
f 228/228/228 229/229/229 230/230/230
f 233/233/233 232/232/232 231/231/231
f 232/232/232 233/233/233 234/234/234
f 237/237/237 236/236/236 235/235/235
f 236/236/236 237/237/237 238/238/238
f 241/241/241 240/240/240 239/239/239
f 240/240/240 241/241/241 242/242/242
f 245/245/245 244/244/244 243/243/243
f 244/244/244 245/245/245 246/246/246
f 249/249/249 248/248/248 247/247/247
f 248/248/248 249/249/249 250/250/250
f 253/253/253 252/252/252 251/251/251
f 252/252/252 253/253/253 254/254/254
f 257/257/257 256/256/256 255/255/255
f 256/256/256 257/257/257 258/258/258
f 261/261/261 260/260/260 259/259/259
f 260/260/260 261/261/261 262/262/262
f 265/265/265 264/264/264 263/263/263
f 264/264/264 265/265/265 266/266/266
f 269/269/269 268/268/268 267/267/267
f 268/268/268 269/269/269 270/270/270
f 273/273/273 272/272/272 271/271/271
f 272/272/272 273/273/273 274/274/274
f 277/277/277 276/276/276 275/275/275
f 276/276/276 277/277/277 278/278/278
f 281/281/281 280/280/280 279/279/279
f 280/280/280 281/281/281 282/282/282
f 285/285/285 284/284/284 283/283/283
f 284/284/284 285/285/285 286/286/286
f 289/289/289 288/288/288 287/287/287
f 288/288/288 289/289/289 290/290/290
f 293/293/293 292/292/292 291/291/291
f 292/292/292 293/293/293 294/294/294
f 297/297/297 296/296/296 295/295/295
f 296/296/296 297/297/297 298/298/298
f 301/301/301 300/300/300 299/299/299
f 300/300/300 301/301/301 302/302/302
f 305/305/305 304/304/304 303/303/303
f 304/304/304 305/305/305 306/306/306
f 309/309/309 308/308/308 307/307/307
f 308/308/308 309/309/309 310/310/310
f 313/313/313 312/312/312 311/311/311
f 312/312/312 313/313/313 314/314/314
f 317/317/317 316/316/316 315/315/315
f 316/316/316 317/317/317 318/318/318
f 321/321/321 320/320/320 319/319/319
f 320/320/320 321/321/321 322/322/322
f 325/325/325 324/324/324 323/323/323
f 324/324/324 325/325/325 326/326/326
g C003_BB01_1
f 329/329/329 328/328/328 327/327/327
f 328/328/328 329/329/329 330/330/330
f 333/333/333 332/332/332 331/331/331
f 332/332/332 333/333/333 334/334/334
f 337/337/337 336/336/336 335/335/335
f 336/336/336 337/337/337 338/338/338
f 341/341/341 340/340/340 339/339/339
f 340/340/340 341/341/341 342/342/342
f 345/345/345 344/344/344 343/343/343
f 344/344/344 345/345/345 346/346/346
g C003_BB01_2
f 349/349/349 348/348/348 347/347/347
f 352/352/352 351/351/351 350/350/350
f 355/355/355 354/354/354 353/353/353
f 358/358/358 357/357/357 356/356/356
f 361/361/361 360/360/360 359/359/359
f 364/364/364 363/363/363 362/362/362
f 367/367/367 366/366/366 365/365/365
f 370/370/370 369/369/369 368/368/368
f 373/373/373 372/372/372 371/371/371
f 376/376/376 375/375/375 374/374/374
f 379/379/379 378/378/378 377/377/377
f 382/382/382 381/381/381 380/380/380
f 385/385/385 384/384/384 383/383/383
f 388/388/388 387/387/387 386/386/386
f 391/391/391 390/390/390 389/389/389
f 394/394/394 393/393/393 392/392/392
f 397/397/397 396/396/396 395/395/395
f 400/400/400 399/399/399 398/398/398
f 403/403/403 402/402/402 401/401/401
f 406/406/406 405/405/405 404/404/404
f 409/409/409 408/408/408 407/407/407
f 412/412/412 411/411/411 410/410/410
f 415/415/415 414/414/414 413/413/413
f 418/418/418 417/417/417 416/416/416
f 421/421/421 420/420/420 419/419/419
f 424/424/424 423/423/423 422/422/422
f 427/427/427 426/426/426 425/425/425
f 430/430/430 429/429/429 428/428/428
f 433/433/433 432/432/432 431/431/431
f 432/432/432 433/433/433 434/434/434
f 437/437/437 436/436/436 435/435/435
f 436/436/436 437/437/437 438/438/438
f 441/441/441 440/440/440 439/439/439
f 440/440/440 441/441/441 442/442/442
f 445/445/445 444/444/444 443/443/443
f 444/444/444 445/445/445 446/446/446
f 449/449/449 448/448/448 447/447/447
f 448/448/448 449/449/449 450/450/450
f 453/453/453 452/452/452 451/451/451
f 452/452/452 453/453/453 454/454/454
f 457/457/457 456/456/456 455/455/455
f 456/456/456 457/457/457 458/458/458
f 461/461/461 460/460/460 459/459/459
f 460/460/460 461/461/461 462/462/462
f 465/465/465 464/464/464 463/463/463
f 464/464/464 465/465/465 466/466/466
f 469/469/469 468/468/468 467/467/467
f 468/468/468 469/469/469 470/470/470
f 473/473/473 472/472/472 471/471/471
f 472/472/472 473/473/473 474/474/474
f 477/477/477 476/476/476 475/475/475
f 476/476/476 477/477/477 478/478/478
f 481/481/481 480/480/480 479/479/479
f 480/480/480 481/481/481 482/482/482
f 485/485/485 484/484/484 483/483/483
f 484/484/484 485/485/485 486/486/486
f 489/489/489 488/488/488 487/487/487
f 488/488/488 489/489/489 490/490/490
f 493/493/493 492/492/492 491/491/491
f 492/492/492 493/493/493 494/494/494
f 497/497/497 496/496/496 495/495/495
f 496/496/496 497/497/497 498/498/498
f 501/501/501 500/500/500 499/499/499
f 500/500/500 501/501/501 502/502/502
f 505/505/505 504/504/504 503/503/503
f 504/504/504 505/505/505 506/506/506
f 509/509/509 508/508/508 507/507/507
f 508/508/508 509/509/509 510/510/510
f 513/513/513 512/512/512 511/511/511
f 512/512/512 513/513/513 514/514/514
f 517/517/517 516/516/516 515/515/515
f 516/516/516 517/517/517 518/518/518
f 521/521/521 520/520/520 519/519/519
f 520/520/520 521/521/521 522/522/522
f 525/525/525 524/524/524 523/523/523
f 524/524/524 525/525/525 526/526/526
f 529/529/529 528/528/528 527/527/527
f 528/528/528 529/529/529 530/530/530
f 533/533/533 532/532/532 531/531/531
f 532/532/532 533/533/533 534/534/534
f 537/537/537 536/536/536 535/535/535
f 536/536/536 537/537/537 538/538/538
f 541/541/541 540/540/540 539/539/539
f 540/540/540 541/541/541 542/542/542
f 545/545/545 544/544/544 543/543/543
f 544/544/544 545/545/545 546/546/546
f 549/549/549 548/548/548 547/547/547
f 548/548/548 549/549/549 550/550/550
f 553/553/553 552/552/552 551/551/551
f 552/552/552 553/553/553 554/554/554
f 557/557/557 556/556/556 555/555/555
f 556/556/556 557/557/557 558/558/558
f 561/561/561 560/560/560 559/559/559
f 560/560/560 561/561/561 562/562/562
f 565/565/565 564/564/564 563/563/563
f 564/564/564 565/565/565 566/566/566
f 569/569/569 568/568/568 567/567/567
f 568/568/568 569/569/569 570/570/570
f 573/573/573 572/572/572 571/571/571
f 572/572/572 573/573/573 574/574/574
f 577/577/577 576/576/576 575/575/575
f 576/576/576 577/577/577 578/578/578
f 581/581/581 580/580/580 579/579/579
f 580/580/580 581/581/581 582/582/582
f 585/585/585 584/584/584 583/583/583
f 584/584/584 585/585/585 586/586/586
f 589/589/589 588/588/588 587/587/587
f 588/588/588 589/589/589 590/590/590
f 593/593/593 592/592/592 591/591/591
f 592/592/592 593/593/593 594/594/594
f 597/597/597 596/596/596 595/595/595
f 596/596/596 597/597/597 598/598/598
f 601/601/601 600/600/600 599/599/599
f 600/600/600 601/601/601 602/602/602
f 605/605/605 604/604/604 603/603/603
f 604/604/604 605/605/605 606/606/606
f 609/609/609 608/608/608 607/607/607
f 608/608/608 609/609/609 610/610/610
f 613/613/613 612/612/612 611/611/611
f 612/612/612 613/613/613 614/614/614
f 617/617/617 616/616/616 615/615/615
f 616/616/616 617/617/617 618/618/618
f 621/621/621 620/620/620 619/619/619
f 620/620/620 621/621/621 622/622/622
f 625/625/625 624/624/624 623/623/623
f 624/624/624 625/625/625 626/626/626
f 629/629/629 628/628/628 627/627/627
f 628/628/628 629/629/629 630/630/630
f 633/633/633 632/632/632 631/631/631
f 632/632/632 633/633/633 634/634/634
f 637/637/637 636/636/636 635/635/635
f 636/636/636 637/637/637 638/638/638
f 641/641/641 640/640/640 639/639/639
f 640/640/640 641/641/641 642/642/642
f 645/645/645 644/644/644 643/643/643
f 644/644/644 645/645/645 646/646/646
f 649/649/649 648/648/648 647/647/647
f 648/648/648 649/649/649 650/650/650
f 653/653/653 652/652/652 651/651/651
f 652/652/652 653/653/653 654/654/654
g C003_BB01_3
f 657/657/657 656/656/656 655/655/655
f 656/656/656 657/657/657 658/658/658
f 661/661/661 660/660/660 659/659/659
f 660/660/660 661/661/661 662/662/662
f 665/665/665 664/664/664 663/663/663
f 664/664/664 665/665/665 666/666/666
f 669/669/669 668/668/668 667/667/667
f 668/668/668 669/669/669 670/670/670
f 673/673/673 672/672/672 671/671/671
f 672/672/672 673/673/673 674/674/674
