g C003_HerbMan_House01_Door_L
v -0.0062060333 0.06200796 1.2226317
v 0.034266092 3.091386 0.010313342
v 0.03062422 3.087166 1.2327249
v -0.0025326048 0.06623136 0.00021781908
v 0.2007134 3.09371 1.2178441
v 0.034266092 3.091386 0.010313342
v 0.20435527 3.09793 -0.0045675365
v 0.03062422 3.087166 1.2327249
v 0.16755405 0.07277511 -0.014664063
v 0.20435527 3.09793 -0.0045675365
v 0.034266092 3.091386 0.010313342
v -0.0025326048 0.06623136 0.00021781908
v 0.16388078 0.068551704 1.2077516
v 0.16755405 0.07277511 -0.014664063
v -0.0025326048 0.06623136 0.00021781908
v -0.0062060333 0.06200796 1.2226317
v 0.16388078 0.068551704 1.2077516
v 0.03062422 3.087166 1.2327249
v 0.2007134 3.09371 1.2178441
v -0.0062060333 0.06200796 1.2226317
v 0.2007134 3.09371 1.2178441
v 0.20435527 3.09793 -0.0045675365
v 0.16388078 0.068551704 1.2077516
v 0.16755405 0.07277511 -0.014664063
v -0.05918563 2.7541687 0.31269667
v 0.019567681 2.7427537 0.330132
v 0.029003717 2.7442594 -0.0127317915
v -0.04920488 2.755637 -0.0126883695
v 0.025252422 3.090343 0.22065239
v -0.053649016 3.087272 0.23812784
v 0.02059312 2.8421953 0.2198255
v -0.05958113 2.823058 0.23702018
v -0.053642504 3.0870197 0.31380707
v -0.05918563 2.7541687 0.31269667
v -0.05958113 2.823058 0.23702018
v -0.053649016 3.087272 0.23812784
v 0.025258683 3.0899737 0.33129013
v 0.019567681 2.7427537 0.330132
v -0.05918563 2.7541687 0.31269667
v -0.053642504 3.0870197 0.31380707
v 0.02059312 2.8421953 0.2198255
v -0.051824626 2.8241873 -0.012459181
v 0.030035362 2.8433316 -0.012401151
v -0.05958113 2.823058 0.23702018
v -0.05958113 2.823058 0.23702018
v -0.04920488 2.755637 -0.0126883695
v -0.051824626 2.8241873 -0.012459181
v -0.05918563 2.7541687 0.31269667
vt 0.6123047 0.3383789
vt 0.50927734 0.60253906
vt 0.6123047 0.60253906
vt 0.50927734 0.3383789
vt 0.6123047 0.6166992
vt 0.50927734 0.60253906
vt 0.50927734 0.6166992
vt 0.6123047 0.60253906
vt 0.4951172 0.3383789
vt 0.4951172 0.60253906
vt 0.50927734 0.60253906
vt 0.50927734 0.3383789
vt 0.50927734 0.6166992
vt 0.6123047 0.6166992
vt 0.6123047 0.60253906
vt 0.50927734 0.60253906
vt 0.4951172 0.60253906
vt 0.50927734 0.3383789
vt 0.4951172 0.3383789
vt 0.50927734 0.60253906
vt 0.50927734 0.60253906
vt 0.6123047 0.60253906
vt 0.50927734 0.3383789
vt 0.6123047 0.3383789
vt 0.30908203 0.09649658
vt 0.30908203 0.089538574
vt 0.33569336 0.089538574
vt 0.33569336 0.09649658
vt 0.33496094 0.089538574
vt 0.33496094 0.09649658
vt 0.30908203 0.089538574
vt 0.30908203 0.09649658
vt 0.3413086 0.045776367
vt 0.30908203 0.045776367
vt 0.3149414 0.05227661
vt 0.3413086 0.05227661
vt 0.34179688 0.089538574
vt 0.30908203 0.089538574
vt 0.30908203 0.09649658
vt 0.34179688 0.09649658
vt 0.31323242 0.089538574
vt 0.3317871 0.09649658
vt 0.3317871 0.089538574
vt 0.31323242 0.09649658
vt 0.3149414 0.05227661
vt 0.30908203 0.07147217
vt 0.3149414 0.0715332
vt 0.30908203 0.045776367
vn -1 0.012176514 -0.0029506683
vn -1 0.012176514 -0.0029506683
vn -1 0.012176514 -0.0029506683
vn -1 0.012176514 -0.0029506683
vn -0.038146973 0.99902344 0.0033359528
vn -0.038146973 0.99902344 0.0033359528
vn -0.038146973 0.99902344 0.0033359528
vn -0.038146973 0.99902344 0.0033359528
vn -0.08734131 0.004386902 -0.99609375
vn -0.08734131 0.004386902 -0.99609375
vn -0.08734131 0.004386902 -0.99609375
vn -0.08734131 0.004386902 -0.99609375
vn 0.038146973 -0.99902344 -0.00333786
vn 0.038146973 -0.99902344 -0.00333786
vn 0.038146973 -0.99902344 -0.00333786
vn 0.038146973 -0.99902344 -0.00333786
vn 0.08734131 -0.004386902 0.99609375
vn 0.08734131 -0.004386902 0.99609375
vn 0.08734131 -0.004386902 0.99609375
vn 0.08734131 -0.004386902 0.99609375
vn 1 -0.012176514 0.0029506683
vn 1 -0.012176514 0.0029506683
vn 1 -0.012176514 0.0029506683
vn 1 -0.012176514 0.0029506683
vn -0.14282227 -0.9897461 -0.008552551
vn -0.14282227 -0.9897461 -0.008552551
vn -0.14282227 -0.9897461 -0.008552551
vn -0.14282227 -0.9897461 -0.008552551
vn -0.21398926 0.008110046 -0.9765625
vn -0.21398926 0.008110046 -0.9765625
vn -0.21398926 0.008110046 -0.9765625
vn -0.21398926 0.008110046 -0.9765625
vn -0.9995117 0.019165039 0.011413574
vn -0.9995117 0.019165039 0.011413574
vn -0.9995117 0.019165039 0.011413574
vn -0.9995117 0.019165039 0.011413574
vn -0.21618652 0.00031518936 0.9765625
vn -0.21618652 0.00031518936 0.9765625
vn -0.21618652 0.00031518936 0.9765625
vn -0.21618652 0.00031518936 0.9765625
vn -0.23034668 0.97314453 -0.0036449432
vn -0.23034668 0.97314453 -0.0036449432
vn -0.23034668 0.97314453 -0.0036449432
vn -0.23034668 0.97314453 -0.0036449432
vn -0.99853516 -0.038909912 -0.0309906
vn -0.99853516 -0.038909912 -0.0309906
vn -0.99853516 -0.038909912 -0.0309906
vn -0.99853516 -0.038909912 -0.0309906
g C003_HerbMan_House01_Door_L_0
f 3/3/3 2/2/2 1/1/1
f 4/4/4 1/1/1 2/2/2
f 7/7/7 6/6/6 5/5/5
f 8/8/8 5/5/5 6/6/6
f 11/11/11 10/10/10 9/9/9
f 9/9/9 12/12/12 11/11/11
f 15/15/15 14/14/14 13/13/13
f 13/13/13 16/16/16 15/15/15
f 19/19/19 18/18/18 17/17/17
f 20/20/20 17/17/17 18/18/18
f 23/23/23 22/22/22 21/21/21
f 23/23/23 24/24/24 22/22/22
f 27/27/27 26/26/26 25/25/25
f 25/25/25 28/28/28 27/27/27
f 31/31/31 30/30/30 29/29/29
f 31/31/31 32/32/32 30/30/30
f 35/35/35 34/34/34 33/33/33
f 33/33/33 36/36/36 35/35/35
f 39/39/39 38/38/38 37/37/37
f 37/37/37 40/40/40 39/39/39
f 43/43/43 42/42/42 41/41/41
f 44/44/44 41/41/41 42/42/42
f 47/47/47 46/46/46 45/45/45
f 46/46/46 48/48/48 45/45/45
