g C003_FB01
v 5.417842 -3.904005 -13.373343
v 5.7053027 -3.8318858 -13.722845
v 5.3441114 3.1947167 -13.369425
v 5.632119 3.195899 -13.718946
v 5.3441114 3.1947167 -13.369425
v 5.7053027 -3.8318858 -13.722845
v 19.973057 3.253087 11.177097
v 20.261084 3.2542589 10.827566
v 20.073008 -3.774619 11.172086
v 20.361006 -3.7734473 10.822559
v 20.073008 -3.774619 11.172086
v 20.261084 3.2542589 10.827566
v 5.7053027 -3.8318858 -13.722845
v 5.417842 -3.904005 -13.373343
v 5.7416797 -4.051339 -13.386766
v 5.6759567 -3.8341503 10.915426
v 5.6430078 -4.05374 10.5792
v 5.3186326 -3.835459 10.592662
v 20.459677 -3.7710462 -13.143416
v 20.102352 -3.7723546 -13.46617
v 20.13872 -3.9918175 -13.130111
v 20.361006 -3.7734473 10.822559
v 20.040058 -3.9942088 10.83587
v 20.073008 -3.774619 11.172086
v 5.7416797 -4.051339 -13.386766
v 5.417842 -3.904005 -13.373343
v 5.6430078 -4.05374 10.5792
v 5.3186326 -3.835459 10.592662
v 5.6430078 -4.05374 10.5792
v 5.417842 -3.904005 -13.373343
v 7.6295605 -3.1328614 9.471832
v 7.5632224 3.2229004 9.490821
v 8.006592 -3.1197095 9.108288
v 7.9402733 3.2337115 9.127272
v 8.006592 -3.1197095 9.108288
v 7.5632224 3.2229004 9.490821
v -10.056787 3.3888426 -12.030636
v -9.9899025 -2.930398 -12.080301
v -9.679766 3.3996532 -12.394171
v -9.612881 -2.917246 -12.443836
v -9.679766 3.3996532 -12.394171
v -9.9899025 -2.930398 -12.080301
v 8.006592 -3.1197095 9.108288
v 7.310742 -3.5842896 8.798161
v 7.6295605 -3.1328614 9.471832
v -9.665351 -3.163623 9.0580435
v -9.301738 -3.1618285 9.435153
v -9.121513 -3.603108 8.7681875
v 7.318408 -2.888281 -12.4071665
v 7.3180466 -3.3746045 -12.050692
v 7.6820016 -2.8864672 -12.030057
v -9.612881 -2.917246 -12.443836
v -9.9899025 -2.930398 -12.080301
v -9.417803 -3.3733544 -12.100047
v 7.3180466 -3.3746045 -12.050692
v 7.310742 -3.5842896 8.798161
v 7.6820016 -2.8864672 -12.030057
v 8.006592 -3.1197095 9.108288
v 7.6820016 -2.8864672 -12.030057
v 7.310742 -3.5842896 8.798161
v -5.3793163 3.1100023 -2.354099
v -5.6326756 3.1100023 -2.8613575
v -5.3793163 -3.8289037 -2.3541052
v -5.6326756 -3.8289037 -2.8613658
v -5.3793163 -3.8289037 -2.3541052
v -5.6326756 3.1100023 -2.8613575
v -13.143652 -3.8289146 1.2338208
v -12.890312 -3.8289146 1.7410913
v -12.7633295 -4.229857 1.3607873
v -7.168965 -3.8289099 3.0614111
v -7.5492773 -4.229857 2.9344628
v -7.6762204 -3.8289099 3.3147795
v -10.843838 -3.828906 -4.446449
v -11.351103 -3.8289087 -4.1931114
v -10.970781 -4.229839 -4.066151
v -5.6326756 -3.8289037 -2.8613658
v -5.759619 -4.229841 -2.4810584
v -5.3793163 -3.8289037 -2.3541052
v -5.6183004 -1.2290924 -1.9558057
v -5.616406 4.983943 -1.9684595
v -5.3633494 -1.228841 -2.1777172
v -5.3614645 4.984201 -2.1903734
v -5.3633494 -1.228841 -2.1777172
v -5.616406 4.983943 -1.9684595
v -5.3633494 -1.228841 -2.1777172
v -5.6704392 -1.484646 -2.353723
v -5.6183004 -1.2290924 -1.9558057
v -12.245732 -1.2278216 -2.1599731
v -12.023828 -1.2281549 -1.9050366
v -11.9605465 -1.4837292 -2.294724
v -6.2900877 -1.2064624 -13.257442
v -6.3066306 -1.4711609 -13.019349
v -6.0681834 -1.2068127 -13.002518
v -12.695605 -1.2055138 -13.206678
v -12.950546 -1.2057642 -12.984767
v -12.671933 -1.4618701 -12.962889
v -6.3066306 -1.4711609 -13.019349
v -5.6704392 -1.484646 -2.353723
v -6.0681834 -1.2068127 -13.002518
v -5.3633494 -1.228841 -2.1777172
v -6.0681834 -1.2068127 -13.002518
v -5.6704392 -1.484646 -2.353723
v -20.081947 -1.9087108 8.364655
v -20.459673 -1.9087108 7.9417796
v -20.080074 4.588789 8.331454
v -20.45782 4.5887923 7.908572
v -20.080074 4.588789 8.331454
v -20.459673 -1.9087108 7.9417796
v -8.499746 4.588793 8.479731
v -8.076904 4.5887895 8.101981
v -8.501621 -1.9087061 8.5129385
v -8.07877 -1.9087061 8.135181
v -8.501621 -1.9087061 8.5129385
v -8.076904 4.5887895 8.101981
v -20.459673 -1.9087108 7.9417796
v -20.081947 -1.9087108 8.364655
v -20.059351 -2.3096533 7.9643455
v -8.07877 -1.9087061 8.135181
v -8.479072 -2.3096533 8.112627
v -8.501621 -1.9087061 8.5129385
v -19.733278 -1.9087012 -11.249744
v -20.156149 -1.9087024 -10.87201
v -19.755829 -2.3096325 -10.849452
v -8.152783 -1.9086999 -11.089696
v -8.175332 -2.30964 -10.68939
v -7.7750387 -1.9087012 -10.666832
v -20.059351 -2.3096533 7.9643455
v -20.081947 -1.9087108 8.364655
v -8.479072 -2.3096533 8.112627
v -8.501621 -1.9087061 8.5129385
v -8.479072 -2.3096533 8.112627
v -20.081947 -1.9087108 8.364655
v 9.104013 -5.169698 12.618275
v 9.06376 -2.5713036 12.633606
v 9.319248 -5.1614866 12.372083
v 9.279004 -2.5645533 12.387405
v 9.319248 -5.1614866 12.372083
v 9.06376 -2.5713036 12.633606
v -2.947754 -2.4676526 2.2524223
v -2.9087791 -5.0432334 2.2179668
v -2.7324998 -2.460902 2.0062292
v -2.6935449 -5.035021 1.971767
v -2.7324998 -2.460902 2.0062292
v -2.9087791 -5.0432334 2.2179668
v 9.319248 -5.1614866 12.372083
v 8.869883 -5.4515586 12.216109
v 9.104013 -5.169698 12.618275
v -1.8086816 -5.1889157 13.492228
v -1.5624511 -5.187793 13.707512
v -1.4857519 -5.4633226 13.283017
v 7.97292 -5.0169396 0.88252807
v 7.9916306 -5.3205895 1.1043175
v 8.219151 -5.0158067 1.09781
v -2.6935449 -5.035021 1.971767
v -2.9087791 -5.0432334 2.2179668
v -2.5538964 -5.319807 2.1752942
v 7.9916306 -5.3205895 1.1043175
v 8.869883 -5.4515586 12.216109
v 8.219151 -5.0158067 1.09781
v 9.319248 -5.1614866 12.372083
v 8.219151 -5.0158067 1.09781
v 8.869883 -5.4515586 12.216109
v 5.3441114 3.1947167 -13.369425
v 5.245449 3.1923351 10.596575
v 5.417842 -3.904005 -13.373343
v 5.3186326 -3.835459 10.592662
v 5.6027927 3.1936486 10.919324
v 19.973057 3.253087 11.177097
v 5.6759567 -3.8341503 10.915426
v 20.073008 -3.774619 11.172086
v 20.261084 3.2542589 10.827566
v 20.359735 3.256651 -13.138419
v 20.361006 -3.7734473 10.822559
v 20.459677 -3.7710462 -13.143416
v 20.002401 3.2553325 -13.461163
v 5.632119 3.195899 -13.718946
v 20.102352 -3.7723546 -13.46617
v 5.7053027 -3.8318858 -13.722845
v 5.245449 3.1923351 10.596575
v 5.6027927 3.1936486 10.919324
v 5.3186326 -3.835459 10.592662
v 5.6759567 -3.8341503 10.915426
v 20.359735 3.256651 -13.138419
v 20.002401 3.2553325 -13.461163
v 20.459677 -3.7710462 -13.143416
v 20.102352 -3.7723546 -13.46617
v 20.13872 -3.9918175 -13.130111
v 20.102352 -3.7723546 -13.46617
v 5.7416797 -4.051339 -13.386766
v 5.7053027 -3.8318858 -13.722845
v 20.040058 -3.9942088 10.83587
v 20.361006 -3.7734473 10.822559
v 20.13872 -3.9918175 -13.130111
v 20.459677 -3.7710462 -13.143416
v 5.6430078 -4.05374 10.5792
v 5.6759567 -3.8341503 10.915426
v 20.040058 -3.9942088 10.83587
v 20.073008 -3.774619 11.172086
v 7.5632224 3.2229004 9.490821
v 7.6295605 -3.1328614 9.471832
v -9.368066 3.199112 9.454137
v -9.301738 -3.1618285 9.435153
v -9.73168 3.1976335 9.077032
v -9.665351 -3.163623 9.0580435
v -10.056787 3.3888426 -12.030636
v -9.9899025 -2.930398 -12.080301
v -9.679766 3.3996532 -12.394171
v -9.612881 -2.917246 -12.443836
v 7.251562 3.4234228 -12.357476
v 7.318408 -2.888281 -12.4071665
v 7.615146 3.4249206 -11.980382
v 7.6820016 -2.8864672 -12.030057
v 7.9402733 3.2337115 9.127272
v 8.006592 -3.1197095 9.108288
v -9.368066 3.199112 9.454137
v -9.301738 -3.1618285 9.435153
v -9.73168 3.1976335 9.077032
v -9.665351 -3.163623 9.0580435
v 7.251562 3.4234228 -12.357476
v 7.318408 -2.888281 -12.4071665
v 7.615146 3.4249206 -11.980382
v 7.6820016 -2.8864672 -12.030057
v -9.417803 -3.3733544 -12.100047
v 7.3180466 -3.3746045 -12.050692
v -9.612881 -2.917246 -12.443836
v 7.318408 -2.888281 -12.4071665
v -9.121513 -3.603108 8.7681875
v -9.417803 -3.3733544 -12.100047
v -9.665351 -3.163623 9.0580435
v -9.9899025 -2.930398 -12.080301
v 7.310742 -3.5842896 8.798161
v -9.121513 -3.603108 8.7681875
v 7.6295605 -3.1328614 9.471832
v -9.301738 -3.1618285 9.435153
v -11.351103 3.1099975 -4.193105
v -13.133135 3.1099956 1.202268
v -11.351103 -3.8289087 -4.1931114
v -13.143652 -3.8289146 1.2338208
v -12.890312 -3.8289146 1.7410913
v -13.143652 -3.8289146 1.2338208
v -12.879785 3.109994 1.7095476
v -13.133135 3.1099956 1.202268
v -10.843857 3.1099975 -4.446455
v -11.351103 3.1099975 -4.193105
v -10.843838 -3.828906 -4.446449
v -11.351103 -3.8289087 -4.1931114
v -12.879785 3.109994 1.7095476
v -7.6656833 3.1099963 3.2832325
v -12.890312 -3.8289146 1.7410913
v -7.6762204 -3.8289099 3.3147795
v -7.1584473 3.109994 3.0298657
v -5.3793163 3.1100023 -2.354099
v -7.168965 -3.8289099 3.0614111
v -5.3793163 -3.8289037 -2.3541052
v -5.6326756 3.1100023 -2.8613575
v -10.843857 3.1099975 -4.446455
v -5.6326756 -3.8289037 -2.8613658
v -10.843838 -3.828906 -4.446449
v -7.6656833 3.1099963 3.2832325
v -7.1584473 3.109994 3.0298657
v -7.6762204 -3.8289099 3.3147795
v -7.168965 -3.8289099 3.0614111
v -10.970781 -4.229839 -4.066151
v -11.351103 -3.8289087 -4.1931114
v -12.7633295 -4.229857 1.3607873
v -13.143652 -3.8289146 1.2338208
v -5.759619 -4.229841 -2.4810584
v -5.6326756 -3.8289037 -2.8613658
v -10.970781 -4.229839 -4.066151
v -10.843838 -3.828906 -4.446449
v -7.5492773 -4.229857 2.9344628
v -7.168965 -3.8289099 3.0614111
v -5.759619 -4.229841 -2.4810584
v -5.3793163 -3.8289037 -2.3541052
v -12.7633295 -4.229857 1.3607873
v -12.890312 -3.8289146 1.7410913
v -7.5492773 -4.229857 2.9344628
v -7.6762204 -3.8289099 3.3147795
v -5.616406 4.983943 -1.9684595
v -5.6183004 -1.2290924 -1.9558057
v -12.021934 4.984886 -1.9176977
v -12.023828 -1.2281549 -1.9050366
v -12.243837 4.985213 -2.1726317
v -12.245732 -1.2278216 -2.1599731
v -12.950019 5.0072417 -12.977654
v -12.950546 -1.2057642 -12.984767
v -12.695078 5.007491 -13.199561
v -12.695605 -1.2055138 -13.206678
v -6.2895603 5.0065565 -13.250325
v -6.2900877 -1.2064624 -13.257442
v -6.067656 5.0061913 -12.995414
v -6.0681834 -1.2068127 -13.002518
v -5.3614645 4.984201 -2.1903734
v -5.3633494 -1.228841 -2.1777172
v -12.021934 4.984886 -1.9176977
v -12.023828 -1.2281549 -1.9050366
v -12.243837 4.985213 -2.1726317
v -12.245732 -1.2278216 -2.1599731
v -12.950019 5.0072417 -12.977654
v -12.950546 -1.2057642 -12.984767
v -12.695078 5.007491 -13.199561
v -12.695605 -1.2055138 -13.206678
v -6.2895603 5.0065565 -13.250325
v -6.2900877 -1.2064624 -13.257442
v -6.067656 5.0061913 -12.995414
v -6.0681834 -1.2068127 -13.002518
v -12.671933 -1.4618701 -12.962889
v -6.3066306 -1.4711609 -13.019349
v -12.695605 -1.2055138 -13.206678
v -6.2900877 -1.2064624 -13.257442
v -11.9605465 -1.4837292 -2.294724
v -12.671933 -1.4618701 -12.962889
v -12.245732 -1.2278216 -2.1599731
v -12.950546 -1.2057642 -12.984767
v -5.6704392 -1.484646 -2.353723
v -11.9605465 -1.4837292 -2.294724
v -5.6183004 -1.2290924 -1.9558057
v -12.023828 -1.2281549 -1.9050366
v -20.156155 4.5887938 -10.872003
v -20.45782 4.5887923 7.908572
v -20.156149 -1.9087024 -10.87201
v -20.459673 -1.9087108 7.9417796
v -19.733297 4.5887938 -11.249747
v -20.156155 4.5887938 -10.872003
v -19.733278 -1.9087012 -11.249744
v -20.156149 -1.9087024 -10.87201
v -20.080074 4.588789 8.331454
v -8.499746 4.588793 8.479731
v -20.081947 -1.9087108 8.364655
v -8.501621 -1.9087061 8.5129385
v -8.076904 4.5887895 8.101981
v -7.7750387 4.588798 -10.666827
v -8.07877 -1.9087061 8.135181
v -7.7750387 -1.9087012 -10.666832
v -8.152783 4.5888 -11.089684
v -19.733297 4.5887938 -11.249747
v -8.152783 -1.9086999 -11.089696
v -19.733278 -1.9087012 -11.249744
v -7.7750387 4.588798 -10.666827
v -8.152783 4.5888 -11.089684
v -7.7750387 -1.9087012 -10.666832
v -8.152783 -1.9086999 -11.089696
v -19.755829 -2.3096325 -10.849452
v -20.156149 -1.9087024 -10.87201
v -20.059351 -2.3096533 7.9643455
v -20.459673 -1.9087108 7.9417796
v -8.175332 -2.30964 -10.68939
v -8.152783 -1.9086999 -11.089696
v -19.755829 -2.3096325 -10.849452
v -19.733278 -1.9087012 -11.249744
v -8.479072 -2.3096533 8.112627
v -8.07877 -1.9087061 8.135181
v -8.175332 -2.30964 -10.68939
v -7.7750387 -1.9087012 -10.666832
v 9.06376 -2.5713036 12.633606
v 9.104013 -5.169698 12.618275
v -1.602705 -2.5861742 13.722844
v -1.5624511 -5.187793 13.707512
v -1.8489453 -2.5870922 13.507552
v -1.8086816 -5.1889157 13.492228
v -2.947754 -2.4676526 2.2524223
v -2.9087791 -5.0432334 2.2179668
v -2.7324998 -2.460902 2.0062292
v -2.6935449 -5.035021 1.971767
v 7.9339647 -2.4460583 0.9169958
v 7.97292 -5.0169396 0.88252807
v 8.180185 -2.4451256 1.1322693
v 8.219151 -5.0158067 1.09781
v 9.279004 -2.5645533 12.387405
v 9.319248 -5.1614866 12.372083
v -1.602705 -2.5861742 13.722844
v -1.5624511 -5.187793 13.707512
v -1.8489453 -2.5870922 13.507552
v -1.8086816 -5.1889157 13.492228
v 7.9339647 -2.4460583 0.9169958
v 7.97292 -5.0169396 0.88252807
v 8.180185 -2.4451256 1.1322693
v 8.219151 -5.0158067 1.09781
v -2.5538964 -5.319807 2.1752942
v 7.9916306 -5.3205895 1.1043175
v -2.6935449 -5.035021 1.971767
v 7.97292 -5.0169396 0.88252807
v -1.4857519 -5.4633226 13.283017
v -2.5538964 -5.319807 2.1752942
v -1.8086816 -5.1889157 13.492228
v -2.9087791 -5.0432334 2.2179668
v 8.869883 -5.4515586 12.216109
v -1.4857519 -5.4633226 13.283017
v 9.104013 -5.169698 12.618275
v -1.5624511 -5.187793 13.707512
v 6.0353417 3.9555862 -13.215796
v 5.5023727 3.5926073 -13.375963
v 5.6463766 3.593194 -13.550718
v 5.933291 3.9532537 10.4272995
v 5.582392 3.5908802 10.751423
v 5.4037204 3.590216 10.590036
v 19.850918 4.012159 -12.968546
v 20.01668 3.6526275 -13.292945
v 20.195322 3.6532915 -13.131563
v 19.748867 4.0098205 10.674561
v 20.096699 3.6508996 10.834426
v 19.952675 3.6503136 11.0091915
v 7.3135934 3.7612581 8.707868
v 7.7495213 3.577573 9.1360655
v 7.561035 3.5721679 9.317833
v -9.118643 3.7457798 8.6778965
v -9.370293 3.548379 9.281146
v -9.552099 3.5476403 9.092606
v 6.98498 3.941881 -11.543882
v 7.242578 3.768024 -12.160148
v 7.4244237 3.7687635 -11.971602
v -9.447285 3.926422 -11.573844
v -9.877207 3.738848 -12.015069
v -9.688701 3.7442532 -12.196842
v -12.752831 3.3780158 1.3292321
v -12.816289 3.2745433 1.5193884
v -12.942968 3.2745562 1.2657543
v -7.53874 3.3780205 2.9029229
v -7.3485837 3.2745495 2.966411
v -7.6022167 3.2745495 3.0930724
v -10.9708 3.3780298 -4.0661426
v -11.160967 3.274558 -4.129624
v -10.907324 3.274558 -4.256289
v -5.7595997 3.3780334 -2.4810474
v -5.696152 3.2745616 -2.6712134
v -5.5694823 3.2745569 -2.4175708
v -5.6739645 5.4582324 -2.2742858
v -5.480664 5.248332 -2.1983044
v -5.608115 5.24821 -2.087345
v -11.964091 5.4591446 -2.2152796
v -12.013672 5.2491446 -2.0365906
v -12.124609 5.2493124 -2.1640441
v -6.3060446 5.450299 -13.011371
v -6.297793 5.2705193 -13.130799
v -6.186836 5.270352 -13.0033455
v -12.673506 5.4633226 -12.919266
v -12.830781 5.271372 -12.969075
v -12.70333 5.2714934 -13.08003
v -6.297793 5.2705193 -13.130799
v -6.3060446 5.450299 -13.011371
v -12.70333 5.2714934 -13.08003
v -12.673506 5.4633226 -12.919266
v -12.70333 5.2714934 -13.08003
v -6.3060446 5.450299 -13.011371
v -5.480664 5.248332 -2.1983044
v -5.6739645 5.4582324 -2.2742858
v -6.186836 5.270352 -13.0033455
v -6.3060446 5.450299 -13.011371
v -6.186836 5.270352 -13.0033455
v -5.6739645 5.4582324 -2.2742858
v -20.057522 4.8568115 7.9311404
v -20.068787 4.7533393 8.131293
v -20.257656 4.7533526 7.91986
v -8.477197 4.8568153 8.079426
v -8.277031 4.753344 8.090718
v -8.488477 4.7533436 8.279574
v -19.75585 4.856826 -10.84944
v -19.956015 4.753354 -10.860719
v -19.744562 4.7533536 -11.049582
v -8.175312 4.85683 -10.68939
v -8.164072 4.753359 -10.889542
v -7.975195 4.7533545 -10.678102
v 8.866875 -2.2351599 12.159774
v 9.16081 -2.3498535 12.403003
v 9.053203 -2.3532288 12.526101
v -1.4887598 -2.244834 13.226682
v -1.6132812 -2.3680933 13.615339
v -1.7364062 -2.3685546 13.507702
v 7.8113475 -2.122345 1.4373071
v 7.9388766 -2.2308948 1.0402282
v 8.061992 -2.2304358 1.1478649
v -2.5443065 -2.1319995 2.5042126
v -2.8351953 -2.249115 2.2525651
v -2.727588 -2.2457397 2.1294677
v 5.4037204 3.590216 10.590036
v 5.5023727 3.5926073 -13.375963
v 5.933291 3.9532537 10.4272995
v 6.0353417 3.9555862 -13.215796
v 19.952675 3.6503136 11.0091915
v 5.582392 3.5908802 10.751423
v 19.748867 4.0098205 10.674561
v 5.933291 3.9532537 10.4272995
v 20.195322 3.6532915 -13.131563
v 20.096699 3.6508996 10.834426
v 19.850918 4.012159 -12.968546
v 19.748867 4.0098205 10.674561
v 5.6463766 3.593194 -13.550718
v 20.01668 3.6526275 -13.292945
v 6.0353417 3.9555862 -13.215796
v 19.850918 4.012159 -12.968546
v 5.3441114 3.1947167 -13.369425
v 5.632119 3.195899 -13.718946
v 5.5023727 3.5926073 -13.375963
v 5.6463766 3.593194 -13.550718
v 5.6027927 3.1936486 10.919324
v 5.245449 3.1923351 10.596575
v 5.582392 3.5908802 10.751423
v 5.4037204 3.590216 10.590036
v 5.245449 3.1923351 10.596575
v 5.3441114 3.1947167 -13.369425
v 5.4037204 3.590216 10.590036
v 5.5023727 3.5926073 -13.375963
v 19.973057 3.253087 11.177097
v 5.6027927 3.1936486 10.919324
v 19.952675 3.6503136 11.0091915
v 5.582392 3.5908802 10.751423
v 5.632119 3.195899 -13.718946
v 20.002401 3.2553325 -13.461163
v 5.6463766 3.593194 -13.550718
v 20.01668 3.6526275 -13.292945
v 20.002401 3.2553325 -13.461163
v 20.359735 3.256651 -13.138419
v 20.01668 3.6526275 -13.292945
v 20.195322 3.6532915 -13.131563
v 20.261084 3.2542589 10.827566
v 19.973057 3.253087 11.177097
v 20.096699 3.6508996 10.834426
v 19.952675 3.6503136 11.0091915
v 20.359735 3.256651 -13.138419
v 20.261084 3.2542589 10.827566
v 20.195322 3.6532915 -13.131563
v 20.096699 3.6508996 10.834426
v 7.5632224 3.2229004 9.490821
v 7.561035 3.5721679 9.317833
v 7.9402733 3.2337115 9.127272
v 7.7495213 3.577573 9.1360655
v -9.73168 3.1976335 9.077032
v -9.552099 3.5476403 9.092606
v -9.368066 3.199112 9.454137
v -9.370293 3.548379 9.281146
v 7.615146 3.4249206 -11.980382
v 7.4244237 3.7687635 -11.971602
v 7.251562 3.4234228 -12.357476
v 7.242578 3.768024 -12.160148
v -9.679766 3.3996532 -12.394171
v -9.688701 3.7442532 -12.196842
v -10.056787 3.3888426 -12.030636
v -9.877207 3.738848 -12.015069
v -9.370293 3.548379 9.281146
v -9.118643 3.7457798 8.6778965
v 7.561035 3.5721679 9.317833
v 7.3135934 3.7612581 8.707868
v -9.877207 3.738848 -12.015069
v -9.447285 3.926422 -11.573844
v -9.552099 3.5476403 9.092606
v -9.118643 3.7457798 8.6778965
v 7.242578 3.768024 -12.160148
v 6.98498 3.941881 -11.543882
v -9.688701 3.7442532 -12.196842
v -9.447285 3.926422 -11.573844
v 7.7495213 3.577573 9.1360655
v 7.3135934 3.7612581 8.707868
v 7.4244237 3.7687635 -11.971602
v 6.98498 3.941881 -11.543882
v -9.368066 3.199112 9.454137
v -9.370293 3.548379 9.281146
v 7.5632224 3.2229004 9.490821
v 7.561035 3.5721679 9.317833
v -10.056787 3.3888426 -12.030636
v -9.877207 3.738848 -12.015069
v -9.73168 3.1976335 9.077032
v -9.552099 3.5476403 9.092606
v 7.251562 3.4234228 -12.357476
v 7.242578 3.768024 -12.160148
v -9.679766 3.3996532 -12.394171
v -9.688701 3.7442532 -12.196842
v 7.9402733 3.2337115 9.127272
v 7.7495213 3.577573 9.1360655
v 7.615146 3.4249206 -11.980382
v 7.4244237 3.7687635 -11.971602
v -12.879785 3.109994 1.7095476
v -13.133135 3.1099956 1.202268
v -12.816289 3.2745433 1.5193884
v -12.942968 3.2745562 1.2657543
v -7.1584473 3.109994 3.0298657
v -7.6656833 3.1099963 3.2832325
v -7.3485837 3.2745495 2.966411
v -7.6022167 3.2745495 3.0930724
v -11.351103 3.1099975 -4.193105
v -10.843857 3.1099975 -4.446455
v -11.160967 3.274558 -4.129624
v -10.907324 3.274558 -4.256289
v -5.6326756 3.1100023 -2.8613575
v -5.3793163 3.1100023 -2.354099
v -5.696152 3.2745616 -2.6712134
v -5.5694823 3.2745569 -2.4175708
v -7.6022167 3.2745495 3.0930724
v -12.816289 3.2745433 1.5193884
v -7.53874 3.3780205 2.9029229
v -12.752831 3.3780158 1.3292321
v -5.5694823 3.2745569 -2.4175708
v -7.3485837 3.2745495 2.966411
v -5.7595997 3.3780334 -2.4810474
v -7.53874 3.3780205 2.9029229
v -10.907324 3.274558 -4.256289
v -5.696152 3.2745616 -2.6712134
v -10.9708 3.3780298 -4.0661426
v -5.7595997 3.3780334 -2.4810474
v -12.942968 3.2745562 1.2657543
v -11.160967 3.274558 -4.129624
v -12.752831 3.3780158 1.3292321
v -10.9708 3.3780298 -4.0661426
v -7.6656833 3.1099963 3.2832325
v -12.879785 3.109994 1.7095476
v -7.6022167 3.2745495 3.0930724
v -12.816289 3.2745433 1.5193884
v -5.3793163 3.1100023 -2.354099
v -7.1584473 3.109994 3.0298657
v -5.5694823 3.2745569 -2.4175708
v -7.3485837 3.2745495 2.966411
v -10.843857 3.1099975 -4.446455
v -5.6326756 3.1100023 -2.8613575
v -10.907324 3.274558 -4.256289
v -5.696152 3.2745616 -2.6712134
v -13.133135 3.1099956 1.202268
v -11.351103 3.1099975 -4.193105
v -12.942968 3.2745562 1.2657543
v -11.160967 3.274558 -4.129624
v -5.616406 4.983943 -1.9684595
v -5.608115 5.24821 -2.087345
v -5.3614645 4.984201 -2.1903734
v -5.480664 5.248332 -2.1983044
v -12.243837 4.985213 -2.1726317
v -12.124609 5.2493124 -2.1640441
v -12.021934 4.984886 -1.9176977
v -12.013672 5.2491446 -2.0365906
v -6.067656 5.0061913 -12.995414
v -6.186836 5.270352 -13.0033455
v -6.2895603 5.0065565 -13.250325
v -6.297793 5.2705193 -13.130799
v -12.695078 5.007491 -13.199561
v -12.70333 5.2714934 -13.08003
v -12.950019 5.0072417 -12.977654
v -12.830781 5.271372 -12.969075
v -12.013672 5.2491446 -2.0365906
v -11.964091 5.4591446 -2.2152796
v -5.608115 5.24821 -2.087345
v -5.6739645 5.4582324 -2.2742858
v -12.830781 5.271372 -12.969075
v -12.673506 5.4633226 -12.919266
v -12.124609 5.2493124 -2.1640441
v -11.964091 5.4591446 -2.2152796
v -12.021934 4.984886 -1.9176977
v -12.013672 5.2491446 -2.0365906
v -5.616406 4.983943 -1.9684595
v -5.608115 5.24821 -2.087345
v -12.950019 5.0072417 -12.977654
v -12.830781 5.271372 -12.969075
v -12.243837 4.985213 -2.1726317
v -12.124609 5.2493124 -2.1640441
v -6.2895603 5.0065565 -13.250325
v -6.297793 5.2705193 -13.130799
v -12.695078 5.007491 -13.199561
v -12.70333 5.2714934 -13.08003
v -5.3614645 4.984201 -2.1903734
v -5.480664 5.248332 -2.1983044
v -6.067656 5.0061913 -12.995414
v -6.186836 5.270352 -13.0033455
v -20.080074 4.588789 8.331454
v -20.45782 4.5887923 7.908572
v -20.068787 4.7533393 8.131293
v -20.257656 4.7533526 7.91986
v -8.076904 4.5887895 8.101981
v -8.499746 4.588793 8.479731
v -8.277031 4.753344 8.090718
v -8.488477 4.7533436 8.279574
v -20.156155 4.5887938 -10.872003
v -19.733297 4.5887938 -11.249747
v -19.956015 4.753354 -10.860719
v -19.744562 4.7533536 -11.049582
v -8.152783 4.5888 -11.089684
v -7.7750387 4.588798 -10.666827
v -8.164072 4.753359 -10.889542
v -7.975195 4.7533545 -10.678102
v -8.488477 4.7533436 8.279574
v -20.068787 4.7533393 8.131293
v -8.477197 4.8568153 8.079426
v -20.057522 4.8568115 7.9311404
v -7.975195 4.7533545 -10.678102
v -8.277031 4.753344 8.090718
v -8.175312 4.85683 -10.68939
v -8.477197 4.8568153 8.079426
v -19.744562 4.7533536 -11.049582
v -8.164072 4.753359 -10.889542
v -19.75585 4.856826 -10.84944
v -8.175312 4.85683 -10.68939
v -20.257656 4.7533526 7.91986
v -19.956015 4.753354 -10.860719
v -20.057522 4.8568115 7.9311404
v -19.75585 4.856826 -10.84944
v -8.499746 4.588793 8.479731
v -20.080074 4.588789 8.331454
v -8.488477 4.7533436 8.279574
v -20.068787 4.7533393 8.131293
v -7.7750387 4.588798 -10.666827
v -8.076904 4.5887895 8.101981
v -7.975195 4.7533545 -10.678102
v -8.277031 4.753344 8.090718
v -19.733297 4.5887938 -11.249747
v -8.152783 4.5888 -11.089684
v -19.744562 4.7533536 -11.049582
v -8.164072 4.753359 -10.889542
v -20.45782 4.5887923 7.908572
v -20.156155 4.5887938 -10.872003
v -20.257656 4.7533526 7.91986
v -19.956015 4.753354 -10.860719
v 9.06376 -2.5713036 12.633606
v 9.053203 -2.3532288 12.526101
v 9.279004 -2.5645533 12.387405
v 9.16081 -2.3498535 12.403003
v -1.8489453 -2.5870922 13.507552
v -1.7364062 -2.3685546 13.507702
v -1.602705 -2.5861742 13.722844
v -1.6132812 -2.3680933 13.615339
v 8.180185 -2.4451256 1.1322693
v 8.061992 -2.2304358 1.1478649
v 7.9339647 -2.4460583 0.9169958
v 7.9388766 -2.2308948 1.0402282
v -2.7324998 -2.460902 2.0062292
v -2.727588 -2.2457397 2.1294677
v -2.947754 -2.4676526 2.2524223
v -2.8351953 -2.249115 2.2525651
v -1.6132812 -2.3680933 13.615339
v -1.4887598 -2.244834 13.226682
v 9.053203 -2.3532288 12.526101
v 8.866875 -2.2351599 12.159774
v -2.8351953 -2.249115 2.2525651
v -2.5443065 -2.1319995 2.5042126
v -1.7364062 -2.3685546 13.507702
v -1.4887598 -2.244834 13.226682
v 7.9388766 -2.2308948 1.0402282
v 7.8113475 -2.122345 1.4373071
v -2.727588 -2.2457397 2.1294677
v -2.5443065 -2.1319995 2.5042126
v 9.16081 -2.3498535 12.403003
v 8.866875 -2.2351599 12.159774
v 8.061992 -2.2304358 1.1478649
v 7.8113475 -2.122345 1.4373071
v -1.602705 -2.5861742 13.722844
v -1.6132812 -2.3680933 13.615339
v 9.06376 -2.5713036 12.633606
v 9.053203 -2.3532288 12.526101
v -2.947754 -2.4676526 2.2524223
v -2.8351953 -2.249115 2.2525651
v -1.8489453 -2.5870922 13.507552
v -1.7364062 -2.3685546 13.507702
v 7.9339647 -2.4460583 0.9169958
v 7.9388766 -2.2308948 1.0402282
v -2.7324998 -2.460902 2.0062292
v -2.727588 -2.2457397 2.1294677
v 9.279004 -2.5645533 12.387405
v 9.16081 -2.3498535 12.403003
v 8.180185 -2.4451256 1.1322693
v 8.061992 -2.2304358 1.1478649
v 5.6430078 -4.05374 10.5792
v 20.040058 -3.9942088 10.83587
v 5.7416797 -4.051339 -13.386766
v 20.13872 -3.9918175 -13.130111
v -9.121513 -3.603108 8.7681875
v 7.310742 -3.5842896 8.798161
v -9.417803 -3.3733544 -12.100047
v 7.3180466 -3.3746045 -12.050692
v -7.5492773 -4.229857 2.9344628
v -5.759619 -4.229841 -2.4810584
v -12.7633295 -4.229857 1.3607873
v -10.970781 -4.229839 -4.066151
v -11.9605465 -1.4837292 -2.294724
v -5.6704392 -1.484646 -2.353723
v -12.671933 -1.4618701 -12.962889
v -6.3066306 -1.4711609 -13.019349
v -8.479072 -2.3096533 8.112627
v -8.175332 -2.30964 -10.68939
v -20.059351 -2.3096533 7.9643455
v -19.755829 -2.3096325 -10.849452
v -1.4857519 -5.4633226 13.283017
v 8.869883 -5.4515586 12.216109
v -2.5538964 -5.319807 2.1752942
v 7.9916306 -5.3205895 1.1043175
v 19.850918 4.012159 -12.968546
v 19.748867 4.0098205 10.674561
v 6.0353417 3.9555862 -13.215796
v 5.933291 3.9532537 10.4272995
v 6.98498 3.941881 -11.543882
v 7.3135934 3.7612581 8.707868
v -9.447285 3.926422 -11.573844
v -9.118643 3.7457798 8.6778965
v -10.9708 3.3780298 -4.0661426
v -5.7595997 3.3780334 -2.4810474
v -12.752831 3.3780158 1.3292321
v -7.53874 3.3780205 2.9029229
v -6.3060446 5.450299 -13.011371
v -5.6739645 5.4582324 -2.2742858
v -12.673506 5.4633226 -12.919266
v -11.964091 5.4591446 -2.2152796
v -19.75585 4.856826 -10.84944
v -8.175312 4.85683 -10.68939
v -20.057522 4.8568115 7.9311404
v -8.477197 4.8568153 8.079426
v 7.8113475 -2.122345 1.4373071
v 8.866875 -2.2351599 12.159774
v -2.5443065 -2.1319995 2.5042126
v -1.4887598 -2.244834 13.226682
vt -11.578125 8.8359375
vt -11.6171875 8.8515625
vt -11.5234375 9.6171875
vt -11.578125 9.625
vt -11.5234375 9.6171875
vt -11.6171875 8.8515625
vt -15.921875 9.703125
vt -15.8671875 9.703125
vt -15.9140625 8.9375
vt -15.8671875 8.9296875
vt -15.9140625 8.9375
vt -15.8671875 9.703125
vt -11.6171875 8.8515625
vt -11.578125 8.8359375
vt -11.625 8.8125
vt -17.484375 8.9375
vt -17.515625 8.8984375
vt -17.53125 8.9375
vt -13.2421875 8.9296875
vt -13.1953125 8.921875
vt -13.234375 8.8828125
vt -15.8671875 8.9296875
vt -15.8984375 8.890625
vt -15.9140625 8.9375
vt -20.15625 8.890625
vt -20.15625 8.9296875
vt -17.515625 8.8984375
vt -17.53125 8.9375
vt -17.515625 8.8984375
vt -20.15625 8.9296875
vt -28 1.4316406
vt -28.015625 2.1386719
vt -27.953125 1.4482422
vt -27.953125 2.140625
vt -27.953125 1.4482422
vt -28.015625 2.1386719
vt -23.671875 2.1777344
vt -23.671875 1.4853516
vt -23.71875 2.1757812
vt -23.71875 1.4785156
vt -23.71875 2.1757812
vt -23.671875 1.4853516
vt -27.953125 1.4482422
vt -27.90625 1.3652344
vt -28 1.4316406
vt -21.359375 1.4589844
vt -21.3125 1.4638672
vt -21.34375 1.3779297
vt -25.578125 1.4677734
vt -25.59375 1.4023438
vt -25.640625 1.4658203
vt -23.71875 1.4785156
vt -23.671875 1.4853516
vt -23.6875 1.4121094
vt -25.59375 1.4023438
vt -27.90625 1.3652344
vt -25.640625 1.4658203
vt -27.953125 1.4482422
vt -25.640625 1.4658203
vt -27.90625 1.3652344
vt -13.4375 8.2734375
vt -13.3828125 8.265625
vt -13.4765625 7.5117188
vt -13.421875 7.5
vt -13.4765625 7.5117188
vt -13.3828125 8.265625
vt -14.7734375 7.5625
vt -14.7265625 7.5625
vt -14.75 7.5039062
vt -14.1015625 7.5390625
vt -14.125 7.484375
vt -14.140625 7.5429688
vt -15.4296875 7.5664062
vt -15.3828125 7.5664062
vt -15.40625 7.5078125
vt -13.421875 7.5
vt -13.4765625 7.453125
vt -13.4765625 7.5117188
vt -16.6875 16.609375
vt -16.703125 17.296875
vt -16.65625 16.625
vt -16.65625 17.296875
vt -16.65625 16.625
vt -16.703125 17.296875
vt -16.65625 16.625
vt -16.640625 16.578125
vt -16.6875 16.609375
vt -13.546875 16.671875
vt -13.5234375 16.671875
vt -13.5390625 16.625
vt -15.4453125 16.625
vt -15.453125 16.578125
vt -15.4765625 16.625
vt -14.75 16.640625
vt -14.71875 16.640625
vt -14.734375 16.609375
vt -15.453125 16.578125
vt -16.640625 16.578125
vt -15.4765625 16.625
vt -16.65625 16.625
vt -15.4765625 16.625
vt -16.640625 16.578125
vt -12.265625 9.4296875
vt -12.3046875 9.4140625
vt -12.28125 10.1328125
vt -12.234375 10.1171875
vt -12.28125 10.1328125
vt -12.3046875 9.4140625
vt -11.109375 10.359375
vt -11.0234375 10.3984375
vt -11.0546875 9.6796875
vt -11.046875 9.703125
vt -11.0546875 9.6796875
vt -11.0234375 10.3984375
vt -12.3046875 9.4140625
vt -12.265625 9.4296875
vt -12.28125 9.359375
vt -11.046875 9.703125
vt -11.03125 9.640625
vt -11.0546875 9.6796875
vt -14.3671875 9.7109375
vt -14.328125 9.703125
vt -14.3515625 9.6484375
vt -8.9609375 9.5
vt -9.0078125 9.4453125
vt -9.0234375 9.5078125
vt -12.28125 9.359375
vt -12.265625 9.4296875
vt -11.03125 9.640625
vt -11.0546875 9.6796875
vt -11.03125 9.640625
vt -12.265625 9.4296875
vt -30.4375 7.8007812
vt -30.4375 8.0859375
vt -30.40625 7.8085938
vt -30.40625 8.09375
vt -30.40625 7.8085938
vt -30.4375 8.0859375
vt -27.953125 8.15625
vt -27.953125 7.875
vt -27.984375 8.15625
vt -27.96875 7.875
vt -27.984375 8.15625
vt -27.953125 7.875
vt -30.40625 7.8085938
vt -30.390625 7.7578125
vt -30.4375 7.8007812
vt -26.71875 7.859375
vt -26.703125 7.859375
vt -26.71875 7.8085938
vt -29.140625 7.8203125
vt -29.140625 7.7773438
vt -29.171875 7.8203125
vt -27.96875 7.875
vt -27.953125 7.875
vt -27.96875 7.8320312
vt -29.140625 7.7773438
vt -30.390625 7.7578125
vt -29.171875 7.8203125
vt -30.40625 7.8085938
vt -29.171875 7.8203125
vt -30.390625 7.7578125
vt -20.171875 9.7109375
vt -17.546875 9.7109375
vt -20.15625 8.9296875
vt -17.53125 8.9375
vt -17.484375 9.7109375
vt -15.921875 9.703125
vt -17.484375 8.9375
vt -15.9140625 8.9375
vt -15.8671875 9.703125
vt -13.234375 9.6953125
vt -15.8671875 8.9296875
vt -13.2421875 8.9296875
vt -13.1640625 9.6953125
vt -11.578125 9.625
vt -13.1953125 8.921875
vt -11.6171875 8.8515625
vt -17.546875 9.7109375
vt -17.484375 9.7109375
vt -17.53125 8.9375
vt -17.484375 8.9375
vt -13.234375 9.6953125
vt -13.1640625 9.6953125
vt -13.2421875 8.9296875
vt -13.1953125 8.921875
vt -13.234375 8.8828125
vt -13.1953125 8.921875
vt -11.625 8.8125
vt -11.6171875 8.8515625
vt -15.8984375 8.890625
vt -15.8671875 8.9296875
vt -13.234375 8.8828125
vt -13.2421875 8.9296875
vt -17.515625 8.8984375
vt -17.484375 8.9375
vt -15.8984375 8.890625
vt -15.9140625 8.9375
vt -19.46875 2.1601562
vt -19.46875 1.4667969
vt -21.328125 2.1640625
vt -21.3125 1.4638672
vt -21.359375 2.1582031
vt -21.359375 1.4589844
vt -23.671875 2.1777344
vt -23.671875 1.4853516
vt -23.71875 2.1757812
vt -23.71875 1.4785156
vt -25.578125 2.1582031
vt -25.578125 1.4677734
vt -25.640625 2.1601562
vt -25.640625 1.4658203
vt -27.953125 2.140625
vt -27.953125 1.4482422
vt -21.328125 2.1640625
vt -21.3125 1.4638672
vt -21.359375 2.1582031
vt -21.359375 1.4589844
vt -25.578125 2.1582031
vt -25.578125 1.4677734
vt -25.640625 2.1601562
vt -25.640625 1.4658203
vt -23.6875 1.4121094
vt -25.59375 1.4023438
vt -23.71875 1.4785156
vt -25.578125 1.4677734
vt -21.34375 1.3779297
vt -23.6875 1.4121094
vt -21.359375 1.4589844
vt -23.671875 1.4853516
vt -19.515625 1.3798828
vt -21.34375 1.3779297
vt -19.46875 1.4667969
vt -21.3125 1.4638672
vt -15.3828125 8.328125
vt -14.765625 8.3203125
vt -15.3828125 7.5664062
vt -14.7734375 7.5625
vt -14.7265625 7.5625
vt -14.7734375 7.5625
vt -14.7109375 8.3203125
vt -14.765625 8.3203125
vt -15.4453125 8.328125
vt -15.3828125 8.328125
vt -15.4296875 7.5664062
vt -15.3828125 7.5664062
vt -14.7109375 8.3203125
vt -14.109375 8.3046875
vt -14.7265625 7.5625
vt -14.140625 7.5429688
vt -14.0546875 8.296875
vt -13.4375 8.2734375
vt -14.1015625 7.5390625
vt -13.4765625 7.5117188
vt -16.03125 8.3125
vt -15.4453125 8.328125
vt -16.015625 7.5507812
vt -15.4296875 7.5664062
vt -14.109375 8.3046875
vt -14.0546875 8.296875
vt -14.140625 7.5429688
vt -14.1015625 7.5390625
vt -15.40625 7.5078125
vt -15.3828125 7.5664062
vt -14.75 7.5039062
vt -14.7734375 7.5625
vt -16.015625 7.4882812
vt -16.015625 7.5507812
vt -15.40625 7.5078125
vt -15.4296875 7.5664062
vt -14.125 7.484375
vt -14.1015625 7.5390625
vt -13.4765625 7.453125
vt -13.4765625 7.5117188
vt -14.75 7.5039062
vt -14.7265625 7.5625
vt -14.125 7.484375
vt -14.140625 7.5429688
vt -12.8203125 17.359375
vt -12.828125 16.671875
vt -13.5234375 17.359375
vt -13.5234375 16.671875
vt -13.5546875 17.359375
vt -13.546875 16.671875
vt -14.7421875 17.328125
vt -14.71875 16.640625
vt -14.7734375 17.328125
vt -14.75 16.640625
vt -15.4609375 17.296875
vt -15.4453125 16.625
vt -15.484375 17.296875
vt -15.4765625 16.625
vt -16.65625 17.296875
vt -16.65625 16.625
vt -13.5234375 17.359375
vt -13.5234375 16.671875
vt -13.5546875 17.359375
vt -13.546875 16.671875
vt -14.7421875 17.328125
vt -14.71875 16.640625
vt -14.7734375 17.328125
vt -14.75 16.640625
vt -15.4609375 17.296875
vt -15.4453125 16.625
vt -15.484375 17.296875
vt -15.4765625 16.625
vt -14.734375 16.609375
vt -15.453125 16.578125
vt -14.75 16.640625
vt -15.4453125 16.625
vt -13.5390625 16.625
vt -14.734375 16.609375
vt -13.546875 16.671875
vt -14.71875 16.640625
vt -12.84375 16.625
vt -13.5390625 16.625
vt -12.828125 16.671875
vt -13.5234375 16.671875
vt -14.21875 10.40625
vt -12.234375 10.1171875
vt -14.328125 9.703125
vt -12.3046875 9.4140625
vt -14.2578125 10.4140625
vt -14.21875 10.40625
vt -14.3671875 9.7109375
vt -14.328125 9.703125
vt -12.28125 10.1328125
vt -11.109375 10.359375
vt -12.265625 9.4296875
vt -11.0546875 9.6796875
vt -11.0234375 10.3984375
vt -8.953125 10.2265625
vt -11.046875 9.703125
vt -9.0234375 9.5078125
vt -15.5078125 10.6015625
vt -14.2578125 10.4140625
vt -15.609375 9.8984375
vt -14.3671875 9.7109375
vt -8.953125 10.2265625
vt -8.8984375 10.2109375
vt -9.0234375 9.5078125
vt -8.9609375 9.5
vt -14.3515625 9.6484375
vt -14.328125 9.703125
vt -12.28125 9.359375
vt -12.3046875 9.4140625
vt -15.609375 9.8359375
vt -15.609375 9.8984375
vt -14.3515625 9.6484375
vt -14.3671875 9.7109375
vt -11.03125 9.640625
vt -11.046875 9.703125
vt -9.0078125 9.4453125
vt -9.0234375 9.5078125
vt -25.53125 8.078125
vt -25.546875 7.796875
vt -26.703125 8.1484375
vt -26.703125 7.859375
vt -26.734375 8.1484375
vt -26.71875 7.859375
vt -27.953125 8.15625
vt -27.953125 7.875
vt -27.984375 8.15625
vt -27.96875 7.875
vt -29.15625 8.1015625
vt -29.140625 7.8203125
vt -29.171875 8.1015625
vt -29.171875 7.8203125
vt -30.40625 8.09375
vt -30.40625 7.8085938
vt -26.703125 8.1484375
vt -26.703125 7.859375
vt -26.734375 8.1484375
vt -26.71875 7.859375
vt -29.15625 8.1015625
vt -29.140625 7.8203125
vt -29.171875 8.1015625
vt -29.171875 7.8203125
vt -27.96875 7.8320312
vt -29.140625 7.7773438
vt -27.96875 7.875
vt -29.140625 7.8203125
vt -26.71875 7.8085938
vt -27.96875 7.8320312
vt -26.71875 7.859375
vt -27.953125 7.875
vt -25.578125 7.7421875
vt -26.71875 7.8085938
vt -25.546875 7.796875
vt -26.703125 7.859375
vt 0.29907227 0.9970703
vt 0.10876465 0.56640625
vt 0.29907227 0.56640625
vt 0.29907227 0.9970703
vt 0.10876465 0.56640625
vt 0.29907227 0.56640625
vt 0.29907227 0.9970703
vt 0.10876465 0.56640625
vt 0.29907227 0.56640625
vt 0.29907227 0.9970703
vt 0.10876465 0.56640625
vt 0.29907227 0.56640625
vt 0.19628906 0.9628906
vt 0.17993164 0.6142578
vt 0.037200928 0.6142578
vt 0.19628906 0.9628906
vt 0.17993164 0.6142578
vt 0.037200928 0.6142578
vt 0.19628906 0.9628906
vt 0.17993164 0.6142578
vt 0.037200928 0.6142578
vt 0.19628906 0.9628906
vt 0.17993164 0.6142578
vt 0.037200928 0.6142578
vt 0.27075195 0.9628906
vt 0.03060913 0.61328125
vt 0.27075195 0.61328125
vt 0.27075195 0.9628906
vt 0.03060913 0.61328125
vt 0.27075195 0.61328125
vt 0.27075195 0.9628906
vt 0.03060913 0.61328125
vt 0.27075195 0.61328125
vt 0.27075195 0.9628906
vt 0.03060913 0.61328125
vt 0.27075195 0.61328125
vt 0.022125244 0.9589844
vt 0.022125244 0.6533203
vt 0.022125244 0.6533203
vt 0.022125244 0.9589844
vt 0.022125244 0.6533203
vt 0.022125244 0.6533203
vt 0.022125244 0.9589844
vt 0.022125244 0.6533203
vt 0.022125244 0.6533203
vt 0.022125244 0.9589844
vt 0.022125244 0.6533203
vt 0.022125244 0.6533203
vt 0.022125244 0.6533203
vt 0.022125244 0.9589844
vt 0.37182617 0.6533203
vt 0.37841797 0.9589844
vt 0.37182617 0.6533203
vt 0.022125244 0.9589844
vt 0.022125244 0.6533203
vt 0.022125244 0.9589844
vt 0.4482422 0.6533203
vt 0.4555664 0.9589844
vt 0.4482422 0.6533203
vt 0.022125244 0.9589844
vt 0.27075195 0.9628906
vt 0.03060913 0.61328125
vt 0.27075195 0.61328125
vt 0.27075195 0.9628906
vt 0.03060913 0.61328125
vt 0.27075195 0.61328125
vt 0.27075195 0.9628906
vt 0.03060913 0.61328125
vt 0.27075195 0.61328125
vt 0.27075195 0.9628906
vt 0.03060913 0.61328125
vt 0.27075195 0.61328125
vt 0.27075195 0.9628906
vt 0.27075195 0.61328125
vt 0.03060913 0.61328125
vt 0.27075195 0.9628906
vt 0.27075195 0.61328125
vt 0.03060913 0.61328125
vt 0.27075195 0.9628906
vt 0.27075195 0.61328125
vt 0.03060913 0.61328125
vt 0.27075195 0.9628906
vt 0.27075195 0.61328125
vt 0.03060913 0.61328125
vt 0.29907227 0.56640625
vt 0.9770508 0.56640625
vt 0.29907227 0.9970703
vt 0.9770508 0.9970703
vt 0.29907227 0.56640625
vt 0.9770508 0.56640625
vt 0.29907227 0.9970703
vt 0.9770508 0.9970703
vt 0.29907227 0.56640625
vt 0.9770508 0.56640625
vt 0.29907227 0.9970703
vt 0.9770508 0.9970703
vt 0.29907227 0.56640625
vt 0.9770508 0.56640625
vt 0.29907227 0.9970703
vt 0.9770508 0.9970703
vt 0.007358551 0.012634277
vt 0.29907227 0.012634277
vt 0.10876465 0.56640625
vt 0.29907227 0.56640625
vt 0.007358551 0.012634277
vt 0.29907227 0.012634277
vt 0.10876465 0.56640625
vt 0.29907227 0.56640625
vt 0.29907227 0.012634277
vt 0.9770508 0.012634277
vt 0.29907227 0.56640625
vt 0.9770508 0.56640625
vt 0.29907227 0.012634277
vt 0.9770508 0.012634277
vt 0.29907227 0.56640625
vt 0.9770508 0.56640625
vt 0.29907227 0.012634277
vt 0.9770508 0.012634277
vt 0.29907227 0.56640625
vt 0.9770508 0.56640625
vt 0.007358551 0.012634277
vt 0.29907227 0.012634277
vt 0.10876465 0.56640625
vt 0.29907227 0.56640625
vt 0.007358551 0.012634277
vt 0.29907227 0.012634277
vt 0.10876465 0.56640625
vt 0.29907227 0.56640625
vt 0.29907227 0.012634277
vt 0.9770508 0.012634277
vt 0.29907227 0.56640625
vt 0.9770508 0.56640625
vt 0.03262329 0.01386261
vt 0.037200928 0.6142578
vt 0.17443848 0.01386261
vt 0.17993164 0.6142578
vt 0.03262329 0.01386261
vt 0.037200928 0.6142578
vt 0.17443848 0.01386261
vt 0.17993164 0.6142578
vt 0.03262329 0.01386261
vt 0.037200928 0.6142578
vt 0.1472168 0.01386261
vt 0.17993164 0.6142578
vt 0.03262329 0.01386261
vt 0.037200928 0.6142578
vt 0.17443848 0.01386261
vt 0.17993164 0.6142578
vt 0.17993164 0.6142578
vt 0.19628906 0.9628906
vt 0.82910156 0.6142578
vt 0.82910156 0.9628906
vt 0.17993164 0.6142578
vt 0.19628906 0.9628906
vt 0.82910156 0.6142578
vt 0.82910156 0.9628906
vt 0.17993164 0.6142578
vt 0.19628906 0.9628906
vt 0.82910156 0.6142578
vt 0.82910156 0.9628906
vt 0.17993164 0.6142578
vt 0.19628906 0.9628906
vt 0.82910156 0.6142578
vt 0.82910156 0.9628906
vt 0.17443848 0.01386261
vt 0.17993164 0.6142578
vt 0.82910156 0.01386261
vt 0.82910156 0.6142578
vt 0.17443848 0.01386261
vt 0.17993164 0.6142578
vt 0.82910156 0.01386261
vt 0.82910156 0.6142578
vt 0.1472168 0.01386261
vt 0.17993164 0.6142578
vt 0.82910156 0.01386261
vt 0.82910156 0.6142578
vt 0.17443848 0.01386261
vt 0.17993164 0.6142578
vt 0.82910156 0.01386261
vt 0.82910156 0.6142578
vt 0.03060913 0.02067566
vt 0.27075195 0.02067566
vt 0.03060913 0.61328125
vt 0.27075195 0.61328125
vt 0.03060913 0.02067566
vt 0.27075195 0.02067566
vt 0.03060913 0.61328125
vt 0.27075195 0.61328125
vt 0.03060913 0.02067566
vt 0.27075195 0.02067566
vt 0.03060913 0.61328125
vt 0.27075195 0.61328125
vt 0.03060913 0.02067566
vt 0.27075195 0.02067566
vt 0.03060913 0.61328125
vt 0.27075195 0.61328125
vt 0.27075195 0.61328125
vt 0.82714844 0.61328125
vt 0.27075195 0.9628906
vt 0.82714844 0.9628906
vt 0.27075195 0.61328125
vt 0.82714844 0.61328125
vt 0.27075195 0.9628906
vt 0.82714844 0.9628906
vt 0.27075195 0.61328125
vt 0.82714844 0.61328125
vt 0.27075195 0.9628906
vt 0.82714844 0.9628906
vt 0.27075195 0.61328125
vt 0.82714844 0.61328125
vt 0.27075195 0.9628906
vt 0.82714844 0.9628906
vt 0.27075195 0.02067566
vt 0.82714844 0.02067566
vt 0.27075195 0.61328125
vt 0.82714844 0.61328125
vt 0.27075195 0.02067566
vt 0.82714844 0.02067566
vt 0.27075195 0.61328125
vt 0.82714844 0.61328125
vt 0.27075195 0.02067566
vt 0.82714844 0.02067566
vt 0.27075195 0.61328125
vt 0.82714844 0.61328125
vt 0.27075195 0.02067566
vt 0.82714844 0.02067566
vt 0.27075195 0.61328125
vt 0.82714844 0.61328125
vt 0.022125244 0.028457642
vt 0.022125244 0.6533203
vt 0.022125244 0.028457642
vt 0.022125244 0.6533203
vt 0.022125244 0.028457642
vt 0.022125244 0.6533203
vt 0.022125244 0.028457642
vt 0.022125244 0.6533203
vt 0.022125244 0.028457642
vt 0.022125244 0.6533203
vt 0.022125244 0.028457642
vt 0.022125244 0.6533203
vt 0.022125244 0.028457642
vt 0.022125244 0.6533203
vt 0.022125244 0.028457642
vt 0.022125244 0.6533203
vt 0.022125244 0.6533203
vt 0.022125244 0.9589844
vt 0.3720703 0.6533203
vt 0.3720703 0.9589844
vt 0.022125244 0.6533203
vt 0.022125244 0.9589844
vt 0.45874023 0.6533203
vt 0.4633789 0.9589844
vt 0.022125244 0.028457642
vt 0.022125244 0.6533203
vt 0.3720703 0.028457642
vt 0.3720703 0.6533203
vt 0.022125244 0.028457642
vt 0.022125244 0.6533203
vt 0.45825195 0.028457642
vt 0.45874023 0.6533203
vt 0.022125244 0.028457642
vt 0.022125244 0.6533203
vt 0.36987305 0.028457642
vt 0.37182617 0.6533203
vt 0.022125244 0.028457642
vt 0.022125244 0.6533203
vt 0.44433594 0.028457642
vt 0.4482422 0.6533203
vt 0.03060913 0.02067566
vt 0.27075195 0.02067566
vt 0.03060913 0.61328125
vt 0.27075195 0.61328125
vt 0.03060913 0.02067566
vt 0.27075195 0.02067566
vt 0.03060913 0.61328125
vt 0.27075195 0.61328125
vt 0.03060913 0.02067566
vt 0.27075195 0.02067566
vt 0.03060913 0.61328125
vt 0.27075195 0.61328125
vt 0.03060913 0.02067566
vt 0.27075195 0.02067566
vt 0.03060913 0.61328125
vt 0.27075195 0.61328125
vt 0.27075195 0.61328125
vt 0.82714844 0.61328125
vt 0.27075195 0.9628906
vt 0.82714844 0.9628906
vt 0.27075195 0.61328125
vt 0.82714844 0.61328125
vt 0.27075195 0.9628906
vt 0.82714844 0.9628906
vt 0.27075195 0.61328125
vt 0.82714844 0.61328125
vt 0.27075195 0.9628906
vt 0.82714844 0.9628906
vt 0.27075195 0.61328125
vt 0.82714844 0.61328125
vt 0.27075195 0.9628906
vt 0.82714844 0.9628906
vt 0.27075195 0.02067566
vt 0.82714844 0.02067566
vt 0.27075195 0.61328125
vt 0.82714844 0.61328125
vt 0.27075195 0.02067566
vt 0.82714844 0.02067566
vt 0.27075195 0.61328125
vt 0.82714844 0.61328125
vt 0.27075195 0.02067566
vt 0.82714844 0.02067566
vt 0.27075195 0.61328125
vt 0.82714844 0.61328125
vt 0.27075195 0.02067566
vt 0.82714844 0.02067566
vt 0.27075195 0.61328125
vt 0.82714844 0.61328125
vt 0.03060913 0.02067566
vt 0.03060913 0.61328125
vt 0.27075195 0.02067566
vt 0.27075195 0.61328125
vt 0.03060913 0.02067566
vt 0.03060913 0.61328125
vt 0.27075195 0.02067566
vt 0.27075195 0.61328125
vt 0.03060913 0.02067566
vt 0.03060913 0.61328125
vt 0.27075195 0.02067566
vt 0.27075195 0.61328125
vt 0.03060913 0.02067566
vt 0.03060913 0.61328125
vt 0.27075195 0.02067566
vt 0.27075195 0.61328125
vt 0.27075195 0.61328125
vt 0.27075195 0.9628906
vt 0.82714844 0.61328125
vt 0.82714844 0.9628906
vt 0.27075195 0.61328125
vt 0.27075195 0.9628906
vt 0.82714844 0.61328125
vt 0.82714844 0.9628906
vt 0.27075195 0.61328125
vt 0.27075195 0.9628906
vt 0.82714844 0.61328125
vt 0.82714844 0.9628906
vt 0.27075195 0.61328125
vt 0.27075195 0.9628906
vt 0.82714844 0.61328125
vt 0.82714844 0.9628906
vt 0.27075195 0.02067566
vt 0.27075195 0.61328125
vt 0.82714844 0.02067566
vt 0.82714844 0.61328125
vt 0.27075195 0.02067566
vt 0.27075195 0.61328125
vt 0.82714844 0.02067566
vt 0.82714844 0.61328125
vt 0.27075195 0.02067566
vt 0.27075195 0.61328125
vt 0.82714844 0.02067566
vt 0.82714844 0.61328125
vt 0.27075195 0.02067566
vt 0.27075195 0.61328125
vt 0.82714844 0.02067566
vt 0.82714844 0.61328125
vt 3.7539062 -4.2773438
vt 4.7148438 -4.2617188
vt 3.7597656 -7.84375
vt 4.7226562 -7.8242188
vt 7.3867188 11.359375
vt 7.3554688 9.8359375
vt 3.8144531 11.4609375
vt 3.7871094 9.90625
vt 16.453125 26.796875
vt 16 26.828125
vt 16.5 27.234375
vt 16.046875 27.265625
vt 18.625 25.03125
vt 18.625 24.515625
vt 17.78125 25.078125
vt 17.78125 24.5625
vt 15.234375 25.4375
vt 14.3828125 25.5
vt 15.296875 26.09375
vt 14.4453125 26.171875
vt 21.375 3.8925781
vt 21.390625 3.1523438
vt 20.578125 3.8574219
vt 20.609375 3.1035156
vt 5.3320312 3.4199219
vt 1.7900391 3.4570312
vt 5.359375 4.328125
vt 1.8154297 4.3632812
vt 11.9609375 8.171875
vt 8.4453125 8.09375
vt 11.9375 9.6953125
vt 8.4296875 9.6171875
vt 16.453125 26.078125
vt 16.453125 25.640625
vt 16 26.09375
vt 16 25.65625
vt 19.90625 27.015625
vt 19.046875 27
vt 19.921875 27.515625
vt 19.0625 27.5
vt 17.578125 23.8125
vt 17.5625 23.15625
vt 16.71875 23.84375
vt 16.703125 23.171875
vt 18.796875 25.078125
vt 18.03125 25.125
vt 18.828125 25.8125
vt 18.0625 25.859375
vn -0.7714844 -0.007663727 -0.63623047
vn -0.7714844 -0.007663727 -0.63623047
vn -0.7714844 -0.007663727 -0.63623047
vn -0.7714844 -0.0076828003 -0.6357422
vn -0.7714844 -0.0076828003 -0.6357422
vn -0.7714844 -0.0076828003 -0.6357422
vn 0.7714844 0.010520935 0.6357422
vn 0.7714844 0.010520935 0.6357422
vn 0.7714844 0.010520935 0.6357422
vn 0.7714844 0.010520935 0.6357422
vn 0.7714844 0.010520935 0.6357422
vn 0.7714844 0.010520935 0.6357422
vn -0.3803711 -0.79248047 -0.47631836
vn -0.3803711 -0.79248047 -0.47631836
vn -0.3803711 -0.79248047 -0.47631836
vn -0.4633789 -0.72021484 0.5161133
vn -0.4633789 -0.72021484 0.5161133
vn -0.4633789 -0.72021484 0.5161133
vn 0.47021484 -0.71484375 -0.5175781
vn 0.47021484 -0.71484375 -0.5175781
vn 0.47021484 -0.71484375 -0.5175781
vn 0.5239258 -0.73583984 0.42919922
vn 0.5239258 -0.73583984 0.42919922
vn 0.5239258 -0.73583984 0.42919922
vn -0.4140625 -0.91015625 -0.0017967224
vn -0.4140625 -0.91015625 -0.0017967224
vn -0.4140625 -0.91015625 -0.0017967224
vn -0.55810547 -0.82958984 6.181002E-05
vn -0.55810547 -0.82958984 6.181002E-05
vn -0.55810547 -0.82958984 6.181002E-05
vn 0.69384766 0.005092621 0.71972656
vn 0.69384766 0.005092621 0.71972656
vn 0.69384766 0.005092621 0.71972656
vn 0.69384766 0.005092621 0.71972656
vn 0.69384766 0.005092621 0.71972656
vn 0.69384766 0.005092621 0.71972656
vn -0.69384766 -0.0016889572 -0.71972656
vn -0.69384766 -0.0016889572 -0.71972656
vn -0.69384766 -0.0016889572 -0.71972656
vn -0.69384766 -0.0016889572 -0.71972656
vn -0.69384766 -0.0016889572 -0.71972656
vn -0.69384766 -0.0016889572 -0.71972656
vn 0.39233398 -0.83935547 0.37670898
vn 0.39233398 -0.83935547 0.37670898
vn 0.39233398 -0.83935547 0.37670898
vn -0.4272461 -0.8027344 0.41577148
vn -0.4272461 -0.8027344 0.41577148
vn -0.4272461 -0.8027344 0.41577148
vn 0.6425781 -0.453125 -0.6176758
vn 0.6425781 -0.453125 -0.6176758
vn 0.6425781 -0.453125 -0.6176758
vn -0.5185547 -0.64501953 -0.56103516
vn -0.5185547 -0.64501953 -0.56103516
vn -0.5185547 -0.64501953 -0.56103516
vn 0.8017578 -0.59765625 -0.0057296753
vn 0.8017578 -0.59765625 -0.0057296753
vn 0.8017578 -0.59765625 -0.0057296753
vn 0.5605469 -0.8276367 -0.017745972
vn 0.5605469 -0.8276367 -0.017745972
vn 0.5605469 -0.8276367 -0.017745972
vn 0.89453125 4.172325E-07 -0.44677734
vn 0.89453125 4.172325E-07 -0.44677734
vn 0.89453125 4.172325E-07 -0.44677734
vn 0.89453125 5.364418E-07 -0.44677734
vn 0.89453125 5.364418E-07 -0.44677734
vn 0.89453125 5.364418E-07 -0.44677734
vn -0.73046875 -0.57714844 0.3647461
vn -0.73046875 -0.57714844 0.3647461
vn -0.73046875 -0.57714844 0.3647461
vn 0.3647461 -0.57714844 0.73046875
vn 0.3647461 -0.57714844 0.73046875
vn 0.3647461 -0.57714844 0.73046875
vn -0.3647461 -0.57714844 -0.73046875
vn -0.3647461 -0.57714844 -0.73046875
vn -0.3647461 -0.57714844 -0.73046875
vn 0.73046875 -0.57714844 -0.3647461
vn 0.73046875 -0.57714844 -0.3647461
vn 0.73046875 -0.57714844 -0.3647461
vn 0.6567383 0.0013360977 0.75439453
vn 0.6567383 0.0013360977 0.75439453
vn 0.6567383 0.0013360977 0.75439453
vn 0.6567383 0.0013370514 0.75439453
vn 0.6567383 0.0013370514 0.75439453
vn 0.6567383 0.0013370514 0.75439453
vn 0.39916992 -0.7944336 0.45776367
vn 0.39916992 -0.7944336 0.45776367
vn 0.39916992 -0.7944336 0.45776367
vn -0.48657227 -0.76464844 0.42260742
vn -0.48657227 -0.76464844 0.42260742
vn -0.48657227 -0.76464844 0.42260742
vn 0.6352539 -0.53808594 -0.55371094
vn 0.6352539 -0.53808594 -0.55371094
vn 0.6352539 -0.53808594 -0.55371094
vn -0.5175781 -0.6142578 -0.5957031
vn -0.5175781 -0.6142578 -0.5957031
vn -0.5175781 -0.6142578 -0.5957031
vn 0.74316406 -0.66748047 -0.045166016
vn 0.74316406 -0.66748047 -0.045166016
vn 0.74316406 -0.66748047 -0.045166016
vn 0.6542969 -0.7548828 -0.044128418
vn 0.6542969 -0.7548828 -0.044128418
vn 0.6542969 -0.7548828 -0.044128418
vn -0.74560547 0.0036182404 0.6660156
vn -0.74560547 0.0036182404 0.6660156
vn -0.74560547 0.0036182404 0.6660156
vn -0.74560547 0.003616333 0.6660156
vn -0.74560547 0.003616333 0.6660156
vn -0.74560547 0.003616333 0.6660156
vn 0.6660156 0.0036182404 0.74560547
vn 0.6660156 0.0036182404 0.74560547
vn 0.6660156 0.0036182404 0.74560547
vn 0.6660156 0.0036201477 0.74560547
vn 0.6660156 0.0036201477 0.74560547
vn 0.6660156 0.0036201477 0.74560547
vn -0.6088867 -0.57714844 0.5439453
vn -0.6088867 -0.57714844 0.5439453
vn -0.6088867 -0.57714844 0.5439453
vn 0.5439453 -0.57714844 0.6088867
vn 0.5439453 -0.57714844 0.6088867
vn 0.5439453 -0.57714844 0.6088867
vn -0.5439453 -0.57714844 -0.6088867
vn -0.5439453 -0.57714844 -0.6088867
vn -0.5439453 -0.57714844 -0.6088867
vn 0.6088867 -0.57714844 -0.5439453
vn 0.6088867 -0.57714844 -0.5439453
vn 0.6088867 -0.57714844 -0.5439453
vn -0.009056091 -0.70654297 0.70751953
vn -0.009056091 -0.70654297 0.70751953
vn -0.009056091 -0.70654297 0.70751953
vn -0.009056091 -0.70654297 0.70751953
vn -0.009056091 -0.70654297 0.70751953
vn -0.009056091 -0.70654297 0.70751953
vn 0.7529297 0.0077781677 0.6582031
vn 0.7529297 0.0077781677 0.6582031
vn 0.7529297 0.0077781677 0.6582031
vn 0.7529297 0.0077819824 0.6582031
vn 0.7529297 0.0077819824 0.6582031
vn 0.7529297 0.0077819824 0.6582031
vn -0.7529297 -0.0025863647 -0.6582031
vn -0.7529297 -0.0025863647 -0.6582031
vn -0.7529297 -0.0025863647 -0.6582031
vn -0.7529297 -0.0025806427 -0.6582031
vn -0.7529297 -0.0025806427 -0.6582031
vn -0.7529297 -0.0025806427 -0.6582031
vn 0.4230957 -0.83935547 0.34179688
vn 0.4230957 -0.83935547 0.34179688
vn 0.4230957 -0.83935547 0.34179688
vn -0.39038086 -0.8027344 0.4506836
vn -0.39038086 -0.8027344 0.4506836
vn -0.39038086 -0.8027344 0.4506836
vn 0.5878906 -0.453125 -0.6699219
vn 0.5878906 -0.453125 -0.6699219
vn 0.5878906 -0.453125 -0.6699219
vn -0.5644531 -0.64501953 -0.5151367
vn -0.5644531 -0.64501953 -0.5151367
vn -0.5644531 -0.64501953 -0.5151367
vn 0.7988281 -0.59765625 -0.07019043
vn 0.7988281 -0.59765625 -0.07019043
vn 0.7988281 -0.59765625 -0.07019043
vn 0.5571289 -0.828125 -0.06506348
vn 0.5571289 -0.828125 -0.06506348
vn 0.5571289 -0.828125 -0.06506348
vn -1 -0.010383606 -0.0041160583
vn -1 -0.010383606 -0.0041160583
vn -1 -0.010383606 -0.0041160583
vn -1 -0.010414124 -0.004108429
vn -0.017929077 -0.00074100494 1
vn -0.017929077 -0.00074100494 1
vn -0.017929077 -0.00074100494 1
vn -0.017822266 -0.0009665489 1
vn 1 0.014213562 0.0041160583
vn 1 0.014213562 0.0041160583
vn 1 0.014213562 0.0041160583
vn 1 0.014213562 0.004119873
vn 0.017929077 0.0009675026 -1
vn 0.017929077 0.0009675026 -1
vn 0.017929077 0.0009675026 -1
vn 0.017822266 0.0007405281 -1
vn -0.67041016 -0.0073928833 0.7421875
vn -0.67041016 -0.0073928833 0.7421875
vn -0.67041016 -0.0073928833 0.7421875
vn -0.67041016 -0.0073890686 0.7421875
vn 0.67041016 0.010055542 -0.7421875
vn 0.67041016 0.010055542 -0.7421875
vn 0.67041016 0.010055542 -0.7421875
vn 0.67041016 0.010063171 -0.7421875
vn 0.013221741 -0.8364258 -0.54785156
vn 0.013221741 -0.8364258 -0.54785156
vn 0.013221741 -0.8364258 -0.54785156
vn 0.013221741 -0.8364258 -0.54785156
vn 0.56689453 -0.82373047 0.0022506714
vn 0.56689453 -0.82373047 0.0022506714
vn 0.56689453 -0.82373047 0.0022506714
vn 0.56689453 -0.82373047 0.0022506714
vn -0.0062942505 -0.83691406 0.5473633
vn -0.0062942505 -0.83691406 0.5473633
vn -0.0062942505 -0.83691406 0.5473633
vn -0.0062942505 -0.83691406 0.5473633
vn -0.0021629333 -0.0030097961 1
vn -0.0021629333 -0.0030097961 1
vn -0.0021629333 -0.0030097961 1
vn -0.002161026 -0.0030059814 1
vn -1 -0.010467529 0.015304565
vn -1 -0.010467529 0.015304565
vn -1 -0.010467529 0.015304565
vn -1 -0.0107040405 0.015235901
vn 0.002155304 0.007881165 -1
vn 0.002155304 0.007881165 -1
vn 0.002155304 0.007881165 -1
vn 0.0021514893 0.007896423 -1
vn 1 0.01071167 -0.015304565
vn 1 0.01071167 -0.015304565
vn 1 0.01071167 -0.015304565
vn 1 0.010482788 -0.015235901
vn -0.71972656 -0.00957489 0.69433594
vn -0.71972656 -0.00957489 0.69433594
vn -0.71972656 -0.00957489 0.69433594
vn -0.71972656 -0.00957489 0.69433594
vn 0.71972656 0.013084412 -0.69384766
vn 0.71972656 0.013084412 -0.69384766
vn 0.71972656 0.013084412 -0.69384766
vn 0.71972656 0.013084412 -0.69384766
vn 0.0023117065 -0.6010742 -0.7988281
vn 0.0023117065 -0.6010742 -0.7988281
vn 0.0023117065 -0.6010742 -0.7988281
vn 0.0027580261 -0.5913086 -0.8066406
vn -0.62841797 -0.77783203 0.00035834312
vn -0.62841797 -0.77783203 0.00035834312
vn -0.62841797 -0.77783203 0.00035834312
vn -0.6123047 -0.79052734 0.0006752014
vn -6.407499E-05 -0.8305664 0.5566406
vn -6.407499E-05 -0.8305664 0.5566406
vn -6.407499E-05 -0.8305664 0.5566406
vn 0.00023126602 -0.8339844 0.5517578
vn -0.94970703 2.9802322E-07 -0.3137207
vn -0.94970703 2.9802322E-07 -0.3137207
vn -0.94970703 2.9802322E-07 -0.3137207
vn -0.94970703 1.3053417E-05 -0.3137207
vn -0.89453125 0.0033874512 0.44677734
vn -0.89453125 0.0033874512 0.44677734
vn -0.89453125 0.0033874512 0.44677734
vn -0.89453125 0.0033874512 0.44677734
vn -0.44677734 -2.026558E-06 -0.89453125
vn -0.44677734 -2.026558E-06 -0.89453125
vn -0.44677734 -2.026558E-06 -0.89453125
vn -0.44677734 7.748604E-07 -0.89453125
vn -0.28881836 0.0047912598 0.95751953
vn -0.28881836 0.0047912598 0.95751953
vn -0.28881836 0.0047912598 0.95751953
vn -0.28881836 0.0047912598 0.95751953
vn 0.94970703 -1.2755394E-05 0.3137207
vn 0.94970703 -1.2755394E-05 0.3137207
vn 0.94970703 -1.2755394E-05 0.3137207
vn 0.94970703 -2.9802322E-07 0.3137207
vn 0.29101562 1.1920929E-06 -0.95654297
vn 0.29101562 1.1920929E-06 -0.95654297
vn 0.29101562 1.1920929E-06 -0.95654297
vn 0.29101562 0 -0.95654297
vn 0.44677734 0.0033893585 0.89453125
vn 0.44677734 0.0033893585 0.89453125
vn 0.44677734 0.0033893585 0.89453125
vn 0.44677734 0.0033893585 0.89453125
vn -0.6713867 -0.70703125 -0.22180176
vn -0.6713867 -0.70703125 -0.22180176
vn -0.6713867 -0.70703125 -0.22180176
vn -0.6713867 -0.70703125 -0.22180176
vn 0.20581055 -0.70703125 -0.6767578
vn 0.20581055 -0.70703125 -0.6767578
vn 0.20581055 -0.70703125 -0.6767578
vn 0.20581055 -0.70703125 -0.6767578
vn 0.6713867 -0.70703125 0.22192383
vn 0.6713867 -0.70703125 0.22192383
vn 0.6713867 -0.70703125 0.22192383
vn 0.6713867 -0.70703125 0.22192383
vn -0.2043457 -0.70703125 0.6772461
vn -0.2043457 -0.70703125 0.6772461
vn -0.2043457 -0.70703125 0.6772461
vn -0.2043457 -0.70703125 0.6772461
vn 0.007926941 0.0020332336 1
vn 0.007926941 0.0020332336 1
vn 0.007926941 0.0020332336 1
vn 0.007926941 0.002035141 1
vn -0.9980469 0.00043725967 0.06524658
vn -0.9980469 0.00043725967 0.06524658
vn -0.9980469 0.00043725967 0.06524658
vn -0.9980469 1.0311604E-05 0.06500244
vn -0.007926941 0.0011463165 -1
vn -0.007926941 0.0011463165 -1
vn -0.007926941 0.0011463165 -1
vn -0.007926941 0.0011463165 -1
vn 0.9980469 -1.013279E-05 -0.06524658
vn 0.9980469 -1.013279E-05 -0.06524658
vn 0.9980469 -1.013279E-05 -0.06524658
vn 0.9980469 -0.0004351139 -0.06500244
vn -0.75439453 0.0015678406 0.6567383
vn -0.75439453 0.0015678406 0.6567383
vn -0.75439453 0.0015678406 0.6567383
vn -0.75439453 0.0015678406 0.6567383
vn -0.6567383 0.00091934204 -0.75439453
vn -0.6567383 0.00091934204 -0.75439453
vn -0.6567383 0.00091934204 -0.75439453
vn -0.6567383 0.0009198189 -0.75439453
vn 0.75439453 0.000688076 -0.6567383
vn 0.75439453 0.000688076 -0.6567383
vn 0.75439453 0.000688076 -0.6567383
vn 0.75439453 0.0006866455 -0.6567383
vn -0.0074310303 -0.6894531 -0.7241211
vn -0.0074310303 -0.6894531 -0.7241211
vn -0.0074310303 -0.6894531 -0.7241211
vn -0.0059928894 -0.66845703 -0.74365234
vn -0.65625 -0.75341797 0.04220581
vn -0.65625 -0.75341797 0.04220581
vn -0.65625 -0.75341797 0.04220581
vn -0.6777344 -0.7338867 0.042633057
vn 0.004940033 -0.8417969 0.54003906
vn 0.004940033 -0.8417969 0.54003906
vn 0.004940033 -0.8417969 0.54003906
vn 0.0042266846 -0.8359375 0.5488281
vn -1 -7.1525574E-07 -0.016067505
vn -1 -7.1525574E-07 -0.016067505
vn -1 -7.1525574E-07 -0.016067505
vn -1 0.00020229816 -0.01612854
vn -0.6660156 -2.2649765E-06 -0.74560547
vn -0.6660156 -2.2649765E-06 -0.74560547
vn -0.6660156 -2.2649765E-06 -0.74560547
vn -0.6660156 3.5762787E-07 -0.74560547
vn -0.012802124 0.0051116943 1
vn -0.012802124 0.0051116943 1
vn -0.012802124 0.0051116943 1
vn -0.012802124 0.005115509 1
vn 1 -0.00020492077 0.016082764
vn 1 -0.00020492077 0.016082764
vn 1 -0.00020492077 0.016082764
vn 1 0 0.016159058
vn 0.0138168335 1.9073486E-06 -1
vn 0.0138168335 1.9073486E-06 -1
vn 0.0138168335 1.9073486E-06 -1
vn 0.0138168335 -3.5762787E-07 -1
vn 0.74560547 4.7683716E-07 -0.6660156
vn 0.74560547 4.7683716E-07 -0.6660156
vn 0.74560547 4.7683716E-07 -0.6660156
vn 0.74560547 1.2516975E-06 -0.6660156
vn -0.70751953 -0.70703125 -0.011413574
vn -0.70751953 -0.70703125 -0.011413574
vn -0.70751953 -0.70703125 -0.011413574
vn -0.70751953 -0.70703125 -0.011413574
vn 0.009773254 -0.70703125 -0.70751953
vn 0.009773254 -0.70703125 -0.70751953
vn 0.009773254 -0.70703125 -0.70751953
vn 0.009773254 -0.70654297 -0.70751953
vn 0.70751953 -0.70703125 0.011428833
vn 0.70751953 -0.70703125 0.011428833
vn 0.70751953 -0.70703125 0.011428833
vn 0.70751953 -0.70703125 0.011428833
vn 0.101623535 -0.004295349 0.9946289
vn 0.101623535 -0.004295349 0.9946289
vn 0.101623535 -0.004295349 0.9946289
vn 0.101623535 -0.0042915344 0.9946289
vn -0.9951172 -0.015975952 0.09698486
vn -0.9951172 -0.015975952 0.09698486
vn -0.9951172 -0.015975952 0.09698486
vn -0.9951172 -0.016357422 0.09686279
vn -0.101623535 0.011779785 -0.9946289
vn -0.101623535 0.011779785 -0.9946289
vn -0.101623535 0.011779785 -0.9946289
vn -0.101623535 0.011795044 -0.9946289
vn 0.9951172 0.01638794 -0.09698486
vn 0.9951172 0.01638794 -0.09698486
vn 0.9951172 0.01638794 -0.09698486
vn 0.9951172 0.015991211 -0.09692383
vn -0.6582031 -0.01461792 0.7529297
vn -0.6582031 -0.01461792 0.7529297
vn -0.6582031 -0.01461792 0.7529297
vn -0.6582031 -0.01461792 0.7529297
vn 0.6582031 0.020065308 -0.7529297
vn 0.6582031 0.020065308 -0.7529297
vn 0.6582031 0.020065308 -0.7529297
vn 0.6582031 0.020065308 -0.7529297
vn -0.080444336 -0.60546875 -0.7919922
vn -0.080444336 -0.60546875 -0.7919922
vn -0.080444336 -0.60546875 -0.7919922
vn -0.08093262 -0.5913086 -0.8027344
vn -0.6274414 -0.77685547 0.050323486
vn -0.6274414 -0.77685547 0.050323486
vn -0.6274414 -0.77685547 0.050323486
vn -0.61035156 -0.79052734 0.049316406
vn 0.057647705 -0.8330078 0.55029297
vn 0.057647705 -0.8330078 0.55029297
vn 0.057647705 -0.8330078 0.55029297
vn 0.057678223 -0.83251953 0.55078125
vn -0.4465332 0.81689453 -0.36523438
vn -0.4465332 0.81689453 -0.36523438
vn -0.4465332 0.81689453 -0.36523438
vn -0.40771484 0.79541016 0.44799805
vn -0.40771484 0.79541016 0.44799805
vn -0.40771484 0.79541016 0.44799805
vn 0.47753906 0.69970703 -0.53125
vn 0.47753906 0.69970703 -0.53125
vn 0.47753906 0.69970703 -0.53125
vn 0.5361328 0.71777344 0.44433594
vn 0.5361328 0.71777344 0.44433594
vn 0.5361328 0.71777344 0.44433594
vn 0.18603516 0.95751953 0.22131348
vn 0.18603516 0.95751953 0.22131348
vn 0.18603516 0.95751953 0.22131348
vn -0.22766113 0.94970703 0.21582031
vn -0.22766113 0.94970703 0.21582031
vn -0.22766113 0.94970703 0.21582031
vn 0.19360352 0.96240234 -0.19055176
vn 0.19360352 0.96240234 -0.19055176
vn 0.19360352 0.96240234 -0.19055176
vn -0.2163086 0.95654297 -0.19592285
vn -0.2163086 0.95654297 -0.19592285
vn -0.2163086 0.95654297 -0.19592285
vn -0.52734375 0.8076172 0.26342773
vn -0.52734375 0.8076172 0.26342773
vn -0.52734375 0.8076172 0.26342773
vn 0.26342773 0.8076172 0.52734375
vn 0.26342773 0.8076172 0.52734375
vn 0.26342773 0.8076172 0.52734375
vn -0.26342773 0.8076172 -0.52734375
vn -0.26342773 0.8076172 -0.52734375
vn -0.26342773 0.8076172 -0.52734375
vn 0.52734375 0.8076172 -0.26342773
vn 0.52734375 0.8076172 -0.26342773
vn 0.52734375 0.8076172 -0.26342773
vn 0.49316406 0.65966797 0.5673828
vn 0.49316406 0.65966797 0.5673828
vn 0.49316406 0.65966797 0.5673828
vn -0.6069336 0.5932617 0.5288086
vn -0.6069336 0.5932617 0.5288086
vn -0.6069336 0.5932617 0.5288086
vn 0.6826172 0.42578125 -0.59375
vn 0.6826172 0.42578125 -0.59375
vn 0.6826172 0.42578125 -0.59375
vn -0.52978516 0.5917969 -0.60791016
vn -0.52978516 0.5917969 -0.60791016
vn -0.52978516 0.5917969 -0.60791016
vn -0.0065193176 0.55322266 -0.8330078
vn -0.0065193176 0.55322266 -0.8330078
vn -0.0065193176 0.55322266 -0.8330078
vn -0.009757996 0.6430664 -0.765625
vn -0.009757996 0.6430664 -0.765625
vn -0.009757996 0.6430664 -0.765625
vn 0.74316406 0.66748047 -0.047210693
vn 0.74316406 0.66748047 -0.047210693
vn 0.74316406 0.66748047 -0.047210693
vn 0.8334961 0.55029297 -0.049468994
vn 0.8334961 0.55029297 -0.049468994
vn 0.8334961 0.55029297 -0.049468994
vn -0.43969727 0.8076172 0.39282227
vn -0.43969727 0.8076172 0.39282227
vn -0.43969727 0.8076172 0.39282227
vn 0.39282227 0.8076172 0.43969727
vn 0.39282227 0.8076172 0.43969727
vn 0.39282227 0.8076172 0.43969727
vn -0.39282227 0.8076172 -0.43969727
vn -0.39282227 0.8076172 -0.43969727
vn -0.39282227 0.8076172 -0.43969727
vn 0.43969727 0.8076172 -0.39282227
vn 0.43969727 0.8076172 -0.39282227
vn 0.43969727 0.8076172 -0.39282227
vn 0.20410156 0.95751953 0.20471191
vn 0.20410156 0.95751953 0.20471191
vn 0.20410156 0.95751953 0.20471191
vn -0.2084961 0.94970703 0.234375
vn -0.2084961 0.94970703 0.234375
vn -0.2084961 0.94970703 0.234375
vn 0.17675781 0.96240234 -0.20629883
vn 0.17675781 0.96240234 -0.20629883
vn 0.17675781 0.96240234 -0.20629883
vn -0.23217773 0.95654297 -0.17675781
vn -0.23217773 0.95654297 -0.17675781
vn -0.23217773 0.95654297 -0.17675781
vn -0.56591797 0.82470703 -0.0022468567
vn -0.56591797 0.82470703 -0.0022468567
vn -0.56591797 0.82470703 -0.0022468567
vn -0.5625 0.82666016 -0.0023460388
vn -0.01600647 0.67626953 0.7363281
vn -0.01600647 0.67626953 0.7363281
vn -0.01600647 0.67626953 0.7363281
vn -0.015960693 0.67529297 0.7373047
vn 0.72216797 0.69189453 0.0030403137
vn 0.72216797 0.69189453 0.0030403137
vn 0.72216797 0.69189453 0.0030403137
vn 0.71728516 0.69677734 0.0031661987
vn 0.0104904175 0.6723633 -0.7397461
vn 0.0104904175 0.6723633 -0.7397461
vn 0.0104904175 0.6723633 -0.7397461
vn 0.0104904175 0.6723633 -0.7402344
vn -0.7402344 0.28442383 -0.6088867
vn -0.7402344 0.28442383 -0.6088867
vn -0.7402344 0.28442383 -0.6088867
vn -0.7402344 0.28442383 -0.6088867
vn -0.6459961 0.26879883 0.71435547
vn -0.6459961 0.26879883 0.71435547
vn -0.6459961 0.26879883 0.71435547
vn -0.6459961 0.26879883 0.71435547
vn -0.9291992 0.3696289 -0.0037879944
vn -0.9291992 0.3696289 -0.0037879944
vn -0.9291992 0.3696289 -0.0037879944
vn -0.9291992 0.3696289 -0.0037879944
vn -0.018127441 0.38842773 0.9213867
vn -0.018127441 0.38842773 0.9213867
vn -0.018127441 0.38842773 0.9213867
vn -0.018127441 0.38842773 0.9213867
vn 0.014907837 0.3894043 -0.92089844
vn 0.014907837 0.3894043 -0.92089844
vn 0.014907837 0.3894043 -0.92089844
vn 0.014907837 0.3894043 -0.92089844
vn 0.6430664 0.2788086 -0.7133789
vn 0.6430664 0.2788086 -0.7133789
vn 0.6430664 0.2788086 -0.7133789
vn 0.6430664 0.27905273 -0.7128906
vn 0.7368164 0.29492188 0.60839844
vn 0.7368164 0.29492188 0.60839844
vn 0.7368164 0.29492188 0.60839844
vn 0.7368164 0.29492188 0.60839844
vn 0.9238281 0.3828125 0.0038414001
vn 0.9238281 0.3828125 0.0038414001
vn 0.9238281 0.3828125 0.0038414001
vn 0.9238281 0.3828125 0.0038394928
vn 0.64746094 0.34155273 0.6816406
vn 0.64746094 0.34155273 0.6816406
vn 0.64746094 0.34155273 0.6816406
vn 0.64746094 0.34155273 0.68115234
vn -0.6826172 0.32080078 0.6567383
vn -0.6826172 0.32080078 0.6567383
vn -0.6826172 0.32080078 0.6567383
vn -0.6826172 0.32104492 0.6567383
vn 0.6635742 0.38452148 -0.64160156
vn 0.6635742 0.38452148 -0.64160156
vn 0.6635742 0.38452148 -0.64160156
vn 0.6635742 0.38476562 -0.64160156
vn -0.65185547 0.36401367 -0.66503906
vn -0.65185547 0.36401367 -0.66503906
vn -0.65185547 0.36401367 -0.66503906
vn -0.65185547 0.36401367 -0.66503906
vn -0.002008438 0.9506836 0.31030273
vn -0.002008438 0.9506836 0.31030273
vn -0.002008438 0.9506836 0.31030273
vn -0.0014410019 0.9550781 0.29663086
vn -0.41235352 0.91064453 0.014602661
vn -0.41235352 0.91064453 0.014602661
vn -0.41235352 0.91064453 0.014602661
vn -0.40405273 0.9145508 0.014717102
vn -0.0007619858 0.96240234 -0.27172852
vn -0.0007619858 0.96240234 -0.27172852
vn -0.0007619858 0.96240234 -0.27172852
vn -0.0003914833 0.95996094 -0.28051758
vn 0.38623047 0.9223633 0.0024051666
vn 0.38623047 0.9223633 0.0024051666
vn 0.38623047 0.9223633 0.0024051666
vn 0.3684082 0.9296875 0.0023117065
vn -0.002565384 0.44384766 0.8959961
vn -0.002565384 0.44384766 0.8959961
vn -0.002565384 0.44384766 0.8959961
vn -0.002565384 0.44384766 0.8959961
vn -0.8901367 0.45581055 0.017837524
vn -0.8901367 0.45581055 0.017837524
vn -0.8901367 0.45581055 0.017837524
vn -0.8901367 0.45581055 0.017837524
vn 0.0011835098 0.49682617 -0.8676758
vn 0.0011835098 0.49682617 -0.8676758
vn 0.0011835098 0.49682617 -0.8676758
vn 0.0011825562 0.4970703 -0.8676758
vn 0.8745117 0.48535156 -0.00907135
vn 0.8745117 0.48535156 -0.00907135
vn 0.8745117 0.48535156 -0.00907135
vn 0.8745117 0.48510742 -0.00907135
vn -0.6777344 0.65283203 0.3383789
vn -0.6777344 0.65283203 0.3383789
vn -0.6777344 0.65283203 0.3383789
vn -0.6777344 0.65283203 0.33862305
vn 0.33862305 0.65283203 0.6777344
vn 0.33862305 0.65283203 0.6777344
vn 0.33862305 0.65283203 0.6777344
vn 0.3383789 0.65283203 0.6777344
vn -0.33862305 0.65283203 -0.6777344
vn -0.33862305 0.65283203 -0.6777344
vn -0.33862305 0.65283203 -0.6777344
vn -0.3383789 0.65283203 -0.6777344
vn 0.6777344 0.65283203 -0.33862305
vn 0.6777344 0.65283203 -0.33862305
vn 0.6777344 0.65283203 -0.33862305
vn 0.6777344 0.65283203 -0.3383789
vn -0.13256836 0.8886719 0.43920898
vn -0.13256836 0.8886719 0.43920898
vn -0.13256836 0.8886719 0.43920898
vn -0.13256836 0.8886719 0.43920898
vn 0.43554688 0.8886719 0.1439209
vn 0.43554688 0.8886719 0.1439209
vn 0.43554688 0.8886719 0.1439209
vn 0.43554688 0.8886719 0.1439209
vn 0.13354492 0.8886719 -0.43896484
vn 0.13354492 0.8886719 -0.43896484
vn 0.13354492 0.8886719 -0.43896484
vn 0.13354492 0.8886719 -0.43896484
vn -0.43554688 0.8886719 -0.14379883
vn -0.43554688 0.8886719 -0.14379883
vn -0.43554688 0.8886719 -0.14379883
vn -0.43554688 0.8886719 -0.14379883
vn -0.18334961 0.7729492 0.6074219
vn -0.18334961 0.7729492 0.6074219
vn -0.18334961 0.7729492 0.6074219
vn -0.18334961 0.7729492 0.6074219
vn 0.60253906 0.7729492 0.19909668
vn 0.60253906 0.7729492 0.19909668
vn 0.60253906 0.7729492 0.19909668
vn 0.60253906 0.7729492 0.19909668
vn 0.18469238 0.7729492 -0.6069336
vn 0.18469238 0.7729492 -0.6069336
vn 0.18469238 0.7729492 -0.6069336
vn 0.18469238 0.7729492 -0.6069336
vn -0.60253906 0.7729492 -0.19897461
vn -0.60253906 0.7729492 -0.19897461
vn -0.60253906 0.7729492 -0.19897461
vn -0.60253906 0.7729492 -0.19897461
vn 0.6254883 0.30371094 0.71875
vn 0.6254883 0.30371094 0.71875
vn 0.6254883 0.30371094 0.71875
vn 0.6254883 0.30371094 0.71875
vn -0.7182617 0.30395508 0.6254883
vn -0.7182617 0.30395508 0.6254883
vn -0.7182617 0.30395508 0.6254883
vn -0.7182617 0.30395508 0.6254883
vn 0.7182617 0.30541992 -0.625
vn 0.7182617 0.30541992 -0.625
vn 0.7182617 0.30541992 -0.625
vn 0.7182617 0.30541992 -0.625
vn -0.6254883 0.30566406 -0.7182617
vn -0.6254883 0.30566406 -0.7182617
vn -0.6254883 0.30566406 -0.7182617
vn -0.6254883 0.30566406 -0.71777344
vn 0.006134033 0.64697266 0.76220703
vn 0.006134033 0.64697266 0.76220703
vn 0.006134033 0.64697266 0.76220703
vn 0.007091522 0.6660156 0.74560547
vn -0.7792969 0.625 0.05218506
vn -0.7792969 0.625 0.05218506
vn -0.7792969 0.625 0.05218506
vn -0.7871094 0.6147461 0.05239868
vn 0.007286072 0.41015625 0.9121094
vn 0.007286072 0.41015625 0.9121094
vn 0.007286072 0.41015625 0.9121094
vn 0.007286072 0.41015625 0.9121094
vn -0.91064453 0.4091797 0.060333252
vn -0.91064453 0.4091797 0.060333252
vn -0.91064453 0.4091797 0.060333252
vn -0.91064453 0.4091797 0.060333252
vn -0.007160187 0.41235352 -0.9111328
vn -0.007160187 0.41235352 -0.9111328
vn -0.007160187 0.41235352 -0.9111328
vn -0.007156372 0.41235352 -0.9111328
vn 0.91064453 0.4091797 -0.058685303
vn 0.91064453 0.4091797 -0.058685303
vn 0.91064453 0.4091797 -0.058685303
vn 0.91064453 0.4091797 -0.058685303
vn -0.5649414 0.65283203 0.5048828
vn -0.5649414 0.65283203 0.5048828
vn -0.5649414 0.65283203 0.5048828
vn -0.5649414 0.65283203 0.5048828
vn 0.5048828 0.65283203 0.5649414
vn 0.5048828 0.65283203 0.5649414
vn 0.5048828 0.65283203 0.5649414
vn 0.5048828 0.65283203 0.5649414
vn -0.5048828 0.65283203 -0.5649414
vn -0.5048828 0.65283203 -0.5649414
vn -0.5048828 0.65283203 -0.5649414
vn -0.5048828 0.65283203 -0.5649414
vn 0.5649414 0.65283203 -0.5048828
vn 0.5649414 0.65283203 -0.5048828
vn 0.5649414 0.65283203 -0.5048828
vn 0.5649414 0.65283203 -0.5048828
vn -0.0058784485 0.8886719 0.45898438
vn -0.0058784485 0.8886719 0.45898438
vn -0.0058784485 0.8886719 0.45898438
vn -0.0058784485 0.8886719 0.45898438
vn 0.45898438 0.8881836 0.007381439
vn 0.45898438 0.8881836 0.007381439
vn 0.45898438 0.8881836 0.007381439
vn 0.45874023 0.8886719 0.007381439
vn 0.0063438416 0.8886719 -0.45898438
vn 0.0063438416 0.8886719 -0.45898438
vn 0.0063438416 0.8886719 -0.45898438
vn 0.0063438416 0.8886719 -0.45898438
vn -0.45898438 0.8886719 -0.007369995
vn -0.45898438 0.8886719 -0.007369995
vn -0.45898438 0.8886719 -0.007369995
vn -0.45898438 0.8886719 -0.007369995
vn -0.008125305 0.77246094 0.6347656
vn -0.008125305 0.77246094 0.6347656
vn -0.008125305 0.77246094 0.6347656
vn -0.008125305 0.77246094 0.6347656
vn 0.6347656 0.77246094 0.01020813
vn 0.6347656 0.77246094 0.01020813
vn 0.6347656 0.77246094 0.01020813
vn 0.6347656 0.77246094 0.01020813
vn 0.008773804 0.77246094 -0.6347656
vn 0.008773804 0.77246094 -0.6347656
vn 0.008773804 0.77246094 -0.6347656
vn 0.008773804 0.77246094 -0.6347656
vn -0.6347656 0.7729492 -0.010192871
vn -0.6347656 0.7729492 -0.010192871
vn -0.6347656 0.7729492 -0.010192871
vn -0.6347656 0.77246094 -0.010192871
vn 0.703125 0.34155273 0.62402344
vn 0.703125 0.34155273 0.62402344
vn 0.703125 0.34155273 0.62402344
vn 0.703125 0.34155273 0.62402344
vn -0.62402344 0.32080078 0.71240234
vn -0.62402344 0.32080078 0.71240234
vn -0.62402344 0.32080078 0.71240234
vn -0.62402344 0.32104492 0.71240234
vn 0.6069336 0.38452148 -0.6958008
vn 0.6069336 0.38452148 -0.6958008
vn 0.6069336 0.38452148 -0.6958008
vn 0.6069336 0.38452148 -0.6958008
vn -0.7060547 0.36401367 -0.6074219
vn -0.7060547 0.36401367 -0.6074219
vn -0.7060547 0.36401367 -0.6074219
vn -0.7060547 0.36401367 -0.6074219
vn 0.030441284 0.94970703 0.31103516
vn 0.030441284 0.94970703 0.31103516
vn 0.030441284 0.94970703 0.31103516
vn 0.029296875 0.9555664 0.2932129
vn -0.40966797 0.91064453 0.0496521
vn -0.40966797 0.91064453 0.0496521
vn -0.40966797 0.91064453 0.0496521
vn -0.40112305 0.9145508 0.0491333
vn -0.029144287 0.96191406 -0.2722168
vn -0.029144287 0.96191406 -0.2722168
vn -0.029144287 0.96191406 -0.2722168
vn -0.029449463 0.9604492 -0.2770996
vn 0.38305664 0.92333984 -0.02760315
vn 0.38305664 0.92333984 -0.02760315
vn 0.38305664 0.92333984 -0.02760315
vn 0.36987305 0.92871094 -0.026626587
vn 0.09039307 0.44384766 0.89160156
vn 0.09039307 0.44384766 0.89160156
vn 0.09039307 0.44384766 0.89160156
vn 0.09039307 0.44384766 0.89160156
vn -0.8852539 0.45581055 0.09124756
vn -0.8852539 0.45581055 0.09124756
vn -0.8852539 0.45581055 0.09124756
vn -0.8852539 0.45581055 0.09124756
vn -0.08886719 0.49658203 -0.86328125
vn -0.08886719 0.49658203 -0.86328125
vn -0.08886719 0.49658203 -0.86328125
vn -0.08886719 0.49658203 -0.86328125
vn 0.87060547 0.48510742 -0.079833984
vn 0.87060547 0.48510742 -0.079833984
vn 0.87060547 0.48510742 -0.079833984
vn 0.87060547 0.48510742 -0.079833984
vn 0.004135132 -1 -8.314848E-05
vn 0.004135132 -1 -8.314848E-05
vn 0.004135132 -1 -8.314848E-05
vn 0.004135132 -1 -8.273125E-05
vn 0.00116539 -1 -0.011024475
vn 0.00116539 -1 -0.011024475
vn 0.00116539 -1 -0.011024475
vn -4.5001507E-05 -1 -0.010055542
vn 7.748604E-07 -1 -2.682209E-06
vn 7.748604E-07 -1 -2.682209E-06
vn 7.748604E-07 -1 -2.682209E-06
vn 5.364418E-07 -1 -3.2186508E-06
vn -0.00016486645 -1 -0.0020389557
vn -0.00016486645 -1 -0.0020389557
vn -0.00016486645 -1 -0.0020389557
vn -0.0014696121 -1 -0.0011768341
vn -0 -1 -7.1525574E-07
vn -0 -1 -7.1525574E-07
vn -0 -1 -7.1525574E-07
vn -5.9604645E-07 -1 -1.1324883E-06
vn -0.00019323826 -1 -0.012901306
vn -0.00019323826 -1 -0.012901306
vn -0.00019323826 -1 -0.012901306
vn -0.0012607574 -1 -0.011688232
vn -0.004096985 1 8.124113E-05
vn -0.004096985 1 8.124113E-05
vn -0.004096985 1 8.124113E-05
vn -0.004096985 1 8.100271E-05
vn -0.0009570122 1 0.008934021
vn -0.0009570122 1 0.008934021
vn -0.0009570122 1 0.008934021
vn -0.0009584427 1 0.008934021
vn -1.3709068E-06 1 2.1457672E-06
vn -1.3709068E-06 1 2.1457672E-06
vn -1.3709068E-06 1 2.1457672E-06
vn -1.4901161E-06 1 1.9073486E-06
vn 0.0020332336 1 -0.0008583069
vn 0.0020332336 1 -0.0008583069
vn 0.0020332336 1 -0.0008583069
vn 0.00014865398 1 0.00038051605
vn -3.5762787E-07 1 7.748604E-07
vn -3.5762787E-07 1 7.748604E-07
vn -3.5762787E-07 1 7.748604E-07
vn -3.5762787E-07 1 7.748604E-07
vn 0.0001502037 1 0.010505676
vn 0.0001502037 1 0.010505676
vn 0.0001502037 1 0.010505676
vn 0.00014841557 1 0.010505676
g C003_FB01_0
f 3/3/3 2/2/2 1/1/1
f 6/6/6 5/5/5 4/4/4
f 9/9/9 8/8/8 7/7/7
f 12/12/12 11/11/11 10/10/10
f 15/15/15 14/14/14 13/13/13
f 18/18/18 17/17/17 16/16/16
f 21/21/21 20/20/20 19/19/19
f 24/24/24 23/23/23 22/22/22
f 27/27/27 26/26/26 25/25/25
f 30/30/30 29/29/29 28/28/28
f 33/33/33 32/32/32 31/31/31
f 36/36/36 35/35/35 34/34/34
f 39/39/39 38/38/38 37/37/37
f 42/42/42 41/41/41 40/40/40
f 45/45/45 44/44/44 43/43/43
f 48/48/48 47/47/47 46/46/46
f 51/51/51 50/50/50 49/49/49
f 54/54/54 53/53/53 52/52/52
f 57/57/57 56/56/56 55/55/55
f 60/60/60 59/59/59 58/58/58
f 63/63/63 62/62/62 61/61/61
f 66/66/66 65/65/65 64/64/64
f 69/69/69 68/68/68 67/67/67
f 72/72/72 71/71/71 70/70/70
f 75/75/75 74/74/74 73/73/73
f 78/78/78 77/77/77 76/76/76
f 81/81/81 80/80/80 79/79/79
f 84/84/84 83/83/83 82/82/82
f 87/87/87 86/86/86 85/85/85
f 90/90/90 89/89/89 88/88/88
f 93/93/93 92/92/92 91/91/91
f 96/96/96 95/95/95 94/94/94
f 99/99/99 98/98/98 97/97/97
f 102/102/102 101/101/101 100/100/100
f 105/105/105 104/104/104 103/103/103
f 108/108/108 107/107/107 106/106/106
f 111/111/111 110/110/110 109/109/109
f 114/114/114 113/113/113 112/112/112
f 117/117/117 116/116/116 115/115/115
f 120/120/120 119/119/119 118/118/118
f 123/123/123 122/122/122 121/121/121
f 126/126/126 125/125/125 124/124/124
f 129/129/129 128/128/128 127/127/127
f 132/132/132 131/131/131 130/130/130
f 135/135/135 134/134/134 133/133/133
f 138/138/138 137/137/137 136/136/136
f 141/141/141 140/140/140 139/139/139
f 144/144/144 143/143/143 142/142/142
f 147/147/147 146/146/146 145/145/145
f 150/150/150 149/149/149 148/148/148
f 153/153/153 152/152/152 151/151/151
f 156/156/156 155/155/155 154/154/154
f 159/159/159 158/158/158 157/157/157
f 162/162/162 161/161/161 160/160/160
f 165/165/165 164/164/164 163/163/163
f 164/164/164 165/165/165 166/166/166
f 169/169/169 168/168/168 167/167/167
f 168/168/168 169/169/169 170/170/170
f 173/173/173 172/172/172 171/171/171
f 172/172/172 173/173/173 174/174/174
f 177/177/177 176/176/176 175/175/175
f 176/176/176 177/177/177 178/178/178
f 181/181/181 180/180/180 179/179/179
f 180/180/180 181/181/181 182/182/182
f 185/185/185 184/184/184 183/183/183
f 184/184/184 185/185/185 186/186/186
f 189/189/189 188/188/188 187/187/187
f 188/188/188 189/189/189 190/190/190
f 193/193/193 192/192/192 191/191/191
f 192/192/192 193/193/193 194/194/194
f 197/197/197 196/196/196 195/195/195
f 196/196/196 197/197/197 198/198/198
f 201/201/201 200/200/200 199/199/199
f 200/200/200 201/201/201 202/202/202
f 205/205/205 204/204/204 203/203/203
f 204/204/204 205/205/205 206/206/206
f 209/209/209 208/208/208 207/207/207
f 208/208/208 209/209/209 210/210/210
f 213/213/213 212/212/212 211/211/211
f 212/212/212 213/213/213 214/214/214
f 217/217/217 216/216/216 215/215/215
f 216/216/216 217/217/217 218/218/218
f 221/221/221 220/220/220 219/219/219
f 220/220/220 221/221/221 222/222/222
f 225/225/225 224/224/224 223/223/223
f 224/224/224 225/225/225 226/226/226
f 229/229/229 228/228/228 227/227/227
f 228/228/228 229/229/229 230/230/230
f 233/233/233 232/232/232 231/231/231
f 232/232/232 233/233/233 234/234/234
f 237/237/237 236/236/236 235/235/235
f 236/236/236 237/237/237 238/238/238
f 241/241/241 240/240/240 239/239/239
f 240/240/240 241/241/241 242/242/242
f 245/245/245 244/244/244 243/243/243
f 244/244/244 245/245/245 246/246/246
f 249/249/249 248/248/248 247/247/247
f 248/248/248 249/249/249 250/250/250
f 253/253/253 252/252/252 251/251/251
f 252/252/252 253/253/253 254/254/254
f 257/257/257 256/256/256 255/255/255
f 256/256/256 257/257/257 258/258/258
f 261/261/261 260/260/260 259/259/259
f 260/260/260 261/261/261 262/262/262
f 265/265/265 264/264/264 263/263/263
f 264/264/264 265/265/265 266/266/266
f 269/269/269 268/268/268 267/267/267
f 268/268/268 269/269/269 270/270/270
f 273/273/273 272/272/272 271/271/271
f 272/272/272 273/273/273 274/274/274
f 277/277/277 276/276/276 275/275/275
f 276/276/276 277/277/277 278/278/278
f 281/281/281 280/280/280 279/279/279
f 280/280/280 281/281/281 282/282/282
f 285/285/285 284/284/284 283/283/283
f 284/284/284 285/285/285 286/286/286
f 289/289/289 288/288/288 287/287/287
f 288/288/288 289/289/289 290/290/290
f 293/293/293 292/292/292 291/291/291
f 292/292/292 293/293/293 294/294/294
f 297/297/297 296/296/296 295/295/295
f 296/296/296 297/297/297 298/298/298
f 301/301/301 300/300/300 299/299/299
f 300/300/300 301/301/301 302/302/302
f 305/305/305 304/304/304 303/303/303
f 304/304/304 305/305/305 306/306/306
f 309/309/309 308/308/308 307/307/307
f 308/308/308 309/309/309 310/310/310
f 313/313/313 312/312/312 311/311/311
f 312/312/312 313/313/313 314/314/314
f 317/317/317 316/316/316 315/315/315
f 316/316/316 317/317/317 318/318/318
f 321/321/321 320/320/320 319/319/319
f 320/320/320 321/321/321 322/322/322
f 325/325/325 324/324/324 323/323/323
f 324/324/324 325/325/325 326/326/326
f 329/329/329 328/328/328 327/327/327
f 328/328/328 329/329/329 330/330/330
f 333/333/333 332/332/332 331/331/331
f 332/332/332 333/333/333 334/334/334
f 337/337/337 336/336/336 335/335/335
f 336/336/336 337/337/337 338/338/338
f 341/341/341 340/340/340 339/339/339
f 340/340/340 341/341/341 342/342/342
f 345/345/345 344/344/344 343/343/343
f 344/344/344 345/345/345 346/346/346
f 349/349/349 348/348/348 347/347/347
f 348/348/348 349/349/349 350/350/350
f 353/353/353 352/352/352 351/351/351
f 352/352/352 353/353/353 354/354/354
f 357/357/357 356/356/356 355/355/355
f 356/356/356 357/357/357 358/358/358
f 361/361/361 360/360/360 359/359/359
f 360/360/360 361/361/361 362/362/362
f 365/365/365 364/364/364 363/363/363
f 364/364/364 365/365/365 366/366/366
f 369/369/369 368/368/368 367/367/367
f 368/368/368 369/369/369 370/370/370
f 373/373/373 372/372/372 371/371/371
f 372/372/372 373/373/373 374/374/374
f 377/377/377 376/376/376 375/375/375
f 376/376/376 377/377/377 378/378/378
f 381/381/381 380/380/380 379/379/379
f 380/380/380 381/381/381 382/382/382
f 385/385/385 384/384/384 383/383/383
f 384/384/384 385/385/385 386/386/386
f 389/389/389 388/388/388 387/387/387
f 388/388/388 389/389/389 390/390/390
g C003_FB01_1
f 393/393/393 392/392/392 391/391/391
f 396/396/396 395/395/395 394/394/394
f 399/399/399 398/398/398 397/397/397
f 402/402/402 401/401/401 400/400/400
f 405/405/405 404/404/404 403/403/403
f 408/408/408 407/407/407 406/406/406
f 411/411/411 410/410/410 409/409/409
f 414/414/414 413/413/413 412/412/412
f 417/417/417 416/416/416 415/415/415
f 420/420/420 419/419/419 418/418/418
f 423/423/423 422/422/422 421/421/421
f 426/426/426 425/425/425 424/424/424
f 429/429/429 428/428/428 427/427/427
f 432/432/432 431/431/431 430/430/430
f 435/435/435 434/434/434 433/433/433
f 438/438/438 437/437/437 436/436/436
f 441/441/441 440/440/440 439/439/439
f 444/444/444 443/443/443 442/442/442
f 447/447/447 446/446/446 445/445/445
f 450/450/450 449/449/449 448/448/448
f 453/453/453 452/452/452 451/451/451
f 456/456/456 455/455/455 454/454/454
f 459/459/459 458/458/458 457/457/457
f 462/462/462 461/461/461 460/460/460
f 465/465/465 464/464/464 463/463/463
f 468/468/468 467/467/467 466/466/466
f 471/471/471 470/470/470 469/469/469
f 474/474/474 473/473/473 472/472/472
f 477/477/477 476/476/476 475/475/475
f 476/476/476 477/477/477 478/478/478
f 481/481/481 480/480/480 479/479/479
f 480/480/480 481/481/481 482/482/482
f 485/485/485 484/484/484 483/483/483
f 484/484/484 485/485/485 486/486/486
f 489/489/489 488/488/488 487/487/487
f 488/488/488 489/489/489 490/490/490
f 493/493/493 492/492/492 491/491/491
f 492/492/492 493/493/493 494/494/494
f 497/497/497 496/496/496 495/495/495
f 496/496/496 497/497/497 498/498/498
f 501/501/501 500/500/500 499/499/499
f 500/500/500 501/501/501 502/502/502
f 505/505/505 504/504/504 503/503/503
f 504/504/504 505/505/505 506/506/506
f 509/509/509 508/508/508 507/507/507
f 508/508/508 509/509/509 510/510/510
f 513/513/513 512/512/512 511/511/511
f 512/512/512 513/513/513 514/514/514
f 517/517/517 516/516/516 515/515/515
f 516/516/516 517/517/517 518/518/518
f 521/521/521 520/520/520 519/519/519
f 520/520/520 521/521/521 522/522/522
f 525/525/525 524/524/524 523/523/523
f 524/524/524 525/525/525 526/526/526
f 529/529/529 528/528/528 527/527/527
f 528/528/528 529/529/529 530/530/530
f 533/533/533 532/532/532 531/531/531
f 532/532/532 533/533/533 534/534/534
f 537/537/537 536/536/536 535/535/535
f 536/536/536 537/537/537 538/538/538
f 541/541/541 540/540/540 539/539/539
f 540/540/540 541/541/541 542/542/542
f 545/545/545 544/544/544 543/543/543
f 544/544/544 545/545/545 546/546/546
f 549/549/549 548/548/548 547/547/547
f 548/548/548 549/549/549 550/550/550
f 553/553/553 552/552/552 551/551/551
f 552/552/552 553/553/553 554/554/554
f 557/557/557 556/556/556 555/555/555
f 556/556/556 557/557/557 558/558/558
f 561/561/561 560/560/560 559/559/559
f 560/560/560 561/561/561 562/562/562
f 565/565/565 564/564/564 563/563/563
f 564/564/564 565/565/565 566/566/566
f 569/569/569 568/568/568 567/567/567
f 568/568/568 569/569/569 570/570/570
f 573/573/573 572/572/572 571/571/571
f 572/572/572 573/573/573 574/574/574
f 577/577/577 576/576/576 575/575/575
f 576/576/576 577/577/577 578/578/578
f 581/581/581 580/580/580 579/579/579
f 580/580/580 581/581/581 582/582/582
f 585/585/585 584/584/584 583/583/583
f 584/584/584 585/585/585 586/586/586
f 589/589/589 588/588/588 587/587/587
f 588/588/588 589/589/589 590/590/590
f 593/593/593 592/592/592 591/591/591
f 592/592/592 593/593/593 594/594/594
f 597/597/597 596/596/596 595/595/595
f 596/596/596 597/597/597 598/598/598
f 601/601/601 600/600/600 599/599/599
f 600/600/600 601/601/601 602/602/602
f 605/605/605 604/604/604 603/603/603
f 604/604/604 605/605/605 606/606/606
f 609/609/609 608/608/608 607/607/607
f 608/608/608 609/609/609 610/610/610
f 613/613/613 612/612/612 611/611/611
f 612/612/612 613/613/613 614/614/614
f 617/617/617 616/616/616 615/615/615
f 616/616/616 617/617/617 618/618/618
f 621/621/621 620/620/620 619/619/619
f 620/620/620 621/621/621 622/622/622
f 625/625/625 624/624/624 623/623/623
f 624/624/624 625/625/625 626/626/626
f 629/629/629 628/628/628 627/627/627
f 628/628/628 629/629/629 630/630/630
f 633/633/633 632/632/632 631/631/631
f 632/632/632 633/633/633 634/634/634
f 637/637/637 636/636/636 635/635/635
f 636/636/636 637/637/637 638/638/638
f 641/641/641 640/640/640 639/639/639
f 640/640/640 641/641/641 642/642/642
f 645/645/645 644/644/644 643/643/643
f 644/644/644 645/645/645 646/646/646
f 649/649/649 648/648/648 647/647/647
f 648/648/648 649/649/649 650/650/650
f 653/653/653 652/652/652 651/651/651
f 652/652/652 653/653/653 654/654/654
f 657/657/657 656/656/656 655/655/655
f 656/656/656 657/657/657 658/658/658
f 661/661/661 660/660/660 659/659/659
f 660/660/660 661/661/661 662/662/662
f 665/665/665 664/664/664 663/663/663
f 664/664/664 665/665/665 666/666/666
f 669/669/669 668/668/668 667/667/667
f 668/668/668 669/669/669 670/670/670
f 673/673/673 672/672/672 671/671/671
f 672/672/672 673/673/673 674/674/674
f 677/677/677 676/676/676 675/675/675
f 676/676/676 677/677/677 678/678/678
f 681/681/681 680/680/680 679/679/679
f 680/680/680 681/681/681 682/682/682
f 685/685/685 684/684/684 683/683/683
f 684/684/684 685/685/685 686/686/686
f 689/689/689 688/688/688 687/687/687
f 688/688/688 689/689/689 690/690/690
f 693/693/693 692/692/692 691/691/691
f 692/692/692 693/693/693 694/694/694
f 697/697/697 696/696/696 695/695/695
f 696/696/696 697/697/697 698/698/698
f 701/701/701 700/700/700 699/699/699
f 700/700/700 701/701/701 702/702/702
f 705/705/705 704/704/704 703/703/703
f 704/704/704 705/705/705 706/706/706
f 709/709/709 708/708/708 707/707/707
f 708/708/708 709/709/709 710/710/710
f 713/713/713 712/712/712 711/711/711
f 712/712/712 713/713/713 714/714/714
f 717/717/717 716/716/716 715/715/715
f 716/716/716 717/717/717 718/718/718
f 721/721/721 720/720/720 719/719/719
f 720/720/720 721/721/721 722/722/722
f 725/725/725 724/724/724 723/723/723
f 724/724/724 725/725/725 726/726/726
f 729/729/729 728/728/728 727/727/727
f 728/728/728 729/729/729 730/730/730
f 733/733/733 732/732/732 731/731/731
f 732/732/732 733/733/733 734/734/734
f 737/737/737 736/736/736 735/735/735
f 736/736/736 737/737/737 738/738/738
f 741/741/741 740/740/740 739/739/739
f 740/740/740 741/741/741 742/742/742
f 745/745/745 744/744/744 743/743/743
f 744/744/744 745/745/745 746/746/746
f 749/749/749 748/748/748 747/747/747
f 748/748/748 749/749/749 750/750/750
f 753/753/753 752/752/752 751/751/751
f 752/752/752 753/753/753 754/754/754
g C003_FB01_2
f 757/757/757 756/756/756 755/755/755
f 756/756/756 757/757/757 758/758/758
f 761/761/761 760/760/760 759/759/759
f 760/760/760 761/761/761 762/762/762
f 765/765/765 764/764/764 763/763/763
f 764/764/764 765/765/765 766/766/766
f 769/769/769 768/768/768 767/767/767
f 768/768/768 769/769/769 770/770/770
f 773/773/773 772/772/772 771/771/771
f 772/772/772 773/773/773 774/774/774
f 777/777/777 776/776/776 775/775/775
f 776/776/776 777/777/777 778/778/778
g C003_FB01_3
f 781/781/781 780/780/780 779/779/779
f 780/780/780 781/781/781 782/782/782
f 785/785/785 784/784/784 783/783/783
f 784/784/784 785/785/785 786/786/786
f 789/789/789 788/788/788 787/787/787
f 788/788/788 789/789/789 790/790/790
f 793/793/793 792/792/792 791/791/791
f 792/792/792 793/793/793 794/794/794
f 797/797/797 796/796/796 795/795/795
f 796/796/796 797/797/797 798/798/798
f 801/801/801 800/800/800 799/799/799
f 800/800/800 801/801/801 802/802/802
