g C004_HerbMan_House01_Light
v 24.68126 -13.043266 -19.54599
v 24.65013 -13.059948 -19.599909
v 24.68126 -13.059948 -19.60825
v 24.68126 -13.043266 -19.54599
v 24.62734 -13.059948 -19.577118
v 24.65013 -13.059948 -19.599909
v 24.68126 -13.043266 -19.54599
v 24.619001 -13.059948 -19.54599
v 24.62734 -13.059948 -19.577118
v 24.68126 -13.043266 -19.54599
v 24.62734 -13.059948 -19.51486
v 24.619001 -13.059948 -19.54599
v 24.68126 -13.043266 -19.54599
v 24.65013 -13.059948 -19.492071
v 24.62734 -13.059948 -19.51486
v 24.68126 -13.043266 -19.54599
v 24.68126 -13.059948 -19.48373
v 24.65013 -13.059948 -19.492071
v 24.68126 -13.043266 -19.54599
v 24.712389 -13.059948 -19.492071
v 24.68126 -13.059948 -19.48373
v 24.68126 -13.043266 -19.54599
v 24.735178 -13.059948 -19.51486
v 24.712389 -13.059948 -19.492071
v 24.68126 -13.043266 -19.54599
v 24.743517 -13.059948 -19.54599
v 24.735178 -13.059948 -19.51486
v 24.68126 -13.043266 -19.54599
v 24.735178 -13.059948 -19.577118
v 24.743517 -13.059948 -19.54599
v 24.68126 -13.043266 -19.54599
v 24.712389 -13.059948 -19.599909
v 24.735178 -13.059948 -19.577118
v 24.68126 -13.043266 -19.54599
v 24.68126 -13.059948 -19.60825
v 24.712389 -13.059948 -19.599909
v 24.68126 -13.292302 -19.54599
v 24.68126 -13.2756195 -19.60825
v 24.65013 -13.2756195 -19.599909
v 24.68126 -13.292302 -19.54599
v 24.65013 -13.2756195 -19.599909
v 24.62734 -13.2756195 -19.577118
v 24.68126 -13.292302 -19.54599
v 24.62734 -13.2756195 -19.577118
v 24.619001 -13.2756195 -19.54599
v 24.68126 -13.292302 -19.54599
v 24.619001 -13.2756195 -19.54599
v 24.62734 -13.2756195 -19.51486
v 24.68126 -13.292302 -19.54599
v 24.62734 -13.2756195 -19.51486
v 24.65013 -13.2756195 -19.492071
v 24.68126 -13.292302 -19.54599
v 24.65013 -13.2756195 -19.492071
v 24.68126 -13.2756195 -19.48373
v 24.68126 -13.292302 -19.54599
v 24.68126 -13.2756195 -19.48373
v 24.712389 -13.2756195 -19.492071
v 24.68126 -13.292302 -19.54599
v 24.712389 -13.2756195 -19.492071
v 24.735178 -13.2756195 -19.51486
v 24.68126 -13.292302 -19.54599
v 24.735178 -13.2756195 -19.51486
v 24.743517 -13.2756195 -19.54599
v 24.68126 -13.292302 -19.54599
v 24.743517 -13.2756195 -19.54599
v 24.735178 -13.2756195 -19.577118
v 24.68126 -13.292302 -19.54599
v 24.735178 -13.2756195 -19.577118
v 24.712389 -13.2756195 -19.599909
v 24.68126 -13.292302 -19.54599
v 24.712389 -13.2756195 -19.599909
v 24.68126 -13.2756195 -19.60825
v 25.644833 -11.701225 -12.775613
v 25.42504 -11.701228 -10.26334
v 25.356718 -13.11195 -10.269318
v 25.576513 -13.111948 -12.78159
v 24.68126 -13.105526 -19.653826
v 24.68126 -13.059948 -19.60825
v 24.65013 -13.059948 -19.599909
v 24.62734 -13.105526 -19.639378
v 24.62734 -13.059948 -19.577118
v 24.58787 -13.105526 -19.599909
v 24.65013 -13.059948 -19.599909
v 24.62734 -13.105526 -19.639378
v 24.58787 -13.105526 -19.599909
v 24.62734 -13.059948 -19.577118
v 24.573421 -13.105526 -19.54599
v 24.619001 -13.059948 -19.54599
v 24.573421 -13.105526 -19.54599
v 24.619001 -13.059948 -19.54599
v 24.62734 -13.059948 -19.51486
v 24.58787 -13.105525 -19.492071
v 24.58787 -13.105525 -19.492071
v 24.62734 -13.059948 -19.51486
v 24.65013 -13.059948 -19.492071
v 24.62734 -13.105525 -19.4526
v 24.68126 -13.059948 -19.48373
v 24.68126 -13.105525 -19.438154
v 24.65013 -13.059948 -19.492071
v 24.62734 -13.105525 -19.4526
v 24.68126 -13.105525 -19.438154
v 24.68126 -13.059948 -19.48373
v 24.712389 -13.059948 -19.492071
v 24.735178 -13.105525 -19.4526
v 24.735178 -13.105525 -19.4526
v 24.712389 -13.059948 -19.492071
v 24.774649 -13.105525 -19.492071
v 24.735178 -13.059948 -19.51486
v 24.789097 -13.105526 -19.54599
v 24.774649 -13.105525 -19.492071
v 24.735178 -13.059948 -19.51486
v 24.743517 -13.059948 -19.54599
v 24.735178 -13.059948 -19.577118
v 24.774649 -13.105526 -19.599907
v 24.789097 -13.105526 -19.54599
v 24.743517 -13.059948 -19.54599
v 24.774649 -13.105526 -19.599907
v 24.735178 -13.059948 -19.577118
v 24.712389 -13.059948 -19.599909
v 24.735178 -13.105526 -19.639378
v 24.68126 -13.059948 -19.60825
v 24.68126 -13.105526 -19.653826
v 24.712389 -13.059948 -19.599909
v 24.735178 -13.105526 -19.639378
v 24.62734 -13.105526 -19.639378
v 24.619001 -13.167784 -19.653826
v 24.68126 -13.167784 -19.670507
v 24.68126 -13.105526 -19.653826
v 24.619001 -13.167784 -19.653826
v 24.62734 -13.105526 -19.639378
v 24.58787 -13.105526 -19.599909
v 24.573421 -13.167784 -19.60825
v 24.573421 -13.105526 -19.54599
v 24.55674 -13.167784 -19.54599
v 24.58787 -13.105526 -19.599909
v 24.573421 -13.167784 -19.60825
v 24.58787 -13.105525 -19.492071
v 24.573421 -13.167784 -19.48373
v 24.55674 -13.167784 -19.54599
v 24.573421 -13.105526 -19.54599
v 24.619001 -13.167784 -19.438154
v 24.58787 -13.105525 -19.492071
v 24.62734 -13.105525 -19.4526
v 24.573421 -13.167784 -19.48373
v 24.68126 -13.105525 -19.438154
v 24.68126 -13.167784 -19.421473
v 24.62734 -13.105525 -19.4526
v 24.619001 -13.167784 -19.438154
v 24.735178 -13.105525 -19.4526
v 24.743517 -13.167784 -19.438154
v 24.68126 -13.167784 -19.421473
v 24.68126 -13.105525 -19.438154
v 24.743517 -13.167784 -19.438154
v 24.735178 -13.105525 -19.4526
v 24.774649 -13.105525 -19.492071
v 24.789097 -13.167784 -19.48373
v 24.789097 -13.105526 -19.54599
v 24.805779 -13.167784 -19.54599
v 24.774649 -13.105525 -19.492071
v 24.789097 -13.167784 -19.48373
v 24.774649 -13.105526 -19.599907
v 24.789097 -13.167784 -19.60825
v 24.805779 -13.167784 -19.54599
v 24.789097 -13.105526 -19.54599
v 24.743517 -13.167784 -19.653826
v 24.774649 -13.105526 -19.599907
v 24.735178 -13.105526 -19.639378
v 24.789097 -13.167784 -19.60825
v 24.68126 -13.105526 -19.653826
v 24.68126 -13.167784 -19.670507
v 24.735178 -13.105526 -19.639378
v 24.743517 -13.167784 -19.653826
v 24.619001 -13.167784 -19.653826
v 24.62734 -13.230043 -19.639378
v 24.68126 -13.167784 -19.670507
v 24.68126 -13.230043 -19.653826
v 24.58787 -13.230043 -19.599909
v 24.619001 -13.167784 -19.653826
v 24.573421 -13.167784 -19.60825
v 24.62734 -13.230043 -19.639378
v 24.55674 -13.167784 -19.54599
v 24.573421 -13.230043 -19.54599
v 24.58787 -13.230043 -19.599909
v 24.573421 -13.167784 -19.60825
v 24.573421 -13.167784 -19.48373
v 24.58787 -13.230043 -19.492071
v 24.55674 -13.167784 -19.54599
v 24.573421 -13.230043 -19.54599
v 24.619001 -13.167784 -19.438154
v 24.62734 -13.230043 -19.4526
v 24.58787 -13.230043 -19.492071
v 24.573421 -13.167784 -19.48373
v 24.68126 -13.167784 -19.421473
v 24.68126 -13.230043 -19.438154
v 24.62734 -13.230043 -19.4526
v 24.619001 -13.167784 -19.438154
v 24.743517 -13.167784 -19.438154
v 24.735178 -13.230043 -19.4526
v 24.68126 -13.167784 -19.421473
v 24.68126 -13.230043 -19.438154
v 24.774649 -13.230043 -19.492071
v 24.743517 -13.167784 -19.438154
v 24.789097 -13.167784 -19.48373
v 24.735178 -13.230043 -19.4526
v 24.805779 -13.167784 -19.54599
v 24.789097 -13.230043 -19.54599
v 24.774649 -13.230043 -19.492071
v 24.789097 -13.167784 -19.48373
v 24.789097 -13.167784 -19.60825
v 24.774649 -13.230043 -19.599907
v 24.805779 -13.167784 -19.54599
v 24.789097 -13.230043 -19.54599
v 24.743517 -13.167784 -19.653826
v 24.735178 -13.230043 -19.639378
v 24.774649 -13.230043 -19.599907
v 24.789097 -13.167784 -19.60825
v 24.68126 -13.167784 -19.670507
v 24.68126 -13.230043 -19.653826
v 24.735178 -13.230043 -19.639378
v 24.743517 -13.167784 -19.653826
v 24.62734 -13.230043 -19.639378
v 24.65013 -13.2756195 -19.599909
v 24.68126 -13.230043 -19.653826
v 24.68126 -13.2756195 -19.60825
v 24.65013 -13.2756195 -19.599909
v 24.62734 -13.230043 -19.639378
v 24.58787 -13.230043 -19.599909
v 24.62734 -13.2756195 -19.577118
v 24.573421 -13.230043 -19.54599
v 24.619001 -13.2756195 -19.54599
v 24.62734 -13.2756195 -19.577118
v 24.58787 -13.230043 -19.599909
v 24.573421 -13.230043 -19.54599
v 24.58787 -13.230043 -19.492071
v 24.62734 -13.2756195 -19.51486
v 24.619001 -13.2756195 -19.54599
v 24.65013 -13.2756195 -19.492071
v 24.62734 -13.2756195 -19.51486
v 24.58787 -13.230043 -19.492071
v 24.62734 -13.230043 -19.4526
v 24.65013 -13.2756195 -19.492071
v 24.62734 -13.230043 -19.4526
v 24.68126 -13.230043 -19.438154
v 24.68126 -13.2756195 -19.48373
v 24.735178 -13.230043 -19.4526
v 24.712389 -13.2756195 -19.492071
v 24.68126 -13.230043 -19.438154
v 24.68126 -13.2756195 -19.48373
v 24.774649 -13.230043 -19.492071
v 24.735178 -13.2756195 -19.51486
v 24.712389 -13.2756195 -19.492071
v 24.735178 -13.230043 -19.4526
v 24.735178 -13.2756195 -19.51486
v 24.774649 -13.230043 -19.492071
v 24.789097 -13.230043 -19.54599
v 24.743517 -13.2756195 -19.54599
v 24.735178 -13.2756195 -19.577118
v 24.743517 -13.2756195 -19.54599
v 24.789097 -13.230043 -19.54599
v 24.774649 -13.230043 -19.599907
v 24.735178 -13.230043 -19.639378
v 24.712389 -13.2756195 -19.599909
v 24.774649 -13.230043 -19.599907
v 24.735178 -13.2756195 -19.577118
v 24.712389 -13.2756195 -19.599909
v 24.735178 -13.230043 -19.639378
v 24.68126 -13.230043 -19.653826
v 24.68126 -13.2756195 -19.60825
vt 0.30541992 0.8833008
vt 0.30200195 0.88134766
vt 0.30541992 0.88134766
vt 0.30541992 0.8833008
vt 0.29956055 0.88134766
vt 0.30200195 0.88134766
vt 0.30541992 0.8833008
vt 0.29858398 0.88134766
vt 0.29956055 0.88134766
vt 0.30541992 0.8833008
vt 0.29956055 0.88134766
vt 0.29858398 0.88134766
vt 0.30541992 0.8833008
vt 0.30200195 0.88134766
vt 0.29956055 0.88134766
vt 0.30541992 0.8833008
vt 0.30541992 0.88134766
vt 0.30200195 0.88134766
vt 0.30541992 0.8833008
vt 0.3088379 0.88134766
vt 0.30541992 0.88134766
vt 0.30541992 0.8833008
vt 0.31152344 0.88134766
vt 0.3088379 0.88134766
vt 0.30541992 0.8833008
vt 0.31225586 0.88134766
vt 0.31152344 0.88134766
vt 0.30541992 0.8833008
vt 0.31152344 0.88134766
vt 0.31225586 0.88134766
vt 0.30541992 0.8833008
vt 0.3088379 0.88134766
vt 0.31152344 0.88134766
vt 0.30541992 0.8833008
vt 0.30541992 0.88134766
vt 0.3088379 0.88134766
vt 0.30541992 0.85595703
vt 0.30541992 0.8574219
vt 0.30200195 0.8574219
vt 0.30541992 0.85595703
vt 0.30200195 0.8574219
vt 0.29956055 0.8574219
vt 0.30541992 0.85595703
vt 0.29956055 0.8574219
vt 0.29858398 0.8574219
vt 0.30541992 0.85595703
vt 0.29858398 0.8574219
vt 0.29956055 0.8574219
vt 0.30541992 0.85595703
vt 0.29956055 0.8574219
vt 0.30200195 0.8574219
vt 0.30541992 0.85595703
vt 0.30200195 0.8574219
vt 0.30541992 0.8574219
vt 0.30541992 0.85595703
vt 0.30541992 0.8574219
vt 0.3088379 0.8574219
vt 0.30541992 0.85595703
vt 0.3088379 0.8574219
vt 0.31152344 0.8574219
vt 0.30541992 0.85595703
vt 0.31152344 0.8574219
vt 0.31225586 0.8574219
vt 0.30541992 0.85595703
vt 0.31225586 0.8574219
vt 0.31152344 0.8574219
vt 0.30541992 0.85595703
vt 0.31152344 0.8574219
vt 0.3088379 0.8574219
vt 0.30541992 0.85595703
vt 0.3088379 0.8574219
vt 0.30541992 0.8574219
vt 0.7705078 0.9897461
vt 0.98291016 0.9897461
vt 0.98291016 0.87060547
vt 0.7705078 0.87060547
vt 0.30541992 0.87646484
vt 0.30541992 0.88134766
vt 0.30200195 0.88134766
vt 0.29956055 0.87646484
vt 0.29956055 0.88134766
vt 0.29516602 0.87646484
vt 0.30200195 0.88134766
vt 0.29956055 0.87646484
vt 0.29516602 0.87646484
vt 0.29956055 0.88134766
vt 0.29370117 0.87646484
vt 0.29858398 0.88134766
vt 0.29370117 0.87646484
vt 0.29858398 0.88134766
vt 0.29956055 0.88134766
vt 0.29516602 0.87646484
vt 0.29516602 0.87646484
vt 0.29956055 0.88134766
vt 0.30200195 0.88134766
vt 0.29956055 0.87646484
vt 0.30541992 0.88134766
vt 0.30541992 0.87646484
vt 0.30200195 0.88134766
vt 0.29956055 0.87646484
vt 0.30541992 0.87646484
vt 0.30541992 0.88134766
vt 0.3088379 0.88134766
vt 0.31152344 0.87646484
vt 0.31152344 0.87646484
vt 0.3088379 0.88134766
vt 0.31567383 0.87646484
vt 0.31152344 0.88134766
vt 0.3173828 0.87646484
vt 0.31567383 0.87646484
vt 0.31152344 0.88134766
vt 0.31225586 0.88134766
vt 0.31152344 0.88134766
vt 0.31567383 0.87646484
vt 0.3173828 0.87646484
vt 0.31225586 0.88134766
vt 0.31567383 0.87646484
vt 0.31152344 0.88134766
vt 0.3088379 0.88134766
vt 0.31152344 0.87646484
vt 0.30541992 0.88134766
vt 0.30541992 0.87646484
vt 0.3088379 0.88134766
vt 0.31152344 0.87646484
vt 0.29956055 0.87646484
vt 0.29858398 0.8696289
vt 0.30541992 0.8696289
vt 0.30541992 0.87646484
vt 0.29858398 0.8696289
vt 0.29956055 0.87646484
vt 0.29516602 0.87646484
vt 0.29370117 0.8696289
vt 0.29370117 0.87646484
vt 0.29174805 0.8696289
vt 0.29516602 0.87646484
vt 0.29370117 0.8696289
vt 0.29516602 0.87646484
vt 0.29370117 0.8696289
vt 0.29174805 0.8696289
vt 0.29370117 0.87646484
vt 0.29858398 0.8696289
vt 0.29516602 0.87646484
vt 0.29956055 0.87646484
vt 0.29370117 0.8696289
vt 0.30541992 0.87646484
vt 0.30541992 0.8696289
vt 0.29956055 0.87646484
vt 0.29858398 0.8696289
vt 0.31152344 0.87646484
vt 0.31225586 0.8696289
vt 0.30541992 0.8696289
vt 0.30541992 0.87646484
vt 0.31225586 0.8696289
vt 0.31152344 0.87646484
vt 0.31567383 0.87646484
vt 0.3173828 0.8696289
vt 0.3173828 0.87646484
vt 0.3190918 0.8696289
vt 0.31567383 0.87646484
vt 0.3173828 0.8696289
vt 0.31567383 0.87646484
vt 0.3173828 0.8696289
vt 0.3190918 0.8696289
vt 0.3173828 0.87646484
vt 0.31225586 0.8696289
vt 0.31567383 0.87646484
vt 0.31152344 0.87646484
vt 0.3173828 0.8696289
vt 0.30541992 0.87646484
vt 0.30541992 0.8696289
vt 0.31152344 0.87646484
vt 0.31225586 0.8696289
vt 0.29858398 0.8696289
vt 0.29956055 0.86279297
vt 0.30541992 0.8696289
vt 0.30541992 0.86279297
vt 0.29516602 0.86279297
vt 0.29858398 0.8696289
vt 0.29370117 0.8696289
vt 0.29956055 0.86279297
vt 0.29174805 0.8696289
vt 0.29370117 0.86279297
vt 0.29516602 0.86279297
vt 0.29370117 0.8696289
vt 0.29370117 0.8696289
vt 0.29516602 0.86279297
vt 0.29174805 0.8696289
vt 0.29370117 0.86279297
vt 0.29858398 0.8696289
vt 0.29956055 0.86279297
vt 0.29516602 0.86279297
vt 0.29370117 0.8696289
vt 0.30541992 0.8696289
vt 0.30541992 0.86279297
vt 0.29956055 0.86279297
vt 0.29858398 0.8696289
vt 0.31225586 0.8696289
vt 0.31152344 0.86279297
vt 0.30541992 0.8696289
vt 0.30541992 0.86279297
vt 0.31567383 0.86279297
vt 0.31225586 0.8696289
vt 0.3173828 0.8696289
vt 0.31152344 0.86279297
vt 0.3190918 0.8696289
vt 0.3173828 0.86279297
vt 0.31567383 0.86279297
vt 0.3173828 0.8696289
vt 0.3173828 0.8696289
vt 0.31567383 0.86279297
vt 0.3190918 0.8696289
vt 0.3173828 0.86279297
vt 0.31225586 0.8696289
vt 0.31152344 0.86279297
vt 0.31567383 0.86279297
vt 0.3173828 0.8696289
vt 0.30541992 0.8696289
vt 0.30541992 0.86279297
vt 0.31152344 0.86279297
vt 0.31225586 0.8696289
vt 0.29956055 0.86279297
vt 0.30200195 0.8574219
vt 0.30541992 0.86279297
vt 0.30541992 0.8574219
vt 0.30200195 0.8574219
vt 0.29956055 0.86279297
vt 0.29516602 0.86279297
vt 0.29956055 0.8574219
vt 0.29370117 0.86279297
vt 0.29858398 0.8574219
vt 0.29956055 0.8574219
vt 0.29516602 0.86279297
vt 0.29370117 0.86279297
vt 0.29516602 0.86279297
vt 0.29956055 0.8574219
vt 0.29858398 0.8574219
vt 0.30200195 0.8574219
vt 0.29956055 0.8574219
vt 0.29516602 0.86279297
vt 0.29956055 0.86279297
vt 0.30200195 0.8574219
vt 0.29956055 0.86279297
vt 0.30541992 0.86279297
vt 0.30541992 0.8574219
vt 0.31152344 0.86279297
vt 0.3088379 0.8574219
vt 0.30541992 0.86279297
vt 0.30541992 0.8574219
vt 0.31567383 0.86279297
vt 0.31152344 0.8574219
vt 0.3088379 0.8574219
vt 0.31152344 0.86279297
vt 0.31152344 0.8574219
vt 0.31567383 0.86279297
vt 0.3173828 0.86279297
vt 0.31225586 0.8574219
vt 0.31152344 0.8574219
vt 0.31225586 0.8574219
vt 0.3173828 0.86279297
vt 0.31567383 0.86279297
vt 0.31152344 0.86279297
vt 0.3088379 0.8574219
vt 0.31567383 0.86279297
vt 0.31152344 0.8574219
vt 0.3088379 0.8574219
vt 0.31152344 0.86279297
vt 0.30541992 0.86279297
vt 0.30541992 0.8574219
vn -0.06915283 0.9633789 -0.25830078
vn -0.06915283 0.9633789 -0.25830078
vn -0.06915283 0.9633789 -0.25830078
vn -0.18896484 0.9633789 -0.18896484
vn -0.18896484 0.9633789 -0.18896484
vn -0.18896484 0.9633789 -0.18896484
vn -0.25830078 0.9633789 -0.06915283
vn -0.25830078 0.9633789 -0.06915283
vn -0.25830078 0.9633789 -0.06915283
vn -0.25830078 0.9633789 0.06915283
vn -0.25830078 0.9633789 0.06915283
vn -0.25830078 0.9633789 0.06915283
vn -0.18896484 0.9633789 0.18896484
vn -0.18896484 0.9633789 0.18896484
vn -0.18896484 0.9633789 0.18896484
vn -0.06915283 0.9633789 0.25830078
vn -0.06915283 0.9633789 0.25830078
vn -0.06915283 0.9633789 0.25830078
vn 0.06915283 0.9633789 0.25830078
vn 0.06915283 0.9633789 0.25830078
vn 0.06915283 0.9633789 0.25830078
vn 0.18896484 0.9633789 0.18896484
vn 0.18896484 0.9633789 0.18896484
vn 0.18896484 0.9633789 0.18896484
vn 0.25830078 0.9633789 0.06915283
vn 0.25830078 0.9633789 0.06915283
vn 0.25830078 0.9633789 0.06915283
vn 0.25830078 0.9633789 -0.06915283
vn 0.25830078 0.9633789 -0.06915283
vn 0.25830078 0.9633789 -0.06915283
vn 0.18896484 0.9633789 -0.18896484
vn 0.18896484 0.9633789 -0.18896484
vn 0.18896484 0.9633789 -0.18896484
vn 0.06915283 0.9633789 -0.25830078
vn 0.06915283 0.9633789 -0.25830078
vn 0.06915283 0.9633789 -0.25830078
vn -0.06915283 -0.9633789 -0.25830078
vn -0.06915283 -0.9633789 -0.25830078
vn -0.06915283 -0.9633789 -0.25830078
vn -0.18896484 -0.9633789 -0.18896484
vn -0.18896484 -0.9633789 -0.18896484
vn -0.18896484 -0.9633789 -0.18896484
vn -0.25830078 -0.9633789 -0.06915283
vn -0.25830078 -0.9633789 -0.06915283
vn -0.25830078 -0.9633789 -0.06915283
vn -0.25830078 -0.9633789 0.06915283
vn -0.25830078 -0.9633789 0.06915283
vn -0.25830078 -0.9633789 0.06915283
vn -0.18896484 -0.9633789 0.18896484
vn -0.18896484 -0.9633789 0.18896484
vn -0.18896484 -0.9633789 0.18896484
vn -0.06915283 -0.9633789 0.25830078
vn -0.06915283 -0.9633789 0.25830078
vn -0.06915283 -0.9633789 0.25830078
vn 0.06915283 -0.9633789 0.25830078
vn 0.06915283 -0.9633789 0.25830078
vn 0.06915283 -0.9633789 0.25830078
vn 0.18896484 -0.9633789 0.18896484
vn 0.18896484 -0.9633789 0.18896484
vn 0.18896484 -0.9633789 0.18896484
vn 0.25830078 -0.9633789 0.06915283
vn 0.25830078 -0.9633789 0.06915283
vn 0.25830078 -0.9633789 0.06915283
vn 0.25830078 -0.9633789 -0.06915283
vn 0.25830078 -0.9633789 -0.06915283
vn 0.25830078 -0.9633789 -0.06915283
vn 0.18896484 -0.9633789 -0.18896484
vn 0.18896484 -0.9633789 -0.18896484
vn 0.18896484 -0.9633789 -0.18896484
vn 0.06915283 -0.9633789 -0.25830078
vn 0.06915283 -0.9633789 -0.25830078
vn 0.06915283 -0.9633789 -0.25830078
vn -0.9951172 0.048553467 -0.08703613
vn -0.9951172 0.048553467 -0.08703613
vn -0.9951172 0.048553467 -0.08703613
vn -0.9951172 0.048553467 -0.08703613
vn -0.18615723 0.6948242 -0.6948242
vn -0.18615723 0.6948242 -0.6948242
vn -0.18615723 0.6948242 -0.6948242
vn -0.18615723 0.6948242 -0.6948242
vn -0.50878906 0.6948242 -0.50878906
vn -0.50878906 0.6948242 -0.50878906
vn -0.50878906 0.6948242 -0.50878906
vn -0.50878906 0.6948242 -0.50878906
vn -0.6948242 0.6948242 -0.18615723
vn -0.6948242 0.6948242 -0.18615723
vn -0.6948242 0.6948242 -0.18615723
vn -0.6948242 0.6948242 -0.18615723
vn -0.6948242 0.6948242 0.18615723
vn -0.6948242 0.6948242 0.18615723
vn -0.6948242 0.6948242 0.18615723
vn -0.6948242 0.6948242 0.18615723
vn -0.50878906 0.6948242 0.50878906
vn -0.50878906 0.6948242 0.50878906
vn -0.50878906 0.6948242 0.50878906
vn -0.50878906 0.6948242 0.50878906
vn -0.18615723 0.6948242 0.6948242
vn -0.18615723 0.6948242 0.6948242
vn -0.18615723 0.6948242 0.6948242
vn -0.18615723 0.6948242 0.6948242
vn 0.18615723 0.6948242 0.6948242
vn 0.18615723 0.6948242 0.6948242
vn 0.18615723 0.6948242 0.6948242
vn 0.18615723 0.6948242 0.6948242
vn 0.50878906 0.6948242 0.50878906
vn 0.50878906 0.6948242 0.50878906
vn 0.50878906 0.6948242 0.50878906
vn 0.50878906 0.6948242 0.50878906
vn 0.6948242 0.6948242 0.18615723
vn 0.6948242 0.6948242 0.18615723
vn 0.6948242 0.6948242 0.18615723
vn 0.6948242 0.6948242 0.18615723
vn 0.6948242 0.6948242 -0.18615723
vn 0.6948242 0.6948242 -0.18615723
vn 0.6948242 0.6948242 -0.18615723
vn 0.6948242 0.6948242 -0.18615723
vn 0.50878906 0.6948242 -0.50878906
vn 0.50878906 0.6948242 -0.50878906
vn 0.50878906 0.6948242 -0.50878906
vn 0.50878906 0.6948242 -0.50878906
vn 0.18615723 0.6948242 -0.6948242
vn 0.18615723 0.6948242 -0.6948242
vn 0.18615723 0.6948242 -0.6948242
vn 0.18615723 0.6948242 -0.6948242
vn -0.25048828 0.25048828 -0.9350586
vn -0.25048828 0.25048828 -0.9350586
vn -0.25048828 0.25048828 -0.9350586
vn -0.25048828 0.25048828 -0.9350586
vn -0.6845703 0.25048828 -0.6845703
vn -0.6845703 0.25048828 -0.6845703
vn -0.6845703 0.25048828 -0.6845703
vn -0.6845703 0.25048828 -0.6845703
vn -0.9350586 0.25048828 -0.25048828
vn -0.9350586 0.25048828 -0.25048828
vn -0.9350586 0.25048828 -0.25048828
vn -0.9350586 0.25048828 -0.25048828
vn -0.9350586 0.25048828 0.25048828
vn -0.9350586 0.25048828 0.25048828
vn -0.9350586 0.25048828 0.25048828
vn -0.9350586 0.25048828 0.25048828
vn -0.6845703 0.25048828 0.6845703
vn -0.6845703 0.25048828 0.6845703
vn -0.6845703 0.25048828 0.6845703
vn -0.6845703 0.25048828 0.6845703
vn -0.25048828 0.25048828 0.9350586
vn -0.25048828 0.25048828 0.9350586
vn -0.25048828 0.25048828 0.9350586
vn -0.25048828 0.25048828 0.9350586
vn 0.25048828 0.25048828 0.9350586
vn 0.25048828 0.25048828 0.9350586
vn 0.25048828 0.25048828 0.9350586
vn 0.25048828 0.25048828 0.9350586
vn 0.6845703 0.25048828 0.6845703
vn 0.6845703 0.25048828 0.6845703
vn 0.6845703 0.25048828 0.6845703
vn 0.6845703 0.25048828 0.6845703
vn 0.9350586 0.25048828 0.25048828
vn 0.9350586 0.25048828 0.25048828
vn 0.9350586 0.25048828 0.25048828
vn 0.9350586 0.25048828 0.25048828
vn 0.9350586 0.25048828 -0.25048828
vn 0.9350586 0.25048828 -0.25048828
vn 0.9350586 0.25048828 -0.25048828
vn 0.9350586 0.25048828 -0.25048828
vn 0.6845703 0.25048828 -0.6845703
vn 0.6845703 0.25048828 -0.6845703
vn 0.6845703 0.25048828 -0.6845703
vn 0.6845703 0.25048828 -0.6845703
vn 0.25048828 0.25048828 -0.9350586
vn 0.25048828 0.25048828 -0.9350586
vn 0.25048828 0.25048828 -0.9350586
vn 0.25048828 0.25048828 -0.9350586
vn -0.25048828 -0.25048828 -0.9350586
vn -0.25048828 -0.25048828 -0.9350586
vn -0.25048828 -0.25048828 -0.9350586
vn -0.25048828 -0.25048828 -0.9350586
vn -0.6845703 -0.25048828 -0.6845703
vn -0.6845703 -0.25048828 -0.6845703
vn -0.6845703 -0.25048828 -0.6845703
vn -0.6845703 -0.25048828 -0.6845703
vn -0.9350586 -0.25048828 -0.25048828
vn -0.9350586 -0.25048828 -0.25048828
vn -0.9350586 -0.25048828 -0.25048828
vn -0.9350586 -0.25048828 -0.25048828
vn -0.9350586 -0.25048828 0.25048828
vn -0.9350586 -0.25048828 0.25048828
vn -0.9350586 -0.25048828 0.25048828
vn -0.9350586 -0.25048828 0.25048828
vn -0.6845703 -0.25048828 0.6845703
vn -0.6845703 -0.25048828 0.6845703
vn -0.6845703 -0.25048828 0.6845703
vn -0.6845703 -0.25048828 0.6845703
vn -0.25048828 -0.25048828 0.9350586
vn -0.25048828 -0.25048828 0.9350586
vn -0.25048828 -0.25048828 0.9350586
vn -0.25048828 -0.25048828 0.9350586
vn 0.25048828 -0.25048828 0.9350586
vn 0.25048828 -0.25048828 0.9350586
vn 0.25048828 -0.25048828 0.9350586
vn 0.25048828 -0.25048828 0.9350586
vn 0.6845703 -0.25048828 0.6845703
vn 0.6845703 -0.25048828 0.6845703
vn 0.6845703 -0.25048828 0.6845703
vn 0.6845703 -0.25048828 0.6845703
vn 0.9350586 -0.25048828 0.25048828
vn 0.9350586 -0.25048828 0.25048828
vn 0.9350586 -0.25048828 0.25048828
vn 0.9350586 -0.25048828 0.25048828
vn 0.9350586 -0.25048828 -0.25048828
vn 0.9350586 -0.25048828 -0.25048828
vn 0.9350586 -0.25048828 -0.25048828
vn 0.9350586 -0.25048828 -0.25048828
vn 0.6845703 -0.25048828 -0.6845703
vn 0.6845703 -0.25048828 -0.6845703
vn 0.6845703 -0.25048828 -0.6845703
vn 0.6845703 -0.25048828 -0.6845703
vn 0.25048828 -0.25048828 -0.9350586
vn 0.25048828 -0.25048828 -0.9350586
vn 0.25048828 -0.25048828 -0.9350586
vn 0.25048828 -0.25048828 -0.9350586
vn -0.18615723 -0.6948242 -0.6948242
vn -0.18615723 -0.6948242 -0.6948242
vn -0.18615723 -0.6948242 -0.6948242
vn -0.18615723 -0.6948242 -0.6948242
vn -0.50878906 -0.6948242 -0.50878906
vn -0.50878906 -0.6948242 -0.50878906
vn -0.50878906 -0.6948242 -0.50878906
vn -0.50878906 -0.6948242 -0.50878906
vn -0.6948242 -0.6948242 -0.18615723
vn -0.6948242 -0.6948242 -0.18615723
vn -0.6948242 -0.6948242 -0.18615723
vn -0.6948242 -0.6948242 -0.18615723
vn -0.6948242 -0.6948242 0.18615723
vn -0.6948242 -0.6948242 0.18615723
vn -0.6948242 -0.6948242 0.18615723
vn -0.6948242 -0.6948242 0.18615723
vn -0.50878906 -0.6948242 0.50878906
vn -0.50878906 -0.6948242 0.50878906
vn -0.50878906 -0.6948242 0.50878906
vn -0.50878906 -0.6948242 0.50878906
vn -0.18615723 -0.6948242 0.6948242
vn -0.18615723 -0.6948242 0.6948242
vn -0.18615723 -0.6948242 0.6948242
vn -0.18615723 -0.6948242 0.6948242
vn 0.18615723 -0.6948242 0.6948242
vn 0.18615723 -0.6948242 0.6948242
vn 0.18615723 -0.6948242 0.6948242
vn 0.18615723 -0.6948242 0.6948242
vn 0.50878906 -0.6948242 0.50878906
vn 0.50878906 -0.6948242 0.50878906
vn 0.50878906 -0.6948242 0.50878906
vn 0.50878906 -0.6948242 0.50878906
vn 0.6948242 -0.6948242 0.18615723
vn 0.6948242 -0.6948242 0.18615723
vn 0.6948242 -0.6948242 0.18615723
vn 0.6948242 -0.6948242 0.18615723
vn 0.6948242 -0.6948242 -0.18615723
vn 0.6948242 -0.6948242 -0.18615723
vn 0.6948242 -0.6948242 -0.18615723
vn 0.6948242 -0.6948242 -0.18615723
vn 0.50878906 -0.6948242 -0.50878906
vn 0.50878906 -0.6948242 -0.50878906
vn 0.50878906 -0.6948242 -0.50878906
vn 0.50878906 -0.6948242 -0.50878906
vn 0.18615723 -0.6948242 -0.6948242
vn 0.18615723 -0.6948242 -0.6948242
vn 0.18615723 -0.6948242 -0.6948242
vn 0.18615723 -0.6948242 -0.6948242
g C004_HerbMan_House01_Light_0
f 3/3/3 2/2/2 1/1/1
f 6/6/6 5/5/5 4/4/4
f 9/9/9 8/8/8 7/7/7
f 12/12/12 11/11/11 10/10/10
f 15/15/15 14/14/14 13/13/13
f 18/18/18 17/17/17 16/16/16
f 21/21/21 20/20/20 19/19/19
f 24/24/24 23/23/23 22/22/22
f 27/27/27 26/26/26 25/25/25
f 30/30/30 29/29/29 28/28/28
f 33/33/33 32/32/32 31/31/31
f 36/36/36 35/35/35 34/34/34
f 39/39/39 38/38/38 37/37/37
f 42/42/42 41/41/41 40/40/40
f 45/45/45 44/44/44 43/43/43
f 48/48/48 47/47/47 46/46/46
f 51/51/51 50/50/50 49/49/49
f 54/54/54 53/53/53 52/52/52
f 57/57/57 56/56/56 55/55/55
f 60/60/60 59/59/59 58/58/58
f 63/63/63 62/62/62 61/61/61
f 66/66/66 65/65/65 64/64/64
f 69/69/69 68/68/68 67/67/67
f 72/72/72 71/71/71 70/70/70
f 75/75/75 74/74/74 73/73/73
f 73/73/73 76/76/76 75/75/75
f 79/79/79 78/78/78 77/77/77
f 77/77/77 80/80/80 79/79/79
f 83/83/83 82/82/82 81/81/81
f 84/84/84 82/82/82 83/83/83
f 87/87/87 86/86/86 85/85/85
f 87/87/87 88/88/88 86/86/86
f 91/91/91 90/90/90 89/89/89
f 89/89/89 92/92/92 91/91/91
f 95/95/95 94/94/94 93/93/93
f 93/93/93 96/96/96 95/95/95
f 99/99/99 98/98/98 97/97/97
f 100/100/100 98/98/98 99/99/99
f 103/103/103 102/102/102 101/101/101
f 101/101/101 104/104/104 103/103/103
f 107/107/107 106/106/106 105/105/105
f 107/107/107 108/108/108 106/106/106
f 111/111/111 110/110/110 109/109/109
f 109/109/109 112/112/112 111/111/111
f 115/115/115 114/114/114 113/113/113
f 113/113/113 116/116/116 115/115/115
f 119/119/119 118/118/118 117/117/117
f 117/117/117 120/120/120 119/119/119
f 123/123/123 122/122/122 121/121/121
f 124/124/124 122/122/122 123/123/123
f 127/127/127 126/126/126 125/125/125
f 125/125/125 128/128/128 127/127/127
f 131/131/131 130/130/130 129/129/129
f 129/129/129 132/132/132 131/131/131
f 135/135/135 134/134/134 133/133/133
f 136/136/136 134/134/134 135/135/135
f 139/139/139 138/138/138 137/137/137
f 137/137/137 140/140/140 139/139/139
f 143/143/143 142/142/142 141/141/141
f 144/144/144 141/141/141 142/142/142
f 147/147/147 146/146/146 145/145/145
f 148/148/148 146/146/146 147/147/147
f 151/151/151 150/150/150 149/149/149
f 149/149/149 152/152/152 151/151/151
f 155/155/155 154/154/154 153/153/153
f 153/153/153 156/156/156 155/155/155
f 159/159/159 158/158/158 157/157/157
f 160/160/160 158/158/158 159/159/159
f 163/163/163 162/162/162 161/161/161
f 161/161/161 164/164/164 163/163/163
f 167/167/167 166/166/166 165/165/165
f 168/168/168 165/165/165 166/166/166
f 171/171/171 170/170/170 169/169/169
f 172/172/172 170/170/170 171/171/171
f 175/175/175 174/174/174 173/173/173
f 176/176/176 174/174/174 175/175/175
f 179/179/179 178/178/178 177/177/177
f 180/180/180 177/177/177 178/178/178
f 183/183/183 182/182/182 181/181/181
f 181/181/181 184/184/184 183/183/183
f 187/187/187 186/186/186 185/185/185
f 188/188/188 186/186/186 187/187/187
f 191/191/191 190/190/190 189/189/189
f 189/189/189 192/192/192 191/191/191
f 195/195/195 194/194/194 193/193/193
f 193/193/193 196/196/196 195/195/195
f 199/199/199 198/198/198 197/197/197
f 200/200/200 198/198/198 199/199/199
f 203/203/203 202/202/202 201/201/201
f 204/204/204 201/201/201 202/202/202
f 207/207/207 206/206/206 205/205/205
f 205/205/205 208/208/208 207/207/207
f 211/211/211 210/210/210 209/209/209
f 212/212/212 210/210/210 211/211/211
f 215/215/215 214/214/214 213/213/213
f 213/213/213 216/216/216 215/215/215
f 219/219/219 218/218/218 217/217/217
f 217/217/217 220/220/220 219/219/219
f 223/223/223 222/222/222 221/221/221
f 224/224/224 222/222/222 223/223/223
f 227/227/227 226/226/226 225/225/225
f 225/225/225 228/228/228 227/227/227
f 231/231/231 230/230/230 229/229/229
f 229/229/229 232/232/232 231/231/231
f 235/235/235 234/234/234 233/233/233
f 233/233/233 236/236/236 235/235/235
f 239/239/239 238/238/238 237/237/237
f 237/237/237 240/240/240 239/239/239
f 243/243/243 242/242/242 241/241/241
f 241/241/241 244/244/244 243/243/243
f 247/247/247 246/246/246 245/245/245
f 248/248/248 246/246/246 247/247/247
f 251/251/251 250/250/250 249/249/249
f 249/249/249 252/252/252 251/251/251
f 255/255/255 254/254/254 253/253/253
f 253/253/253 256/256/256 255/255/255
f 259/259/259 258/258/258 257/257/257
f 259/259/259 257/257/257 260/260/260
f 263/263/263 262/262/262 261/261/261
f 264/264/264 262/262/262 263/263/263
f 267/267/267 266/266/266 265/265/265
f 265/265/265 268/268/268 267/267/267
