g C004_B004
v -14.011616 0.67452127 4.2313
v -14.006719 0.62728125 4.6086707
v -14.192563 0.58240294 4.5096483
v -6.614111 2.3302782 2.3421767
v -6.302041 2.3148155 2.4889412
v -6.419897 2.3124845 2.6691065
v -16.075752 -0.61031705 -4.179106
v -16.356577 -0.7645956 -4.307605
v -16.23871 -0.762265 -4.4877796
v -8.678257 1.0454396 -6.0682373
v -8.651899 0.9229345 -6.427351
v -8.466044 0.96780884 -6.32832
v 4.855039 -0.37427276 1.2643942
v 4.906162 -0.38857925 1.6357565
v 4.7701855 -0.3311525 1.6545266
v 2.0573926 -0.1316745 -0.5561767
v 1.736084 -0.07536621 -0.3219824
v 1.6970702 -0.1235202 -0.45722654
v 6.4438815 -1.9904099 -1.2179153
v 6.674404 -2.2965329 -1.3414456
v 6.713418 -2.2483785 -1.2062112
v 3.64625 -1.7478116 -3.0384917
v 3.504326 -1.9833388 -3.29919
v 3.6403027 -2.0407608 -3.3179693
v 4.906162 -0.38857925 1.6357565
v 4.855039 -0.37427276 1.2643942
v 6.713418 -2.2483785 -1.2062112
v 6.4438815 -1.9904099 -1.2179153
v 6.713418 -2.2483785 -1.2062112
v 4.855039 -0.37427276 1.2643942
v 7.144917 -1.9094489 3.08218
v 7.406577 -1.9430783 3.4226818
v 7.2641406 -1.9619888 3.5257604
v 3.0463135 -2.7560713 2.3384469
v 2.8412645 -2.8844156 2.7308142
v 2.743208 -2.9218717 2.5885155
v 8.661548 -2.437083 -4.1030436
v 8.919897 -2.5528061 -4.473152
v 9.017924 -2.5153759 -4.330865
v 4.562954 -3.2836874 -4.8467927
v 4.3545847 -3.4941494 -5.1650314
v 4.4969873 -3.47524 -5.2681255
v -11.982763 1.0443684 9.114577
v -11.938848 0.8720561 9.339099
v -12.210454 0.8840728 9.181643
v -1.1051123 0.080946654 6.8589454
v -0.90509766 -0.11866379 6.812163
v -1.0611621 -0.09137237 7.0834713
v -15.302866 0.37943405 -7.21245
v -15.530557 0.21911392 -7.145376
v -15.374487 0.191837 -7.416687
v -4.4252048 -0.5839932 -9.468078
v -4.496826 -0.7715999 -9.672314
v -4.225205 -0.7836121 -9.514859
v -14.325576 7.517301 1.8917092
v -14.319468 7.448883 1.9852053
v -14.446362 7.4458213 1.8967483
v -10.295874 7.5618224 1.7778884
v -10.172592 7.496002 1.7730105
v -10.28977 7.4934044 1.8713796
v -14.49936 7.50885 -1.4982239
v -14.620161 7.4373703 -1.4931897
v -14.502993 7.439973 -1.591549
v -10.469644 7.5533667 -1.6120471
v -10.473281 7.4844894 -1.7053796
v -10.346381 7.487556 -1.6169226
v 11.690896 -2.8137636 2.410887
v 11.720088 -2.8229885 2.6435144
v 11.594744 -2.8283021 2.5998802
v 16.15739 -2.9848473 0.6087326
v 16.353867 -3.031225 0.6765396
v 16.298952 -3.006286 0.7948776
v 9.559289 -3.724687 -2.4670978
v 9.360009 -3.7832913 -2.514071
v 9.414924 -3.8082325 -2.6324148
v 14.025784 -3.8957698 -4.2692547
v 13.993792 -3.9915316 -4.481055
v 14.119128 -3.986218 -4.4374156
v -13.931103 0.42252234 4.772588
v -14.302788 0.33276206 4.574535
v -14.006719 0.62728125 4.6086707
v -14.192563 0.58240294 4.5096483
v -6.1085544 2.112387 2.4726748
v -6.3442626 2.1077373 2.83302
v -6.302041 2.3148155 2.4889412
v -6.419897 2.3124845 2.6691065
v -16.466797 -1.0142367 -4.242726
v -16.23106 -1.0095831 -4.603064
v -16.356577 -0.7645956 -4.307605
v -16.23871 -0.762265 -4.4877796
v -8.644253 0.67562795 -6.5426316
v -8.272558 0.76538444 -6.3445873
v -8.651899 0.9229345 -6.427351
v -8.466044 0.96780884 -6.32832
v -6.419897 2.3124845 2.6691065
v -14.006719 0.62728125 4.6086707
v -6.614111 2.3302782 2.3421767
v -14.011616 0.67452127 4.2313
v -8.466044 0.96780884 -6.32832
v -6.302041 2.3148155 2.4889412
v -8.678257 1.0454396 -6.0682373
v -6.614111 2.3302782 2.3421767
v -16.23871 -0.762265 -4.4877796
v -8.651899 0.9229345 -6.427351
v -16.075752 -0.61031705 -4.179106
v -8.678257 1.0454396 -6.0682373
v -14.192563 0.58240294 4.5096483
v -16.356577 -0.7645956 -4.307605
v -14.011616 0.67452127 4.2313
v -16.075752 -0.61031705 -4.179106
v -6.3442626 2.1077373 2.83302
v -13.931103 0.42252234 4.772588
v -6.419897 2.3124845 2.6691065
v -14.006719 0.62728125 4.6086707
v -8.272558 0.76538444 -6.3445873
v -6.1085544 2.112387 2.4726748
v -8.466044 0.96780884 -6.32832
v -6.302041 2.3148155 2.4889412
v -16.23106 -1.0095831 -4.603064
v -8.644253 0.67562795 -6.5426316
v -16.23871 -0.762265 -4.4877796
v -8.651899 0.9229345 -6.427351
v -14.302788 0.33276206 4.574535
v -16.466797 -1.0142367 -4.242726
v -14.192563 0.58240294 4.5096483
v -16.356577 -0.7645956 -4.307605
v 4.636836 -0.51181656 1.8349361
v 4.7701855 -0.3311525 1.6545266
v 4.9088182 -0.6266652 1.7973922
v 4.906162 -0.38857925 1.6357565
v 1.5247167 -0.35234833 -0.41208008
v 1.6970702 -0.1235202 -0.45722654
v 1.6027441 -0.25603515 -0.14157227
v 1.736084 -0.07536621 -0.3219824
v 6.7160983 -2.4864645 -1.0445611
v 6.713418 -2.2483785 -1.2062112
v 6.638027 -2.5827878 -1.3150637
v 6.674404 -2.2965329 -1.3414456
v 3.6039453 -2.327001 -3.2915728
v 3.6403027 -2.0407608 -3.3179693
v 3.3319726 -2.2121522 -3.2540386
v 3.504326 -1.9833388 -3.29919
v 1.736084 -0.07536621 -0.3219824
v 2.0573926 -0.1316745 -0.5561767
v 4.7701855 -0.3311525 1.6545266
v 4.855039 -0.37427276 1.2643942
v 3.504326 -1.9833388 -3.29919
v 3.64625 -1.7478116 -3.0384917
v 1.6970702 -0.1235202 -0.45722654
v 2.0573926 -0.1316745 -0.5561767
v 6.674404 -2.2965329 -1.3414456
v 6.4438815 -1.9904099 -1.2179153
v 3.6403027 -2.0407608 -3.3179693
v 3.64625 -1.7478116 -3.0384917
v 1.6027441 -0.25603515 -0.14157227
v 1.736084 -0.07536621 -0.3219824
v 4.636836 -0.51181656 1.8349361
v 4.7701855 -0.3311525 1.6545266
v 3.3319726 -2.2121522 -3.2540386
v 3.504326 -1.9833388 -3.29919
v 1.5247167 -0.35234833 -0.41208008
v 1.6970702 -0.1235202 -0.45722654
v 6.638027 -2.5827878 -1.3150637
v 6.674404 -2.2965329 -1.3414456
v 3.6039453 -2.327001 -3.2915728
v 3.6403027 -2.0407608 -3.3179693
v 4.9088182 -0.6266652 1.7973922
v 4.906162 -0.38857925 1.6357565
v 6.7160983 -2.4864645 -1.0445611
v 6.713418 -2.2483785 -1.2062112
v 7.2917676 -2.1808121 3.6692603
v 7.2641406 -1.9619888 3.5257604
v 7.5765967 -2.1429849 3.4630687
v 7.406577 -1.9430783 3.4226818
v 2.6727588 -3.1781497 2.5896802
v 2.743208 -2.9218717 2.5885155
v 2.868872 -3.1032546 2.8743029
v 2.8412645 -2.8844156 2.7308142
v 9.187993 -2.7152665 -4.290466
v 9.017924 -2.5153759 -4.330865
v 8.991875 -2.7901602 -4.5750804
v 8.919897 -2.5528061 -4.473152
v 4.5689697 -3.7125924 -5.370031
v 4.4969873 -3.47524 -5.2681255
v 4.284136 -3.7504208 -5.1638536
v 4.3545847 -3.4941494 -5.1650314
v 2.8412645 -2.8844156 2.7308142
v 3.0463135 -2.7560713 2.3384469
v 7.2641406 -1.9619888 3.5257604
v 7.144917 -1.9094489 3.08218
v 4.3545847 -3.4941494 -5.1650314
v 4.562954 -3.2836874 -4.8467927
v 2.743208 -2.9218717 2.5885155
v 3.0463135 -2.7560713 2.3384469
v 8.919897 -2.5528061 -4.473152
v 8.661548 -2.437083 -4.1030436
v 4.4969873 -3.47524 -5.2681255
v 4.562954 -3.2836874 -4.8467927
v 7.406577 -1.9430783 3.4226818
v 7.144917 -1.9094489 3.08218
v 9.017924 -2.5153759 -4.330865
v 8.661548 -2.437083 -4.1030436
v 2.868872 -3.1032546 2.8743029
v 2.8412645 -2.8844156 2.7308142
v 7.2917676 -2.1808121 3.6692603
v 7.2641406 -1.9619888 3.5257604
v 4.284136 -3.7504208 -5.1638536
v 4.3545847 -3.4941494 -5.1650314
v 2.6727588 -3.1781497 2.5896802
v 2.743208 -2.9218717 2.5885155
v 8.991875 -2.7901602 -4.5750804
v 8.919897 -2.5528061 -4.473152
v 4.5689697 -3.7125924 -5.370031
v 4.4969873 -3.47524 -5.2681255
v 7.5765967 -2.1429849 3.4630687
v 7.406577 -1.9430783 3.4226818
v 9.187993 -2.7152665 -4.290466
v 9.017924 -2.5153759 -4.330865
v -11.91793 0.400383 9.580507
v -12.461157 0.42441177 9.265591
v -11.938848 0.8720561 9.339099
v -12.210454 0.8840728 9.181643
v -0.7281201 -0.6176135 6.782246
v -1.0402392 -0.56304747 7.324868
v -0.90509766 -0.11866379 6.812163
v -1.0611621 -0.09137237 7.0834713
v -15.7812395 -0.24052902 -7.061431
v -15.469106 -0.2951109 -7.6040454
v -15.530557 0.21911392 -7.145376
v -15.374487 0.191837 -7.416687
v -4.5914598 -1.2585424 -9.859673
v -4.0482225 -1.2825619 -9.544767
v -4.496826 -0.7715999 -9.672314
v -4.225205 -0.7836121 -9.514859
v -1.0611621 -0.09137237 7.0834713
v -11.938848 0.8720561 9.339099
v -1.1051123 0.080946654 6.8589454
v -11.982763 1.0443684 9.114577
v -4.225205 -0.7836121 -9.514859
v -0.90509766 -0.11866379 6.812163
v -4.4252048 -0.5839932 -9.468078
v -1.1051123 0.080946654 6.8589454
v -15.374487 0.191837 -7.416687
v -4.496826 -0.7715999 -9.672314
v -15.302866 0.37943405 -7.21245
v -4.4252048 -0.5839932 -9.468078
v -12.210454 0.8840728 9.181643
v -15.530557 0.21911392 -7.145376
v -11.982763 1.0443684 9.114577
v -15.302866 0.37943405 -7.21245
v -1.0402392 -0.56304747 7.324868
v -11.91793 0.400383 9.580507
v -1.0611621 -0.09137237 7.0834713
v -11.938848 0.8720561 9.339099
v -4.0482225 -1.2825619 -9.544767
v -0.7281201 -0.6176135 6.782246
v -4.225205 -0.7836121 -9.514859
v -0.90509766 -0.11866379 6.812163
v -15.469106 -0.2951109 -7.6040454
v -4.5914598 -1.2585424 -9.859673
v -15.374487 0.191837 -7.416687
v -4.496826 -0.7715999 -9.672314
v -12.461157 0.42441177 9.265591
v -15.7812395 -0.24052902 -7.061431
v -12.210454 0.8840728 9.181643
v -15.530557 0.21911392 -7.145376
v -14.311303 7.26629 2.078865
v -14.565083 7.2601523 1.9019485
v -14.319468 7.448883 1.9852053
v -14.446362 7.4458213 1.8967483
v -10.047251 7.3160167 1.768284
v -10.281577 7.3108163 1.9650247
v -10.172592 7.496002 1.7730105
v -10.28977 7.4934044 1.8713796
v -14.738881 7.2517066 -1.4879894
v -14.504536 7.2569065 -1.6847327
v -14.620161 7.4373703 -1.4931897
v -14.502993 7.439973 -1.591549
v -10.474838 7.3014183 -1.7985535
v -10.22106 7.3075657 -1.6216321
v -10.473281 7.4844894 -1.7053796
v -10.346381 7.487556 -1.6169226
v -10.28977 7.4934044 1.8713796
v -14.319468 7.448883 1.9852053
v -10.295874 7.5618224 1.7778884
v -14.325576 7.517301 1.8917092
v -10.346381 7.487556 -1.6169226
v -10.172592 7.496002 1.7730105
v -10.469644 7.5533667 -1.6120471
v -10.295874 7.5618224 1.7778884
v -14.502993 7.439973 -1.591549
v -10.473281 7.4844894 -1.7053796
v -14.49936 7.50885 -1.4982239
v -10.469644 7.5533667 -1.6120471
v -14.446362 7.4458213 1.8967483
v -14.620161 7.4373703 -1.4931897
v -14.325576 7.517301 1.8917092
v -14.49936 7.50885 -1.4982239
v -10.281577 7.3108163 1.9650247
v -14.311303 7.26629 2.078865
v -10.28977 7.4934044 1.8713796
v -14.319468 7.448883 1.9852053
v -10.22106 7.3075657 -1.6216321
v -10.047251 7.3160167 1.768284
v -10.346381 7.487556 -1.6169226
v -10.172592 7.496002 1.7730105
v -14.504536 7.2569065 -1.6847327
v -10.474838 7.3014183 -1.7985535
v -14.502993 7.439973 -1.591549
v -10.473281 7.4844894 -1.7053796
v -14.565083 7.2601523 1.9019485
v -14.738881 7.2517066 -1.4879894
v -14.446362 7.4458213 1.8967483
v -14.620161 7.4373703 -1.4931897
v 11.751565 -2.9476595 2.7522435
v 11.500898 -2.9582937 2.664967
v 11.720088 -2.8229885 2.6435144
v 11.594744 -2.8283021 2.5998802
v 16.440264 -3.1808379 0.6669174
v 16.330448 -3.1309526 0.90360135
v 16.353867 -3.031225 0.6765396
v 16.298952 -3.006286 0.7948776
v 9.266159 -3.9132833 -2.4489875
v 9.375989 -3.9631686 -2.6856692
v 9.360009 -3.7832913 -2.514071
v 9.414924 -3.8082325 -2.6324148
v 13.954853 -4.1464596 -4.534307
v 14.205532 -4.135831 -4.447038
v 13.993792 -3.9915316 -4.481055
v 14.119128 -3.986218 -4.4374156
v 16.298952 -3.006286 0.7948776
v 11.720088 -2.8229885 2.6435144
v 16.15739 -2.9848473 0.6087326
v 11.690896 -2.8137636 2.410887
v 14.119128 -3.986218 -4.4374156
v 16.353867 -3.031225 0.6765396
v 14.025784 -3.8957698 -4.2692547
v 16.15739 -2.9848473 0.6087326
v 9.414924 -3.8082325 -2.6324148
v 13.993792 -3.9915316 -4.481055
v 9.559289 -3.724687 -2.4670978
v 14.025784 -3.8957698 -4.2692547
v 11.594744 -2.8283021 2.5998802
v 9.360009 -3.7832913 -2.514071
v 11.690896 -2.8137636 2.410887
v 9.559289 -3.724687 -2.4670978
v 16.330448 -3.1309526 0.90360135
v 11.751565 -2.9476595 2.7522435
v 16.298952 -3.006286 0.7948776
v 11.720088 -2.8229885 2.6435144
v 14.205532 -4.135831 -4.447038
v 16.440264 -3.1808379 0.6669174
v 14.119128 -3.986218 -4.4374156
v 16.353867 -3.031225 0.6765396
v 9.375989 -3.9631686 -2.6856692
v 13.954853 -4.1464596 -4.534307
v 9.414924 -3.8082325 -2.6324148
v 13.993792 -3.9915316 -4.481055
v 11.500898 -2.9582937 2.664967
v 9.266159 -3.9132833 -2.4489875
v 11.594744 -2.8283021 2.5998802
v 9.360009 -3.7832913 -2.514071
v -12.872105 -4.4503675 5.4200377
v -13.2437935 -4.540128 5.2219834
v -13.931103 0.42252234 4.772588
v -14.302788 0.33276206 4.574535
v -13.931103 0.42252234 4.772588
v -13.2437935 -4.540128 5.2219834
v -16.23106 -1.0095831 -4.603064
v -16.466797 -1.0142367 -4.242726
v -15.1777 -5.8859887 -3.978787
v -15.413447 -5.8906493 -3.6184425
v -15.1777 -5.8859887 -3.978787
v -16.466797 -1.0142367 -4.242726
v -13.2437935 -4.540128 5.2219834
v -12.872105 -4.4503675 5.4200377
v -12.882802 -4.8038187 5.174276
v -5.0495605 -2.7605069 3.120122
v -5.2960105 -3.118619 3.2347167
v -5.285298 -2.76516 3.48047
v -15.1777 -5.8859887 -3.978787
v -15.413447 -5.8906493 -3.6184425
v -15.052461 -6.154336 -3.6661537
v -7.5909033 -4.200785 -5.918346
v -7.465654 -4.469141 -5.6057177
v -7.2192135 -4.1110287 -5.720301
v 1.6027441 -0.25603515 -0.14157227
v 0.20816405 -3.8936043 1.5580947
v 1.5247167 -0.35234833 -0.41208008
v 0.13003907 -3.9901228 1.2876797
v 1.5247167 -0.35234833 -0.41208008
v 0.20816405 -3.8936043 1.5580947
v 3.2435937 -4.1459575 3.5330052
v 4.636836 -0.51181656 1.8349361
v 3.5161912 -4.259258 3.4947436
v 4.9088182 -0.6266652 1.7973922
v 3.5161912 -4.259258 3.4947436
v 4.636836 -0.51181656 1.8349361
v 3.3319726 -2.2121522 -3.2540386
v 1.9562206 -5.8311276 -1.5798602
v 3.6039453 -2.327001 -3.2915728
v 2.228789 -5.9444337 -1.618117
v 3.6039453 -2.327001 -3.2915728
v 1.9562206 -5.8311276 -1.5798602
v 6.638027 -2.5827878 -1.3150637
v 5.2642384 -6.1967773 0.35679016
v 6.7160983 -2.4864645 -1.0445611
v 5.3423634 -6.100244 0.6271908
v 6.7160983 -2.4864645 -1.0445611
v 5.2642384 -6.1967773 0.35679016
v 3.5161912 -4.259258 3.4947436
v 3.1434863 -4.6287656 3.2910485
v 3.2435937 -4.1459575 3.5330052
v 0.13003907 -3.9901228 1.2876797
v 0.20816405 -3.8936043 1.5580947
v 0.3449707 -4.3883944 1.4715219
v 5.2642384 -6.1967773 0.35679016
v 5.0480466 -6.4143505 0.6552084
v 5.3423634 -6.100244 0.6271908
v 2.228789 -5.9444337 -1.618117
v 1.9562206 -5.8311276 -1.5798602
v 2.1160545 -6.1537986 -1.2733121
v 5.0480466 -6.4143505 0.6552084
v 3.1434863 -4.6287656 3.2910485
v 5.3423634 -6.100244 0.6271908
v 3.5161912 -4.259258 3.4947436
v 5.3423634 -6.100244 0.6271908
v 3.1434863 -4.6287656 3.2910485
v 2.1160545 -6.1537986 -1.2733121
v 5.0480466 -6.4143505 0.6552084
v 2.228789 -5.9444337 -1.618117
v 5.2642384 -6.1967773 0.35679016
v 2.228789 -5.9444337 -1.618117
v 5.0480466 -6.4143505 0.6552084
v 0.3449707 -4.3883944 1.4715219
v 2.1160545 -6.1537986 -1.2733121
v 0.13003907 -3.9901228 1.2876797
v 1.9562206 -5.8311276 -1.5798602
v 0.13003907 -3.9901228 1.2876797
v 2.1160545 -6.1537986 -1.2733121
v 8.009057 -5.8021436 4.2241163
v 7.2917676 -2.1808121 3.6692603
v 8.293545 -5.7627916 4.017722
v 7.5765967 -2.1429849 3.4630687
v 8.293545 -5.7627916 4.017722
v 7.2917676 -2.1808121 3.6692603
v 4.284136 -3.7504208 -5.1638536
v 5.0004296 -7.3495507 -4.6323137
v 4.5689697 -3.7125924 -5.370031
v 5.284951 -7.310173 -4.838698
v 4.5689697 -3.7125924 -5.370031
v 5.0004296 -7.3495507 -4.6323137
v 8.991875 -2.7901602 -4.5750804
v 9.707163 -6.384337 -4.04415
v 9.187993 -2.7152665 -4.290466
v 9.903237 -6.309226 -3.7595708
v 9.187993 -2.7152665 -4.290466
v 9.707163 -6.384337 -4.04415
v 8.293545 -5.7627916 4.017722
v 7.9328074 -6.184701 3.7837791
v 8.009057 -5.8021436 4.2241163
v 3.3907225 -6.8031116 3.1449828
v 3.5868018 -6.7280025 3.4295764
v 3.8346531 -7.033518 3.0403173
v 9.707163 -6.384337 -4.04415
v 9.730659 -6.6824875 -3.768005
v 9.903237 -6.309226 -3.7595708
v 5.284951 -7.310173 -4.838698
v 5.0004296 -7.3495507 -4.6323137
v 5.433662 -7.561826 -4.554815
v 9.730659 -6.6824875 -3.768005
v 7.9328074 -6.184701 3.7837791
v 9.903237 -6.309226 -3.7595708
v 8.293545 -5.7627916 4.017722
v 9.903237 -6.309226 -3.7595708
v 7.9328074 -6.184701 3.7837791
v -12.240585 -3.9202085 9.859675
v -12.783828 -3.8961892 9.544749
v -11.91793 0.400383 9.580507
v -12.461157 0.42441177 9.265591
v -11.91793 0.400383 9.580507
v -12.783828 -3.8961892 9.544749
v -15.469106 -0.2951109 -7.6040454
v -15.7812395 -0.24052902 -7.061431
v -15.801381 -4.6170073 -7.3604574
v -16.11352 -4.562425 -6.817846
v -15.801381 -4.6170073 -7.3604574
v -15.7812395 -0.24052902 -7.061431
v -12.783828 -3.8961892 9.544749
v -12.240585 -3.9202085 9.859675
v -12.384927 -4.3101535 9.452008
v -1.0508155 -4.938212 7.06141
v -1.5072851 -5.2735767 7.1964
v -1.3629395 -4.8836336 7.6040487
v -15.801381 -4.6170073 -7.3604574
v -16.11352 -4.562425 -6.817846
v -15.7146435 -4.976392 -6.9105825
v -4.923735 -5.580443 -9.616087
v -4.8369727 -5.939824 -9.166216
v -4.3805127 -5.6044564 -9.301185
v -15.7146435 -4.976392 -6.9105825
v -16.11352 -4.562425 -6.817846
v -12.384927 -4.3101535 9.452008
v -12.783828 -3.8961892 9.544749
v -12.384927 -4.3101535 9.452008
v -16.11352 -4.562425 -6.817846
v -10.281577 7.3108163 1.9650247
v -10.047251 7.3160167 1.768284
v -10.233413 2.1503284 1.9839284
v -10.08164 2.1510217 1.7753103
v -10.233413 2.1503284 1.9839284
v -10.047251 7.3160167 1.768284
v -14.26311 2.105807 2.0977542
v -14.51689 2.0996692 1.9208279
v -14.311303 7.26629 2.078865
v -14.565083 7.2601523 1.9019485
v -14.311303 7.26629 2.078865
v -14.51689 2.0996692 1.9208279
v -14.504536 7.2569065 -1.6847327
v -14.738881 7.2517066 -1.4879894
v -14.457143 2.096384 -1.6813595
v -14.691499 2.091189 -1.4845992
v -14.457143 2.096384 -1.6813595
v -14.738881 7.2517066 -1.4879894
v -14.51689 2.0996692 1.9208279
v -14.26311 2.105807 2.0977542
v -14.350844 1.8493519 1.8993801
v -10.08164 2.1510217 1.7753103
v -10.321157 1.8938732 1.7855667
v -10.233413 2.1503284 1.9839284
v -14.457143 2.096384 -1.6813595
v -14.691499 2.091189 -1.4845992
v -14.442876 1.8453833 -1.4941866
v -10.427446 2.1409006 -1.7951827
v -10.413164 1.8898997 -1.608005
v -10.173667 2.1470432 -1.6182564
v -14.442876 1.8453833 -1.4941866
v -14.691499 2.091189 -1.4845992
v -14.350844 1.8493519 1.8993801
v -14.51689 2.0996692 1.9208279
v -14.350844 1.8493519 1.8993801
v -14.691499 2.091189 -1.4845992
v 11.778108 -5.9782825 3.4134972
v 11.527433 -5.9889145 3.326222
v 11.751565 -2.9476595 2.7522435
v 11.500898 -2.9582937 2.664967
v 11.751565 -2.9476595 2.7522435
v 11.527433 -5.9889145 3.326222
v 9.375989 -3.9631686 -2.6856692
v 9.266159 -3.9132833 -2.4489875
v 9.396689 -6.9962926 -2.0378602
v 9.286853 -6.946411 -1.8011731
v 9.396689 -6.9962926 -2.0378602
v 9.266159 -3.9132833 -2.4489875
v 11.527433 -5.9889145 3.326222
v 11.778108 -5.9782825 3.4134972
v 11.702568 -6.2008324 3.289662
v 16.466799 -6.211461 1.328171
v 16.281424 -6.3841295 1.4410281
v 16.356972 -6.161576 1.5648587
v 9.396689 -6.9962926 -2.0378602
v 9.286853 -6.946411 -1.8011731
v 9.461989 -7.158326 -1.8377367
v 13.975544 -7.1795874 -3.8864913
v 14.040847 -7.341627 -3.686371
v 14.22622 -7.168957 -3.7992227
v -13.931103 0.42252234 4.772588
v -6.3442626 2.1077373 2.83302
v -12.872105 -4.4503675 5.4200377
v -5.285298 -2.76516 3.48047
v -6.1085544 2.112387 2.4726748
v -8.272558 0.76538444 -6.3445873
v -5.0495605 -2.7605069 3.120122
v -7.2192135 -4.1110287 -5.720301
v -8.644253 0.67562795 -6.5426316
v -16.23106 -1.0095831 -4.603064
v -7.5909033 -4.200785 -5.918346
v -15.1777 -5.8859887 -3.978787
v -16.466797 -1.0142367 -4.242726
v -14.302788 0.33276206 4.574535
v -15.413447 -5.8906493 -3.6184425
v -13.2437935 -4.540128 5.2219834
v -6.3442626 2.1077373 2.83302
v -6.1085544 2.112387 2.4726748
v -5.285298 -2.76516 3.48047
v -5.0495605 -2.7605069 3.120122
v -8.272558 0.76538444 -6.3445873
v -8.644253 0.67562795 -6.5426316
v -7.2192135 -4.1110287 -5.720301
v -7.5909033 -4.200785 -5.918346
v -15.052461 -6.154336 -3.6661537
v -15.413447 -5.8906493 -3.6184425
v -12.882802 -4.8038187 5.174276
v -13.2437935 -4.540128 5.2219834
v -7.465654 -4.469141 -5.6057177
v -7.5909033 -4.200785 -5.918346
v -15.052461 -6.154336 -3.6661537
v -15.1777 -5.8859887 -3.978787
v -5.2960105 -3.118619 3.2347167
v -5.0495605 -2.7605069 3.120122
v -7.465654 -4.469141 -5.6057177
v -7.2192135 -4.1110287 -5.720301
v -12.882802 -4.8038187 5.174276
v -12.872105 -4.4503675 5.4200377
v -5.2960105 -3.118619 3.2347167
v -5.285298 -2.76516 3.48047
v 4.636836 -0.51181656 1.8349361
v 3.2435937 -4.1459575 3.5330052
v 1.6027441 -0.25603515 -0.14157227
v 0.20816405 -3.8936043 1.5580947
v 1.5247167 -0.35234833 -0.41208008
v 0.13003907 -3.9901228 1.2876797
v 3.3319726 -2.2121522 -3.2540386
v 1.9562206 -5.8311276 -1.5798602
v 3.6039453 -2.327001 -3.2915728
v 2.228789 -5.9444337 -1.618117
v 6.638027 -2.5827878 -1.3150637
v 5.2642384 -6.1967773 0.35679016
v 6.7160983 -2.4864645 -1.0445611
v 5.3423634 -6.100244 0.6271908
v 4.9088182 -0.6266652 1.7973922
v 3.5161912 -4.259258 3.4947436
v 3.1434863 -4.6287656 3.2910485
v 0.3449707 -4.3883944 1.4715219
v 3.2435937 -4.1459575 3.5330052
v 0.20816405 -3.8936043 1.5580947
v 7.2917676 -2.1808121 3.6692603
v 8.009057 -5.8021436 4.2241163
v 2.868872 -3.1032546 2.8743029
v 3.5868018 -6.7280025 3.4295764
v 2.6727588 -3.1781497 2.5896802
v 3.3907225 -6.8031116 3.1449828
v 4.284136 -3.7504208 -5.1638536
v 5.0004296 -7.3495507 -4.6323137
v 4.5689697 -3.7125924 -5.370031
v 5.284951 -7.310173 -4.838698
v 8.991875 -2.7901602 -4.5750804
v 9.707163 -6.384337 -4.04415
v 9.187993 -2.7152665 -4.290466
v 9.903237 -6.309226 -3.7595708
v 7.5765967 -2.1429849 3.4630687
v 8.293545 -5.7627916 4.017722
v 2.868872 -3.1032546 2.8743029
v 3.5868018 -6.7280025 3.4295764
v 2.6727588 -3.1781497 2.5896802
v 3.3907225 -6.8031116 3.1449828
v 5.433662 -7.561826 -4.554815
v 9.730659 -6.6824875 -3.768005
v 5.284951 -7.310173 -4.838698
v 9.707163 -6.384337 -4.04415
v 3.8346531 -7.033518 3.0403173
v 5.433662 -7.561826 -4.554815
v 3.3907225 -6.8031116 3.1449828
v 5.0004296 -7.3495507 -4.6323137
v 7.9328074 -6.184701 3.7837791
v 3.8346531 -7.033518 3.0403173
v 8.009057 -5.8021436 4.2241163
v 3.5868018 -6.7280025 3.4295764
v -11.91793 0.400383 9.580507
v -1.0402392 -0.56304747 7.324868
v -12.240585 -3.9202085 9.859675
v -1.3629395 -4.8836336 7.6040487
v -0.7281201 -0.6176135 6.782246
v -4.0482225 -1.2825619 -9.544767
v -1.0508155 -4.938212 7.06141
v -4.3805127 -5.6044564 -9.301185
v -4.5914598 -1.2585424 -9.859673
v -15.469106 -0.2951109 -7.6040454
v -4.923735 -5.580443 -9.616087
v -15.801381 -4.6170073 -7.3604574
v -15.7812395 -0.24052902 -7.061431
v -12.461157 0.42441177 9.265591
v -16.11352 -4.562425 -6.817846
v -12.783828 -3.8961892 9.544749
v -1.0402392 -0.56304747 7.324868
v -0.7281201 -0.6176135 6.782246
v -1.3629395 -4.8836336 7.6040487
v -1.0508155 -4.938212 7.06141
v -4.0482225 -1.2825619 -9.544767
v -4.5914598 -1.2585424 -9.859673
v -4.3805127 -5.6044564 -9.301185
v -4.923735 -5.580443 -9.616087
v -4.8369727 -5.939824 -9.166216
v -4.923735 -5.580443 -9.616087
v -15.7146435 -4.976392 -6.9105825
v -15.801381 -4.6170073 -7.3604574
v -1.5072851 -5.2735767 7.1964
v -1.0508155 -4.938212 7.06141
v -4.8369727 -5.939824 -9.166216
v -4.3805127 -5.6044564 -9.301185
v -12.384927 -4.3101535 9.452008
v -12.240585 -3.9202085 9.859675
v -1.5072851 -5.2735767 7.1964
v -1.3629395 -4.8836336 7.6040487
v -14.311303 7.26629 2.078865
v -10.281577 7.3108163 1.9650247
v -14.26311 2.105807 2.0977542
v -10.233413 2.1503284 1.9839284
v -10.047251 7.3160167 1.768284
v -10.22106 7.3075657 -1.6216321
v -10.08164 2.1510217 1.7753103
v -10.173667 2.1470432 -1.6182564
v -10.474838 7.3014183 -1.7985535
v -14.504536 7.2569065 -1.6847327
v -10.427446 2.1409006 -1.7951827
v -14.457143 2.096384 -1.6813595
v -14.738881 7.2517066 -1.4879894
v -14.565083 7.2601523 1.9019485
v -14.691499 2.091189 -1.4845992
v -14.51689 2.0996692 1.9208279
v -10.22106 7.3075657 -1.6216321
v -10.474838 7.3014183 -1.7985535
v -10.173667 2.1470432 -1.6182564
v -10.427446 2.1409006 -1.7951827
v -10.413164 1.8898997 -1.608005
v -10.427446 2.1409006 -1.7951827
v -14.442876 1.8453833 -1.4941866
v -14.457143 2.096384 -1.6813595
v -10.321157 1.8938732 1.7855667
v -10.08164 2.1510217 1.7753103
v -10.413164 1.8898997 -1.608005
v -10.173667 2.1470432 -1.6182564
v -14.350844 1.8493519 1.8993801
v -14.26311 2.105807 2.0977542
v -10.321157 1.8938732 1.7855667
v -10.233413 2.1503284 1.9839284
v 11.751565 -2.9476595 2.7522435
v 16.330448 -3.1309526 0.90360135
v 11.778108 -5.9782825 3.4134972
v 16.356972 -6.161576 1.5648587
v 16.440264 -3.1808379 0.6669174
v 14.205532 -4.135831 -4.447038
v 16.466799 -6.211461 1.328171
v 14.22622 -7.168957 -3.7992227
v 13.954853 -4.1464596 -4.534307
v 9.375989 -3.9631686 -2.6856692
v 13.975544 -7.1795874 -3.8864913
v 9.396689 -6.9962926 -2.0378602
v 9.266159 -3.9132833 -2.4489875
v 11.500898 -2.9582937 2.664967
v 9.286853 -6.946411 -1.8011731
v 11.527433 -5.9889145 3.326222
v 16.330448 -3.1309526 0.90360135
v 16.440264 -3.1808379 0.6669174
v 16.356972 -6.161576 1.5648587
v 16.466799 -6.211461 1.328171
v 14.205532 -4.135831 -4.447038
v 13.954853 -4.1464596 -4.534307
v 14.22622 -7.168957 -3.7992227
v 13.975544 -7.1795874 -3.8864913
v 9.461989 -7.158326 -1.8377367
v 9.286853 -6.946411 -1.8011731
v 11.702568 -6.2008324 3.289662
v 11.527433 -5.9889145 3.326222
v 14.040847 -7.341627 -3.686371
v 13.975544 -7.1795874 -3.8864913
v 9.461989 -7.158326 -1.8377367
v 9.396689 -6.9962926 -2.0378602
v 16.281424 -6.3841295 1.4410281
v 16.466799 -6.211461 1.328171
v 14.040847 -7.341627 -3.686371
v 14.22622 -7.168957 -3.7992227
v 11.702568 -6.2008324 3.289662
v 11.778108 -5.9782825 3.4134972
v 16.281424 -6.3841295 1.4410281
v 16.356972 -6.161576 1.5648587
v -5.2960105 -3.118619 3.2347167
v -7.465654 -4.469141 -5.6057177
v -12.882802 -4.8038187 5.174276
v -15.052461 -6.154336 -3.6661537
v 0.3449707 -4.3883944 1.4715219
v 3.1434863 -4.6287656 3.2910485
v 2.1160545 -6.1537986 -1.2733121
v 5.0480466 -6.4143505 0.6552084
v 3.8346531 -7.033518 3.0403173
v 7.9328074 -6.184701 3.7837791
v 5.433662 -7.561826 -4.554815
v 9.730659 -6.6824875 -3.768005
v -1.5072851 -5.2735767 7.1964
v -4.8369727 -5.939824 -9.166216
v -12.384927 -4.3101535 9.452008
v -15.7146435 -4.976392 -6.9105825
v -10.321157 1.8938732 1.7855667
v -10.413164 1.8898997 -1.608005
v -14.350844 1.8493519 1.8993801
v -14.442876 1.8453833 -1.4941866
v 16.281424 -6.3841295 1.4410281
v 14.040847 -7.341627 -3.686371
v 11.702568 -6.2008324 3.289662
v 9.461989 -7.158326 -1.8377367
v -16.075752 -0.61031705 -4.179106
v -8.678257 1.0454396 -6.0682373
v -14.011616 0.67452127 4.2313
v -6.614111 2.3302782 2.3421767
v 6.4438815 -1.9904099 -1.2179153
v 4.855039 -0.37427276 1.2643942
v 3.64625 -1.7478116 -3.0384917
v 2.0573926 -0.1316745 -0.5561767
v 8.661548 -2.437083 -4.1030436
v 7.144917 -1.9094489 3.08218
v 4.562954 -3.2836874 -4.8467927
v 3.0463135 -2.7560713 2.3384469
v -15.302866 0.37943405 -7.21245
v -4.4252048 -0.5839932 -9.468078
v -11.982763 1.0443684 9.114577
v -1.1051123 0.080946654 6.8589454
v -14.49936 7.50885 -1.4982239
v -10.469644 7.5533667 -1.6120471
v -14.325576 7.517301 1.8917092
v -10.295874 7.5618224 1.7778884
v 9.559289 -3.724687 -2.4670978
v 14.025784 -3.8957698 -4.2692547
v 11.690896 -2.8137636 2.410887
v 16.15739 -2.9848473 0.6087326
vt 0.018920898 0.9404297
vt 0.018920898 0.61035156
vt 0.018920898 0.61035156
vt 0.018920898 0.9404297
vt 0.018920898 0.61035156
vt 0.018920898 0.61035156
vt 0.018920898 0.9404297
vt 0.018920898 0.61035156
vt 0.018920898 0.61035156
vt 0.018920898 0.9404297
vt 0.018920898 0.61035156
vt 0.018920898 0.61035156
vt 0.19628906 0.9628906
vt 0.17993164 0.6142578
vt 0.037200928 0.6142578
vt 0.19628906 0.9628906
vt 0.17993164 0.6142578
vt 0.037200928 0.6142578
vt 0.19628906 0.9628906
vt 0.17993164 0.6142578
vt 0.037200928 0.6142578
vt 0.19628906 0.9628906
vt 0.17993164 0.6142578
vt 0.037200928 0.6142578
vt 0.17993164 0.6142578
vt 0.19628906 0.9628906
vt 0.82910156 0.6142578
vt 0.82910156 0.9628906
vt 0.82910156 0.6142578
vt 0.19628906 0.9628906
vt 0.19628906 0.9628906
vt 0.17993164 0.6142578
vt 0.037200928 0.6142578
vt 0.19628906 0.9628906
vt 0.17993164 0.6142578
vt 0.037200928 0.6142578
vt 0.19628906 0.9628906
vt 0.17993164 0.6142578
vt 0.037200928 0.6142578
vt 0.19628906 0.9628906
vt 0.17993164 0.6142578
vt 0.037200928 0.6142578
vt 0.018920898 0.9404297
vt 0.018920898 0.61035156
vt 0.018920898 0.61035156
vt 0.018920898 0.9404297
vt 0.018920898 0.61035156
vt 0.018920898 0.61035156
vt 0.018920898 0.9404297
vt 0.018920898 0.61035156
vt 0.018920898 0.61035156
vt 0.018920898 0.9404297
vt 0.018920898 0.61035156
vt 0.018920898 0.61035156
vt 0.2163086 0.96533203
vt 0.030059814 0.6274414
vt 0.2163086 0.6274414
vt 0.2163086 0.96533203
vt 0.030059814 0.6274414
vt 0.2163086 0.6274414
vt 0.2163086 0.96533203
vt 0.030059814 0.6274414
vt 0.2163086 0.6274414
vt 0.2163086 0.96533203
vt 0.030059814 0.6274414
vt 0.2163086 0.6274414
vt 0.018920898 0.9404297
vt 0.018920898 0.61035156
vt 0.018920898 0.61035156
vt 0.018920898 0.9404297
vt 0.018920898 0.61035156
vt 0.018920898 0.61035156
vt 0.018920898 0.9404297
vt 0.018920898 0.61035156
vt 0.018920898 0.61035156
vt 0.018920898 0.9404297
vt 0.018920898 0.61035156
vt 0.018920898 0.61035156
vt 0.018920898 0.006668091
vt 0.018920898 0.006668091
vt 0.018920898 0.61035156
vt 0.018920898 0.61035156
vt 0.018920898 0.006668091
vt 0.018920898 0.006668091
vt 0.018920898 0.61035156
vt 0.018920898 0.61035156
vt 0.018920898 0.006668091
vt 0.018920898 0.006668091
vt 0.018920898 0.61035156
vt 0.018920898 0.61035156
vt 0.018920898 0.006668091
vt 0.018920898 0.006668091
vt 0.018920898 0.61035156
vt 0.018920898 0.61035156
vt 0.018920898 0.61035156
vt 0.65771484 0.61035156
vt 0.018920898 0.9404297
vt 0.65771484 0.9404297
vt 0.018920898 0.61035156
vt 0.65966797 0.61035156
vt 0.018920898 0.9404297
vt 0.65966797 0.9404297
vt 0.018920898 0.61035156
vt 0.65771484 0.61035156
vt 0.018920898 0.9404297
vt 0.65771484 0.9404297
vt 0.018920898 0.61035156
vt 0.65966797 0.61035156
vt 0.018920898 0.9404297
vt 0.65966797 0.9404297
vt 0.018920898 0.006668091
vt 0.65771484 0.006668091
vt 0.018920898 0.61035156
vt 0.65771484 0.61035156
vt 0.018920898 0.006668091
vt 0.65966797 0.006668091
vt 0.018920898 0.61035156
vt 0.65966797 0.61035156
vt 0.018920898 0.006668091
vt 0.65771484 0.006668091
vt 0.018920898 0.61035156
vt 0.65771484 0.61035156
vt 0.018920898 0.006668091
vt 0.65966797 0.006668091
vt 0.018920898 0.61035156
vt 0.65966797 0.61035156
vt 0.03262329 0.01386261
vt 0.037200928 0.6142578
vt 0.1472168 0.01386261
vt 0.17993164 0.6142578
vt 0.03262329 0.01386261
vt 0.037200928 0.6142578
vt 0.1472168 0.01386261
vt 0.17993164 0.6142578
vt 0.03262329 0.01386261
vt 0.037200928 0.6142578
vt 0.1472168 0.01386261
vt 0.17993164 0.6142578
vt 0.03262329 0.01386261
vt 0.037200928 0.6142578
vt 0.1472168 0.01386261
vt 0.17993164 0.6142578
vt 0.17993164 0.6142578
vt 0.19628906 0.9628906
vt 0.82910156 0.6142578
vt 0.82910156 0.9628906
vt 0.17993164 0.6142578
vt 0.19628906 0.9628906
vt 0.82910156 0.6142578
vt 0.82910156 0.9628906
vt 0.17993164 0.6142578
vt 0.19628906 0.9628906
vt 0.82910156 0.6142578
vt 0.82910156 0.9628906
vt 0.1472168 0.01386261
vt 0.17993164 0.6142578
vt 0.82910156 0.01386261
vt 0.82910156 0.6142578
vt 0.1472168 0.01386261
vt 0.17993164 0.6142578
vt 0.82910156 0.01386261
vt 0.82910156 0.6142578
vt 0.1472168 0.01386261
vt 0.17993164 0.6142578
vt 0.82910156 0.01386261
vt 0.82910156 0.6142578
vt 0.1472168 0.01386261
vt 0.17993164 0.6142578
vt 0.82910156 0.01386261
vt 0.82910156 0.6142578
vt 0.03262329 0.01386261
vt 0.037200928 0.6142578
vt 0.1472168 0.01386261
vt 0.17993164 0.6142578
vt 0.03262329 0.01386261
vt 0.037200928 0.6142578
vt 0.1472168 0.01386261
vt 0.17993164 0.6142578
vt 0.03262329 0.01386261
vt 0.037200928 0.6142578
vt 0.1472168 0.01386261
vt 0.17993164 0.6142578
vt 0.03262329 0.01386261
vt 0.037200928 0.6142578
vt 0.1472168 0.01386261
vt 0.17993164 0.6142578
vt 0.17993164 0.6142578
vt 0.19628906 0.9628906
vt 0.82910156 0.6142578
vt 0.82910156 0.9628906
vt 0.17993164 0.6142578
vt 0.19628906 0.9628906
vt 0.82910156 0.6142578
vt 0.82910156 0.9628906
vt 0.17993164 0.6142578
vt 0.19628906 0.9628906
vt 0.82910156 0.6142578
vt 0.82910156 0.9628906
vt 0.17993164 0.6142578
vt 0.19628906 0.9628906
vt 0.82910156 0.6142578
vt 0.82910156 0.9628906
vt 0.1472168 0.01386261
vt 0.17993164 0.6142578
vt 0.82910156 0.01386261
vt 0.82910156 0.6142578
vt 0.1472168 0.01386261
vt 0.17993164 0.6142578
vt 0.82910156 0.01386261
vt 0.82910156 0.6142578
vt 0.1472168 0.01386261
vt 0.17993164 0.6142578
vt 0.82910156 0.01386261
vt 0.82910156 0.6142578
vt 0.1472168 0.01386261
vt 0.17993164 0.6142578
vt 0.82910156 0.01386261
vt 0.82910156 0.6142578
vt 0.018920898 0.006668091
vt 0.018920898 0.006668091
vt 0.018920898 0.61035156
vt 0.018920898 0.61035156
vt 0.018920898 0.006668091
vt 0.018920898 0.006668091
vt 0.018920898 0.61035156
vt 0.018920898 0.61035156
vt 0.018920898 0.006668091
vt 0.018920898 0.006668091
vt 0.018920898 0.61035156
vt 0.018920898 0.61035156
vt 0.018920898 0.006668091
vt 0.018920898 0.006668091
vt 0.018920898 0.61035156
vt 0.018920898 0.61035156
vt 0.018920898 0.61035156
vt 0.65771484 0.61035156
vt 0.018920898 0.9404297
vt 0.65771484 0.9404297
vt 0.018920898 0.61035156
vt 0.65966797 0.61035156
vt 0.018920898 0.9404297
vt 0.65966797 0.9404297
vt 0.018920898 0.61035156
vt 0.65771484 0.61035156
vt 0.018920898 0.9404297
vt 0.65771484 0.9404297
vt 0.018920898 0.61035156
vt 0.65966797 0.61035156
vt 0.018920898 0.9404297
vt 0.65966797 0.9404297
vt 0.018920898 0.006668091
vt 0.65771484 0.006668091
vt 0.018920898 0.61035156
vt 0.65771484 0.61035156
vt 0.018920898 0.006668091
vt 0.65966797 0.006668091
vt 0.018920898 0.61035156
vt 0.65966797 0.61035156
vt 0.018920898 0.006668091
vt 0.65771484 0.006668091
vt 0.018920898 0.61035156
vt 0.65771484 0.61035156
vt 0.018920898 0.006668091
vt 0.65966797 0.006668091
vt 0.018920898 0.61035156
vt 0.65966797 0.61035156
vt 0.030059814 0.0027675629
vt 0.2163086 0.0027675629
vt 0.030059814 0.6274414
vt 0.2163086 0.6274414
vt 0.030059814 0.0027675629
vt 0.2163086 0.0027675629
vt 0.030059814 0.6274414
vt 0.2163086 0.6274414
vt 0.030059814 0.0027675629
vt 0.2163086 0.0027675629
vt 0.030059814 0.6274414
vt 0.2163086 0.6274414
vt 0.030059814 0.0027675629
vt 0.2163086 0.0027675629
vt 0.030059814 0.6274414
vt 0.2163086 0.6274414
vt 0.2163086 0.6274414
vt 0.98535156 0.6274414
vt 0.2163086 0.96533203
vt 0.98535156 0.96533203
vt 0.2163086 0.6274414
vt 0.98535156 0.6274414
vt 0.2163086 0.96533203
vt 0.98535156 0.96533203
vt 0.2163086 0.6274414
vt 0.98535156 0.6274414
vt 0.2163086 0.96533203
vt 0.98535156 0.96533203
vt 0.2163086 0.6274414
vt 0.98535156 0.6274414
vt 0.2163086 0.96533203
vt 0.98535156 0.96533203
vt 0.2163086 0.0027675629
vt 0.98535156 0.0027675629
vt 0.2163086 0.6274414
vt 0.98535156 0.6274414
vt 0.2163086 0.0027675629
vt 0.98535156 0.0027675629
vt 0.2163086 0.6274414
vt 0.98535156 0.6274414
vt 0.2163086 0.0027675629
vt 0.98535156 0.0027675629
vt 0.2163086 0.6274414
vt 0.98535156 0.6274414
vt 0.2163086 0.0027675629
vt 0.98535156 0.0027675629
vt 0.2163086 0.6274414
vt 0.98535156 0.6274414
vt 0.018920898 0.006668091
vt 0.018920898 0.006668091
vt 0.018920898 0.61035156
vt 0.018920898 0.61035156
vt 0.018920898 0.006668091
vt 0.018920898 0.006668091
vt 0.018920898 0.61035156
vt 0.018920898 0.61035156
vt 0.018920898 0.006668091
vt 0.018920898 0.006668091
vt 0.018920898 0.61035156
vt 0.018920898 0.61035156
vt 0.018920898 0.006668091
vt 0.018920898 0.006668091
vt 0.018920898 0.61035156
vt 0.018920898 0.61035156
vt 0.018920898 0.61035156
vt 0.65771484 0.61035156
vt 0.018920898 0.9404297
vt 0.65771484 0.9404297
vt 0.018920898 0.61035156
vt 0.65966797 0.61035156
vt 0.018920898 0.9404297
vt 0.65966797 0.9404297
vt 0.018920898 0.61035156
vt 0.65771484 0.61035156
vt 0.018920898 0.9404297
vt 0.65771484 0.9404297
vt 0.018920898 0.61035156
vt 0.65966797 0.61035156
vt 0.018920898 0.9404297
vt 0.65966797 0.9404297
vt 0.018920898 0.006668091
vt 0.65771484 0.006668091
vt 0.018920898 0.61035156
vt 0.65771484 0.61035156
vt 0.018920898 0.006668091
vt 0.65966797 0.006668091
vt 0.018920898 0.61035156
vt 0.65966797 0.61035156
vt 0.018920898 0.006668091
vt 0.65771484 0.006668091
vt 0.018920898 0.61035156
vt 0.65771484 0.61035156
vt 0.018920898 0.006668091
vt 0.65966797 0.006668091
vt 0.018920898 0.61035156
vt 0.65966797 0.61035156
vt -2.2988281 -1.8417969
vt -2.3359375 -1.828125
vt -2.2226562 -1.34375
vt -2.265625 -1.3349609
vt -2.2226562 -1.34375
vt -2.3359375 -1.828125
vt -3.2109375 -1.1787109
vt -3.1660156 -1.1835938
vt -3.2617188 -1.6748047
vt -3.2324219 -1.6777344
vt -3.2617188 -1.6748047
vt -3.1660156 -1.1835938
vt -2.3359375 -1.828125
vt -2.2988281 -1.8417969
vt -2.3417969 -1.8701172
vt -4.9726562 -1.5771484
vt -4.9882812 -1.6191406
vt -5.0039062 -1.5791016
vt -3.2617188 -1.6748047
vt -3.2324219 -1.6777344
vt -3.2539062 -1.7167969
vt -4.0390625 -1.5771484
vt -4.0585938 -1.6181641
vt -4.0703125 -1.5761719
vt -4.65625 1.1210938
vt -4.5351562 0.7192383
vt -4.6875 1.1123047
vt -4.5507812 0.71484375
vt -4.6875 1.1123047
vt -4.5351562 0.7192383
vt -5.6210938 0.25317383
vt -5.8085938 0.6357422
vt -5.6015625 0.2709961
vt -5.7851562 0.6503906
vt -5.6015625 0.2709961
vt -5.8085938 0.6357422
vt -5.0546875 0.9941406
vt -4.90625 0.60302734
vt -5.0820312 0.9819336
vt -4.921875 0.59521484
vt -5.0820312 0.9819336
vt -4.90625 0.60302734
vt -5.4140625 0.8383789
vt -5.2460938 0.45654297
vt -5.4453125 0.8256836
vt -5.265625 0.44799805
vt -5.4453125 0.8256836
vt -5.2460938 0.45654297
vt -5.6015625 0.2709961
vt -5.5664062 0.22973633
vt -5.6210938 0.25317383
vt -4.5507812 0.71484375
vt -4.5351562 0.7192383
vt -4.53125 0.6713867
vt -5.2460938 0.45654297
vt -5.2382812 0.4152832
vt -5.265625 0.44799805
vt -4.921875 0.59521484
vt -4.90625 0.60302734
vt -4.9023438 0.5571289
vt -5.2382812 0.4152832
vt -5.5664062 0.22973633
vt -5.265625 0.44799805
vt -5.6015625 0.2709961
vt -5.265625 0.44799805
vt -5.5664062 0.22973633
vt -4.9023438 0.5571289
vt -5.2382812 0.4152832
vt -4.921875 0.59521484
vt -5.2460938 0.45654297
vt -4.921875 0.59521484
vt -5.2382812 0.4152832
vt -4.53125 0.6713867
vt -4.9023438 0.5571289
vt -4.5507812 0.71484375
vt -4.90625 0.60302734
vt -4.5507812 0.71484375
vt -4.9023438 0.5571289
vt -5.8046875 -0.7475586
vt -5.9101562 -0.38671875
vt -5.7773438 -0.73046875
vt -5.8789062 -0.3737793
vt -5.7773438 -0.73046875
vt -5.9101562 -0.38671875
vt -4.5976562 -0.02406311
vt -4.546875 -0.3881836
vt -4.6367188 -0.030960083
vt -4.5703125 -0.39282227
vt -4.6367188 -0.030960083
vt -4.546875 -0.3881836
vt -5.0859375 -0.13256836
vt -5.0039062 -0.49121094
vt -5.1210938 -0.14294434
vt -5.0273438 -0.49780273
vt -5.1210938 -0.14294434
vt -5.0039062 -0.49121094
vt -5.7773438 -0.73046875
vt -5.7460938 -0.7792969
vt -5.8046875 -0.7475586
vt -3.7714844 -0.33374023
vt -3.7539062 -0.3322754
vt -3.765625 -0.38183594
vt -5.0039062 -0.49121094
vt -5.0039062 -0.53222656
vt -5.0273438 -0.49780273
vt -4.5703125 -0.39282227
vt -4.546875 -0.3881836
vt -4.5585938 -0.4338379
vt -5.0039062 -0.53222656
vt -5.7460938 -0.7792969
vt -5.0273438 -0.49780273
vt -5.7773438 -0.73046875
vt -5.0273438 -0.49780273
vt -5.7460938 -0.7792969
vt -7.1328125 2.34375
vt -7.1914062 2.3339844
vt -7.1484375 2.7695312
vt -7.2109375 2.765625
vt -7.1484375 2.7695312
vt -7.1914062 2.3339844
vt -3.1542969 2.5488281
vt -3.0878906 2.5332031
vt -3.234375 2.125
vt -3.1894531 2.1132812
vt -3.234375 2.125
vt -3.0878906 2.5332031
vt -7.1914062 2.3339844
vt -7.1328125 2.34375
vt -7.140625 2.2910156
vt -5.9960938 2.3691406
vt -6.0234375 2.3144531
vt -6.0390625 2.3691406
vt -3.234375 2.125
vt -3.1894531 2.1132812
vt -3.2285156 2.0664062
vt -4.3125 2.2988281
vt -4.34375 2.2460938
vt -4.3554688 2.3027344
vt -3.2285156 2.0664062
vt -3.1894531 2.1132812
vt -1.6064453 1.6523438
vt -1.5849609 1.7080078
vt -1.6064453 1.6523438
vt -3.1894531 2.1132812
vt -4.8164062 -2.5097656
vt -4.7890625 -2.5097656
vt -4.8085938 -3.0214844
vt -4.7929688 -3.0214844
vt -4.8085938 -3.0214844
vt -4.7890625 -2.5097656
vt -3.6699219 -3.0957031
vt -3.6972656 -3.0878906
vt -3.6132812 -2.5839844
vt -3.6425781 -2.5800781
vt -3.6132812 -2.5839844
vt -3.6972656 -3.0878906
vt -4.0117188 -2.5410156
vt -3.9804688 -2.5449219
vt -4.0507812 -3.0527344
vt -4.03125 -3.0527344
vt -4.0507812 -3.0527344
vt -3.9804688 -2.5449219
vt -3.6972656 -3.0878906
vt -3.6699219 -3.0957031
vt -3.7011719 -3.1171875
vt -4.7929688 -3.0214844
vt -4.8046875 -3.0527344
vt -4.8085938 -3.0214844
vt -4.0507812 -3.0527344
vt -4.03125 -3.0527344
vt -4.046875 -3.0839844
vt -4.4414062 -3.0253906
vt -4.4570312 -3.0546875
vt -4.4648438 -3.0234375
vt -4.046875 -3.0839844
vt -4.03125 -3.0527344
vt -3.7011719 -3.1171875
vt -3.6972656 -3.0878906
vt -3.7011719 -3.1171875
vt -4.03125 -3.0527344
vt -3.3105469 -4.5507812
vt -3.3339844 -4.5429688
vt -3.2480469 -4.2460938
vt -3.2753906 -4.2382812
vt -3.2480469 -4.2460938
vt -3.3339844 -4.5429688
vt -3.8515625 -4.1171875
vt -3.8242188 -4.1210938
vt -3.8984375 -4.4179688
vt -3.8808594 -4.421875
vt -3.8984375 -4.4179688
vt -3.8242188 -4.1210938
vt -3.3339844 -4.5429688
vt -3.3105469 -4.5507812
vt -3.3378906 -4.5664062
vt -4.9492188 -4.2929688
vt -4.9609375 -4.3203125
vt -4.96875 -4.2929688
vt -3.8984375 -4.4179688
vt -3.8808594 -4.421875
vt -3.8964844 -4.4453125
vt -4.375 -4.3320312
vt -4.390625 -4.359375
vt -4.3945312 -4.3320312
vt -5.8007812 -1.1259766
vt -5.0078125 -1.0810547
vt -5.7890625 -1.6240234
vt -5.0039062 -1.5791016
vt -4.9648438 -1.0800781
vt -4.0507812 -1.0771484
vt -4.9726562 -1.5771484
vt -4.0703125 -1.5761719
vt -4.0039062 -1.0800781
vt -3.2109375 -1.1787109
vt -4.0390625 -1.5771484
vt -3.2617188 -1.6748047
vt -3.1660156 -1.1835938
vt -2.265625 -1.3349609
vt -3.2324219 -1.6777344
vt -2.3359375 -1.828125
vt -5.0078125 -1.0810547
vt -4.9648438 -1.0800781
vt -5.0039062 -1.5791016
vt -4.9726562 -1.5771484
vt -4.0507812 -1.0771484
vt -4.0039062 -1.0800781
vt -4.0703125 -1.5761719
vt -4.0390625 -1.5771484
vt -3.2539062 -1.7167969
vt -3.2324219 -1.6777344
vt -2.3417969 -1.8701172
vt -2.3359375 -1.828125
vt -4.0585938 -1.6181641
vt -4.0390625 -1.5771484
vt -3.2539062 -1.7167969
vt -3.2617188 -1.6748047
vt -4.9882812 -1.6191406
vt -4.9726562 -1.5771484
vt -4.0585938 -1.6181641
vt -4.0703125 -1.5761719
vt -5.7851562 -1.6660156
vt -5.7890625 -1.6240234
vt -4.9882812 -1.6191406
vt -5.0039062 -1.5791016
vt -4.3085938 1.2138672
vt -4.1953125 0.8071289
vt -4.65625 1.1210938
vt -4.5351562 0.7192383
vt -4.6875 1.1123047
vt -4.5507812 0.71484375
vt -5.0546875 0.9941406
vt -4.90625 0.60302734
vt -5.0820312 0.9819336
vt -4.921875 0.59521484
vt -5.4140625 0.8383789
vt -5.2460938 0.45654297
vt -5.4453125 0.8256836
vt -5.265625 0.44799805
vt -5.7851562 0.6503906
vt -5.6015625 0.2709961
vt -4.2070312 0.75097656
vt -4.53125 0.6713867
vt -4.1953125 0.8071289
vt -4.5351562 0.7192383
vt -3.3183594 0.03677368
vt -3.3105469 -0.33325195
vt -3.7714844 0.036102295
vt -3.7539062 -0.3322754
vt -3.8105469 0.035095215
vt -3.7714844 -0.33374023
vt -4.5976562 -0.02406311
vt -4.546875 -0.3881836
vt -4.6367188 -0.030960083
vt -4.5703125 -0.39282227
vt -5.0859375 -0.13256836
vt -5.0039062 -0.49121094
vt -5.1210938 -0.14294434
vt -5.0273438 -0.49780273
vt -5.8789062 -0.3737793
vt -5.7773438 -0.73046875
vt -3.7714844 0.036102295
vt -3.7539062 -0.3322754
vt -3.8105469 0.035095215
vt -3.7714844 -0.33374023
vt -4.5585938 -0.4338379
vt -5.0039062 -0.53222656
vt -4.5703125 -0.39282227
vt -5.0039062 -0.49121094
vt -3.765625 -0.38183594
vt -4.5585938 -0.4338379
vt -3.7714844 -0.33374023
vt -4.546875 -0.3881836
vt -3.3398438 -0.38745117
vt -3.765625 -0.38183594
vt -3.3105469 -0.33325195
vt -3.7539062 -0.3322754
vt -7.1484375 2.7695312
vt -6.0390625 2.7988281
vt -7.1328125 2.34375
vt -6.0390625 2.3691406
vt -5.9765625 2.7988281
vt -4.3242188 2.7324219
vt -5.9960938 2.3691406
vt -4.3554688 2.3027344
vt -4.25 2.7246094
vt -3.1542969 2.5488281
vt -4.3125 2.2988281
vt -3.234375 2.125
vt -3.0878906 2.5332031
vt -1.4824219 2.1289062
vt -3.1894531 2.1132812
vt -1.5849609 1.7080078
vt -6.0390625 2.7988281
vt -5.9765625 2.7988281
vt -6.0390625 2.3691406
vt -5.9960938 2.3691406
vt -4.3242188 2.7324219
vt -4.25 2.7246094
vt -4.3554688 2.3027344
vt -4.3125 2.2988281
vt -4.34375 2.2460938
vt -4.3125 2.2988281
vt -3.2285156 2.0664062
vt -3.234375 2.125
vt -6.0234375 2.3144531
vt -5.9960938 2.3691406
vt -4.34375 2.2460938
vt -4.3554688 2.3027344
vt -7.140625 2.2910156
vt -7.1328125 2.34375
vt -6.0234375 2.3144531
vt -6.0390625 2.3691406
vt -5.21875 -2.5234375
vt -4.8164062 -2.5097656
vt -5.203125 -3.0332031
vt -4.8085938 -3.0214844
vt -4.7890625 -2.5097656
vt -4.4492188 -2.5117188
vt -4.7929688 -3.0214844
vt -4.4648438 -3.0234375
vt -4.4140625 -2.5136719
vt -4.0117188 -2.5410156
vt -4.4414062 -3.0253906
vt -4.0507812 -3.0527344
vt -3.9804688 -2.5449219
vt -3.6425781 -2.5800781
vt -4.03125 -3.0527344
vt -3.6972656 -3.0878906
vt -4.4492188 -2.5117188
vt -4.4140625 -2.5136719
vt -4.4648438 -3.0234375
vt -4.4414062 -3.0253906
vt -4.4570312 -3.0546875
vt -4.4414062 -3.0253906
vt -4.046875 -3.0839844
vt -4.0507812 -3.0527344
vt -4.8046875 -3.0527344
vt -4.7929688 -3.0214844
vt -4.4570312 -3.0546875
vt -4.4648438 -3.0234375
vt -5.2070312 -3.0664062
vt -5.203125 -3.0332031
vt -4.8046875 -3.0527344
vt -4.8085938 -3.0214844
vt -5.4375 -3.9785156
vt -4.9492188 -3.9863281
vt -5.453125 -4.2851562
vt -4.96875 -4.2929688
vt -4.921875 -3.9882812
vt -4.359375 -4.0273438
vt -4.9492188 -4.2929688
vt -4.3945312 -4.3320312
vt -4.3320312 -4.0273438
vt -3.8515625 -4.1171875
vt -4.375 -4.3320312
vt -3.8984375 -4.4179688
vt -3.8242188 -4.1210938
vt -3.2753906 -4.2382812
vt -3.8808594 -4.421875
vt -3.3339844 -4.5429688
vt -4.9492188 -3.9863281
vt -4.921875 -3.9882812
vt -4.96875 -4.2929688
vt -4.9492188 -4.2929688
vt -4.359375 -4.0273438
vt -4.3320312 -4.0273438
vt -4.3945312 -4.3320312
vt -4.375 -4.3320312
vt -3.8964844 -4.4453125
vt -3.8808594 -4.421875
vt -3.3378906 -4.5664062
vt -3.3339844 -4.5429688
vt -4.390625 -4.359375
vt -4.375 -4.3320312
vt -3.8964844 -4.4453125
vt -3.8984375 -4.4179688
vt -4.9609375 -4.3203125
vt -4.9492188 -4.2929688
vt -4.390625 -4.359375
vt -4.3945312 -4.3320312
vt -5.453125 -4.3125
vt -5.453125 -4.2851562
vt -4.9609375 -4.3203125
vt -4.96875 -4.2929688
vt 3.9199219 -1.0458984
vt 3.0078125 -1.0058594
vt 3.9375 -0.25195312
vt 3.0253906 -0.21166992
vt 5.296875 -1.5537109
vt 5.21875 -1.875
vt 4.9375 -1.4755859
vt 4.8554688 -1.8144531
vt 4.0625 -0.2849121
vt 4.4765625 -0.21081543
vt 4.2070312 -1.0419922
vt 4.640625 -0.9638672
vt 4.7070312 -2.296875
vt 3.0488281 -2.2597656
vt 4.7382812 -1.1914062
vt 3.0820312 -1.1542969
vt 5.1914062 -2.3515625
vt 4.8554688 -2.3417969
vt 5.203125 -1.9521484
vt 4.8671875 -1.9423828
vt 5.2304688 -0.7055664
vt 4.6679688 -0.6723633
vt 5.2460938 -0.21582031
vt 4.6875 -0.18273926
vt 4.5625 6.109375
vt 4.3984375 5.3515625
vt 3.7109375 6.2734375
vt 3.5488281 5.515625
vt 5.7539062 4.8789062
vt 5.7929688 4.546875
vt 5.4257812 4.828125
vt 5.4648438 4.4960938
vt 4.921875 5.3203125
vt 4.6757812 6.0078125
vt 5.3164062 5.4726562
vt 5.0703125 6.15625
vt 3.5839844 4.1367188
vt 3.6347656 5.2421875
vt 5.234375 4.0507812
vt 5.2851562 5.15625
vt 5.7460938 4.4140625
vt 5.7578125 4.015625
vt 5.4101562 4.3984375
vt 5.421875 3.9980469
vt 5.796875 5.7539062
vt 5.328125 5.65625
vt 5.6757812 6.2773438
vt 5.2070312 6.1796875
vn -0.29418945 0.9477539 0.12249756
vn -0.29418945 0.9477539 0.12249756
vn -0.29418945 0.9477539 0.12249756
vn 0.033203125 0.99902344 0.03463745
vn 0.033203125 0.99902344 0.03463745
vn 0.033203125 0.99902344 0.03463745
vn -0.3815918 0.8930664 -0.23815918
vn -0.3815918 0.8930664 -0.23815918
vn -0.3815918 0.8930664 -0.23815918
vn -0.05419922 0.94384766 -0.32592773
vn -0.05419922 0.94384766 -0.32592773
vn -0.05419922 0.94384766 -0.32592773
vn 0.3869629 0.921875 -0.017745972
vn 0.3869629 0.921875 -0.017745972
vn 0.3869629 0.921875 -0.017745972
vn -0.06585693 0.9458008 -0.3178711
vn -0.06585693 0.9458008 -0.3178711
vn -0.06585693 0.9458008 -0.3178711
vn 0.6381836 0.6484375 -0.41503906
vn 0.6381836 0.6484375 -0.41503906
vn 0.6381836 0.6484375 -0.41503906
vn 0.18713379 0.67626953 -0.7128906
vn 0.18713379 0.67626953 -0.7128906
vn 0.18713379 0.67626953 -0.7128906
vn 0.6660156 0.74316406 -0.06304932
vn 0.6660156 0.74316406 -0.06304932
vn 0.6660156 0.74316406 -0.06304932
vn 0.69189453 0.7216797 -0.027008057
vn 0.69189453 0.7216797 -0.027008057
vn 0.69189453 0.7216797 -0.027008057
vn -0.039031982 0.99121094 0.12792969
vn -0.039031982 0.99121094 0.12792969
vn -0.039031982 0.99121094 0.12792969
vn -0.43701172 0.89697266 0.06506348
vn -0.43701172 0.89697266 0.06506348
vn -0.43701172 0.89697266 0.06506348
vn 0.034362793 0.9604492 -0.2763672
vn 0.034362793 0.9604492 -0.2763672
vn 0.034362793 0.9604492 -0.2763672
vn -0.3605957 0.8691406 -0.33862305
vn -0.3605957 0.8691406 -0.33862305
vn -0.3605957 0.8691406 -0.33862305
vn -0.32470703 0.71875 0.6152344
vn -0.32470703 0.71875 0.6152344
vn -0.32470703 0.71875 0.6152344
vn 0.7026367 0.62402344 0.34155273
vn 0.7026367 0.62402344 0.34155273
vn 0.7026367 0.62402344 0.34155273
vn -0.60253906 0.6816406 -0.41503906
vn -0.60253906 0.6816406 -0.41503906
vn -0.60253906 0.6816406 -0.41503906
vn 0.42529297 0.58740234 -0.68847656
vn 0.42529297 0.58740234 -0.68847656
vn 0.42529297 0.58740234 -0.68847656
vn -0.40576172 0.7246094 0.5566406
vn -0.40576172 0.7246094 0.5566406
vn -0.40576172 0.7246094 0.5566406
vn 0.41870117 0.74560547 0.5185547
vn 0.41870117 0.74560547 0.5185547
vn 0.41870117 0.74560547 0.5185547
vn -0.45141602 0.7260742 -0.5185547
vn -0.45141602 0.7260742 -0.5185547
vn -0.45141602 0.7260742 -0.5185547
vn 0.37280273 0.7397461 -0.5605469
vn 0.37280273 0.7397461 -0.5605469
vn 0.37280273 0.7397461 -0.5605469
vn -0.05859375 0.9970703 0.046905518
vn -0.05859375 0.9970703 0.046905518
vn -0.05859375 0.9970703 0.046905518
vn 0.25634766 0.9628906 -0.083984375
vn 0.25634766 0.9628906 -0.083984375
vn 0.25634766 0.9628906 -0.083984375
vn -0.20581055 0.93408203 -0.29223633
vn -0.20581055 0.93408203 -0.29223633
vn -0.20581055 0.93408203 -0.29223633
vn 0.109191895 0.89941406 -0.4230957
vn 0.109191895 0.89941406 -0.4230957
vn 0.109191895 0.89941406 -0.4230957
vn -0.50390625 0.41870117 0.7553711
vn -0.50390625 0.41870117 0.7553711
vn -0.50390625 0.41870117 0.7553711
vn -0.50390625 0.41870117 0.7553711
vn 0.66552734 0.60058594 0.44311523
vn 0.66552734 0.60058594 0.44311523
vn 0.66552734 0.60058594 0.44311523
vn 0.66552734 0.60058594 0.44311523
vn -0.8173828 0.22253418 -0.5317383
vn -0.8173828 0.22253418 -0.5317383
vn -0.8173828 0.22253418 -0.5317383
vn -0.8173828 0.22253418 -0.5317383
vn 0.35205078 0.40429688 -0.8442383
vn 0.35205078 0.40429688 -0.8442383
vn 0.35205078 0.40429688 -0.8442383
vn 0.35205078 0.40429688 -0.8442383
vn -0.17565918 0.9716797 0.15722656
vn -0.17565918 0.9716797 0.15722656
vn -0.17565918 0.9716797 0.15722656
vn -0.18640137 0.9746094 0.12438965
vn 0.13378906 0.9741211 -0.18164062
vn 0.13378906 0.9741211 -0.18164062
vn 0.13378906 0.9741211 -0.18164062
vn 0.13366699 0.9741211 -0.18164062
vn -0.27954102 0.9116211 -0.30126953
vn -0.27954102 0.9116211 -0.30126953
vn -0.27954102 0.9116211 -0.30126953
vn -0.2854004 0.9003906 -0.328125
vn -0.47509766 0.8798828 -0.01776123
vn -0.47509766 0.8798828 -0.01776123
vn -0.47509766 0.8798828 -0.01776123
vn -0.47509766 0.8798828 -0.01777649
vn 0.05532837 0.63623047 0.76953125
vn 0.05532837 0.63623047 0.76953125
vn 0.05532837 0.63623047 0.76953125
vn 0.055358887 0.63623047 0.76953125
vn 0.6845703 0.67626953 -0.27148438
vn 0.6845703 0.67626953 -0.27148438
vn 0.6845703 0.67626953 -0.27148438
vn 0.6845703 0.67626953 -0.27148438
vn -0.3088379 0.39404297 -0.86572266
vn -0.3088379 0.39404297 -0.86572266
vn -0.3088379 0.39404297 -0.86572266
vn -0.3088379 0.39404297 -0.86572266
vn -0.88916016 0.4321289 0.15222168
vn -0.88916016 0.4321289 0.15222168
vn -0.88916016 0.4321289 0.15222168
vn -0.88916016 0.4321289 0.15222168
vn 0.3322754 0.53222656 0.7788086
vn 0.3322754 0.53222656 0.7788086
vn 0.3322754 0.53222656 0.7788086
vn 0.3322754 0.53222656 0.7788086
vn -0.7973633 0.6035156 0.015098572
vn -0.7973633 0.6035156 0.015098572
vn -0.7973633 0.6035156 0.015098572
vn -0.7973633 0.6035156 0.015106201
vn 0.9633789 -0.14331055 -0.22705078
vn 0.9633789 -0.14331055 -0.22705078
vn 0.9633789 -0.14331055 -0.22705078
vn 0.9633789 -0.14331055 -0.22692871
vn -0.16516113 -0.06976318 -0.9838867
vn -0.16516113 -0.06976318 -0.9838867
vn -0.16516113 -0.06976318 -0.9838867
vn -0.1652832 -0.06964111 -0.9838867
vn 0.12597656 0.9897461 -0.06524658
vn 0.12597656 0.9897461 -0.06524658
vn 0.12597656 0.9897461 -0.06524658
vn 0.13720703 0.9873047 -0.07928467
vn -0.16345215 0.77490234 -0.61083984
vn -0.16345215 0.77490234 -0.61083984
vn -0.16345215 0.77490234 -0.61083984
vn -0.14831543 0.78271484 -0.6044922
vn 0.46777344 0.61035156 -0.63916016
vn 0.46777344 0.61035156 -0.63916016
vn 0.46777344 0.61035156 -0.63916016
vn 0.47094727 0.6040039 -0.6430664
vn -0.29736328 0.7753906 0.5566406
vn -0.29736328 0.7753906 0.5566406
vn -0.29736328 0.7753906 0.5566406
vn -0.29736328 0.7753906 0.5566406
vn -0.6582031 0.3659668 -0.6582031
vn -0.6582031 0.3659668 -0.6582031
vn -0.6582031 0.3659668 -0.6582031
vn -0.6582031 0.3659668 -0.6582031
vn 0.5317383 -0.14440918 -0.83447266
vn 0.5317383 -0.14440918 -0.83447266
vn 0.5317383 -0.14440918 -0.83447266
vn 0.5317383 -0.14453125 -0.83447266
vn 0.8828125 0.27075195 0.38427734
vn 0.8828125 0.27075195 0.38427734
vn 0.8828125 0.27075195 0.38427734
vn 0.8828125 0.27075195 0.3840332
vn 0.4506836 0.5288086 0.7192383
vn 0.4506836 0.5288086 0.7192383
vn 0.4506836 0.5288086 0.7192383
vn 0.45043945 0.5283203 0.71972656
vn -0.8286133 0.23010254 0.5102539
vn -0.8286133 0.23010254 0.5102539
vn -0.8286133 0.23010254 0.5102539
vn -0.8286133 0.23010254 0.5102539
vn 0.67285156 0.45458984 -0.5834961
vn 0.67285156 0.45458984 -0.5834961
vn 0.67285156 0.45458984 -0.5834961
vn 0.67333984 0.45458984 -0.5834961
vn -0.59277344 0.15930176 -0.7895508
vn -0.59277344 0.15930176 -0.7895508
vn -0.59277344 0.15930176 -0.7895508
vn -0.59277344 0.15930176 -0.7895508
vn -0.23303223 0.9536133 0.19018555
vn -0.23303223 0.9536133 0.19018555
vn -0.23303223 0.9536133 0.19018555
vn -0.22949219 0.95751953 0.17504883
vn -0.5541992 0.81347656 -0.17529297
vn -0.5541992 0.81347656 -0.17529297
vn -0.5541992 0.81347656 -0.17529297
vn -0.5830078 0.7919922 -0.18115234
vn -0.12438965 0.9189453 -0.37426758
vn -0.12438965 0.9189453 -0.37426758
vn -0.12438965 0.9189453 -0.37426758
vn -0.11633301 0.9111328 -0.3959961
vn 0.1739502 0.9838867 -0.036499023
vn 0.1739502 0.9838867 -0.036499023
vn 0.1739502 0.9838867 -0.036499023
vn 0.19567871 0.97998047 -0.030670166
vn -0.25390625 0.5078125 0.8232422
vn -0.25390625 0.5078125 0.8232422
vn -0.25390625 0.5078125 0.8232422
vn -0.25390625 0.5078125 0.8232422
vn -0.94189453 0.25805664 -0.21484375
vn -0.94189453 0.25805664 -0.21484375
vn -0.94189453 0.25805664 -0.21484375
vn -0.94189453 0.25805664 -0.21484375
vn 0.07696533 0.41308594 -0.90722656
vn 0.07696533 0.41308594 -0.90722656
vn 0.07696533 0.41308594 -0.90722656
vn 0.07696533 0.41308594 -0.90771484
vn 0.74658203 0.6567383 0.10668945
vn 0.74658203 0.6567383 0.10668945
vn 0.74658203 0.6567383 0.10668945
vn 0.74658203 0.6567383 0.10668945
vn -0.44848633 0.39135742 0.80371094
vn -0.44848633 0.39135742 0.80371094
vn -0.44848633 0.39135742 0.80371094
vn -0.44848633 0.39135742 0.80371094
vn 0.8457031 0.27246094 0.45898438
vn 0.8457031 0.27246094 0.45898438
vn 0.8457031 0.27246094 0.45898438
vn 0.8457031 0.27246094 0.45898438
vn -0.79833984 0.34521484 -0.49389648
vn -0.79833984 0.34521484 -0.49389648
vn -0.79833984 0.34521484 -0.49389648
vn -0.79833984 0.34521484 -0.49389648
vn 0.49609375 0.22619629 -0.8383789
vn 0.49609375 0.22619629 -0.8383789
vn 0.49609375 0.22619629 -0.8383789
vn 0.49609375 0.22619629 -0.8383789
vn 0.1895752 0.7963867 0.57421875
vn 0.1895752 0.7963867 0.57421875
vn 0.1895752 0.7963867 0.57421875
vn 0.1895752 0.7963867 0.57421875
vn 0.6767578 0.71728516 -0.16687012
vn 0.6767578 0.71728516 -0.16687012
vn 0.6767578 0.71728516 -0.16687012
vn 0.6767578 0.71728516 -0.16674805
vn -0.07092285 0.7470703 -0.6611328
vn -0.07092285 0.7470703 -0.6611328
vn -0.07092285 0.7470703 -0.6611328
vn -0.07098389 0.7470703 -0.6611328
vn -0.55810547 0.8261719 0.079833984
vn -0.55810547 0.8261719 0.079833984
vn -0.55810547 0.8261719 0.079833984
vn -0.55810547 0.8261719 0.079833984
vn 0.21936035 0.45214844 0.8647461
vn 0.21936035 0.45214844 0.8647461
vn 0.21936035 0.45214844 0.8647461
vn 0.21936035 0.45214844 0.8647461
vn 0.9194336 0.33813477 -0.2006836
vn 0.9194336 0.33813477 -0.2006836
vn 0.9194336 0.33813477 -0.2006836
vn 0.9194336 0.33813477 -0.2006836
vn -0.15527344 0.38085938 -0.9116211
vn -0.15527344 0.38085938 -0.9116211
vn -0.15527344 0.38085938 -0.9116211
vn -0.15527344 0.38085938 -0.9116211
vn -0.85546875 0.4946289 0.1538086
vn -0.85546875 0.4946289 0.1538086
vn -0.85546875 0.4946289 0.1538086
vn -0.85546875 0.4946289 0.1538086
vn -0.53808594 0.36547852 0.75927734
vn -0.53808594 0.36547852 0.75927734
vn -0.53808594 0.36547852 0.75927734
vn -0.53808594 0.36547852 0.75927734
vn 0.58691406 0.39013672 0.70947266
vn 0.58691406 0.39013672 0.70947266
vn 0.58691406 0.39013672 0.70947266
vn 0.58691406 0.39013672 0.70947266
vn -0.60302734 0.36572266 -0.7089844
vn -0.60302734 0.36572266 -0.7089844
vn -0.60302734 0.36572266 -0.7089844
vn -0.60302734 0.3659668 -0.7089844
vn 0.52197266 0.38330078 -0.76220703
vn 0.52197266 0.38330078 -0.76220703
vn 0.52197266 0.38330078 -0.76220703
vn 0.52197266 0.38330078 -0.76220703
vn 0.0077552795 0.8071289 0.59033203
vn 0.0077552795 0.8071289 0.59033203
vn 0.0077552795 0.8071289 0.59033203
vn 0.007751465 0.8071289 0.59033203
vn 0.4699707 0.8823242 -0.026290894
vn 0.4699707 0.8823242 -0.026290894
vn 0.4699707 0.8823242 -0.026290894
vn 0.4699707 0.8823242 -0.026290894
vn -0.025634766 0.8046875 -0.59277344
vn -0.025634766 0.8046875 -0.59277344
vn -0.025634766 0.8046875 -0.59277344
vn -0.025634766 0.8046875 -0.59277344
vn -0.5083008 0.86083984 0.023925781
vn -0.5083008 0.86083984 0.023925781
vn -0.5083008 0.86083984 0.023925781
vn -0.5083008 0.86083984 0.023910522
vn 0.020065308 0.45703125 0.88916016
vn 0.020065308 0.45703125 0.88916016
vn 0.020065308 0.45703125 0.88916016
vn 0.020065308 0.45703125 0.88916016
vn 0.81933594 0.57177734 -0.043426514
vn 0.81933594 0.57177734 -0.043426514
vn 0.81933594 0.57177734 -0.043426514
vn 0.81933594 0.57177734 -0.043426514
vn -0.030166626 0.45361328 -0.890625
vn -0.030166626 0.45361328 -0.890625
vn -0.030166626 0.45361328 -0.890625
vn -0.030166626 0.45361328 -0.890625
vn -0.8413086 0.5390625 0.041778564
vn -0.8413086 0.5390625 0.041778564
vn -0.8413086 0.5390625 0.041778564
vn -0.8413086 0.5390625 0.041778564
vn -0.28833008 0.58691406 0.75634766
vn -0.28833008 0.58691406 0.75634766
vn -0.28833008 0.58691406 0.75634766
vn -0.28833008 0.58691406 0.75634766
vn 0.8364258 0.46435547 0.2902832
vn 0.8364258 0.46435547 0.2902832
vn 0.8364258 0.46435547 0.2902832
vn 0.8364258 0.4645996 0.2902832
vn -0.8144531 0.36083984 -0.45410156
vn -0.8144531 0.36083984 -0.45410156
vn -0.8144531 0.36083984 -0.45410156
vn -0.8144531 0.36083984 -0.45410156
vn 0.31030273 0.23828125 -0.92041016
vn 0.31030273 0.23828125 -0.92041016
vn 0.31030273 0.23828125 -0.92041016
vn 0.31030273 0.23840332 -0.92041016
vn 0.06591797 0.99560547 0.064575195
vn 0.06591797 0.99560547 0.064575195
vn 0.06591797 0.99560547 0.064575195
vn 0.051574707 0.9980469 0.033111572
vn 0.31762695 0.89746094 -0.30639648
vn 0.31762695 0.89746094 -0.30639648
vn 0.31762695 0.89746094 -0.30639648
vn 0.31762695 0.89746094 -0.30639648
vn -0.11187744 0.92285156 -0.36865234
vn -0.11187744 0.92285156 -0.36865234
vn -0.11187744 0.92285156 -0.36865234
vn -0.1237793 0.9111328 -0.39331055
vn -0.2680664 0.9614258 -0.062408447
vn -0.2680664 0.9614258 -0.062408447
vn -0.2680664 0.9614258 -0.062408447
vn -0.2680664 0.9614258 -0.062408447
vn 0.30126953 0.6689453 0.6796875
vn 0.30126953 0.6689453 0.6796875
vn 0.30126953 0.6689453 0.6796875
vn 0.30126953 0.6689453 0.6796875
vn 0.7714844 0.4729004 -0.4255371
vn 0.7714844 0.4729004 -0.4255371
vn 0.7714844 0.4729004 -0.4255371
vn 0.7714844 0.4729004 -0.4255371
vn -0.3330078 0.3803711 -0.86279297
vn -0.3330078 0.3803711 -0.86279297
vn -0.3330078 0.3803711 -0.86279297
vn -0.3330078 0.3803711 -0.86279297
vn -0.7421875 0.6381836 0.20507812
vn -0.7421875 0.6381836 0.20507812
vn -0.7421875 0.6381836 0.20507812
vn -0.7421875 0.6381836 0.20507812
vn -0.4729004 0.014282227 0.8808594
vn -0.4729004 0.014282227 0.8808594
vn -0.4729004 0.014282227 0.8808594
vn -0.4729004 0.014282227 0.8808594
vn -0.4729004 0.014282227 0.8808594
vn -0.4729004 0.014282227 0.8808594
vn -0.8100586 -0.24328613 -0.5332031
vn -0.8100586 -0.24328613 -0.5332031
vn -0.8100586 -0.24328613 -0.5332031
vn -0.8100586 -0.24328613 -0.5332031
vn -0.8100586 -0.24328613 -0.5332031
vn -0.8100586 -0.24328613 -0.5332031
vn -0.2902832 -0.54052734 0.7895508
vn -0.2902832 -0.54052734 0.7895508
vn -0.2902832 -0.54052734 0.7895508
vn 0.7783203 -0.37426758 0.50439453
vn 0.7783203 -0.37426758 0.50439453
vn 0.7783203 -0.37426758 0.50439453
vn -0.57666016 -0.71972656 -0.38671875
vn -0.57666016 -0.71972656 -0.38671875
vn -0.57666016 -0.71972656 -0.38671875
vn 0.49169922 -0.55371094 -0.6723633
vn 0.49169922 -0.55371094 -0.6723633
vn 0.49169922 -0.55371094 -0.6723633
vn -0.90722656 0.40307617 0.1182251
vn -0.90722656 0.40307617 0.1182251
vn -0.90722656 0.40307617 0.1182251
vn -0.90722656 0.40307617 0.11828613
vn -0.90722656 0.40307617 0.11828613
vn -0.90722656 0.40307617 0.11828613
vn 0.26220703 0.32421875 0.9086914
vn 0.26220703 0.32421875 0.9086914
vn 0.26220703 0.32421875 0.9086914
vn 0.26245117 0.32421875 0.9086914
vn 0.26245117 0.32421875 0.9086914
vn 0.26245117 0.32421875 0.9086914
vn -0.2614746 -0.3215332 -0.91015625
vn -0.2614746 -0.3215332 -0.91015625
vn -0.2614746 -0.3215332 -0.91015625
vn -0.2614746 -0.3215332 -0.91015625
vn -0.2614746 -0.3215332 -0.91015625
vn -0.2614746 -0.3215332 -0.91015625
vn 0.9082031 -0.40063477 -0.119506836
vn 0.9082031 -0.40063477 -0.119506836
vn 0.9082031 -0.40063477 -0.119506836
vn 0.9082031 -0.40063477 -0.1194458
vn 0.9082031 -0.40063477 -0.1194458
vn 0.9082031 -0.40063477 -0.1194458
vn -0.056121826 -0.43798828 0.89746094
vn -0.056121826 -0.43798828 0.89746094
vn -0.056121826 -0.43798828 0.89746094
vn -0.87939453 -0.30688477 0.3635254
vn -0.87939453 -0.30688477 0.3635254
vn -0.87939453 -0.30688477 0.3635254
vn 0.73095703 -0.6816406 0.032287598
vn 0.73095703 -0.6816406 0.032287598
vn 0.73095703 -0.6816406 0.032287598
vn -0.38256836 -0.7290039 -0.5678711
vn -0.38256836 -0.7290039 -0.5678711
vn -0.38256836 -0.7290039 -0.5678711
vn 0.5493164 -0.4519043 0.703125
vn 0.5493164 -0.4519043 0.703125
vn 0.5493164 -0.4519043 0.703125
vn 0.32641602 -0.6870117 0.6489258
vn 0.32641602 -0.6870117 0.6489258
vn 0.32641602 -0.6870117 0.6489258
vn 0.2208252 -0.8642578 -0.45239258
vn 0.2208252 -0.8642578 -0.45239258
vn 0.2208252 -0.8642578 -0.45239258
vn 0.22814941 -0.85791016 -0.46020508
vn 0.22814941 -0.85791016 -0.46020508
vn 0.22814941 -0.85791016 -0.46020508
vn -0.82470703 -0.53271484 -0.1895752
vn -0.82470703 -0.53271484 -0.1895752
vn -0.82470703 -0.53271484 -0.1895752
vn -0.8149414 -0.5566406 -0.16137695
vn -0.8149414 -0.5566406 -0.16137695
vn -0.8149414 -0.5566406 -0.16137695
vn 0.5498047 0.2319336 0.8022461
vn 0.5498047 0.2319336 0.8022461
vn 0.5498047 0.2319336 0.8022461
vn 0.5498047 0.2319336 0.8022461
vn 0.5498047 0.2319336 0.8022461
vn 0.5498047 0.2319336 0.8022461
vn -0.55078125 -0.22814941 -0.8027344
vn -0.55078125 -0.22814941 -0.8027344
vn -0.55078125 -0.22814941 -0.8027344
vn -0.55078125 -0.22814941 -0.8027344
vn -0.55078125 -0.22814941 -0.8027344
vn -0.55078125 -0.22814941 -0.8027344
vn 0.81152344 0.075927734 -0.57910156
vn 0.81152344 0.075927734 -0.57910156
vn 0.81152344 0.075927734 -0.57910156
vn 0.81152344 0.075927734 -0.57910156
vn 0.81152344 0.075927734 -0.57910156
vn 0.81152344 0.075927734 -0.57910156
vn 0.47924805 -0.70214844 0.52685547
vn 0.47924805 -0.70214844 0.52685547
vn 0.47924805 -0.70214844 0.52685547
vn -0.32739258 -0.8334961 0.44555664
vn -0.32739258 -0.8334961 0.44555664
vn -0.32739258 -0.8334961 0.44555664
vn 0.80908203 -0.36376953 -0.46142578
vn 0.80908203 -0.36376953 -0.46142578
vn 0.80908203 -0.36376953 -0.46142578
vn -0.28759766 -0.7866211 -0.5463867
vn -0.28759766 -0.7866211 -0.5463867
vn -0.28759766 -0.7866211 -0.5463867
vn 0.8798828 -0.41210938 0.23669434
vn 0.8798828 -0.41210938 0.23669434
vn 0.8798828 -0.41210938 0.23669434
vn 0.69091797 -0.6972656 0.1920166
vn 0.69091797 -0.6972656 0.1920166
vn 0.69091797 -0.6972656 0.1920166
vn -0.4963379 0.09283447 0.86328125
vn -0.4963379 0.09283447 0.86328125
vn -0.4963379 0.09283447 0.86328125
vn -0.4963379 0.09283447 0.86328125
vn -0.4963379 0.09283447 0.86328125
vn -0.4963379 0.09283447 0.86328125
vn -0.8647461 0.038208008 -0.50097656
vn -0.8647461 0.038208008 -0.50097656
vn -0.8647461 0.038208008 -0.50097656
vn -0.8647461 0.038208008 -0.50097656
vn -0.8647461 0.038208008 -0.50097656
vn -0.8647461 0.038208008 -0.50097656
vn -0.43041992 -0.57128906 0.69873047
vn -0.43041992 -0.57128906 0.69873047
vn -0.43041992 -0.57128906 0.69873047
vn 0.6147461 -0.66748047 0.4206543
vn 0.6147461 -0.66748047 0.4206543
vn 0.6147461 -0.66748047 0.4206543
vn -0.7128906 -0.60839844 -0.34887695
vn -0.7128906 -0.60839844 -0.34887695
vn -0.7128906 -0.60839844 -0.34887695
vn 0.3322754 -0.70458984 -0.6269531
vn 0.3322754 -0.70458984 -0.6269531
vn 0.3322754 -0.70458984 -0.6269531
vn -0.6904297 -0.703125 0.16918945
vn -0.6904297 -0.703125 0.16918945
vn -0.6904297 -0.703125 0.16918945
vn -0.6904297 -0.703125 0.16918945
vn -0.6904297 -0.703125 0.16918945
vn -0.6904297 -0.703125 0.16918945
vn 0.6430664 0.008804321 0.7661133
vn 0.6430664 0.008804321 0.7661133
vn 0.6430664 0.008804321 0.7661133
vn 0.80859375 -0.004585266 0.5883789
vn 0.80859375 -0.004585266 0.5883789
vn 0.80859375 -0.004585266 0.5883789
vn -0.57177734 -0.0023384094 0.8203125
vn -0.57177734 -0.0023384094 0.8203125
vn -0.57177734 -0.0023384094 0.8203125
vn -0.57177734 -0.0023384094 0.8203125
vn -0.57177734 -0.0023384094 0.8203125
vn -0.57177734 -0.0023384094 0.8203125
vn -0.6430664 -0.0064048767 -0.7661133
vn -0.6430664 -0.0064048767 -0.7661133
vn -0.6430664 -0.0064048767 -0.7661133
vn -0.6430664 -0.0064048767 -0.7661133
vn -0.6430664 -0.0064048767 -0.7661133
vn -0.6430664 -0.0064048767 -0.7661133
vn -0.515625 -0.40673828 0.75390625
vn -0.515625 -0.40673828 0.75390625
vn -0.515625 -0.40673828 0.75390625
vn 0.6538086 -0.58984375 0.4736328
vn 0.6538086 -0.58984375 0.4736328
vn 0.6538086 -0.58984375 0.4736328
vn -0.5415039 -0.52197266 -0.6586914
vn -0.5415039 -0.52197266 -0.6586914
vn -0.5415039 -0.52197266 -0.6586914
vn 0.50390625 -0.4975586 -0.7060547
vn 0.50390625 -0.4975586 -0.7060547
vn 0.50390625 -0.4975586 -0.7060547
vn -0.7026367 -0.7114258 0.019882202
vn -0.7026367 -0.7114258 0.019882202
vn -0.7026367 -0.7114258 0.019882202
vn -0.8305664 -0.5546875 0.04397583
vn -0.8305664 -0.5546875 0.04397583
vn -0.8305664 -0.5546875 0.04397583
vn -0.32983398 0.19848633 0.92285156
vn -0.32983398 0.19848633 0.92285156
vn -0.32983398 0.19848633 0.92285156
vn -0.32983398 0.19848633 0.92285156
vn -0.32983398 0.19848633 0.92285156
vn -0.32983398 0.19848633 0.92285156
vn -0.91064453 -0.092285156 -0.40307617
vn -0.91064453 -0.092285156 -0.40307617
vn -0.91064453 -0.092285156 -0.40307617
vn -0.91064453 -0.092285156 -0.40307617
vn -0.91064453 -0.092285156 -0.40307617
vn -0.91064453 -0.092285156 -0.40307617
vn -0.28808594 -0.38916016 0.875
vn -0.28808594 -0.38916016 0.875
vn -0.28808594 -0.38916016 0.875
vn 0.7397461 -0.50097656 0.4489746
vn 0.7397461 -0.50097656 0.4489746
vn 0.7397461 -0.50097656 0.4489746
vn -0.76904297 -0.5957031 -0.23132324
vn -0.76904297 -0.5957031 -0.23132324
vn -0.76904297 -0.5957031 -0.23132324
vn 0.25878906 -0.70751953 -0.65722656
vn 0.25878906 -0.70751953 -0.65722656
vn 0.25878906 -0.70751953 -0.65722656
vn 0.2076416 0.1730957 0.9628906
vn 0.2076416 0.1730957 0.9628906
vn 0.2076416 0.1730957 0.9628906
vn 0.2076416 0.1730957 0.9628906
vn 0.9501953 0.17199707 -0.25952148
vn 0.9501953 0.17199707 -0.25952148
vn 0.9501953 0.17199707 -0.25952148
vn 0.9501953 0.17199707 -0.25952148
vn -0.2088623 -0.16845703 -0.9633789
vn -0.2088623 -0.16845703 -0.9633789
vn -0.2088623 -0.16845703 -0.9633789
vn -0.2088623 -0.16845703 -0.9633789
vn -0.9501953 -0.17199707 0.25952148
vn -0.9501953 -0.17199707 0.25952148
vn -0.9501953 -0.17199707 0.25952148
vn -0.9501953 -0.17199707 0.25952148
vn 0.8095703 0.2467041 0.53271484
vn 0.8095703 0.2467041 0.53271484
vn 0.8095703 0.2467041 0.53271484
vn 0.8095703 0.2467041 0.53271484
vn 0.47216797 -0.01083374 -0.88134766
vn 0.47216797 -0.01083374 -0.88134766
vn 0.47216797 -0.01083374 -0.88134766
vn 0.47216797 -0.010826111 -0.88134766
vn -0.54785156 -0.7963867 0.25610352
vn -0.54785156 -0.7963867 0.25610352
vn -0.54785156 -0.7963867 0.25610352
vn -0.54785156 -0.7963867 0.25610352
vn 0.0018405914 -0.7583008 -0.65185547
vn 0.0018405914 -0.7583008 -0.65185547
vn 0.0018405914 -0.7583008 -0.65185547
vn 0.0018491745 -0.7583008 -0.65185547
vn 0.8027344 -0.58691406 -0.10736084
vn 0.8027344 -0.58691406 -0.10736084
vn 0.8027344 -0.58691406 -0.10736084
vn 0.8027344 -0.58691406 -0.10736084
vn 0.31933594 -0.5473633 0.7734375
vn 0.31933594 -0.5473633 0.7734375
vn 0.31933594 -0.5473633 0.7734375
vn 0.31933594 -0.5473633 0.7734375
vn -0.43774414 0.5126953 0.73828125
vn -0.43774414 0.5126953 0.73828125
vn -0.43774414 0.5126953 0.73828125
vn -0.43774414 0.5126953 0.73828125
vn -0.8261719 0.05456543 -0.56103516
vn -0.8261719 0.05456543 -0.56103516
vn -0.8261719 0.05456543 -0.56103516
vn -0.8261719 0.054473877 -0.56103516
vn 0.43920898 -0.50927734 -0.7402344
vn 0.43920898 -0.50927734 -0.7402344
vn 0.43920898 -0.50927734 -0.7402344
vn 0.43920898 -0.50927734 -0.7402344
vn 0.8261719 -0.054504395 0.56103516
vn 0.8261719 -0.054504395 0.56103516
vn 0.8261719 -0.054504395 0.56103516
vn 0.8261719 -0.054504395 0.56103516
vn -0.5395508 -0.28515625 0.7919922
vn -0.5395508 -0.28515625 0.7919922
vn -0.5395508 -0.28515625 0.7919922
vn -0.5390625 -0.28759766 0.7915039
vn -0.19799805 0.10998535 0.9741211
vn -0.19799805 0.10998535 0.9741211
vn -0.19799805 0.10998535 0.9741211
vn -0.19799805 0.10998535 0.9741211
vn -0.9584961 -0.21789551 -0.18310547
vn -0.9584961 -0.21789551 -0.18310547
vn -0.9584961 -0.21789551 -0.18310547
vn -0.9584961 -0.21777344 -0.18310547
vn 0.19702148 -0.10473633 -0.9746094
vn 0.19702148 -0.10473633 -0.9746094
vn 0.19702148 -0.10473633 -0.9746094
vn 0.19702148 -0.10479736 -0.9746094
vn 0.9584961 0.21789551 0.18310547
vn 0.9584961 0.21789551 0.18310547
vn 0.9584961 0.21789551 0.18310547
vn 0.9584961 0.21789551 0.18310547
vn -0.8125 -0.072265625 0.5786133
vn -0.8125 -0.072265625 0.5786133
vn -0.8125 -0.072265625 0.5786133
vn -0.8125 -0.07220459 0.5786133
vn 0.26342773 -0.64941406 -0.7133789
vn 0.26342773 -0.64941406 -0.7133789
vn 0.26342773 -0.64941406 -0.7133789
vn 0.26391602 -0.64404297 -0.71777344
vn -0.46728516 -0.8833008 -0.03692627
vn -0.46728516 -0.8833008 -0.03692627
vn -0.46728516 -0.8833008 -0.03692627
vn -0.43603516 -0.89941406 -0.027023315
vn 0.038726807 -0.7578125 0.6513672
vn 0.038726807 -0.7578125 0.6513672
vn 0.038726807 -0.7578125 0.6513672
vn 0.04727173 -0.7709961 0.6352539
vn 0.20690918 0.047698975 0.9770508
vn 0.20690918 0.047698975 0.9770508
vn 0.20690918 0.047698975 0.9770508
vn 0.20690918 0.047698975 0.9770508
vn 0.9770508 -0.08557129 -0.19519043
vn 0.9770508 -0.08557129 -0.19519043
vn 0.9770508 -0.08557129 -0.19519043
vn 0.9770508 -0.086120605 -0.1953125
vn -0.20617676 -0.039245605 -0.97753906
vn -0.20617676 -0.039245605 -0.97753906
vn -0.20617676 -0.039245605 -0.97753906
vn -0.20617676 -0.039245605 -0.97753906
vn -0.9770508 0.086120605 0.19519043
vn -0.9770508 0.086120605 0.19519043
vn -0.9770508 0.086120605 0.19519043
vn -0.9770508 0.08557129 0.1953125
vn 0.8647461 -0.03225708 0.50097656
vn 0.8647461 -0.03225708 0.50097656
vn 0.8647461 -0.03225708 0.50097656
vn 0.8647461 -0.03225708 0.50097656
vn 0.49682617 -0.08685303 -0.86376953
vn 0.49682617 -0.08685303 -0.86376953
vn 0.49682617 -0.08685303 -0.86376953
vn 0.49682617 -0.08685303 -0.86376953
vn -0.19177246 -0.78466797 -0.58984375
vn -0.19177246 -0.78466797 -0.58984375
vn -0.19177246 -0.78466797 -0.58984375
vn -0.19177246 -0.78466797 -0.58984375
vn 0.57373047 -0.8144531 -0.083618164
vn 0.57373047 -0.8144531 -0.083618164
vn 0.57373047 -0.8144531 -0.083618164
vn 0.57373047 -0.8144531 -0.083618164
vn 0.07501221 -0.7338867 0.67529297
vn 0.07501221 -0.7338867 0.67529297
vn 0.07501221 -0.7338867 0.67529297
vn 0.07507324 -0.7338867 0.67529297
vn 0.028198242 0.003921509 0.9995117
vn 0.028198242 0.003921509 0.9995117
vn 0.028198242 0.003921509 0.9995117
vn 0.028198242 0.0039253235 0.9995117
vn 0.99853516 -0.006717682 -0.05117798
vn 0.99853516 -0.006717682 -0.05117798
vn 0.99853516 -0.006717682 -0.05117798
vn 0.9995117 0.009162903 -0.027114868
vn -0.02822876 -0.0009121895 -0.9995117
vn -0.02822876 -0.0009121895 -0.9995117
vn -0.02822876 -0.0009121895 -0.9995117
vn -0.02822876 -0.0009126663 -0.9995117
vn -0.99853516 -0.009132385 0.051208496
vn -0.99853516 -0.009132385 0.051208496
vn -0.99853516 -0.009132385 0.051208496
vn -0.99853516 -0.009140015 0.051239014
vn 0.57177734 0.004714966 -0.8203125
vn 0.57177734 0.004714966 -0.8203125
vn 0.57177734 0.004714966 -0.8203125
vn 0.57177734 0.004714966 -0.8203125
vn -0.016021729 -0.59814453 -0.80126953
vn -0.016021729 -0.59814453 -0.80126953
vn -0.016021729 -0.59814453 -0.80126953
vn -0.016021729 -0.59814453 -0.80126953
vn 0.7314453 -0.6816406 -0.01902771
vn 0.7314453 -0.6816406 -0.01902771
vn 0.7314453 -0.6816406 -0.01902771
vn 0.7314453 -0.6816406 -0.01902771
vn 0.029022217 -0.6176758 0.78564453
vn 0.029022217 -0.6176758 0.78564453
vn 0.029022217 -0.6176758 0.78564453
vn 0.029022217 -0.6176758 0.78564453
vn 0.37353516 0.20080566 0.9057617
vn 0.37353516 0.20080566 0.9057617
vn 0.37353516 0.20080566 0.9057617
vn 0.37353516 0.20080566 0.9057617
vn 0.9189453 -0.076416016 -0.38720703
vn 0.9189453 -0.076416016 -0.38720703
vn 0.9189453 -0.076416016 -0.38720703
vn 0.9189453 -0.076416016 -0.38720703
vn -0.3737793 -0.19616699 -0.9067383
vn -0.3737793 -0.19616699 -0.9067383
vn -0.3737793 -0.19616699 -0.9067383
vn -0.3737793 -0.19616699 -0.9067383
vn -0.9189453 0.076416016 0.38720703
vn -0.9189453 0.076416016 0.38720703
vn -0.9189453 0.076416016 0.38720703
vn -0.9189453 0.076416016 0.38720703
vn 0.91064453 0.09576416 0.40234375
vn 0.91064453 0.09576416 0.40234375
vn 0.91064453 0.09576416 0.40234375
vn 0.91064453 0.09576416 0.40234375
vn 0.32983398 -0.19506836 -0.9238281
vn 0.32983398 -0.19506836 -0.9238281
vn 0.32983398 -0.19506836 -0.9238281
vn 0.32983398 -0.19506836 -0.9238281
vn -0.66796875 -0.6225586 0.40820312
vn -0.66796875 -0.6225586 0.40820312
vn -0.66796875 -0.6225586 0.40820312
vn -0.66796875 -0.6225586 0.40820312
vn -0.25634766 -0.79052734 -0.55615234
vn -0.25634766 -0.79052734 -0.55615234
vn -0.25634766 -0.79052734 -0.55615234
vn -0.25634766 -0.79052734 -0.55615234
vn 0.6308594 -0.76416016 -0.13293457
vn 0.6308594 -0.76416016 -0.13293457
vn 0.6308594 -0.76416016 -0.13293457
vn 0.6308594 -0.76416016 -0.13293457
vn 0.29663086 -0.5390625 0.78808594
vn 0.29663086 -0.5390625 0.78808594
vn 0.29663086 -0.5390625 0.78808594
vn 0.29663086 -0.5390625 0.78808594
vn 0.2376709 -0.96728516 0.089416504
vn 0.2376709 -0.96728516 0.089416504
vn 0.2376709 -0.96728516 0.089416504
vn 0.2376709 -0.96728516 0.089416504
vn -0.31176758 -0.8779297 0.3635254
vn -0.31176758 -0.8779297 0.3635254
vn -0.31176758 -0.8779297 0.3635254
vn -0.31713867 -0.8754883 0.36401367
vn 0.18310547 -0.97753906 0.10650635
vn 0.18310547 -0.97753906 0.10650635
vn 0.18310547 -0.97753906 0.10650635
vn 0.18041992 -0.97753906 0.107421875
vn -0.076538086 -0.99560547 0.056121826
vn -0.076538086 -0.99560547 0.056121826
vn -0.076538086 -0.99560547 0.056121826
vn -0.076538086 -0.99560547 0.056121826
vn 0.011070251 -1 0.00087070465
vn 0.011070251 -1 0.00087070465
vn 0.011070251 -1 0.00087070465
vn 0.011070251 -1 0.00086927414
vn 0.02960205 -0.9848633 0.17102051
vn 0.02960205 -0.9848633 0.17102051
vn 0.02960205 -0.9848633 0.17102051
vn 0.02960205 -0.9848633 0.17102051
vn -0.23913574 0.9667969 -0.08898926
vn -0.23913574 0.9667969 -0.08898926
vn -0.23913574 0.9667969 -0.08898926
vn -0.23913574 0.9667969 -0.08898926
vn 0.31518555 0.875 -0.36791992
vn 0.31518555 0.875 -0.36791992
vn 0.31518555 0.875 -0.36791992
vn 0.31518555 0.875 -0.36791992
vn -0.18188477 0.9770508 -0.11016846
vn -0.18188477 0.9770508 -0.11016846
vn -0.18188477 0.9770508 -0.11016846
vn -0.18188477 0.9770508 -0.11010742
vn 0.076538086 0.99560547 -0.05609131
vn 0.076538086 0.99560547 -0.05609131
vn 0.076538086 0.99560547 -0.05609131
vn 0.076538086 0.99560547 -0.05609131
vn -0.011100769 1 -0.0019235611
vn -0.011100769 1 -0.0019235611
vn -0.011100769 1 -0.0019235611
vn -0.011100769 1 -0.0019254684
vn -0.031021118 0.9848633 -0.17041016
vn -0.031021118 0.9848633 -0.17041016
vn -0.031021118 0.9848633 -0.17041016
vn -0.031021118 0.9848633 -0.17041016
g C004_B004_0
f 3/3/3 2/2/2 1/1/1
f 6/6/6 5/5/5 4/4/4
f 9/9/9 8/8/8 7/7/7
f 12/12/12 11/11/11 10/10/10
f 15/15/15 14/14/14 13/13/13
f 18/18/18 17/17/17 16/16/16
f 21/21/21 20/20/20 19/19/19
f 24/24/24 23/23/23 22/22/22
f 27/27/27 26/26/26 25/25/25
f 30/30/30 29/29/29 28/28/28
f 33/33/33 32/32/32 31/31/31
f 36/36/36 35/35/35 34/34/34
f 39/39/39 38/38/38 37/37/37
f 42/42/42 41/41/41 40/40/40
f 45/45/45 44/44/44 43/43/43
f 48/48/48 47/47/47 46/46/46
f 51/51/51 50/50/50 49/49/49
f 54/54/54 53/53/53 52/52/52
f 57/57/57 56/56/56 55/55/55
f 60/60/60 59/59/59 58/58/58
f 63/63/63 62/62/62 61/61/61
f 66/66/66 65/65/65 64/64/64
f 69/69/69 68/68/68 67/67/67
f 72/72/72 71/71/71 70/70/70
f 75/75/75 74/74/74 73/73/73
f 78/78/78 77/77/77 76/76/76
f 81/81/81 80/80/80 79/79/79
f 80/80/80 81/81/81 82/82/82
f 85/85/85 84/84/84 83/83/83
f 84/84/84 85/85/85 86/86/86
f 89/89/89 88/88/88 87/87/87
f 88/88/88 89/89/89 90/90/90
f 93/93/93 92/92/92 91/91/91
f 92/92/92 93/93/93 94/94/94
f 97/97/97 96/96/96 95/95/95
f 96/96/96 97/97/97 98/98/98
f 101/101/101 100/100/100 99/99/99
f 100/100/100 101/101/101 102/102/102
f 105/105/105 104/104/104 103/103/103
f 104/104/104 105/105/105 106/106/106
f 109/109/109 108/108/108 107/107/107
f 108/108/108 109/109/109 110/110/110
f 113/113/113 112/112/112 111/111/111
f 112/112/112 113/113/113 114/114/114
f 117/117/117 116/116/116 115/115/115
f 116/116/116 117/117/117 118/118/118
f 121/121/121 120/120/120 119/119/119
f 120/120/120 121/121/121 122/122/122
f 125/125/125 124/124/124 123/123/123
f 124/124/124 125/125/125 126/126/126
f 129/129/129 128/128/128 127/127/127
f 128/128/128 129/129/129 130/130/130
f 133/133/133 132/132/132 131/131/131
f 132/132/132 133/133/133 134/134/134
f 137/137/137 136/136/136 135/135/135
f 136/136/136 137/137/137 138/138/138
f 141/141/141 140/140/140 139/139/139
f 140/140/140 141/141/141 142/142/142
f 145/145/145 144/144/144 143/143/143
f 144/144/144 145/145/145 146/146/146
f 149/149/149 148/148/148 147/147/147
f 148/148/148 149/149/149 150/150/150
f 153/153/153 152/152/152 151/151/151
f 152/152/152 153/153/153 154/154/154
f 157/157/157 156/156/156 155/155/155
f 156/156/156 157/157/157 158/158/158
f 161/161/161 160/160/160 159/159/159
f 160/160/160 161/161/161 162/162/162
f 165/165/165 164/164/164 163/163/163
f 164/164/164 165/165/165 166/166/166
f 169/169/169 168/168/168 167/167/167
f 168/168/168 169/169/169 170/170/170
f 173/173/173 172/172/172 171/171/171
f 172/172/172 173/173/173 174/174/174
f 177/177/177 176/176/176 175/175/175
f 176/176/176 177/177/177 178/178/178
f 181/181/181 180/180/180 179/179/179
f 180/180/180 181/181/181 182/182/182
f 185/185/185 184/184/184 183/183/183
f 184/184/184 185/185/185 186/186/186
f 189/189/189 188/188/188 187/187/187
f 188/188/188 189/189/189 190/190/190
f 193/193/193 192/192/192 191/191/191
f 192/192/192 193/193/193 194/194/194
f 197/197/197 196/196/196 195/195/195
f 196/196/196 197/197/197 198/198/198
f 201/201/201 200/200/200 199/199/199
f 200/200/200 201/201/201 202/202/202
f 205/205/205 204/204/204 203/203/203
f 204/204/204 205/205/205 206/206/206
f 209/209/209 208/208/208 207/207/207
f 208/208/208 209/209/209 210/210/210
f 213/213/213 212/212/212 211/211/211
f 212/212/212 213/213/213 214/214/214
f 217/217/217 216/216/216 215/215/215
f 216/216/216 217/217/217 218/218/218
f 221/221/221 220/220/220 219/219/219
f 220/220/220 221/221/221 222/222/222
f 225/225/225 224/224/224 223/223/223
f 224/224/224 225/225/225 226/226/226
f 229/229/229 228/228/228 227/227/227
f 228/228/228 229/229/229 230/230/230
f 233/233/233 232/232/232 231/231/231
f 232/232/232 233/233/233 234/234/234
f 237/237/237 236/236/236 235/235/235
f 236/236/236 237/237/237 238/238/238
f 241/241/241 240/240/240 239/239/239
f 240/240/240 241/241/241 242/242/242
f 245/245/245 244/244/244 243/243/243
f 244/244/244 245/245/245 246/246/246
f 249/249/249 248/248/248 247/247/247
f 248/248/248 249/249/249 250/250/250
f 253/253/253 252/252/252 251/251/251
f 252/252/252 253/253/253 254/254/254
f 257/257/257 256/256/256 255/255/255
f 256/256/256 257/257/257 258/258/258
f 261/261/261 260/260/260 259/259/259
f 260/260/260 261/261/261 262/262/262
f 265/265/265 264/264/264 263/263/263
f 264/264/264 265/265/265 266/266/266
f 269/269/269 268/268/268 267/267/267
f 268/268/268 269/269/269 270/270/270
f 273/273/273 272/272/272 271/271/271
f 272/272/272 273/273/273 274/274/274
f 277/277/277 276/276/276 275/275/275
f 276/276/276 277/277/277 278/278/278
f 281/281/281 280/280/280 279/279/279
f 280/280/280 281/281/281 282/282/282
f 285/285/285 284/284/284 283/283/283
f 284/284/284 285/285/285 286/286/286
f 289/289/289 288/288/288 287/287/287
f 288/288/288 289/289/289 290/290/290
f 293/293/293 292/292/292 291/291/291
f 292/292/292 293/293/293 294/294/294
f 297/297/297 296/296/296 295/295/295
f 296/296/296 297/297/297 298/298/298
f 301/301/301 300/300/300 299/299/299
f 300/300/300 301/301/301 302/302/302
f 305/305/305 304/304/304 303/303/303
f 304/304/304 305/305/305 306/306/306
f 309/309/309 308/308/308 307/307/307
f 308/308/308 309/309/309 310/310/310
f 313/313/313 312/312/312 311/311/311
f 312/312/312 313/313/313 314/314/314
f 317/317/317 316/316/316 315/315/315
f 316/316/316 317/317/317 318/318/318
f 321/321/321 320/320/320 319/319/319
f 320/320/320 321/321/321 322/322/322
f 325/325/325 324/324/324 323/323/323
f 324/324/324 325/325/325 326/326/326
f 329/329/329 328/328/328 327/327/327
f 328/328/328 329/329/329 330/330/330
f 333/333/333 332/332/332 331/331/331
f 332/332/332 333/333/333 334/334/334
f 337/337/337 336/336/336 335/335/335
f 336/336/336 337/337/337 338/338/338
f 341/341/341 340/340/340 339/339/339
f 340/340/340 341/341/341 342/342/342
f 345/345/345 344/344/344 343/343/343
f 344/344/344 345/345/345 346/346/346
f 349/349/349 348/348/348 347/347/347
f 348/348/348 349/349/349 350/350/350
f 353/353/353 352/352/352 351/351/351
f 352/352/352 353/353/353 354/354/354
f 357/357/357 356/356/356 355/355/355
f 356/356/356 357/357/357 358/358/358
f 361/361/361 360/360/360 359/359/359
f 360/360/360 361/361/361 362/362/362
g C004_B004_1
f 365/365/365 364/364/364 363/363/363
f 368/368/368 367/367/367 366/366/366
f 371/371/371 370/370/370 369/369/369
f 374/374/374 373/373/373 372/372/372
f 377/377/377 376/376/376 375/375/375
f 380/380/380 379/379/379 378/378/378
f 383/383/383 382/382/382 381/381/381
f 386/386/386 385/385/385 384/384/384
f 389/389/389 388/388/388 387/387/387
f 392/392/392 391/391/391 390/390/390
f 395/395/395 394/394/394 393/393/393
f 398/398/398 397/397/397 396/396/396
f 401/401/401 400/400/400 399/399/399
f 404/404/404 403/403/403 402/402/402
f 407/407/407 406/406/406 405/405/405
f 410/410/410 409/409/409 408/408/408
f 413/413/413 412/412/412 411/411/411
f 416/416/416 415/415/415 414/414/414
f 419/419/419 418/418/418 417/417/417
f 422/422/422 421/421/421 420/420/420
f 425/425/425 424/424/424 423/423/423
f 428/428/428 427/427/427 426/426/426
f 431/431/431 430/430/430 429/429/429
f 434/434/434 433/433/433 432/432/432
f 437/437/437 436/436/436 435/435/435
f 440/440/440 439/439/439 438/438/438
f 443/443/443 442/442/442 441/441/441
f 446/446/446 445/445/445 444/444/444
f 449/449/449 448/448/448 447/447/447
f 452/452/452 451/451/451 450/450/450
f 455/455/455 454/454/454 453/453/453
f 458/458/458 457/457/457 456/456/456
f 461/461/461 460/460/460 459/459/459
f 464/464/464 463/463/463 462/462/462
f 467/467/467 466/466/466 465/465/465
f 470/470/470 469/469/469 468/468/468
f 473/473/473 472/472/472 471/471/471
f 476/476/476 475/475/475 474/474/474
f 479/479/479 478/478/478 477/477/477
f 482/482/482 481/481/481 480/480/480
f 485/485/485 484/484/484 483/483/483
f 488/488/488 487/487/487 486/486/486
f 491/491/491 490/490/490 489/489/489
f 494/494/494 493/493/493 492/492/492
f 497/497/497 496/496/496 495/495/495
f 500/500/500 499/499/499 498/498/498
f 503/503/503 502/502/502 501/501/501
f 506/506/506 505/505/505 504/504/504
f 509/509/509 508/508/508 507/507/507
f 512/512/512 511/511/511 510/510/510
f 515/515/515 514/514/514 513/513/513
f 518/518/518 517/517/517 516/516/516
f 521/521/521 520/520/520 519/519/519
f 524/524/524 523/523/523 522/522/522
f 527/527/527 526/526/526 525/525/525
f 530/530/530 529/529/529 528/528/528
f 533/533/533 532/532/532 531/531/531
f 536/536/536 535/535/535 534/534/534
f 539/539/539 538/538/538 537/537/537
f 542/542/542 541/541/541 540/540/540
f 545/545/545 544/544/544 543/543/543
f 548/548/548 547/547/547 546/546/546
f 551/551/551 550/550/550 549/549/549
f 554/554/554 553/553/553 552/552/552
f 557/557/557 556/556/556 555/555/555
f 560/560/560 559/559/559 558/558/558
f 563/563/563 562/562/562 561/561/561
f 566/566/566 565/565/565 564/564/564
f 569/569/569 568/568/568 567/567/567
f 568/568/568 569/569/569 570/570/570
f 573/573/573 572/572/572 571/571/571
f 572/572/572 573/573/573 574/574/574
f 577/577/577 576/576/576 575/575/575
f 576/576/576 577/577/577 578/578/578
f 581/581/581 580/580/580 579/579/579
f 580/580/580 581/581/581 582/582/582
f 585/585/585 584/584/584 583/583/583
f 584/584/584 585/585/585 586/586/586
f 589/589/589 588/588/588 587/587/587
f 588/588/588 589/589/589 590/590/590
f 593/593/593 592/592/592 591/591/591
f 592/592/592 593/593/593 594/594/594
f 597/597/597 596/596/596 595/595/595
f 596/596/596 597/597/597 598/598/598
f 601/601/601 600/600/600 599/599/599
f 600/600/600 601/601/601 602/602/602
f 605/605/605 604/604/604 603/603/603
f 604/604/604 605/605/605 606/606/606
f 609/609/609 608/608/608 607/607/607
f 608/608/608 609/609/609 610/610/610
f 613/613/613 612/612/612 611/611/611
f 612/612/612 613/613/613 614/614/614
f 617/617/617 616/616/616 615/615/615
f 616/616/616 617/617/617 618/618/618
f 621/621/621 620/620/620 619/619/619
f 620/620/620 621/621/621 622/622/622
f 625/625/625 624/624/624 623/623/623
f 624/624/624 625/625/625 626/626/626
f 629/629/629 628/628/628 627/627/627
f 628/628/628 629/629/629 630/630/630
f 633/633/633 632/632/632 631/631/631
f 632/632/632 633/633/633 634/634/634
f 637/637/637 636/636/636 635/635/635
f 636/636/636 637/637/637 638/638/638
f 641/641/641 640/640/640 639/639/639
f 640/640/640 641/641/641 642/642/642
f 645/645/645 644/644/644 643/643/643
f 644/644/644 645/645/645 646/646/646
f 649/649/649 648/648/648 647/647/647
f 648/648/648 649/649/649 650/650/650
f 653/653/653 652/652/652 651/651/651
f 652/652/652 653/653/653 654/654/654
f 657/657/657 656/656/656 655/655/655
f 656/656/656 657/657/657 658/658/658
f 661/661/661 660/660/660 659/659/659
f 660/660/660 661/661/661 662/662/662
f 665/665/665 664/664/664 663/663/663
f 664/664/664 665/665/665 666/666/666
f 669/669/669 668/668/668 667/667/667
f 668/668/668 669/669/669 670/670/670
f 673/673/673 672/672/672 671/671/671
f 672/672/672 673/673/673 674/674/674
f 677/677/677 676/676/676 675/675/675
f 676/676/676 677/677/677 678/678/678
f 681/681/681 680/680/680 679/679/679
f 680/680/680 681/681/681 682/682/682
f 685/685/685 684/684/684 683/683/683
f 684/684/684 685/685/685 686/686/686
f 689/689/689 688/688/688 687/687/687
f 688/688/688 689/689/689 690/690/690
f 693/693/693 692/692/692 691/691/691
f 692/692/692 693/693/693 694/694/694
f 697/697/697 696/696/696 695/695/695
f 696/696/696 697/697/697 698/698/698
f 701/701/701 700/700/700 699/699/699
f 700/700/700 701/701/701 702/702/702
f 705/705/705 704/704/704 703/703/703
f 704/704/704 705/705/705 706/706/706
f 709/709/709 708/708/708 707/707/707
f 708/708/708 709/709/709 710/710/710
f 713/713/713 712/712/712 711/711/711
f 712/712/712 713/713/713 714/714/714
f 717/717/717 716/716/716 715/715/715
f 716/716/716 717/717/717 718/718/718
f 721/721/721 720/720/720 719/719/719
f 720/720/720 721/721/721 722/722/722
f 725/725/725 724/724/724 723/723/723
f 724/724/724 725/725/725 726/726/726
f 729/729/729 728/728/728 727/727/727
f 728/728/728 729/729/729 730/730/730
f 733/733/733 732/732/732 731/731/731
f 732/732/732 733/733/733 734/734/734
f 737/737/737 736/736/736 735/735/735
f 736/736/736 737/737/737 738/738/738
f 741/741/741 740/740/740 739/739/739
f 740/740/740 741/741/741 742/742/742
f 745/745/745 744/744/744 743/743/743
f 744/744/744 745/745/745 746/746/746
f 749/749/749 748/748/748 747/747/747
f 748/748/748 749/749/749 750/750/750
f 753/753/753 752/752/752 751/751/751
f 752/752/752 753/753/753 754/754/754
f 757/757/757 756/756/756 755/755/755
f 756/756/756 757/757/757 758/758/758
f 761/761/761 760/760/760 759/759/759
f 760/760/760 761/761/761 762/762/762
f 765/765/765 764/764/764 763/763/763
f 764/764/764 765/765/765 766/766/766
g C004_B004_2
f 769/769/769 768/768/768 767/767/767
f 768/768/768 769/769/769 770/770/770
f 773/773/773 772/772/772 771/771/771
f 772/772/772 773/773/773 774/774/774
f 777/777/777 776/776/776 775/775/775
f 776/776/776 777/777/777 778/778/778
f 781/781/781 780/780/780 779/779/779
f 780/780/780 781/781/781 782/782/782
f 785/785/785 784/784/784 783/783/783
f 784/784/784 785/785/785 786/786/786
f 789/789/789 788/788/788 787/787/787
f 788/788/788 789/789/789 790/790/790
g C004_B004_3
f 793/793/793 792/792/792 791/791/791
f 792/792/792 793/793/793 794/794/794
f 797/797/797 796/796/796 795/795/795
f 796/796/796 797/797/797 798/798/798
f 801/801/801 800/800/800 799/799/799
f 800/800/800 801/801/801 802/802/802
f 805/805/805 804/804/804 803/803/803
f 804/804/804 805/805/805 806/806/806
f 809/809/809 808/808/808 807/807/807
f 808/808/808 809/809/809 810/810/810
f 813/813/813 812/812/812 811/811/811
f 812/812/812 813/813/813 814/814/814
