g C004_HerbMan_House01_Door_R
v 0.038255364 3.0956109 -1.2082492
v 0.034276843 3.0913863 0.010312336
v -0.00252418 0.066231534 0.00021824022
v 0.0014858699 0.07045493 -1.218348
v 0.038255364 3.0956109 -1.2082492
v 0.20834449 3.1021547 -1.2231308
v 0.20436358 3.09793 -0.0045683314
v 0.034276843 3.0913863 0.010312336
v 0.034276843 3.0913863 0.010312336
v 0.20436358 3.09793 -0.0045683314
v 0.16756496 0.07277537 -0.014663246
v -0.00252418 0.066231534 0.00021824022
v -0.00252418 0.066231534 0.00021824022
v 0.16756496 0.07277537 -0.014663246
v 0.0014858699 0.07045493 -1.218348
v 0.1715751 0.07699878 -1.2332282
v 0.20834449 3.1021547 -1.2231308
v 0.038255364 3.0956109 -1.2082492
v 0.1715751 0.07699878 -1.2332282
v 0.0014858699 0.07045493 -1.218348
v 0.20834449 3.1021547 -1.2231308
v 0.1715751 0.07699878 -1.2332282
v 0.16756496 0.07277537 -0.014663246
v 0.20436358 3.09793 -0.0045683314
v 0.028515514 2.7441123 0.023912536
v 0.027539315 2.7452307 -0.32216305
v -0.05143333 2.756524 -0.30566046
v -0.049686015 2.7554932 0.022945024
v 0.027144287 2.8438787 -0.21114221
v -0.04686747 3.089084 -0.22863889
v 0.031807557 3.0920258 -0.21013002
v -0.05364718 2.824839 -0.23028137
v -0.0458815 3.089374 -0.30431062
v -0.04686747 3.089084 -0.22863889
v -0.05364718 2.824839 -0.23028137
v -0.05143333 2.756524 -0.30566046
v 0.03323231 3.0924497 -0.32075816
v -0.0458815 3.089374 -0.30431062
v -0.05143333 2.756524 -0.30566046
v 0.027539315 2.7452307 -0.32216305
v -0.05364718 2.824839 -0.23028137
v 0.027144287 2.8438787 -0.21114221
v -0.052303337 2.8240438 0.023174
v 0.02954038 2.8431838 0.024305651
v -0.05143333 2.756524 -0.30566046
v -0.05364718 2.824839 -0.23028137
v -0.049686015 2.7554932 0.022945024
v -0.052303337 2.8240438 0.023174
vt 0.6245117 0.60253906
vt 0.7270508 0.60253906
vt 0.7270508 0.3383789
vt 0.6245117 0.3383789
vt 0.6245117 0.60253906
vt 0.6245117 0.6166992
vt 0.7270508 0.6166992
vt 0.7270508 0.60253906
vt 0.7270508 0.3383789
vt 0.7416992 0.3383789
vt 0.7416992 0.60253906
vt 0.7270508 0.60253906
vt 0.6245117 0.60253906
vt 0.6245117 0.6166992
vt 0.7270508 0.60253906
vt 0.7270508 0.6166992
vt 0.7416992 0.60253906
vt 0.7270508 0.60253906
vt 0.7416992 0.3383789
vt 0.7270508 0.3383789
vt 0.7270508 0.60253906
vt 0.7270508 0.3383789
vt 0.6245117 0.3383789
vt 0.6245117 0.60253906
vt 0.33569336 0.089538574
vt 0.30908203 0.089538574
vt 0.30908203 0.09649658
vt 0.33569336 0.09649658
vt 0.30908203 0.089538574
vt 0.33496094 0.09649658
vt 0.33496094 0.089538574
vt 0.30908203 0.09649658
vt 0.3413086 0.045776367
vt 0.3413086 0.05227661
vt 0.3149414 0.05227661
vt 0.30908203 0.045776367
vt 0.34179688 0.089538574
vt 0.34179688 0.09649658
vt 0.30908203 0.09649658
vt 0.30908203 0.089538574
vt 0.31323242 0.09649658
vt 0.31323242 0.089538574
vt 0.3317871 0.09649658
vt 0.3317871 0.089538574
vt 0.30908203 0.045776367
vt 0.3149414 0.05227661
vt 0.30908203 0.07147217
vt 0.3149414 0.0715332
vn -1 0.012168884 -0.0032348633
vn -1 0.012168884 -0.0032348633
vn -1 0.012168884 -0.0032348633
vn -1 0.012168884 -0.0032348633
vn -0.038146973 0.99902344 0.0033397675
vn -0.038146973 0.99902344 0.0033397675
vn -0.038146973 0.99902344 0.0033397675
vn -0.038146973 0.99902344 0.0033397675
vn 0.08734131 -0.004386902 0.99609375
vn 0.08734131 -0.004386902 0.99609375
vn 0.08734131 -0.004386902 0.99609375
vn 0.08734131 -0.004386902 0.99609375
vn 0.038146973 -0.99902344 -0.00333786
vn 0.038146973 -0.99902344 -0.00333786
vn 0.038146973 -0.99902344 -0.00333786
vn 0.038146973 -0.99902344 -0.00333786
vn -0.08734131 0.004386902 -0.99609375
vn -0.08734131 0.004386902 -0.99609375
vn -0.08734131 0.004386902 -0.99609375
vn -0.08734131 0.004386902 -0.99609375
vn 1 -0.012168884 0.0032367706
vn 1 -0.012168884 0.0032367706
vn 1 -0.012168884 0.0032367706
vn 1 -0.012168884 0.0032367706
vn -0.1430664 -0.9897461 -0.002576828
vn -0.1430664 -0.9897461 -0.002576828
vn -0.1430664 -0.9897461 -0.002576828
vn -0.1430664 -0.9897461 -0.002576828
vn -0.22973633 8.928776E-05 0.97314453
vn -0.22973633 8.928776E-05 0.97314453
vn -0.22973633 8.928776E-05 0.97314453
vn -0.22973633 8.928776E-05 0.97314453
vn -0.9995117 0.02079773 -0.030532837
vn -0.9995117 0.02079773 -0.030532837
vn -0.9995117 0.02079773 -0.030532837
vn -0.9995117 0.02079773 -0.030532837
vn -0.20373535 0.007331848 -0.9790039
vn -0.20373535 0.007331848 -0.9790039
vn -0.20373535 0.007331848 -0.9790039
vn -0.20373535 0.007331848 -0.9790039
vn -0.22912598 0.9736328 0.0047187805
vn -0.22912598 0.9736328 0.0047187805
vn -0.22912598 0.9736328 0.0047187805
vn -0.22912598 0.9736328 0.0047187805
vn -0.99902344 -0.038146973 0.0051879883
vn -0.99902344 -0.038146973 0.0051879883
vn -0.99902344 -0.038146973 0.0051879883
vn -0.99902344 -0.038146973 0.0051879883
g C004_HerbMan_House01_Door_R_0
f 3/3/3 2/2/2 1/1/1
f 1/1/1 4/4/4 3/3/3
f 7/7/7 6/6/6 5/5/5
f 5/5/5 8/8/8 7/7/7
f 11/11/11 10/10/10 9/9/9
f 9/9/9 12/12/12 11/11/11
f 15/15/15 14/14/14 13/13/13
f 16/16/16 14/14/14 15/15/15
f 19/19/19 18/18/18 17/17/17
f 19/19/19 20/20/20 18/18/18
f 23/23/23 22/22/22 21/21/21
f 21/21/21 24/24/24 23/23/23
f 27/27/27 26/26/26 25/25/25
f 25/25/25 28/28/28 27/27/27
f 31/31/31 30/30/30 29/29/29
f 32/32/32 29/29/29 30/30/30
f 35/35/35 34/34/34 33/33/33
f 33/33/33 36/36/36 35/35/35
f 39/39/39 38/38/38 37/37/37
f 37/37/37 40/40/40 39/39/39
f 43/43/43 42/42/42 41/41/41
f 43/43/43 44/44/44 42/42/42
f 47/47/47 46/46/46 45/45/45
f 46/46/46 47/47/47 48/48/48
