g Block_Side_01_Small
v -2.7502074 0.19500072 8.445614
v -2.7502065 4.2375245E-07 8.250612
v -2.9452069 0.19500183 8.250612
v 2.750205 4.2375245E-07 8.250612
v 2.7502038 0.19500072 8.445614
v 2.9452062 0.19500133 8.250612
v -2.9452047 0.19500366 -8.250619
v -2.750205 3.2383573E-06 -8.250619
v -2.750205 0.19500366 -8.445617
v 2.7502062 3.5435328E-06 -8.250617
v 2.9452074 0.19500446 -8.250617
v 2.7502062 0.19500366 -8.445616
v -2.7502093 8.541565 8.396866
v -2.8964574 8.541565 8.250615
v -2.7502065 8.640616 8.250614
v 2.8964562 8.541567 8.250615
v 2.7502038 8.541566 8.396866
v 2.750205 8.640617 8.250616
v -2.896455 8.541566 -8.250616
v -2.750205 8.541566 -8.396866
v -2.750205 8.640618 -8.250617
v 2.7502086 8.541566 -8.396865
v 2.8964586 8.541566 -8.250615
v 2.750207 8.640618 -8.250616
v -2.9452069 8.445618 8.250614
v -2.7502093 8.541565 8.396866
v -2.7502074 8.445618 8.445615
v -2.8964574 8.541565 8.250615
v 2.7502043 8.445618 8.445616
v 2.8964562 8.541567 8.250615
v 2.9452062 8.445618 8.250614
v 2.7502038 8.541566 8.396866
v -2.750205 8.445619 -8.445615
v -2.896455 8.541566 -8.250616
v -2.9452047 8.445619 -8.250617
v -2.750205 8.541566 -8.396866
v 2.9452088 8.44562 -8.250616
v 2.7502086 8.541566 -8.396865
v 2.7502062 8.445619 -8.445615
v 2.8964586 8.541566 -8.250615
v 2.750205 4.2375245E-07 8.250612
v -2.7502074 0.19500072 8.445614
v 2.7502038 0.19500072 8.445614
v -2.7502065 4.2375245E-07 8.250612
v -2.7502065 8.640616 8.250614
v 2.7502038 8.541566 8.396866
v -2.7502093 8.541565 8.396866
v 2.750205 8.640617 8.250616
v 2.7502086 8.541566 -8.396865
v -2.750205 8.640618 -8.250617
v -2.750205 8.541566 -8.396866
v 2.750207 8.640618 -8.250616
v -2.7502093 8.541565 8.396866
v 2.7502043 8.445618 8.445616
v -2.7502074 8.445618 8.445615
v 2.7502038 8.541566 8.396866
v 2.7502038 0.19500072 8.445614
v 2.9452062 5.6954126 8.250614
v 2.9452062 0.19500133 8.250612
v 2.7502038 5.6954126 8.445616
v -2.9452069 5.6954126 8.250614
v -2.7502074 0.19500072 8.445614
v -2.9452069 0.19500183 8.250612
v -2.7502074 5.695411 8.445615
v 2.7502062 3.5435328E-06 -8.250617
v 2.9452069 0.1950032 -2.7502081
v 2.9452074 0.19500446 -8.250617
v 2.7502055 2.3001555E-06 -2.7502081
v 2.8964586 8.541566 -8.250615
v 2.7502055 8.640618 -2.7502062
v 2.750207 8.640618 -8.250616
v 2.8964574 8.541567 -2.7502055
v -2.896455 8.541566 -8.250616
v -2.750206 8.640618 -2.750207
v -2.8964562 8.541566 -2.750206
v -2.750205 8.640618 -8.250617
v 2.9452088 8.44562 -8.250616
v 2.8964574 8.541567 -2.7502055
v 2.8964586 8.541566 -8.250615
v 2.9452074 8.44562 -2.750207
v 2.7502055 2.3001555E-06 -2.7502081
v 2.9452062 0.19500259 2.750202
v 2.9452069 0.1950032 -2.7502081
v 2.750205 1.361954E-06 2.750202
v 2.8964574 8.541567 -2.7502055
v 2.750205 8.640617 2.7502038
v 2.7502055 8.640618 -2.7502062
v 2.896457 8.541567 2.750205
v -2.750206 8.640618 -2.750207
v -2.896457 8.541566 2.7502038
v -2.8964562 8.541566 -2.750206
v -2.7502062 8.640617 2.7502031
v 2.9452074 8.44562 -2.750207
v 2.896457 8.541567 2.750205
v 2.8964574 8.541567 -2.7502055
v 2.9452062 8.445619 2.7502031
v 2.750205 1.361954E-06 2.750202
v 2.9452062 0.19500133 8.250612
v 2.9452062 0.19500259 2.750202
v 2.750205 4.2375245E-07 8.250612
v 2.896457 8.541567 2.750205
v 2.750205 8.640617 8.250616
v 2.750205 8.640617 2.7502038
v 2.8964562 8.541567 8.250615
v -2.7502062 8.640617 2.7502031
v -2.8964574 8.541565 8.250615
v -2.896457 8.541566 2.7502038
v -2.7502065 8.640616 8.250614
v 2.9452062 8.445619 2.7502031
v 2.8964562 8.541567 8.250615
v 2.896457 8.541567 2.750205
v 2.9452062 8.445618 8.250614
v -2.9452069 8.445618 8.250614
v -2.7502074 5.695411 8.445615
v -2.9452069 5.6954126 8.250614
v -2.7502074 8.445618 8.445615
v 2.7502038 5.6954126 8.445616
v 2.9452062 8.445618 8.250614
v 2.9452062 5.6954126 8.250614
v 2.7502043 8.445618 8.445616
v -2.9452047 8.445619 -8.250617
v -2.750205 5.695415 -8.445616
v -2.750205 8.445619 -8.445615
v -2.9452047 5.695415 -8.250618
v -2.9452047 5.695415 -8.250618
v -2.750205 0.19500366 -8.445617
v -2.750205 5.695415 -8.445616
v -2.9452047 0.19500366 -8.250619
v -2.750205 8.445619 -8.445615
v 2.7502086 8.541566 -8.396865
v -2.750205 8.541566 -8.396866
v 2.7502062 8.445619 -8.445615
v 2.7502062 8.445619 -8.445615
v -2.750205 5.695415 -8.445616
v 2.7502062 5.695415 -8.445615
v -2.750205 8.445619 -8.445615
v 2.7502062 0.19500366 -8.445616
v -2.750205 5.695415 -8.445616
v -2.750205 0.19500366 -8.445617
v 2.7502062 5.695415 -8.445615
v -2.896457 8.541566 2.7502038
v -2.945206 8.445619 -2.7502081
v -2.8964562 8.541566 -2.750206
v -2.9452062 8.445619 2.7502027
v -2.9452062 5.6954136 2.7502027
v -2.945206 8.445619 -2.7502081
v -2.9452062 8.445619 2.7502027
v -2.9452057 5.6954136 -2.7502081
v -2.9452062 0.19500244 2.7502015
v -2.9452057 5.6954136 -2.7502081
v -2.9452062 5.6954136 2.7502027
v -2.9452057 0.19500275 -2.7502086
v -2.8964574 8.541565 8.250615
v -2.9452062 8.445619 2.7502027
v -2.896457 8.541566 2.7502038
v -2.9452069 8.445618 8.250614
v -2.9452069 8.445618 8.250614
v -2.9452062 5.6954136 2.7502027
v -2.9452062 8.445619 2.7502027
v -2.9452069 5.6954126 8.250614
v -2.9452069 0.19500183 8.250612
v -2.9452062 5.6954136 2.7502027
v -2.9452069 5.6954126 8.250614
v -2.9452062 0.19500244 2.7502015
v -2.945206 8.445619 -2.7502081
v -2.896455 8.541566 -8.250616
v -2.8964562 8.541566 -2.750206
v -2.9452047 8.445619 -8.250617
v -2.9452047 8.445619 -8.250617
v -2.9452057 5.6954136 -2.7502081
v -2.9452047 5.695415 -8.250618
v -2.945206 8.445619 -2.7502081
v -2.9452047 0.19500366 -8.250619
v -2.9452057 5.6954136 -2.7502081
v -2.9452057 0.19500275 -2.7502086
v -2.9452047 5.695415 -8.250618
v 2.9452088 8.44562 -8.250616
v 2.7502062 5.695415 -8.445615
v 2.945208 5.695415 -8.250617
v 2.7502062 8.445619 -8.445615
v 2.945208 5.695415 -8.250617
v 2.7502062 0.19500366 -8.445616
v 2.9452074 0.19500446 -8.250617
v 2.7502062 5.695415 -8.445615
v 2.7502062 3.5435328E-06 -8.250617
v -2.750205 0.19500366 -8.445617
v -2.750205 3.2383573E-06 -8.250619
v 2.7502062 0.19500366 -8.445616
v -2.7502062 1.361954E-06 2.7502015
v -2.9452069 0.19500183 8.250612
v -2.7502065 4.2375245E-07 8.250612
v -2.9452062 0.19500244 2.7502015
v -2.7502055 2.3001555E-06 -2.7502086
v -2.9452062 0.19500244 2.7502015
v -2.7502062 1.361954E-06 2.7502015
v -2.9452057 0.19500275 -2.7502086
v -2.7502055 2.3001555E-06 -2.7502086
v -2.9452047 0.19500366 -8.250619
v -2.9452057 0.19500275 -2.7502086
v -2.750205 3.2383573E-06 -8.250619
v -2.750206 8.640618 -2.750207
v 2.750207 8.640618 -8.250616
v 2.7502055 8.640618 -2.7502062
v -2.750205 8.640618 -8.250617
v 2.7502038 5.6954126 8.445616
v -2.7502074 0.19500072 8.445614
v -2.7502074 5.695411 8.445615
v 2.7502038 0.19500072 8.445614
v 2.7502055 2.3001555E-06 -2.7502081
v -2.750205 3.2383573E-06 -8.250619
v -2.7502055 2.3001555E-06 -2.7502086
v 2.7502062 3.5435328E-06 -8.250617
v 2.9452074 5.695415 -2.750207
v 2.9452074 0.19500446 -8.250617
v 2.9452069 0.1950032 -2.7502081
v 2.945208 5.695415 -8.250617
v -2.7502055 2.3001555E-06 -2.7502086
v 2.750205 1.361954E-06 2.750202
v 2.7502055 2.3001555E-06 -2.7502081
v -2.7502062 1.361954E-06 2.7502015
v 2.9452069 0.1950032 -2.7502081
v 2.9452062 5.6954126 2.7502031
v 2.9452074 5.695415 -2.750207
v 2.9452062 0.19500259 2.750202
v 2.7502055 8.640618 -2.7502062
v -2.7502062 8.640617 2.7502031
v -2.750206 8.640618 -2.750207
v 2.750205 8.640617 2.7502038
v -2.7502062 1.361954E-06 2.7502015
v 2.750205 4.2375245E-07 8.250612
v 2.750205 1.361954E-06 2.750202
v -2.7502065 4.2375245E-07 8.250612
v 2.9452062 0.19500259 2.750202
v 2.9452062 5.6954126 8.250614
v 2.9452062 5.6954126 2.7502031
v 2.9452062 0.19500133 8.250612
v 2.750205 8.640617 2.7502038
v -2.7502065 8.640616 8.250614
v -2.7502062 8.640617 2.7502031
v 2.750205 8.640617 8.250616
v 2.7502043 8.445618 8.445616
v -2.7502074 5.695411 8.445615
v -2.7502074 8.445618 8.445615
v 2.7502038 5.6954126 8.445616
v 2.9452074 8.44562 -2.750207
v 2.945208 5.695415 -8.250617
v 2.9452074 5.695415 -2.750207
v 2.9452088 8.44562 -8.250616
v 2.9452074 5.695415 -2.750207
v 2.9452062 8.445619 2.7502031
v 2.9452074 8.44562 -2.750207
v 2.9452062 5.6954126 2.7502031
v 2.9452062 8.445619 2.7502031
v 2.9452062 5.6954126 8.250614
v 2.9452062 8.445618 8.250614
v 2.9452062 5.6954126 2.7502031
vt 0.4958496 0.5097656
vt 0.48242188 0.5019531
vt 0.48242188 0.5175781
vt 0.48242188 0.5019531
vt 0.48242188 0.5175781
vt 0.4958496 0.5097656
vt 0.4958496 0.5097656
vt 0.48242188 0.5019531
vt 0.48242188 0.5175781
vt 0.48242188 0.5019531
vt 0.48242188 0.5175781
vt 0.4958496 0.5097656
vt 0.9946289 0.47753906
vt 0.9711914 0.47753906
vt 0.98291016 0.48999023
vt 0.9946289 0.47753906
vt 0.9711914 0.47753906
vt 0.98291016 0.48999023
vt 0.9946289 0.47753906
vt 0.9711914 0.47753906
vt 0.98291016 0.48999023
vt 0.9946289 0.47753906
vt 0.9711914 0.47753906
vt 0.98291016 0.48999023
vt 0.9711914 0.4699707
vt 0.9946289 0.47753906
vt 0.9946289 0.4699707
vt 0.9711914 0.47753906
vt 0.9711914 0.4699707
vt 0.9946289 0.47753906
vt 0.9946289 0.4699707
vt 0.9711914 0.47753906
vt 0.9711914 0.4699707
vt 0.9946289 0.47753906
vt 0.9946289 0.4699707
vt 0.9711914 0.47753906
vt 0.9711914 0.4699707
vt 0.9946289 0.47753906
vt 0.9946289 0.4699707
vt 0.9711914 0.47753906
vt 0.48242188 0.5019531
vt 0.0020103455 0.5175781
vt 0.48242188 0.5175781
vt 0.0020103455 0.5019531
vt 0.50341797 0.48999023
vt 0.9711914 0.47753906
vt 0.50341797 0.47753906
vt 0.9711914 0.48999023
vt 0.50341797 0.47753906
vt 0.9711914 0.48999023
vt 0.9711914 0.47753906
vt 0.50341797 0.48999023
vt 0.50341797 0.47753906
vt 0.9711914 0.4699707
vt 0.50341797 0.4699707
vt 0.9711914 0.47753906
vt 0.48242188 0.5175781
vt 0.49804688 0.9980469
vt 0.49804688 0.5175781
vt 0.48242188 0.9980469
vt 0.48242188 0.9980469
vt 0.49804688 0.5175781
vt 0.48242188 0.5175781
vt 0.49804688 0.9980469
vt 0.48242188 0.5019531
vt 0.0020103455 0.5175781
vt 0.48242188 0.5175781
vt 0.0020103455 0.5019531
vt 0.9711914 0.47753906
vt 0.50341797 0.48999023
vt 0.9711914 0.48999023
vt 0.50341797 0.47753906
vt 0.50341797 0.47753906
vt 0.9711914 0.48999023
vt 0.9711914 0.47753906
vt 0.50341797 0.48999023
vt 0.9711914 0.4699707
vt 0.50341797 0.47753906
vt 0.9711914 0.47753906
vt 0.50341797 0.4699707
vt 0.48242188 0.5019531
vt 0.0020103455 0.5175781
vt 0.48242188 0.5175781
vt 0.0020103455 0.5019531
vt 0.9711914 0.47753906
vt 0.50341797 0.48999023
vt 0.9711914 0.48999023
vt 0.50341797 0.47753906
vt 0.50341797 0.48999023
vt 0.9711914 0.47753906
vt 0.50341797 0.47753906
vt 0.9711914 0.48999023
vt 0.9711914 0.4699707
vt 0.50341797 0.47753906
vt 0.9711914 0.47753906
vt 0.50341797 0.4699707
vt 0.48242188 0.5019531
vt 0.0020103455 0.5175781
vt 0.48242188 0.5175781
vt 0.0020103455 0.5019531
vt 0.9711914 0.47753906
vt 0.50341797 0.48999023
vt 0.9711914 0.48999023
vt 0.50341797 0.47753906
vt 0.50341797 0.48999023
vt 0.9711914 0.47753906
vt 0.50341797 0.47753906
vt 0.9711914 0.48999023
vt 0.9711914 0.4699707
vt 0.50341797 0.47753906
vt 0.9711914 0.47753906
vt 0.50341797 0.4699707
vt 0.48242188 0.7578125
vt 0.49804688 0.5175781
vt 0.48242188 0.5175781
vt 0.49804688 0.7578125
vt 0.48242188 0.5175781
vt 0.49804688 0.7578125
vt 0.49804688 0.5175781
vt 0.48242188 0.7578125
vt 0.49804688 0.7578125
vt 0.48242188 0.5175781
vt 0.48242188 0.7578125
vt 0.49804688 0.5175781
vt 0.49804688 0.9980469
vt 0.48242188 0.5175781
vt 0.48242188 0.9980469
vt 0.49804688 0.5175781
vt 0.9711914 0.4699707
vt 0.50341797 0.47753906
vt 0.9711914 0.47753906
vt 0.50341797 0.4699707
vt 0.0020103455 0.7578125
vt 0.48242188 0.5175781
vt 0.0020103455 0.5175781
vt 0.48242188 0.7578125
vt 0.0020103455 0.5175781
vt 0.48242188 0.9980469
vt 0.48242188 0.5175781
vt 0.0020103455 0.9980469
vt 0.9711914 0.47753906
vt 0.50341797 0.4699707
vt 0.50341797 0.47753906
vt 0.9711914 0.4699707
vt 0.48242188 0.5175781
vt 0.0020103455 0.7578125
vt 0.48242188 0.7578125
vt 0.0020103455 0.5175781
vt 0.48242188 0.5175781
vt 0.0020103455 0.9980469
vt 0.48242188 0.9980469
vt 0.0020103455 0.5175781
vt 0.9711914 0.47753906
vt 0.50341797 0.4699707
vt 0.50341797 0.47753906
vt 0.9711914 0.4699707
vt 0.48242188 0.7578125
vt 0.0020103455 0.5175781
vt 0.0020103455 0.7578125
vt 0.48242188 0.5175781
vt 0.48242188 0.5175781
vt 0.0020103455 0.9980469
vt 0.48242188 0.9980469
vt 0.0020103455 0.5175781
vt 0.9711914 0.4699707
vt 0.50341797 0.47753906
vt 0.9711914 0.47753906
vt 0.50341797 0.4699707
vt 0.0020103455 0.7578125
vt 0.48242188 0.5175781
vt 0.0020103455 0.5175781
vt 0.48242188 0.7578125
vt 0.0020103455 0.5175781
vt 0.48242188 0.9980469
vt 0.48242188 0.5175781
vt 0.0020103455 0.9980469
vt 0.48242188 0.7578125
vt 0.49804688 0.5175781
vt 0.48242188 0.5175781
vt 0.49804688 0.7578125
vt 0.48242188 0.9980469
vt 0.49804688 0.5175781
vt 0.48242188 0.5175781
vt 0.49804688 0.9980469
vt 0.0020103455 0.5019531
vt 0.48242188 0.5175781
vt 0.48242188 0.5019531
vt 0.0020103455 0.5175781
vt 0.0020103455 0.5019531
vt 0.48242188 0.5175781
vt 0.48242188 0.5019531
vt 0.0020103455 0.5175781
vt 0.0020103455 0.5019531
vt 0.48242188 0.5175781
vt 0.48242188 0.5019531
vt 0.0020103455 0.5175781
vt 0.48242188 0.5019531
vt 0.0020103455 0.5175781
vt 0.48242188 0.5175781
vt 0.0020103455 0.5019531
vt 0.0020065308 0.0020065308
vt 0.49804688 0.49804688
vt 0.49804688 0.0020065308
vt 0.0020065308 0.49804688
vt 0.48242188 0.9980469
vt 0.0020103455 0.5175781
vt 0.0020103455 0.9980469
vt 0.48242188 0.5175781
vt 0.5019531 0.5019531
vt 0.9980469 0.9980469
vt 0.9980469 0.5019531
vt 0.5019531 0.9980469
vt 0.0020103455 0.9980469
vt 0.48242188 0.5175781
vt 0.0020103455 0.5175781
vt 0.48242188 0.9980469
vt 0.9980469 0.9980469
vt 0.5019531 0.5019531
vt 0.5019531 0.9980469
vt 0.9980469 0.5019531
vt 0.48242188 0.5175781
vt 0.0020103455 0.9980469
vt 0.48242188 0.9980469
vt 0.0020103455 0.5175781
vt 0.49804688 0.49804688
vt 0.0020065308 0.0020065308
vt 0.0020065308 0.49804688
vt 0.49804688 0.0020065308
vt 0.9980469 0.9980469
vt 0.5019531 0.5019531
vt 0.5019531 0.9980469
vt 0.9980469 0.5019531
vt 0.48242188 0.5175781
vt 0.0020103455 0.9980469
vt 0.48242188 0.9980469
vt 0.0020103455 0.5175781
vt 0.49804688 0.49804688
vt 0.0020065308 0.0020065308
vt 0.0020065308 0.49804688
vt 0.49804688 0.0020065308
vt 0.48242188 0.7578125
vt 0.0020103455 0.5175781
vt 0.0020103455 0.7578125
vt 0.48242188 0.5175781
vt 0.0020103455 0.7578125
vt 0.48242188 0.5175781
vt 0.0020103455 0.5175781
vt 0.48242188 0.7578125
vt 0.48242188 0.5175781
vt 0.0020103455 0.7578125
vt 0.48242188 0.7578125
vt 0.0020103455 0.5175781
vt 0.48242188 0.7578125
vt 0.0020103455 0.5175781
vt 0.0020103455 0.7578125
vt 0.48242188 0.5175781
vn -0.57714844 -0.57714844 0.57714844
vn -0.57714844 -0.57714844 0.57714844
vn -0.57714844 -0.57714844 0.57714844
vn 0.57714844 -0.57714844 0.57714844
vn 0.57714844 -0.57714844 0.57714844
vn 0.57714844 -0.57714844 0.57714844
vn -0.57714844 -0.57714844 -0.57714844
vn -0.57714844 -0.57714844 -0.57714844
vn -0.57714844 -0.57714844 -0.57714844
vn 0.57714844 -0.57714844 -0.57714844
vn 0.57714844 -0.57714844 -0.57714844
vn 0.57714844 -0.57714844 -0.57714844
vn -0.48901367 0.72216797 0.48901367
vn -0.48901367 0.72216797 0.48901367
vn -0.48901367 0.72216797 0.48901367
vn 0.48901367 0.72216797 0.48901367
vn 0.48901367 0.72216797 0.48901367
vn 0.48901367 0.72216797 0.48901367
vn -0.48901367 0.72216797 -0.48901367
vn -0.48901367 0.72216797 -0.48901367
vn -0.48901367 0.72216797 -0.48901367
vn 0.48901367 0.72216797 -0.48901367
vn 0.48901367 0.72216797 -0.48901367
vn 0.48901367 0.72216797 -0.48901367
vn -0.66552734 0.33813477 0.66552734
vn -0.66552734 0.33813477 0.66552734
vn -0.66552734 0.33813477 0.66552734
vn -0.66552734 0.33813477 0.66552734
vn 0.66552734 0.33813477 0.66552734
vn 0.66552734 0.33813477 0.66552734
vn 0.66552734 0.33813477 0.66552734
vn 0.66552734 0.33813477 0.66552734
vn -0.66552734 0.33813477 -0.66552734
vn -0.66552734 0.33813477 -0.66552734
vn -0.66552734 0.33813477 -0.66552734
vn -0.66552734 0.33813477 -0.66552734
vn 0.66552734 0.33813477 -0.66552734
vn 0.66552734 0.33813477 -0.66552734
vn 0.66552734 0.33813477 -0.66552734
vn 0.66552734 0.33813477 -0.66552734
vn -0 -0.70703125 0.70703125
vn -0 -0.70703125 0.70703125
vn -0 -0.70703125 0.70703125
vn -0 -0.70703125 0.70703125
vn -1.7881393E-07 0.828125 0.5605469
vn -1.7881393E-07 0.828125 0.5605469
vn -1.7881393E-07 0.828125 0.5605469
vn -2.9802322E-07 0.828125 0.5605469
vn 1.7881393E-07 0.828125 -0.5605469
vn 1.7881393E-07 0.828125 -0.5605469
vn 1.7881393E-07 0.828125 -0.5605469
vn -0 0.828125 -0.5605469
vn -1.7881393E-07 0.45288086 0.89160156
vn -1.7881393E-07 0.45288086 0.89160156
vn -1.7881393E-07 0.45288086 0.89160156
vn -1.1920929E-07 0.45288086 0.89160156
vn 0.70703125 -2.3841858E-07 0.70703125
vn 0.70703125 -2.3841858E-07 0.70703125
vn 0.70703125 -2.3841858E-07 0.70703125
vn 0.70703125 -2.3841858E-07 0.70703125
vn -0.70703125 -1.7881393E-07 0.70703125
vn -0.70703125 -1.7881393E-07 0.70703125
vn -0.70703125 -1.7881393E-07 0.70703125
vn -0.70703125 0 0.70703125
vn 0.70703125 -0.70703125 0
vn 0.70703125 -0.70703125 0
vn 0.70703125 -0.70703125 0
vn 0.70703125 -0.70703125 0
vn 0.5605469 0.828125 1.1920929E-07
vn 0.5605469 0.828125 1.1920929E-07
vn 0.5605469 0.828125 1.1920929E-07
vn 0.5605469 0.828125 0
vn -0.5605469 0.828125 -1.1920929E-07
vn -0.5605469 0.828125 -1.1920929E-07
vn -0.5605469 0.828125 -1.1920929E-07
vn -0.5605469 0.828125 0
vn 0.89160156 0.45288086 1.1920929E-07
vn 0.89160156 0.45288086 1.1920929E-07
vn 0.89160156 0.45288086 1.1920929E-07
vn 0.89160156 0.45288086 1.7881393E-07
vn 0.70703125 -0.70703125 0
vn 0.70703125 -0.70703125 0
vn 0.70703125 -0.70703125 0
vn 0.70703125 -0.70703125 0
vn 0.5605469 0.828125 2.3841858E-07
vn 0.5605469 0.828125 2.3841858E-07
vn 0.5605469 0.828125 2.3841858E-07
vn 0.5605469 0.828125 0
vn -0.5605469 0.828125 0
vn -0.5605469 0.828125 0
vn -0.5605469 0.828125 0
vn -0.5605469 0.828125 1.7881393E-07
vn 0.89160156 0.45288086 0
vn 0.89160156 0.45288086 0
vn 0.89160156 0.45288086 0
vn 0.89160156 0.45288086 2.9802322E-07
vn 0.70703125 -0.70703125 -1.7881393E-07
vn 0.70703125 -0.70703125 -1.7881393E-07
vn 0.70703125 -0.70703125 -1.7881393E-07
vn 0.70703125 -0.70703125 -1.1920929E-07
vn 0.5605469 0.828125 0
vn 0.5605469 0.828125 0
vn 0.5605469 0.828125 0
vn 0.5605469 0.828125 0
vn -0.5605469 0.828125 1.1920929E-07
vn -0.5605469 0.828125 1.1920929E-07
vn -0.5605469 0.828125 1.1920929E-07
vn -0.5605469 0.828125 1.7881393E-07
vn 0.89160156 0.45288086 0
vn 0.89160156 0.45288086 0
vn 0.89160156 0.45288086 0
vn 0.89160156 0.45288086 0
vn -0.70703125 0 0.70703125
vn -0.70703125 0 0.70703125
vn -0.70703125 0 0.70703125
vn -0.70703125 0 0.70703125
vn 0.70703125 0 0.70703125
vn 0.70703125 0 0.70703125
vn 0.70703125 0 0.70703125
vn 0.70703125 -1.7881393E-07 0.70703125
vn -0.70703125 1.7881393E-07 -0.70703125
vn -0.70703125 1.7881393E-07 -0.70703125
vn -0.70703125 1.7881393E-07 -0.70703125
vn -0.70703125 1.7881393E-07 -0.70703125
vn -0.70703125 0 -0.70703125
vn -0.70703125 0 -0.70703125
vn -0.70703125 0 -0.70703125
vn -0.70703125 0 -0.70703125
vn 2.9802322E-07 0.45288086 -0.89160156
vn 2.9802322E-07 0.45288086 -0.89160156
vn 2.9802322E-07 0.45288086 -0.89160156
vn -0 0.45288086 -0.89160156
vn 1.1920929E-07 2.3841858E-07 -1
vn 1.1920929E-07 2.3841858E-07 -1
vn 1.1920929E-07 2.3841858E-07 -1
vn 1.1920929E-07 2.3841858E-07 -1
vn 1.1920929E-07 1.1920929E-07 -1
vn 1.1920929E-07 1.1920929E-07 -1
vn 1.1920929E-07 1.1920929E-07 -1
vn 1.1920929E-07 1.1920929E-07 -1
vn -0.89160156 0.45288086 0
vn -0.89160156 0.45288086 0
vn -0.89160156 0.45288086 0
vn -0.89160156 0.45288086 0
vn -1 0 0
vn -1 0 0
vn -1 0 0
vn -1 -1.1920929E-07 -1.1920929E-07
vn -1 0 -1.1920929E-07
vn -1 0 -1.1920929E-07
vn -1 0 -1.1920929E-07
vn -1 0 -1.1920929E-07
vn -0.89160156 0.45288086 0
vn -0.89160156 0.45288086 0
vn -0.89160156 0.45288086 0
vn -0.89160156 0.45288086 0
vn -1 0 -1.1920929E-07
vn -1 0 -1.1920929E-07
vn -1 0 -1.1920929E-07
vn -1 0 -1.1920929E-07
vn -1 0 -1.1920929E-07
vn -1 0 -1.1920929E-07
vn -1 0 -1.1920929E-07
vn -1 0 -1.1920929E-07
vn -0.89160156 0.45288086 -1.7881393E-07
vn -0.89160156 0.45288086 -1.7881393E-07
vn -0.89160156 0.45288086 -1.7881393E-07
vn -0.89160156 0.45288086 -1.1920929E-07
vn -1 0 -1.7881393E-07
vn -1 0 -1.7881393E-07
vn -1 0 -1.7881393E-07
vn -1 -1.1920929E-07 -2.3841858E-07
vn -1 0 -1.7881393E-07
vn -1 0 -1.7881393E-07
vn -1 0 -1.7881393E-07
vn -1 0 -1.7881393E-07
vn 0.70703125 0 -0.70703125
vn 0.70703125 0 -0.70703125
vn 0.70703125 0 -0.70703125
vn 0.70703125 1.7881393E-07 -0.70703125
vn 0.70703125 0 -0.70703125
vn 0.70703125 0 -0.70703125
vn 0.70703125 0 -0.70703125
vn 0.70703125 0 -0.70703125
vn 1.7881393E-07 -0.70703125 -0.70703125
vn 1.7881393E-07 -0.70703125 -0.70703125
vn 1.7881393E-07 -0.70703125 -0.70703125
vn -0 -0.70703125 -0.70703125
vn -0.70703125 -0.70703125 -1.7881393E-07
vn -0.70703125 -0.70703125 -1.7881393E-07
vn -0.70703125 -0.70703125 -1.7881393E-07
vn -0.70703125 -0.70703125 -1.7881393E-07
vn -0.70703125 -0.70703125 -1.7881393E-07
vn -0.70703125 -0.70703125 -1.7881393E-07
vn -0.70703125 -0.70703125 -1.7881393E-07
vn -0.70703125 -0.70703125 -1.1920929E-07
vn -0.70703125 -0.70703125 -2.3841858E-07
vn -0.70703125 -0.70703125 -2.3841858E-07
vn -0.70703125 -0.70703125 -2.3841858E-07
vn -0.70703125 -0.70703125 -1.7881393E-07
vn -0 1 0
vn -0 1 0
vn -0 1 0
vn -0 1 0
vn -2.3841858E-07 -1.1920929E-07 1
vn -2.3841858E-07 -1.1920929E-07 1
vn -2.3841858E-07 -1.1920929E-07 1
vn -0 -3.5762787E-07 1
vn -0 -1 -1.7881393E-07
vn -0 -1 -1.7881393E-07
vn -0 -1 -1.7881393E-07
vn -0 -1 -2.3841858E-07
vn 1 -1.1920929E-07 1.1920929E-07
vn 1 -1.1920929E-07 1.1920929E-07
vn 1 -1.1920929E-07 1.1920929E-07
vn 1 -1.1920929E-07 1.1920929E-07
vn -0 -1 -1.7881393E-07
vn -0 -1 -1.7881393E-07
vn -0 -1 -1.7881393E-07
vn -0 -1 -1.7881393E-07
vn 1 -1.1920929E-07 2.3841858E-07
vn 1 -1.1920929E-07 2.3841858E-07
vn 1 -1.1920929E-07 2.3841858E-07
vn 1 0 1.1920929E-07
vn -0 1 2.3841858E-07
vn -0 1 2.3841858E-07
vn -0 1 2.3841858E-07
vn -0 1 2.3841858E-07
vn -0 -1 -1.7881393E-07
vn -0 -1 -1.7881393E-07
vn -0 -1 -1.7881393E-07
vn -0 -1 -1.7881393E-07
vn 1 0 0
vn 1 0 0
vn 1 0 0
vn 1 0 0
vn -0 1 2.3841858E-07
vn -0 1 2.3841858E-07
vn -0 1 2.3841858E-07
vn -2.3841858E-07 1 0
vn -2.3841858E-07 0 1
vn -2.3841858E-07 0 1
vn -2.3841858E-07 0 1
vn -2.3841858E-07 0 1
vn 1 0 1.1920929E-07
vn 1 0 1.1920929E-07
vn 1 0 1.1920929E-07
vn 1 -2.3841858E-07 2.3841858E-07
vn 1 0 2.3841858E-07
vn 1 0 2.3841858E-07
vn 1 0 2.3841858E-07
vn 1 0 2.3841858E-07
vn 1 0 0
vn 1 0 0
vn 1 0 0
vn 1 0 0
g Block_Side_01_Small_0
f 3/3/3 2/2/2 1/1/1
f 6/6/6 5/5/5 4/4/4
f 9/9/9 8/8/8 7/7/7
f 12/12/12 11/11/11 10/10/10
f 15/15/15 14/14/14 13/13/13
f 18/18/18 17/17/17 16/16/16
f 21/21/21 20/20/20 19/19/19
f 24/24/24 23/23/23 22/22/22
f 27/27/27 26/26/26 25/25/25
f 28/28/28 25/25/25 26/26/26
f 31/31/31 30/30/30 29/29/29
f 32/32/32 29/29/29 30/30/30
f 35/35/35 34/34/34 33/33/33
f 36/36/36 33/33/33 34/34/34
f 39/39/39 38/38/38 37/37/37
f 40/40/40 37/37/37 38/38/38
f 43/43/43 42/42/42 41/41/41
f 44/44/44 41/41/41 42/42/42
f 47/47/47 46/46/46 45/45/45
f 48/48/48 45/45/45 46/46/46
f 51/51/51 50/50/50 49/49/49
f 52/52/52 49/49/49 50/50/50
f 55/55/55 54/54/54 53/53/53
f 56/56/56 53/53/53 54/54/54
f 59/59/59 58/58/58 57/57/57
f 60/60/60 57/57/57 58/58/58
f 63/63/63 62/62/62 61/61/61
f 64/64/64 61/61/61 62/62/62
f 67/67/67 66/66/66 65/65/65
f 68/68/68 65/65/65 66/66/66
f 71/71/71 70/70/70 69/69/69
f 72/72/72 69/69/69 70/70/70
f 75/75/75 74/74/74 73/73/73
f 76/76/76 73/73/73 74/74/74
f 79/79/79 78/78/78 77/77/77
f 80/80/80 77/77/77 78/78/78
f 83/83/83 82/82/82 81/81/81
f 84/84/84 81/81/81 82/82/82
f 87/87/87 86/86/86 85/85/85
f 88/88/88 85/85/85 86/86/86
f 91/91/91 90/90/90 89/89/89
f 92/92/92 89/89/89 90/90/90
f 95/95/95 94/94/94 93/93/93
f 96/96/96 93/93/93 94/94/94
f 99/99/99 98/98/98 97/97/97
f 100/100/100 97/97/97 98/98/98
f 103/103/103 102/102/102 101/101/101
f 104/104/104 101/101/101 102/102/102
f 107/107/107 106/106/106 105/105/105
f 108/108/108 105/105/105 106/106/106
f 111/111/111 110/110/110 109/109/109
f 112/112/112 109/109/109 110/110/110
f 115/115/115 114/114/114 113/113/113
f 116/116/116 113/113/113 114/114/114
f 119/119/119 118/118/118 117/117/117
f 120/120/120 117/117/117 118/118/118
f 123/123/123 122/122/122 121/121/121
f 124/124/124 121/121/121 122/122/122
f 127/127/127 126/126/126 125/125/125
f 128/128/128 125/125/125 126/126/126
f 131/131/131 130/130/130 129/129/129
f 132/132/132 129/129/129 130/130/130
f 135/135/135 134/134/134 133/133/133
f 136/136/136 133/133/133 134/134/134
f 139/139/139 138/138/138 137/137/137
f 140/140/140 137/137/137 138/138/138
f 143/143/143 142/142/142 141/141/141
f 144/144/144 141/141/141 142/142/142
f 147/147/147 146/146/146 145/145/145
f 148/148/148 145/145/145 146/146/146
f 151/151/151 150/150/150 149/149/149
f 152/152/152 149/149/149 150/150/150
f 155/155/155 154/154/154 153/153/153
f 156/156/156 153/153/153 154/154/154
f 159/159/159 158/158/158 157/157/157
f 160/160/160 157/157/157 158/158/158
f 163/163/163 162/162/162 161/161/161
f 164/164/164 161/161/161 162/162/162
f 167/167/167 166/166/166 165/165/165
f 168/168/168 165/165/165 166/166/166
f 171/171/171 170/170/170 169/169/169
f 172/172/172 169/169/169 170/170/170
f 175/175/175 174/174/174 173/173/173
f 176/176/176 173/173/173 174/174/174
f 179/179/179 178/178/178 177/177/177
f 180/180/180 177/177/177 178/178/178
f 183/183/183 182/182/182 181/181/181
f 184/184/184 181/181/181 182/182/182
f 187/187/187 186/186/186 185/185/185
f 188/188/188 185/185/185 186/186/186
f 191/191/191 190/190/190 189/189/189
f 192/192/192 189/189/189 190/190/190
f 195/195/195 194/194/194 193/193/193
f 196/196/196 193/193/193 194/194/194
f 199/199/199 198/198/198 197/197/197
f 200/200/200 197/197/197 198/198/198
f 203/203/203 202/202/202 201/201/201
f 204/204/204 201/201/201 202/202/202
f 207/207/207 206/206/206 205/205/205
f 208/208/208 205/205/205 206/206/206
f 211/211/211 210/210/210 209/209/209
f 212/212/212 209/209/209 210/210/210
f 215/215/215 214/214/214 213/213/213
f 216/216/216 213/213/213 214/214/214
f 219/219/219 218/218/218 217/217/217
f 220/220/220 217/217/217 218/218/218
f 223/223/223 222/222/222 221/221/221
f 224/224/224 221/221/221 222/222/222
f 227/227/227 226/226/226 225/225/225
f 228/228/228 225/225/225 226/226/226
f 231/231/231 230/230/230 229/229/229
f 232/232/232 229/229/229 230/230/230
f 235/235/235 234/234/234 233/233/233
f 236/236/236 233/233/233 234/234/234
f 239/239/239 238/238/238 237/237/237
f 240/240/240 237/237/237 238/238/238
f 243/243/243 242/242/242 241/241/241
f 244/244/244 241/241/241 242/242/242
f 247/247/247 246/246/246 245/245/245
f 248/248/248 245/245/245 246/246/246
f 251/251/251 250/250/250 249/249/249
f 252/252/252 249/249/249 250/250/250
f 255/255/255 254/254/254 253/253/253
f 256/256/256 253/253/253 254/254/254
