g Rocks_Medium_002
v -1.2656078 -1.207165 -0.49071288
v -1.2983105 -1.207165 -0.49071288
v -1.2983105 -1.2398689 -0.49071288
v 1.2852856 -1.1744614 -0.49071288
v 1.3179932 -1.2398689 -0.49071288
v 1.3179932 -1.1744614 -0.49071288
v -1.2329028 -1.1744614 -0.49071288
v -1.2656078 -1.1744614 -0.49071288
v 1.2525854 -1.109054 -0.49071288
v 1.2852856 -1.109054 -0.49071288
v -1.2002002 -1.109054 -0.49071288
v -1.2329028 -1.109054 -0.49071288
v 1.219878 -1.0763502 -0.49071288
v 1.2525854 -1.0763502 -0.49071288
v -1.1674975 -1.0763502 -0.49071288
v -1.2002002 -1.0763502 -0.49071288
v 1.1871728 -1.0436461 -0.49071288
v 1.219878 -1.0436461 -0.49071288
v -1.1347924 -1.0436461 -0.49071288
v -1.1674975 -1.0436461 -0.49071288
v 1.1544726 -0.6184973 -0.49071288
v 1.1871728 -0.6184973 -0.49071288
v 1.1544726 -0.58579344 -0.49071288
v 0.9582495 -0.58579344 -0.49071288
v -1.1020874 -0.38957122 -0.49071288
v -1.0693847 -0.35686737 -0.49071288
v -1.1347924 -0.38957122 -0.49071288
v -1.1020874 -0.35686737 -0.49071288
v -0.9058667 -0.3241635 -0.49071288
v -1.0693847 -0.3241635 -0.49071288
v -0.840459 -0.29146025 -0.49071288
v -0.9058667 -0.29146025 -0.49071288
v -0.80775386 -0.12794128 -0.49071288
v -0.840459 -0.12794128 -0.49071288
v -0.7423486 -0.09523743 -0.49071288
v -0.80775386 -0.09523743 -0.49071288
v -0.7423486 -0.06253326 -0.49071288
v -0.41531006 -0.06253326 -0.49071288
v 0.9582495 0.13368866 -0.49071288
v 0.92554444 0.13368866 -0.49071288
v 0.92554444 0.16639252 -0.49071288
v 0.86013913 0.16639252 -0.49071288
v 0.69662106 0.19909637 -0.49071288
v 0.86013913 0.19909637 -0.49071288
v -0.382605 0.65694886 -0.49071288
v -0.41531006 0.65694886 -0.49071288
v -0.3171997 0.6896524 -0.49071288
v -0.382605 0.6896524 -0.49071288
v 0.69662106 0.82046753 -0.49071288
v -0.15367919 0.72235656 -0.49071288
v -0.3171997 0.72235656 -0.49071288
v 0.663916 0.82046753 -0.49071288
v 0.5658057 0.85317135 -0.49071288
v 0.663916 0.85317135 -0.49071288
v -0.12097656 1.1148013 -0.49071288
v -0.15367919 1.1148013 -0.49071288
v 0.5658057 1.2129114 -0.49071288
v -0.088271484 1.1802078 -0.49071288
v -0.12097656 1.1802078 -0.49071288
v 0.53310055 1.2129114 -0.49071288
v -0.055568848 1.2129114 -0.49071288
v -0.088271484 1.2129114 -0.49071288
v 0.53310055 1.2456149 -0.49071288
v 0.43499023 1.2456149 -0.49071288
v 0.042543944 1.2456149 -0.49071288
v -0.055568848 1.2456149 -0.49071288
v 0.042543944 1.2783188 -0.49071288
v 0.43499023 1.2783188 -0.49071288
v -1.2983105 -1.2398689 -0.49071288
v -1.2983105 -1.207165 -0.49071288
v -1.2983105 -1.2398692 0.4904016
v -1.2983105 -1.207166 0.4904016
v -1.2329028 -1.1744614 -0.49071288
v -1.2329028 -1.109054 -0.49071288
v -1.2329028 -1.1744618 0.4904016
v -1.2329028 -1.109054 0.4904016
v -1.1674975 -1.0763502 -0.49071288
v -1.1674975 -1.0436461 -0.49071288
v -1.1674926 -1.0763502 0.4904016
v -1.1674926 -1.0436466 0.4904016
v -1.0693847 -0.35686737 -0.49071288
v -1.0693847 -0.3241635 -0.49071288
v -1.0693847 -0.35686797 0.4904016
v -1.0693847 -0.32416412 0.4904016
v -0.9058667 -0.3241635 -0.49071288
v -0.9058667 -0.29146025 -0.49071288
v -0.9058667 -0.32416412 0.4904016
v -0.9058667 -0.29146057 0.4904016
v -0.840459 -0.29146025 -0.49071288
v -0.840459 -0.12794128 -0.49071288
v -0.840459 -0.29146057 0.4904016
v -0.840459 -0.1279416 0.4904016
v -0.80775386 -0.12794128 -0.49071288
v -0.80775386 -0.09523743 -0.49071288
v -0.80775386 -0.1279416 0.4904016
v -0.80775386 -0.09523834 0.4904016
v -0.15367919 0.72235656 -0.49071288
v -0.15367919 1.1148013 -0.49071288
v -0.15367919 0.72235566 0.4904016
v -0.15367919 1.114801 0.4904016
v -0.12097656 1.1148013 -0.49071288
v -0.12097656 1.1802078 -0.49071288
v -0.12097656 1.114801 0.4904016
v -0.12097656 1.1802075 0.4904016
v -0.088271484 1.1802078 -0.49071288
v -0.088271484 1.2129114 -0.49071288
v -0.08826904 1.1802075 0.4904016
v -0.08826904 1.212911 0.4904016
v -0.055568848 1.2129114 -0.49071288
v -0.055568848 1.2456149 -0.49071288
v -0.055568848 1.212911 0.4904016
v -0.055568848 1.2456146 0.4904016
v 0.042543944 1.2456149 -0.49071288
v 0.042543944 1.2783188 -0.49071288
v 0.042543944 1.2456146 0.4904016
v 0.042543944 1.2783184 0.4904016
v 0.43499023 1.2783188 -0.49071288
v 0.43499023 1.2456149 -0.49071288
v 0.43499023 1.2783184 0.4904016
v 0.43499023 1.2456146 0.4904016
v 0.5658057 1.2129114 -0.49071288
v 0.5658057 0.85317135 -0.49071288
v 0.5658057 1.212911 0.4904016
v 0.5658057 0.85317105 0.4904016
v 0.663916 0.85317135 -0.49071288
v 0.663916 0.82046753 -0.49071288
v 0.663916 0.85317105 0.4904016
v 0.663916 0.82046723 0.4904016
v 0.69662106 0.82046753 -0.49071288
v 0.69662106 0.19909637 -0.49071288
v 0.69662106 0.82046723 0.4904016
v 0.69662106 0.19909607 0.4904016
v 0.86013913 0.19909637 -0.49071288
v 0.86013913 0.16639252 -0.49071288
v 0.86013913 0.19909607 0.4904016
v 0.86013913 0.1663916 0.4904016
v 1.219878 -1.0436461 -0.49071288
v 1.219878 -1.0763502 -0.49071288
v 1.219878 -1.0436466 0.49039915
v 1.219878 -1.0763502 0.49039915
v 1.2852856 -1.109054 -0.49071288
v 1.2852856 -1.1744614 -0.49071288
v 1.2852856 -1.109054 0.49039915
v 1.2852856 -1.1744618 0.49039915
v -1.2656078 -1.207165 -0.49071288
v -1.2656078 -1.1744614 -0.49071288
v -1.2656078 -1.207166 0.4904016
v -1.2656078 -1.1744618 0.4904016
v -1.2329028 -1.109054 -0.49071288
v -1.2002002 -1.109054 -0.49071288
v -1.2329028 -1.109054 0.4904016
v -1.2002002 -1.109054 0.4904016
v -1.2002002 -1.0763502 -0.49071288
v -1.1674975 -1.0763502 -0.49071288
v -1.2002002 -1.0763502 0.4904016
v -1.1674926 -1.0763502 0.4904016
v -1.2002002 -1.109054 -0.49071288
v -1.2002002 -1.0763502 -0.49071288
v -1.2002002 -1.109054 0.4904016
v -1.2002002 -1.0763502 0.4904016
v -1.1347924 -1.0436461 -0.49071288
v -1.1347924 -0.38957122 -0.49071288
v -1.1347924 -1.0436466 0.4904016
v -1.1347924 -0.38957214 0.4904016
v -1.1347924 -0.38957122 -0.49071288
v -1.1020874 -0.38957122 -0.49071288
v -1.1347924 -0.38957214 0.4904016
v -1.1020874 -0.38957214 0.4904016
v -1.1020874 -0.38957122 -0.49071288
v -1.1020874 -0.35686737 -0.49071288
v -1.1020874 -0.38957214 0.4904016
v -1.1020874 -0.35686797 0.4904016
v -0.840459 -0.12794128 -0.49071288
v -0.80775386 -0.12794128 -0.49071288
v -0.840459 -0.1279416 0.4904016
v -0.80775386 -0.1279416 0.4904016
v -0.80775386 -0.09523743 -0.49071288
v -0.7423486 -0.09523743 -0.49071288
v -0.80775386 -0.09523834 0.4904016
v -0.7423486 -0.09523834 0.4904016
v -0.7423486 -0.09523743 -0.49071288
v -0.7423486 -0.06253326 -0.49071288
v -0.7423486 -0.09523834 0.4904016
v -0.7423486 -0.062534176 0.4904016
v -0.41531006 -0.06253326 -0.49071288
v -0.41531006 0.65694886 -0.49071288
v -0.4153076 -0.062534176 0.4904016
v -0.4153076 0.6569485 0.4904016
v -0.382605 0.6896524 -0.49071288
v -0.3171997 0.6896524 -0.49071288
v -0.382605 0.6896521 0.4904016
v -0.3171997 0.6896521 0.4904016
v -0.382605 0.65694886 -0.49071288
v -0.382605 0.6896524 -0.49071288
v -0.382605 0.6569485 0.4904016
v -0.382605 0.6896521 0.4904016
v -0.3171997 0.6896524 -0.49071288
v -0.3171997 0.72235656 -0.49071288
v -0.3171997 0.6896521 0.4904016
v -0.3171997 0.72235566 0.4904016
v -0.15367919 1.1148013 -0.49071288
v -0.12097656 1.1148013 -0.49071288
v -0.15367919 1.114801 0.4904016
v -0.12097656 1.114801 0.4904016
v -0.12097656 1.1802078 -0.49071288
v -0.088271484 1.1802078 -0.49071288
v -0.12097656 1.1802075 0.4904016
v -0.08826904 1.1802075 0.4904016
v -0.088271484 1.2129114 -0.49071288
v -0.055568848 1.2129114 -0.49071288
v -0.08826904 1.212911 0.4904016
v -0.055568848 1.212911 0.4904016
v -0.055568848 1.2456149 -0.49071288
v 0.042543944 1.2456149 -0.49071288
v -0.055568848 1.2456146 0.4904016
v 0.042543944 1.2456146 0.4904016
v 0.43499023 1.2456149 -0.49071288
v 0.53310055 1.2456149 -0.49071288
v 0.43499023 1.2456146 0.4904016
v 0.53310055 1.2456146 0.4904016
v 0.53310055 1.2456149 -0.49071288
v 0.53310055 1.2129114 -0.49071288
v 0.53310055 1.2456146 0.4904016
v 0.53310055 1.212911 0.4904016
v 0.53310055 1.2129114 -0.49071288
v 0.5658057 1.2129114 -0.49071288
v 0.53310055 1.212911 0.4904016
v 0.5658057 1.212911 0.4904016
v 0.5658057 0.85317135 -0.49071288
v 0.663916 0.85317135 -0.49071288
v 0.5658057 0.85317105 0.4904016
v 0.663916 0.85317105 0.4904016
v 0.663916 0.82046753 -0.49071288
v 0.69662106 0.82046753 -0.49071288
v 0.663916 0.82046723 0.4904016
v 0.69662106 0.82046723 0.4904016
v 0.69662106 0.19909637 -0.49071288
v 0.86013913 0.19909637 -0.49071288
v 0.69662106 0.19909607 0.4904016
v 0.86013913 0.19909607 0.4904016
v 0.86013913 0.16639252 -0.49071288
v 0.92554444 0.16639252 -0.49071288
v 0.86013913 0.1663916 0.4904016
v 0.92554444 0.1663916 0.49039915
v 0.92554444 0.16639252 -0.49071288
v 0.92554444 0.13368866 -0.49071288
v 0.92554444 0.1663916 0.49039915
v 0.92554444 0.13368835 0.49039915
v 0.9582495 0.13368866 -0.49071288
v 0.9582495 -0.58579344 -0.49071288
v 0.9582495 0.13368835 0.49039915
v 0.9582495 -0.58579403 0.49039915
v 0.92554444 0.13368866 -0.49071288
v 0.9582495 0.13368866 -0.49071288
v 0.92554444 0.13368835 0.49039915
v 0.9582495 0.13368835 0.49039915
v 1.1544726 -0.58579344 -0.49071288
v 1.1544726 -0.6184973 -0.49071288
v 1.1544751 -0.58579403 0.49039915
v 1.1544751 -0.6184976 0.49039915
v 1.1871728 -0.6184973 -0.49071288
v 1.1871728 -1.0436461 -0.49071288
v 1.1871728 -0.6184976 0.49039915
v 1.1871728 -1.0436466 0.49039915
v 1.219878 -1.0763502 -0.49071288
v 1.2525854 -1.0763502 -0.49071288
v 1.219878 -1.0763502 0.49039915
v 1.2525854 -1.0763502 0.49039915
v 1.2525854 -1.0763502 -0.49071288
v 1.2525854 -1.109054 -0.49071288
v 1.2525854 -1.0763502 0.49039915
v 1.2525854 -1.109054 0.49039915
v 1.2852856 -1.1744614 -0.49071288
v 1.3179932 -1.1744614 -0.49071288
v 1.2852856 -1.1744618 0.49039915
v 1.3179932 -1.1744618 0.49039915
v 1.3179932 -1.1744614 -0.49071288
v 1.3179932 -1.2398689 -0.49071288
v 1.3179932 -1.1744618 0.49039915
v 1.3179932 -1.2398692 0.49039915
v -1.2983105 -1.207165 -0.49071288
v -1.2656078 -1.207165 -0.49071288
v -1.2983105 -1.207166 0.4904016
v -1.2656078 -1.207166 0.4904016
v -1.2656078 -1.1744614 -0.49071288
v -1.2329028 -1.1744614 -0.49071288
v -1.2656078 -1.1744618 0.4904016
v -1.2329028 -1.1744618 0.4904016
v 1.2525854 -1.109054 -0.49071288
v 1.2852856 -1.109054 -0.49071288
v 1.2525854 -1.109054 0.49039915
v 1.2852856 -1.109054 0.49039915
v -1.1674975 -1.0436461 -0.49071288
v -1.1347924 -1.0436461 -0.49071288
v -1.1674926 -1.0436466 0.4904016
v -1.1347924 -1.0436466 0.4904016
v 1.1871728 -1.0436461 -0.49071288
v 1.219878 -1.0436461 -0.49071288
v 1.1871728 -1.0436466 0.49039915
v 1.219878 -1.0436466 0.49039915
v 1.1544726 -0.6184973 -0.49071288
v 1.1871728 -0.6184973 -0.49071288
v 1.1544751 -0.6184976 0.49039915
v 1.1871728 -0.6184976 0.49039915
v 0.9582495 -0.58579344 -0.49071288
v 1.1544726 -0.58579344 -0.49071288
v 0.9582495 -0.58579403 0.49039915
v 1.1544751 -0.58579403 0.49039915
v -1.1020874 -0.35686737 -0.49071288
v -1.0693847 -0.35686737 -0.49071288
v -1.1020874 -0.35686797 0.4904016
v -1.0693847 -0.35686797 0.4904016
v -1.0693847 -0.3241635 -0.49071288
v -0.9058667 -0.3241635 -0.49071288
v -1.0693847 -0.32416412 0.4904016
v -0.9058667 -0.32416412 0.4904016
v -0.9058667 -0.29146025 -0.49071288
v -0.840459 -0.29146025 -0.49071288
v -0.9058667 -0.29146057 0.4904016
v -0.840459 -0.29146057 0.4904016
v -0.7423486 -0.06253326 -0.49071288
v -0.41531006 -0.06253326 -0.49071288
v -0.7423486 -0.062534176 0.4904016
v -0.4153076 -0.062534176 0.4904016
v -0.41531006 0.65694886 -0.49071288
v -0.382605 0.65694886 -0.49071288
v -0.4153076 0.6569485 0.4904016
v -0.382605 0.6569485 0.4904016
v -0.3171997 0.72235656 -0.49071288
v -0.15367919 0.72235656 -0.49071288
v -0.3171997 0.72235566 0.4904016
v -0.15367919 0.72235566 0.4904016
v 0.042543944 1.2783188 -0.49071288
v 0.43499023 1.2783188 -0.49071288
v 0.042543944 1.2783184 0.4904016
v 0.43499023 1.2783184 0.4904016
v -1.2656078 -1.207166 0.4904016
v -1.2983105 -1.2398692 0.4904016
v -1.2983105 -1.207166 0.4904016
v 1.2852856 -1.1744618 0.49039915
v 1.3179932 -1.2398692 0.49039915
v 1.3179932 -1.1744618 0.49039915
v -1.2329028 -1.1744618 0.4904016
v -1.2656078 -1.1744618 0.4904016
v 1.2525854 -1.109054 0.49039915
v 1.2852856 -1.109054 0.49039915
v -1.2002002 -1.109054 0.4904016
v -1.2329028 -1.109054 0.4904016
v 1.219878 -1.0763502 0.49039915
v 1.2525854 -1.0763502 0.49039915
v -1.1674926 -1.0763502 0.4904016
v -1.2002002 -1.0763502 0.4904016
v 1.1871728 -1.0436466 0.49039915
v 1.219878 -1.0436466 0.49039915
v -1.1347924 -1.0436466 0.4904016
v -1.1674926 -1.0436466 0.4904016
v 1.1544751 -0.6184976 0.49039915
v 1.1871728 -0.6184976 0.49039915
v 1.1544751 -0.58579403 0.49039915
v 0.9582495 -0.58579403 0.49039915
v -1.1020874 -0.38957214 0.4904016
v -1.0693847 -0.35686797 0.4904016
v -1.1347924 -0.38957214 0.4904016
v -1.1020874 -0.35686797 0.4904016
v -0.9058667 -0.32416412 0.4904016
v -1.0693847 -0.32416412 0.4904016
v -0.840459 -0.29146057 0.4904016
v -0.9058667 -0.29146057 0.4904016
v -0.80775386 -0.1279416 0.4904016
v -0.840459 -0.1279416 0.4904016
v -0.7423486 -0.09523834 0.4904016
v -0.80775386 -0.09523834 0.4904016
v -0.7423486 -0.062534176 0.4904016
v -0.4153076 -0.062534176 0.4904016
v 0.9582495 0.13368835 0.49039915
v 0.92554444 0.13368835 0.49039915
v 0.92554444 0.1663916 0.49039915
v 0.86013913 0.1663916 0.4904016
v 0.69662106 0.19909607 0.4904016
v 0.86013913 0.19909607 0.4904016
v -0.382605 0.6569485 0.4904016
v -0.4153076 0.6569485 0.4904016
v -0.3171997 0.6896521 0.4904016
v -0.382605 0.6896521 0.4904016
v 0.69662106 0.82046723 0.4904016
v -0.15367919 0.72235566 0.4904016
v -0.3171997 0.72235566 0.4904016
v 0.663916 0.82046723 0.4904016
v 0.5658057 0.85317105 0.4904016
v 0.663916 0.85317105 0.4904016
v -0.12097656 1.114801 0.4904016
v -0.15367919 1.114801 0.4904016
v 0.5658057 1.212911 0.4904016
v -0.08826904 1.1802075 0.4904016
v -0.12097656 1.1802075 0.4904016
v 0.53310055 1.212911 0.4904016
v -0.055568848 1.212911 0.4904016
v -0.08826904 1.212911 0.4904016
v 0.53310055 1.2456146 0.4904016
v 0.43499023 1.2456146 0.4904016
v 0.042543944 1.2456146 0.4904016
v -0.055568848 1.2456146 0.4904016
v 0.042543944 1.2783184 0.4904016
v 0.43499023 1.2783184 0.4904016
vt 0.24438477 0.34887695
vt 0.23840332 0.34887695
vt 0.23840332 0.32714844
vt 0.71240234 0.35473633
vt 0.71875 0.32714844
vt 0.71875 0.35473633
vt 0.25048828 0.35473633
vt 0.24438477 0.35473633
vt 0.70654297 0.36669922
vt 0.71240234 0.36669922
vt 0.25634766 0.36669922
vt 0.25048828 0.36669922
vt 0.7006836 0.37280273
vt 0.70654297 0.37280273
vt 0.26245117 0.37280273
vt 0.25634766 0.37280273
vt 0.69433594 0.3786621
vt 0.7006836 0.3786621
vt 0.26831055 0.3786621
vt 0.26245117 0.3786621
vt 0.68847656 0.4567871
vt 0.69433594 0.4567871
vt 0.68847656 0.46289062
vt 0.65234375 0.46289062
vt 0.27441406 0.4987793
vt 0.28051758 0.5048828
vt 0.26831055 0.4987793
vt 0.27441406 0.5048828
vt 0.31030273 0.5107422
vt 0.28051758 0.5107422
vt 0.32250977 0.51660156
vt 0.31030273 0.51660156
vt 0.32836914 0.546875
vt 0.32250977 0.546875
vt 0.34033203 0.5527344
vt 0.32836914 0.5527344
vt 0.34033203 0.55859375
vt 0.40039062 0.55859375
vt 0.65234375 0.59472656
vt 0.6464844 0.59472656
vt 0.6464844 0.6010742
vt 0.6347656 0.6010742
vt 0.6044922 0.6069336
vt 0.6347656 0.6069336
vt 0.40649414 0.69091797
vt 0.40039062 0.69091797
vt 0.41845703 0.69677734
vt 0.40649414 0.69677734
vt 0.6044922 0.7207031
vt 0.44848633 0.7026367
vt 0.41845703 0.7026367
vt 0.5986328 0.7207031
vt 0.5805664 0.7270508
vt 0.5986328 0.7270508
vt 0.45458984 0.77490234
vt 0.44848633 0.77490234
vt 0.5805664 0.79296875
vt 0.46044922 0.7871094
vt 0.45458984 0.7871094
vt 0.57470703 0.79296875
vt 0.46655273 0.79296875
vt 0.46044922 0.79296875
vt 0.57470703 0.7988281
vt 0.5566406 0.7988281
vt 0.484375 0.7988281
vt 0.46655273 0.7988281
vt 0.484375 0.8046875
vt 0.5566406 0.8046875
vt 0.03527832 0.32055664
vt 0.03527832 0.34228516
vt 0.21533203 0.32055664
vt 0.21533203 0.34228516
vt 0.03527832 0.36035156
vt 0.03527832 0.37231445
vt 0.21533203 0.36035156
vt 0.21533203 0.37231445
vt 0.03527832 0.39038086
vt 0.03527832 0.39648438
vt 0.21533203 0.39038086
vt 0.21533203 0.39648438
vt 0.03527832 0.54052734
vt 0.03527832 0.5463867
vt 0.21533203 0.54052734
vt 0.21533203 0.5463867
vt 0.03527832 0.57666016
vt 0.03527832 0.58251953
vt 0.21533203 0.57666016
vt 0.21533203 0.58251953
vt 0.035308838 0.5942383
vt 0.035369873 0.6245117
vt 0.21533203 0.5942383
vt 0.21520996 0.6245117
vt 0.035125732 0.6303711
vt 0.03515625 0.63623047
vt 0.2154541 0.6303711
vt 0.2154541 0.63623047
vt 0.3486328 0.99365234
vt 0.4206543 0.99365234
vt 0.3486328 0.81347656
vt 0.4206543 0.81347656
vt 0.4267578 0.99365234
vt 0.4387207 0.99365234
vt 0.4267578 0.81347656
vt 0.4387207 0.81347656
vt 0.44458008 0.99365234
vt 0.4506836 0.99365234
vt 0.44458008 0.81347656
vt 0.4506836 0.81347656
vt 0.4567871 0.99365234
vt 0.46264648 0.99365234
vt 0.4567871 0.81347656
vt 0.46264648 0.81347656
vt 0.4807129 0.9941406
vt 0.48706055 0.9941406
vt 0.4807129 0.81396484
vt 0.48706055 0.81396484
vt 0.55908203 0.9941406
vt 0.5649414 0.9941406
vt 0.55908203 0.81396484
vt 0.5649414 0.81396484
vt 0.92285156 0.93310547
vt 0.92285156 0.8671875
vt 0.7426758 0.93310547
vt 0.7426758 0.8671875
vt 0.92285156 0.8491211
vt 0.92285156 0.8432617
vt 0.7426758 0.8491211
vt 0.7426758 0.8432617
vt 0.92285156 0.83740234
vt 0.92285156 0.72314453
vt 0.7426758 0.83740234
vt 0.7426758 0.72314453
vt 0.92285156 0.6933594
vt 0.92285156 0.6870117
vt 0.7426758 0.6933594
vt 0.7426758 0.6870117
vt 0.92285156 0.39916992
vt 0.92285156 0.3930664
vt 0.7426758 0.39916992
vt 0.7426758 0.3930664
vt 0.92285156 0.375
vt 0.92285156 0.3630371
vt 0.7426758 0.375
vt 0.7426758 0.3630371
vt 0.03527832 0.34838867
vt 0.03527832 0.35424805
vt 0.21533203 0.34838867
vt 0.21533203 0.35424805
vt 0.03527832 0.37231445
vt 0.03527832 0.37841797
vt 0.21533203 0.37231445
vt 0.21533203 0.37841797
vt 0.03527832 0.38427734
vt 0.03527832 0.39038086
vt 0.21533203 0.38427734
vt 0.21533203 0.39038086
vt 0.03527832 0.37841797
vt 0.03527832 0.38427734
vt 0.21533203 0.37841797
vt 0.21533203 0.38427734
vt 0.03527832 0.40234375
vt 0.03527832 0.52246094
vt 0.21533203 0.40234375
vt 0.21533203 0.52246094
vt 0.03527832 0.52246094
vt 0.03527832 0.5283203
vt 0.21533203 0.52246094
vt 0.21533203 0.5283203
vt 0.03527832 0.5283203
vt 0.03527832 0.5341797
vt 0.21533203 0.5283203
vt 0.21533203 0.5341797
vt 0.035369873 0.6245117
vt 0.035125732 0.6303711
vt 0.21520996 0.6245117
vt 0.2154541 0.6303711
vt 0.03515625 0.63623047
vt 0.03515625 0.6484375
vt 0.2154541 0.63623047
vt 0.2154541 0.6484375
vt 0.03515625 0.6484375
vt 0.03515625 0.6542969
vt 0.2154541 0.6484375
vt 0.2154541 0.6542969
vt 0.03515625 0.71435547
vt 0.03515625 0.8466797
vt 0.2154541 0.71435547
vt 0.2154541 0.8466797
vt 0.03515625 0.8588867
vt 0.03515625 0.87109375
vt 0.2154541 0.8588867
vt 0.2154541 0.87109375
vt 0.03515625 0.85253906
vt 0.03515625 0.8588867
vt 0.2154541 0.85253906
vt 0.2154541 0.8588867
vt 0.03515625 0.87109375
vt 0.03515625 0.8769531
vt 0.2154541 0.87109375
vt 0.2154541 0.8769531
vt 0.4206543 0.99365234
vt 0.4267578 0.99365234
vt 0.4206543 0.81347656
vt 0.4267578 0.81347656
vt 0.4387207 0.99365234
vt 0.44458008 0.99365234
vt 0.4387207 0.81347656
vt 0.44458008 0.81347656
vt 0.4506836 0.99365234
vt 0.4567871 0.99365234
vt 0.4506836 0.81347656
vt 0.4567871 0.81347656
vt 0.46264648 0.99365234
vt 0.4807129 0.9941406
vt 0.46264648 0.81347656
vt 0.4807129 0.81396484
vt 0.5649414 0.9941406
vt 0.5830078 0.9941406
vt 0.5649414 0.81396484
vt 0.5830078 0.81396484
vt 0.5830078 0.9941406
vt 0.58935547 0.9941406
vt 0.5830078 0.81396484
vt 0.58935547 0.81396484
vt 0.58935547 0.9941406
vt 0.59521484 0.9941406
vt 0.58935547 0.81396484
vt 0.59521484 0.81396484
vt 0.92285156 0.8671875
vt 0.92285156 0.8491211
vt 0.7426758 0.8671875
vt 0.7426758 0.8491211
vt 0.92285156 0.8432617
vt 0.92285156 0.83740234
vt 0.7426758 0.8432617
vt 0.7426758 0.83740234
vt 0.92285156 0.72314453
vt 0.92285156 0.6933594
vt 0.7426758 0.72314453
vt 0.7426758 0.6933594
vt 0.92285156 0.6870117
vt 0.92285156 0.67529297
vt 0.7426758 0.6870117
vt 0.7426758 0.67529297
vt 0.92285156 0.67529297
vt 0.92285156 0.6689453
vt 0.7426758 0.67529297
vt 0.7426758 0.6689453
vt 0.92285156 0.66308594
vt 0.92285156 0.53125
vt 0.7426758 0.66308594
vt 0.7426758 0.53125
vt 0.92285156 0.6689453
vt 0.92285156 0.66308594
vt 0.7426758 0.6689453
vt 0.7426758 0.66308594
vt 0.92285156 0.4951172
vt 0.92285156 0.48901367
vt 0.7426758 0.4951172
vt 0.7426758 0.48901367
vt 0.92285156 0.4831543
vt 0.92285156 0.4050293
vt 0.7426758 0.4831543
vt 0.7426758 0.4050293
vt 0.92285156 0.3930664
vt 0.92285156 0.3869629
vt 0.7426758 0.3930664
vt 0.7426758 0.3869629
vt 0.92285156 0.3869629
vt 0.92285156 0.38110352
vt 0.7426758 0.3869629
vt 0.7426758 0.38110352
vt 0.92285156 0.3630371
vt 0.92285156 0.35717773
vt 0.7426758 0.3630371
vt 0.7426758 0.35717773
vt 0.92285156 0.35717773
vt 0.92285156 0.3293457
vt 0.7426758 0.35717773
vt 0.7426758 0.3293457
vt 0.03527832 0.34228516
vt 0.03527832 0.34838867
vt 0.21533203 0.34228516
vt 0.21533203 0.34838867
vt 0.03527832 0.35424805
vt 0.03527832 0.36035156
vt 0.21533203 0.35424805
vt 0.21533203 0.36035156
vt 0.92285156 0.38110352
vt 0.92285156 0.375
vt 0.7426758 0.38110352
vt 0.7426758 0.375
vt 0.03527832 0.39648438
vt 0.03527832 0.40234375
vt 0.21533203 0.39648438
vt 0.21533203 0.40234375
vt 0.92285156 0.4050293
vt 0.92285156 0.39916992
vt 0.7426758 0.4050293
vt 0.7426758 0.39916992
vt 0.92285156 0.48901367
vt 0.92285156 0.4831543
vt 0.7426758 0.48901367
vt 0.7426758 0.4831543
vt 0.92285156 0.53125
vt 0.92285156 0.4951172
vt 0.7426758 0.53125
vt 0.7426758 0.4951172
vt 0.03527832 0.5341797
vt 0.03527832 0.54052734
vt 0.21533203 0.5341797
vt 0.21533203 0.54052734
vt 0.03527832 0.5463867
vt 0.03527832 0.57666016
vt 0.21533203 0.5463867
vt 0.21533203 0.57666016
vt 0.03527832 0.58251953
vt 0.035308838 0.5942383
vt 0.21533203 0.58251953
vt 0.21533203 0.5942383
vt 0.03515625 0.6542969
vt 0.03515625 0.71435547
vt 0.2154541 0.6542969
vt 0.2154541 0.71435547
vt 0.03515625 0.8466797
vt 0.03515625 0.85253906
vt 0.2154541 0.8466797
vt 0.2154541 0.85253906
vt 0.03515625 0.8769531
vt 0.03515625 0.9067383
vt 0.2154541 0.8769531
vt 0.2154541 0.9067383
vt 0.48706055 0.9941406
vt 0.55908203 0.9941406
vt 0.48706055 0.81396484
vt 0.55908203 0.81396484
vt 0.24438477 0.34887695
vt 0.23840332 0.32714844
vt 0.23840332 0.34887695
vt 0.71240234 0.35473633
vt 0.71875 0.32714844
vt 0.71875 0.35473633
vt 0.25048828 0.35473633
vt 0.24438477 0.35473633
vt 0.70654297 0.36669922
vt 0.71240234 0.36669922
vt 0.25634766 0.36669922
vt 0.25048828 0.36669922
vt 0.7006836 0.37280273
vt 0.70654297 0.37280273
vt 0.26245117 0.37280273
vt 0.25634766 0.37280273
vt 0.69433594 0.3786621
vt 0.7006836 0.3786621
vt 0.26831055 0.3786621
vt 0.26245117 0.3786621
vt 0.68847656 0.4567871
vt 0.69433594 0.4567871
vt 0.68847656 0.46289062
vt 0.65234375 0.46289062
vt 0.27441406 0.4987793
vt 0.28051758 0.5048828
vt 0.26831055 0.4987793
vt 0.27441406 0.5048828
vt 0.31030273 0.5107422
vt 0.28051758 0.5107422
vt 0.32250977 0.51660156
vt 0.31030273 0.51660156
vt 0.32836914 0.546875
vt 0.32250977 0.546875
vt 0.34033203 0.5527344
vt 0.32836914 0.5527344
vt 0.34033203 0.55859375
vt 0.40039062 0.55859375
vt 0.65234375 0.59472656
vt 0.6464844 0.59472656
vt 0.6464844 0.6010742
vt 0.6347656 0.6010742
vt 0.6044922 0.6069336
vt 0.6347656 0.6069336
vt 0.40649414 0.69091797
vt 0.40039062 0.69091797
vt 0.41845703 0.69677734
vt 0.40649414 0.69677734
vt 0.6044922 0.7207031
vt 0.44848633 0.7026367
vt 0.41845703 0.7026367
vt 0.5986328 0.7207031
vt 0.5805664 0.7270508
vt 0.5986328 0.7270508
vt 0.45458984 0.77490234
vt 0.44848633 0.77490234
vt 0.5805664 0.79296875
vt 0.46044922 0.7871094
vt 0.45458984 0.7871094
vt 0.57470703 0.79296875
vt 0.46655273 0.79296875
vt 0.46044922 0.79296875
vt 0.57470703 0.7988281
vt 0.5566406 0.7988281
vt 0.484375 0.7988281
vt 0.46655273 0.7988281
vt 0.484375 0.8046875
vt 0.5566406 0.8046875
vn -0 0 -1
vn -0 0 -1
vn -0 0 -1
vn -0 0 -1
vn -0 0 -1
vn -0 0 -1
vn -0 0 -1
vn -0 0 -1
vn -0 0 -1
vn -0 0 -1
vn -0 0 -1
vn -0 0 -1
vn -0 0 -1
vn -0 0 -1
vn -0 0 -1
vn -0 0 -1
vn -0 0 -1
vn -0 0 -1
vn -0 0 -1
vn -0 0 -1
vn -0 0 -1
vn -0 0 -1
vn -0 0 -1
vn -0 0 -1
vn -0 0 -1
vn -0 0 -1
vn -0 0 -1
vn -0 0 -1
vn -0 0 -1
vn -0 0 -1
vn -0 0 -1
vn -0 0 -1
vn -0 0 -1
vn -0 0 -1
vn -0 0 -1
vn -0 0 -1
vn -0 0 -1
vn -0 0 -1
vn -0 0 -1
vn -0 0 -1
vn -0 0 -1
vn -0 0 -1
vn -0 0 -1
vn -0 0 -1
vn -0 0 -1
vn -0 0 -1
vn -0 0 -1
vn -0 0 -1
vn -0 0 -1
vn -0 0 -1
vn -0 0 -1
vn -0 0 -1
vn -0 0 -1
vn -0 0 -1
vn -0 0 -1
vn -0 0 -1
vn -0 0 -1
vn -0 0 -1
vn -0 0 -1
vn -0 0 -1
vn -0 0 -1
vn -0 0 -1
vn -0 0 -1
vn -0 0 -1
vn -0 0 -1
vn -0 0 -1
vn -0 0 -1
vn -0 0 -1
vn -1 0 0
vn -1 0 0
vn -1 0 0
vn -1 0 0
vn -1 0 0
vn -1 0 0
vn -1 0 0
vn -1 0 0
vn -1 0 4.9471855E-06
vn -1 0 4.9471855E-06
vn -1 0 4.9471855E-06
vn -1 0 4.9471855E-06
vn -1 0 0
vn -1 0 0
vn -1 0 0
vn -1 0 0
vn -1 0 0
vn -1 0 0
vn -1 0 0
vn -1 0 0
vn -1 0 0
vn -1 0 0
vn -1 0 0
vn -1 0 0
vn -1 0 0
vn -1 0 0
vn -1 0 0
vn -1 0 0
vn -1 0 0
vn -1 0 0
vn -1 0 0
vn -1 0 0
vn -1 0 0
vn -1 0 0
vn -1 0 0
vn -1 0 0
vn -1 0 2.503395E-06
vn -1 0 2.503395E-06
vn -1 0 2.503395E-06
vn -1 0 2.503395E-06
vn -1 0 0
vn -1 0 0
vn -1 0 0
vn -1 0 0
vn -1 0 0
vn -1 0 0
vn -1 0 0
vn -1 0 0
vn 1 0 0
vn 1 0 0
vn 1 0 0
vn 1 0 0
vn 1 0 0
vn 1 0 0
vn 1 0 0
vn 1 0 0
vn 1 0 0
vn 1 0 0
vn 1 0 0
vn 1 0 0
vn 1 0 0
vn 1 0 0
vn 1 0 0
vn 1 0 0
vn 1 0 0
vn 1 0 0
vn 1 0 0
vn 1 0 0
vn 1 0 0
vn 1 0 0
vn 1 0 0
vn 1 0 0
vn 1 0 0
vn 1 0 0
vn 1 0 0
vn 1 0 0
vn -1 0 0
vn -1 0 0
vn -1 0 0
vn -1 0 0
vn -0 1 0
vn -0 1 0
vn -0 1 0
vn -0 1 0
vn -0 1 0
vn -0 1 0
vn -0 1 0
vn -0 1 0
vn -1 0 0
vn -1 0 0
vn -1 0 0
vn -1 0 0
vn -1 0 0
vn -1 0 0
vn -1 0 0
vn -1 0 0
vn -0 1 9.536743E-07
vn -0 1 9.536743E-07
vn -0 1 9.536743E-07
vn -0 1 9.536743E-07
vn -1 0 0
vn -1 0 0
vn -1 0 0
vn -1 0 0
vn -0 1 2.9802322E-07
vn -0 1 2.9802322E-07
vn -0 1 2.9802322E-07
vn -0 1 2.9802322E-07
vn -0 1 9.536743E-07
vn -0 1 9.536743E-07
vn -0 1 9.536743E-07
vn -0 1 9.536743E-07
vn -1 0 0
vn -1 0 0
vn -1 0 0
vn -1 0 0
vn -1 0 2.503395E-06
vn -1 0 2.503395E-06
vn -1 0 2.503395E-06
vn -1 0 2.503395E-06
vn -0 1 2.9802322E-07
vn -0 1 2.9802322E-07
vn -0 1 2.9802322E-07
vn -0 1 2.9802322E-07
vn -1 0 0
vn -1 0 0
vn -1 0 0
vn -1 0 0
vn -1 0 0
vn -1 0 0
vn -1 0 0
vn -1 0 0
vn -0 1 2.9802322E-07
vn -0 1 2.9802322E-07
vn -0 1 2.9802322E-07
vn -0 1 2.9802322E-07
vn -0 1 2.9802322E-07
vn -0 1 2.9802322E-07
vn -0 1 2.9802322E-07
vn -0 1 2.9802322E-07
vn -0 1 2.9802322E-07
vn -0 1 2.9802322E-07
vn -0 1 2.9802322E-07
vn -0 1 2.9802322E-07
vn -0 1 2.9802322E-07
vn -0 1 2.9802322E-07
vn -0 1 2.9802322E-07
vn -0 1 2.9802322E-07
vn -0 1 2.9802322E-07
vn -0 1 2.9802322E-07
vn -0 1 2.9802322E-07
vn -0 1 2.9802322E-07
vn 1 0 0
vn 1 0 0
vn 1 0 0
vn 1 0 0
vn -0 1 2.9802322E-07
vn -0 1 2.9802322E-07
vn -0 1 2.9802322E-07
vn -0 1 2.9802322E-07
vn -0 1 2.9802322E-07
vn -0 1 2.9802322E-07
vn -0 1 2.9802322E-07
vn -0 1 2.9802322E-07
vn -0 1 2.9802322E-07
vn -0 1 2.9802322E-07
vn -0 1 2.9802322E-07
vn -0 1 2.9802322E-07
vn -0 1 2.9802322E-07
vn -0 1 2.9802322E-07
vn -0 1 2.9802322E-07
vn -0 1 2.9802322E-07
vn -0 1 9.536743E-07
vn -0 1 9.536743E-07
vn -0 1 9.536743E-07
vn -0 1 9.536743E-07
vn 1 0 0
vn 1 0 0
vn 1 0 0
vn 1 0 0
vn 1 0 0
vn 1 0 0
vn 1 0 0
vn 1 0 0
vn -0 1 2.9802322E-07
vn -0 1 2.9802322E-07
vn -0 1 2.9802322E-07
vn -0 1 2.9802322E-07
vn 1 0 -2.503395E-06
vn 1 0 -2.503395E-06
vn 1 0 -2.503395E-06
vn 1 0 -2.503395E-06
vn 1 0 0
vn 1 0 0
vn 1 0 0
vn 1 0 0
vn -0 1 0
vn -0 1 0
vn -0 1 0
vn -0 1 0
vn 1 0 0
vn 1 0 0
vn 1 0 0
vn 1 0 0
vn -0 1 4.7683716E-07
vn -0 1 4.7683716E-07
vn -0 1 4.7683716E-07
vn -0 1 4.7683716E-07
vn 1 0 0
vn 1 0 0
vn 1 0 0
vn 1 0 0
vn -0 1 9.536743E-07
vn -0 1 9.536743E-07
vn -0 1 9.536743E-07
vn -0 1 9.536743E-07
vn -0 1 4.7683716E-07
vn -0 1 4.7683716E-07
vn -0 1 4.7683716E-07
vn -0 1 4.7683716E-07
vn -0 1 0
vn -0 1 0
vn -0 1 0
vn -0 1 0
vn -0 1 4.7683716E-07
vn -0 1 4.7683716E-07
vn -0 1 4.7683716E-07
vn -0 1 4.7683716E-07
vn -0 1 4.7683716E-07
vn -0 1 4.7683716E-07
vn -0 1 4.7683716E-07
vn -0 1 4.7683716E-07
vn -0 1 2.9802322E-07
vn -0 1 2.9802322E-07
vn -0 1 2.9802322E-07
vn -0 1 2.9802322E-07
vn -0 1 5.9604645E-07
vn -0 1 5.9604645E-07
vn -0 1 5.9604645E-07
vn -0 1 5.9604645E-07
vn -0 1 5.9604645E-07
vn -0 1 5.9604645E-07
vn -0 1 5.9604645E-07
vn -0 1 5.9604645E-07
vn -0 1 5.9604645E-07
vn -0 1 5.9604645E-07
vn -0 1 5.9604645E-07
vn -0 1 5.9604645E-07
vn -0 1 2.9802322E-07
vn -0 1 2.9802322E-07
vn -0 1 2.9802322E-07
vn -0 1 2.9802322E-07
vn -0 1 9.536743E-07
vn -0 1 9.536743E-07
vn -0 1 9.536743E-07
vn -0 1 9.536743E-07
vn -0 1 2.9802322E-07
vn -0 1 2.9802322E-07
vn -0 1 2.9802322E-07
vn -0 1 2.9802322E-07
vn -0 1 9.536743E-07
vn -0 1 9.536743E-07
vn -0 1 9.536743E-07
vn -0 1 9.536743E-07
vn -0 1 2.9802322E-07
vn -0 1 2.9802322E-07
vn -0 1 2.9802322E-07
vn -0 1 2.9802322E-07
vn -0 0 1
vn -0 0 1
vn -0 0 1
vn 9.536743E-07 -9.536743E-07 1
vn -0 0 1
vn -0 0 1
vn 9.536743E-07 -9.536743E-07 1
vn -0 0 1
vn 9.536743E-07 4.7683716E-07 1
vn -0 0 1
vn 1.013279E-06 -4.7683716E-07 1
vn -0 0 1
vn 1.013279E-06 1.013279E-06 1
vn -0 0 1
vn 1.013279E-06 -1.013279E-06 1
vn -0 0 1
vn 1.013279E-06 1.013279E-06 1
vn -0 0 1
vn 1.0728836E-06 -1.0728836E-06 1
vn -0 0 1
vn 1.0728836E-06 0 1
vn -0 0 1
vn 1.0728836E-06 0 1
vn -0 5.3048134E-06 1
vn 1.1920929E-06 0 1
vn 1.0728836E-06 -1.0728836E-06 1
vn -0 0 1
vn -0 0 1
vn 7.748604E-07 -3.874302E-06 1
vn -0 0 1
vn 1.013279E-06 -2.026558E-06 1
vn -0 0 1
vn 1.3113022E-06 -2.3841858E-07 1
vn -0 0 1
vn 8.940697E-07 -1.847744E-06 1
vn -0 0 1
vn 1.4305115E-06 0 1
vn -0 -4.6491623E-06 1
vn 1.7881393E-06 0 1
vn -0 1.2457371E-05 1
vn 1.847744E-06 0 1
vn 3.7312508E-05 -0.00020802021 1
vn -0 0 1
vn -0 0 1
vn -0 0 1
vn -0 0 1
vn -0 0 1
vn -0 0 1
vn -0 0 1
vn -0 0 1
vn -0 0 1
vn -0 0 1
vn -0 0 1
vn -0 0 1
vn -0 0 1
vn -0 0 1
vn -0 0 1
vn -0 0 1
vn -0 0 1
vn -0 0 1
vn -0 0 1
vn -0 0 1
vn -0 0 1
vn -0 0 1
vn -0 0 1
vn -0 0 1
vn -0 0 1
vn -0 0 1
g Rocks_Medium_002_0
f 3/3/3 2/2/2 1/1/1
f 4/4/4 3/3/3 1/1/1
f 3/3/3 4/4/4 5/5/5
f 5/5/5 4/4/4 6/6/6
f 4/4/4 1/1/1 7/7/7
f 7/7/7 1/1/1 8/8/8
f 7/7/7 9/9/9 4/4/4
f 4/4/4 9/9/9 10/10/10
f 9/9/9 7/7/7 11/11/11
f 11/11/11 7/7/7 12/12/12
f 11/11/11 13/13/13 9/9/9
f 9/9/9 13/13/13 14/14/14
f 13/13/13 11/11/11 15/15/15
f 15/15/15 11/11/11 16/16/16
f 13/13/13 15/15/15 17/17/17
f 13/13/13 17/17/17 18/18/18
f 17/17/17 15/15/15 19/19/19
f 19/19/19 15/15/15 20/20/20
f 21/21/21 17/17/17 19/19/19
f 17/17/17 21/21/21 22/22/22
f 21/21/21 19/19/19 23/23/23
f 23/23/23 19/19/19 24/24/24
f 24/24/24 19/19/19 25/25/25
f 25/25/25 26/26/26 24/24/24
f 25/25/25 19/19/19 27/27/27
f 26/26/26 25/25/25 28/28/28
f 26/26/26 29/29/29 24/24/24
f 29/29/29 26/26/26 30/30/30
f 29/29/29 31/31/31 24/24/24
f 31/31/31 29/29/29 32/32/32
f 31/31/31 33/33/33 24/24/24
f 33/33/33 31/31/31 34/34/34
f 33/33/33 35/35/35 24/24/24
f 35/35/35 33/33/33 36/36/36
f 37/37/37 24/24/24 35/35/35
f 24/24/24 37/37/37 38/38/38
f 38/38/38 39/39/39 24/24/24
f 39/39/39 38/38/38 40/40/40
f 38/38/38 41/41/41 40/40/40
f 41/41/41 38/38/38 42/42/42
f 43/43/43 42/42/42 38/38/38
f 42/42/42 43/43/43 44/44/44
f 38/38/38 45/45/45 43/43/43
f 45/45/45 38/38/38 46/46/46
f 45/45/45 47/47/47 43/43/43
f 47/47/47 45/45/45 48/48/48
f 47/47/47 49/49/49 43/43/43
f 50/50/50 49/49/49 47/47/47
f 51/51/51 50/50/50 47/47/47
f 49/49/49 50/50/50 52/52/52
f 53/53/53 52/52/52 50/50/50
f 52/52/52 53/53/53 54/54/54
f 50/50/50 55/55/55 53/53/53
f 55/55/55 50/50/50 56/56/56
f 55/55/55 57/57/57 53/53/53
f 55/55/55 58/58/58 57/57/57
f 59/59/59 58/58/58 55/55/55
f 57/57/57 58/58/58 60/60/60
f 58/58/58 61/61/61 60/60/60
f 61/61/61 58/58/58 62/62/62
f 60/60/60 61/61/61 63/63/63
f 63/63/63 61/61/61 64/64/64
f 64/64/64 61/61/61 65/65/65
f 65/65/65 61/61/61 66/66/66
f 67/67/67 64/64/64 65/65/65
f 64/64/64 67/67/67 68/68/68
f 71/71/71 70/70/70 69/69/69
f 70/70/70 71/71/71 72/72/72
f 75/75/75 74/74/74 73/73/73
f 74/74/74 75/75/75 76/76/76
f 79/79/79 78/78/78 77/77/77
f 78/78/78 79/79/79 80/80/80
f 83/83/83 82/82/82 81/81/81
f 82/82/82 83/83/83 84/84/84
f 87/87/87 86/86/86 85/85/85
f 86/86/86 87/87/87 88/88/88
f 91/91/91 90/90/90 89/89/89
f 90/90/90 91/91/91 92/92/92
f 95/95/95 94/94/94 93/93/93
f 94/94/94 95/95/95 96/96/96
f 99/99/99 98/98/98 97/97/97
f 98/98/98 99/99/99 100/100/100
f 103/103/103 102/102/102 101/101/101
f 102/102/102 103/103/103 104/104/104
f 107/107/107 106/106/106 105/105/105
f 106/106/106 107/107/107 108/108/108
f 111/111/111 110/110/110 109/109/109
f 110/110/110 111/111/111 112/112/112
f 115/115/115 114/114/114 113/113/113
f 114/114/114 115/115/115 116/116/116
f 119/119/119 118/118/118 117/117/117
f 118/118/118 119/119/119 120/120/120
f 123/123/123 122/122/122 121/121/121
f 122/122/122 123/123/123 124/124/124
f 127/127/127 126/126/126 125/125/125
f 126/126/126 127/127/127 128/128/128
f 131/131/131 130/130/130 129/129/129
f 130/130/130 131/131/131 132/132/132
f 135/135/135 134/134/134 133/133/133
f 134/134/134 135/135/135 136/136/136
f 139/139/139 138/138/138 137/137/137
f 138/138/138 139/139/139 140/140/140
f 143/143/143 142/142/142 141/141/141
f 142/142/142 143/143/143 144/144/144
f 147/147/147 146/146/146 145/145/145
f 146/146/146 147/147/147 148/148/148
f 151/151/151 150/150/150 149/149/149
f 150/150/150 151/151/151 152/152/152
f 155/155/155 154/154/154 153/153/153
f 154/154/154 155/155/155 156/156/156
f 159/159/159 158/158/158 157/157/157
f 158/158/158 159/159/159 160/160/160
f 163/163/163 162/162/162 161/161/161
f 162/162/162 163/163/163 164/164/164
f 167/167/167 166/166/166 165/165/165
f 166/166/166 167/167/167 168/168/168
f 171/171/171 170/170/170 169/169/169
f 170/170/170 171/171/171 172/172/172
f 175/175/175 174/174/174 173/173/173
f 174/174/174 175/175/175 176/176/176
f 179/179/179 178/178/178 177/177/177
f 178/178/178 179/179/179 180/180/180
f 183/183/183 182/182/182 181/181/181
f 182/182/182 183/183/183 184/184/184
f 187/187/187 186/186/186 185/185/185
f 186/186/186 187/187/187 188/188/188
f 191/191/191 190/190/190 189/189/189
f 190/190/190 191/191/191 192/192/192
f 195/195/195 194/194/194 193/193/193
f 194/194/194 195/195/195 196/196/196
f 199/199/199 198/198/198 197/197/197
f 198/198/198 199/199/199 200/200/200
f 203/203/203 202/202/202 201/201/201
f 202/202/202 203/203/203 204/204/204
f 207/207/207 206/206/206 205/205/205
f 206/206/206 207/207/207 208/208/208
f 211/211/211 210/210/210 209/209/209
f 210/210/210 211/211/211 212/212/212
f 215/215/215 214/214/214 213/213/213
f 214/214/214 215/215/215 216/216/216
f 219/219/219 218/218/218 217/217/217
f 218/218/218 219/219/219 220/220/220
f 223/223/223 222/222/222 221/221/221
f 222/222/222 223/223/223 224/224/224
f 227/227/227 226/226/226 225/225/225
f 226/226/226 227/227/227 228/228/228
f 231/231/231 230/230/230 229/229/229
f 230/230/230 231/231/231 232/232/232
f 235/235/235 234/234/234 233/233/233
f 234/234/234 235/235/235 236/236/236
f 239/239/239 238/238/238 237/237/237
f 238/238/238 239/239/239 240/240/240
f 243/243/243 242/242/242 241/241/241
f 242/242/242 243/243/243 244/244/244
f 247/247/247 246/246/246 245/245/245
f 246/246/246 247/247/247 248/248/248
f 251/251/251 250/250/250 249/249/249
f 250/250/250 251/251/251 252/252/252
f 255/255/255 254/254/254 253/253/253
f 254/254/254 255/255/255 256/256/256
f 259/259/259 258/258/258 257/257/257
f 258/258/258 259/259/259 260/260/260
f 263/263/263 262/262/262 261/261/261
f 262/262/262 263/263/263 264/264/264
f 267/267/267 266/266/266 265/265/265
f 266/266/266 267/267/267 268/268/268
f 271/271/271 270/270/270 269/269/269
f 270/270/270 271/271/271 272/272/272
f 275/275/275 274/274/274 273/273/273
f 274/274/274 275/275/275 276/276/276
f 279/279/279 278/278/278 277/277/277
f 278/278/278 279/279/279 280/280/280
f 283/283/283 282/282/282 281/281/281
f 282/282/282 283/283/283 284/284/284
f 287/287/287 286/286/286 285/285/285
f 286/286/286 287/287/287 288/288/288
f 291/291/291 290/290/290 289/289/289
f 290/290/290 291/291/291 292/292/292
f 295/295/295 294/294/294 293/293/293
f 294/294/294 295/295/295 296/296/296
f 299/299/299 298/298/298 297/297/297
f 298/298/298 299/299/299 300/300/300
f 303/303/303 302/302/302 301/301/301
f 302/302/302 303/303/303 304/304/304
f 307/307/307 306/306/306 305/305/305
f 306/306/306 307/307/307 308/308/308
f 311/311/311 310/310/310 309/309/309
f 310/310/310 311/311/311 312/312/312
f 315/315/315 314/314/314 313/313/313
f 314/314/314 315/315/315 316/316/316
f 319/319/319 318/318/318 317/317/317
f 318/318/318 319/319/319 320/320/320
f 323/323/323 322/322/322 321/321/321
f 322/322/322 323/323/323 324/324/324
f 327/327/327 326/326/326 325/325/325
f 326/326/326 327/327/327 328/328/328
f 331/331/331 330/330/330 329/329/329
f 330/330/330 331/331/331 332/332/332
f 335/335/335 334/334/334 333/333/333
f 334/334/334 335/335/335 336/336/336
f 339/339/339 338/338/338 337/337/337
f 338/338/338 340/340/340 337/337/337
f 340/340/340 338/338/338 341/341/341
f 340/340/340 341/341/341 342/342/342
f 337/337/337 340/340/340 343/343/343
f 337/337/337 343/343/343 344/344/344
f 345/345/345 343/343/343 340/340/340
f 345/345/345 340/340/340 346/346/346
f 343/343/343 345/345/345 347/347/347
f 343/343/343 347/347/347 348/348/348
f 349/349/349 347/347/347 345/345/345
f 349/349/349 345/345/345 350/350/350
f 347/347/347 349/349/349 351/351/351
f 347/347/347 351/351/351 352/352/352
f 351/351/351 349/349/349 353/353/353
f 353/353/353 349/349/349 354/354/354
f 351/351/351 353/353/353 355/355/355
f 351/351/351 355/355/355 356/356/356
f 353/353/353 357/357/357 355/355/355
f 357/357/357 353/353/353 358/358/358
f 355/355/355 357/357/357 359/359/359
f 355/355/355 359/359/359 360/360/360
f 355/355/355 360/360/360 361/361/361
f 362/362/362 361/361/361 360/360/360
f 355/355/355 361/361/361 363/363/363
f 361/361/361 362/362/362 364/364/364
f 365/365/365 362/362/362 360/360/360
f 362/362/362 365/365/365 366/366/366
f 367/367/367 365/365/365 360/360/360
f 365/365/365 367/367/367 368/368/368
f 369/369/369 367/367/367 360/360/360
f 367/367/367 369/369/369 370/370/370
f 371/371/371 369/369/369 360/360/360
f 369/369/369 371/371/371 372/372/372
f 360/360/360 373/373/373 371/371/371
f 373/373/373 360/360/360 374/374/374
f 375/375/375 374/374/374 360/360/360
f 374/374/374 375/375/375 376/376/376
f 377/377/377 374/374/374 376/376/376
f 374/374/374 377/377/377 378/378/378
f 378/378/378 379/379/379 374/374/374
f 379/379/379 378/378/378 380/380/380
f 381/381/381 374/374/374 379/379/379
f 374/374/374 381/381/381 382/382/382
f 383/383/383 381/381/381 379/379/379
f 381/381/381 383/383/383 384/384/384
f 385/385/385 383/383/383 379/379/379
f 385/385/385 386/386/386 383/383/383
f 386/386/386 387/387/387 383/383/383
f 386/386/386 385/385/385 388/388/388
f 388/388/388 389/389/389 386/386/386
f 389/389/389 388/388/388 390/390/390
f 391/391/391 386/386/386 389/389/389
f 386/386/386 391/391/391 392/392/392
f 393/393/393 391/391/391 389/389/389
f 394/394/394 391/391/391 393/393/393
f 394/394/394 395/395/395 391/391/391
f 394/394/394 393/393/393 396/396/396
f 397/397/397 394/394/394 396/396/396
f 394/394/394 397/397/397 398/398/398
f 397/397/397 396/396/396 399/399/399
f 397/397/397 399/399/399 400/400/400
f 397/397/397 400/400/400 401/401/401
f 397/397/397 401/401/401 402/402/402
f 400/400/400 403/403/403 401/401/401
f 403/403/403 400/400/400 404/404/404
