g Rocks_Medium_006
v -1.7158527 -0.53103894 -0.8473342
v -1.7158527 -0.4886719 -0.8473342
v -1.7158531 -0.5310385 0.84733516
v -1.7158531 -0.4886715 0.84733516
v -1.7582152 -0.6552298 -0.8473342
v -1.7582185 -0.53103894 -0.8473342
v -1.7582152 -0.65522957 0.84733516
v -1.7582185 -0.5310385 0.84733516
v -1.7158527 -0.53103894 -0.8473342
v -1.7158531 -0.5310385 0.84733516
v -1.7582185 -0.53103894 -0.8473342
v -1.7582185 -0.5310385 0.84733516
v -1.6734859 -0.4886719 -0.8473342
v -1.6734861 -0.4886715 0.84733516
v -1.7158527 -0.4886719 -0.8473342
v -1.7158531 -0.4886715 0.84733516
v 1.0803503 0.6552294 -0.8473279
v 1.08035 0.65522987 0.8473353
v -0.44485095 0.6552294 -0.84732777
v -0.44485095 0.65522987 0.84733534
v -1.6311188 -0.14973824 -0.8473342
v -1.6311188 -0.44630522 -0.8473342
v -1.5887517 -0.14973824 -0.8473342
v 1.6311188 -0.4886719 -0.8473279
v -1.6734859 -0.44630522 -0.8473342
v 1.7158513 -0.53103894 -0.8473279
v -1.6734859 -0.4886719 -0.8473342
v -1.7158527 -0.4886719 -0.8473342
v 1.7158513 -0.4886719 -0.8473279
v -1.7158527 -0.53103894 -0.8473342
v 1.7582185 -0.6552298 -0.8473217
v 1.7582185 -0.53103894 -0.8473279
v -1.7582185 -0.53103894 -0.8473342
v -1.7582152 -0.6552298 -0.8473342
v 1.4616522 -0.23447195 -0.8473279
v 1.6311188 -0.23447195 -0.8473279
v -1.2074515 -0.10737157 -0.8473342
v -1.5887517 -0.10737157 -0.8473342
v 1.376918 -0.06500492 -0.8473279
v 1.4616522 -0.06500492 -0.8473279
v 1.3345511 0.019728396 -0.8473279
v 1.376918 0.019728396 -0.8473279
v -0.65668476 0.10446211 -0.8473279
v -1.2074515 0.10446211 -0.8473342
v 1.1650844 0.062095437 -0.8473279
v 1.3345511 0.062095437 -0.8473279
v 1.1650844 0.4857624 -0.8473279
v -0.48721805 0.31629574 -0.8473279
v -0.65668476 0.31629574 -0.8473279
v 1.1227173 0.4857624 -0.8473279
v 1.1227173 0.61286277 -0.8473279
v 1.0803503 0.61286277 -0.8473279
v -0.44485095 0.61286277 -0.84732777
v -0.48721805 0.61286277 -0.84732777
v 1.0803503 0.6552294 -0.8473279
v -0.44485095 0.6552294 -0.84732777
v 1.7582185 -0.53103894 -0.8473279
v 1.7582185 -0.6552298 -0.8473217
v 1.7582182 -0.5310385 0.84733516
v 1.7582182 -0.65522957 0.84733516
v 1.7582185 -0.53103894 -0.8473279
v 1.7582182 -0.5310385 0.84733516
v 1.7158513 -0.53103894 -0.8473279
v 1.7158511 -0.5310385 0.84733516
v 1.7158511 -0.5310385 0.84733516
v 1.7158511 -0.4886715 0.84733516
v 1.7158513 -0.53103894 -0.8473279
v 1.7158513 -0.4886719 -0.8473279
v 1.7158513 -0.4886719 -0.8473279
v 1.7158511 -0.4886715 0.84733516
v 1.6311188 -0.4886719 -0.8473279
v 1.6311185 -0.4886715 0.84733516
v 1.6311185 -0.4886715 0.84733516
v 1.6311185 -0.23447116 0.84733516
v 1.6311188 -0.4886719 -0.8473279
v 1.6311188 -0.23447195 -0.8473279
v 1.6311188 -0.23447195 -0.8473279
v 1.6311185 -0.23447116 0.84733516
v 1.4616522 -0.23447195 -0.8473279
v 1.461652 -0.23447116 0.84733516
v 1.4616522 -0.23447195 -0.8473279
v 1.461652 -0.23447116 0.84733516
v 1.4616522 -0.06500492 -0.8473279
v 1.461652 -0.06500452 0.84733516
v 1.4616522 -0.06500492 -0.8473279
v 1.461652 -0.06500452 0.84733516
v 1.376918 -0.06500492 -0.8473279
v 1.3769177 -0.06500452 0.84733516
v 1.376918 -0.06500492 -0.8473279
v 1.3769177 -0.06500452 0.84733516
v 1.376918 0.019728396 -0.8473279
v 1.3769177 0.019729184 0.84733516
v 1.376918 0.019728396 -0.8473279
v 1.3769177 0.019729184 0.84733516
v 1.3345511 0.019728396 -0.8473279
v 1.3345509 0.019729184 0.84733516
v 1.3345511 0.019728396 -0.8473279
v 1.3345509 0.019729184 0.84733516
v 1.3345511 0.062095437 -0.8473279
v 1.3345509 0.062095847 0.84733516
v 1.3345511 0.062095437 -0.8473279
v 1.3345509 0.062095847 0.84733516
v 1.1650844 0.062095437 -0.8473279
v 1.1650842 0.062095847 0.8473353
v 1.1650844 0.062095437 -0.8473279
v 1.1650842 0.062095847 0.8473353
v 1.1650844 0.4857624 -0.8473279
v 1.1650842 0.48576277 0.8473353
v 1.1650844 0.4857624 -0.8473279
v 1.1650842 0.48576277 0.8473353
v 1.1227173 0.4857624 -0.8473279
v 1.1227171 0.48576277 0.8473353
v 1.1227173 0.4857624 -0.8473279
v 1.1227171 0.48576277 0.8473353
v 1.1227173 0.61286277 -0.8473279
v 1.1227171 0.61286306 0.8473353
v 1.0803503 0.61286277 -0.8473279
v 1.1227173 0.61286277 -0.8473279
v 1.08035 0.61286306 0.8473353
v 1.1227171 0.61286306 0.8473353
v 1.0803503 0.61286277 -0.8473279
v 1.08035 0.61286306 0.8473353
v 1.0803503 0.6552294 -0.8473279
v 1.08035 0.65522987 0.8473353
v -0.44485095 0.6552294 -0.84732777
v -0.44485095 0.65522987 0.84733534
v -0.44485095 0.61286277 -0.84732777
v -0.44485095 0.61286306 0.84733534
v -0.48721805 0.61286277 -0.84732777
v -0.44485095 0.61286277 -0.84732777
v -0.48721796 0.61286306 0.84733534
v -0.44485095 0.61286306 0.84733534
v -0.48721805 0.31629574 -0.8473279
v -0.48721805 0.61286277 -0.84732777
v -0.48721796 0.31629658 0.8473353
v -0.48721796 0.61286306 0.84733534
v -0.48721805 0.31629574 -0.8473279
v -0.48721796 0.31629658 0.8473353
v -0.65668476 0.31629574 -0.8473279
v -0.6566847 0.31629658 0.8473353
v -0.65668476 0.10446211 -0.8473279
v -0.65668476 0.31629574 -0.8473279
v -0.6566847 0.10446249 0.8473353
v -0.6566847 0.31629658 0.8473353
v -0.65668476 0.10446211 -0.8473279
v -0.6566847 0.10446249 0.8473353
v -1.2074515 0.10446211 -0.8473342
v -1.2074515 0.10446249 0.84733516
v -1.2074515 -0.10737157 -0.8473342
v -1.2074515 0.10446211 -0.8473342
v -1.2074515 -0.107371174 0.84733516
v -1.2074515 0.10446249 0.84733516
v -1.2074515 -0.10737157 -0.8473342
v -1.2074515 -0.107371174 0.84733516
v -1.5887517 -0.10737157 -0.8473342
v -1.5887518 -0.107371174 0.84733516
v -1.5887517 -0.14973824 -0.8473342
v -1.5887517 -0.10737157 -0.8473342
v -1.5887518 -0.14973782 0.84733516
v -1.5887518 -0.107371174 0.84733516
v -1.5887517 -0.14973824 -0.8473342
v -1.5887518 -0.14973782 0.84733516
v -1.6311188 -0.14973824 -0.8473342
v -1.6311189 -0.14973782 0.84733516
v -1.6311188 -0.44630522 -0.8473342
v -1.6311188 -0.14973824 -0.8473342
v -1.6311189 -0.44630486 0.84733516
v -1.6311189 -0.14973782 0.84733516
v -1.6311188 -0.44630522 -0.8473342
v -1.6311189 -0.44630486 0.84733516
v -1.6734859 -0.44630522 -0.8473342
v -1.6734861 -0.44630486 0.84733516
v -1.6734861 -0.4886715 0.84733516
v -1.6734859 -0.4886719 -0.8473342
v -1.6734861 -0.44630486 0.84733516
v -1.6734859 -0.44630522 -0.8473342
v -1.6311189 -0.14973782 0.84733516
v -1.5887518 -0.14973782 0.84733516
v -1.6311189 -0.44630486 0.84733516
v 1.6311185 -0.4886715 0.84733516
v -1.6734861 -0.44630486 0.84733516
v 1.7158511 -0.5310385 0.84733516
v -1.6734861 -0.4886715 0.84733516
v -1.7158531 -0.4886715 0.84733516
v 1.7158511 -0.4886715 0.84733516
v -1.7158531 -0.5310385 0.84733516
v 1.7582182 -0.65522957 0.84733516
v 1.7582182 -0.5310385 0.84733516
v -1.7582185 -0.5310385 0.84733516
v -1.7582152 -0.65522957 0.84733516
v 1.461652 -0.23447116 0.84733516
v 1.6311185 -0.23447116 0.84733516
v -1.2074515 -0.107371174 0.84733516
v -1.5887518 -0.107371174 0.84733516
v 1.3769177 -0.06500452 0.84733516
v 1.461652 -0.06500452 0.84733516
v 1.3345509 0.019729184 0.84733516
v 1.3769177 0.019729184 0.84733516
v -0.6566847 0.10446249 0.8473353
v -1.2074515 0.10446249 0.84733516
v 1.1650842 0.062095847 0.8473353
v 1.3345509 0.062095847 0.84733516
v 1.1650842 0.48576277 0.8473353
v -0.48721796 0.31629658 0.8473353
v -0.6566847 0.31629658 0.8473353
v 1.1227171 0.48576277 0.8473353
v 1.1227171 0.61286306 0.8473353
v 1.08035 0.61286306 0.8473353
v -0.44485095 0.61286306 0.84733534
v -0.48721796 0.61286306 0.84733534
v 1.08035 0.65522987 0.8473353
v -0.44485095 0.65522987 0.84733534
vt 0.6694336 0.53466797
vt 0.6694336 0.54296875
vt 0.9980469 0.53466797
vt 0.9980469 0.54296875
vt 0.6699219 0.515625
vt 0.6699219 0.5263672
vt 0.9980469 0.515625
vt 0.9980469 0.5263672
vt 0.6694336 0.53466797
vt 0.9980469 0.53466797
vt 0.6699219 0.5263672
vt 0.9980469 0.5263672
vt 0.6694336 0.55078125
vt 0.9980469 0.55078125
vt 0.6694336 0.54296875
vt 0.9980469 0.54296875
vt 0.65625 0.6791992
vt 0.34399414 0.6791992
vt 0.65625 0.9746094
vt 0.34399414 0.9746094
vt 0.8364258 0.45507812
vt 0.8364258 0.39770508
vt 0.828125 0.45507812
vt 0.20483398 0.3894043
vt 0.84472656 0.39770508
vt 0.18835449 0.38134766
vt 0.84472656 0.3894043
vt 0.85302734 0.3894043
vt 0.18835449 0.3894043
vt 0.85302734 0.38134766
vt 0.18017578 0.3557129
vt 0.18017578 0.38134766
vt 0.8613281 0.38134766
vt 0.8613281 0.3557129
vt 0.23754883 0.4387207
vt 0.20483398 0.4387207
vt 0.75439453 0.4633789
vt 0.828125 0.4633789
vt 0.25390625 0.47143555
vt 0.23754883 0.47143555
vt 0.26220703 0.48779297
vt 0.25390625 0.48779297
vt 0.6479492 0.50439453
vt 0.75439453 0.50439453
vt 0.29492188 0.49609375
vt 0.26220703 0.49609375
vt 0.29492188 0.578125
vt 0.6147461 0.54541016
vt 0.6479492 0.54541016
vt 0.30322266 0.578125
vt 0.30322266 0.60253906
vt 0.31152344 0.60253906
vt 0.6069336 0.60253906
vt 0.6147461 0.60253906
vt 0.31152344 0.61083984
vt 0.6069336 0.61083984
vt 0.33251953 0.6455078
vt 0.33251953 0.6230469
vt 0.004371643 0.6455078
vt 0.004371643 0.6230469
vt 0.33251953 0.6455078
vt 0.004371643 0.6455078
vt 0.33251953 0.6538086
vt 0.004371643 0.6538086
vt 0.004371643 0.6538086
vt 0.004371643 0.6621094
vt 0.33251953 0.6538086
vt 0.33251953 0.6621094
vt 0.33251953 0.6621094
vt 0.004371643 0.6621094
vt 0.33251953 0.67871094
vt 0.004371643 0.67871094
vt 0.004371643 0.67871094
vt 0.004371643 0.72753906
vt 0.33251953 0.67871094
vt 0.33251953 0.72753906
vt 0.33251953 0.72753906
vt 0.004371643 0.72753906
vt 0.33251953 0.7607422
vt 0.004371643 0.7607422
vt 0.33251953 0.7607422
vt 0.004371643 0.7607422
vt 0.33251953 0.79345703
vt 0.004371643 0.79345703
vt 0.33251953 0.79345703
vt 0.004371643 0.79345703
vt 0.33251953 0.8095703
vt 0.004371643 0.8095703
vt 0.33251953 0.8095703
vt 0.004371643 0.8095703
vt 0.33251953 0.8261719
vt 0.004371643 0.8261719
vt 0.33251953 0.8261719
vt 0.004371643 0.8261719
vt 0.33251953 0.83447266
vt 0.004371643 0.83447266
vt 0.33251953 0.83447266
vt 0.004371643 0.83447266
vt 0.33251953 0.84277344
vt 0.004371643 0.84277344
vt 0.33251953 0.84277344
vt 0.004371643 0.84277344
vt 0.33251953 0.8754883
vt 0.004371643 0.8754883
vt 0.33251953 0.8754883
vt 0.004371643 0.8754883
vt 0.33251953 0.9609375
vt 0.004371643 0.9609375
vt 0.33251953 0.9609375
vt 0.004371643 0.9609375
vt 0.33251953 0.96728516
vt 0.004371643 0.96728516
vt 0.33251953 0.96728516
vt 0.004371643 0.96728516
vt 0.33251953 0.99560547
vt 0.004371643 0.99560547
vt 0.65625 0.67089844
vt 0.65625 0.66308594
vt 0.34375 0.67089844
vt 0.34375 0.66308594
vt 0.65625 0.67089844
vt 0.34375 0.67089844
vt 0.65625 0.6791992
vt 0.34399414 0.6791992
vt 0.65625 0.9746094
vt 0.34399414 0.9746094
vt 0.65625 0.98291016
vt 0.34399414 0.98291016
vt 0.65625 0.99072266
vt 0.65625 0.98291016
vt 0.34399414 0.99072266
vt 0.34399414 0.98291016
vt 0.6694336 0.9370117
vt 0.6694336 0.9941406
vt 0.9980469 0.9370117
vt 0.9980469 0.9941406
vt 0.6694336 0.9370117
vt 0.9980469 0.9370117
vt 0.6694336 0.9042969
vt 0.9980469 0.9042969
vt 0.6694336 0.86328125
vt 0.6694336 0.9042969
vt 0.9980469 0.86328125
vt 0.9980469 0.9042969
vt 0.6694336 0.86328125
vt 0.9980469 0.86328125
vt 0.6694336 0.75634766
vt 0.9980469 0.75634766
vt 0.6694336 0.71533203
vt 0.6694336 0.75634766
vt 0.9980469 0.71533203
vt 0.9980469 0.75634766
vt 0.6694336 0.71533203
vt 0.9980469 0.71533203
vt 0.6694336 0.64160156
vt 0.9980469 0.64160156
vt 0.6694336 0.6333008
vt 0.6694336 0.64160156
vt 0.9980469 0.6333008
vt 0.9980469 0.64160156
vt 0.6694336 0.6333008
vt 0.9980469 0.6333008
vt 0.6694336 0.625
vt 0.9980469 0.625
vt 0.6694336 0.5673828
vt 0.6694336 0.625
vt 0.9980469 0.5673828
vt 0.9980469 0.625
vt 0.6694336 0.5673828
vt 0.9980469 0.5673828
vt 0.6694336 0.55908203
vt 0.9980469 0.55908203
vt 0.9980469 0.55078125
vt 0.6694336 0.55078125
vt 0.9980469 0.55908203
vt 0.6694336 0.55908203
vt 0.8364258 0.45507812
vt 0.828125 0.45507812
vt 0.8364258 0.39770508
vt 0.20483398 0.3894043
vt 0.84472656 0.39770508
vt 0.18835449 0.38134766
vt 0.84472656 0.3894043
vt 0.85302734 0.3894043
vt 0.18835449 0.3894043
vt 0.85302734 0.38134766
vt 0.18017578 0.3557129
vt 0.18017578 0.38134766
vt 0.8613281 0.38134766
vt 0.8613281 0.3557129
vt 0.23754883 0.4387207
vt 0.20483398 0.4387207
vt 0.75439453 0.4633789
vt 0.828125 0.4633789
vt 0.25390625 0.47143555
vt 0.23754883 0.47143555
vt 0.26220703 0.48779297
vt 0.25390625 0.48779297
vt 0.6479492 0.50439453
vt 0.75439453 0.50439453
vt 0.29492188 0.49609375
vt 0.26220703 0.49609375
vt 0.29492188 0.578125
vt 0.6147461 0.54541016
vt 0.6479492 0.54541016
vt 0.30322266 0.578125
vt 0.30322266 0.60253906
vt 0.31152344 0.60253906
vt 0.6069336 0.60253906
vt 0.6147461 0.60253906
vt 0.31152344 0.61083984
vt 0.6069336 0.61083984
vn -1 0 -1.7881393E-07
vn -1 0 -1.7881393E-07
vn -1 0 -1.7881393E-07
vn -1 0 -1.7881393E-07
vn -1 -2.7000904E-05 0
vn -1 -2.7000904E-05 0
vn -1 -2.7000904E-05 0
vn -1 -2.7000904E-05 0
vn -0 1 -2.3841858E-07
vn -0 1 -2.3841858E-07
vn -0 1 -2.3841858E-07
vn -0 1 -2.3841858E-07
vn -0 1 -2.3841858E-07
vn -0 1 -2.3841858E-07
vn -0 1 -2.3841858E-07
vn -0 1 -2.3841858E-07
vn -0 1 -2.9802322E-07
vn -0 1 -2.9802322E-07
vn -0 1 -2.9802322E-07
vn -0 1 -2.9802322E-07
vn -0 0 -1
vn -0 0 -1
vn -0 0 -1
vn 1.9669533E-06 -2.9802322E-07 -1
vn 1.847744E-06 0 -1
vn -0 0 -1
vn 1.847744E-06 0 -1
vn -0 -0.00014948845 -1
vn -0 0 -1
vn 1.847744E-06 0 -1
vn 1.847744E-06 -4.9114227E-05 -1
vn -0 -4.976988E-05 -1
vn -0 -0.00010073185 -1
vn 3.5762787E-06 0 -1
vn 2.0861626E-06 1.4305115E-06 -1
vn -0 0 -1
vn 1.66893E-06 -1.4960766E-05 -1
vn -0 0 -1
vn 2.4437904E-06 1.1920929E-06 -1
vn -0 0 -1
vn 2.4437904E-06 1.1920929E-06 -1
vn -0 0 -1
vn 1.1324883E-06 2.69413E-05 -1
vn 1.1503696E-05 0 -1
vn -0 0 -1
vn -0 0 -1
vn -0 0 -1
vn -0 0 -1
vn -0 0 -1
vn -0 0 -1
vn -0 0 -1
vn -0 0 -1
vn -0 2.3841858E-07 -1
vn -0 2.3841858E-07 -1
vn -0 0 -1
vn -0 0 -1
vn 1 0 1.7881393E-07
vn 1 0 1.7881393E-07
vn 1 0 1.7881393E-07
vn 1 0 1.7881393E-07
vn -0 1 -2.3841858E-07
vn -0 1 -2.3841858E-07
vn -0 1 -2.3841858E-07
vn -0 1 -2.3841858E-07
vn 1 0 0
vn 1 0 0
vn 1 0 0
vn 1 0 0
vn -0 1 -2.3841858E-07
vn -0 1 -2.3841858E-07
vn -0 1 -2.3841858E-07
vn -0 1 -2.3841858E-07
vn 1 0 0
vn 1 0 0
vn 1 0 0
vn 1 0 0
vn -0 1 -4.7683716E-07
vn -0 1 -4.7683716E-07
vn -0 1 -4.7683716E-07
vn -0 1 -4.7683716E-07
vn 1 0 0
vn 1 0 0
vn 1 0 0
vn 1 0 0
vn -0 1 -2.3841858E-07
vn -0 1 -2.3841858E-07
vn -0 1 -2.3841858E-07
vn -0 1 -2.3841858E-07
vn 1 0 1.7881393E-07
vn 1 0 1.7881393E-07
vn 1 0 1.7881393E-07
vn 1 0 1.7881393E-07
vn -0 1 -4.7683716E-07
vn -0 1 -4.7683716E-07
vn -0 1 -4.7683716E-07
vn -0 1 -4.7683716E-07
vn 1 0 0
vn 1 0 0
vn 1 0 0
vn 1 0 0
vn -0 1 -2.3841858E-07
vn -0 1 -2.3841858E-07
vn -0 1 -2.3841858E-07
vn -0 1 -2.3841858E-07
vn 1 0 0
vn 1 0 0
vn 1 0 0
vn 1 0 0
vn -0 1 -2.3841858E-07
vn -0 1 -2.3841858E-07
vn -0 1 -2.3841858E-07
vn -0 1 -2.3841858E-07
vn 1 0 0
vn 1 0 0
vn 1 0 0
vn 1 0 0
vn -0 1 -1.7881393E-07
vn -0 1 -1.7881393E-07
vn -0 1 -1.7881393E-07
vn -0 1 -1.7881393E-07
vn 1 0 0
vn 1 0 0
vn 1 0 0
vn 1 0 0
vn -1 0 0
vn -1 0 0
vn -1 0 0
vn -1 0 0
vn -0 1 -1.7881393E-07
vn -0 1 -1.7881393E-07
vn -0 1 -1.7881393E-07
vn -0 1 -1.7881393E-07
vn -1 0 0
vn -1 0 0
vn -1 0 0
vn -1 0 0
vn -0 1 -4.7683716E-07
vn -0 1 -4.7683716E-07
vn -0 1 -4.7683716E-07
vn -0 1 -4.7683716E-07
vn -1 0 0
vn -1 0 0
vn -1 0 0
vn -1 0 0
vn -0 1 -2.3841858E-07
vn -0 1 -2.3841858E-07
vn -0 1 -2.3841858E-07
vn -0 1 -2.3841858E-07
vn -1 0 0
vn -1 0 0
vn -1 0 0
vn -1 0 0
vn -0 1 -2.3841858E-07
vn -0 1 -2.3841858E-07
vn -0 1 -2.3841858E-07
vn -0 1 -2.3841858E-07
vn -1 0 0
vn -1 0 0
vn -1 0 0
vn -1 0 0
vn -0 1 -2.3841858E-07
vn -0 1 -2.3841858E-07
vn -0 1 -2.3841858E-07
vn -0 1 -2.3841858E-07
vn -1 0 0
vn -1 0 0
vn -1 0 0
vn -1 0 0
vn -0 1 -2.3841858E-07
vn -0 1 -2.3841858E-07
vn -0 1 -2.3841858E-07
vn -0 1 -2.3841858E-07
vn -1 0 -1.7881393E-07
vn -1 0 -1.7881393E-07
vn -1 0 -1.7881393E-07
vn -1 0 -1.7881393E-07
vn -0 0 1
vn -0 0 1
vn -0 0 1
vn -0 0 1
vn -0 0 1
vn -0 0 1
vn -0 0 1
vn -0 0 1
vn -0 0 1
vn -0 0 1
vn -0 0 1
vn -0 0 1
vn -0 0 1
vn -0 0 1
vn -0 0 1
vn -0 0 1
vn -0 0 1
vn -0 0 1
vn -0 0 1
vn -0 0 1
vn -0 0 1
vn -0 0 1
vn -0 -4.172325E-07 1
vn -1.1920929E-07 0 1
vn -0 -1.9669533E-06 1
vn 4.7683716E-07 0 1
vn -0 0 1
vn -0 0 1
vn -0 0 1
vn -0 0 1
vn -0 0 1
vn -0 0 1
vn -0 -2.3841858E-07 1
vn -0 -2.3841858E-07 1
vn -0 0 1
vn -0 0 1
g Rocks_Medium_006_0
f 3/3/3 2/2/2 1/1/1
f 2/2/2 3/3/3 4/4/4
f 7/7/7 6/6/6 5/5/5
f 6/6/6 7/7/7 8/8/8
f 11/11/11 10/10/10 9/9/9
f 10/10/10 11/11/11 12/12/12
f 15/15/15 14/14/14 13/13/13
f 14/14/14 15/15/15 16/16/16
f 19/19/19 18/18/18 17/17/17
f 18/18/18 19/19/19 20/20/20
f 23/23/23 22/22/22 21/21/21
f 23/23/23 24/24/24 22/22/22
f 22/22/22 24/24/24 25/25/25
f 25/25/25 24/24/24 26/26/26
f 25/25/25 26/26/26 27/27/27
f 26/26/26 28/28/28 27/27/27
f 26/26/26 24/24/24 29/29/29
f 28/28/28 26/26/26 30/30/30
f 30/30/30 26/26/26 31/31/31
f 31/31/31 26/26/26 32/32/32
f 30/30/30 31/31/31 33/33/33
f 33/33/33 31/31/31 34/34/34
f 35/35/35 24/24/24 23/23/23
f 36/36/36 24/24/24 35/35/35
f 23/23/23 37/37/37 35/35/35
f 37/37/37 23/23/23 38/38/38
f 39/39/39 35/35/35 37/37/37
f 35/35/35 39/39/39 40/40/40
f 39/39/39 37/37/37 41/41/41
f 39/39/39 41/41/41 42/42/42
f 41/41/41 37/37/37 43/43/43
f 43/43/43 37/37/37 44/44/44
f 45/45/45 41/41/41 43/43/43
f 41/41/41 45/45/45 46/46/46
f 45/45/45 43/43/43 47/47/47
f 47/47/47 43/43/43 48/48/48
f 48/48/48 43/43/43 49/49/49
f 47/47/47 48/48/48 50/50/50
f 50/50/50 48/48/48 51/51/51
f 51/51/51 48/48/48 52/52/52
f 52/52/52 48/48/48 53/53/53
f 53/53/53 48/48/48 54/54/54
f 53/53/53 55/55/55 52/52/52
f 55/55/55 53/53/53 56/56/56
f 59/59/59 58/58/58 57/57/57
f 58/58/58 59/59/59 60/60/60
f 63/63/63 62/62/62 61/61/61
f 62/62/62 63/63/63 64/64/64
f 67/67/67 66/66/66 65/65/65
f 66/66/66 67/67/67 68/68/68
f 71/71/71 70/70/70 69/69/69
f 70/70/70 71/71/71 72/72/72
f 75/75/75 74/74/74 73/73/73
f 74/74/74 75/75/75 76/76/76
f 79/79/79 78/78/78 77/77/77
f 78/78/78 79/79/79 80/80/80
f 83/83/83 82/82/82 81/81/81
f 82/82/82 83/83/83 84/84/84
f 87/87/87 86/86/86 85/85/85
f 86/86/86 87/87/87 88/88/88
f 91/91/91 90/90/90 89/89/89
f 90/90/90 91/91/91 92/92/92
f 95/95/95 94/94/94 93/93/93
f 94/94/94 95/95/95 96/96/96
f 99/99/99 98/98/98 97/97/97
f 98/98/98 99/99/99 100/100/100
f 103/103/103 102/102/102 101/101/101
f 102/102/102 103/103/103 104/104/104
f 107/107/107 106/106/106 105/105/105
f 106/106/106 107/107/107 108/108/108
f 111/111/111 110/110/110 109/109/109
f 110/110/110 111/111/111 112/112/112
f 115/115/115 114/114/114 113/113/113
f 114/114/114 115/115/115 116/116/116
f 119/119/119 118/118/118 117/117/117
f 118/118/118 119/119/119 120/120/120
f 123/123/123 122/122/122 121/121/121
f 122/122/122 123/123/123 124/124/124
f 127/127/127 126/126/126 125/125/125
f 126/126/126 127/127/127 128/128/128
f 131/131/131 130/130/130 129/129/129
f 130/130/130 131/131/131 132/132/132
f 135/135/135 134/134/134 133/133/133
f 134/134/134 135/135/135 136/136/136
f 139/139/139 138/138/138 137/137/137
f 138/138/138 139/139/139 140/140/140
f 143/143/143 142/142/142 141/141/141
f 142/142/142 143/143/143 144/144/144
f 147/147/147 146/146/146 145/145/145
f 146/146/146 147/147/147 148/148/148
f 151/151/151 150/150/150 149/149/149
f 150/150/150 151/151/151 152/152/152
f 155/155/155 154/154/154 153/153/153
f 154/154/154 155/155/155 156/156/156
f 159/159/159 158/158/158 157/157/157
f 158/158/158 159/159/159 160/160/160
f 163/163/163 162/162/162 161/161/161
f 162/162/162 163/163/163 164/164/164
f 167/167/167 166/166/166 165/165/165
f 166/166/166 167/167/167 168/168/168
f 171/171/171 170/170/170 169/169/169
f 170/170/170 171/171/171 172/172/172
f 175/175/175 174/174/174 173/173/173
f 174/174/174 175/175/175 176/176/176
f 179/179/179 178/178/178 177/177/177
f 180/180/180 178/178/178 179/179/179
f 180/180/180 179/179/179 181/181/181
f 180/180/180 181/181/181 182/182/182
f 182/182/182 181/181/181 183/183/183
f 184/184/184 182/182/182 183/183/183
f 180/180/180 182/182/182 185/185/185
f 182/182/182 184/184/184 186/186/186
f 182/182/182 186/186/186 187/187/187
f 182/182/182 187/187/187 188/188/188
f 187/187/187 186/186/186 189/189/189
f 187/187/187 189/189/189 190/190/190
f 180/180/180 191/191/191 178/178/178
f 180/180/180 192/192/192 191/191/191
f 193/193/193 178/178/178 191/191/191
f 178/178/178 193/193/193 194/194/194
f 191/191/191 195/195/195 193/193/193
f 195/195/195 191/191/191 196/196/196
f 193/193/193 195/195/195 197/197/197
f 197/197/197 195/195/195 198/198/198
f 193/193/193 197/197/197 199/199/199
f 193/193/193 199/199/199 200/200/200
f 197/197/197 201/201/201 199/199/199
f 201/201/201 197/197/197 202/202/202
f 199/199/199 201/201/201 203/203/203
f 199/199/199 203/203/203 204/204/204
f 199/199/199 204/204/204 205/205/205
f 204/204/204 203/203/203 206/206/206
f 204/204/204 206/206/206 207/207/207
f 204/204/204 207/207/207 208/208/208
f 204/204/204 208/208/208 209/209/209
f 204/204/204 209/209/209 210/210/210
f 211/211/211 209/209/209 208/208/208
f 209/209/209 211/211/211 212/212/212
