g Rocks_Medium_003
v -1.6875488 -1.0060643 -0.6804663
v -1.714768 -1.0060643 -0.6804663
v -1.714768 -1.1441996 -0.6804651
v 1.714768 -1.1441996 -0.6804651
v -1.6603296 -0.9788458 -0.6804663
v -1.6875488 -0.9788458 -0.6804663
v -1.6331128 -0.9516272 -0.6804663
v -1.6603296 -0.9516272 -0.6804663
v -1.6058935 -0.8155345 -0.6804663
v -1.6331128 -0.8155345 -0.6804663
v 1.6058984 -0.6250047 -0.6804663
v 1.714768 -0.6250047 -0.6804663
v -1.497019 -0.7883157 -0.6804663
v -1.6058935 -0.7883157 -0.6804663
v 1.6058984 -0.32560056 -0.6804663
v 1.5786767 -0.32560056 -0.6804663
v -1.4697974 -0.32560056 -0.6804663
v -1.497019 -0.32560056 -0.6804663
v 1.5786767 -0.29838195 -0.6804663
v 1.2792724 -0.29838195 -0.6804663
v -1.333706 -0.29838195 -0.6804663
v -1.4697974 -0.29838195 -0.6804663
v -1.3064868 -0.16228911 -0.6804663
v -1.333706 -0.16228911 -0.6804663
v -0.68046385 -0.1350708 -0.6804663
v -1.3064868 -0.1350708 -0.6804663
v 1.2792724 0.1643332 -0.6804663
v 1.2520531 0.1643332 -0.6804663
v 0.9526489 0.19155182 -0.6804663
v 1.2520531 0.19155182 -0.6804663
v -0.68046385 0.19155182 -0.6804663
v -0.8437744 0.21877044 -0.6804663
v -0.8437744 0.19155182 -0.6804663
v 0.9526489 0.6814856 -0.6804663
v -0.8982104 0.24598907 -0.6804663
v -0.8982104 0.21877044 -0.6804663
v -0.9526489 0.2732074 -0.6804663
v -0.9526489 0.24598907 -0.6804663
v -1.007085 0.2732074 -0.6804663
v -0.97986573 0.81757873 -0.6804663
v -1.007085 0.81757873 -0.6804663
v 1.0070873 0.6814856 -0.6804663
v 1.0070873 0.70870423 -0.6804663
v -0.97986573 0.8447949 -0.6804663
v 1.0615234 0.7359225 -0.6804663
v 1.0615234 0.70870423 -0.6804663
v -0.68046385 0.8447949 -0.6804663
v 1.0887426 0.9808874 -0.6804663
v -0.35384032 1.0081085 -0.6804663
v 1.1159619 0.7359225 -0.6804663
v 1.1159619 0.9808874 -0.6804663
v -0.6532446 0.9808874 -0.6804663
v -0.68046385 0.9808874 -0.6804663
v -0.6532446 1.0081085 -0.6804663
v 0.9526489 1.0081085 -0.6804663
v 1.0887426 1.0081085 -0.6804663
v 0.9526489 1.1169827 -0.6804663
v 0.9254321 1.1169827 -0.6804663
v -0.3266211 1.1169827 -0.6804663
v -0.35384032 1.1169827 -0.6804663
v 0.9254321 1.1442007 -0.6804663
v -0.3266211 1.1442007 -0.6804663
v -1.714768 -1.1441996 -0.6804651
v -1.714768 -1.0060643 -0.6804663
v -1.714768 -1.1441996 0.68046266
v -1.7147704 -1.0060643 0.68045896
v -1.6875488 -1.0060643 -0.6804663
v -1.6875513 -1.0060643 0.68045896
v -1.714768 -1.0060643 -0.6804663
v -1.7147704 -1.0060643 0.68045896
v -1.6875488 -0.9788458 -0.6804663
v -1.6875513 -0.9788458 0.68045896
v -1.6875488 -1.0060643 -0.6804663
v -1.6875513 -1.0060643 0.68045896
v -1.6603296 -0.9788458 -0.6804663
v -1.6603345 -0.9788458 0.68045896
v -1.6875488 -0.9788458 -0.6804663
v -1.6875513 -0.9788458 0.68045896
v -1.6603345 -0.9788458 0.68045896
v -1.6603296 -0.9788458 -0.6804663
v -1.6603345 -0.9516272 0.68045896
v -1.6603296 -0.9516272 -0.6804663
v -1.6331128 -0.9516272 -0.6804663
v -1.6331152 -0.9516272 0.68045896
v -1.6603296 -0.9516272 -0.6804663
v -1.6603345 -0.9516272 0.68045896
v -1.6331128 -0.8155345 -0.6804663
v -1.6331152 -0.8155345 0.68045896
v -1.6331128 -0.9516272 -0.6804663
v -1.6331152 -0.9516272 0.68045896
v -1.6058935 -0.8155345 -0.6804663
v -1.605896 -0.8155345 0.68045896
v -1.6331128 -0.8155345 -0.6804663
v -1.6331152 -0.8155345 0.68045896
v -1.6058935 -0.7883157 -0.6804663
v -1.605896 -0.7883157 0.68045896
v -1.6058935 -0.8155345 -0.6804663
v -1.605896 -0.8155345 0.68045896
v -1.605896 -0.7883157 0.68045896
v -1.6058935 -0.7883157 -0.6804663
v -1.4970214 -0.7883157 0.68045896
v -1.497019 -0.7883157 -0.6804663
v -1.497019 -0.32560056 -0.6804663
v -1.4970214 -0.3256009 0.68045896
v -1.497019 -0.7883157 -0.6804663
v -1.4970214 -0.7883157 0.68045896
v -1.4697974 -0.32560056 -0.6804663
v -1.4698046 -0.3256009 0.68045896
v -1.497019 -0.32560056 -0.6804663
v -1.4970214 -0.3256009 0.68045896
v -1.4697974 -0.29838195 -0.6804663
v -1.4698046 -0.29838225 0.68045896
v -1.4697974 -0.32560056 -0.6804663
v -1.4698046 -0.3256009 0.68045896
v -1.4697974 -0.29838195 -0.6804663
v -1.333706 -0.29838195 -0.6804663
v -1.4698046 -0.29838225 0.68045896
v -1.3337109 -0.29838225 0.68045896
v -1.333706 -0.16228911 -0.6804663
v -1.3337109 -0.16228943 0.68045896
v -1.333706 -0.29838195 -0.6804663
v -1.3337109 -0.29838225 0.68045896
v -1.3064868 -0.16228911 -0.6804663
v -1.3064916 -0.16228943 0.68045896
v -1.333706 -0.16228911 -0.6804663
v -1.3337109 -0.16228943 0.68045896
v -1.3064868 -0.1350708 -0.6804663
v -1.3064916 -0.1350708 0.68045896
v -1.3064868 -0.16228911 -0.6804663
v -1.3064916 -0.16228943 0.68045896
v -0.68046385 -0.1350708 0.68045896
v -1.3064916 -0.1350708 0.68045896
v -0.68046385 -0.1350708 -0.6804663
v -1.3064868 -0.1350708 -0.6804663
v -0.68046385 0.19155182 -0.6804663
v -0.68046385 0.19155121 0.68045896
v -0.68046385 -0.1350708 -0.6804663
v -0.68046385 -0.1350708 0.68045896
v -0.8437744 0.21876983 0.68045896
v -0.8437744 0.19155121 0.68045896
v -0.8437744 0.21877044 -0.6804663
v -0.8437744 0.19155182 -0.6804663
v -0.8982104 0.21877044 -0.6804663
v -0.8982104 0.24598907 -0.6804663
v -0.89821285 0.21876983 0.68045896
v -0.89821285 0.24598877 0.68045896
v -0.9526489 0.2732074 -0.6804663
v -0.9526513 0.2732071 0.68045896
v -0.9526489 0.24598907 -0.6804663
v -0.9526513 0.24598877 0.68045896
v -1.007085 0.81757873 -0.6804663
v -1.007085 0.81757843 0.68045896
v -1.007085 0.2732074 -0.6804663
v -1.007085 0.2732071 0.68045896
v -0.97986573 0.81757873 -0.6804663
v -0.97987056 0.81757843 0.68045896
v -1.007085 0.81757873 -0.6804663
v -1.007085 0.81757843 0.68045896
v -0.97986573 0.8447949 -0.6804663
v -0.97987056 0.8447946 0.68045896
v -0.97986573 0.81757873 -0.6804663
v -0.97987056 0.81757843 0.68045896
v -0.68046385 0.8447946 0.68045896
v -0.97987056 0.8447946 0.68045896
v -0.68046385 0.8447949 -0.6804663
v -0.97986573 0.8447949 -0.6804663
v -0.68046385 0.9808874 -0.6804663
v -0.68046385 0.9808871 0.68045896
v -0.68046385 0.8447949 -0.6804663
v -0.68046385 0.8447946 0.68045896
v -0.68046385 0.9808874 -0.6804663
v -0.6532446 0.9808874 -0.6804663
v -0.68046385 0.9808871 0.68045896
v -0.65324706 0.9808871 0.68045896
v -0.6532446 1.0081085 -0.6804663
v -0.65324706 1.0081081 0.68045896
v -0.6532446 0.9808874 -0.6804663
v -0.65324706 0.9808871 0.68045896
v -0.35384277 1.0081081 0.68045896
v -0.65324706 1.0081081 0.68045896
v -0.35384032 1.0081085 -0.6804663
v -0.6532446 1.0081085 -0.6804663
v -0.35384032 1.1169827 -0.6804663
v -0.35384277 1.1169823 0.68045896
v -0.35384032 1.0081085 -0.6804663
v -0.35384277 1.0081081 0.68045896
v -0.3266211 1.1169827 -0.6804663
v -0.32662353 1.1169823 0.68045896
v -0.35384032 1.1169827 -0.6804663
v -0.35384277 1.1169823 0.68045896
v -0.3266211 1.1442007 -0.6804663
v -0.32662353 1.1442004 0.68045896
v -0.3266211 1.1169827 -0.6804663
v -0.32662353 1.1169823 0.68045896
v -0.32662353 1.1442004 0.68045896
v -0.3266211 1.1442007 -0.6804663
v 0.9254345 1.1442004 0.68046266
v 0.9254321 1.1442007 -0.6804663
v 0.9254321 1.1442007 -0.6804663
v 0.9254321 1.1169827 -0.6804663
v 0.9254345 1.1442004 0.68046266
v 0.9254345 1.1169823 0.68046266
v 0.9526489 1.1169827 -0.6804663
v 0.9526513 1.1169823 0.68046266
v 0.9254321 1.1169827 -0.6804663
v 0.9254345 1.1169823 0.68046266
v 0.9526489 1.1169827 -0.6804663
v 0.9526489 1.0081085 -0.6804663
v 0.9526513 1.1169823 0.68046266
v 0.9526513 1.0081081 0.68046266
v 1.0887426 1.0081085 -0.6804663
v 1.0887451 1.0081081 0.68046266
v 0.9526489 1.0081085 -0.6804663
v 0.9526513 1.0081081 0.68046266
v 1.0887426 1.0081085 -0.6804663
v 1.0887426 0.9808874 -0.6804663
v 1.0887451 1.0081081 0.68046266
v 1.0887451 0.9808871 0.68046266
v 1.1159619 0.9808874 -0.6804663
v 1.1159643 0.9808871 0.68046266
v 1.0887426 0.9808874 -0.6804663
v 1.0887451 0.9808871 0.68046266
v 1.1159619 0.9808874 -0.6804663
v 1.1159619 0.7359225 -0.6804663
v 1.1159643 0.9808871 0.68046266
v 1.1159643 0.7359222 0.68046266
v 1.0615234 0.70870423 -0.6804663
v 1.0615258 0.7087039 0.68046266
v 1.0615234 0.7359225 -0.6804663
v 1.0615258 0.7359222 0.68046266
v 1.0070873 0.70870423 -0.6804663
v 1.0070873 0.6814856 -0.6804663
v 1.0070899 0.7087039 0.68046266
v 1.0070899 0.6814853 0.68046266
v 0.9526489 0.6814856 -0.6804663
v 0.9526489 0.19155182 -0.6804663
v 0.9526513 0.6814853 0.68046266
v 0.9526513 0.19155121 0.68046266
v 1.2520531 0.19155182 -0.6804663
v 1.2520556 0.19155121 0.68046266
v 0.9526489 0.19155182 -0.6804663
v 0.9526513 0.19155121 0.68046266
v 1.2520531 0.1643332 -0.6804663
v 1.2520556 0.16433288 0.68046266
v 1.2520531 0.19155182 -0.6804663
v 1.2520556 0.19155121 0.68046266
v 1.2792724 0.1643332 -0.6804663
v 1.2792773 0.16433288 0.68046266
v 1.2520531 0.1643332 -0.6804663
v 1.2520556 0.16433288 0.68046266
v 1.2792724 0.1643332 -0.6804663
v 1.2792724 -0.29838195 -0.6804663
v 1.2792773 0.16433288 0.68046266
v 1.2792773 -0.29838225 0.68046266
v 1.5786767 -0.29838195 -0.6804663
v 1.5786743 -0.29838225 0.68046266
v 1.2792724 -0.29838195 -0.6804663
v 1.2792773 -0.29838225 0.68046266
v 1.5786767 -0.29838195 -0.6804663
v 1.5786767 -0.32560056 -0.6804663
v 1.5786743 -0.29838225 0.68046266
v 1.5786743 -0.3256009 0.68046266
v 1.6058984 -0.32560056 -0.6804663
v 1.6058911 -0.3256009 0.68046266
v 1.5786767 -0.32560056 -0.6804663
v 1.5786743 -0.3256009 0.68046266
v 1.6058911 -0.3256009 0.68046266
v 1.6058984 -0.32560056 -0.6804663
v 1.6058911 -0.6250047 0.68046266
v 1.6058984 -0.6250047 -0.6804663
v 1.714768 -0.6250047 -0.6804663
v 1.7147655 -0.6250047 0.68046266
v 1.6058984 -0.6250047 -0.6804663
v 1.6058911 -0.6250047 0.68046266
v 1.714768 -0.6250047 -0.6804663
v 1.714768 -1.1441996 -0.6804651
v 1.7147655 -0.6250047 0.68046266
v 1.7147655 -1.1441996 0.6804663
v -1.6875513 -1.0060643 0.68045896
v -1.714768 -1.1441996 0.68046266
v -1.7147704 -1.0060643 0.68045896
v 1.7147655 -1.1441996 0.6804663
v -1.6603345 -0.9788458 0.68045896
v -1.6875513 -0.9788458 0.68045896
v -1.6331152 -0.9516272 0.68045896
v -1.6603345 -0.9516272 0.68045896
v -1.605896 -0.8155345 0.68045896
v -1.6331152 -0.8155345 0.68045896
v 1.6058911 -0.6250047 0.68046266
v 1.7147655 -0.6250047 0.68046266
v -1.4970214 -0.7883157 0.68045896
v -1.605896 -0.7883157 0.68045896
v 1.6058911 -0.3256009 0.68046266
v 1.5786743 -0.3256009 0.68046266
v -1.4698046 -0.3256009 0.68045896
v -1.4970214 -0.3256009 0.68045896
v 1.5786743 -0.29838225 0.68046266
v 1.2792773 -0.29838225 0.68046266
v -1.3337109 -0.29838225 0.68045896
v -1.4698046 -0.29838225 0.68045896
v -1.3064916 -0.16228943 0.68045896
v -1.3337109 -0.16228943 0.68045896
v -0.68046385 -0.1350708 0.68045896
v -1.3064916 -0.1350708 0.68045896
v 1.2792773 0.16433288 0.68046266
v 1.2520556 0.16433288 0.68046266
v 0.9526513 0.19155121 0.68046266
v 1.2520556 0.19155121 0.68046266
v -0.68046385 0.19155121 0.68045896
v -0.8437744 0.21876983 0.68045896
v -0.8437744 0.19155121 0.68045896
v 0.9526513 0.6814853 0.68046266
v -0.89821285 0.24598877 0.68045896
v -0.89821285 0.21876983 0.68045896
v -0.9526513 0.2732071 0.68045896
v -0.9526513 0.24598877 0.68045896
v -1.007085 0.2732071 0.68045896
v -0.97987056 0.81757843 0.68045896
v -1.007085 0.81757843 0.68045896
v 1.0070899 0.6814853 0.68046266
v 1.0070899 0.7087039 0.68046266
v -0.97987056 0.8447946 0.68045896
v 1.0615258 0.7359222 0.68046266
v 1.0615258 0.7087039 0.68046266
v -0.68046385 0.8447946 0.68045896
v 1.0887451 0.9808871 0.68046266
v -0.35384277 1.0081081 0.68045896
v 1.1159643 0.7359222 0.68046266
v 1.1159643 0.9808871 0.68046266
v -0.65324706 0.9808871 0.68045896
v -0.68046385 0.9808871 0.68045896
v -0.65324706 1.0081081 0.68045896
v 0.9526513 1.0081081 0.68046266
v 1.0887451 1.0081081 0.68046266
v 0.9526513 1.1169823 0.68046266
v 0.9254345 1.1169823 0.68046266
v -0.32662353 1.1169823 0.68045896
v -0.35384277 1.1169823 0.68045896
v 0.9254345 1.1442004 0.68046266
v -0.32662353 1.1442004 0.68045896
v 1.0070899 0.6814853 0.68046266
v 0.9526489 0.6814856 -0.6804663
v 0.9526513 0.6814853 0.68046266
v 1.0070873 0.6814856 -0.6804663
v 1.1159643 0.7359222 0.68046266
v 1.0615234 0.7359225 -0.6804663
v 1.0615258 0.7359222 0.68046266
v 1.1159619 0.7359225 -0.6804663
v 1.0070899 0.7087039 0.68046266
v 1.0615234 0.70870423 -0.6804663
v 1.0070873 0.70870423 -0.6804663
v 1.0615258 0.7087039 0.68046266
v -0.9526513 0.2732071 0.68045896
v -1.007085 0.2732074 -0.6804663
v -1.007085 0.2732071 0.68045896
v -0.9526489 0.2732074 -0.6804663
v -0.8437744 0.19155121 0.68045896
v -0.68046385 0.19155182 -0.6804663
v -0.8437744 0.19155182 -0.6804663
v -0.68046385 0.19155121 0.68045896
v -0.89821285 0.21876983 0.68045896
v -0.8437744 0.21877044 -0.6804663
v -0.8982104 0.21877044 -0.6804663
v -0.8437744 0.21876983 0.68045896
v -0.9526513 0.24598877 0.68045896
v -0.8982104 0.24598907 -0.6804663
v -0.9526489 0.24598907 -0.6804663
v -0.89821285 0.24598877 0.68045896
vt 0.75927734 0.38745117
vt 0.7636719 0.38745117
vt 0.75927734 0.36010742
vt 0.24353027 0.36010742
vt 0.7553711 0.39135742
vt 0.75927734 0.39135742
vt 0.75097656 0.3955078
vt 0.7553711 0.3955078
vt 0.7470703 0.41601562
vt 0.75097656 0.41601562
vt 0.25927734 0.44458008
vt 0.24353027 0.44458008
vt 0.73046875 0.42016602
vt 0.7470703 0.42016602
vt 0.25927734 0.4897461
vt 0.26342773 0.4897461
vt 0.7265625 0.4897461
vt 0.73046875 0.4897461
vt 0.26342773 0.49365234
vt 0.30908203 0.49365234
vt 0.7055664 0.49365234
vt 0.7265625 0.49365234
vt 0.70166016 0.51416016
vt 0.7055664 0.51416016
vt 0.6064453 0.5185547
vt 0.70166016 0.5185547
vt 0.30908203 0.56347656
vt 0.31298828 0.56347656
vt 0.35864258 0.5673828
vt 0.31298828 0.5673828
vt 0.6064453 0.5673828
vt 0.63134766 0.57128906
vt 0.63134766 0.5673828
vt 0.35864258 0.6411133
vt 0.63964844 0.5756836
vt 0.63964844 0.57128906
vt 0.6479492 0.57958984
vt 0.6479492 0.5756836
vt 0.65625 0.57958984
vt 0.65185547 0.6616211
vt 0.65625 0.6616211
vt 0.3503418 0.6411133
vt 0.3503418 0.64501953
vt 0.65185547 0.66552734
vt 0.34204102 0.64941406
vt 0.34204102 0.64501953
vt 0.6064453 0.66552734
vt 0.33789062 0.68603516
vt 0.5571289 0.6904297
vt 0.33374023 0.64941406
vt 0.33374023 0.68603516
vt 0.60253906 0.68603516
vt 0.6064453 0.68603516
vt 0.60253906 0.6904297
vt 0.35864258 0.6904297
vt 0.33789062 0.6904297
vt 0.35864258 0.70654297
vt 0.36279297 0.70654297
vt 0.5527344 0.70654297
vt 0.5571289 0.70654297
vt 0.36279297 0.7104492
vt 0.5527344 0.7104492
vt 0.7817383 0.36010742
vt 0.7817383 0.40014648
vt 0.9863281 0.36010742
vt 0.9863281 0.40014648
vt 0.7817383 0.40429688
vt 0.9863281 0.40429688
vt 0.7817383 0.40014648
vt 0.9863281 0.40014648
vt 0.7817383 0.40844727
vt 0.9863281 0.40844727
vt 0.7817383 0.40429688
vt 0.9863281 0.40429688
vt 0.7817383 0.41235352
vt 0.9863281 0.41235352
vt 0.7817383 0.40844727
vt 0.9863281 0.40844727
vt 0.9863281 0.41235352
vt 0.7817383 0.41235352
vt 0.9863281 0.4165039
vt 0.7817383 0.4165039
vt 0.7817383 0.4206543
vt 0.9863281 0.4206543
vt 0.7817383 0.4165039
vt 0.9863281 0.4165039
vt 0.7817383 0.4411621
vt 0.9863281 0.4411621
vt 0.7817383 0.4206543
vt 0.9863281 0.4206543
vt 0.7817383 0.4453125
vt 0.9863281 0.4453125
vt 0.7817383 0.4411621
vt 0.9863281 0.4411621
vt 0.78125 0.44921875
vt 0.9863281 0.44921875
vt 0.7817383 0.4453125
vt 0.9863281 0.4453125
vt 0.9863281 0.44921875
vt 0.78125 0.44921875
vt 0.9863281 0.46557617
vt 0.7817383 0.46557617
vt 0.7817383 0.53515625
vt 0.9863281 0.53515625
vt 0.7817383 0.46557617
vt 0.9863281 0.46557617
vt 0.7817383 0.5390625
vt 0.9863281 0.5390625
vt 0.7817383 0.53515625
vt 0.9863281 0.53515625
vt 0.7817383 0.54345703
vt 0.9863281 0.54345703
vt 0.7817383 0.5390625
vt 0.9863281 0.5390625
vt 0.7817383 0.54345703
vt 0.7817383 0.56396484
vt 0.9863281 0.54345703
vt 0.9863281 0.56396484
vt 0.7817383 0.58447266
vt 0.9863281 0.58447266
vt 0.7817383 0.56396484
vt 0.9863281 0.56396484
vt 0.7817383 0.5883789
vt 0.9863281 0.5883789
vt 0.7817383 0.58447266
vt 0.9863281 0.58447266
vt 0.7817383 0.59277344
vt 0.9863281 0.59277344
vt 0.7817383 0.5883789
vt 0.9863281 0.5883789
vt 0.9863281 0.6870117
vt 0.9863281 0.59277344
vt 0.7817383 0.6870117
vt 0.7817383 0.59277344
vt 0.7817383 0.73583984
vt 0.9863281 0.73583984
vt 0.7817383 0.6870117
vt 0.9863281 0.6870117
vt 0.9863281 0.765625
vt 0.9863281 0.76171875
vt 0.78125 0.765625
vt 0.7817383 0.76171875
vt 0.7817383 0.7729492
vt 0.7817383 0.77685547
vt 0.9863281 0.7729492
vt 0.9863281 0.77685547
vt 0.7817383 0.79052734
vt 0.9863281 0.79052734
vt 0.7817383 0.7866211
vt 0.9863281 0.7866211
vt 0.7817383 0.88134766
vt 0.9863281 0.88134766
vt 0.7817383 0.7973633
vt 0.9863281 0.7973633
vt 0.7817383 0.8852539
vt 0.9863281 0.8852539
vt 0.7817383 0.88134766
vt 0.9863281 0.88134766
vt 0.7817383 0.890625
vt 0.9863281 0.890625
vt 0.7817383 0.8852539
vt 0.9863281 0.8852539
vt 0.9863281 0.93408203
vt 0.9863281 0.890625
vt 0.7817383 0.93408203
vt 0.7817383 0.890625
vt 0.7817383 0.95458984
vt 0.9863281 0.95458984
vt 0.7817383 0.93408203
vt 0.9863281 0.93408203
vt 0.7817383 0.95458984
vt 0.7817383 0.9589844
vt 0.9863281 0.95458984
vt 0.9863281 0.9589844
vt 0.7817383 0.9628906
vt 0.9863281 0.9628906
vt 0.7817383 0.9589844
vt 0.9863281 0.9589844
vt 0.39404297 0.9404297
vt 0.39404297 0.9848633
vt 0.59277344 0.9404297
vt 0.59277344 0.9848633
vt 0.59277344 0.9248047
vt 0.39404297 0.9248047
vt 0.59277344 0.9404297
vt 0.39404297 0.9404297
vt 0.59277344 0.92041016
vt 0.39404297 0.92041016
vt 0.59277344 0.9248047
vt 0.39404297 0.9248047
vt 0.59277344 0.91503906
vt 0.39404297 0.91503906
vt 0.59277344 0.92041016
vt 0.39404297 0.92041016
vt 0.39404297 0.91503906
vt 0.59277344 0.91503906
vt 0.39404297 0.73583984
vt 0.59277344 0.73583984
vt 0.21520996 0.88720703
vt 0.21520996 0.8828125
vt 0.011398315 0.88720703
vt 0.011398315 0.8828125
vt 0.21520996 0.87890625
vt 0.011398315 0.87890625
vt 0.21520996 0.8828125
vt 0.011398315 0.8828125
vt 0.21520996 0.87890625
vt 0.21520996 0.8618164
vt 0.011398315 0.87890625
vt 0.011398315 0.8618164
vt 0.21520996 0.84033203
vt 0.011398315 0.84033203
vt 0.21520996 0.8618164
vt 0.011398315 0.8618164
vt 0.21520996 0.84033203
vt 0.21520996 0.8359375
vt 0.011398315 0.84033203
vt 0.011398315 0.8359375
vt 0.21520996 0.83203125
vt 0.011398315 0.83203125
vt 0.21520996 0.8359375
vt 0.011398315 0.8359375
vt 0.21520996 0.83203125
vt 0.21520996 0.79589844
vt 0.011398315 0.83203125
vt 0.011436462 0.79589844
vt 0.21520996 0.7836914
vt 0.01146698 0.7836914
vt 0.21520996 0.78808594
vt 0.011459351 0.78808594
vt 0.21520996 0.7753906
vt 0.21520996 0.7714844
vt 0.011474609 0.7753906
vt 0.011474609 0.7714844
vt 0.21520996 0.7631836
vt 0.21520996 0.6894531
vt 0.011474609 0.7631836
vt 0.011451721 0.6894531
vt 0.21520996 0.6425781
vt 0.011451721 0.64208984
vt 0.21520996 0.6894531
vt 0.011451721 0.6894531
vt 0.21520996 0.6381836
vt 0.011451721 0.6381836
vt 0.21520996 0.6425781
vt 0.011451721 0.64208984
vt 0.21520996 0.63427734
vt 0.011451721 0.63427734
vt 0.21520996 0.6381836
vt 0.011451721 0.6381836
vt 0.21520996 0.63427734
vt 0.21520996 0.5644531
vt 0.011451721 0.63427734
vt 0.011451721 0.5644531
vt 0.21520996 0.51953125
vt 0.011451721 0.51953125
vt 0.21520996 0.5644531
vt 0.011451721 0.5644531
vt 0.21520996 0.51953125
vt 0.21520996 0.515625
vt 0.011451721 0.51953125
vt 0.011451721 0.515625
vt 0.21520996 0.51123047
vt 0.011451721 0.51123047
vt 0.21520996 0.515625
vt 0.011451721 0.515625
vt 0.011451721 0.51123047
vt 0.21520996 0.51123047
vt 0.011451721 0.46655273
vt 0.21520996 0.46655273
vt 0.21520996 0.4501953
vt 0.011451721 0.4501953
vt 0.21520996 0.46655273
vt 0.011451721 0.46655273
vt 0.21520996 0.4501953
vt 0.21520996 0.36010742
vt 0.011451721 0.4501953
vt 0.011451721 0.36010742
vt 0.75927734 0.38745117
vt 0.75927734 0.36010742
vt 0.7636719 0.38745117
vt 0.24353027 0.36010742
vt 0.7553711 0.39135742
vt 0.75927734 0.39135742
vt 0.75097656 0.3955078
vt 0.7553711 0.3955078
vt 0.7470703 0.41601562
vt 0.75097656 0.41601562
vt 0.25927734 0.44458008
vt 0.24353027 0.44458008
vt 0.73046875 0.42016602
vt 0.7470703 0.42016602
vt 0.25927734 0.4897461
vt 0.26342773 0.4897461
vt 0.7265625 0.4897461
vt 0.73046875 0.4897461
vt 0.26342773 0.49365234
vt 0.30908203 0.49365234
vt 0.7055664 0.49365234
vt 0.7265625 0.49365234
vt 0.70166016 0.51416016
vt 0.7055664 0.51416016
vt 0.6064453 0.5185547
vt 0.70166016 0.5185547
vt 0.30908203 0.56347656
vt 0.31298828 0.56347656
vt 0.35864258 0.5673828
vt 0.31298828 0.5673828
vt 0.6064453 0.5673828
vt 0.63134766 0.57128906
vt 0.63134766 0.5673828
vt 0.35864258 0.6411133
vt 0.63964844 0.5756836
vt 0.63964844 0.57128906
vt 0.6479492 0.57958984
vt 0.6479492 0.5756836
vt 0.65625 0.57958984
vt 0.65185547 0.6616211
vt 0.65625 0.6616211
vt 0.3503418 0.6411133
vt 0.3503418 0.64501953
vt 0.65185547 0.66552734
vt 0.34204102 0.64941406
vt 0.34204102 0.64501953
vt 0.6064453 0.66552734
vt 0.33789062 0.68603516
vt 0.5571289 0.6904297
vt 0.33374023 0.64941406
vt 0.33374023 0.68603516
vt 0.60253906 0.68603516
vt 0.6064453 0.68603516
vt 0.60253906 0.6904297
vt 0.35864258 0.6904297
vt 0.33789062 0.6904297
vt 0.35864258 0.70654297
vt 0.36279297 0.70654297
vt 0.5527344 0.70654297
vt 0.5571289 0.70654297
vt 0.36279297 0.7104492
vt 0.5527344 0.7104492
vt 0.011474609 0.7714844
vt 0.21520996 0.7631836
vt 0.011474609 0.7631836
vt 0.21520996 0.7714844
vt 0.011436462 0.79589844
vt 0.21520996 0.78808594
vt 0.011459351 0.78808594
vt 0.21520996 0.79589844
vt 0.011474609 0.7753906
vt 0.21520996 0.7836914
vt 0.21520996 0.7753906
vt 0.01146698 0.7836914
vt 0.9863281 0.79052734
vt 0.7817383 0.7973633
vt 0.9863281 0.7973633
vt 0.7817383 0.79052734
vt 0.9863281 0.76171875
vt 0.7817383 0.73583984
vt 0.7817383 0.76171875
vt 0.9863281 0.73583984
vt 0.9863281 0.7729492
vt 0.78125 0.765625
vt 0.7817383 0.7729492
vt 0.9863281 0.765625
vt 0.9863281 0.7866211
vt 0.7817383 0.77685547
vt 0.7817383 0.7866211
vt 0.9863281 0.77685547
vn -0 -8.821487E-06 -1
vn -0 -8.821487E-06 -1
vn -0 -8.821487E-06 -1
vn -0 -8.821487E-06 -1
vn 3.5762787E-07 -3.5762787E-07 -1
vn -0 0 -1
vn 3.5762787E-07 -3.5762787E-07 -1
vn -0 0 -1
vn 3.5762787E-07 0 -1
vn -0 0 -1
vn 1.1920929E-07 -2.3245811E-06 -1
vn -0 -2.3245811E-06 -1
vn -0 0 -1
vn -0 0 -1
vn -0 0 -1
vn -0 0 -1
vn -0 0 -1
vn -0 0 -1
vn -0 0 -1
vn -0 0 -1
vn -0 0 -1
vn -0 0 -1
vn -0 0 -1
vn -0 0 -1
vn -0 0 -1
vn -0 0 -1
vn -0 0 -1
vn -0 0 -1
vn -0 0 -1
vn -0 0 -1
vn -0 0 -1
vn -0 0 -1
vn -0 0 -1
vn -0 0 -1
vn -0 0 -1
vn -0 0 -1
vn -0 0 -1
vn -0 0 -1
vn -0 0 -1
vn -0 0 -1
vn -0 0 -1
vn -0 0 -1
vn -0 0 -1
vn -0 0 -1
vn -0 0 -1
vn -0 0 -1
vn -0 0 -1
vn -0 0 -1
vn -0 0 -1
vn -0 0 -1
vn -0 0 -1
vn -0 0 -1
vn -0 0 -1
vn -0 0 -1
vn -0 0 -1
vn -0 0 -1
vn -0 0 -1
vn -0 0 -1
vn -0 0 -1
vn -0 0 -1
vn -0 0 -1
vn -0 0 -1
vn -1 0 0
vn -1 0 0
vn -1 0 0
vn -1 -1.770258E-05 -1.7881393E-06
vn -0 1 0
vn -0 1 0
vn -0 1 0
vn -0 1 0
vn -1 0 -1.7881393E-06
vn -1 0 -1.7881393E-06
vn -1 0 -1.7881393E-06
vn -1 0 -1.7881393E-06
vn -0 1 0
vn -0 1 0
vn -0 1 0
vn -0 1 0
vn -1 0 -3.5762787E-06
vn -1 0 -3.5762787E-06
vn -1 0 -3.5762787E-06
vn -1 0 -3.5762787E-06
vn -0 1 0
vn -0 1 0
vn -0 1 0
vn -0 1 0
vn -1 0 -1.7881393E-06
vn -1 0 -1.7881393E-06
vn -1 0 -1.7881393E-06
vn -1 0 -1.7881393E-06
vn -0 1 0
vn -0 1 0
vn -0 1 0
vn -0 1 0
vn -1 0 -1.7881393E-06
vn -1 0 -1.7881393E-06
vn -1 0 -1.7881393E-06
vn -1 0 -1.7881393E-06
vn -0 1 0
vn -0 1 0
vn -0 1 0
vn -0 1 0
vn -1 0 -1.7881393E-06
vn -1 0 -1.7881393E-06
vn -1 0 -1.7881393E-06
vn -1 0 -1.7881393E-06
vn -0 1 2.3841858E-07
vn -0 1 2.3841858E-07
vn -0 1 2.3841858E-07
vn -0 1 2.3841858E-07
vn -1 0 -5.364418E-06
vn -1 0 -5.364418E-06
vn -1 0 -5.364418E-06
vn -1 0 -5.364418E-06
vn -0 1 2.3841858E-07
vn -0 1 2.3841858E-07
vn -0 1 2.3841858E-07
vn -0 1 2.3841858E-07
vn -1 0 -3.5762787E-06
vn -1 0 -3.5762787E-06
vn -1 0 -3.5762787E-06
vn -1 0 -3.5762787E-06
vn -0 1 2.3841858E-07
vn -0 1 2.3841858E-07
vn -0 1 2.3841858E-07
vn -0 1 2.3841858E-07
vn -1 0 -3.5762787E-06
vn -1 0 -3.5762787E-06
vn -1 0 -3.5762787E-06
vn -1 0 -3.5762787E-06
vn -0 1 0
vn -0 1 0
vn -0 1 0
vn -0 1 0
vn -1 0 0
vn -1 0 0
vn -1 0 0
vn -1 0 0
vn -1 0 0
vn -1 0 0
vn -1 0 0
vn -1 0 0
vn -1 0 -1.7881393E-06
vn -1 0 -1.7881393E-06
vn -1 0 -1.7881393E-06
vn -1 0 -1.7881393E-06
vn -1 0 -1.7881393E-06
vn -1 0 -1.7881393E-06
vn -1 0 -1.7881393E-06
vn -1 0 -1.7881393E-06
vn -1 0 0
vn -1 0 0
vn -1 0 0
vn -1 0 0
vn -0 1 2.3841858E-07
vn -0 1 2.3841858E-07
vn -0 1 2.3841858E-07
vn -0 1 2.3841858E-07
vn -1 0 -3.5762787E-06
vn -1 0 -3.5762787E-06
vn -1 0 -3.5762787E-06
vn -1 0 -3.5762787E-06
vn -0 1 2.3841858E-07
vn -0 1 2.3841858E-07
vn -0 1 2.3841858E-07
vn -0 1 2.3841858E-07
vn -1 0 0
vn -1 0 0
vn -1 0 0
vn -1 0 0
vn -0 1 2.3841858E-07
vn -0 1 2.3841858E-07
vn -0 1 2.3841858E-07
vn -0 1 2.3841858E-07
vn -1 0 -1.7881393E-06
vn -1 0 -1.7881393E-06
vn -1 0 -1.7881393E-06
vn -1 0 -1.7881393E-06
vn -0 1 2.3841858E-07
vn -0 1 2.3841858E-07
vn -0 1 2.3841858E-07
vn -0 1 2.3841858E-07
vn -1 0 -1.7881393E-06
vn -1 0 -1.7881393E-06
vn -1 0 -1.7881393E-06
vn -1 0 -1.7881393E-06
vn -0 1 2.3841858E-07
vn -0 1 2.3841858E-07
vn -0 1 2.3841858E-07
vn -0 1 2.3841858E-07
vn -1 0 -1.7881393E-06
vn -1 0 -1.7881393E-06
vn -1 0 -1.7881393E-06
vn -1 0 -1.7881393E-06
vn -0 1 2.3841858E-07
vn -0 1 2.3841858E-07
vn -0 1 2.3841858E-07
vn -0 1 2.3841858E-07
vn 1 0 -1.7881393E-06
vn 1 0 -1.7881393E-06
vn 1 0 -1.7881393E-06
vn 1 0 -1.7881393E-06
vn -0 1 2.3841858E-07
vn -0 1 2.3841858E-07
vn -0 1 2.3841858E-07
vn -0 1 2.3841858E-07
vn 1 0 -1.7881393E-06
vn 1 0 -1.7881393E-06
vn 1 0 -1.7881393E-06
vn 1 0 -1.7881393E-06
vn -0 1 2.3841858E-07
vn -0 1 2.3841858E-07
vn -0 1 2.3841858E-07
vn -0 1 2.3841858E-07
vn 1 0 -1.7881393E-06
vn 1 0 -1.7881393E-06
vn 1 0 -1.7881393E-06
vn 1 0 -1.7881393E-06
vn -0 1 2.3841858E-07
vn -0 1 2.3841858E-07
vn -0 1 2.3841858E-07
vn -0 1 2.3841858E-07
vn 1 0 -1.7881393E-06
vn 1 0 -1.7881393E-06
vn 1 0 -1.7881393E-06
vn 1 0 -1.7881393E-06
vn 1 0 -1.7881393E-06
vn 1 0 -1.7881393E-06
vn 1 0 -1.7881393E-06
vn 1 0 -1.7881393E-06
vn 1 0 -1.7881393E-06
vn 1 0 -1.7881393E-06
vn 1 0 -1.7881393E-06
vn 1 0 -1.7881393E-06
vn 1 0 -1.7881393E-06
vn 1 0 -1.7881393E-06
vn 1 0 -1.7881393E-06
vn 1 0 -1.7881393E-06
vn -0 1 4.7683716E-07
vn -0 1 4.7683716E-07
vn -0 1 4.7683716E-07
vn -0 1 4.7683716E-07
vn 1 0 -1.7881393E-06
vn 1 0 -1.7881393E-06
vn 1 0 -1.7881393E-06
vn 1 0 -1.7881393E-06
vn -0 1 2.3841858E-07
vn -0 1 2.3841858E-07
vn -0 1 2.3841858E-07
vn -0 1 2.3841858E-07
vn 1 0 -3.5762787E-06
vn 1 0 -3.5762787E-06
vn 1 0 -3.5762787E-06
vn 1 0 -3.5762787E-06
vn -0 1 2.3841858E-07
vn -0 1 2.3841858E-07
vn -0 1 2.3841858E-07
vn -0 1 2.3841858E-07
vn 1 0 1.7881393E-06
vn 1 0 1.7881393E-06
vn 1 0 1.7881393E-06
vn 1 0 1.7881393E-06
vn -0 1 2.3841858E-07
vn -0 1 2.3841858E-07
vn -0 1 2.3841858E-07
vn -0 1 2.3841858E-07
vn 1 0 5.364418E-06
vn 1 0 5.364418E-06
vn 1 0 5.364418E-06
vn 1 0 5.364418E-06
vn -0 1 0
vn -0 1 0
vn -0 1 0
vn -0 1 0
vn 1 0 1.7881393E-06
vn 1 0 1.7881393E-06
vn 1 0 1.7881393E-06
vn 1 0 1.7881393E-06
vn -0 2.6524067E-05 1
vn -0 2.6524067E-05 1
vn -0 2.6524067E-05 1
vn -1.0728836E-06 2.670288E-05 1
vn -2.0861626E-06 2.0861626E-06 1
vn -0 0 1
vn -2.0861626E-06 2.0861626E-06 1
vn -0 0 1
vn -2.1457672E-06 4.172325E-07 1
vn -0 0 1
vn -1.5497208E-06 6.735325E-06 1
vn -0 7.033348E-06 1
vn -1.1920929E-06 0 1
vn -0 0 1
vn -1.1920929E-06 0 1
vn -0 -7.927418E-06 1
vn -1.1920929E-06 0 1
vn -0 0 1
vn -1.1920929E-06 0 1
vn -0 -0.00013458729 1
vn -1.4305115E-06 7.033348E-06 1
vn -0 0 1
vn -1.4305115E-06 2.9802322E-07 1
vn -0 0 1
vn -6.556511E-07 1.4722347E-05 1
vn -0 0 1
vn -1.847744E-06 0 1
vn -0 -1.2218952E-05 1
vn -7.1525574E-07 -7.688999E-06 1
vn -0 0 1
vn -2.2649765E-06 0 1
vn -2.2649765E-06 -1.347065E-05 1
vn -0 0 1
vn -2.026558E-06 0 1
vn -1.3709068E-06 -2.682209E-06 1
vn -0 0 1
vn -1.3709068E-06 -2.682209E-06 1
vn -0 0 1
vn -0 -8.940697E-06 1
vn -1.9073486E-06 0 1
vn -0 0 1
vn -0 2.6881695E-05 1
vn -1.847744E-06 0 1
vn -1.847744E-06 0 1
vn -1.6093254E-06 3.2186508E-06 1
vn -0 0 1
vn -0 3.361702E-05 1
vn -2.0861626E-06 2.3841858E-07 1
vn -2.4437904E-06 4.887581E-06 1
vn -0 0 1
vn -0 0 1
vn -0 0 1
vn -0 0 1
vn -0 0 1
vn -2.8014183E-06 -1.40070915E-05 1
vn -0 0 1
vn -2.8014183E-06 0 1
vn -0 -3.361702E-05 1
vn -2.9206276E-06 7.1525574E-07 1
vn -0 0 1
vn -2.9206276E-06 0 1
vn -2.9206276E-06 0 1
vn -0 -1 -2.3841858E-07
vn -0 -1 -2.3841858E-07
vn -0 -1 -2.3841858E-07
vn -0 -1 -2.3841858E-07
vn -0 -1 -2.3841858E-07
vn -0 -1 -2.3841858E-07
vn -0 -1 -2.3841858E-07
vn -0 -1 -2.3841858E-07
vn -0 -1 -2.3841858E-07
vn -0 -1 -2.3841858E-07
vn -0 -1 -2.3841858E-07
vn -0 -1 -2.3841858E-07
vn -0 -1 -2.3841858E-07
vn -0 -1 -2.3841858E-07
vn -0 -1 -2.3841858E-07
vn -0 -1 -2.3841858E-07
vn -0 -1 -4.7683716E-07
vn -0 -1 -4.7683716E-07
vn -0 -1 -4.7683716E-07
vn -0 -1 -4.7683716E-07
vn -0 -1 -4.7683716E-07
vn -0 -1 -4.7683716E-07
vn -0 -1 -4.7683716E-07
vn -0 -1 -4.7683716E-07
vn -0 -1 -2.3841858E-07
vn -0 -1 -2.3841858E-07
vn -0 -1 -2.3841858E-07
vn -0 -1 -2.3841858E-07
g Rocks_Medium_003_0
f 3/3/3 2/2/2 1/1/1
f 3/3/3 1/1/1 4/4/4
f 4/4/4 1/1/1 5/5/5
f 5/5/5 1/1/1 6/6/6
f 4/4/4 5/5/5 7/7/7
f 7/7/7 5/5/5 8/8/8
f 4/4/4 7/7/7 9/9/9
f 9/9/9 7/7/7 10/10/10
f 9/9/9 11/11/11 4/4/4
f 4/4/4 11/11/11 12/12/12
f 13/13/13 11/11/11 9/9/9
f 13/13/13 9/9/9 14/14/14
f 11/11/11 13/13/13 15/15/15
f 15/15/15 13/13/13 16/16/16
f 16/16/16 13/13/13 17/17/17
f 17/17/17 13/13/13 18/18/18
f 16/16/16 17/17/17 19/19/19
f 19/19/19 17/17/17 20/20/20
f 20/20/20 17/17/17 21/21/21
f 21/21/21 17/17/17 22/22/22
f 21/21/21 23/23/23 20/20/20
f 23/23/23 21/21/21 24/24/24
f 23/23/23 25/25/25 20/20/20
f 25/25/25 23/23/23 26/26/26
f 25/25/25 27/27/27 20/20/20
f 27/27/27 25/25/25 28/28/28
f 25/25/25 29/29/29 28/28/28
f 28/28/28 29/29/29 30/30/30
f 29/29/29 25/25/25 31/31/31
f 32/32/32 29/29/29 31/31/31
f 32/32/32 31/31/31 33/33/33
f 29/29/29 32/32/32 34/34/34
f 32/32/32 35/35/35 34/34/34
f 35/35/35 32/32/32 36/36/36
f 35/35/35 37/37/37 34/34/34
f 37/37/37 35/35/35 38/38/38
f 34/34/34 37/37/37 39/39/39
f 34/34/34 39/39/39 40/40/40
f 40/40/40 39/39/39 41/41/41
f 34/34/34 40/40/40 42/42/42
f 42/42/42 40/40/40 43/43/43
f 43/43/43 40/40/40 44/44/44
f 43/43/43 44/44/44 45/45/45
f 43/43/43 45/45/45 46/46/46
f 45/45/45 44/44/44 47/47/47
f 45/45/45 47/47/47 48/48/48
f 48/48/48 47/47/47 49/49/49
f 45/45/45 48/48/48 50/50/50
f 50/50/50 48/48/48 51/51/51
f 49/49/49 47/47/47 52/52/52
f 52/52/52 47/47/47 53/53/53
f 49/49/49 52/52/52 54/54/54
f 48/48/48 49/49/49 55/55/55
f 48/48/48 55/55/55 56/56/56
f 55/55/55 49/49/49 57/57/57
f 57/57/57 49/49/49 58/58/58
f 58/58/58 49/49/49 59/59/59
f 59/59/59 49/49/49 60/60/60
f 59/59/59 61/61/61 58/58/58
f 61/61/61 59/59/59 62/62/62
f 65/65/65 64/64/64 63/63/63
f 64/64/64 65/65/65 66/66/66
f 69/69/69 68/68/68 67/67/67
f 68/68/68 69/69/69 70/70/70
f 73/73/73 72/72/72 71/71/71
f 72/72/72 73/73/73 74/74/74
f 77/77/77 76/76/76 75/75/75
f 76/76/76 77/77/77 78/78/78
f 81/81/81 80/80/80 79/79/79
f 80/80/80 81/81/81 82/82/82
f 85/85/85 84/84/84 83/83/83
f 84/84/84 85/85/85 86/86/86
f 89/89/89 88/88/88 87/87/87
f 88/88/88 89/89/89 90/90/90
f 93/93/93 92/92/92 91/91/91
f 92/92/92 93/93/93 94/94/94
f 97/97/97 96/96/96 95/95/95
f 96/96/96 97/97/97 98/98/98
f 101/101/101 100/100/100 99/99/99
f 100/100/100 101/101/101 102/102/102
f 105/105/105 104/104/104 103/103/103
f 104/104/104 105/105/105 106/106/106
f 109/109/109 108/108/108 107/107/107
f 108/108/108 109/109/109 110/110/110
f 113/113/113 112/112/112 111/111/111
f 112/112/112 113/113/113 114/114/114
f 117/117/117 116/116/116 115/115/115
f 116/116/116 117/117/117 118/118/118
f 121/121/121 120/120/120 119/119/119
f 120/120/120 121/121/121 122/122/122
f 125/125/125 124/124/124 123/123/123
f 124/124/124 125/125/125 126/126/126
f 129/129/129 128/128/128 127/127/127
f 128/128/128 129/129/129 130/130/130
f 133/133/133 132/132/132 131/131/131
f 132/132/132 133/133/133 134/134/134
f 137/137/137 136/136/136 135/135/135
f 136/136/136 137/137/137 138/138/138
f 141/141/141 140/140/140 139/139/139
f 140/140/140 141/141/141 142/142/142
f 145/145/145 144/144/144 143/143/143
f 144/144/144 145/145/145 146/146/146
f 149/149/149 148/148/148 147/147/147
f 148/148/148 149/149/149 150/150/150
f 153/153/153 152/152/152 151/151/151
f 152/152/152 153/153/153 154/154/154
f 157/157/157 156/156/156 155/155/155
f 156/156/156 157/157/157 158/158/158
f 161/161/161 160/160/160 159/159/159
f 160/160/160 161/161/161 162/162/162
f 165/165/165 164/164/164 163/163/163
f 164/164/164 165/165/165 166/166/166
f 169/169/169 168/168/168 167/167/167
f 168/168/168 169/169/169 170/170/170
f 173/173/173 172/172/172 171/171/171
f 172/172/172 173/173/173 174/174/174
f 177/177/177 176/176/176 175/175/175
f 176/176/176 177/177/177 178/178/178
f 181/181/181 180/180/180 179/179/179
f 180/180/180 181/181/181 182/182/182
f 185/185/185 184/184/184 183/183/183
f 184/184/184 185/185/185 186/186/186
f 189/189/189 188/188/188 187/187/187
f 188/188/188 189/189/189 190/190/190
f 193/193/193 192/192/192 191/191/191
f 192/192/192 193/193/193 194/194/194
f 197/197/197 196/196/196 195/195/195
f 196/196/196 197/197/197 198/198/198
f 201/201/201 200/200/200 199/199/199
f 200/200/200 201/201/201 202/202/202
f 205/205/205 204/204/204 203/203/203
f 204/204/204 205/205/205 206/206/206
f 209/209/209 208/208/208 207/207/207
f 208/208/208 209/209/209 210/210/210
f 213/213/213 212/212/212 211/211/211
f 212/212/212 213/213/213 214/214/214
f 217/217/217 216/216/216 215/215/215
f 216/216/216 217/217/217 218/218/218
f 221/221/221 220/220/220 219/219/219
f 220/220/220 221/221/221 222/222/222
f 225/225/225 224/224/224 223/223/223
f 224/224/224 225/225/225 226/226/226
f 229/229/229 228/228/228 227/227/227
f 228/228/228 229/229/229 230/230/230
f 233/233/233 232/232/232 231/231/231
f 232/232/232 233/233/233 234/234/234
f 237/237/237 236/236/236 235/235/235
f 236/236/236 237/237/237 238/238/238
f 241/241/241 240/240/240 239/239/239
f 240/240/240 241/241/241 242/242/242
f 245/245/245 244/244/244 243/243/243
f 244/244/244 245/245/245 246/246/246
f 249/249/249 248/248/248 247/247/247
f 248/248/248 249/249/249 250/250/250
f 253/253/253 252/252/252 251/251/251
f 252/252/252 253/253/253 254/254/254
f 257/257/257 256/256/256 255/255/255
f 256/256/256 257/257/257 258/258/258
f 261/261/261 260/260/260 259/259/259
f 260/260/260 261/261/261 262/262/262
f 265/265/265 264/264/264 263/263/263
f 264/264/264 265/265/265 266/266/266
f 269/269/269 268/268/268 267/267/267
f 268/268/268 269/269/269 270/270/270
f 273/273/273 272/272/272 271/271/271
f 272/272/272 273/273/273 274/274/274
f 277/277/277 276/276/276 275/275/275
f 276/276/276 277/277/277 278/278/278
f 281/281/281 280/280/280 279/279/279
f 279/279/279 280/280/280 282/282/282
f 279/279/279 282/282/282 283/283/283
f 279/279/279 283/283/283 284/284/284
f 283/283/283 282/282/282 285/285/285
f 283/283/283 285/285/285 286/286/286
f 285/285/285 282/282/282 287/287/287
f 285/285/285 287/287/287 288/288/288
f 289/289/289 287/287/287 282/282/282
f 289/289/289 282/282/282 290/290/290
f 289/289/289 291/291/291 287/287/287
f 287/287/287 291/291/291 292/292/292
f 291/291/291 289/289/289 293/293/293
f 291/291/291 293/293/293 294/294/294
f 291/291/291 294/294/294 295/295/295
f 291/291/291 295/295/295 296/296/296
f 295/295/295 294/294/294 297/297/297
f 295/295/295 297/297/297 298/298/298
f 295/295/295 298/298/298 299/299/299
f 295/295/295 299/299/299 300/300/300
f 301/301/301 299/299/299 298/298/298
f 299/299/299 301/301/301 302/302/302
f 303/303/303 301/301/301 298/298/298
f 301/301/301 303/303/303 304/304/304
f 305/305/305 303/303/303 298/298/298
f 303/303/303 305/305/305 306/306/306
f 307/307/307 303/303/303 306/306/306
f 307/307/307 306/306/306 308/308/308
f 303/303/303 307/307/307 309/309/309
f 307/307/307 310/310/310 309/309/309
f 309/309/309 310/310/310 311/311/311
f 310/310/310 307/307/307 312/312/312
f 313/313/313 310/310/310 312/312/312
f 310/310/310 313/313/313 314/314/314
f 315/315/315 313/313/313 312/312/312
f 313/313/313 315/315/315 316/316/316
f 315/315/315 312/312/312 317/317/317
f 317/317/317 312/312/312 318/318/318
f 317/317/317 318/318/318 319/319/319
f 318/318/318 312/312/312 320/320/320
f 318/318/318 320/320/320 321/321/321
f 318/318/318 321/321/321 322/322/322
f 322/322/322 321/321/321 323/323/323
f 323/323/323 321/321/321 324/324/324
f 322/322/322 323/323/323 325/325/325
f 325/325/325 323/323/323 326/326/326
f 325/325/325 326/326/326 327/327/327
f 326/326/326 323/323/323 328/328/328
f 326/326/326 328/328/328 329/329/329
f 325/325/325 327/327/327 330/330/330
f 325/325/325 330/330/330 331/331/331
f 330/330/330 327/327/327 332/332/332
f 327/327/327 326/326/326 333/333/333
f 333/333/333 326/326/326 334/334/334
f 327/327/327 333/333/333 335/335/335
f 327/327/327 335/335/335 336/336/336
f 327/327/327 336/336/336 337/337/337
f 327/327/327 337/337/337 338/338/338
f 339/339/339 337/337/337 336/336/336
f 337/337/337 339/339/339 340/340/340
f 343/343/343 342/342/342 341/341/341
f 344/344/344 341/341/341 342/342/342
f 347/347/347 346/346/346 345/345/345
f 348/348/348 345/345/345 346/346/346
f 351/351/351 350/350/350 349/349/349
f 352/352/352 349/349/349 350/350/350
f 355/355/355 354/354/354 353/353/353
f 356/356/356 353/353/353 354/354/354
f 359/359/359 358/358/358 357/357/357
f 360/360/360 357/357/357 358/358/358
f 363/363/363 362/362/362 361/361/361
f 364/364/364 361/361/361 362/362/362
f 367/367/367 366/366/366 365/365/365
f 368/368/368 365/365/365 366/366/366
