g Rocks_Medium_009
v -1.484375 -1.6395102 -0.642433
v -1.5272022 -1.6395102 -0.642433
v -1.5272022 -1.6823392 -0.642433
v 1.4843701 -1.5966815 -0.64243424
v 1.5272045 -1.6823392 -0.64243424
v 1.5272045 -1.5966815 -0.64243424
v -1.4415454 -1.5966815 -0.642433
v -1.484375 -1.5966815 -0.642433
v 1.4415454 -1.5110239 -0.64243424
v 1.4843701 -1.5110239 -0.64243424
v -1.3987157 -1.5110239 -0.642433
v -1.4415454 -1.5110239 -0.642433
v 1.3987108 -1.4681948 -0.64243424
v 1.4415454 -1.4681948 -0.64243424
v -1.3558886 -1.4681948 -0.642433
v -1.3987157 -1.4681948 -0.642433
v 1.3558837 -1.4253659 -0.64243424
v 1.3987108 -1.4253659 -0.64243424
v -1.3130591 -1.4253659 -0.642433
v -1.3558886 -1.4253659 -0.642433
v 1.0560864 -0.86899436 -0.64243424
v 1.3130591 -0.91182333 -0.64243424
v 1.3558837 -0.91182333 -0.64243424
v 1.3130591 -0.86899436 -0.64243424
v -0.839722 -0.65012497 -0.642433
v -1.2274001 -0.69295394 -0.642433
v -1.2274001 -0.65012497 -0.642433
v -1.2702296 -0.735783 -0.642433
v -1.2702296 -0.69295394 -0.642433
v -1.3130591 -0.735783 -0.642433
v -0.7540652 -0.6072969 -0.642433
v -0.839722 -0.6072969 -0.642433
v 0.71345454 0.20212981 -0.642433
v 0.9276001 0.15930083 -0.642433
v 0.9276001 0.20212981 -0.642433
v 1.0132519 0.11647186 -0.64243424
v 1.0560864 0.11647186 -0.64243424
v 1.0132519 0.15930083 -0.64243424
v -0.5691945 0.5762911 -0.642433
v -0.6255789 0.53346205 -0.642433
v -0.6255789 0.5762912 -0.642433
v -0.71123564 0.49063307 -0.642433
v -0.7540652 0.49063307 -0.642433
v -0.71123564 0.53346205 -0.642433
v -0.52636486 1.0690116 -0.642433
v -0.5691945 1.0690116 -0.642433
v -0.44070816 1.1118399 -0.64243317
v -0.52636486 1.1118399 -0.642433
v 0.5421411 1.0587063 -0.642433
v 0.6706274 1.015878 -0.642433
v 0.71345454 1.015878 -0.642433
v 0.6706274 1.0587063 -0.642433
v -0.2613966 1.1546688 -0.64243317
v -0.44070816 1.1546688 -0.64243317
v -0.21856704 1.4681948 -0.642433
v -0.26139662 1.4681948 -0.642433
v 0.49930906 1.5966799 -0.642433
v 0.5421411 1.5966799 -0.642433
v -0.17573985 1.553851 -0.642433
v -0.21856704 1.553851 -0.642433
v -0.13291027 1.5966799 -0.642433
v -0.17573985 1.5966799 -0.642433
v 0.37082276 1.639509 -0.642433
v 0.49930906 1.639509 -0.642433
v -0.0044239424 1.639509 -0.642433
v -0.13291027 1.639509 -0.642433
v -0.0044239424 1.6823373 -0.642433
v 0.37082276 1.6823373 -0.642433
v -1.5272022 -1.6823392 -0.642433
v -1.5272022 -1.6395102 -0.642433
v -1.5271974 -1.6823381 0.64243424
v -1.5271974 -1.6395094 0.64243424
v -1.4415454 -1.5966815 -0.642433
v -1.4415454 -1.5110239 -0.642433
v -1.4415406 -1.5966805 0.64243424
v -1.4415406 -1.5110228 0.64243424
v -1.3558886 -1.4681948 -0.642433
v -1.3558886 -1.4253659 -0.642433
v -1.3558815 -1.4681938 0.64243424
v -1.3558815 -1.425365 0.64243424
v -1.2274001 -0.69295394 -0.642433
v -1.2274001 -0.65012497 -0.642433
v -1.2273952 -0.69295335 0.64243424
v -1.2273952 -0.6501244 0.64243424
v -0.839722 -0.65012497 -0.642433
v -0.839722 -0.6072969 -0.642433
v -0.8397171 -0.6501244 0.64243424
v -0.8397171 -0.6072958 0.64243424
v -0.7540652 -0.6072969 -0.642433
v -0.7540652 0.49063307 -0.642433
v -0.7540603 -0.6072958 0.64243424
v -0.7540603 0.49063423 0.64243424
v -0.71123564 0.49063307 -0.642433
v -0.71123564 0.53346205 -0.642433
v -0.71123075 0.49063423 0.64243424
v -0.71123075 0.5334629 0.64243424
v -0.2613966 1.1546688 -0.64243317
v -0.26139662 1.4681948 -0.642433
v -0.2613917 1.1546695 0.64243406
v -0.2613917 1.4681959 0.64243424
v -0.21856704 1.4681948 -0.642433
v -0.21856704 1.553851 -0.642433
v -0.21856213 1.4681959 0.64243424
v -0.21856213 1.5538521 0.64243424
v -0.17573985 1.553851 -0.642433
v -0.17573985 1.5966799 -0.642433
v -0.17573254 1.5538521 0.64243424
v -0.17573254 1.596681 0.64243424
v -0.13291027 1.5966799 -0.642433
v -0.13291027 1.639509 -0.642433
v -0.13290538 1.596681 0.64243424
v -0.13290538 1.63951 0.64243424
v -0.0044239424 1.639509 -0.642433
v -0.0044239424 1.6823373 -0.642433
v -0.0044190595 1.63951 0.64243424
v -0.0044190595 1.6823384 0.64243424
v 0.37082276 1.6823373 -0.642433
v 0.37082276 1.639509 -0.642433
v 0.37082762 1.6823384 0.64243424
v 0.37082762 1.63951 0.64243424
v 0.5421411 1.5966799 -0.642433
v 0.5421411 1.0587063 -0.642433
v 0.54214597 1.596681 0.64243424
v 0.54214597 1.0587074 0.64243424
v 0.6706274 1.0587063 -0.642433
v 0.6706274 1.015878 -0.642433
v 0.6706323 1.0587074 0.64243424
v 0.6706323 1.015879 0.64243424
v 0.71345454 1.015878 -0.642433
v 0.71345454 0.20212981 -0.642433
v 0.71345943 1.015879 0.64243424
v 0.71345943 0.20213088 0.64243424
v 0.9276001 0.20212981 -0.642433
v 0.9276001 0.15930083 -0.642433
v 0.927605 0.20213088 0.64243424
v 0.927605 0.15930161 0.64243424
v 1.3987108 -1.4253659 -0.64243424
v 1.3987108 -1.4681948 -0.64243424
v 1.3987157 -1.425365 0.642433
v 1.3987157 -1.4681938 0.642433
v 1.4843701 -1.5110239 -0.64243424
v 1.4843701 -1.5966815 -0.64243424
v 1.484375 -1.5110228 0.642433
v 1.484375 -1.5966805 0.642433
v -1.484375 -1.6395102 -0.642433
v -1.484375 -1.5966815 -0.642433
v -1.4843702 -1.6395094 0.64243424
v -1.4843702 -1.5966805 0.64243424
v -1.4415454 -1.5110239 -0.642433
v -1.3987157 -1.5110239 -0.642433
v -1.4415406 -1.5110228 0.64243424
v -1.3987111 -1.5110228 0.64243424
v -1.3987157 -1.4681948 -0.642433
v -1.3558886 -1.4681948 -0.642433
v -1.3987111 -1.4681938 0.64243424
v -1.3558815 -1.4681938 0.64243424
v -1.3987157 -1.5110239 -0.642433
v -1.3987157 -1.4681948 -0.642433
v -1.3987111 -1.5110228 0.64243424
v -1.3987111 -1.4681938 0.64243424
v -1.3130591 -1.4253659 -0.642433
v -1.3130591 -0.735783 -0.642433
v -1.3130543 -1.425365 0.64243424
v -1.3130543 -0.7357823 0.64243424
v -1.3130591 -0.735783 -0.642433
v -1.2702296 -0.735783 -0.642433
v -1.3130543 -0.7357823 0.64243424
v -1.2702247 -0.7357823 0.64243424
v -1.2702296 -0.735783 -0.642433
v -1.2702296 -0.69295394 -0.642433
v -1.2702247 -0.7357823 0.64243424
v -1.2702247 -0.69295335 0.64243424
v -0.7540652 0.49063307 -0.642433
v -0.71123564 0.49063307 -0.642433
v -0.7540603 0.49063423 0.64243424
v -0.71123075 0.49063423 0.64243424
v -0.71123564 0.53346205 -0.642433
v -0.6255789 0.53346205 -0.642433
v -0.71123075 0.5334629 0.64243424
v -0.625574 0.5334629 0.64243424
v -0.6255789 0.53346205 -0.642433
v -0.6255789 0.5762912 -0.642433
v -0.625574 0.5334629 0.64243424
v -0.625574 0.5762921 0.64243424
v -0.5691945 0.5762911 -0.642433
v -0.5691945 1.0690116 -0.642433
v -0.56918716 0.57629204 0.64243424
v -0.56918716 1.0690125 0.64243424
v -0.52636486 1.1118399 -0.642433
v -0.44070816 1.1118399 -0.64243317
v -0.52636 1.1118408 0.64243424
v -0.44070327 1.1118408 0.64243406
v -0.52636486 1.0690116 -0.642433
v -0.52636486 1.1118399 -0.642433
v -0.52636 1.0690125 0.64243424
v -0.52636 1.1118408 0.64243424
v -0.44070816 1.1118399 -0.64243317
v -0.44070816 1.1546688 -0.64243317
v -0.44070327 1.1118408 0.64243406
v -0.44070327 1.1546696 0.64243406
v -0.26139662 1.4681948 -0.642433
v -0.21856704 1.4681948 -0.642433
v -0.2613917 1.4681959 0.64243424
v -0.21856213 1.4681959 0.64243424
v -0.21856704 1.553851 -0.642433
v -0.17573985 1.553851 -0.642433
v -0.21856213 1.5538521 0.64243424
v -0.17573254 1.5538521 0.64243424
v -0.17573985 1.5966799 -0.642433
v -0.13291027 1.5966799 -0.642433
v -0.17573254 1.596681 0.64243424
v -0.13290538 1.596681 0.64243424
v -0.13291027 1.639509 -0.642433
v -0.0044239424 1.639509 -0.642433
v -0.13290538 1.63951 0.64243424
v -0.0044190595 1.63951 0.64243424
v 0.37082276 1.639509 -0.642433
v 0.49930906 1.639509 -0.642433
v 0.37082762 1.63951 0.64243424
v 0.49931395 1.63951 0.64243424
v 0.49930906 1.639509 -0.642433
v 0.49930906 1.5966799 -0.642433
v 0.49931395 1.63951 0.64243424
v 0.49931395 1.596681 0.64243424
v 0.49930906 1.5966799 -0.642433
v 0.5421411 1.5966799 -0.642433
v 0.49931395 1.596681 0.64243424
v 0.54214597 1.596681 0.64243424
v 0.5421411 1.0587063 -0.642433
v 0.6706274 1.0587063 -0.642433
v 0.54214597 1.0587074 0.64243424
v 0.6706323 1.0587074 0.64243424
v 0.6706274 1.015878 -0.642433
v 0.71345454 1.015878 -0.642433
v 0.6706323 1.015879 0.64243424
v 0.71345943 1.015879 0.64243424
v 0.71345454 0.20212981 -0.642433
v 0.9276001 0.20212981 -0.642433
v 0.71345943 0.20213088 0.64243424
v 0.927605 0.20213088 0.64243424
v 0.9276001 0.15930083 -0.642433
v 1.0132519 0.15930083 -0.64243424
v 0.927605 0.15930161 0.64243424
v 1.0132568 0.15930161 0.642433
v 1.0132519 0.15930083 -0.64243424
v 1.0132519 0.11647186 -0.64243424
v 1.0132568 0.15930161 0.642433
v 1.0132568 0.11647293 0.642433
v 1.0560864 0.11647186 -0.64243424
v 1.0560864 -0.86899436 -0.64243424
v 1.0560913 0.11647293 0.642433
v 1.0560913 -0.8689936 0.642433
v 1.0132519 0.11647186 -0.64243424
v 1.0560864 0.11647186 -0.64243424
v 1.0132568 0.11647293 0.642433
v 1.0560913 0.11647293 0.642433
v 1.3130591 -0.86899436 -0.64243424
v 1.3130591 -0.91182333 -0.64243424
v 1.3130664 -0.8689936 0.642433
v 1.3130664 -0.91182226 0.642433
v 1.3558837 -0.91182333 -0.64243424
v 1.3558837 -1.4253659 -0.64243424
v 1.3558886 -0.91182226 0.642433
v 1.3558886 -1.425365 0.642433
v 1.3987108 -1.4681948 -0.64243424
v 1.4415454 -1.4681948 -0.64243424
v 1.3987157 -1.4681938 0.642433
v 1.4415503 -1.4681938 0.642433
v 1.4415454 -1.4681948 -0.64243424
v 1.4415454 -1.5110239 -0.64243424
v 1.4415503 -1.4681938 0.642433
v 1.4415503 -1.5110228 0.642433
v 1.4843701 -1.5966815 -0.64243424
v 1.5272045 -1.5966815 -0.64243424
v 1.484375 -1.5966805 0.642433
v 1.5272094 -1.5966805 0.642433
v 1.5272045 -1.5966815 -0.64243424
v 1.5272045 -1.6823392 -0.64243424
v 1.5272094 -1.5966805 0.642433
v 1.5272094 -1.6823381 0.642433
v -1.5272022 -1.6395102 -0.642433
v -1.484375 -1.6395102 -0.642433
v -1.5271974 -1.6395094 0.64243424
v -1.4843702 -1.6395094 0.64243424
v -1.484375 -1.5966815 -0.642433
v -1.4415454 -1.5966815 -0.642433
v -1.4843702 -1.5966805 0.64243424
v -1.4415406 -1.5966805 0.64243424
v 1.4415454 -1.5110239 -0.64243424
v 1.4843701 -1.5110239 -0.64243424
v 1.4415503 -1.5110228 0.642433
v 1.484375 -1.5110228 0.642433
v -1.3558886 -1.4253659 -0.642433
v -1.3130591 -1.4253659 -0.642433
v -1.3558815 -1.425365 0.64243424
v -1.3130543 -1.425365 0.64243424
v 1.3558837 -1.4253659 -0.64243424
v 1.3987108 -1.4253659 -0.64243424
v 1.3558886 -1.425365 0.642433
v 1.3987157 -1.425365 0.642433
v 1.3130591 -0.91182333 -0.64243424
v 1.3558837 -0.91182333 -0.64243424
v 1.3130664 -0.91182226 0.642433
v 1.3558886 -0.91182226 0.642433
v 1.0560864 -0.86899436 -0.64243424
v 1.3130591 -0.86899436 -0.64243424
v 1.0560913 -0.8689936 0.642433
v 1.3130664 -0.8689936 0.642433
v -1.2702296 -0.69295394 -0.642433
v -1.2274001 -0.69295394 -0.642433
v -1.2702247 -0.69295335 0.64243424
v -1.2273952 -0.69295335 0.64243424
v -1.2274001 -0.65012497 -0.642433
v -0.839722 -0.65012497 -0.642433
v -1.2273952 -0.6501244 0.64243424
v -0.8397171 -0.6501244 0.64243424
v -0.839722 -0.6072969 -0.642433
v -0.7540652 -0.6072969 -0.642433
v -0.8397171 -0.6072958 0.64243424
v -0.7540603 -0.6072958 0.64243424
v -0.6255789 0.5762912 -0.642433
v -0.5691945 0.5762911 -0.642433
v -0.625574 0.5762921 0.64243424
v -0.56918716 0.57629204 0.64243424
v -0.5691945 1.0690116 -0.642433
v -0.52636486 1.0690116 -0.642433
v -0.56918716 1.0690125 0.64243424
v -0.52636 1.0690125 0.64243424
v -0.44070816 1.1546688 -0.64243317
v -0.2613966 1.1546688 -0.64243317
v -0.44070327 1.1546696 0.64243406
v -0.2613917 1.1546695 0.64243406
v -0.0044239424 1.6823373 -0.642433
v 0.37082276 1.6823373 -0.642433
v -0.0044190595 1.6823384 0.64243424
v 0.37082762 1.6823384 0.64243424
v -1.4843702 -1.6395094 0.64243424
v -1.5271974 -1.6823381 0.64243424
v -1.5271974 -1.6395094 0.64243424
v 1.484375 -1.5966805 0.642433
v 1.5272094 -1.6823381 0.642433
v 1.5272094 -1.5966805 0.642433
v -1.4415406 -1.5966805 0.64243424
v -1.4843702 -1.5966805 0.64243424
v 1.4415503 -1.5110228 0.642433
v 1.484375 -1.5110228 0.642433
v -1.3987111 -1.5110228 0.64243424
v -1.4415406 -1.5110228 0.64243424
v 1.3987157 -1.4681938 0.642433
v 1.4415503 -1.4681938 0.642433
v -1.3558815 -1.4681938 0.64243424
v -1.3987111 -1.4681938 0.64243424
v 1.3558886 -1.425365 0.642433
v 1.3987157 -1.425365 0.642433
v -1.3130543 -1.425365 0.64243424
v -1.3558815 -1.425365 0.64243424
v 1.0560913 -0.8689936 0.642433
v 1.3130664 -0.91182226 0.642433
v 1.3558886 -0.91182226 0.642433
v 1.3130664 -0.8689936 0.642433
v -0.8397171 -0.6501244 0.64243424
v -1.2273952 -0.69295335 0.64243424
v -1.2273952 -0.6501244 0.64243424
v -1.2702247 -0.7357823 0.64243424
v -1.2702247 -0.69295335 0.64243424
v -1.3130543 -0.7357823 0.64243424
v -0.7540603 -0.6072958 0.64243424
v -0.8397171 -0.6072958 0.64243424
v 0.71345943 0.20213088 0.64243424
v 0.927605 0.15930161 0.64243424
v 0.927605 0.20213088 0.64243424
v 1.0132568 0.11647293 0.642433
v 1.0132568 0.15930161 0.642433
v 1.0560913 0.11647293 0.642433
v -0.56918716 0.57629204 0.64243424
v -0.625574 0.5334629 0.64243424
v -0.625574 0.5762921 0.64243424
v -0.71123075 0.49063423 0.64243424
v -0.7540603 0.49063423 0.64243424
v -0.71123075 0.5334629 0.64243424
v -0.52636 1.0690125 0.64243424
v -0.56918716 1.0690125 0.64243424
v -0.44070327 1.1118408 0.64243406
v -0.52636 1.1118408 0.64243424
v 0.54214597 1.0587074 0.64243424
v 0.6706323 1.015879 0.64243424
v 0.71345943 1.015879 0.64243424
v 0.6706323 1.0587074 0.64243424
v -0.2613917 1.1546695 0.64243406
v -0.44070327 1.1546696 0.64243406
v -0.21856213 1.4681959 0.64243424
v -0.2613917 1.4681959 0.64243424
v 0.49931395 1.596681 0.64243424
v 0.54214597 1.596681 0.64243424
v -0.17573254 1.5538521 0.64243424
v -0.21856213 1.5538521 0.64243424
v -0.13290538 1.596681 0.64243424
v -0.17573254 1.596681 0.64243424
v 0.37082762 1.63951 0.64243424
v 0.49931395 1.63951 0.64243424
v -0.0044190595 1.63951 0.64243424
v -0.13290538 1.63951 0.64243424
v -0.0044190595 1.6823384 0.64243424
v 0.37082762 1.6823384 0.64243424
vt 0.28735352 0.3178711
vt 0.28100586 0.3178711
vt 0.28100586 0.31152344
vt 0.71972656 0.3239746
vt 0.7260742 0.31152344
vt 0.7260742 0.3239746
vt 0.29345703 0.3239746
vt 0.28735352 0.3239746
vt 0.7138672 0.33642578
vt 0.71972656 0.33642578
vt 0.2998047 0.33642578
vt 0.29345703 0.33642578
vt 0.70751953 0.34277344
vt 0.7138672 0.34277344
vt 0.30615234 0.34277344
vt 0.2998047 0.34277344
vt 0.7011719 0.34887695
vt 0.70751953 0.34887695
vt 0.31225586 0.34887695
vt 0.30615234 0.34887695
vt 0.65771484 0.43017578
vt 0.6948242 0.42382812
vt 0.7011719 0.42382812
vt 0.6948242 0.43017578
vt 0.38134766 0.46191406
vt 0.32470703 0.45581055
vt 0.32470703 0.46191406
vt 0.31860352 0.4494629
vt 0.31860352 0.45581055
vt 0.31225586 0.4494629
vt 0.39379883 0.46826172
vt 0.38134766 0.46826172
vt 0.6074219 0.5859375
vt 0.6386719 0.5800781
vt 0.6386719 0.5859375
vt 0.6513672 0.57373047
vt 0.65771484 0.57373047
vt 0.6513672 0.5800781
vt 0.4206543 0.640625
vt 0.41235352 0.63427734
vt 0.41235352 0.640625
vt 0.39990234 0.6279297
vt 0.39379883 0.6279297
vt 0.39990234 0.63427734
vt 0.42700195 0.71240234
vt 0.4206543 0.71240234
vt 0.43945312 0.71875
vt 0.42700195 0.71875
vt 0.58251953 0.7109375
vt 0.6015625 0.70458984
vt 0.6074219 0.70458984
vt 0.6015625 0.7109375
vt 0.46557617 0.72509766
vt 0.43945312 0.72509766
vt 0.4716797 0.7705078
vt 0.46557617 0.7705078
vt 0.5761719 0.7895508
vt 0.58251953 0.7895508
vt 0.47802734 0.7832031
vt 0.4716797 0.7832031
vt 0.484375 0.7895508
vt 0.47802734 0.7895508
vt 0.5576172 0.79541016
vt 0.5761719 0.79541016
vt 0.5029297 0.79541016
vt 0.484375 0.79541016
vt 0.5029297 0.8017578
vt 0.5576172 0.8017578
vt 0.038238525 0.3347168
vt 0.038238525 0.3400879
vt 0.21838379 0.3347168
vt 0.21838379 0.3400879
vt 0.038238525 0.35864258
vt 0.038238525 0.37060547
vt 0.21838379 0.35864258
vt 0.21838379 0.37060547
vt 0.038238525 0.38867188
vt 0.038269043 0.3947754
vt 0.21838379 0.38867188
vt 0.21838379 0.3947754
vt 0.03829956 0.5161133
vt 0.03829956 0.52246094
vt 0.21838379 0.5161133
vt 0.21838379 0.52246094
vt 0.03829956 0.57666016
vt 0.038330078 0.58251953
vt 0.21838379 0.57666016
vt 0.21838379 0.58251953
vt 0.038330078 0.59472656
vt 0.038330078 0.75
vt 0.21838379 0.59472656
vt 0.21838379 0.75
vt 0.038330078 0.7553711
vt 0.038330078 0.76123047
vt 0.21838379 0.7553711
vt 0.21850586 0.76123047
vt 0.32128906 0.9941406
vt 0.37719727 0.9941406
vt 0.3215332 0.8129883
vt 0.37768555 0.81347656
vt 0.38476562 0.9941406
vt 0.40014648 0.9941406
vt 0.3852539 0.81347656
vt 0.40014648 0.81347656
vt 0.40795898 0.9941406
vt 0.41552734 0.9941406
vt 0.40795898 0.81347656
vt 0.41552734 0.81347656
vt 0.4230957 0.9941406
vt 0.43041992 0.9941406
vt 0.4230957 0.81347656
vt 0.43115234 0.81347656
vt 0.45336914 0.9941406
vt 0.46118164 0.9941406
vt 0.45410156 0.81347656
vt 0.46142578 0.81347656
vt 0.5283203 0.9941406
vt 0.53564453 0.9941406
vt 0.5283203 0.81347656
vt 0.53564453 0.81347656
vt 0.92285156 0.94091797
vt 0.92285156 0.86572266
vt 0.7426758 0.94091797
vt 0.7426758 0.86572266
vt 0.92285156 0.84765625
vt 0.92285156 0.8417969
vt 0.7426758 0.84765625
vt 0.7426758 0.8417969
vt 0.92285156 0.8354492
vt 0.92285156 0.7207031
vt 0.7426758 0.8354492
vt 0.7426758 0.7207031
vt 0.92285156 0.69140625
vt 0.92285156 0.6855469
vt 0.7426758 0.69140625
vt 0.7426758 0.6855469
vt 0.92285156 0.39746094
vt 0.92285156 0.39135742
vt 0.7426758 0.39746094
vt 0.7426758 0.39135742
vt 0.92285156 0.37353516
vt 0.92285156 0.36157227
vt 0.7426758 0.37353516
vt 0.7426758 0.36157227
vt 0.038238525 0.3479004
vt 0.038238525 0.35351562
vt 0.21838379 0.3479004
vt 0.21838379 0.35351562
vt 0.038238525 0.37060547
vt 0.038238525 0.37670898
vt 0.21838379 0.37060547
vt 0.21838379 0.37670898
vt 0.038238525 0.38256836
vt 0.038238525 0.38867188
vt 0.21838379 0.38256836
vt 0.21838379 0.38867188
vt 0.038238525 0.37670898
vt 0.038238525 0.38256836
vt 0.21838379 0.37670898
vt 0.21838379 0.38256836
vt 0.038269043 0.40063477
vt 0.038269043 0.49829102
vt 0.21838379 0.40063477
vt 0.21838379 0.49829102
vt 0.038269043 0.49829102
vt 0.038269043 0.50439453
vt 0.21838379 0.49829102
vt 0.21838379 0.50439453
vt 0.038269043 0.50439453
vt 0.03829956 0.5102539
vt 0.21838379 0.50439453
vt 0.21838379 0.5102539
vt 0.038330078 0.75
vt 0.038330078 0.7553711
vt 0.21838379 0.75
vt 0.21838379 0.7553711
vt 0.038330078 0.76123047
vt 0.038360596 0.7734375
vt 0.21850586 0.76123047
vt 0.21850586 0.7734375
vt 0.038360596 0.7734375
vt 0.038360596 0.7792969
vt 0.21850586 0.7734375
vt 0.21850586 0.7792969
vt 0.038360596 0.7866211
vt 0.038360596 0.85546875
vt 0.21850586 0.7866211
vt 0.21850586 0.85546875
vt 0.038360596 0.8676758
vt 0.038360596 0.87939453
vt 0.21850586 0.8676758
vt 0.21850586 0.87939453
vt 0.038360596 0.8613281
vt 0.038360596 0.8676758
vt 0.21850586 0.8613281
vt 0.21850586 0.8676758
vt 0.038360596 0.87939453
vt 0.038360596 0.8852539
vt 0.21850586 0.87939453
vt 0.21850586 0.8852539
vt 0.37719727 0.9941406
vt 0.38476562 0.9941406
vt 0.37768555 0.81347656
vt 0.3852539 0.81347656
vt 0.40014648 0.9941406
vt 0.40795898 0.9941406
vt 0.40014648 0.81347656
vt 0.40795898 0.81347656
vt 0.41552734 0.9941406
vt 0.4230957 0.9941406
vt 0.41552734 0.81347656
vt 0.4230957 0.81347656
vt 0.43041992 0.9941406
vt 0.45336914 0.9941406
vt 0.43115234 0.81347656
vt 0.45410156 0.81347656
vt 0.53564453 0.9941406
vt 0.55859375 0.9941406
vt 0.53564453 0.81347656
vt 0.55859375 0.81347656
vt 0.55859375 0.9941406
vt 0.56640625 0.9941406
vt 0.55859375 0.81347656
vt 0.56640625 0.81347656
vt 0.56640625 0.9941406
vt 0.57421875 0.9941406
vt 0.56640625 0.81347656
vt 0.57421875 0.81347656
vt 0.92285156 0.86572266
vt 0.92285156 0.84765625
vt 0.7426758 0.86572266
vt 0.7426758 0.84765625
vt 0.92285156 0.8417969
vt 0.92285156 0.8354492
vt 0.7426758 0.8417969
vt 0.7426758 0.8354492
vt 0.92285156 0.7207031
vt 0.92285156 0.69140625
vt 0.7426758 0.7207031
vt 0.7426758 0.69140625
vt 0.92285156 0.6855469
vt 0.92285156 0.67333984
vt 0.7426758 0.6855469
vt 0.7426758 0.67333984
vt 0.92285156 0.67333984
vt 0.92285156 0.66748047
vt 0.7426758 0.67333984
vt 0.7426758 0.66748047
vt 0.92285156 0.6616211
vt 0.92285156 0.5258789
vt 0.7426758 0.6616211
vt 0.7426758 0.5258789
vt 0.92285156 0.66748047
vt 0.92285156 0.6616211
vt 0.7426758 0.66748047
vt 0.7426758 0.6616211
vt 0.92285156 0.49145508
vt 0.92285156 0.484375
vt 0.7426758 0.49145508
vt 0.7426758 0.484375
vt 0.92285156 0.47851562
vt 0.92285156 0.40356445
vt 0.7426758 0.47851562
vt 0.7426758 0.40356445
vt 0.92285156 0.39135742
vt 0.92285156 0.38549805
vt 0.7426758 0.39135742
vt 0.7426758 0.38549805
vt 0.92285156 0.38549805
vt 0.92285156 0.37939453
vt 0.7426758 0.38549805
vt 0.7426758 0.37939453
vt 0.92285156 0.36157227
vt 0.92285156 0.35546875
vt 0.7426758 0.36157227
vt 0.7426758 0.35546875
vt 0.92285156 0.35546875
vt 0.92285156 0.32763672
vt 0.7426758 0.35546875
vt 0.7426758 0.32763672
vt 0.038238525 0.3400879
vt 0.038238525 0.3479004
vt 0.21838379 0.3400879
vt 0.21838379 0.3479004
vt 0.038238525 0.35351562
vt 0.038238525 0.35864258
vt 0.21838379 0.35351562
vt 0.21838379 0.35864258
vt 0.92285156 0.37939453
vt 0.92285156 0.37353516
vt 0.7426758 0.37939453
vt 0.7426758 0.37353516
vt 0.038269043 0.3947754
vt 0.038269043 0.40063477
vt 0.21838379 0.3947754
vt 0.21838379 0.40063477
vt 0.92285156 0.40356445
vt 0.92285156 0.39746094
vt 0.7426758 0.40356445
vt 0.7426758 0.39746094
vt 0.92285156 0.484375
vt 0.92285156 0.47851562
vt 0.7426758 0.484375
vt 0.7426758 0.47851562
vt 0.92285156 0.5258789
vt 0.92285156 0.49145508
vt 0.7426758 0.5258789
vt 0.7426758 0.49145508
vt 0.03829956 0.5102539
vt 0.03829956 0.5161133
vt 0.21838379 0.5102539
vt 0.21838379 0.5161133
vt 0.03829956 0.52246094
vt 0.03829956 0.57666016
vt 0.21838379 0.52246094
vt 0.21838379 0.57666016
vt 0.038330078 0.58251953
vt 0.038330078 0.59472656
vt 0.21838379 0.58251953
vt 0.21838379 0.59472656
vt 0.038360596 0.7792969
vt 0.038360596 0.7866211
vt 0.21850586 0.7792969
vt 0.21850586 0.7866211
vt 0.038360596 0.85546875
vt 0.038360596 0.8613281
vt 0.21850586 0.85546875
vt 0.21850586 0.8613281
vt 0.038360596 0.8852539
vt 0.038360596 0.9091797
vt 0.21850586 0.8852539
vt 0.21850586 0.9091797
vt 0.46118164 0.9941406
vt 0.5283203 0.9941406
vt 0.46142578 0.81347656
vt 0.5283203 0.81347656
vt 0.28735352 0.3178711
vt 0.28100586 0.31152344
vt 0.28100586 0.3178711
vt 0.71972656 0.3239746
vt 0.7260742 0.31152344
vt 0.7260742 0.3239746
vt 0.29345703 0.3239746
vt 0.28735352 0.3239746
vt 0.7138672 0.33642578
vt 0.71972656 0.33642578
vt 0.2998047 0.33642578
vt 0.29345703 0.33642578
vt 0.70751953 0.34277344
vt 0.7138672 0.34277344
vt 0.30615234 0.34277344
vt 0.2998047 0.34277344
vt 0.7011719 0.34887695
vt 0.70751953 0.34887695
vt 0.31225586 0.34887695
vt 0.30615234 0.34887695
vt 0.65771484 0.43017578
vt 0.6948242 0.42382812
vt 0.7011719 0.42382812
vt 0.6948242 0.43017578
vt 0.38134766 0.46191406
vt 0.32470703 0.45581055
vt 0.32470703 0.46191406
vt 0.31860352 0.4494629
vt 0.31860352 0.45581055
vt 0.31225586 0.4494629
vt 0.39379883 0.46826172
vt 0.38134766 0.46826172
vt 0.6074219 0.5859375
vt 0.6386719 0.5800781
vt 0.6386719 0.5859375
vt 0.6513672 0.57373047
vt 0.6513672 0.5800781
vt 0.65771484 0.57373047
vt 0.4206543 0.640625
vt 0.41235352 0.63427734
vt 0.41235352 0.640625
vt 0.39990234 0.6279297
vt 0.39379883 0.6279297
vt 0.39990234 0.63427734
vt 0.42700195 0.71240234
vt 0.4206543 0.71240234
vt 0.43945312 0.71875
vt 0.42700195 0.71875
vt 0.58251953 0.7109375
vt 0.6015625 0.70458984
vt 0.6074219 0.70458984
vt 0.6015625 0.7109375
vt 0.46557617 0.72509766
vt 0.43945312 0.72509766
vt 0.4716797 0.7705078
vt 0.46557617 0.7705078
vt 0.5761719 0.7895508
vt 0.58251953 0.7895508
vt 0.47802734 0.7832031
vt 0.4716797 0.7832031
vt 0.484375 0.7895508
vt 0.47802734 0.7895508
vt 0.5576172 0.79541016
vt 0.5761719 0.79541016
vt 0.5029297 0.79541016
vt 0.484375 0.79541016
vt 0.5029297 0.8017578
vt 0.5576172 0.8017578
vn -0 0 -1
vn -0 0 -1
vn -0 0 -1
vn -4.172325E-07 4.172325E-07 -1
vn -0 0 -1
vn -0 0 -1
vn -4.172325E-07 4.172325E-07 -1
vn -0 0 -1
vn -4.172325E-07 -1.7881393E-07 -1
vn -0 0 -1
vn -4.172325E-07 2.3841858E-07 -1
vn -0 0 -1
vn -4.172325E-07 -4.172325E-07 -1
vn -0 0 -1
vn -4.172325E-07 4.172325E-07 -1
vn -0 0 -1
vn -4.172325E-07 -4.172325E-07 -1
vn -0 0 -1
vn -4.7683716E-07 4.7683716E-07 -1
vn -0 0 -1
vn -4.7683716E-07 -2.3841858E-07 -1
vn -0 0 -1
vn -0 0 -1
vn -0 0 -1
vn -5.364418E-07 1.0728836E-06 -1
vn -0 0 -1
vn -0 0 -1
vn -0 0 -1
vn -0 0 -1
vn -0 0 -1
vn -5.364418E-07 1.0728836E-06 -1
vn -0 0 -1
vn -5.364418E-07 9.536743E-07 -1
vn -0 0 -1
vn -0 0 -1
vn -0 0 -1
vn -0 0 -1
vn -1.424551E-05 0 -1
vn -0 0 -1
vn -0 0 -1
vn -0 0 -1
vn -0 0 -1
vn -0 0 -1
vn -0 0 -1
vn -0 0 -1
vn -0 0 -1
vn -1.013279E-06 -1.4901161E-06 -1
vn -1.7881393E-06 0 -1
vn 2.3841858E-07 4.7683716E-07 -1
vn -0 0 -1
vn -0 0 -1
vn -0 0 -1
vn 2.3841858E-07 4.7683716E-07 -1
vn -0 0 -1
vn 2.3841858E-07 4.7683716E-07 -1
vn -0 4.7683716E-07 -1
vn -0 0 -1
vn -0 0 -1
vn -0 0 -1
vn -0 0 -1
vn -0 0 -1
vn -0 0 -1
vn -0 0 -1
vn -0 0 -1
vn -0 0 -1
vn -0 0 -1
vn -0 0 -1
vn -0 0 -1
vn -1 0 3.8146973E-06
vn -1 0 3.8146973E-06
vn -1 0 3.8146973E-06
vn -1 0 3.8146973E-06
vn -1 0 3.695488E-06
vn -1 0 3.695488E-06
vn -1 0 3.695488E-06
vn -1 0 3.695488E-06
vn -1 0 5.6028366E-06
vn -1 0 5.6028366E-06
vn -1 0 5.6028366E-06
vn -1 0 5.6028366E-06
vn -1 0 3.8146973E-06
vn -1 0 3.8146973E-06
vn -1 0 3.8146973E-06
vn -1 0 3.8146973E-06
vn -1 0 3.8146973E-06
vn -1 0 3.8146973E-06
vn -1 0 3.8146973E-06
vn -1 0 3.8146973E-06
vn -1 0 3.8146973E-06
vn -1 0 3.8146973E-06
vn -1 0 3.8146973E-06
vn -1 0 3.8146973E-06
vn -1 0 3.8146973E-06
vn -1 0 3.8146973E-06
vn -1 0 3.8146973E-06
vn -1 0 3.8146973E-06
vn -1 -1.1920929E-07 3.8146973E-06
vn -1 -1.1920929E-07 3.8146973E-06
vn -1 -1.1920929E-07 3.8146973E-06
vn -1 0 3.8146973E-06
vn -1 0 3.8146973E-06
vn -1 0 3.8146973E-06
vn -1 0 3.8146973E-06
vn -1 0 3.8146973E-06
vn -1 0 5.722046E-06
vn -1 0 5.722046E-06
vn -1 0 5.722046E-06
vn -1 0 5.722046E-06
vn -1 0 3.8146973E-06
vn -1 0 3.8146973E-06
vn -1 0 3.8146973E-06
vn -1 0 3.8146973E-06
vn -1 0 3.8146973E-06
vn -1 0 3.8146973E-06
vn -1 0 3.8146973E-06
vn -1 0 3.8146973E-06
vn 1 0 -3.8146973E-06
vn 1 0 -3.8146973E-06
vn 1 0 -3.8146973E-06
vn 1 0 -3.8146973E-06
vn 1 0 -3.8146973E-06
vn 1 0 -3.8146973E-06
vn 1 0 -3.8146973E-06
vn 1 0 -3.8146973E-06
vn 1 0 -3.8146973E-06
vn 1 0 -3.8146973E-06
vn 1 0 -3.8146973E-06
vn 1 0 -3.8146973E-06
vn 1 0 -3.8146973E-06
vn 1 0 -3.8146973E-06
vn 1 0 -3.8146973E-06
vn 1 0 -3.8146973E-06
vn 1 0 -3.8146973E-06
vn 1 0 -3.8146973E-06
vn 1 0 -3.8146973E-06
vn 1 0 -3.8146973E-06
vn 1 0 -3.8146973E-06
vn 1 0 -3.8146973E-06
vn 1 0 -3.8146973E-06
vn 1 0 -3.8146973E-06
vn 1 0 -3.8146973E-06
vn 1 0 -3.8146973E-06
vn 1 0 -3.8146973E-06
vn 1 0 -3.8146973E-06
vn -1 0 3.695488E-06
vn -1 0 3.695488E-06
vn -1 0 3.695488E-06
vn -1 0 3.695488E-06
vn -0 1 -8.34465E-07
vn -0 1 -8.34465E-07
vn -0 1 -8.34465E-07
vn -0 1 -8.34465E-07
vn -0 1 -8.34465E-07
vn -0 1 -8.34465E-07
vn -0 1 -8.34465E-07
vn -0 1 -8.34465E-07
vn -1 0 3.695488E-06
vn -1 0 3.695488E-06
vn -1 0 3.695488E-06
vn -1 0 3.695488E-06
vn -1 0 3.695488E-06
vn -1 0 3.695488E-06
vn -1 0 3.695488E-06
vn -1 0 3.695488E-06
vn -0 1 -5.364418E-07
vn -0 1 -5.364418E-07
vn -0 1 -5.364418E-07
vn -0 1 -5.364418E-07
vn -1 0 3.8146973E-06
vn -1 0 3.8146973E-06
vn -1 0 3.8146973E-06
vn -1 0 3.8146973E-06
vn -0 1 -8.940697E-07
vn -0 1 -8.940697E-07
vn -0 1 -8.940697E-07
vn -0 1 -8.940697E-07
vn -0 1 -6.556511E-07
vn -0 1 -6.556511E-07
vn -0 1 -6.556511E-07
vn -0 1 -6.556511E-07
vn -1 0 3.8146973E-06
vn -1 0 3.8146973E-06
vn -1 0 3.8146973E-06
vn -1 0 3.8146973E-06
vn -1 0 5.722046E-06
vn -1 0 5.722046E-06
vn -1 0 5.722046E-06
vn -1 0 5.722046E-06
vn -0 1 -7.748604E-07
vn -0 1 -7.748604E-07
vn -0 1 -7.748604E-07
vn -0 1 -7.748604E-07
vn -1 0 3.8146973E-06
vn -1 0 3.8146973E-06
vn -1 0 3.8146973E-06
vn -1 0 3.8146973E-06
vn -1 0 3.8146973E-06
vn -1 0 3.8146973E-06
vn -1 0 3.8146973E-06
vn -1 0 3.8146973E-06
vn -0 1 -8.34465E-07
vn -0 1 -8.34465E-07
vn -0 1 -8.34465E-07
vn -0 1 -8.34465E-07
vn -0 1 -8.34465E-07
vn -0 1 -8.34465E-07
vn -0 1 -8.34465E-07
vn -0 1 -8.34465E-07
vn -0 1 -8.34465E-07
vn -0 1 -8.34465E-07
vn -0 1 -8.34465E-07
vn -0 1 -8.34465E-07
vn -0 1 -8.34465E-07
vn -0 1 -8.34465E-07
vn -0 1 -8.34465E-07
vn -0 1 -8.34465E-07
vn -0 1 -8.34465E-07
vn -0 1 -8.34465E-07
vn -0 1 -8.34465E-07
vn -0 1 -8.34465E-07
vn 1 0 -3.8146973E-06
vn 1 0 -3.8146973E-06
vn 1 0 -3.8146973E-06
vn 1 0 -3.8146973E-06
vn -0 1 -8.34465E-07
vn -0 1 -8.34465E-07
vn -0 1 -8.34465E-07
vn -0 1 -8.34465E-07
vn -0 1 -8.34465E-07
vn -0 1 -8.34465E-07
vn -0 1 -8.34465E-07
vn -0 1 -8.34465E-07
vn -0 1 -8.34465E-07
vn -0 1 -8.34465E-07
vn -0 1 -8.34465E-07
vn -0 1 -8.34465E-07
vn -0 1 -8.34465E-07
vn -0 1 -8.34465E-07
vn -0 1 -8.34465E-07
vn -0 1 -8.34465E-07
vn -0 1 -5.9604645E-07
vn -0 1 -5.9604645E-07
vn -0 1 -5.9604645E-07
vn -0 1 -5.9604645E-07
vn 1 0 -3.8146973E-06
vn 1 0 -3.8146973E-06
vn 1 0 -3.8146973E-06
vn 1 0 -3.8146973E-06
vn 1 0 -3.8146973E-06
vn 1 0 -3.8146973E-06
vn 1 0 -3.8146973E-06
vn 1 0 -3.8146973E-06
vn -0 1 -8.34465E-07
vn -0 1 -8.34465E-07
vn -0 1 -8.34465E-07
vn -0 1 -8.34465E-07
vn 1 0 -5.722046E-06
vn 1 0 -5.722046E-06
vn 1 0 -5.722046E-06
vn 1 0 -5.722046E-06
vn 1 0 -3.8146973E-06
vn 1 0 -3.8146973E-06
vn 1 0 -3.8146973E-06
vn 1 0 -3.8146973E-06
vn -0 1 -8.34465E-07
vn -0 1 -8.34465E-07
vn -0 1 -8.34465E-07
vn -0 1 -8.34465E-07
vn 1 0 -3.8146973E-06
vn 1 0 -3.8146973E-06
vn 1 0 -3.8146973E-06
vn 1 0 -3.8146973E-06
vn -0 1 -7.1525574E-07
vn -0 1 -7.1525574E-07
vn -0 1 -7.1525574E-07
vn -0 1 -7.1525574E-07
vn 1 0 -3.8146973E-06
vn 1 0 -3.8146973E-06
vn 1 0 -3.8146973E-06
vn 1 0 -3.8146973E-06
vn -0 1 -5.9604645E-07
vn -0 1 -5.9604645E-07
vn -0 1 -5.9604645E-07
vn -0 1 -5.9604645E-07
vn -0 1 -7.1525574E-07
vn -0 1 -7.1525574E-07
vn -0 1 -7.1525574E-07
vn -0 1 -7.1525574E-07
vn -0 1 -8.34465E-07
vn -0 1 -8.34465E-07
vn -0 1 -8.34465E-07
vn -0 1 -8.34465E-07
vn -0 1 -7.1525574E-07
vn -0 1 -7.1525574E-07
vn -0 1 -7.1525574E-07
vn -0 1 -7.1525574E-07
vn -0 1 -7.1525574E-07
vn -0 1 -7.1525574E-07
vn -0 1 -7.1525574E-07
vn -0 1 -7.1525574E-07
vn -0 1 -8.34465E-07
vn -0 1 -8.34465E-07
vn -0 1 -8.34465E-07
vn -0 1 -8.34465E-07
vn -0 1 -5.9604645E-07
vn -0 1 -5.9604645E-07
vn -0 1 -5.9604645E-07
vn -0 1 -5.9604645E-07
vn -0 1 -4.7683716E-07
vn -0 1 -4.7683716E-07
vn -0 1 -4.7683716E-07
vn -0 1 -4.7683716E-07
vn -0 1 -4.7683716E-07
vn -0 1 -4.7683716E-07
vn -0 1 -4.7683716E-07
vn -0 1 -4.7683716E-07
vn -0 1 -8.34465E-07
vn -0 1 -8.34465E-07
vn -0 1 -8.34465E-07
vn -0 1 -8.34465E-07
vn 1.3709068E-06 1 -7.1525574E-07
vn 1.3709068E-06 1 -7.1525574E-07
vn 1.3709068E-06 1 -7.1525574E-07
vn 1.3709068E-06 1 -7.1525574E-07
vn -0 1 -7.748604E-07
vn -0 1 -7.748604E-07
vn -0 1 -7.748604E-07
vn -0 1 -7.748604E-07
vn -4.172325E-07 1 -6.556511E-07
vn -4.172325E-07 1 -6.556511E-07
vn -4.172325E-07 1 -6.556511E-07
vn 4.172325E-07 1 -5.364418E-07
vn -0 1 -8.34465E-07
vn -0 1 -8.34465E-07
vn -0 1 -8.34465E-07
vn -0 1 -8.34465E-07
vn -0 0 1
vn -0 0 1
vn -0 0 1
vn 4.172325E-07 -4.172325E-07 1
vn -0 0 1
vn -0 0 1
vn 4.172325E-07 -4.172325E-07 1
vn -0 0 1
vn 4.172325E-07 1.7881393E-07 1
vn -0 0 1
vn 4.172325E-07 -2.3841858E-07 1
vn -0 0 1
vn 4.172325E-07 4.172325E-07 1
vn -0 0 1
vn 4.172325E-07 -4.172325E-07 1
vn -0 0 1
vn 4.172325E-07 4.172325E-07 1
vn -0 0 1
vn 4.7683716E-07 -4.7683716E-07 1
vn -0 0 1
vn 4.7683716E-07 2.3841858E-07 1
vn -0 0 1
vn -0 0 1
vn -0 0 1
vn 5.364418E-07 -1.0728836E-06 1
vn -0 0 1
vn -0 0 1
vn -0 0 1
vn -0 0 1
vn -0 0 1
vn 5.364418E-07 -1.0728836E-06 1
vn -0 0 1
vn 5.364418E-07 -9.536743E-07 1
vn -0 0 1
vn -0 0 1
vn -0 0 1
vn 1.424551E-05 0 1
vn -0 0 1
vn -0 0 1
vn -0 0 1
vn -0 0 1
vn -0 0 1
vn -0 0 1
vn -0 0 1
vn -0 0 1
vn -0 0 1
vn 1.013279E-06 1.4901161E-06 1
vn 1.7881393E-06 0 1
vn -2.3841858E-07 -4.7683716E-07 1
vn -0 0 1
vn -0 0 1
vn -0 0 1
vn -2.3841858E-07 -4.7683716E-07 1
vn -0 0 1
vn -2.3841858E-07 -4.7683716E-07 1
vn -0 -4.7683716E-07 1
vn -0 0 1
vn -0 0 1
vn -0 0 1
vn -0 0 1
vn -0 0 1
vn -0 0 1
vn -0 0 1
vn -0 0 1
vn -0 0 1
vn -0 0 1
vn -0 0 1
vn -0 0 1
g Rocks_Medium_009_0
f 3/3/3 2/2/2 1/1/1
f 4/4/4 3/3/3 1/1/1
f 3/3/3 4/4/4 5/5/5
f 5/5/5 4/4/4 6/6/6
f 4/4/4 1/1/1 7/7/7
f 7/7/7 1/1/1 8/8/8
f 7/7/7 9/9/9 4/4/4
f 4/4/4 9/9/9 10/10/10
f 9/9/9 7/7/7 11/11/11
f 11/11/11 7/7/7 12/12/12
f 11/11/11 13/13/13 9/9/9
f 9/9/9 13/13/13 14/14/14
f 13/13/13 11/11/11 15/15/15
f 15/15/15 11/11/11 16/16/16
f 13/13/13 15/15/15 17/17/17
f 13/13/13 17/17/17 18/18/18
f 17/17/17 15/15/15 19/19/19
f 19/19/19 15/15/15 20/20/20
f 21/21/21 17/17/17 19/19/19
f 22/22/22 17/17/17 21/21/21
f 17/17/17 22/22/22 23/23/23
f 24/24/24 22/22/22 21/21/21
f 21/21/21 19/19/19 25/25/25
f 25/25/25 19/19/19 26/26/26
f 25/25/25 26/26/26 27/27/27
f 26/26/26 19/19/19 28/28/28
f 26/26/26 28/28/28 29/29/29
f 28/28/28 19/19/19 30/30/30
f 25/25/25 31/31/31 21/21/21
f 31/31/31 25/25/25 32/32/32
f 31/31/31 33/33/33 21/21/21
f 33/33/33 34/34/34 21/21/21
f 34/34/34 33/33/33 35/35/35
f 21/21/21 34/34/34 36/36/36
f 36/36/36 37/37/37 21/21/21
f 38/38/38 36/36/36 34/34/34
f 39/39/39 33/33/33 31/31/31
f 40/40/40 39/39/39 31/31/31
f 41/41/41 39/39/39 40/40/40
f 42/42/42 40/40/40 31/31/31
f 42/42/42 31/31/31 43/43/43
f 40/40/40 42/42/42 44/44/44
f 39/39/39 45/45/45 33/33/33
f 45/45/45 39/39/39 46/46/46
f 45/45/45 47/47/47 33/33/33
f 47/47/47 45/45/45 48/48/48
f 33/33/33 47/47/47 49/49/49
f 49/49/49 50/50/50 33/33/33
f 50/50/50 51/51/51 33/33/33
f 50/50/50 49/49/49 52/52/52
f 53/53/53 49/49/49 47/47/47
f 54/54/54 53/53/53 47/47/47
f 53/53/53 55/55/55 49/49/49
f 55/55/55 53/53/53 56/56/56
f 49/49/49 55/55/55 57/57/57
f 57/57/57 58/58/58 49/49/49
f 59/59/59 57/57/57 55/55/55
f 60/60/60 59/59/59 55/55/55
f 59/59/59 61/61/61 57/57/57
f 61/61/61 59/59/59 62/62/62
f 61/61/61 63/63/63 57/57/57
f 57/57/57 63/63/63 64/64/64
f 63/63/63 61/61/61 65/65/65
f 65/65/65 61/61/61 66/66/66
f 67/67/67 63/63/63 65/65/65
f 63/63/63 67/67/67 68/68/68
f 71/71/71 70/70/70 69/69/69
f 70/70/70 71/71/71 72/72/72
f 75/75/75 74/74/74 73/73/73
f 74/74/74 75/75/75 76/76/76
f 79/79/79 78/78/78 77/77/77
f 78/78/78 79/79/79 80/80/80
f 83/83/83 82/82/82 81/81/81
f 82/82/82 83/83/83 84/84/84
f 87/87/87 86/86/86 85/85/85
f 86/86/86 87/87/87 88/88/88
f 91/91/91 90/90/90 89/89/89
f 90/90/90 91/91/91 92/92/92
f 95/95/95 94/94/94 93/93/93
f 94/94/94 95/95/95 96/96/96
f 99/99/99 98/98/98 97/97/97
f 98/98/98 99/99/99 100/100/100
f 103/103/103 102/102/102 101/101/101
f 102/102/102 103/103/103 104/104/104
f 107/107/107 106/106/106 105/105/105
f 106/106/106 107/107/107 108/108/108
f 111/111/111 110/110/110 109/109/109
f 110/110/110 111/111/111 112/112/112
f 115/115/115 114/114/114 113/113/113
f 114/114/114 115/115/115 116/116/116
f 119/119/119 118/118/118 117/117/117
f 118/118/118 119/119/119 120/120/120
f 123/123/123 122/122/122 121/121/121
f 122/122/122 123/123/123 124/124/124
f 127/127/127 126/126/126 125/125/125
f 126/126/126 127/127/127 128/128/128
f 131/131/131 130/130/130 129/129/129
f 130/130/130 131/131/131 132/132/132
f 135/135/135 134/134/134 133/133/133
f 134/134/134 135/135/135 136/136/136
f 139/139/139 138/138/138 137/137/137
f 138/138/138 139/139/139 140/140/140
f 143/143/143 142/142/142 141/141/141
f 142/142/142 143/143/143 144/144/144
f 147/147/147 146/146/146 145/145/145
f 146/146/146 147/147/147 148/148/148
f 151/151/151 150/150/150 149/149/149
f 150/150/150 151/151/151 152/152/152
f 155/155/155 154/154/154 153/153/153
f 154/154/154 155/155/155 156/156/156
f 159/159/159 158/158/158 157/157/157
f 158/158/158 159/159/159 160/160/160
f 163/163/163 162/162/162 161/161/161
f 162/162/162 163/163/163 164/164/164
f 167/167/167 166/166/166 165/165/165
f 166/166/166 167/167/167 168/168/168
f 171/171/171 170/170/170 169/169/169
f 170/170/170 171/171/171 172/172/172
f 175/175/175 174/174/174 173/173/173
f 174/174/174 175/175/175 176/176/176
f 179/179/179 178/178/178 177/177/177
f 178/178/178 179/179/179 180/180/180
f 183/183/183 182/182/182 181/181/181
f 182/182/182 183/183/183 184/184/184
f 187/187/187 186/186/186 185/185/185
f 186/186/186 187/187/187 188/188/188
f 191/191/191 190/190/190 189/189/189
f 190/190/190 191/191/191 192/192/192
f 195/195/195 194/194/194 193/193/193
f 194/194/194 195/195/195 196/196/196
f 199/199/199 198/198/198 197/197/197
f 198/198/198 199/199/199 200/200/200
f 203/203/203 202/202/202 201/201/201
f 202/202/202 203/203/203 204/204/204
f 207/207/207 206/206/206 205/205/205
f 206/206/206 207/207/207 208/208/208
f 211/211/211 210/210/210 209/209/209
f 210/210/210 211/211/211 212/212/212
f 215/215/215 214/214/214 213/213/213
f 214/214/214 215/215/215 216/216/216
f 219/219/219 218/218/218 217/217/217
f 218/218/218 219/219/219 220/220/220
f 223/223/223 222/222/222 221/221/221
f 222/222/222 223/223/223 224/224/224
f 227/227/227 226/226/226 225/225/225
f 226/226/226 227/227/227 228/228/228
f 231/231/231 230/230/230 229/229/229
f 230/230/230 231/231/231 232/232/232
f 235/235/235 234/234/234 233/233/233
f 234/234/234 235/235/235 236/236/236
f 239/239/239 238/238/238 237/237/237
f 238/238/238 239/239/239 240/240/240
f 243/243/243 242/242/242 241/241/241
f 242/242/242 243/243/243 244/244/244
f 247/247/247 246/246/246 245/245/245
f 246/246/246 247/247/247 248/248/248
f 251/251/251 250/250/250 249/249/249
f 250/250/250 251/251/251 252/252/252
f 255/255/255 254/254/254 253/253/253
f 254/254/254 255/255/255 256/256/256
f 259/259/259 258/258/258 257/257/257
f 258/258/258 259/259/259 260/260/260
f 263/263/263 262/262/262 261/261/261
f 262/262/262 263/263/263 264/264/264
f 267/267/267 266/266/266 265/265/265
f 266/266/266 267/267/267 268/268/268
f 271/271/271 270/270/270 269/269/269
f 270/270/270 271/271/271 272/272/272
f 275/275/275 274/274/274 273/273/273
f 274/274/274 275/275/275 276/276/276
f 279/279/279 278/278/278 277/277/277
f 278/278/278 279/279/279 280/280/280
f 283/283/283 282/282/282 281/281/281
f 282/282/282 283/283/283 284/284/284
f 287/287/287 286/286/286 285/285/285
f 286/286/286 287/287/287 288/288/288
f 291/291/291 290/290/290 289/289/289
f 290/290/290 291/291/291 292/292/292
f 295/295/295 294/294/294 293/293/293
f 294/294/294 295/295/295 296/296/296
f 299/299/299 298/298/298 297/297/297
f 298/298/298 299/299/299 300/300/300
f 303/303/303 302/302/302 301/301/301
f 302/302/302 303/303/303 304/304/304
f 307/307/307 306/306/306 305/305/305
f 306/306/306 307/307/307 308/308/308
f 311/311/311 310/310/310 309/309/309
f 310/310/310 311/311/311 312/312/312
f 315/315/315 314/314/314 313/313/313
f 314/314/314 315/315/315 316/316/316
f 319/319/319 318/318/318 317/317/317
f 318/318/318 319/319/319 320/320/320
f 323/323/323 322/322/322 321/321/321
f 322/322/322 323/323/323 324/324/324
f 327/327/327 326/326/326 325/325/325
f 326/326/326 327/327/327 328/328/328
f 331/331/331 330/330/330 329/329/329
f 330/330/330 331/331/331 332/332/332
f 335/335/335 334/334/334 333/333/333
f 334/334/334 335/335/335 336/336/336
f 339/339/339 338/338/338 337/337/337
f 338/338/338 340/340/340 337/337/337
f 340/340/340 338/338/338 341/341/341
f 340/340/340 341/341/341 342/342/342
f 337/337/337 340/340/340 343/343/343
f 337/337/337 343/343/343 344/344/344
f 345/345/345 343/343/343 340/340/340
f 345/345/345 340/340/340 346/346/346
f 343/343/343 345/345/345 347/347/347
f 343/343/343 347/347/347 348/348/348
f 349/349/349 347/347/347 345/345/345
f 349/349/349 345/345/345 350/350/350
f 347/347/347 349/349/349 351/351/351
f 347/347/347 351/351/351 352/352/352
f 351/351/351 349/349/349 353/353/353
f 353/353/353 349/349/349 354/354/354
f 351/351/351 353/353/353 355/355/355
f 351/351/351 355/355/355 356/356/356
f 353/353/353 357/357/357 355/355/355
f 353/353/353 358/358/358 357/357/357
f 358/358/358 353/353/353 359/359/359
f 358/358/358 360/360/360 357/357/357
f 355/355/355 357/357/357 361/361/361
f 355/355/355 361/361/361 362/362/362
f 362/362/362 361/361/361 363/363/363
f 355/355/355 362/362/362 364/364/364
f 364/364/364 362/362/362 365/365/365
f 355/355/355 364/364/364 366/366/366
f 367/367/367 361/361/361 357/357/357
f 361/361/361 367/367/367 368/368/368
f 369/369/369 367/367/367 357/357/357
f 370/370/370 369/369/369 357/357/357
f 369/369/369 370/370/370 371/371/371
f 357/357/357 372/372/372 370/370/370
f 373/373/373 370/370/370 372/372/372
f 374/374/374 372/372/372 357/357/357
f 369/369/369 375/375/375 367/367/367
f 375/375/375 376/376/376 367/367/367
f 375/375/375 377/377/377 376/376/376
f 376/376/376 378/378/378 367/367/367
f 367/367/367 378/378/378 379/379/379
f 378/378/378 376/376/376 380/380/380
f 381/381/381 375/375/375 369/369/369
f 375/375/375 381/381/381 382/382/382
f 383/383/383 381/381/381 369/369/369
f 381/381/381 383/383/383 384/384/384
f 369/369/369 385/385/385 383/383/383
f 386/386/386 385/385/385 369/369/369
f 387/387/387 386/386/386 369/369/369
f 385/385/385 386/386/386 388/388/388
f 389/389/389 383/383/383 385/385/385
f 389/389/389 390/390/390 383/383/383
f 391/391/391 389/389/389 385/385/385
f 389/389/389 391/391/391 392/392/392
f 385/385/385 393/393/393 391/391/391
f 394/394/394 393/393/393 385/385/385
f 395/395/395 391/391/391 393/393/393
f 395/395/395 396/396/396 391/391/391
f 397/397/397 395/395/395 393/393/393
f 395/395/395 397/397/397 398/398/398
f 399/399/399 397/397/397 393/393/393
f 399/399/399 393/393/393 400/400/400
f 397/397/397 399/399/399 401/401/401
f 397/397/397 401/401/401 402/402/402
f 399/399/399 403/403/403 401/401/401
f 403/403/403 399/399/399 404/404/404
