g Rocks_Medium_007
v -1.4578637 -0.41088185 -0.512251
v 1.4449121 -0.41088185 -0.5122509
v -1.4578651 -0.29434898 -0.512254
v -1.423715 -0.29434898 -0.5122539
v 1.4107602 -0.26019868 -0.512254
v 1.4449105 -0.26019868 -0.512254
v 1.4107602 -0.22604837 -0.512254
v -1.3554144 -0.26019868 -0.5122539
v -1.423715 -0.26019868 -0.5122539
v 1.3424596 -0.22604837 -0.512254
v 1.3424596 -0.19189803 -0.512254
v -1.3212639 -0.22604837 -0.5122539
v -1.3554144 -0.22604837 -0.5122539
v 1.2741588 -0.19189803 -0.512254
v -1.3212639 -0.22604837 -0.5122539
v -1.2871138 -0.123597406 -0.5122539
v -1.3212639 -0.123597406 -0.5122539
v -1.2529634 -0.08944707 -0.5122539
v -1.2871138 -0.08944707 -0.5122539
v 1.2741588 -0.021146443 -0.512254
v -1.0822119 -0.055296764 -0.512254
v -1.2529634 -0.055296764 -0.5122539
v 1.2400085 -0.021146443 -0.512254
v 1.2400085 0.013003878 -0.512254
v 1.1375576 0.013003878 -0.512254
v -0.7407085 0.013003878 -0.5122539
v -1.0822119 0.013003878 -0.512254
v -0.36505502 0.18375513 -0.5122539
v -0.7407085 0.18375513 -0.5122539
v 1.1034073 0.18375513 -0.512254
v 1.1375576 0.18375513 -0.512254
v 1.1034073 0.21790545 -0.512254
v 0.9326557 0.21790545 -0.5122539
v -0.09185244 0.2862061 -0.512254
v -0.36505502 0.2862061 -0.5122539
v 0.078899175 0.32035637 -0.512254
v -0.09185244 0.32035637 -0.512254
v 0.8985054 0.38865703 -0.5122539
v 0.9326557 0.38865703 -0.5122539
v 0.078899175 0.42280734 -0.512254
v 0.8985054 0.42280734 -0.5122539
v 1.4449105 -0.26019868 -0.512254
v 1.4449121 -0.41088185 -0.5122509
v 1.4449121 -0.26019832 0.5122527
v 1.4449121 -0.4108814 0.5122527
v 1.2741588 -0.021146443 -0.512254
v 1.2741588 -0.19189803 -0.512254
v 1.2741604 -0.021145685 0.5122527
v 1.2741604 -0.19189732 0.5122527
v 1.2400085 0.013003878 -0.512254
v 1.2400085 -0.021146443 -0.512254
v 1.2400101 0.013004636 0.5122527
v 1.2400101 -0.021145685 0.5122527
v 0.8985054 0.42280734 -0.5122539
v 0.8985054 0.38865703 -0.5122539
v 0.89850545 0.42280772 0.51225275
v 0.89850545 0.38865742 0.51225275
v -0.09185244 0.2862061 -0.512254
v -0.09185244 0.32035637 -0.512254
v -0.09185091 0.28620645 0.5122527
v -0.09185091 0.3203568 0.5122527
v -0.7407085 0.013003878 -0.5122539
v -0.7407085 0.18375513 -0.5122539
v -0.740707 0.013004636 0.5122527
v -0.740707 0.18375511 0.5122527
v -1.3212639 -0.22604837 -0.5122539
v -1.3212639 -0.123597406 -0.5122539
v -1.3212624 -0.22604801 0.5122527
v -1.3212624 -0.123596646 0.5122527
v -1.3554144 -0.26019868 -0.5122539
v -1.3554144 -0.22604837 -0.5122539
v -1.3554127 -0.26019832 0.5122527
v -1.3554127 -0.22604801 0.5122527
v -1.423715 -0.29434898 -0.5122539
v -1.423715 -0.26019868 -0.5122539
v -1.4237133 -0.29434863 0.5122527
v -1.4237133 -0.26019832 0.5122527
v -1.4578637 -0.41088185 -0.512251
v -1.4578651 -0.29434898 -0.512254
v -1.4578624 -0.4108814 0.5122526
v -1.4578637 -0.29434863 0.5122526
v 1.4107602 -0.22604837 -0.512254
v 1.4107602 -0.26019868 -0.512254
v 1.4107617 -0.22604801 0.5122527
v 1.4107617 -0.26019832 0.5122527
v 1.3424596 -0.19189803 -0.512254
v 1.3424596 -0.22604837 -0.512254
v 1.3424611 -0.19189732 0.5122527
v 1.3424611 -0.22604801 0.5122527
v 1.2741588 -0.19189803 -0.512254
v 1.3424596 -0.19189803 -0.512254
v 1.2741604 -0.19189732 0.5122527
v 1.3424611 -0.19189732 0.5122527
v 1.2400085 -0.021146443 -0.512254
v 1.2741588 -0.021146443 -0.512254
v 1.2400101 -0.021145685 0.5122527
v 1.2741604 -0.021145685 0.5122527
v 1.1375576 0.013003878 -0.512254
v 1.2400085 0.013003878 -0.512254
v 1.1375577 0.013004636 0.5122527
v 1.2400101 0.013004636 0.5122527
v 1.1375576 0.18375513 -0.512254
v 1.1375576 0.013003878 -0.512254
v 1.1375577 0.18375511 0.5122527
v 1.1375577 0.013004636 0.5122527
v 1.1034073 0.21790545 -0.512254
v 1.1034073 0.18375513 -0.512254
v 1.1034074 0.21790542 0.5122527
v 1.1034074 0.18375511 0.5122527
v 0.9326557 0.38865703 -0.5122539
v 0.9326557 0.21790545 -0.5122539
v 0.9326559 0.38865742 0.51225275
v 0.9326559 0.21790542 0.51225275
v 0.078899175 0.32035637 -0.512254
v 0.078899175 0.42280734 -0.512254
v 0.07890069 0.3203568 0.5122527
v 0.07890069 0.42280772 0.5122527
v 0.078899175 0.42280734 -0.512254
v 0.8985054 0.42280734 -0.5122539
v 0.07890069 0.42280772 0.5122527
v 0.89850545 0.42280772 0.51225275
v -0.36505502 0.18375513 -0.5122539
v -0.36505502 0.2862061 -0.5122539
v -0.36505356 0.18375511 0.51225275
v -0.36505356 0.28620645 0.51225275
v -0.7407085 0.18375513 -0.5122539
v -0.36505502 0.18375513 -0.5122539
v -0.740707 0.18375511 0.5122527
v -0.36505356 0.18375511 0.51225275
v -1.0822119 -0.055296764 -0.512254
v -1.0822119 0.013003878 -0.512254
v -1.0822101 -0.055296 0.5122526
v -1.0822101 0.013004636 0.5122526
v -1.0822119 0.013003878 -0.512254
v -0.7407085 0.013003878 -0.5122539
v -1.0822101 0.013004636 0.5122526
v -0.740707 0.013004636 0.5122527
v -1.2529634 -0.055296764 -0.5122539
v -1.0822119 -0.055296764 -0.512254
v -1.2529618 -0.055296 0.5122527
v -1.0822101 -0.055296 0.5122526
v -1.2529634 -0.08944707 -0.5122539
v -1.2529634 -0.055296764 -0.5122539
v -1.2529618 -0.089446336 0.5122527
v -1.2529618 -0.055296 0.5122527
v -1.2871138 -0.08944707 -0.5122539
v -1.2529634 -0.08944707 -0.5122539
v -1.2871121 -0.089446336 0.5122527
v -1.2529618 -0.089446336 0.5122527
v -1.2871138 -0.123597406 -0.5122539
v -1.2871138 -0.08944707 -0.5122539
v -1.2871121 -0.123596646 0.5122527
v -1.2871121 -0.089446336 0.5122527
v -1.4578651 -0.29434898 -0.512254
v -1.423715 -0.29434898 -0.5122539
v -1.4578637 -0.29434863 0.5122526
v -1.4237133 -0.29434863 0.5122527
v -1.423715 -0.26019868 -0.5122539
v -1.3554144 -0.26019868 -0.5122539
v -1.4237133 -0.26019832 0.5122527
v -1.3554127 -0.26019832 0.5122527
v 1.4107602 -0.26019868 -0.512254
v 1.4449105 -0.26019868 -0.512254
v 1.4107617 -0.26019832 0.5122527
v 1.4449121 -0.26019832 0.5122527
v 1.3424596 -0.22604837 -0.512254
v 1.4107602 -0.22604837 -0.512254
v 1.3424611 -0.22604801 0.5122527
v 1.4107617 -0.22604801 0.5122527
v -1.3554144 -0.22604837 -0.5122539
v -1.3212639 -0.22604837 -0.5122539
v -1.3554127 -0.22604801 0.5122527
v -1.3212624 -0.22604801 0.5122527
v -1.3212639 -0.123597406 -0.5122539
v -1.2871138 -0.123597406 -0.5122539
v -1.3212624 -0.123596646 0.5122527
v -1.2871121 -0.123596646 0.5122527
v 1.1034073 0.18375513 -0.512254
v 1.1375576 0.18375513 -0.512254
v 1.1034074 0.18375511 0.5122527
v 1.1375577 0.18375511 0.5122527
v 0.9326557 0.21790545 -0.5122539
v 1.1034073 0.21790545 -0.512254
v 0.9326559 0.21790542 0.51225275
v 1.1034074 0.21790542 0.5122527
v -0.36505502 0.2862061 -0.5122539
v -0.09185244 0.2862061 -0.512254
v -0.36505356 0.28620645 0.51225275
v -0.09185091 0.28620645 0.5122527
v -0.09185244 0.32035637 -0.512254
v 0.078899175 0.32035637 -0.512254
v -0.09185091 0.3203568 0.5122527
v 0.07890069 0.3203568 0.5122527
v 0.8985054 0.38865703 -0.5122539
v 0.9326557 0.38865703 -0.5122539
v 0.89850545 0.38865742 0.51225275
v 0.9326559 0.38865742 0.51225275
v -1.4578624 -0.4108814 0.5122526
v -1.4578637 -0.29434863 0.5122526
v 1.4449121 -0.4108814 0.5122527
v -1.4237133 -0.29434863 0.5122527
v 1.4107617 -0.26019832 0.5122527
v 1.4449121 -0.26019832 0.5122527
v 1.4107617 -0.22604801 0.5122527
v -1.3554127 -0.26019832 0.5122527
v -1.4237133 -0.26019832 0.5122527
v 1.3424611 -0.22604801 0.5122527
v 1.3424611 -0.19189732 0.5122527
v -1.3212624 -0.22604801 0.5122527
v -1.3554127 -0.22604801 0.5122527
v 1.2741604 -0.19189732 0.5122527
v -1.2871121 -0.123596646 0.5122527
v -1.3212624 -0.123596646 0.5122527
v -1.2529618 -0.089446336 0.5122527
v -1.2871121 -0.089446336 0.5122527
v 1.2741604 -0.021145685 0.5122527
v -1.0822101 -0.055296 0.5122526
v -1.2529618 -0.055296 0.5122527
v 1.2400101 -0.021145685 0.5122527
v -1.0822101 -0.055296 0.5122526
v 1.2400101 0.013004636 0.5122527
v 1.1375577 0.013004636 0.5122527
v -0.740707 0.013004636 0.5122527
v -1.0822101 0.013004636 0.5122526
v -0.36505356 0.18375511 0.51225275
v -0.740707 0.18375511 0.5122527
v 1.1034074 0.18375511 0.5122527
v 1.1375577 0.18375511 0.5122527
v 1.1034074 0.21790542 0.5122527
v 0.9326559 0.21790542 0.51225275
v -0.09185091 0.28620645 0.5122527
v -0.36505356 0.28620645 0.51225275
v 0.07890069 0.3203568 0.5122527
v -0.09185091 0.3203568 0.5122527
v 0.89850545 0.38865742 0.51225275
v 0.9326559 0.38865742 0.51225275
v 0.07890069 0.42280772 0.5122527
v 0.89850545 0.42280772 0.51225275
vt 0.9135742 0.0074157715
vt 0.08428955 0.007419586
vt 0.9135742 0.040924072
vt 0.9038086 0.040924072
vt 0.094055176 0.050750732
vt 0.08428955 0.050750732
vt 0.094055176 0.060577393
vt 0.88427734 0.050750732
vt 0.9038086 0.050750732
vt 0.113586426 0.060577393
vt 0.113586426 0.070373535
vt 0.8745117 0.060577393
vt 0.88427734 0.060577393
vt 0.13305664 0.070373535
vt 0.8745117 0.060577393
vt 0.8647461 0.090026855
vt 0.8745117 0.090026855
vt 0.85498047 0.099853516
vt 0.8647461 0.099853516
vt 0.13305664 0.119506836
vt 0.80615234 0.109680176
vt 0.85498047 0.109680176
vt 0.14282227 0.119506836
vt 0.14282227 0.12927246
vt 0.17211914 0.12927246
vt 0.7084961 0.12927246
vt 0.80615234 0.12927246
vt 0.6010742 0.1784668
vt 0.7084961 0.1784668
vt 0.18188477 0.1784668
vt 0.17211914 0.1784668
vt 0.18188477 0.18823242
vt 0.23059082 0.18823242
vt 0.5234375 0.20788574
vt 0.6010742 0.20788574
vt 0.47436523 0.21777344
vt 0.5234375 0.21777344
vt 0.24035645 0.23742676
vt 0.23059082 0.23742676
vt 0.47436523 0.24719238
vt 0.24035645 0.24719238
vt 0.32250977 0.31518555
vt 0.32250977 0.27197266
vt 0.02998352 0.31518555
vt 0.02998352 0.27197266
vt 0.32250977 0.43310547
vt 0.32250977 0.3840332
vt 0.02998352 0.43310547
vt 0.02998352 0.3840332
vt 0.32250977 0.45288086
vt 0.32250977 0.4428711
vt 0.02998352 0.45288086
vt 0.02998352 0.4428711
vt 0.3527832 0.80908203
vt 0.3527832 0.8354492
vt 0.6435547 0.80908203
vt 0.6435547 0.8354492
vt 0.3527832 0.4921875
vt 0.3527832 0.5019531
vt 0.6435547 0.4921875
vt 0.6435547 0.5019531
vt 0.6801758 0.5317383
vt 0.6801758 0.58251953
vt 0.97265625 0.5317383
vt 0.97265625 0.58251953
vt 0.6801758 0.29736328
vt 0.6801758 0.3269043
vt 0.97265625 0.29736328
vt 0.97265625 0.3269043
vt 0.6801758 0.27539062
vt 0.6801758 0.28515625
vt 0.97265625 0.27539062
vt 0.97265625 0.28515625
vt 0.6801758 0.24621582
vt 0.6801758 0.25634766
vt 0.97265625 0.24621582
vt 0.97265625 0.26000977
vt 0.6801758 0.20654297
vt 0.6801758 0.2364502
vt 0.97265625 0.20654297
vt 0.97265625 0.2364502
vt 0.32250977 0.33496094
vt 0.32250977 0.3251953
vt 0.02998352 0.33496094
vt 0.02998352 0.3251953
vt 0.32250977 0.36450195
vt 0.32250977 0.3544922
vt 0.02998352 0.36450195
vt 0.02998352 0.3544922
vt 0.32250977 0.3840332
vt 0.32250977 0.36450195
vt 0.02998352 0.3840332
vt 0.02998352 0.36450195
vt 0.32250977 0.4428711
vt 0.32250977 0.43310547
vt 0.02998352 0.4428711
vt 0.02998352 0.43310547
vt 0.32250977 0.48217773
vt 0.32250977 0.45288086
vt 0.02998352 0.48217773
vt 0.02998352 0.45288086
vt 0.32250977 0.53125
vt 0.32250977 0.48217773
vt 0.02998352 0.53125
vt 0.02998352 0.48217773
vt 0.32250977 0.55126953
vt 0.32250977 0.5410156
vt 0.02998352 0.55126953
vt 0.02998352 0.5410156
vt 0.32250977 0.64941406
vt 0.32250977 0.60009766
vt 0.02998352 0.64941406
vt 0.02998352 0.60009766
vt 0.3527832 0.54833984
vt 0.3527832 0.5776367
vt 0.6435547 0.54833984
vt 0.6435547 0.5776367
vt 0.3527832 0.5776367
vt 0.3527832 0.80908203
vt 0.6435547 0.5776367
vt 0.6435547 0.80908203
vt 0.3527832 0.38256836
vt 0.3527832 0.41186523
vt 0.6435547 0.38256836
vt 0.6435547 0.41186523
vt 0.3527832 0.27539062
vt 0.3527832 0.38256836
vt 0.6435547 0.27539062
vt 0.6435547 0.38256836
vt 0.6801758 0.41186523
vt 0.6801758 0.43139648
vt 0.97265625 0.41186523
vt 0.97265625 0.43139648
vt 0.6801758 0.43139648
vt 0.6801758 0.5317383
vt 0.97265625 0.43139648
vt 0.97265625 0.5317383
vt 0.6801758 0.36401367
vt 0.6801758 0.41186523
vt 0.97265625 0.36401367
vt 0.97265625 0.41186523
vt 0.6801758 0.3557129
vt 0.6801758 0.36401367
vt 0.97265625 0.3557129
vt 0.97265625 0.36401367
vt 0.6801758 0.34375
vt 0.6801758 0.3557129
vt 0.97265625 0.34375
vt 0.97265625 0.3557129
vt 0.6801758 0.33666992
vt 0.6801758 0.34375
vt 0.97265625 0.33666992
vt 0.97265625 0.34375
vt 0.6801758 0.2364502
vt 0.6801758 0.24621582
vt 0.97265625 0.2364502
vt 0.97265625 0.24621582
vt 0.6801758 0.25634766
vt 0.6801758 0.27539062
vt 0.97265625 0.26000977
vt 0.97265625 0.27539062
vt 0.32250977 0.3251953
vt 0.32250977 0.31518555
vt 0.02998352 0.3251953
vt 0.02998352 0.31518555
vt 0.32250977 0.3544922
vt 0.32250977 0.33496094
vt 0.02998352 0.3544922
vt 0.02998352 0.33496094
vt 0.6801758 0.28515625
vt 0.6801758 0.29736328
vt 0.97265625 0.28515625
vt 0.97265625 0.29736328
vt 0.6801758 0.3269043
vt 0.6801758 0.33666992
vt 0.97265625 0.3269043
vt 0.97265625 0.33666992
vt 0.32250977 0.5410156
vt 0.32250977 0.53125
vt 0.02998352 0.5410156
vt 0.02998352 0.53125
vt 0.32250977 0.60009766
vt 0.32250977 0.55126953
vt 0.02998352 0.60009766
vt 0.02998352 0.55126953
vt 0.3527832 0.41186523
vt 0.3527832 0.4921875
vt 0.6435547 0.41186523
vt 0.6435547 0.4921875
vt 0.3527832 0.5019531
vt 0.3527832 0.54833984
vt 0.6435547 0.5019531
vt 0.6435547 0.54833984
vt 0.32250977 0.6591797
vt 0.32250977 0.64941406
vt 0.02998352 0.6591797
vt 0.02998352 0.64941406
vt 0.9135742 0.0074157715
vt 0.9135742 0.040924072
vt 0.08428955 0.007419586
vt 0.9038086 0.040924072
vt 0.094055176 0.050750732
vt 0.08428955 0.050750732
vt 0.094055176 0.060577393
vt 0.88427734 0.050750732
vt 0.9038086 0.050750732
vt 0.113586426 0.060577393
vt 0.113586426 0.070373535
vt 0.8745117 0.060577393
vt 0.88427734 0.060577393
vt 0.13305664 0.070373535
vt 0.8647461 0.090026855
vt 0.8745117 0.090026855
vt 0.85498047 0.099853516
vt 0.8647461 0.099853516
vt 0.13305664 0.119506836
vt 0.80615234 0.109680176
vt 0.85498047 0.109680176
vt 0.14282227 0.119506836
vt 0.80615234 0.109680176
vt 0.14282227 0.12927246
vt 0.17211914 0.12927246
vt 0.7084961 0.12927246
vt 0.80615234 0.12927246
vt 0.6010742 0.1784668
vt 0.7084961 0.1784668
vt 0.18188477 0.1784668
vt 0.17211914 0.1784668
vt 0.18188477 0.18823242
vt 0.23059082 0.18823242
vt 0.5234375 0.20788574
vt 0.6010742 0.20788574
vt 0.47436523 0.21777344
vt 0.5234375 0.21777344
vt 0.24035645 0.23742676
vt 0.23059082 0.23742676
vt 0.47436523 0.24719238
vt 0.24035645 0.24719238
vn -0 -2.5510788E-05 -1
vn -0 -2.5510788E-05 -1
vn -0 -2.5510788E-05 -1
vn 2.2053719E-06 2.9444695E-05 -1
vn 2.3841858E-07 -2.0205975E-05 -1
vn -0 -2.026558E-05 -1
vn -0 0 -1
vn -0 0 -1
vn -0 0 -1
vn -0 -2.2053719E-06 -1
vn -0 0 -1
vn -0 0 -1
vn -0 0 -1
vn -0 -2.2053719E-06 -1
vn -0 -2.2053719E-06 -1
vn -0 0 -1
vn -0 0 -1
vn -0 0 -1
vn -0 0 -1
vn -0 0 -1
vn -0 -2.3841858E-06 -1
vn -4.172325E-07 0 -1
vn -0 0 -1
vn -0 0 -1
vn -0 0 -1
vn -0 1.3113022E-06 -1
vn 2.3841858E-07 0 -1
vn -0 0 -1
vn -0 0 -1
vn -0 0 -1
vn -0 0 -1
vn -0 0 -1
vn -4.172325E-07 1.6987324E-05 -1
vn -0 -7.748604E-07 -1
vn -2.9802322E-07 0 -1
vn -0 -2.9802322E-07 -1
vn -0 0 -1
vn -0 0 -1
vn -0 0 -1
vn -0 0 -1
vn -0 0 -1
vn 1 1.013279E-05 -1.4901161E-06
vn 1 1.013279E-05 -1.4901161E-06
vn 1 1.013279E-05 -1.4901161E-06
vn 1 0 0
vn 1 0 -1.5497208E-06
vn 1 0 -1.5497208E-06
vn 1 0 -1.5497208E-06
vn 1 0 -1.5497208E-06
vn 1 0 -1.6093254E-06
vn 1 0 -1.6093254E-06
vn 1 0 -1.6093254E-06
vn 1 0 -1.6093254E-06
vn 1 0 0
vn 1 0 0
vn 1 0 0
vn 1 0 0
vn -1 0 1.4901161E-06
vn -1 0 1.4901161E-06
vn -1 0 1.4901161E-06
vn -1 0 1.4901161E-06
vn -1 0 1.4305115E-06
vn -1 0 1.4305115E-06
vn -1 0 1.4305115E-06
vn -1 0 1.4305115E-06
vn -1 0 1.4901161E-06
vn -1 0 1.4901161E-06
vn -1 0 1.4901161E-06
vn -1 0 1.4901161E-06
vn -1 0 1.6093254E-06
vn -1 0 1.6093254E-06
vn -1 0 1.6093254E-06
vn -1 0 1.6093254E-06
vn -1 0 1.6093254E-06
vn -1 0 1.6093254E-06
vn -1 0 1.6093254E-06
vn -1 0 1.6093254E-06
vn -1 -1.180172E-05 1.3113022E-06
vn -1 -1.180172E-05 1.3113022E-06
vn -1 -1.180172E-05 1.3113022E-06
vn -1 -1.180172E-05 1.3113022E-06
vn 1 0 -1.4901161E-06
vn 1 0 -1.4901161E-06
vn 1 0 -1.4901161E-06
vn 1 0 -1.4901161E-06
vn 1 0 -1.4901161E-06
vn 1 0 -1.4901161E-06
vn 1 0 -1.4901161E-06
vn 1 0 -1.4901161E-06
vn -0 1 -7.1525574E-07
vn -0 1 -7.1525574E-07
vn -0 1 -7.1525574E-07
vn -0 1 -7.1525574E-07
vn -0 1 -7.1525574E-07
vn -0 1 -7.1525574E-07
vn -0 1 -7.1525574E-07
vn -0 1 -7.1525574E-07
vn -0 1 -7.1525574E-07
vn -0 1 -7.1525574E-07
vn -0 1 -7.1525574E-07
vn -0 1 -7.1525574E-07
vn 1 0 -1.1920929E-07
vn 1 0 -1.1920929E-07
vn 1 0 -1.1920929E-07
vn 1 0 -1.1920929E-07
vn 1 0 -1.1920929E-07
vn 1 0 -1.1920929E-07
vn 1 0 -1.1920929E-07
vn 1 0 -1.1920929E-07
vn 1 0 -1.1920929E-07
vn 1 0 -1.1920929E-07
vn 1 0 -1.1920929E-07
vn 1 0 -1.1920929E-07
vn -1 0 1.4901161E-06
vn -1 0 1.4901161E-06
vn -1 0 1.4901161E-06
vn -1 0 1.4901161E-06
vn -0 1 -3.5762787E-07
vn -0 1 -3.5762787E-07
vn -0 1 -3.5762787E-07
vn -0 1 -3.5762787E-07
vn -1 0 1.4305115E-06
vn -1 0 1.4305115E-06
vn -1 0 1.4305115E-06
vn -1 0 1.4305115E-06
vn -0 1 0
vn -0 1 0
vn -0 1 0
vn -0 1 0
vn -1 0 1.7285347E-06
vn -1 0 1.7285347E-06
vn -1 0 1.7285347E-06
vn -1 0 1.7285347E-06
vn -0 1 -7.1525574E-07
vn -0 1 -7.1525574E-07
vn -0 1 -7.1525574E-07
vn -0 1 -7.1525574E-07
vn -0 1 -7.1525574E-07
vn -0 1 -7.1525574E-07
vn -0 1 -7.1525574E-07
vn -0 1 -7.1525574E-07
vn -1 0 1.6093254E-06
vn -1 0 1.6093254E-06
vn -1 0 1.6093254E-06
vn -1 0 1.6093254E-06
vn -0 1 -7.1525574E-07
vn -0 1 -7.1525574E-07
vn -0 1 -7.1525574E-07
vn -0 1 -7.1525574E-07
vn -1 0 1.6093254E-06
vn -1 0 1.6093254E-06
vn -1 0 1.6093254E-06
vn -1 0 1.6093254E-06
vn -0 1 -3.5762787E-07
vn -0 1 -3.5762787E-07
vn -0 1 -3.5762787E-07
vn -0 1 -3.5762787E-07
vn -0 1 -3.5762787E-07
vn -0 1 -3.5762787E-07
vn -0 1 -3.5762787E-07
vn -0 1 -3.5762787E-07
vn -0 1 -3.5762787E-07
vn -0 1 -3.5762787E-07
vn -0 1 -3.5762787E-07
vn -0 1 -3.5762787E-07
vn -0 1 -3.5762787E-07
vn -0 1 -3.5762787E-07
vn -0 1 -3.5762787E-07
vn -0 1 -3.5762787E-07
vn -0 1 -3.5762787E-07
vn -0 1 -3.5762787E-07
vn -0 1 -3.5762787E-07
vn -0 1 -3.5762787E-07
vn -0 1 -7.1525574E-07
vn -0 1 -7.1525574E-07
vn -0 1 -7.1525574E-07
vn -0 1 -7.1525574E-07
vn -0 1 0
vn -0 1 0
vn -0 1 0
vn -0 1 0
vn -0 1 0
vn -0 1 0
vn -0 1 0
vn -0 1 0
vn -0 1 -3.5762787E-07
vn -0 1 -3.5762787E-07
vn -0 1 -3.5762787E-07
vn -0 1 -3.5762787E-07
vn -0 1 -4.172325E-07
vn -0 1 -4.172325E-07
vn -0 1 -4.172325E-07
vn -0 1 -4.172325E-07
vn -0 1 -3.5762787E-07
vn -0 1 -3.5762787E-07
vn -0 1 -3.5762787E-07
vn -0 1 -3.5762787E-07
vn -0 0 1
vn -0 0 1
vn -0 0 1
vn -1.1324883E-06 -2.7477741E-05 1
vn -0 0 1
vn -0 0 1
vn -0 0 1
vn -0 0 1
vn -0 0 1
vn -0 0 1
vn -0 0 1
vn -0 0 1
vn -0 0 1
vn -0 0 1
vn -0 0 1
vn -0 0 1
vn -0 0 1
vn -0 0 1
vn -0 0 1
vn -0 1.3113022E-06 1
vn 2.3841858E-07 0 1
vn -0 -1.1324883E-06 1
vn -0 -1.1324883E-06 1
vn -0 0 1
vn -0 -5.364418E-07 1
vn -0 -5.364418E-07 1
vn -1.1920929E-07 0 1
vn -0 -4.172325E-07 1
vn -1.7881393E-07 0 1
vn -0 0 1
vn -0 0 1
vn -0 0 1
vn 4.172325E-07 -1.6987324E-05 1
vn -0 7.748604E-07 1
vn 2.9802322E-07 0 1
vn -0 2.9802322E-07 1
vn -0 0 1
vn -0 0 1
vn -0 0 1
vn -0 0 1
vn -0 0 1
g Rocks_Medium_007_0
f 3/3/3 2/2/2 1/1/1
f 4/4/4 2/2/2 3/3/3
f 5/5/5 2/2/2 4/4/4
f 6/6/6 2/2/2 5/5/5
f 5/5/5 4/4/4 7/7/7
f 8/8/8 7/7/7 4/4/4
f 8/8/8 4/4/4 9/9/9
f 7/7/7 8/8/8 10/10/10
f 10/10/10 8/8/8 11/11/11
f 11/11/11 8/8/8 12/12/12
f 12/12/12 8/8/8 13/13/13
f 11/11/11 15/15/15 14/14/14
f 12/12/12 16/16/16 14/14/14
f 16/16/16 12/12/12 17/17/17
f 16/16/16 18/18/18 14/14/14
f 18/18/18 16/16/16 19/19/19
f 14/14/14 18/18/18 20/20/20
f 20/20/20 18/18/18 21/21/21
f 21/21/21 18/18/18 22/22/22
f 20/20/20 21/21/21 23/23/23
f 23/23/23 21/21/21 24/24/24
f 24/24/24 21/21/21 25/25/25
f 25/25/25 21/21/21 26/26/26
f 26/26/26 21/21/21 27/27/27
f 26/26/26 28/28/28 25/25/25
f 28/28/28 26/26/26 29/29/29
f 30/30/30 25/25/25 28/28/28
f 25/25/25 30/30/30 31/31/31
f 30/30/30 28/28/28 32/32/32
f 32/32/32 28/28/28 33/33/33
f 33/33/33 28/28/28 34/34/34
f 34/34/34 28/28/28 35/35/35
f 34/34/34 36/36/36 33/33/33
f 36/36/36 34/34/34 37/37/37
f 38/38/38 33/33/33 36/36/36
f 33/33/33 38/38/38 39/39/39
f 40/40/40 38/38/38 36/36/36
f 38/38/38 40/40/40 41/41/41
f 44/44/44 43/43/43 42/42/42
f 43/43/43 44/44/44 45/45/45
f 48/48/48 47/47/47 46/46/46
f 47/47/47 48/48/48 49/49/49
f 52/52/52 51/51/51 50/50/50
f 51/51/51 52/52/52 53/53/53
f 56/56/56 55/55/55 54/54/54
f 55/55/55 56/56/56 57/57/57
f 60/60/60 59/59/59 58/58/58
f 59/59/59 60/60/60 61/61/61
f 64/64/64 63/63/63 62/62/62
f 63/63/63 64/64/64 65/65/65
f 68/68/68 67/67/67 66/66/66
f 67/67/67 68/68/68 69/69/69
f 72/72/72 71/71/71 70/70/70
f 71/71/71 72/72/72 73/73/73
f 76/76/76 75/75/75 74/74/74
f 75/75/75 76/76/76 77/77/77
f 80/80/80 79/79/79 78/78/78
f 79/79/79 80/80/80 81/81/81
f 84/84/84 83/83/83 82/82/82
f 83/83/83 84/84/84 85/85/85
f 88/88/88 87/87/87 86/86/86
f 87/87/87 88/88/88 89/89/89
f 92/92/92 91/91/91 90/90/90
f 91/91/91 92/92/92 93/93/93
f 96/96/96 95/95/95 94/94/94
f 95/95/95 96/96/96 97/97/97
f 100/100/100 99/99/99 98/98/98
f 99/99/99 100/100/100 101/101/101
f 104/104/104 103/103/103 102/102/102
f 103/103/103 104/104/104 105/105/105
f 108/108/108 107/107/107 106/106/106
f 107/107/107 108/108/108 109/109/109
f 112/112/112 111/111/111 110/110/110
f 111/111/111 112/112/112 113/113/113
f 116/116/116 115/115/115 114/114/114
f 115/115/115 116/116/116 117/117/117
f 120/120/120 119/119/119 118/118/118
f 119/119/119 120/120/120 121/121/121
f 124/124/124 123/123/123 122/122/122
f 123/123/123 124/124/124 125/125/125
f 128/128/128 127/127/127 126/126/126
f 127/127/127 128/128/128 129/129/129
f 132/132/132 131/131/131 130/130/130
f 131/131/131 132/132/132 133/133/133
f 136/136/136 135/135/135 134/134/134
f 135/135/135 136/136/136 137/137/137
f 140/140/140 139/139/139 138/138/138
f 139/139/139 140/140/140 141/141/141
f 144/144/144 143/143/143 142/142/142
f 143/143/143 144/144/144 145/145/145
f 148/148/148 147/147/147 146/146/146
f 147/147/147 148/148/148 149/149/149
f 152/152/152 151/151/151 150/150/150
f 151/151/151 152/152/152 153/153/153
f 156/156/156 155/155/155 154/154/154
f 155/155/155 156/156/156 157/157/157
f 160/160/160 159/159/159 158/158/158
f 159/159/159 160/160/160 161/161/161
f 164/164/164 163/163/163 162/162/162
f 163/163/163 164/164/164 165/165/165
f 168/168/168 167/167/167 166/166/166
f 167/167/167 168/168/168 169/169/169
f 172/172/172 171/171/171 170/170/170
f 171/171/171 172/172/172 173/173/173
f 176/176/176 175/175/175 174/174/174
f 175/175/175 176/176/176 177/177/177
f 180/180/180 179/179/179 178/178/178
f 179/179/179 180/180/180 181/181/181
f 184/184/184 183/183/183 182/182/182
f 183/183/183 184/184/184 185/185/185
f 188/188/188 187/187/187 186/186/186
f 187/187/187 188/188/188 189/189/189
f 192/192/192 191/191/191 190/190/190
f 191/191/191 192/192/192 193/193/193
f 196/196/196 195/195/195 194/194/194
f 195/195/195 196/196/196 197/197/197
f 200/200/200 199/199/199 198/198/198
f 200/200/200 201/201/201 199/199/199
f 200/200/200 202/202/202 201/201/201
f 200/200/200 203/203/203 202/202/202
f 201/201/201 202/202/202 204/204/204
f 204/204/204 205/205/205 201/201/201
f 201/201/201 205/205/205 206/206/206
f 205/205/205 204/204/204 207/207/207
f 205/205/205 207/207/207 208/208/208
f 205/205/205 208/208/208 209/209/209
f 205/205/205 209/209/209 210/210/210
f 209/209/209 208/208/208 211/211/211
f 212/212/212 209/209/209 211/211/211
f 209/209/209 212/212/212 213/213/213
f 214/214/214 212/212/212 211/211/211
f 212/212/212 214/214/214 215/215/215
f 214/214/214 211/211/211 216/216/216
f 214/214/214 216/216/216 217/217/217
f 214/214/214 217/217/217 218/218/218
f 220/220/220 216/216/216 219/219/219
f 217/217/217 219/219/219 221/221/221
f 217/217/217 221/221/221 222/222/222
f 217/217/217 222/222/222 223/223/223
f 217/217/217 223/223/223 224/224/224
f 225/225/225 223/223/223 222/222/222
f 223/223/223 225/225/225 226/226/226
f 222/222/222 227/227/227 225/225/225
f 227/227/227 222/222/222 228/228/228
f 225/225/225 227/227/227 229/229/229
f 225/225/225 229/229/229 230/230/230
f 225/225/225 230/230/230 231/231/231
f 225/225/225 231/231/231 232/232/232
f 233/233/233 231/231/231 230/230/230
f 231/231/231 233/233/233 234/234/234
f 230/230/230 235/235/235 233/233/233
f 235/235/235 230/230/230 236/236/236
f 235/235/235 237/237/237 233/233/233
f 237/237/237 235/235/235 238/238/238
