g Rocks_Medium_004
v 1.7535033 -0.72457945 0.8512176
v 1.7535033 -0.72457975 -0.85121644
v 1.7535046 -0.8757039 0.8512176
v 1.7535046 -0.8757034 -0.85121644
v 1.7194604 -0.69053084 0.8512176
v 1.7194568 -0.69053113 -0.85121644
v 1.7194604 -0.72457945 0.8512176
v 1.7194568 -0.72457975 -0.85121644
v 1.6854076 -0.656483 0.8512176
v 1.6854076 -0.6564833 -0.85121644
v 1.6854076 -0.69053084 0.8512176
v 1.6854076 -0.69053113 -0.85121644
v 1.6513586 -0.4862393 0.8512176
v 1.6513574 -0.48623946 -0.85121644
v 1.6513586 -0.656483 0.8512176
v 1.6513574 -0.6564833 -0.85121644
v 1.6173083 -0.45219055 0.8512176
v 1.6173083 -0.45219055 -0.85121644
v 1.6173083 -0.4862393 0.8512176
v 1.6173083 -0.48623946 -0.85121644
v 1.3789697 -0.45219055 -0.85121644
v 1.3789722 -0.45219055 0.8512176
v 1.3789697 0.058538206 -0.85121644
v 1.3789722 0.058538206 0.8512176
v 1.3108716 0.09258697 0.8512176
v 1.3108716 0.09258697 -0.85121644
v 1.3108716 0.058538206 0.8512176
v 1.3108716 0.058538206 -0.85121644
v 1.2087268 0.12663543 0.8512176
v 1.2087256 0.12663543 -0.85121644
v 1.2087268 0.09258697 0.8512176
v 1.2087256 0.09258697 -0.85121644
v 0.6980005 0.19473206 0.8512176
v 0.69799805 0.19473206 -0.85121644
v 0.6980005 0.12663543 0.8512176
v 0.69799805 0.12663543 -0.85121644
v 0.66394776 0.22878143 0.8512176
v 0.66394776 0.22878143 -0.85121644
v 0.66394776 0.19473206 0.8512176
v 0.66394776 0.19473206 -0.85121644
v 0.56180173 0.22878143 -0.85121644
v 0.56180173 0.22878143 0.8512176
v 0.56180173 0.6373651 -0.85121644
v 0.56180173 0.6373645 0.8512176
v 0.52775633 0.67141294 0.8512176
v 0.5277527 0.67141384 -0.85121644
v 0.52775633 0.6373645 0.8512176
v 0.5277527 0.6373651 -0.85121644
v 0.49370605 0.70546174 0.8512176
v 0.49370605 0.70546234 -0.85121644
v 0.49370605 0.67141294 0.8512176
v 0.49370605 0.67141384 -0.85121644
v 0.42561278 0.7395108 0.8512176
v 0.42560667 0.7395111 -0.85121644
v 0.42561278 0.70546174 0.8512176
v 0.42560667 0.70546234 -0.85121644
v 0.1532202 0.7395108 0.8512176
v 0.1532202 0.84165585 0.8512176
v 0.1532202 0.7395111 -0.85121644
v 0.1532202 0.8416571 -0.85121644
v 0.11916992 0.87570494 0.8512176
v 0.11916992 0.87570524 -0.85121644
v 0.11916992 0.84165585 0.8512176
v 0.11916992 0.8416571 -0.85121644
v -0.45965332 0.87570494 0.8512176
v -0.45965332 0.84165585 0.8512176
v -0.45965576 0.87570524 -0.85121644
v -0.45965576 0.8416571 -0.85121644
v -0.49370116 0.84165585 0.8512176
v -0.49370116 0.7395108 0.8512176
v -0.4937036 0.8416571 -0.85121644
v -0.4937036 0.7395111 -0.85121644
v -0.8001391 0.7395108 0.8512176
v -0.8001391 0.70546174 0.8512176
v -0.8001416 0.7395111 -0.85121644
v -0.8001416 0.70546234 -0.85121644
v -0.8682349 0.70546174 0.8512176
v -0.8682349 0.67141294 0.8512176
v -0.8682397 0.70546234 -0.85121644
v -0.8682397 0.67141384 -0.85121644
v -0.90228516 0.67141294 0.8512176
v -0.90228516 0.22878143 0.8512176
v -0.9022876 0.67141384 -0.85121644
v -0.9022876 0.22878143 -0.85121644
v -1.3108691 0.22878143 0.8512176
v -1.3108691 0.19473206 0.8512176
v -1.3108716 0.22878143 -0.8512176
v -1.3108716 0.19473206 -0.8512176
v -1.4811108 0.19473206 0.8512176
v -1.4811108 0.1606842 0.8512176
v -1.4811132 0.19473206 -0.8512176
v -1.4811132 0.1606842 -0.8512176
v -1.5151612 0.1606842 0.8512176
v -1.5151612 -0.3840933 0.8512176
v -1.5151635 0.1606842 -0.8512176
v -1.5151635 -0.3840933 -0.8512176
v -1.6173047 -0.3840933 0.8512176
v -1.6173047 -0.41814208 0.8512176
v -1.6173071 -0.3840933 -0.8512176
v -1.6173071 -0.41814208 -0.8512176
v -1.6513574 -0.41814208 -0.8512176
v -1.6513549 -0.41814208 0.8512176
v -1.6513574 -0.6224339 -0.8512176
v -1.6513549 -0.6224336 0.8512176
v -1.6854041 -0.6224336 0.8512176
v -1.6854041 -0.69053084 0.8512176
v -1.6854053 -0.6224339 -0.8512176
v -1.6854053 -0.69053113 -0.8512176
v -1.7194506 -0.69053084 0.8512176
v -1.7194506 -0.72457945 0.8512176
v -1.7194531 -0.69053113 -0.8512176
v -1.7194531 -0.72457975 -0.8512176
v -1.7534986 -0.8757039 0.8512176
v -1.7535009 -0.8757034 -0.8512176
v -1.7535021 -0.72457945 0.8512176
v -1.7535033 -0.72457975 -0.8512176
v -1.7535021 -0.72457945 0.8512176
v -1.7535033 -0.72457975 -0.8512176
v -1.7194506 -0.72457945 0.8512176
v -1.7194531 -0.72457975 -0.8512176
v 1.7194604 -0.72457945 0.8512176
v 1.7194568 -0.72457975 -0.85121644
v 1.7535033 -0.72457945 0.8512176
v 1.7535033 -0.72457975 -0.85121644
v -1.7194506 -0.69053084 0.8512176
v -1.7194531 -0.69053113 -0.8512176
v -1.6854041 -0.69053084 0.8512176
v -1.6854053 -0.69053113 -0.8512176
v 1.6854076 -0.69053084 0.8512176
v 1.6854076 -0.69053113 -0.85121644
v 1.7194604 -0.69053084 0.8512176
v 1.7194568 -0.69053113 -0.85121644
v 1.6513586 -0.656483 0.8512176
v 1.6513574 -0.6564833 -0.85121644
v 1.6854076 -0.656483 0.8512176
v 1.6854076 -0.6564833 -0.85121644
v -1.6854053 -0.6224339 -0.8512176
v -1.6513574 -0.6224339 -0.8512176
v -1.6854041 -0.6224336 0.8512176
v -1.6513549 -0.6224336 0.8512176
v 1.6173083 -0.4862393 0.8512176
v 1.6173083 -0.48623946 -0.85121644
v 1.6513586 -0.4862393 0.8512176
v 1.6513574 -0.48623946 -0.85121644
v 1.3789697 -0.45219055 -0.85121644
v 1.6173083 -0.45219055 -0.85121644
v 1.3789722 -0.45219055 0.8512176
v 1.6173083 -0.45219055 0.8512176
v -1.6513549 -0.41814208 0.8512176
v -1.6513574 -0.41814208 -0.8512176
v -1.6173047 -0.41814208 0.8512176
v -1.6173071 -0.41814208 -0.8512176
v -1.6173047 -0.3840933 0.8512176
v -1.6173071 -0.3840933 -0.8512176
v -1.5151612 -0.3840933 0.8512176
v -1.5151635 -0.3840933 -0.8512176
v 1.3108716 0.058538206 0.8512176
v 1.3108716 0.058538206 -0.85121644
v 1.3789722 0.058538206 0.8512176
v 1.3789697 0.058538206 -0.85121644
v 1.2087268 0.09258697 0.8512176
v 1.2087256 0.09258697 -0.85121644
v 1.3108716 0.09258697 0.8512176
v 1.3108716 0.09258697 -0.85121644
v 0.6980005 0.12663543 0.8512176
v 0.69799805 0.12663543 -0.85121644
v 1.2087268 0.12663543 0.8512176
v 1.2087256 0.12663543 -0.85121644
v -1.5151612 0.1606842 0.8512176
v -1.5151635 0.1606842 -0.8512176
v -1.4811108 0.1606842 0.8512176
v -1.4811132 0.1606842 -0.8512176
v 0.66394776 0.19473206 0.8512176
v 0.66394776 0.19473206 -0.85121644
v 0.6980005 0.19473206 0.8512176
v 0.69799805 0.19473206 -0.85121644
v -1.4811108 0.19473206 0.8512176
v -1.4811132 0.19473206 -0.8512176
v -1.3108691 0.19473206 0.8512176
v -1.3108716 0.19473206 -0.8512176
v 0.56180173 0.22878143 -0.85121644
v 0.66394776 0.22878143 -0.85121644
v 0.56180173 0.22878143 0.8512176
v 0.66394776 0.22878143 0.8512176
v -1.3108691 0.22878143 0.8512176
v -1.3108716 0.22878143 -0.8512176
v -0.90228516 0.22878143 0.8512176
v -0.9022876 0.22878143 -0.85121644
v 0.52775633 0.6373645 0.8512176
v 0.5277527 0.6373651 -0.85121644
v 0.56180173 0.6373645 0.8512176
v 0.56180173 0.6373651 -0.85121644
v -0.90228516 0.67141294 0.8512176
v -0.9022876 0.67141384 -0.85121644
v -0.8682349 0.67141294 0.8512176
v -0.8682397 0.67141384 -0.85121644
v 0.49370605 0.67141294 0.8512176
v 0.49370605 0.67141384 -0.85121644
v 0.52775633 0.67141294 0.8512176
v 0.5277527 0.67141384 -0.85121644
v 0.42561278 0.70546174 0.8512176
v 0.42560667 0.70546234 -0.85121644
v 0.49370605 0.70546174 0.8512176
v 0.49370605 0.70546234 -0.85121644
v -0.8682349 0.70546174 0.8512176
v -0.8682397 0.70546234 -0.85121644
v -0.8001391 0.70546174 0.8512176
v -0.8001416 0.70546234 -0.85121644
v 0.1532202 0.7395111 -0.85121644
v 0.42560667 0.7395111 -0.85121644
v 0.1532202 0.7395108 0.8512176
v 0.42561278 0.7395108 0.8512176
v -0.8001391 0.7395108 0.8512176
v -0.8001416 0.7395111 -0.85121644
v -0.49370116 0.7395108 0.8512176
v -0.4937036 0.7395111 -0.85121644
v 0.11916992 0.84165585 0.8512176
v 0.11916992 0.8416571 -0.85121644
v 0.1532202 0.84165585 0.8512176
v 0.1532202 0.8416571 -0.85121644
v -0.49370116 0.84165585 0.8512176
v -0.4937036 0.8416571 -0.85121644
v -0.45965332 0.84165585 0.8512176
v -0.45965576 0.8416571 -0.85121644
v -0.45965332 0.87570494 0.8512176
v -0.45965576 0.87570524 -0.85121644
v 0.11916992 0.87570494 0.8512176
v 0.11916992 0.87570524 -0.85121644
v -1.7535009 -0.8757034 -0.8512176
v 1.7535046 -0.8757034 -0.85121644
v -1.7535033 -0.72457975 -0.8512176
v -1.7194531 -0.72457975 -0.8512176
v 1.7194568 -0.72457975 -0.85121644
v 1.7535033 -0.72457975 -0.85121644
v 1.7194568 -0.69053113 -0.85121644
v 1.6854076 -0.69053113 -0.85121644
v -1.7194531 -0.72457975 -0.8512176
v -1.6854053 -0.69053113 -0.8512176
v -1.7194531 -0.69053113 -0.8512176
v 1.6854076 -0.6564833 -0.85121644
v 1.6513574 -0.6564833 -0.85121644
v -1.6854053 -0.69053113 -0.8512176
v -1.6513574 -0.6224339 -0.8512176
v -1.6854053 -0.6224339 -0.8512176
v 1.6513574 -0.48623946 -0.85121644
v 1.6173083 -0.48623946 -0.85121644
v -1.6173071 -0.41814208 -0.8512176
v -1.6513574 -0.41814208 -0.8512176
v -1.6173071 -0.3840933 -0.8512176
v 1.3789697 -0.45219055 -0.85121644
v 1.6173083 -0.45219055 -0.85121644
v -1.5151635 -0.3840933 -0.8512176
v 1.3789697 0.058538206 -0.85121644
v 1.3108716 0.058538206 -0.85121644
v 1.2087256 0.09258697 -0.85121644
v 1.3108716 0.09258697 -0.85121644
v 0.69799805 0.12663543 -0.85121644
v 1.2087256 0.12663543 -0.85121644
v 0.69799805 0.19473206 -0.85121644
v 0.66394776 0.19473206 -0.85121644
v -1.3108716 0.19473206 -0.8512176
v 0.66394776 0.22878143 -0.85121644
v 0.56180173 0.22878143 -0.85121644
v -1.4811132 0.1606842 -0.8512176
v -1.5151635 0.1606842 -0.8512176
v -1.4811132 0.19473206 -0.8512176
v -0.9022876 0.22878143 -0.85121644
v -1.3108716 0.22878143 -0.8512176
v 0.56180173 0.6373651 -0.85121644
v 0.5277527 0.6373651 -0.85121644
v -0.8682397 0.67141384 -0.85121644
v -0.9022876 0.67141384 -0.85121644
v -0.8682397 0.70546234 -0.85121644
v -0.8001416 0.70546234 -0.85121644
v 0.49370605 0.67141384 -0.85121644
v 0.5277527 0.67141384 -0.85121644
v 0.42560667 0.70546234 -0.85121644
v 0.49370605 0.70546234 -0.85121644
v 0.42560667 0.7395111 -0.85121644
v 0.1532202 0.7395111 -0.85121644
v -0.4937036 0.7395111 -0.85121644
v -0.8001416 0.7395111 -0.85121644
v -0.45965576 0.8416571 -0.85121644
v -0.4937036 0.8416571 -0.85121644
v 0.11916992 0.8416571 -0.85121644
v 0.1532202 0.8416571 -0.85121644
v 0.11916992 0.87570524 -0.85121644
v -0.45965576 0.87570524 -0.85121644
v 1.7535046 -0.8757039 0.8512176
v -1.7534986 -0.8757039 0.8512176
v -1.7535021 -0.72457945 0.8512176
v -1.7194506 -0.72457945 0.8512176
v 1.7194604 -0.72457945 0.8512176
v 1.7535033 -0.72457945 0.8512176
v 1.7194604 -0.69053084 0.8512176
v 1.6854076 -0.69053084 0.8512176
v -1.6854041 -0.69053084 0.8512176
v -1.7194506 -0.69053084 0.8512176
v 1.6854076 -0.656483 0.8512176
v 1.6513586 -0.656483 0.8512176
v -1.6513549 -0.6224336 0.8512176
v -1.6854041 -0.6224336 0.8512176
v 1.6513586 -0.4862393 0.8512176
v 1.6173083 -0.4862393 0.8512176
v -1.6173047 -0.41814208 0.8512176
v -1.6513549 -0.41814208 0.8512176
v -1.6173047 -0.3840933 0.8512176
v 1.3789722 -0.45219055 0.8512176
v 1.6173083 -0.45219055 0.8512176
v -1.5151612 -0.3840933 0.8512176
v 1.3789722 0.058538206 0.8512176
v 1.3108716 0.058538206 0.8512176
v 1.2087268 0.09258697 0.8512176
v 1.3108716 0.09258697 0.8512176
v 0.6980005 0.12663543 0.8512176
v 1.2087268 0.12663543 0.8512176
v 0.6980005 0.19473206 0.8512176
v 0.66394776 0.19473206 0.8512176
v -1.3108691 0.19473206 0.8512176
v 0.66394776 0.22878143 0.8512176
v 0.56180173 0.22878143 0.8512176
v -1.4811108 0.1606842 0.8512176
v -1.5151612 0.1606842 0.8512176
v -1.4811108 0.19473206 0.8512176
v -0.90228516 0.22878143 0.8512176
v -1.3108691 0.22878143 0.8512176
v 0.56180173 0.6373645 0.8512176
v 0.52775633 0.6373645 0.8512176
v -0.8682349 0.67141294 0.8512176
v -0.90228516 0.67141294 0.8512176
v -0.8682349 0.70546174 0.8512176
v -0.8001391 0.70546174 0.8512176
v 0.49370605 0.67141294 0.8512176
v 0.52775633 0.67141294 0.8512176
v 0.42561278 0.70546174 0.8512176
v 0.49370605 0.70546174 0.8512176
v 0.42561278 0.7395108 0.8512176
v 0.1532202 0.7395108 0.8512176
v -0.49370116 0.7395108 0.8512176
v -0.8001391 0.7395108 0.8512176
v -0.45965332 0.84165585 0.8512176
v -0.49370116 0.84165585 0.8512176
v 0.11916992 0.84165585 0.8512176
v 0.1532202 0.84165585 0.8512176
v 0.11916992 0.87570494 0.8512176
v -0.45965332 0.87570494 0.8512176
vt 0.010406494 0.41503906
vt 0.31591797 0.41503906
vt 0.010406494 0.38793945
vt 0.31591797 0.38793945
vt 0.010406494 0.4272461
vt 0.31591797 0.4272461
vt 0.010406494 0.42114258
vt 0.31591797 0.42114258
vt 0.010597229 0.43945312
vt 0.3161621 0.43945312
vt 0.010406494 0.4333496
vt 0.31591797 0.4333496
vt 0.010597229 0.47607422
vt 0.3161621 0.47607422
vt 0.010597229 0.44555664
vt 0.3161621 0.44555664
vt 0.010597229 0.48828125
vt 0.3161621 0.48828125
vt 0.010597229 0.48217773
vt 0.3161621 0.48217773
vt 0.3161621 0.53125
vt 0.010597229 0.53125
vt 0.3161621 0.6225586
vt 0.010597229 0.6225586
vt 0.010597229 0.6411133
vt 0.3161621 0.6411133
vt 0.010597229 0.6347656
vt 0.3161621 0.6347656
vt 0.010597229 0.66552734
vt 0.3161621 0.66552734
vt 0.010597229 0.6591797
vt 0.3161621 0.6591797
vt 0.010597229 0.76953125
vt 0.3161621 0.76953125
vt 0.010597229 0.7573242
vt 0.3161621 0.7573242
vt 0.010597229 0.7817383
vt 0.3161621 0.7817383
vt 0.010597229 0.7753906
vt 0.3161621 0.7753906
vt 0.3161621 0.7998047
vt 0.010597229 0.7998047
vt 0.3161621 0.8730469
vt 0.010597229 0.8730469
vt 0.010597229 0.8852539
vt 0.3161621 0.8852539
vt 0.010597229 0.87939453
vt 0.3161621 0.87939453
vt 0.010574341 0.89746094
vt 0.3161621 0.8979492
vt 0.0105896 0.8911133
vt 0.3161621 0.89160156
vt 0.010536194 0.91552734
vt 0.31591797 0.9165039
vt 0.010551453 0.90966797
vt 0.3161621 0.91015625
vt 0.010437012 0.96435547
vt 0.010398865 0.98291016
vt 0.31591797 0.96533203
vt 0.31591797 0.98339844
vt 0.010375977 0.9951172
vt 0.31591797 0.99560547
vt 0.010383606 0.98876953
vt 0.31591797 0.9897461
vt 0.68408203 0.93310547
vt 0.68408203 0.9267578
vt 0.9892578 0.93310547
vt 0.9892578 0.9267578
vt 0.68408203 0.92089844
vt 0.68408203 0.90234375
vt 0.9892578 0.92089844
vt 0.9892578 0.90234375
vt 0.68408203 0.84716797
vt 0.68408203 0.8413086
vt 0.9892578 0.84716797
vt 0.9892578 0.8413086
vt 0.68408203 0.82910156
vt 0.68408203 0.8227539
vt 0.9892578 0.82910156
vt 0.9892578 0.8227539
vt 0.68408203 0.81689453
vt 0.68408203 0.7373047
vt 0.9892578 0.81689453
vt 0.9892578 0.7373047
vt 0.68408203 0.6640625
vt 0.68408203 0.6582031
vt 0.9892578 0.6640625
vt 0.9892578 0.6582031
vt 0.68408203 0.6274414
vt 0.68408203 0.62109375
vt 0.9892578 0.6274414
vt 0.9892578 0.62109375
vt 0.68408203 0.6152344
vt 0.68408203 0.5175781
vt 0.9892578 0.6152344
vt 0.9892578 0.5175781
vt 0.68408203 0.49902344
vt 0.68408203 0.49291992
vt 0.9892578 0.49902344
vt 0.9892578 0.49291992
vt 0.9892578 0.4868164
vt 0.68408203 0.4868164
vt 0.9892578 0.4501953
vt 0.68408203 0.4501953
vt 0.68408203 0.4440918
vt 0.68408203 0.43188477
vt 0.9892578 0.4440918
vt 0.9892578 0.43188477
vt 0.68408203 0.42578125
vt 0.68408203 0.41967773
vt 0.9892578 0.42578125
vt 0.9892578 0.41967773
vt 0.68408203 0.3864746
vt 0.9892578 0.3864746
vt 0.68408203 0.41357422
vt 0.9892578 0.41357422
vt 0.68408203 0.41357422
vt 0.9892578 0.41357422
vt 0.68408203 0.41967773
vt 0.9892578 0.41967773
vt 0.010406494 0.42114258
vt 0.31591797 0.42114258
vt 0.010406494 0.41503906
vt 0.31591797 0.41503906
vt 0.68408203 0.42578125
vt 0.9892578 0.42578125
vt 0.68408203 0.43188477
vt 0.9892578 0.43188477
vt 0.010406494 0.4333496
vt 0.31591797 0.4333496
vt 0.010406494 0.4272461
vt 0.31591797 0.4272461
vt 0.010597229 0.44555664
vt 0.3161621 0.44555664
vt 0.010597229 0.43945312
vt 0.3161621 0.43945312
vt 0.9892578 0.4440918
vt 0.9892578 0.4501953
vt 0.68408203 0.4440918
vt 0.68408203 0.4501953
vt 0.010597229 0.48217773
vt 0.3161621 0.48217773
vt 0.010597229 0.47607422
vt 0.3161621 0.47607422
vt 0.3161621 0.53125
vt 0.3161621 0.48828125
vt 0.010597229 0.53125
vt 0.010597229 0.48828125
vt 0.68408203 0.4868164
vt 0.9892578 0.4868164
vt 0.68408203 0.49291992
vt 0.9892578 0.49291992
vt 0.68408203 0.49902344
vt 0.9892578 0.49902344
vt 0.68408203 0.5175781
vt 0.9892578 0.5175781
vt 0.010597229 0.6347656
vt 0.3161621 0.6347656
vt 0.010597229 0.6225586
vt 0.3161621 0.6225586
vt 0.010597229 0.6591797
vt 0.3161621 0.6591797
vt 0.010597229 0.6411133
vt 0.3161621 0.6411133
vt 0.010597229 0.7573242
vt 0.3161621 0.7573242
vt 0.010597229 0.66552734
vt 0.3161621 0.66552734
vt 0.68408203 0.6152344
vt 0.9892578 0.6152344
vt 0.68408203 0.62109375
vt 0.9892578 0.62109375
vt 0.010597229 0.7753906
vt 0.3161621 0.7753906
vt 0.010597229 0.76953125
vt 0.3161621 0.76953125
vt 0.68408203 0.6274414
vt 0.9892578 0.6274414
vt 0.68408203 0.6582031
vt 0.9892578 0.6582031
vt 0.3161621 0.7998047
vt 0.3161621 0.7817383
vt 0.010597229 0.7998047
vt 0.010597229 0.7817383
vt 0.68408203 0.6640625
vt 0.9892578 0.6640625
vt 0.68408203 0.7373047
vt 0.9892578 0.7373047
vt 0.010597229 0.87939453
vt 0.3161621 0.87939453
vt 0.010597229 0.8730469
vt 0.3161621 0.8730469
vt 0.68408203 0.81689453
vt 0.9892578 0.81689453
vt 0.68408203 0.8227539
vt 0.9892578 0.8227539
vt 0.0105896 0.8911133
vt 0.3161621 0.89160156
vt 0.010597229 0.8852539
vt 0.3161621 0.8852539
vt 0.010551453 0.90966797
vt 0.3161621 0.91015625
vt 0.010574341 0.89746094
vt 0.3161621 0.8979492
vt 0.68408203 0.82910156
vt 0.9892578 0.82910156
vt 0.68408203 0.8413086
vt 0.9892578 0.8413086
vt 0.31591797 0.96533203
vt 0.31591797 0.9165039
vt 0.010437012 0.96435547
vt 0.010536194 0.91552734
vt 0.68408203 0.84716797
vt 0.9892578 0.84716797
vt 0.68408203 0.90234375
vt 0.9892578 0.90234375
vt 0.010383606 0.98876953
vt 0.31591797 0.9897461
vt 0.010398865 0.98291016
vt 0.31591797 0.98339844
vt 0.68408203 0.92089844
vt 0.9892578 0.92089844
vt 0.68408203 0.9267578
vt 0.9892578 0.9267578
vt 0.35083008 0.6333008
vt 0.66015625 0.6333008
vt 0.35083008 0.5283203
vt 0.66015625 0.5283203
vt 0.8022461 0.17443848
vt 0.16467285 0.17443848
vt 0.8022461 0.2019043
vt 0.79589844 0.2019043
vt 0.17089844 0.2019043
vt 0.16467285 0.2019043
vt 0.17089844 0.20812988
vt 0.17712402 0.20812988
vt 0.79589844 0.2019043
vt 0.7895508 0.20812988
vt 0.79589844 0.20812988
vt 0.17712402 0.2142334
vt 0.18322754 0.2142334
vt 0.7895508 0.20812988
vt 0.7836914 0.22045898
vt 0.7895508 0.22045898
vt 0.18322754 0.24523926
vt 0.18945312 0.24523926
vt 0.77734375 0.25756836
vt 0.7836914 0.25756836
vt 0.77734375 0.26367188
vt 0.23278809 0.25146484
vt 0.18945312 0.25146484
vt 0.75878906 0.26367188
vt 0.23278809 0.34423828
vt 0.24511719 0.34423828
vt 0.26367188 0.3503418
vt 0.24511719 0.3503418
vt 0.3564453 0.35668945
vt 0.26367188 0.35668945
vt 0.3564453 0.36889648
vt 0.36279297 0.36889648
vt 0.7216797 0.36889648
vt 0.36279297 0.37524414
vt 0.38134766 0.37524414
vt 0.7524414 0.36279297
vt 0.75878906 0.36279297
vt 0.7524414 0.36889648
vt 0.64746094 0.37524414
vt 0.7216797 0.37524414
vt 0.38134766 0.4494629
vt 0.38745117 0.4494629
vt 0.6411133 0.4555664
vt 0.64746094 0.4555664
vt 0.6411133 0.46191406
vt 0.62890625 0.46191406
vt 0.39379883 0.4555664
vt 0.38745117 0.4555664
vt 0.40600586 0.46191406
vt 0.39379883 0.46191406
vt 0.40600586 0.46801758
vt 0.4555664 0.46801758
vt 0.5732422 0.46801758
vt 0.62890625 0.46801758
vt 0.56689453 0.48657227
vt 0.5732422 0.48657227
vt 0.46166992 0.48657227
vt 0.4555664 0.48657227
vt 0.46166992 0.49267578
vt 0.56689453 0.49267578
vt 0.16467285 0.17443848
vt 0.8022461 0.17443848
vt 0.8022461 0.2019043
vt 0.79589844 0.2019043
vt 0.17089844 0.2019043
vt 0.16467285 0.2019043
vt 0.17089844 0.20812988
vt 0.17712402 0.20812988
vt 0.7895508 0.20812988
vt 0.79589844 0.20812988
vt 0.17712402 0.2142334
vt 0.18322754 0.2142334
vt 0.7836914 0.22045898
vt 0.7895508 0.22045898
vt 0.18322754 0.24523926
vt 0.18945312 0.24523926
vt 0.77734375 0.25756836
vt 0.7836914 0.25756836
vt 0.77734375 0.26367188
vt 0.23278809 0.25146484
vt 0.18945312 0.25146484
vt 0.75878906 0.26367188
vt 0.23278809 0.34423828
vt 0.24511719 0.34423828
vt 0.26367188 0.3503418
vt 0.24511719 0.3503418
vt 0.3564453 0.35668945
vt 0.26367188 0.35668945
vt 0.3564453 0.36889648
vt 0.36279297 0.36889648
vt 0.7216797 0.36889648
vt 0.36279297 0.37524414
vt 0.38134766 0.37524414
vt 0.7524414 0.36279297
vt 0.75878906 0.36279297
vt 0.7524414 0.36889648
vt 0.64746094 0.37524414
vt 0.7216797 0.37524414
vt 0.38134766 0.4494629
vt 0.38745117 0.4494629
vt 0.6411133 0.4555664
vt 0.64746094 0.4555664
vt 0.6411133 0.46191406
vt 0.62890625 0.46191406
vt 0.39379883 0.4555664
vt 0.38745117 0.4555664
vt 0.40600586 0.46191406
vt 0.39379883 0.46191406
vt 0.40600586 0.46801758
vt 0.4555664 0.46801758
vt 0.5732422 0.46801758
vt 0.62890625 0.46801758
vt 0.56689453 0.48657227
vt 0.5732422 0.48657227
vt 0.46166992 0.48657227
vt 0.4555664 0.48657227
vt 0.46166992 0.49267578
vt 0.56689453 0.49267578
vn 1 8.106232E-06 0
vn 1 8.106232E-06 0
vn 1 8.106232E-06 0
vn 1 8.106232E-06 0
vn 1 0 -2.1457672E-06
vn 1 0 -2.1457672E-06
vn 1 0 -2.1457672E-06
vn 1 0 -2.1457672E-06
vn 1 0 0
vn 1 0 0
vn 1 0 0
vn 1 0 0
vn 1 0 -7.1525574E-07
vn 1 0 -7.1525574E-07
vn 1 0 -7.1525574E-07
vn 1 0 -7.1525574E-07
vn 1 0 0
vn 1 0 0
vn 1 0 0
vn 1 0 0
vn 1 0 -1.4305115E-06
vn 1 0 -1.4305115E-06
vn 1 0 -1.4305115E-06
vn 1 0 -1.4305115E-06
vn 1 0 0
vn 1 0 0
vn 1 0 0
vn 1 0 0
vn 1 0 -7.1525574E-07
vn 1 0 -7.1525574E-07
vn 1 0 -7.1525574E-07
vn 1 0 -7.1525574E-07
vn 1 0 -1.4305115E-06
vn 1 0 -1.4305115E-06
vn 1 0 -1.4305115E-06
vn 1 0 -1.4305115E-06
vn 1 0 0
vn 1 0 0
vn 1 0 0
vn 1 0 0
vn 1 0 0
vn 1 0 0
vn 1 0 0
vn 1 0 0
vn 1 0 -2.1457672E-06
vn 1 0 -2.1457672E-06
vn 1 0 -2.1457672E-06
vn 1 0 -2.1457672E-06
vn 1 0 0
vn 1 0 0
vn 1 0 0
vn 1 0 0
vn 1 0 -3.5762787E-06
vn 1 0 -3.5762787E-06
vn 1 0 -3.5762787E-06
vn 1 0 -3.5762787E-06
vn 1 0 0
vn 1 0 0
vn 1 0 0
vn 1 0 0
vn 1 0 0
vn 1 0 0
vn 1 0 0
vn 1 0 0
vn -1 0 1.4305115E-06
vn -1 0 1.4305115E-06
vn -1 0 1.4305115E-06
vn -1 0 1.4305115E-06
vn -1 0 1.4305115E-06
vn -1 0 1.4305115E-06
vn -1 0 1.4305115E-06
vn -1 0 1.4305115E-06
vn -1 0 1.4305115E-06
vn -1 0 1.4305115E-06
vn -1 0 1.4305115E-06
vn -1 0 1.4305115E-06
vn -1 0 2.861023E-06
vn -1 0 2.861023E-06
vn -1 0 2.861023E-06
vn -1 0 2.861023E-06
vn -1 0 1.4305115E-06
vn -1 0 1.4305115E-06
vn -1 0 1.4305115E-06
vn -1 0 1.4305115E-06
vn -1 0 1.4305115E-06
vn -1 0 1.4305115E-06
vn -1 0 1.4305115E-06
vn -1 0 1.4305115E-06
vn -1 0 1.4305115E-06
vn -1 0 1.4305115E-06
vn -1 0 1.4305115E-06
vn -1 0 1.4305115E-06
vn -1 0 1.4305115E-06
vn -1 0 1.4305115E-06
vn -1 0 1.4305115E-06
vn -1 0 1.4305115E-06
vn -1 0 1.4305115E-06
vn -1 0 1.4305115E-06
vn -1 0 1.4305115E-06
vn -1 0 1.4305115E-06
vn -1 0 1.4305115E-06
vn -1 0 1.4305115E-06
vn -1 0 1.4305115E-06
vn -1 0 1.4305115E-06
vn -1 0 7.1525574E-07
vn -1 0 7.1525574E-07
vn -1 0 7.1525574E-07
vn -1 0 7.1525574E-07
vn -1 0 1.4305115E-06
vn -1 0 1.4305115E-06
vn -1 0 1.4305115E-06
vn -1 0 1.4305115E-06
vn -1 -2.425909E-05 1.4305115E-06
vn -1 -2.425909E-05 1.4305115E-06
vn -1 -2.425909E-05 1.4305115E-06
vn -1 -1.6152859E-05 7.1525574E-07
vn -0 1 -1.7881393E-07
vn -0 1 -1.7881393E-07
vn -0 1 -1.7881393E-07
vn -0 1 -1.7881393E-07
vn -0 1 -1.7881393E-07
vn -0 1 -1.7881393E-07
vn -0 1 -1.7881393E-07
vn -0 1 -1.7881393E-07
vn -0 1 -1.7881393E-07
vn -0 1 -1.7881393E-07
vn -0 1 -1.7881393E-07
vn -0 1 -1.7881393E-07
vn -0 1 -1.7881393E-07
vn -0 1 -1.7881393E-07
vn -0 1 -1.7881393E-07
vn -0 1 -1.7881393E-07
vn -0 1 -1.7881393E-07
vn -0 1 -1.7881393E-07
vn -0 1 -1.7881393E-07
vn -0 1 -1.7881393E-07
vn -0 1 -1.7881393E-07
vn -0 1 -1.7881393E-07
vn -0 1 -1.7881393E-07
vn -0 1 -1.7881393E-07
vn -0 1 0
vn -0 1 0
vn -0 1 0
vn -0 1 0
vn -0 1 0
vn -0 1 0
vn -0 1 0
vn -0 1 0
vn -0 1 0
vn -0 1 0
vn -0 1 0
vn -0 1 0
vn -0 1 0
vn -0 1 0
vn -0 1 0
vn -0 1 0
vn -0 1 0
vn -0 1 0
vn -0 1 0
vn -0 1 0
vn -0 1 0
vn -0 1 0
vn -0 1 0
vn -0 1 0
vn -0 1 0
vn -0 1 0
vn -0 1 0
vn -0 1 0
vn -0 1 0
vn -0 1 0
vn -0 1 0
vn -0 1 0
vn -0 1 0
vn -0 1 0
vn -0 1 0
vn -0 1 0
vn -0 1 0
vn -0 1 0
vn -0 1 0
vn -0 1 0
vn -0 1 0
vn -0 1 0
vn -0 1 0
vn -0 1 0
vn -0 1 0
vn -0 1 0
vn -0 1 0
vn -0 1 0
vn -0 1 3.5762787E-07
vn -0 1 3.5762787E-07
vn -0 1 3.5762787E-07
vn -0 1 3.5762787E-07
vn -0 1 5.364418E-07
vn -0 1 5.364418E-07
vn -0 1 5.364418E-07
vn -0 1 5.364418E-07
vn -0 1 5.364418E-07
vn -0 1 5.364418E-07
vn -0 1 5.364418E-07
vn -0 1 5.364418E-07
vn -0 1 3.5762787E-07
vn -0 1 3.5762787E-07
vn -0 1 3.5762787E-07
vn -0 1 3.5762787E-07
vn -0 1 3.5762787E-07
vn -0 1 3.5762787E-07
vn -0 1 3.5762787E-07
vn -0 1 3.5762787E-07
vn -0 1 1.7881393E-07
vn -0 1 1.7881393E-07
vn -0 1 1.7881393E-07
vn -0 1 1.7881393E-07
vn -0 1 1.7881393E-07
vn -0 1 1.7881393E-07
vn -0 1 1.7881393E-07
vn -0 1 1.7881393E-07
vn -0 1 7.1525574E-07
vn -0 1 7.1525574E-07
vn -0 1 7.1525574E-07
vn -0 1 7.1525574E-07
vn -0 1 7.1525574E-07
vn -0 1 7.1525574E-07
vn -0 1 7.1525574E-07
vn -0 1 7.1525574E-07
vn -0 1 1.7881393E-07
vn -0 1 1.7881393E-07
vn -0 1 1.7881393E-07
vn -0 1 1.7881393E-07
vn 3.5762787E-07 0 -1
vn 3.5762787E-07 0 -1
vn 3.5762787E-07 0 -1
vn -0 -8.106232E-06 -1
vn 3.5762787E-07 0 -1
vn -0 0 -1
vn 3.5762787E-07 0 -1
vn -0 3.582239E-05 -1
vn -0 3.582239E-05 -1
vn 3.5762787E-07 -3.5762787E-07 -1
vn -0 0 -1
vn 3.5762787E-07 0 -1
vn -0 3.5881996E-05 -1
vn -0 3.5881996E-05 -1
vn 3.5762787E-07 -1.7881393E-07 -1
vn -0 0 -1
vn 3.5762787E-07 0 -1
vn -0 8.940697E-06 -1
vn 3.5762787E-07 0 -1
vn -0 0 -1
vn 3.5762787E-07 0 -1
vn -0 -1.7940998E-05 -1
vn -0 0 -1
vn -0 -1.7940998E-05 -1
vn 4.172325E-07 0 -1
vn -0 2.7418137E-06 -1
vn 2.9802322E-07 8.940697E-07 -1
vn -0 0 -1
vn 1.1920929E-07 1.847744E-06 -1
vn -0 0 -1
vn 5.364418E-07 0 -1
vn -0 2.0861626E-06 -1
vn 5.9604645E-07 -2.3841858E-07 -1
vn 5.9604645E-07 0 -1
vn -0 3.582239E-05 -1
vn -0 0 -1
vn -0 0 -1
vn -0 0 -1
vn -0 3.582239E-05 -1
vn 2.9802322E-06 0 -1
vn -0 0 -1
vn -0 0 -1
vn -0 0 -1
vn -0 0 -1
vn -0 0 -1
vn -0 0 -1
vn -0 0 -1
vn -0 0 -1
vn -0 0 -1
vn -0 0 -1
vn -0 0 -1
vn -0 0 -1
vn -0 0 -1
vn -0 0 -1
vn -0 0 -1
vn -0 0 -1
vn -0 0 -1
vn -0 0 -1
vn -0 0 -1
vn -0 0 -1
vn -0 0 1
vn -0 0 1
vn -0 0 1
vn -0 0 1
vn -0 0 1
vn -0 0 1
vn -0 0 1
vn -0 0 1
vn -0 0 1
vn -0 0 1
vn -0 0 1
vn -0 0 1
vn -0 0 1
vn -0 0 1
vn -0 0 1
vn -0 0 1
vn -0 0 1
vn -0 0 1
vn -0 0 1
vn -0 0 1
vn -0 0 1
vn -0 0 1
vn -0 0 1
vn -0 0 1
vn -0 0 1
vn -0 0 1
vn -0 0 1
vn -0 0 1
vn -0 0 1
vn -0 0 1
vn -0 0 1
vn -0 0 1
vn -0 0 1
vn -0 0 1
vn -0 0 1
vn -0 0 1
vn -0 0 1
vn -0 0 1
vn -0 0 1
vn -0 0 1
vn -0 0 1
vn -0 0 1
vn -0 0 1
vn -0 0 1
vn -0 0 1
vn -0 0 1
vn -0 0 1
vn -0 0 1
vn -0 0 1
vn -0 0 1
vn -0 0 1
vn -0 0 1
vn -0 0 1
vn -0 0 1
vn -0 0 1
vn -0 0 1
vn -0 0 1
vn -0 0 1
g Rocks_Medium_004_0
f 3/3/3 2/2/2 1/1/1
f 2/2/2 3/3/3 4/4/4
f 7/7/7 6/6/6 5/5/5
f 6/6/6 7/7/7 8/8/8
f 11/11/11 10/10/10 9/9/9
f 10/10/10 11/11/11 12/12/12
f 15/15/15 14/14/14 13/13/13
f 14/14/14 15/15/15 16/16/16
f 19/19/19 18/18/18 17/17/17
f 18/18/18 19/19/19 20/20/20
f 23/23/23 22/22/22 21/21/21
f 22/22/22 23/23/23 24/24/24
f 27/27/27 26/26/26 25/25/25
f 26/26/26 27/27/27 28/28/28
f 31/31/31 30/30/30 29/29/29
f 30/30/30 31/31/31 32/32/32
f 35/35/35 34/34/34 33/33/33
f 34/34/34 35/35/35 36/36/36
f 39/39/39 38/38/38 37/37/37
f 38/38/38 39/39/39 40/40/40
f 43/43/43 42/42/42 41/41/41
f 42/42/42 43/43/43 44/44/44
f 47/47/47 46/46/46 45/45/45
f 46/46/46 47/47/47 48/48/48
f 51/51/51 50/50/50 49/49/49
f 50/50/50 51/51/51 52/52/52
f 55/55/55 54/54/54 53/53/53
f 54/54/54 55/55/55 56/56/56
f 59/59/59 58/58/58 57/57/57
f 58/58/58 59/59/59 60/60/60
f 63/63/63 62/62/62 61/61/61
f 62/62/62 63/63/63 64/64/64
f 67/67/67 66/66/66 65/65/65
f 66/66/66 67/67/67 68/68/68
f 71/71/71 70/70/70 69/69/69
f 70/70/70 71/71/71 72/72/72
f 75/75/75 74/74/74 73/73/73
f 74/74/74 75/75/75 76/76/76
f 79/79/79 78/78/78 77/77/77
f 78/78/78 79/79/79 80/80/80
f 83/83/83 82/82/82 81/81/81
f 82/82/82 83/83/83 84/84/84
f 87/87/87 86/86/86 85/85/85
f 86/86/86 87/87/87 88/88/88
f 91/91/91 90/90/90 89/89/89
f 90/90/90 91/91/91 92/92/92
f 95/95/95 94/94/94 93/93/93
f 94/94/94 95/95/95 96/96/96
f 99/99/99 98/98/98 97/97/97
f 98/98/98 99/99/99 100/100/100
f 103/103/103 102/102/102 101/101/101
f 102/102/102 103/103/103 104/104/104
f 107/107/107 106/106/106 105/105/105
f 106/106/106 107/107/107 108/108/108
f 111/111/111 110/110/110 109/109/109
f 110/110/110 111/111/111 112/112/112
f 115/115/115 114/114/114 113/113/113
f 116/116/116 114/114/114 115/115/115
f 119/119/119 118/118/118 117/117/117
f 118/118/118 119/119/119 120/120/120
f 123/123/123 122/122/122 121/121/121
f 122/122/122 123/123/123 124/124/124
f 127/127/127 126/126/126 125/125/125
f 126/126/126 127/127/127 128/128/128
f 131/131/131 130/130/130 129/129/129
f 130/130/130 131/131/131 132/132/132
f 135/135/135 134/134/134 133/133/133
f 134/134/134 135/135/135 136/136/136
f 139/139/139 138/138/138 137/137/137
f 138/138/138 139/139/139 140/140/140
f 143/143/143 142/142/142 141/141/141
f 142/142/142 143/143/143 144/144/144
f 147/147/147 146/146/146 145/145/145
f 146/146/146 147/147/147 148/148/148
f 151/151/151 150/150/150 149/149/149
f 150/150/150 151/151/151 152/152/152
f 155/155/155 154/154/154 153/153/153
f 154/154/154 155/155/155 156/156/156
f 159/159/159 158/158/158 157/157/157
f 158/158/158 159/159/159 160/160/160
f 163/163/163 162/162/162 161/161/161
f 162/162/162 163/163/163 164/164/164
f 167/167/167 166/166/166 165/165/165
f 166/166/166 167/167/167 168/168/168
f 171/171/171 170/170/170 169/169/169
f 170/170/170 171/171/171 172/172/172
f 175/175/175 174/174/174 173/173/173
f 174/174/174 175/175/175 176/176/176
f 179/179/179 178/178/178 177/177/177
f 178/178/178 179/179/179 180/180/180
f 183/183/183 182/182/182 181/181/181
f 182/182/182 183/183/183 184/184/184
f 187/187/187 186/186/186 185/185/185
f 186/186/186 187/187/187 188/188/188
f 191/191/191 190/190/190 189/189/189
f 190/190/190 191/191/191 192/192/192
f 195/195/195 194/194/194 193/193/193
f 194/194/194 195/195/195 196/196/196
f 199/199/199 198/198/198 197/197/197
f 198/198/198 199/199/199 200/200/200
f 203/203/203 202/202/202 201/201/201
f 202/202/202 203/203/203 204/204/204
f 207/207/207 206/206/206 205/205/205
f 206/206/206 207/207/207 208/208/208
f 211/211/211 210/210/210 209/209/209
f 210/210/210 211/211/211 212/212/212
f 215/215/215 214/214/214 213/213/213
f 214/214/214 215/215/215 216/216/216
f 219/219/219 218/218/218 217/217/217
f 218/218/218 219/219/219 220/220/220
f 223/223/223 222/222/222 221/221/221
f 222/222/222 223/223/223 224/224/224
f 227/227/227 226/226/226 225/225/225
f 226/226/226 227/227/227 228/228/228
f 231/231/231 230/230/230 229/229/229
f 232/232/232 230/230/230 231/231/231
f 233/233/233 230/230/230 232/232/232
f 234/234/234 230/230/230 233/233/233
f 233/233/233 232/232/232 235/235/235
f 235/235/235 237/237/237 236/236/236
f 236/236/236 232/232/232 238/238/238
f 238/238/238 232/232/232 239/239/239
f 236/236/236 238/238/238 240/240/240
f 240/240/240 242/242/242 241/241/241
f 241/241/241 238/238/238 243/243/243
f 243/243/243 238/238/238 244/244/244
f 241/241/241 243/243/243 245/245/245
f 245/245/245 243/243/243 246/246/246
f 246/246/246 243/243/243 247/247/247
f 247/247/247 243/243/243 248/248/248
f 246/246/246 247/247/247 249/249/249
f 250/250/250 246/246/246 249/249/249
f 246/246/246 250/250/250 251/251/251
f 250/250/250 249/249/249 252/252/252
f 250/250/250 252/252/252 253/253/253
f 253/253/253 252/252/252 254/254/254
f 254/254/254 252/252/252 255/255/255
f 254/254/254 255/255/255 256/256/256
f 255/255/255 252/252/252 257/257/257
f 255/255/255 257/257/257 258/258/258
f 257/257/257 252/252/252 259/259/259
f 259/259/259 252/252/252 260/260/260
f 260/260/260 252/252/252 261/261/261
f 260/260/260 261/261/261 262/262/262
f 262/262/262 261/261/261 263/263/263
f 261/261/261 252/252/252 264/264/264
f 264/264/264 252/252/252 265/265/265
f 261/261/261 264/264/264 266/266/266
f 263/263/263 261/261/261 267/267/267
f 267/267/267 261/261/261 268/268/268
f 263/263/263 267/267/267 269/269/269
f 269/269/269 267/267/267 270/270/270
f 270/270/270 267/267/267 271/271/271
f 271/271/271 267/267/267 272/272/272
f 270/270/270 271/271/271 273/273/273
f 270/270/270 273/273/273 274/274/274
f 270/270/270 274/274/274 275/275/275
f 270/270/270 275/275/275 276/276/276
f 275/275/275 274/274/274 277/277/277
f 275/275/275 277/277/277 278/278/278
f 277/277/277 274/274/274 279/279/279
f 279/279/279 274/274/274 280/280/280
f 280/280/280 274/274/274 281/281/281
f 281/281/281 274/274/274 282/282/282
f 280/280/280 281/281/281 283/283/283
f 283/283/283 281/281/281 284/284/284
f 280/280/280 283/283/283 285/285/285
f 280/280/280 285/285/285 286/286/286
f 283/283/283 287/287/287 285/285/285
f 287/287/287 283/283/283 288/288/288
f 291/291/291 290/290/290 289/289/289
f 289/289/289 292/292/292 291/291/291
f 289/289/289 293/293/293 292/292/292
f 289/289/289 294/294/294 293/293/293
f 292/292/292 293/293/293 295/295/295
f 292/292/292 295/295/295 296/296/296
f 292/292/292 296/296/296 297/297/297
f 292/292/292 297/297/297 298/298/298
f 297/297/297 296/296/296 299/299/299
f 297/297/297 299/299/299 300/300/300
f 297/297/297 300/300/300 301/301/301
f 297/297/297 301/301/301 302/302/302
f 301/301/301 300/300/300 303/303/303
f 301/301/301 303/303/303 304/304/304
f 301/301/301 304/304/304 305/305/305
f 301/301/301 305/305/305 306/306/306
f 305/305/305 304/304/304 307/307/307
f 304/304/304 308/308/308 307/307/307
f 308/308/308 304/304/304 309/309/309
f 307/307/307 308/308/308 310/310/310
f 310/310/310 308/308/308 311/311/311
f 310/310/310 311/311/311 312/312/312
f 310/310/310 312/312/312 313/313/313
f 313/313/313 312/312/312 314/314/314
f 310/310/310 313/313/313 315/315/315
f 315/315/315 313/313/313 316/316/316
f 310/310/310 315/315/315 317/317/317
f 310/310/310 317/317/317 318/318/318
f 310/310/310 318/318/318 319/319/319
f 319/319/319 318/318/318 320/320/320
f 319/319/319 320/320/320 321/321/321
f 310/310/310 319/319/319 322/322/322
f 310/310/310 322/322/322 323/323/323
f 322/322/322 319/319/319 324/324/324
f 319/319/319 321/321/321 325/325/325
f 319/319/319 325/325/325 326/326/326
f 325/325/325 321/321/321 327/327/327
f 325/325/325 327/327/327 328/328/328
f 325/325/325 328/328/328 329/329/329
f 325/325/325 329/329/329 330/330/330
f 329/329/329 328/328/328 331/331/331
f 331/331/331 328/328/328 332/332/332
f 332/332/332 328/328/328 333/333/333
f 333/333/333 328/328/328 334/334/334
f 332/332/332 333/333/333 335/335/335
f 335/335/335 333/333/333 336/336/336
f 332/332/332 335/335/335 337/337/337
f 332/332/332 337/337/337 338/338/338
f 332/332/332 338/338/338 339/339/339
f 332/332/332 339/339/339 340/340/340
f 339/339/339 338/338/338 341/341/341
f 339/339/339 341/341/341 342/342/342
f 341/341/341 338/338/338 343/343/343
f 343/343/343 338/338/338 344/344/344
f 345/345/345 341/341/341 343/343/343
f 341/341/341 345/345/345 346/346/346
