g Rocks_Medium_008
v 1.0005746 -0.31271324 -0.51179105
v 1.0005761 -0.46339637 -0.511788
v 1.0005754 -0.3127156 0.51178956
v 1.0005761 -0.46339878 0.51179105
v 0.8298229 -0.07366099 -0.511791
v 0.8298229 -0.2444126 -0.51179105
v 0.82982373 -0.07366317 0.51178956
v 0.82982373 -0.24441478 0.51178956
v 0.7956726 -0.03951067 -0.511791
v 0.7956726 -0.07366099 -0.511791
v 0.79567343 -0.039512847 0.51178956
v 0.79567343 -0.07366317 0.51178956
v 0.45416945 0.3702928 -0.51179093
v 0.45416945 0.33614248 -0.51179093
v 0.45416945 0.37029037 0.5117896
v 0.45416945 0.33614007 0.5117896
v 0.9664242 -0.27856293 -0.51179105
v 0.9664242 -0.31271324 -0.51179105
v 0.966425 -0.2785653 0.51178956
v 0.966425 -0.3127156 0.51178956
v 0.8981236 -0.2444126 -0.51179105
v 0.8981236 -0.27856293 -0.51179105
v 0.8981244 -0.24441478 0.51178956
v 0.8981244 -0.2785653 0.51178956
v 0.8298229 -0.2444126 -0.51179105
v 0.8981236 -0.2444126 -0.51179105
v 0.82982373 -0.24441478 0.51178956
v 0.8981244 -0.24441478 0.51178956
v 0.7956726 -0.07366099 -0.511791
v 0.8298229 -0.07366099 -0.511791
v 0.79567343 -0.07366317 0.51178956
v 0.82982373 -0.07366317 0.51178956
v 0.6932216 -0.03951067 -0.511791
v 0.7956726 -0.03951067 -0.511791
v 0.69322175 -0.039512847 0.51178956
v 0.79567343 -0.039512847 0.51178956
v 0.6932216 0.13124058 -0.511791
v 0.6932216 -0.03951067 -0.511791
v 0.69322175 0.13123801 0.5117896
v 0.69322175 -0.039512847 0.51178956
v 0.6590713 0.1653909 -0.511791
v 0.6590713 0.13124058 -0.511791
v 0.6590714 0.16538833 0.5117896
v 0.6590714 0.13123801 0.5117896
v 0.48831975 0.33614248 -0.51179093
v 0.48831975 0.1653909 -0.51179093
v 0.48831984 0.33614007 0.5117896
v 0.48831984 0.16538833 0.5117896
v -0.36543676 0.26784185 -0.511791
v -0.36543676 0.3702928 -0.511791
v -0.3654363 0.2678402 0.511716
v -0.36543602 0.37029037 0.5117896
v -0.36543676 0.3702928 -0.511791
v -0.26298597 0.3702928 -0.511791
v -0.36543602 0.37029037 0.5117896
v -0.26298535 0.37029037 0.5117896
v 0.9664242 -0.31271324 -0.51179105
v 1.0005746 -0.31271324 -0.51179105
v 0.966425 -0.3127156 0.51178956
v 1.0005754 -0.3127156 0.51178956
v 0.8981236 -0.27856293 -0.51179105
v 0.9664242 -0.27856293 -0.51179105
v 0.8981244 -0.2785653 0.51178956
v 0.966425 -0.2785653 0.51178956
v 0.6590713 0.13124058 -0.511791
v 0.6932216 0.13124058 -0.511791
v 0.6590714 0.13123801 0.5117896
v 0.69322175 0.13123801 0.5117896
v 0.48831975 0.1653909 -0.51179093
v 0.6590713 0.1653909 -0.511791
v 0.48831984 0.16538833 0.5117896
v 0.6590714 0.16538833 0.5117896
v 0.45416945 0.33614248 -0.51179093
v 0.48831975 0.33614248 -0.51179093
v 0.45416945 0.33614007 0.5117896
v 0.48831984 0.33614007 0.5117896
v 0.9664242 -0.31271324 -0.51179105
v 1.0005761 -0.46339637 -0.511788
v 1.0005746 -0.31271324 -0.51179105
v 0.8981236 -0.27856293 -0.51179105
v 0.9664242 -0.27856293 -0.51179105
v 0.8298229 -0.2444126 -0.51179105
v 0.8981236 -0.2444126 -0.51179105
v -1.0004734 -0.46339628 -0.5117881
v -0.89001536 -0.24906482 -0.51179105
v -0.9486719 -0.30326405 -0.5117903
v -1.0005691 -0.30326003 -0.5117903
v -0.948666 -0.24906482 -0.51179105
v 0.6932216 -0.03951067 -0.511791
v 0.7956726 -0.07366099 -0.511791
v 0.8298229 -0.07366099 -0.511791
v 0.7956726 -0.03951067 -0.511791
v -0.53329736 -0.039510638 -0.51179093
v -0.8384375 -0.08889635 -0.51179093
v -0.89006495 -0.08889382 -0.51179093
v -0.83843696 -0.039510638 -0.51179093
v 0.48831975 0.1653909 -0.51179093
v 0.6590713 0.13124058 -0.511791
v 0.6932216 0.13124058 -0.511791
v 0.6590713 0.1653909 -0.511791
v -0.36543676 0.26784185 -0.511791
v -0.49396482 0.22415045 -0.511791
v -0.5333031 0.2241515 -0.51179093
v -0.493965 0.26784185 -0.511791
v 0.45416945 0.33614248 -0.51179093
v 0.48831975 0.33614248 -0.51179093
v -0.26298597 0.3702928 -0.511791
v -0.36543676 0.3702928 -0.511791
v 0.38641632 0.3702928 -0.51179093
v 0.45416945 0.3702928 -0.51179093
v -0.10063541 0.42218807 -0.51179075
v -0.26298597 0.42218807 -0.5117908
v 0.34508628 0.422188 -0.5117908
v 0.38641632 0.42218807 -0.51179075
v -0.10063541 0.46339902 -0.5117907
v 0.34508628 0.463399 -0.5117907
v -0.89006495 -0.08889382 -0.51179093
v -0.89006495 -0.08889634 0.51167953
v -0.89001536 -0.24906734 0.5116795
v -0.89001536 -0.24906482 -0.51179105
v -1.0005691 -0.30326003 -0.5117903
v -1.0005691 -0.30326256 0.5116798
v -1.0004734 -0.46339887 0.511681
v -1.0004734 -0.46339628 -0.5117881
v -0.53329736 -0.039510638 -0.51179093
v -0.53329736 -0.039513163 0.51167953
v -0.83843696 -0.039513163 0.51167953
v -0.83843696 -0.039510638 -0.51179093
v -0.83843696 -0.039510638 -0.51179093
v -0.83843696 -0.039513163 0.51167953
v -0.8384375 -0.088898875 0.51167953
v -0.8384375 -0.08889635 -0.51179093
v -0.8384375 -0.08889635 -0.51179093
v -0.8384375 -0.088898875 0.51167953
v -0.89006495 -0.08889634 0.51167953
v -0.89006495 -0.08889382 -0.51179093
v -0.5333031 0.2241515 -0.51179093
v -0.5333031 0.22414899 0.51167953
v -0.53329736 -0.039513163 0.51167953
v -0.53329736 -0.039510638 -0.51179093
v -0.36543676 0.26784185 -0.511791
v -0.3654363 0.2678402 0.511716
v -0.493965 0.26783928 0.5116795
v -0.493965 0.26784185 -0.511791
v -0.493965 0.26784185 -0.511791
v -0.493965 0.26783928 0.5116795
v -0.49396482 0.22414793 0.5116795
v -0.49396482 0.22415045 -0.511791
v -0.49396482 0.22415045 -0.511791
v -0.49396482 0.22414793 0.5116795
v -0.5333031 0.22414899 0.51167953
v -0.5333031 0.2241515 -0.51179093
v -0.89001536 -0.24906482 -0.51179105
v -0.89001536 -0.24906734 0.5116795
v -0.948666 -0.24906734 0.5116795
v -0.948666 -0.24906482 -0.51179105
v -0.948666 -0.24906482 -0.51179105
v -0.948666 -0.24906734 0.5116795
v -0.9486719 -0.30326656 0.5116798
v -0.9486719 -0.30326405 -0.5117903
v -0.9486719 -0.30326405 -0.5117903
v -0.9486719 -0.30326656 0.5116798
v -1.0005691 -0.30326256 0.5116798
v -1.0005691 -0.30326003 -0.5117903
v 0.966425 -0.3127156 0.51178956
v 1.0005754 -0.3127156 0.51178956
v 1.0005761 -0.46339878 0.51179105
v 0.8981244 -0.2785653 0.51178956
v 0.966425 -0.2785653 0.51178956
v 0.82982373 -0.24441478 0.51178956
v 0.8981244 -0.24441478 0.51178956
v -1.0004734 -0.46339887 0.511681
v -0.89001536 -0.24906734 0.5116795
v -0.9486719 -0.30326656 0.5116798
v -1.0005691 -0.30326256 0.5116798
v -0.948666 -0.24906734 0.5116795
v 0.69322175 -0.039512847 0.51178956
v 0.79567343 -0.07366317 0.51178956
v 0.82982373 -0.07366317 0.51178956
v 0.79567343 -0.039512847 0.51178956
v -0.53329736 -0.039513163 0.51167953
v -0.8384375 -0.088898875 0.51167953
v -0.89006495 -0.08889634 0.51167953
v -0.83843696 -0.039513163 0.51167953
v 0.48831984 0.16538833 0.5117896
v 0.6590714 0.13123801 0.5117896
v 0.69322175 0.13123801 0.5117896
v 0.6590714 0.16538833 0.5117896
v -0.3654363 0.2678402 0.511716
v -0.49396482 0.22414793 0.5116795
v -0.5333031 0.22414899 0.51167953
v -0.493965 0.26783928 0.5116795
v 0.45416945 0.33614007 0.5117896
v 0.48831984 0.33614007 0.5117896
v -0.26298535 0.37029037 0.5117896
v -0.36543602 0.37029037 0.5117896
v 0.38641655 0.37029037 0.5117896
v 0.45416945 0.37029037 0.5117896
v -0.10063488 0.42218563 0.51178974
v -0.26298535 0.42218563 0.51178974
v 0.3452123 0.42218563 0.5117897
v 0.38641655 0.42218563 0.51178974
v -0.10063488 0.4633966 0.51178986
v 0.34508628 0.4633966 0.51178986
v 0.38641655 0.37029037 0.5117896
v 0.38641632 0.3702928 -0.51179093
v 0.45416945 0.37029037 0.5117896
v 0.45416945 0.3702928 -0.51179093
v -0.26298535 0.42218563 0.51178974
v -0.26298597 0.42218807 -0.5117908
v -0.10063488 0.42218563 0.51178974
v -0.10063541 0.42218807 -0.51179075
v 0.38641655 0.37029037 0.5117896
v 0.38641655 0.42218563 0.51178974
v 0.38641632 0.42218807 -0.51179075
v 0.38641632 0.3702928 -0.51179093
v -0.26298597 0.3702928 -0.511791
v -0.26298597 0.42218807 -0.5117908
v -0.26298535 0.42218563 0.51178974
v -0.26298535 0.37029037 0.5117896
v -0.10063488 0.4633966 0.51178986
v -0.10063541 0.46339902 -0.5117907
v 0.34508628 0.4633966 0.51178986
v 0.34508628 0.463399 -0.5117907
v 0.3452123 0.42218563 0.5117897
v 0.34508628 0.422188 -0.5117908
v 0.38641655 0.42218563 0.51178974
v 0.38641632 0.42218807 -0.51179075
v -0.10063541 0.42218807 -0.51179075
v -0.10063541 0.46339902 -0.5117907
v -0.10063488 0.4633966 0.51178986
v -0.10063488 0.42218563 0.51178974
v 0.3452123 0.42218563 0.5117897
v 0.34508628 0.4633966 0.51178986
v 0.34508628 0.463399 -0.5117907
v 0.34508628 0.422188 -0.5117908
vt 0.31054688 0.3918457
vt 0.31030273 0.3486328
vt 0.017791748 0.3918457
vt 0.017791748 0.3486328
vt 0.31054688 0.5097656
vt 0.31054688 0.46069336
vt 0.017791748 0.5097656
vt 0.017791748 0.46069336
vt 0.31054688 0.5292969
vt 0.31054688 0.51953125
vt 0.017791748 0.5292969
vt 0.017791748 0.51953125
vt 0.36743164 0.6245117
vt 0.36743164 0.63378906
vt 0.65478516 0.6245117
vt 0.65478516 0.63378906
vt 0.31054688 0.4116211
vt 0.31054688 0.40161133
vt 0.017791748 0.4116211
vt 0.017791748 0.40161133
vt 0.31054688 0.44091797
vt 0.31054688 0.43115234
vt 0.017791748 0.44091797
vt 0.017791748 0.43115234
vt 0.31054688 0.46069336
vt 0.31054688 0.44091797
vt 0.017791748 0.46069336
vt 0.017791748 0.44091797
vt 0.31054688 0.51953125
vt 0.31054688 0.5097656
vt 0.017791748 0.51953125
vt 0.017791748 0.5097656
vt 0.31054688 0.55908203
vt 0.31054688 0.5292969
vt 0.017791748 0.55908203
vt 0.017791748 0.5292969
vt 0.31054688 0.60791016
vt 0.31054688 0.55908203
vt 0.017791748 0.60791016
vt 0.017791748 0.55908203
vt 0.31054688 0.6274414
vt 0.31054688 0.6176758
vt 0.017791748 0.6274414
vt 0.017791748 0.6176758
vt 0.31054688 0.7260742
vt 0.31054688 0.6767578
vt 0.017791748 0.7260742
vt 0.017791748 0.6767578
vt 0.7036133 0.40649414
vt 0.7036133 0.43579102
vt 0.9897461 0.40649414
vt 0.9897461 0.43579102
vt 0.36743164 0.34228516
vt 0.36743164 0.37109375
vt 0.65478516 0.34228516
vt 0.65478516 0.37109375
vt 0.31054688 0.40161133
vt 0.31054688 0.3918457
vt 0.017791748 0.40161133
vt 0.017791748 0.3918457
vt 0.31054688 0.43115234
vt 0.31054688 0.4116211
vt 0.017791748 0.43115234
vt 0.017791748 0.4116211
vt 0.31054688 0.6176758
vt 0.31054688 0.60791016
vt 0.017791748 0.6176758
vt 0.017791748 0.60791016
vt 0.31054688 0.6767578
vt 0.31054688 0.6274414
vt 0.017791748 0.6767578
vt 0.017791748 0.6274414
vt 0.31054688 0.73583984
vt 0.31054688 0.7260742
vt 0.017791748 0.73583984
vt 0.017791748 0.7260742
vt 0.10003662 0.052703857
vt 0.090270996 0.010261536
vt 0.09039307 0.052734375
vt 0.119262695 0.062286377
vt 0.10003662 0.062316895
vt 0.1385498 0.071899414
vt 0.119262695 0.071899414
vt 0.6542969 0.009185791
vt 0.6230469 0.06964111
vt 0.63964844 0.05432129
vt 0.6542969 0.05432129
vt 0.63964844 0.06958008
vt 0.17712402 0.1295166
vt 0.14819336 0.11999512
vt 0.13867188 0.11999512
vt 0.14831543 0.12963867
vt 0.5229492 0.12890625
vt 0.6088867 0.11480713
vt 0.6230469 0.114746094
vt 0.6088867 0.12866211
vt 0.23498535 0.18713379
vt 0.18688965 0.1776123
vt 0.1772461 0.1776123
vt 0.18688965 0.18725586
vt 0.47558594 0.21557617
vt 0.51171875 0.20324707
vt 0.5229492 0.203125
vt 0.51171875 0.2154541
vt 0.24450684 0.23522949
vt 0.23498535 0.23522949
vt 0.4477539 0.24438477
vt 0.47558594 0.24438477
vt 0.26416016 0.2446289
vt 0.24450684 0.2446289
vt 0.40185547 0.25927734
vt 0.4477539 0.25927734
vt 0.27563477 0.25927734
vt 0.26416016 0.25927734
vt 0.40185547 0.2709961
vt 0.27563477 0.2709961
vt 0.7036133 0.15539551
vt 0.9897461 0.15539551
vt 0.9897461 0.109802246
vt 0.7036133 0.109802246
vt 0.7036133 0.06286621
vt 0.9897461 0.06286621
vt 0.9897461 0.017227173
vt 0.7036133 0.017227173
vt 0.7036133 0.27319336
vt 0.9897461 0.27319336
vt 0.9897461 0.1842041
vt 0.7036133 0.1842041
vt 0.7036133 0.1842041
vt 0.9897461 0.1842041
vt 0.9897461 0.17016602
vt 0.7036133 0.17016602
vt 0.7036133 0.17016602
vt 0.9897461 0.17016602
vt 0.9897461 0.15539551
vt 0.7036133 0.15539551
vt 0.7036133 0.34838867
vt 0.9897461 0.34838867
vt 0.9897461 0.27319336
vt 0.7036133 0.27319336
vt 0.7036133 0.40649414
vt 0.9897461 0.40649414
vt 0.9897461 0.36987305
vt 0.7036133 0.36987305
vt 0.7036133 0.36987305
vt 0.9897461 0.36987305
vt 0.9897461 0.35742188
vt 0.7036133 0.35742188
vt 0.7036133 0.35742188
vt 0.9897461 0.35742188
vt 0.9897461 0.34838867
vt 0.7036133 0.34838867
vt 0.7036133 0.109802246
vt 0.9897461 0.109802246
vt 0.9897461 0.09307861
vt 0.7036133 0.09307861
vt 0.7036133 0.09307861
vt 0.9897461 0.09307861
vt 0.9897461 0.07763672
vt 0.7036133 0.07763672
vt 0.7036133 0.07763672
vt 0.9897461 0.07763672
vt 0.9897461 0.06286621
vt 0.7036133 0.06286621
vt 0.10003662 0.052703857
vt 0.09039307 0.052734375
vt 0.090270996 0.010261536
vt 0.119262695 0.062286377
vt 0.10003662 0.062316895
vt 0.1385498 0.071899414
vt 0.119262695 0.071899414
vt 0.6542969 0.009185791
vt 0.6230469 0.06964111
vt 0.63964844 0.05432129
vt 0.6542969 0.05432129
vt 0.63964844 0.06958008
vt 0.17712402 0.1295166
vt 0.14819336 0.11999512
vt 0.13867188 0.11999512
vt 0.14831543 0.12963867
vt 0.5229492 0.12890625
vt 0.6088867 0.11480713
vt 0.6230469 0.114746094
vt 0.6088867 0.12866211
vt 0.23498535 0.18713379
vt 0.18688965 0.1776123
vt 0.1772461 0.1776123
vt 0.18688965 0.18725586
vt 0.47558594 0.21557617
vt 0.51171875 0.20324707
vt 0.5229492 0.203125
vt 0.51171875 0.2154541
vt 0.24450684 0.23522949
vt 0.23498535 0.23522949
vt 0.4477539 0.24438477
vt 0.47558594 0.24438477
vt 0.26416016 0.2446289
vt 0.24450684 0.2446289
vt 0.40185547 0.25927734
vt 0.4477539 0.25927734
vt 0.27563477 0.25927734
vt 0.26416016 0.25927734
vt 0.40185547 0.2709961
vt 0.27563477 0.2709961
vt 0.65478516 0.60546875
vt 0.36743164 0.60546875
vt 0.65478516 0.6245117
vt 0.36743164 0.6245117
vt 0.65478516 0.38549805
vt 0.36743164 0.38549805
vt 0.65478516 0.43115234
vt 0.36743164 0.43115234
vt 0.65478516 0.60546875
vt 0.65478516 0.5908203
vt 0.36743164 0.5908203
vt 0.36743164 0.60546875
vt 0.36743164 0.37109375
vt 0.36743164 0.38549805
vt 0.65478516 0.38549805
vt 0.65478516 0.37109375
vt 0.65478516 0.44262695
vt 0.36743164 0.44262695
vt 0.65478516 0.5678711
vt 0.36743164 0.5678711
vt 0.65478516 0.57910156
vt 0.36743164 0.57910156
vt 0.65478516 0.5908203
vt 0.36743164 0.5908203
vt 0.36743164 0.43115234
vt 0.36743164 0.44262695
vt 0.65478516 0.44262695
vt 0.65478516 0.43115234
vt 0.65478516 0.57910156
vt 0.65478516 0.5678711
vt 0.36743164 0.5678711
vt 0.36743164 0.57910156
vn 1 1.013279E-05 -7.748604E-07
vn 1 1.013279E-05 -7.748604E-07
vn 1 1.013279E-05 -7.748604E-07
vn 1 5.066395E-06 0
vn 1 0 -8.34465E-07
vn 1 0 -8.34465E-07
vn 1 0 -8.34465E-07
vn 1 0 -8.34465E-07
vn 1 0 -8.34465E-07
vn 1 0 -8.34465E-07
vn 1 0 -8.34465E-07
vn 1 0 -8.34465E-07
vn 1 0 0
vn 1 0 0
vn 1 0 0
vn 1 0 0
vn 1 0 -7.748604E-07
vn 1 0 -7.748604E-07
vn 1 0 -7.748604E-07
vn 1 0 -7.748604E-07
vn 1 0 -7.748604E-07
vn 1 0 -7.748604E-07
vn 1 0 -7.748604E-07
vn 1 0 -7.748604E-07
vn -0 1 2.1457672E-06
vn -0 1 2.1457672E-06
vn -0 1 2.1457672E-06
vn -0 1 2.1457672E-06
vn -0 1 2.1457672E-06
vn -0 1 2.1457672E-06
vn -0 1 2.1457672E-06
vn -0 1 2.1457672E-06
vn -0 1 2.1457672E-06
vn -0 1 2.1457672E-06
vn -0 1 2.1457672E-06
vn -0 1 2.1457672E-06
vn 1 0 0
vn 1 0 0
vn 1 0 0
vn 1 0 0
vn 1 0 0
vn 1 0 0
vn 1 0 0
vn 1 0 0
vn 1 0 0
vn 1 0 0
vn 1 0 0
vn 1 0 0
vn -1 0 4.7683716E-07
vn -1 0 4.7683716E-07
vn -1 0 4.7683716E-07
vn -1 2.6226044E-06 7.748604E-07
vn -0 1 2.3841858E-06
vn -0 1 2.3841858E-06
vn -0 1 2.3841858E-06
vn -0 1 2.3841858E-06
vn -0 1 2.3245811E-06
vn -0 1 2.3245811E-06
vn -0 1 2.3245811E-06
vn -0 1 2.3245811E-06
vn -0 1 2.3245811E-06
vn -0 1 2.3245811E-06
vn -0 1 2.3245811E-06
vn -0 1 2.3245811E-06
vn -0 1 2.503395E-06
vn -0 1 2.503395E-06
vn -0 1 2.503395E-06
vn -0 1 2.503395E-06
vn -0 1 2.503395E-06
vn -0 1 2.503395E-06
vn -0 1 2.503395E-06
vn -0 1 2.503395E-06
vn -0 1 2.3841858E-06
vn -0 1 2.3841858E-06
vn -0 1 2.3841858E-06
vn -0 1 2.3841858E-06
vn -0 -2.002716E-05 -1
vn -0 -2.002716E-05 -1
vn -0 -2.002716E-05 -1
vn -0 0 -1
vn -0 0 -1
vn -0 2.3841858E-07 -1
vn -0 0 -1
vn -0 -1.3709068E-05 -1
vn -0 -1.3709068E-05 -1
vn 7.1525574E-07 -1.3828278E-05 -1
vn 7.1525574E-07 -1.3828278E-05 -1
vn -0 -1.4066696E-05 -1
vn -0 2.3841858E-07 -1
vn -0 2.3841858E-07 -1
vn -0 2.3841858E-07 -1
vn -0 0 -1
vn -1.1920929E-07 7.748604E-07 -1
vn -0 7.1525574E-07 -1
vn -0 7.1525574E-07 -1
vn -0 0 -1
vn -4.172325E-07 0 -1
vn -4.172325E-07 0 -1
vn -0 2.3841858E-07 -1
vn -4.172325E-07 0 -1
vn -0 0 -1
vn -9.536743E-07 0 -1
vn -9.536743E-07 0 -1
vn -0 0 -1
vn -0 0 -1
vn -0 0 -1
vn -0 0 -1
vn -0 0 -1
vn -0 0 -1
vn -0 0 -1
vn -0 1.4305115E-06 -1
vn 2.3841858E-07 2.9206276E-06 -1
vn 8.940697E-07 2.2053719E-06 -1
vn 8.940697E-07 2.2053719E-06 -1
vn -0 2.8014183E-06 -1
vn -0 2.8014183E-06 -1
vn -1 -0.00030970573 0
vn -1 -0.00030970573 0
vn -1 -0.00030970573 0
vn -1 -0.00030970573 0
vn -1 -0.0005979538 0
vn -1 -0.0005979538 0
vn -1 -0.0005979538 0
vn -1 -0.0005979538 0
vn -0 1 2.4437904E-06
vn -0 1 2.4437904E-06
vn -0 1 2.4437904E-06
vn -0 1 2.4437904E-06
vn -1 1.0788441E-05 0
vn -1 1.0788441E-05 0
vn -1 1.0788441E-05 0
vn -1 1.0788441E-05 0
vn 4.9114227E-05 1 2.4437904E-06
vn 4.9114227E-05 1 2.4437904E-06
vn 4.9114227E-05 1 2.4437904E-06
vn 4.8935413E-05 1 2.4437904E-06
vn -1 -2.1576881E-05 0
vn -1 -2.1576881E-05 0
vn -1 -2.1576881E-05 0
vn -1 -2.1576881E-05 0
vn -7.1525574E-06 1 1.6093254E-06
vn -7.1525574E-06 1 1.6093254E-06
vn -7.1525574E-06 1 1.6093254E-06
vn -0 1 2.503395E-06
vn -1 -3.516674E-06 0
vn -1 -3.516674E-06 0
vn -1 -3.516674E-06 0
vn -1 -3.516674E-06 0
vn 2.7179718E-05 1 2.4437904E-06
vn 2.7179718E-05 1 2.4437904E-06
vn 2.7179718E-05 1 2.4437904E-06
vn 2.7179718E-05 1 2.4437904E-06
vn -0 1 2.4437904E-06
vn -0 1 2.4437904E-06
vn -0 1 2.4437904E-06
vn -0 1 2.4437904E-06
vn -1 0.000108361244 0
vn -1 0.000108361244 0
vn -1 0.000108361244 0
vn -1 0.000108361244 0
vn 7.7188015E-05 1 2.4437904E-06
vn 7.7188015E-05 1 2.4437904E-06
vn 7.7188015E-05 1 2.4437904E-06
vn 7.7188015E-05 1 2.4437904E-06
vn -0 9.894371E-06 1
vn -0 9.894371E-06 1
vn -0 9.894371E-06 1
vn -0 0 1
vn -0 0 1
vn -0 0 1
vn -0 0 1
vn -6.41346E-05 4.053116E-05 1
vn -6.41346E-05 4.053116E-05 1
vn -0 7.390976E-06 1
vn -0 7.390976E-06 1
vn -0 7.748604E-06 1
vn -0 -2.3841858E-07 1
vn -0 0 1
vn -0 0 1
vn -0 0 1
vn -0 -4.7683716E-07 1
vn -0 -4.7683716E-07 1
vn -0 -4.7683716E-07 1
vn -0 0 1
vn 2.3841858E-07 0 1
vn 2.3841858E-07 0 1
vn -0 -2.3841858E-07 1
vn 2.3841858E-07 0 1
vn -8.833408E-05 -1.7642975E-05 1
vn 9.536743E-07 0 1
vn 9.536743E-07 0 1
vn -0.00028443336 0 1
vn -8.833408E-05 -1.7642975E-05 1
vn -0 0 1
vn -0 -0.0007185936 1
vn -0 -0.0007185936 1
vn -0 0 1
vn -0 0 1
vn 2.3841858E-07 -2.9206276E-06 1
vn 2.3841858E-07 -2.9206276E-06 1
vn -0 -2.8014183E-06 1
vn -9.536743E-07 -2.2053719E-06 1
vn -0 -2.8014183E-06 1
vn -0 -2.8014183E-06 1
vn -0 1 2.3841858E-06
vn -0 1 2.3841858E-06
vn -0 1 2.3841858E-06
vn -0 1 2.3841858E-06
vn -0 1 2.3841858E-06
vn -0 1 2.3841858E-06
vn -0 1 2.3841858E-06
vn -0 1 2.3841858E-06
vn 1 0 -2.3841858E-07
vn 1 0 -2.3841858E-07
vn 1 0 -2.3841858E-07
vn 1 0 -2.3841858E-07
vn -1 0 6.556511E-07
vn -1 0 6.556511E-07
vn -1 0 6.556511E-07
vn -1 0 6.556511E-07
vn -0 1 2.3841858E-06
vn -0 1 2.3841858E-06
vn -0 1 2.3841858E-06
vn -0 1 2.3245811E-06
vn -0 1 2.3245811E-06
vn -0 1 2.3245811E-06
vn -0 1 2.3245811E-06
vn -8.940697E-07 1 2.3841858E-06
vn -1 0 5.364418E-07
vn -1 0 5.364418E-07
vn -1 0 5.364418E-07
vn -1 0 5.364418E-07
vn 1 0.0030574799 0
vn 1 0.0030574799 0
vn 1 0.0030574799 0
vn 1 0 -0.0001231432
g Rocks_Medium_008_0
f 3/3/3 2/2/2 1/1/1
f 2/2/2 3/3/3 4/4/4
f 7/7/7 6/6/6 5/5/5
f 6/6/6 7/7/7 8/8/8
f 11/11/11 10/10/10 9/9/9
f 10/10/10 11/11/11 12/12/12
f 15/15/15 14/14/14 13/13/13
f 14/14/14 15/15/15 16/16/16
f 19/19/19 18/18/18 17/17/17
f 18/18/18 19/19/19 20/20/20
f 23/23/23 22/22/22 21/21/21
f 22/22/22 23/23/23 24/24/24
f 27/27/27 26/26/26 25/25/25
f 26/26/26 27/27/27 28/28/28
f 31/31/31 30/30/30 29/29/29
f 30/30/30 31/31/31 32/32/32
f 35/35/35 34/34/34 33/33/33
f 34/34/34 35/35/35 36/36/36
f 39/39/39 38/38/38 37/37/37
f 38/38/38 39/39/39 40/40/40
f 43/43/43 42/42/42 41/41/41
f 42/42/42 43/43/43 44/44/44
f 47/47/47 46/46/46 45/45/45
f 46/46/46 47/47/47 48/48/48
f 51/51/51 50/50/50 49/49/49
f 50/50/50 51/51/51 52/52/52
f 55/55/55 54/54/54 53/53/53
f 56/56/56 54/54/54 55/55/55
f 59/59/59 58/58/58 57/57/57
f 58/58/58 59/59/59 60/60/60
f 63/63/63 62/62/62 61/61/61
f 62/62/62 63/63/63 64/64/64
f 67/67/67 66/66/66 65/65/65
f 66/66/66 67/67/67 68/68/68
f 71/71/71 70/70/70 69/69/69
f 70/70/70 71/71/71 72/72/72
f 75/75/75 74/74/74 73/73/73
f 74/74/74 75/75/75 76/76/76
f 79/79/79 78/78/78 77/77/77
f 77/77/77 78/78/78 80/80/80
f 81/81/81 77/77/77 80/80/80
f 82/82/82 80/80/80 78/78/78
f 80/80/80 82/82/82 83/83/83
f 78/78/78 84/84/84 82/82/82
f 82/82/82 84/84/84 85/85/85
f 85/85/85 84/84/84 86/86/86
f 84/84/84 87/87/87 86/86/86
f 88/88/88 85/85/85 86/86/86
f 85/85/85 89/89/89 82/82/82
f 82/82/82 89/89/89 90/90/90
f 91/91/91 82/82/82 90/90/90
f 92/92/92 90/90/90 89/89/89
f 89/89/89 85/85/85 93/93/93
f 93/93/93 85/85/85 94/94/94
f 85/85/85 95/95/95 94/94/94
f 96/96/96 93/93/93 94/94/94
f 89/89/89 93/93/93 97/97/97
f 98/98/98 89/89/89 97/97/97
f 89/89/89 98/98/98 99/99/99
f 98/98/98 97/97/97 100/100/100
f 97/97/97 93/93/93 101/101/101
f 101/101/101 93/93/93 102/102/102
f 93/93/93 103/103/103 102/102/102
f 104/104/104 101/101/101 102/102/102
f 105/105/105 97/97/97 101/101/101
f 97/97/97 105/105/105 106/106/106
f 107/107/107 105/105/105 101/101/101
f 108/108/108 107/107/107 101/101/101
f 109/109/109 105/105/105 107/107/107
f 105/105/105 109/109/109 110/110/110
f 107/107/107 111/111/111 109/109/109
f 112/112/112 111/111/111 107/107/107
f 111/111/111 113/113/113 109/109/109
f 113/113/113 114/114/114 109/109/109
f 111/111/111 115/115/115 113/113/113
f 115/115/115 116/116/116 113/113/113
f 119/119/119 118/118/118 117/117/117
f 120/120/120 119/119/119 117/117/117
f 123/123/123 122/122/122 121/121/121
f 124/124/124 123/123/123 121/121/121
f 127/127/127 126/126/126 125/125/125
f 128/128/128 127/127/127 125/125/125
f 131/131/131 130/130/130 129/129/129
f 132/132/132 131/131/131 129/129/129
f 135/135/135 134/134/134 133/133/133
f 136/136/136 135/135/135 133/133/133
f 139/139/139 138/138/138 137/137/137
f 140/140/140 139/139/139 137/137/137
f 143/143/143 142/142/142 141/141/141
f 144/144/144 143/143/143 141/141/141
f 147/147/147 146/146/146 145/145/145
f 148/148/148 147/147/147 145/145/145
f 151/151/151 150/150/150 149/149/149
f 152/152/152 151/151/151 149/149/149
f 155/155/155 154/154/154 153/153/153
f 156/156/156 155/155/155 153/153/153
f 159/159/159 158/158/158 157/157/157
f 160/160/160 159/159/159 157/157/157
f 163/163/163 162/162/162 161/161/161
f 164/164/164 163/163/163 161/161/161
f 167/167/167 166/166/166 165/165/165
f 167/167/167 165/165/165 168/168/168
f 165/165/165 169/169/169 168/168/168
f 168/168/168 170/170/170 167/167/167
f 170/170/170 168/168/168 171/171/171
f 172/172/172 167/167/167 170/170/170
f 172/172/172 170/170/170 173/173/173
f 172/172/172 173/173/173 174/174/174
f 175/175/175 172/172/172 174/174/174
f 173/173/173 176/176/176 174/174/174
f 177/177/177 173/173/173 170/170/170
f 177/177/177 170/170/170 178/178/178
f 170/170/170 179/179/179 178/178/178
f 178/178/178 180/180/180 177/177/177
f 173/173/173 177/177/177 181/181/181
f 173/173/173 181/181/181 182/182/182
f 183/183/183 173/173/173 182/182/182
f 181/181/181 184/184/184 182/182/182
f 177/177/177 185/185/185 181/181/181
f 186/186/186 185/185/185 177/177/177
f 186/186/186 177/177/177 187/187/187
f 185/185/185 186/186/186 188/188/188
f 181/181/181 185/185/185 189/189/189
f 181/181/181 189/189/189 190/190/190
f 191/191/191 181/181/181 190/190/190
f 189/189/189 192/192/192 190/190/190
f 185/185/185 193/193/193 189/189/189
f 193/193/193 185/185/185 194/194/194
f 193/193/193 195/195/195 189/189/189
f 195/195/195 196/196/196 189/189/189
f 197/197/197 195/195/195 193/193/193
f 198/198/198 197/197/197 193/193/193
f 197/197/197 199/199/199 195/195/195
f 199/199/199 200/200/200 195/195/195
f 201/201/201 199/199/199 197/197/197
f 202/202/202 201/201/201 197/197/197
f 201/201/201 203/203/203 199/199/199
f 204/204/204 203/203/203 201/201/201
f 207/207/207 206/206/206 205/205/205
f 208/208/208 206/206/206 207/207/207
f 211/211/211 210/210/210 209/209/209
f 212/212/212 210/210/210 211/211/211
f 215/215/215 214/214/214 213/213/213
f 216/216/216 215/215/215 213/213/213
f 219/219/219 218/218/218 217/217/217
f 220/220/220 219/219/219 217/217/217
f 223/223/223 222/222/222 221/221/221
f 224/224/224 222/222/222 223/223/223
f 227/227/227 226/226/226 225/225/225
f 228/228/228 226/226/226 227/227/227
f 231/231/231 230/230/230 229/229/229
f 232/232/232 231/231/231 229/229/229
f 235/235/235 234/234/234 233/233/233
f 236/236/236 235/235/235 233/233/233
