g B001_BB01
v -18.606344 4.048651 14.054667
v -18.765388 3.8277307 14.657285
v -19.128366 3.8277354 14.241147
v 18.56496 4.048651 13.935632
v 19.159492 3.8277326 14.190896
v 18.952559 3.8277307 14.427312
v -18.615036 4.048674 -13.972395
v -19.16193 3.8277764 -14.227663
v -18.954998 3.8277812 -14.464079
v 18.506044 4.048675 -14.091433
v 18.862997 3.82778 -14.585419
v 19.099413 3.8277752 -14.378492
v -18.850704 3.0234947 14.770327
v -19.323542 3.0234966 14.356464
v -18.765388 3.8277307 14.657285
v -19.128366 3.8277354 14.241147
v -18.765388 3.8277307 14.657285
v -19.323542 3.0234966 14.356464
v 18.952559 3.8277307 14.427312
v -18.765388 3.8277307 14.657285
v 18.56496 4.048651 13.935632
v -18.606344 4.048651 14.054667
v 18.56496 4.048651 13.935632
v -18.765388 3.8277307 14.657285
v 18.967314 3.1973352 14.648987
v -18.850704 3.0234947 14.770327
v 18.952559 3.8277307 14.427312
v -18.765388 3.8277307 14.657285
v 18.952559 3.8277307 14.427312
v -18.850704 3.0234947 14.770327
v -19.323542 3.0234966 14.356464
v -19.38359 3.1973865 -14.212916
v -19.128366 3.8277354 14.241147
v -19.16193 3.8277764 -14.227663
v -19.128366 3.8277354 14.241147
v -19.38359 3.1973865 -14.212916
v 19.381151 3.197337 14.176145
v 18.967314 3.1973352 14.648987
v 19.159492 3.8277326 14.190896
v 18.952559 3.8277307 14.427312
v -19.38359 3.1973865 -14.212916
v -18.969744 3.1973865 -14.685743
v -19.16193 3.8277764 -14.227663
v -18.954998 3.8277812 -14.464079
v 18.848242 3.1973865 -14.807086
v 19.321074 3.197385 -14.393233
v 18.862997 3.82778 -14.585419
v 19.099413 3.8277752 -14.378492
v 19.099413 3.8277752 -14.378492
v 19.159492 3.8277326 14.190896
v 18.506044 4.048675 -14.091433
v 18.56496 4.048651 13.935632
v -18.954998 3.8277812 -14.464079
v 18.862997 3.82778 -14.585419
v -18.615036 4.048674 -13.972395
v 18.506044 4.048675 -14.091433
v -19.128366 3.8277354 14.241147
v -19.16193 3.8277764 -14.227663
v -18.606344 4.048651 14.054667
v -18.615036 4.048674 -13.972395
v 19.321074 3.197385 -14.393233
v 19.381151 3.197337 14.176145
v 19.099413 3.8277752 -14.378492
v 19.159492 3.8277326 14.190896
v -18.969744 3.1973865 -14.685743
v 18.848242 3.1973865 -14.807086
v -18.954998 3.8277812 -14.464079
v 18.862997 3.82778 -14.585419
v -18.848234 -3.18578 14.807101
v -19.321081 -3.185777 14.393234
v -18.850704 3.0234947 14.770327
v -19.323542 3.0234966 14.356464
v -18.850704 3.0234947 14.770327
v -19.321081 -3.185777 14.393234
v -19.321081 -3.185777 14.393234
v -18.848234 -3.18578 14.807101
v -18.877722 -4.0486774 14.363743
v 19.383593 -3.185777 14.212914
v 18.940264 -4.0486774 14.242421
v 18.969746 -3.1857793 14.685761
v -18.969753 -3.1857152 -14.685763
v -19.38359 -3.1857183 -14.212936
v -18.94026 -4.0486164 -14.242428
v 18.848251 -3.1857152 -14.807104
v 18.877764 -4.0486155 -14.363768
v 19.321083 -3.1857183 -14.393259
v -18.850704 3.0234947 14.770327
v 18.967314 3.1973352 14.648987
v -18.848234 -3.18578 14.807101
v 18.969746 -3.1857793 14.685761
v 19.381151 3.197337 14.176145
v 19.321074 3.197385 -14.393233
v 19.383593 -3.185777 14.212914
v 19.321083 -3.1857183 -14.393259
v 18.848242 3.1973865 -14.807086
v -18.969744 3.1973865 -14.685743
v 18.848251 -3.1857152 -14.807104
v -18.969753 -3.1857152 -14.685763
v -19.38359 3.1973865 -14.212916
v -19.323542 3.0234966 14.356464
v -19.38359 -3.1857183 -14.212936
v -19.321081 -3.185777 14.393234
v 18.967314 3.1973352 14.648987
v 19.381151 3.197337 14.176145
v 18.969746 -3.1857793 14.685761
v 19.383593 -3.185777 14.212914
v 19.321074 3.197385 -14.393233
v 18.848242 3.1973865 -14.807086
v 19.321083 -3.1857183 -14.393259
v 18.848251 -3.1857152 -14.807104
v -18.969744 3.1973865 -14.685743
v -19.38359 3.1973865 -14.212916
v -18.969753 -3.1857152 -14.685763
v -19.38359 -3.1857183 -14.212936
v -18.94026 -4.0486164 -14.242428
v -19.38359 -3.1857183 -14.212936
v -18.877722 -4.0486774 14.363743
v -19.321081 -3.185777 14.393234
v 18.877764 -4.0486155 -14.363768
v 18.848251 -3.1857152 -14.807104
v -18.94026 -4.0486164 -14.242428
v -18.969753 -3.1857152 -14.685763
v 18.940264 -4.0486774 14.242421
v 19.383593 -3.185777 14.212914
v 18.877764 -4.0486155 -14.363768
v 19.321083 -3.1857183 -14.393259
v -18.877722 -4.0486774 14.363743
v -18.848234 -3.18578 14.807101
v 18.940264 -4.0486774 14.242421
v 18.969746 -3.1857793 14.685761
v 18.940264 -4.0486774 14.242421
v 18.877764 -4.0486155 -14.363768
v -18.877722 -4.0486774 14.363743
v -18.94026 -4.0486164 -14.242428
v -18.615036 4.048674 -13.972395
v 18.506044 4.048675 -14.091433
v -18.606344 4.048651 14.054667
v 18.56496 4.048651 13.935632
vt 0.027618408 0.9404297
vt 0.027618408 0.61035156
vt 0.027618408 0.61035156
vt 0.027618408 0.9404297
vt 0.027618408 0.61035156
vt 0.027618408 0.61035156
vt 0.027618408 0.9404297
vt 0.027618408 0.61035156
vt 0.027618408 0.61035156
vt 0.027618408 0.9404297
vt 0.027618408 0.61035156
vt 0.027618408 0.61035156
vt 0.027618408 0.006668091
vt 0.027618408 0.006668091
vt 0.027618408 0.61035156
vt 0.027618408 0.61035156
vt 0.027618408 0.61035156
vt 0.027618408 0.006668091
vt 0.027618408 0.61035156
vt 2.6855469 0.61035156
vt 0.027618408 0.9404297
vt 2.6855469 0.9404297
vt 0.027618408 0.9404297
vt 2.6855469 0.61035156
vt 0.027618408 0.006668091
vt 2.6855469 0.006668091
vt 0.027618408 0.61035156
vt 2.6855469 0.61035156
vt 0.027618408 0.61035156
vt 2.6855469 0.006668091
vt 0.027618408 0.006668091
vt 2.6933594 0.006668091
vt 0.027618408 0.61035156
vt 2.6933594 0.61035156
vt 0.027618408 0.61035156
vt 2.6933594 0.006668091
vt 0.027618408 0.006668091
vt 0.027618408 0.006668091
vt 0.027618408 0.61035156
vt 0.027618408 0.61035156
vt 0.027618408 0.006668091
vt 0.027618408 0.006668091
vt 0.027618408 0.61035156
vt 0.027618408 0.61035156
vt 0.027618408 0.006668091
vt 0.027618408 0.006668091
vt 0.027618408 0.61035156
vt 0.027618408 0.61035156
vt 0.027618408 0.61035156
vt 2.6933594 0.61035156
vt 0.027618408 0.9404297
vt 2.6933594 0.9404297
vt 0.027618408 0.61035156
vt 2.6855469 0.61035156
vt 0.027618408 0.9404297
vt 2.6855469 0.9404297
vt 0.027618408 0.61035156
vt 2.6933594 0.61035156
vt 0.027618408 0.9404297
vt 2.6933594 0.9404297
vt 0.027618408 0.006668091
vt 2.6933594 0.006668091
vt 0.027618408 0.61035156
vt 2.6933594 0.61035156
vt 0.027618408 0.006668091
vt 2.6855469 0.006668091
vt 0.027618408 0.61035156
vt 2.6855469 0.61035156
vt -14.5625 -14.7109375
vt -14.6171875 -14.71875
vt -14.578125 -14.1328125
vt -14.6328125 -14.1328125
vt -14.578125 -14.1328125
vt -14.6171875 -14.71875
vt -14.6171875 -14.71875
vt -14.5625 -14.7109375
vt -14.5625 -14.8046875
vt -10.96875 -14.6484375
vt -10.9921875 -14.734375
vt -11.015625 -14.6484375
vt -4.6992188 -14.6953125
vt -4.65625 -14.6953125
vt -4.6875 -14.7890625
vt -8.25 -14.6484375
vt -8.2734375 -14.734375
vt -8.2890625 -14.6484375
vt -14.578125 -14.1328125
vt -11.015625 -14.046875
vt -14.5625 -14.7109375
vt -11.015625 -14.6484375
vt -10.9609375 -14.046875
vt -8.2890625 -14.046875
vt -10.96875 -14.6484375
vt -8.2890625 -14.6484375
vt -8.234375 -14.046875
vt -4.6914062 -14.09375
vt -8.25 -14.6484375
vt -4.6992188 -14.6953125
vt -4.6445312 -14.09375
vt -1.9658203 -14.1171875
vt -4.65625 -14.6953125
vt -1.9658203 -14.6953125
vt -11.015625 -14.046875
vt -10.9609375 -14.046875
vt -11.015625 -14.6484375
vt -10.96875 -14.6484375
vt -8.2890625 -14.046875
vt -8.234375 -14.046875
vt -8.2890625 -14.6484375
vt -8.25 -14.6484375
vt -4.6914062 -14.09375
vt -4.6445312 -14.09375
vt -4.6992188 -14.6953125
vt -4.65625 -14.6953125
vt -4.6875 -14.7890625
vt -4.65625 -14.6953125
vt -1.9755859 -14.7890625
vt -1.9658203 -14.6953125
vt -8.2734375 -14.734375
vt -8.25 -14.6484375
vt -4.6875 -14.7890625
vt -4.6992188 -14.6953125
vt -10.9921875 -14.734375
vt -10.96875 -14.6484375
vt -8.2734375 -14.734375
vt -8.2890625 -14.6484375
vt -14.5625 -14.8046875
vt -14.5625 -14.7109375
vt -10.9921875 -14.734375
vt -11.015625 -14.6484375
vt 14.1953125 -12.25
vt 14.1875 -14.9453125
vt 10.640625 -12.2421875
vt 10.6328125 -14.9296875
vt 6.640625 15.375
vt 6.6289062 18.875
vt 9.2734375 15.375
vt 9.265625 18.875
vn -0.29663086 0.9194336 0.25878906
vn -0.29663086 0.9194336 0.25878906
vn -0.29663086 0.9194336 0.25878906
vn 0.2541504 0.94140625 0.22253418
vn 0.2541504 0.94140625 0.22253418
vn 0.2541504 0.94140625 0.22253418
vn -0.2680664 0.9345703 -0.23449707
vn -0.2680664 0.9345703 -0.23449707
vn -0.2680664 0.9345703 -0.23449707
vn 0.2253418 0.9394531 -0.25732422
vn 0.2253418 0.9394531 -0.25732422
vn 0.2253418 0.9394531 -0.25732422
vn -0.6489258 0.17297363 0.74121094
vn -0.6489258 0.17297363 0.74121094
vn -0.6489258 0.17297363 0.74121094
vn -0.7260742 0.26708984 0.6333008
vn -0.7260742 0.26708984 0.6333008
vn -0.7260742 0.26708984 0.6333008
vn 0.00248909 0.91308594 0.40820312
vn 0.00248909 0.91308594 0.40820312
vn 0.00248909 0.91308594 0.40820312
vn 0.0011034012 0.93896484 0.34448242
vn 0.0011034012 0.93896484 0.34448242
vn 0.0011034012 0.93896484 0.34448242
vn 0.001502037 0.3317871 0.9433594
vn 0.001502037 0.3317871 0.9433594
vn 0.001502037 0.3317871 0.9433594
vn 0.006038666 0.1385498 0.9902344
vn 0.006038666 0.1385498 0.9902344
vn 0.006038666 0.1385498 0.9902344
vn -0.9716797 0.23632812 0.0034809113
vn -0.9716797 0.23632812 0.0034809113
vn -0.9716797 0.23632812 0.0034809113
vn -0.9433594 0.3317871 0.0011129379
vn -0.9433594 0.3317871 0.0011129379
vn -0.9433594 0.3317871 0.0011129379
vn 0.72998047 0.24182129 0.63916016
vn 0.72998047 0.24182129 0.63916016
vn 0.72998047 0.24182129 0.63916016
vn 0.72998047 0.24182129 0.63916016
vn -0.72998047 0.24182129 -0.63916016
vn -0.72998047 0.24182129 -0.63916016
vn -0.72998047 0.24182129 -0.63916016
vn -0.72998047 0.24182129 -0.63916016
vn 0.63916016 0.24182129 -0.72998047
vn 0.63916016 0.24182129 -0.72998047
vn 0.63916016 0.24182129 -0.72998047
vn 0.63916016 0.24182129 -0.72998047
vn 0.3486328 0.9375 -0.0007314682
vn 0.3486328 0.9375 -0.0007314682
vn 0.3486328 0.9375 -0.0007314682
vn 0.3486328 0.9375 -0.00073194504
vn -0.0013122559 0.91259766 -0.40893555
vn -0.0013122559 0.91259766 -0.40893555
vn -0.0013122559 0.91259766 -0.40893555
vn -0.0013113022 0.91259766 -0.40893555
vn -0.38964844 0.92089844 0.0004606247
vn -0.38964844 0.92089844 0.0004606247
vn -0.38964844 0.92089844 0.0004606247
vn -0.37451172 0.9272461 0.00011694431
vn 0.9433594 0.3317871 -0.0019836426
vn 0.9433594 0.3317871 -0.0019836426
vn 0.9433594 0.3317871 -0.0019836426
vn 0.9433594 0.3317871 -0.0019836426
vn -0.0030269623 0.3317871 -0.9433594
vn -0.0030269623 0.3317871 -0.9433594
vn -0.0030269623 0.3317871 -0.9433594
vn -0.0030269623 0.3317871 -0.9433594
vn -0.6586914 0.004196167 0.7524414
vn -0.6586914 0.004196167 0.7524414
vn -0.6586914 0.004196167 0.7524414
vn -0.6586914 0.004196167 0.7524414
vn -0.6586914 0.004196167 0.7524414
vn -0.6586914 0.004196167 0.7524414
vn -0.61865234 -0.34204102 0.70703125
vn -0.61865234 -0.34204102 0.70703125
vn -0.61865234 -0.34204102 0.70703125
vn 0.70703125 -0.34204102 0.61865234
vn 0.70703125 -0.34204102 0.61865234
vn 0.70703125 -0.34204102 0.61865234
vn -0.70703125 -0.34204102 -0.61865234
vn -0.70703125 -0.34204102 -0.61865234
vn -0.70703125 -0.34204102 -0.61865234
vn 0.61865234 -0.34204102 -0.70703125
vn 0.61865234 -0.34204102 -0.70703125
vn 0.61865234 -0.34204102 -0.70703125
vn 0.0031814575 0.005924225 1
vn 0.0031814575 0.005924225 1
vn 0.0031814575 0.005924225 1
vn 0.0032081604 0.0057640076 1
vn 1 0.00037026405 -0.0021038055
vn 1 0.00037026405 -0.0021038055
vn 1 0.00037026405 -0.0021038055
vn 1 1.5497208E-06 -0.0021858215
vn -0.0032081604 2.861023E-06 -1
vn -0.0032081604 2.861023E-06 -1
vn -0.0032081604 2.861023E-06 -1
vn -0.0032081604 3.2782555E-06 -1
vn -1 0 0.0021018982
vn -1 0 0.0021018982
vn -1 0 0.0021018982
vn -1 -0.00038337708 0.0021858215
vn 0.7524414 0.004081726 0.6586914
vn 0.7524414 0.004081726 0.6586914
vn 0.7524414 0.004081726 0.6586914
vn 0.7524414 0.004081726 0.6586914
vn 0.6586914 4.053116E-06 -0.7524414
vn 0.6586914 4.053116E-06 -0.7524414
vn 0.6586914 4.053116E-06 -0.7524414
vn 0.6586914 3.1590462E-06 -0.7524414
vn -0.7524414 3.2782555E-06 -0.6586914
vn -0.7524414 3.2782555E-06 -0.6586914
vn -0.7524414 3.2782555E-06 -0.6586914
vn -0.7524414 2.1457672E-06 -0.6586914
vn -0.88964844 -0.45703125 0.0019435883
vn -0.88964844 -0.45703125 0.0019435883
vn -0.88964844 -0.45703125 0.0019435883
vn -0.88964844 -0.45703125 0.0019426346
vn -0.0028533936 -0.45703125 -0.88964844
vn -0.0028533936 -0.45703125 -0.88964844
vn -0.0028533936 -0.45703125 -0.88964844
vn -0.0028533936 -0.45703125 -0.88964844
vn 0.88964844 -0.45703125 -0.0019445419
vn 0.88964844 -0.45703125 -0.0019445419
vn 0.88964844 -0.45703125 -0.0019445419
vn 0.88964844 -0.45703125 -0.0019445419
vn 0.0028533936 -0.45703125 0.88964844
vn 0.0028533936 -0.45703125 0.88964844
vn 0.0028533936 -0.45703125 0.88964844
vn 0.0028533936 -0.45703125 0.88964844
vn -0 -1 -2.1457672E-06
vn -0 -1 -2.1457672E-06
vn -0 -1 -2.1457672E-06
vn -0 -1 -2.1457672E-06
vn -0 1 8.34465E-07
vn -0 1 8.34465E-07
vn -0 1 8.34465E-07
vn -0 1 8.34465E-07
g B001_BB01_0
f 3/3/3 2/2/2 1/1/1
f 6/6/6 5/5/5 4/4/4
f 9/9/9 8/8/8 7/7/7
f 12/12/12 11/11/11 10/10/10
f 15/15/15 14/14/14 13/13/13
f 18/18/18 17/17/17 16/16/16
f 21/21/21 20/20/20 19/19/19
f 24/24/24 23/23/23 22/22/22
f 27/27/27 26/26/26 25/25/25
f 30/30/30 29/29/29 28/28/28
f 33/33/33 32/32/32 31/31/31
f 36/36/36 35/35/35 34/34/34
f 39/39/39 38/38/38 37/37/37
f 38/38/38 39/39/39 40/40/40
f 43/43/43 42/42/42 41/41/41
f 42/42/42 43/43/43 44/44/44
f 47/47/47 46/46/46 45/45/45
f 46/46/46 47/47/47 48/48/48
f 51/51/51 50/50/50 49/49/49
f 50/50/50 51/51/51 52/52/52
f 55/55/55 54/54/54 53/53/53
f 54/54/54 55/55/55 56/56/56
f 59/59/59 58/58/58 57/57/57
f 58/58/58 59/59/59 60/60/60
f 63/63/63 62/62/62 61/61/61
f 62/62/62 63/63/63 64/64/64
f 67/67/67 66/66/66 65/65/65
f 66/66/66 67/67/67 68/68/68
g B001_BB01_1
f 71/71/71 70/70/70 69/69/69
f 74/74/74 73/73/73 72/72/72
f 77/77/77 76/76/76 75/75/75
f 80/80/80 79/79/79 78/78/78
f 83/83/83 82/82/82 81/81/81
f 86/86/86 85/85/85 84/84/84
f 89/89/89 88/88/88 87/87/87
f 88/88/88 89/89/89 90/90/90
f 93/93/93 92/92/92 91/91/91
f 92/92/92 93/93/93 94/94/94
f 97/97/97 96/96/96 95/95/95
f 96/96/96 97/97/97 98/98/98
f 101/101/101 100/100/100 99/99/99
f 100/100/100 101/101/101 102/102/102
f 105/105/105 104/104/104 103/103/103
f 104/104/104 105/105/105 106/106/106
f 109/109/109 108/108/108 107/107/107
f 108/108/108 109/109/109 110/110/110
f 113/113/113 112/112/112 111/111/111
f 112/112/112 113/113/113 114/114/114
f 117/117/117 116/116/116 115/115/115
f 116/116/116 117/117/117 118/118/118
f 121/121/121 120/120/120 119/119/119
f 120/120/120 121/121/121 122/122/122
f 125/125/125 124/124/124 123/123/123
f 124/124/124 125/125/125 126/126/126
f 129/129/129 128/128/128 127/127/127
f 128/128/128 129/129/129 130/130/130
g B001_BB01_2
f 133/133/133 132/132/132 131/131/131
f 132/132/132 133/133/133 134/134/134
g B001_BB01_3
f 137/137/137 136/136/136 135/135/135
f 136/136/136 137/137/137 138/138/138
