g B001_OctopusCover01_01
v 0.041402627 -0.044245258 0.65612113
v 0.047071762 0.5577215 0.4130534
v -0.12853485 0.2902161 0.9769631
v 0.24430877 0.5389923 0.5561175
v 0.235046 -0.111603096 0.7159035
v 0.06870189 0.2882405 1.159252
v 0.041402627 -0.044245258 0.65612113
v 0.13526435 0.3177834 0.09185135
v 0.047071762 0.5577215 0.4130534
v 0.047071762 0.5577215 0.4130534
v 0.13526435 0.3177834 0.09185135
v 0.191091 0.53310907 -0.24376218
v 0.060025044 -0.22657037 0.12283407
v 0.08243532 -0.22279033 -0.10450235
v 0.12770995 -0.029291913 -0.22487022
v -0.02685646 -0.62166655 0.14910953
v 0.0257835 -0.3263729 0.29873642
v 0.041402627 -0.044245258 0.65612113
v 0.060025044 -0.22657037 0.12283407
v 0.13526435 0.3177834 0.09185135
v 0.13526435 0.3177834 0.09185135
v 0.12770995 -0.029291913 -0.22487022
v 0.1621717 0.22906095 -0.23169708
v 0.1621717 0.22906095 -0.23169708
v 0.191091 0.53310907 -0.24376218
v 0.13526435 0.3177834 0.09185135
v 0.047071762 0.5577215 0.4130534
v 0.191091 0.53310907 -0.24376218
v 0.21615253 1.1970495 -0.31283754
v 0.28108677 -0.22484326 -0.09359308
v 0.26037964 -0.2573509 0.14056371
v 0.32149252 -0.05765582 -0.19103064
v 0.235046 -0.111603096 0.7159035
v 0.26037964 -0.2573509 0.14056371
v 0.2158335 -0.40291163 0.38226783
v 0.26037964 -0.2573509 0.14056371
v 0.16321869 -0.70097023 0.23075493
v 0.2158335 -0.40291163 0.38226783
v 0.21615253 1.1970495 -0.31283754
v 0.41338974 1.2438296 -0.24867494
v 0.24430877 0.5389923 0.5561175
v 0.047071762 0.5577215 0.4130534
v 0.06870189 0.2882405 1.159252
v 0.235046 -0.111603096 0.7159035
v 0.041402627 -0.044245258 0.65612113
v -0.12853485 0.2902161 0.9769631
v 0.27297816 0.8489514 -0.73604447
v 0.30959877 0.50085235 -1.1592517
v 0.4996485 0.524494 -1.1576927
v 0.4666217 0.8841624 -0.70318395
v 0.4996485 0.524494 -1.1576927
v 0.41015965 0.44536322 -0.54655266
v 0.4666217 0.8841624 -0.70318395
v 0.38545486 0.53514844 -0.20579642
v -0.02685646 -0.62166655 0.14910953
v 0.0257835 -0.3263729 0.29873642
v 0.2158335 -0.40291163 0.38226783
v 0.16321869 -0.70097023 0.23075493
v 0.047071762 0.5577215 0.4130534
v 0.24430877 0.5389923 0.5561175
v 0.06870189 0.2882405 1.159252
v -0.12853485 0.2902161 0.9769631
v 0.041402627 -0.044245258 0.65612113
v 0.235046 -0.111603096 0.7159035
v 0.2158335 -0.40291163 0.38226783
v 0.0257835 -0.3263729 0.29873642
v 0.21615253 1.1970495 -0.31283754
v 0.27297816 0.8489514 -0.73604447
v 0.4666217 0.8841624 -0.70318395
v 0.41338974 1.2438296 -0.24867494
v 0.3325952 0.30785418 0.11812581
v 0.235046 -0.111603096 0.7159035
v 0.24430877 0.5389923 0.5561175
v 0.38545486 0.53514844 -0.20579642
v 0.4666217 0.8841624 -0.70318395
v 0.41338974 1.2438296 -0.24867494
v 0.34403202 1.3480308 -0.69197744
v 0.35963085 1.3914533 -0.66198903
v 0.35215464 1.0595793 -0.39722148
v 0.3365554 1.016157 -0.42720997
v 0.40570864 1.3334602 -0.7029605
v 0.34403202 1.3480308 -0.69197744
v 0.3365554 1.016157 -0.42720997
v 0.3982321 1.0015857 -0.4381938
v 0.42130837 1.376882 -0.6729731
v 0.40570864 1.3334602 -0.7029605
v 0.3982321 1.0015857 -0.4381938
v 0.41383186 1.0450075 -0.40820518
v 0.35963085 1.3914533 -0.66198903
v 0.42130837 1.376882 -0.6729731
v 0.41383186 1.0450075 -0.40820518
v 0.35215464 1.0595793 -0.39722148
v 0.42130837 1.376882 -0.6729731
v 0.35963085 1.3914533 -0.66198903
v 0.34403202 1.3480308 -0.69197744
v 0.40570864 1.3334602 -0.7029605
v 0.35328346 1.0849897 -0.6998207
v 0.35755852 1.1335647 -0.6743195
v 0.33811492 0.97848225 -0.47252315
v 0.33383948 0.92990714 -0.49802443
v 0.41735473 1.0793488 -0.6998164
v 0.35328346 1.0849897 -0.6998207
v 0.33383948 0.92990714 -0.49802443
v 0.39791092 0.9242656 -0.49802023
v 0.42163092 1.1279233 -0.6743157
v 0.41735473 1.0793488 -0.6998164
v 0.39791092 0.9242656 -0.49802023
v 0.40218696 0.9728405 -0.4725188
v 0.35755852 1.1335647 -0.6743195
v 0.42163092 1.1279233 -0.6743157
v 0.40218696 0.9728405 -0.4725188
v 0.33811492 0.97848225 -0.47252315
v 0.42163092 1.1279233 -0.6743157
v 0.35755852 1.1335647 -0.6743195
v 0.35328346 1.0849897 -0.6998207
v 0.41735473 1.0793488 -0.6998164
v -0.0084050745 0.7618316 0.90460676
v 0.0040930556 0.82366514 0.84093
v 0.2387184 0.2268215 0.5818906
v 0.22622055 0.1649879 0.6455676
v -0.1010963 0.7371665 0.8624614
v -0.0084050745 0.7618316 0.90460676
v 0.22622055 0.1649879 0.6455676
v 0.13352866 0.14032197 0.603423
v -0.08860016 0.79899883 0.7987849
v -0.1010963 0.7371665 0.8624614
v 0.13352866 0.14032197 0.603423
v 0.14602585 0.20215406 0.53974545
v 0.0040930556 0.82366514 0.84093
v -0.08860016 0.79899883 0.7987849
v 0.14602585 0.20215406 0.53974545
v 0.2387184 0.2268215 0.5818906
v -0.08860016 0.79899883 0.7987849
v 0.0040930556 0.82366514 0.84093
v -0.0084050745 0.7618316 0.90460676
v -0.1010963 0.7371665 0.8624614
v -0.36315808 -1.391453 0.6649381
v -0.40236235 -1.3452202 0.7423313
v -0.15783215 -1.0064428 0.44630188
v -0.11862772 -1.0193007 0.3570726
v -0.36315808 -1.391453 0.6649381
v -0.11862772 -1.0193007 0.3570726
v -0.21591441 -0.98164546 0.30890304
v -0.46044478 -1.3752551 0.60598195
v -0.46044478 -1.3752551 0.60598195
v -0.21591441 -0.98164546 0.30890304
v -0.25511992 -0.9687871 0.39813003
v -0.49965033 -1.3290232 0.68337286
v -0.40236235 -1.3452202 0.7423313
v -0.49965033 -1.3290232 0.68337286
v -0.25511992 -0.9687871 0.39813003
v -0.15783215 -1.0064428 0.44630188
v -0.49965033 -1.3290232 0.68337286
v -0.40236235 -1.3452202 0.7423313
v -0.36315808 -1.391453 0.6649381
v -0.46044478 -1.3752551 0.60598195
v 0.10373558 -0.5235614 0.72142285
v 0.068266444 -0.52802086 0.80362
v 0.16431312 -0.12008655 0.53883827
v 0.19978257 -0.11562717 0.456641
v 0.010409241 -0.49593416 0.68265104
v 0.10373558 -0.5235614 0.72142285
v 0.19978257 -0.11562717 0.456641
v 0.10645622 -0.08799989 0.4178684
v 0.070986405 -0.09245826 0.5000646
v -0.02506073 -0.50039303 0.7648466
v 0.010409241 -0.49593416 0.68265104
v 0.10645622 -0.08799989 0.4178684
v 0.16431312 -0.12008655 0.53883827
v 0.068266444 -0.52802086 0.80362
v -0.02506073 -0.50039303 0.7648466
v 0.070986405 -0.09245826 0.5000646
v -0.11862772 -1.0193007 0.3570726
v -0.15783215 -1.0064428 0.44630188
v 0.068266444 -0.52802086 0.80362
v 0.10373558 -0.5235614 0.72142285
v 0.010409241 -0.49593416 0.68265104
v -0.21591441 -0.98164546 0.30890304
v -0.11862772 -1.0193007 0.3570726
v 0.10373558 -0.5235614 0.72142285
v -0.02506073 -0.50039303 0.7648466
v -0.25511992 -0.9687871 0.39813003
v -0.21591441 -0.98164546 0.30890304
v 0.010409241 -0.49593416 0.68265104
v -0.15783215 -1.0064428 0.44630188
v -0.25511992 -0.9687871 0.39813003
v -0.02506073 -0.50039303 0.7648466
v 0.068266444 -0.52802086 0.80362
v 0.27297816 0.8489514 -0.73604447
v 0.22907218 0.4298768 -0.5757189
v 0.30959877 0.50085235 -1.1592517
v 0.191091 0.53310907 -0.24376218
v 0.21615253 1.1970495 -0.31283754
v 0.3325952 0.30785418 0.11812581
v 0.35284418 0.23291215 -0.19826822
v 0.32149252 -0.05765582 -0.19103064
v 0.38545486 0.53514844 -0.20579642
v 0.3325952 0.30785418 0.11812581
v 0.32149252 -0.05765582 -0.19103064
v 0.26037964 -0.2573509 0.14056371
v 0.235046 -0.111603096 0.7159035
v 0.41015965 0.44536322 -0.54655266
v 0.4996485 0.524494 -1.1576927
v 0.30959877 0.50085235 -1.1592517
v 0.22907218 0.4298768 -0.5757189
v 0.41015965 0.44536322 -0.54655266
v 0.22907218 0.4298768 -0.5757189
v 0.191091 0.53310907 -0.24376218
v 0.38545486 0.53514844 -0.20579642
v 0.35284418 0.23291215 -0.19826822
v 0.38545486 0.53514844 -0.20579642
v 0.191091 0.53310907 -0.24376218
v 0.1621717 0.22906095 -0.23169708
v 0.32149252 -0.05765582 -0.19103064
v 0.12770995 -0.029291913 -0.22487022
v 0.28108677 -0.22484326 -0.09359308
v 0.32149252 -0.05765582 -0.19103064
v 0.12770995 -0.029291913 -0.22487022
v 0.08243532 -0.22279033 -0.10450235
v 0.08243532 -0.22279033 -0.10450235
v 0.060025044 -0.22657037 0.12283407
v 0.26037964 -0.2573509 0.14056371
v 0.28108677 -0.22484326 -0.09359308
v 0.26037964 -0.2573509 0.14056371
v 0.060025044 -0.22657037 0.12283407
v -0.02685646 -0.62166655 0.14910953
v 0.16321869 -0.70097023 0.23075493
vt 0.684204 0.7330391
vt 0.4922688 0.850025
vt 0.71024805 0.9020284
vt 0.49239206 0.8510824
vt 0.68333036 0.7337931
vt 0.71271825 0.9039224
vt 0.684204 0.7330391
vt 0.45130342 0.71363467
vt 0.4922688 0.850025
vt 0.4922688 0.850025
vt 0.45130342 0.71363467
vt 0.30937517 0.69505376
vt 0.57505584 0.5681491
vt 0.48783332 0.5253552
vt 0.42834935 0.5516136
vt 0.66202825 0.4639359
vt 0.64466846 0.5765143
vt 0.684204 0.7330391
vt 0.57505584 0.5681491
vt 0.45130342 0.71363467
vt 0.45130342 0.71363467
vt 0.42834935 0.5516136
vt 0.37014207 0.6240783
vt 0.37014207 0.6240783
vt 0.30937517 0.69505376
vt 0.45130342 0.71363467
vt 0.4922688 0.850025
vt 0.30937517 0.69505376
vt 0.1542966 0.8635953
vt 0.48715514 0.52557856
vt 0.5748255 0.5693714
vt 0.4294804 0.5503783
vt 0.68333036 0.7337931
vt 0.5748255 0.5693714
vt 0.6467798 0.5773044
vt 0.5748255 0.5693714
vt 0.6637715 0.46479285
vt 0.6467798 0.5773044
vt 0.1542966 0.8635953
vt 0.14816025 0.93500787
vt 0.51195055 0.93187934
vt 0.4922688 0.850025
vt 0.8000113 0.91026634
vt 0.7539288 0.70995754
vt 0.684204 0.7330391
vt 0.71024805 0.9020284
vt 0.10957864 0.68213004
vt 0.0628987 0.5044018
vt 0.00904178 0.50319916
vt 0.043795846 0.70710474
vt 0.06308312 0.50497717
vt 0.23647307 0.6008654
vt 0.11250569 0.682515
vt 0.309425 0.6947062
vt 0.66202825 0.4639359
vt 0.64466846 0.5765143
vt 0.72041655 0.57608944
vt 0.7352336 0.46423012
vt 0.4922688 0.850025
vt 0.51195055 0.93187934
vt 0.7292672 0.9455702
vt 0.71024805 0.9020284
vt 0.684204 0.7330391
vt 0.7539288 0.70995754
vt 0.72041655 0.57608944
vt 0.64466846 0.5765143
vt 0.1542966 0.8635953
vt 0.10957864 0.68213004
vt 0.043795846 0.70710474
vt 0.09429512 0.9010547
vt 0.4505413 0.7124892
vt 0.68333036 0.7337931
vt 0.49239206 0.8510824
vt 0.309425 0.6947062
vt 0.11250569 0.682515
vt 0.15527815 0.8676179
vt 0.79785246 0.46968856
vt 0.77710885 0.46968856
vt 0.77710885 0.6279645
vt 0.79785246 0.6279645
vt 0.81910485 0.46968856
vt 0.79785246 0.46968856
vt 0.79785246 0.6279645
vt 0.81910485 0.6279645
vt 0.8359768 0.46968856
vt 0.81910485 0.46968856
vt 0.81910485 0.6279645
vt 0.8359768 0.6279645
vt 0.77710885 0.46968856
vt 0.7553664 0.46968856
vt 0.7553664 0.6279645
vt 0.77710885 0.6279645
vt 0.81910485 0.45316067
vt 0.79785246 0.45316067
vt 0.79785246 0.46968856
vt 0.81910485 0.46968856
vt 0.82427347 0.31790698
vt 0.8055848 0.31790698
vt 0.8055848 0.4063256
vt 0.82427347 0.4063256
vt 0.84655964 0.31790698
vt 0.82427347 0.31790698
vt 0.82427347 0.4063256
vt 0.84655964 0.4063256
vt 0.865396 0.31790698
vt 0.84655964 0.31790698
vt 0.84655964 0.4063256
vt 0.865396 0.4063256
vt 0.8055848 0.31790698
vt 0.78332174 0.31790698
vt 0.78332174 0.4063256
vt 0.8055848 0.4063256
vt 0.84655964 0.30123934
vt 0.82427347 0.30123338
vt 0.82427347 0.31790698
vt 0.84655964 0.31790698
vt 0.9252307 0.03220866
vt 0.89521885 0.03220866
vt 0.89521885 0.2717846
vt 0.9252307 0.2717846
vt 0.9615186 0.03220866
vt 0.9252307 0.03220866
vt 0.9252307 0.2717846
vt 0.9615186 0.2717846
vt 0.99108326 0.03220866
vt 0.9615186 0.03220866
vt 0.9615186 0.2717846
vt 0.99108326 0.2717846
vt 0.89521885 0.03220866
vt 0.8590304 0.03220866
vt 0.8590304 0.2717846
vt 0.89521885 0.2717846
vt 0.9615186 0.005411019
vt 0.9252307 0.005411019
vt 0.9252307 0.03220866
vt 0.9615186 0.03220866
vt 0.8919574 0.41995215
vt 0.8585554 0.41995215
vt 0.8585554 0.6011176
vt 0.8919574 0.6011176
vt 0.8919574 0.41995215
vt 0.8919574 0.6011176
vt 0.9273552 0.6011176
vt 0.9273552 0.41995215
vt 0.9273552 0.41995215
vt 0.9273552 0.6011176
vt 0.9553532 0.6011176
vt 0.9553532 0.41995215
vt 0.9921093 0.41995215
vt 0.9553532 0.41995215
vt 0.9553532 0.6011176
vt 0.9921093 0.6011176
vt 0.9273552 0.38849816
vt 0.8919574 0.38849816
vt 0.8919574 0.41995215
vt 0.9273552 0.41995215
vt 0.8919574 0.8209835
vt 0.8585554 0.8209835
vt 0.8585554 0.98962903
vt 0.8919574 0.98962903
vt 0.9273552 0.8209835
vt 0.8919574 0.8209835
vt 0.8919574 0.98962903
vt 0.9273552 0.98962903
vt 0.9553532 0.98962903
vt 0.9553532 0.8209835
vt 0.9273552 0.8209835
vt 0.9273552 0.98962903
vt 0.9921093 0.98962903
vt 0.9921093 0.8209835
vt 0.9553532 0.8209835
vt 0.9553532 0.98962903
vt 0.8919574 0.6011176
vt 0.8585554 0.6011176
vt 0.8585554 0.8209835
vt 0.8919574 0.8209835
vt 0.9273552 0.8209835
vt 0.9273552 0.6011176
vt 0.8919574 0.6011176
vt 0.8919574 0.8209835
vt 0.9553532 0.8209835
vt 0.9553532 0.6011176
vt 0.9273552 0.6011176
vt 0.9273552 0.8209835
vt 0.9921093 0.6011176
vt 0.9553532 0.6011176
vt 0.9553532 0.8209835
vt 0.9921093 0.8209835
vt 0.10957864 0.68213004
vt 0.23684616 0.60125214
vt 0.0628987 0.5044018
vt 0.30937517 0.69505376
vt 0.1542966 0.8635953
vt 0.4505413 0.7124892
vt 0.37063426 0.6211219
vt 0.4294804 0.5503783
vt 0.309425 0.6947062
vt 0.4505413 0.7124892
vt 0.4294804 0.5503783
vt 0.5748255 0.5693714
vt 0.68333036 0.7337931
vt 0.3049468 0.9476396
vt 0.4044584 0.9476396
vt 0.4044584 0.9926866
vt 0.3049468 0.9926866
vt 0.3049468 0.9476396
vt 0.3049468 0.9926866
vt 0.24784864 0.9926866
vt 0.24784864 0.9476396
vt 0.19803913 0.9476396
vt 0.24784864 0.9476396
vt 0.24784864 0.9926866
vt 0.19803913 0.9926866
vt 0.15263398 0.9476396
vt 0.15263398 0.9926866
vt 0.1176824 0.9476396
vt 0.15263398 0.9476396
vt 0.15263398 0.9926866
vt 0.1176824 0.9926866
vt 0.1176824 0.9926866
vt 0.07954543 0.9926866
vt 0.07954543 0.9476396
vt 0.1176824 0.9476396
vt 0.07954543 0.9476396
vt 0.07954543 0.9926866
vt 0.008361258 0.9926866
vt 0.008361258 0.9476397
vn -0.92654186 -0.13331765 -0.3517763
vn -0.92654186 -0.13331765 -0.35177624
vn -0.92654186 -0.13331765 -0.3517763
vn 0.95130914 0.060677823 0.30220705
vn 0.95130914 0.060677823 0.30220705
vn 0.95130914 0.060677823 0.30220708
vn -0.97456384 -0.07595887 -0.21084513
vn -0.97456384 -0.07595888 -0.2108451
vn -0.97456384 -0.07595888 -0.21084513
vn -0.9745637 -0.07595876 -0.21084517
vn -0.9745637 -0.075958766 -0.21084519
vn -0.9745637 -0.07595877 -0.21084519
vn -0.9806342 0.17228071 -0.09314472
vn -0.9807734 0.17110828 -0.09383717
vn -0.9807734 0.17110825 -0.09383717
vn -0.97518945 0.20973296 -0.07083538
vn -0.9806342 0.17228073 -0.09314473
vn -0.9806342 0.17228074 -0.09314474
vn -0.984522 0.12934734 -0.11826095
vn -0.98804086 0.13203174 -0.07964267
vn -0.9848049 0.12826976 -0.11707333
vn -0.9848049 0.12826976 -0.11707332
vn -0.9848049 0.12826976 -0.11707333
vn -0.99018234 0.089934155 -0.10700827
vn -0.99018234 0.08993415 -0.10700826
vn -0.99018234 0.089934155 -0.107008256
vn -0.976577 0.014527806 -0.21467736
vn -0.976577 0.014527804 -0.21467738
vn -0.976577 0.014527806 -0.21467738
vn 0.977594 -0.20224364 0.058374193
vn 0.977594 -0.20224364 0.058374185
vn 0.977594 -0.20224366 0.058374185
vn 0.98332596 -0.16121635 0.08413834
vn 0.98332596 -0.16121636 0.08413835
vn 0.98332596 -0.16121635 0.08413834
vn 0.977594 -0.20224343 0.05837429
vn 0.977594 -0.20224345 0.058374297
vn 0.977594 -0.20224346 0.05837429
vn -0.3606002 0.73790336 0.5704964
vn -0.3606002 0.7379033 0.5704964
vn -0.3606002 0.7379033 0.57049644
vn -0.34554702 0.7426702 0.57361865
vn -0.4463202 -0.73525435 0.51009744
vn -0.4463202 -0.73525435 0.5100974
vn -0.4463202 -0.73525435 0.51009744
vn -0.4463202 -0.73525435 0.5100974
vn -0.062328793 0.7745065 -0.6294877
vn -0.062328793 0.7745065 -0.6294877
vn -0.0623288 0.7745065 -0.6294877
vn -0.06232879 0.77450645 -0.62948775
vn 0.98776394 -0.07912769 0.13439217
vn 0.98776394 -0.07912769 0.13439217
vn 0.98776394 -0.0791277 0.13439219
vn 0.99097997 -0.09311036 0.096379384
vn -0.48590806 -0.3254795 0.8111452
vn -0.4859081 -0.32547948 0.8111452
vn -0.48590812 -0.32547945 0.8111451
vn -0.4859081 -0.3254795 0.8111452
vn -0.22958142 0.91327816 0.33647475
vn -0.22958142 0.91327816 0.33647475
vn -0.22958145 0.91327816 0.33647475
vn -0.22958142 0.91327816 0.33647472
vn -0.46690926 -0.6688014 0.57853293
vn -0.46690926 -0.66880137 0.57853293
vn -0.46690926 -0.66880137 0.57853293
vn -0.46690932 -0.66880137 0.578533
vn -0.0072470554 0.7779788 -0.6282488
vn -0.0072470554 0.7779788 -0.6282489
vn -0.0072470554 0.7779788 -0.6282489
vn -0.0072470563 0.7779788 -0.6282489
vn 0.98508584 -0.007277407 0.17190912
vn 0.98508584 -0.0072774077 0.17190912
vn 0.98508584 -0.007277407 0.17190912
vn 0.98508584 -0.007277407 0.17190912
vn 0.98508584 -0.0072774077 0.17190912
vn 0.98508584 -0.007277407 0.17190911
vn -0.95677894 0.1942322 0.21644399
vn -0.95677894 0.19423218 0.21644396
vn -0.95677894 0.1942322 0.21644396
vn -0.95677894 0.19423221 0.216444
vn -0.27512345 -0.5957807 -0.7545545
vn -0.27512345 -0.5957806 -0.7545545
vn -0.27512342 -0.5957806 -0.7545545
vn -0.27512345 -0.5957807 -0.7545545
vn 0.9567741 -0.19424185 -0.21645637
vn 0.9567741 -0.19424182 -0.21645634
vn 0.9567741 -0.19424185 -0.21645635
vn 0.9567741 -0.19424185 -0.21645637
vn 0.27513093 0.59578025 0.7545521
vn 0.27513087 0.5957802 0.7545522
vn 0.2751309 0.59578025 0.7545521
vn 0.27513087 0.5957802 0.7545521
vn -0.011295504 0.5709753 -0.8208895
vn -0.011295505 0.57097536 -0.8208895
vn -0.011295505 0.5709754 -0.8208895
vn -0.011295504 0.5709754 -0.8208895
vn -0.99495304 0.09825578 -0.02035662
vn -0.9949529 0.098255776 -0.020356618
vn -0.9949529 0.098255776 -0.020356618
vn -0.99495304 0.09825578 -0.02035662
vn -0.069317505 -0.7877539 -0.61207753
vn -0.0693175 -0.78775394 -0.61207753
vn -0.0693175 -0.78775394 -0.61207753
vn -0.0693175 -0.78775394 -0.61207753
vn 0.99495184 -0.0982692 0.020346513
vn 0.99495184 -0.09826921 0.020346511
vn 0.99495184 -0.0982692 0.020346511
vn 0.99495184 -0.09826922 0.020346511
vn 0.0693237 0.78775424 0.61207634
vn 0.06932372 0.78775424 0.61207634
vn 0.0693237 0.78775424 0.61207634
vn 0.0693237 0.7877543 0.6120763
vn 0.040699493 0.46162543 -0.88614076
vn 0.04069949 0.46162543 -0.88614076
vn 0.040699493 0.46162543 -0.88614076
vn 0.04069949 0.46162543 -0.88614076
vn 0.9082377 0.19674917 0.36931545
vn 0.9082377 0.19674917 0.36931545
vn 0.9082377 0.19674917 0.36931545
vn 0.9082377 0.19674917 0.36931545
vn -0.25933224 -0.468492 0.8445484
vn -0.25933227 -0.46849206 0.8445484
vn -0.25933224 -0.468492 0.8445484
vn -0.25933224 -0.468492 0.8445484
vn -0.90824205 -0.19675727 -0.36930048
vn -0.90824217 -0.19675732 -0.3693005
vn -0.90824205 -0.19675729 -0.36930048
vn -0.90824205 -0.19675727 -0.36930048
vn 0.259324 0.46849108 -0.84455144
vn 0.259324 0.46849108 -0.84455144
vn 0.259324 0.46849102 -0.84455144
vn 0.259324 0.46849102 -0.84455144
vn -0.44475353 0.68460816 0.5774998
vn -0.44475353 0.68460816 0.5774998
vn -0.44475347 0.68460816 0.5774998
vn -0.44475347 0.6846081 0.5774998
vn 0.8604778 -0.19057086 0.47250482
vn 0.86047775 -0.19057086 0.47250482
vn 0.8604778 -0.19057086 0.47250482
vn 0.86047775 -0.19057086 0.47250482
vn 0.19842105 -0.68246114 -0.70347416
vn 0.19842105 -0.68246114 -0.70347416
vn 0.19842105 -0.68246114 -0.70347416
vn 0.19842102 -0.68246114 -0.7034741
vn -0.85982436 0.19250795 -0.47290888
vn -0.85982436 0.19250792 -0.47290885
vn -0.85982436 0.19250795 -0.47290888
vn -0.85982436 0.19250792 -0.47290888
vn -0.18475616 0.70157063 0.6882323
vn -0.18475616 0.70157063 0.6882323
vn -0.18475616 0.70157063 0.6882323
vn -0.18475617 0.7015707 0.6882323
vn -0.3522804 -0.871181 0.34196818
vn -0.3522804 -0.871181 0.34196818
vn -0.3522804 -0.871181 0.34196818
vn -0.35228047 -0.871181 0.34196818
vn 0.9164989 0.042406216 0.3977832
vn 0.9164989 0.04240622 0.39778322
vn 0.9164989 0.042406216 0.3977832
vn 0.9164989 0.04240622 0.39778322
vn 0.16870461 -0.5642825 -0.80816084
vn 0.1687046 -0.56428254 -0.8081608
vn 0.16870461 -0.5642825 -0.80816084
vn 0.16870461 -0.5642825 -0.80816084
vn -0.9164938 -0.04241449 -0.39779422
vn -0.9164938 -0.042414483 -0.3977942
vn -0.9164938 -0.042414486 -0.3977942
vn -0.9164938 -0.042414486 -0.3977942
vn -0.16870964 0.56428206 0.80816007
vn -0.16870962 0.56428206 0.80816007
vn -0.16870962 0.5642821 0.8081602
vn -0.1687096 0.56428206 0.80816007
vn 0.7281172 -0.5916276 0.34615326
vn 0.7281172 -0.59162766 0.34615326
vn 0.7281172 -0.5916276 0.34615323
vn 0.7281172 -0.5916276 0.34615326
vn 0.48758602 0.37133756 -0.79016984
vn 0.48758605 0.37133756 -0.79016984
vn 0.48758605 0.37133756 -0.79016984
vn 0.48758602 0.37133756 -0.79016984
vn -0.71648276 0.6080704 -0.3419107
vn -0.7164827 0.6080704 -0.34191066
vn -0.71648276 0.6080704 -0.3419107
vn -0.71648276 0.6080704 -0.3419107
vn -0.4874575 -0.3699552 0.79089713
vn -0.48745754 -0.36995518 0.79089725
vn -0.4874575 -0.36995518 0.79089713
vn -0.4874575 -0.36995518 0.79089713
vn -0.99003637 0.053968213 -0.13005918
vn -0.99003637 0.053968217 -0.1300592
vn -0.99003637 0.053968195 -0.13005921
vn -0.99003637 0.053968213 -0.13005918
vn -0.9883702 0.021647975 -0.15051831
vn 0.9905872 -0.10468548 0.08819296
vn 0.9905872 -0.10468549 0.08819297
vn 0.9905872 -0.10468548 0.08819296
vn 0.9905872 -0.10468554 0.088192984
vn 0.98661137 -0.121750414 0.10851129
vn 0.98661137 -0.1217504 0.10851129
vn 0.98661137 -0.121750414 0.108511284
vn 0.9895231 -0.12345888 0.07484632
vn 0.1130723 -0.9876987 -0.108009286
vn 0.113072306 -0.9876987 -0.1080093
vn 0.1130723 -0.9876987 -0.10800929
vn 0.1130723 -0.9876987 -0.108009286
vn -0.0043719327 -0.9613149 0.27541685
vn -0.0043719327 -0.9613149 0.27541685
vn -0.004371933 -0.9613149 0.27541688
vn -0.0043719327 -0.9613149 0.27541685
vn 0.18282834 -0.05028544 -0.981858
vn 0.18282835 -0.050285447 -0.981858
vn 0.18282834 -0.050285444 -0.981858
vn 0.18282835 -0.050285444 -0.981858
vn 0.16935638 -0.04553005 -0.9845026
vn 0.16935638 -0.045530047 -0.9845026
vn 0.05602472 -0.5258331 -0.84874076
vn 0.05602472 -0.5258331 -0.84874076
vn 0.05602472 -0.525833 -0.84874076
vn 0.05602472 -0.525833 -0.84874076
vn -0.07563808 -0.99349 -0.085185915
vn -0.07563809 -0.99349 -0.08518593
vn -0.075638086 -0.99349 -0.08518592
vn -0.07563809 -0.99349 -0.08518592
vn 0.19564348 -0.1768771 -0.9645922
vn 0.19564347 -0.17687708 -0.9645922
vn 0.19564347 -0.17687708 -0.9645922
vn 0.19564347 -0.17687708 -0.9645922
g B001_OctopusCover01_01_0
f 3/3/3 2/2/2 1/1/1
f 6/6/6 5/5/5 4/4/4
f 9/9/9 8/8/8 7/7/7
f 12/12/12 11/11/11 10/10/10
f 15/15/15 14/14/14 13/13/13
f 17/17/17 13/13/13 16/16/16
f 18/18/18 13/13/13 17/17/17
f 20/20/20 19/19/19 18/18/18
f 22/22/22 19/19/19 21/21/21
f 22/22/22 21/21/21 23/23/23
f 26/26/26 25/25/25 24/24/24
f 29/29/29 28/28/28 27/27/27
f 32/32/32 31/31/31 30/30/30
f 35/35/35 34/34/34 33/33/33
f 38/38/38 37/37/37 36/36/36
f 41/41/41 40/40/40 39/39/39
f 42/42/42 41/41/41 39/39/39
f 45/45/45 44/44/44 43/43/43
f 46/46/46 45/45/45 43/43/43
f 49/49/49 48/48/48 47/47/47
f 50/50/50 49/49/49 47/47/47
f 53/53/53 52/52/52 51/51/51
f 53/53/53 54/54/54 52/52/52
f 57/57/57 56/56/56 55/55/55
f 58/58/58 57/57/57 55/55/55
f 61/61/61 60/60/60 59/59/59
f 62/62/62 61/61/61 59/59/59
f 65/65/65 64/64/64 63/63/63
f 66/66/66 65/65/65 63/63/63
f 69/69/69 68/68/68 67/67/67
f 70/70/70 69/69/69 67/67/67
f 73/73/73 72/72/72 71/71/71
f 71/71/71 74/74/74 73/73/73
f 74/74/74 75/75/75 73/73/73
f 75/75/75 76/76/76 73/73/73
f 79/79/79 78/78/78 77/77/77
f 80/80/80 79/79/79 77/77/77
f 83/83/83 82/82/82 81/81/81
f 84/84/84 83/83/83 81/81/81
f 87/87/87 86/86/86 85/85/85
f 88/88/88 87/87/87 85/85/85
f 91/91/91 90/90/90 89/89/89
f 92/92/92 91/91/91 89/89/89
f 95/95/95 94/94/94 93/93/93
f 96/96/96 95/95/95 93/93/93
f 99/99/99 98/98/98 97/97/97
f 100/100/100 99/99/99 97/97/97
f 103/103/103 102/102/102 101/101/101
f 104/104/104 103/103/103 101/101/101
f 107/107/107 106/106/106 105/105/105
f 108/108/108 107/107/107 105/105/105
f 111/111/111 110/110/110 109/109/109
f 112/112/112 111/111/111 109/109/109
f 115/115/115 114/114/114 113/113/113
f 116/116/116 115/115/115 113/113/113
f 119/119/119 118/118/118 117/117/117
f 120/120/120 119/119/119 117/117/117
f 123/123/123 122/122/122 121/121/121
f 124/124/124 123/123/123 121/121/121
f 127/127/127 126/126/126 125/125/125
f 128/128/128 127/127/127 125/125/125
f 131/131/131 130/130/130 129/129/129
f 132/132/132 131/131/131 129/129/129
f 135/135/135 134/134/134 133/133/133
f 136/136/136 135/135/135 133/133/133
f 139/139/139 138/138/138 137/137/137
f 140/140/140 139/139/139 137/137/137
f 143/143/143 142/142/142 141/141/141
f 144/144/144 143/143/143 141/141/141
f 147/147/147 146/146/146 145/145/145
f 148/148/148 147/147/147 145/145/145
f 151/151/151 150/150/150 149/149/149
f 152/152/152 151/151/151 149/149/149
f 155/155/155 154/154/154 153/153/153
f 156/156/156 155/155/155 153/153/153
f 159/159/159 158/158/158 157/157/157
f 160/160/160 159/159/159 157/157/157
f 163/163/163 162/162/162 161/161/161
f 164/164/164 163/163/163 161/161/161
f 167/167/167 166/166/166 165/165/165
f 168/168/168 167/167/167 165/165/165
f 171/171/171 170/170/170 169/169/169
f 172/172/172 171/171/171 169/169/169
f 175/175/175 174/174/174 173/173/173
f 176/176/176 175/175/175 173/173/173
f 179/179/179 178/178/178 177/177/177
f 180/180/180 179/179/179 177/177/177
f 183/183/183 182/182/182 181/181/181
f 184/184/184 183/183/183 181/181/181
f 187/187/187 186/186/186 185/185/185
f 188/188/188 187/187/187 185/185/185
f 191/191/191 190/190/190 189/189/189
f 189/189/189 190/190/190 192/192/192
f 189/189/189 192/192/192 193/193/193
f 196/196/196 195/195/195 194/194/194
f 197/197/197 194/194/194 195/195/195
f 200/200/200 199/199/199 198/198/198
f 201/201/201 200/200/200 198/198/198
f 204/204/204 203/203/203 202/202/202
f 205/205/205 204/204/204 202/202/202
f 208/208/208 207/207/207 206/206/206
f 209/209/209 208/208/208 206/206/206
f 212/212/212 211/211/211 210/210/210
f 213/213/213 212/212/212 210/210/210
f 210/210/210 214/214/214 213/213/213
f 214/214/214 215/215/215 213/213/213
f 218/218/218 217/217/217 216/216/216
f 219/219/219 218/218/218 216/216/216
f 222/222/222 221/221/221 220/220/220
f 223/223/223 222/222/222 220/220/220
f 226/226/226 225/225/225 224/224/224
f 227/227/227 226/226/226 224/224/224
