g B001_FB01
v -19.002033 1.9593923 -0.17780517
v -19.23193 1.8279327 0.6409738
v -19.369759 1.8279376 0.49949187
v -9.94105 1.9593927 -0.059726562
v -9.591108 1.8279278 0.6269333
v -9.732602 1.8279275 0.76476896
v -18.634043 1.95942 -23.353071
v -18.983976 1.8279555 -24.039719
v -18.84249 1.8279605 -24.177555
v -9.573051 1.9594201 -23.234985
v -9.343179 1.8279604 -24.053768
v -9.205337 1.8279555 -23.91228
v 1.4816943 3.3158355 -1.9389753
v 1.7030663 3.1913238 -1.6912299
v 1.5925976 3.1912994 -1.5951668
v -13.324463 3.3156748 -2.0801485
v -13.47648 3.1912704 -1.7521504
v -13.570896 3.1913486 -1.8610615
v 1.6667529 3.3220177 -24.049372
v 1.8158593 3.1957483 -24.32425
v 1.9224805 3.1956701 -24.202541
v -13.112602 3.3218565 -24.162346
v -13.352297 3.1956944 -24.316746
v -13.253737 3.195719 -24.4355
v 1.5905224 2.9566362 -1.499421
v 1.5925976 3.1912994 -1.5951668
v 1.7949755 2.9566948 -1.6917586
v 1.7030663 3.1913238 -1.6912299
v 1.7949755 2.9566948 -1.6917586
v 1.5925976 3.1912994 -1.5951668
v -13.68415 2.956783 -1.874448
v -13.570896 3.1913486 -1.8610615
v -13.47845 2.9565973 -1.6564096
v -13.47648 3.1912704 -1.7521504
v -13.47845 2.9565973 -1.6564096
v -13.570896 3.1913486 -1.8610615
v 2.0170362 2.9617493 -24.317322
v 1.9224805 3.1956701 -24.202541
v 1.8158593 3.1957483 -24.32425
v -13.251293 2.9618957 -24.62057
v -13.253737 3.195719 -24.4355
v -13.462852 2.961842 -24.434475
v -13.352297 3.1956944 -24.316746
v -13.462852 2.961842 -24.434475
v -13.253737 3.195719 -24.4355
v 2.0170362 2.9617493 -24.317322
v 1.8158593 3.1957483 -24.32425
v 1.8183056 2.9619298 -24.50718
v 19.571972 3.8674603 2.670957
v 19.771776 3.7327144 2.717158
v 19.64372 3.7327144 2.7902148
v 0.11546875 3.1362743 2.449995
v 0.06876953 3.0015283 2.5656006
v -0.047802735 3.0015283 2.4853418
v 19.583208 3.8483074 -24.88978
v 19.588959 3.7327456 -24.96644
v 19.705513 3.7327406 -24.88618
v 0.048193358 3.1248941 -25.088392
v -0.114052735 3.0015543 -25.11799
v 0.014023437 3.001559 -25.191048
v 19.588959 3.7327456 -24.96644
v 19.583208 3.8483074 -24.88978
v 0.014023437 3.001559 -25.191048
v 0.048193358 3.1248941 -25.088392
v 0.014023437 3.001559 -25.191048
v 19.583208 3.8483074 -24.88978
v 19.771776 3.7327144 2.717158
v 19.571972 3.8674603 2.670957
v 19.705513 3.7327406 -24.88618
v 19.583208 3.8483074 -24.88978
v 19.705513 3.7327406 -24.88618
v 19.571972 3.8674603 2.670957
v 6.012915 2.4507027 -18.349588
v 6.133125 2.3159616 -18.291578
v 6.046221 2.3159614 -18.226564
v -5.944106 2.450703 -18.565046
v -5.984336 2.3159616 -18.452782
v -6.0493503 2.3159616 -18.539686
v 6.311494 2.4315345 -24.901018
v 6.322441 2.315973 -24.97698
v 6.387456 2.315968 -24.890072
v -5.6966453 2.439308 -25.098957
v -5.7950244 2.315973 -25.13818
v -5.7081103 2.315973 -25.203196
v 6.322441 2.315973 -24.97698
v 6.311494 2.4315345 -24.901018
v -5.7081103 2.315973 -25.203196
v -5.6966453 2.439308 -25.098957
v -5.7081103 2.315973 -25.203196
v 6.311494 2.4315345 -24.901018
v 6.133125 2.3159616 -18.291578
v 6.012915 2.4507027 -18.349588
v 6.387456 2.315968 -24.890072
v 6.311494 2.4315345 -24.901018
v 6.387456 2.315968 -24.890072
v 6.012915 2.4507027 -18.349588
v -8.877334 2.701981 -19.165094
v -8.7082815 2.528592 -19.086317
v -8.811089 2.528587 -18.929573
v -19.60243 2.701981 -19.187494
v -19.635664 2.528592 -18.953058
v -19.737495 2.528592 -19.056684
v -19.653833 2.6971397 -25.247475
v -19.791367 2.528605 -25.268158
v -19.687735 2.528605 -25.36999
v -8.811992 2.3607798 -18.826838
v -8.811089 2.528587 -18.929573
v -8.605547 2.3607798 -19.085417
v -8.7082815 2.528592 -19.086317
v -8.605547 2.3607798 -19.085417
v -8.811089 2.528587 -18.929573
v -19.653833 2.6971397 -25.247475
v -19.687735 2.528605 -25.36999
v -8.864062 2.693839 -25.261137
v -8.7082815 2.528592 -19.086317
v -8.877334 2.701981 -19.165094
v -8.761328 2.5286002 -25.26024
v -8.864062 2.693839 -25.261137
v -8.761328 2.5286002 -25.26024
v -8.877334 2.701981 -19.165094
v -8.658604 2.3607876 -25.259338
v -8.7082815 2.528592 -19.086317
v -8.605547 2.3607798 -19.085417
v 5.6777587 3.631855 2.7037108
v 5.7979684 3.497114 2.7617188
v 5.7110643 3.497114 2.826738
v -1.8178418 3.6318555 2.511123
v -1.8580712 3.4971142 2.6233885
v -1.9230859 3.4971142 2.5364842
v 5.9763327 3.6127114 -25.471066
v 5.9872804 3.4971502 -25.547028
v 6.0522995 3.497145 -25.460121
v -1.5703808 3.620485 -25.646137
v -1.6687597 3.4971502 -25.68536
v -1.5818456 3.4971502 -25.750374
v 5.9872804 3.4971502 -25.547028
v 5.9763327 3.6127114 -25.471066
v -1.5818456 3.4971502 -25.750374
v -1.5703808 3.620485 -25.646137
v -1.5818456 3.4971502 -25.750374
v 5.9763327 3.6127114 -25.471066
v 5.7979684 3.497114 2.7617188
v 5.6777587 3.631855 2.7037108
v 6.0522995 3.497145 -25.460121
v 5.9763327 3.6127114 -25.471066
v 6.0522995 3.497145 -25.460121
v 5.6777587 3.631855 2.7037108
v -19.233757 1.6499493 0.78064424
v -19.509434 1.6499493 0.49766448
v -19.23193 1.8279327 0.6409738
v -19.369759 1.8279376 0.49949187
v -9.45146 1.6499542 0.62874234
v -9.734419 1.6499493 0.9044345
v -9.591108 1.8279278 0.6269333
v -9.732602 1.8279275 0.76476896
v -19.123638 1.6499771 -24.041542
v -18.840668 1.6499771 -24.317219
v -18.983976 1.8279555 -24.039719
v -18.84249 1.8279605 -24.177555
v -9.341362 1.6499771 -24.193424
v -9.065669 1.649977 -23.910454
v -9.343179 1.8279604 -24.053768
v -9.205337 1.8279555 -23.91228
v -9.732602 1.8279275 0.76476896
v -19.23193 1.8279327 0.6409738
v -9.94105 1.9593927 -0.059726562
v -19.002033 1.9593923 -0.17780517
v -9.205337 1.8279555 -23.91228
v -9.591108 1.8279278 0.6269333
v -9.573051 1.9594201 -23.234985
v -9.94105 1.9593927 -0.059726562
v -18.84249 1.8279605 -24.177555
v -9.343179 1.8279604 -24.053768
v -18.634043 1.95942 -23.353071
v -9.573051 1.9594201 -23.234985
v -19.369759 1.8279376 0.49949187
v -18.983976 1.8279555 -24.039719
v -19.002033 1.9593923 -0.17780517
v -18.634043 1.95942 -23.353071
v -9.734419 1.6499493 0.9044345
v -19.233757 1.6499493 0.78064424
v -9.732602 1.8279275 0.76476896
v -19.23193 1.8279327 0.6409738
v -9.065669 1.649977 -23.910454
v -9.45146 1.6499542 0.62874234
v -9.205337 1.8279555 -23.91228
v -9.591108 1.8279278 0.6269333
v -18.840668 1.6499771 -24.317219
v -9.341362 1.6499771 -24.193424
v -18.84249 1.8279605 -24.177555
v -9.343179 1.8279604 -24.053768
v -19.509434 1.6499493 0.49766448
v -19.123638 1.6499771 -24.041542
v -19.369759 1.8279376 0.49949187
v -18.983976 1.8279555 -24.039719
v -13.47648 3.1912704 -1.7521504
v -13.324463 3.3156748 -2.0801485
v 1.5925976 3.1912994 -1.5951668
v 1.4816943 3.3158355 -1.9389753
v -13.352297 3.1956944 -24.316746
v -13.112602 3.3218565 -24.162346
v -13.570896 3.1913486 -1.8610615
v -13.324463 3.3156748 -2.0801485
v 1.8158593 3.1957483 -24.32425
v 1.6667529 3.3220177 -24.049372
v -13.253737 3.195719 -24.4355
v -13.112602 3.3218565 -24.162346
v 1.7030663 3.1913238 -1.6912299
v 1.4816943 3.3158355 -1.9389753
v 1.9224805 3.1956701 -24.202541
v 1.6667529 3.3220177 -24.049372
v -13.47845 2.9565973 -1.6564096
v -13.47648 3.1912704 -1.7521504
v 1.5905224 2.9566362 -1.499421
v 1.5925976 3.1912994 -1.5951668
v -13.462852 2.961842 -24.434475
v -13.352297 3.1956944 -24.316746
v -13.68415 2.956783 -1.874448
v -13.570896 3.1913486 -1.8610615
v 1.8183056 2.9619298 -24.50718
v 1.8158593 3.1957483 -24.32425
v -13.251293 2.9618957 -24.62057
v -13.253737 3.195719 -24.4355
v 1.7949755 2.9566948 -1.6917586
v 1.7030663 3.1913238 -1.6912299
v 2.0170362 2.9617493 -24.317322
v 1.9224805 3.1956701 -24.202541
v 19.63794 3.5630758 2.8668847
v 19.64372 3.7327144 2.7902148
v 19.8941 3.5630758 2.7207618
v 19.771776 3.7327144 2.717158
v -0.17010742 2.8318896 2.4817333
v -0.047802735 3.0015283 2.4853418
v 0.06300781 2.8318944 2.6422608
v 0.06876953 3.0015283 2.5656006
v 19.827847 3.563102 -24.882578
v 19.705513 3.7327406 -24.88618
v 19.59472 3.563102 -25.043095
v 19.588959 3.7327456 -24.96644
v 0.019785156 2.8319156 -25.26771
v 0.014023437 3.001559 -25.191048
v -0.23636718 2.8319156 -25.121593
v -0.114052735 3.0015543 -25.11799
v 0.06876953 3.0015283 2.5656006
v 0.11546875 3.1362743 2.449995
v 19.64372 3.7327144 2.7902148
v 19.571972 3.8674603 2.670957
v -0.114052735 3.0015543 -25.11799
v 0.048193358 3.1248941 -25.088392
v -0.047802735 3.0015283 2.4853418
v 0.11546875 3.1362743 2.449995
v 0.06300781 2.8318944 2.6422608
v 0.06876953 3.0015283 2.5656006
v 19.63794 3.5630758 2.8668847
v 19.64372 3.7327144 2.7902148
v -0.23636718 2.8319156 -25.121593
v -0.114052735 3.0015543 -25.11799
v -0.17010742 2.8318896 2.4817333
v -0.047802735 3.0015283 2.4853418
v 19.59472 3.563102 -25.043095
v 19.588959 3.7327456 -24.96644
v 0.019785156 2.8319156 -25.26771
v 0.014023437 3.001559 -25.191048
v 19.8941 3.5630758 2.7207618
v 19.771776 3.7327144 2.717158
v 19.827847 3.563102 -24.882578
v 19.705513 3.7327406 -24.88618
v 6.0352683 2.1463227 -18.150602
v 6.046221 2.3159614 -18.226564
v 6.2090917 2.146323 -18.28063
v 6.133125 2.3159616 -18.291578
v -6.1253076 2.146323 -18.550638
v -6.0493503 2.3159616 -18.539686
v -5.995288 2.146323 -18.37682
v -5.984336 2.3159616 -18.452782
v 6.463413 2.1463294 -24.879124
v 6.387456 2.315968 -24.890072
v 6.3333936 2.1463294 -25.052937
v 6.322441 2.315973 -24.97698
v -5.697163 2.1463296 -25.279154
v -5.7081103 2.315973 -25.203196
v -5.870986 2.1463294 -25.14913
v -5.7950244 2.315973 -25.13818
v -5.984336 2.3159616 -18.452782
v -5.944106 2.450703 -18.565046
v 6.046221 2.3159614 -18.226564
v 6.012915 2.4507027 -18.349588
v -5.7950244 2.315973 -25.13818
v -5.6966453 2.439308 -25.098957
v -6.0493503 2.3159616 -18.539686
v -5.944106 2.450703 -18.565046
v -5.995288 2.146323 -18.37682
v -5.984336 2.3159616 -18.452782
v 6.0352683 2.1463227 -18.150602
v 6.046221 2.3159614 -18.226564
v -5.870986 2.1463294 -25.14913
v -5.7950244 2.315973 -25.13818
v -6.1253076 2.146323 -18.550638
v -6.0493503 2.3159616 -18.539686
v 6.3333936 2.1463294 -25.052937
v 6.322441 2.315973 -24.97698
v -5.697163 2.1463296 -25.279154
v -5.7081103 2.315973 -25.203196
v 6.2090917 2.146323 -18.28063
v 6.133125 2.3159616 -18.291578
v 6.463413 2.1463294 -24.879124
v 6.387456 2.315968 -24.890072
v -8.864062 2.693839 -25.261137
v -8.863164 2.528605 -25.363867
v -8.761328 2.5286002 -25.26024
v -8.862256 2.3607876 -25.466593
v -8.658604 2.3607876 -25.259338
v -19.84022 2.3607798 -19.057594
v -19.737495 2.528592 -19.056684
v -19.636572 2.3607798 -18.850328
v -19.635664 2.528592 -18.953058
v -19.686836 2.3607876 -25.47272
v -19.687735 2.528605 -25.36999
v -19.8941 2.3607876 -25.269062
v -19.791367 2.528605 -25.268158
v -19.635664 2.528592 -18.953058
v -19.60243 2.701981 -19.187494
v -8.811089 2.528587 -18.929573
v -8.877334 2.701981 -19.165094
v -19.791367 2.528605 -25.268158
v -19.653833 2.6971397 -25.247475
v -19.737495 2.528592 -19.056684
v -19.60243 2.701981 -19.187494
v -8.863164 2.528605 -25.363867
v -8.864062 2.693839 -25.261137
v -19.687735 2.528605 -25.36999
v -19.686836 2.3607876 -25.47272
v -8.862256 2.3607876 -25.466593
v -19.636572 2.3607798 -18.850328
v -19.635664 2.528592 -18.953058
v -8.811992 2.3607798 -18.826838
v -8.811089 2.528587 -18.929573
v -19.8941 2.3607876 -25.269062
v -19.791367 2.528605 -25.268158
v -19.84022 2.3607798 -19.057594
v -19.737495 2.528592 -19.056684
v 5.700107 3.3274753 2.9026952
v 5.7110643 3.497114 2.826738
v 5.8739305 3.3274753 2.7726758
v 5.7979684 3.497114 2.7617188
v -1.9990429 3.3274755 2.525537
v -1.9230859 3.4971142 2.5364842
v -1.8690234 3.3274753 2.6993554
v -1.8580712 3.4971142 2.6233885
v 6.128257 3.3275063 -25.449171
v 6.0522995 3.497145 -25.460121
v 5.998237 3.3275065 -25.622986
v 5.9872804 3.4971502 -25.547028
v -1.5708984 3.3275065 -25.826334
v -1.5818456 3.4971502 -25.750374
v -1.7447217 3.3275065 -25.69631
v -1.6687597 3.4971502 -25.68536
v -1.8580712 3.4971142 2.6233885
v -1.8178418 3.6318555 2.511123
v 5.7110643 3.497114 2.826738
v 5.6777587 3.631855 2.7037108
v -1.6687597 3.4971502 -25.68536
v -1.5703808 3.620485 -25.646137
v -1.9230859 3.4971142 2.5364842
v -1.8178418 3.6318555 2.511123
v -1.8690234 3.3274753 2.6993554
v -1.8580712 3.4971142 2.6233885
v 5.700107 3.3274753 2.9026952
v 5.7110643 3.497114 2.826738
v -1.7447217 3.3275065 -25.69631
v -1.6687597 3.4971502 -25.68536
v -1.9990429 3.3274755 2.525537
v -1.9230859 3.4971142 2.5364842
v 5.998237 3.3275065 -25.622986
v 5.9872804 3.4971502 -25.547028
v -1.5708984 3.3275065 -25.826334
v -1.5818456 3.4971502 -25.750374
v 5.8739305 3.3274753 2.7726758
v 5.7979684 3.497114 2.7617188
v 6.128257 3.3275063 -25.449171
v 6.0522995 3.497145 -25.460121
v -9.734419 1.6499493 0.9044345
v -9.45146 1.6499542 0.62874234
v -9.734732 -1.1322569 0.92759854
v -9.451762 -1.1322569 0.6519089
v -9.734732 -1.1322569 0.92759854
v -9.45146 1.6499542 0.62874234
v -19.509722 -1.1322566 0.52082855
v -19.234043 -1.1322567 0.8038107
v -19.23039 -1.3168267 0.52447236
v -9.451762 -1.1322569 0.6519089
v -9.731089 -1.3168274 0.64826995
v -9.734732 -1.1322569 0.92759854
v -18.840658 -1.1322289 -24.317228
v -19.123632 -1.1322289 -24.04154
v -18.844301 -1.3167948 -24.037897
v -9.341362 -1.132229 -24.19343
v -9.344985 -1.316795 -23.914093
v -9.065669 -1.1322291 -23.910461
v -9.344985 -1.316795 -23.914093
v -9.341362 -1.132229 -24.19343
v -18.844301 -1.3167948 -24.037897
v -18.840658 -1.1322289 -24.317228
v -18.844301 -1.3167948 -24.037897
v -9.341362 -1.132229 -24.19343
v -9.731089 -1.3168274 0.64826995
v -9.451762 -1.1322569 0.6519089
v -9.344985 -1.316795 -23.914093
v -9.065669 -1.1322291 -23.910461
v -9.344985 -1.316795 -23.914093
v -9.451762 -1.1322569 0.6519089
v 1.5891601 -1.5136664 -1.5101177
v 1.5905224 2.9566362 -1.499421
v 1.7948096 -1.5136318 -1.7024369
v 1.7949755 2.9566948 -1.6917586
v 1.7948096 -1.5136318 -1.7024369
v 1.5905224 2.9566362 -1.499421
v -13.462852 2.961842 -24.434475
v -13.463066 -1.5103213 -24.435642
v -13.251293 2.9618957 -24.62057
v -13.252504 -1.5102868 -24.623556
v -13.251293 2.9618957 -24.62057
v -13.463066 -1.5103213 -24.435642
v 1.7948096 -1.5136318 -1.7024369
v 1.4888623 -1.7682165 -1.8906635
v 1.5891601 -1.5136664 -1.5101177
v -13.684262 -1.5135735 -1.8851261
v -13.479649 -1.5136907 -1.6670988
v -13.383362 -1.76831 -2.0326521
v 1.8169335 -1.5102624 -24.510168
v 1.712749 -1.7650381 -24.322985
v 2.0167627 -1.510375 -24.318493
v -13.252504 -1.5102868 -24.623556
v -13.463066 -1.5103213 -24.435642
v -13.165722 -1.7646817 -24.432028
v 19.63794 3.5630758 2.8668847
v 19.637001 -2.3876028 2.8795898
v 0.06300781 2.8318944 2.6422608
v 0.062075194 -2.3876028 2.6549804
v 0.06300781 2.8318944 2.6422608
v 19.637001 -2.3876028 2.8795898
v 19.637001 -2.3876028 2.8795898
v 19.63794 3.5630758 2.8668847
v 19.893145 -2.3876028 2.7334764
v 19.8941 3.5630758 2.7207618
v 19.893145 -2.3876028 2.7334764
v 19.63794 3.5630758 2.8668847
v -0.23636718 2.8319156 -25.121593
v -0.2363623 -2.3875813 -25.121595
v 0.019785156 2.8319156 -25.26771
v 0.019790038 -2.3875813 -25.26771
v 0.019785156 2.8319156 -25.26771
v -0.2363623 -2.3875813 -25.121595
v 19.59472 3.563102 -25.043095
v 19.594702 -2.3875864 -25.043104
v 19.827847 3.563102 -24.882578
v 19.827847 -2.3875864 -24.882578
v 19.827847 3.563102 -24.882578
v 19.594702 -2.3875864 -25.043104
v 19.893145 -2.3876028 2.7334764
v 19.57458 -2.552051 2.6250293
v 19.637001 -2.3876028 2.8795898
v -0.17106934 -2.3876028 2.4944482
v 0.062075194 -2.3876028 2.6549804
v 0.118090816 -2.552051 2.4040625
v 19.594702 -2.3875864 -25.043104
v 19.583187 -2.557396 -24.889784
v 19.827847 -2.3875864 -24.882578
v 0.019790038 -2.3875813 -25.26771
v -0.2363623 -2.3875813 -25.121595
v 0.04960449 -2.5520346 -25.111307
v 19.583187 -2.557396 -24.889784
v 19.57458 -2.552051 2.6250293
v 19.827847 -2.3875864 -24.882578
v 19.893145 -2.3876028 2.7334764
v 19.827847 -2.3875864 -24.882578
v 19.57458 -2.552051 2.6250293
v -5.995288 2.146323 -18.37682
v -5.9970946 0.0130515285 -18.364222
v -6.1253076 2.146323 -18.550638
v -6.127124 0.013051681 -18.538044
v -6.1253076 2.146323 -18.550638
v -5.9970946 0.0130515285 -18.364222
v 6.033452 -0.29872587 -18.138004
v 6.0352683 2.1463227 -18.150602
v 6.20727 -0.29872587 -18.268034
v 6.2090917 2.146323 -18.28063
v 6.20727 -0.29872587 -18.268034
v 6.0352683 2.1463227 -18.150602
v 6.20727 -0.29872587 -18.268034
v 6.01895 -0.46317413 -18.39515
v 6.033452 -0.29872587 -18.138004
v -6.127124 0.013051681 -18.538044
v -5.9970946 0.0130515285 -18.364222
v -5.9380565 -0.15139678 -18.610607
v 6.3333836 -0.29871932 -25.052944
v 6.3114843 -0.46853378 -24.901026
v 6.463408 -0.29871932 -24.879128
v -5.697163 0.013058166 -25.279158
v -5.870981 0.013058013 -25.149134
v -5.693579 -0.15139022 -25.121681
v 6.3114843 -0.46853378 -24.901026
v 6.01895 -0.46317413 -18.39515
v 6.463408 -0.29871932 -24.879128
v 6.20727 -0.29872587 -18.268034
v 6.463408 -0.29871932 -24.879128
v 6.01895 -0.46317413 -18.39515
v -19.636572 2.3607798 -18.850328
v -19.63671 1.3904719 -18.83329
v -19.84022 2.3607798 -19.057594
v -19.84037 1.390467 -19.040556
v -19.84022 2.3607798 -19.057594
v -19.63671 1.3904719 -18.83329
v -8.812139 1.3904719 -18.809801
v -8.811992 2.3607798 -18.826838
v -8.605698 1.390467 -19.068378
v -8.605547 2.3607798 -19.085417
v -8.605698 1.390467 -19.068378
v -8.811992 2.3607798 -18.826838
v -19.8941 2.3607876 -25.269062
v -19.89409 1.3904798 -25.269068
v -19.686836 2.3607876 -25.47272
v -19.686836 1.3904749 -25.472725
v -19.686836 2.3607876 -25.47272
v -19.89409 1.3904798 -25.269068
v -8.605698 1.390467 -19.068378
v -8.877495 1.1703354 -19.148314
v -8.812139 1.3904719 -18.809801
v -19.84037 1.390467 -19.040556
v -19.63671 1.3904719 -18.83329
v -19.602583 1.1703354 -19.170721
v -8.862266 1.3904749 -25.4666
v -8.864072 1.1631606 -25.261143
v -8.658613 1.3904798 -25.25934
v -19.686836 1.3904749 -25.472725
v -19.89409 1.3904798 -25.269068
v -19.653837 1.1703432 -25.264467
v -8.864072 1.1631606 -25.261143
v -8.877495 1.1703354 -19.148314
v -8.658613 1.3904798 -25.25934
v -8.605698 1.390467 -19.068378
v -8.658613 1.3904798 -25.25934
v -8.877495 1.1703354 -19.148314
v -1.8690234 3.3274753 2.6993554
v -1.87083 1.3356102 2.7119532
v -1.9990429 3.3274755 2.525537
v -2.0008593 1.3356103 2.538125
v -1.9990429 3.3274755 2.525537
v -1.87083 1.3356102 2.7119532
v 5.872114 1.6394627 2.7852733
v 5.683794 1.4750144 2.6581542
v 5.6982956 1.6394626 2.915293
v -2.0008593 1.3356103 2.538125
v -1.87083 1.3356102 2.7119532
v -1.8117919 1.171162 2.4655664
v 5.9982276 1.3356413 -25.62299
v 5.976328 1.1658267 -25.471071
v 6.128252 1.6394937 -25.449175
v -1.5708984 1.3356413 -25.826334
v -1.7447168 1.3356413 -25.69631
v -1.5673144 1.171193 -25.668863
v 5.976328 1.1658267 -25.471071
v 5.683794 1.4750144 2.6581542
v 6.128252 1.6394937 -25.449175
v 5.872114 1.6394627 2.7852733
v 6.128252 1.6394937 -25.449175
v 5.683794 1.4750144 2.6581542
v -19.123638 1.6499771 -24.041542
v -19.509434 1.6499493 0.49766448
v -19.123632 -1.1322289 -24.04154
v -19.509722 -1.1322566 0.52082855
v -19.234043 -1.1322567 0.8038107
v -19.509722 -1.1322566 0.52082855
v -19.233757 1.6499493 0.78064424
v -19.509434 1.6499493 0.49766448
v -18.840668 1.6499771 -24.317219
v -19.123638 1.6499771 -24.041542
v -18.840658 -1.1322289 -24.317228
v -19.123632 -1.1322289 -24.04154
v -19.233757 1.6499493 0.78064424
v -9.734419 1.6499493 0.9044345
v -19.234043 -1.1322567 0.8038107
v -9.734732 -1.1322569 0.92759854
v -9.45146 1.6499542 0.62874234
v -9.065669 1.649977 -23.910454
v -9.451762 -1.1322569 0.6519089
v -9.065669 -1.1322291 -23.910461
v -9.341362 1.6499771 -24.193424
v -18.840668 1.6499771 -24.317219
v -9.341362 -1.132229 -24.19343
v -18.840658 -1.1322289 -24.317228
v -9.065669 1.649977 -23.910454
v -9.341362 1.6499771 -24.193424
v -9.065669 -1.1322291 -23.910461
v -9.341362 -1.132229 -24.19343
v -18.844301 -1.3167948 -24.037897
v -19.123632 -1.1322289 -24.04154
v -19.23039 -1.3168267 0.52447236
v -19.509722 -1.1322566 0.52082855
v -19.23039 -1.3168267 0.52447236
v -19.234043 -1.1322567 0.8038107
v -9.731089 -1.3168274 0.64826995
v -9.734732 -1.1322569 0.92759854
v 1.5905224 2.9566362 -1.499421
v 1.5891601 -1.5136664 -1.5101177
v -13.47845 2.9565973 -1.6564096
v -13.479649 -1.5136907 -1.6670988
v -13.68415 2.956783 -1.874448
v -13.684262 -1.5135735 -1.8851261
v -13.462852 2.961842 -24.434475
v -13.463066 -1.5103213 -24.435642
v -13.251293 2.9618957 -24.62057
v -13.252504 -1.5102868 -24.623556
v 1.8183056 2.9619298 -24.50718
v 1.8169335 -1.5102624 -24.510168
v 2.0170362 2.9617493 -24.317322
v 2.0167627 -1.510375 -24.318493
v 1.7949755 2.9566948 -1.6917586
v 1.7948096 -1.5136318 -1.7024369
v -13.47845 2.9565973 -1.6564096
v -13.479649 -1.5136907 -1.6670988
v -13.68415 2.956783 -1.874448
v -13.684262 -1.5135735 -1.8851261
v 1.8183056 2.9619298 -24.50718
v 1.8169335 -1.5102624 -24.510168
v 2.0170362 2.9617493 -24.317322
v 2.0167627 -1.510375 -24.318493
v 1.712749 -1.7650381 -24.322985
v 1.4888623 -1.7682165 -1.8906635
v 2.0167627 -1.510375 -24.318493
v 1.7948096 -1.5136318 -1.7024369
v -13.165722 -1.7646817 -24.432028
v 1.712749 -1.7650381 -24.322985
v -13.252504 -1.5102868 -24.623556
v 1.8169335 -1.5102624 -24.510168
v -13.383362 -1.76831 -2.0326521
v -13.165722 -1.7646817 -24.432028
v -13.684262 -1.5135735 -1.8851261
v -13.463066 -1.5103213 -24.435642
v 1.4888623 -1.7682165 -1.8906635
v -13.383362 -1.76831 -2.0326521
v 1.5891601 -1.5136664 -1.5101177
v -13.479649 -1.5136907 -1.6670988
v -0.17010742 2.8318896 2.4817333
v -0.17106934 -2.3876028 2.4944482
v -0.23636718 2.8319156 -25.121593
v -0.2363623 -2.3875813 -25.121595
v 0.019785156 2.8319156 -25.26771
v 0.019790038 -2.3875813 -25.26771
v 19.59472 3.563102 -25.043095
v 19.594702 -2.3875864 -25.043104
v 19.827847 3.563102 -24.882578
v 19.827847 -2.3875864 -24.882578
v 19.8941 3.5630758 2.7207618
v 19.893145 -2.3876028 2.7334764
v 0.06300781 2.8318944 2.6422608
v 0.062075194 -2.3876028 2.6549804
v -0.17010742 2.8318896 2.4817333
v -0.17106934 -2.3876028 2.4944482
v 0.04960449 -2.5520346 -25.111307
v 19.583187 -2.557396 -24.889784
v 0.019790038 -2.3875813 -25.26771
v 19.594702 -2.3875864 -25.043104
v 0.118090816 -2.552051 2.4040625
v 0.04960449 -2.5520346 -25.111307
v -0.17106934 -2.3876028 2.4944482
v -0.2363623 -2.3875813 -25.121595
v 19.57458 -2.552051 2.6250293
v 0.118090816 -2.552051 2.4040625
v 19.637001 -2.3876028 2.8795898
v 0.062075194 -2.3876028 2.6549804
v 6.0352683 2.1463227 -18.150602
v 6.033452 -0.29872587 -18.138004
v -5.995288 2.146323 -18.37682
v -5.9970946 0.0130515285 -18.364222
v -6.1253076 2.146323 -18.550638
v -6.127124 0.013051681 -18.538044
v -5.870986 2.1463294 -25.14913
v -5.870981 0.013058013 -25.149134
v -5.697163 2.1463296 -25.279154
v -5.697163 0.013058166 -25.279158
v 6.3333936 2.1463294 -25.052937
v 6.3333836 -0.29871932 -25.052944
v 6.463413 2.1463294 -24.879124
v 6.463408 -0.29871932 -24.879128
v 6.2090917 2.146323 -18.28063
v 6.20727 -0.29872587 -18.268034
v -5.870986 2.1463294 -25.14913
v -5.870981 0.013058013 -25.149134
v -5.697163 2.1463296 -25.279154
v -5.697163 0.013058166 -25.279158
v 6.3333936 2.1463294 -25.052937
v 6.3333836 -0.29871932 -25.052944
v 6.463413 2.1463294 -24.879124
v 6.463408 -0.29871932 -24.879128
v -5.693579 -0.15139022 -25.121681
v 6.3114843 -0.46853378 -24.901026
v -5.697163 0.013058166 -25.279158
v 6.3333836 -0.29871932 -25.052944
v -5.9380565 -0.15139678 -18.610607
v -5.693579 -0.15139022 -25.121681
v -6.127124 0.013051681 -18.538044
v -5.870981 0.013058013 -25.149134
v 6.01895 -0.46317413 -18.39515
v -5.9380565 -0.15139678 -18.610607
v 6.033452 -0.29872587 -18.138004
v -5.9970946 0.0130515285 -18.364222
v -8.811992 2.3607798 -18.826838
v -8.812139 1.3904719 -18.809801
v -19.636572 2.3607798 -18.850328
v -19.63671 1.3904719 -18.83329
v -19.84022 2.3607798 -19.057594
v -19.84037 1.390467 -19.040556
v -19.8941 2.3607876 -25.269062
v -19.89409 1.3904798 -25.269068
v -19.686836 2.3607876 -25.47272
v -19.686836 1.3904749 -25.472725
v -8.862256 2.3607876 -25.466593
v -8.862266 1.3904749 -25.4666
v -8.658604 2.3607876 -25.259338
v -8.658613 1.3904798 -25.25934
v -8.605547 2.3607798 -19.085417
v -8.605698 1.390467 -19.068378
v -8.862256 2.3607876 -25.466593
v -8.862266 1.3904749 -25.4666
v -8.658604 2.3607876 -25.259338
v -8.658613 1.3904798 -25.25934
v -19.653837 1.1703432 -25.264467
v -8.864072 1.1631606 -25.261143
v -19.686836 1.3904749 -25.472725
v -8.862266 1.3904749 -25.4666
v -19.602583 1.1703354 -19.170721
v -19.653837 1.1703432 -25.264467
v -19.84037 1.390467 -19.040556
v -19.89409 1.3904798 -25.269068
v -8.877495 1.1703354 -19.148314
v -19.602583 1.1703354 -19.170721
v -8.812139 1.3904719 -18.809801
v -19.63671 1.3904719 -18.83329
v 5.700107 3.3274753 2.9026952
v 5.6982956 1.6394626 2.915293
v -1.8690234 3.3274753 2.6993554
v -1.87083 1.3356102 2.7119532
v -1.9990429 3.3274755 2.525537
v -2.0008593 1.3356103 2.538125
v -1.7447217 3.3275065 -25.69631
v -1.7447168 1.3356413 -25.69631
v -1.5708984 3.3275065 -25.826334
v -1.5708984 1.3356413 -25.826334
v 5.998237 3.3275065 -25.622986
v 5.9982276 1.3356413 -25.62299
v 6.128257 3.3275063 -25.449171
v 6.128252 1.6394937 -25.449175
v 5.8739305 3.3274753 2.7726758
v 5.872114 1.6394627 2.7852733
v 5.6982956 1.6394626 2.915293
v 5.700107 3.3274753 2.9026952
v 5.872114 1.6394627 2.7852733
v 5.8739305 3.3274753 2.7726758
v -1.7447217 3.3275065 -25.69631
v -1.7447168 1.3356413 -25.69631
v -1.5708984 3.3275065 -25.826334
v -1.5708984 1.3356413 -25.826334
v 5.998237 3.3275065 -25.622986
v 5.9982276 1.3356413 -25.62299
v 6.128257 3.3275063 -25.449171
v 6.128252 1.6394937 -25.449175
v -1.5673144 1.171193 -25.668863
v 5.976328 1.1658267 -25.471071
v -1.5708984 1.3356413 -25.826334
v 5.9982276 1.3356413 -25.62299
v -1.8117919 1.171162 2.4655664
v -1.5673144 1.171193 -25.668863
v -2.0008593 1.3356103 2.538125
v -1.7447168 1.3356413 -25.69631
v 5.683794 1.4750144 2.6581542
v -1.8117919 1.171162 2.4655664
v 5.6982956 1.6394626 2.915293
v -1.87083 1.3356102 2.7119532
v -9.731089 -1.3168274 0.64826995
v -9.344985 -1.316795 -23.914093
v -19.23039 -1.3168267 0.52447236
v -18.844301 -1.3167948 -24.037897
v -13.383362 -1.76831 -2.0326521
v 1.4888623 -1.7682165 -1.8906635
v -13.165722 -1.7646817 -24.432028
v 1.712749 -1.7650381 -24.322985
v 0.118090816 -2.552051 2.4040625
v 19.57458 -2.552051 2.6250293
v 0.04960449 -2.5520346 -25.111307
v 19.583187 -2.557396 -24.889784
v -5.9380565 -0.15139678 -18.610607
v 6.01895 -0.46317413 -18.39515
v -5.693579 -0.15139022 -25.121681
v 6.3114843 -0.46853378 -24.901026
v -19.602583 1.1703354 -19.170721
v -8.877495 1.1703354 -19.148314
v -19.653837 1.1703432 -25.264467
v -8.864072 1.1631606 -25.261143
v -1.8117919 1.171162 2.4655664
v 5.683794 1.4750144 2.6581542
v -1.5673144 1.171193 -25.668863
v 5.976328 1.1658267 -25.471071
v -18.634043 1.95942 -23.353071
v -9.573051 1.9594201 -23.234985
v -19.002033 1.9593923 -0.17780517
v -9.94105 1.9593927 -0.059726562
v 1.6667529 3.3220177 -24.049372
v 1.4816943 3.3158355 -1.9389753
v -13.112602 3.3218565 -24.162346
v -13.324463 3.3156748 -2.0801485
v 19.583208 3.8483074 -24.88978
v 19.571972 3.8674603 2.670957
v 0.048193358 3.1248941 -25.088392
v 0.11546875 3.1362743 2.449995
v 6.311494 2.4315345 -24.901018
v 6.012915 2.4507027 -18.349588
v -5.6966453 2.439308 -25.098957
v -5.944106 2.450703 -18.565046
v -8.864062 2.693839 -25.261137
v -8.877334 2.701981 -19.165094
v -19.653833 2.6971397 -25.247475
v -19.60243 2.701981 -19.187494
v 5.9763327 3.6127114 -25.471066
v 5.6777587 3.631855 2.7037108
v -1.5703808 3.620485 -25.646137
v -1.8178418 3.6318555 2.511123
vt 0.11639404 0.9536133
vt 0.032989502 0.6064453
vt 0.11639404 0.6064453
vt 0.11639404 0.9536133
vt 0.032989502 0.6064453
vt 0.11639404 0.6064453
vt 0.11639404 0.9536133
vt 0.032989502 0.6064453
vt 0.11639404 0.6064453
vt 0.11639404 0.9536133
vt 0.032989502 0.6064453
vt 0.11639404 0.6064453
vt 0.120910645 0.9536133
vt 0.120910645 0.6040039
vt 0.02947998 0.6040039
vt 0.12158203 0.9536133
vt 0.12158203 0.60498047
vt 0.033172607 0.60498047
vt 0.12158203 0.9536133
vt 0.12158203 0.60498047
vt 0.033172607 0.60498047
vt 0.120910645 0.9536133
vt 0.120910645 0.6040039
vt 0.02947998 0.6040039
vt 0.02947998 0.043792725
vt 0.02947998 0.6040039
vt 0.120910645 0.043792725
vt 0.120910645 0.6040039
vt 0.120910645 0.043792725
vt 0.02947998 0.6040039
vt 0.036865234 0.047912598
vt 0.033172607 0.60498047
vt 0.12158203 0.047912598
vt 0.12158203 0.60498047
vt 0.12158203 0.047912598
vt 0.033172607 0.60498047
vt 0.036865234 0.047912598
vt 0.033172607 0.60498047
vt 0.12158203 0.60498047
vt 0.02947998 0.043792725
vt 0.02947998 0.6040039
vt 0.120910645 0.043792725
vt 0.120910645 0.6040039
vt 0.120910645 0.043792725
vt 0.02947998 0.6040039
vt 0.036865234 0.047912598
vt 0.12158203 0.60498047
vt 0.12158203 0.047912598
vt 0.0016212463 0.9536133
vt 0.00982666 0.6533203
vt 0.0016212463 0.6533203
vt 0.010345459 0.9536133
vt 0.01537323 0.6533203
vt 0.005710602 0.6533203
vt 0.011741638 0.9536133
vt 0.0137786865 0.6533203
vt 0.0045433044 0.6533203
vt 0.019012451 0.9536133
vt 0.022155762 0.6533203
vt 0.012458801 0.6533203
vt 0.0137786865 0.6533203
vt 0.011741638 0.9536133
vt 0.37182617 0.6533203
vt 0.37841797 0.9536133
vt 0.37182617 0.6533203
vt 0.011741638 0.9536133
vt 0.00982666 0.6533203
vt 0.0016212463 0.9536133
vt 0.4482422 0.6533203
vt 0.4555664 0.9536133
vt 0.4482422 0.6533203
vt 0.0016212463 0.9536133
vt 0.0016212463 0.9536133
vt 0.00982666 0.6533203
vt 0.0016212463 0.6533203
vt 0.010345459 0.9536133
vt 0.01537323 0.6533203
vt 0.005710602 0.6533203
vt 0.011741638 0.9536133
vt 0.0137786865 0.6533203
vt 0.0045433044 0.6533203
vt 0.019012451 0.9536133
vt 0.022155762 0.6533203
vt 0.012458801 0.6533203
vt 0.0137786865 0.6533203
vt 0.011741638 0.9536133
vt 0.37182617 0.6533203
vt 0.37841797 0.9536133
vt 0.37182617 0.6533203
vt 0.011741638 0.9536133
vt 0.00982666 0.6533203
vt 0.0016212463 0.9536133
vt 0.4482422 0.6533203
vt 0.4555664 0.9536133
vt 0.4482422 0.6533203
vt 0.0016212463 0.9536133
vt 0.0016212463 0.9536133
vt 0.00982666 0.6533203
vt 0.0016212463 0.6533203
vt 0.010345459 0.9536133
vt 0.01537323 0.6533203
vt 0.005710602 0.6533203
vt 0.019012451 0.9536133
vt 0.022155762 0.6533203
vt 0.012458801 0.6533203
vt 0.0016212463 0.04699707
vt 0.0016212463 0.6533203
vt 0.00982666 0.04699707
vt 0.00982666 0.6533203
vt 0.00982666 0.04699707
vt 0.0016212463 0.6533203
vt 0.37841797 0.9536133
vt 0.37182617 0.6533203
vt 0.011741638 0.9536133
vt 0.00982666 0.6533203
vt 0.0016212463 0.9536133
vt 0.4482422 0.6533203
vt 0.4555664 0.9536133
vt 0.4482422 0.6533203
vt 0.0016212463 0.9536133
vt 0.44433594 0.04699707
vt 0.00982666 0.6533203
vt 0.00982666 0.04699707
vt 0.0016212463 0.9536133
vt 0.00982666 0.6533203
vt 0.0016212463 0.6533203
vt 0.010345459 0.9536133
vt 0.01537323 0.6533203
vt 0.005710602 0.6533203
vt 0.011741638 0.9536133
vt 0.0137786865 0.6533203
vt 0.0045433044 0.6533203
vt 0.019012451 0.9536133
vt 0.022155762 0.6533203
vt 0.012458801 0.6533203
vt 0.0137786865 0.6533203
vt 0.011741638 0.9536133
vt 0.37182617 0.6533203
vt 0.37841797 0.9536133
vt 0.37182617 0.6533203
vt 0.011741638 0.9536133
vt 0.00982666 0.6533203
vt 0.0016212463 0.9536133
vt 0.4482422 0.6533203
vt 0.4555664 0.9536133
vt 0.4482422 0.6533203
vt 0.0016212463 0.9536133
vt 0.032989502 0.056152344
vt 0.11639404 0.056152344
vt 0.032989502 0.6064453
vt 0.11639404 0.6064453
vt 0.032989502 0.056152344
vt 0.11639404 0.056152344
vt 0.032989502 0.6064453
vt 0.11639404 0.6064453
vt 0.032989502 0.056152344
vt 0.11639404 0.056152344
vt 0.032989502 0.6064453
vt 0.11639404 0.6064453
vt 0.032989502 0.056152344
vt 0.11639404 0.056152344
vt 0.032989502 0.6064453
vt 0.11639404 0.6064453
vt 0.11639404 0.6064453
vt 0.3635254 0.6064453
vt 0.11639404 0.9536133
vt 0.3635254 0.9536133
vt 0.11639404 0.6064453
vt 0.3635254 0.6064453
vt 0.11639404 0.9536133
vt 0.3635254 0.9536133
vt 0.11639404 0.6064453
vt 0.3635254 0.6064453
vt 0.11639404 0.9536133
vt 0.3635254 0.9536133
vt 0.11639404 0.6064453
vt 0.3635254 0.6064453
vt 0.11639404 0.9536133
vt 0.3635254 0.9536133
vt 0.11639404 0.056152344
vt 0.3635254 0.056152344
vt 0.11639404 0.6064453
vt 0.3635254 0.6064453
vt 0.11639404 0.056152344
vt 0.3635254 0.056152344
vt 0.11639404 0.6064453
vt 0.3635254 0.6064453
vt 0.11639404 0.056152344
vt 0.3635254 0.056152344
vt 0.11639404 0.6064453
vt 0.3635254 0.6064453
vt 0.11639404 0.056152344
vt 0.3635254 0.056152344
vt 0.11639404 0.6064453
vt 0.3635254 0.6064453
vt 0.12158203 0.60498047
vt 0.12158203 0.9536133
vt 0.3635254 0.60498047
vt 0.3635254 0.9536133
vt 0.120910645 0.6040039
vt 0.120910645 0.9536133
vt 0.3635254 0.6040039
vt 0.3635254 0.9536133
vt 0.12158203 0.60498047
vt 0.12158203 0.9536133
vt 0.3635254 0.60498047
vt 0.3635254 0.9536133
vt 0.120910645 0.6040039
vt 0.120910645 0.9536133
vt 0.3635254 0.6040039
vt 0.3635254 0.9536133
vt 0.12158203 0.047912598
vt 0.12158203 0.60498047
vt 0.3635254 0.047912598
vt 0.3635254 0.60498047
vt 0.120910645 0.043792725
vt 0.120910645 0.6040039
vt 0.3635254 0.043792725
vt 0.3635254 0.6040039
vt 0.12158203 0.047912598
vt 0.12158203 0.60498047
vt 0.3635254 0.047912598
vt 0.3635254 0.60498047
vt 0.120910645 0.043792725
vt 0.120910645 0.6040039
vt 0.3635254 0.043792725
vt 0.3635254 0.6040039
vt 0.0016212463 0.04699707
vt 0.0016212463 0.6533203
vt 0.00982666 0.04699707
vt 0.00982666 0.6533203
vt 0.005256653 0.04699707
vt 0.005710602 0.6533203
vt 0.020462036 0.04699707
vt 0.01537323 0.6533203
vt 0.00070619583 0.04699707
vt 0.0045433044 0.6533203
vt 0.016036987 0.04699707
vt 0.0137786865 0.6533203
vt 0.010597229 0.04699707
vt 0.012458801 0.6533203
vt 0.025527954 0.04699707
vt 0.022155762 0.6533203
vt 0.01537323 0.6533203
vt 0.010345459 0.9536133
vt 0.3720703 0.6533203
vt 0.3720703 0.9536133
vt 0.022155762 0.6533203
vt 0.019012451 0.9536133
vt 0.45874023 0.6533203
vt 0.4633789 0.9536133
vt 0.020462036 0.04699707
vt 0.01537323 0.6533203
vt 0.3720703 0.04699707
vt 0.3720703 0.6533203
vt 0.025527954 0.04699707
vt 0.022155762 0.6533203
vt 0.45825195 0.04699707
vt 0.45874023 0.6533203
vt 0.016036987 0.04699707
vt 0.0137786865 0.6533203
vt 0.36987305 0.04699707
vt 0.37182617 0.6533203
vt 0.00982666 0.04699707
vt 0.00982666 0.6533203
vt 0.44433594 0.04699707
vt 0.4482422 0.6533203
vt 0.0016212463 0.04699707
vt 0.0016212463 0.6533203
vt 0.00982666 0.04699707
vt 0.00982666 0.6533203
vt 0.005256653 0.04699707
vt 0.005710602 0.6533203
vt 0.020462036 0.04699707
vt 0.01537323 0.6533203
vt 0.00070619583 0.04699707
vt 0.0045433044 0.6533203
vt 0.016036987 0.04699707
vt 0.0137786865 0.6533203
vt 0.010597229 0.04699707
vt 0.012458801 0.6533203
vt 0.025527954 0.04699707
vt 0.022155762 0.6533203
vt 0.01537323 0.6533203
vt 0.010345459 0.9536133
vt 0.3720703 0.6533203
vt 0.3720703 0.9536133
vt 0.022155762 0.6533203
vt 0.019012451 0.9536133
vt 0.45874023 0.6533203
vt 0.4633789 0.9536133
vt 0.020462036 0.04699707
vt 0.01537323 0.6533203
vt 0.3720703 0.04699707
vt 0.3720703 0.6533203
vt 0.025527954 0.04699707
vt 0.022155762 0.6533203
vt 0.45825195 0.04699707
vt 0.45874023 0.6533203
vt 0.016036987 0.04699707
vt 0.0137786865 0.6533203
vt 0.36987305 0.04699707
vt 0.37182617 0.6533203
vt 0.00982666 0.04699707
vt 0.00982666 0.6533203
vt 0.44433594 0.04699707
vt 0.4482422 0.6533203
vt 0.011741638 0.9536133
vt 0.0137786865 0.6533203
vt 0.0045433044 0.6533203
vt 0.016036987 0.04699707
vt 0.00070619583 0.04699707
vt 0.005256653 0.04699707
vt 0.005710602 0.6533203
vt 0.020462036 0.04699707
vt 0.01537323 0.6533203
vt 0.010597229 0.04699707
vt 0.012458801 0.6533203
vt 0.025527954 0.04699707
vt 0.022155762 0.6533203
vt 0.01537323 0.6533203
vt 0.010345459 0.9536133
vt 0.3720703 0.6533203
vt 0.3720703 0.9536133
vt 0.022155762 0.6533203
vt 0.019012451 0.9536133
vt 0.45874023 0.6533203
vt 0.4633789 0.9536133
vt 0.0137786865 0.6533203
vt 0.011741638 0.9536133
vt 0.37182617 0.6533203
vt 0.36987305 0.04699707
vt 0.016036987 0.04699707
vt 0.020462036 0.04699707
vt 0.01537323 0.6533203
vt 0.3720703 0.04699707
vt 0.3720703 0.6533203
vt 0.025527954 0.04699707
vt 0.022155762 0.6533203
vt 0.45825195 0.04699707
vt 0.45874023 0.6533203
vt 0.0016212463 0.04699707
vt 0.0016212463 0.6533203
vt 0.00982666 0.04699707
vt 0.00982666 0.6533203
vt 0.005256653 0.04699707
vt 0.005710602 0.6533203
vt 0.020462036 0.04699707
vt 0.01537323 0.6533203
vt 0.00070619583 0.04699707
vt 0.0045433044 0.6533203
vt 0.016036987 0.04699707
vt 0.0137786865 0.6533203
vt 0.010597229 0.04699707
vt 0.012458801 0.6533203
vt 0.025527954 0.04699707
vt 0.022155762 0.6533203
vt 0.01537323 0.6533203
vt 0.010345459 0.9536133
vt 0.3720703 0.6533203
vt 0.3720703 0.9536133
vt 0.022155762 0.6533203
vt 0.019012451 0.9536133
vt 0.45874023 0.6533203
vt 0.4633789 0.9536133
vt 0.020462036 0.04699707
vt 0.01537323 0.6533203
vt 0.3720703 0.04699707
vt 0.3720703 0.6533203
vt 0.025527954 0.04699707
vt 0.022155762 0.6533203
vt 0.45825195 0.04699707
vt 0.45874023 0.6533203
vt 0.016036987 0.04699707
vt 0.0137786865 0.6533203
vt 0.36987305 0.04699707
vt 0.37182617 0.6533203
vt 0.00982666 0.04699707
vt 0.00982666 0.6533203
vt 0.44433594 0.04699707
vt 0.4482422 0.6533203
vt -11.15625 8.6953125
vt -11.125 8.6953125
vt -11.1484375 8.4609375
vt -11.1171875 8.4609375
vt -11.1484375 8.4609375
vt -11.125 8.6953125
vt -6.0976562 8.4453125
vt -6.0742188 8.4453125
vt -6.0898438 8.421875
vt -11.1171875 8.4609375
vt -11.125 8.4375
vt -11.1484375 8.4609375
vt -8.2109375 8.4453125
vt -8.1796875 8.4453125
vt -8.1953125 8.421875
vt -9.0078125 8.4609375
vt -9.0234375 8.4375
vt -9.03125 8.4609375
vt -9.0234375 8.4375
vt -9.0078125 8.4609375
vt -8.1953125 8.421875
vt -8.2109375 8.4453125
vt -8.1953125 8.421875
vt -9.0078125 8.4609375
vt -11.125 8.4375
vt -11.1171875 8.4609375
vt -9.0234375 8.4375
vt -9.03125 8.4609375
vt -9.0234375 8.4375
vt -11.1171875 8.4609375
vt -12.9921875 9.0390625
vt -13 9.4296875
vt -12.9765625 9.046875
vt -12.9765625 9.4296875
vt -12.9765625 9.046875
vt -13 9.4296875
vt -9.75 9.4609375
vt -9.7421875 9.078125
vt -9.765625 9.4609375
vt -9.7578125 9.078125
vt -9.765625 9.4609375
vt -9.7421875 9.078125
vt -12.9765625 9.046875
vt -12.9609375 9.015625
vt -12.9921875 9.0390625
vt -7.828125 9.078125
vt -7.8125 9.078125
vt -7.8203125 9.046875
vt -11.03125 9.046875
vt -11.03125 9.015625
vt -11.0546875 9.046875
vt -9.7578125 9.078125
vt -9.7421875 9.078125
vt -9.75 9.046875
vt -6.1640625 12.078125
vt -6.1601562 11.6171875
vt -7.828125 12.078125
vt -7.8242188 11.59375
vt -7.828125 12.078125
vt -6.1601562 11.6171875
vt -14.25 11.5625
vt -14.2578125 12.078125
vt -14.2265625 11.5703125
vt -14.234375 12.078125
vt -14.2265625 11.5703125
vt -14.2578125 12.078125
vt -10.1875 12.078125
vt -10.1796875 11.59375
vt -10.2109375 12.078125
vt -10.203125 11.59375
vt -10.2109375 12.078125
vt -10.1796875 11.59375
vt -11.8671875 12.078125
vt -11.859375 11.5703125
vt -11.890625 12.078125
vt -11.8828125 11.5703125
vt -11.890625 12.078125
vt -11.859375 11.5703125
vt -14.2265625 11.5703125
vt -14.21875 11.5390625
vt -14.25 11.5625
vt -7.8398438 11.59375
vt -7.8242188 11.59375
vt -7.8320312 11.5703125
vt -11.859375 11.5703125
vt -11.8671875 11.546875
vt -11.8828125 11.5703125
vt -10.203125 11.59375
vt -10.1796875 11.59375
vt -10.1875 11.5703125
vt -11.8671875 11.546875
vt -14.21875 11.5390625
vt -11.8828125 11.5703125
vt -14.2265625 11.5703125
vt -11.8828125 11.5703125
vt -14.21875 11.5390625
vt -10.6015625 10.515625
vt -10.6015625 10.3359375
vt -10.6171875 10.515625
vt -10.6171875 10.3359375
vt -10.6171875 10.515625
vt -10.6015625 10.3359375
vt -12.8046875 10.3046875
vt -12.8046875 10.515625
vt -12.78125 10.3046875
vt -12.78125 10.515625
vt -12.78125 10.3046875
vt -12.8046875 10.515625
vt -12.78125 10.3046875
vt -12.7734375 10.2890625
vt -12.8046875 10.3046875
vt -10.6171875 10.3359375
vt -10.6015625 10.3359375
vt -10.609375 10.3125
vt -12.2109375 10.3046875
vt -12.2109375 10.2890625
vt -12.2265625 10.3046875
vt -11.1875 10.3359375
vt -11.1796875 10.3359375
vt -11.1796875 10.3125
vt -12.2109375 10.2890625
vt -12.7734375 10.2890625
vt -12.2265625 10.3046875
vt -12.78125 10.3046875
vt -12.2265625 10.3046875
vt -12.7734375 10.2890625
vt -10.6640625 9.8984375
vt -10.6640625 9.8125
vt -10.6875 9.8984375
vt -10.6796875 9.8125
vt -10.6875 9.8984375
vt -10.6640625 9.8125
vt -12.703125 9.8125
vt -12.7109375 9.8984375
vt -12.6796875 9.8125
vt -12.6796875 9.8984375
vt -12.6796875 9.8125
vt -12.7109375 9.8984375
vt -11.2109375 9.8984375
vt -11.203125 9.8125
vt -11.2265625 9.8984375
vt -11.21875 9.8125
vt -11.2265625 9.8984375
vt -11.203125 9.8125
vt -12.6796875 9.8125
vt -12.671875 9.7890625
vt -12.703125 9.8125
vt -10.6796875 9.8125
vt -10.6640625 9.8125
vt -10.671875 9.78125
vt -12.1328125 9.8125
vt -12.140625 9.7890625
vt -12.15625 9.8125
vt -11.21875 9.8125
vt -11.203125 9.8125
vt -11.2109375 9.7890625
vt -12.140625 9.7890625
vt -12.671875 9.7890625
vt -12.15625 9.8125
vt -12.6796875 9.8125
vt -12.15625 9.8125
vt -12.671875 9.7890625
vt -8.71875 7.6875
vt -8.71875 7.5195312
vt -8.734375 7.6875
vt -8.7265625 7.515625
vt -8.734375 7.6875
vt -8.71875 7.5195312
vt -8.0703125 7.5429688
vt -8.0703125 7.5195312
vt -8.078125 7.5429688
vt -8.7265625 7.515625
vt -8.71875 7.5195312
vt -8.7265625 7.4960938
vt -5.6484375 7.515625
vt -5.6640625 7.5
vt -5.6640625 7.5429688
vt -11.1484375 7.515625
vt -11.1328125 7.5195312
vt -11.140625 7.5
vt -5.6640625 7.5
vt -8.0703125 7.5195312
vt -5.6640625 7.5429688
vt -8.0703125 7.5429688
vt -5.6640625 7.5429688
vt -8.0703125 7.5195312
vt -8.171875 8.6796875
vt -6.0898438 8.6796875
vt -8.1796875 8.4453125
vt -6.0976562 8.4453125
vt -6.0742188 8.4453125
vt -6.0976562 8.4453125
vt -6.0546875 8.6796875
vt -6.0898438 8.6796875
vt -8.203125 8.6875
vt -8.171875 8.6796875
vt -8.2109375 8.4453125
vt -8.1796875 8.4453125
vt -6.0546875 8.6796875
vt -5.25 8.609375
vt -6.0742188 8.4453125
vt -5.2695312 8.375
vt -11.125 8.6953125
vt -9.03125 8.703125
vt -11.1171875 8.4609375
vt -9.03125 8.4609375
vt -9.0078125 8.703125
vt -8.203125 8.6875
vt -9.0078125 8.4609375
vt -8.2109375 8.4453125
vt -9.03125 8.703125
vt -9.0078125 8.703125
vt -9.03125 8.4609375
vt -9.0078125 8.4609375
vt -8.1953125 8.421875
vt -8.1796875 8.4453125
vt -6.0898438 8.421875
vt -6.0976562 8.4453125
vt -6.0898438 8.421875
vt -6.0742188 8.4453125
vt -5.2734375 8.34375
vt -5.2695312 8.375
vt -6.5390625 9.4765625
vt -6.5390625 9.09375
vt -7.8164062 9.4609375
vt -7.8125 9.078125
vt -7.8359375 9.4609375
vt -7.828125 9.078125
vt -9.75 9.4609375
vt -9.7421875 9.078125
vt -9.765625 9.4609375
vt -9.7578125 9.078125
vt -11.046875 9.4296875
vt -11.03125 9.046875
vt -11.0625 9.4296875
vt -11.0546875 9.046875
vt -12.9765625 9.4296875
vt -12.9765625 9.046875
vt -7.8164062 9.4609375
vt -7.8125 9.078125
vt -7.8359375 9.4609375
vt -7.828125 9.078125
vt -11.046875 9.4296875
vt -11.03125 9.046875
vt -11.0625 9.4296875
vt -11.0546875 9.046875
vt -11.03125 9.015625
vt -12.9609375 9.015625
vt -11.0546875 9.046875
vt -12.9765625 9.046875
vt -9.75 9.046875
vt -11.03125 9.015625
vt -9.7578125 9.078125
vt -11.03125 9.046875
vt -7.8203125 9.046875
vt -9.75 9.046875
vt -7.828125 9.078125
vt -9.7421875 9.078125
vt -6.5507812 9.0546875
vt -7.8203125 9.046875
vt -6.5390625 9.09375
vt -7.8125 9.078125
vt -7.84375 12.078125
vt -7.8398438 11.59375
vt -10.1875 12.078125
vt -10.1796875 11.59375
vt -10.2109375 12.078125
vt -10.203125 11.59375
vt -11.8671875 12.078125
vt -11.859375 11.5703125
vt -11.890625 12.078125
vt -11.8828125 11.5703125
vt -14.234375 12.078125
vt -14.2265625 11.5703125
vt -7.828125 12.078125
vt -7.8242188 11.59375
vt -7.84375 12.078125
vt -7.8398438 11.59375
vt -10.1875 11.5703125
vt -11.8671875 11.546875
vt -10.203125 11.59375
vt -11.859375 11.5703125
vt -7.8320312 11.5703125
vt -10.1875 11.5703125
vt -7.8398438 11.59375
vt -10.1796875 11.59375
vt -6.171875 11.59375
vt -7.8320312 11.5703125
vt -6.1601562 11.6171875
vt -7.8242188 11.59375
vt -9.578125 10.515625
vt -9.578125 10.3046875
vt -10.6015625 10.515625
vt -10.6015625 10.3359375
vt -10.6171875 10.515625
vt -10.6171875 10.3359375
vt -11.1796875 10.515625
vt -11.1796875 10.3359375
vt -11.1953125 10.515625
vt -11.1875 10.3359375
vt -12.2109375 10.515625
vt -12.2109375 10.3046875
vt -12.2265625 10.515625
vt -12.2265625 10.3046875
vt -12.78125 10.515625
vt -12.78125 10.3046875
vt -11.1796875 10.515625
vt -11.1796875 10.3359375
vt -11.1953125 10.515625
vt -11.1875 10.3359375
vt -12.2109375 10.515625
vt -12.2109375 10.3046875
vt -12.2265625 10.515625
vt -12.2265625 10.3046875
vt -11.1796875 10.3125
vt -12.2109375 10.2890625
vt -11.1875 10.3359375
vt -12.2109375 10.3046875
vt -10.609375 10.3125
vt -11.1796875 10.3125
vt -10.6171875 10.3359375
vt -11.1796875 10.3359375
vt -9.5859375 10.28125
vt -10.609375 10.3125
vt -9.578125 10.3046875
vt -10.6015625 10.3359375
vt -9.7421875 9.8984375
vt -9.7421875 9.8203125
vt -10.6640625 9.8984375
vt -10.6640625 9.8125
vt -10.6875 9.8984375
vt -10.6796875 9.8125
vt -11.2109375 9.8984375
vt -11.203125 9.8125
vt -11.2265625 9.8984375
vt -11.21875 9.8125
vt -12.140625 9.8984375
vt -12.1328125 9.8125
vt -12.15625 9.8984375
vt -12.15625 9.8125
vt -12.6796875 9.8984375
vt -12.6796875 9.8125
vt -12.140625 9.8984375
vt -12.1328125 9.8125
vt -12.15625 9.8984375
vt -12.15625 9.8125
vt -11.2109375 9.7890625
vt -12.140625 9.7890625
vt -11.21875 9.8125
vt -12.1328125 9.8125
vt -10.671875 9.78125
vt -11.2109375 9.7890625
vt -10.6796875 9.8125
vt -11.203125 9.8125
vt -9.7578125 9.78125
vt -10.671875 9.78125
vt -9.7421875 9.8203125
vt -10.6640625 9.8125
vt -8.0859375 7.6875
vt -8.078125 7.5429688
vt -8.71875 7.6875
vt -8.71875 7.5195312
vt -8.734375 7.6875
vt -8.7265625 7.515625
vt -11.1328125 7.6875
vt -11.1328125 7.5195312
vt -11.15625 7.6875
vt -11.1484375 7.515625
vt -11.796875 7.6875
vt -11.796875 7.515625
vt -5.6679688 7.6875
vt -5.6640625 7.5429688
vt -8.0703125 7.6875
vt -8.0703125 7.5429688
vt -8.078125 7.5429688
vt -8.0859375 7.6875
vt -8.0703125 7.5429688
vt -8.0703125 7.6875
vt -11.1328125 7.6875
vt -11.1328125 7.5195312
vt -11.15625 7.6875
vt -11.1484375 7.515625
vt -5.6484375 7.6875
vt -5.6484375 7.515625
vt -5.6679688 7.6875
vt -5.6640625 7.5429688
vt -11.140625 7.5
vt -11.7890625 7.4960938
vt -11.1484375 7.515625
vt -11.796875 7.515625
vt -8.7265625 7.4960938
vt -11.140625 7.5
vt -8.7265625 7.515625
vt -11.1328125 7.5195312
vt -8.0703125 7.5195312
vt -8.7265625 7.4960938
vt -8.078125 7.5429688
vt -8.71875 7.5195312
vt 2.4355469 -14.0859375
vt 2.4667969 -16.1875
vt 1.6259766 -14.1015625
vt 1.6591797 -16.1875
vt 2.5449219 -10.7109375
vt 2.59375 -11.9765625
vt 0.640625 -10.7890625
vt 0.6855469 -12.0546875
vt -0.89453125 -14.421875
vt 0.76123047 -14.40625
vt -0.9003906 -16.765625
vt 0.76220703 -16.75
vt 4.390625 -11.5546875
vt 5.40625 -11.5390625
vt 4.4101562 -12.109375
vt 5.4335938 -12.09375
vt 3.390625 -12.078125
vt 3.3828125 -11.1640625
vt 3.9082031 -12.078125
vt 3.9023438 -11.15625
vt -2.1640625 -14.375
vt -1.5253906 -14.359375
vt -2.1425781 -16.765625
vt -1.5009766 -16.75
vt 7.2460938 -1.7607422
vt 7.25 -0.9897461
vt 9.21875 -1.7724609
vt 9.21875 -1.0009766
vt 6.0390625 0.1538086
vt 6.1015625 -1.7275391
vt 4.78125 0.11187744
vt 4.8398438 -1.7666016
vt 3.3105469 5.6875
vt 5.65625 5.7421875
vt 3.3320312 4.0234375
vt 5.6757812 4.0820312
vt 4.078125 2.0839844
vt 3.5195312 2.0996094
vt 4.078125 3.1054688
vt 3.5195312 3.1191406
vt 5.0195312 2.1679688
vt 4.5039062 2.15625
vt 4.9960938 3.0859375
vt 4.4804688 3.0683594
vt 3.8105469 1.4511719
vt 6.2070312 1.3701172
vt 3.78125 0.8095703
vt 6.1757812 0.73291016
vn -0.12597656 0.984375 0.122680664
vn -0.12597656 0.984375 0.122680664
vn -0.12597656 0.984375 0.122680664
vn 0.122680664 0.984375 0.12597656
vn 0.122680664 0.984375 0.12597656
vn 0.122680664 0.984375 0.12597656
vn -0.1227417 0.984375 -0.12597656
vn -0.1227417 0.984375 -0.12597656
vn -0.1227417 0.984375 -0.12597656
vn 0.12597656 0.984375 -0.122680664
vn 0.12597656 0.984375 -0.122680664
vn 0.12597656 0.984375 -0.122680664
vn 0.23022461 0.93652344 0.26489258
vn 0.23022461 0.93652344 0.26489258
vn 0.23022461 0.93652344 0.26489258
vn -0.26635742 0.9355469 0.23144531
vn -0.26635742 0.9355469 0.23144531
vn -0.26635742 0.9355469 0.23144531
vn 0.29785156 0.91845703 -0.2602539
vn 0.29785156 0.91845703 -0.2602539
vn 0.29785156 0.91845703 -0.2602539
vn -0.31347656 0.9135742 -0.25976562
vn -0.31347656 0.9135742 -0.25976562
vn -0.31347656 0.9135742 -0.25976562
vn 0.65771484 0.27954102 0.69921875
vn 0.65771484 0.27954102 0.69921875
vn 0.65771484 0.27954102 0.69921875
vn 0.6357422 0.24743652 0.73095703
vn 0.6357422 0.24743652 0.73095703
vn 0.6357422 0.24743652 0.73095703
vn -0.69433594 0.29785156 0.65527344
vn -0.69433594 0.29785156 0.65527344
vn -0.69433594 0.29785156 0.65527344
vn -0.7285156 0.26391602 0.63183594
vn -0.7285156 0.26391602 0.63183594
vn -0.7285156 0.26391602 0.63183594
vn 0.63720703 0.53125 -0.55810547
vn 0.63720703 0.53125 -0.55810547
vn 0.63720703 0.53125 -0.55810547
vn -0.5698242 0.50634766 -0.64746094
vn -0.5698242 0.50634766 -0.64746094
vn -0.5698242 0.50634766 -0.64746094
vn -0.6347656 0.5654297 -0.52685547
vn -0.6347656 0.5654297 -0.52685547
vn -0.6347656 0.5654297 -0.52685547
vn 0.5996094 0.4970703 -0.6274414
vn 0.5996094 0.4970703 -0.6274414
vn 0.5996094 0.4970703 -0.6274414
vn 0.34472656 0.7182617 0.6044922
vn 0.34472656 0.7182617 0.6044922
vn 0.34472656 0.7182617 0.6044922
vn -0.42089844 0.67041016 0.6113281
vn -0.42089844 0.67041016 0.6113281
vn -0.42089844 0.67041016 0.6113281
vn 0.49169922 0.49829102 -0.71435547
vn 0.49169922 0.49829102 -0.71435547
vn 0.49169922 0.49829102 -0.71435547
vn -0.37573242 0.65234375 -0.6586914
vn -0.37573242 0.65234375 -0.6586914
vn -0.37573242 0.65234375 -0.6586914
vn -0.011070251 0.5522461 -0.8334961
vn -0.011070251 0.5522461 -0.8334961
vn -0.011070251 0.5522461 -0.8334961
vn -0.015991211 0.64208984 -0.7661133
vn -0.015991211 0.64208984 -0.7661133
vn -0.015991211 0.64208984 -0.7661133
vn 0.5595703 0.82910156 -0.0013418198
vn 0.5595703 0.82910156 -0.0013418198
vn 0.5595703 0.82910156 -0.0013418198
vn 0.6870117 0.7270508 -0.00022506714
vn 0.6870117 0.7270508 -0.00022506714
vn 0.6870117 0.7270508 -0.00022506714
vn 0.44995117 0.66015625 0.6015625
vn 0.44995117 0.66015625 0.6015625
vn 0.44995117 0.66015625 0.6015625
vn -0.64404297 0.59375 0.4819336
vn -0.64404297 0.59375 0.4819336
vn -0.64404297 0.59375 0.4819336
vn 0.7246094 0.42504883 -0.5419922
vn 0.7246094 0.42504883 -0.5419922
vn 0.7246094 0.42504883 -0.5419922
vn -0.4831543 0.5908203 -0.6459961
vn -0.4831543 0.5908203 -0.6459961
vn -0.4831543 0.5908203 -0.6459961
vn 0.015701294 0.55029297 -0.83496094
vn 0.015701294 0.55029297 -0.83496094
vn 0.015701294 0.55029297 -0.83496094
vn 0.013015747 0.64453125 -0.76416016
vn 0.013015747 0.64453125 -0.76416016
vn 0.013015747 0.64453125 -0.76416016
vn 0.7397461 0.6723633 0.028518677
vn 0.7397461 0.6723633 0.028518677
vn 0.7397461 0.6723633 0.028518677
vn 0.8334961 0.55126953 0.036376953
vn 0.8334961 0.55126953 0.036376953
vn 0.8334961 0.55126953 0.036376953
vn 0.5727539 0.7290039 0.37548828
vn 0.5727539 0.7290039 0.37548828
vn 0.5727539 0.7290039 0.37548828
vn -0.48364258 0.73535156 0.47509766
vn -0.48364258 0.73535156 0.47509766
vn -0.48364258 0.73535156 0.47509766
vn -0.58496094 0.55078125 -0.59521484
vn -0.58496094 0.55078125 -0.59521484
vn -0.58496094 0.55078125 -0.59521484
vn 0.73095703 0.35351562 0.5834961
vn 0.73095703 0.35351562 0.5834961
vn 0.73095703 0.35351562 0.5834961
vn 0.74365234 0.45776367 0.48754883
vn 0.74365234 0.45776367 0.48754883
vn 0.74365234 0.45776367 0.48754883
vn -0.00084400177 0.5878906 -0.80859375
vn -0.00084400177 0.5878906 -0.80859375
vn -0.00084400177 0.5878906 -0.80859375
vn 0.71728516 0.69677734 -0.006164551
vn 0.71728516 0.69677734 -0.006164551
vn 0.71728516 0.69677734 -0.006164551
vn 0.8491211 0.52783203 0.0011434555
vn 0.8491211 0.52783203 0.0011434555
vn 0.8491211 0.52783203 0.0011434555
vn 0.85302734 0.52197266 -0.0073280334
vn 0.85302734 0.52197266 -0.0073280334
vn 0.85302734 0.52197266 -0.0073280334
vn 0.44995117 0.66015625 0.6015625
vn 0.44995117 0.66015625 0.6015625
vn 0.44995117 0.66015625 0.6015625
vn -0.64404297 0.59375 0.4819336
vn -0.64404297 0.59375 0.4819336
vn -0.64404297 0.59375 0.4819336
vn 0.7246094 0.42504883 -0.5419922
vn 0.7246094 0.42504883 -0.5419922
vn 0.7246094 0.42504883 -0.5419922
vn -0.4831543 0.5908203 -0.6459961
vn -0.4831543 0.5908203 -0.6459961
vn -0.4831543 0.5908203 -0.6459961
vn 0.022415161 0.55078125 -0.83447266
vn 0.022415161 0.55078125 -0.83447266
vn 0.022415161 0.55078125 -0.83447266
vn 0.0184021 0.64453125 -0.76464844
vn 0.0184021 0.64453125 -0.76464844
vn 0.0184021 0.64453125 -0.76464844
vn 0.7446289 0.66748047 0.006713867
vn 0.7446289 0.66748047 0.006713867
vn 0.7446289 0.66748047 0.006713867
vn 0.8354492 0.5498047 0.008476257
vn 0.8354492 0.5498047 0.008476257
vn 0.8354492 0.5498047 0.008476257
vn -0.62646484 0.48535156 0.61035156
vn -0.62646484 0.48535156 0.61035156
vn -0.62646484 0.48535156 0.61035156
vn -0.62646484 0.48535156 0.61035156
vn 0.61035156 0.48510742 0.62646484
vn 0.61035156 0.48510742 0.62646484
vn 0.61035156 0.48510742 0.62646484
vn 0.61035156 0.48535156 0.62646484
vn -0.61035156 0.48510742 -0.62646484
vn -0.61035156 0.48510742 -0.62646484
vn -0.61035156 0.48510742 -0.62646484
vn -0.61035156 0.48510742 -0.62646484
vn 0.62646484 0.48510742 -0.61035156
vn 0.62646484 0.48510742 -0.61035156
vn 0.62646484 0.48510742 -0.61035156
vn 0.62646484 0.48535156 -0.61035156
vn -0.0020580292 0.9873047 0.15795898
vn -0.0020580292 0.9873047 0.15795898
vn -0.0020580292 0.9873047 0.15795898
vn -0.0020580292 0.9873047 0.15795898
vn 0.34545898 0.93847656 0.005432129
vn 0.34545898 0.93847656 0.005432129
vn 0.34545898 0.93847656 0.005432129
vn 0.34228516 0.9394531 0.0054359436
vn 0.0020580292 0.9873047 -0.15795898
vn 0.0020580292 0.9873047 -0.15795898
vn 0.0020580292 0.9873047 -0.15795898
vn 0.0020580292 0.9873047 -0.15795898
vn -0.34545898 0.93847656 -0.005432129
vn -0.34545898 0.93847656 -0.005432129
vn -0.34545898 0.93847656 -0.005432129
vn -0.34228516 0.9394531 -0.0054359436
vn -0.010253906 0.6171875 0.7866211
vn -0.010253906 0.6171875 0.7866211
vn -0.010253906 0.6171875 0.7866211
vn -0.010253906 0.6171875 0.7866211
vn 0.7866211 0.6171875 0.012367249
vn 0.7866211 0.6171875 0.012367249
vn 0.7866211 0.6171875 0.012367249
vn 0.7866211 0.6171875 0.012367249
vn 0.010253906 0.6171875 -0.7866211
vn 0.010253906 0.6171875 -0.7866211
vn 0.010253906 0.6171875 -0.7866211
vn 0.010253906 0.6171875 -0.7866211
vn -0.7866211 0.6171875 -0.012367249
vn -0.7866211 0.6171875 -0.012367249
vn -0.7866211 0.6171875 -0.012367249
vn -0.7866211 0.6171875 -0.012367249
vn -0.0036811829 0.9355469 0.35302734
vn -0.0036811829 0.9355469 0.35302734
vn -0.0036811829 0.9355469 0.35302734
vn -0.0032672882 0.9399414 0.34155273
vn -0.46362305 0.88623047 -0.0043411255
vn -0.46362305 0.88623047 -0.0043411255
vn -0.46362305 0.88623047 -0.0043411255
vn -0.45336914 0.8911133 -0.0041007996
vn 0.003068924 0.9091797 -0.41601562
vn 0.003068924 0.9091797 -0.41601562
vn 0.003068924 0.9091797 -0.41601562
vn 0.0032043457 0.90722656 -0.4206543
vn 0.48608398 0.87402344 0.0049057007
vn 0.48608398 0.87402344 0.0049057007
vn 0.48608398 0.87402344 0.0049057007
vn 0.44482422 0.8955078 0.0039749146
vn -0.009643555 0.37768555 0.92578125
vn -0.009643555 0.37768555 0.92578125
vn -0.009643555 0.37768555 0.92578125
vn -0.009643555 0.3779297 0.92578125
vn -0.90234375 0.4309082 -0.0087509155
vn -0.90234375 0.4309082 -0.0087509155
vn -0.90234375 0.4309082 -0.0087509155
vn -0.9003906 0.43530273 -0.008682251
vn 0.005924225 0.61621094 -0.78759766
vn 0.005924225 0.61621094 -0.78759766
vn 0.005924225 0.61621094 -0.78759766
vn 0.0057868958 0.62060547 -0.7841797
vn 0.93115234 0.3647461 0.009216309
vn 0.93115234 0.3647461 0.009216309
vn 0.93115234 0.3647461 0.009216309
vn 0.92871094 0.3708496 0.009124756
vn 0.4638672 0.35180664 0.8129883
vn 0.4638672 0.35180664 0.8129883
vn 0.4638672 0.35180664 0.8129883
vn 0.4638672 0.35180664 0.8129883
vn -0.5283203 0.36450195 0.76708984
vn -0.5283203 0.36450195 0.76708984
vn -0.5283203 0.36450195 0.76708984
vn -0.52783203 0.36450195 0.76708984
vn 0.5283203 0.36450195 -0.76708984
vn 0.5283203 0.36450195 -0.76708984
vn 0.5283203 0.36450195 -0.76708984
vn 0.5283203 0.36450195 -0.76708984
vn -0.4638672 0.35180664 -0.8129883
vn -0.4638672 0.35180664 -0.8129883
vn -0.4638672 0.35180664 -0.8129883
vn -0.4638672 0.35180664 -0.8129883
vn -0.033203125 0.65722656 0.7529297
vn -0.033203125 0.65722656 0.7529297
vn -0.033203125 0.65722656 0.7529297
vn -0.033111572 0.65234375 0.7573242
vn -0.60546875 0.79589844 0.0014533997
vn -0.60546875 0.79589844 0.0014533997
vn -0.60546875 0.79589844 0.0014533997
vn -0.63623047 0.7714844 0.0012359619
vn -0.025848389 0.41235352 0.91064453
vn -0.025848389 0.41235352 0.91064453
vn -0.025848389 0.41235352 0.91064453
vn -0.025848389 0.41235352 0.91064453
vn -0.81103516 0.58496094 0.001947403
vn -0.81103516 0.58496094 0.001947403
vn -0.81103516 0.58496094 0.001947403
vn -0.81103516 0.58496094 0.001947403
vn -0.004917145 0.4116211 -0.9111328
vn -0.004917145 0.4116211 -0.9111328
vn -0.004917145 0.4116211 -0.9111328
vn -0.0049209595 0.4116211 -0.9111328
vn 0.81103516 0.58496094 -0.0019464493
vn 0.81103516 0.58496094 -0.0019464493
vn 0.81103516 0.58496094 -0.0019464493
vn 0.81103516 0.58496094 -0.0019464493
vn 0.5703125 0.3046875 0.7626953
vn 0.5703125 0.3046875 0.7626953
vn 0.5703125 0.3046875 0.7626953
vn 0.5703125 0.3046875 0.7626953
vn -0.7626953 0.3046875 0.5703125
vn -0.7626953 0.3046875 0.5703125
vn -0.7626953 0.3046875 0.5703125
vn -0.7626953 0.3046875 0.5703125
vn 0.7626953 0.3046875 -0.5703125
vn 0.7626953 0.3046875 -0.5703125
vn 0.7626953 0.3046875 -0.5703125
vn 0.7626953 0.3046875 -0.5703125
vn -0.5703125 0.3046875 -0.7626953
vn -0.5703125 0.3046875 -0.7626953
vn -0.5703125 0.3046875 -0.7626953
vn -0.5703125 0.3046875 -0.7626953
vn -0.014404297 0.6425781 0.7661133
vn -0.014404297 0.6425781 0.7661133
vn -0.014404297 0.6425781 0.7661133
vn -0.013336182 0.6723633 0.7402344
vn -0.77685547 0.62890625 -0.029937744
vn -0.77685547 0.62890625 -0.029937744
vn -0.77685547 0.62890625 -0.029937744
vn -0.79052734 0.6118164 -0.03100586
vn -0.017150879 0.40942383 0.9121094
vn -0.017150879 0.40942383 0.9121094
vn -0.017150879 0.40942383 0.9121094
vn -0.017150879 0.40966797 0.9121094
vn -0.9111328 0.4104004 -0.035125732
vn -0.9111328 0.4104004 -0.035125732
vn -0.9111328 0.4104004 -0.035125732
vn -0.9111328 0.4104004 -0.035125732
vn 0.017150879 0.40942383 -0.9121094
vn 0.017150879 0.40942383 -0.9121094
vn 0.017150879 0.40942383 -0.9121094
vn 0.017150879 0.40942383 -0.9121094
vn 0.9111328 0.4104004 0.035125732
vn 0.9111328 0.4104004 0.035125732
vn 0.9111328 0.4104004 0.035125732
vn 0.9111328 0.4104004 0.035125732
vn 0.65283203 0.4025879 -0.64160156
vn 0.65283203 0.4025879 -0.64160156
vn 0.65283203 0.4025879 -0.64160156
vn 0.65478516 0.3972168 -0.6430664
vn 0.65478516 0.3972168 -0.6430664
vn -0.65478516 0.3972168 0.6430664
vn -0.65478516 0.3972168 0.6430664
vn -0.65478516 0.3972168 0.6430664
vn -0.65478516 0.3972168 0.6430664
vn -0.6430664 0.3972168 -0.65478516
vn -0.6430664 0.3972168 -0.65478516
vn -0.6430664 0.3972168 -0.65478516
vn -0.6430664 0.3972168 -0.65478516
vn -0.0012893677 0.8041992 0.59472656
vn -0.0012893677 0.8041992 0.59472656
vn -0.0012893677 0.8041992 0.59472656
vn -0.0012388229 0.8051758 0.5932617
vn -0.7753906 0.63183594 0.0067253113
vn -0.7753906 0.63183594 0.0067253113
vn -0.7753906 0.63183594 0.0067253113
vn -0.7866211 0.6171875 0.0061798096
vn 0.00048041344 0.52783203 -0.8491211
vn 0.00048041344 0.52783203 -0.8491211
vn 0.00048041344 0.52783203 -0.8491211
vn 0.0004825592 0.52197266 -0.85302734
vn 0.0004825592 0.52197266 -0.85302734
vn -0.0018510818 0.52197266 0.85302734
vn -0.0018510818 0.52197266 0.85302734
vn -0.0018510818 0.52197266 0.85302734
vn -0.0018501282 0.52197266 0.85302734
vn -0.85302734 0.52197266 0.0074005127
vn -0.85302734 0.52197266 0.0074005127
vn -0.85302734 0.52197266 0.0074005127
vn -0.85302734 0.52197266 0.007396698
vn 0.5703125 0.3046875 0.7626953
vn 0.5703125 0.3046875 0.7626953
vn 0.5703125 0.3046875 0.7626953
vn 0.5708008 0.3046875 0.7626953
vn -0.7626953 0.3046875 0.5703125
vn -0.7626953 0.3046875 0.5703125
vn -0.7626953 0.3046875 0.5703125
vn -0.7626953 0.3046875 0.5703125
vn 0.7626953 0.3046875 -0.5703125
vn 0.7626953 0.3046875 -0.5703125
vn 0.7626953 0.3046875 -0.5703125
vn 0.7626953 0.3046875 -0.5703125
vn -0.5703125 0.3046875 -0.7626953
vn -0.5703125 0.3046875 -0.7626953
vn -0.5703125 0.3046875 -0.7626953
vn -0.5703125 0.3046875 -0.7626953
vn -0.020553589 0.6435547 0.7651367
vn -0.020553589 0.6435547 0.7651367
vn -0.020553589 0.6435547 0.7651367
vn -0.01902771 0.6713867 0.74072266
vn -0.7807617 0.625 -0.0070343018
vn -0.7807617 0.625 -0.0070343018
vn -0.7807617 0.625 -0.0070343018
vn -0.7885742 0.6147461 -0.0071792603
vn -0.024490356 0.4099121 0.9116211
vn -0.024490356 0.4099121 0.9116211
vn -0.024490356 0.4099121 0.9116211
vn -0.024490356 0.4099121 0.9116211
vn -0.91259766 0.4091797 -0.008224487
vn -0.91259766 0.4091797 -0.008224487
vn -0.91259766 0.4091797 -0.008224487
vn -0.91259766 0.4091797 -0.008224487
vn 0.024490356 0.4099121 -0.9116211
vn 0.024490356 0.4099121 -0.9116211
vn 0.024490356 0.4099121 -0.9116211
vn 0.024490356 0.4099121 -0.9116211
vn 0.91259766 0.4091797 0.008224487
vn 0.91259766 0.4091797 0.008224487
vn 0.91259766 0.4091797 0.008224487
vn 0.91259766 0.4091797 0.008224487
vn 0.6977539 0.005886078 0.7163086
vn 0.6977539 0.005886078 0.7163086
vn 0.6977539 0.005886078 0.7163086
vn 0.6977539 0.0058898926 0.7163086
vn 0.6977539 0.0058898926 0.7163086
vn 0.6977539 0.0058898926 0.7163086
vn -0.48901367 -0.73046875 0.47631836
vn -0.48901367 -0.73046875 0.47631836
vn -0.48901367 -0.73046875 0.47631836
vn 0.47631836 -0.73046875 0.48901367
vn 0.47631836 -0.73046875 0.48901367
vn 0.47631836 -0.73046875 0.48901367
vn -0.47631836 -0.73046875 -0.48901367
vn -0.47631836 -0.73046875 -0.48901367
vn -0.47631836 -0.73046875 -0.48901367
vn 0.48901367 -0.73046875 -0.47631836
vn 0.48901367 -0.73046875 -0.47631836
vn 0.48901367 -0.73046875 -0.47631836
vn 0.007183075 -0.83447266 -0.55126953
vn 0.007183075 -0.83447266 -0.55126953
vn 0.007183075 -0.83447266 -0.55126953
vn 0.007183075 -0.83447266 -0.55126953
vn 0.007183075 -0.83447266 -0.55126953
vn 0.007183075 -0.83447266 -0.55126953
vn 0.55126953 -0.83447266 0.008666992
vn 0.55126953 -0.83447266 0.008666992
vn 0.55126953 -0.83447266 0.008666992
vn 0.55126953 -0.83447266 0.008666992
vn 0.55126953 -0.83447266 0.008666992
vn 0.55126953 -0.83447266 0.008666992
vn 0.68310547 -0.0019550323 0.73046875
vn 0.68310547 -0.0019550323 0.73046875
vn 0.68310547 -0.0019550323 0.73046875
vn 0.6850586 -0.0017652512 0.7285156
vn 0.6850586 -0.0017652512 0.7285156
vn 0.6850586 -0.0017652512 0.7285156
vn -0.66064453 0.00022768974 -0.75097656
vn -0.66064453 0.00022768974 -0.75097656
vn -0.66064453 0.00022768974 -0.75097656
vn -0.6660156 0.0006790161 -0.74609375
vn -0.6660156 0.0006790161 -0.74609375
vn -0.6660156 0.0006790161 -0.74609375
vn 0.40454102 -0.80566406 0.43237305
vn 0.40454102 -0.80566406 0.43237305
vn 0.40454102 -0.80566406 0.43237305
vn -0.45410156 -0.78271484 0.4255371
vn -0.45410156 -0.78271484 0.4255371
vn -0.45410156 -0.78271484 0.4255371
vn 0.5366211 -0.6308594 -0.5600586
vn 0.5366211 -0.6308594 -0.5600586
vn 0.5366211 -0.6308594 -0.5600586
vn -0.5229492 -0.6191406 -0.5859375
vn -0.5229492 -0.6191406 -0.5859375
vn -0.5229492 -0.6191406 -0.5859375
vn -0.011550903 0.0021362305 1
vn -0.011550903 0.0021362305 1
vn -0.011550903 0.0021362305 1
vn -0.011474609 0.002439499 1
vn -0.011474609 0.002439499 1
vn -0.011474609 0.002439499 1
vn 0.49560547 0.0017766953 0.86865234
vn 0.49560547 0.0017766953 0.86865234
vn 0.49560547 0.0017766953 0.86865234
vn 0.49560547 0.0017766953 0.86865234
vn 0.49560547 0.0017766953 0.86865234
vn 0.49560547 0.0017766953 0.86865234
vn -0.49536133 0 -0.86865234
vn -0.49536133 0 -0.86865234
vn -0.49536133 0 -0.86865234
vn -0.49536133 -4.7683716E-07 -0.86865234
vn -0.49536133 -4.7683716E-07 -0.86865234
vn -0.49536133 -4.7683716E-07 -0.86865234
vn 0.56689453 -5.364418E-07 -0.82373047
vn 0.56689453 -5.364418E-07 -0.82373047
vn 0.56689453 -5.364418E-07 -0.82373047
vn 0.56689453 0 -0.82373047
vn 0.56689453 0 -0.82373047
vn 0.56689453 0 -0.82373047
vn 0.27075195 -0.83740234 0.47460938
vn 0.27075195 -0.83740234 0.47460938
vn 0.27075195 -0.83740234 0.47460938
vn -0.32202148 -0.8232422 0.4675293
vn -0.32202148 -0.8232422 0.4675293
vn -0.32202148 -0.8232422 0.4675293
vn 0.44677734 -0.61621094 -0.6489258
vn 0.44677734 -0.61621094 -0.6489258
vn 0.44677734 -0.61621094 -0.6489258
vn -0.36547852 -0.67529297 -0.640625
vn -0.36547852 -0.67529297 -0.640625
vn -0.36547852 -0.67529297 -0.640625
vn 0.5703125 -0.82128906 0.00033807755
vn 0.5703125 -0.82128906 0.00033807755
vn 0.5703125 -0.82128906 0.00033807755
vn 0.45898438 -0.8886719 -0.001086235
vn 0.45898438 -0.8886719 -0.001086235
vn 0.45898438 -0.8886719 -0.001086235
vn -0.80078125 0.0042152405 0.5991211
vn -0.80078125 0.0042152405 0.5991211
vn -0.80078125 0.0042152405 0.5991211
vn -0.80078125 0.004219055 0.5991211
vn -0.80078125 0.004219055 0.5991211
vn -0.80078125 0.004219055 0.5991211
vn 0.5991211 0.0036811829 0.80078125
vn 0.5991211 0.0036811829 0.80078125
vn 0.5991211 0.0036811829 0.80078125
vn 0.5991211 0.0036792755 0.80078125
vn 0.5991211 0.0036792755 0.80078125
vn 0.5991211 0.0036792755 0.80078125
vn 0.3642578 -0.7939453 0.48706055
vn 0.3642578 -0.7939453 0.48706055
vn 0.3642578 -0.7939453 0.48706055
vn -0.51660156 -0.76416016 0.38623047
vn -0.51660156 -0.76416016 0.38623047
vn -0.51660156 -0.76416016 0.38623047
vn 0.6748047 -0.5385742 -0.5048828
vn 0.6748047 -0.5385742 -0.5048828
vn 0.6748047 -0.5385742 -0.5048828
vn -0.4724121 -0.6147461 -0.63134766
vn -0.4724121 -0.6147461 -0.63134766
vn -0.4724121 -0.6147461 -0.63134766
vn 0.7426758 -0.6689453 0.033935547
vn 0.7426758 -0.6689453 0.033935547
vn 0.7426758 -0.6689453 0.033935547
vn 0.6479492 -0.76123047 0.025100708
vn 0.6479492 -0.76123047 0.025100708
vn 0.6479492 -0.76123047 0.025100708
vn -0.7133789 0.0124053955 0.7006836
vn -0.7133789 0.0124053955 0.7006836
vn -0.7133789 0.0124053955 0.7006836
vn -0.7133789 0.012413025 0.7006836
vn -0.7133789 0.012413025 0.7006836
vn -0.7133789 0.012413025 0.7006836
vn 0.78125 0.01083374 0.62402344
vn 0.78125 0.01083374 0.62402344
vn 0.78125 0.01083374 0.62402344
vn 0.78125 0.01083374 0.62402344
vn 0.78125 0.01083374 0.62402344
vn 0.78125 0.01083374 0.62402344
vn -0.7006836 -3.4570694E-06 -0.7133789
vn -0.7006836 -3.4570694E-06 -0.7133789
vn -0.7006836 -3.4570694E-06 -0.7133789
vn -0.7006836 3.5762787E-06 -0.7133789
vn -0.7006836 3.5762787E-06 -0.7133789
vn -0.7006836 3.5762787E-06 -0.7133789
vn 0.5024414 -0.7661133 0.40112305
vn 0.5024414 -0.7661133 0.40112305
vn 0.5024414 -0.7661133 0.40112305
vn -0.45996094 -0.76416016 0.45214844
vn -0.45996094 -0.76416016 0.45214844
vn -0.45996094 -0.76416016 0.45214844
vn 0.6010742 -0.5385742 -0.59033203
vn 0.6010742 -0.5385742 -0.59033203
vn 0.6010742 -0.5385742 -0.59033203
vn -0.5527344 -0.6147461 -0.5625
vn -0.5527344 -0.6147461 -0.5625
vn -0.5527344 -0.6147461 -0.5625
vn 0.7416992 -0.67041016 0.0024166107
vn 0.7416992 -0.67041016 0.0024166107
vn 0.7416992 -0.67041016 0.0024166107
vn 0.6303711 -0.7763672 -0.0053901672
vn 0.6303711 -0.7763672 -0.0053901672
vn 0.6303711 -0.7763672 -0.0053901672
vn -0.80078125 0.004512787 0.5991211
vn -0.80078125 0.004512787 0.5991211
vn -0.80078125 0.004512787 0.5991211
vn -0.80078125 0.0045166016 0.5991211
vn -0.80078125 0.0045166016 0.5991211
vn -0.80078125 0.0045166016 0.5991211
vn 0.3642578 -0.7939453 0.48706055
vn 0.3642578 -0.7939453 0.48706055
vn 0.3642578 -0.7939453 0.48706055
vn -0.51660156 -0.76416016 0.38623047
vn -0.51660156 -0.76416016 0.38623047
vn -0.51660156 -0.76416016 0.38623047
vn 0.9370117 -0.29174805 -0.19104004
vn 0.9370117 -0.29174805 -0.19104004
vn 0.9370117 -0.29174805 -0.19104004
vn -0.4724121 -0.6147461 -0.63134766
vn -0.4724121 -0.6147461 -0.63134766
vn -0.4724121 -0.6147461 -0.63134766
vn 0.95214844 -0.3059082 0.013259888
vn 0.95214844 -0.3059082 0.013259888
vn 0.95214844 -0.3059082 0.013259888
vn 0.65527344 -0.7553711 0.005947113
vn 0.65527344 -0.7553711 0.005947113
vn 0.65527344 -0.7553711 0.005947113
vn -1 -1.7881393E-06 -0.015716553
vn -1 -1.7881393E-06 -0.015716553
vn -1 -1.7881393E-06 -0.015716553
vn -1 -2.7298927E-05 -0.015716553
vn -0.7163086 0.005882263 0.6977539
vn -0.7163086 0.005882263 0.6977539
vn -0.7163086 0.005882263 0.6977539
vn -0.7163086 0.005882263 0.6977539
vn -0.6977539 0 -0.7163086
vn -0.6977539 0 -0.7163086
vn -0.6977539 0 -0.7163086
vn -0.6977539 -1.847744E-06 -0.7163086
vn -0.013031006 0.008323669 1
vn -0.013031006 0.008323669 1
vn -0.013031006 0.008323669 1
vn -0.013031006 0.008323669 1
vn 1 2.2113323E-05 0.015716553
vn 1 2.2113323E-05 0.015716553
vn 1 2.2113323E-05 0.015716553
vn 1 0 0.015716553
vn 0.013031006 1.7285347E-06 -1
vn 0.013031006 1.7285347E-06 -1
vn 0.013031006 1.7285347E-06 -1
vn 0.013031006 3.5762787E-06 -1
vn 0.7163086 1.847744E-06 -0.6977539
vn 0.7163086 1.847744E-06 -0.6977539
vn 0.7163086 1.847744E-06 -0.6977539
vn 0.7163086 1.2516975E-06 -0.6977539
vn -0.55126953 -0.83447266 -0.008666992
vn -0.55126953 -0.83447266 -0.008666992
vn -0.55126953 -0.83447266 -0.008666992
vn -0.55126953 -0.83447266 -0.008666992
vn -0.007183075 -0.83447266 0.55126953
vn -0.007183075 -0.83447266 0.55126953
vn -0.007183075 -0.83447266 0.55126953
vn -0.007183075 -0.83447266 0.55126953
vn -0.010414124 -0.0023899078 1
vn -0.010414124 -0.0023899078 1
vn -0.010414124 -0.0023899078 1
vn -0.010414124 -0.0023880005 1
vn -1 4.8577785E-05 -0.009811401
vn -1 4.8577785E-05 -0.009811401
vn -1 4.8577785E-05 -0.009811401
vn -1 5.0604343E-05 -0.009811401
vn 0.007522583 0.0006661415 -1
vn 0.007522583 0.0006661415 -1
vn 0.007522583 0.0006661415 -1
vn 0.007522583 0.0006656647 -1
vn 1 -6.3717365E-05 0.009811401
vn 1 -6.3717365E-05 0.009811401
vn 1 -6.3717365E-05 0.009811401
vn 1 -6.055832E-05 0.009811401
vn -0.72753906 -0.0014457703 0.68603516
vn -0.72753906 -0.0014457703 0.68603516
vn -0.72753906 -0.0014457703 0.68603516
vn -0.7290039 -0.001616478 0.68408203
vn 0.69091797 0.00027132034 -0.72314453
vn 0.69091797 0.00027132034 -0.72314453
vn 0.69091797 0.00027132034 -0.72314453
vn 0.6923828 0.00014674664 -0.7216797
vn 0.64208984 -0.76660156 0.006298065
vn 0.64208984 -0.76660156 0.006298065
vn 0.64208984 -0.76660156 0.006298065
vn 0.63720703 -0.7705078 0.0061454773
vn 0.005847931 -0.60009766 -0.7998047
vn 0.005847931 -0.60009766 -0.7998047
vn 0.005847931 -0.60009766 -0.7998047
vn 0.0060539246 -0.59375 -0.8046875
vn -0.6479492 -0.76171875 -0.0064201355
vn -0.6479492 -0.76171875 -0.0064201355
vn -0.6479492 -0.76171875 -0.0064201355
vn -0.64990234 -0.7597656 -0.0064849854
vn -0.0053138733 -0.8305664 0.5571289
vn -0.0053138733 -0.8305664 0.5571289
vn -0.0053138733 -0.8305664 0.5571289
vn -0.0059432983 -0.82128906 0.5703125
vn -1 0.00019013882 0.002401352
vn -1 0.00019013882 0.002401352
vn -1 0.00019013882 0.002401352
vn -1 -9.536743E-07 0.0023651123
vn 0.011474609 0 -1
vn 0.011474609 0 -1
vn 0.011474609 0 -1
vn 0.011474609 1.6093254E-06 -1
vn 1 0 -0.0023994446
vn 1 0 -0.0023994446
vn 1 0 -0.0023994446
vn 1 -0.00016582012 -0.0023651123
vn -0.5673828 0.0021076202 0.82373047
vn -0.5673828 0.0021076202 0.82373047
vn -0.5673828 0.0021076202 0.82373047
vn -0.56689453 0.002111435 0.82373047
vn 0.008033752 -0.68847656 -0.72509766
vn 0.008033752 -0.68847656 -0.72509766
vn 0.008033752 -0.68847656 -0.72509766
vn 0.008514404 -0.67041016 -0.7416992
vn -0.49414062 -0.8696289 0.0012292862
vn -0.49414062 -0.8696289 0.0012292862
vn -0.49414062 -0.8696289 0.0012292862
vn -0.49853516 -0.8666992 0.0011777878
vn -0.006175995 -0.83935547 0.54345703
vn -0.006175995 -0.83935547 0.54345703
vn -0.006175995 -0.83935547 0.54345703
vn -0.0062789917 -0.83691406 0.5473633
vn -0.018798828 0.0051651 1
vn -0.018798828 0.0051651 1
vn -0.018798828 0.0051651 1
vn -0.01864624 0.00592041 1
vn -0.99902344 0.00062322617 -0.038513184
vn -0.99902344 0.00062322617 -0.038513184
vn -0.99902344 0.00062322617 -0.038513184
vn -0.99902344 -2.2649765E-06 -0.038726807
vn 0.018798828 1.1324883E-06 -1
vn 0.018798828 1.1324883E-06 -1
vn 0.018798828 1.1324883E-06 -1
vn 0.018798828 2.9206276E-06 -1
vn 0.99902344 -2.0861626E-06 0.038513184
vn 0.99902344 -2.0861626E-06 0.038513184
vn 0.99902344 -2.0861626E-06 0.038513184
vn 0.99902344 -0.0005450249 0.038726807
vn -0.5991211 -4.7683716E-07 -0.80078125
vn -0.5991211 -4.7683716E-07 -0.80078125
vn -0.5991211 -4.7683716E-07 -0.80078125
vn -0.5991211 8.940697E-07 -0.80078125
vn 0.80078125 -1.4305115E-06 -0.5991211
vn 0.80078125 -1.4305115E-06 -0.5991211
vn 0.80078125 -1.4305115E-06 -0.5991211
vn 0.80078125 -4.172325E-07 -0.5991211
vn -0.0049972534 -0.69189453 -0.72216797
vn -0.0049972534 -0.69189453 -0.72216797
vn -0.0049972534 -0.69189453 -0.72216797
vn -0.003255844 -0.6665039 -0.74560547
vn -0.6616211 -0.7495117 -0.024841309
vn -0.6616211 -0.7495117 -0.024841309
vn -0.6616211 -0.7495117 -0.024841309
vn -0.6772461 -0.73535156 -0.026245117
vn -0.03164673 -0.8413086 0.5395508
vn -0.03164673 -0.8413086 0.5395508
vn -0.03164673 -0.8413086 0.5395508
vn -0.031982422 -0.83496094 0.5493164
vn -0.0021705627 0.017562866 1
vn -0.0021705627 0.017562866 1
vn -0.0021705627 0.017562866 1
vn -0.0021705627 0.017562866 1
vn -1 0.00030827522 0.008674622
vn -1 0.00030827522 0.008674622
vn -1 0.00030827522 0.008674622
vn -1 -1.013279E-05 0.008621216
vn 0.0005660057 5.00679E-06 -1
vn 0.0005660057 5.00679E-06 -1
vn 0.0005660057 5.00679E-06 -1
vn 0.00056552887 7.56979E-06 -1
vn 1 -1.001358E-05 -0.008590698
vn 1 -1.001358E-05 -0.008590698
vn 1 -1.001358E-05 -0.008590698
vn 1 -0.00030612946 -0.008544922
vn 0.7133789 -1.9073486E-06 -0.7006836
vn 0.7133789 -1.9073486E-06 -0.7006836
vn 0.7133789 -1.9073486E-06 -0.7006836
vn 0.7133789 -5.4240227E-06 -0.7006836
vn -0.00023365021 -0.6875 -0.7265625
vn -0.00023365021 -0.6875 -0.7265625
vn -0.00023365021 -0.6875 -0.7265625
vn 0.0004196167 -0.67041016 -0.7416992
vn -0.6777344 -0.73535156 0.0056991577
vn -0.6777344 -0.73535156 0.0056991577
vn -0.6777344 -0.73535156 0.0056991577
vn -0.67578125 -0.7373047 0.0058250427
vn -0.0011396408 -0.8383789 0.54541016
vn -0.0011396408 -0.8383789 0.54541016
vn -0.0011396408 -0.8383789 0.54541016
vn -0.0011854172 -0.83740234 0.5463867
vn -0.026855469 0.0074882507 0.9995117
vn -0.026855469 0.0074882507 0.9995117
vn -0.026855469 0.0074882507 0.9995117
vn -0.027114868 0.0063476562 0.9995117
vn -1 0.000854969 -0.009010315
vn -1 0.000854969 -0.009010315
vn -1 0.000854969 -0.009010315
vn -1 -2.4437904E-06 -0.00907135
vn 0.026855469 0 -0.9995117
vn 0.026855469 0 -0.9995117
vn 0.026855469 0 -0.9995117
vn 0.026855469 2.3245811E-06 -0.9995117
vn 1 -2.9206276E-06 0.009010315
vn 1 -2.9206276E-06 0.009010315
vn 1 -2.9206276E-06 0.009010315
vn 1 -0.0010080338 0.00907135
vn 0.5991211 0.005332947 0.80078125
vn 0.5991211 0.005332947 0.80078125
vn 0.5991211 0.005332947 0.80078125
vn 0.5991211 0.005332947 0.80078125
vn -0.5991211 -1.4901161E-06 -0.80078125
vn -0.5991211 -1.4901161E-06 -0.80078125
vn -0.5991211 -1.4901161E-06 -0.80078125
vn -0.5991211 0 -0.80078125
vn 0.80078125 -2.4437904E-06 -0.5991211
vn 0.80078125 -2.4437904E-06 -0.5991211
vn 0.80078125 -2.4437904E-06 -0.5991211
vn 0.80078125 -1.4305115E-06 -0.5991211
vn 0.018447876 -0.69140625 -0.72216797
vn 0.018447876 -0.69140625 -0.72216797
vn 0.018447876 -0.69140625 -0.72216797
vn 0.019989014 -0.66796875 -0.74365234
vn -0.65771484 -0.75341797 -0.0057144165
vn -0.65771484 -0.75341797 -0.0057144165
vn -0.65771484 -0.75341797 -0.0057144165
vn -0.6791992 -0.7338867 -0.006164551
vn 0.020339966 -0.84277344 0.53808594
vn 0.020339966 -0.84277344 0.53808594
vn 0.020339966 -0.84277344 0.53808594
vn 0.018310547 -0.82958984 0.55810547
vn -0 -1 -1.3113022E-06
vn -0 -1 -1.3113022E-06
vn -0 -1 -1.3113022E-06
vn -0 -1 -1.3113022E-06
vn 7.8082085E-06 -1 -0.00016188622
vn 7.8082085E-06 -1 -0.00016188622
vn 7.8082085E-06 -1 -0.00016188622
vn -2.2888184E-05 -1 -0.00014185905
vn -0 -1 -5.9604645E-07
vn -0 -1 -5.9604645E-07
vn -0 -1 -5.9604645E-07
vn -0.00027656555 -1 0.00019419193
vn -0.026046753 -0.9995117 -0.0009794235
vn -0.026046753 -0.9995117 -0.0009794235
vn -0.026046753 -0.9995117 -0.0009794235
vn -0.026397705 -0.9995117 -0.00036358833
vn -0 -1 -1.2516975E-06
vn -0 -1 -1.2516975E-06
vn -0 -1 -1.2516975E-06
vn -0.0006661415 -1 0.0011720657
vn 0.040496826 -0.99902344 0.00035071373
vn 0.040496826 -0.99902344 0.00035071373
vn 0.040496826 -0.99902344 0.00035071373
vn -0.0009994507 -1 0.010978699
vn -0 1 1.1920929E-06
vn -0 1 1.1920929E-06
vn -0 1 1.1920929E-06
vn -0 1 1.1920929E-06
vn -1.3053417E-05 1 0.00027942657
vn -1.3053417E-05 1 0.00027942657
vn -1.3053417E-05 1 0.00027942657
vn -1.3530254E-05 1 0.0002799034
vn -0.036987305 0.9995117 -0.0007095337
vn -0.036987305 0.9995117 -0.0007095337
vn -0.036987305 0.9995117 -0.0007095337
vn -0.03753662 0.9995117 -0.00032114983
vn 0.0006952286 1 -0.0028934479
vn 0.0006952286 1 -0.0028934479
vn 0.0006952286 1 -0.0028934479
vn 3.1411648E-05 1 -0.001742363
vn 0.0003042221 1 -0.001335144
vn 0.0003042221 1 -0.001335144
vn 0.0003042221 1 -0.001335144
vn 1.66893E-06 1 -0.00079870224
vn 0.001045227 1 -0.0006685257
vn 0.001045227 1 -0.0006685257
vn 0.001045227 1 -0.0006685257
vn 1.0430813E-05 1 -0.00040364265
g B001_FB01_0
f 3/3/3 2/2/2 1/1/1
f 6/6/6 5/5/5 4/4/4
f 9/9/9 8/8/8 7/7/7
f 12/12/12 11/11/11 10/10/10
f 15/15/15 14/14/14 13/13/13
f 18/18/18 17/17/17 16/16/16
f 21/21/21 20/20/20 19/19/19
f 24/24/24 23/23/23 22/22/22
f 27/27/27 26/26/26 25/25/25
f 30/30/30 29/29/29 28/28/28
f 33/33/33 32/32/32 31/31/31
f 36/36/36 35/35/35 34/34/34
f 39/39/39 38/38/38 37/37/37
f 42/42/42 41/41/41 40/40/40
f 45/45/45 44/44/44 43/43/43
f 48/48/48 47/47/47 46/46/46
f 51/51/51 50/50/50 49/49/49
f 54/54/54 53/53/53 52/52/52
f 57/57/57 56/56/56 55/55/55
f 60/60/60 59/59/59 58/58/58
f 63/63/63 62/62/62 61/61/61
f 66/66/66 65/65/65 64/64/64
f 69/69/69 68/68/68 67/67/67
f 72/72/72 71/71/71 70/70/70
f 75/75/75 74/74/74 73/73/73
f 78/78/78 77/77/77 76/76/76
f 81/81/81 80/80/80 79/79/79
f 84/84/84 83/83/83 82/82/82
f 87/87/87 86/86/86 85/85/85
f 90/90/90 89/89/89 88/88/88
f 93/93/93 92/92/92 91/91/91
f 96/96/96 95/95/95 94/94/94
f 99/99/99 98/98/98 97/97/97
f 102/102/102 101/101/101 100/100/100
f 105/105/105 104/104/104 103/103/103
f 108/108/108 107/107/107 106/106/106
f 111/111/111 110/110/110 109/109/109
f 114/114/114 113/113/113 112/112/112
f 117/117/117 116/116/116 115/115/115
f 120/120/120 119/119/119 118/118/118
f 122/122/122 121/121/121 119/119/119
f 121/121/121 122/122/122 123/123/123
f 126/126/126 125/125/125 124/124/124
f 129/129/129 128/128/128 127/127/127
f 132/132/132 131/131/131 130/130/130
f 135/135/135 134/134/134 133/133/133
f 138/138/138 137/137/137 136/136/136
f 141/141/141 140/140/140 139/139/139
f 144/144/144 143/143/143 142/142/142
f 147/147/147 146/146/146 145/145/145
f 150/150/150 149/149/149 148/148/148
f 149/149/149 150/150/150 151/151/151
f 154/154/154 153/153/153 152/152/152
f 153/153/153 154/154/154 155/155/155
f 158/158/158 157/157/157 156/156/156
f 157/157/157 158/158/158 159/159/159
f 162/162/162 161/161/161 160/160/160
f 161/161/161 162/162/162 163/163/163
f 166/166/166 165/165/165 164/164/164
f 165/165/165 166/166/166 167/167/167
f 170/170/170 169/169/169 168/168/168
f 169/169/169 170/170/170 171/171/171
f 174/174/174 173/173/173 172/172/172
f 173/173/173 174/174/174 175/175/175
f 178/178/178 177/177/177 176/176/176
f 177/177/177 178/178/178 179/179/179
f 182/182/182 181/181/181 180/180/180
f 181/181/181 182/182/182 183/183/183
f 186/186/186 185/185/185 184/184/184
f 185/185/185 186/186/186 187/187/187
f 190/190/190 189/189/189 188/188/188
f 189/189/189 190/190/190 191/191/191
f 194/194/194 193/193/193 192/192/192
f 193/193/193 194/194/194 195/195/195
f 198/198/198 197/197/197 196/196/196
f 197/197/197 198/198/198 199/199/199
f 202/202/202 201/201/201 200/200/200
f 201/201/201 202/202/202 203/203/203
f 206/206/206 205/205/205 204/204/204
f 205/205/205 206/206/206 207/207/207
f 210/210/210 209/209/209 208/208/208
f 209/209/209 210/210/210 211/211/211
f 214/214/214 213/213/213 212/212/212
f 213/213/213 214/214/214 215/215/215
f 218/218/218 217/217/217 216/216/216
f 217/217/217 218/218/218 219/219/219
f 222/222/222 221/221/221 220/220/220
f 221/221/221 222/222/222 223/223/223
f 226/226/226 225/225/225 224/224/224
f 225/225/225 226/226/226 227/227/227
f 230/230/230 229/229/229 228/228/228
f 229/229/229 230/230/230 231/231/231
f 234/234/234 233/233/233 232/232/232
f 233/233/233 234/234/234 235/235/235
f 238/238/238 237/237/237 236/236/236
f 237/237/237 238/238/238 239/239/239
f 242/242/242 241/241/241 240/240/240
f 241/241/241 242/242/242 243/243/243
f 246/246/246 245/245/245 244/244/244
f 245/245/245 246/246/246 247/247/247
f 250/250/250 249/249/249 248/248/248
f 249/249/249 250/250/250 251/251/251
f 254/254/254 253/253/253 252/252/252
f 253/253/253 254/254/254 255/255/255
f 258/258/258 257/257/257 256/256/256
f 257/257/257 258/258/258 259/259/259
f 262/262/262 261/261/261 260/260/260
f 261/261/261 262/262/262 263/263/263
f 266/266/266 265/265/265 264/264/264
f 265/265/265 266/266/266 267/267/267
f 270/270/270 269/269/269 268/268/268
f 269/269/269 270/270/270 271/271/271
f 274/274/274 273/273/273 272/272/272
f 273/273/273 274/274/274 275/275/275
f 278/278/278 277/277/277 276/276/276
f 277/277/277 278/278/278 279/279/279
f 282/282/282 281/281/281 280/280/280
f 281/281/281 282/282/282 283/283/283
f 286/286/286 285/285/285 284/284/284
f 285/285/285 286/286/286 287/287/287
f 290/290/290 289/289/289 288/288/288
f 289/289/289 290/290/290 291/291/291
f 294/294/294 293/293/293 292/292/292
f 293/293/293 294/294/294 295/295/295
f 298/298/298 297/297/297 296/296/296
f 297/297/297 298/298/298 299/299/299
f 302/302/302 301/301/301 300/300/300
f 301/301/301 302/302/302 303/303/303
f 306/306/306 305/305/305 304/304/304
f 305/305/305 306/306/306 307/307/307
f 310/310/310 309/309/309 308/308/308
f 310/310/310 311/311/311 309/309/309
f 311/311/311 310/310/310 312/312/312
f 315/315/315 314/314/314 313/313/313
f 314/314/314 315/315/315 316/316/316
f 319/319/319 318/318/318 317/317/317
f 318/318/318 319/319/319 320/320/320
f 323/323/323 322/322/322 321/321/321
f 322/322/322 323/323/323 324/324/324
f 327/327/327 326/326/326 325/325/325
f 326/326/326 327/327/327 328/328/328
f 331/331/331 330/330/330 329/329/329
f 329/329/329 332/332/332 331/331/331
f 332/332/332 329/329/329 333/333/333
f 336/336/336 335/335/335 334/334/334
f 335/335/335 336/336/336 337/337/337
f 340/340/340 339/339/339 338/338/338
f 339/339/339 340/340/340 341/341/341
f 344/344/344 343/343/343 342/342/342
f 343/343/343 344/344/344 345/345/345
f 348/348/348 347/347/347 346/346/346
f 347/347/347 348/348/348 349/349/349
f 352/352/352 351/351/351 350/350/350
f 351/351/351 352/352/352 353/353/353
f 356/356/356 355/355/355 354/354/354
f 355/355/355 356/356/356 357/357/357
f 360/360/360 359/359/359 358/358/358
f 359/359/359 360/360/360 361/361/361
f 364/364/364 363/363/363 362/362/362
f 363/363/363 364/364/364 365/365/365
f 368/368/368 367/367/367 366/366/366
f 367/367/367 368/368/368 369/369/369
f 372/372/372 371/371/371 370/370/370
f 371/371/371 372/372/372 373/373/373
f 376/376/376 375/375/375 374/374/374
f 375/375/375 376/376/376 377/377/377
f 380/380/380 379/379/379 378/378/378
f 379/379/379 380/380/380 381/381/381
g B001_FB01_1
f 384/384/384 383/383/383 382/382/382
f 387/387/387 386/386/386 385/385/385
f 390/390/390 389/389/389 388/388/388
f 393/393/393 392/392/392 391/391/391
f 396/396/396 395/395/395 394/394/394
f 399/399/399 398/398/398 397/397/397
f 402/402/402 401/401/401 400/400/400
f 405/405/405 404/404/404 403/403/403
f 408/408/408 407/407/407 406/406/406
f 411/411/411 410/410/410 409/409/409
f 414/414/414 413/413/413 412/412/412
f 417/417/417 416/416/416 415/415/415
f 420/420/420 419/419/419 418/418/418
f 423/423/423 422/422/422 421/421/421
f 426/426/426 425/425/425 424/424/424
f 429/429/429 428/428/428 427/427/427
f 432/432/432 431/431/431 430/430/430
f 435/435/435 434/434/434 433/433/433
f 438/438/438 437/437/437 436/436/436
f 441/441/441 440/440/440 439/439/439
f 444/444/444 443/443/443 442/442/442
f 447/447/447 446/446/446 445/445/445
f 450/450/450 449/449/449 448/448/448
f 453/453/453 452/452/452 451/451/451
f 456/456/456 455/455/455 454/454/454
f 459/459/459 458/458/458 457/457/457
f 462/462/462 461/461/461 460/460/460
f 465/465/465 464/464/464 463/463/463
f 468/468/468 467/467/467 466/466/466
f 471/471/471 470/470/470 469/469/469
f 474/474/474 473/473/473 472/472/472
f 477/477/477 476/476/476 475/475/475
f 480/480/480 479/479/479 478/478/478
f 483/483/483 482/482/482 481/481/481
f 486/486/486 485/485/485 484/484/484
f 489/489/489 488/488/488 487/487/487
f 492/492/492 491/491/491 490/490/490
f 495/495/495 494/494/494 493/493/493
f 498/498/498 497/497/497 496/496/496
f 501/501/501 500/500/500 499/499/499
f 504/504/504 503/503/503 502/502/502
f 507/507/507 506/506/506 505/505/505
f 510/510/510 509/509/509 508/508/508
f 513/513/513 512/512/512 511/511/511
f 516/516/516 515/515/515 514/514/514
f 519/519/519 518/518/518 517/517/517
f 522/522/522 521/521/521 520/520/520
f 525/525/525 524/524/524 523/523/523
f 528/528/528 527/527/527 526/526/526
f 531/531/531 530/530/530 529/529/529
f 534/534/534 533/533/533 532/532/532
f 537/537/537 536/536/536 535/535/535
f 540/540/540 539/539/539 538/538/538
f 543/543/543 542/542/542 541/541/541
f 546/546/546 545/545/545 544/544/544
f 549/549/549 548/548/548 547/547/547
f 552/552/552 551/551/551 550/550/550
f 555/555/555 554/554/554 553/553/553
f 558/558/558 557/557/557 556/556/556
f 561/561/561 560/560/560 559/559/559
f 564/564/564 563/563/563 562/562/562
f 567/567/567 566/566/566 565/565/565
f 570/570/570 569/569/569 568/568/568
f 569/569/569 570/570/570 571/571/571
f 574/574/574 573/573/573 572/572/572
f 573/573/573 574/574/574 575/575/575
f 578/578/578 577/577/577 576/576/576
f 577/577/577 578/578/578 579/579/579
f 582/582/582 581/581/581 580/580/580
f 581/581/581 582/582/582 583/583/583
f 586/586/586 585/585/585 584/584/584
f 585/585/585 586/586/586 587/587/587
f 590/590/590 589/589/589 588/588/588
f 589/589/589 590/590/590 591/591/591
f 594/594/594 593/593/593 592/592/592
f 593/593/593 594/594/594 595/595/595
f 598/598/598 597/597/597 596/596/596
f 597/597/597 598/598/598 599/599/599
f 602/602/602 601/601/601 600/600/600
f 601/601/601 602/602/602 603/603/603
f 606/606/606 605/605/605 604/604/604
f 605/605/605 606/606/606 607/607/607
f 610/610/610 609/609/609 608/608/608
f 609/609/609 610/610/610 611/611/611
f 614/614/614 613/613/613 612/612/612
f 613/613/613 614/614/614 615/615/615
f 618/618/618 617/617/617 616/616/616
f 617/617/617 618/618/618 619/619/619
f 622/622/622 621/621/621 620/620/620
f 621/621/621 622/622/622 623/623/623
f 626/626/626 625/625/625 624/624/624
f 625/625/625 626/626/626 627/627/627
f 630/630/630 629/629/629 628/628/628
f 629/629/629 630/630/630 631/631/631
f 634/634/634 633/633/633 632/632/632
f 633/633/633 634/634/634 635/635/635
f 638/638/638 637/637/637 636/636/636
f 637/637/637 638/638/638 639/639/639
f 642/642/642 641/641/641 640/640/640
f 641/641/641 642/642/642 643/643/643
f 646/646/646 645/645/645 644/644/644
f 645/645/645 646/646/646 647/647/647
f 650/650/650 649/649/649 648/648/648
f 649/649/649 650/650/650 651/651/651
f 654/654/654 653/653/653 652/652/652
f 653/653/653 654/654/654 655/655/655
f 658/658/658 657/657/657 656/656/656
f 657/657/657 658/658/658 659/659/659
f 662/662/662 661/661/661 660/660/660
f 661/661/661 662/662/662 663/663/663
f 666/666/666 665/665/665 664/664/664
f 665/665/665 666/666/666 667/667/667
f 670/670/670 669/669/669 668/668/668
f 669/669/669 670/670/670 671/671/671
f 674/674/674 673/673/673 672/672/672
f 673/673/673 674/674/674 675/675/675
f 678/678/678 677/677/677 676/676/676
f 677/677/677 678/678/678 679/679/679
f 682/682/682 681/681/681 680/680/680
f 681/681/681 682/682/682 683/683/683
f 686/686/686 685/685/685 684/684/684
f 685/685/685 686/686/686 687/687/687
f 690/690/690 689/689/689 688/688/688
f 689/689/689 690/690/690 691/691/691
f 694/694/694 693/693/693 692/692/692
f 693/693/693 694/694/694 695/695/695
f 698/698/698 697/697/697 696/696/696
f 697/697/697 698/698/698 699/699/699
f 702/702/702 701/701/701 700/700/700
f 701/701/701 702/702/702 703/703/703
f 706/706/706 705/705/705 704/704/704
f 705/705/705 706/706/706 707/707/707
f 710/710/710 709/709/709 708/708/708
f 709/709/709 710/710/710 711/711/711
f 714/714/714 713/713/713 712/712/712
f 713/713/713 714/714/714 715/715/715
f 718/718/718 717/717/717 716/716/716
f 717/717/717 718/718/718 719/719/719
f 722/722/722 721/721/721 720/720/720
f 721/721/721 722/722/722 723/723/723
f 726/726/726 725/725/725 724/724/724
f 725/725/725 726/726/726 727/727/727
f 730/730/730 729/729/729 728/728/728
f 729/729/729 730/730/730 731/731/731
f 734/734/734 733/733/733 732/732/732
f 733/733/733 734/734/734 735/735/735
f 738/738/738 737/737/737 736/736/736
f 737/737/737 738/738/738 739/739/739
f 742/742/742 741/741/741 740/740/740
f 741/741/741 742/742/742 743/743/743
f 746/746/746 745/745/745 744/744/744
f 745/745/745 746/746/746 747/747/747
f 750/750/750 749/749/749 748/748/748
f 749/749/749 750/750/750 751/751/751
f 754/754/754 753/753/753 752/752/752
f 753/753/753 754/754/754 755/755/755
f 758/758/758 757/757/757 756/756/756
f 757/757/757 758/758/758 759/759/759
f 762/762/762 761/761/761 760/760/760
f 761/761/761 762/762/762 763/763/763
f 766/766/766 765/765/765 764/764/764
f 765/765/765 766/766/766 767/767/767
f 770/770/770 769/769/769 768/768/768
f 769/769/769 770/770/770 771/771/771
f 774/774/774 773/773/773 772/772/772
f 773/773/773 774/774/774 775/775/775
f 778/778/778 777/777/777 776/776/776
f 777/777/777 778/778/778 779/779/779
g B001_FB01_2
f 782/782/782 781/781/781 780/780/780
f 781/781/781 782/782/782 783/783/783
f 786/786/786 785/785/785 784/784/784
f 785/785/785 786/786/786 787/787/787
f 790/790/790 789/789/789 788/788/788
f 789/789/789 790/790/790 791/791/791
f 794/794/794 793/793/793 792/792/792
f 793/793/793 794/794/794 795/795/795
f 798/798/798 797/797/797 796/796/796
f 797/797/797 798/798/798 799/799/799
f 802/802/802 801/801/801 800/800/800
f 801/801/801 802/802/802 803/803/803
g B001_FB01_3
f 806/806/806 805/805/805 804/804/804
f 805/805/805 806/806/806 807/807/807
f 810/810/810 809/809/809 808/808/808
f 809/809/809 810/810/810 811/811/811
f 814/814/814 813/813/813 812/812/812
f 813/813/813 814/814/814 815/815/815
f 818/818/818 817/817/817 816/816/816
f 817/817/817 818/818/818 819/819/819
f 822/822/822 821/821/821 820/820/820
f 821/821/821 822/822/822 823/823/823
f 826/826/826 825/825/825 824/824/824
f 825/825/825 826/826/826 827/827/827
