g B001_OctopusCover01_02
v 0.2929915 -0.12770034 -0.8242006
v 0.14565925 0.053146973 -0.6167902
v 0.013375359 -0.46677512 -0.47802615
v 0.06776504 -0.79947066 0.078514785
v -0.0058798217 -0.80612534 0.8584141
v 0.3463871 0.2668632 -0.44818157
v -0.0058798217 -0.80612534 0.8584141
v 0.06776504 -0.79947066 0.078514785
v -0.29298744 -0.9653795 0.34667933
v -0.14966848 -0.68815446 -0.005639534
v -0.19603173 -0.72522956 0.7778555
v -0.48303708 -0.86537904 0.27014035
v -0.14966848 -0.68815446 -0.005639534
v -0.06451847 -0.41617605 0.2067852
v -0.19603173 -0.72522956 0.7778555
v -0.19603173 -0.72522956 0.7778555
v -0.17528324 -0.23902763 0.44404346
v -0.2891351 -0.48672843 0.8596216
v -0.2891351 -0.48672843 0.8596216
v -0.17528324 -0.23902763 0.44404346
v -0.14961362 0.20366153 0.9829724
v 0.15633735 0.30395344 -0.49044338
v 0.3463871 0.2668632 -0.44818157
v 0.29000983 0.9547243 -0.29755518
v 0.19604267 -0.51782393 -0.41481793
v 0.33584756 0.018258667 -0.57255226
v 0.483041 -0.1647905 -0.7819391
v -0.19603173 -0.72522956 0.7778555
v -0.06451847 -0.41617605 0.2067852
v -0.17528324 -0.23902763 0.44404346
v -0.17528324 -0.23902763 0.44404346
v -0.06451847 -0.41617605 0.2067852
v 0.15633735 0.30395344 -0.49044338
v -0.06451847 -0.41617605 0.2067852
v -0.14966848 -0.68815446 -0.005639534
v 0.15633735 0.30395344 -0.49044338
v -0.17528324 -0.23902763 0.44404346
v 0.15633735 0.30395344 -0.49044338
v -0.018525314 0.5857386 0.3095579
v -0.2891351 -0.48672843 0.8596216
v -0.14961362 0.20366153 0.9829724
v -0.23649512 -0.19143462 1.0092481
v -0.12720335 0.20744129 0.755636
v -0.17528324 -0.23902763 0.44404346
v -0.08192871 0.40093958 0.63526785
v -0.018525314 0.5857386 0.3095579
v -0.018525314 0.5857386 0.3095579
v 0.15633735 0.30395344 -0.49044338
v 0.099960096 0.93108267 -0.29911417
v 0.050740965 0.17288102 1.000702
v -0.099034764 -0.56879693 0.93938136
v -0.046419982 -0.27073807 1.0908939
v 0.071448095 0.20538837 0.76654524
v 0.08896133 -0.2417224 0.48789272
v 0.050740965 0.17288102 1.000702
v -0.099034764 -0.56879693 0.93938136
v 0.08896133 -0.2417224 0.48789272
v -0.0058798217 -0.80612534 0.8584141
v 0.08896133 -0.2417224 0.48789272
v -0.099034764 -0.56879693 0.93938136
v 0.050740965 0.17288102 1.000702
v 0.11185387 0.3725757 0.66910744
v 0.08896133 -0.2417224 0.48789272
v 0.071448095 0.20538837 0.76654524
v -0.019025115 0.6721905 0.40332365
v -0.018547667 0.9633405 0.6163752
v -0.047466964 0.65929246 0.6284407
v 0.15633735 0.30395344 -0.49044338
v 0.29000983 0.9547243 -0.29755518
v 0.099960096 0.93108267 -0.29911417
v 0.14565925 0.053146973 -0.6167902
v 0.2929915 -0.12770034 -0.8242006
v 0.483041 -0.1647905 -0.7819391
v 0.33584756 0.018258667 -0.57255226
v -0.14966848 -0.68815446 -0.005639534
v 0.06776504 -0.79947066 0.078514785
v 0.19604267 -0.51782393 -0.41481793
v 0.013375359 -0.46677512 -0.47802615
v -0.19603173 -0.72522956 0.7778555
v -0.0058798217 -0.80612534 0.8584141
v -0.29298744 -0.9653795 0.34667933
v -0.48303708 -0.86537904 0.27014035
v 0.06776504 -0.79947066 0.078514785
v -0.14966848 -0.68815446 -0.005639534
v -0.48303708 -0.86537904 0.27014035
v -0.29298744 -0.9653795 0.34667933
v -0.19603173 -0.72522956 0.7778555
v -0.2891351 -0.48672843 0.8596216
v -0.099034764 -0.56879693 0.93938136
v -0.0058798217 -0.80612534 0.8584141
v 0.19604267 -0.51782393 -0.41481793
v 0.06776504 -0.79947066 0.078514785
v 0.3463871 0.2668632 -0.44818157
v 0.33584756 0.018258667 -0.57255226
v 0.013375359 -0.46677512 -0.47802615
v 0.19604267 -0.51782393 -0.41481793
v 0.483041 -0.1647905 -0.7819391
v 0.2929915 -0.12770034 -0.8242006
v 0.013375359 -0.46677512 -0.47802615
v 0.14565925 0.053146973 -0.6167902
v 0.15633735 0.30395344 -0.49044338
v -0.14966848 -0.68815446 -0.005639534
v 0.15633735 0.30395344 -0.49044338
v 0.14565925 0.053146973 -0.6167902
v 0.33584756 0.018258667 -0.57255226
v 0.3463871 0.2668632 -0.44818157
v 0.3463871 0.2668632 -0.44818157
v -0.0058798217 -0.80612534 0.8584141
v 0.08896133 -0.2417224 0.48789272
v 0.20665786 0.45869377 0.028080864
v 0.29000983 0.9547243 -0.29755518
v 0.25572297 0.21857037 -0.9361192
v 0.2603302 0.26199257 -0.902632
v 0.2605442 -0.035193328 -0.563176
v 0.2559366 -0.0786158 -0.596664
v 0.31750152 0.20399955 -0.9257246
v 0.25572297 0.21857037 -0.9361192
v 0.2559366 -0.0786158 -0.596664
v 0.31771538 -0.09318687 -0.58626986
v 0.32210997 0.24742119 -0.89223784
v 0.31750152 0.20399955 -0.9257246
v 0.31771538 -0.09318687 -0.58626986
v 0.32232344 -0.049765166 -0.5527819
v 0.2603302 0.26199257 -0.902632
v 0.32210997 0.24742119 -0.89223784
v 0.32232344 -0.049765166 -0.5527819
v 0.2605442 -0.035193328 -0.563176
v 0.32210997 0.24742119 -0.89223784
v 0.2603302 0.26199257 -0.902632
v 0.25572297 0.21857037 -0.9361192
v 0.31750152 0.20399955 -0.9257246
v 0.2687016 -0.008670196 -1.0908939
v 0.26415327 0.039904784 -1.06544
v 0.24516419 -0.114981994 -0.6254473
v 0.24971221 -0.16355735 -0.6509012
v 0.32904097 -0.014311065 -1.0693463
v 0.2687016 -0.008670196 -1.0908939
v 0.24971221 -0.16355735 -0.6509012
v 0.3100517 -0.1691986 -0.6293538
v 0.32449386 0.034263458 -1.0438927
v 0.32904097 -0.014311065 -1.0693463
v 0.3100517 -0.1691986 -0.6293538
v 0.30550414 -0.12062393 -0.6038994
v 0.26415327 0.039904784 -1.06544
v 0.32449386 0.034263458 -1.0438927
v 0.30550414 -0.12062393 -0.6038994
v 0.24516419 -0.114981994 -0.6254473
v 0.32449386 0.034263458 -1.0438927
v 0.26415327 0.039904784 -1.06544
v 0.2687016 -0.008670196 -1.0908939
v 0.32904097 -0.014311065 -1.0693463
v -0.047466964 0.65929246 0.6284407
v -0.08192871 0.40093958 0.63526785
v -0.019025115 0.6721905 0.40332365
v -0.018525314 0.5857386 0.3095579
v 0.099960096 0.93108267 -0.29911417
v 0.019433517 0.86010796 0.28441867
v -0.018547667 0.9633405 0.6163752
v -0.2891351 -0.48672843 0.8596216
v -0.23649512 -0.19143462 1.0092481
v -0.046419982 -0.27073807 1.0908939
v -0.099034764 -0.56879693 0.93938136
v 0.20052096 0.8755943 0.31358486
v 0.14320552 0.6631437 0.66186947
v 0.1758162 0.96538 0.654341
v 0.1678165 0.6731096 0.43473884
v 0.11185387 0.3725757 0.66910744
v 0.17424877 0.57645947 0.33055675
v 0.29000983 0.9547243 -0.29755518
v 0.08896133 -0.2417224 0.48789272
v 0.20665786 0.45869377 0.028080864
v -0.046419982 -0.27073807 1.0908939
v -0.23649512 -0.19143462 1.0092481
v -0.14961362 0.20366153 0.9829724
v 0.050740965 0.17288102 1.000702
v -0.14961362 0.20366153 0.9829724
v -0.12720335 0.20744129 0.755636
v 0.071448095 0.20538837 0.76654524
v 0.050740965 0.17288102 1.000702
v -0.12720335 0.20744129 0.755636
v -0.08192871 0.40093958 0.63526785
v 0.11185387 0.3725757 0.66910744
v 0.071448095 0.20538837 0.76654524
v -0.08192871 0.40093958 0.63526785
v 0.14320552 0.6631437 0.66186947
v 0.11185387 0.3725757 0.66910744
v -0.047466964 0.65929246 0.6284407
v 0.1758162 0.96538 0.654341
v -0.018547667 0.9633405 0.6163752
v -0.018547667 0.9633405 0.6163752
v 0.019433517 0.86010796 0.28441867
v 0.20052096 0.8755943 0.31358486
v 0.1758162 0.96538 0.654341
v 0.019433517 0.86010796 0.28441867
v 0.099960096 0.93108267 -0.29911417
v 0.29000983 0.9547243 -0.29755518
v 0.20052096 0.8755943 0.31358486
vt 0.11128746 0.0879277
vt 0.14907144 0.18984967
vt 0.2990974 0.082371
vt 0.4935749 0.100423574
vt 0.70961505 0.26340663
vt 0.13555685 0.2834596
vt 0.70961505 0.26340663
vt 0.4935749 0.100423574
vt 0.6572858 0.07464826
vt 0.48879036 0.10242081
vt 0.71082747 0.26702285
vt 0.65295076 0.073292434
vt 0.48879036 0.10242081
vt 0.48388228 0.22887796
vt 0.71082747 0.26702285
vt 0.71082747 0.26702285
vt 0.50455856 0.3479176
vt 0.679388 0.35135752
vt 0.679388 0.35135752
vt 0.50455856 0.3479176
vt 0.57505584 0.5681491
vt 0.13429171 0.28726274
vt 0.0684583 0.26674867
vt 0.00904178 0.50319916
vt 0.29535228 0.082511246
vt 0.1522672 0.19554645
vt 0.10493215 0.08370662
vt 0.71082747 0.26702285
vt 0.48388228 0.22887796
vt 0.50455856 0.3479176
vt 0.50455856 0.3479176
vt 0.48388228 0.22887796
vt 0.13429171 0.28726274
vt 0.48388228 0.22887796
vt 0.48879036 0.10242081
vt 0.13429171 0.28726274
vt 0.50455856 0.3479176
vt 0.13429171 0.28726274
vt 0.30928937 0.53463477
vt 0.679388 0.35135752
vt 0.57505584 0.5681491
vt 0.66202825 0.4639359
vt 0.48783332 0.5253552
vt 0.50455856 0.3479176
vt 0.42834935 0.5516136
vt 0.30928937 0.53463477
vt 0.30928937 0.53463477
vt 0.13429171 0.28726274
vt 0.0628987 0.5044018
vt 0.5748255 0.5693714
vt 0.6807633 0.35228127
vt 0.6637715 0.46479285
vt 0.48715514 0.52557856
vt 0.50314045 0.34556407
vt 0.5748255 0.5693714
vt 0.6807633 0.35228127
vt 0.50314045 0.34556407
vt 0.70961505 0.26340663
vt 0.50314045 0.34556407
vt 0.6807633 0.35228127
vt 0.5748255 0.5693714
vt 0.4294804 0.5503783
vt 0.50314045 0.34556407
vt 0.48715514 0.52557856
vt 0.31685218 0.5780927
vt 0.30937517 0.69505376
vt 0.37014207 0.6240783
vt 0.13429171 0.28726274
vt 0.00904178 0.50319916
vt 0.0628987 0.5044018
vt 0.14907144 0.18984967
vt 0.11128746 0.0879277
vt 0.044689424 0.08175492
vt 0.08216833 0.18030524
vt 0.48879036 0.10242081
vt 0.48469904 0.010412335
vt 0.29767713 0.01894629
vt 0.2990974 0.082371
vt 0.71082747 0.26702285
vt 0.7899024 0.27993482
vt 0.7245619 0.09066993
vt 0.65295076 0.073292434
vt 0.48469904 0.010412335
vt 0.48879036 0.10242081
vt 0.65295076 0.073292434
vt 0.63355637 0.0065840483
vt 0.71082747 0.26702285
vt 0.679388 0.35135752
vt 0.75005066 0.3523708
vt 0.7899024 0.27993482
vt 0.29535228 0.082511246
vt 0.4935749 0.100423574
vt 0.13555685 0.2834596
vt 0.1522672 0.19554645
vt 0.2990974 0.082371
vt 0.29767713 0.01894629
vt 0.094442554 0.02118051
vt 0.11128746 0.0879277
vt 0.2990974 0.082371
vt 0.14907144 0.18984967
vt 0.13429171 0.28726274
vt 0.48879036 0.10242081
vt 0.13429171 0.28726274
vt 0.14907144 0.18984967
vt 0.08216833 0.18030524
vt 0.0684583 0.26674867
vt 0.13555685 0.2834596
vt 0.70961505 0.26340663
vt 0.50314045 0.34556407
vt 0.24552488 0.4388867
vt 0.06308312 0.50497717
vt 0.79785246 0.46968856
vt 0.77710885 0.46968856
vt 0.77710885 0.6279645
vt 0.79785246 0.6279645
vt 0.81910485 0.46968856
vt 0.79785246 0.46968856
vt 0.79785246 0.6279645
vt 0.81910485 0.6279645
vt 0.8359768 0.46968856
vt 0.81910485 0.46968856
vt 0.81910485 0.6279645
vt 0.8359768 0.6279645
vt 0.77710885 0.46968856
vt 0.7553664 0.46968856
vt 0.7553664 0.6279645
vt 0.77710885 0.6279645
vt 0.81910485 0.45316067
vt 0.79785246 0.45316067
vt 0.79785246 0.46968856
vt 0.81910485 0.46968856
vt 0.79785246 0.46968856
vt 0.77710885 0.46968856
vt 0.77710885 0.6279645
vt 0.79785246 0.6279645
vt 0.81910485 0.46968856
vt 0.79785246 0.46968856
vt 0.79785246 0.6279645
vt 0.81910485 0.6279645
vt 0.8359768 0.46968856
vt 0.81910485 0.46968856
vt 0.81910485 0.6279645
vt 0.8359768 0.6279645
vt 0.77710885 0.46968856
vt 0.7553664 0.46968856
vt 0.7553664 0.6279645
vt 0.77710885 0.6279645
vt 0.81910485 0.45316067
vt 0.79785246 0.45316067
vt 0.79785246 0.46968856
vt 0.81910485 0.46968856
vt 0.37014207 0.6240783
vt 0.42834935 0.5516136
vt 0.31685218 0.5780927
vt 0.30928937 0.53463477
vt 0.0628987 0.5044018
vt 0.23684616 0.60125214
vt 0.30937517 0.69505376
vt 0.679388 0.35135752
vt 0.66202825 0.4639359
vt 0.7352336 0.46423012
vt 0.75005066 0.3523708
vt 0.23647307 0.6008654
vt 0.37063426 0.6211219
vt 0.309425 0.6947062
vt 0.3085096 0.57643604
vt 0.4294804 0.5503783
vt 0.30115843 0.53447765
vt 0.06308312 0.50497717
vt 0.50314045 0.34556407
vt 0.24552488 0.4388867
vt 0.008361258 0.9476397
vt 0.008361258 0.9926866
vt 0.07954543 0.9926866
vt 0.07954543 0.9476396
vt 0.07954543 0.9926866
vt 0.1176824 0.9926866
vt 0.1176824 0.9476396
vt 0.07954543 0.9476396
vt 0.1176824 0.9926866
vt 0.15263398 0.9926866
vt 0.15263398 0.9476396
vt 0.1176824 0.9476396
vt 0.15263398 0.9926866
vt 0.19803913 0.9476396
vt 0.15263398 0.9476396
vt 0.19803913 0.9926866
vt 0.24784864 0.9476396
vt 0.24784864 0.9926866
vt 0.24784864 0.9926866
vt 0.3049468 0.9926866
vt 0.3049468 0.9476396
vt 0.24784864 0.9476396
vt 0.3049468 0.9926866
vt 0.4044584 0.9926866
vt 0.4044584 0.9476396
vt 0.3049468 0.9476396
vn -0.796916 0.041920185 -0.6026339
vn -0.796916 0.041920193 -0.60263395
vn -0.79691595 0.04192019 -0.60263395
vn 0.9735675 -0.20985912 0.09014202
vn 0.9735675 -0.20985912 0.09014202
vn 0.9735675 -0.20985913 0.09014202
vn 0.43816623 -0.8982616 0.03371085
vn 0.43816623 -0.8982616 0.03371085
vn 0.43816626 -0.8982616 0.03371085
vn -0.45977807 0.88791037 0.014808736
vn -0.45977813 0.88791037 0.014808734
vn -0.45977813 0.88791037 0.014808736
vn -0.9441173 0.32712567 -0.04038842
vn -0.9441173 0.32712567 -0.040388424
vn -0.9441173 0.32712567 -0.040388424
vn -0.89891315 -0.22126539 -0.3781492
vn -0.89891315 -0.22126538 -0.37814918
vn -0.89891315 -0.22126538 -0.3781492
vn -0.96641135 0.2192573 -0.1340723
vn -0.96641135 0.21925732 -0.13407229
vn -0.96641135 0.21925732 -0.13407229
vn 0.25336888 0.22669986 -0.9404314
vn 0.25336888 0.22669989 -0.9404314
vn 0.25336888 0.22669989 -0.9404314
vn 0.80317676 -0.03446602 0.5947429
vn 0.80317676 -0.03446602 0.5947429
vn 0.80317676 -0.03446602 0.5947429
vn -0.93558306 -0.17185645 -0.3084636
vn -0.93558306 -0.17185643 -0.30846363
vn -0.93558306 -0.17185645 -0.3084636
vn -0.92440903 -0.07796892 -0.3733479
vn -0.92440915 -0.077968925 -0.3733479
vn -0.92440903 -0.07796892 -0.3733479
vn -0.9550909 0.29629254 0.0034875465
vn -0.9550909 0.2962925 0.0034875465
vn -0.9550909 0.2962925 0.0034875462
vn -0.95597106 0.13960515 -0.25812745
vn -0.95597106 0.13960513 -0.25812745
vn -0.95597106 0.13960516 -0.25812745
vn -0.97518945 0.20973289 -0.07083554
vn -0.9807734 0.17110823 -0.09383741
vn -0.97518945 0.2097329 -0.070835546
vn -0.9807734 0.17110823 -0.09383742
vn -0.9807734 0.17110823 -0.09383742
vn -0.9807734 0.17110817 -0.0938373
vn -0.9807734 0.17110813 -0.09383728
vn -0.978451 -0.025446275 -0.20490487
vn -0.978451 -0.025446277 -0.2049049
vn -0.978451 -0.025446277 -0.2049049
vn 0.977594 -0.20224339 0.058374938
vn 0.977594 -0.20224339 0.058374938
vn 0.977594 -0.20224339 0.058374945
vn 0.99618214 -0.014618424 0.08606572
vn 0.99618214 -0.014618424 0.08606572
vn 0.99618214 -0.014618422 0.08606572
vn 0.8587456 0.1724572 0.4825087
vn 0.8587456 0.17245722 0.4825087
vn 0.8587456 0.17245722 0.4825087
vn 0.94716567 -0.2112284 0.2413705
vn 0.94716567 -0.2112284 0.24137051
vn 0.94716567 -0.21122839 0.2413705
vn 0.96879566 -0.102655105 0.22560339
vn 0.96879566 -0.10265509 0.22560334
vn 0.96879566 -0.10265509 0.22560336
vn -0.9887735 0.08929208 -0.11980812
vn -0.9887735 0.08929208 -0.11980812
vn -0.9887735 0.08929208 -0.11980812
vn -0.028148966 0.2893774 -0.95680106
vn -0.028148968 0.28937742 -0.95680106
vn -0.028148964 0.28937736 -0.95680106
vn 0.27130076 0.8118131 -0.51706415
vn 0.27130073 0.8118131 -0.5170641
vn 0.27130073 0.8118131 -0.5170641
vn 0.27130073 0.81181324 -0.51706415
vn -0.1643836 -0.8536442 -0.49423647
vn -0.1643836 -0.85364413 -0.4942365
vn -0.1643836 -0.8536442 -0.49423647
vn -0.16438362 -0.8536442 -0.49423647
vn -0.53181374 -0.68336034 0.50019294
vn -0.53181374 -0.6833603 0.50019294
vn -0.53181374 -0.6833603 0.50019294
vn -0.53181374 -0.68336034 0.50019294
vn -0.1348547 -0.7513062 -0.6460288
vn -0.1348547 -0.7513062 -0.6460287
vn -0.1348547 -0.7513062 -0.6460288
vn -0.1348547 -0.7513062 -0.6460287
vn -0.50367564 -0.44947097 0.73775786
vn -0.50367564 -0.44947097 0.73775786
vn -0.5036757 -0.44947097 0.73775786
vn -0.5036757 -0.44947103 0.73775786
vn 0.9683212 -0.17808585 0.17504182
vn 0.9683212 -0.17808585 0.17504182
vn 0.9683212 -0.17808585 0.17504182
vn 0.9683212 -0.17808585 0.17504182
vn 0.022592792 -0.7264119 -0.6868881
vn 0.02259279 -0.72641194 -0.6868881
vn 0.02259279 -0.72641194 -0.6868881
vn 0.022592789 -0.7264119 -0.6868881
vn -0.95250046 0.1726369 -0.25087732
vn -0.95250046 0.17263687 -0.25087732
vn -0.95250046 0.17263688 -0.25087735
vn -0.95250046 0.17263688 -0.25087732
vn 0.27629676 0.42179513 -0.86356753
vn 0.2762968 0.42179516 -0.86356753
vn 0.27629676 0.42179516 -0.86356753
vn 0.27629676 0.42179516 -0.86356753
vn 0.961395 0.018678492 0.27453747
vn 0.961395 0.018678492 0.27453747
vn 0.961395 0.018678492 0.27453744
vn 0.961395 0.018678525 0.27453744
vn 0.961395 0.018678525 0.27453747
vn -0.99647254 0.06282867 0.05563278
vn -0.99647254 0.06282867 0.055632778
vn -0.99647254 0.06282867 0.05563278
vn -0.99647254 0.06282867 0.055632785
vn -0.06649085 -0.7507532 -0.657228
vn -0.06649085 -0.7507532 -0.6572279
vn -0.06649085 -0.7507532 -0.657228
vn -0.066490844 -0.7507532 -0.6572279
vn 0.9964713 -0.06284098 -0.05564323
vn 0.9964713 -0.06284098 -0.055643227
vn 0.9964713 -0.06284098 -0.055643223
vn 0.9964713 -0.062840976 -0.055643227
vn 0.0665009 0.75075376 0.6572262
vn 0.0665009 0.75075376 0.6572262
vn 0.0665009 0.75075376 0.6572262
vn 0.0665009 0.75075376 0.6572262
vn 0.26538125 0.5709766 -0.7768903
vn 0.26538122 0.57097656 -0.7768903
vn 0.26538122 0.57097656 -0.7768903
vn 0.26538122 0.57097656 -0.7768903
vn -0.9961598 -0.0597266 -0.06401744
vn -0.9961598 -0.0597266 -0.06401745
vn -0.9961598 -0.0597266 -0.06401744
vn -0.9961598 -0.059726603 -0.064017445
vn 0.029930059 -0.9432432 -0.3307512
vn 0.029930059 -0.9432432 -0.3307512
vn 0.029930059 -0.9432432 -0.3307512
vn 0.029930059 -0.9432432 -0.3307512
vn 0.996161 0.059712403 0.06401304
vn 0.996161 0.05971241 0.06401304
vn 0.996161 0.059712406 0.06401305
vn 0.996161 0.05971241 0.06401304
vn -0.02992087 0.9432436 0.33075076
vn -0.02992087 0.9432436 0.33075076
vn -0.029920863 0.9432436 0.33075076
vn -0.02992087 0.9432436 0.33075076
vn 0.33628634 0.46162406 -0.8208622
vn 0.33628634 0.461624 -0.8208622
vn 0.33628634 0.46162406 -0.8208622
vn 0.33628634 0.46162406 -0.8208622
vn -0.9848049 0.1282696 -0.1170735
vn -0.9848049 0.12826963 -0.11707351
vn -0.9848049 0.12826961 -0.11707351
vn -0.9847676 0.1251856 -0.12067002
vn -0.9847676 0.12518562 -0.12067003
vn -0.98325515 0.10866326 -0.1462926
vn -0.98325515 0.10866326 -0.1462926
vn -0.4834154 -0.3264733 0.8122344
vn -0.4834154 -0.32647339 0.8122344
vn -0.4834154 -0.32647333 0.8122344
vn -0.4834154 -0.32647333 0.8122344
vn 0.9898205 -0.098278366 0.10294078
vn 0.9892498 -0.10418171 0.102619916
vn 0.98958325 -0.10430226 0.09922723
vn 0.9892498 -0.10418172 0.102619916
vn 0.9892498 -0.10418172 0.102619916
vn 0.9877564 -0.0768577 0.13575792
vn 0.9877564 -0.07685769 0.13575791
vn 0.9877564 -0.07685773 0.13575794
vn 0.9877564 -0.07685769 0.13575791
vn -0.19564375 0.17687838 0.96459186
vn -0.19564375 0.17687838 0.96459186
vn -0.19564374 0.17687836 0.96459186
vn -0.19564375 0.17687838 0.96459186
vn 0.07563816 0.9934901 0.085184775
vn 0.07563816 0.9934901 0.08518479
vn 0.07563816 0.9934901 0.08518479
vn 0.07563816 0.9934901 0.08518479
vn -0.05602457 0.5258342 0.84874004
vn -0.05602457 0.52583414 0.84874004
vn -0.05602457 0.5258342 0.84874004
vn -0.05602457 0.5258342 0.84874016
vn -0.16935614 0.04553111 0.9845026
vn -0.16935611 0.045531105 0.9845026
vn -0.16935614 0.04553111 0.9845026
vn -0.16935611 0.04553111 0.9845026
vn -0.18282837 0.050286565 0.9818579
vn -0.18282837 0.05028657 0.9818579
vn 0.004372031 0.9613146 -0.27541804
vn 0.0043720305 0.9613146 -0.27541804
vn 0.004372031 0.9613146 -0.27541804
vn 0.0043720305 0.9613146 -0.27541804
vn -0.113072164 0.9876988 0.10800803
vn -0.11307215 0.9876988 0.10800802
vn -0.11307215 0.9876988 0.10800803
vn -0.11307214 0.9876988 0.10800802
g B001_OctopusCover01_02_0
f 3/3/3 2/2/2 1/1/1
f 6/6/6 5/5/5 4/4/4
f 9/9/9 8/8/8 7/7/7
f 12/12/12 11/11/11 10/10/10
f 15/15/15 14/14/14 13/13/13
f 18/18/18 17/17/17 16/16/16
f 21/21/21 20/20/20 19/19/19
f 24/24/24 23/23/23 22/22/22
f 27/27/27 26/26/26 25/25/25
f 30/30/30 29/29/29 28/28/28
f 33/33/33 32/32/32 31/31/31
f 36/36/36 35/35/35 34/34/34
f 39/39/39 38/38/38 37/37/37
f 42/42/42 41/41/41 40/40/40
f 44/44/44 41/41/41 43/43/43
f 45/45/45 44/44/44 43/43/43
f 45/45/45 46/46/46 44/44/44
f 49/49/49 48/48/48 47/47/47
f 52/52/52 51/51/51 50/50/50
f 55/55/55 54/54/54 53/53/53
f 58/58/58 57/57/57 56/56/56
f 61/61/61 60/60/60 59/59/59
f 64/64/64 63/63/63 62/62/62
f 67/67/67 66/66/66 65/65/65
f 70/70/70 69/69/69 68/68/68
f 73/73/73 72/72/72 71/71/71
f 74/74/74 73/73/73 71/71/71
f 77/77/77 76/76/76 75/75/75
f 78/78/78 77/77/77 75/75/75
f 81/81/81 80/80/80 79/79/79
f 82/82/82 81/81/81 79/79/79
f 85/85/85 84/84/84 83/83/83
f 86/86/86 85/85/85 83/83/83
f 89/89/89 88/88/88 87/87/87
f 90/90/90 89/89/89 87/87/87
f 93/93/93 92/92/92 91/91/91
f 94/94/94 93/93/93 91/91/91
f 97/97/97 96/96/96 95/95/95
f 98/98/98 97/97/97 95/95/95
f 101/101/101 100/100/100 99/99/99
f 102/102/102 101/101/101 99/99/99
f 105/105/105 104/104/104 103/103/103
f 106/106/106 105/105/105 103/103/103
f 109/109/109 108/108/108 107/107/107
f 109/109/109 107/107/107 110/110/110
f 111/111/111 110/110/110 107/107/107
f 114/114/114 113/113/113 112/112/112
f 115/115/115 114/114/114 112/112/112
f 118/118/118 117/117/117 116/116/116
f 119/119/119 118/118/118 116/116/116
f 122/122/122 121/121/121 120/120/120
f 123/123/123 122/122/122 120/120/120
f 126/126/126 125/125/125 124/124/124
f 127/127/127 126/126/126 124/124/124
f 130/130/130 129/129/129 128/128/128
f 131/131/131 130/130/130 128/128/128
f 134/134/134 133/133/133 132/132/132
f 135/135/135 134/134/134 132/132/132
f 138/138/138 137/137/137 136/136/136
f 139/139/139 138/138/138 136/136/136
f 142/142/142 141/141/141 140/140/140
f 143/143/143 142/142/142 140/140/140
f 146/146/146 145/145/145 144/144/144
f 147/147/147 146/146/146 144/144/144
f 150/150/150 149/149/149 148/148/148
f 151/151/151 150/150/150 148/148/148
f 154/154/154 153/153/153 152/152/152
f 155/155/155 153/153/153 154/154/154
f 156/156/156 155/155/155 154/154/154
f 157/157/157 156/156/156 154/154/154
f 157/157/157 154/154/154 158/158/158
f 161/161/161 160/160/160 159/159/159
f 162/162/162 161/161/161 159/159/159
f 165/165/165 164/164/164 163/163/163
f 163/163/163 164/164/164 166/166/166
f 167/167/167 166/166/166 164/164/164
f 166/166/166 168/168/168 163/163/163
f 168/168/168 166/166/166 167/167/167
f 168/168/168 169/169/169 163/163/163
f 167/167/167 170/170/170 168/168/168
f 168/168/168 171/171/171 169/169/169
f 170/170/170 171/171/171 168/168/168
f 174/174/174 173/173/173 172/172/172
f 175/175/175 174/174/174 172/172/172
f 178/178/178 177/177/177 176/176/176
f 179/179/179 178/178/178 176/176/176
f 182/182/182 181/181/181 180/180/180
f 183/183/183 182/182/182 180/180/180
f 186/186/186 185/185/185 184/184/184
f 185/185/185 187/187/187 184/184/184
f 185/185/185 188/188/188 187/187/187
f 188/188/188 189/189/189 187/187/187
f 192/192/192 191/191/191 190/190/190
f 193/193/193 192/192/192 190/190/190
f 196/196/196 195/195/195 194/194/194
f 197/197/197 196/196/196 194/194/194
