g B003_BB04
v 17.711216 -1.4375182 11.300432
v 17.653618 4.6254606 11.3188715
v 18.031641 -1.4259728 10.971647
v 17.974068 4.6349688 10.990078
v 18.031641 -1.4259728 10.971647
v 17.653618 4.6254606 11.3188715
v -19.855625 4.7710857 -12.067001
v -19.798359 -1.2598913 -12.112361
v -19.535194 4.7805634 -12.395788
v -19.47794 -1.2483605 -12.441147
v -19.535194 4.7805634 -12.395788
v -19.798359 -1.2598913 -12.112361
v 18.031641 -1.4259728 10.971647
v 17.413515 -1.833214 10.718869
v 17.711216 -1.4375182 11.300432
v -19.764473 -1.4644811 10.970422
v -19.435654 -1.4629382 11.29092
v -19.29588 -1.8497131 10.701643
v 17.668896 -1.2229089 -12.431628
v 17.678282 -1.6492736 -12.119294
v 17.99775 -1.2213806 -12.111137
v -19.47794 -1.2483605 -12.441147
v -19.798359 -1.2598913 -12.112361
v -19.297676 -1.6481799 -12.1452265
v 17.678282 -1.6492736 -12.119294
v 17.413515 -1.833214 10.718869
v 17.99775 -1.2213806 -12.111137
v 18.031641 -1.4259728 10.971647
v 17.99775 -1.2213806 -12.111137
v 17.413515 -1.833214 10.718869
v -0.4157129 -7.5907907 9.788104
v -0.7994336 -7.8453197 9.814032
v -0.7780713 -7.5843396 10.19224
v -18.944492 -7.519984 10.2487545
v -18.540308 -7.516085 10.611103
v -18.561684 -7.777069 10.232901
v -1.5805956 -7.6741357 -4.962921
v -1.358999 -7.9257665 -4.6442466
v -1.0461864 -7.671257 -4.8679624
v -19.660122 -7.606462 -4.1410656
v -19.755093 -7.600973 -3.6066418
v -19.438505 -7.8580923 -3.8223937
v -1.358999 -7.9257665 -4.6442466
v -0.7994336 -7.8453197 9.814032
v -1.0461864 -7.671257 -4.8679624
v -0.4157129 -7.5907907 9.788104
v -1.0461864 -7.671257 -4.8679624
v -0.7994336 -7.8453197 9.814032
v -18.561684 -7.777069 10.232901
v -19.438505 -7.8580923 -3.8223937
v -18.944492 -7.519984 10.2487545
v -19.755093 -7.600973 -3.6066418
v -18.944492 -7.519984 10.2487545
v -19.438505 -7.8580923 -3.8223937
v 11.421836 -4.149499 12.441145
v 11.427963 0.0027346802 12.425246
v 11.68748 -4.149499 12.323369
v 11.693608 0.0027297973 12.307468
v 11.68748 -4.149499 12.323369
v 11.427963 0.0027346802 12.425246
v 11.68748 -4.149499 12.323369
v 11.498803 -4.5767546 12.18971
v 11.421836 -4.149499 12.441145
v 4.2000146 -4.149499 9.065168
v 4.317793 -4.149499 9.330808
v 4.4683933 -4.576752 9.026926
v 14.672481 -4.149498 5.1134152
v 14.598539 -4.590685 5.3051195
v 14.790254 -4.149498 5.3790503
v 7.5705514 -4.149498 1.9589587
v 7.304917 -4.149498 2.0767334
v 7.5282125 -4.576751 2.1655188
v 14.598539 -4.590685 5.3051195
v 11.498803 -4.5767546 12.18971
v 14.790254 -4.149498 5.3790503
v 11.68748 -4.149499 12.323369
v 14.790254 -4.149498 5.3790503
v 11.498803 -4.5767546 12.18971
v 11.498803 -4.5767546 12.18971
v 4.4683933 -4.576752 9.026926
v 11.421836 -4.149499 12.441145
v 4.317793 -4.149499 9.330808
v 11.421836 -4.149499 12.441145
v 4.4683933 -4.576752 9.026926
v 5.6816745 -5.6699142 11.410422
v 5.680996 -0.05148239 11.393347
v 5.9130907 -5.669915 11.204739
v 5.9124265 -0.051487274 11.187666
v 5.9130907 -5.669915 11.204739
v 5.680996 -0.05148239 11.393347
v 5.9130907 -5.669915 11.204739
v 5.649619 -6.097171 11.147507
v 5.6816745 -5.6699142 11.410422
v -3.621543 -5.669915 11.234641
v -3.3739452 -5.6699142 11.440854
v -3.3509033 -6.09717 11.10239
v 5.828784 -5.669915 3.385775
v 5.8368454 -6.111102 3.591721
v 6.0763426 -5.6699142 3.5919824
v -3.244702 -5.6699157 3.3741698
v -3.4761035 -5.6699157 3.5798473
v -3.1959276 -6.097169 3.5826561
v 5.8368454 -6.111102 3.591721
v 5.649619 -6.097171 11.147507
v 6.0763426 -5.6699142 3.5919824
v 5.9130907 -5.669915 11.204739
v 6.0763426 -5.6699142 3.5919824
v 5.649619 -6.097171 11.147507
v 5.649619 -6.097171 11.147507
v -3.3509033 -6.09717 11.10239
v 5.6816745 -5.6699142 11.410422
v -3.3739452 -5.6699142 11.440854
v 5.6816745 -5.6699142 11.410422
v -3.3509033 -6.09717 11.10239
v 20.555185 -5.6699142 11.410422
v 20.554506 -0.47595504 11.393347
v 20.786602 -5.669915 11.204739
v 20.785936 -0.47595993 11.187663
v 20.786602 -5.669915 11.204739
v 20.554506 -0.47595504 11.393347
v 20.786602 -5.669915 11.204739
v 20.523129 -6.097171 11.147507
v 20.555185 -5.6699142 11.410422
v 12.341522 -5.669915 11.234641
v 12.58912 -5.6699142 11.440854
v 12.612162 -6.09717 11.10239
v 20.442394 -5.6699157 1.9421127
v 20.450455 -6.1111026 2.1480591
v 20.68995 -5.6699157 2.14832
v 12.458466 -5.6699157 1.9305074
v 12.227059 -5.6699157 2.136185
v 12.507235 -6.097169 2.138994
v 20.450455 -6.1111026 2.1480591
v 20.523129 -6.097171 11.147507
v 20.68995 -5.6699157 2.14832
v 20.786602 -5.669915 11.204739
v 20.68995 -5.6699157 2.14832
v 20.523129 -6.097171 11.147507
v 20.523129 -6.097171 11.147507
v 12.612162 -6.09717 11.10239
v 20.555185 -5.6699142 11.410422
v 12.58912 -5.6699142 11.440854
v 20.555185 -5.6699142 11.410422
v 12.612162 -6.09717 11.10239
v -5.148241 -7.3165746 -3.563869
v -5.168906 -0.25394592 -3.6560545
v -5.0209885 -7.322671 -4.0608525
v -5.041655 -0.2600377 -4.1530604
v -5.0209885 -7.322671 -4.0608525
v -5.168906 -0.25394592 -3.6560545
v -5.0209885 -7.322671 -4.0608525
v -5.3313036 -7.563235 -3.8715558
v -5.148241 -7.3165746 -3.563869
v -14.838545 -7.255749 2.5868225
v -14.34152 -7.252064 2.714043
v -14.524593 -7.498729 2.4063635
v -12.277217 -7.4014435 -15.1668005
v -11.952313 -7.6392674 -14.996452
v -11.7878065 -7.398723 -15.320572
v -21.722193 -7.337483 -9.162286
v -21.568422 -7.332295 -8.672858
v -21.39727 -7.5753064 -8.991952
v -11.952313 -7.6392674 -14.996452
v -5.3313036 -7.563235 -3.8715558
v -11.7878065 -7.398723 -15.320572
v -5.0209885 -7.322671 -4.0608525
v -11.7878065 -7.398723 -15.320572
v -5.3313036 -7.563235 -3.8715558
v -14.524593 -7.498729 2.4063635
v -21.39727 -7.5753064 -8.991952
v -14.838545 -7.255749 2.5868225
v -21.568422 -7.332295 -8.672858
v -14.838545 -7.255749 2.5868225
v -21.39727 -7.5753064 -8.991952
v 17.653618 4.6254606 11.3188715
v 17.711216 -1.4375182 11.300432
v -19.493242 4.604584 11.3093405
v -19.435654 -1.4629382 11.29092
v -19.82209 4.6033196 10.988843
v -19.764473 -1.4644811 10.970422
v -19.855625 4.7710857 -12.067001
v -19.798359 -1.2598913 -12.112361
v -19.535194 4.7805634 -12.395788
v -19.47794 -1.2483605 -12.441147
v 17.611664 4.8014703 -12.386265
v 17.668896 -1.2229089 -12.431628
v 17.940483 4.8027105 -12.065774
v 17.99775 -1.2213806 -12.111137
v 17.974068 4.6349688 10.990078
v 18.031641 -1.4259728 10.971647
v -19.493242 4.604584 11.3093405
v -19.435654 -1.4629382 11.29092
v -19.82209 4.6033196 10.988843
v -19.764473 -1.4644811 10.970422
v 17.611664 4.8014703 -12.386265
v 17.668896 -1.2229089 -12.431628
v 17.940483 4.8027105 -12.065774
v 17.99775 -1.2213806 -12.111137
v -19.297676 -1.6481799 -12.1452265
v 17.678282 -1.6492736 -12.119294
v -19.47794 -1.2483605 -12.441147
v 17.668896 -1.2229089 -12.431628
v -19.29588 -1.8497131 10.701643
v -19.297676 -1.6481799 -12.1452265
v -19.764473 -1.4644811 10.970422
v -19.798359 -1.2598913 -12.112361
v 17.413515 -1.833214 10.718869
v -19.29588 -1.8497131 10.701643
v 17.711216 -1.4375182 11.300432
v -19.435654 -1.4629382 11.29092
v -0.7523974 -0.111726075 10.0956335
v -0.7780713 -7.5843396 10.19224
v -18.514658 -0.043491516 10.5144825
v -18.540308 -7.516085 10.611103
v -18.918823 -0.047388 10.152134
v -18.944492 -7.519984 10.2487545
v -19.753881 -0.12782364 -3.6596704
v -19.755093 -7.600973 -3.6066418
v -19.658892 -0.13331208 -4.194094
v -19.660122 -7.606462 -4.1410656
v -1.5793749 -0.20097777 -5.0159397
v -1.5805956 -7.6741357 -4.962921
v -1.0449463 -0.19808227 -4.920986
v -1.0461864 -7.671257 -4.8679624
v -0.39002928 -0.11817139 9.691479
v -0.4157129 -7.5907907 9.788104
v -18.514658 -0.043491516 10.5144825
v -18.540308 -7.516085 10.611103
v -18.918823 -0.047388 10.152134
v -18.944492 -7.519984 10.2487545
v -0.7780713 -7.5843396 10.19224
v -0.7523974 -0.111726075 10.0956335
v -0.4157129 -7.5907907 9.788104
v -0.39002928 -0.11817139 9.691479
v -19.753881 -0.12782364 -3.6596704
v -19.755093 -7.600973 -3.6066418
v -19.658892 -0.13331208 -4.194094
v -19.660122 -7.606462 -4.1410656
v -1.5793749 -0.20097777 -5.0159397
v -1.5805956 -7.6741357 -4.962921
v -1.0449463 -0.19808227 -4.920986
v -1.0461864 -7.671257 -4.8679624
v -19.438505 -7.8580923 -3.8223937
v -1.358999 -7.9257665 -4.6442466
v -19.660122 -7.606462 -4.1410656
v -1.5805956 -7.6741357 -4.962921
v -0.7994336 -7.8453197 9.814032
v -18.561684 -7.777069 10.232901
v -0.7780713 -7.5843396 10.19224
v -18.540308 -7.516085 10.611103
v 11.427963 0.0027346802 12.425246
v 11.421836 -4.149499 12.441145
v 4.3239207 0.0027348327 9.314915
v 4.317793 -4.149499 9.330808
v 4.206157 0.0027301025 9.049274
v 4.2000146 -4.149499 9.065168
v 7.304912 -0.024659423 2.0767395
v 7.304917 -4.149498 2.0767334
v 7.5705466 -0.024659423 1.9589648
v 7.5705514 -4.149498 1.9589587
v 14.672485 -0.024671936 5.11343
v 14.672481 -4.149498 5.1134152
v 14.790258 -0.024671936 5.37906
v 14.790254 -4.149498 5.3790503
v 11.693608 0.0027297973 12.307468
v 11.68748 -4.149499 12.323369
v 4.3239207 0.0027348327 9.314915
v 4.317793 -4.149499 9.330808
v 4.206157 0.0027301025 9.049274
v 4.2000146 -4.149499 9.065168
v 7.304912 -0.024659423 2.0767395
v 7.304917 -4.149498 2.0767334
v 7.5705466 -0.024659423 1.9589648
v 7.5705514 -4.149498 1.9589587
v 14.672485 -0.024671936 5.11343
v 14.672481 -4.149498 5.1134152
v 14.790258 -0.024671936 5.37906
v 14.790254 -4.149498 5.3790503
v 7.5282125 -4.576751 2.1655188
v 14.598539 -4.590685 5.3051195
v 7.5705514 -4.149498 1.9589587
v 14.672481 -4.149498 5.1134152
v 4.4683933 -4.576752 9.026926
v 7.5282125 -4.576751 2.1655188
v 4.2000146 -4.149499 9.065168
v 7.304917 -4.149498 2.0767334
v 5.680996 -0.05148239 11.393347
v 5.6816745 -5.6699142 11.410422
v -3.374619 -0.05148178 11.423781
v -3.3739452 -5.6699142 11.440854
v -3.6221924 -0.051486664 11.217561
v -3.621543 -5.669915 11.234641
v -3.4761083 -0.07887634 3.579856
v -3.4761035 -5.6699157 3.5798473
v -3.244702 -0.07887634 3.3741748
v -3.244702 -5.6699157 3.3741698
v 5.8287888 -0.078888856 3.3857872
v 5.828784 -5.669915 3.385775
v 6.0763474 -0.078889005 3.591991
v 6.0763426 -5.6699142 3.5919824
v 5.9124265 -0.051487274 11.187666
v 5.9130907 -5.669915 11.204739
v -3.374619 -0.05148178 11.423781
v -3.3739452 -5.6699142 11.440854
v -3.6221924 -0.051486664 11.217561
v -3.621543 -5.669915 11.234641
v -3.4761083 -0.07887634 3.579856
v -3.4761035 -5.6699157 3.5798473
v -3.244702 -0.07887634 3.3741748
v -3.244702 -5.6699157 3.3741698
v 5.8287888 -0.078888856 3.3857872
v 5.828784 -5.669915 3.385775
v 6.0763474 -0.078889005 3.591991
v 6.0763426 -5.6699142 3.5919824
v -3.1959276 -6.097169 3.5826561
v 5.8368454 -6.111102 3.591721
v -3.244702 -5.6699157 3.3741698
v 5.828784 -5.669915 3.385775
v -3.3509033 -6.09717 11.10239
v -3.1959276 -6.097169 3.5826561
v -3.621543 -5.669915 11.234641
v -3.4761035 -5.6699157 3.5798473
v 20.554506 -0.47595504 11.393347
v 20.555185 -5.6699142 11.410422
v 12.588441 -0.4759544 11.4237795
v 12.58912 -5.6699142 11.440854
v 12.340868 -0.4759593 11.217558
v 12.341522 -5.669915 11.234641
v 12.227059 -0.5033488 2.1361938
v 12.227059 -5.6699157 2.136185
v 12.458466 -0.5033488 1.9305127
v 12.458466 -5.6699157 1.9305074
v 20.442398 -0.50336134 1.9421252
v 20.442394 -5.6699157 1.9421127
v 20.689955 -0.50336134 2.1483288
v 20.68995 -5.6699157 2.14832
v 20.785936 -0.47595993 11.187663
v 20.786602 -5.669915 11.204739
v 12.588441 -0.4759544 11.4237795
v 12.58912 -5.6699142 11.440854
v 12.340868 -0.4759593 11.217558
v 12.341522 -5.669915 11.234641
v 12.227059 -0.5033488 2.1361938
v 12.227059 -5.6699157 2.136185
v 12.458466 -0.5033488 1.9305127
v 12.458466 -5.6699157 1.9305074
v 20.442398 -0.50336134 1.9421252
v 20.442394 -5.6699157 1.9421127
v 20.689955 -0.50336134 2.1483288
v 20.68995 -5.6699157 2.14832
v 12.507235 -6.097169 2.138994
v 20.450455 -6.1111026 2.1480591
v 12.458466 -5.6699157 1.9305074
v 20.442394 -5.6699157 1.9421127
v 12.612162 -6.09717 11.10239
v 12.507235 -6.097169 2.138994
v 12.341522 -5.669915 11.234641
v 12.227059 -5.6699157 2.136185
v -5.168906 -0.25394592 -3.6560545
v -5.148241 -7.3165746 -3.563869
v -14.362218 -0.1894545 2.6218555
v -14.34152 -7.252064 2.714043
v -14.859222 -0.19313766 2.494627
v -14.838545 -7.255749 2.5868225
v -21.590567 -0.26915953 -8.717837
v -21.568422 -7.332295 -8.672858
v -21.74432 -0.27434707 -9.2072735
v -21.722193 -7.337483 -9.162286
v -12.299348 -0.33830047 -15.211773
v -12.277217 -7.4014435 -15.1668005
v -11.80992 -0.3355638 -15.365559
v -11.7878065 -7.398723 -15.320572
v -5.041655 -0.2600377 -4.1530604
v -5.0209885 -7.322671 -4.0608525
v -14.362218 -0.1894545 2.6218555
v -14.34152 -7.252064 2.714043
v -14.859222 -0.19313766 2.494627
v -14.838545 -7.255749 2.5868225
v -21.590567 -0.26915953 -8.717837
v -21.568422 -7.332295 -8.672858
v -21.74432 -0.27434707 -9.2072735
v -21.722193 -7.337483 -9.162286
v -12.299348 -0.33830047 -15.211773
v -12.277217 -7.4014435 -15.1668005
v -11.80992 -0.3355638 -15.365559
v -11.7878065 -7.398723 -15.320572
v -21.39727 -7.5753064 -8.991952
v -11.952313 -7.6392674 -14.996452
v -21.722193 -7.337483 -9.162286
v -12.277217 -7.4014435 -15.1668005
v -5.3313036 -7.563235 -3.8715558
v -14.524593 -7.498729 2.4063635
v -5.148241 -7.3165746 -3.563869
v -14.34152 -7.252064 2.714043
v -19.29588 -1.8497131 10.701643
v 17.413515 -1.833214 10.718869
v -19.297676 -1.6481799 -12.1452265
v 17.678282 -1.6492736 -12.119294
v -18.561684 -7.777069 10.232901
v -0.7994336 -7.8453197 9.814032
v -19.438505 -7.8580923 -3.8223937
v -1.358999 -7.9257665 -4.6442466
v 4.4683933 -4.576752 9.026926
v 11.498803 -4.5767546 12.18971
v 7.5282125 -4.576751 2.1655188
v 14.598539 -4.590685 5.3051195
v -3.3509033 -6.09717 11.10239
v 5.649619 -6.097171 11.147507
v -3.1959276 -6.097169 3.5826561
v 5.8368454 -6.111102 3.591721
v 12.612162 -6.09717 11.10239
v 20.523129 -6.097171 11.147507
v 12.507235 -6.097169 2.138994
v 20.450455 -6.1111026 2.1480591
v -14.524593 -7.498729 2.4063635
v -5.3313036 -7.563235 -3.8715558
v -21.39727 -7.5753064 -8.991952
v -11.952313 -7.6392674 -14.996452
v 17.413544 5.097404 10.639683
v 17.807129 4.936391 11.002974
v 17.646948 4.931623 11.167373
v -19.295801 5.08383 10.622456
v -19.499903 4.9107537 11.157837
v -19.664316 4.9101286 10.997593
v 17.400244 5.255862 -11.666158
v 17.6092 5.103462 -12.213135
v 17.773603 5.1041093 -12.052896
v -19.30918 5.24231 -11.683387
v -19.697851 5.077886 -12.058254
v -19.537636 5.082625 -12.222646
v -0.8736816 0.49148926 9.452811
v -0.5790234 0.6039767 9.697426
v -0.7601904 0.60718995 9.899496
v -18.490707 0.559133 9.85623
v -18.523886 0.34425995 10.318867
v -18.725965 0.34230942 10.13771
v -1.2544482 0.41444945 -4.454211
v -1.4700048 0.19147094 -4.8618116
v -1.2027832 0.19289398 -4.814343
v -19.218697 0.48153168 -3.7220213
v -19.597006 0.26187345 -3.7727537
v -19.549507 0.25911698 -4.0399704
v -18.523886 0.34425995 10.318867
v -18.490707 0.559133 9.85623
v -0.7601904 0.60718995 9.899496
v -0.8736816 0.49148926 9.452811
v -0.7601904 0.60718995 9.899496
v -18.490707 0.559133 9.85623
v -19.597006 0.26187345 -3.7727537
v -19.218697 0.48153168 -3.7220213
v -18.725965 0.34230942 10.13771
v -18.490707 0.559133 9.85623
v -18.725965 0.34230942 10.13771
v -19.218697 0.48153168 -3.7220213
v -1.4700048 0.19147094 -4.8618116
v -1.2544482 0.41444945 -4.454211
v -19.549507 0.25911698 -4.0399704
v -19.218697 0.48153168 -3.7220213
v -19.549507 0.25911698 -4.0399704
v -1.2544482 0.41444945 -4.454211
v -0.5790234 0.6039767 9.697426
v -0.8736816 0.49148926 9.452811
v -1.2027832 0.19289398 -4.814343
v -1.2544482 0.41444945 -4.454211
v -1.2027832 0.19289398 -4.814343
v -0.8736816 0.49148926 9.452811
v -1.0449463 -0.19808227 -4.920986
v -0.5790234 0.6039767 9.697426
v -18.514658 -0.043491516 10.5144825
v -18.523886 0.34425995 10.318867
v -0.7523974 -0.111726075 10.0956335
v -0.7601904 0.60718995 9.899496
v -0.7523974 -0.111726075 10.0956335
v -18.523886 0.34425995 10.318867
v -19.753881 -0.12782364 -3.6596704
v -19.597006 0.26187345 -3.7727537
v -18.918823 -0.047388 10.152134
v -18.725965 0.34230942 10.13771
v -18.918823 -0.047388 10.152134
v -19.597006 0.26187345 -3.7727537
v -0.39002928 -0.11817139 9.691479
v -0.5790234 0.6039767 9.697426
v -1.0449463 -0.19808227 -4.920986
v 11.504858 0.5853372 12.174055
v 11.597749 0.32211944 12.270508
v 11.464946 0.32211944 12.329396
v 4.4744186 0.5853375 9.011271
v 4.3608737 0.3221196 9.21906
v 4.301997 0.32211974 9.086238
v 14.598544 0.54788667 5.3051267
v 14.635512 0.32213715 5.209275
v 14.694408 0.32213715 5.3420873
v 7.522241 0.56307954 2.1814294
v 7.4007616 0.32213745 2.1137035
v 7.5335836 0.32215208 2.0548155
v 4.3608737 0.3221196 9.21906
v 4.4744186 0.5853375 9.011271
v 11.464946 0.32211944 12.329396
v 11.504858 0.5853372 12.174055
v 11.464946 0.32211944 12.329396
v 4.4744186 0.5853375 9.011271
v 7.4007616 0.32213745 2.1137035
v 7.522241 0.56307954 2.1814294
v 4.301997 0.32211974 9.086238
v 4.4744186 0.5853375 9.011271
v 4.301997 0.32211974 9.086238
v 7.522241 0.56307954 2.1814294
v 5.6489744 0.5311201 11.130681
v 5.7926707 0.26790237 11.187536
v 5.6769824 0.26790237 11.290373
v -3.351582 0.5311201 11.085576
v -3.3786669 0.26790297 11.320807
v -3.502461 0.26790297 11.217697
v 5.8368554 0.49366957 3.5917284
v 5.832827 0.26792023 3.4887571
v 5.956611 0.26792008 3.591853
v -3.1950927 0.50886244 3.5996873
v -3.3563719 0.26792082 3.5799878
v -3.2406738 0.26793548 3.477146
v -3.3786669 0.26790297 11.320807
v -3.351582 0.5311201 11.085576
v 5.6769824 0.26790237 11.290373
v 5.6489744 0.5311201 11.130681
v 5.6769824 0.26790237 11.290373
v -3.351582 0.5311201 11.085576
v -3.3563719 0.26792082 3.5799878
v -3.1950927 0.50886244 3.5996873
v -3.502461 0.26790297 11.217697
v -3.351582 0.5311201 11.085576
v -3.502461 0.26790297 11.217697
v -3.1950927 0.50886244 3.5996873
v 20.522486 0.10664749 11.130681
v 20.666182 -0.15657029 11.187536
v 20.550493 -0.15657029 11.290373
v 12.611478 0.10664749 11.085573
v 12.5843935 -0.15656967 11.320806
v 12.460599 -0.15656967 11.217695
v 20.450464 0.06919723 2.1480663
v 20.446436 -0.15655227 2.0450952
v 20.570219 -0.15655227 2.148191
v 12.508075 0.084389955 2.1560254
v 12.346795 -0.15655181 2.1363256
v 12.462489 -0.15653716 2.0334837
v 12.5843935 -0.15656967 11.320806
v 12.611478 0.10664749 11.085573
v 20.550493 -0.15657029 11.290373
v 20.522486 0.10664749 11.130681
v 20.550493 -0.15657029 11.290373
v 12.611478 0.10664749 11.085573
v 12.346795 -0.15655181 2.1363256
v 12.508075 0.084389955 2.1560254
v 12.460599 -0.15656967 11.217695
v 12.611478 0.10664749 11.085573
v 12.460599 -0.15656967 11.217695
v 12.508075 0.084389955 2.1560254
v -5.5512767 0.3161737 -4.141909
v -5.1974745 0.42248932 -4.065544
v -5.261089 0.4255264 -3.8170543
v -14.629588 0.38010618 2.0596454
v -14.455371 0.1770233 2.4619172
v -14.703866 0.17517853 2.398317
v -11.7816925 0.24336211 -14.882821
v -12.1403675 0.03261688 -15.1303425
v -11.895652 0.033962097 -15.207247
v -21.169193 0.306763 -9.003806
v -21.508451 0.0991571 -8.881129
v -21.585327 0.09655181 -9.125853
v -14.455371 0.1770233 2.4619172
v -14.629588 0.38010618 2.0596454
v -5.261089 0.4255264 -3.8170543
v -5.5512767 0.3161737 -4.141909
v -5.261089 0.4255264 -3.8170543
v -14.629588 0.38010618 2.0596454
v -21.508451 0.0991571 -8.881129
v -21.169193 0.306763 -9.003806
v -14.703866 0.17517853 2.398317
v -14.629588 0.38010618 2.0596454
v -14.703866 0.17517853 2.398317
v -21.169193 0.306763 -9.003806
v -12.1403675 0.03261688 -15.1303425
v -11.7816925 0.24336211 -14.882821
v -21.585327 0.09655181 -9.125853
v -21.169193 0.306763 -9.003806
v -21.585327 0.09655181 -9.125853
v -11.7816925 0.24336211 -14.882821
v -5.1974745 0.42248932 -4.065544
v -5.5512767 0.3161737 -4.141909
v -11.895652 0.033962097 -15.207247
v -11.7816925 0.24336211 -14.882821
v -11.895652 0.033962097 -15.207247
v -5.5512767 0.3161737 -4.141909
v -14.362218 -0.1894545 2.6218555
v -14.455371 0.1770233 2.4619172
v -5.168906 -0.25394592 -3.6560545
v -5.261089 0.4255264 -3.8170543
v -5.168906 -0.25394592 -3.6560545
v -14.455371 0.1770233 2.4619172
v -21.590567 -0.26915953 -8.717837
v -21.508451 0.0991571 -8.881129
v -14.859222 -0.19313766 2.494627
v -14.703866 0.17517853 2.398317
v -14.859222 -0.19313766 2.494627
v -21.508451 0.0991571 -8.881129
v -5.041655 -0.2600377 -4.1530604
v -5.1974745 0.42248932 -4.065544
v -11.80992 -0.3355638 -15.365559
v -11.895652 0.033962097 -15.207247
v -11.80992 -0.3355638 -15.365559
v -5.1974745 0.42248932 -4.065544
v 17.653618 4.6254606 11.3188715
v 17.646948 4.931623 11.167373
v 17.974068 4.6349688 10.990078
v 17.807129 4.936391 11.002974
v -19.82209 4.6033196 10.988843
v -19.664316 4.9101286 10.997593
v -19.493242 4.604584 11.3093405
v -19.499903 4.9107537 11.157837
v 17.940483 4.8027105 -12.065774
v 17.773603 5.1041093 -12.052896
v 17.611664 4.8014703 -12.386265
v 17.6092 5.103462 -12.213135
v -19.535194 4.7805634 -12.395788
v -19.537636 5.082625 -12.222646
v -19.855625 4.7710857 -12.067001
v -19.697851 5.077886 -12.058254
v -19.499903 4.9107537 11.157837
v -19.295801 5.08383 10.622456
v 17.646948 4.931623 11.167373
v 17.413544 5.097404 10.639683
v -19.697851 5.077886 -12.058254
v -19.30918 5.24231 -11.683387
v -19.664316 4.9101286 10.997593
v -19.295801 5.08383 10.622456
v 17.6092 5.103462 -12.213135
v 17.400244 5.255862 -11.666158
v -19.537636 5.082625 -12.222646
v -19.30918 5.24231 -11.683387
v 17.807129 4.936391 11.002974
v 17.413544 5.097404 10.639683
v 17.773603 5.1041093 -12.052896
v 17.400244 5.255862 -11.666158
v -19.493242 4.604584 11.3093405
v -19.499903 4.9107537 11.157837
v 17.653618 4.6254606 11.3188715
v 17.646948 4.931623 11.167373
v -19.855625 4.7710857 -12.067001
v -19.697851 5.077886 -12.058254
v -19.82209 4.6033196 10.988843
v -19.664316 4.9101286 10.997593
v 17.611664 4.8014703 -12.386265
v 17.6092 5.103462 -12.213135
v -19.535194 4.7805634 -12.395788
v -19.537636 5.082625 -12.222646
v 17.974068 4.6349688 10.990078
v 17.807129 4.936391 11.002974
v 17.940483 4.8027105 -12.065774
v 17.773603 5.1041093 -12.052896
v -0.7523974 -0.111726075 10.0956335
v -0.7601904 0.60718995 9.899496
v -0.39002928 -0.11817139 9.691479
v -0.5790234 0.6039767 9.697426
v -18.918823 -0.047388 10.152134
v -18.725965 0.34230942 10.13771
v -18.514658 -0.043491516 10.5144825
v -18.523886 0.34425995 10.318867
v -1.0449463 -0.19808227 -4.920986
v -1.2027832 0.19289398 -4.814343
v -1.5793749 -0.20097777 -5.0159397
v -1.4700048 0.19147094 -4.8618116
v -19.658892 -0.13331208 -4.194094
v -19.549507 0.25911698 -4.0399704
v -19.753881 -0.12782364 -3.6596704
v -19.597006 0.26187345 -3.7727537
v -1.5793749 -0.20097777 -5.0159397
v -1.4700048 0.19147094 -4.8618116
v -19.658892 -0.13331208 -4.194094
v -19.549507 0.25911698 -4.0399704
v 11.427963 0.0027346802 12.425246
v 11.464946 0.32211944 12.329396
v 11.693608 0.0027297973 12.307468
v 11.597749 0.32211944 12.270508
v 4.206157 0.0027301025 9.049274
v 4.301997 0.32211974 9.086238
v 4.3239207 0.0027348327 9.314915
v 4.3608737 0.3221196 9.21906
v 14.790258 -0.024671936 5.37906
v 14.694408 0.32213715 5.3420873
v 14.672485 -0.024671936 5.11343
v 14.635512 0.32213715 5.209275
v 7.5705466 -0.024659423 1.9589648
v 7.5335836 0.32215208 2.0548155
v 7.304912 -0.024659423 2.0767395
v 7.4007616 0.32213745 2.1137035
v 14.635512 0.32213715 5.209275
v 14.598544 0.54788667 5.3051267
v 7.5335836 0.32215208 2.0548155
v 7.522241 0.56307954 2.1814294
v 11.597749 0.32211944 12.270508
v 11.504858 0.5853372 12.174055
v 14.694408 0.32213715 5.3420873
v 14.598544 0.54788667 5.3051267
v 4.3239207 0.0027348327 9.314915
v 4.3608737 0.3221196 9.21906
v 11.427963 0.0027346802 12.425246
v 11.464946 0.32211944 12.329396
v 7.304912 -0.024659423 2.0767395
v 7.4007616 0.32213745 2.1137035
v 4.206157 0.0027301025 9.049274
v 4.301997 0.32211974 9.086238
v 14.672485 -0.024671936 5.11343
v 14.635512 0.32213715 5.209275
v 7.5705466 -0.024659423 1.9589648
v 7.5335836 0.32215208 2.0548155
v 11.693608 0.0027297973 12.307468
v 11.597749 0.32211944 12.270508
v 14.790258 -0.024671936 5.37906
v 14.694408 0.32213715 5.3420873
v 5.680996 -0.05148239 11.393347
v 5.6769824 0.26790237 11.290373
v 5.9124265 -0.051487274 11.187666
v 5.7926707 0.26790237 11.187536
v -3.6221924 -0.051486664 11.217561
v -3.502461 0.26790297 11.217697
v -3.374619 -0.05148178 11.423781
v -3.3786669 0.26790297 11.320807
v 6.0763474 -0.078889005 3.591991
v 5.956611 0.26792008 3.591853
v 5.8287888 -0.078888856 3.3857872
v 5.832827 0.26792023 3.4887571
v -3.244702 -0.07887634 3.3741748
v -3.2406738 0.26793548 3.477146
v -3.4761083 -0.07887634 3.579856
v -3.3563719 0.26792082 3.5799878
v 5.832827 0.26792023 3.4887571
v 5.8368554 0.49366957 3.5917284
v -3.2406738 0.26793548 3.477146
v -3.1950927 0.50886244 3.5996873
v 5.7926707 0.26790237 11.187536
v 5.6489744 0.5311201 11.130681
v 5.956611 0.26792008 3.591853
v 5.8368554 0.49366957 3.5917284
v -3.374619 -0.05148178 11.423781
v -3.3786669 0.26790297 11.320807
v 5.680996 -0.05148239 11.393347
v 5.6769824 0.26790237 11.290373
v -3.4761083 -0.07887634 3.579856
v -3.3563719 0.26792082 3.5799878
v -3.6221924 -0.051486664 11.217561
v -3.502461 0.26790297 11.217697
v 5.8287888 -0.078888856 3.3857872
v 5.832827 0.26792023 3.4887571
v -3.244702 -0.07887634 3.3741748
v -3.2406738 0.26793548 3.477146
v 5.9124265 -0.051487274 11.187666
v 5.7926707 0.26790237 11.187536
v 6.0763474 -0.078889005 3.591991
v 5.956611 0.26792008 3.591853
v 20.554506 -0.47595504 11.393347
v 20.550493 -0.15657029 11.290373
v 20.785936 -0.47595993 11.187663
v 20.666182 -0.15657029 11.187536
v 12.340868 -0.4759593 11.217558
v 12.460599 -0.15656967 11.217695
v 12.588441 -0.4759544 11.4237795
v 12.5843935 -0.15656967 11.320806
v 20.689955 -0.50336134 2.1483288
v 20.570219 -0.15655227 2.148191
v 20.442398 -0.50336134 1.9421252
v 20.446436 -0.15655227 2.0450952
v 12.458466 -0.5033488 1.9305127
v 12.462489 -0.15653716 2.0334837
v 12.227059 -0.5033488 2.1361938
v 12.346795 -0.15655181 2.1363256
v 20.446436 -0.15655227 2.0450952
v 20.450464 0.06919723 2.1480663
v 12.462489 -0.15653716 2.0334837
v 12.508075 0.084389955 2.1560254
v 20.666182 -0.15657029 11.187536
v 20.522486 0.10664749 11.130681
v 20.570219 -0.15655227 2.148191
v 20.450464 0.06919723 2.1480663
v 12.588441 -0.4759544 11.4237795
v 12.5843935 -0.15656967 11.320806
v 20.554506 -0.47595504 11.393347
v 20.550493 -0.15657029 11.290373
v 12.227059 -0.5033488 2.1361938
v 12.346795 -0.15655181 2.1363256
v 12.340868 -0.4759593 11.217558
v 12.460599 -0.15656967 11.217695
v 20.442398 -0.50336134 1.9421252
v 20.446436 -0.15655227 2.0450952
v 12.458466 -0.5033488 1.9305127
v 12.462489 -0.15653716 2.0334837
v 20.785936 -0.47595993 11.187663
v 20.666182 -0.15657029 11.187536
v 20.689955 -0.50336134 2.1483288
v 20.570219 -0.15655227 2.148191
v -5.168906 -0.25394592 -3.6560545
v -5.261089 0.4255264 -3.8170543
v -5.041655 -0.2600377 -4.1530604
v -5.1974745 0.42248932 -4.065544
v -14.859222 -0.19313766 2.494627
v -14.703866 0.17517853 2.398317
v -14.362218 -0.1894545 2.6218555
v -14.455371 0.1770233 2.4619172
v -11.80992 -0.3355638 -15.365559
v -11.895652 0.033962097 -15.207247
v -12.299348 -0.33830047 -15.211773
v -12.1403675 0.03261688 -15.1303425
v -21.74432 -0.27434707 -9.2072735
v -21.585327 0.09655181 -9.125853
v -21.590567 -0.26915953 -8.717837
v -21.508451 0.0991571 -8.881129
v -12.299348 -0.33830047 -15.211773
v -12.1403675 0.03261688 -15.1303425
v -21.74432 -0.27434707 -9.2072735
v -21.585327 0.09655181 -9.125853
v 17.400244 5.255862 -11.666158
v 17.413544 5.097404 10.639683
v -19.30918 5.24231 -11.683387
v -19.295801 5.08383 10.622456
v -1.2544482 0.41444945 -4.454211
v -0.8736816 0.49148926 9.452811
v -19.218697 0.48153168 -3.7220213
v -18.490707 0.559133 9.85623
v 14.598544 0.54788667 5.3051267
v 11.504858 0.5853372 12.174055
v 7.522241 0.56307954 2.1814294
v 4.4744186 0.5853375 9.011271
v 5.8368554 0.49366957 3.5917284
v 5.6489744 0.5311201 11.130681
v -3.1950927 0.50886244 3.5996873
v -3.351582 0.5311201 11.085576
v 20.450464 0.06919723 2.1480663
v 20.522486 0.10664749 11.130681
v 12.508075 0.084389955 2.1560254
v 12.611478 0.10664749 11.085573
v -11.7816925 0.24336211 -14.882821
v -5.5512767 0.3161737 -4.141909
v -21.169193 0.306763 -9.003806
v -14.629588 0.38010618 2.0596454
vt -26.3125 -0.6621094
vt -26.328125 0.29003906
vt -26.25 -0.64404297
vt -26.265625 0.29125977
vt -26.25 -0.64404297
vt -26.328125 0.29003906
vt -16.8125 0.4169922
vt -16.8125 -0.51904297
vt -16.875 0.41503906
vt -16.859375 -0.5253906
vt -16.875 0.41503906
vt -16.8125 -0.51904297
vt -26.25 -0.64404297
vt -26.21875 -0.7495117
vt -26.3125 -0.6621094
vt -13.25 -0.55078125
vt -13.203125 -0.5463867
vt -13.234375 -0.6508789
vt -22.625 -0.6201172
vt -22.640625 -0.70214844
vt -22.671875 -0.6220703
vt -16.859375 -0.5253906
vt -16.8125 -0.51904297
vt -16.84375 -0.6088867
vt -22.640625 -0.70214844
vt -26.21875 -0.7495117
vt -22.671875 -0.6220703
vt -26.25 -0.64404297
vt -22.671875 -0.6220703
vt -26.21875 -0.7495117
vt -18.296875 1.3476562
vt -18.296875 1.2802734
vt -18.375 1.3320312
vt -10.953125 1.3847656
vt -10.890625 1.3837891
vt -10.921875 1.3183594
vt -15.9609375 1.3320312
vt -16 1.2724609
vt -16.03125 1.3359375
vt -13.15625 1.3759766
vt -13.09375 1.3710938
vt -13.1484375 1.3115234
vt -16 1.2724609
vt -18.296875 1.2802734
vt -16.03125 1.3359375
vt -18.296875 1.3476562
vt -16.03125 1.3359375
vt -18.296875 1.2802734
vt -10.921875 1.3183594
vt -13.1484375 1.3115234
vt -10.953125 1.3847656
vt -13.09375 1.3710938
vt -10.953125 1.3847656
vt -13.1484375 1.3115234
vt -14.046875 6.9101562
vt -14.0546875 7.5625
vt -14.0078125 6.9179688
vt -14.0078125 7.5625
vt -14.0078125 6.9179688
vt -14.0546875 7.5625
vt -14.0078125 6.9179688
vt -14 6.84375
vt -14.046875 6.9101562
vt -10.3828125 6.9375
vt -10.3515625 6.9375
vt -10.375 6.859375
vt -12.796875 6.9179688
vt -12.8046875 6.84375
vt -12.828125 6.9179688
vt -11.59375 6.9375
vt -11.5625 6.9375
vt -11.578125 6.8632812
vt -12.8046875 6.84375
vt -14 6.84375
vt -12.828125 6.9179688
vt -14.0078125 6.9179688
vt -12.828125 6.9179688
vt -14 6.84375
vt -9.171875 6.8320312
vt -10.375 6.859375
vt -9.1640625 6.9101562
vt -10.3515625 6.9375
vt -9.1640625 6.9101562
vt -10.375 6.859375
vt -14.21875 3.1523438
vt -14.2265625 4.03125
vt -14.171875 3.1601562
vt -14.171875 4.03125
vt -14.171875 3.1601562
vt -14.2265625 4.03125
vt -14.171875 3.1601562
vt -14.1640625 3.0839844
vt -14.21875 3.1523438
vt -10.34375 3.1835938
vt -10.3125 3.1835938
vt -10.3359375 3.1054688
vt -12.953125 3.1601562
vt -12.96875 3.0839844
vt -12.9921875 3.1601562
vt -11.5546875 3.1796875
vt -11.515625 3.1835938
vt -11.53125 3.1054688
vt -12.96875 3.0839844
vt -14.1640625 3.0839844
vt -12.9921875 3.1601562
vt -14.171875 3.1601562
vt -12.9921875 3.1601562
vt -14.1640625 3.0839844
vt -8.9296875 3.0566406
vt -10.3359375 3.1054688
vt -8.9140625 3.1347656
vt -10.3125 3.1835938
vt -8.9140625 3.1347656
vt -10.3359375 3.1054688
vt -14.3359375 5.2304688
vt -14.34375 6.0429688
vt -14.296875 5.2382812
vt -14.296875 6.046875
vt -14.296875 5.2382812
vt -14.34375 6.0429688
vt -14.296875 5.2382812
vt -14.28125 5.1640625
vt -14.3359375 5.2304688
vt -10.1796875 5.265625
vt -10.1484375 5.265625
vt -10.1796875 5.1875
vt -12.8515625 5.2421875
vt -12.859375 5.1640625
vt -12.890625 5.2382812
vt -11.6171875 5.2617188
vt -11.5859375 5.265625
vt -11.6015625 5.1875
vt -12.859375 5.1640625
vt -14.28125 5.1640625
vt -12.890625 5.2382812
vt -14.296875 5.2382812
vt -12.890625 5.2382812
vt -14.28125 5.1640625
vt -8.9453125 5.140625
vt -10.1796875 5.1875
vt -8.9296875 5.21875
vt -10.1484375 5.265625
vt -8.9296875 5.21875
vt -10.1796875 5.1875
vt -17.453125 1.3642578
vt -17.4375 2.4726562
vt -17.375 1.3789062
vt -17.359375 2.4746094
vt -17.375 1.3789062
vt -17.4375 2.4726562
vt -17.375 1.3789062
vt -17.375 1.3164062
vt -17.453125 1.3642578
vt -11.4609375 1.3876953
vt -11.40625 1.3867188
vt -11.4375 1.3251953
vt -15.2734375 1.3632812
vt -15.3203125 1.3066406
vt -15.34375 1.3671875
vt -13.546875 1.3828125
vt -13.484375 1.3769531
vt -13.5390625 1.3222656
vt -15.3203125 1.3066406
vt -17.375 1.3164062
vt -15.34375 1.3671875
vt -17.375 1.3789062
vt -15.34375 1.3671875
vt -17.375 1.3164062
vt -11.4375 1.3251953
vt -13.5390625 1.3222656
vt -11.4609375 1.3876953
vt -13.484375 1.3769531
vt -11.4609375 1.3876953
vt -13.5390625 1.3222656
vt -7.453125 0.39624023
vt -7.453125 -0.54296875
vt -13.2109375 0.39697266
vt -13.203125 -0.5463867
vt -13.2578125 0.3935547
vt -13.25 -0.55078125
vt -16.8125 0.4169922
vt -16.8125 -0.51904297
vt -16.875 0.41503906
vt -16.859375 -0.5253906
vt -22.625 0.3149414
vt -22.625 -0.6201172
vt -22.6875 0.31445312
vt -22.671875 -0.6220703
vt -26.265625 0.29125977
vt -26.25 -0.64404297
vt -13.2109375 0.39697266
vt -13.203125 -0.5463867
vt -13.2578125 0.3935547
vt -13.25 -0.55078125
vt -22.625 0.3149414
vt -22.625 -0.6201172
vt -22.6875 0.31445312
vt -22.671875 -0.6220703
vt -16.84375 -0.6088867
vt -22.640625 -0.70214844
vt -16.859375 -0.5253906
vt -22.625 -0.6201172
vt -13.234375 -0.6508789
vt -16.84375 -0.6088867
vt -13.25 -0.55078125
vt -16.8125 -0.51904297
vt -7.515625 -0.64990234
vt -13.234375 -0.6508789
vt -7.453125 -0.54296875
vt -13.203125 -0.5463867
vt -8.1171875 2.4707031
vt -8.1484375 1.3105469
vt -10.875 2.5429688
vt -10.890625 1.3837891
vt -10.9609375 2.5449219
vt -10.953125 1.3847656
vt -13.109375 2.53125
vt -13.09375 1.3710938
vt -13.1796875 2.5332031
vt -13.15625 1.3759766
vt -15.9765625 2.4921875
vt -15.9609375 1.3320312
vt -16.03125 2.4941406
vt -16.03125 1.3359375
vt -18.28125 2.5078125
vt -18.296875 1.3476562
vt -10.875 2.5429688
vt -10.890625 1.3837891
vt -10.9609375 2.5449219
vt -10.953125 1.3847656
vt -18.375 1.3320312
vt -18.375 2.5039062
vt -18.296875 1.3476562
vt -18.28125 2.5078125
vt -13.109375 2.53125
vt -13.09375 1.3710938
vt -13.1796875 2.5332031
vt -13.15625 1.3759766
vt -15.9765625 2.4921875
vt -15.9609375 1.3320312
vt -16.03125 2.4941406
vt -16.03125 1.3359375
vt -13.1484375 1.3115234
vt -16 1.2724609
vt -13.15625 1.3759766
vt -15.9609375 1.3320312
vt -8.15625 1.2392578
vt -10.921875 1.3183594
vt -8.1484375 1.3105469
vt -10.890625 1.3837891
vt -9.1484375 7.5546875
vt -9.1640625 6.9101562
vt -10.3515625 7.5820312
vt -10.3515625 6.9375
vt -10.390625 7.5820312
vt -10.3828125 6.9375
vt -11.5703125 7.578125
vt -11.5625 6.9375
vt -11.6015625 7.578125
vt -11.59375 6.9375
vt -12.8046875 7.5585938
vt -12.796875 6.9179688
vt -12.8359375 7.5585938
vt -12.828125 6.9179688
vt -14.0078125 7.5625
vt -14.0078125 6.9179688
vt -10.3515625 7.5820312
vt -10.3515625 6.9375
vt -10.390625 7.5820312
vt -10.3828125 6.9375
vt -11.5703125 7.578125
vt -11.5625 6.9375
vt -11.6015625 7.578125
vt -11.59375 6.9375
vt -12.8046875 7.5585938
vt -12.796875 6.9179688
vt -12.8359375 7.5585938
vt -12.828125 6.9179688
vt -11.578125 6.8632812
vt -12.8046875 6.84375
vt -11.59375 6.9375
vt -12.796875 6.9179688
vt -10.375 6.859375
vt -11.578125 6.8632812
vt -10.3828125 6.9375
vt -11.5625 6.9375
vt -8.8828125 4.0039062
vt -8.9140625 3.1347656
vt -10.2890625 4.0546875
vt -10.3125 3.1835938
vt -10.34375 4.0546875
vt -10.34375 3.1835938
vt -11.5234375 4.0507812
vt -11.515625 3.1835938
vt -11.5703125 4.0507812
vt -11.5546875 3.1796875
vt -12.96875 4.0273438
vt -12.953125 3.1601562
vt -13.0078125 4.0273438
vt -12.9921875 3.1601562
vt -14.171875 4.03125
vt -14.171875 3.1601562
vt -10.2890625 4.0546875
vt -10.3125 3.1835938
vt -10.34375 4.0546875
vt -10.34375 3.1835938
vt -11.5234375 4.0507812
vt -11.515625 3.1835938
vt -11.5703125 4.0507812
vt -11.5546875 3.1796875
vt -12.96875 4.0273438
vt -12.953125 3.1601562
vt -13.0078125 4.0273438
vt -12.9921875 3.1601562
vt -11.53125 3.1054688
vt -12.96875 3.0839844
vt -11.5546875 3.1796875
vt -12.953125 3.1601562
vt -10.3359375 3.1054688
vt -11.53125 3.1054688
vt -10.34375 3.1835938
vt -11.515625 3.1835938
vt -8.8984375 6.0234375
vt -8.9296875 5.21875
vt -10.1328125 6.0703125
vt -10.1484375 5.265625
vt -10.1796875 6.0742188
vt -10.1796875 5.265625
vt -11.59375 6.0664062
vt -11.5859375 5.265625
vt -11.6328125 6.0664062
vt -11.6171875 5.2617188
vt -12.8671875 6.0429688
vt -12.8515625 5.2421875
vt -12.90625 6.0429688
vt -12.890625 5.2382812
vt -14.296875 6.046875
vt -14.296875 5.2382812
vt -10.1328125 6.0703125
vt -10.1484375 5.265625
vt -10.1796875 6.0742188
vt -10.1796875 5.265625
vt -11.59375 6.0664062
vt -11.5859375 5.265625
vt -11.6328125 6.0664062
vt -11.6171875 5.2617188
vt -12.8671875 6.0429688
vt -12.8515625 5.2421875
vt -12.90625 6.0429688
vt -12.890625 5.2382812
vt -11.6015625 5.1875
vt -12.859375 5.1640625
vt -11.6171875 5.2617188
vt -12.8515625 5.2421875
vt -10.1796875 5.1875
vt -11.6015625 5.1875
vt -10.1796875 5.265625
vt -11.5859375 5.265625
vt -9.6640625 2.4296875
vt -9.6953125 1.3359375
vt -11.390625 2.4824219
vt -11.40625 1.3867188
vt -11.46875 2.484375
vt -11.4609375 1.3876953
vt -13.5 2.4726562
vt -13.484375 1.3769531
vt -13.5625 2.4765625
vt -13.546875 1.3828125
vt -15.2890625 2.4589844
vt -15.2734375 1.3632812
vt -15.34375 2.4609375
vt -15.34375 1.3671875
vt -17.359375 2.4746094
vt -17.375 1.3789062
vt -11.390625 2.4824219
vt -11.40625 1.3867188
vt -11.46875 2.484375
vt -11.4609375 1.3876953
vt -13.5 2.4726562
vt -13.484375 1.3769531
vt -13.5625 2.4765625
vt -13.546875 1.3828125
vt -15.2890625 2.4589844
vt -15.2734375 1.3632812
vt -15.34375 2.4609375
vt -15.34375 1.3671875
vt -13.5390625 1.3222656
vt -15.3203125 1.3066406
vt -13.546875 1.3828125
vt -15.2734375 1.3632812
vt -9.6953125 1.2675781
vt -11.4375 1.3251953
vt -9.6953125 1.3359375
vt -11.40625 1.3867188
vt 5.9609375 -12.5703125
vt 11.65625 -12.5625
vt 5.9609375 -16.109375
vt 11.703125 -16.109375
vt 13.875 -9.0859375
vt 13.8671875 -11.84375
vt 11.6953125 -8.9921875
vt 11.6171875 -11.796875
vt 3.8007812 -6.0820312
vt 3.828125 -7.2773438
vt 2.6347656 -6.1054688
vt 2.65625 -7.3046875
vt 1.2373047 -5.7382812
vt 1.2558594 -7.1367188
vt 0.07067871 -5.7734375
vt 0.08306885 -7.1757812
vt 1.1025391 -8.7109375
vt 1.1435547 -9.9375
vt -0.28833008 -8.734375
vt -0.2536621 -9.96875
vt 13.84375 -9.5703125
vt 13.7421875 -11.2890625
vt 11.78125 -9.5546875
vt 11.7265625 -11.2890625
vt 0.19628906 0.9663086
vt 0.27172852 0.6142578
vt 0.037200928 0.6142578
vt 0.19628906 0.9663086
vt 0.27172852 0.6142578
vt 0.037200928 0.6142578
vt 0.19628906 0.9663086
vt 0.27172852 0.6142578
vt 0.037200928 0.6142578
vt 0.19628906 0.9663086
vt 0.27172852 0.6142578
vt 0.037200928 0.6142578
vt 0.19628906 0.9628906
vt 0.27172852 0.6142578
vt 0.037200928 0.6142578
vt 0.19628906 0.9628906
vt 0.27172852 0.6142578
vt 0.037200928 0.6142578
vt 0.19628906 0.9628906
vt 0.27172852 0.6142578
vt 0.037200928 0.6142578
vt 0.19628906 0.9628906
vt 0.27172852 0.6142578
vt 0.037200928 0.6142578
vt 0.27172852 0.6142578
vt 0.19628906 0.9628906
vt 0.82910156 0.6142578
vt 0.82910156 0.9628906
vt 0.82910156 0.6142578
vt 0.19628906 0.9628906
vt 0.27172852 0.6142578
vt 0.19628906 0.9628906
vt 0.82910156 0.6142578
vt 0.82910156 0.9628906
vt 0.82910156 0.6142578
vt 0.19628906 0.9628906
vt 0.27172852 0.6142578
vt 0.19628906 0.9628906
vt 0.82910156 0.6142578
vt 0.82910156 0.9628906
vt 0.82910156 0.6142578
vt 0.19628906 0.9628906
vt 0.27172852 0.6142578
vt 0.19628906 0.9628906
vt 0.82910156 0.6142578
vt 0.82910156 0.9628906
vt 0.82910156 0.6142578
vt 0.19628906 0.9628906
vt 0.82910156 0.01386261
vt 0.27172852 0.6142578
vt 0.26611328 0.01386261
vt 0.27172852 0.6142578
vt 0.82910156 0.01386261
vt 0.82910156 0.6142578
vt 0.82910156 0.01386261
vt 0.27172852 0.6142578
vt 0.26611328 0.01386261
vt 0.27172852 0.6142578
vt 0.82910156 0.01386261
vt 0.82910156 0.6142578
vt 0.82910156 0.01386261
vt 0.27172852 0.6142578
vt 0.23608398 0.01386261
vt 0.27172852 0.6142578
vt 0.82910156 0.01386261
vt 0.19628906 0.9628906
vt 0.27172852 0.6142578
vt 0.037200928 0.6142578
vt 0.19628906 0.9628906
vt 0.27172852 0.6142578
vt 0.037200928 0.6142578
vt 0.19628906 0.9628906
vt 0.27172852 0.6142578
vt 0.037200928 0.6142578
vt 0.19628906 0.9628906
vt 0.27172852 0.6142578
vt 0.037200928 0.6142578
vt 0.27172852 0.6142578
vt 0.19628906 0.9628906
vt 0.82910156 0.6142578
vt 0.82910156 0.9628906
vt 0.82910156 0.6142578
vt 0.19628906 0.9628906
vt 0.27172852 0.6142578
vt 0.19628906 0.9628906
vt 0.82910156 0.6142578
vt 0.82910156 0.9628906
vt 0.82910156 0.6142578
vt 0.19628906 0.9628906
vt 0.19628906 0.9628906
vt 0.27172852 0.6142578
vt 0.037200928 0.6142578
vt 0.19628906 0.9628906
vt 0.27172852 0.6142578
vt 0.037200928 0.6142578
vt 0.19628906 0.9628906
vt 0.27172852 0.6142578
vt 0.037200928 0.6142578
vt 0.19628906 0.9628906
vt 0.27172852 0.6142578
vt 0.037200928 0.6142578
vt 0.27172852 0.6142578
vt 0.19628906 0.9628906
vt 0.82910156 0.6142578
vt 0.82910156 0.9628906
vt 0.82910156 0.6142578
vt 0.19628906 0.9628906
vt 0.27172852 0.6142578
vt 0.19628906 0.9628906
vt 0.82910156 0.6142578
vt 0.82910156 0.9628906
vt 0.82910156 0.6142578
vt 0.19628906 0.9628906
vt 0.19628906 0.9628906
vt 0.27172852 0.6142578
vt 0.037200928 0.6142578
vt 0.19628906 0.9628906
vt 0.27172852 0.6142578
vt 0.037200928 0.6142578
vt 0.19628906 0.9628906
vt 0.27172852 0.6142578
vt 0.037200928 0.6142578
vt 0.19628906 0.9628906
vt 0.27172852 0.6142578
vt 0.037200928 0.6142578
vt 0.27172852 0.6142578
vt 0.19628906 0.9628906
vt 0.82910156 0.6142578
vt 0.82910156 0.9628906
vt 0.82910156 0.6142578
vt 0.19628906 0.9628906
vt 0.27172852 0.6142578
vt 0.19628906 0.9628906
vt 0.82910156 0.6142578
vt 0.82910156 0.9628906
vt 0.82910156 0.6142578
vt 0.19628906 0.9628906
vt 0.19628906 0.9628906
vt 0.27172852 0.6142578
vt 0.037200928 0.6142578
vt 0.19628906 0.9628906
vt 0.27172852 0.6142578
vt 0.037200928 0.6142578
vt 0.19628906 0.9628906
vt 0.27172852 0.6142578
vt 0.037200928 0.6142578
vt 0.19628906 0.9628906
vt 0.27172852 0.6142578
vt 0.037200928 0.6142578
vt 0.27172852 0.6142578
vt 0.19628906 0.9628906
vt 0.82910156 0.6142578
vt 0.82910156 0.9628906
vt 0.82910156 0.6142578
vt 0.19628906 0.9628906
vt 0.27172852 0.6142578
vt 0.19628906 0.9628906
vt 0.82910156 0.6142578
vt 0.82910156 0.9628906
vt 0.82910156 0.6142578
vt 0.19628906 0.9628906
vt 0.27172852 0.6142578
vt 0.19628906 0.9628906
vt 0.82910156 0.6142578
vt 0.82910156 0.9628906
vt 0.82910156 0.6142578
vt 0.19628906 0.9628906
vt 0.27172852 0.6142578
vt 0.19628906 0.9628906
vt 0.82910156 0.6142578
vt 0.82910156 0.9628906
vt 0.82910156 0.6142578
vt 0.19628906 0.9628906
vt 0.26611328 0.01386261
vt 0.27172852 0.6142578
vt 0.82910156 0.01386261
vt 0.82910156 0.6142578
vt 0.82910156 0.01386261
vt 0.27172852 0.6142578
vt 0.26611328 0.01386261
vt 0.27172852 0.6142578
vt 0.82910156 0.01386261
vt 0.82910156 0.6142578
vt 0.82910156 0.01386261
vt 0.27172852 0.6142578
vt 0.23608398 0.01386261
vt 0.27172852 0.6142578
vt 0.82910156 0.01386261
vt 0.82910156 0.6142578
vt 0.82910156 0.01386261
vt 0.27172852 0.6142578
vt 0.03262329 0.01386261
vt 0.037200928 0.6142578
vt 0.26611328 0.01386261
vt 0.27172852 0.6142578
vt 0.03262329 0.01386261
vt 0.037200928 0.6142578
vt 0.26611328 0.01386261
vt 0.27172852 0.6142578
vt 0.03262329 0.01386261
vt 0.037200928 0.6142578
vt 0.26611328 0.01386261
vt 0.27172852 0.6142578
vt 0.03262329 0.01386261
vt 0.037200928 0.6142578
vt 0.26611328 0.01386261
vt 0.27172852 0.6142578
vt 0.27172852 0.6142578
vt 0.19628906 0.9663086
vt 0.82910156 0.6142578
vt 0.82910156 0.9663086
vt 0.27172852 0.6142578
vt 0.19628906 0.9663086
vt 0.82910156 0.6142578
vt 0.82910156 0.9663086
vt 0.27172852 0.6142578
vt 0.19628906 0.9663086
vt 0.82910156 0.6142578
vt 0.82910156 0.9663086
vt 0.27172852 0.6142578
vt 0.19628906 0.9663086
vt 0.82910156 0.6142578
vt 0.82910156 0.9663086
vt 0.26611328 0.01386261
vt 0.27172852 0.6142578
vt 0.82910156 0.01386261
vt 0.82910156 0.6142578
vt 0.26611328 0.01386261
vt 0.27172852 0.6142578
vt 0.82910156 0.01386261
vt 0.82910156 0.6142578
vt 0.26611328 0.01386261
vt 0.27172852 0.6142578
vt 0.82910156 0.01386261
vt 0.82910156 0.6142578
vt 0.26611328 0.01386261
vt 0.27172852 0.6142578
vt 0.82910156 0.01386261
vt 0.82910156 0.6142578
vt 0.03262329 0.01386261
vt 0.037200928 0.6142578
vt 0.23608398 0.01386261
vt 0.27172852 0.6142578
vt 0.03262329 0.01386261
vt 0.037200928 0.6142578
vt 0.26611328 0.01386261
vt 0.27172852 0.6142578
vt 0.03262329 0.01386261
vt 0.037200928 0.6142578
vt 0.23608398 0.01386261
vt 0.27172852 0.6142578
vt 0.03262329 0.01386261
vt 0.037200928 0.6142578
vt 0.26611328 0.01386261
vt 0.27172852 0.6142578
vt 0.23608398 0.01386261
vt 0.27172852 0.6142578
vt 0.82910156 0.01386261
vt 0.82910156 0.6142578
vt 0.03262329 0.01386261
vt 0.037200928 0.6142578
vt 0.26611328 0.01386261
vt 0.27172852 0.6142578
vt 0.03262329 0.01386261
vt 0.037200928 0.6142578
vt 0.23901367 0.01386261
vt 0.27172852 0.6142578
vt 0.03262329 0.01386261
vt 0.037200928 0.6142578
vt 0.23901367 0.01386261
vt 0.27172852 0.6142578
vt 0.03262329 0.01386261
vt 0.037200928 0.6142578
vt 0.23901367 0.01386261
vt 0.27172852 0.6142578
vt 0.27172852 0.6142578
vt 0.19628906 0.9628906
vt 0.82910156 0.6142578
vt 0.82910156 0.9628906
vt 0.27172852 0.6142578
vt 0.19628906 0.9628906
vt 0.82910156 0.6142578
vt 0.82910156 0.9628906
vt 0.23901367 0.01386261
vt 0.27172852 0.6142578
vt 0.82910156 0.01386261
vt 0.82910156 0.6142578
vt 0.23901367 0.01386261
vt 0.27172852 0.6142578
vt 0.82910156 0.01386261
vt 0.82910156 0.6142578
vt 0.23901367 0.01386261
vt 0.27172852 0.6142578
vt 0.82910156 0.01386261
vt 0.82910156 0.6142578
vt 0.26611328 0.01386261
vt 0.27172852 0.6142578
vt 0.82910156 0.01386261
vt 0.82910156 0.6142578
vt 0.03262329 0.01386261
vt 0.037200928 0.6142578
vt 0.26611328 0.01386261
vt 0.27172852 0.6142578
vt 0.03262329 0.01386261
vt 0.037200928 0.6142578
vt 0.23901367 0.01386261
vt 0.27172852 0.6142578
vt 0.03262329 0.01386261
vt 0.037200928 0.6142578
vt 0.23901367 0.01386261
vt 0.27172852 0.6142578
vt 0.03262329 0.01386261
vt 0.037200928 0.6142578
vt 0.23901367 0.01386261
vt 0.27172852 0.6142578
vt 0.27172852 0.6142578
vt 0.19628906 0.9628906
vt 0.82910156 0.6142578
vt 0.82910156 0.9628906
vt 0.27172852 0.6142578
vt 0.19628906 0.9628906
vt 0.82910156 0.6142578
vt 0.82910156 0.9628906
vt 0.23901367 0.01386261
vt 0.27172852 0.6142578
vt 0.82910156 0.01386261
vt 0.82910156 0.6142578
vt 0.23901367 0.01386261
vt 0.27172852 0.6142578
vt 0.82910156 0.01386261
vt 0.82910156 0.6142578
vt 0.23901367 0.01386261
vt 0.27172852 0.6142578
vt 0.82910156 0.01386261
vt 0.82910156 0.6142578
vt 0.26611328 0.01386261
vt 0.27172852 0.6142578
vt 0.82910156 0.01386261
vt 0.82910156 0.6142578
vt 0.03262329 0.01386261
vt 0.037200928 0.6142578
vt 0.26611328 0.01386261
vt 0.27172852 0.6142578
vt 0.03262329 0.01386261
vt 0.037200928 0.6142578
vt 0.23901367 0.01386261
vt 0.27172852 0.6142578
vt 0.03262329 0.01386261
vt 0.037200928 0.6142578
vt 0.23901367 0.01386261
vt 0.27172852 0.6142578
vt 0.03262329 0.01386261
vt 0.037200928 0.6142578
vt 0.23901367 0.01386261
vt 0.27172852 0.6142578
vt 0.27172852 0.6142578
vt 0.19628906 0.9628906
vt 0.82910156 0.6142578
vt 0.82910156 0.9628906
vt 0.27172852 0.6142578
vt 0.19628906 0.9628906
vt 0.82910156 0.6142578
vt 0.82910156 0.9628906
vt 0.23901367 0.01386261
vt 0.27172852 0.6142578
vt 0.82910156 0.01386261
vt 0.82910156 0.6142578
vt 0.23901367 0.01386261
vt 0.27172852 0.6142578
vt 0.82910156 0.01386261
vt 0.82910156 0.6142578
vt 0.23901367 0.01386261
vt 0.27172852 0.6142578
vt 0.82910156 0.01386261
vt 0.82910156 0.6142578
vt 0.26611328 0.01386261
vt 0.27172852 0.6142578
vt 0.82910156 0.01386261
vt 0.82910156 0.6142578
vt 0.03262329 0.01386261
vt 0.037200928 0.6142578
vt 0.23608398 0.01386261
vt 0.27172852 0.6142578
vt 0.03262329 0.01386261
vt 0.037200928 0.6142578
vt 0.26611328 0.01386261
vt 0.27172852 0.6142578
vt 0.03262329 0.01386261
vt 0.037200928 0.6142578
vt 0.23608398 0.01386261
vt 0.27172852 0.6142578
vt 0.03262329 0.01386261
vt 0.037200928 0.6142578
vt 0.26611328 0.01386261
vt 0.27172852 0.6142578
vt 0.23608398 0.01386261
vt 0.27172852 0.6142578
vt 0.82910156 0.01386261
vt 0.82910156 0.6142578
vt 17.21875 4.6054688
vt 13.7578125 4.5664062
vt 17.15625 10.3046875
vt 13.703125 10.265625
vt 13.5625 4.5664062
vt 11.3984375 4.6210938
vt 13.59375 7.3554688
vt 11.484375 7.3554688
vt 8.1328125 15.0625
vt 6.9609375 15.078125
vt 8.140625 16.265625
vt 6.9765625 16.28125
vt 8.265625 12.234375
vt 7.0976562 12.2578125
vt 8.265625 13.6328125
vt 7.1015625 13.65625
vt 8.421875 10.59375
vt 7.0273438 10.609375
vt 8.4375 11.828125
vt 7.0546875 11.8359375
vt 13.46875 5.078125
vt 11.546875 5.1640625
vt 13.4921875 6.796875
vt 11.4921875 6.8710938
vn 0.7158203 0.0046806335 0.6982422
vn 0.7158203 0.0046806335 0.6982422
vn 0.7158203 0.0046806335 0.6982422
vn 0.7158203 0.0046806335 0.6982422
vn 0.7158203 0.0046806335 0.6982422
vn 0.7158203 0.0046806335 0.6982422
vn -0.7163086 -0.0015506744 -0.6977539
vn -0.7163086 -0.0015506744 -0.6977539
vn -0.7163086 -0.0015506744 -0.6977539
vn -0.7163086 -0.0015497208 -0.6977539
vn -0.7163086 -0.0015497208 -0.6977539
vn -0.7163086 -0.0015497208 -0.6977539
vn 0.40405273 -0.83935547 0.3642578
vn 0.40405273 -0.83935547 0.3642578
vn 0.40405273 -0.83935547 0.3642578
vn -0.4140625 -0.8027344 0.42871094
vn -0.4140625 -0.8027344 0.42871094
vn -0.4140625 -0.8027344 0.42871094
vn 0.6230469 -0.453125 -0.63720703
vn 0.6230469 -0.453125 -0.63720703
vn 0.6230469 -0.453125 -0.63720703
vn -0.5361328 -0.64501953 -0.5449219
vn -0.5361328 -0.64501953 -0.5449219
vn -0.5361328 -0.64501953 -0.5449219
vn 0.80126953 -0.59814453 0.004470825
vn 0.80126953 -0.59814453 0.004470825
vn 0.80126953 -0.59814453 0.004470825
vn 0.5522461 -0.8334961 -0.008201599
vn 0.5522461 -0.8334961 -0.008201599
vn 0.5522461 -0.8334961 -0.008201599
vn 0.49072266 -0.7211914 0.48901367
vn 0.48608398 -0.72509766 0.48754883
vn 0.49121094 -0.7519531 0.4399414
vn -0.44140625 -0.71728516 0.5395508
vn -0.4404297 -0.7524414 0.48950195
vn -0.4404297 -0.7524414 0.48950195
vn 0.14648438 -0.7265625 -0.6713867
vn 0.14672852 -0.7338867 -0.6635742
vn 0.14746094 -0.7338867 -0.6635742
vn -0.6821289 -0.7246094 -0.097473145
vn -0.6821289 -0.7246094 -0.097473145
vn -0.6821289 -0.7246094 -0.097473145
vn 0.58935547 -0.80615234 -0.048858643
vn 0.58447266 -0.81152344 0
vn 0.5888672 -0.8066406 -0.04888916
vn 0.5371094 -0.84228516 -0.048828125
vn 0.5371094 -0.84228516 -0.048828125
vn 0.53808594 -0.84277344 0
vn -0.5371094 -0.84228516 0.048828125
vn -0.5371094 -0.84228516 0.048828125
vn -0.5371094 -0.84228516 0.048828125
vn -0.6328125 -0.7729492 0.048675537
vn -0.6328125 -0.7729492 0.048675537
vn -0.6328125 -0.7729492 0.048675537
vn 0.40527344 0.0029029846 0.9140625
vn 0.40527344 0.0029029846 0.9140625
vn 0.40527344 0.0029029846 0.9140625
vn 0.40527344 0.0029029846 0.9140625
vn 0.40527344 0.0029029846 0.9140625
vn 0.40527344 0.0029029846 0.9140625
vn 0.36743164 -0.42163086 0.82910156
vn 0.36743164 -0.42163086 0.82910156
vn 0.36743164 -0.42163086 0.82910156
vn -0.78027344 -0.5209961 0.34594727
vn -0.78027344 -0.5209961 0.34594727
vn -0.78027344 -0.5209961 0.34594727
vn 0.86816406 -0.31274414 -0.38500977
vn 0.86816406 -0.31274414 -0.38500977
vn 0.86816406 -0.31274414 -0.38500977
vn -0.37597656 -0.37280273 -0.84814453
vn -0.37597656 -0.37280273 -0.84814453
vn -0.37597656 -0.37280273 -0.84814453
vn 0.82666016 -0.42163086 0.37304688
vn 0.82666016 -0.42163086 0.37304688
vn 0.82666016 -0.42163086 0.37304688
vn 0.8066406 -0.46875 0.36035156
vn 0.8066406 -0.46875 0.36035156
vn 0.8066406 -0.46875 0.36035156
vn -0.35009766 -0.5209961 0.7783203
vn -0.35009766 -0.5209961 0.7783203
vn -0.35009766 -0.5209961 0.7783203
vn -0.31420898 -0.62109375 0.71777344
vn -0.31420898 -0.62109375 0.71777344
vn -0.31420898 -0.62109375 0.71777344
vn 0.6645508 0.0023517609 0.7475586
vn 0.6645508 0.0023517609 0.7475586
vn 0.6645508 0.0023517609 0.7475586
vn 0.6640625 0.0023498535 0.7475586
vn 0.6640625 0.0023498535 0.7475586
vn 0.6640625 0.0023498535 0.7475586
vn 0.5917969 -0.45410156 0.6660156
vn 0.5917969 -0.45410156 0.6660156
vn 0.5917969 -0.45410156 0.6660156
vn -0.53808594 -0.5410156 0.6464844
vn -0.53808594 -0.5410156 0.6464844
vn -0.53808594 -0.5410156 0.6464844
vn 0.6044922 -0.32788086 -0.7260742
vn 0.6044922 -0.32788086 -0.7260742
vn 0.6044922 -0.32788086 -0.7260742
vn -0.60791016 -0.40307617 -0.68408203
vn -0.60791016 -0.40307617 -0.68408203
vn -0.60791016 -0.40307617 -0.68408203
vn 0.87841797 -0.47705078 0.022644043
vn 0.87841797 -0.47705078 0.022644043
vn 0.87841797 -0.47705078 0.022644043
vn 0.85009766 -0.5263672 0.018218994
vn 0.85009766 -0.5263672 0.018218994
vn 0.85009766 -0.5263672 0.018218994
vn -0.0042686462 -0.5239258 0.8515625
vn -0.0042686462 -0.5239258 0.8515625
vn -0.0042686462 -0.5239258 0.8515625
vn 0.0026340485 -0.62109375 0.7836914
vn 0.0026340485 -0.62109375 0.7836914
vn 0.0026340485 -0.62109375 0.7836914
vn 0.6645508 0.002544403 0.7475586
vn 0.6645508 0.002544403 0.7475586
vn 0.6645508 0.002544403 0.7475586
vn 0.6640625 0.0025424957 0.7475586
vn 0.6640625 0.0025424957 0.7475586
vn 0.6640625 0.0025424957 0.7475586
vn 0.5917969 -0.45410156 0.6660156
vn 0.5917969 -0.45410156 0.6660156
vn 0.5917969 -0.45410156 0.6660156
vn -0.53808594 -0.5410156 0.6464844
vn -0.53808594 -0.5410156 0.6464844
vn -0.53808594 -0.5410156 0.6464844
vn 0.6044922 -0.32788086 -0.7260742
vn 0.6044922 -0.32788086 -0.7260742
vn 0.6044922 -0.32788086 -0.7260742
vn -0.60791016 -0.40307617 -0.68408203
vn -0.60791016 -0.40307617 -0.68408203
vn -0.60791016 -0.40307617 -0.68408203
vn 0.87890625 -0.47705078 -0.0063591003
vn 0.87890625 -0.47705078 -0.0063591003
vn 0.87890625 -0.47705078 -0.0063591003
vn 0.8515625 -0.5239258 -0.009086609
vn 0.8515625 -0.5239258 -0.009086609
vn 0.8515625 -0.5239258 -0.009086609
vn -0.0048599243 -0.5239258 0.8520508
vn -0.0048599243 -0.5239258 0.8520508
vn -0.0048599243 -0.5239258 0.8520508
vn 0.0029945374 -0.62109375 0.7836914
vn 0.0029945374 -0.62109375 0.7836914
vn 0.0029945374 -0.62109375 0.7836914
vn 0.96875 0.006072998 0.2479248
vn 0.96875 0.006072998 0.2479248
vn 0.96875 0.006072998 0.2479248
vn 0.96875 0.006072998 0.2479248
vn 0.96875 0.006072998 0.2479248
vn 0.96875 0.006072998 0.2479248
vn 0.6689453 -0.7211914 0.18017578
vn 0.6689453 -0.7211914 0.18017578
vn 0.6689453 -0.7211914 0.18017578
vn -0.16760254 -0.7182617 0.67529297
vn -0.16760254 -0.7182617 0.67529297
vn -0.16760254 -0.7182617 0.67529297
vn -0.19921875 -0.73583984 -0.64697266
vn -0.19921875 -0.73583984 -0.64697266
vn -0.19921875 -0.73583984 -0.64697266
vn -0.64697266 -0.73291016 0.21105957
vn -0.64697266 -0.73291016 0.21105957
vn -0.64697266 -0.73291016 0.21105957
vn 0.5336914 -0.78564453 -0.31225586
vn 0.5336914 -0.78564453 -0.31225586
vn 0.5336914 -0.78564453 -0.31225586
vn 0.47558594 -0.8339844 -0.28027344
vn 0.47558594 -0.8339844 -0.28027344
vn 0.47558594 -0.8339844 -0.28027344
vn -0.47485352 -0.8300781 0.2919922
vn -0.47485352 -0.8300781 0.2919922
vn -0.47485352 -0.8300781 0.2919922
vn -0.52490234 -0.7890625 0.3190918
vn -0.52490234 -0.7890625 0.3190918
vn -0.52490234 -0.7890625 0.3190918
vn -0.00025486946 -0.0030441284 1
vn -0.00025486946 -0.0030441284 1
vn -0.00025486946 -0.0030441284 1
vn -0.0002539158 -0.0030384064 1
vn -1 -0.009498596 0.0013856888
vn -1 -0.009498596 0.0013856888
vn -1 -0.009498596 0.0013856888
vn -1 -0.009506226 0.0013837814
vn 0.00025224686 0.0075263977 -1
vn 0.00025224686 0.0075263977 -1
vn 0.00025224686 0.0075263977 -1
vn 0.00025105476 0.007534027 -1
vn 1 0.009513855 -0.0013875961
vn 1 0.009513855 -0.0013875961
vn 1 0.009513855 -0.0013875961
vn 1 0.009506226 -0.0013837814
vn -0.6977539 -0.008796692 0.7163086
vn -0.6977539 -0.008796692 0.7163086
vn -0.6977539 -0.008796692 0.7163086
vn -0.6977539 -0.008804321 0.7163086
vn 0.6977539 0.012023926 -0.7163086
vn 0.6977539 0.012023926 -0.7163086
vn 0.6977539 0.012023926 -0.7163086
vn 0.6977539 0.012023926 -0.7163086
vn 0.0005464554 -0.59472656 -0.80371094
vn 0.0005464554 -0.59472656 -0.80371094
vn 0.0005464554 -0.59472656 -0.80371094
vn 0.0006117821 -0.5908203 -0.8066406
vn -0.63720703 -0.7705078 -0.0067481995
vn -0.63720703 -0.7705078 -0.0067481995
vn -0.63720703 -0.7705078 -0.0067481995
vn -0.61328125 -0.79003906 -0.0061035156
vn 0.00010764599 -0.82666016 0.5625
vn 0.00010764599 -0.82666016 0.5625
vn 0.00010764599 -0.82666016 0.5625
vn 0.00043153763 -0.8359375 0.5488281
vn 0.09692383 0.024230957 0.9951172
vn 0.09692383 0.024414062 0.9951172
vn 0.09710693 0 0.9951172
vn 0.09710693 0 0.9951172
vn -0.99902344 0 0.048736572
vn -0.99902344 0 0.048736572
vn -0.9970703 0 0.07598877
vn -0.99902344 0 0.048736572
vn -0.14648438 -0.024414062 -0.98876953
vn -0.14660645 0 -0.9892578
vn -0.14648438 -0.024414062 -0.98876953
vn -0.14660645 0 -0.9892578
vn 0.9951172 0 -0.10070801
vn 0.9951172 0 -0.10070801
vn 0.9951172 0 -0.09765625
vn 0.9951172 0 -0.09765625
vn -0.6435547 0 0.7651367
vn -0.6821289 0 0.73095703
vn -0.6821289 0 0.73095703
vn -0.6821289 0.024368286 0.73095703
vn 0.7416992 0 0.67089844
vn 0.7416992 0 0.67089844
vn 0.72998047 0 0.68310547
vn 0.74121094 0.0262146 0.67089844
vn -0.98535156 0 -0.17028809
vn -0.98535156 0 -0.17028809
vn -0.98535156 0 -0.17028809
vn -0.98535156 0 -0.17028809
vn 0.19543457 -0.024429321 -0.98046875
vn 0.19702148 0 -0.98046875
vn 0.19628906 0 -0.98046875
vn 0.19628906 0 -0.98046875
vn -0.09753418 -0.8046875 -0.5854492
vn -0.09777832 -0.8125 -0.57421875
vn -0.09753418 -0.8046875 -0.5854492
vn -0.09753418 -0.8046875 -0.5854492
vn 0.048950195 -0.8076172 0.58740234
vn 0.048950195 -0.8076172 0.58740234
vn 0.048828125 -0.84228516 0.5371094
vn 0.048950195 -0.8076172 0.58740234
vn -0.40112305 0.0041007996 0.9160156
vn -0.40112305 0.0041007996 0.9160156
vn -0.40112305 0.0041007996 0.9160156
vn -0.40112305 0.004096985 0.9160156
vn -0.9140625 -0.00020265579 -0.40600586
vn -0.9140625 -0.00020265579 -0.40600586
vn -0.9140625 -0.00020265579 -0.40600586
vn -0.9140625 -4.7683716E-07 -0.40600586
vn 0.40600586 1.847744E-06 -0.9140625
vn 0.40600586 1.847744E-06 -0.9140625
vn 0.40600586 1.847744E-06 -0.9140625
vn 0.40600586 2.7418137E-06 -0.9140625
vn 0.91308594 -2.026558E-06 0.40795898
vn 0.91308594 -2.026558E-06 0.40795898
vn 0.91308594 -2.026558E-06 0.40795898
vn 0.91308594 0.00021481514 0.40795898
vn -0.9140625 0.0029010773 0.40527344
vn -0.9140625 0.0029010773 0.40527344
vn -0.9140625 0.0029010773 0.40527344
vn -0.9140625 0.0029029846 0.40527344
vn -0.40527344 8.940697E-07 -0.9140625
vn -0.40527344 8.940697E-07 -0.9140625
vn -0.40527344 8.940697E-07 -0.9140625
vn -0.40527344 8.940697E-07 -0.9140625
vn 0.9140625 3.5762787E-07 -0.40527344
vn 0.9140625 3.5762787E-07 -0.40527344
vn 0.9140625 3.5762787E-07 -0.40527344
vn 0.9140625 -1.1920929E-07 -0.40527344
vn 0.3647461 -0.43432617 -0.82373047
vn 0.3647461 -0.43432617 -0.82373047
vn 0.3647461 -0.43432617 -0.82373047
vn 0.36816406 -0.42163086 -0.8286133
vn -0.8046875 -0.47314453 -0.35888672
vn -0.8046875 -0.47314453 -0.35888672
vn -0.8046875 -0.47314453 -0.35888672
vn -0.796875 -0.48999023 -0.3540039
vn 0.0033607483 0.0030403137 1
vn 0.0033607483 0.0030403137 1
vn 0.0033607483 0.0030403137 1
vn 0.0033607483 0.0030384064 1
vn -1 -0.00017368793 -0.019119263
vn -1 -0.00017368793 -0.019119263
vn -1 -0.00017368793 -0.019119263
vn -1 -8.34465E-07 -0.018997192
vn 0.0012798309 8.940697E-07 -1
vn 0.0012798309 8.940697E-07 -1
vn 0.0012798309 8.940697E-07 -1
vn 0.0012788773 2.2053719E-06 -1
vn 1 -8.940697E-07 0.021575928
vn 1 -8.940697E-07 0.021575928
vn 1 -8.940697E-07 0.021575928
vn 1 0.00018334389 0.021438599
vn -0.6401367 0.0022583008 0.7685547
vn -0.6401367 0.0022583008 0.7685547
vn -0.6401367 0.0022583008 0.7685547
vn -0.6401367 0.0022621155 0.7685547
vn -0.6645508 5.364418E-07 -0.7475586
vn -0.6645508 5.364418E-07 -0.7475586
vn -0.6645508 5.364418E-07 -0.7475586
vn -0.6645508 6.556511E-07 -0.7475586
vn 0.6401367 1.1324883E-06 -0.7685547
vn 0.6401367 1.1324883E-06 -0.7685547
vn 0.6401367 1.1324883E-06 -0.7685547
vn 0.6401367 5.9604645E-07 -0.7685547
vn 0.00022554398 -0.43847656 -0.8989258
vn 0.00022554398 -0.43847656 -0.8989258
vn 0.00022554398 -0.43847656 -0.8989258
vn 0.0011587143 -0.42285156 -0.90625
vn -0.84716797 -0.53125 -0.017456055
vn -0.84716797 -0.53125 -0.017456055
vn -0.84716797 -0.53125 -0.017456055
vn -0.8359375 -0.54833984 -0.0158844
vn 0.0038204193 0.003288269 1
vn 0.0038204193 0.003288269 1
vn 0.0038204193 0.003288269 1
vn 0.0038204193 0.003288269 1
vn -1 -8.4757805E-05 0.012535095
vn -1 -8.4757805E-05 0.012535095
vn -1 -8.4757805E-05 0.012535095
vn -1 0 0.012580872
vn 0.0014543533 1.013279E-06 -1
vn 0.0014543533 1.013279E-06 -1
vn 0.0014543533 1.013279E-06 -1
vn 0.0014533997 2.4437904E-06 -1
vn 1 -9.536743E-07 -0.010620117
vn 1 -9.536743E-07 -0.010620117
vn 1 -9.536743E-07 -0.010620117
vn 1 9.274483E-05 -0.010673523
vn -0.6401367 0.0024414062 0.7685547
vn -0.6401367 0.0024414062 0.7685547
vn -0.6401367 0.0024414062 0.7685547
vn -0.6401367 0.0024471283 0.7685547
vn -0.6645508 1.2516975E-06 -0.7475586
vn -0.6645508 1.2516975E-06 -0.7475586
vn -0.6645508 1.2516975E-06 -0.7475586
vn -0.6645508 7.748604E-07 -0.7475586
vn 0.6401367 1.2516975E-06 -0.7685547
vn 0.6401367 1.2516975E-06 -0.7685547
vn 0.6401367 1.2516975E-06 -0.7685547
vn 0.6401367 7.1525574E-07 -0.7685547
vn 0.00025629997 -0.43847656 -0.8989258
vn 0.00025629997 -0.43847656 -0.8989258
vn 0.00025629997 -0.43847656 -0.8989258
vn 0.0013170242 -0.42285156 -0.90625
vn -0.8432617 -0.5371094 0.0098724365
vn -0.8432617 -0.5371094 0.0098724365
vn -0.8432617 -0.5371094 0.0098724365
vn -0.8364258 -0.54833984 0.010520935
vn 0.56396484 0.012428284 0.8256836
vn 0.56396484 0.012428284 0.8256836
vn 0.56396484 0.012428284 0.8256836
vn 0.56396484 0.012428284 0.8256836
vn -0.8574219 0.004207611 0.51464844
vn -0.8574219 0.004207611 0.51464844
vn -0.8574219 0.004207611 0.51464844
vn -0.85839844 0.0005760193 0.5131836
vn -0.5366211 -0.00705719 -0.84375
vn -0.5366211 -0.00705719 -0.84375
vn -0.5366211 -0.00705719 -0.84375
vn -0.5366211 -0.0070533752 -0.84375
vn 0.85595703 -0.0006108284 -0.51660156
vn 0.85595703 -0.0006108284 -0.51660156
vn 0.85595703 -0.0006108284 -0.51660156
vn 0.8569336 -0.0042152405 -0.5151367
vn -0.24804688 0.011917114 0.96875
vn -0.24804688 0.011917114 0.96875
vn -0.24804688 0.011917114 0.96875
vn -0.24804688 0.011917114 0.96875
vn -0.95410156 -0.0010824203 0.2998047
vn -0.95410156 -0.0010824203 0.2998047
vn -0.95410156 -0.0010824203 0.2998047
vn -0.95410156 -0.0010795593 0.2998047
vn -0.2998047 -0.0070152283 -0.95410156
vn -0.2998047 -0.0070152283 -0.95410156
vn -0.2998047 -0.0070152283 -0.95410156
vn -0.2998047 -0.0070152283 -0.95410156
vn -0.32421875 -0.8022461 -0.50146484
vn -0.32421875 -0.8022461 -0.50146484
vn -0.32421875 -0.8022461 -0.50146484
vn -0.32421875 -0.8022461 -0.50146484
vn 0.31640625 -0.8232422 0.4716797
vn 0.31640625 -0.8232422 0.4716797
vn 0.31640625 -0.8232422 0.4716797
vn 0.31640625 -0.8232422 0.4716797
vn 0.00045347214 -1 -0.00881958
vn 0.00045347214 -1 -0.00881958
vn 0.00045347214 -1 -0.00881958
vn -2.3901463E-05 -1 -0.008056641
vn -0 -1 0
vn -0 -1 0
vn -0 -1 0
vn -0 -0.9995117 0.024383545
vn -2.3841858E-07 -1 -2.3841858E-07
vn -2.3841858E-07 -1 -2.3841858E-07
vn -2.3841858E-07 -1 -2.3841858E-07
vn -0.0023918152 -1 0.0009469986
vn -1.1920929E-07 -1 0
vn -1.1920929E-07 -1 0
vn -1.1920929E-07 -1 0
vn -0.0015439987 -1 0.0018053055
vn -1.7881393E-07 -1 0
vn -1.7881393E-07 -1 0
vn -1.7881393E-07 -1 0
vn -0.0017557144 -1 0.0015621185
vn -0.0017204285 -1 0.0077552795
vn -0.0017204285 -1 0.0077552795
vn -0.0017204285 -1 0.0077552795
vn -0.0017604828 -1 0.007881165
vn 0.19274902 0.95751953 0.21557617
vn 0.19274902 0.95751953 0.21557617
vn 0.19274902 0.95751953 0.21557617
vn -0.22070312 0.94970703 0.22277832
vn -0.22070312 0.94970703 0.22277832
vn -0.22070312 0.94970703 0.22277832
vn 0.18762207 0.96240234 -0.19641113
vn 0.18762207 0.96240234 -0.19641113
vn 0.18762207 0.96240234 -0.19641113
vn -0.22229004 0.95654297 -0.18908691
vn -0.22229004 0.95654297 -0.18908691
vn -0.22229004 0.95654297 -0.18908691
vn -0.1953125 0.9609375 -0.1953125
vn -0.1953125 0.9609375 -0.1953125
vn -0.1953125 0.9609375 -0.1953125
vn -0.34179688 0.8544922 0.390625
vn -0.34179688 0.8544922 0.390625
vn -0.34179688 0.8754883 0.34179688
vn 0.09765625 0.85302734 -0.5126953
vn 0.09765625 0.85302734 -0.5126953
vn 0.09765625 0.85302734 -0.5126953
vn -0.48828125 0.8671875 -0.09765625
vn -0.48828125 0.8671875 -0.09765625
vn -0.48828125 0.8671875 -0.09765625
vn 0.048828125 0.89697266 0.43945312
vn 0.048828125 0.9194336 0.390625
vn 0.048828125 0.89697266 0.43945312
vn -0.048828125 0.9550781 -0.29296875
vn -0.048828125 0.96875 -0.24414062
vn -0.048828125 0.96875 -0.24414062
vn -0.48828125 0.8725586 0.024414062
vn -0.48828125 0.8725586 0.024414062
vn -0.48828125 0.87109375 0.048828125
vn -0.6347656 0.77246094 0
vn -0.6347656 0.7709961 0.048828125
vn -0.6347656 0.7709961 0.048828125
vn -0.048828125 0.8847656 -0.4638672
vn -0.048828125 0.89697266 -0.43945312
vn -0.048828125 0.89697266 -0.43945312
vn -0.09765625 0.85302734 -0.5126953
vn -0.09765625 0.85302734 -0.5126953
vn -0.09765625 0.85302734 -0.5126953
vn -0.34179688 0.9399414 0
vn -0.34179688 0.9399414 0
vn -0.34179688 0.9399414 0
vn 0.93066406 0.35205078 -0.09765625
vn 0.93066406 0.35205078 -0.09765625
vn 0.92626953 0.36401367 -0.09765625
vn 0.9238281 0.37060547 -0.09765625
vn 0.9213867 0.37573242 -0.09765625
vn 0.097839355 0.4638672 0.8803711
vn 0.09790039 0.46313477 0.8808594
vn 0.097717285 0.46606445 0.87939453
vn 0.09832764 0.27246094 0.95703125
vn 0.09832764 0.27246094 0.95703125
vn 0.098083496 0.27539062 0.9560547
vn -0.92529297 0.37182617 0.07305908
vn -0.92578125 0.37548828 0.048706055
vn -0.92578125 0.37524414 0.048706055
vn -0.8808594 0.47094727 0.048919678
vn -0.8808594 0.47094727 0.048919678
vn -0.8808594 0.47094727 0.048919678
vn 0.96533203 0.24279785 -0.09765625
vn 0.96533203 0.24145508 -0.09765625
vn 0.96875 0.22839355 -0.09765625
vn 0.36572266 0.43139648 0.82470703
vn 0.36572266 0.43139648 0.82470703
vn 0.36572266 0.43139648 0.82470703
vn -0.7441406 0.5810547 0.32983398
vn -0.7441406 0.5810547 0.32983398
vn -0.7441406 0.5810547 0.32983398
vn 0.8701172 0.30639648 -0.38598633
vn 0.8701172 0.30639648 -0.38598633
vn 0.8701172 0.30639648 -0.38598633
vn -0.36816406 0.4189453 -0.8300781
vn -0.36816406 0.4189453 -0.8300781
vn -0.36816406 0.4189453 -0.8300781
vn -0.29858398 0.66748047 0.6821289
vn -0.29858398 0.66748047 0.6821289
vn -0.29858398 0.66748047 0.6821289
vn -0.35180664 0.51464844 0.7817383
vn -0.35180664 0.51464844 0.7817383
vn -0.35180664 0.51464844 0.7817383
vn -0.7919922 0.49829102 -0.35205078
vn -0.7919922 0.49829102 -0.35205078
vn -0.7919922 0.49829102 -0.35205078
vn -0.8222656 0.4338379 -0.3684082
vn -0.8222656 0.4338379 -0.3684082
vn -0.8222656 0.4338379 -0.3684082
vn 0.5883789 0.46435547 0.6621094
vn 0.5883789 0.46435547 0.6621094
vn 0.5883789 0.46435547 0.6621094
vn -0.51123047 0.6010742 0.61376953
vn -0.51123047 0.6010742 0.61376953
vn -0.51123047 0.6010742 0.61376953
vn 0.60595703 0.32104492 -0.72753906
vn 0.60595703 0.32104492 -0.72753906
vn 0.60595703 0.32104492 -0.72753906
vn -0.59277344 0.45141602 -0.6669922
vn -0.59277344 0.45141602 -0.6669922
vn -0.59277344 0.45141602 -0.6669922
vn 0.002506256 0.6660156 0.74560547
vn 0.002506256 0.6660156 0.74560547
vn 0.002506256 0.6660156 0.74560547
vn -0.004283905 0.5185547 0.85498047
vn -0.004283905 0.5185547 0.85498047
vn -0.004283905 0.5185547 0.85498047
vn -0.8300781 0.5571289 -0.0158844
vn -0.8300781 0.5571289 -0.0158844
vn -0.8300781 0.5571289 -0.0158844
vn -0.87158203 0.4897461 -0.019683838
vn -0.87158203 0.4897461 -0.019683838
vn -0.87158203 0.4897461 -0.019683838
vn 0.5883789 0.46435547 0.6621094
vn 0.5883789 0.46435547 0.6621094
vn 0.5883789 0.46435547 0.6621094
vn -0.51123047 0.6010742 0.61376953
vn -0.51123047 0.6010742 0.61376953
vn -0.51123047 0.6010742 0.61376953
vn 0.60595703 0.32104492 -0.72753906
vn 0.60595703 0.32104492 -0.72753906
vn 0.60595703 0.32104492 -0.72753906
vn -0.59277344 0.45141602 -0.6669922
vn -0.59277344 0.45141602 -0.6669922
vn -0.59277344 0.45141602 -0.6669922
vn 0.0028495789 0.6660156 0.74560547
vn 0.0028495789 0.6660156 0.74560547
vn 0.0028495789 0.6660156 0.74560547
vn -0.004875183 0.5185547 0.85498047
vn -0.004875183 0.5185547 0.85498047
vn -0.004875183 0.5185547 0.85498047
vn -0.83154297 0.55566406 0.010421753
vn -0.83154297 0.55566406 0.010421753
vn -0.83154297 0.55566406 0.010421753
vn -0.86572266 0.5004883 0.008773804
vn -0.86572266 0.5004883 0.008773804
vn -0.86572266 0.5004883 0.008773804
vn -0.27075195 0.95947266 -0.08105469
vn -0.27075195 0.95947266 -0.08105469
vn -0.27075195 0.95947266 -0.08105469
vn -0.13220215 0.86083984 0.49169922
vn -0.13220215 0.86083984 0.49169922
vn -0.13220215 0.86083984 0.49169922
vn -0.16027832 0.8540039 -0.49487305
vn -0.16027832 0.8540039 -0.49487305
vn -0.16027832 0.8540039 -0.49487305
vn -0.4790039 0.86621094 0.14123535
vn -0.4790039 0.86621094 0.14123535
vn -0.4790039 0.86621094 0.14123535
vn 0.2220459 0.9057617 0.36108398
vn 0.2220459 0.9057617 0.36108398
vn 0.2220459 0.9057617 0.36108398
vn -0.13415527 0.9692383 -0.2064209
vn -0.13415527 0.9692383 -0.2064209
vn -0.13415527 0.9692383 -0.2064209
vn -0.43530273 0.86279297 0.25683594
vn -0.43530273 0.86279297 0.25683594
vn -0.43530273 0.86279297 0.25683594
vn -0.5683594 0.7529297 0.3310547
vn -0.5683594 0.7529297 0.3310547
vn -0.5683594 0.7529297 0.3310547
vn -0.24609375 0.88427734 -0.39648438
vn -0.24609375 0.88427734 -0.39648438
vn -0.24609375 0.88427734 -0.39648438
vn -0.2861328 0.83740234 -0.46606445
vn -0.2861328 0.83740234 -0.46606445
vn -0.2861328 0.83740234 -0.46606445
vn -0.31518555 0.93603516 0.15673828
vn -0.31518555 0.93603516 0.15673828
vn -0.31518555 0.93603516 0.15673828
vn 0.8256836 0.2956543 -0.4807129
vn 0.8256836 0.2956543 -0.4807129
vn 0.8256836 0.2956543 -0.4807129
vn 0.5058594 0.44970703 0.7363281
vn 0.5058594 0.44970703 0.7363281
vn 0.5058594 0.44970703 0.7363281
vn 0.5390625 0.2626953 0.80029297
vn 0.5390625 0.2626953 0.80029297
vn 0.5390625 0.2626953 0.80029297
vn -0.7919922 0.38623047 0.4729004
vn -0.7919922 0.38623047 0.4729004
vn -0.7919922 0.38623047 0.4729004
vn -0.7685547 0.44458008 0.46044922
vn -0.7685547 0.44458008 0.46044922
vn -0.7685547 0.44458008 0.46044922
vn 0.8276367 0.25317383 -0.50097656
vn 0.8276367 0.25317383 -0.50097656
vn 0.8276367 0.25317383 -0.50097656
vn 0.7832031 0.3894043 -0.48461914
vn 0.7832031 0.3894043 -0.48461914
vn 0.7832031 0.3894043 -0.48461914
vn 0.66796875 0.34155273 0.6611328
vn 0.66796875 0.34155273 0.6611328
vn 0.66796875 0.34155273 0.6611328
vn 0.66796875 0.34179688 0.6611328
vn -0.6616211 0.32104492 0.6777344
vn -0.6616211 0.32104492 0.6777344
vn -0.6616211 0.32104492 0.6777344
vn -0.6616211 0.32104492 0.6777344
vn 0.6435547 0.38452148 -0.6616211
vn 0.6435547 0.38452148 -0.6616211
vn 0.6435547 0.38452148 -0.6616211
vn 0.6435547 0.38476562 -0.6616211
vn -0.6723633 0.36401367 -0.64453125
vn -0.6723633 0.36401367 -0.64453125
vn -0.6723633 0.36401367 -0.64453125
vn -0.6723633 0.36401367 -0.64453125
vn -0.0006136894 0.95166016 0.30737305
vn -0.0006136894 0.95166016 0.30737305
vn -0.0006136894 0.95166016 0.30737305
vn -0.00049352646 0.95410156 0.2998047
vn -0.3955078 0.91845703 0.007259369
vn -0.3955078 0.91845703 0.007259369
vn -0.3955078 0.91845703 0.007259369
vn -0.4206543 0.90722656 0.0066986084
vn -0.00047159195 0.9633789 -0.2685547
vn -0.00047159195 0.9633789 -0.2685547
vn -0.00047159195 0.9633789 -0.2685547
vn -0.0002207756 0.9589844 -0.28393555
vn 0.3737793 0.9277344 0.0062026978
vn 0.3737793 0.9277344 0.0062026978
vn 0.3737793 0.9277344 0.0062026978
vn 0.38208008 0.9243164 0.006336212
vn -0.00047922134 0.44360352 0.8964844
vn -0.00047922134 0.44360352 0.8964844
vn -0.00047922134 0.44360352 0.8964844
vn -0.00047922134 0.44360352 0.8964844
vn -0.88916016 0.4572754 0.0046195984
vn -0.88916016 0.4572754 0.0046195984
vn -0.88916016 0.4572754 0.0046195984
vn -0.88916016 0.4572754 0.0046195984
vn -5.7518482E-05 0.49731445 -0.8676758
vn -5.7518482E-05 0.49731445 -0.8676758
vn -5.7518482E-05 0.49731445 -0.8676758
vn -5.6803226E-05 0.49731445 -0.8676758
vn 0.875 0.484375 0.0022506714
vn 0.875 0.484375 0.0022506714
vn 0.875 0.484375 0.0022506714
vn 0.875 0.484375 0.0022506714
vn 0.73828125 0.21069336 0.640625
vn 0.7392578 0.2064209 0.6411133
vn 0.73828125 0.21081543 0.6411133
vn 0.7392578 0.2064209 0.6411133
vn -0.6347656 0.32226562 0.70214844
vn -0.6347656 0.32202148 0.70214844
vn -0.6323242 0.31958008 0.7055664
vn -0.6323242 0.31958008 0.7055664
vn 0.14660645 0.3154297 -0.9375
vn 0.14660645 0.3154297 -0.9375
vn 0.14660645 0.3154297 -0.9375
vn 0.14660645 0.3154297 -0.9375
vn -0.9291992 0.3269043 -0.17114258
vn -0.9291992 0.3269043 -0.17126465
vn -0.9291992 0.3269043 -0.17114258
vn -0.9291992 0.3269043 -0.17126465
vn -0.14660645 0.40112305 -0.9042969
vn -0.14660645 0.40112305 -0.9042969
vn -0.14660645 0.40112305 -0.9042969
vn -0.14660645 0.40112305 -0.9042969
vn 0.39526367 0.22180176 0.89160156
vn 0.39526367 0.22180176 0.89160156
vn 0.39526367 0.22180176 0.89160156
vn 0.39526367 0.22180176 0.89160156
vn -0.89160156 0.22180176 0.39526367
vn -0.89160156 0.22180176 0.39526367
vn -0.89160156 0.22180176 0.39526367
vn -0.89160156 0.22167969 0.39526367
vn 0.89453125 0.20495605 -0.39672852
vn 0.89453125 0.20495605 -0.39672852
vn 0.89453125 0.20495605 -0.39672852
vn 0.89453125 0.20507812 -0.39672852
vn -0.39672852 0.20495605 -0.89453125
vn -0.39672852 0.20495605 -0.89453125
vn -0.39672852 0.20495605 -0.89453125
vn -0.39672852 0.20495605 -0.89453125
vn 0.3696289 0.41381836 -0.83203125
vn 0.3696289 0.41381836 -0.83203125
vn 0.3696289 0.41381836 -0.83203125
vn 0.36206055 0.44702148 -0.8178711
vn 0.8256836 0.42651367 0.36914062
vn 0.8256836 0.42651367 0.36914062
vn 0.8256836 0.42651367 0.36914062
vn 0.8310547 0.41381836 0.3720703
vn -0.38183594 0.3059082 0.8720703
vn -0.38183594 0.3059082 0.8720703
vn -0.38183594 0.3059082 0.8720703
vn -0.38183594 0.3059082 0.8720703
vn -0.87597656 0.2836914 -0.39038086
vn -0.87597656 0.2836914 -0.39038086
vn -0.87597656 0.2836914 -0.39038086
vn -0.8701172 0.3059082 -0.38671875
vn 0.38916016 0.2836914 -0.87646484
vn 0.38916016 0.2836914 -0.87646484
vn 0.38916016 0.2836914 -0.87646484
vn 0.38916016 0.2836914 -0.87646484
vn 0.8696289 0.3059082 0.38745117
vn 0.8696289 0.3059082 0.38745117
vn 0.8696289 0.3059082 0.38745117
vn 0.8754883 0.2836914 0.39135742
vn 0.64453125 0.24194336 0.72509766
vn 0.64453125 0.24194336 0.72509766
vn 0.64453125 0.24194336 0.72509766
vn 0.64453125 0.24194336 0.72509766
vn -0.6225586 0.23303223 0.7470703
vn -0.6225586 0.23303223 0.7470703
vn -0.6225586 0.23303223 0.7470703
vn -0.6225586 0.23303223 0.7470703
vn 0.625 0.2154541 -0.7504883
vn 0.625 0.2154541 -0.7504883
vn 0.625 0.2154541 -0.7504883
vn 0.625 0.2154541 -0.7504883
vn -0.64746094 0.22375488 -0.7285156
vn -0.64746094 0.22375488 -0.7285156
vn -0.64746094 0.22375488 -0.7285156
vn -0.64746094 0.22387695 -0.7285156
vn 0.00116539 0.41503906 -0.90966797
vn 0.00116539 0.41503906 -0.90966797
vn 0.00116539 0.41503906 -0.90966797
vn -2.2828579E-05 0.45336914 -0.8911133
vn 0.87597656 0.48217773 0.01890564
vn 0.87597656 0.48217773 0.01890564
vn 0.87597656 0.48217773 0.01890564
vn 0.8833008 0.46850586 0.019683838
vn 0.0031986237 0.30688477 0.95166016
vn 0.0031986237 0.30688477 0.95166016
vn 0.0031986237 0.30688477 0.95166016
vn 0.0031986237 0.30688477 0.95166016
vn -0.9453125 0.32641602 -0.019241333
vn -0.9453125 0.32641602 -0.019241333
vn -0.9453125 0.32641602 -0.019241333
vn -0.93603516 0.35107422 -0.017913818
vn 0.0012273788 0.28466797 -0.9584961
vn 0.0012273788 0.28466797 -0.9584961
vn 0.0012273788 0.28466797 -0.9584961
vn 0.0012273788 0.28466797 -0.9584961
vn 0.93603516 0.35107422 0.018936157
vn 0.93603516 0.35107422 0.018936157
vn 0.93603516 0.35107422 0.018936157
vn 0.9448242 0.32617188 0.020401001
vn 0.64453125 0.24194336 0.72509766
vn 0.64453125 0.24194336 0.72509766
vn 0.64453125 0.24194336 0.72509766
vn 0.64453125 0.24194336 0.72509766
vn -0.6225586 0.23303223 0.7470703
vn -0.6225586 0.23303223 0.7470703
vn -0.6225586 0.23303223 0.7470703
vn -0.6225586 0.23303223 0.7470703
vn 0.625 0.2154541 -0.7504883
vn 0.625 0.2154541 -0.7504883
vn 0.625 0.2154541 -0.7504883
vn 0.625 0.2154541 -0.7504883
vn -0.64746094 0.22375488 -0.7285156
vn -0.64746094 0.22375488 -0.7285156
vn -0.64746094 0.22375488 -0.7285156
vn -0.64746094 0.22387695 -0.7285156
vn 0.0013237 0.41503906 -0.90966797
vn 0.0013237 0.41503906 -0.90966797
vn 0.0013237 0.41503906 -0.90966797
vn -2.5987625E-05 0.45336914 -0.8911133
vn 0.87841797 0.47753906 -0.00932312
vn 0.87841797 0.47753906 -0.00932312
vn 0.87841797 0.47753906 -0.00932312
vn 0.8833008 0.46850586 -0.009033203
vn 0.0036354065 0.30688477 0.95166016
vn 0.0036354065 0.30688477 0.95166016
vn 0.0036354065 0.30688477 0.95166016
vn 0.0036354065 0.30688477 0.95166016
vn -0.9453125 0.32641602 0.010864258
vn -0.9453125 0.32641602 0.010864258
vn -0.9453125 0.32641602 0.010864258
vn -0.93652344 0.35107422 0.011734009
vn 0.0013952255 0.28466797 -0.9584961
vn 0.0013952255 0.28466797 -0.9584961
vn 0.0013952255 0.28466797 -0.9584961
vn 0.0013942719 0.28466797 -0.9584961
vn 0.93652344 0.35107422 -0.011009216
vn 0.93652344 0.35107422 -0.011009216
vn 0.93652344 0.35107422 -0.011009216
vn 0.9453125 0.32641602 -0.010032654
vn 0.95214844 0.18640137 0.24157715
vn 0.95214844 0.18640137 0.24157715
vn 0.95214844 0.18640137 0.24157715
vn 0.95214844 0.18640137 0.24157715
vn -0.23571777 0.33764648 0.9111328
vn -0.23571777 0.33764648 0.9111328
vn -0.23571777 0.33764648 0.9111328
vn -0.23571777 0.33764648 0.9111328
vn -0.28564453 0.32055664 -0.9033203
vn -0.28564453 0.32055664 -0.9033203
vn -0.28564453 0.32055664 -0.9033203
vn -0.28564453 0.32055664 -0.9033203
vn -0.90283203 0.3256836 0.28027344
vn -0.90283203 0.3256836 0.28027344
vn -0.90283203 0.3256836 0.28027344
vn -0.90283203 0.32543945 0.28027344
vn -0.49365234 0.38305664 -0.7807617
vn -0.49365234 0.38305664 -0.7807617
vn -0.49365234 0.38305664 -0.7807617
vn -0.49365234 0.38305664 -0.7807617
vn -0.00037240982 1 0.0071029663
vn -0.00037240982 1 0.0071029663
vn -0.00037240982 1 0.0071029663
vn -0.00037312508 1 0.007106781
vn -0 1 0
vn -0 1 0
vn -0 1 0
vn -0 1 0
vn 0.0037994385 1 -0.003742218
vn 0.0037994385 1 -0.003742218
vn 0.0037994385 1 -0.003742218
vn 0.0012207031 1 -0.002714157
vn 0.0016775131 1 -0.004924774
vn 0.0016775131 1 -0.004924774
vn 0.0016775131 1 -0.004924774
vn 1.4901161E-05 1 -0.0029735565
vn 0.0019083023 1 -0.004184723
vn 0.0019083023 1 -0.004184723
vn 0.0019083023 1 -0.004184723
vn 1.41859055E-05 1 -0.0024929047
vn 0.0018396378 1 -0.007843018
vn 0.0018396378 1 -0.007843018
vn 0.0018396378 1 -0.007843018
vn 0.0017910004 1 -0.007686615
g B003_BB04_0
f 3/3/3 2/2/2 1/1/1
f 6/6/6 5/5/5 4/4/4
f 9/9/9 8/8/8 7/7/7
f 12/12/12 11/11/11 10/10/10
f 15/15/15 14/14/14 13/13/13
f 18/18/18 17/17/17 16/16/16
f 21/21/21 20/20/20 19/19/19
f 24/24/24 23/23/23 22/22/22
f 27/27/27 26/26/26 25/25/25
f 30/30/30 29/29/29 28/28/28
f 33/33/33 32/32/32 31/31/31
f 36/36/36 35/35/35 34/34/34
f 39/39/39 38/38/38 37/37/37
f 42/42/42 41/41/41 40/40/40
f 45/45/45 44/44/44 43/43/43
f 48/48/48 47/47/47 46/46/46
f 51/51/51 50/50/50 49/49/49
f 54/54/54 53/53/53 52/52/52
f 57/57/57 56/56/56 55/55/55
f 60/60/60 59/59/59 58/58/58
f 63/63/63 62/62/62 61/61/61
f 66/66/66 65/65/65 64/64/64
f 69/69/69 68/68/68 67/67/67
f 72/72/72 71/71/71 70/70/70
f 75/75/75 74/74/74 73/73/73
f 78/78/78 77/77/77 76/76/76
f 81/81/81 80/80/80 79/79/79
f 84/84/84 83/83/83 82/82/82
f 87/87/87 86/86/86 85/85/85
f 90/90/90 89/89/89 88/88/88
f 93/93/93 92/92/92 91/91/91
f 96/96/96 95/95/95 94/94/94
f 99/99/99 98/98/98 97/97/97
f 102/102/102 101/101/101 100/100/100
f 105/105/105 104/104/104 103/103/103
f 108/108/108 107/107/107 106/106/106
f 111/111/111 110/110/110 109/109/109
f 114/114/114 113/113/113 112/112/112
f 117/117/117 116/116/116 115/115/115
f 120/120/120 119/119/119 118/118/118
f 123/123/123 122/122/122 121/121/121
f 126/126/126 125/125/125 124/124/124
f 129/129/129 128/128/128 127/127/127
f 132/132/132 131/131/131 130/130/130
f 135/135/135 134/134/134 133/133/133
f 138/138/138 137/137/137 136/136/136
f 141/141/141 140/140/140 139/139/139
f 144/144/144 143/143/143 142/142/142
f 147/147/147 146/146/146 145/145/145
f 150/150/150 149/149/149 148/148/148
f 153/153/153 152/152/152 151/151/151
f 156/156/156 155/155/155 154/154/154
f 159/159/159 158/158/158 157/157/157
f 162/162/162 161/161/161 160/160/160
f 165/165/165 164/164/164 163/163/163
f 168/168/168 167/167/167 166/166/166
f 171/171/171 170/170/170 169/169/169
f 174/174/174 173/173/173 172/172/172
f 177/177/177 176/176/176 175/175/175
f 176/176/176 177/177/177 178/178/178
f 181/181/181 180/180/180 179/179/179
f 180/180/180 181/181/181 182/182/182
f 185/185/185 184/184/184 183/183/183
f 184/184/184 185/185/185 186/186/186
f 189/189/189 188/188/188 187/187/187
f 188/188/188 189/189/189 190/190/190
f 193/193/193 192/192/192 191/191/191
f 192/192/192 193/193/193 194/194/194
f 197/197/197 196/196/196 195/195/195
f 196/196/196 197/197/197 198/198/198
f 201/201/201 200/200/200 199/199/199
f 200/200/200 201/201/201 202/202/202
f 205/205/205 204/204/204 203/203/203
f 204/204/204 205/205/205 206/206/206
f 209/209/209 208/208/208 207/207/207
f 208/208/208 209/209/209 210/210/210
f 213/213/213 212/212/212 211/211/211
f 212/212/212 213/213/213 214/214/214
f 217/217/217 216/216/216 215/215/215
f 216/216/216 217/217/217 218/218/218
f 221/221/221 220/220/220 219/219/219
f 220/220/220 221/221/221 222/222/222
f 225/225/225 224/224/224 223/223/223
f 224/224/224 225/225/225 226/226/226
f 229/229/229 228/228/228 227/227/227
f 228/228/228 229/229/229 230/230/230
f 233/233/233 232/232/232 231/231/231
f 232/232/232 233/233/233 234/234/234
f 237/237/237 236/236/236 235/235/235
f 236/236/236 237/237/237 238/238/238
f 241/241/241 240/240/240 239/239/239
f 240/240/240 241/241/241 242/242/242
f 245/245/245 244/244/244 243/243/243
f 244/244/244 245/245/245 246/246/246
f 249/249/249 248/248/248 247/247/247
f 248/248/248 249/249/249 250/250/250
f 253/253/253 252/252/252 251/251/251
f 252/252/252 253/253/253 254/254/254
f 257/257/257 256/256/256 255/255/255
f 256/256/256 257/257/257 258/258/258
f 261/261/261 260/260/260 259/259/259
f 260/260/260 261/261/261 262/262/262
f 265/265/265 264/264/264 263/263/263
f 264/264/264 265/265/265 266/266/266
f 269/269/269 268/268/268 267/267/267
f 268/268/268 269/269/269 270/270/270
f 273/273/273 272/272/272 271/271/271
f 272/272/272 273/273/273 274/274/274
f 277/277/277 276/276/276 275/275/275
f 276/276/276 277/277/277 278/278/278
f 281/281/281 280/280/280 279/279/279
f 280/280/280 281/281/281 282/282/282
f 285/285/285 284/284/284 283/283/283
f 284/284/284 285/285/285 286/286/286
f 289/289/289 288/288/288 287/287/287
f 288/288/288 289/289/289 290/290/290
f 293/293/293 292/292/292 291/291/291
f 292/292/292 293/293/293 294/294/294
f 297/297/297 296/296/296 295/295/295
f 296/296/296 297/297/297 298/298/298
f 301/301/301 300/300/300 299/299/299
f 300/300/300 301/301/301 302/302/302
f 305/305/305 304/304/304 303/303/303
f 304/304/304 305/305/305 306/306/306
f 309/309/309 308/308/308 307/307/307
f 308/308/308 309/309/309 310/310/310
f 313/313/313 312/312/312 311/311/311
f 312/312/312 313/313/313 314/314/314
f 317/317/317 316/316/316 315/315/315
f 316/316/316 317/317/317 318/318/318
f 321/321/321 320/320/320 319/319/319
f 320/320/320 321/321/321 322/322/322
f 325/325/325 324/324/324 323/323/323
f 324/324/324 325/325/325 326/326/326
f 329/329/329 328/328/328 327/327/327
f 328/328/328 329/329/329 330/330/330
f 333/333/333 332/332/332 331/331/331
f 332/332/332 333/333/333 334/334/334
f 337/337/337 336/336/336 335/335/335
f 336/336/336 337/337/337 338/338/338
f 341/341/341 340/340/340 339/339/339
f 340/340/340 341/341/341 342/342/342
f 345/345/345 344/344/344 343/343/343
f 344/344/344 345/345/345 346/346/346
f 349/349/349 348/348/348 347/347/347
f 348/348/348 349/349/349 350/350/350
f 353/353/353 352/352/352 351/351/351
f 352/352/352 353/353/353 354/354/354
f 357/357/357 356/356/356 355/355/355
f 356/356/356 357/357/357 358/358/358
f 361/361/361 360/360/360 359/359/359
f 360/360/360 361/361/361 362/362/362
f 365/365/365 364/364/364 363/363/363
f 364/364/364 365/365/365 366/366/366
f 369/369/369 368/368/368 367/367/367
f 368/368/368 369/369/369 370/370/370
f 373/373/373 372/372/372 371/371/371
f 372/372/372 373/373/373 374/374/374
f 377/377/377 376/376/376 375/375/375
f 376/376/376 377/377/377 378/378/378
f 381/381/381 380/380/380 379/379/379
f 380/380/380 381/381/381 382/382/382
f 385/385/385 384/384/384 383/383/383
f 384/384/384 385/385/385 386/386/386
f 389/389/389 388/388/388 387/387/387
f 388/388/388 389/389/389 390/390/390
f 393/393/393 392/392/392 391/391/391
f 392/392/392 393/393/393 394/394/394
g B003_BB04_1
f 397/397/397 396/396/396 395/395/395
f 396/396/396 397/397/397 398/398/398
f 401/401/401 400/400/400 399/399/399
f 400/400/400 401/401/401 402/402/402
f 405/405/405 404/404/404 403/403/403
f 404/404/404 405/405/405 406/406/406
f 409/409/409 408/408/408 407/407/407
f 408/408/408 409/409/409 410/410/410
f 413/413/413 412/412/412 411/411/411
f 412/412/412 413/413/413 414/414/414
f 417/417/417 416/416/416 415/415/415
f 416/416/416 417/417/417 418/418/418
g B003_BB04_2
f 421/421/421 420/420/420 419/419/419
f 424/424/424 423/423/423 422/422/422
f 427/427/427 426/426/426 425/425/425
f 430/430/430 429/429/429 428/428/428
f 433/433/433 432/432/432 431/431/431
f 436/436/436 435/435/435 434/434/434
f 439/439/439 438/438/438 437/437/437
f 442/442/442 441/441/441 440/440/440
f 445/445/445 444/444/444 443/443/443
f 448/448/448 447/447/447 446/446/446
f 451/451/451 450/450/450 449/449/449
f 454/454/454 453/453/453 452/452/452
f 457/457/457 456/456/456 455/455/455
f 460/460/460 459/459/459 458/458/458
f 463/463/463 462/462/462 461/461/461
f 466/466/466 465/465/465 464/464/464
f 468/468/468 467/467/467 465/465/465
f 471/471/471 470/470/470 469/469/469
f 474/474/474 473/473/473 472/472/472
f 477/477/477 476/476/476 475/475/475
f 480/480/480 479/479/479 478/478/478
f 483/483/483 482/482/482 481/481/481
f 486/486/486 485/485/485 484/484/484
f 489/489/489 488/488/488 487/487/487
f 492/492/492 491/491/491 490/490/490
f 495/495/495 494/494/494 493/493/493
f 498/498/498 497/497/497 496/496/496
f 501/501/501 500/500/500 499/499/499
f 504/504/504 503/503/503 502/502/502
f 507/507/507 506/506/506 505/505/505
f 510/510/510 509/509/509 508/508/508
f 513/513/513 512/512/512 511/511/511
f 516/516/516 515/515/515 514/514/514
f 519/519/519 518/518/518 517/517/517
f 522/522/522 521/521/521 520/520/520
f 525/525/525 524/524/524 523/523/523
f 528/528/528 527/527/527 526/526/526
f 531/531/531 530/530/530 529/529/529
f 534/534/534 533/533/533 532/532/532
f 537/537/537 536/536/536 535/535/535
f 540/540/540 539/539/539 538/538/538
f 543/543/543 542/542/542 541/541/541
f 546/546/546 545/545/545 544/544/544
f 549/549/549 548/548/548 547/547/547
f 552/552/552 551/551/551 550/550/550
f 555/555/555 554/554/554 553/553/553
f 558/558/558 557/557/557 556/556/556
f 561/561/561 560/560/560 559/559/559
f 564/564/564 563/563/563 562/562/562
f 567/567/567 566/566/566 565/565/565
f 570/570/570 569/569/569 568/568/568
f 573/573/573 572/572/572 571/571/571
f 576/576/576 575/575/575 574/574/574
f 579/579/579 578/578/578 577/577/577
f 582/582/582 581/581/581 580/580/580
f 585/585/585 584/584/584 583/583/583
f 588/588/588 587/587/587 586/586/586
f 591/591/591 590/590/590 589/589/589
f 594/594/594 593/593/593 592/592/592
f 597/597/597 596/596/596 595/595/595
f 600/600/600 599/599/599 598/598/598
f 603/603/603 602/602/602 601/601/601
f 606/606/606 605/605/605 604/604/604
f 609/609/609 608/608/608 607/607/607
f 612/612/612 611/611/611 610/610/610
f 611/611/611 612/612/612 613/613/613
f 616/616/616 615/615/615 614/614/614
f 615/615/615 616/616/616 617/617/617
f 620/620/620 619/619/619 618/618/618
f 619/619/619 620/620/620 621/621/621
f 624/624/624 623/623/623 622/622/622
f 623/623/623 624/624/624 625/625/625
f 628/628/628 627/627/627 626/626/626
f 627/627/627 628/628/628 629/629/629
f 632/632/632 631/631/631 630/630/630
f 631/631/631 632/632/632 633/633/633
f 636/636/636 635/635/635 634/634/634
f 635/635/635 636/636/636 637/637/637
f 640/640/640 639/639/639 638/638/638
f 639/639/639 640/640/640 641/641/641
f 644/644/644 643/643/643 642/642/642
f 643/643/643 644/644/644 645/645/645
f 648/648/648 647/647/647 646/646/646
f 647/647/647 648/648/648 649/649/649
f 652/652/652 651/651/651 650/650/650
f 651/651/651 652/652/652 653/653/653
f 656/656/656 655/655/655 654/654/654
f 655/655/655 656/656/656 657/657/657
f 660/660/660 659/659/659 658/658/658
f 659/659/659 660/660/660 661/661/661
f 664/664/664 663/663/663 662/662/662
f 663/663/663 664/664/664 665/665/665
f 668/668/668 667/667/667 666/666/666
f 667/667/667 668/668/668 669/669/669
f 672/672/672 671/671/671 670/670/670
f 671/671/671 672/672/672 673/673/673
f 676/676/676 675/675/675 674/674/674
f 675/675/675 676/676/676 677/677/677
f 680/680/680 679/679/679 678/678/678
f 679/679/679 680/680/680 681/681/681
f 684/684/684 683/683/683 682/682/682
f 683/683/683 684/684/684 685/685/685
f 688/688/688 687/687/687 686/686/686
f 687/687/687 688/688/688 689/689/689
f 692/692/692 691/691/691 690/690/690
f 691/691/691 692/692/692 693/693/693
f 696/696/696 695/695/695 694/694/694
f 695/695/695 696/696/696 697/697/697
f 700/700/700 699/699/699 698/698/698
f 699/699/699 700/700/700 701/701/701
f 704/704/704 703/703/703 702/702/702
f 703/703/703 704/704/704 705/705/705
f 708/708/708 707/707/707 706/706/706
f 707/707/707 708/708/708 709/709/709
f 712/712/712 711/711/711 710/710/710
f 711/711/711 712/712/712 713/713/713
f 716/716/716 715/715/715 714/714/714
f 715/715/715 716/716/716 717/717/717
f 720/720/720 719/719/719 718/718/718
f 719/719/719 720/720/720 721/721/721
f 724/724/724 723/723/723 722/722/722
f 723/723/723 724/724/724 725/725/725
f 728/728/728 727/727/727 726/726/726
f 727/727/727 728/728/728 729/729/729
f 732/732/732 731/731/731 730/730/730
f 731/731/731 732/732/732 733/733/733
f 736/736/736 735/735/735 734/734/734
f 735/735/735 736/736/736 737/737/737
f 740/740/740 739/739/739 738/738/738
f 739/739/739 740/740/740 741/741/741
f 744/744/744 743/743/743 742/742/742
f 743/743/743 744/744/744 745/745/745
f 748/748/748 747/747/747 746/746/746
f 747/747/747 748/748/748 749/749/749
f 752/752/752 751/751/751 750/750/750
f 751/751/751 752/752/752 753/753/753
f 756/756/756 755/755/755 754/754/754
f 755/755/755 756/756/756 757/757/757
f 760/760/760 759/759/759 758/758/758
f 759/759/759 760/760/760 761/761/761
f 764/764/764 763/763/763 762/762/762
f 763/763/763 764/764/764 765/765/765
f 768/768/768 767/767/767 766/766/766
f 767/767/767 768/768/768 769/769/769
f 772/772/772 771/771/771 770/770/770
f 771/771/771 772/772/772 773/773/773
f 776/776/776 775/775/775 774/774/774
f 775/775/775 776/776/776 777/777/777
f 780/780/780 779/779/779 778/778/778
f 779/779/779 780/780/780 781/781/781
f 784/784/784 783/783/783 782/782/782
f 783/783/783 784/784/784 785/785/785
f 788/788/788 787/787/787 786/786/786
f 787/787/787 788/788/788 789/789/789
f 792/792/792 791/791/791 790/790/790
f 791/791/791 792/792/792 793/793/793
f 796/796/796 795/795/795 794/794/794
f 795/795/795 796/796/796 797/797/797
f 800/800/800 799/799/799 798/798/798
f 799/799/799 800/800/800 801/801/801
f 804/804/804 803/803/803 802/802/802
f 803/803/803 804/804/804 805/805/805
f 808/808/808 807/807/807 806/806/806
f 807/807/807 808/808/808 809/809/809
f 812/812/812 811/811/811 810/810/810
f 811/811/811 812/812/812 813/813/813
f 816/816/816 815/815/815 814/814/814
f 815/815/815 816/816/816 817/817/817
g B003_BB04_3
f 820/820/820 819/819/819 818/818/818
f 819/819/819 820/820/820 821/821/821
f 824/824/824 823/823/823 822/822/822
f 823/823/823 824/824/824 825/825/825
f 828/828/828 827/827/827 826/826/826
f 827/827/827 828/828/828 829/829/829
f 832/832/832 831/831/831 830/830/830
f 831/831/831 832/832/832 833/833/833
f 836/836/836 835/835/835 834/834/834
f 835/835/835 836/836/836 837/837/837
f 840/840/840 839/839/839 838/838/838
f 839/839/839 840/840/840 841/841/841
