g B003_BB03
v -17.42607 4.048654 14.054667
v -17.585114 3.8277338 14.657285
v -17.948092 3.8277385 14.241147
v 17.384693 4.048654 13.93563
v 17.979225 3.8277361 14.190893
v 17.772291 3.8277338 14.427309
v -17.43477 4.0486717 -13.972395
v -17.981667 3.8277733 -14.227661
v -17.774733 3.8277783 -14.464077
v 17.325777 4.0486717 -14.091433
v 17.68273 3.827777 -14.585419
v 17.919146 3.8277721 -14.378492
v -17.670435 3.0234978 14.770327
v -18.143267 3.0234997 14.356464
v -17.585114 3.8277338 14.657285
v -17.948092 3.8277385 14.241147
v -17.585114 3.8277338 14.657285
v -18.143267 3.0234997 14.356464
v 17.772291 3.8277338 14.427309
v -17.585114 3.8277338 14.657285
v 17.384693 4.048654 13.93563
v -17.42607 4.048654 14.054667
v 17.384693 4.048654 13.93563
v -17.585114 3.8277338 14.657285
v 17.787046 3.197338 14.648984
v -17.670435 3.0234978 14.770327
v 17.772291 3.8277338 14.427309
v -17.585114 3.8277338 14.657285
v 17.772291 3.8277338 14.427309
v -17.670435 3.0234978 14.770327
v -18.143267 3.0234997 14.356464
v -18.203325 3.1973834 -14.212914
v -17.948092 3.8277385 14.241147
v -17.981667 3.8277733 -14.227661
v -17.948092 3.8277385 14.241147
v -18.203325 3.1973834 -14.212914
v 18.200884 3.19734 14.176143
v 17.787046 3.197338 14.648984
v 17.979225 3.8277361 14.190893
v 17.772291 3.8277338 14.427309
v -18.203325 3.1973834 -14.212914
v -17.789478 3.1973834 -14.685741
v -17.981667 3.8277733 -14.227661
v -17.774733 3.8277783 -14.464077
v 17.667974 3.1973834 -14.807087
v 18.140806 3.1973822 -14.393233
v 17.68273 3.827777 -14.585419
v 17.919146 3.8277721 -14.378492
v 17.919146 3.8277721 -14.378492
v 17.979225 3.8277361 14.190893
v 17.325777 4.0486717 -14.091433
v 17.384693 4.048654 13.93563
v -17.774733 3.8277783 -14.464077
v 17.68273 3.827777 -14.585419
v -17.43477 4.0486717 -13.972395
v 17.325777 4.0486717 -14.091433
v -17.948092 3.8277385 14.241147
v -17.981667 3.8277733 -14.227661
v -17.42607 4.048654 14.054667
v -17.43477 4.0486717 -13.972395
v 18.140806 3.1973822 -14.393233
v 18.200884 3.19734 14.176143
v 17.919146 3.8277721 -14.378492
v 17.979225 3.8277361 14.190893
v -17.789478 3.1973834 -14.685741
v 17.667974 3.1973834 -14.807087
v -17.774733 3.8277783 -14.464077
v 17.68273 3.827777 -14.585419
v -17.667965 -3.185777 14.807104
v -18.140806 -3.185774 14.393237
v -17.670435 3.0234978 14.770327
v -18.143267 3.0234997 14.356464
v -17.670435 3.0234978 14.770327
v -18.140806 -3.185774 14.393237
v -18.140806 -3.185774 14.393237
v -17.667965 -3.185777 14.807104
v -17.697447 -4.0486746 14.363745
v 18.203325 -3.185774 14.212914
v 17.759996 -4.0486746 14.242421
v 17.789478 -3.1857767 14.685761
v -17.789488 -3.1857183 -14.685761
v -18.203325 -3.1857214 -14.2129345
v -17.759996 -4.0486193 -14.242424
v 17.667984 -3.1857183 -14.807103
v 17.697496 -4.048619 -14.363767
v 18.140816 -3.1857214 -14.393258
v -17.670435 3.0234978 14.770327
v 17.787046 3.197338 14.648984
v -17.667965 -3.185777 14.807104
v 17.789478 -3.1857767 14.685761
v 18.200884 3.19734 14.176143
v 18.140806 3.1973822 -14.393233
v 18.203325 -3.185774 14.212914
v 18.140816 -3.1857214 -14.393258
v 17.667974 3.1973834 -14.807087
v -17.789478 3.1973834 -14.685741
v 17.667984 -3.1857183 -14.807103
v -17.789488 -3.1857183 -14.685761
v -18.203325 3.1973834 -14.212914
v -18.143267 3.0234997 14.356464
v -18.203325 -3.1857214 -14.2129345
v -18.140806 -3.185774 14.393237
v 17.787046 3.197338 14.648984
v 18.200884 3.19734 14.176143
v 17.789478 -3.1857767 14.685761
v 18.203325 -3.185774 14.212914
v 18.140806 3.1973822 -14.393233
v 17.667974 3.1973834 -14.807087
v 18.140816 -3.1857214 -14.393258
v 17.667984 -3.1857183 -14.807103
v -17.789478 3.1973834 -14.685741
v -18.203325 3.1973834 -14.212914
v -17.789488 -3.1857183 -14.685761
v -18.203325 -3.1857214 -14.2129345
v -17.759996 -4.0486193 -14.242424
v -18.203325 -3.1857214 -14.2129345
v -17.697447 -4.0486746 14.363745
v -18.140806 -3.185774 14.393237
v 17.697496 -4.048619 -14.363767
v 17.667984 -3.1857183 -14.807103
v -17.759996 -4.0486193 -14.242424
v -17.789488 -3.1857183 -14.685761
v 17.759996 -4.0486746 14.242421
v 18.203325 -3.185774 14.212914
v 17.697496 -4.048619 -14.363767
v 18.140816 -3.1857214 -14.393258
v -17.697447 -4.0486746 14.363745
v -17.667965 -3.185777 14.807104
v 17.759996 -4.0486746 14.242421
v 17.789478 -3.1857767 14.685761
v 17.759996 -4.0486746 14.242421
v 17.697496 -4.048619 -14.363767
v -17.697447 -4.0486746 14.363745
v -17.759996 -4.0486193 -14.242424
v -17.43477 4.0486717 -13.972395
v 17.325777 4.0486717 -14.091433
v -17.42607 4.048654 14.054667
v 17.384693 4.048654 13.93563
vt 0.027618408 0.9404297
vt 0.027618408 0.61035156
vt 0.027618408 0.61035156
vt 0.027618408 0.9404297
vt 0.027618408 0.61035156
vt 0.027618408 0.61035156
vt 0.027618408 0.9404297
vt 0.027618408 0.61035156
vt 0.027618408 0.61035156
vt 0.027618408 0.9404297
vt 0.027618408 0.61035156
vt 0.027618408 0.61035156
vt 0.027618408 0.006668091
vt 0.027618408 0.006668091
vt 0.027618408 0.61035156
vt 0.027618408 0.61035156
vt 0.027618408 0.61035156
vt 0.027618408 0.006668091
vt 0.027618408 0.61035156
vt 2.6855469 0.61035156
vt 0.027618408 0.9404297
vt 2.6855469 0.9404297
vt 0.027618408 0.9404297
vt 2.6855469 0.61035156
vt 0.027618408 0.006668091
vt 2.6855469 0.006668091
vt 0.027618408 0.61035156
vt 2.6855469 0.61035156
vt 0.027618408 0.61035156
vt 2.6855469 0.006668091
vt 0.027618408 0.006668091
vt 2.6933594 0.006668091
vt 0.027618408 0.61035156
vt 2.6933594 0.61035156
vt 0.027618408 0.61035156
vt 2.6933594 0.006668091
vt 0.027618408 0.006668091
vt 0.027618408 0.006668091
vt 0.027618408 0.61035156
vt 0.027618408 0.61035156
vt 0.027618408 0.006668091
vt 0.027618408 0.006668091
vt 0.027618408 0.61035156
vt 0.027618408 0.61035156
vt 0.027618408 0.006668091
vt 0.027618408 0.006668091
vt 0.027618408 0.61035156
vt 0.027618408 0.61035156
vt 0.027618408 0.61035156
vt 2.6933594 0.61035156
vt 0.027618408 0.9404297
vt 2.6933594 0.9404297
vt 0.027618408 0.61035156
vt 2.6855469 0.61035156
vt 0.027618408 0.9404297
vt 2.6855469 0.9404297
vt 0.027618408 0.61035156
vt 2.6933594 0.61035156
vt 0.027618408 0.9404297
vt 2.6933594 0.9404297
vt 0.027618408 0.006668091
vt 2.6933594 0.006668091
vt 0.027618408 0.61035156
vt 2.6933594 0.61035156
vt 0.027618408 0.006668091
vt 2.6855469 0.006668091
vt 0.027618408 0.61035156
vt 2.6855469 0.61035156
vt -27.96875 -14.9375
vt -28.09375 -14.953125
vt -28 -13.734375
vt -28.125 -13.7421875
vt -28 -13.734375
vt -28.09375 -14.953125
vt -28.09375 -14.953125
vt -27.96875 -14.9375
vt -27.984375 -15.125
vt -20.984375 -14.7890625
vt -21.046875 -14.9765625
vt -21.078125 -14.7890625
vt -8.4453125 -14.8828125
vt -8.3515625 -14.890625
vt -8.421875 -15.0703125
vt -15.34375 -14.7890625
vt -15.3984375 -14.9765625
vt -15.4296875 -14.7890625
vt -28 -13.734375
vt -21.09375 -13.5390625
vt -27.96875 -14.9375
vt -21.078125 -14.7890625
vt -20.96875 -13.5390625
vt -15.421875 -13.546875
vt -20.984375 -14.7890625
vt -15.4296875 -14.7890625
vt -15.3125 -13.546875
vt -8.421875 -13.640625
vt -15.34375 -14.7890625
vt -8.4453125 -14.8828125
vt -8.328125 -13.640625
vt -2.7714844 -13.6796875
vt -8.3515625 -14.890625
vt -2.7714844 -14.890625
vt -21.09375 -13.5390625
vt -20.96875 -13.5390625
vt -21.078125 -14.7890625
vt -20.984375 -14.7890625
vt -15.421875 -13.546875
vt -15.3125 -13.546875
vt -15.4296875 -14.7890625
vt -15.34375 -14.7890625
vt -8.421875 -13.640625
vt -8.328125 -13.640625
vt -8.4453125 -14.8828125
vt -8.3515625 -14.890625
vt -8.421875 -15.0703125
vt -8.3515625 -14.890625
vt -2.7910156 -15.078125
vt -2.7714844 -14.890625
vt -15.3984375 -14.9765625
vt -15.34375 -14.7890625
vt -8.421875 -15.0703125
vt -8.4453125 -14.8828125
vt -21.046875 -14.9765625
vt -20.984375 -14.7890625
vt -15.3984375 -14.9765625
vt -15.4296875 -14.7890625
vt -27.984375 -15.125
vt -27.96875 -14.9375
vt -21.046875 -14.9765625
vt -21.078125 -14.7890625
vt 15.0625 -10.8515625
vt 15.0546875 -16.4375
vt 8.1484375 -10.8359375
vt 8.1328125 -16.40625
vt 4.59375 12.7265625
vt 4.4804688 19.5
vt 10.0625 12.796875
vt 9.9453125 19.59375
vn -0.29663086 0.9194336 0.25878906
vn -0.29663086 0.9194336 0.25878906
vn -0.29663086 0.9194336 0.25878906
vn 0.2541504 0.94140625 0.22253418
vn 0.2541504 0.94140625 0.22253418
vn 0.2541504 0.94140625 0.22253418
vn -0.2680664 0.9345703 -0.23449707
vn -0.2680664 0.9345703 -0.23449707
vn -0.2680664 0.9345703 -0.23449707
vn 0.2253418 0.9394531 -0.25732422
vn 0.2253418 0.9394531 -0.25732422
vn 0.2253418 0.9394531 -0.25732422
vn -0.6489258 0.17297363 0.74121094
vn -0.6489258 0.17297363 0.74121094
vn -0.6489258 0.17297363 0.74121094
vn -0.7260742 0.26708984 0.6333008
vn -0.7260742 0.26708984 0.6333008
vn -0.7260742 0.26708984 0.6333008
vn 0.0026550293 0.91308594 0.40820312
vn 0.0026550293 0.91308594 0.40820312
vn 0.0026550293 0.91308594 0.40820312
vn 0.0011777878 0.93896484 0.34448242
vn 0.0011777878 0.93896484 0.34448242
vn 0.0011777878 0.93896484 0.34448242
vn 0.0016021729 0.3317871 0.9433594
vn 0.0016021729 0.3317871 0.9433594
vn 0.0016021729 0.3317871 0.9433594
vn 0.0064430237 0.1385498 0.9902344
vn 0.0064430237 0.1385498 0.9902344
vn 0.0064430237 0.1385498 0.9902344
vn -0.9716797 0.23632812 0.0034809113
vn -0.9716797 0.23632812 0.0034809113
vn -0.9716797 0.23632812 0.0034809113
vn -0.9433594 0.3317871 0.0011129379
vn -0.9433594 0.3317871 0.0011129379
vn -0.9433594 0.3317871 0.0011129379
vn 0.72998047 0.24182129 0.63916016
vn 0.72998047 0.24182129 0.63916016
vn 0.72998047 0.24182129 0.63916016
vn 0.72998047 0.24182129 0.63916016
vn -0.72998047 0.24182129 -0.63916016
vn -0.72998047 0.24182129 -0.63916016
vn -0.72998047 0.24182129 -0.63916016
vn -0.72998047 0.24182129 -0.63916016
vn 0.63916016 0.24182129 -0.72998047
vn 0.63916016 0.24182129 -0.72998047
vn 0.63916016 0.24182129 -0.72998047
vn 0.63916016 0.24182129 -0.72998047
vn 0.3486328 0.9375 -0.00073194504
vn 0.3486328 0.9375 -0.00073194504
vn 0.3486328 0.9375 -0.00073194504
vn 0.3486328 0.9375 -0.0007324219
vn -0.0013999939 0.91259766 -0.40893555
vn -0.0013999939 0.91259766 -0.40893555
vn -0.0013999939 0.91259766 -0.40893555
vn -0.0014009476 0.91259766 -0.40893555
vn -0.38964844 0.92089844 0.0004606247
vn -0.38964844 0.92089844 0.0004606247
vn -0.38964844 0.92089844 0.0004606247
vn -0.37451172 0.9272461 0.00011688471
vn 0.9433594 0.3317871 -0.0019836426
vn 0.9433594 0.3317871 -0.0019836426
vn 0.9433594 0.3317871 -0.0019836426
vn 0.9433594 0.3317871 -0.0019836426
vn -0.0032291412 0.3317871 -0.9433594
vn -0.0032291412 0.3317871 -0.9433594
vn -0.0032291412 0.3317871 -0.9433594
vn -0.0032291412 0.3317871 -0.9433594
vn -0.6586914 0.004196167 0.7524414
vn -0.6586914 0.004196167 0.7524414
vn -0.6586914 0.004196167 0.7524414
vn -0.6586914 0.004196167 0.7524414
vn -0.6586914 0.004196167 0.7524414
vn -0.6586914 0.004196167 0.7524414
vn -0.61865234 -0.34204102 0.70703125
vn -0.61865234 -0.34204102 0.70703125
vn -0.61865234 -0.34204102 0.70703125
vn 0.70703125 -0.34204102 0.61865234
vn 0.70703125 -0.34204102 0.61865234
vn 0.70703125 -0.34204102 0.61865234
vn -0.70703125 -0.34204102 -0.61865234
vn -0.70703125 -0.34204102 -0.61865234
vn -0.70703125 -0.34204102 -0.61865234
vn 0.61865234 -0.34204102 -0.70703125
vn 0.61865234 -0.34204102 -0.70703125
vn 0.61865234 -0.34204102 -0.70703125
vn 0.0033931732 0.005924225 1
vn 0.0033931732 0.005924225 1
vn 0.0033931732 0.005924225 1
vn 0.0034217834 0.0057640076 1
vn 1 0.00037026405 -0.0021038055
vn 1 0.00037026405 -0.0021038055
vn 1 0.00037026405 -0.0021038055
vn 1 1.5497208E-06 -0.0021858215
vn -0.0034217834 2.6226044E-06 -1
vn -0.0034217834 2.6226044E-06 -1
vn -0.0034217834 2.6226044E-06 -1
vn -0.0034217834 3.0398369E-06 -1
vn -1 0 0.0021018982
vn -1 0 0.0021018982
vn -1 0 0.0021018982
vn -1 -0.00038337708 0.0021858215
vn 0.7524414 0.004081726 0.6586914
vn 0.7524414 0.004081726 0.6586914
vn 0.7524414 0.004081726 0.6586914
vn 0.7524414 0.004081726 0.6586914
vn 0.6586914 3.874302E-06 -0.7524414
vn 0.6586914 3.874302E-06 -0.7524414
vn 0.6586914 3.874302E-06 -0.7524414
vn 0.6586914 2.9802322E-06 -0.7524414
vn -0.7524414 3.1590462E-06 -0.6586914
vn -0.7524414 3.1590462E-06 -0.6586914
vn -0.7524414 3.1590462E-06 -0.6586914
vn -0.7524414 2.026558E-06 -0.6586914
vn -0.88964844 -0.45703125 0.0019435883
vn -0.88964844 -0.45703125 0.0019435883
vn -0.88964844 -0.45703125 0.0019435883
vn -0.88964844 -0.45703125 0.0019426346
vn -0.0030441284 -0.45703125 -0.88964844
vn -0.0030441284 -0.45703125 -0.88964844
vn -0.0030441284 -0.45703125 -0.88964844
vn -0.0030441284 -0.45703125 -0.88964844
vn 0.88964844 -0.45703125 -0.0019445419
vn 0.88964844 -0.45703125 -0.0019445419
vn 0.88964844 -0.45703125 -0.0019445419
vn 0.88964844 -0.45703125 -0.0019445419
vn 0.0030441284 -0.45703125 0.88964844
vn 0.0030441284 -0.45703125 0.88964844
vn 0.0030441284 -0.45703125 0.88964844
vn 0.0030441284 -0.45703125 0.88964844
vn -0 -1 -1.9669533E-06
vn -0 -1 -1.9669533E-06
vn -0 -1 -1.9669533E-06
vn -0 -1 -1.9073486E-06
vn -0 1 6.556511E-07
vn -0 1 6.556511E-07
vn -0 1 6.556511E-07
vn -0 1 6.556511E-07
g B003_BB03_0
f 3/3/3 2/2/2 1/1/1
f 6/6/6 5/5/5 4/4/4
f 9/9/9 8/8/8 7/7/7
f 12/12/12 11/11/11 10/10/10
f 15/15/15 14/14/14 13/13/13
f 18/18/18 17/17/17 16/16/16
f 21/21/21 20/20/20 19/19/19
f 24/24/24 23/23/23 22/22/22
f 27/27/27 26/26/26 25/25/25
f 30/30/30 29/29/29 28/28/28
f 33/33/33 32/32/32 31/31/31
f 36/36/36 35/35/35 34/34/34
f 39/39/39 38/38/38 37/37/37
f 38/38/38 39/39/39 40/40/40
f 43/43/43 42/42/42 41/41/41
f 42/42/42 43/43/43 44/44/44
f 47/47/47 46/46/46 45/45/45
f 46/46/46 47/47/47 48/48/48
f 51/51/51 50/50/50 49/49/49
f 50/50/50 51/51/51 52/52/52
f 55/55/55 54/54/54 53/53/53
f 54/54/54 55/55/55 56/56/56
f 59/59/59 58/58/58 57/57/57
f 58/58/58 59/59/59 60/60/60
f 63/63/63 62/62/62 61/61/61
f 62/62/62 63/63/63 64/64/64
f 67/67/67 66/66/66 65/65/65
f 66/66/66 67/67/67 68/68/68
g B003_BB03_1
f 71/71/71 70/70/70 69/69/69
f 74/74/74 73/73/73 72/72/72
f 77/77/77 76/76/76 75/75/75
f 80/80/80 79/79/79 78/78/78
f 83/83/83 82/82/82 81/81/81
f 86/86/86 85/85/85 84/84/84
f 89/89/89 88/88/88 87/87/87
f 88/88/88 89/89/89 90/90/90
f 93/93/93 92/92/92 91/91/91
f 92/92/92 93/93/93 94/94/94
f 97/97/97 96/96/96 95/95/95
f 96/96/96 97/97/97 98/98/98
f 101/101/101 100/100/100 99/99/99
f 100/100/100 101/101/101 102/102/102
f 105/105/105 104/104/104 103/103/103
f 104/104/104 105/105/105 106/106/106
f 109/109/109 108/108/108 107/107/107
f 108/108/108 109/109/109 110/110/110
f 113/113/113 112/112/112 111/111/111
f 112/112/112 113/113/113 114/114/114
f 117/117/117 116/116/116 115/115/115
f 116/116/116 117/117/117 118/118/118
f 121/121/121 120/120/120 119/119/119
f 120/120/120 121/121/121 122/122/122
f 125/125/125 124/124/124 123/123/123
f 124/124/124 125/125/125 126/126/126
f 129/129/129 128/128/128 127/127/127
f 128/128/128 129/129/129 130/130/130
g B003_BB03_2
f 133/133/133 132/132/132 131/131/131
f 132/132/132 133/133/133 134/134/134
g B003_BB03_3
f 137/137/137 136/136/136 135/135/135
f 136/136/136 137/137/137 138/138/138
