g B004_B001
v 5.795 2.0743139 5.4021044
v 5.8038306 13.471586 5.38537
v 6.0646424 2.072423 5.202341
v 6.073484 13.468381 5.185598
v 6.0646424 2.072423 5.202341
v 5.8038306 13.471586 5.38537
v 6.0646424 2.072423 5.202341
v 5.829756 1.9577392 5.1702914
v 5.795 2.0743139 5.4021044
v -4.568591 2.07141 3.339407
v -4.368806 2.0736792 3.6090426
v -4.334048 1.9571081 3.3772204
v 6.8123593 2.0415795 -0.9332129
v 6.777251 1.929165 -0.6956384
v 7.012131 2.0438464 -0.6635974
v -3.3514612 2.0409522 -2.7262683
v -3.6210997 2.042832 -2.5265088
v -3.386569 1.9285302 -2.4886975
v 5.080772 -1.4713775 7.957091
v 5.0488286 2.225474 7.9043994
v 5.312986 -1.4715075 7.7824173
v 5.281048 2.225346 7.7297297
v 5.312986 -1.4715075 7.7824173
v 5.0488286 2.225474 7.9043994
v 5.3297467 2.1597955 -0.05839966
v 5.3640714 -1.5373559 -0.022598876
v 5.504386 2.1666992 0.17377318
v 5.538708 -1.5304517 0.20957153
v 5.504386 2.1666992 0.17377318
v 5.3640714 -1.5373559 -0.022598876
v 5.312986 -1.4715075 7.7824173
v 5.1109467 -1.6560693 7.7564855
v 5.080772 -1.4713775 7.957091
v -2.224032 -1.5146099 7.957026
v -2.049386 -1.5077069 8.189215
v -2.0192091 -1.6923987 7.9886084
v 5.3640714 -1.5373559 -0.022598876
v 5.3366804 -1.7150085 0.18364623
v 5.538708 -1.5304517 0.20957153
v -1.9345455 -1.5736828 -0.028258055
v -2.166762 -1.5735552 0.14640747
v -1.961943 -1.7513415 0.17798217
v 4.818502 -0.608789 7.2679553
v 4.819403 5.546715 7.2357287
v 5.1526136 -0.6087866 6.892103
v 5.153512 5.546716 6.8598804
v 5.1526136 -0.6087866 6.892103
v 4.819403 5.546715 7.2357287
v 4.7940574 5.546732 -6.019652
v 4.794049 -0.6087707 -6.019673
v 5.1068234 5.546732 -5.6181784
v 5.106826 -0.6087732 -5.6181955
v 5.1068234 5.546732 -5.6181784
v 4.794049 -0.6087707 -6.019673
v -5.4756384 3.8283894 1.4901477
v -5.19743 3.82839 1.8029187
v -5.213385 3.4975119 1.4725293
v 2.9351714 3.828392 1.0152539
v 2.6728954 3.4975142 1.0328833
v 2.6888354 3.828395 1.3632703
v -5.545106 3.8284085 -3.9450402
v -5.7914047 3.8284097 -3.5970323
v -5.5291405 3.497532 -3.6146557
v 2.3411865 3.8284094 -4.384691
v 2.357143 3.4975345 -4.0543113
v 2.6193993 3.8284101 -4.0719237
v -5.19743 3.82839 1.8029187
v -5.4756384 3.8283894 1.4901477
v -5.1987753 9.261319 1.7755108
v -5.4769897 9.26132 1.4627453
v -5.1987753 9.261319 1.7755108
v -5.4756384 3.8283894 1.4901477
v 2.6194 9.261331 -4.071925
v 2.2587793 9.261331 -4.376571
v 2.6193993 3.8284101 -4.0719237
v 2.3411865 3.8284094 -4.384691
v 2.6193993 3.8284101 -4.0719237
v 2.2587793 9.261331 -4.376571
v 6.4974523 -9.247216 8.224279
v 6.4668565 0.552998 8.154792
v 6.8091073 -9.247377 8.048019
v 6.778517 0.55283815 7.978538
v 6.8091073 -9.247377 8.048019
v 6.4668565 0.552998 8.154792
v 6.8091073 -9.247377 8.048019
v 6.5664096 -9.474794 7.984013
v 6.4974523 -9.247216 8.224279
v 0.7987616 -9.30049 7.860893
v 0.97499204 -9.291985 8.172514
v 1.0439551 -9.519563 7.9322476
v 8.120215 -9.328518 -1.4797418
v 8.053751 -9.547421 -1.2321392
v 8.296436 -9.320009 -1.1681427
v 2.4299805 -9.3732815 -1.8489734
v 2.1183202 -9.373125 -1.6727233
v 2.3635106 -9.592192 -1.6013763
v -6.3589025 5.668663 6.3773546
v -6.0806947 5.668663 6.6901255
v -6.096649 5.337785 6.359736
v 4.765069 5.6686654 6.052283
v 4.5027933 5.3377867 6.069912
v 4.518733 5.6686683 6.4002995
v -6.42837 5.668682 0.94216675
v -6.6746693 5.6686835 1.2901745
v -6.4124045 5.3378057 1.2725513
v 4.1710844 5.6686826 0.65233827
v 4.187041 5.337808 0.9827179
v 4.449297 5.668684 0.9651056
v -6.0806947 5.668663 6.6901255
v -6.3589025 5.668663 6.3773546
v -6.08204 11.101593 6.662718
v -6.360254 11.101594 6.349952
v -6.08204 11.101593 6.662718
v -6.3589025 5.668663 6.3773546
v 4.449298 11.1016035 0.96510375
v 4.088677 11.1016035 0.6604584
v 4.449297 5.668684 0.9651056
v 4.1710844 5.6686826 0.65233827
v 4.449297 5.668684 0.9651056
v 4.088677 11.1016035 0.6604584
v 5.8038306 13.471586 5.38537
v 5.795 2.0743139 5.4021044
v -4.3640895 13.470504 3.557229
v -4.368806 2.0736792 3.6090426
v -4.563856 13.46665 3.2875938
v -4.568591 2.07141 3.339407
v -3.6192749 13.418305 -2.5588562
v -3.6210997 2.042832 -2.5265088
v -3.3496263 13.415096 -2.758613
v -3.3514612 2.0409522 -2.7262683
v 6.8182983 13.41617 -0.93046874
v 6.8123593 2.0415795 -0.9332129
v 7.0180664 13.420031 -0.6608484
v 7.012131 2.0438464 -0.6635974
v 6.073484 13.468381 5.185598
v 6.0646424 2.072423 5.202341
v -4.3640895 13.470504 3.557229
v -4.368806 2.0736792 3.6090426
v -4.563856 13.46665 3.2875938
v -4.568591 2.07141 3.339407
v -3.6192749 13.418305 -2.5588562
v -3.6210997 2.042832 -2.5265088
v -3.3496263 13.415096 -2.758613
v -3.3514612 2.0409522 -2.7262683
v 6.8182983 13.41617 -0.93046874
v 6.8123593 2.0415795 -0.9332129
v 7.0180664 13.420031 -0.6608484
v 7.012131 2.0438464 -0.6635974
v 6.777251 1.929165 -0.6956384
v 5.829756 1.9577392 5.1702914
v 7.012131 2.0438464 -0.6635974
v 6.0646424 2.072423 5.202341
v -3.386569 1.9285302 -2.4886975
v 6.777251 1.929165 -0.6956384
v -3.3514612 2.0409522 -2.7262683
v 6.8123593 2.0415795 -0.9332129
v -4.334048 1.9571081 3.3772204
v -3.386569 1.9285302 -2.4886975
v -4.568591 2.07141 3.339407
v -3.6210997 2.042832 -2.5265088
v 5.829756 1.9577392 5.1702914
v -4.334048 1.9571081 3.3772204
v 5.795 2.0743139 5.4021044
v -4.368806 2.0736792 3.6090426
v 5.0488286 2.225474 7.9043994
v 5.080772 -1.4713775 7.957091
v -2.0813434 2.1891327 8.136533
v -2.049386 -1.5077069 8.189215
v -2.2559783 2.1822393 7.9043527
v -2.224032 -1.5146099 7.957026
v -2.2010992 2.1235943 0.11060058
v -2.166762 -1.5735552 0.14640747
v -1.9688818 2.1234605 -0.06406982
v -1.9345455 -1.5736828 -0.028258055
v 5.3297467 2.1597955 -0.05839966
v 5.3640714 -1.5373559 -0.022598876
v 5.504386 2.1666992 0.17377318
v 5.538708 -1.5304517 0.20957153
v 5.281048 2.225346 7.7297297
v 5.312986 -1.4715075 7.7824173
v -2.0813434 2.1891327 8.136533
v -2.049386 -1.5077069 8.189215
v -2.2559783 2.1822393 7.9043527
v -2.224032 -1.5146099 7.957026
v -2.2010992 2.1235943 0.11060058
v -2.166762 -1.5735552 0.14640747
v -1.9688818 2.1234605 -0.06406982
v -1.9345455 -1.5736828 -0.028258055
v 5.3366804 -1.7150085 0.18364623
v 5.1109467 -1.6560693 7.7564855
v 5.538708 -1.5304517 0.20957153
v 5.312986 -1.4715075 7.7824173
v -1.961943 -1.7513415 0.17798217
v 5.3366804 -1.7150085 0.18364623
v -1.9345455 -1.5736828 -0.028258055
v 5.3640714 -1.5373559 -0.022598876
v -2.0192091 -1.6923987 7.9886084
v -1.961943 -1.7513415 0.17798217
v -2.224032 -1.5146099 7.957026
v -2.166762 -1.5735552 0.14640747
v 5.1109467 -1.6560693 7.7564855
v -2.0192091 -1.6923987 7.9886084
v 5.080772 -1.4713775 7.957091
v -2.049386 -1.5077069 8.189215
v 4.819403 5.546715 7.2357287
v 4.818502 -0.608789 7.2679553
v -0.25931823 5.546715 7.2626414
v -0.26019347 -0.6087939 7.294862
v -0.5720801 5.546715 6.861156
v -0.5729675 -0.6087915 6.8933764
v -0.25905028 5.5467296 -5.420122
v -0.25905028 -0.60878295 -5.420139
v 0.07506286 5.546732 -5.7959533
v 0.07505798 -0.60878295 -5.795974
v 4.7940574 5.546732 -6.019652
v 4.794049 -0.6087707 -6.019673
v 5.1068234 5.546732 -5.6181784
v 5.106826 -0.6087732 -5.6181955
v 5.153512 5.546716 6.8598804
v 5.1526136 -0.6087866 6.892103
v -0.25931823 5.546715 7.2626414
v -0.26019347 -0.6087939 7.294862
v -0.5720801 5.546715 6.861156
v -0.5729675 -0.6087915 6.8933764
v -0.25905028 5.5467296 -5.420122
v -0.25905028 -0.60878295 -5.420139
v 0.07506286 5.546732 -5.7959533
v 0.07505798 -0.60878295 -5.795974
v -5.5291405 3.497532 -3.6146557
v -5.7914047 3.8284097 -3.5970323
v -5.213385 3.4975119 1.4725293
v -5.4756384 3.8283894 1.4901477
v 2.357143 3.4975345 -4.0543113
v 2.3411865 3.8284094 -4.384691
v -5.5291405 3.497532 -3.6146557
v -5.545106 3.8284085 -3.9450402
v 2.6728954 3.4975142 1.0328833
v 2.9351714 3.828392 1.0152539
v 2.357143 3.4975345 -4.0543113
v 2.6193993 3.8284101 -4.0719237
v -5.213385 3.4975119 1.4725293
v -5.19743 3.82839 1.8029187
v 2.6728954 3.4975142 1.0328833
v 2.6888354 3.828395 1.3632703
v -5.1987753 9.261319 1.7755108
v 2.6875415 9.261326 1.3358612
v -5.19743 3.82839 1.8029187
v 2.6888354 3.828395 1.3632703
v 2.9338164 9.261319 0.9878461
v 2.6194 9.261331 -4.071925
v 2.9351714 3.828392 1.0152539
v 2.6193993 3.8284101 -4.0719237
v 2.2587793 9.261331 -4.376571
v -5.545106 9.261331 -3.9450402
v 2.3411865 3.8284094 -4.384691
v -5.545106 3.8284085 -3.9450402
v -5.7914047 9.261331 -3.597031
v -5.4769897 9.26132 1.4627453
v -5.7914047 3.8284097 -3.5970323
v -5.4756384 3.8283894 1.4901477
v 2.6875415 9.261326 1.3358612
v 2.9338164 9.261319 0.9878461
v 2.6888354 3.828395 1.3632703
v 2.9351714 3.828392 1.0152539
v -5.545106 9.261331 -3.9450402
v -5.7914047 9.261331 -3.597031
v -5.545106 3.8284085 -3.9450402
v -5.7914047 3.8284097 -3.5970323
v 6.4668565 0.552998 8.154792
v 6.4974523 -9.247216 8.224279
v 0.9443756 0.50821775 8.103038
v 0.97499204 -9.291985 8.172514
v 0.7681567 0.49972412 7.791429
v 0.7987616 -9.30049 7.860893
v 2.082097 0.4274585 -1.7219616
v 2.1183202 -9.373125 -1.6727233
v 2.3937573 0.42729247 -1.8982177
v 2.4299805 -9.3732815 -1.8489734
v 8.0840025 0.47206542 -1.528971
v 8.120215 -9.328518 -1.4797418
v 8.26023 0.48057127 -1.2173706
v 8.296436 -9.320009 -1.1681427
v 6.778517 0.55283815 7.978538
v 6.8091073 -9.247377 8.048019
v 0.9443756 0.50821775 8.103038
v 0.97499204 -9.291985 8.172514
v 0.7681567 0.49972412 7.791429
v 0.7987616 -9.30049 7.860893
v 2.082097 0.4274585 -1.7219616
v 2.1183202 -9.373125 -1.6727233
v 2.3937573 0.42729247 -1.8982177
v 2.4299805 -9.3732815 -1.8489734
v 8.0840025 0.47206542 -1.528971
v 8.120215 -9.328518 -1.4797418
v 8.26023 0.48057127 -1.2173706
v 8.296436 -9.320009 -1.1681427
v 8.053751 -9.547421 -1.2321392
v 6.5664096 -9.474794 7.984013
v 8.296436 -9.320009 -1.1681427
v 6.8091073 -9.247377 8.048019
v 2.3635106 -9.592192 -1.6013763
v 8.053751 -9.547421 -1.2321392
v 2.4299805 -9.3732815 -1.8489734
v 8.120215 -9.328518 -1.4797418
v 1.0439551 -9.519563 7.9322476
v 2.3635106 -9.592192 -1.6013763
v 0.7987616 -9.30049 7.860893
v 2.1183202 -9.373125 -1.6727233
v 6.5664096 -9.474794 7.984013
v 1.0439551 -9.519563 7.9322476
v 6.4974523 -9.247216 8.224279
v 0.97499204 -9.291985 8.172514
v -6.4124045 5.3378057 1.2725513
v -6.6746693 5.6686835 1.2901745
v -6.096649 5.337785 6.359736
v -6.3589025 5.668663 6.3773546
v 4.187041 5.337808 0.9827179
v 4.1710844 5.6686826 0.65233827
v -6.4124045 5.3378057 1.2725513
v -6.42837 5.668682 0.94216675
v 4.5027933 5.3377867 6.069912
v 4.765069 5.6686654 6.052283
v 4.187041 5.337808 0.9827179
v 4.449297 5.668684 0.9651056
v -6.096649 5.337785 6.359736
v -6.0806947 5.668663 6.6901255
v 4.5027933 5.3377867 6.069912
v 4.518733 5.6686683 6.4002995
v -6.08204 11.101593 6.662718
v 4.5174394 11.101599 6.3728905
v -6.0806947 5.668663 6.6901255
v 4.518733 5.6686683 6.4002995
v 4.7637143 11.101593 6.024875
v 4.449298 11.1016035 0.96510375
v 4.765069 5.6686654 6.052283
v 4.449297 5.668684 0.9651056
v 4.088677 11.1016035 0.6604584
v -6.42837 11.1016035 0.9421661
v 4.1710844 5.6686826 0.65233827
v -6.42837 5.668682 0.94216675
v -6.6746693 11.1016035 1.2901752
v -6.360254 11.101594 6.349952
v -6.6746693 5.6686835 1.2901745
v -6.3589025 5.668663 6.3773546
v 4.5174394 11.101599 6.3728905
v 4.7637143 11.101593 6.024875
v 4.518733 5.6686683 6.4002995
v 4.765069 5.6686654 6.052283
v -6.42837 11.1016035 0.9421661
v -6.6746693 11.1016035 1.2901752
v -6.42837 5.668682 0.94216675
v -6.6746693 5.6686835 1.2901745
v 5.1526136 -0.6087866 6.892103
v 4.829154 -0.9324072 6.8792834
v 4.818502 -0.608789 7.2679553
v -0.5729675 -0.6087915 6.8933764
v -0.26019347 -0.6087939 7.294862
v -0.24952392 -0.9324121 6.906207
v 4.794049 -0.6087707 -6.019673
v 4.7833776 -0.9323938 -5.6310253
v 5.106826 -0.6087732 -5.6181955
v 0.07505798 -0.60878295 -5.795974
v -0.25905028 -0.60878295 -5.420139
v 0.06437988 -0.9323987 -5.4073215
v 0.06437988 -0.9323987 -5.4073215
v 4.7833776 -0.9323938 -5.6310253
v 0.07505798 -0.60878295 -5.795974
v 4.794049 -0.6087707 -6.019673
v 0.07505798 -0.60878295 -5.795974
v 4.7833776 -0.9323938 -5.6310253
v 4.829154 -0.9324072 6.8792834
v -0.24952392 -0.9324121 6.906207
v 4.818502 -0.608789 7.2679553
v -0.26019347 -0.6087939 7.294862
v 4.818502 -0.608789 7.2679553
v -0.24952392 -0.9324121 6.906207
v -4.334048 1.9571081 3.3772204
v 5.829756 1.9577392 5.1702914
v -3.386569 1.9285302 -2.4886975
v 6.777251 1.929165 -0.6956384
v -2.0192091 -1.6923987 7.9886084
v 5.1109467 -1.6560693 7.7564855
v -1.961943 -1.7513415 0.17798217
v 5.3366804 -1.7150085 0.18364623
v -0.24952392 -0.9324121 6.906207
v 4.829154 -0.9324072 6.8792834
v 0.06437988 -0.9323987 -5.4073215
v 4.7833776 -0.9323938 -5.6310253
v 4.7833776 -0.9323938 -5.6310253
v 4.829154 -0.9324072 6.8792834
v 5.106826 -0.6087732 -5.6181955
v 5.1526136 -0.6087866 6.892103
v -0.24952392 -0.9324121 6.906207
v 0.06437988 -0.9323987 -5.4073215
v -0.5729675 -0.6087915 6.8933764
v -0.25905028 -0.60878295 -5.420139
v 2.6728954 3.4975142 1.0328833
v 2.357143 3.4975345 -4.0543113
v -5.213385 3.4975119 1.4725293
v -5.5291405 3.497532 -3.6146557
v 1.0439551 -9.519563 7.9322476
v 6.5664096 -9.474794 7.984013
v 2.3635106 -9.592192 -1.6013763
v 8.053751 -9.547421 -1.2321392
v 4.5027933 5.3377867 6.069912
v 4.187041 5.337808 0.9827179
v -6.096649 5.337785 6.359736
v -6.4124045 5.3378057 1.2725513
v 5.808489 13.81361 4.9812694
v 5.956238 13.771154 5.1660447
v 5.8214254 13.792337 5.265931
v -4.2695637 13.858077 3.161809
v -4.3465075 13.784639 3.4377813
v -4.446396 13.744054 3.3029778
v 6.7240906 13.848412 -0.54080564
v 6.8009396 13.714767 -0.8152136
v 6.9008336 13.755354 -0.68040526
v -3.3539593 13.848189 -2.3602722
v -3.5017924 13.735775 -2.543479
v -3.3669739 13.714584 -2.6433532
v 5.8038306 13.471586 5.38537
v 5.8214254 13.792337 5.265931
v 6.073484 13.468381 5.185598
v 5.956238 13.771154 5.1660447
v 6.073484 13.468381 5.185598
v 5.8214254 13.792337 5.265931
v -4.563856 13.46665 3.2875938
v -4.446396 13.744054 3.3029778
v -4.3640895 13.470504 3.557229
v -4.3465075 13.784639 3.4377813
v -4.3640895 13.470504 3.557229
v -4.446396 13.744054 3.3029778
v 7.0180664 13.420031 -0.6608484
v 6.9008336 13.755354 -0.68040526
v 6.8182983 13.41617 -0.93046874
v 6.8009396 13.714767 -0.8152136
v 6.8182983 13.41617 -0.93046874
v 6.9008336 13.755354 -0.68040526
v -3.3496263 13.415096 -2.758613
v -3.3669739 13.714584 -2.6433532
v -3.6192749 13.418305 -2.5588562
v -3.5017924 13.735775 -2.543479
v -3.6192749 13.418305 -2.5588562
v -3.3669739 13.714584 -2.6433532
v -4.3465075 13.784639 3.4377813
v -4.2695637 13.858077 3.161809
v 5.8214254 13.792337 5.265931
v 5.808489 13.81361 4.9812694
v 5.8214254 13.792337 5.265931
v -4.2695637 13.858077 3.161809
v -3.5017924 13.735775 -2.543479
v -3.3539593 13.848189 -2.3602722
v -4.446396 13.744054 3.3029778
v -4.2695637 13.858077 3.161809
v -4.446396 13.744054 3.3029778
v -3.3539593 13.848189 -2.3602722
v 5.956238 13.771154 5.1660447
v 5.808489 13.81361 4.9812694
v 6.7240906 13.848412 -0.54080564
v 5.956238 13.771154 5.1660447
v 6.7240906 13.848412 -0.54080564
v 6.9008336 13.755354 -0.68040526
v 5.2151647 2.6519482 7.7914915
v 5.1751237 2.7346458 7.712605
v 5.059021 2.7347088 7.7999425
v -2.0055978 2.6168249 7.792777
v -2.0691774 2.463819 8.032492
v -2.156504 2.4603772 7.9164157
v 5.2469883 2.5959418 0.2787842
v 5.3131123 2.4380028 0.040987547
v 5.400441 2.4414496 0.15707764
v -1.9737786 2.5608172 0.28005248
v -2.1016107 2.4017327 0.12265869
v -1.9855081 2.4016685 0.035324708
v -2.0691774 2.463819 8.032492
v -2.0055978 2.6168249 7.792777
v 5.059021 2.7347088 7.7999425
v 5.2151647 2.6519482 7.7914915
v 5.059021 2.7347088 7.7999425
v -2.0055978 2.6168249 7.792777
v -2.1016107 2.4017327 0.12265869
v -1.9737786 2.5608172 0.28005248
v -2.156504 2.4603772 7.9164157
v -2.0055978 2.6168249 7.792777
v -2.156504 2.4603772 7.9164157
v -1.9737786 2.5608172 0.28005248
v 5.1751237 2.7346458 7.712605
v 5.2151647 2.6519482 7.7914915
v 5.400441 2.4414496 0.15707764
v 5.2469883 2.5959418 0.2787842
v 5.400441 2.4414496 0.15707764
v 5.2151647 2.6519482 7.7914915
v -2.0813434 2.1891327 8.136533
v -2.0691774 2.463819 8.032492
v 5.0488286 2.225474 7.9043994
v 5.059021 2.7347088 7.7999425
v 5.0488286 2.225474 7.9043994
v -2.0691774 2.463819 8.032492
v 5.281048 2.225346 7.7297297
v 5.1751237 2.7346458 7.712605
v 5.504386 2.1666992 0.17377318
v 5.400441 2.4414496 0.15707764
v 5.504386 2.1666992 0.17377318
v 5.1751237 2.7346458 7.712605
v 4.6408396 6.014574 6.4491696
v 4.9917808 5.7871203 6.8534665
v 4.82473 5.787118 7.041384
v -0.03940857 6.014568 6.491881
v -0.253974 5.787114 7.0683093
v -0.41036376 5.787114 6.867574
v 4.574153 6.0145855 -5.2489
v 4.788722 5.787132 -5.8253245
v 4.945112 5.7871313 -5.6245885
v 0.25359863 6.014586 -5.009409
v -0.09733459 5.787129 -5.413716
v 0.069727175 5.7871313 -5.601632
v -5.214731 9.592186 1.4451239
v -5.2067404 9.501868 1.610313
v -5.3458533 9.501881 1.4539337
v 2.6715503 9.592186 1.0054748
v 2.8026874 9.501868 0.99666566
v 2.6795514 9.501868 1.1706647
v -5.5291405 9.592194 -3.6146545
v -5.660287 9.501876 -3.6058435
v -5.537141 9.501877 -3.7798474
v 2.3571422 9.592194 -4.0543103
v 2.3491516 9.501877 -4.2194996
v 2.4882774 9.501877 -4.0631127
v 2.2587793 9.261331 -4.376571
v 2.6194 9.261331 -4.071925
v 2.3491516 9.501877 -4.2194996
v 2.4882774 9.501877 -4.0631127
v 2.3491516 9.501877 -4.2194996
v 2.6194 9.261331 -4.071925
v -5.545106 9.261331 -3.9450402
v 2.2587793 9.261331 -4.376571
v -5.537141 9.501877 -3.7798474
v 2.3491516 9.501877 -4.2194996
v -5.537141 9.501877 -3.7798474
v 2.2587793 9.261331 -4.376571
v 6.688141 1.0784961 8.043457
v 6.651842 1.1803967 7.9406686
v 6.4960165 1.1804736 8.028801
v 1.0919147 1.0352197 7.6951656
v 0.9758844 0.8466846 7.9778705
v 0.887763 0.8424451 7.8220806
v 7.928949 1.0094824 -1.1302527
v 8.047782 0.8148706 -1.4102038
v 8.135904 0.8191162 -1.2543981
v 2.332721 0.9662036 -1.4785644
v 2.20172 0.77018064 -1.6913122
v 2.357544 0.77010006 -1.7794409
v 0.9758844 0.8466846 7.9778705
v 1.0919147 1.0352197 7.6951656
v 6.4960165 1.1804736 8.028801
v 6.688141 1.0784961 8.043457
v 6.4960165 1.1804736 8.028801
v 1.0919147 1.0352197 7.6951656
v 2.20172 0.77018064 -1.6913122
v 2.332721 0.9662036 -1.4785644
v 0.887763 0.8424451 7.8220806
v 1.0919147 1.0352197 7.6951656
v 0.887763 0.8424451 7.8220806
v 2.332721 0.9662036 -1.4785644
v 6.651842 1.1803967 7.9406686
v 6.688141 1.0784961 8.043457
v 8.135904 0.8191162 -1.2543981
v 7.928949 1.0094824 -1.1302527
v 8.135904 0.8191162 -1.2543981
v 6.688141 1.0784961 8.043457
v 0.9443756 0.50821775 8.103038
v 0.9758844 0.8466846 7.9778705
v 6.4668565 0.552998 8.154792
v 6.4960165 1.1804736 8.028801
v 6.4668565 0.552998 8.154792
v 0.9758844 0.8466846 7.9778705
v 6.778517 0.55283815 7.978538
v 6.651842 1.1803967 7.9406686
v 8.26023 0.48057127 -1.2173706
v 8.135904 0.8191162 -1.2543981
v 8.26023 0.48057127 -1.2173706
v 6.651842 1.1803967 7.9406686
v -6.0979953 11.43246 6.3323307
v -6.090005 11.342142 6.49752
v -6.2291174 11.3421545 6.3411407
v 4.501448 11.43246 6.0425043
v 4.632585 11.342142 6.0336947
v 4.509449 11.342142 6.207694
v -6.4124045 11.4324665 1.2725519
v -6.543551 11.34215 1.2813629
v -6.420405 11.342151 1.1073589
v 4.18704 11.432468 0.98271847
v 4.1790495 11.342151 0.81752926
v 4.3181753 11.342151 0.973916
v 4.088677 11.1016035 0.6604584
v 4.449298 11.1016035 0.96510375
v 4.1790495 11.342151 0.81752926
v 4.3181753 11.342151 0.973916
v 4.1790495 11.342151 0.81752926
v 4.449298 11.1016035 0.96510375
v -6.42837 11.1016035 0.9421661
v 4.088677 11.1016035 0.6604584
v -6.420405 11.342151 1.1073589
v 4.1790495 11.342151 0.81752926
v -6.420405 11.342151 1.1073589
v 4.088677 11.1016035 0.6604584
v 6.8009396 13.714767 -0.8152136
v 6.7240906 13.848412 -0.54080564
v -3.3669739 13.714584 -2.6433532
v -3.3539593 13.848189 -2.3602722
v -4.3640895 13.470504 3.557229
v -4.3465075 13.784639 3.4377813
v 5.8038306 13.471586 5.38537
v 5.8214254 13.792337 5.265931
v -3.6192749 13.418305 -2.5588562
v -3.5017924 13.735775 -2.543479
v -4.563856 13.46665 3.2875938
v -4.446396 13.744054 3.3029778
v 6.8182983 13.41617 -0.93046874
v 6.8009396 13.714767 -0.8152136
v -3.3496263 13.415096 -2.758613
v -3.3669739 13.714584 -2.6433532
v 6.073484 13.468381 5.185598
v 5.956238 13.771154 5.1660447
v 7.0180664 13.420031 -0.6608484
v 6.9008336 13.755354 -0.68040526
v 5.0488286 2.225474 7.9043994
v 5.059021 2.7347088 7.7999425
v 5.281048 2.225346 7.7297297
v 5.1751237 2.7346458 7.712605
v -2.2559783 2.1822393 7.9043527
v -2.156504 2.4603772 7.9164157
v -2.0813434 2.1891327 8.136533
v -2.0691774 2.463819 8.032492
v 5.504386 2.1666992 0.17377318
v 5.400441 2.4414496 0.15707764
v 5.3297467 2.1597955 -0.05839966
v 5.3131123 2.4380028 0.040987547
v -1.9688818 2.1234605 -0.06406982
v -1.9855081 2.4016685 0.035324708
v -2.2010992 2.1235943 0.11060058
v -2.1016107 2.4017327 0.12265869
v 5.3131123 2.4380028 0.040987547
v 5.2469883 2.5959418 0.2787842
v -1.9855081 2.4016685 0.035324708
v -1.9737786 2.5608172 0.28005248
v -2.2010992 2.1235943 0.11060058
v -2.1016107 2.4017327 0.12265869
v -2.2559783 2.1822393 7.9043527
v -2.156504 2.4603772 7.9164157
v 5.3297467 2.1597955 -0.05839966
v 5.3131123 2.4380028 0.040987547
v -1.9688818 2.1234605 -0.06406982
v -1.9855081 2.4016685 0.035324708
v 4.819403 5.546715 7.2357287
v 4.82473 5.787118 7.041384
v 5.153512 5.546716 6.8598804
v 4.9917808 5.7871203 6.8534665
v -0.5720801 5.546715 6.861156
v -0.41036376 5.787114 6.867574
v -0.25931823 5.546715 7.2626414
v -0.253974 5.787114 7.0683093
v 5.1068234 5.546732 -5.6181784
v 4.945112 5.7871313 -5.6245885
v 4.7940574 5.546732 -6.019652
v 4.788722 5.787132 -5.8253245
v 0.07506286 5.546732 -5.7959533
v 0.069727175 5.7871313 -5.601632
v -0.25905028 5.5467296 -5.420122
v -0.09733459 5.787129 -5.413716
v -0.253974 5.787114 7.0683093
v -0.03940857 6.014568 6.491881
v 4.82473 5.787118 7.041384
v 4.6408396 6.014574 6.4491696
v -0.09733459 5.787129 -5.413716
v 0.25359863 6.014586 -5.009409
v -0.41036376 5.787114 6.867574
v -0.03940857 6.014568 6.491881
v 4.788722 5.787132 -5.8253245
v 4.574153 6.0145855 -5.2489
v 0.069727175 5.7871313 -5.601632
v 0.25359863 6.014586 -5.009409
v 4.9917808 5.7871203 6.8534665
v 4.6408396 6.014574 6.4491696
v 4.945112 5.7871313 -5.6245885
v 4.574153 6.0145855 -5.2489
v -0.25931823 5.546715 7.2626414
v -0.253974 5.787114 7.0683093
v 4.819403 5.546715 7.2357287
v 4.82473 5.787118 7.041384
v -0.25905028 5.5467296 -5.420122
v -0.09733459 5.787129 -5.413716
v -0.5720801 5.546715 6.861156
v -0.41036376 5.787114 6.867574
v 4.7940574 5.546732 -6.019652
v 4.788722 5.787132 -5.8253245
v 0.07506286 5.546732 -5.7959533
v 0.069727175 5.7871313 -5.601632
v 5.153512 5.546716 6.8598804
v 4.9917808 5.7871203 6.8534665
v 5.1068234 5.546732 -5.6181784
v 4.945112 5.7871313 -5.6245885
v 2.6795514 9.501868 1.1706647
v -5.2067404 9.501868 1.610313
v 2.6715503 9.592186 1.0054748
v -5.214731 9.592186 1.4451239
v 2.4882774 9.501877 -4.0631127
v 2.8026874 9.501868 0.99666566
v 2.3571422 9.592194 -4.0543103
v 2.6715503 9.592186 1.0054748
v -5.537141 9.501877 -3.7798474
v 2.3491516 9.501877 -4.2194996
v -5.5291405 9.592194 -3.6146545
v 2.3571422 9.592194 -4.0543103
v -5.3458533 9.501881 1.4539337
v -5.660287 9.501876 -3.6058435
v -5.214731 9.592186 1.4451239
v -5.5291405 9.592194 -3.6146545
v -5.1987753 9.261319 1.7755108
v -5.4769897 9.26132 1.4627453
v -5.2067404 9.501868 1.610313
v -5.3458533 9.501881 1.4539337
v 2.9338164 9.261319 0.9878461
v 2.6875415 9.261326 1.3358612
v 2.8026874 9.501868 0.99666566
v 2.6795514 9.501868 1.1706647
v -5.7914047 9.261331 -3.597031
v -5.545106 9.261331 -3.9450402
v -5.660287 9.501876 -3.6058435
v -5.537141 9.501877 -3.7798474
v 2.6875415 9.261326 1.3358612
v -5.1987753 9.261319 1.7755108
v 2.6795514 9.501868 1.1706647
v -5.2067404 9.501868 1.610313
v 2.6194 9.261331 -4.071925
v 2.9338164 9.261319 0.9878461
v 2.4882774 9.501877 -4.0631127
v 2.8026874 9.501868 0.99666566
v -5.4769897 9.26132 1.4627453
v -5.7914047 9.261331 -3.597031
v -5.3458533 9.501881 1.4539337
v -5.660287 9.501876 -3.6058435
v 6.4668565 0.552998 8.154792
v 6.4960165 1.1804736 8.028801
v 6.778517 0.55283815 7.978538
v 6.651842 1.1803967 7.9406686
v 0.7681567 0.49972412 7.791429
v 0.887763 0.8424451 7.8220806
v 0.9443756 0.50821775 8.103038
v 0.9758844 0.8466846 7.9778705
v 8.26023 0.48057127 -1.2173706
v 8.135904 0.8191162 -1.2543981
v 8.0840025 0.47206542 -1.528971
v 8.047782 0.8148706 -1.4102038
v 2.3937573 0.42729247 -1.8982177
v 2.357544 0.77010006 -1.7794409
v 2.082097 0.4274585 -1.7219616
v 2.20172 0.77018064 -1.6913122
v 8.047782 0.8148706 -1.4102038
v 7.928949 1.0094824 -1.1302527
v 2.357544 0.77010006 -1.7794409
v 2.332721 0.9662036 -1.4785644
v 2.082097 0.4274585 -1.7219616
v 2.20172 0.77018064 -1.6913122
v 0.7681567 0.49972412 7.791429
v 0.887763 0.8424451 7.8220806
v 8.0840025 0.47206542 -1.528971
v 8.047782 0.8148706 -1.4102038
v 2.3937573 0.42729247 -1.8982177
v 2.357544 0.77010006 -1.7794409
v 4.509449 11.342142 6.207694
v -6.090005 11.342142 6.49752
v 4.501448 11.43246 6.0425043
v -6.0979953 11.43246 6.3323307
v 4.3181753 11.342151 0.973916
v 4.632585 11.342142 6.0336947
v 4.18704 11.432468 0.98271847
v 4.501448 11.43246 6.0425043
v -6.420405 11.342151 1.1073589
v 4.1790495 11.342151 0.81752926
v -6.4124045 11.4324665 1.2725519
v 4.18704 11.432468 0.98271847
v -6.2291174 11.3421545 6.3411407
v -6.543551 11.34215 1.2813629
v -6.0979953 11.43246 6.3323307
v -6.4124045 11.4324665 1.2725519
v -6.08204 11.101593 6.662718
v -6.360254 11.101594 6.349952
v -6.090005 11.342142 6.49752
v -6.2291174 11.3421545 6.3411407
v 4.7637143 11.101593 6.024875
v 4.5174394 11.101599 6.3728905
v 4.632585 11.342142 6.0336947
v 4.509449 11.342142 6.207694
v -6.6746693 11.1016035 1.2901752
v -6.42837 11.1016035 0.9421661
v -6.543551 11.34215 1.2813629
v -6.420405 11.342151 1.1073589
v 4.5174394 11.101599 6.3728905
v -6.08204 11.101593 6.662718
v 4.509449 11.342142 6.207694
v -6.090005 11.342142 6.49752
v 4.449298 11.1016035 0.96510375
v 4.7637143 11.101593 6.024875
v 4.3181753 11.342151 0.973916
v 4.632585 11.342142 6.0336947
v -6.360254 11.101594 6.349952
v -6.6746693 11.1016035 1.2901752
v -6.2291174 11.3421545 6.3411407
v -6.543551 11.34215 1.2813629
v 6.7240906 13.848412 -0.54080564
v 5.808489 13.81361 4.9812694
v -3.3539593 13.848189 -2.3602722
v -4.2695637 13.858077 3.161809
v 5.2469883 2.5959418 0.2787842
v 5.2151647 2.6519482 7.7914915
v -1.9737786 2.5608172 0.28005248
v -2.0055978 2.6168249 7.792777
v 4.574153 6.0145855 -5.2489
v 4.6408396 6.014574 6.4491696
v 0.25359863 6.014586 -5.009409
v -0.03940857 6.014568 6.491881
v -5.5291405 9.592194 -3.6146545
v 2.3571422 9.592194 -4.0543103
v -5.214731 9.592186 1.4451239
v 2.6715503 9.592186 1.0054748
v 7.928949 1.0094824 -1.1302527
v 6.688141 1.0784961 8.043457
v 2.332721 0.9662036 -1.4785644
v 1.0919147 1.0352197 7.6951656
v -6.4124045 11.4324665 1.2725519
v 4.18704 11.432468 0.98271847
v -6.0979953 11.43246 6.3323307
v 4.501448 11.43246 6.0425043
vt -6.8125 2.265625
vt -6.8164062 3.15625
vt -6.7890625 2.2714844
vt -6.7929688 3.1582031
vt -6.7890625 2.2714844
vt -6.8164062 3.15625
vt -6.7890625 2.2714844
vt -6.7929688 2.2519531
vt -6.8125 2.265625
vt -5.0351562 2.2773438
vt -5.015625 2.2773438
vt -5.0234375 2.2597656
vt -6.3085938 2.2695312
vt -6.3164062 2.2519531
vt -6.3320312 2.2695312
vt -5.5117188 2.2753906
vt -5.4921875 2.2753906
vt -5.5 2.2558594
vt -6.9765625 3.2128906
vt -6.9804688 3.5039062
vt -6.9570312 3.2167969
vt -6.9570312 3.5058594
vt -6.9570312 3.2167969
vt -6.9804688 3.5039062
vt -6.3554688 3.5
vt -6.3554688 3.2128906
vt -6.3710938 3.5019531
vt -6.3710938 3.2128906
vt -6.3710938 3.5019531
vt -6.3554688 3.2128906
vt -6.9570312 3.2167969
vt -6.9570312 3.1972656
vt -6.9765625 3.2128906
vt -5.1679688 3.2207031
vt -5.1523438 3.2207031
vt -5.1601562 3.2011719
vt -6.3554688 3.2128906
vt -6.359375 3.1933594
vt -6.3710938 3.2128906
vt -5.7890625 3.2148438
vt -5.7734375 3.2167969
vt -5.7773438 3.1953125
vt -6.765625 0.29101562
vt -6.765625 0.77441406
vt -6.7304688 0.29711914
vt -6.7304688 0.7758789
vt -6.7304688 0.29711914
vt -6.765625 0.77441406
vt -5.734375 0.7788086
vt -5.7304688 0.3005371
vt -5.765625 0.77734375
vt -5.7578125 0.29736328
vt -5.765625 0.77734375
vt -5.7304688 0.3005371
vt -4.8320312 -3.3710938
vt -4.8007812 -3.375
vt -4.8320312 -3.4023438
vt -6.2734375 -3.3652344
vt -6.2851562 -3.3984375
vt -6.296875 -3.3652344
vt -5.25 -3.3691406
vt -5.2265625 -3.3710938
vt -5.2421875 -3.4023438
vt -5.859375 -3.3652344
vt -5.875 -3.3984375
vt -5.8828125 -3.3652344
vt -4.8007812 -3.375
vt -4.8320312 -3.3710938
vt -4.8007812 -2.9492188
vt -4.8320312 -2.9492188
vt -4.8007812 -2.9492188
vt -4.8320312 -3.3710938
vt -5.8828125 -2.9433594
vt -5.8515625 -2.9433594
vt -5.8828125 -3.3652344
vt -5.859375 -3.3652344
vt -5.8828125 -3.3652344
vt -5.8515625 -2.9433594
vt -6.8007812 1.1923828
vt -6.8046875 1.9589844
vt -6.7773438 1.1982422
vt -6.7734375 1.9599609
vt -6.7773438 1.1982422
vt -6.8046875 1.9589844
vt -6.7773438 1.1982422
vt -6.7773438 1.1728516
vt -6.8007812 1.1923828
vt -4.828125 1.1992188
vt -4.8085938 1.2011719
vt -4.8125 1.1757812
vt -6.03125 1.1933594
vt -6.0390625 1.1689453
vt -6.0546875 1.1923828
vt -5.59375 1.1923828
vt -5.5703125 1.1943359
vt -5.578125 1.1689453
vt -4.6953125 -3.3730469
vt -4.6640625 -3.3769531
vt -4.6953125 -3.4042969
vt -6.3476562 -3.3671875
vt -6.3632812 -3.3984375
vt -6.375 -3.3652344
vt -5.1171875 -3.3710938
vt -5.0898438 -3.3730469
vt -5.1054688 -3.4042969
vt -5.9335938 -3.3652344
vt -5.9492188 -3.3984375
vt -5.9570312 -3.3671875
vt -4.6640625 -3.3769531
vt -4.6953125 -3.3730469
vt -4.6640625 -2.9511719
vt -4.6953125 -2.9492188
vt -4.6640625 -2.9511719
vt -4.6953125 -3.3730469
vt -5.9570312 -2.9433594
vt -5.9257812 -2.9433594
vt -5.9570312 -3.3671875
vt -5.9335938 -3.3652344
vt -5.9570312 -3.3671875
vt -5.9257812 -2.9433594
vt -4.2148438 3.1621094
vt -4.2148438 2.2773438
vt -5.015625 3.1640625
vt -5.015625 2.2773438
vt -5.0390625 3.1640625
vt -5.0351562 2.2773438
vt -5.4960938 3.1601562
vt -5.4921875 2.2753906
vt -5.5195312 3.1601562
vt -5.5117188 2.2753906
vt -6.3164062 3.1542969
vt -6.3085938 2.2695312
vt -6.3359375 3.1542969
vt -6.3320312 2.2695312
vt -6.7929688 3.1582031
vt -6.7890625 2.2714844
vt -5.015625 3.1640625
vt -5.015625 2.2773438
vt -5.0390625 3.1640625
vt -5.0351562 2.2773438
vt -5.4960938 3.1601562
vt -5.4921875 2.2753906
vt -5.5195312 3.1601562
vt -5.5117188 2.2753906
vt -6.3164062 3.1542969
vt -6.3085938 2.2695312
vt -6.3359375 3.1542969
vt -6.3320312 2.2695312
vt -6.3164062 2.2519531
vt -6.7929688 2.2519531
vt -6.3320312 2.2695312
vt -6.7890625 2.2714844
vt -5.5 2.2558594
vt -6.3164062 2.2519531
vt -5.5117188 2.2753906
vt -6.3085938 2.2695312
vt -5.0234375 2.2597656
vt -5.5 2.2558594
vt -5.0351562 2.2773438
vt -5.4921875 2.2753906
vt -4.21875 2.2558594
vt -5.0234375 2.2597656
vt -4.2148438 2.2773438
vt -5.015625 2.2773438
vt -4.59375 3.484375
vt -4.6015625 3.1972656
vt -5.1445312 3.5078125
vt -5.1523438 3.2207031
vt -5.1679688 3.5078125
vt -5.1679688 3.2207031
vt -5.7734375 3.5039062
vt -5.7734375 3.2167969
vt -5.7929688 3.5039062
vt -5.7890625 3.2148438
vt -6.3554688 3.5
vt -6.3554688 3.2128906
vt -6.3710938 3.5019531
vt -6.3710938 3.2128906
vt -6.9570312 3.5058594
vt -6.9570312 3.2167969
vt -5.1445312 3.5078125
vt -5.1523438 3.2207031
vt -5.1679688 3.5078125
vt -5.1679688 3.2207031
vt -5.7734375 3.5039062
vt -5.7734375 3.2167969
vt -5.7929688 3.5039062
vt -5.7890625 3.2148438
vt -6.359375 3.1933594
vt -6.9570312 3.1972656
vt -6.3710938 3.2128906
vt -6.9570312 3.2167969
vt -5.7773438 3.1953125
vt -6.359375 3.1933594
vt -5.7890625 3.2148438
vt -6.3554688 3.2128906
vt -5.1601562 3.2011719
vt -5.7773438 3.1953125
vt -5.1679688 3.2207031
vt -5.7734375 3.2167969
vt -4.6015625 3.1757812
vt -5.1601562 3.2011719
vt -4.6015625 3.1972656
vt -5.1523438 3.2207031
vt -3.9511719 0.7626953
vt -3.9726562 0.28466797
vt -4.34375 0.78027344
vt -4.359375 0.30297852
vt -4.3867188 0.7817383
vt -4.3867188 0.30249023
vt -5.3398438 0.78125
vt -5.3398438 0.30273438
vt -5.375 0.7817383
vt -5.3671875 0.30297852
vt -5.734375 0.7788086
vt -5.7304688 0.3005371
vt -5.765625 0.77734375
vt -5.7578125 0.29736328
vt -6.7304688 0.7758789
vt -6.7304688 0.29711914
vt -4.34375 0.78027344
vt -4.359375 0.30297852
vt -4.3867188 0.7817383
vt -4.3867188 0.30249023
vt -5.3398438 0.78125
vt -5.3398438 0.30273438
vt -5.375 0.7817383
vt -5.3671875 0.30297852
vt -5.2421875 -3.4023438
vt -5.2265625 -3.3710938
vt -4.8320312 -3.4023438
vt -4.8320312 -3.3710938
vt -5.875 -3.3984375
vt -5.859375 -3.3652344
vt -5.2421875 -3.4023438
vt -5.25 -3.3691406
vt -6.2851562 -3.3984375
vt -6.2734375 -3.3652344
vt -5.875 -3.3984375
vt -5.8828125 -3.3652344
vt -6.9023438 -3.4257812
vt -6.90625 -3.3886719
vt -6.2851562 -3.3984375
vt -6.296875 -3.3652344
vt -6.921875 -2.9667969
vt -6.3085938 -2.9433594
vt -6.90625 -3.3886719
vt -6.296875 -3.3652344
vt -6.2773438 -2.9433594
vt -5.8828125 -2.9433594
vt -6.2734375 -3.3652344
vt -5.8828125 -3.3652344
vt -5.8515625 -2.9433594
vt -5.2460938 -2.9453125
vt -5.859375 -3.3652344
vt -5.25 -3.3691406
vt -5.2226562 -2.9472656
vt -4.8320312 -2.9492188
vt -5.2265625 -3.3710938
vt -4.8320312 -3.3710938
vt -6.3085938 -2.9433594
vt -6.2773438 -2.9433594
vt -6.296875 -3.3652344
vt -6.2734375 -3.3652344
vt -5.2460938 -2.9453125
vt -5.2226562 -2.9472656
vt -5.25 -3.3691406
vt -5.2265625 -3.3710938
vt -4.3828125 1.9677734
vt -4.3828125 1.2060547
vt -4.8125 1.9638672
vt -4.8085938 1.2011719
vt -4.8359375 1.9628906
vt -4.828125 1.1992188
vt -5.578125 1.9560547
vt -5.5703125 1.1943359
vt -5.5976562 1.9560547
vt -5.59375 1.1923828
vt -6.0351562 1.9560547
vt -6.03125 1.1933594
vt -6.0546875 1.9560547
vt -6.0546875 1.1923828
vt -6.7734375 1.9599609
vt -6.7773438 1.1982422
vt -4.8125 1.9638672
vt -4.8085938 1.2011719
vt -4.8359375 1.9628906
vt -4.828125 1.1992188
vt -5.578125 1.9560547
vt -5.5703125 1.1943359
vt -5.5976562 1.9560547
vt -5.59375 1.1923828
vt -6.0351562 1.9560547
vt -6.03125 1.1933594
vt -6.0546875 1.9560547
vt -6.0546875 1.1923828
vt -6.0390625 1.1689453
vt -6.7773438 1.1728516
vt -6.0546875 1.1923828
vt -6.7773438 1.1982422
vt -5.578125 1.1689453
vt -6.0390625 1.1689453
vt -5.59375 1.1923828
vt -6.03125 1.1933594
vt -4.8125 1.1757812
vt -5.578125 1.1689453
vt -4.828125 1.1992188
vt -5.5703125 1.1943359
vt -4.3828125 1.1806641
vt -4.8125 1.1757812
vt -4.3828125 1.2060547
vt -4.8085938 1.2011719
vt -5.1054688 -3.4042969
vt -5.0898438 -3.3730469
vt -4.6953125 -3.4042969
vt -4.6953125 -3.3730469
vt -5.9492188 -3.3984375
vt -5.9335938 -3.3652344
vt -5.1054688 -3.4042969
vt -5.1171875 -3.3710938
vt -6.3632812 -3.3984375
vt -6.3476562 -3.3671875
vt -5.9492188 -3.3984375
vt -5.9570312 -3.3671875
vt -7.1914062 -3.4121094
vt -7.1953125 -3.375
vt -6.3632812 -3.3984375
vt -6.375 -3.3652344
vt -7.1992188 -2.953125
vt -6.375 -2.9433594
vt -7.1953125 -3.375
vt -6.375 -3.3652344
vt -6.34375 -2.9433594
vt -5.9570312 -2.9433594
vt -6.3476562 -3.3671875
vt -5.9570312 -3.3671875
vt -5.9257812 -2.9433594
vt -5.1132812 -2.9472656
vt -5.9335938 -3.3652344
vt -5.1171875 -3.3710938
vt -5.0859375 -2.9492188
vt -4.6953125 -2.9492188
vt -5.0898438 -3.3730469
vt -4.6953125 -3.3730469
vt -6.375 -2.9433594
vt -6.34375 -2.9433594
vt -6.375 -3.3652344
vt -6.3476562 -3.3671875
vt -5.1132812 -2.9472656
vt -5.0859375 -2.9492188
vt -5.1171875 -3.3710938
vt -5.0898438 -3.3730469
vt -6.7304688 0.29711914
vt -6.7265625 0.2631836
vt -6.765625 0.29101562
vt -4.3867188 0.30249023
vt -4.359375 0.30297852
vt -4.375 0.2680664
vt -5.7304688 0.3005371
vt -5.7382812 0.26367188
vt -5.7578125 0.29736328
vt -5.3671875 0.30297852
vt -5.3398438 0.30273438
vt -5.3515625 0.26782227
vt -5.3515625 0.26782227
vt -5.7382812 0.26367188
vt -5.3671875 0.30297852
vt -5.7304688 0.3005371
vt -5.3671875 0.30297852
vt -5.7382812 0.26367188
vt -3.9765625 0.24511719
vt -4.375 0.2680664
vt -3.9726562 0.28466797
vt -4.359375 0.30297852
vt -3.9726562 0.28466797
vt -4.375 0.2680664
vt 3.5820312 -0.6777344
vt 4.3828125 -0.69970703
vt 3.5625 -1.1396484
vt 4.3632812 -1.1611328
vt 2.7011719 -3.2578125
vt 3.2558594 -3.2753906
vt 2.7070312 -3.8652344
vt 3.2734375 -3.8632812
vt 4.8945312 -1.8164062
vt 4.890625 -2.2109375
vt 3.9355469 -1.8408203
vt 3.9179688 -2.2070312
vt -5.7382812 0.26367188
vt -6.7265625 0.2631836
vt -5.7578125 0.29736328
vt -6.7304688 0.29711914
vt -4.375 0.2680664
vt -5.3515625 0.26782227
vt -4.3867188 0.30249023
vt -5.3398438 0.30273438
vt 5.3359375 -2.4433594
vt 4.9375 -2.4648438
vt 5.296875 -1.8291016
vt 4.8984375 -1.8515625
vt 3.3730469 0.19177246
vt 3.8007812 0.14941406
vt 3.3945312 -0.5566406
vt 3.8378906 -0.5756836
vt 5.3398438 -2.5546875
vt 4.9414062 -2.5625
vt 5.2929688 -1.7314453
vt 4.8984375 -1.7392578
vt 0.0016212463 0.9902344
vt 0.00982666 0.6533203
vt 0.0016212463 0.6533203
vt 0.010345459 0.9902344
vt 0.01537323 0.6533203
vt 0.005710602 0.6533203
vt 0.011741638 0.9902344
vt 0.0137786865 0.6533203
vt 0.0045433044 0.6533203
vt 0.019012451 0.9902344
vt 0.022155762 0.6533203
vt 0.012458801 0.6533203
vt 0.0016212463 0.026824951
vt 0.0016212463 0.6533203
vt 0.00982666 0.026824951
vt 0.00982666 0.6533203
vt 0.00982666 0.026824951
vt 0.0016212463 0.6533203
vt 0.005256653 0.026824951
vt 0.005710602 0.6533203
vt 0.020462036 0.026824951
vt 0.01537323 0.6533203
vt 0.020462036 0.026824951
vt 0.005710602 0.6533203
vt 0.00070619583 0.026824951
vt 0.0045433044 0.6533203
vt 0.016036987 0.026824951
vt 0.0137786865 0.6533203
vt 0.016036987 0.026824951
vt 0.0045433044 0.6533203
vt 0.010597229 0.026824951
vt 0.012458801 0.6533203
vt 0.025527954 0.026824951
vt 0.022155762 0.6533203
vt 0.025527954 0.026824951
vt 0.012458801 0.6533203
vt 0.01537323 0.6533203
vt 0.010345459 0.9902344
vt 0.3720703 0.6533203
vt 0.3720703 0.9902344
vt 0.3720703 0.6533203
vt 0.010345459 0.9902344
vt 0.022155762 0.6533203
vt 0.019012451 0.9902344
vt 0.45874023 0.6533203
vt 0.4633789 0.9902344
vt 0.45874023 0.6533203
vt 0.019012451 0.9902344
vt 0.00982666 0.6533203
vt 0.0016212463 0.9902344
vt 0.4555664 0.9902344
vt 0.00982666 0.6533203
vt 0.4555664 0.9902344
vt 0.4482422 0.6533203
vt 0.0016212463 0.9902344
vt 0.00982666 0.6533203
vt 0.0016212463 0.6533203
vt 0.010345459 0.9902344
vt 0.01537323 0.6533203
vt 0.005710602 0.6533203
vt 0.011741638 0.9902344
vt 0.0137786865 0.6533203
vt 0.0045433044 0.6533203
vt 0.019012451 0.9902344
vt 0.022155762 0.6533203
vt 0.012458801 0.6533203
vt 0.01537323 0.6533203
vt 0.010345459 0.9902344
vt 0.3720703 0.6533203
vt 0.3720703 0.9902344
vt 0.3720703 0.6533203
vt 0.010345459 0.9902344
vt 0.022155762 0.6533203
vt 0.019012451 0.9902344
vt 0.45874023 0.6533203
vt 0.4633789 0.9902344
vt 0.45874023 0.6533203
vt 0.019012451 0.9902344
vt 0.00982666 0.6533203
vt 0.0016212463 0.9902344
vt 0.4482422 0.6533203
vt 0.4555664 0.9902344
vt 0.4482422 0.6533203
vt 0.0016212463 0.9902344
vt 0.020462036 0.026824951
vt 0.01537323 0.6533203
vt 0.3720703 0.026824951
vt 0.3720703 0.6533203
vt 0.3720703 0.026824951
vt 0.01537323 0.6533203
vt 0.00982666 0.026824951
vt 0.00982666 0.6533203
vt 0.44433594 0.026824951
vt 0.4482422 0.6533203
vt 0.44433594 0.026824951
vt 0.00982666 0.6533203
vt 0.0026779175 0.9902344
vt 0.020339966 0.6533203
vt 0.0026779175 0.6533203
vt 0.021469116 0.9902344
vt 0.032287598 0.6533203
vt 0.011489868 0.6533203
vt 0.024475098 0.9902344
vt 0.028869629 0.6533203
vt 0.008972168 0.6533203
vt 0.040161133 0.9902344
vt 0.046905518 0.6533203
vt 0.026031494 0.6533203
vt 0.08630371 0.9902344
vt 0.043548584 0.5917969
vt 0.07946777 0.5917969
vt 0.08630371 0.9902344
vt 0.043548584 0.5917969
vt 0.07946777 0.5917969
vt 0.08630371 0.9902344
vt 0.043548584 0.5917969
vt 0.07946777 0.5917969
vt 0.08630371 0.9902344
vt 0.043548584 0.5917969
vt 0.07946777 0.5917969
vt 0.039215088 0.026824951
vt 0.0826416 0.026824951
vt 0.043548584 0.5917969
vt 0.07946777 0.5917969
vt 0.043548584 0.5917969
vt 0.0826416 0.026824951
vt 0.0826416 0.026824951
vt 0.44506836 0.026824951
vt 0.07946777 0.5917969
vt 0.44506836 0.026824951
vt 0.07946777 0.5917969
vt 0.44506836 0.026824951
vt 0.0016212463 0.9902344
vt 0.00982666 0.6533203
vt 0.0016212463 0.6533203
vt 0.010345459 0.9902344
vt 0.01537323 0.6533203
vt 0.005710602 0.6533203
vt 0.011741638 0.9902344
vt 0.0137786865 0.6533203
vt 0.0045433044 0.6533203
vt 0.019012451 0.9902344
vt 0.022155762 0.6533203
vt 0.012458801 0.6533203
vt 0.01537323 0.6533203
vt 0.010345459 0.9902344
vt 0.3720703 0.6533203
vt 0.3720703 0.9902344
vt 0.3720703 0.6533203
vt 0.010345459 0.9902344
vt 0.022155762 0.6533203
vt 0.019012451 0.9902344
vt 0.45874023 0.6533203
vt 0.4633789 0.9902344
vt 0.45874023 0.6533203
vt 0.019012451 0.9902344
vt 0.00982666 0.6533203
vt 0.0016212463 0.9902344
vt 0.4482422 0.6533203
vt 0.4555664 0.9902344
vt 0.4482422 0.6533203
vt 0.0016212463 0.9902344
vt 0.020462036 0.026824951
vt 0.01537323 0.6533203
vt 0.3720703 0.026824951
vt 0.3720703 0.6533203
vt 0.3720703 0.026824951
vt 0.01537323 0.6533203
vt 0.00982666 0.026824951
vt 0.00982666 0.6533203
vt 0.44433594 0.026824951
vt 0.4482422 0.6533203
vt 0.44433594 0.026824951
vt 0.00982666 0.6533203
vt 0.08630371 0.9902344
vt 0.043548584 0.5917969
vt 0.07946777 0.5917969
vt 0.08630371 0.9902344
vt 0.043548584 0.5917969
vt 0.07946777 0.5917969
vt 0.08630371 0.9902344
vt 0.043548584 0.5917969
vt 0.07946777 0.5917969
vt 0.08630371 0.9902344
vt 0.043548584 0.5917969
vt 0.07946777 0.5917969
vt 0.039215088 0.026824951
vt 0.0826416 0.026824951
vt 0.043548584 0.5917969
vt 0.07946777 0.5917969
vt 0.043548584 0.5917969
vt 0.0826416 0.026824951
vt 0.0826416 0.026824951
vt 0.44506836 0.026824951
vt 0.07946777 0.5917969
vt 0.44506836 0.026824951
vt 0.07946777 0.5917969
vt 0.44506836 0.026824951
vt 0.0137786865 0.6533203
vt 0.011741638 0.9902344
vt 0.37182617 0.6533203
vt 0.37841797 0.9902344
vt 0.020462036 0.026824951
vt 0.01537323 0.6533203
vt 0.3720703 0.026824951
vt 0.3720703 0.6533203
vt 0.025527954 0.026824951
vt 0.022155762 0.6533203
vt 0.45825195 0.026824951
vt 0.45874023 0.6533203
vt 0.016036987 0.026824951
vt 0.0137786865 0.6533203
vt 0.36987305 0.026824951
vt 0.37182617 0.6533203
vt 0.00982666 0.026824951
vt 0.00982666 0.6533203
vt 0.44433594 0.026824951
vt 0.4482422 0.6533203
vt 0.0016212463 0.026824951
vt 0.0016212463 0.6533203
vt 0.00982666 0.026824951
vt 0.00982666 0.6533203
vt 0.005256653 0.026824951
vt 0.005710602 0.6533203
vt 0.020462036 0.026824951
vt 0.01537323 0.6533203
vt 0.00070619583 0.026824951
vt 0.0045433044 0.6533203
vt 0.016036987 0.026824951
vt 0.0137786865 0.6533203
vt 0.010597229 0.026824951
vt 0.012458801 0.6533203
vt 0.025527954 0.026824951
vt 0.022155762 0.6533203
vt 0.0137786865 0.6533203
vt 0.011741638 0.9902344
vt 0.37182617 0.6533203
vt 0.37841797 0.9902344
vt 0.025527954 0.026824951
vt 0.022155762 0.6533203
vt 0.45825195 0.026824951
vt 0.45874023 0.6533203
vt 0.016036987 0.026824951
vt 0.0137786865 0.6533203
vt 0.36987305 0.026824951
vt 0.37182617 0.6533203
vt 0.0026779175 0.026824951
vt 0.0026779175 0.6533203
vt 0.020339966 0.026824951
vt 0.020339966 0.6533203
vt 0.010505676 0.026824951
vt 0.011489868 0.6533203
vt 0.04324341 0.026824951
vt 0.032287598 0.6533203
vt 0.00070619583 0.026824951
vt 0.008972168 0.6533203
vt 0.033721924 0.026824951
vt 0.028869629 0.6533203
vt 0.022003174 0.026824951
vt 0.026031494 0.6533203
vt 0.05419922 0.026824951
vt 0.046905518 0.6533203
vt 0.032287598 0.6533203
vt 0.021469116 0.9902344
vt 0.8051758 0.6533203
vt 0.8051758 0.9902344
vt 0.046905518 0.6533203
vt 0.040161133 0.9902344
vt 0.9770508 0.6533203
vt 0.9770508 0.9902344
vt 0.028869629 0.6533203
vt 0.024475098 0.9902344
vt 0.8051758 0.6533203
vt 0.8051758 0.9902344
vt 0.020339966 0.6533203
vt 0.0026779175 0.9902344
vt 0.9770508 0.6533203
vt 0.9770508 0.9902344
vt 0.04324341 0.026824951
vt 0.032287598 0.6533203
vt 0.8051758 0.026824951
vt 0.8051758 0.6533203
vt 0.05419922 0.026824951
vt 0.046905518 0.6533203
vt 0.9770508 0.026824951
vt 0.9770508 0.6533203
vt 0.033721924 0.026824951
vt 0.028869629 0.6533203
vt 0.8051758 0.026824951
vt 0.8051758 0.6533203
vt 0.020339966 0.026824951
vt 0.020339966 0.6533203
vt 0.9770508 0.026824951
vt 0.9770508 0.6533203
vt 0.07946777 0.5917969
vt 0.44506836 0.5917969
vt 0.08630371 0.9902344
vt 0.44506836 0.9902344
vt 0.07946777 0.5917969
vt 0.44506836 0.5917969
vt 0.08630371 0.9902344
vt 0.44506836 0.9902344
vt 0.07946777 0.5917969
vt 0.44506836 0.026824951
vt 0.08630371 0.9902344
vt 0.44506836 0.9902344
vt 0.07946777 0.5917969
vt 0.44506836 0.5917969
vt 0.08630371 0.9902344
vt 0.44506836 0.9902344
vt 0.039215088 0.026824951
vt 0.0826416 0.026824951
vt 0.043548584 0.5917969
vt 0.07946777 0.5917969
vt 0.039215088 0.026824951
vt 0.0826416 0.026824951
vt 0.043548584 0.5917969
vt 0.07946777 0.5917969
vt 0.039215088 0.026824951
vt 0.0826416 0.026824951
vt 0.043548584 0.5917969
vt 0.07946777 0.5917969
vt 0.0826416 0.026824951
vt 0.44506836 0.026824951
vt 0.07946777 0.5917969
vt 0.44506836 0.5917969
vt 0.0826416 0.026824951
vt 0.44506836 0.026824951
vt 0.07946777 0.5917969
vt 0.44506836 0.5917969
vt 0.0826416 0.026824951
vt 0.44506836 0.026824951
vt 0.07946777 0.5917969
vt 0.44506836 0.5917969
vt 0.0016212463 0.026824951
vt 0.0016212463 0.6533203
vt 0.00982666 0.026824951
vt 0.00982666 0.6533203
vt 0.005256653 0.026824951
vt 0.005710602 0.6533203
vt 0.020462036 0.026824951
vt 0.01537323 0.6533203
vt 0.00070619583 0.026824951
vt 0.0045433044 0.6533203
vt 0.016036987 0.026824951
vt 0.0137786865 0.6533203
vt 0.010597229 0.026824951
vt 0.012458801 0.6533203
vt 0.025527954 0.026824951
vt 0.022155762 0.6533203
vt 0.0137786865 0.6533203
vt 0.011741638 0.9902344
vt 0.37182617 0.6533203
vt 0.37841797 0.9902344
vt 0.025527954 0.026824951
vt 0.022155762 0.6533203
vt 0.45825195 0.026824951
vt 0.45874023 0.6533203
vt 0.016036987 0.026824951
vt 0.0137786865 0.6533203
vt 0.36987305 0.026824951
vt 0.37182617 0.6533203
vt 0.07946777 0.5917969
vt 0.44506836 0.5917969
vt 0.08630371 0.9902344
vt 0.44506836 0.9902344
vt 0.07946777 0.5917969
vt 0.44506836 0.5917969
vt 0.08630371 0.9902344
vt 0.44506836 0.9902344
vt 0.07946777 0.5917969
vt 0.44506836 0.026824951
vt 0.08630371 0.9902344
vt 0.44506836 0.9902344
vt 0.07946777 0.5917969
vt 0.44506836 0.5917969
vt 0.08630371 0.9902344
vt 0.44506836 0.9902344
vt 0.039215088 0.026824951
vt 0.0826416 0.026824951
vt 0.043548584 0.5917969
vt 0.07946777 0.5917969
vt 0.039215088 0.026824951
vt 0.0826416 0.026824951
vt 0.043548584 0.5917969
vt 0.07946777 0.5917969
vt 0.039215088 0.026824951
vt 0.0826416 0.026824951
vt 0.043548584 0.5917969
vt 0.07946777 0.5917969
vt 0.0826416 0.026824951
vt 0.44506836 0.026824951
vt 0.07946777 0.5917969
vt 0.44506836 0.5917969
vt 0.0826416 0.026824951
vt 0.44506836 0.026824951
vt 0.07946777 0.5917969
vt 0.44506836 0.5917969
vt 0.0826416 0.026824951
vt 0.44506836 0.026824951
vt 0.07946777 0.5917969
vt 0.44506836 0.5917969
vt 4.4023438 3.3554688
vt 3.96875 3.3457031
vt 4.3984375 4.1523438
vt 3.9648438 4.1445312
vt 3.7890625 5.1484375
vt 3.8222656 5.7304688
vt 4.3515625 5.1171875
vt 4.3828125 5.703125
vt 3.7285156 5.125
vt 3.6992188 4.2148438
vt 3.390625 5.1171875
vt 3.3359375 4.2265625
vt 4.8828125 5.28125
vt 4.90625 4.6679688
vt 4.4882812 5.265625
vt 4.5117188 4.6523438
vt 3.2539062 5.1757812
vt 3.3085938 5.890625
vt 3.6894531 5.171875
vt 3.7441406 5.890625
vt 4.875 5.3945312
vt 4.9140625 4.5703125
vt 4.4804688 5.3632812
vt 4.5195312 4.5390625
vn 0.59521484 0.0007185936 0.80371094
vn 0.59521484 0.0007185936 0.80371094
vn 0.59521484 0.0007185936 0.80371094
vn 0.59521484 0.0007185936 0.80371094
vn 0.59521484 0.0007185936 0.80371094
vn 0.59521484 0.0007185936 0.80371094
vn 0.3371582 -0.8198242 0.46289062
vn 0.3371582 -0.8198242 0.46289062
vn 0.3371582 -0.8198242 0.46289062
vn -0.4555664 -0.8208008 0.34448242
vn -0.4555664 -0.8208008 0.34448242
vn -0.4555664 -0.8208008 0.34448242
vn 0.4501953 -0.8310547 -0.32666016
vn 0.4501953 -0.8310547 -0.32666016
vn 0.4501953 -0.8310547 -0.32666016
vn -0.33398438 -0.83203125 -0.44311523
vn -0.33398438 -0.83203125 -0.44311523
vn -0.33398438 -0.83203125 -0.44311523
vn 0.6010742 0.016586304 0.7988281
vn 0.6010742 0.016586304 0.7988281
vn 0.6010742 0.016586304 0.7988281
vn 0.6010742 0.016586304 0.7988281
vn 0.6010742 0.016586304 0.7988281
vn 0.6010742 0.016586304 0.7988281
vn 0.7993164 0.0015983582 -0.6010742
vn 0.7993164 0.0015983582 -0.6010742
vn 0.7993164 0.0015983582 -0.6010742
vn 0.7993164 0.0015983582 -0.6010742
vn 0.7993164 0.0015983582 -0.6010742
vn 0.7993164 0.0015983582 -0.6010742
vn 0.47607422 -0.61035156 0.6333008
vn 0.47607422 -0.61035156 0.6333008
vn 0.47607422 -0.61035156 0.6333008
vn -0.61572266 -0.62353516 0.48168945
vn -0.61572266 -0.62353516 0.48168945
vn -0.61572266 -0.62353516 0.48168945
vn 0.63134766 -0.6269531 -0.45629883
vn 0.63134766 -0.6269531 -0.45629883
vn 0.63134766 -0.6269531 -0.45629883
vn -0.46166992 -0.640625 -0.61328125
vn -0.46166992 -0.640625 -0.61328125
vn -0.46166992 -0.640625 -0.61328125
vn 0.7475586 0.0033683777 0.6645508
vn 0.7475586 0.0033683777 0.6645508
vn 0.7475586 0.0033683777 0.6645508
vn 0.7475586 0.0033683777 0.6645508
vn 0.7475586 0.0033683777 0.6645508
vn 0.7475586 0.0033683777 0.6645508
vn 0.7890625 9.536743E-07 -0.6147461
vn 0.7890625 9.536743E-07 -0.6147461
vn 0.7890625 9.536743E-07 -0.6147461
vn 0.7890625 2.026558E-06 -0.6147461
vn 0.7890625 2.026558E-06 -0.6147461
vn 0.7890625 2.026558E-06 -0.6147461
vn -0.6328125 -0.5317383 0.5629883
vn -0.6328125 -0.5317383 0.5629883
vn -0.6328125 -0.5317383 0.5629883
vn 0.6948242 -0.52441406 0.49194336
vn 0.6948242 -0.52441406 0.49194336
vn 0.6948242 -0.52441406 0.49194336
vn -0.6948242 -0.52441406 -0.49169922
vn -0.6948242 -0.52441406 -0.49169922
vn -0.6948242 -0.52441406 -0.49169922
vn 0.6328125 -0.5317383 -0.5629883
vn 0.6328125 -0.5317383 -0.5629883
vn 0.6328125 -0.5317383 -0.5629883
vn -0.7470703 0.003168106 0.6645508
vn -0.7470703 0.003168106 0.6645508
vn -0.7470703 0.003168106 0.6645508
vn -0.7470703 0.0031661987 0.6645508
vn -0.7470703 0.0031661987 0.6645508
vn -0.7470703 0.0031661987 0.6645508
vn 0.6455078 -2.3841858E-07 -0.7636719
vn 0.6455078 -2.3841858E-07 -0.7636719
vn 0.6455078 -2.3841858E-07 -0.7636719
vn 0.7470703 0.012329102 -0.6645508
vn 0.7470703 0.012329102 -0.6645508
vn 0.7470703 0.012329102 -0.6645508
vn 0.4921875 0.007709503 0.87060547
vn 0.4921875 0.007709503 0.87060547
vn 0.4921875 0.007709503 0.87060547
vn 0.4921875 0.0077056885 0.87060547
vn 0.4921875 0.0077056885 0.87060547
vn 0.4921875 0.0077056885 0.87060547
vn 0.38989258 -0.61035156 0.6899414
vn 0.38989258 -0.61035156 0.6899414
vn 0.38989258 -0.61035156 0.6899414
vn -0.67285156 -0.62353516 0.39770508
vn -0.67285156 -0.62353516 0.39770508
vn -0.67285156 -0.62353516 0.39770508
vn 0.6850586 -0.6269531 -0.37036133
vn 0.6850586 -0.6269531 -0.37036133
vn 0.6850586 -0.6269531 -0.37036133
vn -0.37817383 -0.640625 -0.66796875
vn -0.37817383 -0.640625 -0.66796875
vn -0.37817383 -0.640625 -0.66796875
vn -0.6328125 -0.5317383 0.5629883
vn -0.6328125 -0.5317383 0.5629883
vn -0.6328125 -0.5317383 0.5629883
vn 0.6948242 -0.52441406 0.49194336
vn 0.6948242 -0.52441406 0.49194336
vn 0.6948242 -0.52441406 0.49194336
vn -0.6948242 -0.52441406 -0.49169922
vn -0.6948242 -0.52441406 -0.49169922
vn -0.6948242 -0.52441406 -0.49169922
vn 0.6328125 -0.5317383 -0.5629883
vn 0.6328125 -0.5317383 -0.5629883
vn 0.6328125 -0.5317383 -0.5629883
vn -0.7470703 0.003168106 0.6645508
vn -0.7470703 0.003168106 0.6645508
vn -0.7470703 0.003168106 0.6645508
vn -0.7470703 0.0031661987 0.6645508
vn -0.7470703 0.0031661987 0.6645508
vn -0.7470703 0.0031661987 0.6645508
vn 0.6455078 -3.5762787E-07 -0.7636719
vn 0.6455078 -3.5762787E-07 -0.7636719
vn 0.6455078 -3.5762787E-07 -0.7636719
vn 0.7470703 0.012329102 -0.6645508
vn 0.7470703 0.012329102 -0.6645508
vn 0.7470703 0.012329102 -0.6645508
vn -0.17700195 0.0015821457 0.984375
vn -0.17700195 0.0015821457 0.984375
vn -0.17700195 0.0015821457 0.984375
vn -0.17370605 0.004550934 0.9848633
vn -0.9873047 -0.00031495094 -0.1595459
vn -0.9873047 -0.00031495094 -0.1595459
vn -0.9873047 -0.00031495094 -0.1595459
vn -0.9873047 -0.0002951622 -0.15942383
vn 0.17700195 -0.0028266907 -0.984375
vn 0.17700195 -0.0028266907 -0.984375
vn 0.17700195 -0.0028266907 -0.984375
vn 0.17370605 0.00014686584 -0.9848633
vn 0.9873047 -0.00055360794 0.1595459
vn 0.9873047 -0.00055360794 0.1595459
vn 0.9873047 -0.00055360794 0.1595459
vn 0.9873047 -0.00053167343 0.15942383
vn -0.80371094 0.0030384064 0.59521484
vn -0.80371094 0.0030384064 0.59521484
vn -0.80371094 0.0030384064 0.59521484
vn -0.80371094 0.0030403137 0.59521484
vn -0.59521484 -0.0021896362 -0.80371094
vn -0.59521484 -0.0021896362 -0.80371094
vn -0.59521484 -0.0021896362 -0.80371094
vn -0.59521484 -0.0021896362 -0.80371094
vn 0.80371094 -0.0002758503 -0.59521484
vn 0.80371094 -0.0002758503 -0.59521484
vn 0.80371094 -0.0002758503 -0.59521484
vn 0.80371094 -0.00027537346 -0.59521484
vn 0.42944336 -0.89990234 0.07373047
vn 0.42944336 -0.89990234 0.07373047
vn 0.42944336 -0.89990234 0.07373047
vn 0.42944336 -0.89990234 0.07373047
vn 0.07373047 -0.9057617 -0.4177246
vn 0.07373047 -0.9057617 -0.4177246
vn 0.07373047 -0.9057617 -0.4177246
vn 0.07373047 -0.9057617 -0.4177246
vn -0.42871094 -0.9008789 -0.06488037
vn -0.42871094 -0.9008789 -0.06488037
vn -0.42871094 -0.9008789 -0.06488037
vn -0.42871094 -0.9008789 -0.06488037
vn -0.07733154 -0.8955078 0.4387207
vn -0.07733154 -0.8955078 0.4387207
vn -0.07733154 -0.8955078 0.4387207
vn -0.07733154 -0.8955078 0.4387207
vn 0.032470703 0.014526367 0.9995117
vn 0.032470703 0.014526367 0.9995117
vn 0.032470703 0.014526367 0.9995117
vn 0.032470703 0.014518738 0.9995117
vn -1 -0.008743286 -0.0069770813
vn -1 -0.008743286 -0.0069770813
vn -1 -0.008743286 -0.0069770813
vn -1 -0.009353638 -0.007259369
vn 0.0008249283 -0.009681702 -1
vn 0.0008249283 -0.009681702 -1
vn 0.0008249283 -0.009681702 -1
vn 0.0008234978 -0.009674072 -1
vn 0.9995117 0.009567261 0.029464722
vn 0.9995117 0.009567261 0.029464722
vn 0.9995117 0.009567261 0.029464722
vn 0.9995117 0.009056091 0.029724121
vn -0.7993164 0.0016565323 0.6010742
vn -0.7993164 0.0016565323 0.6010742
vn -0.7993164 0.0016565323 0.6010742
vn -0.7993164 0.0016584396 0.6010742
vn -0.6010742 -0.013320923 -0.7993164
vn -0.6010742 -0.013320923 -0.7993164
vn -0.6010742 -0.013320923 -0.7993164
vn -0.6010742 -0.013320923 -0.7993164
vn 0.6723633 -0.7397461 0.025802612
vn 0.6723633 -0.7397461 0.025802612
vn 0.6723633 -0.7397461 0.025802612
vn 0.6723633 -0.7397461 0.025802612
vn 0.0042800903 -0.7578125 -0.65234375
vn 0.0042800903 -0.7578125 -0.65234375
vn 0.0042800903 -0.7578125 -0.65234375
vn 0.0042800903 -0.7578125 -0.65234375
vn -0.6557617 -0.7548828 0.0008916855
vn -0.6557617 -0.7548828 0.0008916855
vn -0.6557617 -0.7548828 0.0008916855
vn -0.6557617 -0.7548828 0.0008916855
vn 0.025848389 -0.73339844 0.6791992
vn 0.025848389 -0.73339844 0.6791992
vn 0.025848389 -0.73339844 0.6791992
vn 0.025848389 -0.73339844 0.6791992
vn 0.0052986145 0.0052337646 1
vn 0.0052986145 0.0052337646 1
vn 0.0052986145 0.0052337646 1
vn 0.0052986145 0.0052337646 1
vn -0.9995117 1.0728836E-05 -0.025482178
vn -0.9995117 1.0728836E-05 -0.025482178
vn -0.9995117 1.0728836E-05 -0.025482178
vn -0.9995117 0 -0.025482178
vn -0.04736328 3.3974648E-06 -0.99902344
vn -0.04736328 3.3974648E-06 -0.99902344
vn -0.04736328 3.3974648E-06 -0.99902344
vn -0.04736328 3.4570694E-06 -0.99902344
vn 1 4.172325E-07 -0.003742218
vn 1 4.172325E-07 -0.003742218
vn 1 4.172325E-07 -0.003742218
vn 1 -0.00016510487 -0.003660202
vn -0.7890625 0.0033283234 0.6147461
vn -0.7890625 0.0033283234 0.6147461
vn -0.7890625 0.0033283234 0.6147461
vn -0.7890625 0.0033302307 0.6147461
vn -0.7475586 1.847744E-06 -0.6645508
vn -0.7475586 1.847744E-06 -0.6645508
vn -0.7475586 1.847744E-06 -0.6645508
vn -0.7475586 2.861023E-06 -0.6645508
vn -0.7817383 -0.6220703 0.04849243
vn -0.7817383 -0.6220703 0.04849243
vn -0.7817383 -0.6220703 0.04849243
vn -0.7817383 -0.6220703 0.04849243
vn -0.039367676 -0.70703125 -0.7060547
vn -0.039367676 -0.70703125 -0.7060547
vn -0.039367676 -0.70703125 -0.7060547
vn -0.039367676 -0.70703125 -0.7060547
vn 0.78125 -0.6220703 -0.04849243
vn 0.78125 -0.6220703 -0.04849243
vn 0.78125 -0.6220703 -0.04849243
vn 0.7817383 -0.6220703 -0.04852295
vn 0.039367676 -0.70703125 0.7060547
vn 0.039367676 -0.70703125 0.7060547
vn 0.039367676 -0.70703125 0.7060547
vn 0.039367676 -0.70703125 0.7060547
vn 0.055664062 0.005050659 0.99853516
vn 0.055664062 0.005050659 0.99853516
vn 0.055664062 0.005050659 0.99853516
vn 0.055664062 0.005050659 0.99853516
vn 0.9980469 -6.3955784E-05 -0.06201172
vn 0.9980469 -6.3955784E-05 -0.06201172
vn 0.9980469 -6.3955784E-05 -0.06201172
vn 0.9980469 -1.1920929E-07 -0.061950684
vn -0.0552063 0.0006546974 -0.99853516
vn -0.0552063 0.0006546974 -0.99853516
vn -0.0552063 0.0006546974 -0.99853516
vn -0.055664062 0 -0.99853516
vn -0.9980469 0 0.06201172
vn -0.9980469 0 0.06201172
vn -0.9980469 0 0.06201172
vn -0.9980469 6.41942E-05 0.061950684
vn 0.81640625 0.0031089783 0.5776367
vn 0.81640625 0.0031089783 0.5776367
vn 0.81640625 0.0031089783 0.5776367
vn 0.81640625 0.003118515 0.5776367
vn -0.81640625 0 -0.5776367
vn -0.81640625 0 -0.5776367
vn -0.81640625 0 -0.5776367
vn -0.81640625 1.1920929E-07 -0.5776367
vn -0.009429932 0.0070610046 1
vn -0.009429932 0.0070610046 1
vn -0.009429932 0.0070610046 1
vn -0.009429932 0.0070610046 1
vn -0.99072266 -0.0040626526 -0.13684082
vn -0.99072266 -0.0040626526 -0.13684082
vn -0.99072266 -0.0040626526 -0.13684082
vn -0.99072266 -0.004348755 -0.13708496
vn 0.064819336 -0.004776001 -0.9980469
vn 0.064819336 -0.004776001 -0.9980469
vn 0.064819336 -0.004776001 -0.9980469
vn 0.064819336 -0.0047721863 -0.9980469
vn 0.9873047 0.004447937 0.15905762
vn 0.9873047 0.004447937 0.15905762
vn 0.9873047 0.004447937 0.15905762
vn 0.9873047 0.004211426 0.15930176
vn -0.87060547 0.000770092 0.4921875
vn -0.87060547 0.000770092 0.4921875
vn -0.87060547 0.000770092 0.4921875
vn -0.87060547 0.00077056885 0.4921875
vn -0.4921875 -0.0061912537 -0.87060547
vn -0.4921875 -0.0061912537 -0.87060547
vn -0.4921875 -0.0061912537 -0.87060547
vn -0.4921875 -0.0061912537 -0.87060547
vn 0.87060547 0.00074338913 -0.4921875
vn 0.87060547 0.00074338913 -0.4921875
vn 0.87060547 0.00074338913 -0.4921875
vn 0.87060547 0.0007429123 -0.4921875
vn 0.6635742 -0.7397461 0.11291504
vn 0.6635742 -0.7397461 0.11291504
vn 0.6635742 -0.7397461 0.11291504
vn 0.6635742 -0.7397461 0.11291504
vn 0.04840088 -0.7548828 -0.6542969
vn 0.04840088 -0.7548828 -0.6542969
vn 0.04840088 -0.7548828 -0.6542969
vn 0.04840088 -0.7548828 -0.6542969
vn -0.6503906 -0.7548828 -0.084228516
vn -0.6503906 -0.7548828 -0.084228516
vn -0.6503906 -0.7548828 -0.084228516
vn -0.6503906 -0.7548828 -0.084228516
vn -0.00055885315 -0.7260742 0.6875
vn -0.00055885315 -0.7260742 0.6875
vn -0.00055885315 -0.7260742 0.6875
vn -0.00055885315 -0.7260742 0.6875
vn -0.7817383 -0.6220703 0.04849243
vn -0.7817383 -0.6220703 0.04849243
vn -0.7817383 -0.6220703 0.04849243
vn -0.7817383 -0.6220703 0.04849243
vn -0.019332886 -0.70703125 -0.70703125
vn -0.019332886 -0.70703125 -0.70703125
vn -0.019332886 -0.70703125 -0.70703125
vn -0.019332886 -0.70703125 -0.70703125
vn 0.78125 -0.6220703 -0.04852295
vn 0.78125 -0.6220703 -0.04852295
vn 0.78125 -0.6220703 -0.04852295
vn 0.7817383 -0.6220703 -0.04852295
vn 0.019332886 -0.70703125 0.70703125
vn 0.019332886 -0.70703125 0.70703125
vn 0.019332886 -0.70703125 0.70703125
vn 0.019332886 -0.70703125 0.70703125
vn 0.027328491 0.005050659 0.9995117
vn 0.027328491 0.005050659 0.9995117
vn 0.027328491 0.005050659 0.9995117
vn 0.027328491 0.005050659 0.9995117
vn 0.9980469 -6.3955784E-05 -0.06201172
vn 0.9980469 -6.3955784E-05 -0.06201172
vn 0.9980469 -6.3955784E-05 -0.06201172
vn 0.9980469 -1.1920929E-07 -0.061950684
vn -0.026779175 0.0010881424 -0.9995117
vn -0.026779175 0.0010881424 -0.9995117
vn -0.026779175 0.0010881424 -0.9995117
vn -0.027328491 -1.1920929E-07 -0.9995117
vn -0.9980469 0 0.06201172
vn -0.9980469 0 0.06201172
vn -0.9980469 0 0.06201172
vn -0.9980469 6.41942E-05 0.061950684
vn 0.81640625 0.0031089783 0.5776367
vn 0.81640625 0.0031089783 0.5776367
vn 0.81640625 0.0031089783 0.5776367
vn 0.81640625 0.003118515 0.5776367
vn -0.81640625 0 -0.5776367
vn -0.81640625 0 -0.5776367
vn -0.81640625 0 -0.5776367
vn -0.81640625 0 -0.5776367
vn 0.5913086 -0.6118164 0.5253906
vn 0.5913086 -0.6118164 0.5253906
vn 0.5913086 -0.6118164 0.5253906
vn -0.6269531 -0.6069336 0.48828125
vn -0.6269531 -0.6069336 0.48828125
vn -0.6269531 -0.6069336 0.48828125
vn 0.6269531 -0.6069336 -0.48828125
vn 0.6269531 -0.6069336 -0.48828125
vn 0.6269531 -0.6069336 -0.48828125
vn -0.5913086 -0.6118164 -0.5253906
vn -0.5913086 -0.6118164 -0.5253906
vn -0.5913086 -0.6118164 -0.5253906
vn -0.030334473 -0.7675781 -0.6401367
vn -0.030334473 -0.7675781 -0.6401367
vn -0.030334473 -0.7675781 -0.6401367
vn -0.030334473 -0.7675781 -0.6401367
vn -0.030334473 -0.7675781 -0.6401367
vn -0.030334473 -0.7675781 -0.6401367
vn 0.0033931732 -0.7685547 0.6401367
vn 0.0033931732 -0.7685547 0.6401367
vn 0.0033931732 -0.7685547 0.6401367
vn 0.0033912659 -0.7685547 0.6401367
vn 0.0033912659 -0.7685547 0.6401367
vn 0.0033912659 -0.7685547 0.6401367
vn -0.0007753372 -1 0.0047454834
vn -0.0007753372 -1 0.0047454834
vn -0.0007753372 -1 0.0047454834
vn -0.0007748604 -1 0.0047454834
vn 0.005340576 -1 0.007583618
vn 0.005340576 -1 0.007583618
vn 0.005340576 -1 0.007583618
vn 0.0049705505 -1 0.00793457
vn 9.536743E-07 -1 -1.0728836E-06
vn 9.536743E-07 -1 -1.0728836E-06
vn 9.536743E-07 -1 -1.0728836E-06
vn 1.013279E-06 -1 -1.0728836E-06
vn 0.70751953 -0.70703125 -0.002588272
vn 0.70751953 -0.70703125 -0.002588272
vn 0.70751953 -0.70703125 -0.002588272
vn 0.70751953 -0.70703125 -0.0025901794
vn -0.70703125 -0.70703125 -0.01802063
vn -0.70703125 -0.70703125 -0.01802063
vn -0.70703125 -0.70703125 -0.01802063
vn -0.70703125 -0.70703125 -0.01802063
vn -0 -1 -3.993511E-06
vn -0 -1 -3.993511E-06
vn -0 -1 -3.993511E-06
vn -0 -1 -3.993511E-06
vn 0.008026123 -1 0.008728027
vn 0.008026123 -1 0.008728027
vn 0.008026123 -1 0.008728027
vn 0.0072784424 -1 0.009056091
vn -0 -1 -4.23193E-06
vn -0 -1 -4.23193E-06
vn -0 -1 -4.23193E-06
vn 1.1920929E-07 -1 -4.1127205E-06
vn 0.20092773 0.97753906 0.06390381
vn 0.20092773 0.97753906 0.06390381
vn 0.20092773 0.97753906 0.06390381
vn -0.48388672 0.8696289 0.09655762
vn -0.48388672 0.8696289 0.09655762
vn -0.48388672 0.8696289 0.09655762
vn 0.16467285 0.9042969 -0.3942871
vn 0.16467285 0.9042969 -0.3942871
vn 0.16467285 0.9042969 -0.3942871
vn -0.1665039 0.89453125 -0.41455078
vn -0.1665039 0.89453125 -0.41455078
vn -0.1665039 0.89453125 -0.41455078
vn 0.57714844 0.25683594 0.77490234
vn 0.57714844 0.25683594 0.77490234
vn 0.57714844 0.25683594 0.77490234
vn 0.5996094 0.28051758 0.7495117
vn 0.5996094 0.28051758 0.7495117
vn 0.5996094 0.28051758 0.7495117
vn -0.77001953 0.29467773 0.56591797
vn -0.77001953 0.29467773 0.56591797
vn -0.77001953 0.29467773 0.56591797
vn -0.8125 0.24633789 0.52783203
vn -0.8125 0.24633789 0.52783203
vn -0.8125 0.24633789 0.52783203
vn 0.7788086 0.23840332 -0.5805664
vn 0.7788086 0.23840332 -0.5805664
vn 0.7788086 0.23840332 -0.5805664
vn 0.72753906 0.28344727 -0.6245117
vn 0.72753906 0.28344727 -0.6245117
vn 0.72753906 0.28344727 -0.6245117
vn -0.57177734 0.265625 -0.7763672
vn -0.57177734 0.265625 -0.7763672
vn -0.57177734 0.265625 -0.7763672
vn -0.5522461 0.24304199 -0.7973633
vn -0.5522461 0.24304199 -0.7973633
vn -0.5522461 0.24304199 -0.7973633
vn -0.044830322 0.9682617 0.24523926
vn -0.044830322 0.9682617 0.24523926
vn -0.044830322 0.9682617 0.24523926
vn -0.009124756 0.9970703 0.07495117
vn -0.009124756 0.9970703 0.07495117
vn -0.009124756 0.9970703 0.07495117
vn -0.53222656 0.84228516 -0.08721924
vn -0.53222656 0.84228516 -0.08721924
vn -0.53222656 0.84228516 -0.08721924
vn -0.5942383 0.79785156 -0.099975586
vn -0.5942383 0.79785156 -0.099975586
vn -0.5942383 0.79785156 -0.099975586
vn 0.2253418 0.97314453 0.04348755
vn 0.2253418 0.97314453 0.04348755
vn 0.2253418 0.97314453 0.04348755
vn 0.5136719 0.8544922 0.08062744
vn 0.5136719 0.8544922 0.08062744
vn 0.5136719 0.8544922 0.08062744
vn -0.4140625 -0.72509766 -0.5498047
vn -0.4140625 -0.72509766 -0.5498047
vn -0.4140625 -0.72509766 -0.5498047
vn -0.51171875 0.7792969 0.3618164
vn -0.51171875 0.7792969 0.3618164
vn -0.51171875 0.7792969 0.3618164
vn 0.48339844 0.78515625 -0.3869629
vn 0.48339844 0.78515625 -0.3869629
vn 0.48339844 0.78515625 -0.3869629
vn -0.3708496 0.7866211 -0.49365234
vn -0.3708496 0.7866211 -0.49365234
vn -0.3708496 0.7866211 -0.49365234
vn -0.014633179 0.84472656 0.53515625
vn -0.014633179 0.84472656 0.53515625
vn -0.014633179 0.84472656 0.53515625
vn -0.00066518784 0.1003418 -0.9951172
vn -0.00066518784 0.1003418 -0.9951172
vn -0.00066518784 0.1003418 -0.9951172
vn -0.77441406 0.6323242 -0.010215759
vn -0.77441406 0.6323242 -0.010215759
vn -0.77441406 0.6323242 -0.010215759
vn -0.72314453 0.69091797 -0.0082092285
vn -0.72314453 0.69091797 -0.0082092285
vn -0.72314453 0.69091797 -0.0082092285
vn -0.8964844 -0.44311523 -0.009536743
vn -0.8964844 -0.44311523 -0.009536743
vn -0.8964844 -0.44311523 -0.009536743
vn 0.7084961 0.7055664 -0.0022583008
vn 0.7084961 0.7055664 -0.0022583008
vn 0.7084961 0.7055664 -0.0022583008
vn 0.028640747 0.35302734 0.9350586
vn 0.028640747 0.35302734 0.9350586
vn 0.028640747 0.35302734 0.9350586
vn 0.024337769 0.20043945 0.9794922
vn 0.024337769 0.20043945 0.9794922
vn 0.024337769 0.20043945 0.9794922
vn 0.9785156 0.20446777 0.027328491
vn 0.9785156 0.20446777 0.027328491
vn 0.9785156 0.20446777 0.027328491
vn 0.9350586 0.3544922 0.014122009
vn 0.9350586 0.3544922 0.014122009
vn 0.9350586 0.3544922 0.014122009
vn 0.2944336 0.9194336 0.26171875
vn 0.2944336 0.9194336 0.26171875
vn 0.2944336 0.9194336 0.26171875
vn -0.31445312 0.9169922 0.24487305
vn -0.31445312 0.9169922 0.24487305
vn -0.31445312 0.9169922 0.24487305
vn 0.31445312 0.9169922 -0.24487305
vn 0.31445312 0.9169922 -0.24487305
vn 0.31445312 0.9169922 -0.24487305
vn -0.2944336 0.9194336 -0.26171875
vn -0.2944336 0.9194336 -0.26171875
vn -0.2944336 0.9194336 -0.26171875
vn -0.49023438 0.75439453 0.4362793
vn -0.49023438 0.75439453 0.4362793
vn -0.49023438 0.75439453 0.4362793
vn 0.5415039 0.74853516 0.38305664
vn 0.5415039 0.74853516 0.38305664
vn 0.5415039 0.74853516 0.38305664
vn -0.5410156 0.74853516 -0.38305664
vn -0.5410156 0.74853516 -0.38305664
vn -0.5410156 0.74853516 -0.38305664
vn 0.49023438 0.75439453 -0.4362793
vn 0.49023438 0.75439453 -0.4362793
vn 0.49023438 0.75439453 -0.4362793
vn 0.625 0.24829102 -0.7397461
vn 0.625 0.24829102 -0.7397461
vn 0.625 0.24829102 -0.7397461
vn 0.68603516 0.39624023 -0.61035156
vn 0.68603516 0.39624023 -0.61035156
vn 0.68603516 0.39624023 -0.61035156
vn -0.04550171 0.56640625 -0.8227539
vn -0.04550171 0.56640625 -0.8227539
vn -0.04550171 0.56640625 -0.8227539
vn -0.046173096 0.55810547 -0.8286133
vn -0.046173096 0.55810547 -0.8286133
vn -0.046173096 0.55810547 -0.8286133
vn -0.33911133 -0.72509766 -0.5991211
vn -0.33911133 -0.72509766 -0.5991211
vn -0.33911133 -0.72509766 -0.5991211
vn -0.5541992 0.7792969 0.29223633
vn -0.5541992 0.7792969 0.29223633
vn -0.5541992 0.7792969 0.29223633
vn 0.52978516 0.78515625 -0.32104492
vn 0.52978516 0.78515625 -0.32104492
vn 0.52978516 0.78515625 -0.32104492
vn -0.30371094 0.7866211 -0.53759766
vn -0.30371094 0.7866211 -0.53759766
vn -0.30371094 0.7866211 -0.53759766
vn -0.05581665 0.8413086 0.53808594
vn -0.05581665 0.8413086 0.53808594
vn -0.05581665 0.8413086 0.53808594
vn 0.062286377 -0.026016235 -0.9975586
vn 0.062286377 -0.026016235 -0.9975586
vn 0.062286377 -0.026016235 -0.9975586
vn -0.76660156 0.6323242 -0.11071777
vn -0.76660156 0.6323242 -0.11071777
vn -0.76660156 0.6323242 -0.11071777
vn -0.7158203 0.69091797 -0.101989746
vn -0.7158203 0.69091797 -0.101989746
vn -0.7158203 0.69091797 -0.101989746
vn -0.8876953 -0.44311523 -0.12585449
vn -0.8876953 -0.44311523 -0.12585449
vn -0.8876953 -0.44311523 -0.12585449
vn 0.703125 0.7055664 0.089782715
vn 0.703125 0.7055664 0.089782715
vn 0.703125 0.7055664 0.089782715
vn -0.011604309 0.34765625 0.9375
vn -0.011604309 0.34765625 0.9375
vn -0.011604309 0.34765625 0.9375
vn -0.020996094 0.1977539 0.97998047
vn -0.020996094 0.1977539 0.97998047
vn -0.020996094 0.1977539 0.97998047
vn 0.9667969 0.20446777 0.1541748
vn 0.9667969 0.20446777 0.1541748
vn 0.9667969 0.20446777 0.1541748
vn 0.92529297 0.3544922 0.13537598
vn 0.92529297 0.3544922 0.13537598
vn 0.92529297 0.3544922 0.13537598
vn -0.49023438 0.75439453 0.4362793
vn -0.49023438 0.75439453 0.4362793
vn -0.49023438 0.75439453 0.4362793
vn 0.5415039 0.74853516 0.38305664
vn 0.5415039 0.74853516 0.38305664
vn 0.5415039 0.74853516 0.38305664
vn -0.5410156 0.74853516 -0.38305664
vn -0.5410156 0.74853516 -0.38305664
vn -0.5410156 0.74853516 -0.38305664
vn 0.49047852 0.75439453 -0.4362793
vn 0.49047852 0.75439453 -0.4362793
vn 0.49047852 0.75439453 -0.4362793
vn 0.625 0.24829102 -0.7397461
vn 0.625 0.24829102 -0.7397461
vn 0.625 0.24829102 -0.7397461
vn 0.68603516 0.39624023 -0.61035156
vn 0.68603516 0.39624023 -0.61035156
vn 0.68603516 0.39624023 -0.61035156
vn -0.022064209 0.56640625 -0.82373047
vn -0.022064209 0.56640625 -0.82373047
vn -0.022064209 0.56640625 -0.82373047
vn -0.022781372 0.5527344 -0.8330078
vn -0.022781372 0.5527344 -0.8330078
vn -0.022781372 0.5527344 -0.8330078
vn 0.07537842 0.90478516 -0.4194336
vn 0.07537842 0.90478516 -0.4194336
vn 0.07537842 0.90478516 -0.4194336
vn 0.07733154 0.9003906 -0.4284668
vn -0.1652832 0.35864258 0.9189453
vn -0.1652832 0.35864258 0.9189453
vn -0.1652832 0.35864258 0.9189453
vn -0.16589355 0.35205078 0.92089844
vn -0.9243164 0.34960938 -0.15222168
vn -0.9243164 0.34960938 -0.15222168
vn -0.9243164 0.34960938 -0.15222168
vn -0.90771484 0.39257812 -0.1472168
vn 0.16479492 0.3635254 -0.9169922
vn 0.16479492 0.3635254 -0.9169922
vn 0.16479492 0.3635254 -0.9169922
vn 0.16491699 0.36254883 -0.91748047
vn 0.9194336 0.36547852 0.14550781
vn 0.9194336 0.36547852 0.14550781
vn 0.9194336 0.36547852 0.14550781
vn 0.93066406 0.33398438 0.14941406
vn 0.5942383 0.15014648 0.79003906
vn 0.5942383 0.15014648 0.79003906
vn 0.5942383 0.15014648 0.79003906
vn 0.5942383 0.15014648 0.79003906
vn -0.77685547 0.25268555 0.57666016
vn -0.77685547 0.25268555 0.57666016
vn -0.77685547 0.25268555 0.57666016
vn -0.77685547 0.2529297 0.57666016
vn 0.76904297 0.2553711 -0.5859375
vn 0.76904297 0.2553711 -0.5859375
vn 0.76904297 0.2553711 -0.5859375
vn 0.76904297 0.2553711 -0.5859375
vn -0.5830078 0.2421875 -0.7753906
vn -0.5830078 0.2421875 -0.7753906
vn -0.5830078 0.2421875 -0.7753906
vn -0.5830078 0.2421875 -0.7753906
vn -0.0037155151 0.83251953 -0.5541992
vn -0.0037155151 0.83251953 -0.5541992
vn -0.0037155151 0.83251953 -0.5541992
vn -0.004173279 0.8383789 -0.5449219
vn -0.94140625 0.3371582 -0.009162903
vn -0.94140625 0.3371582 -0.009162903
vn -0.94140625 0.3371582 -0.009162903
vn -0.94140625 0.3371582 -0.009170532
vn -0.00094270706 0.33642578 -0.94189453
vn -0.00094270706 0.33642578 -0.94189453
vn -0.00094270706 0.33642578 -0.94189453
vn -0.0009441376 0.33642578 -0.94189453
vn 0.66308594 0.46166992 0.58935547
vn 0.66308594 0.46166992 0.58935547
vn 0.66308594 0.46166992 0.58935547
vn 0.66308594 0.46166992 0.58935547
vn -0.70166016 0.4572754 0.5463867
vn -0.70166016 0.4572754 0.5463867
vn -0.70166016 0.4572754 0.5463867
vn -0.70166016 0.4572754 0.5463867
vn 0.70166016 0.4572754 -0.5463867
vn 0.70166016 0.4572754 -0.5463867
vn 0.70166016 0.4572754 -0.5463867
vn 0.70166016 0.4572754 -0.5463867
vn -0.66308594 0.46166992 -0.58935547
vn -0.66308594 0.46166992 -0.58935547
vn -0.66308594 0.46166992 -0.58935547
vn -0.66308594 0.46166992 -0.58935547
vn 0.0019483566 0.9301758 0.36767578
vn 0.0019483566 0.9301758 0.36767578
vn 0.0019483566 0.9301758 0.36767578
vn 0.0032634735 0.93408203 0.35766602
vn -0.53271484 0.8461914 -0.013580322
vn -0.53271484 0.8461914 -0.013580322
vn -0.53271484 0.8461914 -0.013580322
vn -0.53271484 0.8461914 -0.0135650635
vn -0.017669678 0.9277344 -0.3725586
vn -0.017669678 0.9277344 -0.3725586
vn -0.017669678 0.9277344 -0.3725586
vn -0.019577026 0.9355469 -0.35327148
vn 0.54541016 0.8378906 -0.0020389557
vn 0.54541016 0.8378906 -0.0020389557
vn 0.54541016 0.8378906 -0.0020389557
vn 0.5205078 0.8540039 -0.0029659271
vn 0.004119873 0.62841797 0.77783203
vn 0.004119873 0.62841797 0.77783203
vn 0.004119873 0.62841797 0.77783203
vn 0.0041236877 0.62841797 0.77783203
vn -0.82910156 0.55859375 -0.021133423
vn -0.82910156 0.55859375 -0.021133423
vn -0.82910156 0.55859375 -0.021133423
vn -0.82910156 0.55859375 -0.021133423
vn -0.036865234 0.6279297 -0.77734375
vn -0.036865234 0.6279297 -0.77734375
vn -0.036865234 0.6279297 -0.77734375
vn -0.036865234 0.6279297 -0.77734375
vn 0.82958984 0.55810547 -0.0031032562
vn 0.82958984 0.55810547 -0.0031032562
vn 0.82958984 0.55810547 -0.0031032562
vn 0.82958984 0.55810547 -0.0031032562
vn 0.026672363 0.8774414 0.47851562
vn 0.026672363 0.8774414 0.47851562
vn 0.026672363 0.8774414 0.47851562
vn 0.026672363 0.8774414 0.47851562
vn 0.5654297 0.82421875 -0.035125732
vn 0.5654297 0.82421875 -0.035125732
vn 0.5654297 0.82421875 -0.035125732
vn 0.5654297 0.82421875 -0.035125732
vn -0.026672363 0.8774414 -0.47851562
vn -0.026672363 0.8774414 -0.47851562
vn -0.026672363 0.8774414 -0.47851562
vn -0.026672363 0.8774414 -0.47851562
vn -0.5654297 0.82421875 0.035125732
vn -0.5654297 0.82421875 0.035125732
vn -0.5654297 0.82421875 0.035125732
vn -0.5654297 0.82421875 0.035125732
vn -0.68603516 0.39624023 0.61035156
vn -0.68603516 0.39624023 0.61035156
vn -0.68603516 0.39624023 0.61035156
vn -0.68603516 0.39624023 0.61035156
vn 0.75146484 0.39013672 0.5317383
vn 0.75146484 0.39013672 0.5317383
vn 0.75146484 0.39013672 0.5317383
vn 0.75146484 0.39013672 0.5317383
vn -0.75146484 0.39013672 -0.5317383
vn -0.75146484 0.39013672 -0.5317383
vn -0.75146484 0.39013672 -0.5317383
vn -0.75146484 0.39013672 -0.5317383
vn 0.04586792 0.56640625 0.8227539
vn 0.04586792 0.56640625 0.8227539
vn 0.04586792 0.56640625 0.8227539
vn 0.04586792 0.56640625 0.8227539
vn 0.87597656 0.4794922 -0.05441284
vn 0.87597656 0.4794922 -0.05441284
vn 0.87597656 0.4794922 -0.05441284
vn 0.87597656 0.4794922 -0.05441284
vn -0.87597656 0.4794922 0.05441284
vn -0.87597656 0.4794922 0.05441284
vn -0.87597656 0.4794922 0.05441284
vn -0.87597656 0.4794922 0.05444336
vn 0.4868164 0.15014648 0.86035156
vn 0.4868164 0.15014648 0.86035156
vn 0.4868164 0.15014648 0.86035156
vn 0.4868164 0.15014648 0.86035156
vn -0.84521484 0.2529297 0.47094727
vn -0.84521484 0.2529297 0.47094727
vn -0.84521484 0.2529297 0.47094727
vn -0.84521484 0.2529297 0.4711914
vn 0.8383789 0.2553711 -0.48120117
vn 0.8383789 0.2553711 -0.48120117
vn 0.8383789 0.2553711 -0.48120117
vn 0.8383789 0.2553711 -0.48120117
vn -0.47753906 0.2421875 -0.84472656
vn -0.47753906 0.2421875 -0.84472656
vn -0.47753906 0.2421875 -0.84472656
vn -0.47753906 0.2421875 -0.84472656
vn 0.029953003 0.82666016 -0.5620117
vn 0.029953003 0.82666016 -0.5620117
vn 0.029953003 0.82666016 -0.5620117
vn 0.027389526 0.8383789 -0.5444336
vn -0.9321289 0.3371582 -0.13134766
vn -0.9321289 0.3371582 -0.13134766
vn -0.9321289 0.3371582 -0.13134766
vn -0.9321289 0.3371582 -0.13134766
vn 0.05847168 0.3322754 -0.94140625
vn 0.05847168 0.3322754 -0.94140625
vn 0.05847168 0.3322754 -0.94140625
vn 0.05847168 0.3322754 -0.94140625
vn 0.01309967 0.8774414 0.47924805
vn 0.01309967 0.8774414 0.47924805
vn 0.01309967 0.8774414 0.47924805
vn 0.01309967 0.8774414 0.47924805
vn 0.5654297 0.82421875 -0.035125732
vn 0.5654297 0.82421875 -0.035125732
vn 0.5654297 0.82421875 -0.035125732
vn 0.5654297 0.82421875 -0.035125732
vn -0.01309967 0.8774414 -0.47924805
vn -0.01309967 0.8774414 -0.47924805
vn -0.01309967 0.8774414 -0.47924805
vn -0.01309967 0.8774414 -0.47924805
vn -0.5654297 0.82421875 0.035125732
vn -0.5654297 0.82421875 0.035125732
vn -0.5654297 0.82421875 0.035125732
vn -0.5654297 0.82421875 0.035125732
vn -0.68603516 0.39624023 0.61035156
vn -0.68603516 0.39624023 0.61035156
vn -0.68603516 0.39624023 0.61035156
vn -0.68603516 0.39624023 0.61035156
vn 0.75146484 0.39013672 0.5317383
vn 0.75146484 0.39013672 0.5317383
vn 0.75146484 0.39013672 0.5317383
vn 0.75146484 0.39013672 0.5317383
vn -0.75146484 0.39013672 -0.5317383
vn -0.75146484 0.39013672 -0.5317383
vn -0.75146484 0.39013672 -0.5317383
vn -0.75146484 0.39013672 -0.5317383
vn 0.022521973 0.56640625 0.82373047
vn 0.022521973 0.56640625 0.82373047
vn 0.022521973 0.56640625 0.82373047
vn 0.022521973 0.56640625 0.82373047
vn 0.87597656 0.4794922 -0.05441284
vn 0.87597656 0.4794922 -0.05441284
vn 0.87597656 0.4794922 -0.05441284
vn 0.87597656 0.4794922 -0.05441284
vn -0.87597656 0.4794922 0.05441284
vn -0.87597656 0.4794922 0.05441284
vn -0.87597656 0.4794922 0.05441284
vn -0.87597656 0.4794922 0.05444336
vn -0.0011262894 1 0.0061149597
vn -0.0011262894 1 0.0061149597
vn -0.0011262894 1 0.0061149597
vn 0.00459671 1 -0.0010280609
vn -0.004863739 1 -0.0074768066
vn -0.004863739 1 -0.0074768066
vn -0.004863739 1 -0.0074768066
vn -0.004863739 1 -0.0074768066
vn 1.7881393E-07 1 9.536743E-07
vn 1.7881393E-07 1 9.536743E-07
vn 1.7881393E-07 1 9.536743E-07
vn -1.3113022E-06 1 1.4901161E-06
vn -0 1 1.3709068E-06
vn -0 1 1.3709068E-06
vn -0 1 1.3709068E-06
vn -0 1 1.4305115E-06
vn -0.007205963 1 -0.0084991455
vn -0.007205963 1 -0.0084991455
vn -0.007205963 1 -0.0084991455
vn -0.0072021484 1 -0.0084991455
vn -0 1 1.3709068E-06
vn -0 1 1.3709068E-06
vn -0 1 1.3709068E-06
vn -0 1 1.4901161E-06
g B004_B001_0
f 3/3/3 2/2/2 1/1/1
f 6/6/6 5/5/5 4/4/4
f 9/9/9 8/8/8 7/7/7
f 12/12/12 11/11/11 10/10/10
f 15/15/15 14/14/14 13/13/13
f 18/18/18 17/17/17 16/16/16
f 21/21/21 20/20/20 19/19/19
f 24/24/24 23/23/23 22/22/22
f 27/27/27 26/26/26 25/25/25
f 30/30/30 29/29/29 28/28/28
f 33/33/33 32/32/32 31/31/31
f 36/36/36 35/35/35 34/34/34
f 39/39/39 38/38/38 37/37/37
f 42/42/42 41/41/41 40/40/40
f 45/45/45 44/44/44 43/43/43
f 48/48/48 47/47/47 46/46/46
f 51/51/51 50/50/50 49/49/49
f 54/54/54 53/53/53 52/52/52
f 57/57/57 56/56/56 55/55/55
f 60/60/60 59/59/59 58/58/58
f 63/63/63 62/62/62 61/61/61
f 66/66/66 65/65/65 64/64/64
f 69/69/69 68/68/68 67/67/67
f 72/72/72 71/71/71 70/70/70
f 75/75/75 74/74/74 73/73/73
f 78/78/78 77/77/77 76/76/76
f 81/81/81 80/80/80 79/79/79
f 84/84/84 83/83/83 82/82/82
f 87/87/87 86/86/86 85/85/85
f 90/90/90 89/89/89 88/88/88
f 93/93/93 92/92/92 91/91/91
f 96/96/96 95/95/95 94/94/94
f 99/99/99 98/98/98 97/97/97
f 102/102/102 101/101/101 100/100/100
f 105/105/105 104/104/104 103/103/103
f 108/108/108 107/107/107 106/106/106
f 111/111/111 110/110/110 109/109/109
f 114/114/114 113/113/113 112/112/112
f 117/117/117 116/116/116 115/115/115
f 120/120/120 119/119/119 118/118/118
f 123/123/123 122/122/122 121/121/121
f 122/122/122 123/123/123 124/124/124
f 127/127/127 126/126/126 125/125/125
f 126/126/126 127/127/127 128/128/128
f 131/131/131 130/130/130 129/129/129
f 130/130/130 131/131/131 132/132/132
f 135/135/135 134/134/134 133/133/133
f 134/134/134 135/135/135 136/136/136
f 139/139/139 138/138/138 137/137/137
f 138/138/138 139/139/139 140/140/140
f 143/143/143 142/142/142 141/141/141
f 142/142/142 143/143/143 144/144/144
f 147/147/147 146/146/146 145/145/145
f 146/146/146 147/147/147 148/148/148
f 151/151/151 150/150/150 149/149/149
f 150/150/150 151/151/151 152/152/152
f 155/155/155 154/154/154 153/153/153
f 154/154/154 155/155/155 156/156/156
f 159/159/159 158/158/158 157/157/157
f 158/158/158 159/159/159 160/160/160
f 163/163/163 162/162/162 161/161/161
f 162/162/162 163/163/163 164/164/164
f 167/167/167 166/166/166 165/165/165
f 166/166/166 167/167/167 168/168/168
f 171/171/171 170/170/170 169/169/169
f 170/170/170 171/171/171 172/172/172
f 175/175/175 174/174/174 173/173/173
f 174/174/174 175/175/175 176/176/176
f 179/179/179 178/178/178 177/177/177
f 178/178/178 179/179/179 180/180/180
f 183/183/183 182/182/182 181/181/181
f 182/182/182 183/183/183 184/184/184
f 187/187/187 186/186/186 185/185/185
f 186/186/186 187/187/187 188/188/188
f 191/191/191 190/190/190 189/189/189
f 190/190/190 191/191/191 192/192/192
f 195/195/195 194/194/194 193/193/193
f 194/194/194 195/195/195 196/196/196
f 199/199/199 198/198/198 197/197/197
f 198/198/198 199/199/199 200/200/200
f 203/203/203 202/202/202 201/201/201
f 202/202/202 203/203/203 204/204/204
f 207/207/207 206/206/206 205/205/205
f 206/206/206 207/207/207 208/208/208
f 211/211/211 210/210/210 209/209/209
f 210/210/210 211/211/211 212/212/212
f 215/215/215 214/214/214 213/213/213
f 214/214/214 215/215/215 216/216/216
f 219/219/219 218/218/218 217/217/217
f 218/218/218 219/219/219 220/220/220
f 223/223/223 222/222/222 221/221/221
f 222/222/222 223/223/223 224/224/224
f 227/227/227 226/226/226 225/225/225
f 226/226/226 227/227/227 228/228/228
f 231/231/231 230/230/230 229/229/229
f 230/230/230 231/231/231 232/232/232
f 235/235/235 234/234/234 233/233/233
f 234/234/234 235/235/235 236/236/236
f 239/239/239 238/238/238 237/237/237
f 238/238/238 239/239/239 240/240/240
f 243/243/243 242/242/242 241/241/241
f 242/242/242 243/243/243 244/244/244
f 247/247/247 246/246/246 245/245/245
f 246/246/246 247/247/247 248/248/248
f 251/251/251 250/250/250 249/249/249
f 250/250/250 251/251/251 252/252/252
f 255/255/255 254/254/254 253/253/253
f 254/254/254 255/255/255 256/256/256
f 259/259/259 258/258/258 257/257/257
f 258/258/258 259/259/259 260/260/260
f 263/263/263 262/262/262 261/261/261
f 262/262/262 263/263/263 264/264/264
f 267/267/267 266/266/266 265/265/265
f 266/266/266 267/267/267 268/268/268
f 271/271/271 270/270/270 269/269/269
f 270/270/270 271/271/271 272/272/272
f 275/275/275 274/274/274 273/273/273
f 274/274/274 275/275/275 276/276/276
f 279/279/279 278/278/278 277/277/277
f 278/278/278 279/279/279 280/280/280
f 283/283/283 282/282/282 281/281/281
f 282/282/282 283/283/283 284/284/284
f 287/287/287 286/286/286 285/285/285
f 286/286/286 287/287/287 288/288/288
f 291/291/291 290/290/290 289/289/289
f 290/290/290 291/291/291 292/292/292
f 295/295/295 294/294/294 293/293/293
f 294/294/294 295/295/295 296/296/296
f 299/299/299 298/298/298 297/297/297
f 298/298/298 299/299/299 300/300/300
f 303/303/303 302/302/302 301/301/301
f 302/302/302 303/303/303 304/304/304
f 307/307/307 306/306/306 305/305/305
f 306/306/306 307/307/307 308/308/308
f 311/311/311 310/310/310 309/309/309
f 310/310/310 311/311/311 312/312/312
f 315/315/315 314/314/314 313/313/313
f 314/314/314 315/315/315 316/316/316
f 319/319/319 318/318/318 317/317/317
f 318/318/318 319/319/319 320/320/320
f 323/323/323 322/322/322 321/321/321
f 322/322/322 323/323/323 324/324/324
f 327/327/327 326/326/326 325/325/325
f 326/326/326 327/327/327 328/328/328
f 331/331/331 330/330/330 329/329/329
f 330/330/330 331/331/331 332/332/332
f 335/335/335 334/334/334 333/333/333
f 334/334/334 335/335/335 336/336/336
f 339/339/339 338/338/338 337/337/337
f 338/338/338 339/339/339 340/340/340
f 343/343/343 342/342/342 341/341/341
f 342/342/342 343/343/343 344/344/344
f 347/347/347 346/346/346 345/345/345
f 346/346/346 347/347/347 348/348/348
f 351/351/351 350/350/350 349/349/349
f 350/350/350 351/351/351 352/352/352
g B004_B001_1
f 355/355/355 354/354/354 353/353/353
f 358/358/358 357/357/357 356/356/356
f 361/361/361 360/360/360 359/359/359
f 364/364/364 363/363/363 362/362/362
f 367/367/367 366/366/366 365/365/365
f 370/370/370 369/369/369 368/368/368
f 373/373/373 372/372/372 371/371/371
f 376/376/376 375/375/375 374/374/374
f 379/379/379 378/378/378 377/377/377
f 378/378/378 379/379/379 380/380/380
f 383/383/383 382/382/382 381/381/381
f 382/382/382 383/383/383 384/384/384
f 387/387/387 386/386/386 385/385/385
f 386/386/386 387/387/387 388/388/388
f 391/391/391 390/390/390 389/389/389
f 390/390/390 391/391/391 392/392/392
f 395/395/395 394/394/394 393/393/393
f 394/394/394 395/395/395 396/396/396
f 399/399/399 398/398/398 397/397/397
f 398/398/398 399/399/399 400/400/400
f 403/403/403 402/402/402 401/401/401
f 402/402/402 403/403/403 404/404/404
f 407/407/407 406/406/406 405/405/405
f 406/406/406 407/407/407 408/408/408
g B004_B001_2
f 411/411/411 410/410/410 409/409/409
f 414/414/414 413/413/413 412/412/412
f 417/417/417 416/416/416 415/415/415
f 420/420/420 419/419/419 418/418/418
f 423/423/423 422/422/422 421/421/421
f 426/426/426 425/425/425 424/424/424
f 429/429/429 428/428/428 427/427/427
f 432/432/432 431/431/431 430/430/430
f 435/435/435 434/434/434 433/433/433
f 438/438/438 437/437/437 436/436/436
f 441/441/441 440/440/440 439/439/439
f 444/444/444 443/443/443 442/442/442
f 447/447/447 446/446/446 445/445/445
f 450/450/450 449/449/449 448/448/448
f 453/453/453 452/452/452 451/451/451
f 456/456/456 455/455/455 454/454/454
f 459/459/459 458/458/458 457/457/457
f 462/462/462 461/461/461 460/460/460
f 465/465/465 464/464/464 463/463/463
f 468/468/468 467/467/467 466/466/466
f 471/471/471 470/470/470 469/469/469
f 474/474/474 473/473/473 472/472/472
f 477/477/477 476/476/476 475/475/475
f 480/480/480 479/479/479 478/478/478
f 483/483/483 482/482/482 481/481/481
f 486/486/486 485/485/485 484/484/484
f 489/489/489 488/488/488 487/487/487
f 492/492/492 491/491/491 490/490/490
f 495/495/495 494/494/494 493/493/493
f 498/498/498 497/497/497 496/496/496
f 501/501/501 500/500/500 499/499/499
f 504/504/504 503/503/503 502/502/502
f 507/507/507 506/506/506 505/505/505
f 510/510/510 509/509/509 508/508/508
f 513/513/513 512/512/512 511/511/511
f 516/516/516 515/515/515 514/514/514
f 519/519/519 518/518/518 517/517/517
f 522/522/522 521/521/521 520/520/520
f 525/525/525 524/524/524 523/523/523
f 528/528/528 527/527/527 526/526/526
f 531/531/531 530/530/530 529/529/529
f 534/534/534 533/533/533 532/532/532
f 537/537/537 536/536/536 535/535/535
f 540/540/540 539/539/539 538/538/538
f 543/543/543 542/542/542 541/541/541
f 546/546/546 545/545/545 544/544/544
f 549/549/549 548/548/548 547/547/547
f 552/552/552 551/551/551 550/550/550
f 555/555/555 554/554/554 553/553/553
f 558/558/558 557/557/557 556/556/556
f 561/561/561 560/560/560 559/559/559
f 564/564/564 563/563/563 562/562/562
f 567/567/567 566/566/566 565/565/565
f 570/570/570 569/569/569 568/568/568
f 573/573/573 572/572/572 571/571/571
f 576/576/576 575/575/575 574/574/574
f 579/579/579 578/578/578 577/577/577
f 582/582/582 581/581/581 580/580/580
f 585/585/585 584/584/584 583/583/583
f 588/588/588 587/587/587 586/586/586
f 591/591/591 590/590/590 589/589/589
f 594/594/594 593/593/593 592/592/592
f 597/597/597 596/596/596 595/595/595
f 600/600/600 599/599/599 598/598/598
f 603/603/603 602/602/602 601/601/601
f 606/606/606 605/605/605 604/604/604
f 609/609/609 608/608/608 607/607/607
f 608/608/608 609/609/609 610/610/610
f 613/613/613 612/612/612 611/611/611
f 612/612/612 613/613/613 614/614/614
f 617/617/617 616/616/616 615/615/615
f 616/616/616 617/617/617 618/618/618
f 621/621/621 620/620/620 619/619/619
f 620/620/620 621/621/621 622/622/622
f 625/625/625 624/624/624 623/623/623
f 624/624/624 625/625/625 626/626/626
f 629/629/629 628/628/628 627/627/627
f 628/628/628 629/629/629 630/630/630
f 633/633/633 632/632/632 631/631/631
f 632/632/632 633/633/633 634/634/634
f 637/637/637 636/636/636 635/635/635
f 636/636/636 637/637/637 638/638/638
f 641/641/641 640/640/640 639/639/639
f 640/640/640 641/641/641 642/642/642
f 645/645/645 644/644/644 643/643/643
f 644/644/644 645/645/645 646/646/646
f 649/649/649 648/648/648 647/647/647
f 648/648/648 649/649/649 650/650/650
f 653/653/653 652/652/652 651/651/651
f 652/652/652 653/653/653 654/654/654
f 657/657/657 656/656/656 655/655/655
f 656/656/656 657/657/657 658/658/658
f 661/661/661 660/660/660 659/659/659
f 660/660/660 661/661/661 662/662/662
f 665/665/665 664/664/664 663/663/663
f 664/664/664 665/665/665 666/666/666
f 669/669/669 668/668/668 667/667/667
f 668/668/668 669/669/669 670/670/670
f 673/673/673 672/672/672 671/671/671
f 672/672/672 673/673/673 674/674/674
f 677/677/677 676/676/676 675/675/675
f 676/676/676 677/677/677 678/678/678
f 681/681/681 680/680/680 679/679/679
f 680/680/680 681/681/681 682/682/682
f 685/685/685 684/684/684 683/683/683
f 684/684/684 685/685/685 686/686/686
f 689/689/689 688/688/688 687/687/687
f 688/688/688 689/689/689 690/690/690
f 693/693/693 692/692/692 691/691/691
f 692/692/692 693/693/693 694/694/694
f 697/697/697 696/696/696 695/695/695
f 696/696/696 697/697/697 698/698/698
f 701/701/701 700/700/700 699/699/699
f 700/700/700 701/701/701 702/702/702
f 705/705/705 704/704/704 703/703/703
f 704/704/704 705/705/705 706/706/706
f 709/709/709 708/708/708 707/707/707
f 708/708/708 709/709/709 710/710/710
f 713/713/713 712/712/712 711/711/711
f 712/712/712 713/713/713 714/714/714
f 717/717/717 716/716/716 715/715/715
f 716/716/716 717/717/717 718/718/718
f 721/721/721 720/720/720 719/719/719
f 720/720/720 721/721/721 722/722/722
f 725/725/725 724/724/724 723/723/723
f 724/724/724 725/725/725 726/726/726
f 729/729/729 728/728/728 727/727/727
f 728/728/728 729/729/729 730/730/730
f 733/733/733 732/732/732 731/731/731
f 732/732/732 733/733/733 734/734/734
f 737/737/737 736/736/736 735/735/735
f 736/736/736 737/737/737 738/738/738
f 741/741/741 740/740/740 739/739/739
f 740/740/740 741/741/741 742/742/742
f 745/745/745 744/744/744 743/743/743
f 744/744/744 745/745/745 746/746/746
f 749/749/749 748/748/748 747/747/747
f 748/748/748 749/749/749 750/750/750
f 753/753/753 752/752/752 751/751/751
f 752/752/752 753/753/753 754/754/754
f 757/757/757 756/756/756 755/755/755
f 756/756/756 757/757/757 758/758/758
f 761/761/761 760/760/760 759/759/759
f 760/760/760 761/761/761 762/762/762
f 765/765/765 764/764/764 763/763/763
f 764/764/764 765/765/765 766/766/766
f 769/769/769 768/768/768 767/767/767
f 768/768/768 769/769/769 770/770/770
f 773/773/773 772/772/772 771/771/771
f 772/772/772 773/773/773 774/774/774
f 777/777/777 776/776/776 775/775/775
f 776/776/776 777/777/777 778/778/778
f 781/781/781 780/780/780 779/779/779
f 780/780/780 781/781/781 782/782/782
f 785/785/785 784/784/784 783/783/783
f 784/784/784 785/785/785 786/786/786
f 789/789/789 788/788/788 787/787/787
f 788/788/788 789/789/789 790/790/790
f 793/793/793 792/792/792 791/791/791
f 792/792/792 793/793/793 794/794/794
f 797/797/797 796/796/796 795/795/795
f 796/796/796 797/797/797 798/798/798
f 801/801/801 800/800/800 799/799/799
f 800/800/800 801/801/801 802/802/802
f 805/805/805 804/804/804 803/803/803
f 804/804/804 805/805/805 806/806/806
f 809/809/809 808/808/808 807/807/807
f 808/808/808 809/809/809 810/810/810
g B004_B001_3
f 813/813/813 812/812/812 811/811/811
f 812/812/812 813/813/813 814/814/814
f 817/817/817 816/816/816 815/815/815
f 816/816/816 817/817/817 818/818/818
f 821/821/821 820/820/820 819/819/819
f 820/820/820 821/821/821 822/822/822
f 825/825/825 824/824/824 823/823/823
f 824/824/824 825/825/825 826/826/826
f 829/829/829 828/828/828 827/827/827
f 828/828/828 829/829/829 830/830/830
f 833/833/833 832/832/832 831/831/831
f 832/832/832 833/833/833 834/834/834
