g Block_946
v -1.8334705 0.195 4.3203034
v -1.8334694 -2.5260209E-16 4.125305
v -2.0284688 0.19500092 4.125305
v 1.8334711 -2.5260209E-16 4.125305
v 1.8334697 0.195 4.3203044
v 2.0284722 0.19500092 4.125305
v -2.0284677 0.19500153 -4.125309
v -1.8334686 9.155273E-07 -4.1253085
v -1.8334686 0.19500183 -4.320305
v 1.8334713 9.155273E-07 -4.125309
v 2.028473 0.19500214 -4.125309
v 1.8334713 0.19500183 -4.320305
v -1.8334719 5.79136 4.271557
v -1.9797194 5.7913604 4.1253076
v -1.8334692 5.890412 4.125306
v 1.9797225 5.7913613 4.1253076
v 1.8334697 5.791361 4.271557
v 1.8334713 5.8904123 4.125306
v -1.979718 5.791361 -4.1253066
v -1.8334683 5.791361 -4.271556
v -1.8334686 5.8904123 -4.125308
v 1.833474 5.791361 -4.271554
v 1.9797244 5.791361 -4.1253066
v 1.8334723 5.8904123 -4.125308
v -2.0284688 5.6954126 4.1253057
v -1.8334719 5.79136 4.271557
v -1.8334702 5.6954126 4.320305
v -1.9797194 5.7913604 4.1253076
v 1.8334705 5.6954126 4.320306
v 1.9797225 5.7913613 4.1253076
v 2.0284727 5.6954126 4.125306
v 1.8334697 5.791361 4.271557
v -1.8334684 5.6954126 -4.3203044
v -1.979718 5.791361 -4.1253066
v -2.0284677 5.6954126 -4.125308
v -1.8334683 5.791361 -4.271556
v 2.0284739 5.6954126 -4.125308
v 1.833474 5.791361 -4.271554
v 1.8334723 5.6954126 -4.3203044
v 1.9797244 5.791361 -4.1253066
v -1.8334686 9.155273E-07 -4.1253085
v 1.8334713 0.19500183 -4.320305
v -1.8334686 0.19500183 -4.320305
v 1.8334713 9.155273E-07 -4.125309
v -1.8334719 5.79136 4.271557
v 1.8334713 5.8904123 4.125306
v 1.8334697 5.791361 4.271557
v -1.8334692 5.890412 4.125306
v -1.8334719 5.79136 4.271557
v 1.8334705 5.6954126 4.320306
v -1.8334702 5.6954126 4.320305
v 1.8334697 5.791361 4.271557
v 1.8334697 0.195 4.3203044
v 2.0284727 5.6954126 4.125306
v 2.0284722 0.19500092 4.125305
v 1.8334705 5.6954126 4.320306
v -1.8334702 5.6954126 4.320305
v -2.0284688 0.19500092 4.125305
v -2.0284688 5.6954126 4.1253057
v -1.8334705 0.195 4.3203034
v 2.028473 0.19500214 -4.125309
v 1.8334723 5.6954126 -4.3203044
v 1.8334713 0.19500183 -4.320305
v 2.0284739 5.6954126 -4.125308
v -1.8334686 0.19500183 -4.320305
v -2.0284677 5.6954126 -4.125308
v -2.0284677 0.19500153 -4.125309
v -1.8334684 5.6954126 -4.3203044
v -1.8334686 0.19500183 -4.320305
v 1.8334723 5.6954126 -4.3203044
v -1.8334684 5.6954126 -4.3203044
v 1.8334713 0.19500183 -4.320305
v 1.8334711 -2.5260209E-16 4.125305
v -1.8334705 0.195 4.3203034
v 1.8334697 0.195 4.3203044
v -1.8334694 -2.5260209E-16 4.125305
v 1.8334723 5.8904123 -4.125308
v -1.8334683 5.791361 -4.271556
v 1.833474 5.791361 -4.271554
v -1.8334686 5.8904123 -4.125308
v 1.833474 5.791361 -4.271554
v -1.8334684 5.6954126 -4.3203044
v 1.8334723 5.6954126 -4.3203044
v -1.8334683 5.791361 -4.271556
v -1.8334705 0.195 4.3203034
v 1.8334705 5.6954126 4.320306
v 1.8334697 0.195 4.3203044
v -1.8334702 5.6954126 4.320305
v 1.8334713 9.155273E-07 -4.125309
v -1.833469 6.1035155E-07 1.3751007
v 1.8334711 9.155273E-07 1.3750998
v -1.8334686 9.155273E-07 -4.1253085
v 1.8334717 5.8904123 1.375101
v -1.8334686 5.8904123 -4.125308
v 1.8334723 5.8904123 -4.125308
v -1.8334689 5.8904123 1.375101
v 2.028473 5.6954126 1.375101
v 2.028473 0.19500214 -4.125309
v 2.0284727 0.19500153 1.3750998
v 2.0284739 5.6954126 -4.125308
v -2.0284684 5.6954126 1.3751007
v -2.0284677 0.19500153 -4.125309
v -2.0284677 5.6954126 -4.125308
v -2.0284684 0.19500153 1.3751004
v -2.0284677 0.19500153 -4.125309
v -1.833469 6.1035155E-07 1.3751007
v -1.8334686 9.155273E-07 -4.1253085
v -2.0284684 0.19500153 1.3751004
v 1.8334713 9.155273E-07 -4.125309
v 2.0284727 0.19500153 1.3750998
v 2.028473 0.19500214 -4.125309
v 1.8334711 9.155273E-07 1.3750998
v 1.9797244 5.791361 -4.1253066
v 1.8334717 5.8904123 1.375101
v 1.8334723 5.8904123 -4.125308
v 1.9797232 5.791361 1.3751019
v -1.979718 5.791361 -4.1253066
v -1.8334689 5.8904123 1.375101
v -1.9797189 5.791361 1.3751025
v -1.8334686 5.8904123 -4.125308
v 2.0284739 5.6954126 -4.125308
v 1.9797232 5.791361 1.3751019
v 1.9797244 5.791361 -4.1253066
v 2.028473 5.6954126 1.375101
v -1.979718 5.791361 -4.1253066
v -2.0284684 5.6954126 1.3751007
v -2.0284677 5.6954126 -4.125308
v -1.9797189 5.791361 1.3751025
v 1.8334717 5.8904123 1.375101
v -1.8334692 5.890412 4.125306
v -1.8334689 5.8904123 1.375101
v 1.8334713 5.8904123 4.125306
v -2.0284684 5.6954126 1.3751007
v -2.0284688 0.19500092 4.125305
v -2.0284684 0.19500153 1.3751004
v -2.0284688 5.6954126 4.1253057
v 1.8334711 9.155273E-07 1.3750998
v -1.8334694 -2.5260209E-16 4.125305
v 1.8334711 -2.5260209E-16 4.125305
v -1.833469 6.1035155E-07 1.3751007
v -1.8334694 -2.5260209E-16 4.125305
v -2.0284684 0.19500153 1.3751004
v -2.0284688 0.19500092 4.125305
v -1.833469 6.1035155E-07 1.3751007
v 2.0284722 0.19500092 4.125305
v 1.8334711 9.155273E-07 1.3750998
v 1.8334711 -2.5260209E-16 4.125305
v 2.0284727 0.19500153 1.3750998
v 1.8334713 5.8904123 4.125306
v 1.9797232 5.791361 1.3751019
v 1.9797225 5.7913613 4.1253076
v 1.8334717 5.8904123 1.375101
v -1.9797194 5.7913604 4.1253076
v -1.8334689 5.8904123 1.375101
v -1.8334692 5.890412 4.125306
v -1.9797189 5.791361 1.3751025
v 1.9797225 5.7913613 4.1253076
v 2.028473 5.6954126 1.375101
v 2.0284727 5.6954126 4.125306
v 1.9797232 5.791361 1.3751019
v -2.0284688 5.6954126 4.1253057
v -1.9797189 5.791361 1.3751025
v -1.9797194 5.7913604 4.1253076
v -2.0284684 5.6954126 1.3751007
v 2.028473 5.6954126 1.375101
v 2.0284722 0.19500092 4.125305
v 2.0284727 5.6954126 4.125306
v 2.0284727 0.19500153 1.3750998
vt 0.4958496 0.5097656
vt 0.48242188 0.5019531
vt 0.48242188 0.5175781
vt 0.48242188 0.5019531
vt 0.48242188 0.5175781
vt 0.4958496 0.5097656
vt 0.4958496 0.5097656
vt 0.48242188 0.5019531
vt 0.48242188 0.5175781
vt 0.48242188 0.5019531
vt 0.48242188 0.5175781
vt 0.4958496 0.5097656
vt 0.9946289 0.47753906
vt 0.9711914 0.47753906
vt 0.98291016 0.48999023
vt 0.9946289 0.47753906
vt 0.9711914 0.47753906
vt 0.98291016 0.48999023
vt 0.9946289 0.47753906
vt 0.9711914 0.47753906
vt 0.98291016 0.48999023
vt 0.9946289 0.47753906
vt 0.9711914 0.47753906
vt 0.98291016 0.48999023
vt 0.9711914 0.4699707
vt 0.9946289 0.47753906
vt 0.9946289 0.4699707
vt 0.9711914 0.47753906
vt 0.9711914 0.4699707
vt 0.9946289 0.47753906
vt 0.9946289 0.4699707
vt 0.9711914 0.47753906
vt 0.9711914 0.4699707
vt 0.9946289 0.47753906
vt 0.9946289 0.4699707
vt 0.9711914 0.47753906
vt 0.9711914 0.4699707
vt 0.9946289 0.47753906
vt 0.9946289 0.4699707
vt 0.9711914 0.47753906
vt 0.32226562 0.5019531
vt 0.0020103455 0.5175781
vt 0.32226562 0.5175781
vt 0.0020103455 0.5019531
vt 0.6591797 0.47753906
vt 0.9711914 0.48999023
vt 0.9711914 0.47753906
vt 0.6591797 0.48999023
vt 0.6591797 0.47753906
vt 0.9711914 0.4699707
vt 0.6591797 0.4699707
vt 0.9711914 0.47753906
vt 0.48242188 0.5175781
vt 0.49804688 0.9980469
vt 0.49804688 0.5175781
vt 0.48242188 0.9980469
vt 0.49804688 0.9980469
vt 0.48242188 0.5175781
vt 0.48242188 0.9980469
vt 0.49804688 0.5175781
vt 0.48242188 0.5175781
vt 0.49804688 0.9980469
vt 0.49804688 0.5175781
vt 0.48242188 0.9980469
vt 0.48242188 0.5175781
vt 0.49804688 0.9980469
vt 0.49804688 0.5175781
vt 0.48242188 0.9980469
vt 0.32226562 0.5175781
vt 0.0020103455 0.9980469
vt 0.32226562 0.9980469
vt 0.0020103455 0.5175781
vt 0.48242188 0.5019531
vt 0.16223145 0.5175781
vt 0.48242188 0.5175781
vt 0.16223145 0.5019531
vt 0.50341797 0.48999023
vt 0.8149414 0.47753906
vt 0.50341797 0.47753906
vt 0.8149414 0.48999023
vt 0.50341797 0.47753906
vt 0.8149414 0.4699707
vt 0.50341797 0.4699707
vt 0.8149414 0.47753906
vt 0.16223145 0.5175781
vt 0.48242188 0.9980469
vt 0.48242188 0.5175781
vt 0.16223145 0.9980469
vt 0.5019531 0.9980469
vt 0.83251953 0.5019531
vt 0.5019531 0.5019531
vt 0.83251953 0.9980469
vt 0.49804688 0.0020065308
vt 0.1673584 0.49804688
vt 0.49804688 0.49804688
vt 0.1673584 0.0020065308
vt 0.0020103455 0.9980469
vt 0.48242188 0.5175781
vt 0.0020103455 0.5175781
vt 0.48242188 0.9980469
vt 0.48242188 0.9980469
vt 0.0020103455 0.5175781
vt 0.0020103455 0.9980469
vt 0.48242188 0.5175781
vt 0.0020103455 0.5175781
vt 0.48242188 0.5019531
vt 0.0020103455 0.5019531
vt 0.48242188 0.5175781
vt 0.48242188 0.5019531
vt 0.0020103455 0.5175781
vt 0.48242188 0.5175781
vt 0.0020103455 0.5019531
vt 0.9711914 0.47753906
vt 0.50341797 0.48999023
vt 0.9711914 0.48999023
vt 0.50341797 0.47753906
vt 0.50341797 0.47753906
vt 0.9711914 0.48999023
vt 0.9711914 0.47753906
vt 0.50341797 0.48999023
vt 0.9711914 0.4699707
vt 0.50341797 0.47753906
vt 0.9711914 0.47753906
vt 0.50341797 0.4699707
vt 0.50341797 0.47753906
vt 0.9711914 0.4699707
vt 0.50341797 0.4699707
vt 0.9711914 0.47753906
vt 0.49804688 0.49804688
vt 0.1673584 0.25
vt 0.1673584 0.49804688
vt 0.49804688 0.25
vt 0.0020103455 0.9980469
vt 0.24230957 0.5175781
vt 0.0020103455 0.5175781
vt 0.24230957 0.9980469
vt 0.5019531 0.9980469
vt 0.83251953 0.75
vt 0.5019531 0.75
vt 0.83251953 0.9980469
vt 0.24230957 0.5019531
vt 0.0020103455 0.5175781
vt 0.24230957 0.5175781
vt 0.0020103455 0.5019531
vt 0.24230957 0.5175781
vt 0.48242188 0.5019531
vt 0.24230957 0.5019531
vt 0.48242188 0.5175781
vt 0.7373047 0.48999023
vt 0.9711914 0.47753906
vt 0.7373047 0.47753906
vt 0.9711914 0.48999023
vt 0.7373047 0.47753906
vt 0.50341797 0.48999023
vt 0.7373047 0.48999023
vt 0.50341797 0.47753906
vt 0.7373047 0.47753906
vt 0.9711914 0.4699707
vt 0.7373047 0.4699707
vt 0.9711914 0.47753906
vt 0.7373047 0.4699707
vt 0.50341797 0.47753906
vt 0.7373047 0.47753906
vt 0.50341797 0.4699707
vt 0.48242188 0.9980469
vt 0.24230957 0.5175781
vt 0.24230957 0.9980469
vt 0.48242188 0.5175781
vn -0.57714844 -0.57714844 0.57714844
vn -0.57714844 -0.57714844 0.57714844
vn -0.57714844 -0.57714844 0.57714844
vn 0.57714844 -0.57714844 0.57714844
vn 0.57714844 -0.57714844 0.57714844
vn 0.57714844 -0.57714844 0.57714844
vn -0.57714844 -0.57714844 -0.57714844
vn -0.57714844 -0.57714844 -0.57714844
vn -0.57714844 -0.57714844 -0.57714844
vn 0.57714844 -0.57714844 -0.57714844
vn 0.57714844 -0.57714844 -0.57714844
vn 0.57714844 -0.57714844 -0.57714844
vn -0.48901367 0.72216797 0.48901367
vn -0.48901367 0.72216797 0.48901367
vn -0.48901367 0.72216797 0.48901367
vn 0.48901367 0.72216797 0.48901367
vn 0.48901367 0.72216797 0.48901367
vn 0.48901367 0.72216797 0.48901367
vn -0.48901367 0.72216797 -0.48901367
vn -0.48901367 0.72216797 -0.48901367
vn -0.48901367 0.72216797 -0.48901367
vn 0.48901367 0.72216797 -0.48901367
vn 0.48901367 0.72216797 -0.48901367
vn 0.48901367 0.72216797 -0.48901367
vn -0.66552734 0.33813477 0.66552734
vn -0.66552734 0.33813477 0.66552734
vn -0.66552734 0.33813477 0.66552734
vn -0.66552734 0.33813477 0.66552734
vn 0.66552734 0.33813477 0.66552734
vn 0.66552734 0.33813477 0.66552734
vn 0.66552734 0.33813477 0.66552734
vn 0.66552734 0.33813477 0.66552734
vn -0.66552734 0.33813477 -0.66552734
vn -0.66552734 0.33813477 -0.66552734
vn -0.66552734 0.33813477 -0.66552734
vn -0.66552734 0.33813477 -0.66552734
vn 0.66552734 0.33813477 -0.66552734
vn 0.66552734 0.33813477 -0.66552734
vn 0.66552734 0.33813477 -0.66552734
vn 0.66552734 0.33813477 -0.66552734
vn -0 -0.70703125 -0.70703125
vn -0 -0.70703125 -0.70703125
vn -0 -0.70703125 -0.70703125
vn -0 -0.70703125 -0.70703125
vn -2.9802322E-07 0.828125 0.5605469
vn -2.9802322E-07 0.828125 0.5605469
vn -2.9802322E-07 0.828125 0.5605469
vn -1.1920929E-07 0.828125 0.5605469
vn -1.1920929E-07 0.45288086 0.89160156
vn -1.1920929E-07 0.45288086 0.89160156
vn -1.1920929E-07 0.45288086 0.89160156
vn -1.7881393E-07 0.45288086 0.89160156
vn 0.70703125 -1.7881393E-07 0.70703125
vn 0.70703125 -1.7881393E-07 0.70703125
vn 0.70703125 -1.7881393E-07 0.70703125
vn 0.70703125 -2.3841858E-07 0.70703125
vn -0.70703125 0 0.70703125
vn -0.70703125 0 0.70703125
vn -0.70703125 0 0.70703125
vn -0.70703125 -2.3841858E-07 0.70703125
vn 0.70703125 0 -0.70703125
vn 0.70703125 0 -0.70703125
vn 0.70703125 0 -0.70703125
vn 0.70703125 0 -0.70703125
vn -0.70703125 1.1920929E-07 -0.70703125
vn -0.70703125 1.1920929E-07 -0.70703125
vn -0.70703125 1.1920929E-07 -0.70703125
vn -0.70703125 0 -0.70703125
vn -0 1.1920929E-07 -1
vn -0 1.1920929E-07 -1
vn -0 1.1920929E-07 -1
vn -0 1.7881393E-07 -1
vn -2.3841858E-07 -0.70703125 0.70703125
vn -2.3841858E-07 -0.70703125 0.70703125
vn -2.3841858E-07 -0.70703125 0.70703125
vn -0 -0.70703125 0.70703125
vn 2.3841858E-07 0.828125 -0.5605469
vn 2.3841858E-07 0.828125 -0.5605469
vn 2.3841858E-07 0.828125 -0.5605469
vn -0 0.828125 -0.5605469
vn -0 0.45288086 -0.89160156
vn -0 0.45288086 -0.89160156
vn -0 0.45288086 -0.89160156
vn 3.5762787E-07 0.45288086 -0.89160156
vn -3.5762787E-07 -2.3841858E-07 1
vn -3.5762787E-07 -2.3841858E-07 1
vn -3.5762787E-07 -2.3841858E-07 1
vn -1.7881393E-07 -3.5762787E-07 1
vn -0 -1 0
vn -0 -1 0
vn -0 -1 0
vn -0 -1 0
vn -0 1 0
vn -0 1 0
vn -0 1 0
vn -0 1 0
vn 1 0 0
vn 1 0 0
vn 1 0 0
vn 1 -1.7881393E-07 1.7881393E-07
vn -1 0 -1.1920929E-07
vn -1 0 -1.1920929E-07
vn -1 0 -1.1920929E-07
vn -1 0 -1.1920929E-07
vn -0.70703125 -0.70703125 0
vn -0.70703125 -0.70703125 0
vn -0.70703125 -0.70703125 0
vn -0.70703125 -0.70703125 0
vn 0.70703125 -0.70703125 0
vn 0.70703125 -0.70703125 0
vn 0.70703125 -0.70703125 0
vn 0.70703125 -0.70703125 0
vn 0.5605469 0.828125 0
vn 0.5605469 0.828125 0
vn 0.5605469 0.828125 0
vn 0.5605469 0.828125 1.1920929E-07
vn -0.5605469 0.828125 0
vn -0.5605469 0.828125 0
vn -0.5605469 0.828125 0
vn -0.5605469 0.828125 0
vn 0.89160156 0.45288086 1.7881393E-07
vn 0.89160156 0.45288086 1.7881393E-07
vn 0.89160156 0.45288086 1.7881393E-07
vn 0.89160156 0.45288086 1.1920929E-07
vn -0.89160156 0.45288086 -1.1920929E-07
vn -0.89160156 0.45288086 -1.1920929E-07
vn -0.89160156 0.45288086 -1.1920929E-07
vn -0.89160156 0.45288086 -1.1920929E-07
vn -0 1 2.3841858E-07
vn -0 1 2.3841858E-07
vn -0 1 2.3841858E-07
vn -1.7881393E-07 1 0
vn -1 0 -1.7881393E-07
vn -1 0 -1.7881393E-07
vn -1 0 -1.7881393E-07
vn -1 0 -1.7881393E-07
vn -0 -1 -3.5762787E-07
vn -0 -1 -3.5762787E-07
vn -0 -1 -3.5762787E-07
vn -0 -1 -2.3841858E-07
vn -0.70703125 -0.70703125 -2.9802322E-07
vn -0.70703125 -0.70703125 -2.9802322E-07
vn -0.70703125 -0.70703125 -2.9802322E-07
vn -0.70703125 -0.70703125 -2.3841858E-07
vn 0.70703125 -0.70703125 -2.3841858E-07
vn 0.70703125 -0.70703125 -2.3841858E-07
vn 0.70703125 -0.70703125 -2.3841858E-07
vn 0.70703125 -0.70703125 0
vn 0.5605469 0.828125 0
vn 0.5605469 0.828125 0
vn 0.5605469 0.828125 0
vn 0.5605469 0.828125 0
vn -0.5605469 0.828125 1.1920929E-07
vn -0.5605469 0.828125 1.1920929E-07
vn -0.5605469 0.828125 1.1920929E-07
vn -0.5605469 0.828125 0
vn 0.89160156 0.45288086 0
vn 0.89160156 0.45288086 0
vn 0.89160156 0.45288086 0
vn 0.89160156 0.45288086 0
vn -0.89160156 0.45288086 0
vn -0.89160156 0.45288086 0
vn -0.89160156 0.45288086 0
vn -0.89160156 0.45288086 -1.1920929E-07
vn 1 0 1.1920929E-07
vn 1 0 1.1920929E-07
vn 1 0 1.1920929E-07
vn 1 0 1.1920929E-07
g Block_946_0
f 3/3/3 2/2/2 1/1/1
f 6/6/6 5/5/5 4/4/4
f 9/9/9 8/8/8 7/7/7
f 12/12/12 11/11/11 10/10/10
f 15/15/15 14/14/14 13/13/13
f 18/18/18 17/17/17 16/16/16
f 21/21/21 20/20/20 19/19/19
f 24/24/24 23/23/23 22/22/22
f 27/27/27 26/26/26 25/25/25
f 28/28/28 25/25/25 26/26/26
f 31/31/31 30/30/30 29/29/29
f 32/32/32 29/29/29 30/30/30
f 35/35/35 34/34/34 33/33/33
f 36/36/36 33/33/33 34/34/34
f 39/39/39 38/38/38 37/37/37
f 40/40/40 37/37/37 38/38/38
f 43/43/43 42/42/42 41/41/41
f 44/44/44 41/41/41 42/42/42
f 47/47/47 46/46/46 45/45/45
f 48/48/48 45/45/45 46/46/46
f 51/51/51 50/50/50 49/49/49
f 52/52/52 49/49/49 50/50/50
f 55/55/55 54/54/54 53/53/53
f 56/56/56 53/53/53 54/54/54
f 59/59/59 58/58/58 57/57/57
f 60/60/60 57/57/57 58/58/58
f 63/63/63 62/62/62 61/61/61
f 64/64/64 61/61/61 62/62/62
f 67/67/67 66/66/66 65/65/65
f 68/68/68 65/65/65 66/66/66
f 71/71/71 70/70/70 69/69/69
f 72/72/72 69/69/69 70/70/70
f 75/75/75 74/74/74 73/73/73
f 76/76/76 73/73/73 74/74/74
f 79/79/79 78/78/78 77/77/77
f 80/80/80 77/77/77 78/78/78
f 83/83/83 82/82/82 81/81/81
f 84/84/84 81/81/81 82/82/82
f 87/87/87 86/86/86 85/85/85
f 88/88/88 85/85/85 86/86/86
f 91/91/91 90/90/90 89/89/89
f 92/92/92 89/89/89 90/90/90
f 95/95/95 94/94/94 93/93/93
f 96/96/96 93/93/93 94/94/94
f 99/99/99 98/98/98 97/97/97
f 100/100/100 97/97/97 98/98/98
f 103/103/103 102/102/102 101/101/101
f 104/104/104 101/101/101 102/102/102
f 107/107/107 106/106/106 105/105/105
f 108/108/108 105/105/105 106/106/106
f 111/111/111 110/110/110 109/109/109
f 112/112/112 109/109/109 110/110/110
f 115/115/115 114/114/114 113/113/113
f 116/116/116 113/113/113 114/114/114
f 119/119/119 118/118/118 117/117/117
f 120/120/120 117/117/117 118/118/118
f 123/123/123 122/122/122 121/121/121
f 124/124/124 121/121/121 122/122/122
f 127/127/127 126/126/126 125/125/125
f 128/128/128 125/125/125 126/126/126
f 131/131/131 130/130/130 129/129/129
f 132/132/132 129/129/129 130/130/130
f 135/135/135 134/134/134 133/133/133
f 136/136/136 133/133/133 134/134/134
f 139/139/139 138/138/138 137/137/137
f 140/140/140 137/137/137 138/138/138
f 143/143/143 142/142/142 141/141/141
f 144/144/144 141/141/141 142/142/142
f 147/147/147 146/146/146 145/145/145
f 148/148/148 145/145/145 146/146/146
f 151/151/151 150/150/150 149/149/149
f 152/152/152 149/149/149 150/150/150
f 155/155/155 154/154/154 153/153/153
f 156/156/156 153/153/153 154/154/154
f 159/159/159 158/158/158 157/157/157
f 160/160/160 157/157/157 158/158/158
f 163/163/163 162/162/162 161/161/161
f 164/164/164 161/161/161 162/162/162
f 167/167/167 166/166/166 165/165/165
f 168/168/168 165/165/165 166/166/166
