g D001_BB04
v 17.711216 -0.4443085 11.800578
v 17.653618 7.2953644 11.819018
v 18.031641 -0.43276295 11.471794
v 17.974068 7.304872 11.490224
v 18.031641 -0.43276295 11.471794
v 17.653618 7.2953644 11.819018
v -19.855625 7.4409904 -11.566855
v -19.798359 -0.26668036 -11.612214
v -19.535194 7.450468 -11.895642
v -19.47794 -0.25514942 -11.941001
v -19.535194 7.450468 -11.895642
v -19.798359 -0.26668036 -11.612214
v 18.031641 -0.43276295 11.471794
v 17.413515 -0.8400041 11.219016
v 17.711216 -0.4443085 11.800578
v -19.764473 -0.47127125 11.470569
v -19.435654 -0.4697284 11.791066
v -19.29588 -0.8565031 11.201789
v 17.668896 -0.2296978 -11.931481
v 17.678282 -0.65606266 -11.619147
v 17.99775 -0.22816962 -11.610991
v -19.47794 -0.25514942 -11.941001
v -19.798359 -0.26668036 -11.612214
v -19.297676 -0.6549689 -11.645081
v 17.678282 -0.65606266 -11.619147
v 17.413515 -0.8400041 11.219016
v 17.99775 -0.22816962 -11.610991
v 18.031641 -0.43276295 11.471794
v 17.99775 -0.22816962 -11.610991
v 17.413515 -0.8400041 11.219016
v -0.8473279 -7.590791 10.119701
v -1.2319219 -7.84532 10.120743
v -1.2350805 -7.58434 10.49954
v -19.41772 -7.5199847 10.161228
v -19.037834 -7.5160856 10.548973
v -19.034689 -7.7770696 10.170181
v -1.320119 -7.6741357 -3.9087515
v -1.11961 -7.9257665 -3.5764046
v -0.7929754 -7.671257 -3.7794082
v -19.200613 -7.606462 -4.244739
v -19.32997 -7.600974 -3.7175808
v -19.000082 -7.8580933 -3.9123929
v -1.11961 -7.9257665 -3.5764046
v -1.2319219 -7.84532 10.120743
v -0.7929754 -7.671257 -3.7794082
v -0.8473279 -7.590791 10.119701
v -0.7929754 -7.671257 -3.7794082
v -1.2319219 -7.84532 10.120743
v -19.034689 -7.7770696 10.170181
v -19.000082 -7.8580933 -3.9123929
v -19.41772 -7.5199847 10.161228
v -19.32997 -7.600974 -3.7175808
v -19.41772 -7.5199847 10.161228
v -19.000082 -7.8580933 -3.9123929
v 10.271646 -4.1494994 8.476951
v 10.277773 0.0027340269 8.461052
v 10.53729 -4.1494994 8.359175
v 10.543418 0.0027291493 8.343274
v 10.53729 -4.1494994 8.359175
v 10.277773 0.0027340269 8.461052
v 10.53729 -4.1494994 8.359175
v 10.348613 -4.576755 8.225515
v 10.271646 -4.1494994 8.476951
v 3.0498242 -4.149499 5.1009736
v 3.1676025 -4.149499 5.366614
v 3.318203 -4.5767527 5.0627317
v 13.522289 -4.1494985 1.1492211
v 13.448349 -4.590685 1.340925
v 13.640063 -4.1494985 1.4148557
v 6.420361 -4.149498 -2.0052357
v 6.1547265 -4.149498 -1.8874611
v 6.378022 -4.576751 -1.7986757
v 13.448349 -4.590685 1.340925
v 10.348613 -4.576755 8.225515
v 13.640063 -4.1494985 1.4148557
v 10.53729 -4.1494994 8.359175
v 13.640063 -4.1494985 1.4148557
v 10.348613 -4.576755 8.225515
v 10.348613 -4.576755 8.225515
v 3.318203 -4.5767527 5.0627317
v 10.271646 -4.1494994 8.476951
v 3.1676025 -4.149499 5.366614
v 10.271646 -4.1494994 8.476951
v 3.318203 -4.5767527 5.0627317
v 5.6816745 -5.669915 11.910568
v 5.680996 -0.051482886 11.893494
v 5.9130907 -5.6699157 11.704885
v 5.9124265 -0.051487762 11.687812
v 5.9130907 -5.6699157 11.704885
v 5.680996 -0.051482886 11.893494
v 5.9130907 -5.6699157 11.704885
v 5.649619 -6.0971713 11.647654
v 5.6816745 -5.669915 11.910568
v -3.621543 -5.6699157 11.734787
v -3.3739452 -5.669915 11.941001
v -3.3509033 -6.0971704 11.602536
v 5.828784 -5.669915 3.8859212
v 5.8368454 -6.111102 4.0918674
v 6.0763426 -5.6699142 4.0921283
v -3.244702 -5.6699157 3.874316
v -3.4761035 -5.6699157 4.0799937
v -3.1959276 -6.097169 4.0828023
v 5.8368454 -6.111102 4.0918674
v 5.649619 -6.0971713 11.647654
v 6.0763426 -5.6699142 4.0921283
v 5.9130907 -5.6699157 11.704885
v 6.0763426 -5.6699142 4.0921283
v 5.649619 -6.0971713 11.647654
v 5.649619 -6.0971713 11.647654
v -3.3509033 -6.0971704 11.602536
v 5.6816745 -5.669915 11.910568
v -3.3739452 -5.669915 11.941001
v 5.6816745 -5.669915 11.910568
v -3.3509033 -6.0971704 11.602536
v 19.624208 -5.669915 11.910568
v 19.62353 -0.47595555 11.893494
v 19.855625 -5.6699157 11.704885
v 19.854961 -0.4759604 11.68781
v 19.855625 -5.6699157 11.704885
v 19.62353 -0.47595555 11.893494
v 19.855625 -5.6699157 11.704885
v 19.592154 -6.0971713 11.647654
v 19.624208 -5.669915 11.910568
v 11.410546 -5.6699157 11.734787
v 11.658144 -5.669915 11.941001
v 11.681187 -6.0971704 11.602536
v 19.511417 -5.6699157 2.442259
v 19.51948 -6.1111026 2.6482053
v 19.758976 -5.6699157 2.6484663
v 11.52749 -5.6699157 2.430654
v 11.296083 -5.6699157 2.6363313
v 11.57626 -6.097169 2.6391404
v 19.51948 -6.1111026 2.6482053
v 19.592154 -6.0971713 11.647654
v 19.758976 -5.6699157 2.6484663
v 19.855625 -5.6699157 11.704885
v 19.758976 -5.6699157 2.6484663
v 19.592154 -6.0971713 11.647654
v 19.592154 -6.0971713 11.647654
v 11.681187 -6.0971704 11.602536
v 19.624208 -5.669915 11.910568
v 11.658144 -5.669915 11.941001
v 19.624208 -5.669915 11.910568
v 11.681187 -6.0971704 11.602536
v 17.653618 7.2953644 11.819018
v 17.711216 -0.4443085 11.800578
v -19.493242 7.274488 11.809487
v -19.435654 -0.4697284 11.791066
v -19.82209 7.273223 11.488989
v -19.764473 -0.47127125 11.470569
v -19.855625 7.4409904 -11.566855
v -19.798359 -0.26668036 -11.612214
v -19.535194 7.450468 -11.895642
v -19.47794 -0.25514942 -11.941001
v 17.611664 7.471375 -11.886118
v 17.668896 -0.2296978 -11.931481
v 17.940483 7.4726152 -11.565627
v 17.99775 -0.22816962 -11.610991
v 17.974068 7.304872 11.490224
v 18.031641 -0.43276295 11.471794
v -19.493242 7.274488 11.809487
v -19.435654 -0.4697284 11.791066
v -19.82209 7.273223 11.488989
v -19.764473 -0.47127125 11.470569
v 17.611664 7.471375 -11.886118
v 17.668896 -0.2296978 -11.931481
v 17.940483 7.4726152 -11.565627
v 17.99775 -0.22816962 -11.610991
v -19.297676 -0.6549689 -11.645081
v 17.678282 -0.65606266 -11.619147
v -19.47794 -0.25514942 -11.941001
v 17.668896 -0.2296978 -11.931481
v -19.29588 -0.8565031 11.201789
v -19.297676 -0.6549689 -11.645081
v -19.764473 -0.47127125 11.470569
v -19.798359 -0.26668036 -11.612214
v 17.413515 -0.8400041 11.219016
v -19.29588 -0.8565031 11.201789
v 17.711216 -0.4443085 11.800578
v -19.435654 -0.4697284 11.791066
v -1.203208 -0.1117265 10.404799
v -1.2350805 -7.58434 10.49954
v -19.005985 -0.04349195 10.454217
v -19.037834 -7.5160856 10.548973
v -19.385855 -0.04738842 10.066473
v -19.41772 -7.5199847 10.161228
v -19.325329 -0.12782359 -3.7704198
v -19.32997 -7.600974 -3.7175808
v -19.195953 -0.13331185 -4.2975755
v -19.200613 -7.606462 -4.244739
v -1.31547 -0.2009776 -3.9615796
v -1.320119 -7.6741357 -3.9087515
v -0.78830624 -0.19808207 -3.8322399
v -0.7929754 -7.671257 -3.7794082
v -0.81544495 -0.1181718 10.024941
v -0.8473279 -7.590791 10.119701
v -19.005985 -0.04349195 10.454217
v -19.037834 -7.5160856 10.548973
v -19.385855 -0.04738842 10.066473
v -19.41772 -7.5199847 10.161228
v -1.2350805 -7.58434 10.49954
v -1.203208 -0.1117265 10.404799
v -0.8473279 -7.590791 10.119701
v -0.81544495 -0.1181718 10.024941
v -19.325329 -0.12782359 -3.7704198
v -19.32997 -7.600974 -3.7175808
v -19.195953 -0.13331185 -4.2975755
v -19.200613 -7.606462 -4.244739
v -1.31547 -0.2009776 -3.9615796
v -1.320119 -7.6741357 -3.9087515
v -0.78830624 -0.19808207 -3.8322399
v -0.7929754 -7.671257 -3.7794082
v -19.000082 -7.8580933 -3.9123929
v -1.11961 -7.9257665 -3.5764046
v -19.200613 -7.606462 -4.244739
v -1.320119 -7.6741357 -3.9087515
v -1.2319219 -7.84532 10.120743
v -19.034689 -7.7770696 10.170181
v -1.2350805 -7.58434 10.49954
v -19.037834 -7.5160856 10.548973
v 10.277773 0.0027340269 8.461052
v 10.271646 -4.1494994 8.476951
v 3.1737304 0.0027343156 5.35072
v 3.1676025 -4.149499 5.366614
v 3.0559666 0.002729597 5.0850806
v 3.0498242 -4.149499 5.1009736
v 6.1547217 -0.024659624 -1.8874547
v 6.1547265 -4.149498 -1.8874611
v 6.4203563 -0.024659619 -2.0052295
v 6.420361 -4.149498 -2.0052357
v 13.522295 -0.024672117 1.1492358
v 13.522289 -4.1494985 1.1492211
v 13.640068 -0.024672281 1.4148657
v 13.640063 -4.1494985 1.4148557
v 10.543418 0.0027291493 8.343274
v 10.53729 -4.1494994 8.359175
v 3.1737304 0.0027343156 5.35072
v 3.1676025 -4.149499 5.366614
v 3.0559666 0.002729597 5.0850806
v 3.0498242 -4.149499 5.1009736
v 6.1547217 -0.024659624 -1.8874547
v 6.1547265 -4.149498 -1.8874611
v 6.4203563 -0.024659619 -2.0052295
v 6.420361 -4.149498 -2.0052357
v 13.522295 -0.024672117 1.1492358
v 13.522289 -4.1494985 1.1492211
v 13.640068 -0.024672281 1.4148657
v 13.640063 -4.1494985 1.4148557
v 6.378022 -4.576751 -1.7986757
v 13.448349 -4.590685 1.340925
v 6.420361 -4.149498 -2.0052357
v 13.522289 -4.1494985 1.1492211
v 3.318203 -4.5767527 5.0627317
v 6.378022 -4.576751 -1.7986757
v 3.0498242 -4.149499 5.1009736
v 6.1547265 -4.149498 -1.8874611
v 5.680996 -0.051482886 11.893494
v 5.6816745 -5.669915 11.910568
v -3.374619 -0.05148228 11.923928
v -3.3739452 -5.669915 11.941001
v -3.6221924 -0.051487155 11.717708
v -3.621543 -5.6699157 11.734787
v -3.4761083 -0.078876495 4.0800023
v -3.4761035 -5.6699157 4.0799937
v -3.244702 -0.07887649 3.8743212
v -3.244702 -5.6699157 3.874316
v 5.8287888 -0.078889 3.8859336
v 5.828784 -5.669915 3.8859212
v 6.0763474 -0.07888916 4.0921373
v 6.0763426 -5.6699142 4.0921283
v 5.9124265 -0.051487762 11.687812
v 5.9130907 -5.6699157 11.704885
v -3.374619 -0.05148228 11.923928
v -3.3739452 -5.669915 11.941001
v -3.6221924 -0.051487155 11.717708
v -3.621543 -5.6699157 11.734787
v -3.4761083 -0.078876495 4.0800023
v -3.4761035 -5.6699157 4.0799937
v -3.244702 -0.07887649 3.8743212
v -3.244702 -5.6699157 3.874316
v 5.8287888 -0.078889 3.8859336
v 5.828784 -5.669915 3.8859212
v 6.0763474 -0.07888916 4.0921373
v 6.0763426 -5.6699142 4.0921283
v -3.1959276 -6.097169 4.0828023
v 5.8368454 -6.111102 4.0918674
v -3.244702 -5.6699157 3.874316
v 5.828784 -5.669915 3.8859212
v -3.3509033 -6.0971704 11.602536
v -3.1959276 -6.097169 4.0828023
v -3.621543 -5.6699157 11.734787
v -3.4761035 -5.6699157 4.0799937
v 19.62353 -0.47595555 11.893494
v 19.624208 -5.669915 11.910568
v 11.657466 -0.47595492 11.923925
v 11.658144 -5.669915 11.941001
v 11.409892 -0.4759598 11.717705
v 11.410546 -5.6699157 11.734787
v 11.296083 -0.50334907 2.6363404
v 11.296083 -5.6699157 2.6363313
v 11.52749 -0.50334907 2.430659
v 11.52749 -5.6699157 2.430654
v 19.511423 -0.5033616 2.4422717
v 19.511417 -5.6699157 2.442259
v 19.758982 -0.5033614 2.6484752
v 19.758976 -5.6699157 2.6484663
v 19.854961 -0.4759604 11.68781
v 19.855625 -5.6699157 11.704885
v 11.657466 -0.47595492 11.923925
v 11.658144 -5.669915 11.941001
v 11.409892 -0.4759598 11.717705
v 11.410546 -5.6699157 11.734787
v 11.296083 -0.50334907 2.6363404
v 11.296083 -5.6699157 2.6363313
v 11.52749 -0.50334907 2.430659
v 11.52749 -5.6699157 2.430654
v 19.511423 -0.5033616 2.4422717
v 19.511417 -5.6699157 2.442259
v 19.758982 -0.5033614 2.6484752
v 19.758976 -5.6699157 2.6484663
v 11.57626 -6.097169 2.6391404
v 19.51948 -6.1111026 2.6482053
v 11.52749 -5.6699157 2.430654
v 19.511417 -5.6699157 2.442259
v 11.681187 -6.0971704 11.602536
v 11.57626 -6.097169 2.6391404
v 11.410546 -5.6699157 11.734787
v 11.296083 -5.6699157 2.6363313
v -19.29588 -0.8565031 11.201789
v 17.413515 -0.8400041 11.219016
v -19.297676 -0.6549689 -11.645081
v 17.678282 -0.65606266 -11.619147
v -19.034689 -7.7770696 10.170181
v -1.2319219 -7.84532 10.120743
v -19.000082 -7.8580933 -3.9123929
v -1.11961 -7.9257665 -3.5764046
v 3.318203 -4.5767527 5.0627317
v 10.348613 -4.576755 8.225515
v 6.378022 -4.576751 -1.7986757
v 13.448349 -4.590685 1.340925
v -3.3509033 -6.0971704 11.602536
v 5.649619 -6.0971713 11.647654
v -3.1959276 -6.097169 4.0828023
v 5.8368454 -6.111102 4.0918674
v 11.681187 -6.0971704 11.602536
v 19.592154 -6.0971713 11.647654
v 11.57626 -6.097169 2.6391404
v 19.51948 -6.1111026 2.6482053
v 17.413544 7.7673078 11.139829
v 17.807129 7.606294 11.503119
v 17.646948 7.6015263 11.66752
v -19.295801 7.753733 11.122602
v -19.499903 7.580657 11.657983
v -19.664316 7.5800323 11.497739
v 17.400244 7.925767 -11.166012
v 17.6092 7.773367 -11.712988
v 17.773603 7.774014 -11.552749
v -19.30918 7.9122148 -11.183241
v -19.697851 7.747791 -11.558107
v -19.537636 7.7525296 -11.7225
v -1.282638 0.4914888 9.755475
v -1.0044274 0.6039763 10.018646
v -1.1982915 0.60718954 10.208568
v -18.939486 0.5591326 9.798895
v -19.002535 0.34425953 10.258414
v -19.192469 0.34230885 10.064559
v -1.0275763 0.4144496 -3.380001
v -1.2163037 0.19147113 -3.8006964
v -0.9527136 0.19289418 -3.7360344
v -18.78723 0.48153186 -3.7980053
v -19.161465 0.26187366 -3.8731139
v -19.096771 0.25911704 -4.136697
v -19.002535 0.34425953 10.258414
v -18.939486 0.5591326 9.798895
v -1.1982915 0.60718954 10.208568
v -1.282638 0.4914888 9.755475
v -1.1982915 0.60718954 10.208568
v -18.939486 0.5591326 9.798895
v -19.161465 0.26187366 -3.8731139
v -18.78723 0.48153186 -3.7980053
v -19.192469 0.34230885 10.064559
v -18.939486 0.5591326 9.798895
v -19.192469 0.34230885 10.064559
v -18.78723 0.48153186 -3.7980053
v -1.2163037 0.19147113 -3.8006964
v -1.0275763 0.4144496 -3.380001
v -19.096771 0.25911704 -4.136697
v -18.78723 0.48153186 -3.7980053
v -19.096771 0.25911704 -4.136697
v -1.0275763 0.4144496 -3.380001
v -1.0044274 0.6039763 10.018646
v -1.282638 0.4914888 9.755475
v -0.9527136 0.19289418 -3.7360344
v -1.0275763 0.4144496 -3.380001
v -0.9527136 0.19289418 -3.7360344
v -1.282638 0.4914888 9.755475
v -0.78830624 -0.19808207 -3.8322399
v -1.0044274 0.6039763 10.018646
v -19.005985 -0.04349195 10.454217
v -19.002535 0.34425953 10.258414
v -1.203208 -0.1117265 10.404799
v -1.1982915 0.60718954 10.208568
v -1.203208 -0.1117265 10.404799
v -19.002535 0.34425953 10.258414
v -19.325329 -0.12782359 -3.7704198
v -19.161465 0.26187366 -3.8731139
v -19.385855 -0.04738842 10.066473
v -19.192469 0.34230885 10.064559
v -19.385855 -0.04738842 10.066473
v -19.161465 0.26187366 -3.8731139
v -0.81544495 -0.1181718 10.024941
v -1.0044274 0.6039763 10.018646
v -0.78830624 -0.19808207 -3.8322399
v 10.354668 0.58533657 8.209861
v 10.447558 0.3221188 8.3063135
v 10.314755 0.3221188 8.365203
v 3.3242285 0.58533716 5.0470777
v 3.2106836 0.3221191 5.2548656
v 3.1518066 0.3221194 5.122043
v 13.448354 0.5478863 1.3409326
v 13.485322 0.3221368 1.2450806
v 13.544218 0.3221368 1.3778931
v 6.372051 0.5630795 -1.7827649
v 6.2505713 0.32213742 -1.8504907
v 6.3833933 0.32215205 -1.9093786
v 3.2106836 0.3221191 5.2548656
v 3.3242285 0.58533716 5.0470777
v 10.314755 0.3221188 8.365203
v 10.354668 0.58533657 8.209861
v 10.314755 0.3221188 8.365203
v 3.3242285 0.58533716 5.0470777
v 6.2505713 0.32213742 -1.8504907
v 6.372051 0.5630795 -1.7827649
v 3.1518066 0.3221194 5.122043
v 3.3242285 0.58533716 5.0470777
v 3.1518066 0.3221194 5.122043
v 6.372051 0.5630795 -1.7827649
v 5.6489744 0.53111964 11.630827
v 5.7926707 0.26790187 11.687683
v 5.6769824 0.26790187 11.79052
v -3.351582 0.53111964 11.585722
v -3.3786669 0.2679025 11.820954
v -3.502461 0.2679025 11.717844
v 5.8368554 0.49366942 4.091875
v 5.832827 0.26792008 3.9889038
v 5.956611 0.26791993 4.0919995
v -3.1950927 0.5088623 4.099834
v -3.3563719 0.26792067 4.0801344
v -3.2406738 0.26793534 3.9772923
v -3.3786669 0.2679025 11.820954
v -3.351582 0.53111964 11.585722
v 5.6769824 0.26790187 11.79052
v 5.6489744 0.53111964 11.630827
v 5.6769824 0.26790187 11.79052
v -3.351582 0.53111964 11.585722
v -3.3563719 0.26792067 4.0801344
v -3.1950927 0.5088623 4.099834
v -3.502461 0.2679025 11.717844
v -3.351582 0.53111964 11.585722
v -3.502461 0.2679025 11.717844
v -3.1950927 0.5088623 4.099834
v 19.591509 0.106647 11.630827
v 19.735205 -0.15657076 11.687683
v 19.619516 -0.15657078 11.79052
v 11.680503 0.106647 11.58572
v 11.653418 -0.15657017 11.820951
v 11.529624 -0.15657015 11.717841
v 19.51949 0.06919714 2.648213
v 19.515461 -0.15655236 2.5452416
v 19.639246 -0.15655237 2.6483374
v 11.5771 0.08438986 2.6561718
v 11.41582 -0.15655191 2.6364722
v 11.531513 -0.15653725 2.5336304
v 11.653418 -0.15657017 11.820951
v 11.680503 0.106647 11.58572
v 19.619516 -0.15657078 11.79052
v 19.591509 0.106647 11.630827
v 19.619516 -0.15657078 11.79052
v 11.680503 0.106647 11.58572
v 11.41582 -0.15655191 2.6364722
v 11.5771 0.08438986 2.6561718
v 11.529624 -0.15657015 11.717841
v 11.680503 0.106647 11.58572
v 11.529624 -0.15657015 11.717841
v 11.5771 0.08438986 2.6561718
v 17.653618 7.2953644 11.819018
v 17.646948 7.6015263 11.66752
v 17.974068 7.304872 11.490224
v 17.807129 7.606294 11.503119
v -19.82209 7.273223 11.488989
v -19.664316 7.5800323 11.497739
v -19.493242 7.274488 11.809487
v -19.499903 7.580657 11.657983
v 17.940483 7.4726152 -11.565627
v 17.773603 7.774014 -11.552749
v 17.611664 7.471375 -11.886118
v 17.6092 7.773367 -11.712988
v -19.535194 7.450468 -11.895642
v -19.537636 7.7525296 -11.7225
v -19.855625 7.4409904 -11.566855
v -19.697851 7.747791 -11.558107
v -19.499903 7.580657 11.657983
v -19.295801 7.753733 11.122602
v 17.646948 7.6015263 11.66752
v 17.413544 7.7673078 11.139829
v -19.697851 7.747791 -11.558107
v -19.30918 7.9122148 -11.183241
v -19.664316 7.5800323 11.497739
v -19.295801 7.753733 11.122602
v 17.6092 7.773367 -11.712988
v 17.400244 7.925767 -11.166012
v -19.537636 7.7525296 -11.7225
v -19.30918 7.9122148 -11.183241
v 17.807129 7.606294 11.503119
v 17.413544 7.7673078 11.139829
v 17.773603 7.774014 -11.552749
v 17.400244 7.925767 -11.166012
v -19.493242 7.274488 11.809487
v -19.499903 7.580657 11.657983
v 17.653618 7.2953644 11.819018
v 17.646948 7.6015263 11.66752
v -19.855625 7.4409904 -11.566855
v -19.697851 7.747791 -11.558107
v -19.82209 7.273223 11.488989
v -19.664316 7.5800323 11.497739
v 17.611664 7.471375 -11.886118
v 17.6092 7.773367 -11.712988
v -19.535194 7.450468 -11.895642
v -19.537636 7.7525296 -11.7225
v 17.974068 7.304872 11.490224
v 17.807129 7.606294 11.503119
v 17.940483 7.4726152 -11.565627
v 17.773603 7.774014 -11.552749
v -1.203208 -0.1117265 10.404799
v -1.1982915 0.60718954 10.208568
v -0.81544495 -0.1181718 10.024941
v -1.0044274 0.6039763 10.018646
v -19.385855 -0.04738842 10.066473
v -19.192469 0.34230885 10.064559
v -19.005985 -0.04349195 10.454217
v -19.002535 0.34425953 10.258414
v -0.78830624 -0.19808207 -3.8322399
v -0.9527136 0.19289418 -3.7360344
v -1.31547 -0.2009776 -3.9615796
v -1.2163037 0.19147113 -3.8006964
v -19.195953 -0.13331185 -4.2975755
v -19.096771 0.25911704 -4.136697
v -19.325329 -0.12782359 -3.7704198
v -19.161465 0.26187366 -3.8731139
v -1.31547 -0.2009776 -3.9615796
v -1.2163037 0.19147113 -3.8006964
v -19.195953 -0.13331185 -4.2975755
v -19.096771 0.25911704 -4.136697
v 10.277773 0.0027340269 8.461052
v 10.314755 0.3221188 8.365203
v 10.543418 0.0027291493 8.343274
v 10.447558 0.3221188 8.3063135
v 3.0559666 0.002729597 5.0850806
v 3.1518066 0.3221194 5.122043
v 3.1737304 0.0027343156 5.35072
v 3.2106836 0.3221191 5.2548656
v 13.640068 -0.024672281 1.4148657
v 13.544218 0.3221368 1.3778931
v 13.522295 -0.024672117 1.1492358
v 13.485322 0.3221368 1.2450806
v 6.4203563 -0.024659619 -2.0052295
v 6.3833933 0.32215205 -1.9093786
v 6.1547217 -0.024659624 -1.8874547
v 6.2505713 0.32213742 -1.8504907
v 13.485322 0.3221368 1.2450806
v 13.448354 0.5478863 1.3409326
v 6.3833933 0.32215205 -1.9093786
v 6.372051 0.5630795 -1.7827649
v 10.447558 0.3221188 8.3063135
v 10.354668 0.58533657 8.209861
v 13.544218 0.3221368 1.3778931
v 13.448354 0.5478863 1.3409326
v 3.1737304 0.0027343156 5.35072
v 3.2106836 0.3221191 5.2548656
v 10.277773 0.0027340269 8.461052
v 10.314755 0.3221188 8.365203
v 6.1547217 -0.024659624 -1.8874547
v 6.2505713 0.32213742 -1.8504907
v 3.0559666 0.002729597 5.0850806
v 3.1518066 0.3221194 5.122043
v 13.522295 -0.024672117 1.1492358
v 13.485322 0.3221368 1.2450806
v 6.4203563 -0.024659619 -2.0052295
v 6.3833933 0.32215205 -1.9093786
v 10.543418 0.0027291493 8.343274
v 10.447558 0.3221188 8.3063135
v 13.640068 -0.024672281 1.4148657
v 13.544218 0.3221368 1.3778931
v 5.680996 -0.051482886 11.893494
v 5.6769824 0.26790187 11.79052
v 5.9124265 -0.051487762 11.687812
v 5.7926707 0.26790187 11.687683
v -3.6221924 -0.051487155 11.717708
v -3.502461 0.2679025 11.717844
v -3.374619 -0.05148228 11.923928
v -3.3786669 0.2679025 11.820954
v 6.0763474 -0.07888916 4.0921373
v 5.956611 0.26791993 4.0919995
v 5.8287888 -0.078889 3.8859336
v 5.832827 0.26792008 3.9889038
v -3.244702 -0.07887649 3.8743212
v -3.2406738 0.26793534 3.9772923
v -3.4761083 -0.078876495 4.0800023
v -3.3563719 0.26792067 4.0801344
v 5.832827 0.26792008 3.9889038
v 5.8368554 0.49366942 4.091875
v -3.2406738 0.26793534 3.9772923
v -3.1950927 0.5088623 4.099834
v 5.7926707 0.26790187 11.687683
v 5.6489744 0.53111964 11.630827
v 5.956611 0.26791993 4.0919995
v 5.8368554 0.49366942 4.091875
v -3.374619 -0.05148228 11.923928
v -3.3786669 0.2679025 11.820954
v 5.680996 -0.051482886 11.893494
v 5.6769824 0.26790187 11.79052
v -3.4761083 -0.078876495 4.0800023
v -3.3563719 0.26792067 4.0801344
v -3.6221924 -0.051487155 11.717708
v -3.502461 0.2679025 11.717844
v 5.8287888 -0.078889 3.8859336
v 5.832827 0.26792008 3.9889038
v -3.244702 -0.07887649 3.8743212
v -3.2406738 0.26793534 3.9772923
v 5.9124265 -0.051487762 11.687812
v 5.7926707 0.26790187 11.687683
v 6.0763474 -0.07888916 4.0921373
v 5.956611 0.26791993 4.0919995
v 19.62353 -0.47595555 11.893494
v 19.619516 -0.15657078 11.79052
v 19.854961 -0.4759604 11.68781
v 19.735205 -0.15657076 11.687683
v 11.409892 -0.4759598 11.717705
v 11.529624 -0.15657015 11.717841
v 11.657466 -0.47595492 11.923925
v 11.653418 -0.15657017 11.820951
v 19.758982 -0.5033614 2.6484752
v 19.639246 -0.15655237 2.6483374
v 19.511423 -0.5033616 2.4422717
v 19.515461 -0.15655236 2.5452416
v 11.52749 -0.50334907 2.430659
v 11.531513 -0.15653725 2.5336304
v 11.296083 -0.50334907 2.6363404
v 11.41582 -0.15655191 2.6364722
v 19.515461 -0.15655236 2.5452416
v 19.51949 0.06919714 2.648213
v 11.531513 -0.15653725 2.5336304
v 11.5771 0.08438986 2.6561718
v 19.735205 -0.15657076 11.687683
v 19.591509 0.106647 11.630827
v 19.639246 -0.15655237 2.6483374
v 19.51949 0.06919714 2.648213
v 11.657466 -0.47595492 11.923925
v 11.653418 -0.15657017 11.820951
v 19.62353 -0.47595555 11.893494
v 19.619516 -0.15657078 11.79052
v 11.296083 -0.50334907 2.6363404
v 11.41582 -0.15655191 2.6364722
v 11.409892 -0.4759598 11.717705
v 11.529624 -0.15657015 11.717841
v 19.511423 -0.5033616 2.4422717
v 19.515461 -0.15655236 2.5452416
v 11.52749 -0.50334907 2.430659
v 11.531513 -0.15653725 2.5336304
v 19.854961 -0.4759604 11.68781
v 19.735205 -0.15657076 11.687683
v 19.758982 -0.5033614 2.6484752
v 19.639246 -0.15655237 2.6483374
v 17.400244 7.925767 -11.166012
v 17.413544 7.7673078 11.139829
v -19.30918 7.9122148 -11.183241
v -19.295801 7.753733 11.122602
v -1.0275763 0.4144496 -3.380001
v -1.282638 0.4914888 9.755475
v -18.78723 0.48153186 -3.7980053
v -18.939486 0.5591326 9.798895
v 13.448354 0.5478863 1.3409326
v 10.354668 0.58533657 8.209861
v 6.372051 0.5630795 -1.7827649
v 3.3242285 0.58533716 5.0470777
v 5.8368554 0.49366942 4.091875
v 5.6489744 0.53111964 11.630827
v -3.1950927 0.5088623 4.099834
v -3.351582 0.53111964 11.585722
v 19.51949 0.06919714 2.648213
v 19.591509 0.106647 11.630827
v 11.5771 0.08438986 2.6561718
v 11.680503 0.106647 11.58572
vt -24.59375 1.0888672
vt -24.609375 2.4003906
vt -24.53125 1.1083984
vt -24.53125 2.4023438
vt -24.53125 1.1083984
vt -24.609375 2.4003906
vt -14.3125 2.53125
vt -14.3125 1.2363281
vt -14.375 2.5273438
vt -14.3671875 1.2294922
vt -14.375 2.5273438
vt -14.3125 1.2363281
vt -24.53125 1.1083984
vt -24.484375 0.9951172
vt -24.59375 1.0888672
vt -10.453125 1.2021484
vt -10.3984375 1.2080078
vt -10.4296875 1.09375
vt -20.59375 1.1347656
vt -20.609375 1.0458984
vt -20.65625 1.1328125
vt -14.3671875 1.2294922
vt -14.3125 1.2363281
vt -14.34375 1.1386719
vt -20.609375 1.0458984
vt -24.484375 0.9951172
vt -20.65625 1.1328125
vt -24.53125 1.1083984
vt -20.65625 1.1328125
vt -24.484375 0.9951172
vt -15.6171875 3.4238281
vt -15.6171875 3.3535156
vt -15.6953125 3.4082031
vt -7.8476562 3.4316406
vt -7.78125 3.4316406
vt -7.8125 3.3613281
vt -13.21875 3.4042969
vt -13.2734375 3.3417969
vt -13.2890625 3.4101562
vt -10.234375 3.4277344
vt -10.1640625 3.4199219
vt -10.21875 3.3574219
vt -13.2734375 3.3417969
vt -15.6171875 3.3535156
vt -13.2890625 3.4101562
vt -15.6171875 3.4238281
vt -13.2890625 3.4101562
vt -15.6171875 3.3535156
vt -7.8125 3.3613281
vt -10.21875 3.3574219
vt -7.8476562 3.4316406
vt -10.1640625 3.4199219
vt -7.8476562 3.4316406
vt -10.21875 3.3574219
vt -11.078125 9.6328125
vt -11.0859375 10.3359375
vt -11.0390625 9.640625
vt -11.0390625 10.3359375
vt -11.0390625 9.640625
vt -11.0859375 10.3359375
vt -11.0390625 9.640625
vt -11.0234375 9.5546875
vt -11.078125 9.6328125
vt -7.1171875 9.6484375
vt -7.0859375 9.6484375
vt -7.1132812 9.5625
vt -9.7265625 9.640625
vt -9.734375 9.5546875
vt -9.765625 9.640625
vt -8.4296875 9.640625
vt -8.390625 9.6484375
vt -8.40625 9.5625
vt -9.734375 9.5546875
vt -11.0234375 9.5546875
vt -9.765625 9.640625
vt -11.0390625 9.640625
vt -9.765625 9.640625
vt -11.0234375 9.5546875
vt -5.8125 9.5390625
vt -7.1132812 9.5625
vt -5.796875 9.625
vt -7.0859375 9.6484375
vt -5.796875 9.625
vt -7.1132812 9.5625
vt -11.2734375 5.4335938
vt -11.2890625 6.3828125
vt -11.2265625 5.4414062
vt -11.2265625 6.3828125
vt -11.2265625 5.4414062
vt -11.2890625 6.3828125
vt -11.2265625 5.4414062
vt -11.21875 5.359375
vt -11.2734375 5.4335938
vt -7.0664062 5.4492188
vt -7.0273438 5.4492188
vt -7.0546875 5.3632812
vt -9.90625 5.4414062
vt -9.921875 5.359375
vt -9.953125 5.4414062
vt -8.3828125 5.4453125
vt -8.34375 5.4492188
vt -8.359375 5.3671875
vt -9.921875 5.359375
vt -11.21875 5.359375
vt -9.953125 5.4414062
vt -11.2265625 5.4414062
vt -9.953125 5.4414062
vt -11.21875 5.359375
vt -5.5351562 5.3320312
vt -7.0546875 5.3632812
vt -5.5195312 5.4140625
vt -7.0273438 5.4492188
vt -5.5195312 5.4140625
vt -7.0546875 5.3632812
vt -11.390625 7.7578125
vt -11.3984375 8.6328125
vt -11.34375 7.765625
vt -11.34375 8.6328125
vt -11.34375 7.765625
vt -11.3984375 8.6328125
vt -11.34375 7.765625
vt -11.3359375 7.6835938
vt -11.390625 7.7578125
vt -6.90625 7.7773438
vt -6.8710938 7.7773438
vt -6.8984375 7.6914062
vt -9.78125 7.7617188
vt -9.796875 7.6835938
vt -9.828125 7.765625
vt -8.453125 7.7734375
vt -8.421875 7.7773438
vt -8.4375 7.6914062
vt -9.796875 7.6835938
vt -11.3359375 7.6835938
vt -9.828125 7.765625
vt -11.34375 7.765625
vt -9.828125 7.765625
vt -11.3359375 7.6835938
vt -5.5625 7.6640625
vt -6.8984375 7.6914062
vt -5.546875 7.75
vt -6.8710938 7.7773438
vt -5.546875 7.75
vt -6.8984375 7.6914062
vt -4.1796875 2.5078125
vt -4.1796875 1.2099609
vt -10.40625 2.5097656
vt -10.3984375 1.2080078
vt -10.4609375 2.5058594
vt -10.453125 1.2021484
vt -14.3125 2.53125
vt -14.3125 1.2363281
vt -14.375 2.5273438
vt -14.3671875 1.2294922
vt -20.609375 2.4277344
vt -20.59375 1.1347656
vt -20.671875 2.4277344
vt -20.65625 1.1328125
vt -24.53125 2.4023438
vt -24.53125 1.1083984
vt -10.40625 2.5097656
vt -10.3984375 1.2080078
vt -10.4609375 2.5058594
vt -10.453125 1.2021484
vt -20.609375 2.4277344
vt -20.59375 1.1347656
vt -20.671875 2.4277344
vt -20.65625 1.1328125
vt -14.34375 1.1386719
vt -20.609375 1.0458984
vt -14.3671875 1.2294922
vt -20.59375 1.1347656
vt -10.4296875 1.09375
vt -14.34375 1.1386719
vt -10.453125 1.2021484
vt -14.3125 1.2363281
vt -4.2460938 1.0947266
vt -10.4296875 1.09375
vt -4.1796875 1.2099609
vt -10.3984375 1.2080078
vt -4.796875 4.6679688
vt -4.8085938 3.4140625
vt -7.78125 4.6875
vt -7.78125 3.4316406
vt -7.8671875 4.6875
vt -7.8476562 3.4316406
vt -10.1796875 4.6757812
vt -10.1640625 3.4199219
vt -10.25 4.6796875
vt -10.234375 3.4277344
vt -13.234375 4.65625
vt -13.21875 3.4042969
vt -13.296875 4.6640625
vt -13.2890625 3.4101562
vt -15.609375 4.6796875
vt -15.6171875 3.4238281
vt -7.78125 4.6875
vt -7.78125 3.4316406
vt -7.8671875 4.6875
vt -7.8476562 3.4316406
vt -15.6953125 3.4082031
vt -15.6875 4.6757812
vt -15.6171875 3.4238281
vt -15.609375 4.6796875
vt -10.1796875 4.6757812
vt -10.1640625 3.4199219
vt -10.25 4.6796875
vt -10.234375 3.4277344
vt -13.234375 4.65625
vt -13.21875 3.4042969
vt -13.296875 4.6640625
vt -13.2890625 3.4101562
vt -10.21875 3.3574219
vt -13.2734375 3.3417969
vt -10.234375 3.4277344
vt -13.21875 3.4042969
vt -4.8164062 3.3359375
vt -7.8125 3.3613281
vt -4.8085938 3.4140625
vt -7.78125 3.4316406
vt -5.78125 10.3203125
vt -5.796875 9.625
vt -7.0820312 10.34375
vt -7.0859375 9.6484375
vt -7.1289062 10.34375
vt -7.1171875 9.6484375
vt -8.3984375 10.3359375
vt -8.390625 9.6484375
vt -8.4375 10.3359375
vt -8.4296875 9.640625
vt -9.734375 10.328125
vt -9.7265625 9.640625
vt -9.765625 10.328125
vt -9.765625 9.640625
vt -11.0390625 10.3359375
vt -11.0390625 9.640625
vt -7.0820312 10.34375
vt -7.0859375 9.6484375
vt -7.1289062 10.34375
vt -7.1171875 9.6484375
vt -8.3984375 10.3359375
vt -8.390625 9.6484375
vt -8.4375 10.3359375
vt -8.4296875 9.640625
vt -9.734375 10.328125
vt -9.7265625 9.640625
vt -9.765625 10.328125
vt -9.765625 9.640625
vt -8.40625 9.5625
vt -9.734375 9.5546875
vt -8.4296875 9.640625
vt -9.7265625 9.640625
vt -7.1132812 9.5625
vt -8.40625 9.5625
vt -7.1171875 9.6484375
vt -8.390625 9.6484375
vt -5.4960938 6.3554688
vt -5.5195312 5.4140625
vt -7.015625 6.3945312
vt -7.0273438 5.4492188
vt -7.0664062 6.3945312
vt -7.0664062 5.4492188
vt -8.34375 6.3867188
vt -8.34375 5.4492188
vt -8.390625 6.3867188
vt -8.3828125 5.4453125
vt -9.9140625 6.3789062
vt -9.90625 5.4414062
vt -9.9609375 6.3789062
vt -9.953125 5.4414062
vt -11.2265625 6.3828125
vt -11.2265625 5.4414062
vt -7.015625 6.3945312
vt -7.0273438 5.4492188
vt -7.0664062 6.3945312
vt -7.0664062 5.4492188
vt -8.34375 6.3867188
vt -8.34375 5.4492188
vt -8.390625 6.3867188
vt -8.3828125 5.4453125
vt -9.9140625 6.3789062
vt -9.90625 5.4414062
vt -9.9609375 6.3789062
vt -9.953125 5.4414062
vt -8.359375 5.3671875
vt -9.921875 5.359375
vt -8.3828125 5.4453125
vt -9.90625 5.4414062
vt -7.0546875 5.3632812
vt -8.359375 5.3671875
vt -7.0664062 5.4492188
vt -8.34375 5.4492188
vt -5.5273438 8.6171875
vt -5.546875 7.75
vt -6.859375 8.6484375
vt -6.8710938 7.7773438
vt -6.9101562 8.6484375
vt -6.90625 7.7773438
vt -8.4296875 8.640625
vt -8.421875 7.7773438
vt -8.46875 8.640625
vt -8.453125 7.7734375
vt -9.796875 8.6328125
vt -9.78125 7.7617188
vt -9.8359375 8.6328125
vt -9.828125 7.765625
vt -11.34375 8.6328125
vt -11.34375 7.765625
vt -6.859375 8.6484375
vt -6.8710938 7.7773438
vt -6.9101562 8.6484375
vt -6.90625 7.7773438
vt -8.4296875 8.640625
vt -8.421875 7.7773438
vt -8.46875 8.640625
vt -8.453125 7.7734375
vt -9.796875 8.6328125
vt -9.78125 7.7617188
vt -9.8359375 8.6328125
vt -9.828125 7.765625
vt -8.4375 7.6914062
vt -9.796875 7.6835938
vt -8.453125 7.7734375
vt -9.78125 7.7617188
vt -6.8984375 7.6914062
vt -8.4375 7.6914062
vt -6.90625 7.7773438
vt -8.421875 7.7773438
vt 11.296875 -12.2109375
vt 17.46875 -12.2109375
vt 11.296875 -16.046875
vt 17.5 -16.046875
vt 20.03125 -8.2890625
vt 19.9375 -11.28125
vt 17.65625 -8.2265625
vt 17.625 -11.234375
vt 8.765625 -4.921875
vt 8.796875 -6.21875
vt 7.5039062 -4.9492188
vt 7.5273438 -6.2460938
vt 5.8984375 -4.546875
vt 5.9179688 -6.0585938
vt 4.6367188 -4.5820312
vt 4.6523438 -6.0976562
vt 5.7460938 -7.8632812
vt 5.7890625 -9.1953125
vt 4.2421875 -7.8867188
vt 4.2773438 -9.21875
vt 0.19628906 0.9663086
vt 0.17993164 0.6142578
vt 0.037200928 0.6142578
vt 0.19628906 0.9663086
vt 0.17993164 0.6142578
vt 0.037200928 0.6142578
vt 0.19628906 0.9663086
vt 0.17993164 0.6142578
vt 0.037200928 0.6142578
vt 0.19628906 0.9663086
vt 0.17993164 0.6142578
vt 0.037200928 0.6142578
vt 0.19628906 0.9628906
vt 0.17993164 0.6142578
vt 0.037200928 0.6142578
vt 0.19628906 0.9628906
vt 0.17993164 0.6142578
vt 0.037200928 0.6142578
vt 0.19628906 0.9628906
vt 0.17993164 0.6142578
vt 0.037200928 0.6142578
vt 0.19628906 0.9628906
vt 0.17993164 0.6142578
vt 0.037200928 0.6142578
vt 0.17993164 0.6142578
vt 0.19628906 0.9628906
vt 0.82910156 0.6142578
vt 0.82910156 0.9628906
vt 0.82910156 0.6142578
vt 0.19628906 0.9628906
vt 0.17993164 0.6142578
vt 0.19628906 0.9628906
vt 0.82910156 0.6142578
vt 0.82910156 0.9628906
vt 0.82910156 0.6142578
vt 0.19628906 0.9628906
vt 0.17993164 0.6142578
vt 0.19628906 0.9628906
vt 0.82910156 0.6142578
vt 0.82910156 0.9628906
vt 0.82910156 0.6142578
vt 0.19628906 0.9628906
vt 0.17993164 0.6142578
vt 0.19628906 0.9628906
vt 0.82910156 0.6142578
vt 0.82910156 0.9628906
vt 0.82910156 0.6142578
vt 0.19628906 0.9628906
vt 0.82910156 0.01386261
vt 0.17993164 0.6142578
vt 0.17443848 0.01386261
vt 0.17993164 0.6142578
vt 0.82910156 0.01386261
vt 0.82910156 0.6142578
vt 0.82910156 0.01386261
vt 0.17993164 0.6142578
vt 0.17443848 0.01386261
vt 0.17993164 0.6142578
vt 0.82910156 0.01386261
vt 0.82910156 0.6142578
vt 0.82910156 0.01386261
vt 0.17993164 0.6142578
vt 0.14440918 0.01386261
vt 0.17993164 0.6142578
vt 0.82910156 0.01386261
vt 0.19628906 0.9628906
vt 0.17993164 0.6142578
vt 0.037200928 0.6142578
vt 0.19628906 0.9628906
vt 0.17993164 0.6142578
vt 0.037200928 0.6142578
vt 0.19628906 0.9628906
vt 0.17993164 0.6142578
vt 0.037200928 0.6142578
vt 0.19628906 0.9628906
vt 0.17993164 0.6142578
vt 0.037200928 0.6142578
vt 0.17993164 0.6142578
vt 0.19628906 0.9628906
vt 0.82910156 0.6142578
vt 0.82910156 0.9628906
vt 0.82910156 0.6142578
vt 0.19628906 0.9628906
vt 0.17993164 0.6142578
vt 0.19628906 0.9628906
vt 0.82910156 0.6142578
vt 0.82910156 0.9628906
vt 0.82910156 0.6142578
vt 0.19628906 0.9628906
vt 0.19628906 0.9628906
vt 0.17993164 0.6142578
vt 0.037200928 0.6142578
vt 0.19628906 0.9628906
vt 0.17993164 0.6142578
vt 0.037200928 0.6142578
vt 0.19628906 0.9628906
vt 0.17993164 0.6142578
vt 0.037200928 0.6142578
vt 0.19628906 0.9628906
vt 0.17993164 0.6142578
vt 0.037200928 0.6142578
vt 0.17993164 0.6142578
vt 0.19628906 0.9628906
vt 0.82910156 0.6142578
vt 0.82910156 0.9628906
vt 0.82910156 0.6142578
vt 0.19628906 0.9628906
vt 0.17993164 0.6142578
vt 0.19628906 0.9628906
vt 0.82910156 0.6142578
vt 0.82910156 0.9628906
vt 0.82910156 0.6142578
vt 0.19628906 0.9628906
vt 0.19628906 0.9628906
vt 0.17993164 0.6142578
vt 0.037200928 0.6142578
vt 0.19628906 0.9628906
vt 0.17993164 0.6142578
vt 0.037200928 0.6142578
vt 0.19628906 0.9628906
vt 0.17993164 0.6142578
vt 0.037200928 0.6142578
vt 0.19628906 0.9628906
vt 0.17993164 0.6142578
vt 0.037200928 0.6142578
vt 0.17993164 0.6142578
vt 0.19628906 0.9628906
vt 0.82910156 0.6142578
vt 0.82910156 0.9628906
vt 0.82910156 0.6142578
vt 0.19628906 0.9628906
vt 0.17993164 0.6142578
vt 0.19628906 0.9628906
vt 0.82910156 0.6142578
vt 0.82910156 0.9628906
vt 0.82910156 0.6142578
vt 0.19628906 0.9628906
vt 0.03262329 0.01386261
vt 0.037200928 0.6142578
vt 0.17443848 0.01386261
vt 0.17993164 0.6142578
vt 0.03262329 0.01386261
vt 0.037200928 0.6142578
vt 0.17443848 0.01386261
vt 0.17993164 0.6142578
vt 0.03262329 0.01386261
vt 0.037200928 0.6142578
vt 0.17443848 0.01386261
vt 0.17993164 0.6142578
vt 0.03262329 0.01386261
vt 0.037200928 0.6142578
vt 0.17443848 0.01386261
vt 0.17993164 0.6142578
vt 0.17993164 0.6142578
vt 0.19628906 0.9663086
vt 0.82910156 0.6142578
vt 0.82910156 0.9663086
vt 0.17993164 0.6142578
vt 0.19628906 0.9663086
vt 0.82910156 0.6142578
vt 0.82910156 0.9663086
vt 0.17993164 0.6142578
vt 0.19628906 0.9663086
vt 0.82910156 0.6142578
vt 0.82910156 0.9663086
vt 0.17993164 0.6142578
vt 0.19628906 0.9663086
vt 0.82910156 0.6142578
vt 0.82910156 0.9663086
vt 0.17443848 0.01386261
vt 0.17993164 0.6142578
vt 0.82910156 0.01386261
vt 0.82910156 0.6142578
vt 0.17443848 0.01386261
vt 0.17993164 0.6142578
vt 0.82910156 0.01386261
vt 0.82910156 0.6142578
vt 0.17443848 0.01386261
vt 0.17993164 0.6142578
vt 0.82910156 0.01386261
vt 0.82910156 0.6142578
vt 0.17443848 0.01386261
vt 0.17993164 0.6142578
vt 0.82910156 0.01386261
vt 0.82910156 0.6142578
vt 0.03262329 0.01386261
vt 0.037200928 0.6142578
vt 0.14440918 0.01386261
vt 0.17993164 0.6142578
vt 0.03262329 0.01386261
vt 0.037200928 0.6142578
vt 0.17443848 0.01386261
vt 0.17993164 0.6142578
vt 0.03262329 0.01386261
vt 0.037200928 0.6142578
vt 0.14440918 0.01386261
vt 0.17993164 0.6142578
vt 0.03262329 0.01386261
vt 0.037200928 0.6142578
vt 0.17443848 0.01386261
vt 0.17993164 0.6142578
vt 0.14440918 0.01386261
vt 0.17993164 0.6142578
vt 0.82910156 0.01386261
vt 0.82910156 0.6142578
vt 0.03262329 0.01386261
vt 0.037200928 0.6142578
vt 0.17443848 0.01386261
vt 0.17993164 0.6142578
vt 0.03262329 0.01386261
vt 0.037200928 0.6142578
vt 0.1472168 0.01386261
vt 0.17993164 0.6142578
vt 0.03262329 0.01386261
vt 0.037200928 0.6142578
vt 0.1472168 0.01386261
vt 0.17993164 0.6142578
vt 0.03262329 0.01386261
vt 0.037200928 0.6142578
vt 0.1472168 0.01386261
vt 0.17993164 0.6142578
vt 0.17993164 0.6142578
vt 0.19628906 0.9628906
vt 0.82910156 0.6142578
vt 0.82910156 0.9628906
vt 0.17993164 0.6142578
vt 0.19628906 0.9628906
vt 0.82910156 0.6142578
vt 0.82910156 0.9628906
vt 0.1472168 0.01386261
vt 0.17993164 0.6142578
vt 0.82910156 0.01386261
vt 0.82910156 0.6142578
vt 0.1472168 0.01386261
vt 0.17993164 0.6142578
vt 0.82910156 0.01386261
vt 0.82910156 0.6142578
vt 0.1472168 0.01386261
vt 0.17993164 0.6142578
vt 0.82910156 0.01386261
vt 0.82910156 0.6142578
vt 0.17443848 0.01386261
vt 0.17993164 0.6142578
vt 0.82910156 0.01386261
vt 0.82910156 0.6142578
vt 0.03262329 0.01386261
vt 0.037200928 0.6142578
vt 0.17443848 0.01386261
vt 0.17993164 0.6142578
vt 0.03262329 0.01386261
vt 0.037200928 0.6142578
vt 0.1472168 0.01386261
vt 0.17993164 0.6142578
vt 0.03262329 0.01386261
vt 0.037200928 0.6142578
vt 0.1472168 0.01386261
vt 0.17993164 0.6142578
vt 0.03262329 0.01386261
vt 0.037200928 0.6142578
vt 0.1472168 0.01386261
vt 0.17993164 0.6142578
vt 0.17993164 0.6142578
vt 0.19628906 0.9628906
vt 0.82910156 0.6142578
vt 0.82910156 0.9628906
vt 0.17993164 0.6142578
vt 0.19628906 0.9628906
vt 0.82910156 0.6142578
vt 0.82910156 0.9628906
vt 0.1472168 0.01386261
vt 0.17993164 0.6142578
vt 0.82910156 0.01386261
vt 0.82910156 0.6142578
vt 0.1472168 0.01386261
vt 0.17993164 0.6142578
vt 0.82910156 0.01386261
vt 0.82910156 0.6142578
vt 0.1472168 0.01386261
vt 0.17993164 0.6142578
vt 0.82910156 0.01386261
vt 0.82910156 0.6142578
vt 0.17443848 0.01386261
vt 0.17993164 0.6142578
vt 0.82910156 0.01386261
vt 0.82910156 0.6142578
vt 0.03262329 0.01386261
vt 0.037200928 0.6142578
vt 0.17443848 0.01386261
vt 0.17993164 0.6142578
vt 0.03262329 0.01386261
vt 0.037200928 0.6142578
vt 0.1472168 0.01386261
vt 0.17993164 0.6142578
vt 0.03262329 0.01386261
vt 0.037200928 0.6142578
vt 0.1472168 0.01386261
vt 0.17993164 0.6142578
vt 0.03262329 0.01386261
vt 0.037200928 0.6142578
vt 0.1472168 0.01386261
vt 0.17993164 0.6142578
vt 0.17993164 0.6142578
vt 0.19628906 0.9628906
vt 0.82910156 0.6142578
vt 0.82910156 0.9628906
vt 0.17993164 0.6142578
vt 0.19628906 0.9628906
vt 0.82910156 0.6142578
vt 0.82910156 0.9628906
vt 0.1472168 0.01386261
vt 0.17993164 0.6142578
vt 0.82910156 0.01386261
vt 0.82910156 0.6142578
vt 0.1472168 0.01386261
vt 0.17993164 0.6142578
vt 0.82910156 0.01386261
vt 0.82910156 0.6142578
vt 0.1472168 0.01386261
vt 0.17993164 0.6142578
vt 0.82910156 0.01386261
vt 0.82910156 0.6142578
vt 0.17443848 0.01386261
vt 0.17993164 0.6142578
vt 0.82910156 0.01386261
vt 0.82910156 0.6142578
vt 23.71875 7.140625
vt 19.96875 7.1015625
vt 23.65625 13.3046875
vt 19.90625 13.265625
vt 19.578125 7.0585938
vt 17.375 7.1171875
vt 19.671875 10.0390625
vt 17.390625 10.078125
vt 13.6015625 18.75
vt 12.3359375 18.765625
vt 13.609375 20.046875
vt 12.3515625 20.0625
vt 13.7578125 15.5859375
vt 12.4921875 15.6171875
vt 13.75 17.109375
vt 12.4921875 17.125
vt 13.921875 13.75
vt 12.4140625 13.765625
vt 13.9453125 15.0859375
vt 12.4453125 15.09375
vn 0.7163086 0.003665924 0.6982422
vn 0.7163086 0.003665924 0.6982422
vn 0.7163086 0.003665924 0.6982422
vn 0.7163086 0.003665924 0.6982422
vn 0.7163086 0.003665924 0.6982422
vn 0.7163086 0.003665924 0.6982422
vn -0.7163086 -0.0012130737 -0.6977539
vn -0.7163086 -0.0012130737 -0.6977539
vn -0.7163086 -0.0012130737 -0.6977539
vn -0.7163086 -0.0012130737 -0.6977539
vn -0.7163086 -0.0012130737 -0.6977539
vn -0.7163086 -0.0012130737 -0.6977539
vn 0.40405273 -0.83935547 0.3642578
vn 0.40405273 -0.83935547 0.3642578
vn 0.40405273 -0.83935547 0.3642578
vn -0.4140625 -0.8027344 0.42871094
vn -0.4140625 -0.8027344 0.42871094
vn -0.4140625 -0.8027344 0.42871094
vn 0.6230469 -0.453125 -0.63720703
vn 0.6230469 -0.453125 -0.63720703
vn 0.6230469 -0.453125 -0.63720703
vn -0.5361328 -0.64501953 -0.5449219
vn -0.5361328 -0.64501953 -0.5449219
vn -0.5361328 -0.64501953 -0.5449219
vn 0.80126953 -0.59814453 0.004470825
vn 0.80126953 -0.59814453 0.004470825
vn 0.80126953 -0.59814453 0.004470825
vn 0.5522461 -0.8334961 -0.008201599
vn 0.5522461 -0.8334961 -0.008201599
vn 0.5522461 -0.8334961 -0.008201599
vn 0.49169922 -0.7207031 0.4885254
vn 0.48486328 -0.72558594 0.4880371
vn 0.49243164 -0.75097656 0.43969727
vn -0.44140625 -0.71728516 0.5395508
vn -0.4404297 -0.7524414 0.48950195
vn -0.4404297 -0.7524414 0.48950195
vn 0.14648438 -0.7265625 -0.6713867
vn 0.14672852 -0.7338867 -0.6635742
vn 0.14746094 -0.7338867 -0.6635742
vn -0.6821289 -0.7246094 -0.097473145
vn -0.6821289 -0.7246094 -0.097473145
vn -0.6821289 -0.7246094 -0.097473145
vn 0.58984375 -0.80615234 -0.048858643
vn 0.58447266 -0.81152344 0
vn 0.58984375 -0.80615234 -0.048858643
vn 0.5371094 -0.84228516 -0.048828125
vn 0.5371094 -0.84228516 -0.048828125
vn 0.53808594 -0.84277344 0
vn -0.5371094 -0.84228516 0.048828125
vn -0.5371094 -0.84228516 0.048828125
vn -0.5371094 -0.84228516 0.048828125
vn -0.6328125 -0.7729492 0.048675537
vn -0.6328125 -0.7729492 0.048675537
vn -0.6328125 -0.7729492 0.048675537
vn 0.40527344 0.0029029846 0.9140625
vn 0.40527344 0.0029029846 0.9140625
vn 0.40527344 0.0029029846 0.9140625
vn 0.40527344 0.0029029846 0.9140625
vn 0.40527344 0.0029029846 0.9140625
vn 0.40527344 0.0029029846 0.9140625
vn 0.36743164 -0.42163086 0.82910156
vn 0.36743164 -0.42163086 0.82910156
vn 0.36743164 -0.42163086 0.82910156
vn -0.78027344 -0.5209961 0.34594727
vn -0.78027344 -0.5209961 0.34594727
vn -0.78027344 -0.5209961 0.34594727
vn 0.86816406 -0.31274414 -0.38500977
vn 0.86816406 -0.31274414 -0.38500977
vn 0.86816406 -0.31274414 -0.38500977
vn -0.37597656 -0.37280273 -0.84814453
vn -0.37597656 -0.37280273 -0.84814453
vn -0.37597656 -0.37280273 -0.84814453
vn 0.82666016 -0.42163086 0.37304688
vn 0.82666016 -0.42163086 0.37304688
vn 0.82666016 -0.42163086 0.37304688
vn 0.8066406 -0.46875 0.36035156
vn 0.8066406 -0.46875 0.36035156
vn 0.8066406 -0.46875 0.36035156
vn -0.35009766 -0.5209961 0.7783203
vn -0.35009766 -0.5209961 0.7783203
vn -0.35009766 -0.5209961 0.7783203
vn -0.31420898 -0.62109375 0.71777344
vn -0.31420898 -0.62109375 0.71777344
vn -0.31420898 -0.62109375 0.71777344
vn 0.6645508 0.0023517609 0.7475586
vn 0.6645508 0.0023517609 0.7475586
vn 0.6645508 0.0023517609 0.7475586
vn 0.6640625 0.0023498535 0.7475586
vn 0.6640625 0.0023498535 0.7475586
vn 0.6640625 0.0023498535 0.7475586
vn 0.5917969 -0.45410156 0.6660156
vn 0.5917969 -0.45410156 0.6660156
vn 0.5917969 -0.45410156 0.6660156
vn -0.53808594 -0.5410156 0.6464844
vn -0.53808594 -0.5410156 0.6464844
vn -0.53808594 -0.5410156 0.6464844
vn 0.6044922 -0.32788086 -0.7260742
vn 0.6044922 -0.32788086 -0.7260742
vn 0.6044922 -0.32788086 -0.7260742
vn -0.60791016 -0.40307617 -0.68408203
vn -0.60791016 -0.40307617 -0.68408203
vn -0.60791016 -0.40307617 -0.68408203
vn 0.87841797 -0.47705078 0.022644043
vn 0.87841797 -0.47705078 0.022644043
vn 0.87841797 -0.47705078 0.022644043
vn 0.85009766 -0.5263672 0.018218994
vn 0.85009766 -0.5263672 0.018218994
vn 0.85009766 -0.5263672 0.018218994
vn -0.0042686462 -0.5239258 0.8515625
vn -0.0042686462 -0.5239258 0.8515625
vn -0.0042686462 -0.5239258 0.8515625
vn 0.0026340485 -0.62109375 0.7836914
vn 0.0026340485 -0.62109375 0.7836914
vn 0.0026340485 -0.62109375 0.7836914
vn 0.6645508 0.002544403 0.7475586
vn 0.6645508 0.002544403 0.7475586
vn 0.6645508 0.002544403 0.7475586
vn 0.6640625 0.0025424957 0.7475586
vn 0.6640625 0.0025424957 0.7475586
vn 0.6640625 0.0025424957 0.7475586
vn 0.5917969 -0.45410156 0.6660156
vn 0.5917969 -0.45410156 0.6660156
vn 0.5917969 -0.45410156 0.6660156
vn -0.53808594 -0.5410156 0.6464844
vn -0.53808594 -0.5410156 0.6464844
vn -0.53808594 -0.5410156 0.6464844
vn 0.6044922 -0.32788086 -0.7260742
vn 0.6044922 -0.32788086 -0.7260742
vn 0.6044922 -0.32788086 -0.7260742
vn -0.60791016 -0.40307617 -0.68408203
vn -0.60791016 -0.40307617 -0.68408203
vn -0.60791016 -0.40307617 -0.68408203
vn 0.87890625 -0.47705078 -0.0063591003
vn 0.87890625 -0.47705078 -0.0063591003
vn 0.87890625 -0.47705078 -0.0063591003
vn 0.8515625 -0.5239258 -0.009086609
vn 0.8515625 -0.5239258 -0.009086609
vn 0.8515625 -0.5239258 -0.009086609
vn -0.0048599243 -0.5239258 0.8520508
vn -0.0048599243 -0.5239258 0.8520508
vn -0.0048599243 -0.5239258 0.8520508
vn 0.0029945374 -0.62109375 0.7836914
vn 0.0029945374 -0.62109375 0.7836914
vn 0.0029945374 -0.62109375 0.7836914
vn -0.0002553463 -0.0023841858 1
vn -0.0002553463 -0.0023841858 1
vn -0.0002553463 -0.0023841858 1
vn -0.00025439262 -0.002380371 1
vn -1 -0.0074424744 0.0013999939
vn -1 -0.0074424744 0.0013999939
vn -1 -0.0074424744 0.0013999939
vn -1 -0.0074386597 0.0014019012
vn 0.0002529621 0.0058898926 -1
vn 0.0002529621 0.0058898926 -1
vn 0.0002529621 0.0058898926 -1
vn 0.00025224686 0.0058937073 -1
vn 1 0.007446289 -0.0014028549
vn 1 0.007446289 -0.0014028549
vn 1 0.007446289 -0.0014028549
vn 1 0.0074424744 -0.0014019012
vn -0.6977539 -0.006893158 0.7163086
vn -0.6977539 -0.006893158 0.7163086
vn -0.6977539 -0.006893158 0.7163086
vn -0.6977539 -0.0068969727 0.7163086
vn 0.6977539 0.009407043 -0.7163086
vn 0.6977539 0.009407043 -0.7163086
vn 0.6977539 0.009407043 -0.7163086
vn 0.6977539 0.009407043 -0.7163086
vn 0.0005464554 -0.59472656 -0.80371094
vn 0.0005464554 -0.59472656 -0.80371094
vn 0.0005464554 -0.59472656 -0.80371094
vn 0.0006117821 -0.5908203 -0.8066406
vn -0.63720703 -0.7705078 -0.0067481995
vn -0.63720703 -0.7705078 -0.0067481995
vn -0.63720703 -0.7705078 -0.0067481995
vn -0.61328125 -0.79003906 -0.0061035156
vn 0.00010764599 -0.82666016 0.5625
vn 0.00010764599 -0.82666016 0.5625
vn 0.00010764599 -0.82666016 0.5625
vn 0.00043153763 -0.8359375 0.5488281
vn 0.09692383 0.024230957 0.9951172
vn 0.09692383 0.024414062 0.9951172
vn 0.097717285 0 0.9951172
vn 0.097717285 0 0.9951172
vn -0.99902344 0 0.048736572
vn -0.99902344 0 0.048736572
vn -0.9970703 0 0.07598877
vn -0.99902344 0 0.048736572
vn -0.14648438 -0.024414062 -0.98876953
vn -0.14660645 0 -0.9892578
vn -0.14648438 -0.024414062 -0.98876953
vn -0.14660645 0 -0.9892578
vn 0.9951172 0 -0.10070801
vn 0.9951172 0 -0.10070801
vn 0.9951172 0 -0.097717285
vn 0.9951172 0 -0.097717285
vn -0.64697266 0 0.7626953
vn -0.6821289 0 0.73095703
vn -0.6821289 0 0.73095703
vn -0.6821289 0.024368286 0.73095703
vn 0.74121094 0 0.6713867
vn 0.74121094 0 0.6713867
vn 0.72998047 0 0.68359375
vn 0.74072266 0.026229858 0.6713867
vn -0.98535156 0 -0.17028809
vn -0.98535156 0 -0.17028809
vn -0.98535156 0 -0.17028809
vn -0.98535156 0 -0.17028809
vn 0.19543457 -0.024429321 -0.98046875
vn 0.19702148 0 -0.98046875
vn 0.19628906 0 -0.98046875
vn 0.19628906 0 -0.98046875
vn -0.09753418 -0.8046875 -0.5854492
vn -0.09777832 -0.8125 -0.57421875
vn -0.09753418 -0.8046875 -0.5854492
vn -0.09753418 -0.8046875 -0.5854492
vn 0.048950195 -0.8076172 0.58740234
vn 0.048950195 -0.8076172 0.58740234
vn 0.048828125 -0.84228516 0.5371094
vn 0.048950195 -0.8076172 0.58740234
vn -0.40112305 0.0041007996 0.9160156
vn -0.40112305 0.0041007996 0.9160156
vn -0.40112305 0.0041007996 0.9160156
vn -0.40112305 0.004096985 0.9160156
vn -0.9140625 -0.00020265579 -0.40600586
vn -0.9140625 -0.00020265579 -0.40600586
vn -0.9140625 -0.00020265579 -0.40600586
vn -0.9140625 -4.7683716E-07 -0.40600586
vn 0.40600586 1.847744E-06 -0.9140625
vn 0.40600586 1.847744E-06 -0.9140625
vn 0.40600586 1.847744E-06 -0.9140625
vn 0.40600586 2.8014183E-06 -0.9140625
vn 0.91308594 -2.0861626E-06 0.40795898
vn 0.91308594 -2.0861626E-06 0.40795898
vn 0.91308594 -2.0861626E-06 0.40795898
vn 0.91308594 0.00021481514 0.40795898
vn -0.9140625 0.0029010773 0.40527344
vn -0.9140625 0.0029010773 0.40527344
vn -0.9140625 0.0029010773 0.40527344
vn -0.9140625 0.0029029846 0.40527344
vn -0.40527344 8.940697E-07 -0.9140625
vn -0.40527344 8.940697E-07 -0.9140625
vn -0.40527344 8.940697E-07 -0.9140625
vn -0.40527344 8.940697E-07 -0.9140625
vn 0.9140625 3.5762787E-07 -0.40527344
vn 0.9140625 3.5762787E-07 -0.40527344
vn 0.9140625 3.5762787E-07 -0.40527344
vn 0.9140625 -1.1920929E-07 -0.40527344
vn 0.3647461 -0.43432617 -0.82373047
vn 0.3647461 -0.43432617 -0.82373047
vn 0.3647461 -0.43432617 -0.82373047
vn 0.36816406 -0.42163086 -0.8286133
vn -0.8046875 -0.47314453 -0.35888672
vn -0.8046875 -0.47314453 -0.35888672
vn -0.8046875 -0.47314453 -0.35888672
vn -0.796875 -0.48999023 -0.3540039
vn 0.0033607483 0.0030403137 1
vn 0.0033607483 0.0030403137 1
vn 0.0033607483 0.0030403137 1
vn 0.0033607483 0.0030384064 1
vn -1 -0.00017368793 -0.019119263
vn -1 -0.00017368793 -0.019119263
vn -1 -0.00017368793 -0.019119263
vn -1 -8.34465E-07 -0.018997192
vn 0.0012798309 9.536743E-07 -1
vn 0.0012798309 9.536743E-07 -1
vn 0.0012798309 9.536743E-07 -1
vn 0.0012788773 2.2649765E-06 -1
vn 1 -8.940697E-07 0.021575928
vn 1 -8.940697E-07 0.021575928
vn 1 -8.940697E-07 0.021575928
vn 1 0.00018334389 0.021438599
vn -0.6401367 0.0022583008 0.7685547
vn -0.6401367 0.0022583008 0.7685547
vn -0.6401367 0.0022583008 0.7685547
vn -0.6401367 0.0022621155 0.7685547
vn -0.6645508 5.9604645E-07 -0.7475586
vn -0.6645508 5.9604645E-07 -0.7475586
vn -0.6645508 5.9604645E-07 -0.7475586
vn -0.6645508 7.1525574E-07 -0.7475586
vn 0.6401367 1.1324883E-06 -0.7685547
vn 0.6401367 1.1324883E-06 -0.7685547
vn 0.6401367 1.1324883E-06 -0.7685547
vn 0.6401367 6.556511E-07 -0.7685547
vn 0.00022554398 -0.43847656 -0.8989258
vn 0.00022554398 -0.43847656 -0.8989258
vn 0.00022554398 -0.43847656 -0.8989258
vn 0.0011587143 -0.42285156 -0.90625
vn -0.84716797 -0.53125 -0.017456055
vn -0.84716797 -0.53125 -0.017456055
vn -0.84716797 -0.53125 -0.017456055
vn -0.8359375 -0.54833984 -0.0158844
vn 0.0038204193 0.003288269 1
vn 0.0038204193 0.003288269 1
vn 0.0038204193 0.003288269 1
vn 0.0038204193 0.003288269 1
vn -1 -8.4757805E-05 0.012535095
vn -1 -8.4757805E-05 0.012535095
vn -1 -8.4757805E-05 0.012535095
vn -1 0 0.012580872
vn 0.0014543533 1.013279E-06 -1
vn 0.0014543533 1.013279E-06 -1
vn 0.0014543533 1.013279E-06 -1
vn 0.0014533997 2.4437904E-06 -1
vn 1 -9.536743E-07 -0.010620117
vn 1 -9.536743E-07 -0.010620117
vn 1 -9.536743E-07 -0.010620117
vn 1 9.274483E-05 -0.010673523
vn -0.6401367 0.0024414062 0.7685547
vn -0.6401367 0.0024414062 0.7685547
vn -0.6401367 0.0024414062 0.7685547
vn -0.6401367 0.0024471283 0.7685547
vn -0.6645508 1.2516975E-06 -0.7475586
vn -0.6645508 1.2516975E-06 -0.7475586
vn -0.6645508 1.2516975E-06 -0.7475586
vn -0.6645508 7.748604E-07 -0.7475586
vn 0.6401367 1.2516975E-06 -0.7685547
vn 0.6401367 1.2516975E-06 -0.7685547
vn 0.6401367 1.2516975E-06 -0.7685547
vn 0.6401367 7.1525574E-07 -0.7685547
vn 0.00025629997 -0.43847656 -0.8989258
vn 0.00025629997 -0.43847656 -0.8989258
vn 0.00025629997 -0.43847656 -0.8989258
vn 0.0013170242 -0.42285156 -0.90625
vn -0.8432617 -0.5371094 0.0098724365
vn -0.8432617 -0.5371094 0.0098724365
vn -0.8432617 -0.5371094 0.0098724365
vn -0.8364258 -0.54833984 0.010520935
vn 0.00045347214 -1 -0.00881958
vn 0.00045347214 -1 -0.00881958
vn 0.00045347214 -1 -0.00881958
vn -2.3901463E-05 -1 -0.008056641
vn -0 -1 0
vn -0 -1 0
vn -0 -1 0
vn -0 -0.9995117 0.024383545
vn -2.3841858E-07 -1 -2.9802322E-07
vn -2.3841858E-07 -1 -2.9802322E-07
vn -2.3841858E-07 -1 -2.9802322E-07
vn -0.0023918152 -1 0.00094652176
vn -1.1920929E-07 -1 -1.7881393E-07
vn -1.1920929E-07 -1 -1.7881393E-07
vn -1.1920929E-07 -1 -1.7881393E-07
vn -0.0015439987 -1 0.0018053055
vn -1.7881393E-07 -1 -1.1920929E-07
vn -1.7881393E-07 -1 -1.1920929E-07
vn -1.7881393E-07 -1 -1.1920929E-07
vn -0.0017557144 -1 0.0015621185
vn 0.19274902 0.95751953 0.21557617
vn 0.19274902 0.95751953 0.21557617
vn 0.19274902 0.95751953 0.21557617
vn -0.22070312 0.94970703 0.22277832
vn -0.22070312 0.94970703 0.22277832
vn -0.22070312 0.94970703 0.22277832
vn 0.18762207 0.96240234 -0.19641113
vn 0.18762207 0.96240234 -0.19641113
vn 0.18762207 0.96240234 -0.19641113
vn -0.22229004 0.95654297 -0.18908691
vn -0.22229004 0.95654297 -0.18908691
vn -0.22229004 0.95654297 -0.18908691
vn -0.1953125 0.9609375 -0.1953125
vn -0.1953125 0.9609375 -0.1953125
vn -0.1953125 0.9609375 -0.1953125
vn -0.34179688 0.8544922 0.390625
vn -0.34179688 0.8544922 0.390625
vn -0.34179688 0.8754883 0.34179688
vn 0.09765625 0.85302734 -0.5126953
vn 0.09765625 0.85302734 -0.5126953
vn 0.09765625 0.85302734 -0.5126953
vn -0.48828125 0.8671875 -0.09765625
vn -0.48828125 0.8671875 -0.09765625
vn -0.48828125 0.8671875 -0.09765625
vn 0.048828125 0.89697266 0.43945312
vn 0.048828125 0.9194336 0.390625
vn 0.048828125 0.89697266 0.43945312
vn -0.048828125 0.9550781 -0.29296875
vn -0.048828125 0.96875 -0.24414062
vn -0.048828125 0.96875 -0.24414062
vn -0.48828125 0.8725586 0.024414062
vn -0.48828125 0.8725586 0.024414062
vn -0.48828125 0.87109375 0.048828125
vn -0.6347656 0.77246094 0
vn -0.6347656 0.7709961 0.048828125
vn -0.6347656 0.7709961 0.048828125
vn -0.048828125 0.8847656 -0.4638672
vn -0.048828125 0.89697266 -0.43945312
vn -0.048828125 0.89697266 -0.43945312
vn -0.09765625 0.85302734 -0.5126953
vn -0.09765625 0.85302734 -0.5126953
vn -0.09765625 0.85302734 -0.5126953
vn -0.34179688 0.9399414 0
vn -0.34179688 0.9399414 0
vn -0.34179688 0.9399414 0
vn 0.93066406 0.35205078 -0.09765625
vn 0.93066406 0.35205078 -0.09765625
vn 0.92626953 0.36401367 -0.09765625
vn 0.9238281 0.37060547 -0.09765625
vn 0.9213867 0.37573242 -0.09765625
vn 0.097717285 0.46557617 0.8798828
vn 0.09777832 0.4650879 0.8798828
vn 0.09765625 0.46655273 0.87890625
vn 0.09832764 0.27148438 0.95751953
vn 0.09832764 0.27148438 0.95751953
vn 0.097473145 0.27416992 0.95654297
vn -0.92626953 0.36987305 0.07312012
vn -0.92626953 0.37353516 0.04876709
vn -0.92626953 0.37353516 0.04876709
vn -0.8798828 0.47314453 0.048858643
vn -0.8798828 0.4729004 0.04888916
vn -0.8798828 0.47265625 0.04888916
vn 0.96533203 0.24279785 -0.09765625
vn 0.96533203 0.24157715 -0.097717285
vn 0.96875 0.22839355 -0.09765625
vn 0.36572266 0.43139648 0.82470703
vn 0.36572266 0.43139648 0.82470703
vn 0.36572266 0.43139648 0.82470703
vn -0.7441406 0.5810547 0.32983398
vn -0.7441406 0.5810547 0.32983398
vn -0.7441406 0.5810547 0.32983398
vn 0.8701172 0.30639648 -0.38598633
vn 0.8701172 0.30639648 -0.38598633
vn 0.8701172 0.30639648 -0.38598633
vn -0.36816406 0.4189453 -0.8300781
vn -0.36816406 0.4189453 -0.8300781
vn -0.36816406 0.4189453 -0.8300781
vn -0.29858398 0.66748047 0.6821289
vn -0.29858398 0.66748047 0.6821289
vn -0.29858398 0.66748047 0.6821289
vn -0.35180664 0.51464844 0.7817383
vn -0.35180664 0.51464844 0.7817383
vn -0.35180664 0.51464844 0.7817383
vn -0.7919922 0.49829102 -0.35205078
vn -0.7919922 0.49829102 -0.35205078
vn -0.7919922 0.49829102 -0.35205078
vn -0.8222656 0.4338379 -0.3684082
vn -0.8222656 0.4338379 -0.3684082
vn -0.8222656 0.4338379 -0.3684082
vn 0.5883789 0.46435547 0.6621094
vn 0.5883789 0.46435547 0.6621094
vn 0.5883789 0.46435547 0.6621094
vn -0.51123047 0.6010742 0.61376953
vn -0.51123047 0.6010742 0.61376953
vn -0.51123047 0.6010742 0.61376953
vn 0.60595703 0.32104492 -0.72753906
vn 0.60595703 0.32104492 -0.72753906
vn 0.60595703 0.32104492 -0.72753906
vn -0.59277344 0.45141602 -0.6669922
vn -0.59277344 0.45141602 -0.6669922
vn -0.59277344 0.45141602 -0.6669922
vn 0.002506256 0.6660156 0.74560547
vn 0.002506256 0.6660156 0.74560547
vn 0.002506256 0.6660156 0.74560547
vn -0.004283905 0.5185547 0.85498047
vn -0.004283905 0.5185547 0.85498047
vn -0.004283905 0.5185547 0.85498047
vn -0.8300781 0.5571289 -0.0158844
vn -0.8300781 0.5571289 -0.0158844
vn -0.8300781 0.5571289 -0.0158844
vn -0.87158203 0.4897461 -0.019683838
vn -0.87158203 0.4897461 -0.019683838
vn -0.87158203 0.4897461 -0.019683838
vn 0.5883789 0.46435547 0.6621094
vn 0.5883789 0.46435547 0.6621094
vn 0.5883789 0.46435547 0.6621094
vn -0.51123047 0.6010742 0.61376953
vn -0.51123047 0.6010742 0.61376953
vn -0.51123047 0.6010742 0.61376953
vn 0.60595703 0.32104492 -0.72753906
vn 0.60595703 0.32104492 -0.72753906
vn 0.60595703 0.32104492 -0.72753906
vn -0.59277344 0.45141602 -0.6669922
vn -0.59277344 0.45141602 -0.6669922
vn -0.59277344 0.45141602 -0.6669922
vn 0.0028495789 0.6660156 0.74560547
vn 0.0028495789 0.6660156 0.74560547
vn 0.0028495789 0.6660156 0.74560547
vn -0.004875183 0.5185547 0.85498047
vn -0.004875183 0.5185547 0.85498047
vn -0.004875183 0.5185547 0.85498047
vn -0.83154297 0.55566406 0.010421753
vn -0.83154297 0.55566406 0.010421753
vn -0.83154297 0.55566406 0.010421753
vn -0.86572266 0.5004883 0.008773804
vn -0.86572266 0.5004883 0.008773804
vn -0.86572266 0.5004883 0.008773804
vn 0.66796875 0.34155273 0.6611328
vn 0.66796875 0.34155273 0.6611328
vn 0.66796875 0.34155273 0.6611328
vn 0.66796875 0.34179688 0.6611328
vn -0.6616211 0.32104492 0.6777344
vn -0.6616211 0.32104492 0.6777344
vn -0.6616211 0.32104492 0.6777344
vn -0.6616211 0.32104492 0.6777344
vn 0.6435547 0.38452148 -0.6616211
vn 0.6435547 0.38452148 -0.6616211
vn 0.6435547 0.38452148 -0.6616211
vn 0.6435547 0.38476562 -0.6616211
vn -0.6723633 0.36401367 -0.64453125
vn -0.6723633 0.36401367 -0.64453125
vn -0.6723633 0.36401367 -0.64453125
vn -0.6723633 0.36401367 -0.64453125
vn -0.0006136894 0.95166016 0.30737305
vn -0.0006136894 0.95166016 0.30737305
vn -0.0006136894 0.95166016 0.30737305
vn -0.00049352646 0.95410156 0.2998047
vn -0.3955078 0.91845703 0.007259369
vn -0.3955078 0.91845703 0.007259369
vn -0.3955078 0.91845703 0.007259369
vn -0.4206543 0.90722656 0.0066986084
vn -0.00047159195 0.9633789 -0.2685547
vn -0.00047159195 0.9633789 -0.2685547
vn -0.00047159195 0.9633789 -0.2685547
vn -0.0002207756 0.9589844 -0.28393555
vn 0.3737793 0.9277344 0.0062026978
vn 0.3737793 0.9277344 0.0062026978
vn 0.3737793 0.9277344 0.0062026978
vn 0.38208008 0.9243164 0.006336212
vn -0.00047922134 0.44360352 0.8964844
vn -0.00047922134 0.44360352 0.8964844
vn -0.00047922134 0.44360352 0.8964844
vn -0.00047922134 0.44360352 0.8964844
vn -0.88916016 0.4572754 0.0046195984
vn -0.88916016 0.4572754 0.0046195984
vn -0.88916016 0.4572754 0.0046195984
vn -0.88916016 0.4572754 0.0046195984
vn -5.7518482E-05 0.49731445 -0.8676758
vn -5.7518482E-05 0.49731445 -0.8676758
vn -5.7518482E-05 0.49731445 -0.8676758
vn -5.6803226E-05 0.49731445 -0.8676758
vn 0.875 0.484375 0.0022506714
vn 0.875 0.484375 0.0022506714
vn 0.875 0.484375 0.0022506714
vn 0.875 0.484375 0.0022506714
vn 0.73828125 0.21044922 0.640625
vn 0.7392578 0.2064209 0.6411133
vn 0.73828125 0.21057129 0.640625
vn 0.7392578 0.2064209 0.6411133
vn -0.6347656 0.32250977 0.70214844
vn -0.6347656 0.32202148 0.70214844
vn -0.6333008 0.31689453 0.7060547
vn -0.6333008 0.31689453 0.7060547
vn 0.14660645 0.31591797 -0.9375
vn 0.14660645 0.31591797 -0.9375
vn 0.14660645 0.31591797 -0.9375
vn 0.14660645 0.31591797 -0.9375
vn -0.92871094 0.32836914 -0.17114258
vn -0.92871094 0.32836914 -0.17114258
vn -0.92871094 0.32836914 -0.17114258
vn -0.92871094 0.32836914 -0.17114258
vn -0.14660645 0.40185547 -0.9038086
vn -0.14660645 0.40185547 -0.9038086
vn -0.14660645 0.4020996 -0.9038086
vn -0.14660645 0.40185547 -0.9038086
vn 0.39526367 0.22180176 0.89160156
vn 0.39526367 0.22180176 0.89160156
vn 0.39526367 0.22180176 0.89160156
vn 0.39526367 0.22180176 0.89160156
vn -0.89160156 0.22180176 0.39526367
vn -0.89160156 0.22180176 0.39526367
vn -0.89160156 0.22180176 0.39526367
vn -0.89160156 0.22167969 0.39526367
vn 0.89453125 0.20495605 -0.39672852
vn 0.89453125 0.20495605 -0.39672852
vn 0.89453125 0.20495605 -0.39672852
vn 0.89453125 0.20507812 -0.39672852
vn -0.39672852 0.20495605 -0.89453125
vn -0.39672852 0.20495605 -0.89453125
vn -0.39672852 0.20495605 -0.89453125
vn -0.39672852 0.20495605 -0.89453125
vn 0.3696289 0.41381836 -0.83203125
vn 0.3696289 0.41381836 -0.83203125
vn 0.3696289 0.41381836 -0.83203125
vn 0.36206055 0.44702148 -0.8178711
vn 0.8256836 0.42651367 0.36914062
vn 0.8256836 0.42651367 0.36914062
vn 0.8256836 0.42651367 0.36914062
vn 0.8310547 0.41381836 0.3720703
vn -0.38183594 0.3059082 0.8720703
vn -0.38183594 0.3059082 0.8720703
vn -0.38183594 0.3059082 0.8720703
vn -0.38183594 0.3059082 0.8720703
vn -0.87597656 0.2836914 -0.39038086
vn -0.87597656 0.2836914 -0.39038086
vn -0.87597656 0.2836914 -0.39038086
vn -0.8701172 0.3059082 -0.38671875
vn 0.38916016 0.2836914 -0.87646484
vn 0.38916016 0.2836914 -0.87646484
vn 0.38916016 0.2836914 -0.87646484
vn 0.38916016 0.2836914 -0.87646484
vn 0.8696289 0.3059082 0.38745117
vn 0.8696289 0.3059082 0.38745117
vn 0.8696289 0.3059082 0.38745117
vn 0.8754883 0.2836914 0.39135742
vn 0.64453125 0.24194336 0.72509766
vn 0.64453125 0.24194336 0.72509766
vn 0.64453125 0.24194336 0.72509766
vn 0.64453125 0.24194336 0.72509766
vn -0.6225586 0.23303223 0.7470703
vn -0.6225586 0.23303223 0.7470703
vn -0.6225586 0.23303223 0.7470703
vn -0.6225586 0.23303223 0.7470703
vn 0.625 0.2154541 -0.7504883
vn 0.625 0.2154541 -0.7504883
vn 0.625 0.2154541 -0.7504883
vn 0.625 0.2154541 -0.7504883
vn -0.64746094 0.22375488 -0.7285156
vn -0.64746094 0.22375488 -0.7285156
vn -0.64746094 0.22375488 -0.7285156
vn -0.64746094 0.22387695 -0.7285156
vn 0.00116539 0.41503906 -0.90966797
vn 0.00116539 0.41503906 -0.90966797
vn 0.00116539 0.41503906 -0.90966797
vn -2.2828579E-05 0.45336914 -0.8911133
vn 0.87597656 0.48217773 0.01890564
vn 0.87597656 0.48217773 0.01890564
vn 0.87597656 0.48217773 0.01890564
vn 0.8833008 0.46850586 0.019683838
vn 0.0031986237 0.30688477 0.95166016
vn 0.0031986237 0.30688477 0.95166016
vn 0.0031986237 0.30688477 0.95166016
vn 0.0031986237 0.30688477 0.95166016
vn -0.9453125 0.32641602 -0.019241333
vn -0.9453125 0.32641602 -0.019241333
vn -0.9453125 0.32641602 -0.019241333
vn -0.93603516 0.35107422 -0.017913818
vn 0.0012273788 0.28466797 -0.9584961
vn 0.0012273788 0.28466797 -0.9584961
vn 0.0012273788 0.28466797 -0.9584961
vn 0.0012273788 0.28466797 -0.9584961
vn 0.93603516 0.35107422 0.018936157
vn 0.93603516 0.35107422 0.018936157
vn 0.93603516 0.35107422 0.018936157
vn 0.9448242 0.32617188 0.020401001
vn 0.64453125 0.24194336 0.72509766
vn 0.64453125 0.24194336 0.72509766
vn 0.64453125 0.24194336 0.72509766
vn 0.64453125 0.24194336 0.72509766
vn -0.6225586 0.23303223 0.7470703
vn -0.6225586 0.23303223 0.7470703
vn -0.6225586 0.23303223 0.7470703
vn -0.6225586 0.23303223 0.7470703
vn 0.625 0.2154541 -0.7504883
vn 0.625 0.2154541 -0.7504883
vn 0.625 0.2154541 -0.7504883
vn 0.625 0.2154541 -0.7504883
vn -0.64746094 0.22375488 -0.7285156
vn -0.64746094 0.22375488 -0.7285156
vn -0.64746094 0.22375488 -0.7285156
vn -0.64746094 0.22387695 -0.7285156
vn 0.0013237 0.41503906 -0.90966797
vn 0.0013237 0.41503906 -0.90966797
vn 0.0013237 0.41503906 -0.90966797
vn -2.5987625E-05 0.45336914 -0.8911133
vn 0.87841797 0.47753906 -0.00932312
vn 0.87841797 0.47753906 -0.00932312
vn 0.87841797 0.47753906 -0.00932312
vn 0.8833008 0.46850586 -0.009033203
vn 0.0036354065 0.30688477 0.95166016
vn 0.0036354065 0.30688477 0.95166016
vn 0.0036354065 0.30688477 0.95166016
vn 0.0036354065 0.30688477 0.95166016
vn -0.9453125 0.32641602 0.010864258
vn -0.9453125 0.32641602 0.010864258
vn -0.9453125 0.32641602 0.010864258
vn -0.93652344 0.35107422 0.011734009
vn 0.0013952255 0.28466797 -0.9584961
vn 0.0013952255 0.28466797 -0.9584961
vn 0.0013952255 0.28466797 -0.9584961
vn 0.0013942719 0.28466797 -0.9584961
vn 0.93652344 0.35107422 -0.011009216
vn 0.93652344 0.35107422 -0.011009216
vn 0.93652344 0.35107422 -0.011009216
vn 0.9453125 0.32641602 -0.010032654
vn -0.00037240982 1 0.0071029663
vn -0.00037240982 1 0.0071029663
vn -0.00037240982 1 0.0071029663
vn -0.00037312508 1 0.007106781
vn -0 1 0
vn -0 1 0
vn -0 1 0
vn -0 1 0
vn 0.0037994385 1 -0.0037403107
vn 0.0037994385 1 -0.0037403107
vn 0.0037994385 1 -0.0037403107
vn 0.0012207031 1 -0.002714157
vn 0.0016775131 1 -0.004924774
vn 0.0016775131 1 -0.004924774
vn 0.0016775131 1 -0.004924774
vn 1.4901161E-05 1 -0.0029735565
vn 0.0019083023 1 -0.004184723
vn 0.0019083023 1 -0.004184723
vn 0.0019083023 1 -0.004184723
vn 1.41859055E-05 1 -0.0024929047
g D001_BB04_0
f 3/3/3 2/2/2 1/1/1
f 6/6/6 5/5/5 4/4/4
f 9/9/9 8/8/8 7/7/7
f 12/12/12 11/11/11 10/10/10
f 15/15/15 14/14/14 13/13/13
f 18/18/18 17/17/17 16/16/16
f 21/21/21 20/20/20 19/19/19
f 24/24/24 23/23/23 22/22/22
f 27/27/27 26/26/26 25/25/25
f 30/30/30 29/29/29 28/28/28
f 33/33/33 32/32/32 31/31/31
f 36/36/36 35/35/35 34/34/34
f 39/39/39 38/38/38 37/37/37
f 42/42/42 41/41/41 40/40/40
f 45/45/45 44/44/44 43/43/43
f 48/48/48 47/47/47 46/46/46
f 51/51/51 50/50/50 49/49/49
f 54/54/54 53/53/53 52/52/52
f 57/57/57 56/56/56 55/55/55
f 60/60/60 59/59/59 58/58/58
f 63/63/63 62/62/62 61/61/61
f 66/66/66 65/65/65 64/64/64
f 69/69/69 68/68/68 67/67/67
f 72/72/72 71/71/71 70/70/70
f 75/75/75 74/74/74 73/73/73
f 78/78/78 77/77/77 76/76/76
f 81/81/81 80/80/80 79/79/79
f 84/84/84 83/83/83 82/82/82
f 87/87/87 86/86/86 85/85/85
f 90/90/90 89/89/89 88/88/88
f 93/93/93 92/92/92 91/91/91
f 96/96/96 95/95/95 94/94/94
f 99/99/99 98/98/98 97/97/97
f 102/102/102 101/101/101 100/100/100
f 105/105/105 104/104/104 103/103/103
f 108/108/108 107/107/107 106/106/106
f 111/111/111 110/110/110 109/109/109
f 114/114/114 113/113/113 112/112/112
f 117/117/117 116/116/116 115/115/115
f 120/120/120 119/119/119 118/118/118
f 123/123/123 122/122/122 121/121/121
f 126/126/126 125/125/125 124/124/124
f 129/129/129 128/128/128 127/127/127
f 132/132/132 131/131/131 130/130/130
f 135/135/135 134/134/134 133/133/133
f 138/138/138 137/137/137 136/136/136
f 141/141/141 140/140/140 139/139/139
f 144/144/144 143/143/143 142/142/142
f 147/147/147 146/146/146 145/145/145
f 146/146/146 147/147/147 148/148/148
f 151/151/151 150/150/150 149/149/149
f 150/150/150 151/151/151 152/152/152
f 155/155/155 154/154/154 153/153/153
f 154/154/154 155/155/155 156/156/156
f 159/159/159 158/158/158 157/157/157
f 158/158/158 159/159/159 160/160/160
f 163/163/163 162/162/162 161/161/161
f 162/162/162 163/163/163 164/164/164
f 167/167/167 166/166/166 165/165/165
f 166/166/166 167/167/167 168/168/168
f 171/171/171 170/170/170 169/169/169
f 170/170/170 171/171/171 172/172/172
f 175/175/175 174/174/174 173/173/173
f 174/174/174 175/175/175 176/176/176
f 179/179/179 178/178/178 177/177/177
f 178/178/178 179/179/179 180/180/180
f 183/183/183 182/182/182 181/181/181
f 182/182/182 183/183/183 184/184/184
f 187/187/187 186/186/186 185/185/185
f 186/186/186 187/187/187 188/188/188
f 191/191/191 190/190/190 189/189/189
f 190/190/190 191/191/191 192/192/192
f 195/195/195 194/194/194 193/193/193
f 194/194/194 195/195/195 196/196/196
f 199/199/199 198/198/198 197/197/197
f 198/198/198 199/199/199 200/200/200
f 203/203/203 202/202/202 201/201/201
f 202/202/202 203/203/203 204/204/204
f 207/207/207 206/206/206 205/205/205
f 206/206/206 207/207/207 208/208/208
f 211/211/211 210/210/210 209/209/209
f 210/210/210 211/211/211 212/212/212
f 215/215/215 214/214/214 213/213/213
f 214/214/214 215/215/215 216/216/216
f 219/219/219 218/218/218 217/217/217
f 218/218/218 219/219/219 220/220/220
f 223/223/223 222/222/222 221/221/221
f 222/222/222 223/223/223 224/224/224
f 227/227/227 226/226/226 225/225/225
f 226/226/226 227/227/227 228/228/228
f 231/231/231 230/230/230 229/229/229
f 230/230/230 231/231/231 232/232/232
f 235/235/235 234/234/234 233/233/233
f 234/234/234 235/235/235 236/236/236
f 239/239/239 238/238/238 237/237/237
f 238/238/238 239/239/239 240/240/240
f 243/243/243 242/242/242 241/241/241
f 242/242/242 243/243/243 244/244/244
f 247/247/247 246/246/246 245/245/245
f 246/246/246 247/247/247 248/248/248
f 251/251/251 250/250/250 249/249/249
f 250/250/250 251/251/251 252/252/252
f 255/255/255 254/254/254 253/253/253
f 254/254/254 255/255/255 256/256/256
f 259/259/259 258/258/258 257/257/257
f 258/258/258 259/259/259 260/260/260
f 263/263/263 262/262/262 261/261/261
f 262/262/262 263/263/263 264/264/264
f 267/267/267 266/266/266 265/265/265
f 266/266/266 267/267/267 268/268/268
f 271/271/271 270/270/270 269/269/269
f 270/270/270 271/271/271 272/272/272
f 275/275/275 274/274/274 273/273/273
f 274/274/274 275/275/275 276/276/276
f 279/279/279 278/278/278 277/277/277
f 278/278/278 279/279/279 280/280/280
f 283/283/283 282/282/282 281/281/281
f 282/282/282 283/283/283 284/284/284
f 287/287/287 286/286/286 285/285/285
f 286/286/286 287/287/287 288/288/288
f 291/291/291 290/290/290 289/289/289
f 290/290/290 291/291/291 292/292/292
f 295/295/295 294/294/294 293/293/293
f 294/294/294 295/295/295 296/296/296
f 299/299/299 298/298/298 297/297/297
f 298/298/298 299/299/299 300/300/300
f 303/303/303 302/302/302 301/301/301
f 302/302/302 303/303/303 304/304/304
f 307/307/307 306/306/306 305/305/305
f 306/306/306 307/307/307 308/308/308
f 311/311/311 310/310/310 309/309/309
f 310/310/310 311/311/311 312/312/312
f 315/315/315 314/314/314 313/313/313
f 314/314/314 315/315/315 316/316/316
f 319/319/319 318/318/318 317/317/317
f 318/318/318 319/319/319 320/320/320
f 323/323/323 322/322/322 321/321/321
f 322/322/322 323/323/323 324/324/324
f 327/327/327 326/326/326 325/325/325
f 326/326/326 327/327/327 328/328/328
g D001_BB04_1
f 331/331/331 330/330/330 329/329/329
f 330/330/330 331/331/331 332/332/332
f 335/335/335 334/334/334 333/333/333
f 334/334/334 335/335/335 336/336/336
f 339/339/339 338/338/338 337/337/337
f 338/338/338 339/339/339 340/340/340
f 343/343/343 342/342/342 341/341/341
f 342/342/342 343/343/343 344/344/344
f 347/347/347 346/346/346 345/345/345
f 346/346/346 347/347/347 348/348/348
g D001_BB04_2
f 351/351/351 350/350/350 349/349/349
f 354/354/354 353/353/353 352/352/352
f 357/357/357 356/356/356 355/355/355
f 360/360/360 359/359/359 358/358/358
f 363/363/363 362/362/362 361/361/361
f 366/366/366 365/365/365 364/364/364
f 369/369/369 368/368/368 367/367/367
f 372/372/372 371/371/371 370/370/370
f 375/375/375 374/374/374 373/373/373
f 378/378/378 377/377/377 376/376/376
f 381/381/381 380/380/380 379/379/379
f 384/384/384 383/383/383 382/382/382
f 387/387/387 386/386/386 385/385/385
f 390/390/390 389/389/389 388/388/388
f 393/393/393 392/392/392 391/391/391
f 396/396/396 395/395/395 394/394/394
f 398/398/398 397/397/397 395/395/395
f 401/401/401 400/400/400 399/399/399
f 404/404/404 403/403/403 402/402/402
f 407/407/407 406/406/406 405/405/405
f 410/410/410 409/409/409 408/408/408
f 413/413/413 412/412/412 411/411/411
f 416/416/416 415/415/415 414/414/414
f 419/419/419 418/418/418 417/417/417
f 422/422/422 421/421/421 420/420/420
f 425/425/425 424/424/424 423/423/423
f 428/428/428 427/427/427 426/426/426
f 431/431/431 430/430/430 429/429/429
f 434/434/434 433/433/433 432/432/432
f 437/437/437 436/436/436 435/435/435
f 440/440/440 439/439/439 438/438/438
f 443/443/443 442/442/442 441/441/441
f 446/446/446 445/445/445 444/444/444
f 449/449/449 448/448/448 447/447/447
f 452/452/452 451/451/451 450/450/450
f 455/455/455 454/454/454 453/453/453
f 458/458/458 457/457/457 456/456/456
f 461/461/461 460/460/460 459/459/459
f 464/464/464 463/463/463 462/462/462
f 467/467/467 466/466/466 465/465/465
f 470/470/470 469/469/469 468/468/468
f 473/473/473 472/472/472 471/471/471
f 476/476/476 475/475/475 474/474/474
f 479/479/479 478/478/478 477/477/477
f 482/482/482 481/481/481 480/480/480
f 485/485/485 484/484/484 483/483/483
f 488/488/488 487/487/487 486/486/486
f 487/487/487 488/488/488 489/489/489
f 492/492/492 491/491/491 490/490/490
f 491/491/491 492/492/492 493/493/493
f 496/496/496 495/495/495 494/494/494
f 495/495/495 496/496/496 497/497/497
f 500/500/500 499/499/499 498/498/498
f 499/499/499 500/500/500 501/501/501
f 504/504/504 503/503/503 502/502/502
f 503/503/503 504/504/504 505/505/505
f 508/508/508 507/507/507 506/506/506
f 507/507/507 508/508/508 509/509/509
f 512/512/512 511/511/511 510/510/510
f 511/511/511 512/512/512 513/513/513
f 516/516/516 515/515/515 514/514/514
f 515/515/515 516/516/516 517/517/517
f 520/520/520 519/519/519 518/518/518
f 519/519/519 520/520/520 521/521/521
f 524/524/524 523/523/523 522/522/522
f 523/523/523 524/524/524 525/525/525
f 528/528/528 527/527/527 526/526/526
f 527/527/527 528/528/528 529/529/529
f 532/532/532 531/531/531 530/530/530
f 531/531/531 532/532/532 533/533/533
f 536/536/536 535/535/535 534/534/534
f 535/535/535 536/536/536 537/537/537
f 540/540/540 539/539/539 538/538/538
f 539/539/539 540/540/540 541/541/541
f 544/544/544 543/543/543 542/542/542
f 543/543/543 544/544/544 545/545/545
f 548/548/548 547/547/547 546/546/546
f 547/547/547 548/548/548 549/549/549
f 552/552/552 551/551/551 550/550/550
f 551/551/551 552/552/552 553/553/553
f 556/556/556 555/555/555 554/554/554
f 555/555/555 556/556/556 557/557/557
f 560/560/560 559/559/559 558/558/558
f 559/559/559 560/560/560 561/561/561
f 564/564/564 563/563/563 562/562/562
f 563/563/563 564/564/564 565/565/565
f 568/568/568 567/567/567 566/566/566
f 567/567/567 568/568/568 569/569/569
f 572/572/572 571/571/571 570/570/570
f 571/571/571 572/572/572 573/573/573
f 576/576/576 575/575/575 574/574/574
f 575/575/575 576/576/576 577/577/577
f 580/580/580 579/579/579 578/578/578
f 579/579/579 580/580/580 581/581/581
f 584/584/584 583/583/583 582/582/582
f 583/583/583 584/584/584 585/585/585
f 588/588/588 587/587/587 586/586/586
f 587/587/587 588/588/588 589/589/589
f 592/592/592 591/591/591 590/590/590
f 591/591/591 592/592/592 593/593/593
f 596/596/596 595/595/595 594/594/594
f 595/595/595 596/596/596 597/597/597
f 600/600/600 599/599/599 598/598/598
f 599/599/599 600/600/600 601/601/601
f 604/604/604 603/603/603 602/602/602
f 603/603/603 604/604/604 605/605/605
f 608/608/608 607/607/607 606/606/606
f 607/607/607 608/608/608 609/609/609
f 612/612/612 611/611/611 610/610/610
f 611/611/611 612/612/612 613/613/613
f 616/616/616 615/615/615 614/614/614
f 615/615/615 616/616/616 617/617/617
f 620/620/620 619/619/619 618/618/618
f 619/619/619 620/620/620 621/621/621
f 624/624/624 623/623/623 622/622/622
f 623/623/623 624/624/624 625/625/625
f 628/628/628 627/627/627 626/626/626
f 627/627/627 628/628/628 629/629/629
f 632/632/632 631/631/631 630/630/630
f 631/631/631 632/632/632 633/633/633
f 636/636/636 635/635/635 634/634/634
f 635/635/635 636/636/636 637/637/637
f 640/640/640 639/639/639 638/638/638
f 639/639/639 640/640/640 641/641/641
f 644/644/644 643/643/643 642/642/642
f 643/643/643 644/644/644 645/645/645
f 648/648/648 647/647/647 646/646/646
f 647/647/647 648/648/648 649/649/649
f 652/652/652 651/651/651 650/650/650
f 651/651/651 652/652/652 653/653/653
f 656/656/656 655/655/655 654/654/654
f 655/655/655 656/656/656 657/657/657
f 660/660/660 659/659/659 658/658/658
f 659/659/659 660/660/660 661/661/661
f 664/664/664 663/663/663 662/662/662
f 663/663/663 664/664/664 665/665/665
f 668/668/668 667/667/667 666/666/666
f 667/667/667 668/668/668 669/669/669
f 672/672/672 671/671/671 670/670/670
f 671/671/671 672/672/672 673/673/673
g D001_BB04_3
f 676/676/676 675/675/675 674/674/674
f 675/675/675 676/676/676 677/677/677
f 680/680/680 679/679/679 678/678/678
f 679/679/679 680/680/680 681/681/681
f 684/684/684 683/683/683 682/682/682
f 683/683/683 684/684/684 685/685/685
f 688/688/688 687/687/687 686/686/686
f 687/687/687 688/688/688 689/689/689
f 692/692/692 691/691/691 690/690/690
f 691/691/691 692/692/692 693/693/693
