g A003_BB03
v -20.664629 3.175613 11.830917
v -21.08166 2.9547064 12.324903
v -21.208368 2.9547093 12.117973
v 20.266424 3.1756148 11.711889
v 20.810772 2.9547064 11.967153
v 20.699854 2.9547057 12.203574
v -20.69621 3.1756532 -16.196144
v -21.240557 2.9547398 -16.451414
v -21.129648 2.954744 -16.68783
v 20.234844 3.175651 -16.18808
v 20.651855 2.9547439 -16.682066
v 20.778564 2.9547396 -16.47514
v 20.707764 2.3243105 12.425244
v -21.07376 2.3237827 12.397963
v 20.699854 2.9547057 12.203574
v -21.08166 2.9547064 12.324903
v 20.699854 2.9547057 12.203574
v -21.07376 2.3237827 12.397963
v -21.327187 2.3237853 11.9841
v -21.359365 2.3243487 -16.436665
v -21.208368 2.9547093 12.117973
v -21.240557 2.9547398 -16.451414
v -21.208368 2.9547093 12.117973
v -21.359365 2.3243487 -16.436665
v -21.07376 2.3237827 12.397963
v -21.327187 2.3237853 11.9841
v -21.08166 2.9547064 12.324903
v -21.208368 2.9547093 12.117973
v 20.92957 2.3243108 11.952402
v 20.707764 2.3243105 12.425244
v 20.810772 2.9547064 11.967153
v 20.699854 2.9547057 12.203574
v -21.359365 2.3243487 -16.436665
v -21.137548 2.3243494 -16.909492
v -21.240557 2.9547398 -16.451414
v -21.129648 2.954744 -16.68783
v 20.643946 2.3243484 -16.903732
v 20.897373 2.3243477 -16.48988
v 20.651855 2.9547439 -16.682066
v 20.778564 2.9547396 -16.47514
v 20.699854 2.9547057 12.203574
v -21.08166 2.9547064 12.324903
v 20.266424 3.1756148 11.711889
v -20.664629 3.175613 11.830917
v 20.778564 2.9547396 -16.47514
v 20.810772 2.9547064 11.967153
v 20.234844 3.175651 -16.18808
v 20.266424 3.1756148 11.711889
v -21.129648 2.954744 -16.68783
v 20.651855 2.9547439 -16.682066
v -20.69621 3.1756532 -16.196144
v 20.234844 3.175651 -16.18808
v -21.208368 2.9547093 12.117973
v -21.240557 2.9547398 -16.451414
v -20.664629 3.175613 11.830917
v -20.69621 3.1756532 -16.196144
v 20.897373 2.3243477 -16.48988
v 20.92957 2.3243108 11.952402
v 20.778564 2.9547396 -16.47514
v 20.810772 2.9547064 11.967153
v -21.137548 2.3243494 -16.909492
v 20.643946 2.3243484 -16.903732
v -21.129648 2.954744 -16.68783
v 20.651855 2.9547439 -16.682066
v -21.072422 -4.058805 12.43474
v -21.32586 -4.058801 12.020872
v -21.07376 2.3237827 12.397963
v -21.327187 2.3237853 11.9841
v -21.07376 2.3237827 12.397963
v -21.32586 -4.058801 12.020872
v -21.137548 2.3243494 -16.909492
v -21.359365 2.3243487 -16.436665
v -21.137558 -4.0587554 -16.909512
v -21.359365 -4.058756 -16.436684
v -21.137558 -4.0587554 -16.909512
v -21.359365 2.3243487 -16.436665
v -21.32586 -4.058801 12.020872
v -21.072422 -4.058805 12.43474
v -21.088232 -4.921703 11.991381
v 20.930878 -4.058802 11.989175
v 20.693262 -4.9217024 12.018686
v 20.709063 -4.0588055 12.462026
v -21.137558 -4.0587554 -16.909512
v -21.359365 -4.058756 -16.436684
v -21.121748 -4.9216557 -16.466175
v 20.643946 -4.0587554 -16.90375
v 20.659765 -4.9216557 -16.460413
v 20.897373 -4.058756 -16.489904
v -21.07376 2.3237827 12.397963
v 20.707764 2.3243105 12.425244
v -21.072422 -4.058805 12.43474
v 20.709063 -4.0588055 12.462026
v 20.92957 2.3243108 11.952402
v 20.897373 2.3243477 -16.48988
v 20.930878 -4.058802 11.989175
v 20.897373 -4.058756 -16.489904
v 20.643946 2.3243484 -16.903732
v -21.137548 2.3243494 -16.909492
v 20.643946 -4.0587554 -16.90375
v -21.137558 -4.0587554 -16.909512
v -21.359365 2.3243487 -16.436665
v -21.327187 2.3237853 11.9841
v -21.359365 -4.058756 -16.436684
v -21.32586 -4.058801 12.020872
v 20.707764 2.3243105 12.425244
v 20.92957 2.3243108 11.952402
v 20.709063 -4.0588055 12.462026
v 20.930878 -4.058802 11.989175
v 20.897373 2.3243477 -16.48988
v 20.643946 2.3243484 -16.903732
v 20.897373 -4.058756 -16.489904
v 20.643946 -4.0587554 -16.90375
v -21.121748 -4.9216557 -16.466175
v -21.359365 -4.058756 -16.436684
v -21.088232 -4.921703 11.991381
v -21.32586 -4.058801 12.020872
v 20.659765 -4.9216557 -16.460413
v 20.643946 -4.0587554 -16.90375
v -21.121748 -4.9216557 -16.466175
v -21.137558 -4.0587554 -16.909512
v 20.693262 -4.9217024 12.018686
v 20.930878 -4.058802 11.989175
v 20.659765 -4.9216557 -16.460413
v 20.897373 -4.058756 -16.489904
v -21.088232 -4.921703 11.991381
v -21.072422 -4.058805 12.43474
v 20.693262 -4.9217024 12.018686
v 20.709063 -4.0588055 12.462026
v 20.693262 -4.9217024 12.018686
v 20.659765 -4.9216557 -16.460413
v -21.088232 -4.921703 11.991381
v -21.121748 -4.9216557 -16.466175
v -20.69621 3.1756532 -16.196144
v 20.234844 3.175651 -16.18808
v -20.664629 3.175613 11.830917
v 20.266424 3.1756148 11.711889
vt 0.027618408 0.9404297
vt 0.027618408 0.61035156
vt 0.027618408 0.61035156
vt 0.027618408 0.9404297
vt 0.027618408 0.61035156
vt 0.027618408 0.61035156
vt 0.027618408 0.9404297
vt 0.027618408 0.61035156
vt 0.027618408 0.61035156
vt 0.027618408 0.9404297
vt 0.027618408 0.61035156
vt 0.027618408 0.61035156
vt 0.027618408 0.006668091
vt 2.6855469 0.006668091
vt 0.027618408 0.61035156
vt 2.6855469 0.61035156
vt 0.027618408 0.61035156
vt 2.6855469 0.006668091
vt 0.027618408 0.006668091
vt 2.6933594 0.006668091
vt 0.027618408 0.61035156
vt 2.6933594 0.61035156
vt 0.027618408 0.61035156
vt 2.6933594 0.006668091
vt 0.027618408 0.006668091
vt 0.027618408 0.006668091
vt 0.027618408 0.61035156
vt 0.027618408 0.61035156
vt 0.027618408 0.006668091
vt 0.027618408 0.006668091
vt 0.027618408 0.61035156
vt 0.027618408 0.61035156
vt 0.027618408 0.006668091
vt 0.027618408 0.006668091
vt 0.027618408 0.61035156
vt 0.027618408 0.61035156
vt 0.027618408 0.006668091
vt 0.027618408 0.006668091
vt 0.027618408 0.61035156
vt 0.027618408 0.61035156
vt 0.027618408 0.61035156
vt 2.6855469 0.61035156
vt 0.027618408 0.9404297
vt 2.6855469 0.9404297
vt 0.027618408 0.61035156
vt 2.6933594 0.61035156
vt 0.027618408 0.9404297
vt 2.6933594 0.9404297
vt 0.027618408 0.61035156
vt 2.6855469 0.61035156
vt 0.027618408 0.9404297
vt 2.6855469 0.9404297
vt 0.027618408 0.61035156
vt 2.6933594 0.61035156
vt 0.027618408 0.9404297
vt 2.6933594 0.9404297
vt 0.027618408 0.006668091
vt 2.6933594 0.006668091
vt 0.027618408 0.61035156
vt 2.6933594 0.61035156
vt 0.027618408 0.006668091
vt 2.6855469 0.006668091
vt 0.027618408 0.61035156
vt 2.6855469 0.61035156
vt -14.5703125 -4.84375
vt -14.6171875 -4.8476562
vt -14.578125 -4.25
vt -14.6171875 -4.25
vt -14.578125 -4.25
vt -14.6171875 -4.8476562
vt -4.1171875 -4.25
vt -4.078125 -4.25
vt -4.125 -4.84375
vt -4.0859375 -4.8476562
vt -4.125 -4.84375
vt -4.078125 -4.25
vt -14.6171875 -4.8476562
vt -14.5703125 -4.84375
vt -14.578125 -4.9296875
vt -10.671875 -4.8203125
vt -10.6953125 -4.9023438
vt -10.7109375 -4.8164062
vt -4.125 -4.84375
vt -4.0859375 -4.8476562
vt -4.1132812 -4.9335938
vt -7.984375 -4.8164062
vt -8.0078125 -4.9023438
vt -8.015625 -4.8203125
vt -14.578125 -4.25
vt -10.7109375 -4.21875
vt -14.5703125 -4.84375
vt -10.7109375 -4.8164062
vt -10.6640625 -4.2226562
vt -8.015625 -4.2226562
vt -10.671875 -4.8203125
vt -8.015625 -4.8203125
vt -7.9765625 -4.2226562
vt -4.1171875 -4.25
vt -7.984375 -4.8164062
vt -4.125 -4.84375
vt -4.078125 -4.25
vt -1.4248047 -4.25
vt -4.0859375 -4.8476562
vt -1.4248047 -4.8476562
vt -10.7109375 -4.21875
vt -10.6640625 -4.2226562
vt -10.7109375 -4.8164062
vt -10.671875 -4.8203125
vt -8.015625 -4.2226562
vt -7.9765625 -4.2226562
vt -8.015625 -4.8203125
vt -7.984375 -4.8164062
vt -4.1132812 -4.9335938
vt -4.0859375 -4.8476562
vt -1.4326172 -4.9335938
vt -1.4248047 -4.8476562
vt -8.0078125 -4.9023438
vt -7.984375 -4.8164062
vt -4.1132812 -4.9335938
vt -4.125 -4.84375
vt -10.6953125 -4.9023438
vt -10.671875 -4.8203125
vt -8.0078125 -4.9023438
vt -8.015625 -4.8203125
vt -14.578125 -4.9296875
vt -14.5703125 -4.84375
vt -10.6953125 -4.9023438
vt -10.7109375 -4.8164062
vt 6.3046875 -12.734375
vt 6.3085938 -10.0703125
vt 10.171875 -12.734375
vt 10.171875 -10.0703125
vt 10.9921875 -2.4804688
vt 7.2070312 -2.4804688
vt 10.9921875 0.14038086
vt 7.203125 0.12927246
vn -0.28881836 0.94091797 0.17687988
vn -0.28881836 0.94091797 0.17687988
vn -0.28881836 0.94091797 0.17687988
vn 0.31225586 0.93847656 0.14648438
vn 0.31225586 0.93847656 0.14648438
vn 0.31225586 0.93847656 0.14648438
vn -0.31225586 0.93847656 -0.14648438
vn -0.31225586 0.93847656 -0.14648438
vn -0.31225586 0.93847656 -0.14648438
vn 0.28881836 0.94091797 -0.17687988
vn 0.28881836 0.94091797 -0.17687988
vn 0.28881836 0.94091797 -0.17687988
vn -0.00062036514 0.3317871 0.9433594
vn -0.00062036514 0.3317871 0.9433594
vn -0.00062036514 0.3317871 0.9433594
vn 0.0028839111 0.11505127 0.99316406
vn 0.0028839111 0.11505127 0.99316406
vn 0.0028839111 0.11505127 0.99316406
vn -0.98291016 0.18481445 0.0011167526
vn -0.98291016 0.18481445 0.0011167526
vn -0.98291016 0.18481445 0.0011167526
vn -0.98291016 0.18518066 0.0011072159
vn -0.98291016 0.18518066 0.0011072159
vn -0.98291016 0.18518066 0.0011072159
vn -0.8515625 0.049743652 0.5214844
vn -0.8515625 0.049743652 0.5214844
vn -0.8515625 0.049743652 0.5214844
vn -0.8515625 0.049743652 0.5214844
vn 0.89404297 0.1586914 0.41918945
vn 0.89404297 0.1586914 0.41918945
vn 0.89404297 0.1586914 0.41918945
vn 0.89404297 0.1586914 0.4194336
vn -0.89404297 0.1586914 -0.4194336
vn -0.89404297 0.1586914 -0.4194336
vn -0.89404297 0.1586914 -0.4194336
vn -0.89404297 0.1586914 -0.4194336
vn 0.84033203 0.17041016 -0.51464844
vn 0.84033203 0.17041016 -0.51464844
vn 0.84033203 0.17041016 -0.51464844
vn 0.84033203 0.17041016 -0.51464844
vn 0.0011873245 0.91259766 0.40893555
vn 0.0011873245 0.91259766 0.40893555
vn 0.0011873245 0.91259766 0.40893555
vn 0.0011892319 0.91259766 0.4091797
vn 0.3762207 0.9267578 -0.0004248619
vn 0.3762207 0.9267578 -0.0004248619
vn 0.3762207 0.9267578 -0.0004248619
vn 0.3762207 0.9267578 -0.0004246235
vn 5.6564808E-05 0.9121094 -0.4099121
vn 5.6564808E-05 0.9121094 -0.4099121
vn 5.6564808E-05 0.9121094 -0.4099121
vn 8.046627E-05 0.91308594 -0.40820312
vn -0.3762207 0.9267578 0.0004248619
vn -0.3762207 0.9267578 0.0004248619
vn -0.3762207 0.9267578 0.0004248619
vn -0.3762207 0.9267578 0.00042533875
vn 0.98291016 0.18518066 -0.0011119843
vn 0.98291016 0.18518066 -0.0011119843
vn 0.98291016 0.18518066 -0.0011119843
vn 0.98291016 0.18518066 -0.0011129379
vn 0.00013005733 0.3317871 -0.9433594
vn 0.00013005733 0.3317871 -0.9433594
vn 0.00013005733 0.3317871 -0.9433594
vn 0.00013017654 0.3317871 -0.9433594
vn -0.85302734 0.0028305054 0.52246094
vn -0.85302734 0.0028305054 0.52246094
vn -0.85302734 0.0028305054 0.52246094
vn -0.85302734 0.0028305054 0.52197266
vn -0.85302734 0.0028305054 0.52197266
vn -0.85302734 0.0028305054 0.52197266
vn -0.90527344 2.682209E-06 -0.4248047
vn -0.90527344 2.682209E-06 -0.4248047
vn -0.90527344 2.682209E-06 -0.4248047
vn -0.90527344 1.3113022E-06 -0.4248047
vn -0.90527344 1.3113022E-06 -0.4248047
vn -0.90527344 1.3113022E-06 -0.4248047
vn -0.82666016 -0.24499512 0.50634766
vn -0.82666016 -0.24499512 0.50634766
vn -0.82666016 -0.24499512 0.50634766
vn 0.88134766 -0.22851562 0.41357422
vn 0.88134766 -0.22851562 0.41357422
vn 0.88134766 -0.22851562 0.41357422
vn -0.88134766 -0.22851562 -0.41357422
vn -0.88134766 -0.22851562 -0.41357422
vn -0.88134766 -0.22851562 -0.41357422
vn 0.82666016 -0.24499512 -0.50634766
vn 0.82666016 -0.24499512 -0.50634766
vn 0.82666016 -0.24499512 -0.50634766
vn -0.00065279007 0.005760193 1
vn -0.00065279007 0.005760193 1
vn -0.00065279007 0.005760193 1
vn -0.0006532669 0.0057640076 1
vn 1 0.00019848347 -0.0011320114
vn 1 0.00019848347 -0.0011320114
vn 1 0.00019848347 -0.0011320114
vn 1 0 -0.0011768341
vn 0.00013780594 2.682209E-06 -1
vn 0.00013780594 2.682209E-06 -1
vn 0.00013780594 2.682209E-06 -1
vn 0.00013792515 3.0398369E-06 -1
vn -1 0 0.0011320114
vn -1 0 0.0011320114
vn -1 0 0.0011320114
vn -1 -0.00020134449 0.0011777878
vn 0.90527344 0.002632141 0.4248047
vn 0.90527344 0.002632141 0.4248047
vn 0.90527344 0.002632141 0.4248047
vn 0.90527344 0.002632141 0.4248047
vn 0.85302734 2.026558E-06 -0.52246094
vn 0.85302734 2.026558E-06 -0.52246094
vn 0.85302734 2.026558E-06 -0.52246094
vn 0.85302734 1.3709068E-06 -0.52246094
vn -0.9638672 -0.265625 0.0011348724
vn -0.9638672 -0.265625 0.0011348724
vn -0.9638672 -0.265625 0.0011348724
vn -0.9638672 -0.265625 0.0011348724
vn 0.00012266636 -0.45703125 -0.88964844
vn 0.00012266636 -0.45703125 -0.88964844
vn 0.00012266636 -0.45703125 -0.88964844
vn 0.00012266636 -0.45703125 -0.88964844
vn 0.9638672 -0.265625 -0.0011339188
vn 0.9638672 -0.265625 -0.0011339188
vn 0.9638672 -0.265625 -0.0011339188
vn 0.9638672 -0.265625 -0.0011348724
vn -0.0005812645 -0.45703125 0.88964844
vn -0.0005812645 -0.45703125 0.88964844
vn -0.0005812645 -0.45703125 0.88964844
vn -0.00058078766 -0.45703125 0.88964844
vn -0 -1 -1.6093254E-06
vn -0 -1 -1.6093254E-06
vn -0 -1 -1.6093254E-06
vn -0 -1 -1.66893E-06
vn -0 1 1.4305115E-06
vn -0 1 1.4305115E-06
vn -0 1 1.4305115E-06
vn -0 1 1.3113022E-06
g A003_BB03_0
f 3/3/3 2/2/2 1/1/1
f 6/6/6 5/5/5 4/4/4
f 9/9/9 8/8/8 7/7/7
f 12/12/12 11/11/11 10/10/10
f 15/15/15 14/14/14 13/13/13
f 18/18/18 17/17/17 16/16/16
f 21/21/21 20/20/20 19/19/19
f 24/24/24 23/23/23 22/22/22
f 27/27/27 26/26/26 25/25/25
f 26/26/26 27/27/27 28/28/28
f 31/31/31 30/30/30 29/29/29
f 30/30/30 31/31/31 32/32/32
f 35/35/35 34/34/34 33/33/33
f 34/34/34 35/35/35 36/36/36
f 39/39/39 38/38/38 37/37/37
f 38/38/38 39/39/39 40/40/40
f 43/43/43 42/42/42 41/41/41
f 42/42/42 43/43/43 44/44/44
f 47/47/47 46/46/46 45/45/45
f 46/46/46 47/47/47 48/48/48
f 51/51/51 50/50/50 49/49/49
f 50/50/50 51/51/51 52/52/52
f 55/55/55 54/54/54 53/53/53
f 54/54/54 55/55/55 56/56/56
f 59/59/59 58/58/58 57/57/57
f 58/58/58 59/59/59 60/60/60
f 63/63/63 62/62/62 61/61/61
f 62/62/62 63/63/63 64/64/64
g A003_BB03_1
f 67/67/67 66/66/66 65/65/65
f 70/70/70 69/69/69 68/68/68
f 73/73/73 72/72/72 71/71/71
f 76/76/76 75/75/75 74/74/74
f 79/79/79 78/78/78 77/77/77
f 82/82/82 81/81/81 80/80/80
f 85/85/85 84/84/84 83/83/83
f 88/88/88 87/87/87 86/86/86
f 91/91/91 90/90/90 89/89/89
f 90/90/90 91/91/91 92/92/92
f 95/95/95 94/94/94 93/93/93
f 94/94/94 95/95/95 96/96/96
f 99/99/99 98/98/98 97/97/97
f 98/98/98 99/99/99 100/100/100
f 103/103/103 102/102/102 101/101/101
f 102/102/102 103/103/103 104/104/104
f 107/107/107 106/106/106 105/105/105
f 106/106/106 107/107/107 108/108/108
f 111/111/111 110/110/110 109/109/109
f 110/110/110 111/111/111 112/112/112
f 115/115/115 114/114/114 113/113/113
f 114/114/114 115/115/115 116/116/116
f 119/119/119 118/118/118 117/117/117
f 118/118/118 119/119/119 120/120/120
f 123/123/123 122/122/122 121/121/121
f 122/122/122 123/123/123 124/124/124
f 127/127/127 126/126/126 125/125/125
f 126/126/126 127/127/127 128/128/128
g A003_BB03_2
f 131/131/131 130/130/130 129/129/129
f 130/130/130 131/131/131 132/132/132
g A003_BB03_3
f 135/135/135 134/134/134 133/133/133
f 134/134/134 135/135/135 136/136/136
