g A003_BB04
v -22.34617 2.5503595 15.070937
v -22.888788 2.3885534 15.564921
v -23.05367 2.3885553 15.357993
v 13.875315 2.5503597 14.951909
v 14.364587 2.388553 15.207172
v 14.2648945 2.3885522 15.443593
v -22.387264 2.5503914 -12.956125
v -23.095547 2.3885803 -13.211393
v -22.95123 2.3885837 -13.44781
v 13.846929 2.5503893 -13.075156
v 14.221747 2.3885827 -13.56914
v 14.335647 2.3885798 -13.362214
v 14.272004 1.9268097 15.665263
v -22.878496 1.9300418 15.786601
v 14.2648945 2.3885522 15.443593
v -22.888788 2.3885534 15.564921
v 14.2648945 2.3885522 15.443593
v -22.878496 1.9300418 15.786601
v -23.208261 1.930043 15.372739
v -23.250135 1.9268404 -13.196645
v -23.05367 2.3885553 15.357993
v -23.095547 2.3885803 -13.211393
v -23.05367 2.3885553 15.357993
v -23.250135 1.9268404 -13.196645
v -22.878496 1.9300418 15.786601
v -23.208261 1.930043 15.372739
v -22.888788 2.3885534 15.564921
v -23.05367 2.3885553 15.357993
v 14.4713745 1.9268097 15.192422
v 14.272004 1.9268097 15.665263
v 14.364587 2.388553 15.207172
v 14.2648945 2.3885522 15.443593
v -23.250135 1.9268404 -13.196645
v -22.961523 1.9268404 -13.669473
v -23.095547 2.3885803 -13.211393
v -22.95123 2.3885837 -13.44781
v 14.214637 1.9268402 -13.790808
v 14.442433 1.9268398 -13.376955
v 14.221747 2.3885827 -13.56914
v 14.335647 2.3885798 -13.362214
v 14.2648945 2.3885522 15.443593
v -22.888788 2.3885534 15.564921
v 13.875315 2.5503597 14.951909
v -22.34617 2.5503595 15.070937
v 14.335647 2.3885798 -13.362214
v 14.364587 2.388553 15.207172
v 13.846929 2.5503893 -13.075156
v 13.875315 2.5503597 14.951909
v -22.95123 2.3885837 -13.44781
v 14.221747 2.3885827 -13.56914
v -22.387264 2.5503914 -12.956125
v 13.846929 2.5503893 -13.075156
v -23.05367 2.3885553 15.357993
v -23.095547 2.3885803 -13.211393
v -22.34617 2.5503595 15.070937
v -22.387264 2.5503914 -12.956125
v 14.442433 1.9268398 -13.376955
v 14.4713745 1.9268097 15.192422
v 14.335647 2.3885798 -13.362214
v 14.364587 2.388553 15.207172
v -22.961523 1.9268404 -13.669473
v 14.214637 1.9268402 -13.790808
v -22.95123 2.3885837 -13.44781
v 14.221747 2.3885827 -13.56914
v -22.876778 -5.3076487 15.823379
v -23.206543 -5.3076453 15.409512
v -22.878496 1.9300418 15.786601
v -23.208261 1.930043 15.372739
v -22.878496 1.9300418 15.786601
v -23.206543 -5.3076453 15.409512
v -22.961523 1.9268404 -13.669473
v -23.250135 1.9268404 -13.196645
v -22.961523 -5.307608 -13.669492
v -23.250135 -5.307609 -13.196665
v -22.961523 -5.307608 -13.669492
v -23.250135 1.9268404 -13.196645
v -23.206543 -5.3076453 15.409512
v -22.876778 -5.3076487 15.823379
v -22.897343 -5.9396896 15.380019
v 14.4725485 -5.3076453 15.229194
v 14.258972 -5.939689 15.258711
v 14.273178 -5.3076487 15.702045
v -22.961523 -5.307608 -13.669492
v -23.250135 -5.307609 -13.196665
v -22.940956 -5.9396524 -13.226158
v 14.21465 -5.3076086 -13.790828
v 14.228871 -5.9396524 -13.347488
v 14.442433 -5.3076096 -13.376982
v -22.878496 1.9300418 15.786601
v 14.272004 1.9268097 15.665263
v -22.876778 -5.3076487 15.823379
v 14.273178 -5.3076487 15.702045
v 14.4713745 1.9268097 15.192422
v 14.442433 1.9268398 -13.376955
v 14.4725485 -5.3076453 15.229194
v 14.442433 -5.3076096 -13.376982
v 14.214637 1.9268402 -13.790808
v -22.961523 1.9268404 -13.669473
v 14.21465 -5.3076086 -13.790828
v -22.961523 -5.307608 -13.669492
v -23.250135 1.9268404 -13.196645
v -23.208261 1.930043 15.372739
v -23.250135 -5.307609 -13.196665
v -23.206543 -5.3076453 15.409512
v 14.272004 1.9268097 15.665263
v 14.4713745 1.9268097 15.192422
v 14.273178 -5.3076487 15.702045
v 14.4725485 -5.3076453 15.229194
v 14.442433 1.9268398 -13.376955
v 14.214637 1.9268402 -13.790808
v 14.442433 -5.3076096 -13.376982
v 14.21465 -5.3076086 -13.790828
v -22.940956 -5.9396524 -13.226158
v -23.250135 -5.307609 -13.196665
v -22.897343 -5.9396896 15.380019
v -23.206543 -5.3076453 15.409512
v 14.228871 -5.9396524 -13.347488
v 14.21465 -5.3076086 -13.790828
v -22.940956 -5.9396524 -13.226158
v -22.961523 -5.307608 -13.669492
v 14.258972 -5.939689 15.258711
v 14.4725485 -5.3076453 15.229194
v 14.228871 -5.9396524 -13.347488
v 14.442433 -5.3076096 -13.376982
v -22.897343 -5.9396896 15.380019
v -22.876778 -5.3076487 15.823379
v 14.258972 -5.939689 15.258711
v 14.273178 -5.3076487 15.702045
v 14.258972 -5.939689 15.258711
v 14.228871 -5.9396524 -13.347488
v -22.897343 -5.9396896 15.380019
v -22.940956 -5.9396524 -13.226158
v -22.387264 2.5503914 -12.956125
v 13.846929 2.5503893 -13.075156
v -22.34617 2.5503595 15.070937
v 13.875315 2.5503597 14.951909
vt 0.027618408 0.9404297
vt 0.027618408 0.61035156
vt 0.027618408 0.61035156
vt 0.027618408 0.9404297
vt 0.027618408 0.61035156
vt 0.027618408 0.61035156
vt 0.027618408 0.9404297
vt 0.027618408 0.61035156
vt 0.027618408 0.61035156
vt 0.027618408 0.9404297
vt 0.027618408 0.61035156
vt 0.027618408 0.61035156
vt 0.027618408 0.006668091
vt 2.6855469 0.006668091
vt 0.027618408 0.61035156
vt 2.6855469 0.61035156
vt 0.027618408 0.61035156
vt 2.6855469 0.006668091
vt 0.027618408 0.006668091
vt 2.6933594 0.006668091
vt 0.027618408 0.61035156
vt 2.6933594 0.61035156
vt 0.027618408 0.61035156
vt 2.6933594 0.006668091
vt 0.027618408 0.006668091
vt 0.027618408 0.006668091
vt 0.027618408 0.61035156
vt 0.027618408 0.61035156
vt 0.027618408 0.006668091
vt 0.027618408 0.006668091
vt 0.027618408 0.61035156
vt 0.027618408 0.61035156
vt 0.027618408 0.006668091
vt 0.027618408 0.006668091
vt 0.027618408 0.61035156
vt 0.027618408 0.61035156
vt 0.027618408 0.006668091
vt 0.027618408 0.006668091
vt 0.027618408 0.61035156
vt 0.027618408 0.61035156
vt 0.027618408 0.61035156
vt 2.6855469 0.61035156
vt 0.027618408 0.9404297
vt 2.6855469 0.9404297
vt 0.027618408 0.61035156
vt 2.6933594 0.61035156
vt 0.027618408 0.9404297
vt 2.6933594 0.9404297
vt 0.027618408 0.61035156
vt 2.6855469 0.61035156
vt 0.027618408 0.9404297
vt 2.6855469 0.9404297
vt 0.027618408 0.61035156
vt 2.6933594 0.61035156
vt 0.027618408 0.9404297
vt 2.6933594 0.9404297
vt 0.027618408 0.006668091
vt 2.6933594 0.006668091
vt 0.027618408 0.61035156
vt 2.6933594 0.61035156
vt 0.027618408 0.006668091
vt 2.6855469 0.006668091
vt 0.027618408 0.61035156
vt 2.6855469 0.61035156
vt -15.4765625 -4.9023438
vt -15.5390625 -4.9101562
vt -15.484375 -4.046875
vt -15.546875 -4.0507812
vt -15.484375 -4.046875
vt -15.5390625 -4.9101562
vt -3.5253906 -4.0585938
vt -3.4726562 -4.0625
vt -3.5332031 -4.9140625
vt -3.4824219 -4.921875
vt -3.5332031 -4.9140625
vt -3.4726562 -4.0625
vt -15.5390625 -4.9101562
vt -15.4765625 -4.9023438
vt -15.484375 -4.9882812
vt -11.1953125 -4.8867188
vt -11.2265625 -4.96875
vt -11.2421875 -4.8828125
vt -3.5332031 -4.9140625
vt -3.4824219 -4.921875
vt -3.5195312 -5.0039062
vt -7.7695312 -4.8828125
vt -7.8046875 -4.96875
vt -7.8164062 -4.8867188
vt -15.484375 -4.046875
vt -11.2421875 -4.0273438
vt -15.4765625 -4.9023438
vt -11.2421875 -4.8828125
vt -11.1875 -4.0273438
vt -7.8125 -4.0273438
vt -11.1953125 -4.8867188
vt -7.8164062 -4.8867188
vt -7.7617188 -4.0273438
vt -3.5253906 -4.0585938
vt -7.7695312 -4.8828125
vt -3.5332031 -4.9140625
vt -3.4726562 -4.0625
vt -0.09844971 -4.0625
vt -3.4824219 -4.921875
vt -0.097595215 -4.921875
vt -11.2421875 -4.0273438
vt -11.1875 -4.0273438
vt -11.2421875 -4.8828125
vt -11.1953125 -4.8867188
vt -7.8125 -4.0273438
vt -7.7617188 -4.0273438
vt -7.8164062 -4.8867188
vt -7.7695312 -4.8828125
vt -3.5195312 -5.0039062
vt -3.4824219 -4.921875
vt -0.1081543 -5.0039062
vt -0.097595215 -4.921875
vt -7.8046875 -4.96875
vt -7.7695312 -4.8828125
vt -3.5195312 -5.0039062
vt -3.5332031 -4.9140625
vt -11.2265625 -4.96875
vt -11.1953125 -4.8867188
vt -7.8046875 -4.96875
vt -7.8164062 -4.8867188
vt -15.484375 -4.9882812
vt -15.4765625 -4.9023438
vt -11.2265625 -4.96875
vt -11.2421875 -4.8828125
vt 6.1132812 -13.0859375
vt 6.1210938 -9.703125
vt 10.359375 -13.1015625
vt 10.3671875 -9.71875
vt 11.15625 -2.8242188
vt 7.0429688 -2.8378906
vt 11.15625 0.49389648
vt 7.0390625 0.47973633
vn -0.16870117 0.9765625 0.13452148
vn -0.16870117 0.9765625 0.13452148
vn -0.16870117 0.9765625 0.13452148
vn 0.26000977 0.95947266 0.109680176
vn 0.26000977 0.95947266 0.109680176
vn 0.26000977 0.95947266 0.109680176
vn -0.18286133 0.9765625 -0.1116333
vn -0.18286133 0.9765625 -0.1116333
vn -0.18286133 0.9765625 -0.1116333
vn 0.24060059 0.9614258 -0.13244629
vn 0.24060059 0.9614258 -0.13244629
vn 0.24060059 0.9614258 -0.13244629
vn 0.002981186 0.43286133 0.9013672
vn 0.002981186 0.43286133 0.9013672
vn 0.002981186 0.43286133 0.9013672
vn 0.0029392242 0.43530273 0.9003906
vn 0.0029392242 0.43530273 0.9003906
vn 0.0029392242 0.43530273 0.9003906
vn -0.9477539 0.31958008 0.0013532639
vn -0.9477539 0.31958008 0.0013532639
vn -0.9477539 0.31958008 0.0013532639
vn -0.9482422 0.31762695 0.0013904572
vn -0.9482422 0.31762695 0.0013904572
vn -0.9482422 0.31762695 0.0013904572
vn -0.7524414 0.27294922 0.5996094
vn -0.7524414 0.27294922 0.5996094
vn -0.7524414 0.27294922 0.5996094
vn -0.7524414 0.27294922 0.5996094
vn 0.9033203 0.19677734 0.38085938
vn 0.9033203 0.19677734 0.38085938
vn 0.9033203 0.19677734 0.38085938
vn 0.9033203 0.19677734 0.38085938
vn -0.82421875 0.25976562 -0.5029297
vn -0.82421875 0.25976562 -0.5029297
vn -0.82421875 0.25976562 -0.5029297
vn -0.82421875 0.26000977 -0.5029297
vn 0.85595703 0.2130127 -0.4711914
vn 0.85595703 0.2130127 -0.4711914
vn 0.85595703 0.2130127 -0.4711914
vn 0.85595703 0.2130127 -0.4711914
vn 0.0010185242 0.9501953 0.31176758
vn 0.0010185242 0.9501953 0.31176758
vn 0.0010185242 0.9501953 0.31176758
vn 0.0010261536 0.9501953 0.31225586
vn 0.31420898 0.94921875 -0.00031733513
vn 0.31420898 0.94921875 -0.00031733513
vn 0.31420898 0.94921875 -0.00031733513
vn 0.31420898 0.94921875 -0.0003170967
vn -0.0010166168 0.9501953 -0.31152344
vn -0.0010166168 0.9501953 -0.31152344
vn -0.0010166168 0.9501953 -0.31152344
vn -0.0010251999 0.9501953 -0.31201172
vn -0.22277832 0.97509766 0.0003273487
vn -0.22277832 0.97509766 0.0003273487
vn -0.22277832 0.97509766 0.0003273487
vn -0.22277832 0.97509766 0.00032782555
vn 0.9741211 0.2253418 -0.0009870529
vn 0.9741211 0.2253418 -0.0009870529
vn 0.9741211 0.2253418 -0.0009870529
vn 0.9741211 0.2253418 -0.0009870529
vn -0.002943039 0.43286133 -0.9013672
vn -0.002943039 0.43286133 -0.9013672
vn -0.002943039 0.43286133 -0.9013672
vn -0.002943039 0.43286133 -0.9013672
vn -0.78222656 0.002981186 0.6230469
vn -0.78222656 0.002981186 0.6230469
vn -0.78222656 0.002981186 0.6230469
vn -0.78222656 0.002981186 0.6230469
vn -0.78222656 0.002981186 0.6230469
vn -0.78222656 0.002981186 0.6230469
vn -0.8535156 1.4305115E-06 -0.5209961
vn -0.8535156 1.4305115E-06 -0.5209961
vn -0.8535156 1.4305115E-06 -0.5209961
vn -0.8535156 1.4305115E-06 -0.5209961
vn -0.8535156 1.4305115E-06 -0.5209961
vn -0.8535156 1.4305115E-06 -0.5209961
vn -0.72314453 -0.38061523 0.5761719
vn -0.72314453 -0.38061523 0.5761719
vn -0.72314453 -0.38061523 0.5761719
vn 0.88427734 -0.28149414 0.37280273
vn 0.88427734 -0.28149414 0.37280273
vn 0.88427734 -0.28149414 0.37280273
vn -0.7944336 -0.3659668 -0.48486328
vn -0.7944336 -0.3659668 -0.48486328
vn -0.7944336 -0.3659668 -0.48486328
vn 0.83496094 -0.3034668 -0.45947266
vn 0.83496094 -0.3034668 -0.45947266
vn 0.83496094 -0.3034668 -0.45947266
vn 0.0032672882 0.0050811768 1
vn 0.0032672882 0.0050811768 1
vn 0.0032672882 0.0050811768 1
vn 0.0032653809 0.0050849915 1
vn 1 0.00015711784 -0.0010128021
vn 1 0.00015711784 -0.0010128021
vn 1 0.00015711784 -0.0010128021
vn 1 0 -0.0010528564
vn -0.0032634735 2.682209E-06 -1
vn -0.0032634735 2.682209E-06 -1
vn -0.0032634735 2.682209E-06 -1
vn -0.0032634735 2.682209E-06 -1
vn -1 0 0.0014657974
vn -1 0 0.0014657974
vn -1 0 0.0014657974
vn -1 -0.0002297163 0.0015239716
vn 0.9213867 0.0021247864 0.38842773
vn 0.9213867 0.0021247864 0.38842773
vn 0.9213867 0.0021247864 0.38842773
vn 0.9213867 0.0021247864 0.38842773
vn 0.87597656 1.7881393E-06 -0.48217773
vn 0.87597656 1.7881393E-06 -0.48217773
vn 0.87597656 1.7881393E-06 -0.48217773
vn 0.87597656 2.9206276E-06 -0.48217773
vn -0.8984375 -0.43945312 0.0013685226
vn -0.8984375 -0.43945312 0.0013685226
vn -0.8984375 -0.43945312 0.0013685226
vn -0.8984375 -0.43945312 0.0013685226
vn -0.0026721954 -0.57421875 -0.81884766
vn -0.0026721954 -0.57421875 -0.81884766
vn -0.0026721954 -0.57421875 -0.81884766
vn -0.0026721954 -0.57421875 -0.81884766
vn 0.9472656 -0.32006836 -0.0009975433
vn 0.9472656 -0.32006836 -0.0009975433
vn 0.9472656 -0.32006836 -0.0009975433
vn 0.9472656 -0.32006836 -0.0009975433
vn 0.0026721954 -0.57421875 0.81884766
vn 0.0026721954 -0.57421875 0.81884766
vn 0.0026721954 -0.57421875 0.81884766
vn 0.0026741028 -0.57421875 0.81884766
vn -0 -1 -1.2516975E-06
vn -0 -1 -1.2516975E-06
vn -0 -1 -1.2516975E-06
vn -0 -1 -1.3113022E-06
vn -0 1 1.1324883E-06
vn -0 1 1.1324883E-06
vn -0 1 1.1324883E-06
vn -0 1 1.0728836E-06
g A003_BB04_0
f 3/3/3 2/2/2 1/1/1
f 6/6/6 5/5/5 4/4/4
f 9/9/9 8/8/8 7/7/7
f 12/12/12 11/11/11 10/10/10
f 15/15/15 14/14/14 13/13/13
f 18/18/18 17/17/17 16/16/16
f 21/21/21 20/20/20 19/19/19
f 24/24/24 23/23/23 22/22/22
f 27/27/27 26/26/26 25/25/25
f 26/26/26 27/27/27 28/28/28
f 31/31/31 30/30/30 29/29/29
f 30/30/30 31/31/31 32/32/32
f 35/35/35 34/34/34 33/33/33
f 34/34/34 35/35/35 36/36/36
f 39/39/39 38/38/38 37/37/37
f 38/38/38 39/39/39 40/40/40
f 43/43/43 42/42/42 41/41/41
f 42/42/42 43/43/43 44/44/44
f 47/47/47 46/46/46 45/45/45
f 46/46/46 47/47/47 48/48/48
f 51/51/51 50/50/50 49/49/49
f 50/50/50 51/51/51 52/52/52
f 55/55/55 54/54/54 53/53/53
f 54/54/54 55/55/55 56/56/56
f 59/59/59 58/58/58 57/57/57
f 58/58/58 59/59/59 60/60/60
f 63/63/63 62/62/62 61/61/61
f 62/62/62 63/63/63 64/64/64
g A003_BB04_1
f 67/67/67 66/66/66 65/65/65
f 70/70/70 69/69/69 68/68/68
f 73/73/73 72/72/72 71/71/71
f 76/76/76 75/75/75 74/74/74
f 79/79/79 78/78/78 77/77/77
f 82/82/82 81/81/81 80/80/80
f 85/85/85 84/84/84 83/83/83
f 88/88/88 87/87/87 86/86/86
f 91/91/91 90/90/90 89/89/89
f 90/90/90 91/91/91 92/92/92
f 95/95/95 94/94/94 93/93/93
f 94/94/94 95/95/95 96/96/96
f 99/99/99 98/98/98 97/97/97
f 98/98/98 99/99/99 100/100/100
f 103/103/103 102/102/102 101/101/101
f 102/102/102 103/103/103 104/104/104
f 107/107/107 106/106/106 105/105/105
f 106/106/106 107/107/107 108/108/108
f 111/111/111 110/110/110 109/109/109
f 110/110/110 111/111/111 112/112/112
f 115/115/115 114/114/114 113/113/113
f 114/114/114 115/115/115 116/116/116
f 119/119/119 118/118/118 117/117/117
f 118/118/118 119/119/119 120/120/120
f 123/123/123 122/122/122 121/121/121
f 122/122/122 123/123/123 124/124/124
f 127/127/127 126/126/126 125/125/125
f 126/126/126 127/127/127 128/128/128
g A003_BB04_2
f 131/131/131 130/130/130 129/129/129
f 130/130/130 131/131/131 132/132/132
g A003_BB04_3
f 135/135/135 134/134/134 133/133/133
f 134/134/134 135/135/135 136/136/136
