g A003_JohnWatson03
v 2.0376415 0.42565918 -0.5184656
v -0.21475342 0.45318237 0.42033935
v 1.4723779 0.42578614 0.5209912
v -0.21475342 0.45318237 0.42033935
v 1.4715991 0.42593384 1.7610803
v 1.0473242 0.42597166 2.0797899
v 0.8539819 0.4260327 2.5713086
v 0.19378906 0.425979 2.13682
v -0.81712645 0.43176025 2.5276086
v -1.129331 0.43168822 1.9286755
v -1.9042505 0.43170896 2.1109483
v -1.8336157 0.43163696 1.5117896
v -2.2156982 0.43157715 1.0126282
v -1.7917334 0.43117797 0.0071032713
v -1.9653369 0.4256189 -0.8762793
v -1.2113696 0.4254846 -1.9931262
v -0.33564696 0.42552122 -1.6818627
v -0.03144043 0.42548704 -1.9663086
v 1.0239233 0.42565796 -2.2228038
v 1.2693822 0.42556152 -1.3437744
v 1.2693822 0.42556152 -1.3437744
v -0.21475342 0.45318237 0.42033935
v 2.0376415 0.42565918 -0.5184656
v 1.0791065 -0.43904966 3.0244005
v 0.8539819 0.4260327 2.5713086
v 0.19378906 0.425979 2.13682
v 0.27923828 -0.43524963 2.4958348
v -1.3205688 -0.41552916 2.244066
v -1.129331 0.43168822 1.9286755
v -1.9042505 0.43170896 2.1109483
v -2.2600195 -0.4194165 2.466953
v -2.1728466 -0.4169635 1.7405005
v -1.8336157 0.43163696 1.5117896
v -2.2156982 0.43157715 1.0126282
v -3.0588598 -0.41809142 0.9421643
v -2.2600195 -0.4194165 2.466953
v -1.9042505 0.43170896 2.1109483
v -1.8336157 0.43163696 1.5117896
v -2.1728466 -0.4169635 1.7405005
v 2.0737817 -0.43794128 2.0427356
v 1.4715991 0.42593384 1.7610803
v 1.0473242 0.42597166 2.0797899
v 1.3122534 -0.43732542 2.4281287
v 0.8539819 0.4260327 2.5713086
v 1.0791065 -0.43904966 3.0244005
v 1.8249658 -0.43563414 0.54202634
v 1.4715991 0.42593384 1.7610803
v 2.0737817 -0.43794128 2.0427356
v 1.4723779 0.42578614 0.5209912
v 2.5123072 -0.44094175 -0.71630734
v 2.0376415 0.42565918 -0.5184656
v -0.36103025 -0.43946287 -2.123258
v -0.33564696 0.42552122 -1.6818627
v -0.03144043 0.42548704 -1.9663086
v 0.00717041 -0.44142088 -2.4690173
v 1.0239233 0.42565796 -2.2228038
v 1.28625 -0.44377685 -2.7825658
v 1.28625 -0.44377685 -2.7825658
v 1.0239233 0.42565796 -2.2228038
v 1.2693822 0.42556152 -1.3437744
v 1.5816895 -0.44053894 -1.7149987
v -3.0588598 -0.41809142 0.9421643
v -2.2156982 0.43157715 1.0126282
v -1.7917334 0.43117797 0.0071032713
v -2.1209936 -0.4169354 -0.07917847
v -1.9653369 0.4256189 -0.8762793
v -2.3331957 -0.43948853 -1.1487464
v -0.94369626 -0.4179486 2.9703772
v -0.81712645 0.43176025 2.5276086
v -1.129331 0.43168822 1.9286755
v -1.3205688 -0.41552916 2.244066
v -1.4217749 -0.44275695 -2.5026586
v -1.2113696 0.4254846 -1.9931262
v -0.33564696 0.42552122 -1.6818627
v -0.36103025 -0.43946287 -2.123258
v 0.27923828 -0.43524963 2.4958348
v 0.19378906 0.425979 2.13682
v -0.81712645 0.43176025 2.5276086
v -0.94369626 -0.4179486 2.9703772
v -2.3331957 -0.43948853 -1.1487464
v -1.9653369 0.4256189 -0.8762793
v -1.2113696 0.4254846 -1.9931262
v -1.4217749 -0.44275695 -2.5026586
v 1.5816895 -0.44053894 -1.7149987
v 1.2693822 0.42556152 -1.3437744
v 2.0376415 0.42565918 -0.5184656
v 2.5123072 -0.44094175 -0.71630734
v 0.29761717 -0.44302917 2.5730224
v 0.4830737 0.29079467 3.3522253
v 1.6107373 0.29112548 4.094365
v 1.1219604 -0.44813293 3.1106262
v -2.3278759 -0.42803282 2.534846
v -3.1005445 0.31856322 3.3080359
v -1.7769238 0.31842408 2.996698
v -1.3616748 -0.4228772 2.3118541
v -3.1436303 -0.42626342 0.9672473
v -3.6325243 0.31773803 1.4320153
v -2.9799 0.31811035 2.2846215
v -2.24312 -0.42483702 1.7878723
v -2.24312 -0.42483702 1.7878723
v -2.9799 0.31811035 2.2846215
v -3.1005445 0.31856322 3.3080359
v -2.3278759 -0.42803282 2.534846
v 1.3657665 -0.445932 2.4984741
v 2.665676 0.29050538 2.7104309
v 2.1443944 -0.44668394 2.0988622
v 1.9409814 0.2907507 3.2548132
v 1.1219604 -0.44813293 3.1106262
v 1.6107373 0.29112548 4.094365
v 2.1443944 -0.44668394 2.0988622
v 2.665676 0.29050538 2.7104309
v 2.6670067 0.2895947 0.5922607
v 1.901914 -0.44318542 0.5466052
v 3.6325243 0.28880125 -1.1832178
v 2.6020238 -0.45010436 -0.7537121
v 0.014536132 -0.45055297 -2.564851
v -0.4212451 0.28793824 -3.1703942
v -0.36613035 -0.44815734 -2.2120667
v 0.09836181 0.28772706 -3.6562548
v 1.3318896 -0.45318237 -2.8799548
v 1.9010156 0.28878418 -4.094365
v 1.6421996 -0.44955567 -1.7869312
v 2.3202734 0.28819457 -2.5929124
v 1.9010156 0.28878418 -4.094365
v 1.3318896 -0.45318237 -2.8799548
v -2.1936693 -0.42387998 -0.09823486
v -3.6325243 0.31773803 1.4320153
v -3.1436303 -0.42626342 0.9672473
v -2.9083593 0.31526 -0.28550413
v -2.4061742 -0.44830504 -1.2028173
v -3.2048852 0.28855103 -1.7943945
v -1.3616748 -0.4228772 2.3118541
v -1.7769238 0.31842408 2.996698
v -1.2436547 0.31887573 4.0197253
v -0.9687402 -0.42629027 3.057987
v -0.36613035 -0.44815734 -2.2120667
v -0.4212451 0.28793824 -3.1703942
v -1.9170507 0.2877063 -3.7020557
v -1.4603442 -0.45207518 -2.5960803
v -0.9687402 -0.42629027 3.057987
v -1.2436547 0.31887573 4.0197253
v 0.4830737 0.29079467 3.3522253
v 0.29761717 -0.44302917 2.5730224
v -1.4603442 -0.45207518 -2.5960803
v -1.9170507 0.2877063 -3.7020557
v -3.2048852 0.28855103 -1.7943945
v -2.4061742 -0.44830504 -1.2028173
v 2.6020238 -0.45010436 -0.7537121
v 3.6325243 0.28880125 -1.1832178
v 2.3202734 0.28819457 -2.5929124
v 1.6421996 -0.44955567 -1.7869312
v 1.28625 -0.44377685 -2.7825658
v 1.5816895 -0.44053894 -1.7149987
v 1.6421996 -0.44955567 -1.7869312
v 1.3318896 -0.45318237 -2.8799548
v 0.00717041 -0.44142088 -2.4690173
v 0.014536132 -0.45055297 -2.564851
v -0.36103025 -0.43946287 -2.123258
v -0.36613035 -0.44815734 -2.2120667
v -1.4217749 -0.44275695 -2.5026586
v -1.4603442 -0.45207518 -2.5960803
v -2.3331957 -0.43948853 -1.1487464
v -2.4061742 -0.44830504 -1.2028173
v -2.1209936 -0.4169354 -0.07917847
v -2.1936693 -0.42387998 -0.09823486
v -3.0588598 -0.41809142 0.9421643
v -3.1436303 -0.42626342 0.9672473
v -2.1728466 -0.4169635 1.7405005
v -2.24312 -0.42483702 1.7878723
v -2.2600195 -0.4194165 2.466953
v -2.3278759 -0.42803282 2.534846
v -1.3205688 -0.41552916 2.244066
v -1.3616748 -0.4228772 2.3118541
v -0.94369626 -0.4179486 2.9703772
v -0.9687402 -0.42629027 3.057987
v 0.27923828 -0.43524963 2.4958348
v 0.29761717 -0.44302917 2.5730224
v 1.0791065 -0.43904966 3.0244005
v 1.1219604 -0.44813293 3.1106262
v 1.3122534 -0.43732542 2.4281287
v 1.3657665 -0.445932 2.4984741
v 2.0737817 -0.43794128 2.0427356
v 2.1443944 -0.44668394 2.0988622
v 1.8249658 -0.43563414 0.54202634
v 1.901914 -0.44318542 0.5466052
v 2.5123072 -0.44094175 -0.71630734
v 2.6020238 -0.45010436 -0.7537121
v 1.5816895 -0.44053894 -1.7149987
v 2.5123072 -0.44094175 -0.71630734
v 2.6020238 -0.45010436 -0.7537121
v 1.6421996 -0.44955567 -1.7869312
vt 4.8476562 -2.6542969
vt 4.7578125 -2.8652344
vt 4.75 -2.7070312
vt 4.7578125 -2.8652344
vt 4.6328125 -2.7070312
vt 4.6015625 -2.7460938
vt 4.5585938 -2.7636719
vt 4.5976562 -2.828125
vt 4.5625 -2.9238281
vt 4.6171875 -2.9550781
vt 4.6054688 -3.0292969
vt 4.6601562 -3.0234375
vt 4.7070312 -3.0546875
vt 4.8007812 -3.015625
vt 4.8828125 -3.0273438
vt 4.984375 -2.9570312
vt 4.9570312 -2.875
vt 4.984375 -2.8457031
vt 5.0039062 -2.7460938
vt 4.921875 -2.7226562
vt 4.921875 -2.7226562
vt 4.7578125 -2.8652344
vt 4.8476562 -2.6542969
vt 4.4921875 -2.7324219
vt 4.5585938 -2.7636719
vt 4.5976562 -2.828125
vt 4.5351562 -2.8183594
vt 4.5625 -2.9863281
vt 4.6171875 -2.9550781
vt 4.6054688 -3.0292969
vt 4.5546875 -3.0800781
vt 4.6289062 -3.0800781
vt 4.6601562 -3.0234375
vt 4.7070312 -3.0546875
vt 4.6953125 -3.1191406
vt 4.5546875 -3.0800781
vt 4.6054688 -3.0292969
vt 4.6601562 -3.0234375
vt 4.6289062 -3.0800781
vt 4.59375 -2.6523438
vt 4.6328125 -2.7070312
vt 4.6015625 -2.7460938
vt 4.5507812 -2.703125
vt 4.5585938 -2.7636719
vt 4.4921875 -2.7324219
vt 4.7421875 -2.6464844
vt 4.6328125 -2.7070312
vt 4.59375 -2.6523438
vt 4.75 -2.7070312
vt 4.8710938 -2.5839844
vt 4.8476562 -2.6542969
vt 5.0273438 -2.8789062
vt 4.9570312 -2.875
vt 4.984375 -2.8457031
vt 5.0546875 -2.8398438
vt 5.0039062 -2.7460938
vt 5.0820312 -2.7089844
vt 5.0820312 -2.7089844
vt 5.0039062 -2.7460938
vt 4.921875 -2.7226562
vt 4.9765625 -2.6738281
vt 4.6953125 -3.1191406
vt 4.7070312 -3.0546875
vt 4.8007812 -3.015625
vt 4.8164062 -3.0722656
vt 4.8828125 -3.0273438
vt 4.921875 -3.0839844
vt 4.4960938 -2.9394531
vt 4.5625 -2.9238281
vt 4.6171875 -2.9550781
vt 4.5625 -2.9863281
vt 5.0585938 -2.9882812
vt 4.984375 -2.9570312
vt 4.9570312 -2.875
vt 5.0273438 -2.8789062
vt 4.5351562 -2.8183594
vt 4.5976562 -2.828125
vt 4.5625 -2.9238281
vt 4.4960938 -2.9394531
vt 4.921875 -3.0839844
vt 4.8828125 -3.0273438
vt 4.984375 -2.9570312
vt 5.0585938 -2.9882812
vt 4.9765625 -2.6738281
vt 4.921875 -2.7226562
vt 4.8476562 -2.6542969
vt 4.8710938 -2.5839844
vt 4.5351562 -2.8183594
vt 4.5351562 -2.8183594
vt 4.4921875 -2.7324219
vt 4.4921875 -2.7324219
vt 4.5546875 -3.0800781
vt 4.5546875 -3.0800781
vt 4.5625 -2.9863281
vt 4.5625 -2.9863281
vt 4.6953125 -3.1191406
vt 4.6953125 -3.1191406
vt 4.6289062 -3.0800781
vt 4.6289062 -3.0800781
vt 4.6289062 -3.0800781
vt 4.6289062 -3.0800781
vt 4.5546875 -3.0800781
vt 4.5546875 -3.0800781
vt 4.5507812 -2.703125
vt 4.59375 -2.6523438
vt 4.59375 -2.6523438
vt 4.5507812 -2.703125
vt 4.4921875 -2.7324219
vt 4.4921875 -2.7324219
vt 4.59375 -2.6523438
vt 4.59375 -2.6523438
vt 4.7421875 -2.6464844
vt 4.7421875 -2.6464844
vt 4.8710938 -2.5839844
vt 4.8710938 -2.5839844
vt 5.0546875 -2.8398438
vt 5.0273438 -2.8789062
vt 5.0273438 -2.8789062
vt 5.0546875 -2.8398438
vt 5.0820312 -2.7089844
vt 5.0820312 -2.7089844
vt 4.9765625 -2.6738281
vt 4.9765625 -2.6738281
vt 5.0820312 -2.7089844
vt 5.0820312 -2.7089844
vt 4.8164062 -3.0722656
vt 4.6953125 -3.1191406
vt 4.6953125 -3.1191406
vt 4.8164062 -3.0722656
vt 4.921875 -3.0839844
vt 4.921875 -3.0839844
vt 4.5625 -2.9863281
vt 4.5625 -2.9863281
vt 4.4960938 -2.9394531
vt 4.4960938 -2.9394531
vt 5.0273438 -2.8789062
vt 5.0273438 -2.8789062
vt 5.0585938 -2.9882812
vt 5.0585938 -2.9882812
vt 4.4960938 -2.9394531
vt 4.4960938 -2.9394531
vt 4.5351562 -2.8183594
vt 4.5351562 -2.8183594
vt 5.0585938 -2.9882812
vt 5.0585938 -2.9882812
vt 4.921875 -3.0839844
vt 4.921875 -3.0839844
vt 4.8710938 -2.5839844
vt 4.8710938 -2.5839844
vt 4.9765625 -2.6738281
vt 4.9765625 -2.6738281
vt 5.0820312 -2.7089844
vt 4.9765625 -2.6738281
vt 4.9765625 -2.6738281
vt 5.0820312 -2.7089844
vt 5.0546875 -2.8398438
vt 5.0546875 -2.8398438
vt 5.0273438 -2.8789062
vt 5.0273438 -2.8789062
vt 5.0585938 -2.9882812
vt 5.0585938 -2.9882812
vt 4.921875 -3.0839844
vt 4.921875 -3.0839844
vt 4.8164062 -3.0722656
vt 4.8164062 -3.0722656
vt 4.6953125 -3.1191406
vt 4.6953125 -3.1191406
vt 4.6289062 -3.0800781
vt 4.6289062 -3.0800781
vt 4.5546875 -3.0800781
vt 4.5546875 -3.0800781
vt 4.5625 -2.9863281
vt 4.5625 -2.9863281
vt 4.4960938 -2.9394531
vt 4.4960938 -2.9394531
vt 4.5351562 -2.8183594
vt 4.5351562 -2.8183594
vt 4.4921875 -2.7324219
vt 4.4921875 -2.7324219
vt 4.5507812 -2.703125
vt 4.5507812 -2.703125
vt 4.59375 -2.6523438
vt 4.59375 -2.6523438
vt 4.7421875 -2.6464844
vt 4.7421875 -2.6464844
vt 4.8710938 -2.5839844
vt 4.8710938 -2.5839844
vt 4.9765625 -2.6738281
vt 4.8710938 -2.5839844
vt 4.8710938 -2.5839844
vt 4.9765625 -2.6738281
vn -0.011260986 -1 0.002298355
vn -0.0009446144 -1 -0.00033473969
vn -0.015960693 -1 -0.0046081543
vn -0.0009446144 -1 -0.00033473969
vn -0.0112838745 -1 -0.006126404
vn -0.0115737915 -1 -0.0075912476
vn -0.003955841 -1 -0.010658264
vn 0.0027446747 -1 -0.016494751
vn -0.0002052784 -1 -0.010223389
vn 0.0039711 -1 -0.01184082
vn 0.0061569214 -1 -0.006549835
vn 0.012161255 -1 -0.001698494
vn 0.010368347 -1 -0.0014381409
vn 0.012741089 -1 0.0046195984
vn 0.011230469 -1 0.0060920715
vn 0.0034675598 -1 0.010040283
vn 0.0039863586 -1 0.012924194
vn 0.0054473877 -1 0.012023926
vn -0.004535675 -1 0.008285522
vn -0.011947632 -1 0.0056037903
vn -0.011947632 -1 0.0056037903
vn -0.0009446144 -1 -0.00033473969
vn -0.011260986 -1 0.002298355
vn 0.52783203 -0.28198242 -0.80126953
vn 0.52783203 -0.28198242 -0.80126953
vn 0.52783203 -0.28198242 -0.80126953
vn 0.52783203 -0.28198242 -0.80126953
vn -0.21899414 -0.296875 -0.9296875
vn -0.21899414 -0.296875 -0.9296875
vn -0.21899414 -0.296875 -0.9296875
vn -0.21899414 -0.296875 -0.9296875
vn 0.62353516 -0.49072266 -0.6088867
vn 0.62353516 -0.49072266 -0.6088867
vn 0.62353516 -0.49072266 -0.6088867
vn 0.62353516 -0.49072266 -0.6088867
vn 0.9326172 -0.34326172 0.1104126
vn 0.9326172 -0.34326172 0.1104126
vn 0.9326172 -0.34326172 0.1104126
vn 0.9326172 -0.34326172 0.1104126
vn -0.44384766 -0.4951172 -0.7470703
vn -0.44384766 -0.4951172 -0.7470703
vn -0.6616211 -0.4711914 -0.5834961
vn -0.68847656 -0.46484375 -0.5566406
vn -0.8540039 -0.39770508 -0.33544922
vn -0.8540039 -0.39770508 -0.33544922
vn -0.8833008 -0.4248047 -0.19812012
vn -0.8779297 -0.47192383 0.07910156
vn -0.8779297 -0.47192383 0.07910156
vn -0.8852539 -0.42919922 -0.17871094
vn -0.8232422 -0.34838867 -0.44799805
vn -0.8232422 -0.34838867 -0.44799805
vn 0.6357422 -0.36572266 0.6796875
vn 0.6357422 -0.36572266 0.6796875
vn 0.46875 -0.42749023 0.7729492
vn 0.39257812 -0.44848633 0.80322266
vn 0.20715332 -0.484375 0.85009766
vn 0.20715332 -0.484375 0.85009766
vn -0.87402344 -0.42016602 0.24353027
vn -0.87402344 -0.42016602 0.24353027
vn -0.7607422 -0.4675293 0.4501953
vn -0.7866211 -0.46020508 0.4111328
vn 0.70410156 -0.52978516 0.4729004
vn 0.70410156 -0.52978516 0.4729004
vn 0.86621094 -0.46875 0.17175293
vn 0.87158203 -0.4645996 0.15722656
vn 0.9238281 -0.3388672 -0.1776123
vn 0.9238281 -0.3388672 -0.1776123
vn 0.8310547 -0.3491211 -0.43286133
vn 0.8310547 -0.3491211 -0.43286133
vn 0.8310547 -0.3491211 -0.43286133
vn 0.8310547 -0.3491211 -0.43286133
vn -0.30322266 -0.42626953 0.8520508
vn -0.30322266 -0.42626953 0.8520508
vn -0.30322266 -0.42626953 0.8520508
vn -0.30322266 -0.42626953 0.8520508
vn -0.33569336 -0.3930664 -0.85595703
vn -0.33569336 -0.3930664 -0.85595703
vn -0.33569336 -0.3930664 -0.85595703
vn -0.33569336 -0.3930664 -0.85595703
vn 0.73291016 -0.4675293 0.4946289
vn 0.73291016 -0.4675293 0.4946289
vn 0.73291016 -0.4675293 0.4946289
vn 0.73291016 -0.4675293 0.4946289
vn -0.7866211 -0.46020508 0.4111328
vn -0.7607422 -0.4675293 0.4501953
vn -0.63964844 -0.48608398 0.5957031
vn -0.63964844 -0.48608398 0.5957031
vn -0.4399414 -0.5991211 0.6689453
vn -0.4399414 -0.5991211 0.6689453
vn -0.4399414 -0.5991211 0.6689453
vn -0.4399414 -0.5991211 0.6689453
vn 0.18127441 -0.61083984 0.7709961
vn 0.18127441 -0.61083984 0.7709961
vn 0.18127441 -0.61083984 0.7709961
vn 0.18127441 -0.61083984 0.7709961
vn -0.50683594 -0.72216797 0.47094727
vn -0.50683594 -0.72216797 0.47094727
vn -0.50683594 -0.72216797 0.47094727
vn -0.50683594 -0.72216797 0.47094727
vn -0.73583984 -0.671875 -0.086364746
vn -0.73583984 -0.671875 -0.086364746
vn -0.73583984 -0.671875 -0.086364746
vn -0.73583984 -0.671875 -0.086364746
vn 0.4790039 -0.76953125 0.42211914
vn 0.34326172 -0.7631836 0.5473633
vn 0.34326172 -0.7631836 0.5473633
vn 0.51171875 -0.76708984 0.38745117
vn 0.625 -0.74072266 0.24621582
vn 0.625 -0.74072266 0.24621582
vn 0.7626953 -0.64501953 -0.050567627
vn 0.7626953 -0.64501953 -0.050567627
vn 0.7109375 -0.68310547 0.16723633
vn 0.71972656 -0.6801758 0.14001465
vn 0.6376953 -0.6875 0.34716797
vn 0.6376953 -0.6875 0.34716797
vn -0.359375 -0.7597656 -0.5415039
vn -0.48266602 -0.7080078 -0.5161133
vn -0.48266602 -0.7080078 -0.5161133
vn -0.2553711 -0.7915039 -0.5551758
vn -0.1361084 -0.81591797 -0.5620117
vn -0.1361084 -0.81591797 -0.5620117
vn 0.5073242 -0.8041992 -0.3095703
vn 0.5449219 -0.7944336 -0.2685547
vn 0.6225586 -0.7626953 -0.17419434
vn 0.6225586 -0.7626953 -0.17419434
vn -0.76953125 -0.62109375 -0.14685059
vn -0.73535156 -0.5136719 -0.44213867
vn -0.73535156 -0.5136719 -0.44213867
vn -0.76953125 -0.6245117 -0.13330078
vn -0.7294922 -0.6660156 0.15515137
vn -0.7294922 -0.6660156 0.15515137
vn -0.6513672 -0.67871094 0.33984375
vn -0.6513672 -0.67871094 0.33984375
vn -0.6513672 -0.67871094 0.33984375
vn -0.6513672 -0.67871094 0.33984375
vn 0.21435547 -0.7685547 -0.60253906
vn 0.21435547 -0.7685547 -0.60253906
vn 0.21435547 -0.7685547 -0.60253906
vn 0.21435547 -0.7685547 -0.60253906
vn 0.23400879 -0.7348633 0.63623047
vn 0.23400879 -0.7348633 0.63623047
vn 0.23400879 -0.7348633 0.63623047
vn 0.23400879 -0.7348633 0.63623047
vn -0.49414062 -0.80322266 -0.33325195
vn -0.49414062 -0.80322266 -0.33325195
vn -0.49414062 -0.80322266 -0.33325195
vn -0.49414062 -0.80322266 -0.33325195
vn 0.42211914 -0.81689453 -0.39257812
vn 0.42211914 -0.81689453 -0.39257812
vn 0.5449219 -0.7944336 -0.2685547
vn 0.5073242 -0.8041992 -0.3095703
vn -0.04928589 -0.99658203 0.06750488
vn -0.08795166 -0.9946289 0.055236816
vn -0.09814453 -0.9941406 0.04800415
vn -0.03878784 -0.99658203 0.072509766
vn 0.06329346 -0.99316406 0.09851074
vn 0.04034424 -0.9941406 0.10028076
vn 0.016555786 -0.9946289 0.10247803
vn 0.029251099 -0.9946289 0.10144043
vn 0.022705078 -0.99609375 0.083740234
vn 0.029342651 -0.99609375 0.08105469
vn 0.09814453 -0.9951172 0.023269653
vn 0.09112549 -0.9951172 0.04058838
vn 0.10308838 -0.99365234 0.043395996
vn 0.10296631 -0.99365234 0.044281006
vn 0.08526611 -0.99609375 0.014968872
vn 0.07928467 -0.99658203 -0.01701355
vn 0.09185791 -0.9951172 -0.040527344
vn 0.1015625 -0.9946289 -0.026611328
vn 0.04849243 -0.99658203 -0.06585693
vn 0.05731201 -0.99658203 -0.057403564
vn 0.045166016 -0.9946289 -0.09301758
vn 0.03366089 -0.9946289 -0.1003418
vn 0.027709961 -0.99658203 -0.07763672
vn 0.017486572 -0.99658203 -0.080444336
vn -0.0058059692 -0.99365234 -0.11102295
vn 0.025985718 -0.9926758 -0.11895752
vn -0.0073165894 -0.99560547 -0.09234619
vn -0.03427124 -0.99609375 -0.079956055
vn -0.07287598 -0.9946289 -0.0715332
vn -0.080322266 -0.9946289 -0.06604004
vn -0.08514404 -0.99609375 -0.031921387
vn -0.07458496 -0.99609375 -0.04812622
vn -0.11383057 -0.99316406 -0.015991211
vn -0.11340332 -0.99316406 -0.021209717
vn -0.09375 -0.99560547 -0.0017337799
vn -0.085998535 -0.99609375 0.022735596
vn -0.08795166 -0.9946289 0.055236816
vn -0.09375 -0.99560547 -0.0017337799
vn -0.085998535 -0.99609375 0.022735596
vn -0.09814453 -0.9941406 0.04800415
g A003_JohnWatson03_0
f 3/3/3 2/2/2 1/1/1
f 5/5/5 4/4/4 3/3/3
f 6/6/6 4/4/4 5/5/5
f 7/7/7 4/4/4 6/6/6
f 8/8/8 4/4/4 7/7/7
f 9/9/9 4/4/4 8/8/8
f 10/10/10 4/4/4 9/9/9
f 11/11/11 4/4/4 10/10/10
f 12/12/12 4/4/4 11/11/11
f 13/13/13 4/4/4 12/12/12
f 14/14/14 4/4/4 13/13/13
f 15/15/15 4/4/4 14/14/14
f 16/16/16 4/4/4 15/15/15
f 17/17/17 4/4/4 16/16/16
f 18/18/18 4/4/4 17/17/17
f 19/19/19 4/4/4 18/18/18
f 20/20/20 4/4/4 19/19/19
f 23/23/23 22/22/22 21/21/21
f 26/26/26 25/25/25 24/24/24
f 27/27/27 26/26/26 24/24/24
f 30/30/30 29/29/29 28/28/28
f 31/31/31 30/30/30 28/28/28
f 34/34/34 33/33/33 32/32/32
f 35/35/35 34/34/34 32/32/32
f 38/38/38 37/37/37 36/36/36
f 39/39/39 38/38/38 36/36/36
f 42/42/42 41/41/41 40/40/40
f 43/43/43 42/42/42 40/40/40
f 44/44/44 42/42/42 43/43/43
f 45/45/45 44/44/44 43/43/43
f 48/48/48 47/47/47 46/46/46
f 47/47/47 49/49/49 46/46/46
f 46/46/46 49/49/49 50/50/50
f 49/49/49 51/51/51 50/50/50
f 54/54/54 53/53/53 52/52/52
f 55/55/55 54/54/54 52/52/52
f 56/56/56 54/54/54 55/55/55
f 57/57/57 56/56/56 55/55/55
f 60/60/60 59/59/59 58/58/58
f 61/61/61 60/60/60 58/58/58
f 64/64/64 63/63/63 62/62/62
f 65/65/65 64/64/64 62/62/62
f 66/66/66 64/64/64 65/65/65
f 67/67/67 66/66/66 65/65/65
f 70/70/70 69/69/69 68/68/68
f 71/71/71 70/70/70 68/68/68
f 74/74/74 73/73/73 72/72/72
f 75/75/75 74/74/74 72/72/72
f 78/78/78 77/77/77 76/76/76
f 79/79/79 78/78/78 76/76/76
f 82/82/82 81/81/81 80/80/80
f 83/83/83 82/82/82 80/80/80
f 86/86/86 85/85/85 84/84/84
f 87/87/87 86/86/86 84/84/84
f 90/90/90 89/89/89 88/88/88
f 91/91/91 90/90/90 88/88/88
f 94/94/94 93/93/93 92/92/92
f 95/95/95 94/94/94 92/92/92
f 98/98/98 97/97/97 96/96/96
f 99/99/99 98/98/98 96/96/96
f 102/102/102 101/101/101 100/100/100
f 103/103/103 102/102/102 100/100/100
f 106/106/106 105/105/105 104/104/104
f 105/105/105 107/107/107 104/104/104
f 104/104/104 107/107/107 108/108/108
f 107/107/107 109/109/109 108/108/108
f 112/112/112 111/111/111 110/110/110
f 113/113/113 112/112/112 110/110/110
f 114/114/114 112/112/112 113/113/113
f 115/115/115 114/114/114 113/113/113
f 118/118/118 117/117/117 116/116/116
f 117/117/117 119/119/119 116/116/116
f 116/116/116 119/119/119 120/120/120
f 119/119/119 121/121/121 120/120/120
f 124/124/124 123/123/123 122/122/122
f 125/125/125 124/124/124 122/122/122
f 128/128/128 127/127/127 126/126/126
f 127/127/127 129/129/129 126/126/126
f 126/126/126 129/129/129 130/130/130
f 129/129/129 131/131/131 130/130/130
f 134/134/134 133/133/133 132/132/132
f 135/135/135 134/134/134 132/132/132
f 138/138/138 137/137/137 136/136/136
f 139/139/139 138/138/138 136/136/136
f 142/142/142 141/141/141 140/140/140
f 143/143/143 142/142/142 140/140/140
f 146/146/146 145/145/145 144/144/144
f 147/147/147 146/146/146 144/144/144
f 150/150/150 149/149/149 148/148/148
f 151/151/151 150/150/150 148/148/148
f 154/154/154 153/153/153 152/152/152
f 155/155/155 154/154/154 152/152/152
f 155/155/155 152/152/152 156/156/156
f 157/157/157 155/155/155 156/156/156
f 157/157/157 156/156/156 158/158/158
f 159/159/159 157/157/157 158/158/158
f 159/159/159 158/158/158 160/160/160
f 161/161/161 159/159/159 160/160/160
f 161/161/161 160/160/160 162/162/162
f 163/163/163 161/161/161 162/162/162
f 163/163/163 162/162/162 164/164/164
f 165/165/165 163/163/163 164/164/164
f 165/165/165 164/164/164 166/166/166
f 167/167/167 165/165/165 166/166/166
f 167/167/167 166/166/166 168/168/168
f 169/169/169 167/167/167 168/168/168
f 169/169/169 168/168/168 170/170/170
f 171/171/171 169/169/169 170/170/170
f 171/171/171 170/170/170 172/172/172
f 173/173/173 171/171/171 172/172/172
f 173/173/173 172/172/172 174/174/174
f 175/175/175 173/173/173 174/174/174
f 175/175/175 174/174/174 176/176/176
f 177/177/177 175/175/175 176/176/176
f 177/177/177 176/176/176 178/178/178
f 179/179/179 177/177/177 178/178/178
f 179/179/179 178/178/178 180/180/180
f 181/181/181 179/179/179 180/180/180
f 181/181/181 180/180/180 182/182/182
f 183/183/183 181/181/181 182/182/182
f 183/183/183 182/182/182 184/184/184
f 185/185/185 183/183/183 184/184/184
f 185/185/185 184/184/184 186/186/186
f 187/187/187 185/185/185 186/186/186
f 190/190/190 189/189/189 188/188/188
f 191/191/191 190/190/190 188/188/188
