g A003_BB02
v -17.65774 2.852798 13.51584
v -18.200361 2.690992 14.009824
v -18.365238 2.6909938 13.802896
v 15.992722 2.852799 13.3968115
v 16.701017 2.6909919 13.652075
v 16.556702 2.6909912 13.888495
v -17.698833 2.8528268 -14.511223
v -18.407124 2.6910162 -14.766491
v -18.262808 2.6910195 -15.002908
v 15.951638 2.8528252 -14.630254
v 16.49424 2.6910186 -15.124238
v 16.659119 2.691016 -14.917312
v 16.56699 2.2292492 14.110166
v -18.190075 2.2324812 14.2315035
v 16.556702 2.6909912 13.888495
v -18.200361 2.690992 14.009824
v 16.556702 2.6909912 13.888495
v -18.190075 2.2324812 14.2315035
v -18.519835 2.2324827 13.817641
v -18.561708 2.2292767 -14.751742
v -18.365238 2.6909938 13.802896
v -18.407124 2.6910162 -14.766491
v -18.365238 2.6909938 13.802896
v -18.561708 2.2292767 -14.751742
v -18.190075 2.2324812 14.2315035
v -18.519835 2.2324827 13.817641
v -18.200361 2.690992 14.009824
v -18.365238 2.6909938 13.802896
v 16.855602 2.2292492 13.637324
v 16.56699 2.2292492 14.110166
v 16.701017 2.6909919 13.652075
v 16.556702 2.6909912 13.888495
v -18.561708 2.2292767 -14.751742
v -18.27309 2.229277 -15.22457
v -18.407124 2.6910162 -14.766491
v -18.262808 2.6910195 -15.002908
v 16.483948 2.2292764 -15.345905
v 16.813704 2.2292762 -14.932053
v 16.49424 2.6910186 -15.124238
v 16.659119 2.691016 -14.917312
v 16.556702 2.6909912 13.888495
v -18.200361 2.690992 14.009824
v 15.992722 2.852799 13.3968115
v -17.65774 2.852798 13.51584
v 16.659119 2.691016 -14.917312
v 16.701017 2.6909919 13.652075
v 15.951638 2.8528252 -14.630254
v 15.992722 2.852799 13.3968115
v -18.262808 2.6910195 -15.002908
v 16.49424 2.6910186 -15.124238
v -17.698833 2.8528268 -14.511223
v 15.951638 2.8528252 -14.630254
v -18.365238 2.6909938 13.802896
v -18.407124 2.6910162 -14.766491
v -17.65774 2.852798 13.51584
v -17.698833 2.8528268 -14.511223
v 16.813704 2.2292762 -14.932053
v 16.855602 2.2292492 13.637324
v 16.659119 2.691016 -14.917312
v 16.701017 2.6909919 13.652075
v -18.27309 2.229277 -15.22457
v 16.483948 2.2292764 -15.345905
v -18.262808 2.6910195 -15.002908
v 16.49424 2.6910186 -15.124238
v -18.188353 -5.005209 14.268281
v -18.518112 -5.0052066 13.854414
v -18.190075 2.2324812 14.2315035
v -18.519835 2.2324827 13.817641
v -18.190075 2.2324812 14.2315035
v -18.518112 -5.0052066 13.854414
v -18.27309 2.229277 -15.22457
v -18.561708 2.2292767 -14.751742
v -18.273092 -5.005172 -15.224589
v -18.561707 -5.005173 -14.751762
v -18.273092 -5.005172 -15.224589
v -18.561708 2.2292767 -14.751742
v -18.518112 -5.0052066 13.854414
v -18.188353 -5.005209 14.268281
v -18.208914 -5.6372504 13.824922
v 16.857307 -5.005206 13.674096
v 16.548122 -5.6372495 13.703613
v 16.56869 -5.0052094 14.146948
v -18.273092 -5.005172 -15.224589
v -18.561707 -5.005173 -14.751762
v -18.252527 -5.6372166 -14.781256
v 16.483957 -5.0051727 -15.345925
v 16.504538 -5.6372166 -14.902586
v 16.813707 -5.0051737 -14.932079
v -18.190075 2.2324812 14.2315035
v 16.56699 2.2292492 14.110166
v -18.188353 -5.005209 14.268281
v 16.56869 -5.0052094 14.146948
v 16.855602 2.2292492 13.637324
v 16.813704 2.2292762 -14.932053
v 16.857307 -5.005206 13.674096
v 16.813707 -5.0051737 -14.932079
v 16.483948 2.2292764 -15.345905
v -18.27309 2.229277 -15.22457
v 16.483957 -5.0051727 -15.345925
v -18.273092 -5.005172 -15.224589
v -18.561708 2.2292767 -14.751742
v -18.519835 2.2324827 13.817641
v -18.561707 -5.005173 -14.751762
v -18.518112 -5.0052066 13.854414
v 16.56699 2.2292492 14.110166
v 16.855602 2.2292492 13.637324
v 16.56869 -5.0052094 14.146948
v 16.857307 -5.005206 13.674096
v 16.813704 2.2292762 -14.932053
v 16.483948 2.2292764 -15.345905
v 16.813707 -5.0051737 -14.932079
v 16.483957 -5.0051727 -15.345925
v -18.252527 -5.6372166 -14.781256
v -18.561707 -5.005173 -14.751762
v -18.208914 -5.6372504 13.824922
v -18.518112 -5.0052066 13.854414
v 16.504538 -5.6372166 -14.902586
v 16.483957 -5.0051727 -15.345925
v -18.252527 -5.6372166 -14.781256
v -18.273092 -5.005172 -15.224589
v 16.548122 -5.6372495 13.703613
v 16.857307 -5.005206 13.674096
v 16.504538 -5.6372166 -14.902586
v 16.813707 -5.0051737 -14.932079
v -18.208914 -5.6372504 13.824922
v -18.188353 -5.005209 14.268281
v 16.548122 -5.6372495 13.703613
v 16.56869 -5.0052094 14.146948
v 16.548122 -5.6372495 13.703613
v 16.504538 -5.6372166 -14.902586
v -18.208914 -5.6372504 13.824922
v -18.252527 -5.6372166 -14.781256
v -17.698833 2.8528268 -14.511223
v 15.951638 2.8528252 -14.630254
v -17.65774 2.852798 13.51584
v 15.992722 2.852799 13.3968115
vt 0.027618408 0.9404297
vt 0.027618408 0.61035156
vt 0.027618408 0.61035156
vt 0.027618408 0.9404297
vt 0.027618408 0.61035156
vt 0.027618408 0.61035156
vt 0.027618408 0.9404297
vt 0.027618408 0.61035156
vt 0.027618408 0.61035156
vt 0.027618408 0.9404297
vt 0.027618408 0.61035156
vt 0.027618408 0.61035156
vt 0.027618408 0.006668091
vt 2.6855469 0.006668091
vt 0.027618408 0.61035156
vt 2.6855469 0.61035156
vt 0.027618408 0.61035156
vt 2.6855469 0.006668091
vt 0.027618408 0.006668091
vt 2.6933594 0.006668091
vt 0.027618408 0.61035156
vt 2.6933594 0.61035156
vt 0.027618408 0.61035156
vt 2.6933594 0.006668091
vt 0.027618408 0.006668091
vt 0.027618408 0.006668091
vt 0.027618408 0.61035156
vt 0.027618408 0.61035156
vt 0.027618408 0.006668091
vt 0.027618408 0.006668091
vt 0.027618408 0.61035156
vt 0.027618408 0.61035156
vt 0.027618408 0.006668091
vt 0.027618408 0.006668091
vt 0.027618408 0.61035156
vt 0.027618408 0.61035156
vt 0.027618408 0.006668091
vt 0.027618408 0.006668091
vt 0.027618408 0.61035156
vt 0.027618408 0.61035156
vt 0.027618408 0.61035156
vt 2.6855469 0.61035156
vt 0.027618408 0.9404297
vt 2.6855469 0.9404297
vt 0.027618408 0.61035156
vt 2.6933594 0.61035156
vt 0.027618408 0.9404297
vt 2.6933594 0.9404297
vt 0.027618408 0.61035156
vt 2.6855469 0.61035156
vt 0.027618408 0.9404297
vt 2.6855469 0.9404297
vt 0.027618408 0.61035156
vt 2.6933594 0.61035156
vt 0.027618408 0.9404297
vt 2.6933594 0.9404297
vt 0.027618408 0.006668091
vt 2.6933594 0.006668091
vt 0.027618408 0.61035156
vt 2.6933594 0.61035156
vt 0.027618408 0.006668091
vt 2.6855469 0.006668091
vt 0.027618408 0.61035156
vt 2.6855469 0.61035156
vt -14.171875 -4.8984375
vt -14.2265625 -4.90625
vt -14.1796875 -4.1914062
vt -14.2265625 -4.1914062
vt -14.1796875 -4.1914062
vt -14.2265625 -4.90625
vt -4.4453125 -4.1992188
vt -4.4023438 -4.1992188
vt -4.453125 -4.9101562
vt -4.4101562 -4.9140625
vt -4.453125 -4.9101562
vt -4.4023438 -4.1992188
vt -14.2265625 -4.90625
vt -14.171875 -4.8984375
vt -14.1796875 -4.9726562
vt -10.71875 -4.8867188
vt -10.7421875 -4.953125
vt -10.7578125 -4.8828125
vt -4.453125 -4.9101562
vt -4.4101562 -4.9140625
vt -4.4414062 -4.9804688
vt -7.8671875 -4.8828125
vt -7.8945312 -4.9570312
vt -7.90625 -4.8867188
vt -14.1796875 -4.1914062
vt -10.7578125 -4.171875
vt -14.171875 -4.8984375
vt -10.7578125 -4.8828125
vt -10.7109375 -4.171875
vt -7.9023438 -4.171875
vt -10.71875 -4.8867188
vt -7.90625 -4.8867188
vt -7.859375 -4.171875
vt -4.4453125 -4.1992188
vt -7.8671875 -4.8828125
vt -4.453125 -4.9101562
vt -4.4023438 -4.1992188
vt -1.59375 -4.1992188
vt -4.4101562 -4.9140625
vt -1.5927734 -4.9140625
vt -10.7578125 -4.171875
vt -10.7109375 -4.171875
vt -10.7578125 -4.8828125
vt -10.71875 -4.8867188
vt -7.9023438 -4.171875
vt -7.859375 -4.171875
vt -7.90625 -4.8867188
vt -7.8671875 -4.8828125
vt -4.4414062 -4.9804688
vt -4.4101562 -4.9140625
vt -1.6015625 -4.984375
vt -1.5927734 -4.9140625
vt -7.8945312 -4.9570312
vt -7.8671875 -4.8828125
vt -4.4414062 -4.9804688
vt -4.453125 -4.9101562
vt -10.7421875 -4.953125
vt -10.71875 -4.8867188
vt -7.8945312 -4.9570312
vt -7.90625 -4.8867188
vt -14.1796875 -4.9726562
vt -14.171875 -4.8984375
vt -10.7421875 -4.953125
vt -10.7578125 -4.8828125
vt 6.5273438 -12.8046875
vt 6.53125 -9.9921875
vt 9.953125 -12.8203125
vt 9.953125 -10
vt 10.7578125 -2.546875
vt 7.4453125 -2.5585938
vt 10.7578125 0.21484375
vt 7.4414062 0.203125
vn -0.16870117 0.9765625 0.13452148
vn -0.16870117 0.9765625 0.13452148
vn -0.16870117 0.9765625 0.13452148
vn 0.18286133 0.9765625 0.1116333
vn 0.18286133 0.9765625 0.1116333
vn 0.18286133 0.9765625 0.1116333
vn -0.18286133 0.9765625 -0.1116333
vn -0.18286133 0.9765625 -0.1116333
vn -0.18286133 0.9765625 -0.1116333
vn 0.16882324 0.9765625 -0.13439941
vn 0.16882324 0.9765625 -0.13439941
vn 0.16882324 0.9765625 -0.13439941
vn 0.0031871796 0.43286133 0.9013672
vn 0.0031871796 0.43286133 0.9013672
vn 0.0031871796 0.43286133 0.9013672
vn 0.0031433105 0.43530273 0.9003906
vn 0.0031433105 0.43530273 0.9003906
vn 0.0031433105 0.43530273 0.9003906
vn -0.9477539 0.31958008 0.0013532639
vn -0.9477539 0.31958008 0.0013532639
vn -0.9477539 0.31958008 0.0013532639
vn -0.9482422 0.31762695 0.0013904572
vn -0.9482422 0.31762695 0.0013904572
vn -0.9482422 0.31762695 0.0013904572
vn -0.7524414 0.27294922 0.5996094
vn -0.7524414 0.27294922 0.5996094
vn -0.7524414 0.27294922 0.5996094
vn -0.7524414 0.27294922 0.5996094
vn 0.82421875 0.25976562 0.5029297
vn 0.82421875 0.25976562 0.5029297
vn 0.82421875 0.25976562 0.5029297
vn 0.82421875 0.26000977 0.5029297
vn -0.82421875 0.25976562 -0.5029297
vn -0.82421875 0.25976562 -0.5029297
vn -0.82421875 0.25976562 -0.5029297
vn -0.82421875 0.25976562 -0.5029297
vn 0.7529297 0.27124023 -0.5996094
vn 0.7529297 0.27124023 -0.5996094
vn 0.7529297 0.27124023 -0.5996094
vn 0.7529297 0.27124023 -0.5996094
vn 0.0010871887 0.9501953 0.31152344
vn 0.0010871887 0.9501953 0.31152344
vn 0.0010871887 0.9501953 0.31152344
vn 0.0011053085 0.9501953 0.31225586
vn 0.22277832 0.97509766 -0.0003259182
vn 0.22277832 0.97509766 -0.0003259182
vn 0.22277832 0.97509766 -0.0003259182
vn 0.22277832 0.97509766 -0.00032567978
vn -0.0010871887 0.9501953 -0.31152344
vn -0.0010871887 0.9501953 -0.31152344
vn -0.0010871887 0.9501953 -0.31152344
vn -0.0011053085 0.9501953 -0.31225586
vn -0.22277832 0.97509766 0.0003273487
vn -0.22277832 0.97509766 0.0003273487
vn -0.22277832 0.97509766 0.0003273487
vn -0.22277832 0.97509766 0.00032782555
vn 0.9482422 0.31762695 -0.0013904572
vn 0.9482422 0.31762695 -0.0013904572
vn 0.9482422 0.31762695 -0.0013904572
vn 0.9482422 0.31762695 -0.0013904572
vn -0.0031471252 0.43286133 -0.9013672
vn -0.0031471252 0.43286133 -0.9013672
vn -0.0031471252 0.43286133 -0.9013672
vn -0.0031471252 0.43286133 -0.9013672
vn -0.78222656 0.0029792786 0.6230469
vn -0.78222656 0.0029792786 0.6230469
vn -0.78222656 0.0029792786 0.6230469
vn -0.78222656 0.0029792786 0.6230469
vn -0.78222656 0.0029792786 0.6230469
vn -0.78222656 0.0029792786 0.6230469
vn -0.8535156 1.66893E-06 -0.5209961
vn -0.8535156 1.66893E-06 -0.5209961
vn -0.8535156 1.66893E-06 -0.5209961
vn -0.8535156 1.1324883E-06 -0.5209961
vn -0.8535156 1.1324883E-06 -0.5209961
vn -0.8535156 1.1324883E-06 -0.5209961
vn -0.72314453 -0.38061523 0.5761719
vn -0.72314453 -0.38061523 0.5761719
vn -0.72314453 -0.38061523 0.5761719
vn 0.7944336 -0.3659668 0.48486328
vn 0.7944336 -0.3659668 0.48486328
vn 0.7944336 -0.3659668 0.48486328
vn -0.7944336 -0.3659668 -0.48486328
vn -0.7944336 -0.3659668 -0.48486328
vn -0.7944336 -0.3659668 -0.48486328
vn 0.72314453 -0.38061523 -0.5761719
vn 0.72314453 -0.38061523 -0.5761719
vn 0.72314453 -0.38061523 -0.5761719
vn 0.0034923553 0.0050811768 1
vn 0.0034923553 0.0050811768 1
vn 0.0034923553 0.0050811768 1
vn 0.003490448 0.0050849915 1
vn 1 0.00022804737 -0.0014667511
vn 1 0.00022804737 -0.0014667511
vn 1 0.00022804737 -0.0014667511
vn 1 6.556511E-07 -0.0015239716
vn -0.003490448 2.682209E-06 -1
vn -0.003490448 2.682209E-06 -1
vn -0.003490448 2.682209E-06 -1
vn -0.003490448 2.682209E-06 -1
vn -1 -3.5762787E-07 0.0014657974
vn -1 -3.5762787E-07 0.0014657974
vn -1 -3.5762787E-07 0.0014657974
vn -1 -0.00023007393 0.0015239716
vn 0.8535156 0.0028495789 0.5209961
vn 0.8535156 0.0028495789 0.5209961
vn 0.8535156 0.0028495789 0.5209961
vn 0.8535156 0.0028495789 0.5209961
vn 0.78222656 2.861023E-06 -0.6230469
vn 0.78222656 2.861023E-06 -0.6230469
vn 0.78222656 2.861023E-06 -0.6230469
vn 0.78222656 2.7418137E-06 -0.6230469
vn -0.8984375 -0.43945312 0.0013685226
vn -0.8984375 -0.43945312 0.0013685226
vn -0.8984375 -0.43945312 0.0013685226
vn -0.8984375 -0.43945312 0.0013685226
vn -0.0028572083 -0.57421875 -0.81884766
vn -0.0028572083 -0.57421875 -0.81884766
vn -0.0028572083 -0.57421875 -0.81884766
vn -0.0028572083 -0.57421875 -0.81884766
vn 0.8984375 -0.43945312 -0.0013694763
vn 0.8984375 -0.43945312 -0.0013694763
vn 0.8984375 -0.43945312 -0.0013694763
vn 0.8984375 -0.43945312 -0.0013694763
vn 0.0028572083 -0.57421875 0.81884766
vn 0.0028572083 -0.57421875 0.81884766
vn 0.0028572083 -0.57421875 0.81884766
vn 0.0028572083 -0.57421875 0.81884766
vn -0 -1 -1.1324883E-06
vn -0 -1 -1.1324883E-06
vn -0 -1 -1.1324883E-06
vn -0 -1 -1.1920929E-06
vn -0 1 1.013279E-06
vn -0 1 1.013279E-06
vn -0 1 1.013279E-06
vn -0 1 9.536743E-07
g A003_BB02_0
f 3/3/3 2/2/2 1/1/1
f 6/6/6 5/5/5 4/4/4
f 9/9/9 8/8/8 7/7/7
f 12/12/12 11/11/11 10/10/10
f 15/15/15 14/14/14 13/13/13
f 18/18/18 17/17/17 16/16/16
f 21/21/21 20/20/20 19/19/19
f 24/24/24 23/23/23 22/22/22
f 27/27/27 26/26/26 25/25/25
f 26/26/26 27/27/27 28/28/28
f 31/31/31 30/30/30 29/29/29
f 30/30/30 31/31/31 32/32/32
f 35/35/35 34/34/34 33/33/33
f 34/34/34 35/35/35 36/36/36
f 39/39/39 38/38/38 37/37/37
f 38/38/38 39/39/39 40/40/40
f 43/43/43 42/42/42 41/41/41
f 42/42/42 43/43/43 44/44/44
f 47/47/47 46/46/46 45/45/45
f 46/46/46 47/47/47 48/48/48
f 51/51/51 50/50/50 49/49/49
f 50/50/50 51/51/51 52/52/52
f 55/55/55 54/54/54 53/53/53
f 54/54/54 55/55/55 56/56/56
f 59/59/59 58/58/58 57/57/57
f 58/58/58 59/59/59 60/60/60
f 63/63/63 62/62/62 61/61/61
f 62/62/62 63/63/63 64/64/64
g A003_BB02_1
f 67/67/67 66/66/66 65/65/65
f 70/70/70 69/69/69 68/68/68
f 73/73/73 72/72/72 71/71/71
f 76/76/76 75/75/75 74/74/74
f 79/79/79 78/78/78 77/77/77
f 82/82/82 81/81/81 80/80/80
f 85/85/85 84/84/84 83/83/83
f 88/88/88 87/87/87 86/86/86
f 91/91/91 90/90/90 89/89/89
f 90/90/90 91/91/91 92/92/92
f 95/95/95 94/94/94 93/93/93
f 94/94/94 95/95/95 96/96/96
f 99/99/99 98/98/98 97/97/97
f 98/98/98 99/99/99 100/100/100
f 103/103/103 102/102/102 101/101/101
f 102/102/102 103/103/103 104/104/104
f 107/107/107 106/106/106 105/105/105
f 106/106/106 107/107/107 108/108/108
f 111/111/111 110/110/110 109/109/109
f 110/110/110 111/111/111 112/112/112
f 115/115/115 114/114/114 113/113/113
f 114/114/114 115/115/115 116/116/116
f 119/119/119 118/118/118 117/117/117
f 118/118/118 119/119/119 120/120/120
f 123/123/123 122/122/122 121/121/121
f 122/122/122 123/123/123 124/124/124
f 127/127/127 126/126/126 125/125/125
f 126/126/126 127/127/127 128/128/128
g A003_BB02_2
f 131/131/131 130/130/130 129/129/129
f 130/130/130 131/131/131 132/132/132
g A003_BB02_3
f 135/135/135 134/134/134 133/133/133
f 134/134/134 135/135/135 136/136/136
