g MV_Rocks_S_001
v -0.31709716 0.09902103 -0.88334227
v -0.31593993 -0.99169433 -0.9461889
v 0.013693848 -0.9916247 -0.5921069
v -0.31709716 0.09902103 -0.88334227
v 0.013693848 -0.9916247 -0.5921069
v -0.117199704 0.19309817 -0.63309324
v 0.9986597 0.42827514 0.25076416
v 1.2585766 -1.007594 0.35088623
v 0.77212155 -1.0074805 0.7717749
v 0.6400708 0.513175 0.5143677
v 0.21461181 0.57469964 0.65758544
v 0.15345459 -1.0074133 0.9461889
v -0.36213621 -1.0074658 0.39236572
v -0.13462158 0.5121814 0.25082764
v -0.28593016 0.4108032 -0.25528076
v -0.5383472 -1.0075903 -0.34427002
v -0.051901855 -1.0077648 -0.76515377
v 0.07259522 0.32747072 -0.5200561
v 0.49812254 0.26438236 -0.66209716
v 0.56677 -1.0078931 -0.93956786
v 1.0823609 -1.0077808 -0.38574463
v 0.8466528 0.3289258 -0.25832275
v -0.28593016 0.4108032 -0.25528076
v -0.13462158 0.5121814 0.25082764
v -0.36213621 -1.0074658 0.39236572
v -0.5383472 -1.0075903 -0.34427002
v 0.9986597 0.42827514 0.25076416
v 0.8466528 0.3289258 -0.25832275
v 1.0823609 -1.0077808 -0.38574463
v 1.2585766 -1.007594 0.35088623
v 0.21461181 0.57469964 0.65758544
v 0.6400708 0.513175 0.5143677
v 0.77212155 -1.0074805 0.7717749
v 0.15345459 -1.0074133 0.9461889
v 0.49812254 0.26438236 -0.66209716
v 0.07259522 0.32747072 -0.5200561
v -0.051901855 -1.0077648 -0.76515377
v 0.56677 -1.0078931 -0.93956786
v -0.61948484 -0.12990846 0.5118921
v -0.55777586 -0.9818945 0.49001217
v -0.5981079 -0.98185056 0.7335327
v -0.6639575 -0.155553 0.71120846
v -0.765979 -0.19224125 0.8861743
v -0.7379126 -0.98182493 0.9367407
v -1.0259057 -0.98184323 0.8997485
v -1.002478 -0.23818973 0.840647
v -1.2008862 -0.26942873 0.70149654
v -1.2585766 -0.98189205 0.7255737
v -1.2182397 -0.981958 0.48205316
v -1.1568774 -0.24304323 0.50201416
v -1.0543921 -0.20709108 0.32720947
v -1.0784351 -0.9820068 0.27884522
v -0.7904419 -0.9819641 0.31583738
v -0.81914306 -0.16016969 0.37220946
v -1.2008862 -0.26942873 0.70149654
v -1.002478 -0.23818973 0.840647
v -1.0259057 -0.98184323 0.8997485
v -1.2585766 -0.98189205 0.7255737
v -0.61948484 -0.12990846 0.5118921
v -0.81914306 -0.16016969 0.37220946
v -0.7904419 -0.9819641 0.31583738
v -0.55777586 -0.9818945 0.49001217
v -0.765979 -0.19224125 0.8861743
v -0.6639575 -0.155553 0.71120846
v -0.5981079 -0.98185056 0.7335327
v -0.7379126 -0.98182493 0.9367407
v -1.0543921 -0.20709108 0.32720947
v -1.1568774 -0.24304323 0.50201416
v -1.2182397 -0.981958 0.48205316
v -1.0784351 -0.9820068 0.27884522
v -0.03463623 0.25441775 -0.31340575
v 0.12636474 -0.9915051 -0.12114989
v -0.184646 -0.9914331 0.14793213
v -0.25113037 0.20252196 -0.14113037
v -0.5049536 0.12892456 -0.044128407
v -0.5801831 -0.99139035 0.2594458
v -0.90981686 -0.9914221 -0.09463134
v -0.7058179 0.03603395 -0.29607177
v -0.78740966 -0.02647458 -0.61406493
v -1.022478 -0.99150264 -0.5655932
v -0.7114819 -0.99161375 -0.83468014
v -0.5713599 0.02638187 -0.78695554
v -0.78740966 -0.02647458 -0.61406493
v -0.7058179 0.03603395 -0.29607177
v -0.90981686 -0.9914221 -0.09463134
v -1.022478 -0.99150264 -0.5655932
v -0.03463623 0.25441775 -0.31340575
v -0.117199704 0.19309817 -0.63309324
v 0.013693848 -0.9916247 -0.5921069
v 0.12636474 -0.9915051 -0.12114989
v -0.5049536 0.12892456 -0.044128407
v -0.25113037 0.20252196 -0.14113037
v -0.184646 -0.9914331 0.14793213
v -0.5801831 -0.99139035 0.2594458
v -0.31709716 0.09902103 -0.88334227
v -0.5713599 0.02638187 -0.78695554
v -0.7114819 -0.99161375 -0.83468014
v -0.31593993 -0.99169433 -0.9461889
v 0.07259522 0.32747072 -0.5200561
v 0.49812254 0.26438236 -0.66209716
v 0.8466528 0.3289258 -0.25832275
v 0.35695067 0.437937 -0.008469219
v -0.28593016 0.4108032 -0.25528076
v 0.35695067 0.437937 -0.008469219
v 0.9986597 0.42827514 0.25076416
v -0.13462158 0.5121814 0.25082764
v 0.6400708 0.513175 0.5143677
v 0.21461181 0.57469964 0.65758544
v -0.31709716 0.09902103 -0.88334227
v -0.117199704 0.19309817 -0.63309324
v -0.41518798 0.12501466 -0.4662866
v -0.5713599 0.02638187 -0.78695554
v -0.03463623 0.25441775 -0.31340575
v -0.41518798 0.12501466 -0.4662866
v -0.78740966 -0.02647458 -0.61406493
v -0.25113037 0.20252196 -0.14113037
v -0.7058179 0.03603395 -0.29607177
v -0.5049536 0.12892456 -0.044128407
v -1.0543921 -0.20709108 0.32720947
v -0.81914306 -0.16016969 0.37220946
v -0.9128784 -0.19126466 0.60687745
v -1.1568774 -0.24304323 0.50201416
v -0.61948484 -0.12990846 0.5118921
v -0.9128784 -0.19126466 0.60687745
v -1.2008862 -0.26942873 0.70149654
v -0.6639575 -0.155553 0.71120846
v -1.002478 -0.23818973 0.840647
v -0.765979 -0.19224125 0.8861743
vt 0.91064453 0.7890625
vt 0.91064453 0.7104492
vt 0.85839844 0.7104492
vt 0.91064453 0.7890625
vt 0.85839844 0.7104492
vt 0.8569336 0.7890625
vt 0.96191406 0.16125488
vt 0.96191406 0.0184021
vt 0.8774414 0.0184021
vt 0.87890625 0.16125488
vt 0.79248047 0.16125488
vt 0.7944336 0.0184021
vt 0.6958008 0.0184021
vt 0.6933594 0.16125488
vt 0.5966797 0.16125488
vt 0.5966797 0.0184021
vt 0.5131836 0.0184021
vt 0.51123047 0.16125488
vt 0.42700195 0.16125488
vt 0.4296875 0.0184021
vt 0.32983398 0.0184021
vt 0.33032227 0.16125488
vt 0.5966797 0.16125488
vt 0.6933594 0.16125488
vt 0.6958008 0.0184021
vt 0.5966797 0.0184021
vt 0.23132324 0.16125488
vt 0.33032227 0.16125488
vt 0.32983398 0.0184021
vt 0.23132324 0.0184021
vt 0.79248047 0.16125488
vt 0.87890625 0.16125488
vt 0.8774414 0.0184021
vt 0.7944336 0.0184021
vt 0.42700195 0.16125488
vt 0.51123047 0.16125488
vt 0.5131836 0.0184021
vt 0.4296875 0.0184021
vt 0.8745117 0.62402344
vt 0.8745117 0.5683594
vt 0.83691406 0.5683594
vt 0.8359375 0.62402344
vt 0.79833984 0.62402344
vt 0.7988281 0.5683594
vt 0.75341797 0.5683594
vt 0.75390625 0.62402344
vt 0.7089844 0.62402344
vt 0.7080078 0.5683594
vt 0.67041016 0.5683594
vt 0.67089844 0.62402344
vt 0.6323242 0.62402344
vt 0.6333008 0.5683594
vt 0.5883789 0.5683594
vt 0.5878906 0.62402344
vt 0.7089844 0.62402344
vt 0.75390625 0.62402344
vt 0.75341797 0.5683594
vt 0.7080078 0.5683594
vt 0.54296875 0.62402344
vt 0.5878906 0.62402344
vt 0.5883789 0.5683594
vt 0.54296875 0.5683594
vt 0.79833984 0.62402344
vt 0.8359375 0.62402344
vt 0.83691406 0.5683594
vt 0.7988281 0.5683594
vt 0.6323242 0.62402344
vt 0.67089844 0.62402344
vt 0.67041016 0.5683594
vt 0.6333008 0.5683594
vt 0.80371094 0.7890625
vt 0.80322266 0.7104492
vt 0.75683594 0.7104492
vt 0.7573242 0.7890625
vt 0.7128906 0.7890625
vt 0.7133789 0.7104492
vt 0.6586914 0.7104492
vt 0.66015625 0.7890625
vt 0.6069336 0.7890625
vt 0.6069336 0.7104492
vt 0.5620117 0.7104492
vt 0.5620117 0.7890625
vt 0.6069336 0.7890625
vt 0.66015625 0.7890625
vt 0.6586914 0.7104492
vt 0.6069336 0.7104492
vt 0.80371094 0.7890625
vt 0.8569336 0.7890625
vt 0.85839844 0.7104492
vt 0.80322266 0.7104492
vt 0.7128906 0.7890625
vt 0.7573242 0.7890625
vt 0.75683594 0.7104492
vt 0.7133789 0.7104492
vt 0.91064453 0.7890625
vt 0.9584961 0.7890625
vt 0.9584961 0.7104492
vt 0.91064453 0.7104492
vt 1.1455078 1.6875
vt 1.1796875 1.7998047
vt 1.3183594 1.8085938
vt 1.2978516 1.6650391
vt 1.1474609 1.5703125
vt 1.2978516 1.6650391
vt 1.4492188 1.7597656
vt 1.2773438 1.5214844
vt 1.4511719 1.6425781
vt 1.4169922 1.5302734
vt 1.8818359 1.0820312
vt 1.8876953 0.99560547
vt 1.7988281 1.0087891
vt 1.8125 1.1035156
vt 1.8574219 0.9140625
vt 1.7988281 1.0087891
vt 1.7392578 1.1025391
vt 1.7841797 0.9135742
vt 1.7089844 1.0214844
vt 1.7148438 0.9350586
vt 2.1132812 1.2246094
vt 2.1367188 1.1650391
vt 2.0703125 1.1552734
vt 2.0605469 1.2246094
vt 2.1328125 1.1015625
vt 2.0703125 1.1552734
vt 2.0097656 1.2089844
vt 2.0800781 1.0859375
vt 2.0058594 1.1455078
vt 2.0273438 1.0859375
vn 0.7314453 0.040008545 -0.68066406
vn 0.7314453 0.040008545 -0.68066406
vn 0.7314453 0.040008545 -0.68066406
vn 0.7680664 0.062805176 -0.63720703
vn 0.7680664 0.062805176 -0.63720703
vn 0.7680664 0.062805176 -0.63720703
vn 0.6303711 0.17504883 0.75634766
vn 0.6303711 0.17504883 0.75634766
vn 0.6303711 0.17504883 0.75634766
vn 0.6303711 0.17504883 0.75634766
vn -0.73876953 0.1595459 0.65478516
vn -0.73876953 0.1595459 0.65478516
vn -0.73876953 0.1595459 0.65478516
vn -0.73876953 0.1595459 0.65478516
vn -0.609375 0.17712402 -0.7729492
vn -0.609375 0.17712402 -0.7729492
vn -0.609375 0.17712402 -0.7729492
vn -0.609375 0.17712402 -0.7729492
vn 0.72314453 0.1875 -0.66503906
vn 0.72314453 0.1875 -0.66503906
vn 0.72314453 0.1875 -0.66503906
vn 0.72314453 0.1875 -0.66503906
vn -0.95751953 0.16064453 0.23925781
vn -0.95751953 0.16064453 0.23925781
vn -0.95751953 0.16064453 0.23925781
vn -0.95751953 0.16064453 0.23925781
vn 0.94921875 0.17224121 -0.26391602
vn 0.94921875 0.17224121 -0.26391602
vn 0.94921875 0.17224121 -0.26391602
vn 0.94921875 0.17224121 -0.26391602
vn 0.29589844 0.17211914 0.9394531
vn 0.29589844 0.17211914 0.9394531
vn 0.29589844 0.17211914 0.9394531
vn 0.29589844 0.17211914 0.9394531
vn -0.27368164 0.19458008 -0.94189453
vn -0.27368164 0.19458008 -0.94189453
vn -0.27368164 0.19458008 -0.94189453
vn -0.27368164 0.19458008 -0.94189453
vn 0.9785156 0.074401855 0.19177246
vn 0.9785156 0.074401855 0.19177246
vn 0.9785156 0.074401855 0.19177246
vn 0.9785156 0.074401855 0.19177246
vn -0.16101074 0.06994629 0.984375
vn -0.16101074 0.06994629 0.984375
vn -0.16101074 0.06994629 0.984375
vn -0.16101074 0.06994629 0.984375
vn -0.97998047 0.07989502 -0.18188477
vn -0.97998047 0.07989502 -0.18188477
vn -0.97998047 0.07989502 -0.18188477
vn -0.97998047 0.07989502 -0.18188477
vn 0.14880371 0.06518555 -0.9868164
vn 0.14880371 0.06518555 -0.9868164
vn 0.14880371 0.06518555 -0.9868164
vn 0.14880371 0.06518555 -0.9868164
vn -0.58984375 0.07879639 0.80371094
vn -0.58984375 0.07879639 0.80371094
vn -0.58984375 0.07879639 0.80371094
vn -0.58984375 0.07879639 0.80371094
vn 0.5830078 0.06933594 -0.8095703
vn 0.5830078 0.06933594 -0.8095703
vn 0.5830078 0.06933594 -0.8095703
vn 0.5830078 0.06933594 -0.8095703
vn 0.83691406 0.07312012 0.54248047
vn 0.83691406 0.07312012 0.54248047
vn 0.83691406 0.07312012 0.54248047
vn 0.83691406 0.07312012 0.54248047
vn -0.84277344 0.07159424 -0.5332031
vn -0.84277344 0.07159424 -0.5332031
vn -0.84277344 0.07159424 -0.5332031
vn -0.84277344 0.07159424 -0.5332031
vn 0.61572266 0.20739746 0.7602539
vn 0.61572266 0.20739746 0.7602539
vn 0.61572266 0.20739746 0.7602539
vn 0.61572266 0.20739746 0.7602539
vn -0.7480469 0.24255371 0.6176758
vn -0.7480469 0.24255371 0.6176758
vn -0.7480469 0.24255371 0.6176758
vn -0.7480469 0.24255371 0.6176758
vn -0.64501953 0.1217041 -0.75439453
vn -0.64501953 0.1217041 -0.75439453
vn -0.64501953 0.1217041 -0.75439453
vn -0.64501953 0.1217041 -0.75439453
vn -0.9477539 0.23583984 0.21459961
vn -0.9477539 0.23583984 0.21459961
vn -0.9477539 0.23583984 0.21459961
vn -0.9477539 0.23583984 0.21459961
vn 0.96484375 0.09234619 -0.2454834
vn 0.96484375 0.09234619 -0.2454834
vn 0.96484375 0.09234619 -0.2454834
vn 0.96484375 0.09234619 -0.2454834
vn 0.27246094 0.2376709 0.9321289
vn 0.27246094 0.2376709 0.9321289
vn 0.27246094 0.2376709 0.9321289
vn 0.27246094 0.2376709 0.9321289
vn -0.31103516 0.07019043 -0.9477539
vn -0.31103516 0.07019043 -0.9477539
vn -0.31103516 0.07019043 -0.9477539
vn -0.31103516 0.07019043 -0.9477539
vn 0.07928467 0.96777344 -0.2397461
vn 0.07928467 0.96777344 -0.2397461
vn 0.07928467 0.96777344 -0.2397461
vn 0.07928467 0.96777344 -0.2397461
vn 0.043945312 0.9741211 -0.22155762
vn 0.062683105 0.97998047 -0.18786621
vn 0.09790039 0.9736328 -0.20605469
vn 0.062683105 0.97998047 -0.18786621
vn 0.062683105 0.97998047 -0.18786621
vn 0.062683105 0.97998047 -0.18786621
vn -0.2878418 0.94921875 -0.12683105
vn -0.2878418 0.94921875 -0.12683105
vn -0.2878418 0.94921875 -0.12683105
vn -0.33032227 0.9355469 -0.12683105
vn -0.2919922 0.953125 -0.079833984
vn -0.33422852 0.93896484 -0.07977295
vn -0.33032227 0.9355469 -0.12683105
vn -0.2919922 0.953125 -0.079833984
vn -0.33422852 0.93896484 -0.07977295
vn -0.33422852 0.93896484 -0.07977295
vn -0.20422363 0.97753906 0.04800415
vn -0.20422363 0.97753906 0.04800415
vn -0.20422363 0.97753906 0.04800415
vn -0.23791504 0.9682617 0.07556152
vn -0.17700195 0.98046875 0.08666992
vn -0.21057129 0.9707031 0.11413574
vn -0.23791504 0.9682617 0.07556152
vn -0.17700195 0.98046875 0.08666992
vn -0.21057129 0.9707031 0.11413574
vn -0.21057129 0.9707031 0.11413574
g MV_Rocks_S_001_0
f 3/3/3 2/2/2 1/1/1
f 6/6/6 5/5/5 4/4/4
f 9/9/9 8/8/8 7/7/7
f 10/10/10 9/9/9 7/7/7
f 13/13/13 12/12/12 11/11/11
f 14/14/14 13/13/13 11/11/11
f 17/17/17 16/16/16 15/15/15
f 18/18/18 17/17/17 15/15/15
f 21/21/21 20/20/20 19/19/19
f 22/22/22 21/21/21 19/19/19
f 25/25/25 24/24/24 23/23/23
f 26/26/26 25/25/25 23/23/23
f 29/29/29 28/28/28 27/27/27
f 30/30/30 29/29/29 27/27/27
f 33/33/33 32/32/32 31/31/31
f 34/34/34 33/33/33 31/31/31
f 37/37/37 36/36/36 35/35/35
f 38/38/38 37/37/37 35/35/35
f 41/41/41 40/40/40 39/39/39
f 42/42/42 41/41/41 39/39/39
f 45/45/45 44/44/44 43/43/43
f 46/46/46 45/45/45 43/43/43
f 49/49/49 48/48/48 47/47/47
f 50/50/50 49/49/49 47/47/47
f 53/53/53 52/52/52 51/51/51
f 54/54/54 53/53/53 51/51/51
f 57/57/57 56/56/56 55/55/55
f 58/58/58 57/57/57 55/55/55
f 61/61/61 60/60/60 59/59/59
f 62/62/62 61/61/61 59/59/59
f 65/65/65 64/64/64 63/63/63
f 66/66/66 65/65/65 63/63/63
f 69/69/69 68/68/68 67/67/67
f 70/70/70 69/69/69 67/67/67
f 73/73/73 72/72/72 71/71/71
f 74/74/74 73/73/73 71/71/71
f 77/77/77 76/76/76 75/75/75
f 78/78/78 77/77/77 75/75/75
f 81/81/81 80/80/80 79/79/79
f 82/82/82 81/81/81 79/79/79
f 85/85/85 84/84/84 83/83/83
f 86/86/86 85/85/85 83/83/83
f 89/89/89 88/88/88 87/87/87
f 90/90/90 89/89/89 87/87/87
f 93/93/93 92/92/92 91/91/91
f 94/94/94 93/93/93 91/91/91
f 97/97/97 96/96/96 95/95/95
f 98/98/98 97/97/97 95/95/95
g MV_Rocks_S_001_1
f 101/101/101 100/100/100 99/99/99
f 102/102/102 101/101/101 99/99/99
f 104/104/104 99/99/99 103/103/103
f 101/101/101 104/104/104 105/105/105
f 106/106/106 104/104/104 103/103/103
f 104/104/104 107/107/107 105/105/105
f 104/104/104 106/106/106 108/108/108
f 107/107/107 104/104/104 108/108/108
f 111/111/111 110/110/110 109/109/109
f 112/112/112 111/111/111 109/109/109
f 110/110/110 111/111/111 113/113/113
f 115/115/115 114/114/114 112/112/112
f 113/113/113 114/114/114 116/116/116
f 117/117/117 114/114/114 115/115/115
f 116/116/116 114/114/114 118/118/118
f 118/118/118 114/114/114 117/117/117
f 121/121/121 120/120/120 119/119/119
f 122/122/122 121/121/121 119/119/119
f 120/120/120 121/121/121 123/123/123
f 125/125/125 124/124/124 122/122/122
f 123/123/123 124/124/124 126/126/126
f 127/127/127 124/124/124 125/125/125
f 126/126/126 124/124/124 128/128/128
f 128/128/128 124/124/124 127/127/127
