g Rocks_Small_009
v 0.8609094 1.3453833 -0.9999999
v 0.9019311 1.2375368 -0.99999976
v 0.902229 1.3450756 -0.9999999
v -0.16737716 1.4057876 -0.9999999
v 0.90608704 0.7191817 -0.9999999
v 0.96431637 1.237679 -0.9999999
v 0.9694531 0.720076 -0.9999999
v -0.12088882 1.4559072 -0.9999999
v -0.16699722 1.4558129 -0.9999999
v 0.8049707 1.4566253 -0.9999999
v 0.86037934 1.4566253 -0.9999999
v -0.12087463 1.4946481 -0.9999999
v 0.8049472 1.493955 -0.9999999
v -0.7744239 1.3449861 -0.9999999
v -0.7762305 1.4070835 -0.9999999
v -0.82188976 1.2866997 -0.9999999
v -0.82137203 1.3455007 -0.99999976
v -0.8822499 1.2288333 -0.9999999
v -0.882631 1.285782 -0.9999999
v -0.9393883 0.77859235 -0.9999999
v -0.93885624 1.2292538 -0.9999999
v 0.8494763 0.6769564 -0.9999999
v 0.90651333 0.67778 -0.9999999
v -0.939368 0.5044257 -0.9999999
v -1.0009794 0.50498766 -0.9999999
v -1.0003598 0.77904487 -0.9999999
v -0.874502 0.44318852 -0.9999999
v -0.9393006 0.4450147 -0.9999999
v 0.8540448 0.22303201 -0.9999999
v -0.874502 0.16000374 -0.99999976
v 0.9100525 0.15964676 -0.99999976
v 0.90936524 0.22401887 -0.9999999
v -0.9325782 0.10190431 -0.99999976
v -0.92895514 0.16043839 -0.9999999
v 0.9095514 -0.21215816 -0.9999999
v 0.97065943 0.1599293 -0.9999999
v 0.9715338 -0.21211617 -0.9999999
v 0.90193754 -0.3432638 -0.9999999
v -0.9322755 -0.7275429 -0.9999999
v 0.95100373 -0.400957 -0.9999999
v 0.9510034 -0.34428492 -0.9999999
v -1.001891 0.101898335 -0.9999999
v -1.0037595 -0.72645104 -0.9999999
v -0.87320316 -0.8553857 -0.99999976
v -0.9322657 -0.8553857 -0.9999999
v -0.82185555 -1.1865673 -0.9999999
v -0.88091797 -1.1865673 -0.99999976
v 0.70315427 -1.2426003 -0.9999999
v -0.76097804 -1.2456055 -0.9999999
v -0.8192872 -1.2430518 -0.9999999
v -0.39569336 -1.3055884 -0.9999999
v -0.76210654 -1.3062878 -0.9999999
v 0.86231446 -1.1824039 -1
v 0.86231446 -1.2434943 -1
v 0.9544317 -1.1206826 -1
v 0.9550409 -1.1830453 -1
v 1.0037646 -0.40276927 -0.9999999
v 1.0033493 -1.1215348 -1
v 0.64450026 -1.3534521 -0.9999999
v 0.7005859 -1.350874 -1
v -0.3336949 -1.347475 -0.9999999
v -0.39569336 -1.3465581 -0.9999999
v 0.58761394 -1.4209902 -0.99999976
v 0.6437013 -1.4193918 -0.9999999
v -0.27759764 -1.4124854 -0.9999999
v -0.33442992 -1.4099219 -0.9999999
v 0.5876193 -1.4931175 -0.9999999
v -0.27759552 -1.4946496 -0.9999999
v 0.9019311 1.2375368 1
v 0.8609094 1.3453833 1
v 0.902229 1.3450756 1
v -0.16737701 1.4057876 1
v 0.90608704 0.7191817 1
v 0.96431637 1.237679 1
v 0.9694531 0.720076 1
v -0.12088867 1.4559072 1
v -0.16699706 1.4558129 1
v 0.8049707 1.4566253 1
v 0.86037934 1.4566253 1
v -0.12087463 1.4946481 1
v 0.8049472 1.493955 1
v -0.77442384 1.3449861 1
v -0.77623045 1.4070835 1
v -0.8218897 1.2866997 1
v -0.821372 1.3455007 1
v -0.88224983 1.2288333 1
v -0.8826309 1.285782 1
v -0.93938816 0.77859235 1
v -0.9388562 1.2292538 1
v 0.8494763 0.6769564 1
v 0.90651333 0.6777799 1
v -0.93936795 0.5044257 1
v -1.0009793 0.5049876 1
v -1.0003597 0.77904487 1
v -0.87450194 0.44318846 1
v -0.93930054 0.44501463 1
v 0.8540448 0.22303197 1
v -0.87450194 0.16000369 1
v 0.9100525 0.15964673 1
v 0.90936524 0.22401884 1
v -0.9325781 0.10190429 1
v -0.9289551 0.16043836 1
v 0.9095514 -0.2121582 1
v 0.97065943 0.15992928 1
v 0.9715338 -0.2121162 1
v 0.90193754 -0.34326383 1
v -0.93227535 -0.7275429 1
v 0.95100373 -0.40095702 1
v 0.9510034 -0.34428495 1
v -1.0018909 0.101898305 1
v -1.0037594 -0.72645104 1
v -0.8732031 -0.8553857 1
v -0.9322656 -0.8553857 1
v -0.8218554 -1.1865673 1
v -0.88091785 -1.1865673 1
v 0.70315427 -1.2426003 1
v -0.760978 -1.2456055 1
v -0.81928706 -1.2430518 1
v -0.39569336 -1.3055884 1
v -0.7621065 -1.3062878 1
v 0.86231446 -1.1824039 1
v 0.86231446 -1.2434943 1
v 0.9544317 -1.1206826 1
v 0.9550409 -1.1830453 1
v 1.0037646 -0.4027693 1
v 1.0033493 -1.1215348 1
v 0.64450026 -1.3534521 1
v 0.7005859 -1.350874 1
v -0.3336949 -1.347475 1
v -0.39569336 -1.3465581 1
v 0.58761394 -1.4209902 1
v 0.6437013 -1.4193918 1
v -0.27759764 -1.4124854 1
v -0.33442992 -1.4099219 1
v 0.5876193 -1.4931175 1
v -0.27759552 -1.4946496 1
v 0.902229 1.3450756 -0.9999999
v 0.902229 1.3450756 1
v 0.8609094 1.3453833 1
v 0.8609094 1.3453833 -0.9999999
v 0.9019311 1.2375368 -0.99999976
v 0.9019311 1.2375368 1
v 0.902229 1.3450756 1
v 0.902229 1.3450756 -0.9999999
v 0.86037934 1.4566253 -0.9999999
v 0.86037934 1.4566253 1
v 0.8049707 1.4566253 1
v 0.8049707 1.4566253 -0.9999999
v 0.8609094 1.3453833 -0.9999999
v 0.8609094 1.3453833 1
v 0.86037934 1.4566253 1
v 0.86037934 1.4566253 -0.9999999
v -1.0009794 0.50498766 -0.9999999
v -1.0009793 0.5049876 1
v -0.93936795 0.5044257 1
v -0.939368 0.5044257 -0.9999999
v -0.93885624 1.2292538 -0.9999999
v -0.9388562 1.2292538 1
v -0.93938816 0.77859235 1
v -0.9393883 0.77859235 -0.9999999
v -0.8822499 1.2288333 -0.9999999
v -0.88224983 1.2288333 1
v -0.9388562 1.2292538 1
v -0.93885624 1.2292538 -0.9999999
v -0.882631 1.285782 -0.9999999
v -0.8826309 1.285782 1
v -0.88224983 1.2288333 1
v -0.8822499 1.2288333 -0.9999999
v -0.82188976 1.2866997 -0.9999999
v -0.8218897 1.2866997 1
v -0.8826309 1.285782 1
v -0.882631 1.285782 -0.9999999
v -0.82137203 1.3455007 -0.99999976
v -0.821372 1.3455007 1
v -0.8218897 1.2866997 1
v -0.82188976 1.2866997 -0.9999999
v -0.7744239 1.3449861 -0.9999999
v -0.77442384 1.3449861 1
v -0.821372 1.3455007 1
v -0.82137203 1.3455007 -0.99999976
v -0.7762305 1.4070835 -0.9999999
v -0.77623045 1.4070835 1
v -0.77442384 1.3449861 1
v -0.7744239 1.3449861 -0.9999999
v -0.16737716 1.4057876 -0.9999999
v -0.16737701 1.4057876 1
v -0.77623045 1.4070835 1
v -0.7762305 1.4070835 -0.9999999
v -0.16699722 1.4558129 -0.9999999
v -0.16699706 1.4558129 1
v -0.16737701 1.4057876 1
v -0.16737716 1.4057876 -0.9999999
v -0.12088882 1.4559072 -0.9999999
v -0.12088867 1.4559072 1
v -0.16699706 1.4558129 1
v -0.16699722 1.4558129 -0.9999999
v -0.12087463 1.4946481 -0.9999999
v -0.12087463 1.4946481 1
v -0.12088867 1.4559072 1
v -0.12088882 1.4559072 -0.9999999
v 0.8049472 1.493955 -0.9999999
v 0.8049472 1.493955 1
v -0.12087463 1.4946481 1
v -0.12087463 1.4946481 -0.9999999
v 0.8049707 1.4566253 -0.9999999
v 0.8049707 1.4566253 1
v 0.8049472 1.493955 1
v 0.8049472 1.493955 -0.9999999
v 0.90651333 0.67778 -0.9999999
v 0.90651333 0.6777799 1
v 0.90608704 0.7191817 1
v 0.90608704 0.7191817 -0.9999999
v 0.8494763 0.6769564 -0.9999999
v 0.8494763 0.6769564 1
v 0.90651333 0.6777799 1
v 0.90651333 0.67778 -0.9999999
v 0.96431637 1.237679 -0.9999999
v 0.96431637 1.237679 1
v 0.9019311 1.2375368 1
v 0.9019311 1.2375368 -0.99999976
v 0.90936524 0.22401887 -0.9999999
v 0.90936524 0.22401884 1
v 0.8540448 0.22303197 1
v 0.8540448 0.22303201 -0.9999999
v 0.9100525 0.15964676 -0.99999976
v 0.9100525 0.15964673 1
v 0.90936524 0.22401884 1
v 0.90936524 0.22401887 -0.9999999
v 0.9694531 0.720076 -0.9999999
v 0.9694531 0.720076 1
v 0.96431637 1.237679 1
v 0.96431637 1.237679 -0.9999999
v 0.90608704 0.7191817 -0.9999999
v 0.90608704 0.7191817 1
v 0.9694531 0.720076 1
v 0.9694531 0.720076 -0.9999999
v -0.874502 0.16000374 -0.99999976
v -0.87450194 0.16000369 1
v -0.9289551 0.16043836 1
v -0.92895514 0.16043839 -0.9999999
v -0.92895514 0.16043839 -0.9999999
v -0.9289551 0.16043836 1
v -0.9325781 0.10190429 1
v -0.9325782 0.10190431 -0.99999976
v -0.9393006 0.4450147 -0.9999999
v -0.93930054 0.44501463 1
v -0.87450194 0.44318846 1
v -0.874502 0.44318852 -0.9999999
v -0.939368 0.5044257 -0.9999999
v -0.93936795 0.5044257 1
v -0.93930054 0.44501463 1
v -0.9393006 0.4450147 -0.9999999
v 0.8540448 0.22303201 -0.9999999
v 0.8540448 0.22303197 1
v 0.8494763 0.6769564 1
v 0.8494763 0.6769564 -0.9999999
v -0.874502 0.44318852 -0.9999999
v -0.87450194 0.44318846 1
v -0.87450194 0.16000369 1
v -0.874502 0.16000374 -0.99999976
v 0.9715338 -0.21211617 -0.9999999
v 0.9715338 -0.2121162 1
v 0.97065943 0.15992928 1
v 0.97065943 0.1599293 -0.9999999
v 0.9095514 -0.21215816 -0.9999999
v 0.9095514 -0.2121582 1
v 0.9715338 -0.2121162 1
v 0.9715338 -0.21211617 -0.9999999
v 0.97065943 0.1599293 -0.9999999
v 0.97065943 0.15992928 1
v 0.9100525 0.15964673 1
v 0.9100525 0.15964676 -0.99999976
v 0.9510034 -0.34428492 -0.9999999
v 0.9510034 -0.34428495 1
v 0.90193754 -0.34326383 1
v 0.90193754 -0.3432638 -0.9999999
v 0.95100373 -0.400957 -0.9999999
v 0.95100373 -0.40095702 1
v 0.9510034 -0.34428495 1
v 0.9510034 -0.34428492 -0.9999999
v -0.9325782 0.10190431 -0.99999976
v -0.9325781 0.10190429 1
v -1.0018909 0.101898305 1
v -1.001891 0.101898335 -0.9999999
v -0.87320316 -0.8553857 -0.99999976
v -0.8732031 -0.8553857 1
v -0.88091785 -1.1865673 1
v -0.88091797 -1.1865673 -0.99999976
v -0.88091797 -1.1865673 -0.99999976
v -0.88091785 -1.1865673 1
v -0.8218554 -1.1865673 1
v -0.82185555 -1.1865673 -0.9999999
v -0.9322657 -0.8553857 -0.9999999
v -0.9322656 -0.8553857 1
v -0.8732031 -0.8553857 1
v -0.87320316 -0.8553857 -0.99999976
v -0.9322755 -0.7275429 -0.9999999
v -0.93227535 -0.7275429 1
v -0.9322656 -0.8553857 1
v -0.9322657 -0.8553857 -0.9999999
v -1.0037595 -0.72645104 -0.9999999
v -1.0037594 -0.72645104 1
v -0.93227535 -0.7275429 1
v -0.9322755 -0.7275429 -0.9999999
v -1.001891 0.101898335 -0.9999999
v -1.0018909 0.101898305 1
v -1.0037594 -0.72645104 1
v -1.0037595 -0.72645104 -0.9999999
v -0.8192872 -1.2430518 -0.9999999
v -0.81928706 -1.2430518 1
v -0.760978 -1.2456055 1
v -0.76097804 -1.2456055 -0.9999999
v -0.82185555 -1.1865673 -0.9999999
v -0.8218554 -1.1865673 1
v -0.81928706 -1.2430518 1
v -0.8192872 -1.2430518 -0.9999999
v -0.33442992 -1.4099219 -0.9999999
v -0.33442992 -1.4099219 1
v -0.27759764 -1.4124854 1
v -0.27759764 -1.4124854 -0.9999999
v -0.3336949 -1.347475 -0.9999999
v -0.3336949 -1.347475 1
v -0.33442992 -1.4099219 1
v -0.33442992 -1.4099219 -0.9999999
v 0.5876193 -1.4931175 -0.9999999
v 0.5876193 -1.4931175 1
v 0.58761394 -1.4209902 1
v 0.58761394 -1.4209902 -0.99999976
v 0.64450026 -1.3534521 -0.9999999
v 0.64450026 -1.3534521 1
v 0.7005859 -1.350874 1
v 0.7005859 -1.350874 -1
v 0.7005859 -1.350874 -1
v 0.7005859 -1.350874 1
v 0.70315427 -1.2426003 1
v 0.70315427 -1.2426003 -0.9999999
v 0.70315427 -1.2426003 -0.9999999
v 0.70315427 -1.2426003 1
v 0.86231446 -1.2434943 1
v 0.86231446 -1.2434943 -1
v 0.86231446 -1.2434943 -1
v 0.86231446 -1.2434943 1
v 0.86231446 -1.1824039 1
v 0.86231446 -1.1824039 -1
v 1.0033493 -1.1215348 -1
v 1.0033493 -1.1215348 1
v 1.0037646 -0.4027693 1
v 1.0037646 -0.40276927 -0.9999999
v 0.9544317 -1.1206826 -1
v 0.9544317 -1.1206826 1
v 1.0033493 -1.1215348 1
v 1.0033493 -1.1215348 -1
v 0.9550409 -1.1830453 -1
v 0.9550409 -1.1830453 1
v 0.9544317 -1.1206826 1
v 0.9544317 -1.1206826 -1
v 0.86231446 -1.1824039 -1
v 0.86231446 -1.1824039 1
v 0.9550409 -1.1830453 1
v 0.9550409 -1.1830453 -1
v -0.39569336 -1.3465581 -0.9999999
v -0.39569336 -1.3465581 1
v -0.3336949 -1.347475 1
v -0.3336949 -1.347475 -0.9999999
v -0.39569336 -1.3055884 -0.9999999
v -0.39569336 -1.3055884 1
v -0.39569336 -1.3465581 1
v -0.39569336 -1.3465581 -0.9999999
v -0.76210654 -1.3062878 -0.9999999
v -0.7621065 -1.3062878 1
v -0.39569336 -1.3055884 1
v -0.39569336 -1.3055884 -0.9999999
v -0.76097804 -1.2456055 -0.9999999
v -0.760978 -1.2456055 1
v -0.7621065 -1.3062878 1
v -0.76210654 -1.3062878 -0.9999999
v 0.6437013 -1.4193918 -0.9999999
v 0.6437013 -1.4193918 1
v 0.64450026 -1.3534521 1
v 0.64450026 -1.3534521 -0.9999999
v 0.58761394 -1.4209902 -0.99999976
v 0.58761394 -1.4209902 1
v 0.6437013 -1.4193918 1
v 0.6437013 -1.4193918 -0.9999999
v 0.90193754 -0.3432638 -0.9999999
v 0.90193754 -0.34326383 1
v 0.9095514 -0.2121582 1
v 0.9095514 -0.21215816 -0.9999999
v -1.0003598 0.77904487 -0.9999999
v -1.0003597 0.77904487 1
v -1.0009793 0.5049876 1
v -1.0009794 0.50498766 -0.9999999
v -0.9393883 0.77859235 -0.9999999
v -0.93938816 0.77859235 1
v -1.0003597 0.77904487 1
v -1.0003598 0.77904487 -0.9999999
v -0.27759552 -1.4946496 -0.9999999
v -0.27759552 -1.4946496 1
v 0.5876193 -1.4931175 1
v 0.5876193 -1.4931175 -0.9999999
v -0.27759764 -1.4124854 -0.9999999
v -0.27759764 -1.4124854 1
v -0.27759552 -1.4946496 1
v -0.27759552 -1.4946496 -0.9999999
v 1.0037646 -0.40276927 -0.9999999
v 1.0037646 -0.4027693 1
v 0.95100373 -0.40095702 1
v 0.95100373 -0.400957 -0.9999999
vt 0.36645508 0.6845703
vt 0.3605957 0.6694336
vt 0.3605957 0.6845703
vt 0.51416016 0.6928711
vt 0.35986328 0.59765625
vt 0.3515625 0.6694336
vt 0.35083008 0.59765625
vt 0.5073242 0.69970703
vt 0.51416016 0.69970703
vt 0.37451172 0.7001953
vt 0.36645508 0.7001953
vt 0.5073242 0.7050781
vt 0.37451172 0.7050781
vt 0.6010742 0.6845703
vt 0.6015625 0.6933594
vt 0.60791016 0.67626953
vt 0.60791016 0.6845703
vt 0.6166992 0.66845703
vt 0.6166992 0.67626953
vt 0.625 0.60595703
vt 0.625 0.66845703
vt 0.36816406 0.5917969
vt 0.35986328 0.5917969
vt 0.625 0.5678711
vt 0.63623047 0.5678711
vt 0.63623047 0.60595703
vt 0.61572266 0.5595703
vt 0.625 0.5595703
vt 0.36743164 0.52783203
vt 0.61572266 0.51953125
vt 0.359375 0.51904297
vt 0.359375 0.5283203
vt 0.62353516 0.51220703
vt 0.62353516 0.51953125
vt 0.35986328 0.46679688
vt 0.35058594 0.51904297
vt 0.35058594 0.46679688
vt 0.35986328 0.44848633
vt 0.62402344 0.39526367
vt 0.35351562 0.44067383
vt 0.35351562 0.44848633
vt 0.63671875 0.51220703
vt 0.63671875 0.3955078
vt 0.61572266 0.37768555
vt 0.62402344 0.37768555
vt 0.60791016 0.3334961
vt 0.61572266 0.3334961
vt 0.38916016 0.32495117
vt 0.5991211 0.3251953
vt 0.6074219 0.3256836
vt 0.546875 0.31689453
vt 0.5996094 0.31689453
vt 0.36621094 0.3330078
vt 0.36621094 0.32470703
vt 0.35302734 0.34106445
vt 0.3527832 0.3330078
vt 0.3466797 0.4404297
vt 0.3466797 0.3408203
vt 0.39746094 0.30908203
vt 0.3894043 0.30932617
vt 0.53808594 0.31103516
vt 0.546875 0.3112793
vt 0.40576172 0.3010254
vt 0.39770508 0.30126953
vt 0.52978516 0.30200195
vt 0.53808594 0.30249023
vt 0.40576172 0.29101562
vt 0.52978516 0.29077148
vt 0.3605957 0.6694336
vt 0.36645508 0.6845703
vt 0.3605957 0.6845703
vt 0.51416016 0.6928711
vt 0.35986328 0.59765625
vt 0.3515625 0.6694336
vt 0.35083008 0.59765625
vt 0.5073242 0.69970703
vt 0.51416016 0.69970703
vt 0.37451172 0.7001953
vt 0.36645508 0.7001953
vt 0.5073242 0.7050781
vt 0.37451172 0.7050781
vt 0.6010742 0.6845703
vt 0.6015625 0.6933594
vt 0.60791016 0.67626953
vt 0.60791016 0.6845703
vt 0.6166992 0.66845703
vt 0.6166992 0.67626953
vt 0.625 0.60595703
vt 0.625 0.66845703
vt 0.36816406 0.5917969
vt 0.35986328 0.5917969
vt 0.625 0.5678711
vt 0.63623047 0.5678711
vt 0.63623047 0.60595703
vt 0.61572266 0.5595703
vt 0.625 0.5595703
vt 0.36743164 0.52783203
vt 0.61572266 0.51953125
vt 0.359375 0.51904297
vt 0.359375 0.5283203
vt 0.62353516 0.51220703
vt 0.62353516 0.51953125
vt 0.35986328 0.46679688
vt 0.35058594 0.51904297
vt 0.35058594 0.46679688
vt 0.35986328 0.44848633
vt 0.62402344 0.39526367
vt 0.35351562 0.44067383
vt 0.35351562 0.44848633
vt 0.63671875 0.51220703
vt 0.63671875 0.3955078
vt 0.61572266 0.37768555
vt 0.62402344 0.37768555
vt 0.60791016 0.3334961
vt 0.61572266 0.3334961
vt 0.38916016 0.32495117
vt 0.5991211 0.3251953
vt 0.6074219 0.3256836
vt 0.546875 0.31689453
vt 0.5996094 0.31689453
vt 0.36621094 0.3330078
vt 0.36621094 0.32470703
vt 0.35302734 0.34106445
vt 0.3527832 0.3330078
vt 0.3466797 0.4404297
vt 0.3466797 0.3408203
vt 0.39746094 0.30908203
vt 0.3894043 0.30932617
vt 0.53808594 0.31103516
vt 0.546875 0.3112793
vt 0.40576172 0.3010254
vt 0.39770508 0.30126953
vt 0.52978516 0.30200195
vt 0.53808594 0.30249023
vt 0.40576172 0.29101562
vt 0.52978516 0.29077148
vt 0.3046875 0.65771484
vt 0.02671814 0.65771484
vt 0.02671814 0.6635742
vt 0.3046875 0.6635742
vt 0.3046875 0.6425781
vt 0.02671814 0.6425781
vt 0.02671814 0.65771484
vt 0.3046875 0.65771484
vt 0.3046875 0.67871094
vt 0.02671814 0.67871094
vt 0.02671814 0.68652344
vt 0.3046875 0.68652344
vt 0.3046875 0.6635742
vt 0.02671814 0.6635742
vt 0.02671814 0.67871094
vt 0.3046875 0.67871094
vt 0.6801758 0.62646484
vt 0.9584961 0.62646484
vt 0.9584961 0.61816406
vt 0.6801758 0.61816406
vt 0.6801758 0.73583984
vt 0.9584961 0.73583984
vt 0.9584961 0.67333984
vt 0.6801758 0.67333984
vt 0.3046875 0.97509766
vt 0.02671814 0.97509766
vt 0.02671814 0.98291016
vt 0.3046875 0.98291016
vt 0.3046875 0.96728516
vt 0.02671814 0.96728516
vt 0.02671814 0.97509766
vt 0.3046875 0.97509766
vt 0.3046875 0.9584961
vt 0.02671814 0.9584961
vt 0.02671814 0.96728516
vt 0.3046875 0.96728516
vt 0.3046875 0.9506836
vt 0.02671814 0.9506836
vt 0.02671814 0.9584961
vt 0.3046875 0.9584961
vt 0.3046875 0.94384766
vt 0.02671814 0.94384766
vt 0.02671814 0.9506836
vt 0.3046875 0.9506836
vt 0.3046875 0.9355469
vt 0.02671814 0.9355469
vt 0.02671814 0.94384766
vt 0.3046875 0.94384766
vt 0.3046875 0.85058594
vt 0.02671814 0.85058594
vt 0.02671814 0.9355469
vt 0.3046875 0.9355469
vt 0.3046875 0.84375
vt 0.02671814 0.84375
vt 0.02671814 0.85058594
vt 0.3046875 0.85058594
vt 0.3046875 0.83740234
vt 0.02671814 0.83740234
vt 0.02671814 0.84375
vt 0.3046875 0.84375
vt 0.3046875 0.83203125
vt 0.02671814 0.83203125
vt 0.02671814 0.83740234
vt 0.3046875 0.83740234
vt 0.3046875 0.703125
vt 0.02671814 0.703125
vt 0.02671814 0.83203125
vt 0.3046875 0.83203125
vt 0.3046875 0.68652344
vt 0.02671814 0.68652344
vt 0.02671814 0.69189453
vt 0.3046875 0.69189453
vt 0.3046875 0.5473633
vt 0.02671814 0.5473633
vt 0.02671814 0.55322266
vt 0.3046875 0.55322266
vt 0.3046875 0.5395508
vt 0.02671814 0.5395508
vt 0.02671814 0.5473633
vt 0.3046875 0.5473633
vt 0.3046875 0.63427734
vt 0.02671814 0.63427734
vt 0.02671814 0.6425781
vt 0.3046875 0.6425781
vt 0.3046875 0.46899414
vt 0.02671814 0.46899414
vt 0.02671814 0.4765625
vt 0.3046875 0.4765625
vt 0.3046875 0.45996094
vt 0.02671814 0.45996094
vt 0.02671814 0.46899414
vt 0.3046875 0.46899414
vt 0.3046875 0.5620117
vt 0.02671814 0.5620117
vt 0.02671814 0.63427734
vt 0.3046875 0.63427734
vt 0.3046875 0.55322266
vt 0.02671814 0.55322266
vt 0.02671814 0.5620117
vt 0.3046875 0.5620117
vt 0.6801758 0.56152344
vt 0.9584961 0.56152344
vt 0.95703125 0.55371094
vt 0.6801758 0.55371094
vt 0.6801758 0.55371094
vt 0.95703125 0.55371094
vt 0.95703125 0.54589844
vt 0.6801758 0.54589844
vt 0.6801758 0.6098633
vt 0.9584961 0.6098633
vt 0.9584961 0.60058594
vt 0.6801758 0.60058594
vt 0.6801758 0.61816406
vt 0.9584961 0.61816406
vt 0.9584961 0.6098633
vt 0.6801758 0.6098633
vt 0.3046875 0.4765625
vt 0.02671814 0.4765625
vt 0.02671814 0.5395508
vt 0.3046875 0.5395508
vt 0.6801758 0.60058594
vt 0.9584961 0.60058594
vt 0.9584961 0.56152344
vt 0.6801758 0.56152344
vt 0.3046875 0.39990234
vt 0.02671814 0.39990234
vt 0.02671814 0.45166016
vt 0.3046875 0.45166016
vt 0.3046875 0.39135742
vt 0.02671814 0.39135742
vt 0.02671814 0.39990234
vt 0.3046875 0.39990234
vt 0.3046875 0.45166016
vt 0.02671814 0.45166016
vt 0.02671814 0.45996094
vt 0.3046875 0.45996094
vt 0.3046875 0.36621094
vt 0.02671814 0.36621094
vt 0.02671814 0.37304688
vt 0.3046875 0.37304688
vt 0.3046875 0.35839844
vt 0.02671814 0.35839844
vt 0.02671814 0.36621094
vt 0.3046875 0.36621094
vt 0.6801758 0.54589844
vt 0.95703125 0.54589844
vt 0.95703125 0.5361328
vt 0.6801758 0.5361328
vt 0.6801758 0.38500977
vt 0.95703125 0.38500977
vt 0.95703125 0.33911133
vt 0.6801758 0.33911133
vt 0.66064453 0.26953125
vt 0.66064453 0.006752014
vt 0.65234375 0.006752014
vt 0.65234375 0.26953125
vt 0.6801758 0.39331055
vt 0.95703125 0.39331055
vt 0.95703125 0.38500977
vt 0.6801758 0.38500977
vt 0.6801758 0.4111328
vt 0.95703125 0.4111328
vt 0.95703125 0.39331055
vt 0.6801758 0.39331055
vt 0.6801758 0.42089844
vt 0.95703125 0.42089844
vt 0.95703125 0.4111328
vt 0.6801758 0.4111328
vt 0.6801758 0.5361328
vt 0.95703125 0.5361328
vt 0.95703125 0.42089844
vt 0.6801758 0.42089844
vt 0.64453125 0.26953125
vt 0.64453125 0.006752014
vt 0.63623047 0.006752014
vt 0.63623047 0.26953125
vt 0.65234375 0.26953125
vt 0.65234375 0.006752014
vt 0.64453125 0.006752014
vt 0.64453125 0.26953125
vt 0.5541992 0.27075195
vt 0.5541992 0.007881165
vt 0.5463867 0.007881165
vt 0.5463867 0.27075195
vt 0.5629883 0.27075195
vt 0.5629883 0.007881165
vt 0.5541992 0.007881165
vt 0.5541992 0.27075195
vt 0.3046875 0.14233398
vt 0.02671814 0.14233398
vt 0.02671814 0.15234375
vt 0.3046875 0.15234375
vt 0.3046875 0.16931152
vt 0.02671814 0.16931152
vt 0.02671814 0.17712402
vt 0.3046875 0.17712402
vt 0.3046875 0.17712402
vt 0.02671814 0.17712402
vt 0.02671814 0.19213867
vt 0.3046875 0.19213867
vt 0.3046875 0.19213867
vt 0.02671814 0.19213867
vt 0.02671814 0.21435547
vt 0.3046875 0.21435547
vt 0.3046875 0.21435547
vt 0.02671814 0.21435547
vt 0.02671814 0.22277832
vt 0.3046875 0.22277832
vt 0.3046875 0.2512207
vt 0.02671814 0.2512207
vt 0.02671814 0.35107422
vt 0.3046875 0.35107422
vt 0.3046875 0.24438477
vt 0.02671814 0.24438477
vt 0.02671814 0.2512207
vt 0.3046875 0.2512207
vt 0.3046875 0.23571777
vt 0.02671814 0.23571777
vt 0.02671814 0.24438477
vt 0.3046875 0.24438477
vt 0.3046875 0.22277832
vt 0.02671814 0.22277832
vt 0.02671814 0.23571777
vt 0.3046875 0.23571777
vt 0.57128906 0.26953125
vt 0.57128906 0.006752014
vt 0.5629883 0.007881165
vt 0.5629883 0.27075195
vt 0.57714844 0.26953125
vt 0.57714844 0.006752014
vt 0.57128906 0.006752014
vt 0.57128906 0.26953125
vt 0.6279297 0.26953125
vt 0.6279297 0.006752014
vt 0.57714844 0.006752014
vt 0.57714844 0.26953125
vt 0.63623047 0.26953125
vt 0.63623047 0.006752014
vt 0.6279297 0.006752014
vt 0.6279297 0.26953125
vt 0.3046875 0.16015625
vt 0.02671814 0.16015625
vt 0.02671814 0.16931152
vt 0.3046875 0.16931152
vt 0.3046875 0.15234375
vt 0.02671814 0.15234375
vt 0.02671814 0.16015625
vt 0.3046875 0.16015625
vt 0.3046875 0.37304688
vt 0.02671814 0.37304688
vt 0.02671814 0.39135742
vt 0.3046875 0.39135742
vt 0.6801758 0.6645508
vt 0.9584961 0.6645508
vt 0.9584961 0.62646484
vt 0.6801758 0.62646484
vt 0.6801758 0.67333984
vt 0.9584961 0.67333984
vt 0.9584961 0.6645508
vt 0.6801758 0.6645508
vt 0.5253906 0.27075195
vt 0.5253906 0.007881165
vt 0.40527344 0.007881165
vt 0.40527344 0.27075195
vt 0.5463867 0.27075195
vt 0.5463867 0.007881165
vt 0.53466797 0.007881165
vt 0.53466797 0.27075195
vt 0.3046875 0.35107422
vt 0.02671814 0.35107422
vt 0.02671814 0.35839844
vt 0.3046875 0.35839844
vn -0 -9.536743E-07 -1
vn -7.748604E-07 -2.3841858E-07 -1
vn -0 -1.4305115E-06 -1
vn -0 0 -1
vn -0 0 -1
vn -2.2649765E-06 2.3841858E-07 -1
vn -0 0 -1
vn -0 0 -1
vn -0 0 -1
vn -0 0 -1
vn -0 0 -1
vn -0 0 -1
vn -0 0 -1
vn -5.9604645E-07 4.7683716E-07 -1
vn -0 0 -1
vn -4.7683716E-07 3.5762787E-07 -1
vn -3.2186508E-06 2.6226044E-06 -1
vn -0 0 -1
vn -0 0 -1
vn -0 0 -1
vn -0 0 -1
vn -0 0 -1
vn -0 0 -1
vn -0 0 -1
vn -0 0 -1
vn -0 0 -1
vn -0 -1.7881393E-07 -1
vn -0 0 -1
vn -0 -1.6093254E-06 -1
vn 4.172325E-07 -6.556511E-07 -1
vn -8.34465E-07 -5.364418E-07 -1
vn -0 -2.3841858E-06 -1
vn 1.1920929E-06 -2.9802322E-07 -1
vn 2.8014183E-06 -2.8014183E-06 -1
vn -1.1920929E-07 1.1920929E-07 -1
vn -2.2649765E-06 3.5762787E-07 -1
vn -0 0 -1
vn -0 0 -1
vn 2.9802322E-07 -2.3841858E-07 -1
vn -0 0 -1
vn -0 0 -1
vn 2.0861626E-06 1.7881393E-07 -1
vn -0 0 -1
vn 5.364418E-07 -2.3841858E-07 -1
vn 2.5629997E-06 0 -1
vn -8.34465E-07 1.1920929E-07 -1
vn -2.5629997E-06 0 -1
vn -5.364418E-07 1.7881393E-07 -1
vn -0 0 -1
vn -0 0 -1
vn -0 0 -1
vn -0 0 -1
vn -7.1525574E-07 1.7881393E-07 -1
vn -9.536743E-07 0 -1
vn -0 1.7881393E-07 -1
vn -0 0 -1
vn -0 2.3841858E-07 -1
vn -0 2.3841858E-07 -1
vn -1.013279E-06 0 -1
vn -2.8014183E-06 1.4901161E-06 -1
vn -0 0 -1
vn -0 0 -1
vn -4.172325E-07 -3.5762787E-07 -1
vn -2.7418137E-06 0 -1
vn -0 1.1920929E-07 -1
vn -0 0 -1
vn 1.7881393E-07 1.9669533E-06 -1
vn -0 0 -1
vn -0 0 1
vn -0 0 1
vn -0 0 1
vn -0 0 1
vn -0 0 1
vn -0 0 1
vn -0 0 1
vn -0 0 1
vn -0 0 1
vn -0 0 1
vn -0 0 1
vn -0 0 1
vn -0 0 1
vn -0 0 1
vn -0 0 1
vn -0 0 1
vn -0 0 1
vn -0 0 1
vn -0 0 1
vn -0 0 1
vn -0 0 1
vn -0 0 1
vn -0 0 1
vn -0 0 1
vn -0 0 1
vn -0 0 1
vn -0 0 1
vn -0 0 1
vn -0 0 1
vn -0 0 1
vn -0 0 1
vn -0 0 1
vn -0 0 1
vn -0 0 1
vn -0 0 1
vn -0 0 1
vn -0 0 1
vn -0 0 1
vn -0 0 1
vn -0 0 1
vn -0 0 1
vn -0 0 1
vn -0 0 1
vn -0 0 1
vn -0 0 1
vn -0 0 1
vn -0 0 1
vn -0 0 1
vn -0 0 1
vn -0 0 1
vn -0 -5.9604645E-07 1
vn 1.7881393E-07 0 1
vn -0 0 1
vn -0 0 1
vn -0 0 1
vn -0 0 1
vn -0 0 1
vn -0 0 1
vn -0 0 1
vn -0 0 1
vn -0 0 1
vn -0 0 1
vn -0 0 1
vn -0 0 1
vn -0 0 1
vn -0 0 1
vn -0 0 1
vn -0 0 1
vn 0.007446289 1 0
vn 0.007446289 1 0
vn 0.007446289 1 0
vn 0.007446289 1 0
vn 1 -0.0027694702 0
vn 1 -0.0027694702 0
vn 1 -0.0027694702 0
vn 1 -0.0027694702 0
vn -0 1 0
vn -0 1 0
vn -0 1 0
vn -0 1 0
vn 1 0.004764557 0
vn 1 0.004764557 0
vn 1 0.004764557 0
vn 1 0.004764557 0
vn -0.009117126 -1 0
vn -0.009117126 -1 0
vn -0.009117126 -1 0
vn -0.009117126 -1 0
vn -1 0.0011806488 0
vn -1 0.0011806488 0
vn -1 0.0011806488 0
vn -1 0.0011806488 0
vn 0.0074272156 1 0
vn 0.0074272156 1 0
vn 0.0074272156 1 0
vn 0.0074272156 1 0
vn -1 -0.006690979 0
vn -1 -0.006690979 0
vn -1 -0.006690979 0
vn -1 -0.006690979 0
vn -0.015106201 1 0
vn -0.015106201 1 0
vn -0.015106201 1 0
vn -0.015106201 1 0
vn -1 0.008804321 0
vn -1 0.008804321 0
vn -1 0.008804321 0
vn -1 0.008804321 0
vn 0.01096344 1 0
vn 0.01096344 1 0
vn 0.01096344 1 0
vn 0.01096344 1 0
vn -0.9995117 -0.029083252 0
vn -0.9995117 -0.029083252 0
vn -0.9995117 -0.029083252 0
vn -0.9995117 -0.029083252 0
vn 0.002128601 1 0
vn 0.002128601 1 0
vn 0.002128601 1 0
vn 0.002128601 1 0
vn -1 0.0075950623 0
vn -1 0.0075950623 0
vn -1 0.0075950623 0
vn -1 0.0075950623 0
vn -0.0020446777 1 0
vn -0.0020446777 1 0
vn -0.0020446777 1 0
vn -0.0020446777 1 0
vn -1 0.0003643036 0
vn -1 0.0003643036 0
vn -1 0.0003643036 0
vn -1 0.0003643036 0
vn 0.00074863434 1 0
vn 0.00074863434 1 0
vn 0.00074863434 1 0
vn 0.00074863434 1 0
vn 1 0.00062942505 0
vn 1 0.00062942505 0
vn 1 0.00062942505 0
vn 1 0.00062942505 0
vn 1 0.010299683 0
vn 1 0.010299683 0
vn 1 0.010299683 0
vn 1 0.010299683 0
vn 0.014434814 -1 0
vn 0.014434814 -1 0
vn 0.014434814 -1 0
vn 0.014434814 -1 0
vn -0.0022792816 1 0
vn -0.0022792816 1 0
vn -0.0022792816 1 0
vn -0.0022792816 1 0
vn -0.017837524 1 0
vn -0.017837524 1 0
vn -0.017837524 1 0
vn -0.017837524 1 0
vn 1 0.010673523 0
vn 1 0.010673523 0
vn 1 0.010673523 0
vn 1 0.010673523 0
vn 1 0.009925842 0
vn 1 0.009925842 0
vn 1 0.009925842 0
vn 1 0.009925842 0
vn 0.01411438 -1 0
vn 0.01411438 -1 0
vn 0.01411438 -1 0
vn 0.01411438 -1 0
vn 0.007980347 1 0
vn 0.007980347 1 0
vn 0.007980347 1 0
vn 0.007980347 1 0
vn -0.9980469 0.061767578 0
vn -0.9980469 0.061767578 0
vn -0.9980469 0.061767578 0
vn -0.9980469 0.061767578 0
vn -0.028167725 -0.9995117 0
vn -0.028167725 -0.9995117 0
vn -0.028167725 -0.9995117 0
vn -0.028167725 -0.9995117 0
vn -1 -0.0011348724 0
vn -1 -0.0011348724 0
vn -1 -0.0011348724 0
vn -1 -0.0011348724 0
vn 1 0.010063171 0
vn 1 0.010063171 0
vn 1 0.010063171 0
vn 1 0.010063171 0
vn -1 0 0
vn -1 0 0
vn -1 0 0
vn -1 0 0
vn 1 0.0023498535 0
vn 1 0.0023498535 0
vn 1 0.0023498535 0
vn 1 0.0023498535 0
vn 0.0006775856 -1 0
vn 0.0006775856 -1 0
vn 0.0006775856 -1 0
vn 0.0006775856 -1 0
vn -0.00466156 1 0
vn -0.00466156 1 0
vn -0.00466156 1 0
vn -0.00466156 1 0
vn 0.020812988 1 0
vn 0.020812988 1 0
vn 0.020812988 1 0
vn 0.020812988 1 0
vn 1 5.364418E-06 0
vn 1 5.364418E-06 0
vn 1 5.364418E-06 0
vn 1 5.364418E-06 0
vn -8.624792E-05 1 0
vn -8.624792E-05 1 0
vn -8.624792E-05 1 0
vn -8.624792E-05 1 0
vn -0.9995117 0.023284912 0
vn -0.9995117 0.023284912 0
vn -0.9995117 0.023284912 0
vn -0.9995117 0.023284912 0
vn -0 -1 0
vn -0 -1 0
vn -0 -1 0
vn -0 -1 0
vn -0 -1 0
vn -0 -1 0
vn -0 -1 0
vn -0 -1 0
vn -1 -7.6413155E-05 0
vn -1 -7.6413155E-05 0
vn -1 -7.6413155E-05 0
vn -1 -7.6413155E-05 0
vn -0.015274048 -1 0
vn -0.015274048 -1 0
vn -0.015274048 -1 0
vn -0.015274048 -1 0
vn -1 0.0022563934 0
vn -1 0.0022563934 0
vn -1 0.0022563934 0
vn -1 0.0022563934 0
vn -0.043762207 -0.99902344 0
vn -0.043762207 -0.99902344 0
vn -0.043762207 -0.99902344 0
vn -0.043762207 -0.99902344 0
vn -0.99902344 -0.045410156 0
vn -0.99902344 -0.045410156 0
vn -0.99902344 -0.045410156 0
vn -0.99902344 -0.045410156 0
vn -0.045074463 -0.99902344 0
vn -0.045074463 -0.99902344 0
vn -0.045074463 -0.99902344 0
vn -0.045074463 -0.99902344 0
vn -1 0.011772156 0
vn -1 0.011772156 0
vn -1 0.011772156 0
vn -1 0.011772156 0
vn 1 7.402897E-05 0
vn 1 7.402897E-05 0
vn 1 7.402897E-05 0
vn 1 7.402897E-05 0
vn 0.045928955 -0.99902344 0
vn 0.045928955 -0.99902344 0
vn 0.045928955 -0.99902344 0
vn 0.045928955 -0.99902344 0
vn 0.9995117 -0.023712158 0
vn 0.9995117 -0.023712158 0
vn 0.9995117 -0.023712158 0
vn 0.9995117 -0.023712158 0
vn -0.0056152344 -1 0
vn -0.0056152344 -1 0
vn -0.0056152344 -1 0
vn -0.0056152344 -1 0
vn 1 0 0
vn 1 0 0
vn 1 0 0
vn 1 0 0
vn 1 -0.00057792664 0
vn 1 -0.00057792664 0
vn 1 -0.00057792664 0
vn 1 -0.00057792664 0
vn -0.017410278 -1 0
vn -0.017410278 -1 0
vn -0.017410278 -1 0
vn -0.017410278 -1 0
vn 1 0.009765625 0
vn 1 0.009765625 0
vn 1 0.009765625 0
vn 1 0.009765625 0
vn -0.006916046 -1 0
vn -0.006916046 -1 0
vn -0.006916046 -1 0
vn -0.006916046 -1 0
vn -0.014793396 -1 0
vn -0.014793396 -1 0
vn -0.014793396 -1 0
vn -0.014793396 -1 0
vn -1 0 0
vn -1 0 0
vn -1 0 0
vn -1 0 0
vn 0.001909256 -1 0
vn 0.001909256 -1 0
vn 0.001909256 -1 0
vn 0.001909256 -1 0
vn -1 0.018600464 0
vn -1 0.018600464 0
vn -1 0.018600464 0
vn -1 0.018600464 0
vn 1 -0.0121154785 0
vn 1 -0.0121154785 0
vn 1 -0.0121154785 0
vn 1 -0.0121154785 0
vn 0.02848816 -0.9995117 0
vn 0.02848816 -0.9995117 0
vn 0.02848816 -0.9995117 0
vn 0.02848816 -0.9995117 0
vn 0.99853516 -0.0579834 0
vn 0.99853516 -0.0579834 0
vn 0.99853516 -0.0579834 0
vn 0.99853516 -0.0579834 0
vn -1 0.0022602081 0
vn -1 0.0022602081 0
vn -1 0.0022602081 0
vn -1 0.0022602081 0
vn 0.007419586 1 0
vn 0.007419586 1 0
vn 0.007419586 1 0
vn 0.007419586 1 0
vn 0.0017709732 -1 0
vn 0.0017709732 -1 0
vn 0.0017709732 -1 0
vn 0.0017709732 -1 0
vn -1 -2.5987625E-05 0
vn -1 -2.5987625E-05 0
vn -1 -2.5987625E-05 0
vn -1 -2.5987625E-05 0
vn 0.034332275 0.9995117 0
vn 0.034332275 0.9995117 0
vn 0.034332275 0.9995117 0
vn 0.034332275 0.9995117 0
g Rocks_Small_009_0
f 3/3/3 2/2/2 1/1/1
f 1/1/1 2/2/2 4/4/4
f 2/2/2 5/5/5 4/4/4
f 6/6/6 5/5/5 2/2/2
f 7/7/7 5/5/5 6/6/6
f 8/8/8 1/1/1 4/4/4
f 9/9/9 8/8/8 4/4/4
f 10/10/10 1/1/1 8/8/8
f 11/11/11 1/1/1 10/10/10
f 12/12/12 10/10/10 8/8/8
f 13/13/13 10/10/10 12/12/12
f 4/4/4 5/5/5 14/14/14
f 15/15/15 4/4/4 14/14/14
f 14/14/14 5/5/5 16/16/16
f 17/17/17 14/14/14 16/16/16
f 16/16/16 5/5/5 18/18/18
f 19/19/19 16/16/16 18/18/18
f 18/18/18 5/5/5 20/20/20
f 21/21/21 18/18/18 20/20/20
f 5/5/5 22/22/22 20/20/20
f 23/23/23 22/22/22 5/5/5
f 20/20/20 22/22/22 24/24/24
f 25/25/25 20/20/20 24/24/24
f 26/26/26 20/20/20 25/25/25
f 24/24/24 22/22/22 27/27/27
f 28/28/28 24/24/24 27/27/27
f 22/22/22 29/29/29 27/27/27
f 27/27/27 29/29/29 30/30/30
f 29/29/29 31/31/31 30/30/30
f 32/32/32 31/31/31 29/29/29
f 30/30/30 31/31/31 33/33/33
f 30/30/30 33/33/33 34/34/34
f 31/31/31 35/35/35 33/33/33
f 36/36/36 35/35/35 31/31/31
f 37/37/37 35/35/35 36/36/36
f 35/35/35 38/38/38 33/33/33
f 33/33/33 38/38/38 39/39/39
f 38/38/38 40/40/40 39/39/39
f 41/41/41 40/40/40 38/38/38
f 42/42/42 33/33/33 39/39/39
f 43/43/43 42/42/42 39/39/39
f 44/44/44 39/39/39 40/40/40
f 45/45/45 39/39/39 44/44/44
f 44/44/44 40/40/40 46/46/46
f 44/44/44 46/46/46 47/47/47
f 46/46/46 40/40/40 48/48/48
f 49/49/49 46/46/46 48/48/48
f 50/50/50 46/46/46 49/49/49
f 49/49/49 48/48/48 51/51/51
f 52/52/52 49/49/49 51/51/51
f 48/48/48 40/40/40 53/53/53
f 48/48/48 53/53/53 54/54/54
f 53/53/53 40/40/40 55/55/55
f 56/56/56 53/53/53 55/55/55
f 40/40/40 57/57/57 55/55/55
f 57/57/57 58/58/58 55/55/55
f 51/51/51 48/48/48 59/59/59
f 59/59/59 48/48/48 60/60/60
f 61/61/61 51/51/51 59/59/59
f 62/62/62 51/51/51 61/61/61
f 63/63/63 61/61/61 59/59/59
f 64/64/64 63/63/63 59/59/59
f 65/65/65 61/61/61 63/63/63
f 66/66/66 61/61/61 65/65/65
f 67/67/67 65/65/65 63/63/63
f 68/68/68 65/65/65 67/67/67
f 71/71/71 70/70/70 69/69/69
f 70/70/70 72/72/72 69/69/69
f 69/69/69 72/72/72 73/73/73
f 74/74/74 69/69/69 73/73/73
f 75/75/75 74/74/74 73/73/73
f 76/76/76 72/72/72 70/70/70
f 77/77/77 72/72/72 76/76/76
f 78/78/78 76/76/76 70/70/70
f 79/79/79 78/78/78 70/70/70
f 80/80/80 76/76/76 78/78/78
f 81/81/81 80/80/80 78/78/78
f 72/72/72 82/82/82 73/73/73
f 83/83/83 82/82/82 72/72/72
f 82/82/82 84/84/84 73/73/73
f 85/85/85 84/84/84 82/82/82
f 84/84/84 86/86/86 73/73/73
f 87/87/87 86/86/86 84/84/84
f 86/86/86 88/88/88 73/73/73
f 89/89/89 88/88/88 86/86/86
f 73/73/73 88/88/88 90/90/90
f 91/91/91 73/73/73 90/90/90
f 88/88/88 92/92/92 90/90/90
f 93/93/93 92/92/92 88/88/88
f 94/94/94 93/93/93 88/88/88
f 92/92/92 95/95/95 90/90/90
f 96/96/96 95/95/95 92/92/92
f 90/90/90 95/95/95 97/97/97
f 95/95/95 98/98/98 97/97/97
f 97/97/97 98/98/98 99/99/99
f 100/100/100 97/97/97 99/99/99
f 98/98/98 101/101/101 99/99/99
f 98/98/98 102/102/102 101/101/101
f 99/99/99 101/101/101 103/103/103
f 104/104/104 99/99/99 103/103/103
f 105/105/105 104/104/104 103/103/103
f 103/103/103 101/101/101 106/106/106
f 101/101/101 107/107/107 106/106/106
f 106/106/106 107/107/107 108/108/108
f 109/109/109 106/106/106 108/108/108
f 110/110/110 107/107/107 101/101/101
f 111/111/111 107/107/107 110/110/110
f 112/112/112 108/108/108 107/107/107
f 113/113/113 112/112/112 107/107/107
f 112/112/112 114/114/114 108/108/108
f 112/112/112 115/115/115 114/114/114
f 114/114/114 116/116/116 108/108/108
f 117/117/117 116/116/116 114/114/114
f 118/118/118 117/117/117 114/114/114
f 117/117/117 119/119/119 116/116/116
f 120/120/120 119/119/119 117/117/117
f 116/116/116 121/121/121 108/108/108
f 116/116/116 122/122/122 121/121/121
f 121/121/121 123/123/123 108/108/108
f 124/124/124 123/123/123 121/121/121
f 108/108/108 123/123/123 125/125/125
f 125/125/125 123/123/123 126/126/126
f 119/119/119 127/127/127 116/116/116
f 127/127/127 128/128/128 116/116/116
f 129/129/129 127/127/127 119/119/119
f 130/130/130 129/129/129 119/119/119
f 131/131/131 127/127/127 129/129/129
f 132/132/132 127/127/127 131/131/131
f 133/133/133 131/131/131 129/129/129
f 134/134/134 133/133/133 129/129/129
f 135/135/135 131/131/131 133/133/133
f 136/136/136 135/135/135 133/133/133
f 139/139/139 138/138/138 137/137/137
f 140/140/140 139/139/139 137/137/137
f 143/143/143 142/142/142 141/141/141
f 144/144/144 143/143/143 141/141/141
f 147/147/147 146/146/146 145/145/145
f 148/148/148 147/147/147 145/145/145
f 151/151/151 150/150/150 149/149/149
f 152/152/152 151/151/151 149/149/149
f 155/155/155 154/154/154 153/153/153
f 156/156/156 155/155/155 153/153/153
f 159/159/159 158/158/158 157/157/157
f 160/160/160 159/159/159 157/157/157
f 163/163/163 162/162/162 161/161/161
f 164/164/164 163/163/163 161/161/161
f 167/167/167 166/166/166 165/165/165
f 168/168/168 167/167/167 165/165/165
f 171/171/171 170/170/170 169/169/169
f 172/172/172 171/171/171 169/169/169
f 175/175/175 174/174/174 173/173/173
f 176/176/176 175/175/175 173/173/173
f 179/179/179 178/178/178 177/177/177
f 180/180/180 179/179/179 177/177/177
f 183/183/183 182/182/182 181/181/181
f 184/184/184 183/183/183 181/181/181
f 187/187/187 186/186/186 185/185/185
f 188/188/188 187/187/187 185/185/185
f 191/191/191 190/190/190 189/189/189
f 192/192/192 191/191/191 189/189/189
f 195/195/195 194/194/194 193/193/193
f 196/196/196 195/195/195 193/193/193
f 199/199/199 198/198/198 197/197/197
f 200/200/200 199/199/199 197/197/197
f 203/203/203 202/202/202 201/201/201
f 204/204/204 203/203/203 201/201/201
f 207/207/207 206/206/206 205/205/205
f 208/208/208 207/207/207 205/205/205
f 211/211/211 210/210/210 209/209/209
f 212/212/212 211/211/211 209/209/209
f 215/215/215 214/214/214 213/213/213
f 216/216/216 215/215/215 213/213/213
f 219/219/219 218/218/218 217/217/217
f 220/220/220 219/219/219 217/217/217
f 223/223/223 222/222/222 221/221/221
f 224/224/224 223/223/223 221/221/221
f 227/227/227 226/226/226 225/225/225
f 228/228/228 227/227/227 225/225/225
f 231/231/231 230/230/230 229/229/229
f 232/232/232 231/231/231 229/229/229
f 235/235/235 234/234/234 233/233/233
f 236/236/236 235/235/235 233/233/233
f 239/239/239 238/238/238 237/237/237
f 240/240/240 239/239/239 237/237/237
f 243/243/243 242/242/242 241/241/241
f 244/244/244 243/243/243 241/241/241
f 247/247/247 246/246/246 245/245/245
f 248/248/248 247/247/247 245/245/245
f 251/251/251 250/250/250 249/249/249
f 252/252/252 251/251/251 249/249/249
f 255/255/255 254/254/254 253/253/253
f 256/256/256 255/255/255 253/253/253
f 259/259/259 258/258/258 257/257/257
f 260/260/260 259/259/259 257/257/257
f 263/263/263 262/262/262 261/261/261
f 264/264/264 263/263/263 261/261/261
f 267/267/267 266/266/266 265/265/265
f 268/268/268 267/267/267 265/265/265
f 271/271/271 270/270/270 269/269/269
f 272/272/272 271/271/271 269/269/269
f 275/275/275 274/274/274 273/273/273
f 276/276/276 275/275/275 273/273/273
f 279/279/279 278/278/278 277/277/277
f 280/280/280 279/279/279 277/277/277
f 283/283/283 282/282/282 281/281/281
f 284/284/284 283/283/283 281/281/281
f 287/287/287 286/286/286 285/285/285
f 288/288/288 287/287/287 285/285/285
f 291/291/291 290/290/290 289/289/289
f 292/292/292 291/291/291 289/289/289
f 295/295/295 294/294/294 293/293/293
f 296/296/296 295/295/295 293/293/293
f 299/299/299 298/298/298 297/297/297
f 300/300/300 299/299/299 297/297/297
f 303/303/303 302/302/302 301/301/301
f 304/304/304 303/303/303 301/301/301
f 307/307/307 306/306/306 305/305/305
f 308/308/308 307/307/307 305/305/305
f 311/311/311 310/310/310 309/309/309
f 312/312/312 311/311/311 309/309/309
f 315/315/315 314/314/314 313/313/313
f 316/316/316 315/315/315 313/313/313
f 319/319/319 318/318/318 317/317/317
f 320/320/320 319/319/319 317/317/317
f 323/323/323 322/322/322 321/321/321
f 324/324/324 323/323/323 321/321/321
f 327/327/327 326/326/326 325/325/325
f 328/328/328 327/327/327 325/325/325
f 331/331/331 330/330/330 329/329/329
f 332/332/332 331/331/331 329/329/329
f 335/335/335 334/334/334 333/333/333
f 336/336/336 335/335/335 333/333/333
f 339/339/339 338/338/338 337/337/337
f 340/340/340 339/339/339 337/337/337
f 343/343/343 342/342/342 341/341/341
f 344/344/344 343/343/343 341/341/341
f 347/347/347 346/346/346 345/345/345
f 348/348/348 347/347/347 345/345/345
f 351/351/351 350/350/350 349/349/349
f 352/352/352 351/351/351 349/349/349
f 355/355/355 354/354/354 353/353/353
f 356/356/356 355/355/355 353/353/353
f 359/359/359 358/358/358 357/357/357
f 360/360/360 359/359/359 357/357/357
f 363/363/363 362/362/362 361/361/361
f 364/364/364 363/363/363 361/361/361
f 367/367/367 366/366/366 365/365/365
f 368/368/368 367/367/367 365/365/365
f 371/371/371 370/370/370 369/369/369
f 372/372/372 371/371/371 369/369/369
f 375/375/375 374/374/374 373/373/373
f 376/376/376 375/375/375 373/373/373
f 379/379/379 378/378/378 377/377/377
f 380/380/380 379/379/379 377/377/377
f 383/383/383 382/382/382 381/381/381
f 384/384/384 383/383/383 381/381/381
f 387/387/387 386/386/386 385/385/385
f 388/388/388 387/387/387 385/385/385
f 391/391/391 390/390/390 389/389/389
f 392/392/392 391/391/391 389/389/389
f 395/395/395 394/394/394 393/393/393
f 396/396/396 395/395/395 393/393/393
f 399/399/399 398/398/398 397/397/397
f 400/400/400 399/399/399 397/397/397
f 403/403/403 402/402/402 401/401/401
f 404/404/404 403/403/403 401/401/401
f 407/407/407 406/406/406 405/405/405
f 408/408/408 407/407/407 405/405/405
