g Rocks_Small_006
v -0.50260127 1.7041793 -0.9999997
v -0.5509041 1.7045121 -0.9999998
v -0.5509067 1.6482337 -0.9999998
v 0.6161423 1.7356826 -1
v -0.50189495 1.7412344 -0.9999998
v 0.61614215 1.6996621 -1
v 0.6627618 1.6404583 -1
v 0.6628897 1.6989492 -1
v -0.5509067 1.6482337 -0.9999998
v 0.704967 1.5352257 -1
v 0.7050523 1.6399419 -1
v -0.4845427 0.8833243 -0.9999998
v 0.7043703 0.8205442 -1
v 0.7624211 1.5358969 -0.9999998
v 0.76228416 0.8198306 -1
v 0.64577115 0.7629922 -1
v 0.70336485 0.76369125 -1
v -0.4347861 0.54057974 -0.9999998
v -0.48465145 0.54077816 -0.9999998
v 0.6461032 0.40299532 -0.9999998
v -0.43415695 0.4000652 -0.9999998
v -0.5508905 0.9353499 -0.9999998
v -0.5508135 0.8835318 -0.9999998
v -0.60571784 0.9351675 -0.9999998
v -0.6067283 1.6481341 -0.9999998
v -0.4884178 0.28939337 -0.9999998
v -0.4880321 0.400427 -0.9999998
v 0.70124006 0.34910032 -0.9999998
v 0.7009567 0.40233114 -0.9999998
v 0.627238 -0.89325166 -1
v -0.6516953 0.24332827 -0.9999998
v -0.6521935 0.29297742 -0.9999997
v 0.66145605 -0.8521665 -1
v 0.747845 0.34833983 -0.9999998
v 0.74752045 -0.8488598 -1
v 0.6616696 -0.8921683 -1
v 0.583334 -0.9244252 -1
v 0.624256 -0.9239592 -1
v -0.7079905 -0.08463087 -0.9999998
v -0.70700413 0.24449508 -0.9999998
v -0.65079695 -0.675002 -0.9999998
v 0.097176075 -1.0166936 -0.9999998
v 0.58268666 -1.0176706 -1
v -0.71107113 -0.61685055 -0.9999998
v -0.7113176 -0.6744827 -0.9999998
v -0.76242054 -0.61648893 -0.9999998
v -0.7608652 -0.08553581 -0.9999998
v -0.650857 -1.1275625 -0.9999995
v -0.5967708 -1.6654491 -0.9999997
v 0.09738766 -1.2568877 -0.9999998
v 0.093748316 -1.6589422 -0.9999998
v 0.14990775 -1.6590958 -0.9999998
v 0.15037104 -1.2568878 -0.9999997
v -0.59646404 -1.7412317 -0.9999997
v 0.09281574 -1.7412314 -0.9999998
v -0.6478943 -1.6037371 -0.9999998
v -0.6470906 -1.6655221 -0.9999997
v -0.7014449 -1.5474551 -1
v -0.7014654 -1.603675 -1.0000002
v -0.7013962 -1.18699 -1
v -0.70139617 -1.1275626 -1
v -0.75056416 -1.1874825 -0.9999998
v -0.7507249 -1.5466774 -0.9999998
v -0.7110709 -0.61685055 1.0000002
v -0.6507967 -0.6750018 1.0000002
v -0.71131736 -0.6744826 1.0000002
v -0.7079904 -0.084630914 1.0000001
v -0.7624204 -0.61648893 1.0000002
v -0.76086503 -0.08553583 1.0000001
v 0.58333427 -0.924425 1
v 0.09717632 -1.0166936 1.0000001
v 0.5826869 -1.0176708 1
v -0.6508568 -1.1275624 1.0000002
v -0.65169513 0.2433283 1.0000001
v -0.707004 0.24449508 1.0000001
v 0.6272382 -0.89325166 1
v 0.6242562 -0.923959 1
v -0.59677064 -1.6654491 1.0000002
v 0.09738794 -1.2568874 1.0000001
v -0.48841757 0.28939342 1.0000001
v -0.6521933 0.2929774 1.0000001
v 0.093748584 -1.6589421 1.0000001
v 0.149908 -1.6590955 1.0000001
v 0.1503713 -1.2568877 1.0000001
v -0.59646374 -1.7412317 1.0000002
v 0.09281601 -1.7412313 1.0000001
v -0.64789426 -1.6037374 1.0000002
v -0.6470904 -1.6655215 1.0000002
v -0.70144504 -1.5474548 1.0000002
v -0.70146567 -1.603675 1.0000002
v -0.7013964 -1.1869899 1.0000001
v -0.7013963 -1.1275625 1.0000001
v -0.7505643 -1.1874822 1.0000002
v -0.75072503 -1.5466769 1.0000002
v 0.66145635 -0.8521664 1
v 0.7478453 0.3483398 1
v 0.74752074 -0.84885967 1
v 0.70124024 0.3491003 1
v 0.66166985 -0.89216816 1
v 0.6461035 0.4029953 1
v 0.700957 0.4023311 1
v -0.43415704 0.40006518 1
v -0.48803183 0.40042698 1
v -0.43478617 0.54057974 1.0000001
v 0.6457714 0.7629923 1
v -0.48454246 0.8833243 1.0000001
v -0.48465118 0.5407781 1.0000001
v 0.70437056 0.82054424 1
v 0.7033649 0.76369154 1
v 0.7049673 1.5352257 1
v 0.76242155 1.5358969 0.9999999
v 0.7622844 0.81983066 1
v -0.5509069 1.6482337 1
v -0.5508907 0.9353497 1.0000001
v -0.5508136 0.88353163 1.0000001
v -0.6057177 0.93516743 1.0000001
v -0.6067279 1.648134 1.0000001
v 0.66276205 1.6404583 1
v 0.70505255 1.6399419 1
v -0.502601 1.7041792 1
v -0.5509043 1.7045122 1
v 0.6161424 1.6996621 1
v 0.66289 1.6989492 1
v 0.6161425 1.7356826 1
v -0.50189465 1.7412344 1.0000001
v -0.7113176 -0.6744827 -0.9999998
v -0.71131736 -0.6744826 1.0000002
v -0.6507967 -0.6750018 1.0000002
v -0.65079695 -0.675002 -0.9999998
v -0.71107113 -0.61685055 -0.9999998
v -0.7110709 -0.61685055 1.0000002
v -0.71131736 -0.6744826 1.0000002
v -0.7113176 -0.6744827 -0.9999998
v -0.6521935 0.29297742 -0.9999997
v -0.6521933 0.2929774 1.0000001
v -0.65169513 0.2433283 1.0000001
v -0.6516953 0.24332827 -0.9999998
v -0.4884178 0.28939337 -0.9999998
v -0.48841757 0.28939342 1.0000001
v -0.6521933 0.2929774 1.0000001
v -0.6521935 0.29297742 -0.9999997
v -0.59646404 -1.7412317 -0.9999997
v -0.59646374 -1.7412317 1.0000002
v 0.09281601 -1.7412313 1.0000001
v 0.09281574 -1.7412314 -0.9999998
v 0.09281574 -1.7412314 -0.9999998
v 0.09281601 -1.7412313 1.0000001
v 0.093748584 -1.6589421 1.0000001
v 0.093748316 -1.6589422 -0.9999998
v -0.65079695 -0.675002 -0.9999998
v -0.6507967 -0.6750018 1.0000002
v -0.6508568 -1.1275624 1.0000002
v -0.650857 -1.1275625 -0.9999995
v 0.74752045 -0.8488598 -1
v 0.74752074 -0.84885967 1
v 0.7478453 0.3483398 1
v 0.747845 0.34833983 -0.9999998
v 0.66145605 -0.8521665 -1
v 0.66145635 -0.8521664 1
v 0.74752074 -0.84885967 1
v 0.74752045 -0.8488598 -1
v 0.7009567 0.40233114 -0.9999998
v 0.700957 0.4023311 1
v 0.6461035 0.4029953 1
v 0.6461032 0.40299532 -0.9999998
v 0.70124006 0.34910032 -0.9999998
v 0.70124024 0.3491003 1
v 0.700957 0.4023311 1
v 0.7009567 0.40233114 -0.9999998
v 0.7624211 1.5358969 -0.9999998
v 0.76242155 1.5358969 0.9999999
v 0.7049673 1.5352257 1
v 0.704967 1.5352257 -1
v 0.70336485 0.76369125 -1
v 0.7033649 0.76369154 1
v 0.70437056 0.82054424 1
v 0.7043703 0.8205442 -1
v 0.64577115 0.7629922 -1
v 0.6457714 0.7629923 1
v 0.7033649 0.76369154 1
v 0.70336485 0.76369125 -1
v -0.6470906 -1.6655221 -0.9999997
v -0.6470904 -1.6655215 1.0000002
v -0.59677064 -1.6654491 1.0000002
v -0.5967708 -1.6654491 -0.9999997
v -0.6478943 -1.6037371 -0.9999998
v -0.64789426 -1.6037374 1.0000002
v -0.6470904 -1.6655215 1.0000002
v -0.6470906 -1.6655221 -0.9999997
v -0.7014654 -1.603675 -1.0000002
v -0.70146567 -1.603675 1.0000002
v -0.64789426 -1.6037374 1.0000002
v -0.6478943 -1.6037371 -0.9999998
v -0.7014449 -1.5474551 -1
v -0.70144504 -1.5474548 1.0000002
v -0.70146567 -1.603675 1.0000002
v -0.7014654 -1.603675 -1.0000002
v -0.76242054 -0.61648893 -0.9999998
v -0.7624204 -0.61648893 1.0000002
v -0.7110709 -0.61685055 1.0000002
v -0.71107113 -0.61685055 -0.9999998
v -0.7013962 -1.18699 -1
v -0.7013964 -1.1869899 1.0000001
v -0.7505643 -1.1874822 1.0000002
v -0.75056416 -1.1874825 -0.9999998
v -0.7507249 -1.5466774 -0.9999998
v -0.75072503 -1.5466769 1.0000002
v -0.70144504 -1.5474548 1.0000002
v -0.7014449 -1.5474551 -1
v -0.75056416 -1.1874825 -0.9999998
v -0.7505643 -1.1874822 1.0000002
v -0.75072503 -1.5466769 1.0000002
v -0.7507249 -1.5466774 -0.9999998
v -0.70139617 -1.1275626 -1
v -0.7013963 -1.1275625 1.0000001
v -0.7013964 -1.1869899 1.0000001
v -0.7013962 -1.18699 -1
v -0.650857 -1.1275625 -0.9999995
v -0.6508568 -1.1275624 1.0000002
v -0.7013963 -1.1275625 1.0000001
v -0.70139617 -1.1275626 -1
v -0.5508905 0.9353499 -0.9999998
v -0.5508907 0.9353497 1.0000001
v -0.5508136 0.88353163 1.0000001
v -0.5508135 0.8835318 -0.9999998
v -0.5508135 0.8835318 -0.9999998
v -0.5508136 0.88353163 1.0000001
v -0.48454246 0.8833243 1.0000001
v -0.4845427 0.8833243 -0.9999998
v -0.4880321 0.400427 -0.9999998
v -0.48803183 0.40042698 1
v -0.48841757 0.28939342 1.0000001
v -0.4884178 0.28939337 -0.9999998
v -0.43415695 0.4000652 -0.9999998
v -0.43415704 0.40006518 1
v -0.48803183 0.40042698 1
v -0.4880321 0.400427 -0.9999998
v -0.48465145 0.54077816 -0.9999998
v -0.48465118 0.5407781 1.0000001
v -0.43478617 0.54057974 1.0000001
v -0.4347861 0.54057974 -0.9999998
v -0.4845427 0.8833243 -0.9999998
v -0.48454246 0.8833243 1.0000001
v -0.48465118 0.5407781 1.0000001
v -0.48465145 0.54077816 -0.9999998
v -0.4347861 0.54057974 -0.9999998
v -0.43478617 0.54057974 1.0000001
v -0.43415704 0.40006518 1
v -0.43415695 0.4000652 -0.9999998
v 0.093748316 -1.6589422 -0.9999998
v 0.093748584 -1.6589421 1.0000001
v 0.149908 -1.6590955 1.0000001
v 0.14990775 -1.6590958 -0.9999998
v 0.15037104 -1.2568878 -0.9999997
v 0.1503713 -1.2568877 1.0000001
v 0.09738794 -1.2568874 1.0000001
v 0.09738766 -1.2568877 -0.9999998
v 0.14990775 -1.6590958 -0.9999998
v 0.149908 -1.6590955 1.0000001
v 0.1503713 -1.2568877 1.0000001
v 0.15037104 -1.2568878 -0.9999997
v 0.61614215 1.6996621 -1
v 0.6161424 1.6996621 1
v 0.6161425 1.7356826 1
v 0.6161423 1.7356826 -1
v 0.7050523 1.6399419 -1
v 0.66276205 1.6404583 1
v 0.6627618 1.6404583 -1
v 0.70505255 1.6399419 1
v 0.704967 1.5352257 -1
v 0.7049673 1.5352257 1
v 0.70505255 1.6399419 1
v 0.7050523 1.6399419 -1
v -0.60571784 0.9351675 -0.9999998
v -0.6057177 0.93516743 1.0000001
v -0.5508907 0.9353497 1.0000001
v -0.5508905 0.9353499 -0.9999998
v -0.5509041 1.7045121 -0.9999998
v -0.5509069 1.6482337 1
v -0.5509067 1.6482337 -0.9999998
v -0.5509043 1.7045122 1
v -0.50260127 1.7041793 -0.9999997
v -0.502601 1.7041792 1
v -0.5509043 1.7045122 1
v -0.5509041 1.7045121 -0.9999998
v 0.6627618 1.6404583 -1
v 0.66276205 1.6404583 1
v 0.66289 1.6989492 1
v 0.6628897 1.6989492 -1
v 0.6628897 1.6989492 -1
v 0.66289 1.6989492 1
v 0.6161424 1.6996621 1
v 0.61614215 1.6996621 -1
v 0.097176075 -1.0166936 -0.9999998
v 0.09717632 -1.0166936 1.0000001
v 0.5826869 -1.0176708 1
v 0.58268666 -1.0176706 -1
v 0.58268666 -1.0176706 -1
v 0.5826869 -1.0176708 1
v 0.58333427 -0.924425 1
v 0.583334 -0.9244252 -1
v 0.6616696 -0.8921683 -1
v 0.66166985 -0.89216816 1
v 0.66145635 -0.8521664 1
v 0.66145605 -0.8521665 -1
v 0.627238 -0.89325166 -1
v 0.6272382 -0.89325166 1
v 0.66166985 -0.89216816 1
v 0.6616696 -0.8921683 -1
v 0.583334 -0.9244252 -1
v 0.58333427 -0.924425 1
v 0.6242562 -0.923959 1
v 0.624256 -0.9239592 -1
v 0.624256 -0.9239592 -1
v 0.6242562 -0.923959 1
v 0.6272382 -0.89325166 1
v 0.627238 -0.89325166 -1
v -0.70700413 0.24449508 -0.9999998
v -0.7079904 -0.084630914 1.0000001
v -0.7079905 -0.08463087 -0.9999998
v -0.707004 0.24449508 1.0000001
v -0.5967708 -1.6654491 -0.9999997
v -0.59677064 -1.6654491 1.0000002
v -0.59646374 -1.7412317 1.0000002
v -0.59646404 -1.7412317 -0.9999997
v 0.09738766 -1.2568877 -0.9999998
v 0.09738794 -1.2568874 1.0000001
v 0.09717632 -1.0166936 1.0000001
v 0.097176075 -1.0166936 -0.9999998
v 0.76228416 0.8198306 -1
v 0.7622844 0.81983066 1
v 0.76242155 1.5358969 0.9999999
v 0.7624211 1.5358969 -0.9999998
v 0.7043703 0.8205442 -1
v 0.70437056 0.82054424 1
v 0.7622844 0.81983066 1
v 0.76228416 0.8198306 -1
v -0.7608652 -0.08553581 -0.9999998
v -0.76086503 -0.08553583 1.0000001
v -0.7624204 -0.61648893 1.0000002
v -0.76242054 -0.61648893 -0.9999998
v -0.7079905 -0.08463087 -0.9999998
v -0.7079904 -0.084630914 1.0000001
v -0.76086503 -0.08553583 1.0000001
v -0.7608652 -0.08553581 -0.9999998
v 0.6461032 0.40299532 -0.9999998
v 0.6461035 0.4029953 1
v 0.6457714 0.7629923 1
v 0.64577115 0.7629922 -1
v -0.50189495 1.7412344 -0.9999998
v -0.50189465 1.7412344 1.0000001
v -0.502601 1.7041792 1
v -0.50260127 1.7041793 -0.9999997
v 0.6161423 1.7356826 -1
v 0.6161425 1.7356826 1
v -0.50189465 1.7412344 1.0000001
v -0.50189495 1.7412344 -0.9999998
v 0.747845 0.34833983 -0.9999998
v 0.7478453 0.3483398 1
v 0.70124024 0.3491003 1
v 0.70124006 0.34910032 -0.9999998
v -0.6516953 0.24332827 -0.9999998
v -0.707004 0.24449508 1.0000001
v -0.70700413 0.24449508 -0.9999998
v -0.65169513 0.2433283 1.0000001
v -0.6067283 1.6481341 -0.9999998
v -0.6067279 1.648134 1.0000001
v -0.6057177 0.93516743 1.0000001
v -0.60571784 0.9351675 -0.9999998
v -0.5509067 1.6482337 -0.9999998
v -0.5509069 1.6482337 1
v -0.6067279 1.648134 1.0000001
v -0.6067283 1.6481341 -0.9999998
vt 0.56591797 0.72998047
vt 0.57373047 0.72998047
vt 0.57373047 0.72216797
vt 0.41015625 0.7338867
vt 0.56591797 0.734375
vt 0.41015625 0.72998047
vt 0.4033203 0.72216797
vt 0.4033203 0.72998047
vt 0.57373047 0.72216797
vt 0.39526367 0.70654297
vt 0.39526367 0.72216797
vt 0.5649414 0.6142578
vt 0.3955078 0.6088867
vt 0.38745117 0.70654297
vt 0.38745117 0.60839844
vt 0.40405273 0.60058594
vt 0.39575195 0.60058594
vt 0.55810547 0.56689453
vt 0.5649414 0.56689453
vt 0.4038086 0.5498047
vt 0.55810547 0.5498047
vt 0.5732422 0.6225586
vt 0.5732422 0.6147461
vt 0.5805664 0.6225586
vt 0.5805664 0.72216797
vt 0.5654297 0.5336914
vt 0.5654297 0.5498047
vt 0.3959961 0.5415039
vt 0.3959961 0.5493164
vt 0.4025879 0.36328125
vt 0.5888672 0.5258789
vt 0.5888672 0.5336914
vt 0.39501953 0.37158203
vt 0.38867188 0.5410156
vt 0.3881836 0.37182617
vt 0.39501953 0.3635254
vt 0.4116211 0.3564453
vt 0.4033203 0.3569336
vt 0.5966797 0.4794922
vt 0.5966797 0.5263672
vt 0.5883789 0.39501953
vt 0.48168945 0.3503418
vt 0.4116211 0.34936523
vt 0.59716797 0.4033203
vt 0.59716797 0.39501953
vt 0.6044922 0.4033203
vt 0.6044922 0.4790039
vt 0.5883789 0.3305664
vt 0.5805664 0.25390625
vt 0.48168945 0.31567383
vt 0.48217773 0.2548828
vt 0.4741211 0.2548828
vt 0.4741211 0.31567383
vt 0.5805664 0.24304199
vt 0.48217773 0.24316406
vt 0.5878906 0.2626953
vt 0.5878906 0.25390625
vt 0.5957031 0.27075195
vt 0.5957031 0.2626953
vt 0.59716797 0.32348633
vt 0.59716797 0.3305664
vt 0.6040039 0.32348633
vt 0.6044922 0.27075195
vt 0.59716797 0.4033203
vt 0.5883789 0.39501953
vt 0.59716797 0.39501953
vt 0.5966797 0.4794922
vt 0.6044922 0.4033203
vt 0.6044922 0.4790039
vt 0.4116211 0.3564453
vt 0.48168945 0.3503418
vt 0.4116211 0.34936523
vt 0.5883789 0.3305664
vt 0.5888672 0.5258789
vt 0.5966797 0.5263672
vt 0.4025879 0.36328125
vt 0.4033203 0.3569336
vt 0.5805664 0.25390625
vt 0.48168945 0.31567383
vt 0.5654297 0.5336914
vt 0.5888672 0.5336914
vt 0.48217773 0.2548828
vt 0.4741211 0.2548828
vt 0.4741211 0.31567383
vt 0.5805664 0.24304199
vt 0.48217773 0.24316406
vt 0.5878906 0.2626953
vt 0.5878906 0.25390625
vt 0.5957031 0.27075195
vt 0.5957031 0.2626953
vt 0.59716797 0.32348633
vt 0.59716797 0.3305664
vt 0.6040039 0.32348633
vt 0.6044922 0.27075195
vt 0.39501953 0.37158203
vt 0.38867188 0.5410156
vt 0.3881836 0.37182617
vt 0.3959961 0.5415039
vt 0.39501953 0.3635254
vt 0.4038086 0.5498047
vt 0.3959961 0.5493164
vt 0.55810547 0.5498047
vt 0.5654297 0.5498047
vt 0.55810547 0.56689453
vt 0.40405273 0.60058594
vt 0.5649414 0.6142578
vt 0.5649414 0.56689453
vt 0.3955078 0.6088867
vt 0.39575195 0.60058594
vt 0.39526367 0.70654297
vt 0.38745117 0.70654297
vt 0.38745117 0.60839844
vt 0.57373047 0.72216797
vt 0.5732422 0.6225586
vt 0.5732422 0.6147461
vt 0.5805664 0.6225586
vt 0.5805664 0.72216797
vt 0.4033203 0.72216797
vt 0.39526367 0.72216797
vt 0.56591797 0.72998047
vt 0.57373047 0.72998047
vt 0.41015625 0.72998047
vt 0.4033203 0.72998047
vt 0.41015625 0.7338867
vt 0.56591797 0.734375
vt 0.6503906 0.31201172
vt 0.9355469 0.31201172
vt 0.9355469 0.3034668
vt 0.6503906 0.3034668
vt 0.6503906 0.3203125
vt 0.9355469 0.3203125
vt 0.9355469 0.31201172
vt 0.6503906 0.31201172
vt 0.6503906 0.47216797
vt 0.9355469 0.47216797
vt 0.9355469 0.4650879
vt 0.6503906 0.4650879
vt 0.6503906 0.49560547
vt 0.9355469 0.49560547
vt 0.9355469 0.47216797
vt 0.6503906 0.47216797
vt 0.58203125 0.23083496
vt 0.58203125 0.00945282
vt 0.49414062 0.00945282
vt 0.49414062 0.23083496
vt 0.49414062 0.23083496
vt 0.49414062 0.00945282
vt 0.48364258 0.00945282
vt 0.48364258 0.23083496
vt 0.6503906 0.3034668
vt 0.9355469 0.3034668
vt 0.9355469 0.2388916
vt 0.6503906 0.2388916
vt 0.31762695 0.34594727
vt 0.03262329 0.34594727
vt 0.03262329 0.51660156
vt 0.31762695 0.51660156
vt 0.31762695 0.33374023
vt 0.03262329 0.33374023
vt 0.03262329 0.34594727
vt 0.31762695 0.34594727
vt 0.31762695 0.53125
vt 0.03262329 0.53125
vt 0.03262329 0.5390625
vt 0.31762695 0.5390625
vt 0.31762695 0.5229492
vt 0.03262329 0.5229492
vt 0.03262329 0.53125
vt 0.31762695 0.53125
vt 0.35473633 0.74072266
vt 0.35473633 0.99072266
vt 0.3630371 0.99072266
vt 0.3630371 0.74072266
vt 0.31762695 0.59765625
vt 0.03262329 0.59765625
vt 0.03262329 0.60595703
vt 0.31762695 0.60595703
vt 0.31762695 0.58935547
vt 0.03262329 0.58935547
vt 0.03262329 0.59765625
vt 0.31762695 0.59765625
vt 0.6503906 0.13366699
vt 0.9355469 0.13366699
vt 0.9355469 0.12646484
vt 0.6503906 0.12646484
vt 0.6503906 0.14233398
vt 0.9355469 0.14233398
vt 0.9355469 0.13366699
vt 0.6503906 0.13366699
vt 0.6503906 0.15026855
vt 0.9355469 0.15026855
vt 0.9355469 0.14233398
vt 0.6503906 0.14233398
vt 0.6503906 0.15820312
vt 0.9355469 0.15820312
vt 0.9355469 0.15026855
vt 0.6503906 0.15026855
vt 0.6503906 0.32763672
vt 0.9355469 0.32763672
vt 0.9355469 0.3203125
vt 0.6503906 0.3203125
vt 0.6503906 0.22351074
vt 0.9355469 0.22351074
vt 0.9355469 0.2163086
vt 0.6503906 0.2163086
vt 0.6503906 0.16516113
vt 0.9355469 0.16516113
vt 0.9355469 0.15820312
vt 0.6503906 0.15820312
vt 0.6503906 0.2163086
vt 0.9355469 0.2163086
vt 0.9355469 0.16516113
vt 0.6503906 0.16516113
vt 0.6503906 0.2319336
vt 0.9355469 0.2319336
vt 0.9355469 0.22351074
vt 0.6503906 0.22351074
vt 0.6503906 0.2388916
vt 0.9355469 0.2388916
vt 0.9355469 0.2319336
vt 0.6503906 0.2319336
vt 0.6503906 0.6113281
vt 0.9355469 0.6113281
vt 0.9355469 0.6040039
vt 0.6503906 0.6040039
vt 0.6503906 0.6040039
vt 0.9355469 0.6040039
vt 0.9355469 0.59521484
vt 0.6503906 0.59521484
vt 0.6503906 0.5107422
vt 0.9355469 0.5107422
vt 0.9355469 0.49560547
vt 0.6503906 0.49560547
vt 0.6503906 0.5185547
vt 0.9355469 0.5185547
vt 0.9355469 0.5107422
vt 0.6503906 0.5107422
vt 0.6503906 0.5463867
vt 0.9355469 0.5463867
vt 0.9355469 0.5395508
vt 0.6503906 0.5395508
vt 0.6503906 0.59521484
vt 0.9355469 0.59521484
vt 0.9355469 0.5463867
vt 0.6503906 0.5463867
vt 0.6503906 0.5395508
vt 0.9355469 0.5395508
vt 0.9355469 0.5185547
vt 0.6503906 0.5185547
vt 0.48364258 0.23083496
vt 0.48364258 0.00945282
vt 0.4765625 0.00945282
vt 0.4765625 0.23083496
vt 0.42529297 0.23083496
vt 0.42529297 0.00945282
vt 0.41845703 0.00945282
vt 0.41845703 0.23083496
vt 0.4765625 0.23083496
vt 0.4765625 0.00945282
vt 0.42529297 0.00945282
vt 0.42529297 0.23083496
vt 0.39892578 0.74072266
vt 0.39892578 0.99072266
vt 0.40405273 0.99072266
vt 0.40405273 0.74072266
vt 0.3779297 0.74072266
vt 0.38378906 0.99072266
vt 0.38378906 0.74072266
vt 0.3779297 0.99072266
vt 0.3630371 0.74072266
vt 0.3630371 0.99072266
vt 0.3779297 0.99072266
vt 0.3779297 0.74072266
vt 0.6503906 0.6201172
vt 0.9355469 0.6201172
vt 0.9355469 0.6113281
vt 0.6503906 0.6113281
vt 0.5761719 0.74072266
vt 0.5839844 0.99072266
vt 0.5839844 0.74072266
vt 0.5761719 0.99072266
vt 0.56884766 0.74072266
vt 0.56884766 0.99072266
vt 0.5761719 0.99072266
vt 0.5761719 0.74072266
vt 0.38378906 0.74072266
vt 0.38378906 0.99072266
vt 0.39208984 0.99072266
vt 0.39208984 0.74072266
vt 0.39208984 0.74072266
vt 0.39208984 0.99072266
vt 0.39892578 0.99072266
vt 0.39892578 0.74072266
vt 0.38793945 0.23083496
vt 0.38793945 0.00945282
vt 0.32617188 0.00945282
vt 0.32617188 0.23083496
vt 0.31762695 0.29956055
vt 0.03262329 0.29956055
vt 0.03262329 0.31298828
vt 0.31762695 0.31298828
vt 0.31762695 0.328125
vt 0.03262329 0.328125
vt 0.03262329 0.33374023
vt 0.31762695 0.33374023
vt 0.31762695 0.3232422
vt 0.03262329 0.3232422
vt 0.03262329 0.328125
vt 0.31762695 0.328125
vt 0.31762695 0.31298828
vt 0.03262329 0.31298828
vt 0.03262329 0.31884766
vt 0.31762695 0.31884766
vt 0.31762695 0.31884766
vt 0.03262329 0.31884766
vt 0.03262329 0.3232422
vt 0.31762695 0.3232422
vt 0.6503906 0.4572754
vt 0.9355469 0.41064453
vt 0.6503906 0.41064453
vt 0.9355469 0.4572754
vt 0.6503906 0.12646484
vt 0.9355469 0.12646484
vt 0.9355469 0.11566162
vt 0.6503906 0.11566162
vt 0.41845703 0.23083496
vt 0.41845703 0.00945282
vt 0.38793945 0.00945282
vt 0.38793945 0.23083496
vt 0.31762695 0.61376953
vt 0.03262329 0.61376953
vt 0.03262329 0.7158203
vt 0.31762695 0.7158203
vt 0.31762695 0.60595703
vt 0.03262329 0.60595703
vt 0.03262329 0.61376953
vt 0.31762695 0.61376953
vt 0.6503906 0.40307617
vt 0.9355469 0.40307617
vt 0.9355469 0.32763672
vt 0.6503906 0.32763672
vt 0.6503906 0.41064453
vt 0.9355469 0.41064453
vt 0.9355469 0.40307617
vt 0.6503906 0.40307617
vt 0.31762695 0.5390625
vt 0.03262329 0.5390625
vt 0.03262329 0.58935547
vt 0.31762695 0.58935547
vt 0.56347656 0.74072266
vt 0.56347656 0.99072266
vt 0.56884766 0.99072266
vt 0.56884766 0.74072266
vt 0.40405273 0.74072266
vt 0.40405273 0.99072266
vt 0.56347656 0.99072266
vt 0.56347656 0.74072266
vt 0.31762695 0.51660156
vt 0.03262329 0.51660156
vt 0.03262329 0.5229492
vt 0.31762695 0.5229492
vt 0.6503906 0.4650879
vt 0.9355469 0.4572754
vt 0.6503906 0.4572754
vt 0.9355469 0.4650879
vt 0.6503906 0.7216797
vt 0.9355469 0.7216797
vt 0.9355469 0.6201172
vt 0.6503906 0.6201172
vt 0.5839844 0.74072266
vt 0.5839844 0.99072266
vt 0.5913086 0.99072266
vt 0.5913086 0.74072266
vn -1.1920929E-07 0 -1
vn 3.1590462E-06 0 -1
vn 3.1590462E-06 0 -1
vn -2.9802322E-07 0 -1
vn -1.7881393E-07 -4.1127205E-06 -1
vn -2.3841858E-07 -1.1920929E-07 -1
vn -1.1920929E-07 0 -1
vn -0 0 -1
vn -0.36572266 1.7404556E-05 -0.93066406
vn 8.34465E-07 0 -1
vn -0 0 -1
vn -0 0 -1
vn -0 0 -1
vn 2.503395E-06 0 -1
vn -0 2.3841858E-07 -1
vn -0 0 -1
vn -0 0 -1
vn -0 0 -1
vn -0 0 -1
vn -0 -1.1920929E-07 -1
vn -0 0 -1
vn -0 0 -1
vn -0 0 -1
vn -0 0 -1
vn -0 0 -1
vn -0 2.3841858E-07 -1
vn -0 0 -1
vn -0 0 -1
vn -0 0 -1
vn -0 0 -1
vn -2.3841858E-07 8.940697E-07 -1
vn -8.940697E-07 3.0398369E-06 -1
vn -0 1.1920929E-07 -1
vn -0 1.1920929E-07 -1
vn -0 1.1920929E-07 -1
vn -0 0 -1
vn -1.1920929E-07 0 -1
vn -0 0 -1
vn -0 0 -1
vn -0 0 -1
vn -1.1920929E-07 -1.7881393E-07 -1
vn -2.3841858E-07 -2.9802322E-07 -1
vn -2.9802322E-07 0 -1
vn -0 0 -1
vn -0 0 -1
vn -0 0 -1
vn -0 0 -1
vn 2.7418137E-06 0 -1
vn 2.9802322E-07 -3.5762787E-07 -1
vn 7.1525574E-07 1.1920929E-07 -1
vn -1.1920929E-07 0 -1
vn 2.3841858E-07 0 -1
vn 2.861023E-06 3.5762787E-07 -1
vn -2.3841858E-07 0 -1
vn -2.3841858E-07 0 -1
vn 3.993511E-06 1.013279E-06 -1
vn -0 -2.4437904E-06 -1
vn 2.3245811E-06 1.1920929E-06 -1
vn 8.523464E-06 5.4240227E-06 -1
vn 5.00679E-06 0 -1
vn 9.059906E-06 0 -1
vn -3.0994415E-06 0 -1
vn -3.0994415E-06 0 -1
vn 4.172325E-07 0 1
vn 1.7881393E-07 0 1
vn 1.1920929E-07 -5.364418E-07 1
vn -0 0 1
vn -0 1.1920929E-07 1
vn -0 1.1920929E-07 1
vn 1.1920929E-07 0 1
vn 1.1920929E-07 1.1920929E-07 1
vn 1.7881393E-07 0 1
vn -4.7683716E-07 0 1
vn -0 0 1
vn -0 0 1
vn 1.1920929E-07 0 1
vn -0 0 1
vn -0 1.7881393E-07 1
vn 1.7881393E-07 0 1
vn -0 1.7881393E-07 1
vn 1.1920929E-07 0 1
vn 1.1920929E-07 0 1
vn 1.1920929E-07 0 1
vn 1.1920929E-07 0 1
vn 1.1920929E-07 0 1
vn 1.1920929E-07 0 1
vn -4.7683716E-07 1.1920929E-07 1
vn 1.1920929E-07 8.34465E-07 1
vn -0 0 1
vn -0 0 1
vn -6.556511E-07 1.7881393E-07 1
vn -1.5497208E-06 0 1
vn 1.4305115E-06 1.7881393E-07 1
vn -0 0 1
vn 1.1920929E-07 0 1
vn -0 0 1
vn 1.7881393E-07 0 1
vn -0 0 1
vn 1.1920929E-07 0 1
vn -0 0 1
vn -0 0 1
vn -0 1.1920929E-07 1
vn -0 5.364418E-07 1
vn -0 -1.7881393E-07 1
vn 1.1920929E-07 0 1
vn -0 0 1
vn -0 0 1
vn 1.1920929E-07 0 1
vn -0 1.1920929E-07 1
vn 1.7881393E-07 0 1
vn 2.3841858E-07 0 1
vn 1.1920929E-07 0 1
vn -0.31640625 1.4603138E-05 0.94873047
vn -0 0 1
vn -0 0 1
vn -0 1.1920929E-07 1
vn 1.3709068E-06 0 1
vn -0 0 1
vn 1.1920929E-07 0 1
vn -0 -4.7683716E-07 1
vn -0.7084961 3.2663345E-05 0.7055664
vn -0 0 1
vn 1.7881393E-07 0 1
vn -0 0 1
vn 1.1920929E-07 -1.3709068E-06 1
vn -0.008583069 -1 0
vn -0.008583069 -1 0
vn -0.008583069 -1 0
vn -0.008583069 -1 0
vn -1 0.0042762756 1.1920929E-07
vn -1 0.0042762756 1.1920929E-07
vn -1 0.0042762756 1.1920929E-07
vn -1 0.0042762756 1.1920929E-07
vn -1 -0.010032654 0
vn -1 -0.010032654 0
vn -1 -0.010032654 0
vn -1 -0.010032654 0
vn 0.021881104 1 0
vn 0.021881104 1 0
vn 0.021881104 1 0
vn 0.021881104 1 0
vn 3.5762787E-07 -1 0
vn 3.5762787E-07 -1 0
vn 3.5762787E-07 -1 0
vn 3.5762787E-07 -1 0
vn 1 -0.011329651 -1.1920929E-07
vn 1 -0.011329651 -1.1920929E-07
vn 1 -0.011329651 -1.1920929E-07
vn 1 -0.011329651 -1.1920929E-07
vn -1 0.00013267994 1.1920929E-07
vn -1 0.00013267994 1.1920929E-07
vn -1 0.00013267994 1.1920929E-07
vn -1 0.00013267994 1.1920929E-07
vn 1 -0.00027108192 -1.7881393E-07
vn 1 -0.00027108192 -1.7881393E-07
vn 1 -0.00027108192 -1.7881393E-07
vn 1 -0.00027108192 -1.7881393E-07
vn 0.038391113 -0.99902344 0
vn 0.038391113 -0.99902344 0
vn 0.038391113 -0.99902344 0
vn 0.038391113 -0.99902344 0
vn 0.012107849 1 0
vn 0.012107849 1 0
vn 0.012107849 1 0
vn 0.012107849 1 0
vn 1 0.0053215027 -1.1920929E-07
vn 1 0.0053215027 -1.1920929E-07
vn 1 0.0053215027 -1.1920929E-07
vn 1 0.0053215027 -1.1920929E-07
vn -0.011680603 1 0
vn -0.011680603 1 0
vn -0.011680603 1 0
vn -0.011680603 1 0
vn 1 -0.017684937 0
vn 1 -0.017684937 0
vn 1 -0.017684937 0
vn 1 -0.017684937 0
vn 0.012138367 -1 0
vn 0.012138367 -1 0
vn 0.012138367 -1 0
vn 0.012138367 -1 0
vn 0.0014438629 -1 1.7881393E-07
vn 0.0014438629 -1 1.7881393E-07
vn 0.0014438629 -1 1.7881393E-07
vn 0.0014438629 -1 1.7881393E-07
vn -1 -0.013008118 0
vn -1 -0.013008118 0
vn -1 -0.013008118 0
vn -1 -0.013008118 0
vn -0.0011606216 -1 0
vn -0.0011606216 -1 0
vn -0.0011606216 -1 0
vn -0.0011606216 -1 0
vn -1 0.0003657341 0
vn -1 0.0003657341 0
vn -1 0.0003657341 0
vn -1 0.0003657341 0
vn -0.007041931 -1 0
vn -0.007041931 -1 0
vn -0.007041931 -1 0
vn -0.007041931 -1 0
vn -0.010017395 1 0
vn -0.010017395 1 0
vn -0.010017395 1 0
vn -0.010017395 1 0
vn -0.015777588 -1 1.7881393E-07
vn -0.015777588 -1 1.7881393E-07
vn -0.015777588 -1 1.7881393E-07
vn -0.015777588 -1 1.7881393E-07
vn -1 0.00044751167 0
vn -1 0.00044751167 0
vn -1 0.00044751167 0
vn -1 0.00044751167 0
vn -1 1.3113022E-06 0
vn -1 1.3113022E-06 0
vn -1 1.3113022E-06 0
vn -1 1.3113022E-06 0
vn -3.0398369E-06 1 0
vn -3.0398369E-06 1 0
vn -3.0398369E-06 1 0
vn -3.0398369E-06 1 0
vn -1 -0.0014867783 0
vn -1 -0.0014867783 0
vn -1 -0.0014867783 0
vn -1 -0.0014867783 0
vn -0.003129959 -1 0
vn -0.003129959 -1 0
vn -0.003129959 -1 0
vn -0.003129959 -1 0
vn -1 0.0034732819 1.1920929E-07
vn -1 0.0034732819 1.1920929E-07
vn -1 0.0034732819 1.1920929E-07
vn -1 0.0034732819 1.1920929E-07
vn 0.006713867 1 0
vn 0.006713867 1 0
vn 0.006713867 1 0
vn 0.006713867 1 0
vn -0.0039787292 -1 0
vn -0.0039787292 -1 0
vn -0.0039787292 -1 0
vn -0.0039787292 -1 0
vn -1 0.00031733513 1.1920929E-07
vn -1 0.00031733513 1.1920929E-07
vn -1 0.00031733513 1.1920929E-07
vn -1 0.00031733513 1.1920929E-07
vn -1 -0.0044784546 0
vn -1 -0.0044784546 0
vn -1 -0.0044784546 0
vn -1 -0.0044784546 0
vn -0.0027332306 -1 0
vn -0.0027332306 -1 0
vn -0.0027332306 -1 0
vn -0.0027332306 -1 0
vn 2.861023E-06 1 0
vn 2.861023E-06 1 0
vn 2.861023E-06 1 0
vn 2.861023E-06 1 0
vn 1 -0.0011520386 -1.1920929E-07
vn 1 -0.0011520386 -1.1920929E-07
vn 1 -0.0011520386 -1.1920929E-07
vn 1 -0.0011520386 -1.1920929E-07
vn 1 -2.1457672E-06 -1.1920929E-07
vn 1 -2.1457672E-06 -1.1920929E-07
vn 1 -2.1457672E-06 -1.1920929E-07
vn 1 -2.1457672E-06 -1.1920929E-07
vn 0.012207031 1 0
vn 0.012207031 1 0
vn 0.012207031 1 0
vn 0.012207031 1 0
vn 1 -0.000813961 -1.1920929E-07
vn 1 -0.000813961 -1.1920929E-07
vn 1 -0.000813961 -1.1920929E-07
vn 1 -0.000813961 -1.1920929E-07
vn 0.0033245087 -1 0
vn 0.0033245087 -1 0
vn 0.0033245087 -1 0
vn 0.0033245087 -1 0
vn -1 4.607439E-05 0
vn -0.31640625 1.4603138E-05 0.94873047
vn -0.36572266 1.7404556E-05 -0.93066406
vn -0.7084961 3.2663345E-05 0.7055664
vn 0.006893158 1 0
vn 0.006893158 1 0
vn 0.006893158 1 0
vn 0.006893158 1 0
vn 1 -0.0021877289 -1.1920929E-07
vn 1 -0.0021877289 -1.1920929E-07
vn 1 -0.0021877289 -1.1920929E-07
vn 1 -0.0021877289 -1.1920929E-07
vn 0.01525116 1 0
vn 0.01525116 1 0
vn 0.01525116 1 0
vn 0.01525116 1 0
vn -0.0020122528 -1 0
vn -0.0020122528 -1 0
vn -0.0020122528 -1 0
vn -0.0020122528 -1 0
vn 1 -0.006942749 -1.1920929E-07
vn 1 -0.006942749 -1.1920929E-07
vn 1 -0.006942749 -1.1920929E-07
vn 1 -0.006942749 -1.1920929E-07
vn 1 0.0053367615 -1.1920929E-07
vn 1 0.0053367615 -1.1920929E-07
vn 1 0.0053367615 -1.1920929E-07
vn 1 0.0053367615 -1.1920929E-07
vn 0.031463623 -0.9995117 0
vn 0.031463623 -0.9995117 0
vn 0.031463623 -0.9995117 0
vn 0.031463623 -0.9995117 0
vn 0.011383057 -1 0
vn 0.011383057 -1 0
vn 0.011383057 -1 0
vn 0.011383057 -1 0
vn 0.9951172 -0.09667969 0
vn 0.9951172 -0.09667969 0
vn 0.9951172 -0.09667969 0
vn 0.9951172 -0.09667969 0
vn -1 0.0029964447 0
vn -1 0.0029964447 0
vn -1 0.0029964447 0
vn -1 0.0029964447 0
vn -1 -0.0040512085 1.1920929E-07
vn -1 -0.0040512085 1.1920929E-07
vn -1 -0.0040512085 1.1920929E-07
vn -1 -0.0040512085 1.1920929E-07
vn 1 0.00088119507 -1.1920929E-07
vn 1 0.00088119507 -1.1920929E-07
vn 1 0.00088119507 -1.1920929E-07
vn 1 0.00088119507 -1.1920929E-07
vn 1 -0.00019145012 -1.7881393E-07
vn 1 -0.00019145012 -1.7881393E-07
vn 1 -0.00019145012 -1.7881393E-07
vn 1 -0.00019145012 -1.7881393E-07
vn -0.012321472 -1 0
vn -0.012321472 -1 0
vn -0.012321472 -1 0
vn -0.012321472 -1 0
vn -1 0.0029296875 0
vn -1 0.0029296875 0
vn -1 0.0029296875 0
vn -1 0.0029296875 0
vn -0.017105103 1 0
vn -0.017105103 1 0
vn -0.017105103 1 0
vn -0.017105103 1 0
vn 1 0.00092220306 -1.1920929E-07
vn 1 0.00092220306 -1.1920929E-07
vn 1 0.00092220306 -1.1920929E-07
vn 1 0.00092220306 -1.1920929E-07
vn -1 0.019058228 1.1920929E-07
vn -1 0.019058228 1.1920929E-07
vn -1 0.019058228 1.1920929E-07
vn -1 0.019058228 1.1920929E-07
vn 0.004966736 1 0
vn 0.004966736 1 0
vn 0.004966736 1 0
vn 0.004966736 1 0
vn 0.016311646 1 0
vn 0.016311646 1 0
vn 0.016311646 1 0
vn 0.016311646 1 0
vn 0.021087646 1 0
vn 0.021087646 1 0
vn 0.021087646 1 0
vn 0.021087646 1 0
vn -1 -0.00141716 1.1920929E-07
vn -1 -0.00141716 1.1920929E-07
vn -1 -0.00141716 1.1920929E-07
vn -1 -0.00141716 1.1920929E-07
vn -0.001783371 1 0
vn -0.001783371 1 0
vn -0.001783371 1 0
vn -0.001783371 1 0
g Rocks_Small_006_0
f 3/3/3 2/2/2 1/1/1
f 5/5/5 4/4/4 1/1/1
f 4/4/4 6/6/6 1/1/1
f 6/6/6 7/7/7 1/1/1
f 7/7/7 6/6/6 8/8/8
f 1/1/1 7/7/7 9/9/9
f 7/7/7 10/10/10 9/9/9
f 11/11/11 10/10/10 7/7/7
f 10/10/10 12/12/12 9/9/9
f 13/13/13 12/12/12 10/10/10
f 14/14/14 13/13/13 10/10/10
f 15/15/15 13/13/13 14/14/14
f 16/16/16 12/12/12 13/13/13
f 17/17/17 16/16/16 13/13/13
f 12/12/12 16/16/16 18/18/18
f 19/19/19 12/12/12 18/18/18
f 16/16/16 20/20/20 18/18/18
f 18/18/18 20/20/20 21/21/21
f 9/9/9 12/12/12 22/22/22
f 22/22/22 12/12/12 23/23/23
f 24/24/24 9/9/9 22/22/22
f 25/25/25 9/9/9 24/24/24
f 20/20/20 26/26/26 21/21/21
f 26/26/26 27/27/27 21/21/21
f 26/26/26 20/20/20 28/28/28
f 29/29/29 28/28/28 20/20/20
f 28/28/28 30/30/30 26/26/26
f 26/26/26 30/30/30 31/31/31
f 32/32/32 26/26/26 31/31/31
f 33/33/33 30/30/30 28/28/28
f 34/34/34 33/33/33 28/28/28
f 35/35/35 33/33/33 34/34/34
f 36/36/36 30/30/30 33/33/33
f 30/30/30 37/37/37 31/31/31
f 37/37/37 30/30/30 38/38/38
f 31/31/31 37/37/37 39/39/39
f 40/40/40 31/31/31 39/39/39
f 39/39/39 37/37/37 41/41/41
f 41/41/41 37/37/37 42/42/42
f 42/42/42 37/37/37 43/43/43
f 44/44/44 39/39/39 41/41/41
f 45/45/45 44/44/44 41/41/41
f 46/46/46 39/39/39 44/44/44
f 47/47/47 39/39/39 46/46/46
f 48/48/48 41/41/41 42/42/42
f 49/49/49 48/48/48 42/42/42
f 50/50/50 49/49/49 42/42/42
f 51/51/51 49/49/49 50/50/50
f 52/52/52 51/51/51 50/50/50
f 53/53/53 52/52/52 50/50/50
f 49/49/49 51/51/51 54/54/54
f 54/54/54 51/51/51 55/55/55
f 56/56/56 48/48/48 49/49/49
f 57/57/57 56/56/56 49/49/49
f 58/58/58 48/48/48 56/56/56
f 59/59/59 58/58/58 56/56/56
f 48/48/48 58/58/58 60/60/60
f 61/61/61 48/48/48 60/60/60
f 58/58/58 62/62/62 60/60/60
f 58/58/58 63/63/63 62/62/62
f 66/66/66 65/65/65 64/64/64
f 64/64/64 65/65/65 67/67/67
f 68/68/68 64/64/64 67/67/67
f 69/69/69 68/68/68 67/67/67
f 67/67/67 65/65/65 70/70/70
f 65/65/65 71/71/71 70/70/70
f 71/71/71 72/72/72 70/70/70
f 73/73/73 71/71/71 65/65/65
f 74/74/74 67/67/67 70/70/70
f 75/75/75 67/67/67 74/74/74
f 76/76/76 74/74/74 70/70/70
f 70/70/70 77/77/77 76/76/76
f 78/78/78 71/71/71 73/73/73
f 79/79/79 71/71/71 78/78/78
f 80/80/80 74/74/74 76/76/76
f 81/81/81 74/74/74 80/80/80
f 82/82/82 79/79/79 78/78/78
f 83/83/83 79/79/79 82/82/82
f 84/84/84 79/79/79 83/83/83
f 78/78/78 85/85/85 82/82/82
f 85/85/85 86/86/86 82/82/82
f 87/87/87 78/78/78 73/73/73
f 88/88/88 78/78/78 87/87/87
f 89/89/89 87/87/87 73/73/73
f 90/90/90 87/87/87 89/89/89
f 73/73/73 91/91/91 89/89/89
f 92/92/92 91/91/91 73/73/73
f 89/89/89 91/91/91 93/93/93
f 89/89/89 93/93/93 94/94/94
f 97/97/97 96/96/96 95/95/95
f 96/96/96 98/98/98 95/95/95
f 95/95/95 98/98/98 76/76/76
f 99/99/99 95/95/95 76/76/76
f 98/98/98 80/80/80 76/76/76
f 80/80/80 98/98/98 100/100/100
f 101/101/101 100/100/100 98/98/98
f 100/100/100 102/102/102 80/80/80
f 80/80/80 102/102/102 103/103/103
f 104/104/104 102/102/102 100/100/100
f 105/105/105 104/104/104 100/100/100
f 106/106/106 104/104/104 105/105/105
f 107/107/107 104/104/104 106/106/106
f 108/108/108 106/106/106 105/105/105
f 109/109/109 108/108/108 105/105/105
f 108/108/108 110/110/110 106/106/106
f 111/111/111 110/110/110 108/108/108
f 112/112/112 111/111/111 108/108/108
f 106/106/106 110/110/110 113/113/113
f 114/114/114 106/106/106 113/113/113
f 114/114/114 115/115/115 106/106/106
f 116/116/116 114/114/114 113/113/113
f 117/117/117 116/116/116 113/113/113
f 113/113/113 110/110/110 118/118/118
f 119/119/119 118/118/118 110/110/110
f 120/120/120 113/113/113 118/118/118
f 120/120/120 121/121/121 113/113/113
f 122/122/122 120/120/120 118/118/118
f 118/118/118 123/123/123 122/122/122
f 124/124/124 120/120/120 122/122/122
f 125/125/125 120/120/120 124/124/124
f 128/128/128 127/127/127 126/126/126
f 129/129/129 128/128/128 126/126/126
f 132/132/132 131/131/131 130/130/130
f 133/133/133 132/132/132 130/130/130
f 136/136/136 135/135/135 134/134/134
f 137/137/137 136/136/136 134/134/134
f 140/140/140 139/139/139 138/138/138
f 141/141/141 140/140/140 138/138/138
f 144/144/144 143/143/143 142/142/142
f 145/145/145 144/144/144 142/142/142
f 148/148/148 147/147/147 146/146/146
f 149/149/149 148/148/148 146/146/146
f 152/152/152 151/151/151 150/150/150
f 153/153/153 152/152/152 150/150/150
f 156/156/156 155/155/155 154/154/154
f 157/157/157 156/156/156 154/154/154
f 160/160/160 159/159/159 158/158/158
f 161/161/161 160/160/160 158/158/158
f 164/164/164 163/163/163 162/162/162
f 165/165/165 164/164/164 162/162/162
f 168/168/168 167/167/167 166/166/166
f 169/169/169 168/168/168 166/166/166
f 172/172/172 171/171/171 170/170/170
f 173/173/173 172/172/172 170/170/170
f 176/176/176 175/175/175 174/174/174
f 177/177/177 176/176/176 174/174/174
f 180/180/180 179/179/179 178/178/178
f 181/181/181 180/180/180 178/178/178
f 184/184/184 183/183/183 182/182/182
f 185/185/185 184/184/184 182/182/182
f 188/188/188 187/187/187 186/186/186
f 189/189/189 188/188/188 186/186/186
f 192/192/192 191/191/191 190/190/190
f 193/193/193 192/192/192 190/190/190
f 196/196/196 195/195/195 194/194/194
f 197/197/197 196/196/196 194/194/194
f 200/200/200 199/199/199 198/198/198
f 201/201/201 200/200/200 198/198/198
f 204/204/204 203/203/203 202/202/202
f 205/205/205 204/204/204 202/202/202
f 208/208/208 207/207/207 206/206/206
f 209/209/209 208/208/208 206/206/206
f 212/212/212 211/211/211 210/210/210
f 213/213/213 212/212/212 210/210/210
f 216/216/216 215/215/215 214/214/214
f 217/217/217 216/216/216 214/214/214
f 220/220/220 219/219/219 218/218/218
f 221/221/221 220/220/220 218/218/218
f 224/224/224 223/223/223 222/222/222
f 225/225/225 224/224/224 222/222/222
f 228/228/228 227/227/227 226/226/226
f 229/229/229 228/228/228 226/226/226
f 232/232/232 231/231/231 230/230/230
f 233/233/233 232/232/232 230/230/230
f 236/236/236 235/235/235 234/234/234
f 237/237/237 236/236/236 234/234/234
f 240/240/240 239/239/239 238/238/238
f 241/241/241 240/240/240 238/238/238
f 244/244/244 243/243/243 242/242/242
f 245/245/245 244/244/244 242/242/242
f 248/248/248 247/247/247 246/246/246
f 249/249/249 248/248/248 246/246/246
f 252/252/252 251/251/251 250/250/250
f 253/253/253 252/252/252 250/250/250
f 256/256/256 255/255/255 254/254/254
f 257/257/257 256/256/256 254/254/254
f 260/260/260 259/259/259 258/258/258
f 261/261/261 260/260/260 258/258/258
f 264/264/264 263/263/263 262/262/262
f 265/265/265 264/264/264 262/262/262
f 268/268/268 267/267/267 266/266/266
f 269/269/269 266/266/266 267/267/267
f 272/272/272 271/271/271 270/270/270
f 273/273/273 272/272/272 270/270/270
f 276/276/276 275/275/275 274/274/274
f 277/277/277 276/276/276 274/274/274
f 280/280/280 279/279/279 278/278/278
f 281/281/281 278/278/278 279/279/279
f 284/284/284 283/283/283 282/282/282
f 285/285/285 284/284/284 282/282/282
f 288/288/288 287/287/287 286/286/286
f 289/289/289 288/288/288 286/286/286
f 292/292/292 291/291/291 290/290/290
f 293/293/293 292/292/292 290/290/290
f 296/296/296 295/295/295 294/294/294
f 297/297/297 296/296/296 294/294/294
f 300/300/300 299/299/299 298/298/298
f 301/301/301 300/300/300 298/298/298
f 304/304/304 303/303/303 302/302/302
f 305/305/305 304/304/304 302/302/302
f 308/308/308 307/307/307 306/306/306
f 309/309/309 308/308/308 306/306/306
f 312/312/312 311/311/311 310/310/310
f 313/313/313 312/312/312 310/310/310
f 316/316/316 315/315/315 314/314/314
f 317/317/317 316/316/316 314/314/314
f 320/320/320 319/319/319 318/318/318
f 321/321/321 318/318/318 319/319/319
f 324/324/324 323/323/323 322/322/322
f 325/325/325 324/324/324 322/322/322
f 328/328/328 327/327/327 326/326/326
f 329/329/329 328/328/328 326/326/326
f 332/332/332 331/331/331 330/330/330
f 333/333/333 332/332/332 330/330/330
f 336/336/336 335/335/335 334/334/334
f 337/337/337 336/336/336 334/334/334
f 340/340/340 339/339/339 338/338/338
f 341/341/341 340/340/340 338/338/338
f 344/344/344 343/343/343 342/342/342
f 345/345/345 344/344/344 342/342/342
f 348/348/348 347/347/347 346/346/346
f 349/349/349 348/348/348 346/346/346
f 352/352/352 351/351/351 350/350/350
f 353/353/353 352/352/352 350/350/350
f 356/356/356 355/355/355 354/354/354
f 357/357/357 356/356/356 354/354/354
f 360/360/360 359/359/359 358/358/358
f 361/361/361 360/360/360 358/358/358
f 364/364/364 363/363/363 362/362/362
f 365/365/365 362/362/362 363/363/363
f 368/368/368 367/367/367 366/366/366
f 369/369/369 368/368/368 366/366/366
f 372/372/372 371/371/371 370/370/370
f 373/373/373 372/372/372 370/370/370
