g Rocks_Small_008
v -0.4290657 -1.0018495 -0.999926
v -0.429062 -1.0586814 -0.999926
v -0.37511027 -1.0587468 -0.999926
v -0.37511027 -1.0587468 -0.999926
v 0.42918944 -1.0597018 -0.999926
v -0.37479538 -1.1431369 -0.999926
v 0.42917994 -1.1420872 -0.999926
v -0.42014694 -0.28730813 -0.999926
v -0.5212766 -1.0018493 -0.999926
v -0.5196032 -0.28885323 -0.999926
v 0.48568863 -1.00201 -0.999926
v 0.48623282 -1.0599912 -0.999926
v -0.3714465 -0.23247157 -0.9999258
v -0.4201468 -0.23141032 -0.9999258
v 0.48683184 -0.06044675 -1.000074
v -0.37266013 -0.05800422 -1.0000726
v 0.51838976 -0.060965594 -1.000074
v 0.5159822 -1.0021143 -0.999926
v 0.48690173 0.16001704 -0.999926
v -0.42033046 0.0011122607 -0.9999252
v -0.42015615 -0.055327374 -1.0000681
v 0.48760068 1.0443896 -0.999926
v 0.51900244 0.1611886 -0.999926
v 0.5212773 1.0443977 -0.999926
v -0.35926306 1.1048087 -0.999926
v 0.44545752 1.1002725 -0.999926
v 0.48760074 1.0998535 -0.999926
v -0.3589001 1.1422299 -0.999926
v 0.4459468 1.1431413 -0.999926
v -0.42895114 1.0437392 -0.999926
v -0.42895257 1.1043905 -0.999926
v -0.5028638 1.0448437 -0.9999258
v -0.5036607 -0.00059883116 -0.9999258
v -0.429062 -1.0586814 1.000074
v -0.4290657 -1.0018495 1.000074
v -0.37511027 -1.0587468 1.000074
v 0.42918944 -1.0597018 1.000074
v -0.37511027 -1.0587468 1.000074
v -0.37479538 -1.1431369 1.000074
v 0.42917994 -1.1420872 1.000074
v -0.42014694 -0.28730813 1.000074
v -0.5212766 -1.0018493 1.000074
v -0.5196032 -0.28885323 1.000074
v 0.48573875 -1.0018495 1.000074
v 0.48623282 -1.0599912 1.000074
v -0.37139082 -0.23190628 1.000074
v -0.4201468 -0.23141032 1.000074
v 0.48691404 -0.06062631 0.9999259
v -0.37233454 -0.060288966 0.9999259
v 0.51839 -0.060650878 0.9999259
v 0.5159817 -1.0017996 1.000074
v 0.48691404 0.15956542 1.000074
v -0.42015615 -0.00058593747 1.000074
v -0.42015615 -0.060288973 0.9999259
v 0.48760068 1.0443896 1.000074
v 0.51900244 0.1611886 1.000074
v 0.5212773 1.0443977 1.000074
v -0.35926306 1.1048087 1.000074
v 0.44545752 1.1002725 1.000074
v 0.48760074 1.0998535 1.000074
v -0.3589001 1.1422299 1.000074
v 0.4459468 1.1431413 1.000074
v -0.42895114 1.0437392 1.000074
v -0.42895257 1.1043905 1.000074
v -0.5028638 1.0448437 1.000074
v -0.5036607 -0.00059883116 1.000074
v 0.48623282 -1.0599912 -0.999926
v 0.48623282 -1.0599912 1.000074
v 0.48573875 -1.0018495 1.000074
v 0.48568863 -1.00201 -0.999926
v 0.42918944 -1.0597018 -0.999926
v 0.42918944 -1.0597018 1.000074
v 0.48623282 -1.0599912 1.000074
v 0.48623282 -1.0599912 -0.999926
v -0.37511027 -1.0587468 -0.999926
v -0.37511027 -1.0587468 1.000074
v -0.37479538 -1.1431369 1.000074
v -0.37479538 -1.1431369 -0.999926
v -0.42033046 0.0011122607 -0.9999252
v -0.42015615 -0.00058593747 1.000074
v -0.42015615 -0.060288973 0.9999259
v -0.42015615 -0.055327374 -1.0000681
v -0.42015615 -0.055327374 -1.0000681
v -0.42015615 -0.060288973 0.9999259
v -0.37233454 -0.060288966 0.9999259
v -0.37266013 -0.05800422 -1.0000726
v -0.4201468 -0.23141032 -0.9999258
v -0.4201468 -0.23141032 1.000074
v -0.42014694 -0.28730813 1.000074
v -0.42014694 -0.28730813 -0.999926
v -0.3714465 -0.23247157 -0.9999258
v -0.37139082 -0.23190628 1.000074
v -0.4201468 -0.23141032 1.000074
v -0.4201468 -0.23141032 -0.9999258
v -0.5212766 -1.0018493 -0.999926
v -0.5212766 -1.0018493 1.000074
v -0.4290657 -1.0018495 1.000074
v -0.4290657 -1.0018495 -0.999926
v -0.5196032 -0.28885323 -0.999926
v -0.5196032 -0.28885323 1.000074
v -0.5212766 -1.0018493 1.000074
v -0.5212766 -1.0018493 -0.999926
v -0.42014694 -0.28730813 -0.999926
v -0.42014694 -0.28730813 1.000074
v -0.5196032 -0.28885323 1.000074
v -0.5196032 -0.28885323 -0.999926
v -0.37266013 -0.05800422 -1.0000726
v -0.37233454 -0.060288966 0.9999259
v -0.37139082 -0.23190628 1.000074
v -0.3714465 -0.23247157 -0.9999258
v 0.48683184 -0.06044675 -1.000074
v 0.48691404 -0.06062631 0.9999259
v 0.48691404 0.15956542 1.000074
v 0.48690173 0.16001704 -0.999926
v 0.51838976 -0.060965594 -1.000074
v 0.51839 -0.060650878 0.9999259
v 0.48691404 -0.06062631 0.9999259
v 0.48683184 -0.06044675 -1.000074
v -0.429062 -1.0586814 -0.999926
v -0.429062 -1.0586814 1.000074
v -0.37511027 -1.0587468 1.000074
v -0.37511027 -1.0587468 -0.999926
v -0.4290657 -1.0018495 -0.999926
v -0.4290657 -1.0018495 1.000074
v -0.429062 -1.0586814 1.000074
v -0.429062 -1.0586814 -0.999926
v -0.35926306 1.1048087 -0.999926
v -0.35926306 1.1048087 1.000074
v -0.42895257 1.1043905 1.000074
v -0.42895257 1.1043905 -0.999926
v -0.42895257 1.1043905 -0.999926
v -0.42895257 1.1043905 1.000074
v -0.42895114 1.0437392 1.000074
v -0.42895114 1.0437392 -0.999926
v -0.5036607 -0.00059883116 -0.9999258
v -0.5036607 -0.00059883116 1.000074
v -0.42015615 -0.00058593747 1.000074
v -0.42033046 0.0011122607 -0.9999252
v -0.5028638 1.0448437 -0.9999258
v -0.5028638 1.0448437 1.000074
v -0.5036607 -0.00059883116 1.000074
v -0.5036607 -0.00059883116 -0.9999258
v -0.42895114 1.0437392 -0.999926
v -0.42895114 1.0437392 1.000074
v -0.5028638 1.0448437 1.000074
v -0.5028638 1.0448437 -0.9999258
v -0.3589001 1.1422299 -0.999926
v -0.3589001 1.1422299 1.000074
v -0.35926306 1.1048087 1.000074
v -0.35926306 1.1048087 -0.999926
v 0.4459468 1.1431413 -0.999926
v 0.4459468 1.1431413 1.000074
v -0.3589001 1.1422299 1.000074
v -0.3589001 1.1422299 -0.999926
v 0.44545752 1.1002725 -0.999926
v 0.44545752 1.1002725 1.000074
v 0.4459468 1.1431413 1.000074
v 0.4459468 1.1431413 -0.999926
v 0.48760074 1.0998535 -0.999926
v 0.48760074 1.0998535 1.000074
v 0.44545752 1.1002725 1.000074
v 0.44545752 1.1002725 -0.999926
v 0.48760068 1.0443896 -0.999926
v 0.48760068 1.0443896 1.000074
v 0.48760074 1.0998535 1.000074
v 0.48760074 1.0998535 -0.999926
v 0.48690173 0.16001704 -0.999926
v 0.48691404 0.15956542 1.000074
v 0.51900244 0.1611886 1.000074
v 0.51900244 0.1611886 -0.999926
v 0.42917994 -1.1420872 -0.999926
v 0.42917994 -1.1420872 1.000074
v 0.42918944 -1.0597018 1.000074
v 0.42918944 -1.0597018 -0.999926
v -0.37479538 -1.1431369 -0.999926
v -0.37479538 -1.1431369 1.000074
v 0.42917994 -1.1420872 1.000074
v 0.42917994 -1.1420872 -0.999926
v 0.5159822 -1.0021143 -0.999926
v 0.5159817 -1.0017996 1.000074
v 0.51839 -0.060650878 0.9999259
v 0.51838976 -0.060965594 -1.000074
v 0.48568863 -1.00201 -0.999926
v 0.48573875 -1.0018495 1.000074
v 0.5159817 -1.0017996 1.000074
v 0.5159822 -1.0021143 -0.999926
v 0.5212773 1.0443977 -0.999926
v 0.5212773 1.0443977 1.000074
v 0.48760068 1.0443896 1.000074
v 0.48760068 1.0443896 -0.999926
v 0.51900244 0.1611886 -0.999926
v 0.51900244 0.1611886 1.000074
v 0.5212773 1.0443977 1.000074
v 0.5212773 1.0443977 -0.999926
vt 0.5708008 0.359375
vt 0.5703125 0.35180664
vt 0.5620117 0.35180664
vt 0.5620117 0.35180664
vt 0.44580078 0.35131836
vt 0.5620117 0.3400879
vt 0.44580078 0.3400879
vt 0.5703125 0.4609375
vt 0.58203125 0.359375
vt 0.58203125 0.4609375
vt 0.43725586 0.35961914
vt 0.43725586 0.35131836
vt 0.5620117 0.46801758
vt 0.5703125 0.46801758
vt 0.43847656 0.49243164
vt 0.5620117 0.49243164
vt 0.4338379 0.49243164
vt 0.4338379 0.35986328
vt 0.43847656 0.52441406
vt 0.5698242 0.50146484
vt 0.5698242 0.49243164
vt 0.43920898 0.64697266
vt 0.43432617 0.52441406
vt 0.43432617 0.64697266
vt 0.5595703 0.65527344
vt 0.44482422 0.65527344
vt 0.43896484 0.65527344
vt 0.5595703 0.66064453
vt 0.44458008 0.66064453
vt 0.5698242 0.64697266
vt 0.5698242 0.65527344
vt 0.5810547 0.64697266
vt 0.5810547 0.50146484
vt 0.5703125 0.35180664
vt 0.5708008 0.359375
vt 0.5620117 0.35180664
vt 0.44580078 0.35131836
vt 0.5620117 0.35180664
vt 0.5620117 0.3400879
vt 0.44580078 0.3400879
vt 0.5703125 0.4609375
vt 0.58203125 0.359375
vt 0.58203125 0.4609375
vt 0.43725586 0.35961914
vt 0.43725586 0.35131836
vt 0.5620117 0.46801758
vt 0.5703125 0.46801758
vt 0.43847656 0.49243164
vt 0.5620117 0.49243164
vt 0.4338379 0.49243164
vt 0.4338379 0.35986328
vt 0.43847656 0.52441406
vt 0.5698242 0.50146484
vt 0.5698242 0.49243164
vt 0.43920898 0.64697266
vt 0.43432617 0.52441406
vt 0.43432617 0.64697266
vt 0.5595703 0.65527344
vt 0.44482422 0.65527344
vt 0.43896484 0.65527344
vt 0.5595703 0.66064453
vt 0.44458008 0.66064453
vt 0.5698242 0.64697266
vt 0.5698242 0.65527344
vt 0.5810547 0.64697266
vt 0.5810547 0.50146484
vt 0.30688477 0.33935547
vt 0.021942139 0.33935547
vt 0.021942139 0.34765625
vt 0.30688477 0.34765625
vt 0.30688477 0.33129883
vt 0.021942139 0.33129883
vt 0.021942139 0.33935547
vt 0.30688477 0.33935547
vt 0.6513672 0.28076172
vt 0.93603516 0.28027344
vt 0.93603516 0.26831055
vt 0.6513672 0.2685547
vt 0.65185547 0.48779297
vt 0.93652344 0.48779297
vt 0.93652344 0.47924805
vt 0.65185547 0.47998047
vt 0.65185547 0.47998047
vt 0.93652344 0.47924805
vt 0.93652344 0.4724121
vt 0.65185547 0.47314453
vt 0.65185547 0.43798828
vt 0.93652344 0.4375
vt 0.93652344 0.43310547
vt 0.6513672 0.4333496
vt 0.65185547 0.44482422
vt 0.93652344 0.44458008
vt 0.93652344 0.4375
vt 0.65185547 0.43798828
vt 0.6513672 0.3095703
vt 0.93652344 0.30908203
vt 0.93652344 0.29614258
vt 0.6513672 0.29638672
vt 0.6513672 0.41918945
vt 0.93652344 0.4189453
vt 0.93652344 0.30908203
vt 0.6513672 0.3095703
vt 0.6513672 0.4333496
vt 0.93652344 0.43310547
vt 0.93652344 0.4189453
vt 0.6513672 0.41918945
vt 0.65185547 0.47314453
vt 0.93652344 0.4724121
vt 0.93652344 0.44458008
vt 0.65185547 0.44482422
vt 0.30688477 0.4855957
vt 0.021942139 0.4855957
vt 0.02192688 0.51708984
vt 0.30688477 0.51708984
vt 0.30688477 0.48413086
vt 0.021942139 0.48413086
vt 0.021942139 0.4855957
vt 0.30688477 0.4855957
vt 0.6513672 0.28833008
vt 0.93603516 0.28808594
vt 0.93603516 0.28027344
vt 0.6513672 0.28076172
vt 0.6513672 0.29638672
vt 0.93652344 0.29614258
vt 0.93603516 0.28808594
vt 0.6513672 0.28833008
vt 0.56396484 0.703125
vt 0.56396484 0.98828125
vt 0.57373047 0.98828125
vt 0.57373047 0.703125
vt 0.57373047 0.703125
vt 0.57373047 0.98828125
vt 0.58251953 0.98828125
vt 0.58251953 0.703125
vt 0.65185547 0.49975586
vt 0.93652344 0.49975586
vt 0.93652344 0.48779297
vt 0.65185547 0.48779297
vt 0.65185547 0.6484375
vt 0.93652344 0.6484375
vt 0.93652344 0.49975586
vt 0.65185547 0.49975586
vt 0.58251953 0.703125
vt 0.58251953 0.98828125
vt 0.59277344 0.98828125
vt 0.59277344 0.703125
vt 0.55859375 0.703125
vt 0.55859375 0.98828125
vt 0.56396484 0.98828125
vt 0.56396484 0.703125
vt 0.44384766 0.703125
vt 0.44384766 0.98828125
vt 0.55859375 0.98828125
vt 0.55859375 0.703125
vt 0.30688477 0.6660156
vt 0.02192688 0.6660156
vt 0.02192688 0.671875
vt 0.30688477 0.671875
vt 0.30688477 0.66015625
vt 0.02192688 0.66015625
vt 0.02192688 0.6660156
vt 0.30688477 0.6660156
vt 0.30688477 0.65185547
vt 0.02192688 0.65185547
vt 0.02192688 0.66015625
vt 0.30688477 0.66015625
vt 0.30688477 0.51708984
vt 0.02192688 0.51708984
vt 0.02192688 0.5214844
vt 0.30688477 0.5214844
vt 0.30688477 0.31933594
vt 0.021942139 0.31933594
vt 0.021942139 0.33129883
vt 0.30688477 0.33129883
vt 0.5595703 0.30688477
vt 0.5595703 0.022003174
vt 0.44506836 0.022003174
vt 0.44506836 0.30688477
vt 0.30688477 0.35180664
vt 0.021942139 0.35180664
vt 0.021942139 0.48413086
vt 0.30688477 0.48413086
vt 0.30688477 0.34765625
vt 0.021942139 0.34765625
vt 0.021942139 0.35180664
vt 0.30688477 0.35180664
vt 0.30688477 0.64746094
vt 0.02192688 0.64746094
vt 0.02192688 0.65185547
vt 0.30688477 0.65185547
vt 0.30688477 0.5214844
vt 0.02192688 0.5214844
vt 0.02192688 0.64746094
vt 0.30688477 0.64746094
vn -0 0 -1
vn -0 0 -1
vn -0 0 -1
vn -0.0004529953 -0.3737793 -0.9272461
vn -0 0 -1
vn -0 0 -1
vn -0 0 -1
vn 4.172325E-07 9.536743E-07 -1
vn -0 0 -1
vn -0 0 -1
vn -2.527237E-05 -8.028746E-05 -1
vn -0 0 -1
vn -2.8371811E-05 -0.0002746582 -1
vn -0 2.7418137E-06 -1
vn -4.2140484E-05 9.030104E-05 -1
vn -0.00015807152 0.0011491776 -1
vn -2.5629997E-06 -0.00015723705 -1
vn -5.364418E-07 -0.00015723705 -1
vn -6.377697E-06 0.00022482872 -1
vn -7.760525E-05 0.0008535385 -1
vn 4.6253204E-05 0.0025310516 -1
vn -1.1920929E-07 -1.1920929E-07 -1
vn -0 0 -1
vn -0 0 -1
vn -0 -3.5762787E-07 -1
vn -0 0 -1
vn -0 0 -1
vn -0 0 -1
vn -0 0 -1
vn -4.172325E-07 -5.9604645E-07 -1
vn -0 0 -1
vn -1.6093254E-06 -7.1525574E-07 -1
vn 7.3313713E-06 0 -1
vn -0 0 1
vn -0 0 1
vn -0 0 1
vn -0 0 1
vn -0.0004529953 -0.3737793 0.9272461
vn -0 0 1
vn -0 0 1
vn -0 0 1
vn -0 0 1
vn -0 0 1
vn 2.503395E-05 8.028746E-05 1
vn -0 0 1
vn 2.783537E-05 0.00028276443 1
vn -0 0 1
vn 4.1127205E-05 -8.9764595E-05 1
vn 0.00016283989 -0.0011425018 1
vn 1.1920929E-07 0.00015735626 1
vn -2.3841858E-07 0.00015735626 1
vn 6.1392784E-06 -0.0002257824 1
vn 8.714199E-05 -0.000849247 1
vn -0 -0.0024814606 1
vn -0 0 1
vn -0 0 1
vn -0 0 1
vn -0 0 1
vn -0 0 1
vn -0 0 1
vn -0 0 1
vn -0 0 1
vn -0 0 1
vn -0 0 1
vn -0 0 1
vn -0 0 1
vn 1 0.00894165 -1.2874603E-05
vn 1 0.00894165 -1.2874603E-05
vn 1 0.00894165 -1.2874603E-05
vn 1 0.00894165 -1.2874603E-05
vn -0.0050735474 -1 0
vn -0.0050735474 -1 0
vn -0.0050735474 -1 0
vn -0.0050735474 -1 0
vn -1 -0.003730774 0
vn -1 -0.003730774 0
vn -1 -0.003730774 0
vn -1 -0.003730774 0
vn -1 -0.0015010834 4.10676E-05
vn -1 -0.0015010834 4.10676E-05
vn -1 -0.0015010834 4.10676E-05
vn -1 -0.0015010834 4.10676E-05
vn -0.028076172 -0.9995117 -0.0018081665
vn -0.028076172 -0.9995117 -0.0018081665
vn -0.028076172 -0.9995117 -0.0018081665
vn -0.028076172 -0.9995117 -0.0018081665
vn -1 2.7418137E-06 0
vn -1 2.7418137E-06 0
vn -1 2.7418137E-06 0
vn -1 2.7418137E-06 0
vn 0.015975952 1 -0.00014150143
vn 0.015975952 1 -0.00014150143
vn 0.015975952 1 -0.00014150143
vn 0.015975952 1 -0.00014150143
vn -1.66893E-06 -1 0
vn -1.66893E-06 -1 0
vn -1.66893E-06 -1 0
vn -1.66893E-06 -1 0
vn -1 0.0023460388 0
vn -1 0.0023460388 0
vn -1 0.0023460388 0
vn -1 0.0023460388 0
vn -0.015533447 1 0
vn -0.015533447 1 0
vn -0.015533447 1 0
vn -0.015533447 1 0
vn -1 -0.0062332153 9.262562E-05
vn -1 -0.0062332153 9.262562E-05
vn -1 -0.0062332153 9.262562E-05
vn -1 -0.0062332153 9.262562E-05
vn 1 -0.00015854836 -2.3663044E-05
vn 1 -0.00015854836 -2.3663044E-05
vn 1 -0.00015854836 -2.3663044E-05
vn 1 -0.00015854836 -2.3663044E-05
vn 0.008621216 1 -3.3974648E-05
vn 0.008621216 1 -3.3974648E-05
vn 0.008621216 1 -3.3974648E-05
vn 0.008621216 1 -3.3974648E-05
vn -0.00121212 -1 0
vn -0.00121212 -1 0
vn -0.0004529953 -0.3737793 0.9272461
vn -0.0004529953 -0.3737793 -0.9272461
vn -1 -6.508827E-05 0
vn -1 -6.508827E-05 0
vn -1 -6.508827E-05 0
vn -1 -6.508827E-05 0
vn -0.006000519 1 0
vn -0.006000519 1 0
vn -0.006000519 1 0
vn -0.006000519 1 0
vn -1 -2.3901463E-05 0
vn -1 -2.3901463E-05 0
vn -1 -2.3901463E-05 0
vn -1 -2.3901463E-05 0
vn 0.0103302 -1 -0.0004248619
vn 0.0103302 -1 -0.0004248619
vn 0.0103302 -1 -0.0004248619
vn 0.0103302 -1 -0.0004248619
vn -1 0.0007624626 0
vn -1 0.0007624626 0
vn -1 0.0007624626 0
vn -1 0.0007624626 0
vn 0.014945984 1 0
vn 0.014945984 1 0
vn 0.014945984 1 0
vn 0.014945984 1 0
vn -1 0.00969696 0
vn -1 0.00969696 0
vn -1 0.00969696 0
vn -1 0.00969696 0
vn -0.0011320114 1 0
vn -0.0011320114 1 0
vn -0.0011320114 1 0
vn -0.0011320114 1 0
vn 1 -0.011413574 0
vn 1 -0.011413574 0
vn 1 -0.011413574 0
vn 1 -0.011413574 0
vn 0.009941101 1 0
vn 0.009941101 1 0
vn 0.009941101 1 0
vn 0.009941101 1 0
vn 1 -7.1525574E-07 0
vn 1 -7.1525574E-07 0
vn 1 -7.1525574E-07 0
vn 1 -7.1525574E-07 0
vn 0.04348755 -0.99902344 -0.0001129508
vn 0.04348755 -0.99902344 -0.0001129508
vn 0.04348755 -0.99902344 -0.0001129508
vn 0.04348755 -0.99902344 -0.0001129508
vn 1 -0.00011527538 0
vn 1 -0.00011527538 0
vn 1 -0.00011527538 0
vn 1 -0.00011527538 0
vn 0.0013055801 -1 0
vn 0.0013055801 -1 0
vn 0.0013055801 -1 0
vn 0.0013055801 -1 0
vn 1 -0.0025577545 4.7683716E-07
vn 1 -0.0025577545 4.7683716E-07
vn 1 -0.0025577545 4.7683716E-07
vn 1 -0.0025577545 4.7683716E-07
vn -0.0008983612 -1 0.00011879206
vn -0.0008983612 -1 0.00011879206
vn -0.0008983612 -1 0.00011879206
vn -0.0008983612 -1 0.00011879206
vn -0.00024008751 1 0
vn -0.00024008751 1 0
vn -0.00024008751 1 0
vn -0.00024008751 1 0
vn 1 -0.0025749207 0
vn 1 -0.0025749207 0
vn 1 -0.0025749207 0
vn 1 -0.0025749207 0
g Rocks_Small_008_0
f 3/3/3 2/2/2 1/1/1
f 1/1/1 5/5/5 4/4/4
f 6/6/6 4/4/4 5/5/5
f 7/7/7 6/6/6 5/5/5
f 1/1/1 8/8/8 5/5/5
f 9/9/9 8/8/8 1/1/1
f 10/10/10 8/8/8 9/9/9
f 5/5/5 8/8/8 11/11/11
f 12/12/12 5/5/5 11/11/11
f 8/8/8 13/13/13 11/11/11
f 14/14/14 13/13/13 8/8/8
f 11/11/11 13/13/13 15/15/15
f 13/13/13 16/16/16 15/15/15
f 17/17/17 11/11/11 15/15/15
f 18/18/18 11/11/11 17/17/17
f 15/15/15 16/16/16 19/19/19
f 16/16/16 20/20/20 19/19/19
f 20/20/20 16/16/16 21/21/21
f 19/19/19 20/20/20 22/22/22
f 23/23/23 19/19/19 22/22/22
f 24/24/24 23/23/23 22/22/22
f 22/22/22 20/20/20 25/25/25
f 26/26/26 22/22/22 25/25/25
f 27/27/27 22/22/22 26/26/26
f 28/28/28 26/26/26 25/25/25
f 29/29/29 26/26/26 28/28/28
f 20/20/20 30/30/30 25/25/25
f 25/25/25 30/30/30 31/31/31
f 32/32/32 30/30/30 20/20/20
f 33/33/33 32/32/32 20/20/20
f 36/36/36 35/35/35 34/34/34
f 35/35/35 38/38/38 37/37/37
f 39/39/39 37/37/37 38/38/38
f 40/40/40 37/37/37 39/39/39
f 35/35/35 37/37/37 41/41/41
f 42/42/42 35/35/35 41/41/41
f 43/43/43 42/42/42 41/41/41
f 37/37/37 44/44/44 41/41/41
f 45/45/45 44/44/44 37/37/37
f 41/41/41 44/44/44 46/46/46
f 47/47/47 41/41/41 46/46/46
f 44/44/44 48/48/48 46/46/46
f 46/46/46 48/48/48 49/49/49
f 50/50/50 48/48/48 44/44/44
f 51/51/51 50/50/50 44/44/44
f 48/48/48 52/52/52 49/49/49
f 49/49/49 52/52/52 53/53/53
f 53/53/53 54/54/54 49/49/49
f 52/52/52 55/55/55 53/53/53
f 56/56/56 55/55/55 52/52/52
f 57/57/57 55/55/55 56/56/56
f 55/55/55 58/58/58 53/53/53
f 59/59/59 58/58/58 55/55/55
f 60/60/60 59/59/59 55/55/55
f 61/61/61 58/58/58 59/59/59
f 62/62/62 61/61/61 59/59/59
f 53/53/53 58/58/58 63/63/63
f 58/58/58 64/64/64 63/63/63
f 65/65/65 53/53/53 63/63/63
f 66/66/66 53/53/53 65/65/65
f 69/69/69 68/68/68 67/67/67
f 70/70/70 69/69/69 67/67/67
f 73/73/73 72/72/72 71/71/71
f 74/74/74 73/73/73 71/71/71
f 77/77/77 76/76/76 75/75/75
f 78/78/78 77/77/77 75/75/75
f 81/81/81 80/80/80 79/79/79
f 82/82/82 81/81/81 79/79/79
f 85/85/85 84/84/84 83/83/83
f 86/86/86 85/85/85 83/83/83
f 89/89/89 88/88/88 87/87/87
f 90/90/90 89/89/89 87/87/87
f 93/93/93 92/92/92 91/91/91
f 94/94/94 93/93/93 91/91/91
f 97/97/97 96/96/96 95/95/95
f 98/98/98 97/97/97 95/95/95
f 101/101/101 100/100/100 99/99/99
f 102/102/102 101/101/101 99/99/99
f 105/105/105 104/104/104 103/103/103
f 106/106/106 105/105/105 103/103/103
f 109/109/109 108/108/108 107/107/107
f 110/110/110 109/109/109 107/107/107
f 113/113/113 112/112/112 111/111/111
f 114/114/114 113/113/113 111/111/111
f 117/117/117 116/116/116 115/115/115
f 118/118/118 117/117/117 115/115/115
f 121/121/121 120/120/120 119/119/119
f 122/122/122 121/121/121 119/119/119
f 125/125/125 124/124/124 123/123/123
f 126/126/126 125/125/125 123/123/123
f 129/129/129 128/128/128 127/127/127
f 130/130/130 129/129/129 127/127/127
f 133/133/133 132/132/132 131/131/131
f 134/134/134 133/133/133 131/131/131
f 137/137/137 136/136/136 135/135/135
f 138/138/138 137/137/137 135/135/135
f 141/141/141 140/140/140 139/139/139
f 142/142/142 141/141/141 139/139/139
f 145/145/145 144/144/144 143/143/143
f 146/146/146 145/145/145 143/143/143
f 149/149/149 148/148/148 147/147/147
f 150/150/150 149/149/149 147/147/147
f 153/153/153 152/152/152 151/151/151
f 154/154/154 153/153/153 151/151/151
f 157/157/157 156/156/156 155/155/155
f 158/158/158 157/157/157 155/155/155
f 161/161/161 160/160/160 159/159/159
f 162/162/162 161/161/161 159/159/159
f 165/165/165 164/164/164 163/163/163
f 166/166/166 165/165/165 163/163/163
f 169/169/169 168/168/168 167/167/167
f 170/170/170 169/169/169 167/167/167
f 173/173/173 172/172/172 171/171/171
f 174/174/174 173/173/173 171/171/171
f 177/177/177 176/176/176 175/175/175
f 178/178/178 177/177/177 175/175/175
f 181/181/181 180/180/180 179/179/179
f 182/182/182 181/181/181 179/179/179
f 185/185/185 184/184/184 183/183/183
f 186/186/186 185/185/185 183/183/183
f 189/189/189 188/188/188 187/187/187
f 190/190/190 189/189/189 187/187/187
f 193/193/193 192/192/192 191/191/191
f 194/194/194 193/193/193 191/191/191
