g Rocks_Small_020
v -0.65424955 0.5977572 -0.8957829
v -0.65447176 -0.27868804 -0.89578277
v -0.5964517 0.59756196 -0.8957829
v 0.5889877 0.4706088 -0.89578277
v 0.47269621 0.53306854 -0.8957829
v 0.5881198 0.53279996 -0.8957829
v 0.64892304 0.4067807 -0.89578277
v 0.64887416 0.4699533 -0.89578277
v -0.5257083 0.6596701 -0.89578277
v -0.59635526 0.6599832 -0.89578277
v -0.46788603 0.7178616 -0.89578277
v -0.5254361 0.7172183 -0.89578277
v -0.28142118 0.77875453 -0.89578277
v -0.46759796 0.77848846 -0.89578277
v 0.4059213 0.96643704 -0.89578277
v 0.4727792 0.9662698 -0.89578277
v -0.22201568 0.96782196 -0.89578277
v -0.28125763 0.96782196 -0.89578277
v 0.34935516 1.0870817 -0.89578277
v 0.40608856 1.0870817 -0.89578277
v -0.15987945 1.0984976 -0.89578277
v -0.22201568 1.0984976 -0.89578277
v 0.27415985 1.1595237 -0.89578277
v 0.34847504 1.1601938 -0.89578277
v -0.09081207 1.1549094 -0.89578277
v -0.15944244 1.1557676 -0.89578277
v 0.27415985 1.2228892 -0.89578277
v -0.09081207 1.2224009 -0.89578277
v -0.5866812 -1.0272146 -0.8957829
v -0.5869827 -1.0926467 -0.89578307
v -0.4619229 -1.0923806 -0.89578307
v 0.46238738 -1.1582779 -0.89578307
v -0.6545279 -0.8969363 -0.8957829
v -0.65449125 -1.0272732 -0.8957829
v -0.4021292 -1.1601467 -0.89578307
v -0.46214262 -1.1601584 -0.89578307
v 0.46238738 -1.2215707 -0.89578307
v -0.40241972 -1.2228891 -0.89578307
v 0.5269394 -1.0810733 -0.8957829
v 0.5273105 -1.1582779 -0.89578307
v -0.716232 -0.27875152 -0.89578277
v -0.71665555 -0.8967117 -0.8957829
v 0.59105927 -0.9576315 -0.8957829
v 0.59087 -1.0806466 -0.8957829
v 0.71665496 0.40690276 -0.89578277
v 0.6527988 -0.8279605 -0.8957829
v 0.6523154 -0.9573959 -0.8957829
v 0.7109823 -0.8279556 -0.8957829
v -0.5964517 0.59756196 -0.8957829
v -0.5964514 0.59756196 0.89578277
v -0.65424925 0.5977572 0.89578277
v -0.65424955 0.5977572 -0.8957829
v -0.65424955 0.5977572 -0.8957829
v -0.65424925 0.5977572 0.89578277
v -0.6544714 -0.27868804 0.89578307
v -0.65447176 -0.27868804 -0.89578277
v 0.27415985 1.1595237 -0.89578277
v 0.27416015 1.1595237 0.89578307
v 0.27416015 1.2228892 0.89578307
v 0.27415985 1.2228892 -0.89578277
v -0.22201568 1.0984976 -0.89578277
v -0.22201538 1.0984976 0.89578307
v -0.22201538 0.96782196 0.89578307
v -0.22201568 0.96782196 -0.89578277
v -0.15987945 1.0984976 -0.89578277
v -0.15987915 1.0984976 0.89578307
v -0.22201538 1.0984976 0.89578307
v -0.22201568 1.0984976 -0.89578277
v 0.40608856 1.0870817 -0.89578277
v 0.40608886 1.0870817 0.89578307
v 0.34935546 1.0870817 0.89578307
v 0.34935516 1.0870817 -0.89578277
v 0.4059213 0.96643704 -0.89578277
v 0.4059216 0.96643704 0.89578307
v 0.40608886 1.0870817 0.89578307
v 0.40608856 1.0870817 -0.89578277
v -0.09081207 1.2224009 -0.89578277
v -0.09081177 1.2224009 0.89578307
v -0.09081177 1.1549094 0.89578307
v -0.09081207 1.1549094 -0.89578277
v 0.27415985 1.2228892 -0.89578277
v 0.27416015 1.2228892 0.89578307
v -0.09081177 1.2224009 0.89578307
v -0.09081207 1.2224009 -0.89578277
v -0.15944244 1.1557676 -0.89578277
v -0.15944214 1.1557676 0.89578307
v -0.15987915 1.0984976 0.89578307
v -0.15987945 1.0984976 -0.89578277
v -0.09081207 1.1549094 -0.89578277
v -0.09081177 1.1549094 0.89578307
v -0.15944214 1.1557676 0.89578307
v -0.15944244 1.1557676 -0.89578277
v 0.34847504 1.1601938 -0.89578277
v 0.34847534 1.1601938 0.89578307
v 0.27416015 1.1595237 0.89578307
v 0.27415985 1.1595237 -0.89578277
v 0.34935516 1.0870817 -0.89578277
v 0.34935546 1.0870817 0.89578307
v 0.34847534 1.1601938 0.89578307
v 0.34847504 1.1601938 -0.89578277
v -0.59635526 0.6599832 -0.89578277
v -0.59635496 0.6599832 0.89578307
v -0.5964514 0.59756196 0.89578277
v -0.5964517 0.59756196 -0.8957829
v -0.5257083 0.6596701 -0.89578277
v -0.525708 0.6596701 0.89578307
v -0.59635496 0.6599832 0.89578307
v -0.59635526 0.6599832 -0.89578277
v 0.4727792 0.9662698 -0.89578277
v 0.47277954 0.9662698 0.89578307
v 0.4059216 0.96643704 0.89578307
v 0.4059213 0.96643704 -0.89578277
v 0.47269621 0.53306854 -0.8957829
v 0.4726965 0.53306854 0.89578277
v 0.47277954 0.9662698 0.89578307
v 0.4727792 0.9662698 -0.89578277
v 0.5881198 0.53279996 -0.8957829
v 0.5881201 0.53279996 0.89578277
v 0.4726965 0.53306854 0.89578277
v 0.47269621 0.53306854 -0.8957829
v 0.5889877 0.4706088 -0.89578277
v 0.588988 0.4706088 0.8957829
v 0.5881201 0.53279996 0.89578277
v 0.5881198 0.53279996 -0.8957829
v 0.64887416 0.4699533 -0.89578277
v 0.6488745 0.4699533 0.8957829
v 0.588988 0.4706088 0.8957829
v 0.5889877 0.4706088 -0.89578277
v 0.64892304 0.4067807 -0.89578277
v 0.64892334 0.4067807 0.8957829
v 0.6488745 0.4699533 0.8957829
v 0.64887416 0.4699533 -0.89578277
v 0.71665496 0.40690276 -0.89578277
v 0.71665525 0.40690276 0.8957829
v 0.64892334 0.4067807 0.8957829
v 0.64892304 0.4067807 -0.89578277
v -0.65447176 -0.27868804 -0.89578277
v -0.6544714 -0.27868804 0.89578307
v -0.71623164 -0.27875152 0.89578307
v -0.716232 -0.27875152 -0.89578277
v -0.22201568 0.96782196 -0.89578277
v -0.22201538 0.96782196 0.89578307
v -0.28125733 0.96782196 0.89578307
v -0.28125763 0.96782196 -0.89578277
v -0.5869827 -1.0926467 -0.89578307
v -0.5869824 -1.0926467 0.89578277
v -0.4619226 -1.0923806 0.89578277
v -0.4619229 -1.0923806 -0.89578307
v -0.5866812 -1.0272146 -0.8957829
v -0.5866809 -1.0272146 0.8957829
v -0.5869824 -1.0926467 0.89578277
v -0.5869827 -1.0926467 -0.89578307
v -0.65449125 -1.0272732 -0.8957829
v -0.65449095 -1.0272732 0.8957829
v -0.5866809 -1.0272146 0.8957829
v -0.5866812 -1.0272146 -0.8957829
v -0.6545279 -0.8969363 -0.8957829
v -0.65452754 -0.8969363 0.8957829
v -0.65449095 -1.0272732 0.8957829
v -0.65449125 -1.0272732 -0.8957829
v -0.46214262 -1.1601584 -0.89578307
v -0.46214232 -1.1601584 0.89578277
v -0.4021289 -1.1601467 0.89578277
v -0.4021292 -1.1601467 -0.89578307
v -0.4619229 -1.0923806 -0.89578307
v -0.4619226 -1.0923806 0.89578277
v -0.46214232 -1.1601584 0.89578277
v -0.46214262 -1.1601584 -0.89578307
v -0.40241972 -1.2228891 -0.89578307
v -0.40241942 -1.2228891 0.89578253
v 0.46238768 -1.2215707 0.89578253
v 0.46238738 -1.2215707 -0.89578307
v -0.4021292 -1.1601467 -0.89578307
v -0.4021289 -1.1601467 0.89578277
v -0.40241942 -1.2228891 0.89578253
v -0.40241972 -1.2228891 -0.89578307
v 0.46238738 -1.1582779 -0.89578307
v 0.46238768 -1.1582779 0.89578277
v 0.5273108 -1.1582779 0.89578277
v 0.5273105 -1.1582779 -0.89578307
v 0.59105927 -0.9576315 -0.8957829
v 0.59105957 -0.9576315 0.8957829
v 0.6523157 -0.9573959 0.8957829
v 0.6523154 -0.9573959 -0.8957829
v 0.6523154 -0.9573959 -0.8957829
v 0.6523157 -0.9573959 0.8957829
v 0.65279907 -0.8279605 0.8957829
v 0.6527988 -0.8279605 -0.8957829
v 0.59087 -1.0806466 -0.8957829
v 0.5908703 -1.0806466 0.8957829
v 0.59105957 -0.9576315 0.8957829
v 0.59105927 -0.9576315 -0.8957829
v 0.5269394 -1.0810733 -0.8957829
v 0.5269397 -1.0810733 0.8957829
v 0.5908703 -1.0806466 0.8957829
v 0.59087 -1.0806466 -0.8957829
v 0.7109823 -0.8279556 -0.8957829
v 0.7109826 -0.8279556 0.8957829
v 0.71665525 0.40690276 0.8957829
v 0.71665496 0.40690276 -0.89578277
v 0.6527988 -0.8279605 -0.8957829
v 0.65279907 -0.8279605 0.8957829
v 0.7109826 -0.8279556 0.8957829
v 0.7109823 -0.8279556 -0.8957829
v -0.28125763 0.96782196 -0.89578277
v -0.28125733 0.96782196 0.89578307
v -0.2814209 0.77875453 0.89578307
v -0.28142118 0.77875453 -0.89578277
v 0.5273105 -1.1582779 -0.89578307
v 0.5273108 -1.1582779 0.89578277
v 0.5269397 -1.0810733 0.8957829
v 0.5269394 -1.0810733 -0.8957829
v -0.716232 -0.27875152 -0.89578277
v -0.71623164 -0.27875152 0.89578307
v -0.71665525 -0.8967117 0.8957829
v -0.71665555 -0.8967117 -0.8957829
v -0.71665555 -0.8967117 -0.8957829
v -0.71665525 -0.8967117 0.8957829
v -0.65452754 -0.8969363 0.8957829
v -0.6545279 -0.8969363 -0.8957829
v 0.46238738 -1.2215707 -0.89578307
v 0.46238768 -1.2215707 0.89578253
v 0.46238768 -1.1582779 0.89578277
v 0.46238738 -1.1582779 -0.89578307
v -0.5254361 0.7172183 -0.89578277
v -0.5254358 0.7172183 0.89578307
v -0.525708 0.6596701 0.89578307
v -0.5257083 0.6596701 -0.89578277
v -0.28142118 0.77875453 -0.89578277
v -0.2814209 0.77875453 0.89578307
v -0.46759763 0.77848846 0.89578307
v -0.46759796 0.77848846 -0.89578277
v -0.46759796 0.77848846 -0.89578277
v -0.46759763 0.77848846 0.89578307
v -0.46788573 0.7178616 0.89578307
v -0.46788603 0.7178616 -0.89578277
v -0.46788603 0.7178616 -0.89578277
v -0.46788573 0.7178616 0.89578307
v -0.5254358 0.7172183 0.89578307
v -0.5254361 0.7172183 -0.89578277
v -0.65424925 0.5977572 0.89578277
v -0.5964514 0.59756196 0.89578277
v -0.6544714 -0.27868804 0.89578307
v 0.588988 0.4706088 0.8957829
v 0.4726965 0.53306854 0.89578277
v 0.5881201 0.53279996 0.89578277
v 0.64892334 0.4067807 0.8957829
v 0.6488745 0.4699533 0.8957829
v -0.525708 0.6596701 0.89578307
v -0.59635496 0.6599832 0.89578307
v -0.46788573 0.7178616 0.89578307
v -0.5254358 0.7172183 0.89578307
v -0.2814209 0.77875453 0.89578307
v -0.46759763 0.77848846 0.89578307
v 0.4059216 0.96643704 0.89578307
v 0.47277954 0.9662698 0.89578307
v -0.22201538 0.96782196 0.89578307
v -0.28125733 0.96782196 0.89578307
v 0.34935546 1.0870817 0.89578307
v 0.40608886 1.0870817 0.89578307
v -0.15987915 1.0984976 0.89578307
v -0.22201538 1.0984976 0.89578307
v 0.27416015 1.1595237 0.89578307
v 0.34847534 1.1601938 0.89578307
v -0.09081177 1.1549094 0.89578307
v -0.15944214 1.1557676 0.89578307
v 0.27416015 1.2228892 0.89578307
v -0.09081177 1.2224009 0.89578307
v -0.5866809 -1.0272146 0.8957829
v -0.4619226 -1.0923806 0.89578277
v -0.5869824 -1.0926467 0.89578277
v 0.46238768 -1.1582779 0.89578277
v -0.65452754 -0.8969363 0.8957829
v -0.65449095 -1.0272732 0.8957829
v -0.4021289 -1.1601467 0.89578277
v -0.46214232 -1.1601584 0.89578277
v 0.46238768 -1.2215707 0.89578253
v -0.40241942 -1.2228891 0.89578253
v 0.5269397 -1.0810733 0.8957829
v 0.5273108 -1.1582779 0.89578277
v -0.71623164 -0.27875152 0.89578307
v -0.71665525 -0.8967117 0.8957829
v 0.59105957 -0.9576315 0.8957829
v 0.5908703 -1.0806466 0.8957829
v 0.71665525 0.40690276 0.8957829
v 0.65279907 -0.8279605 0.8957829
v 0.6523157 -0.9573959 0.8957829
v 0.7109826 -0.8279556 0.8957829
vt 0.5732422 0.13208008
vt 0.5732422 0.07611084
vt 0.56933594 0.13208008
vt 0.49365234 0.1239624
vt 0.50097656 0.12792969
vt 0.49365234 0.12792969
vt 0.4897461 0.11987305
vt 0.4897461 0.12390137
vt 0.5649414 0.13598633
vt 0.56933594 0.13598633
vt 0.56103516 0.13964844
vt 0.5649414 0.13964844
vt 0.5493164 0.14355469
vt 0.56103516 0.14355469
vt 0.5053711 0.15563965
vt 0.50097656 0.15563965
vt 0.54541016 0.15563965
vt 0.5493164 0.15563965
vt 0.50878906 0.16333008
vt 0.5053711 0.16333008
vt 0.5415039 0.16394043
vt 0.54541016 0.16394043
vt 0.5136719 0.16796875
vt 0.50927734 0.16796875
vt 0.5371094 0.16760254
vt 0.5415039 0.16760254
vt 0.5136719 0.17199707
vt 0.5371094 0.171875
vt 0.56884766 0.028289795
vt 0.56884766 0.024108887
vt 0.5605469 0.024139404
vt 0.5019531 0.019882202
vt 0.5732422 0.036621094
vt 0.5732422 0.028289795
vt 0.5571289 0.019805908
vt 0.5605469 0.019805908
vt 0.5019531 0.015838623
vt 0.5571289 0.015792847
vt 0.4975586 0.024810791
vt 0.4975586 0.019882202
vt 0.57714844 0.07611084
vt 0.57714844 0.036621094
vt 0.4934082 0.032714844
vt 0.4934082 0.024841309
vt 0.48535156 0.11987305
vt 0.48950195 0.040985107
vt 0.48950195 0.032714844
vt 0.48583984 0.040985107
vt 0.5986328 0.14526367
vt 0.6699219 0.14526367
vt 0.6699219 0.13952637
vt 0.5986328 0.13952637
vt 0.5986328 0.13952637
vt 0.6699219 0.13952637
vt 0.6699219 0.0826416
vt 0.5986328 0.0826416
vt 0.50683594 0.19616699
vt 0.50683594 0.2626953
vt 0.5126953 0.2626953
vt 0.5126953 0.19616699
vt 0.56152344 0.19616699
vt 0.56152344 0.2626953
vt 0.57177734 0.2626953
vt 0.57177734 0.19616699
vt 0.55566406 0.19616699
vt 0.55566406 0.2626953
vt 0.56152344 0.2626953
vt 0.56152344 0.19616699
vt 0.48950195 0.19616699
vt 0.48950195 0.2626953
vt 0.4946289 0.2626953
vt 0.4946289 0.19616699
vt 0.4807129 0.19616699
vt 0.4807129 0.2626953
vt 0.48950195 0.2626953
vt 0.48950195 0.19616699
vt 0.53759766 0.19616699
vt 0.53759766 0.2626953
vt 0.5439453 0.2626953
vt 0.5439453 0.19616699
vt 0.5126953 0.19616699
vt 0.5126953 0.2626953
vt 0.53759766 0.2626953
vt 0.53759766 0.19616699
vt 0.55029297 0.19616699
vt 0.55029297 0.2626953
vt 0.55566406 0.2626953
vt 0.55566406 0.19616699
vt 0.5439453 0.19616699
vt 0.5439453 0.2626953
vt 0.55029297 0.2626953
vt 0.55029297 0.19616699
vt 0.50097656 0.19616699
vt 0.50097656 0.2626953
vt 0.50683594 0.2626953
vt 0.50683594 0.19616699
vt 0.4946289 0.19616699
vt 0.4946289 0.2626953
vt 0.50097656 0.2626953
vt 0.50097656 0.19616699
vt 0.5986328 0.15209961
vt 0.6699219 0.15209961
vt 0.6699219 0.14526367
vt 0.5986328 0.14526367
vt 0.5986328 0.1586914
vt 0.6699219 0.1586914
vt 0.6699219 0.15209961
vt 0.5986328 0.15209961
vt 0.47509766 0.19616699
vt 0.47509766 0.2626953
vt 0.4807129 0.2626953
vt 0.4807129 0.19616699
vt 0.47265625 0.14697266
vt 0.4008789 0.14697266
vt 0.4008789 0.17565918
vt 0.47265625 0.17565918
vt 0.47265625 0.13867188
vt 0.4008789 0.13867188
vt 0.4008789 0.14697266
vt 0.47265625 0.14697266
vt 0.47265625 0.13391113
vt 0.4008789 0.13391113
vt 0.4008789 0.13867188
vt 0.47265625 0.13867188
vt 0.47265625 0.12939453
vt 0.4008789 0.12939453
vt 0.4008789 0.13391113
vt 0.47265625 0.13391113
vt 0.47265625 0.12475586
vt 0.4008789 0.12475586
vt 0.4008789 0.12939453
vt 0.47265625 0.12939453
vt 0.47265625 0.11999512
vt 0.4008789 0.11999512
vt 0.4008789 0.12475586
vt 0.47265625 0.12475586
vt 0.5986328 0.0826416
vt 0.6699219 0.0826416
vt 0.6699219 0.07672119
vt 0.5986328 0.07672119
vt 0.57177734 0.19616699
vt 0.57177734 0.2626953
vt 0.5776367 0.2626953
vt 0.5776367 0.19616699
vt 0.265625 0.08972168
vt 0.265625 0.02281189
vt 0.25756836 0.02281189
vt 0.25756836 0.08972168
vt 0.5986328 0.013786316
vt 0.6699219 0.013786316
vt 0.6699219 0.008071899
vt 0.5986328 0.008071899
vt 0.5986328 0.019760132
vt 0.6699219 0.019760132
vt 0.6699219 0.013786316
vt 0.5986328 0.013786316
vt 0.5986328 0.029785156
vt 0.6699219 0.029785156
vt 0.6699219 0.019760132
vt 0.5986328 0.019760132
vt 0.25317383 0.08972168
vt 0.25317383 0.02281189
vt 0.24938965 0.02281189
vt 0.24938965 0.08972168
vt 0.25756836 0.08972168
vt 0.25756836 0.02281189
vt 0.25317383 0.02281189
vt 0.25317383 0.08972168
vt 0.24536133 0.08972168
vt 0.24536133 0.02281189
vt 0.19006348 0.02281189
vt 0.19006348 0.08972168
vt 0.24938965 0.08972168
vt 0.24938965 0.02281189
vt 0.24536133 0.02281189
vt 0.24536133 0.08972168
vt 0.18603516 0.08972168
vt 0.18603516 0.02281189
vt 0.18188477 0.02281189
vt 0.18188477 0.08972168
vt 0.16503906 0.08972168
vt 0.16503906 0.02281189
vt 0.16113281 0.02281189
vt 0.16113281 0.08972168
vt 0.47265625 0.028930664
vt 0.4008789 0.028930664
vt 0.4008789 0.037231445
vt 0.47265625 0.037231445
vt 0.17285156 0.08972168
vt 0.17285156 0.02281189
vt 0.16503906 0.02281189
vt 0.16503906 0.08972168
vt 0.17700195 0.08972168
vt 0.17700195 0.02281189
vt 0.17285156 0.02281189
vt 0.17285156 0.08972168
vt 0.47265625 0.041137695
vt 0.4008789 0.041137695
vt 0.4008789 0.11999512
vt 0.47265625 0.11999512
vt 0.47265625 0.037231445
vt 0.4008789 0.037231445
vt 0.4008789 0.041137695
vt 0.47265625 0.041137695
vt 0.5776367 0.19616699
vt 0.5776367 0.2626953
vt 0.5917969 0.2626953
vt 0.5917969 0.19616699
vt 0.18188477 0.08972168
vt 0.18188477 0.02281189
vt 0.17700195 0.02281189
vt 0.17700195 0.08972168
vt 0.5986328 0.07672119
vt 0.6699219 0.07672119
vt 0.6699219 0.03555298
vt 0.5986328 0.03555298
vt 0.5986328 0.03555298
vt 0.6699219 0.03555298
vt 0.6699219 0.029785156
vt 0.5986328 0.029785156
vt 0.19006348 0.08972168
vt 0.19006348 0.02281189
vt 0.18603516 0.02281189
vt 0.18603516 0.08972168
vt 0.5986328 0.16455078
vt 0.6699219 0.16455078
vt 0.6699219 0.1586914
vt 0.5986328 0.1586914
vt 0.5986328 0.19018555
vt 0.6699219 0.19018555
vt 0.6699219 0.17626953
vt 0.5986328 0.17626953
vt 0.5986328 0.17626953
vt 0.6699219 0.17626953
vt 0.6699219 0.17028809
vt 0.5986328 0.17028809
vt 0.5986328 0.17028809
vt 0.6699219 0.17028809
vt 0.6699219 0.16455078
vt 0.5986328 0.16455078
vt 0.5732422 0.13208008
vt 0.56933594 0.13208008
vt 0.5732422 0.07611084
vt 0.49365234 0.1239624
vt 0.50097656 0.12792969
vt 0.49365234 0.12792969
vt 0.4897461 0.11987305
vt 0.4897461 0.12390137
vt 0.5649414 0.13598633
vt 0.56933594 0.13598633
vt 0.56103516 0.13964844
vt 0.5649414 0.13964844
vt 0.5493164 0.14355469
vt 0.56103516 0.14355469
vt 0.5053711 0.15563965
vt 0.50097656 0.15563965
vt 0.54541016 0.15563965
vt 0.5493164 0.15563965
vt 0.50878906 0.16333008
vt 0.5053711 0.16333008
vt 0.5415039 0.16394043
vt 0.54541016 0.16394043
vt 0.5136719 0.16796875
vt 0.50927734 0.16796875
vt 0.5371094 0.16760254
vt 0.5415039 0.16760254
vt 0.5136719 0.17199707
vt 0.5371094 0.171875
vt 0.56884766 0.028289795
vt 0.5605469 0.024139404
vt 0.56884766 0.024108887
vt 0.5019531 0.019882202
vt 0.5732422 0.036621094
vt 0.5732422 0.028289795
vt 0.5571289 0.019805908
vt 0.5605469 0.019805908
vt 0.5019531 0.015838623
vt 0.5571289 0.015792847
vt 0.4975586 0.024810791
vt 0.4975586 0.019882202
vt 0.57714844 0.07611084
vt 0.57714844 0.036621094
vt 0.4934082 0.032714844
vt 0.4934082 0.024841309
vt 0.48535156 0.11987305
vt 0.48950195 0.040985107
vt 0.48950195 0.032714844
vt 0.48583984 0.040985107
vn -0 -1.7881393E-07 -1
vn -0 -1.7881393E-07 -1
vn -0 -1.7881393E-07 -1
vn -0 -2.4437904E-06 -1
vn 1.1920929E-07 2.3245811E-06 -1
vn -0 -2.4437904E-06 -1
vn -0 0 -1
vn -0 0 -1
vn 1.1920929E-07 2.3245811E-06 -1
vn -0 2.4437904E-06 -1
vn -1.1920929E-07 2.3841858E-07 -1
vn -0 0 -1
vn -0 0 -1
vn -0 0 -1
vn -0 0 -1
vn -0 3.5762787E-07 -1
vn -0 0 -1
vn -0 0 -1
vn -0 0 -1
vn -0 0 -1
vn -0 0 -1
vn -0 0 -1
vn -0 0 -1
vn -0 0 -1
vn -0 0 -1
vn -0 0 -1
vn -0 0 -1
vn -0 0 -1
vn -0 2.3245811E-06 -1
vn -0 2.3245811E-06 -1
vn -0 2.3245811E-06 -1
vn 2.9802322E-07 1.7285347E-06 -1
vn 2.9802322E-07 1.7285347E-06 -1
vn -0 0 -1
vn -0 0 -1
vn -0 0 -1
vn -0 0 -1
vn -0 0 -1
vn -0 0 -1
vn -0 1.9669533E-06 -1
vn -0 1.1920929E-07 -1
vn -0 1.1920929E-07 -1
vn -0 0 -1
vn -0 0 -1
vn -1.1920929E-07 0 -1
vn -0 0 -1
vn -0 0 -1
vn -0 0 -1
vn 0.0033798218 1 0
vn 0.0033798218 1 0
vn 0.0033798218 1 0
vn 0.0033798218 1 0
vn -1 0.00025343895 1.7881393E-07
vn -1 0.00025343895 1.7881393E-07
vn -1 0.00025343895 1.7881393E-07
vn -1 0.00025343895 1.7881393E-07
vn 1 0 -1.7881393E-07
vn 1 0 -1.7881393E-07
vn 1 0 -1.7881393E-07
vn 1 0 -1.7881393E-07
vn -1 0 1.7881393E-07
vn -1 0 1.7881393E-07
vn -1 0 1.7881393E-07
vn -1 0 1.7881393E-07
vn -0 1 0
vn -0 1 0
vn -0 1 0
vn -0 1 0
vn -0 1 0
vn -0 1 0
vn -0 1 0
vn -0 1 0
vn 1 -0.0013866425 -1.7881393E-07
vn 1 -0.0013866425 -1.7881393E-07
vn 1 -0.0013866425 -1.7881393E-07
vn 1 -0.0013866425 -1.7881393E-07
vn -1 0 1.7881393E-07
vn -1 0 1.7881393E-07
vn -1 0 1.7881393E-07
vn -1 0 1.7881393E-07
vn -0.0013380051 1 0
vn -0.0013380051 1 0
vn -0.0013380051 1 0
vn -0.0013380051 1 0
vn -1 0.0076293945 1.7881393E-07
vn -1 0.0076293945 1.7881393E-07
vn -1 0.0076293945 1.7881393E-07
vn -1 0.0076293945 1.7881393E-07
vn 0.012504578 1 0
vn 0.012504578 1 0
vn 0.012504578 1 0
vn 0.012504578 1 0
vn -0.009017944 1 0
vn -0.009017944 1 0
vn -0.009017944 1 0
vn -0.009017944 1 0
vn 1 0.012039185 -1.7881393E-07
vn 1 0.012039185 -1.7881393E-07
vn 1 0.012039185 -1.7881393E-07
vn 1 0.012039185 -1.7881393E-07
vn -1 0.0015449524 1.7881393E-07
vn -1 0.0015449524 1.7881393E-07
vn -1 0.0015449524 1.7881393E-07
vn -1 0.0015449524 1.7881393E-07
vn 0.004432678 1 0
vn 0.004432678 1 0
vn 0.004432678 1 0
vn 0.004432678 1 0
vn 0.002500534 1 0
vn 0.002500534 1 0
vn 0.002500534 1 0
vn 0.002500534 1 0
vn 1 -0.00019156933 -1.7881393E-07
vn 1 -0.00019156933 -1.7881393E-07
vn 1 -0.00019156933 -1.7881393E-07
vn 1 -0.00019156933 -1.7881393E-07
vn 0.0023269653 1 0
vn 0.0023269653 1 0
vn 0.0023269653 1 0
vn 0.0023269653 1 0
vn 1 0.013954163 -1.7881393E-07
vn 1 0.013954163 -1.7881393E-07
vn 1 0.013954163 -1.7881393E-07
vn 1 0.013954163 -1.7881393E-07
vn 0.010948181 1 0
vn 0.010948181 1 0
vn 0.010948181 1 0
vn 0.010948181 1 0
vn 1 0.00077295303 -1.7881393E-07
vn 1 0.00077295303 -1.7881393E-07
vn 1 0.00077295303 -1.7881393E-07
vn 1 0.00077295303 -1.7881393E-07
vn -0.0018024445 1 0
vn -0.0018024445 1 0
vn -0.0018024445 1 0
vn -0.0018024445 1 0
vn -0.0010280609 1 0
vn -0.0010280609 1 0
vn -0.0010280609 1 0
vn -0.0010280609 1 0
vn -0 1 0
vn -0 1 0
vn -0 1 0
vn -0 1 0
vn 0.002128601 -1 0
vn 0.002128601 -1 0
vn 0.002128601 -1 0
vn 0.002128601 -1 0
vn -1 0.0046081543 1.7881393E-07
vn -1 0.0046081543 1.7881393E-07
vn -1 0.0046081543 1.7881393E-07
vn -1 0.0046081543 1.7881393E-07
vn 0.00086402893 -1 0
vn 0.00086402893 -1 0
vn 0.00086402893 -1 0
vn 0.00086402893 -1 0
vn -1 -0.0002808571 1.7881393E-07
vn -1 -0.0002808571 1.7881393E-07
vn -1 -0.0002808571 1.7881393E-07
vn -1 -0.0002808571 1.7881393E-07
vn 0.00019323826 -1 0
vn 0.00019323826 -1 0
vn 0.00019323826 -1 0
vn 0.00019323826 -1 0
vn -1 0.0032424927 1.7881393E-07
vn -1 0.0032424927 1.7881393E-07
vn -1 0.0032424927 1.7881393E-07
vn -1 0.0032424927 1.7881393E-07
vn 0.0015249252 -1 0
vn 0.0015249252 -1 0
vn 0.0015249252 -1 0
vn 0.0015249252 -1 0
vn -1 0.0046310425 1.7881393E-07
vn -1 0.0046310425 1.7881393E-07
vn -1 0.0046310425 1.7881393E-07
vn -1 0.0046310425 1.7881393E-07
vn -0 -1 0
vn -0 -1 0
vn -0 -1 0
vn -0 -1 0
vn 0.0038452148 -1 0
vn 0.0038452148 -1 0
vn 0.0038452148 -1 0
vn 0.0038452148 -1 0
vn 1 -0.0037345886 -1.7881393E-07
vn 1 -0.0037345886 -1.7881393E-07
vn 1 -0.0037345886 -1.7881393E-07
vn 1 -0.0037345886 -1.7881393E-07
vn 1 -0.0015382767 -1.7881393E-07
vn 1 -0.0015382767 -1.7881393E-07
vn 1 -0.0015382767 -1.7881393E-07
vn 1 -0.0015382767 -1.7881393E-07
vn 0.0066719055 -1 0
vn 0.0066719055 -1 0
vn 0.0066719055 -1 0
vn 0.0066719055 -1 0
vn 1 -0.0045928955 -1.7881393E-07
vn 1 -0.0045928955 -1.7881393E-07
vn 1 -0.0045928955 -1.7881393E-07
vn 1 -0.0045928955 -1.7881393E-07
vn 8.392334E-05 -1 0
vn 8.392334E-05 -1 0
vn 8.392334E-05 -1 0
vn 8.392334E-05 -1 0
vn -1 0.0008649826 1.7881393E-07
vn -1 0.0008649826 1.7881393E-07
vn -1 0.0008649826 1.7881393E-07
vn -1 0.0008649826 1.7881393E-07
vn 1 0.0048065186 -1.7881393E-07
vn 1 0.0048065186 -1.7881393E-07
vn 1 0.0048065186 -1.7881393E-07
vn 1 0.0048065186 -1.7881393E-07
vn -1 0.00068569183 1.7881393E-07
vn -1 0.00068569183 1.7881393E-07
vn -1 0.00068569183 1.7881393E-07
vn -1 0.00068569183 1.7881393E-07
vn -0.0036144257 -1 0
vn -0.0036144257 -1 0
vn -0.0036144257 -1 0
vn -0.0036144257 -1 0
vn 1 0 -1.7881393E-07
vn 1 0 -1.7881393E-07
vn 1 0 -1.7881393E-07
vn 1 0 -1.7881393E-07
vn -1 0.0047302246 1.7881393E-07
vn -1 0.0047302246 1.7881393E-07
vn -1 0.0047302246 1.7881393E-07
vn -1 0.0047302246 1.7881393E-07
vn -0.0014295578 1 0
vn -0.0014295578 1 0
vn -0.0014295578 1 0
vn -0.0014295578 1 0
vn -1 0.004753113 1.7881393E-07
vn -1 0.004753113 1.7881393E-07
vn -1 0.004753113 1.7881393E-07
vn -1 0.004753113 1.7881393E-07
vn -0.011177063 1 0
vn -0.011177063 1 0
vn -0.011177063 1 0
vn -0.011177063 1 0
vn -0 2.3841858E-07 1
vn -0 2.3841858E-07 1
vn -0 2.3841858E-07 1
vn -0 2.4437904E-06 1
vn -1.7881393E-07 -3.4570694E-06 1
vn -0 2.4437904E-06 1
vn -0 0 1
vn -0 0 1
vn -1.7881393E-07 -3.4570694E-06 1
vn -0 -3.695488E-06 1
vn 1.7881393E-07 -3.5762787E-07 1
vn -0 0 1
vn -0 0 1
vn -0 0 1
vn -0 0 1
vn -0 -5.364418E-07 1
vn -0 0 1
vn -0 0 1
vn -0 0 1
vn -0 0 1
vn -0 0 1
vn -0 0 1
vn -0 0 1
vn -0 0 1
vn -0 0 1
vn -0 0 1
vn -0 0 1
vn -0 0 1
vn -0 -3.516674E-06 1
vn -0 -3.516674E-06 1
vn -0 -3.516674E-06 1
vn -4.172325E-07 -2.6226044E-06 1
vn -4.172325E-07 -2.6226044E-06 1
vn -0 0 1
vn -0 0 1
vn -0 0 1
vn -0 -2.4437904E-06 1
vn -0 -2.4437904E-06 1
vn -0 0 1
vn -0 -2.9802322E-06 1
vn -0 -1.1920929E-07 1
vn -0 -1.1920929E-07 1
vn -0 0 1
vn -0 0 1
vn -0 0 1
vn -0 0 1
vn -0 0 1
vn -0 0 1
g Rocks_Small_020_0
f 3/3/3 2/2/2 1/1/1
f 4/4/4 2/2/2 3/3/3
f 5/5/5 4/4/4 3/3/3
f 6/6/6 4/4/4 5/5/5
f 7/7/7 2/2/2 4/4/4
f 8/8/8 7/7/7 4/4/4
f 9/9/9 5/5/5 3/3/3
f 10/10/10 9/9/9 3/3/3
f 5/5/5 9/9/9 11/11/11
f 9/9/9 12/12/12 11/11/11
f 13/13/13 5/5/5 11/11/11
f 11/11/11 14/14/14 13/13/13
f 15/15/15 5/5/5 13/13/13
f 16/16/16 5/5/5 15/15/15
f 17/17/17 15/15/15 13/13/13
f 17/17/17 13/13/13 18/18/18
f 19/19/19 15/15/15 17/17/17
f 20/20/20 15/15/15 19/19/19
f 21/21/21 19/19/19 17/17/17
f 22/22/22 21/21/21 17/17/17
f 23/23/23 19/19/19 21/21/21
f 24/24/24 19/19/19 23/23/23
f 25/25/25 23/23/23 21/21/21
f 26/26/26 25/25/25 21/21/21
f 27/27/27 23/23/23 25/25/25
f 28/28/28 27/27/27 25/25/25
f 31/31/31 30/30/30 29/29/29
f 31/31/31 29/29/29 32/32/32
f 29/29/29 33/33/33 32/32/32
f 34/34/34 33/33/33 29/29/29
f 35/35/35 31/31/31 32/32/32
f 36/36/36 31/31/31 35/35/35
f 37/37/37 35/35/35 32/32/32
f 38/38/38 35/35/35 37/37/37
f 32/32/32 33/33/33 39/39/39
f 39/39/39 40/40/40 32/32/32
f 39/39/39 33/33/33 2/2/2
f 41/41/41 2/2/2 33/33/33
f 33/33/33 42/42/42 41/41/41
f 39/39/39 2/2/2 7/7/7
f 43/43/43 39/39/39 7/7/7
f 44/44/44 39/39/39 43/43/43
f 45/45/45 43/43/43 7/7/7
f 45/45/45 46/46/46 43/43/43
f 43/43/43 46/46/46 47/47/47
f 48/48/48 46/46/46 45/45/45
f 51/51/51 50/50/50 49/49/49
f 52/52/52 51/51/51 49/49/49
f 55/55/55 54/54/54 53/53/53
f 56/56/56 55/55/55 53/53/53
f 59/59/59 58/58/58 57/57/57
f 60/60/60 59/59/59 57/57/57
f 63/63/63 62/62/62 61/61/61
f 64/64/64 63/63/63 61/61/61
f 67/67/67 66/66/66 65/65/65
f 68/68/68 67/67/67 65/65/65
f 71/71/71 70/70/70 69/69/69
f 72/72/72 71/71/71 69/69/69
f 75/75/75 74/74/74 73/73/73
f 76/76/76 75/75/75 73/73/73
f 79/79/79 78/78/78 77/77/77
f 80/80/80 79/79/79 77/77/77
f 83/83/83 82/82/82 81/81/81
f 84/84/84 83/83/83 81/81/81
f 87/87/87 86/86/86 85/85/85
f 88/88/88 87/87/87 85/85/85
f 91/91/91 90/90/90 89/89/89
f 92/92/92 91/91/91 89/89/89
f 95/95/95 94/94/94 93/93/93
f 96/96/96 95/95/95 93/93/93
f 99/99/99 98/98/98 97/97/97
f 100/100/100 99/99/99 97/97/97
f 103/103/103 102/102/102 101/101/101
f 104/104/104 103/103/103 101/101/101
f 107/107/107 106/106/106 105/105/105
f 108/108/108 107/107/107 105/105/105
f 111/111/111 110/110/110 109/109/109
f 112/112/112 111/111/111 109/109/109
f 115/115/115 114/114/114 113/113/113
f 116/116/116 115/115/115 113/113/113
f 119/119/119 118/118/118 117/117/117
f 120/120/120 119/119/119 117/117/117
f 123/123/123 122/122/122 121/121/121
f 124/124/124 123/123/123 121/121/121
f 127/127/127 126/126/126 125/125/125
f 128/128/128 127/127/127 125/125/125
f 131/131/131 130/130/130 129/129/129
f 132/132/132 131/131/131 129/129/129
f 135/135/135 134/134/134 133/133/133
f 136/136/136 135/135/135 133/133/133
f 139/139/139 138/138/138 137/137/137
f 140/140/140 139/139/139 137/137/137
f 143/143/143 142/142/142 141/141/141
f 144/144/144 143/143/143 141/141/141
f 147/147/147 146/146/146 145/145/145
f 148/148/148 147/147/147 145/145/145
f 151/151/151 150/150/150 149/149/149
f 152/152/152 151/151/151 149/149/149
f 155/155/155 154/154/154 153/153/153
f 156/156/156 155/155/155 153/153/153
f 159/159/159 158/158/158 157/157/157
f 160/160/160 159/159/159 157/157/157
f 163/163/163 162/162/162 161/161/161
f 164/164/164 163/163/163 161/161/161
f 167/167/167 166/166/166 165/165/165
f 168/168/168 167/167/167 165/165/165
f 171/171/171 170/170/170 169/169/169
f 172/172/172 171/171/171 169/169/169
f 175/175/175 174/174/174 173/173/173
f 176/176/176 175/175/175 173/173/173
f 179/179/179 178/178/178 177/177/177
f 180/180/180 179/179/179 177/177/177
f 183/183/183 182/182/182 181/181/181
f 184/184/184 183/183/183 181/181/181
f 187/187/187 186/186/186 185/185/185
f 188/188/188 187/187/187 185/185/185
f 191/191/191 190/190/190 189/189/189
f 192/192/192 191/191/191 189/189/189
f 195/195/195 194/194/194 193/193/193
f 196/196/196 195/195/195 193/193/193
f 199/199/199 198/198/198 197/197/197
f 200/200/200 199/199/199 197/197/197
f 203/203/203 202/202/202 201/201/201
f 204/204/204 203/203/203 201/201/201
f 207/207/207 206/206/206 205/205/205
f 208/208/208 207/207/207 205/205/205
f 211/211/211 210/210/210 209/209/209
f 212/212/212 211/211/211 209/209/209
f 215/215/215 214/214/214 213/213/213
f 216/216/216 215/215/215 213/213/213
f 219/219/219 218/218/218 217/217/217
f 220/220/220 219/219/219 217/217/217
f 223/223/223 222/222/222 221/221/221
f 224/224/224 223/223/223 221/221/221
f 227/227/227 226/226/226 225/225/225
f 228/228/228 227/227/227 225/225/225
f 231/231/231 230/230/230 229/229/229
f 232/232/232 231/231/231 229/229/229
f 235/235/235 234/234/234 233/233/233
f 236/236/236 235/235/235 233/233/233
f 239/239/239 238/238/238 237/237/237
f 240/240/240 239/239/239 237/237/237
f 243/243/243 242/242/242 241/241/241
f 243/243/243 244/244/244 242/242/242
f 244/244/244 245/245/245 242/242/242
f 244/244/244 246/246/246 245/245/245
f 243/243/243 247/247/247 244/244/244
f 247/247/247 248/248/248 244/244/244
f 245/245/245 249/249/249 242/242/242
f 249/249/249 250/250/250 242/242/242
f 251/251/251 249/249/249 245/245/245
f 252/252/252 249/249/249 251/251/251
f 253/253/253 251/251/251 245/245/245
f 254/254/254 251/251/251 253/253/253
f 245/245/245 255/255/255 253/253/253
f 245/245/245 256/256/256 255/255/255
f 255/255/255 257/257/257 253/253/253
f 253/253/253 257/257/257 258/258/258
f 255/255/255 259/259/259 257/257/257
f 255/255/255 260/260/260 259/259/259
f 259/259/259 261/261/261 257/257/257
f 261/261/261 262/262/262 257/257/257
f 259/259/259 263/263/263 261/261/261
f 259/259/259 264/264/264 263/263/263
f 263/263/263 265/265/265 261/261/261
f 265/265/265 266/266/266 261/261/261
f 263/263/263 267/267/267 265/265/265
f 267/267/267 268/268/268 265/265/265
f 271/271/271 270/270/270 269/269/269
f 269/269/269 270/270/270 272/272/272
f 273/273/273 269/269/269 272/272/272
f 273/273/273 274/274/274 269/269/269
f 270/270/270 275/275/275 272/272/272
f 270/270/270 276/276/276 275/275/275
f 275/275/275 277/277/277 272/272/272
f 275/275/275 278/278/278 277/277/277
f 273/273/273 272/272/272 279/279/279
f 280/280/280 279/279/279 272/272/272
f 273/273/273 279/279/279 243/243/243
f 243/243/243 281/281/281 273/273/273
f 282/282/282 273/273/273 281/281/281
f 243/243/243 279/279/279 247/247/247
f 279/279/279 283/283/283 247/247/247
f 279/279/279 284/284/284 283/283/283
f 283/283/283 285/285/285 247/247/247
f 286/286/286 285/285/285 283/283/283
f 286/286/286 283/283/283 287/287/287
f 286/286/286 288/288/288 285/285/285
