g Rocks_Small_001
v -0.5046459 0.9653545 0.8183257
v -0.45815468 0.96591175 0.8183262
v -0.50533307 0.08150364 0.8183249
v -0.4609668 0.08116528 0.81832486
v 0.53274447 0.24235095 0.8183234
v -0.3077107 0.031956214 0.8183248
v -0.46096644 0.031646002 0.81832474
v -0.3070815 -0.24322428 0.8183242
v 0.5331358 -0.18844052 0.8183229
v 0.63735044 -0.24178445 0.8183229
v 0.6373499 -0.18871273 0.8183229
v 0.64098054 0.3490647 0.81832355
v 0.64095527 0.24267825 0.81832343
v -0.4627131 -0.30489293 0.81832385
v -0.4604254 -0.24366558 0.818324
v -0.5620872 -0.3525847 0.8183238
v -0.5618894 -0.30312493 0.818324
v 0.6848982 -0.5043568 0.81832236
v 0.68489796 -0.24178445 0.8183226
v -0.61755806 -0.35238674 0.81832373
v -0.617694 -0.5494055 0.81832325
v 0.7945326 -0.55222815 0.81832194
v 0.79450727 -0.5037594 0.8183221
v 0.63684356 0.91817176 0.81832397
v -0.24870424 1.0167062 0.818328
v -0.45819202 1.0164485 0.8183262
v -0.1501281 1.4461578 0.81832564
v -0.2487039 1.4458512 0.8183263
v -0.6158365 -1.116057 0.81832165
v 0.73575264 -1.2759603 0.81832135
v 0.8668849 -1.2727467 0.818321
v -0.5650105 -1.3267124 0.81832147
v 0.86740005 -0.55330634 0.81832194
v -0.6157907 -1.3272018 0.8183212
v -0.8212 -0.5982188 0.81832397
v -0.8212763 -0.55127937 0.818324
v -0.8219459 -1.0642666 0.8183224
v -0.821872 -1.1181717 0.8183222
v -0.8559033 -1.0646108 0.81832236
v -0.8541088 -0.60037094 0.8183238
v -0.24785416 -1.490325 0.8183215
v -0.24746847 -1.5957448 0.8183213
v -0.18908106 -1.593223 0.81832075
v -0.1889423 -1.6414675 0.8183206
v 0.17381652 -1.6364303 0.81832105
v -0.45802134 -1.4387918 0.8183213
v -0.45802134 -1.4914309 0.8183211
v -0.51349944 -1.381933 0.81832147
v -0.5653698 -1.3829406 0.81832135
v -0.5134987 -1.4395602 0.8183213
v 0.6890426 -1.6928146 0.8183206
v 0.7361549 -1.6919333 0.81832093
v 0.22580229 -1.693415 0.818321
v 0.17381617 -1.6942923 0.81832105
v 0.22832607 -1.7463582 0.8183206
v 0.69113076 -1.7438449 0.8183205
v 0.5998332 1.5438521 0.8183244
v 0.6433801 1.5437515 0.8183245
v -0.09068677 1.5474306 0.81832504
v -0.15021698 1.5471857 0.81832504
v -0.0901698 1.6008642 0.81832504
v 0.5983672 1.5998145 0.8183245
v 0.79959947 0.8640161 0.81832325
v 0.79960096 0.9179117 0.81832325
v 0.8018225 0.40015915 0.8183229
v 0.80182296 0.3490525 0.8183229
v 0.8782141 0.40036345 0.8183227
v 0.876694 0.8640158 0.81832314
v -0.24870424 1.0167062 0.818328
v -0.24870738 1.4458512 -0.8183241
v -0.2487039 1.4458512 0.8183263
v -0.24870773 1.0167062 -0.81832576
v -0.2487039 1.4458512 0.8183263
v -0.15013155 1.4461578 -0.8183251
v -0.1501281 1.4461578 0.81832564
v -0.24870738 1.4458512 -0.8183241
v -0.1501281 1.4461578 0.81832564
v -0.15022042 1.5471857 -0.81832457
v -0.15021698 1.5471857 0.81832504
v -0.15013155 1.4461578 -0.8183251
v -0.15021698 1.5471857 0.81832504
v -0.09069014 1.5474306 -0.81832457
v -0.09068677 1.5474306 0.81832504
v -0.15022042 1.5471857 -0.81832457
v -0.09068677 1.5474306 0.81832504
v -0.09017318 1.6008642 -0.81832457
v -0.0901698 1.6008642 0.81832504
v -0.09069014 1.5474306 -0.81832457
v -0.0901698 1.6008642 0.81832504
v 0.59836406 1.5998145 -0.81832623
v 0.5983672 1.5998145 0.8183245
v -0.09017318 1.6008642 -0.81832457
v 0.5983672 1.5998145 0.8183245
v 0.59983003 1.5438521 -0.818326
v 0.5998332 1.5438521 0.8183244
v 0.59836406 1.5998145 -0.81832623
v 0.6433801 1.5437515 0.8183245
v 0.59983003 1.5438521 -0.818326
v 0.643377 1.5437515 -0.81832623
v 0.5998332 1.5438521 0.8183244
v 0.79960096 0.9179117 0.81832325
v 0.79959583 0.8640162 -0.8183264
v 0.79959947 0.8640161 0.81832325
v 0.7995973 0.9179117 -0.8183264
v 0.79959947 0.8640161 0.81832325
v 0.8766903 0.8640159 -0.81832653
v 0.876694 0.8640158 0.81832314
v 0.79959583 0.8640162 -0.8183264
v 0.876694 0.8640158 0.81832314
v 0.8782104 0.4003636 -0.81832623
v 0.8782141 0.40036345 0.8183227
v 0.8766903 0.8640159 -0.81832653
v 0.8782141 0.40036345 0.8183227
v 0.8018189 0.4001592 -0.8183261
v 0.8018225 0.40015915 0.8183229
v 0.8782104 0.4003636 -0.81832623
v 0.8018225 0.40015915 0.8183229
v 0.8018194 0.34905264 -0.8183261
v 0.80182296 0.3490525 0.8183229
v 0.8018189 0.4001592 -0.8183261
v 0.80182296 0.3490525 0.8183229
v 0.6409773 0.34906486 -0.8183254
v 0.64098054 0.3490647 0.81832355
v 0.8018194 0.34905264 -0.8183261
v 0.64098054 0.3490647 0.81832355
v 0.6409521 0.24267833 -0.81832534
v 0.64095527 0.24267825 0.81832343
v 0.6409773 0.34906486 -0.8183254
v 0.64095527 0.24267825 0.81832343
v 0.53274137 0.242351 -0.8183251
v 0.53274447 0.24235095 0.8183234
v 0.6409521 0.24267833 -0.81832534
v -0.45819202 1.0164485 0.8183262
v -0.24870773 1.0167062 -0.81832576
v -0.24870424 1.0167062 0.818328
v -0.4581953 1.0164485 -0.81832385
v -0.45815468 0.96591175 0.8183262
v -0.4581953 1.0164485 -0.81832385
v -0.45819202 1.0164485 0.8183262
v -0.458158 0.96591175 -0.81832385
v -0.5046459 0.9653545 0.8183257
v -0.458158 0.96591175 -0.81832385
v -0.45815468 0.96591175 0.8183262
v -0.504649 0.9653545 -0.81832296
v -0.50533307 0.08150364 0.8183249
v -0.504649 0.9653545 -0.81832296
v -0.5046459 0.9653545 0.8183257
v -0.5053362 0.081503674 -0.8183225
v -0.4609668 0.08116528 0.81832486
v -0.5053362 0.081503674 -0.8183225
v -0.50533307 0.08150364 0.8183249
v -0.4609701 0.08116531 -0.8183227
v -0.46096644 0.031646002 0.81832474
v -0.4609701 0.08116531 -0.8183227
v -0.4609668 0.08116528 0.81832486
v -0.46096978 0.03164604 -0.81832266
v -0.3077107 0.031956214 0.8183248
v -0.46096978 0.03164604 -0.81832266
v -0.46096644 0.031646002 0.81832474
v -0.30771422 0.03195625 -0.8183227
v -0.3070815 -0.24322428 0.8183242
v -0.30771422 0.03195625 -0.8183227
v -0.3077107 0.031956214 0.8183248
v -0.30708498 -0.24322422 -0.8183221
v 0.63684356 0.91817176 0.81832397
v 0.643377 1.5437515 -0.81832623
v 0.6368404 0.91817176 -0.81832576
v 0.6433801 1.5437515 0.8183245
v 0.63684356 0.91817176 0.81832397
v 0.7995973 0.9179117 -0.8183264
v 0.79960096 0.9179117 0.81832325
v 0.6368404 0.91817176 -0.81832576
v -0.4604254 -0.24366558 0.818324
v -0.30708498 -0.24322422 -0.8183221
v -0.3070815 -0.24322428 0.8183242
v -0.46042868 -0.24366552 -0.81832194
v -0.4627131 -0.30489293 0.81832385
v -0.46042868 -0.24366552 -0.81832194
v -0.4604254 -0.24366558 0.818324
v -0.4627164 -0.30489287 -0.81832176
v -0.5618894 -0.30312493 0.818324
v -0.4627164 -0.30489287 -0.81832176
v -0.4627131 -0.30489293 0.81832385
v -0.5618925 -0.30312487 -0.8183216
v -0.5620872 -0.3525847 0.8183238
v -0.5618925 -0.30312487 -0.8183216
v -0.5618894 -0.30312493 0.818324
v -0.5620903 -0.3525846 -0.8183213
v -0.61755806 -0.35238674 0.81832373
v -0.5620903 -0.3525846 -0.8183213
v -0.5620872 -0.3525847 0.8183238
v -0.6175611 -0.35238668 -0.81832135
v 0.53274447 0.24235095 0.8183234
v 0.53313255 -0.18844046 -0.8183248
v 0.5331358 -0.18844052 0.8183229
v 0.53274137 0.242351 -0.8183251
v 0.5331358 -0.18844052 0.8183229
v 0.63734674 -0.18871266 -0.8183248
v 0.6373499 -0.18871273 0.8183229
v 0.53313255 -0.18844046 -0.8183248
v 0.6373499 -0.18871273 0.8183229
v 0.6373472 -0.2417844 -0.8183248
v 0.63735044 -0.24178445 0.8183229
v 0.63734674 -0.18871266 -0.8183248
v 0.63735044 -0.24178445 0.8183229
v 0.68489486 -0.2417844 -0.81832504
v 0.68489796 -0.24178445 0.8183226
v 0.6373472 -0.2417844 -0.8183248
v 0.68489796 -0.24178445 0.8183226
v 0.684895 -0.5043567 -0.81832474
v 0.6848982 -0.5043568 0.81832236
v 0.68489486 -0.2417844 -0.81832504
v 0.6848982 -0.5043568 0.81832236
v 0.7945036 -0.5037593 -0.8183254
v 0.79450727 -0.5037594 0.8183221
v 0.684895 -0.5043567 -0.81832474
v 0.86740005 -0.55330634 0.81832194
v 0.86688125 -1.2727467 -0.81832457
v 0.8668849 -1.2727467 0.818321
v 0.8673963 -0.55330634 -0.8183256
v 0.8668849 -1.2727467 0.818321
v 0.73574907 -1.2759604 -0.81832385
v 0.73575264 -1.2759603 0.81832135
v 0.86688125 -1.2727467 -0.81832457
v 0.73575264 -1.2759603 0.81832135
v 0.73615134 -1.6919333 -0.8183234
v 0.7361549 -1.6919333 0.81832093
v 0.73574907 -1.2759604 -0.81832385
v 0.7361549 -1.6919333 0.81832093
v 0.6890396 -1.6928146 -0.818323
v 0.6890426 -1.6928146 0.8183206
v 0.73615134 -1.6919333 -0.8183234
v 0.6890426 -1.6928146 0.8183206
v 0.6911276 -1.743845 -0.818323
v 0.69113076 -1.7438449 0.8183205
v 0.6890396 -1.6928146 -0.818323
v 0.69113076 -1.7438449 0.8183205
v 0.22832254 -1.7463582 -0.8183211
v 0.22832607 -1.7463582 0.8183206
v 0.6911276 -1.743845 -0.818323
v 0.22832607 -1.7463582 0.8183206
v 0.22579876 -1.693415 -0.8183213
v 0.22580229 -1.693415 0.818321
v 0.22832254 -1.7463582 -0.8183211
v 0.22580229 -1.693415 0.818321
v 0.17381275 -1.6942923 -0.81832075
v 0.17381617 -1.6942923 0.81832105
v 0.22579876 -1.693415 -0.8183213
v 0.17381617 -1.6942923 0.81832105
v 0.17381309 -1.6364303 -0.818321
v 0.17381652 -1.6364303 0.81832105
v 0.17381275 -1.6942923 -0.81832075
v 0.17381652 -1.6364303 0.81832105
v -0.18894586 -1.6414675 -0.8183202
v -0.1889423 -1.6414675 0.8183206
v 0.17381309 -1.6364303 -0.818321
v -0.1889423 -1.6414675 0.8183206
v -0.1890846 -1.593223 -0.8183202
v -0.18908106 -1.593223 0.81832075
v -0.18894586 -1.6414675 -0.8183202
v -0.18908106 -1.593223 0.81832075
v -0.24747197 -1.5957448 -0.8183193
v -0.24746847 -1.5957448 0.8183213
v -0.1890846 -1.593223 -0.8183202
v -0.24746847 -1.5957448 0.8183213
v -0.24785767 -1.490325 -0.81831944
v -0.24785416 -1.490325 0.8183215
v -0.24747197 -1.5957448 -0.8183193
v -0.24785416 -1.490325 0.8183215
v -0.45802465 -1.4914309 -0.81831914
v -0.45802134 -1.4914309 0.8183211
v -0.24785767 -1.490325 -0.81831944
v -0.6157907 -1.3272018 0.8183212
v -0.6158396 -1.116057 -0.81831944
v -0.6158365 -1.116057 0.81832165
v -0.6157938 -1.3272018 -0.8183191
v -0.6158365 -1.116057 0.81832165
v -0.8218757 -1.1181717 -0.8183181
v -0.821872 -1.1181717 0.8183222
v -0.6158396 -1.116057 -0.81831944
v -0.821872 -1.1181717 0.8183222
v -0.8219496 -1.0642666 -0.8183185
v -0.8219459 -1.0642666 0.8183224
v -0.8218757 -1.1181717 -0.8183181
v -0.8219459 -1.0642666 0.8183224
v -0.85590696 -1.0646108 -0.8183185
v -0.8559033 -1.0646108 0.81832236
v -0.8219496 -1.0642666 -0.8183185
v -0.8559033 -1.0646108 0.81832236
v -0.85411245 -0.6003707 -0.81831974
v -0.8541088 -0.60037094 0.8183238
v -0.85590696 -1.0646108 -0.8183185
v -0.8541088 -0.60037094 0.8183238
v -0.82120365 -0.5982187 -0.81831974
v -0.8212 -0.5982188 0.81832397
v -0.85411245 -0.6003707 -0.81831974
v -0.8212 -0.5982188 0.81832397
v -0.82127994 -0.5512792 -0.81832
v -0.8212763 -0.55127937 0.818324
v -0.82120365 -0.5982187 -0.81831974
v -0.8212763 -0.55127937 0.818324
v -0.6176972 -0.54940534 -0.818321
v -0.617694 -0.5494055 0.81832325
v -0.82127994 -0.5512792 -0.81832
v -0.617694 -0.5494055 0.81832325
v -0.6175611 -0.35238668 -0.81832135
v -0.61755806 -0.35238674 0.81832373
v -0.6176972 -0.54940534 -0.818321
v 0.79450727 -0.5037594 0.8183221
v 0.79452896 -0.552228 -0.81832534
v 0.7945326 -0.55222815 0.81832194
v 0.7945036 -0.5037593 -0.8183254
v 0.7945326 -0.55222815 0.81832194
v 0.8673963 -0.55330634 -0.8183256
v 0.86740005 -0.55330634 0.81832194
v 0.79452896 -0.552228 -0.81832534
v -0.504649 0.9653545 -0.81832296
v -0.5053362 0.081503674 -0.8183225
v -0.458158 0.96591175 -0.81832385
v -0.4609701 0.08116531 -0.8183227
v 0.53274137 0.242351 -0.8183251
v -0.30771422 0.03195625 -0.8183227
v -0.46096978 0.03164604 -0.81832266
v -0.30708498 -0.24322422 -0.8183221
v 0.53313255 -0.18844046 -0.8183248
v 0.6373472 -0.2417844 -0.8183248
v 0.63734674 -0.18871266 -0.8183248
v 0.6409773 0.34906486 -0.8183254
v 0.6409521 0.24267833 -0.81832534
v -0.4627164 -0.30489287 -0.81832176
v -0.46042868 -0.24366552 -0.81832194
v -0.5620903 -0.3525846 -0.8183213
v -0.5618925 -0.30312487 -0.8183216
v 0.684895 -0.5043567 -0.81832474
v 0.68489486 -0.2417844 -0.81832504
v -0.6175611 -0.35238668 -0.81832135
v -0.6176972 -0.54940534 -0.818321
v 0.79452896 -0.552228 -0.81832534
v 0.7945036 -0.5037593 -0.8183254
v 0.6368404 0.91817176 -0.81832576
v -0.24870773 1.0167062 -0.81832576
v -0.4581953 1.0164485 -0.81832385
v -0.15013155 1.4461578 -0.8183251
v -0.24870738 1.4458512 -0.8183241
v -0.6158396 -1.116057 -0.81831944
v 0.73574907 -1.2759604 -0.81832385
v 0.86688125 -1.2727467 -0.81832457
v -0.5650137 -1.3267125 -0.8183191
v 0.8673963 -0.55330634 -0.8183256
v -0.6157938 -1.3272018 -0.8183191
v -0.82120365 -0.5982187 -0.81831974
v -0.82127994 -0.5512792 -0.81832
v -0.8219496 -1.0642666 -0.8183185
v -0.8218757 -1.1181717 -0.8183181
v -0.85590696 -1.0646108 -0.8183185
v -0.85411245 -0.6003707 -0.81831974
v -0.24785767 -1.490325 -0.81831944
v -0.24747197 -1.5957448 -0.8183193
v -0.1890846 -1.593223 -0.8183202
v -0.18894586 -1.6414675 -0.8183202
v 0.17381309 -1.6364303 -0.818321
v -0.45802465 -1.4387918 -0.8183193
v -0.45802465 -1.4914309 -0.81831914
v -0.51350254 -1.381933 -0.8183191
v -0.5653729 -1.3829406 -0.818319
v -0.5135018 -1.4395602 -0.818319
v 0.6890396 -1.6928146 -0.818323
v 0.73615134 -1.6919333 -0.8183234
v 0.22579876 -1.693415 -0.8183213
v 0.17381275 -1.6942923 -0.81832075
v 0.22832254 -1.7463582 -0.8183211
v 0.6911276 -1.743845 -0.818323
v 0.643377 1.5437515 -0.81832623
v 0.59983003 1.5438521 -0.818326
v -0.09069014 1.5474306 -0.81832457
v -0.15022042 1.5471857 -0.81832457
v -0.09017318 1.6008642 -0.81832457
v 0.59836406 1.5998145 -0.81832623
v 0.79959583 0.8640162 -0.8183264
v 0.7995973 0.9179117 -0.8183264
v 0.8018189 0.4001592 -0.8183261
v 0.8018194 0.34905264 -0.8183261
v 0.8782104 0.4003636 -0.81832623
v 0.8766903 0.8640159 -0.81832653
v -0.45802134 -1.4914309 0.8183211
v -0.45802465 -1.4387918 -0.8183193
v -0.45802134 -1.4387918 0.8183213
v -0.45802465 -1.4914309 -0.81831914
v -0.45802134 -1.4387918 0.8183213
v -0.5135018 -1.4395602 -0.818319
v -0.5134987 -1.4395602 0.8183213
v -0.45802465 -1.4387918 -0.8183193
v -0.5134987 -1.4395602 0.8183213
v -0.51350254 -1.381933 -0.8183191
v -0.51349944 -1.381933 0.81832147
v -0.5135018 -1.4395602 -0.818319
v -0.51349944 -1.381933 0.81832147
v -0.5653729 -1.3829406 -0.818319
v -0.5653698 -1.3829406 0.81832135
v -0.51350254 -1.381933 -0.8183191
v -0.5653698 -1.3829406 0.81832135
v -0.5650137 -1.3267125 -0.8183191
v -0.5650105 -1.3267124 0.81832147
v -0.5653729 -1.3829406 -0.818319
v -0.5650105 -1.3267124 0.81832147
v -0.6157938 -1.3272018 -0.8183191
v -0.6157907 -1.3272018 0.8183212
v -0.5650137 -1.3267125 -0.8183191
vt 0.4074707 0.65185547
vt 0.41455078 0.65185547
vt 0.4074707 0.52001953
vt 0.4140625 0.52001953
vt 0.5625 0.5439453
vt 0.43701172 0.5126953
vt 0.4140625 0.51220703
vt 0.43701172 0.47143555
vt 0.5625 0.4794922
vt 0.578125 0.4716797
vt 0.578125 0.4794922
vt 0.5786133 0.5595703
vt 0.5786133 0.5439453
vt 0.41381836 0.4621582
vt 0.4140625 0.47143555
vt 0.39892578 0.45507812
vt 0.39892578 0.46240234
vt 0.58496094 0.43237305
vt 0.58496094 0.4716797
vt 0.390625 0.45507812
vt 0.390625 0.42578125
vt 0.6015625 0.42529297
vt 0.6015625 0.43237305
vt 0.578125 0.64501953
vt 0.44580078 0.65966797
vt 0.41430664 0.65966797
vt 0.46044922 0.7236328
vt 0.44580078 0.7236328
vt 0.39086914 0.3408203
vt 0.59277344 0.31713867
vt 0.6123047 0.31762695
vt 0.39770508 0.3088379
vt 0.6123047 0.42504883
vt 0.39038086 0.30932617
vt 0.36035156 0.41845703
vt 0.36035156 0.4255371
vt 0.36010742 0.34887695
vt 0.36010742 0.3408203
vt 0.3552246 0.34887695
vt 0.35546875 0.4182129
vt 0.44555664 0.2849121
vt 0.44580078 0.2692871
vt 0.45458984 0.2697754
vt 0.45458984 0.26245117
vt 0.50878906 0.2631836
vt 0.41455078 0.2932129
vt 0.41430664 0.2849121
vt 0.40551758 0.3010254
vt 0.39770508 0.30078125
vt 0.40600586 0.29248047
vt 0.5859375 0.2548828
vt 0.59277344 0.2548828
vt 0.51660156 0.2548828
vt 0.50878906 0.25463867
vt 0.51708984 0.24682617
vt 0.5859375 0.24731445
vt 0.5722656 0.73828125
vt 0.57910156 0.73828125
vt 0.46923828 0.73876953
vt 0.46044922 0.73876953
vt 0.46948242 0.74658203
vt 0.5722656 0.74658203
vt 0.6020508 0.63671875
vt 0.6020508 0.64453125
vt 0.60253906 0.5673828
vt 0.60253906 0.5595703
vt 0.6142578 0.5673828
vt 0.61376953 0.63671875
vt 0.33422852 0.6640625
vt 0.09350586 0.7270508
vt 0.33422852 0.7270508
vt 0.09350586 0.6640625
vt 0.42773438 0.7607422
vt 0.44213867 0.9814453
vt 0.44213867 0.7607422
vt 0.42773438 0.9814453
vt 0.44213867 0.7607422
vt 0.45703125 0.9814453
vt 0.45703125 0.7607422
vt 0.44213867 0.9814453
vt 0.45703125 0.7607422
vt 0.4658203 0.9814453
vt 0.4658203 0.7607422
vt 0.45703125 0.9814453
vt 0.4658203 0.7607422
vt 0.4736328 0.9814453
vt 0.4736328 0.7607422
vt 0.4658203 0.9814453
vt 0.4736328 0.7607422
vt 0.57470703 0.9814453
vt 0.57470703 0.7607422
vt 0.4736328 0.9814453
vt 0.57470703 0.7607422
vt 0.5830078 0.9814453
vt 0.5830078 0.7607422
vt 0.57470703 0.9814453
vt 0.58935547 0.7607422
vt 0.5830078 0.9814453
vt 0.58935547 0.9814453
vt 0.5830078 0.7607422
vt 0.64208984 0.62158203
vt 0.8828125 0.61376953
vt 0.64208984 0.61376953
vt 0.8828125 0.62158203
vt 0.64208984 0.61376953
vt 0.8828125 0.60253906
vt 0.64208984 0.60253906
vt 0.8828125 0.61376953
vt 0.64208984 0.60253906
vt 0.8828125 0.5341797
vt 0.64208984 0.5341797
vt 0.8828125 0.60253906
vt 0.64208984 0.5341797
vt 0.8828125 0.5229492
vt 0.64208984 0.5229492
vt 0.8828125 0.5341797
vt 0.64208984 0.5229492
vt 0.8828125 0.515625
vt 0.64208984 0.515625
vt 0.8828125 0.5229492
vt 0.64208984 0.515625
vt 0.8828125 0.49194336
vt 0.64208984 0.49194336
vt 0.8828125 0.515625
vt 0.64208984 0.49194336
vt 0.8828125 0.47631836
vt 0.64208984 0.47631836
vt 0.8828125 0.49194336
vt 0.64208984 0.47631836
vt 0.8828125 0.46044922
vt 0.64208984 0.46044922
vt 0.8828125 0.47631836
vt 0.33422852 0.6333008
vt 0.09350586 0.6640625
vt 0.33422852 0.6640625
vt 0.09350586 0.6333008
vt 0.33422852 0.62597656
vt 0.09350586 0.6333008
vt 0.33422852 0.6333008
vt 0.09350586 0.62597656
vt 0.33422852 0.6191406
vt 0.09350586 0.62597656
vt 0.33422852 0.62597656
vt 0.09350586 0.6191406
vt 0.33422852 0.4892578
vt 0.09350586 0.6191406
vt 0.33422852 0.6191406
vt 0.09350586 0.4892578
vt 0.33422852 0.48291016
vt 0.09350586 0.4892578
vt 0.33422852 0.4892578
vt 0.09350586 0.48291016
vt 0.33422852 0.47558594
vt 0.09350586 0.48291016
vt 0.33422852 0.48291016
vt 0.09350586 0.47558594
vt 0.33422852 0.453125
vt 0.09350586 0.47558594
vt 0.33422852 0.47558594
vt 0.09350586 0.453125
vt 0.33422852 0.4128418
vt 0.09350586 0.453125
vt 0.33422852 0.453125
vt 0.09350586 0.4128418
vt 0.64208984 0.6455078
vt 0.8828125 0.73779297
vt 0.8828125 0.6455078
vt 0.64208984 0.73779297
vt 0.64208984 0.6455078
vt 0.8828125 0.62158203
vt 0.64208984 0.62158203
vt 0.8828125 0.6455078
vt 0.33422852 0.39038086
vt 0.09350586 0.4128418
vt 0.33422852 0.4128418
vt 0.09350586 0.39038086
vt 0.33422852 0.38134766
vt 0.09350586 0.39038086
vt 0.33422852 0.39038086
vt 0.09350586 0.38134766
vt 0.33422852 0.36694336
vt 0.09350586 0.38134766
vt 0.33422852 0.38134766
vt 0.09350586 0.36694336
vt 0.33422852 0.35986328
vt 0.09350586 0.36694336
vt 0.33422852 0.36694336
vt 0.09350586 0.35986328
vt 0.33422852 0.35180664
vt 0.09350586 0.35986328
vt 0.33422852 0.35986328
vt 0.09350586 0.35180664
vt 0.64208984 0.46044922
vt 0.8828125 0.3972168
vt 0.64208984 0.3972168
vt 0.8828125 0.46044922
vt 0.64208984 0.3972168
vt 0.8828125 0.38183594
vt 0.64208984 0.38183594
vt 0.8828125 0.3972168
vt 0.64208984 0.38183594
vt 0.8828125 0.37402344
vt 0.64208984 0.37402344
vt 0.8828125 0.38183594
vt 0.64208984 0.37402344
vt 0.8828125 0.3671875
vt 0.64208984 0.3671875
vt 0.8828125 0.37402344
vt 0.64208984 0.3671875
vt 0.8828125 0.32861328
vt 0.64208984 0.32861328
vt 0.8828125 0.3671875
vt 0.64208984 0.32861328
vt 0.8828125 0.3125
vt 0.64208984 0.3125
vt 0.8828125 0.32861328
vt 0.64208984 0.29467773
vt 0.8828125 0.18884277
vt 0.64208984 0.18896484
vt 0.8828125 0.29467773
vt 0.64208984 0.18896484
vt 0.8828125 0.16967773
vt 0.64208984 0.16967773
vt 0.8828125 0.18884277
vt 0.64208984 0.16967773
vt 0.8828125 0.10845947
vt 0.64208984 0.10845947
vt 0.8828125 0.16967773
vt 0.64208984 0.10845947
vt 0.8828125 0.1015625
vt 0.64208984 0.1015625
vt 0.8828125 0.10845947
vt 0.64208984 0.1015625
vt 0.8828125 0.094055176
vt 0.64208984 0.094055176
vt 0.8828125 0.1015625
vt 0.5878906 0.23522949
vt 0.51953125 0.014457703
vt 0.51953125 0.23522949
vt 0.5878906 0.014457703
vt 0.51953125 0.23522949
vt 0.51220703 0.014457703
vt 0.51220703 0.23522949
vt 0.51953125 0.014457703
vt 0.51220703 0.23522949
vt 0.50439453 0.014457703
vt 0.50439453 0.23522949
vt 0.51220703 0.014457703
vt 0.50439453 0.23522949
vt 0.4958496 0.014457703
vt 0.4958496 0.23522949
vt 0.50439453 0.014457703
vt 0.4958496 0.23522949
vt 0.4423828 0.014457703
vt 0.4423828 0.23522949
vt 0.4958496 0.014457703
vt 0.4423828 0.23522949
vt 0.43530273 0.014450073
vt 0.43530273 0.23522949
vt 0.4423828 0.014457703
vt 0.43530273 0.23522949
vt 0.4267578 0.014450073
vt 0.4267578 0.23522949
vt 0.43530273 0.014450073
vt 0.4267578 0.23522949
vt 0.41137695 0.014450073
vt 0.41137695 0.23522949
vt 0.4267578 0.014450073
vt 0.33422852 0.061187744
vt 0.093566895 0.09210205
vt 0.33422852 0.09210205
vt 0.093566895 0.061187744
vt 0.33422852 0.13952637
vt 0.09350586 0.17053223
vt 0.33422852 0.17053223
vt 0.09350586 0.13952637
vt 0.33422852 0.17053223
vt 0.09350586 0.2006836
vt 0.33422852 0.2006836
vt 0.09350586 0.17053223
vt 0.33422852 0.2006836
vt 0.09350586 0.2084961
vt 0.33422852 0.2084961
vt 0.09350586 0.2006836
vt 0.33422852 0.2084961
vt 0.09350586 0.2133789
vt 0.33422852 0.2133789
vt 0.09350586 0.2084961
vt 0.33422852 0.2133789
vt 0.09350586 0.28149414
vt 0.33422852 0.28149414
vt 0.09350586 0.2133789
vt 0.33422852 0.28149414
vt 0.09350586 0.28637695
vt 0.33422852 0.28637695
vt 0.09350586 0.28149414
vt 0.33422852 0.28637695
vt 0.09350586 0.29296875
vt 0.33422852 0.2932129
vt 0.09350586 0.28637695
vt 0.33422852 0.2932129
vt 0.09350586 0.32299805
vt 0.33422852 0.32299805
vt 0.09350586 0.29296875
vt 0.33422852 0.32299805
vt 0.09350586 0.35180664
vt 0.33422852 0.35180664
vt 0.09350586 0.32299805
vt 0.64208984 0.3125
vt 0.8828125 0.30541992
vt 0.64208984 0.30541992
vt 0.8828125 0.3125
vt 0.64208984 0.30541992
vt 0.8828125 0.29467773
vt 0.64208984 0.29467773
vt 0.8828125 0.30541992
vt 0.4074707 0.65185547
vt 0.4074707 0.52001953
vt 0.41455078 0.6513672
vt 0.4140625 0.52001953
vt 0.5625 0.54296875
vt 0.43701172 0.5126953
vt 0.4140625 0.51220703
vt 0.43701172 0.47143555
vt 0.5625 0.4794922
vt 0.578125 0.4716797
vt 0.578125 0.4794922
vt 0.5786133 0.55908203
vt 0.5786133 0.5439453
vt 0.41381836 0.4621582
vt 0.4140625 0.47143555
vt 0.39892578 0.45507812
vt 0.39892578 0.46240234
vt 0.58496094 0.43237305
vt 0.58496094 0.4716797
vt 0.390625 0.45507812
vt 0.390625 0.42578125
vt 0.6015625 0.42529297
vt 0.6015625 0.43237305
vt 0.578125 0.64501953
vt 0.44580078 0.65966797
vt 0.41430664 0.65966797
vt 0.46044922 0.7236328
vt 0.44580078 0.7236328
vt 0.39086914 0.3408203
vt 0.59277344 0.31713867
vt 0.6123047 0.31762695
vt 0.39770508 0.3088379
vt 0.6123047 0.42504883
vt 0.39038086 0.30932617
vt 0.36035156 0.41845703
vt 0.36035156 0.4255371
vt 0.36010742 0.34887695
vt 0.36010742 0.3408203
vt 0.3552246 0.34887695
vt 0.35546875 0.4182129
vt 0.44555664 0.2849121
vt 0.44580078 0.2692871
vt 0.45458984 0.2697754
vt 0.45458984 0.26245117
vt 0.50878906 0.2631836
vt 0.41455078 0.2932129
vt 0.41430664 0.2849121
vt 0.40551758 0.3010254
vt 0.39770508 0.30078125
vt 0.40600586 0.29248047
vt 0.5859375 0.2548828
vt 0.59277344 0.2548828
vt 0.51660156 0.2548828
vt 0.50878906 0.25463867
vt 0.51708984 0.24682617
vt 0.5859375 0.24731445
vt 0.57910156 0.73828125
vt 0.5722656 0.73828125
vt 0.46923828 0.73876953
vt 0.46044922 0.73876953
vt 0.46948242 0.74658203
vt 0.5722656 0.74658203
vt 0.6020508 0.63671875
vt 0.6020508 0.64453125
vt 0.60253906 0.5673828
vt 0.60253906 0.5595703
vt 0.6142578 0.5673828
vt 0.61376953 0.63671875
vt 0.33422852 0.09210205
vt 0.093566895 0.09979248
vt 0.33422852 0.09979248
vt 0.093566895 0.09210205
vt 0.33422852 0.09979248
vt 0.09350586 0.107910156
vt 0.33422852 0.107910156
vt 0.093566895 0.09979248
vt 0.33422852 0.107910156
vt 0.09350586 0.11633301
vt 0.33422852 0.11633301
vt 0.09350586 0.107910156
vt 0.33422852 0.11633301
vt 0.09350586 0.1239624
vt 0.33422852 0.1239624
vt 0.09350586 0.11633301
vt 0.33422852 0.1239624
vt 0.09350586 0.13208008
vt 0.33422852 0.13208008
vt 0.09350586 0.1239624
vt 0.33422852 0.13208008
vt 0.09350586 0.13952637
vt 0.33422852 0.13952637
vt 0.09350586 0.13208008
vn -9.834766E-06 -8.34465E-07 1
vn -5.00679E-06 -2.9802322E-06 1
vn 1.3113022E-06 -1.4305115E-06 1
vn 1.0728836E-06 -1.5497208E-06 1
vn 9.536743E-07 -1.847744E-06 1
vn 1.4901161E-06 1.1920929E-07 1
vn -4.7683716E-07 -3.0994415E-06 1
vn 1.4305115E-06 -5.722046E-06 1
vn 1.3113022E-06 1.1324883E-06 1
vn 2.3841858E-06 -7.748604E-07 1
vn -0 0 1
vn 1.9669533E-06 -1.3709068E-06 1
vn -7.1525574E-07 -1.4305115E-06 1
vn 6.556511E-07 -3.9339066E-06 1
vn -1.013279E-06 -2.4437904E-06 1
vn -4.7683716E-07 -1.5258789E-05 1
vn 1.4305115E-06 -4.6491623E-06 1
vn 1.2516975E-06 -4.2915344E-06 1
vn 6.4373016E-06 -8.940697E-07 1
vn 5.9604645E-07 -3.695488E-06 1
vn 1.9073486E-06 -2.6226044E-06 1
vn 8.34465E-07 -2.2053719E-06 1
vn 2.0861626E-06 -3.1590462E-06 1
vn 2.861023E-06 -5.9604645E-07 1
vn 1.66893E-06 -2.0742416E-05 1
vn -8.761883E-06 0 1
vn 3.695488E-06 3.874302E-06 1
vn 6.9737434E-06 3.9339066E-06 1
vn 1.0728836E-06 -2.3245811E-06 1
vn 9.536743E-07 -1.1324883E-06 1
vn 2.7418137E-06 -1.0728836E-06 1
vn -1.4305115E-06 -1.2516975E-06 1
vn -0 -1.3709068E-06 1
vn -4.4703484E-06 -2.1457672E-06 1
vn 1.1324883E-06 -2.6226044E-06 1
vn 3.7550926E-06 -1.6093254E-06 1
vn 1.1324883E-06 -3.516674E-06 1
vn 2.6226044E-06 -4.23193E-06 1
vn -2.3245811E-06 -3.2782555E-06 1
vn -4.4107437E-06 -3.0994415E-06 1
vn -0 -8.34465E-07 1
vn 2.3841858E-06 -7.56979E-06 1
vn 6.4969063E-06 -2.092123E-05 1
vn -0 -2.1457672E-06 1
vn -2.3841858E-07 2.3841858E-07 1
vn -1.3709068E-06 -2.861023E-06 1
vn -1.7881393E-06 -2.9206276E-06 1
vn 4.1007996E-05 3.7789345E-05 1
vn -1.4305115E-06 -1.3709068E-06 1
vn -0 -2.6226044E-06 1
vn -1.66893E-06 -1.6093254E-06 1
vn -6.4373016E-06 -1.1324883E-06 1
vn 9.536743E-07 -2.6226044E-06 1
vn 1.4901161E-06 0 1
vn 7.748604E-07 -6.7949295E-06 1
vn 1.7881393E-07 -1.4901161E-06 1
vn 2.3841858E-07 -7.1525574E-07 1
vn -1.7285347E-06 -8.34465E-07 1
vn 7.1525574E-07 3.7550926E-06 1
vn -0 6.020069E-06 1
vn 8.940697E-07 0 1
vn 7.748604E-07 -1.3709068E-06 1
vn 3.3974648E-06 -5.364418E-07 1
vn 4.23193E-06 0 1
vn 3.6358833E-06 -5.9604645E-07 1
vn 4.2915344E-06 0 1
vn 2.026558E-06 -8.34465E-07 1
vn 1.9669533E-06 -8.34465E-07 1
vn -1 7.748604E-07 2.1457672E-06
vn -1 7.748604E-07 2.1457672E-06
vn -1 7.748604E-07 2.1457672E-06
vn -1 7.748604E-07 2.1457672E-06
vn -0.0031089783 1 0
vn -0.0031089783 1 0
vn -0.0031089783 1 0
vn -0.0031089783 1 0
vn -1 -0.00087976456 2.0861626E-06
vn -1 -0.00087976456 2.0861626E-06
vn -1 -0.00087976456 2.0861626E-06
vn -1 -0.00087976456 2.0861626E-06
vn -0.0041160583 1 0
vn -0.0041160583 1 0
vn -0.0041160583 1 0
vn -0.0041160583 1 0
vn -1 0.009674072 2.0861626E-06
vn -1 0.009674072 2.0861626E-06
vn -1 0.009674072 2.0861626E-06
vn -1 0.009674072 2.0861626E-06
vn 0.0015249252 1 0
vn 0.0015249252 1 0
vn 0.0015249252 1 0
vn 0.0015249252 1 0
vn 0.9995117 0.026184082 -1.9073486E-06
vn 0.9995117 0.026184082 -1.9073486E-06
vn 0.9995117 0.026184082 -1.9073486E-06
vn 0.9995117 0.026184082 -1.9073486E-06
vn 0.0023097992 1 0
vn 0.0023097992 1 0
vn 0.0023097992 1 0
vn 0.0023097992 1 0
vn 1 -2.8312206E-05 -2.2053719E-06
vn 1 -2.8312206E-05 -2.2053719E-06
vn 1 -2.8312206E-05 -2.2053719E-06
vn 1 -2.6881695E-05 -2.2649765E-06
vn 3.9339066E-06 1 0
vn 3.9339066E-06 1 0
vn 3.9339066E-06 1 0
vn 3.9339066E-06 1 0
vn 1 0.0032787323 -2.2649765E-06
vn 1 0.0032787323 -2.2649765E-06
vn 1 0.0032787323 -2.2649765E-06
vn 1 0.0032787323 -2.2649765E-06
vn 0.0026741028 -1 0
vn 0.0026741028 -1 0
vn 0.0026741028 -1 0
vn 0.0026760101 -1 0
vn 1 8.940697E-06 -2.2053719E-06
vn 1 8.940697E-06 -2.2053719E-06
vn 1 8.940697E-06 -2.2053719E-06
vn 1 8.940697E-06 -2.2053719E-06
vn -7.587671E-05 -1 0
vn -7.587671E-05 -1 0
vn -7.587671E-05 -1 0
vn -7.587671E-05 -1 0
vn 1 -0.0002373457 -1.9073486E-06
vn 1 -0.0002373457 -1.9073486E-06
vn 1 -0.0002373457 -1.9073486E-06
vn 1 -0.00023663044 -1.9669533E-06
vn 0.003025055 -1 0
vn 0.003025055 -1 0
vn 0.003025055 -1 0
vn 0.003025055 -1 0
vn -0.0012302399 1 0
vn -0.0012302399 1 0
vn -0.0012302399 1 0
vn -0.0012302399 1 0
vn -1 -0.0007390976 2.026558E-06
vn -1 -0.0007390976 2.026558E-06
vn -1 -0.0007390976 2.026558E-06
vn -1 -0.0007381439 2.026558E-06
vn -0.011985779 1 0
vn -0.011985779 1 0
vn -0.011985779 1 0
vn -0.011985779 1 0
vn -1 0.0007777214 1.9073486E-06
vn -1 0.0007777214 1.9073486E-06
vn -1 0.0007777214 1.9073486E-06
vn -1 0.0007777214 1.9073486E-06
vn -0.00762558 -1 0
vn -0.00762558 -1 0
vn -0.00762558 -1 0
vn -0.00762558 -1 0
vn -1 -6.914139E-06 2.026558E-06
vn -1 -6.914139E-06 2.026558E-06
vn -1 -6.914139E-06 2.026558E-06
vn -1 -6.914139E-06 2.026558E-06
vn 0.002023697 -1 0
vn 0.002023697 -1 0
vn 0.002023697 -1 0
vn 0.002023697 -1 0
vn -1 -0.002286911 2.1457672E-06
vn -1 -0.002286911 2.1457672E-06
vn -1 -0.002286911 2.1457672E-06
vn -1 -0.002286911 2.1457672E-06
vn 1 -0.010444641 -1.9073486E-06
vn 1 -0.010444641 -1.9073486E-06
vn 1 -0.010444641 -1.9073486E-06
vn 1 -0.010444641 -1.9073486E-06
vn 0.0015974045 1 0
vn 0.0015974045 1 0
vn 0.0015974045 1 0
vn 0.0015974045 1 0
vn -0.002878189 1 0
vn -0.002878189 1 0
vn -0.002878189 1 0
vn -0.002878189 1 0
vn -0.9995117 0.037322998 2.026558E-06
vn -0.9995117 0.037322998 2.026558E-06
vn -0.9995117 0.037322998 2.026558E-06
vn -0.9995117 0.037322998 2.026558E-06
vn 0.017822266 1 0
vn 0.017822266 1 0
vn 0.017822266 1 0
vn 0.017822266 1 0
vn -1 0.0039978027 1.9073486E-06
vn -1 0.0039978027 1.9073486E-06
vn -1 0.0039978027 1.9073486E-06
vn -1 0.0039978027 1.9073486E-06
vn 0.0035686493 1 0
vn 0.0035686493 1 0
vn 0.0035686493 1 0
vn 0.0035686493 1 0
vn 1 0.0009083748 -1.9669533E-06
vn 1 0.0009083748 -1.9669533E-06
vn 1 0.0009083748 -1.9669533E-06
vn 1 0.0009083748 -1.9073486E-06
vn 0.0026111603 1 0
vn 0.0026111603 1 0
vn 0.0026111603 1 0
vn 0.0026111603 1 0
vn 1 1.0073185E-05 -1.9073486E-06
vn 1 1.0073185E-05 -1.9073486E-06
vn 1 1.0073185E-05 -1.9073486E-06
vn 1 9.357929E-06 -1.9073486E-06
vn -0 1 0
vn -0 1 0
vn -0 1 0
vn -0 1 0
vn 1 8.940697E-07 -1.9669533E-06
vn 1 8.940697E-07 -1.9669533E-06
vn 1 8.940697E-07 -1.9669533E-06
vn 1 5.9604645E-07 -1.9073486E-06
vn -0.0054512024 1 0
vn -0.0054512024 1 0
vn -0.0054512024 1 0
vn -0.0054512024 1 1.1920929E-07
vn 1 -0.0007162094 -2.2649765E-06
vn 1 -0.0007162094 -2.2649765E-06
vn 1 -0.0007162094 -2.2649765E-06
vn 1 -0.0007157326 -2.2649765E-06
vn 0.024505615 -0.9995117 0
vn 0.024505615 -0.9995117 0
vn 0.024505615 -0.9995117 0
vn 0.024505615 -0.9995117 0
vn 1 0.00096702576 -2.2053719E-06
vn 1 0.00096702576 -2.2053719E-06
vn 1 0.00096702576 -2.2053719E-06
vn 1 0.00096702576 -2.2053719E-06
vn 0.018707275 -1 0
vn 0.018707275 -1 0
vn 0.018707275 -1 0
vn 0.018707275 -1 0
vn 0.99902344 0.040893555 -1.9073486E-06
vn 0.99902344 0.040893555 -1.9073486E-06
vn 0.99902344 0.040893555 -1.9073486E-06
vn 0.99902344 0.040893555 -1.847744E-06
vn 0.005432129 -1 0
vn 0.005432129 -1 0
vn 0.005432129 -1 0
vn 0.005428314 -1 0
vn -0.99902344 -0.047607422 2.1457672E-06
vn -0.99902344 -0.047607422 2.1457672E-06
vn -0.99902344 -0.047607422 2.1457672E-06
vn -0.99902344 -0.047607422 2.1457672E-06
vn 0.01687622 -1 0
vn 0.01687622 -1 0
vn 0.01687622 -1 0
vn 0.01687622 -1 0
vn -1 5.9604645E-06 2.0861626E-06
vn -1 5.9604645E-06 2.0861626E-06
vn -1 5.9604645E-06 2.0861626E-06
vn -1 5.9604645E-06 2.0861626E-06
vn 0.013885498 -1 0
vn 0.013885498 -1 0
vn 0.013885498 -1 0
vn 0.013885498 -1 0
vn -1 -0.0028762817 2.1457672E-06
vn -1 -0.0028762817 2.1457672E-06
vn -1 -0.0028762817 2.1457672E-06
vn -1 -0.0028762817 2.2053719E-06
vn 0.043151855 -0.99902344 0
vn 0.043151855 -0.99902344 0
vn 0.043151855 -0.99902344 0
vn 0.043151855 -0.99902344 0
vn -1 -0.0036582947 2.1457672E-06
vn -1 -0.0036582947 2.1457672E-06
vn -1 -0.0036582947 2.1457672E-06
vn -1 -0.0036582947 2.1457672E-06
vn 0.0052604675 -1 0
vn 0.0052604675 -1 0
vn 0.0052604675 -1 0
vn 0.0052604675 -1 0
vn -1 -0.0002168417 1.9073486E-06
vn -1 -0.0002168417 1.9073486E-06
vn -1 -0.0002168417 1.9073486E-06
vn -1 -0.0002168417 1.9073486E-06
vn 0.010261536 -1 0
vn 0.010261536 -1 0
vn 0.010261536 -1 0
vn 0.010261536 -1 0
vn -1 -0.0013713837 2.2649765E-06
vn -1 -0.0013713837 2.2649765E-06
vn -1 -0.0013713837 2.2649765E-06
vn -1 -0.0013713837 2.2649765E-06
vn 0.010139465 -1 0
vn 0.010139465 -1 0
vn 0.010139465 -1 0
vn 0.010139465 -1 0
vn -1 0.0038661957 2.2649765E-06
vn -1 0.0038661957 2.2649765E-06
vn -1 0.0038661957 2.2649765E-06
vn -1 0.0038661957 2.2649765E-06
vn -0.06524658 0.9980469 2.3841858E-07
vn -0.06524658 0.9980469 2.3841858E-07
vn -0.06524658 0.9980469 2.3841858E-07
vn -0.06524658 0.9980469 2.9802322E-07
vn -1 -0.001625061 2.2649765E-06
vn -1 -0.001625061 2.2649765E-06
vn -1 -0.001625061 2.2649765E-06
vn -1 -0.001625061 2.2649765E-06
vn -0.00920105 1 1.1920929E-07
vn -0.00920105 1 1.1920929E-07
vn -0.00920105 1 1.1920929E-07
vn -0.00920105 1 1.1920929E-07
vn -1 0.00068998337 1.847744E-06
vn -1 0.00068998337 1.847744E-06
vn -1 0.00068998337 1.847744E-06
vn -1 0.00069093704 1.9669533E-06
vn 1 0.0005226135 -2.2649765E-06
vn 1 0.0005226135 -2.2649765E-06
vn 1 0.0005226135 -2.2649765E-06
vn 1 0.0005226135 -2.2649765E-06
vn 0.014793396 1 0
vn 0.014793396 1 0
vn 0.014793396 1 0
vn 0.014793396 1 0
vn -1.9669533E-05 -4.7683716E-07 -1
vn -5.6624413E-06 -1.2516975E-06 -1
vn -9.775162E-06 -2.0861626E-06 -1
vn -2.682209E-06 -1.7285347E-06 -1
vn -2.2649765E-06 -1.0728836E-06 -1
vn -1.7881393E-06 -3.6358833E-06 -1
vn -4.7683716E-07 -1.5497208E-06 -1
vn -2.5629997E-06 -3.5762787E-07 -1
vn -2.6226044E-06 -3.2782555E-06 -1
vn -2.7418137E-06 -1.1920929E-06 -1
vn -0 0 -1
vn -2.6226044E-06 -7.1525574E-07 -1
vn -2.0861626E-06 -7.1525574E-07 -1
vn -2.0861626E-06 -3.993511E-06 -1
vn -1.013279E-06 -3.695488E-06 -1
vn 2.3841858E-07 2.0623207E-05 -1
vn -1.66893E-06 -6.1392784E-06 -1
vn -3.33786E-06 2.861023E-06 -1
vn -4.827976E-06 -1.1324883E-06 -1
vn -2.503395E-06 7.1525574E-07 -1
vn -3.695488E-06 -2.503395E-06 -1
vn -4.053116E-06 -1.013279E-06 -1
vn -6.2584877E-06 -1.5497208E-06 -1
vn -2.2649765E-06 -7.1525574E-07 -1
vn -2.5629997E-06 -1.4603138E-05 -1
vn -9.119511E-06 0 -1
vn -3.3974648E-06 3.2782555E-06 -1
vn -1.0073185E-05 3.9339066E-06 -1
vn -3.9339066E-06 -2.7418137E-06 -1
vn -4.23193E-06 -1.7285347E-06 -1
vn -5.066395E-06 -1.5497208E-06 -1
vn -2.2053719E-06 -2.3245811E-06 -1
vn -3.1590462E-06 -1.3709068E-06 -1
vn -0 -1.7881393E-06 -1
vn -3.3974648E-06 -3.3974648E-06 -1
vn -4.827976E-06 -4.887581E-06 -1
vn -3.874302E-06 -3.5762787E-06 -1
vn -6.2584877E-06 -5.6624413E-06 -1
vn -0 -2.8014183E-06 -1
vn 1.7881393E-07 -2.8014183E-06 -1
vn -3.516674E-06 -2.9802322E-06 -1
vn -6.4969063E-06 5.722046E-06 -1
vn -1.2040138E-05 2.348423E-05 -1
vn -3.516674E-06 -1.1324883E-06 -1
vn -3.874302E-06 -3.2186508E-06 -1
vn -1.7285347E-06 -2.9802322E-07 -1
vn -1.4305115E-06 -2.9206276E-06 -1
vn -6.300211E-05 -5.8174133E-05 -1
vn -1.4305115E-06 -1.3709068E-06 -1
vn -5.4836273E-06 -1.3113022E-06 -1
vn -4.827976E-06 -1.013279E-06 -1
vn -6.4373016E-06 -1.3113022E-06 -1
vn -4.9471855E-06 -7.748604E-07 -1
vn -1.0192394E-05 -3.9339066E-06 -1
vn -3.8146973E-06 -2.861023E-06 -1
vn -4.1127205E-06 -1.7881393E-07 -1
vn -5.2452087E-06 -6.556511E-07 -1
vn -2.9206276E-06 -1.4901161E-06 -1
vn -1.6093254E-06 4.053116E-06 -1
vn -0 5.3048134E-06 -1
vn -2.1457672E-06 -1.7881393E-07 -1
vn -2.4437904E-06 -4.172325E-06 -1
vn -3.2782555E-06 -4.7683716E-07 -1
vn -3.7550926E-06 0 -1
vn -3.3974648E-06 -4.7683716E-07 -1
vn -4.2915344E-06 0 -1
vn -1.9669533E-06 -6.556511E-07 -1
vn -1.9669533E-06 -6.556511E-07 -1
vn -1 0 2.026558E-06
vn -1 0 2.026558E-06
vn -1 0 2.026558E-06
vn -1 0 2.026558E-06
vn 0.013847351 -1 0
vn 0.013847351 -1 0
vn 0.013847351 -1 0
vn 0.013847351 -1 0
vn -1 -1.1920929E-05 1.9073486E-06
vn -1 -1.1920929E-05 1.9073486E-06
vn -1 -1.1920929E-05 1.9073486E-06
vn -1 -1.1920929E-05 1.9073486E-06
vn 0.019424438 -1 0
vn 0.019424438 -1 0
vn 0.019424438 -1 0
vn 0.019424438 -1 0
vn -1 0.006389618 1.9073486E-06
vn -1 0.006389618 1.9073486E-06
vn -1 0.006389618 1.9073486E-06
vn -1 0.006389618 1.9073486E-06
vn 0.009635925 -1 0
vn 0.009635925 -1 0
vn 0.009635925 -1 0
vn 0.009635925 -1 0
g Rocks_Small_001_0
f 3/3/3 2/2/2 1/1/1
f 4/4/4 2/2/2 3/3/3
f 5/5/5 2/2/2 4/4/4
f 6/6/6 5/5/5 4/4/4
f 7/7/7 6/6/6 4/4/4
f 6/6/6 8/8/8 5/5/5
f 5/5/5 8/8/8 9/9/9
f 9/9/9 8/8/8 10/10/10
f 11/11/11 9/9/9 10/10/10
f 12/12/12 2/2/2 5/5/5
f 13/13/13 12/12/12 5/5/5
f 8/8/8 14/14/14 10/10/10
f 15/15/15 14/14/14 8/8/8
f 10/10/10 14/14/14 16/16/16
f 17/17/17 16/16/16 14/14/14
f 10/10/10 16/16/16 18/18/18
f 19/19/19 10/10/10 18/18/18
f 16/16/16 20/20/20 18/18/18
f 18/18/18 20/20/20 21/21/21
f 21/21/21 22/22/22 18/18/18
f 23/23/23 18/18/18 22/22/22
f 24/24/24 2/2/2 12/12/12
f 25/25/25 2/2/2 24/24/24
f 26/26/26 2/2/2 25/25/25
f 25/25/25 24/24/24 27/27/27
f 28/28/28 25/25/25 27/27/27
f 21/21/21 29/29/29 22/22/22
f 29/29/29 30/30/30 22/22/22
f 30/30/30 31/31/31 22/22/22
f 32/32/32 30/30/30 29/29/29
f 31/31/31 33/33/33 22/22/22
f 34/34/34 32/32/32 29/29/29
f 29/29/29 21/21/21 35/35/35
f 36/36/36 35/35/35 21/21/21
f 37/37/37 29/29/29 35/35/35
f 38/38/38 29/29/29 37/37/37
f 39/39/39 37/37/37 35/35/35
f 40/40/40 39/39/39 35/35/35
f 41/41/41 30/30/30 32/32/32
f 42/42/42 30/30/30 41/41/41
f 43/43/43 30/30/30 42/42/42
f 44/44/44 30/30/30 43/43/43
f 45/45/45 30/30/30 44/44/44
f 46/46/46 41/41/41 32/32/32
f 47/47/47 41/41/41 46/46/46
f 48/48/48 46/46/46 32/32/32
f 49/49/49 48/48/48 32/32/32
f 50/50/50 46/46/46 48/48/48
f 51/51/51 30/30/30 45/45/45
f 52/52/52 30/30/30 51/51/51
f 53/53/53 51/51/51 45/45/45
f 54/54/54 53/53/53 45/45/45
f 55/55/55 51/51/51 53/53/53
f 56/56/56 51/51/51 55/55/55
f 58/58/58 57/57/57 24/24/24
f 57/57/57 27/27/27 24/24/24
f 59/59/59 27/27/27 57/57/57
f 60/60/60 27/27/27 59/59/59
f 61/61/61 59/59/59 57/57/57
f 62/62/62 61/61/61 57/57/57
f 64/64/64 24/24/24 63/63/63
f 63/63/63 24/24/24 12/12/12
f 65/65/65 63/63/63 12/12/12
f 66/66/66 65/65/65 12/12/12
f 67/67/67 63/63/63 65/65/65
f 68/68/68 63/63/63 67/67/67
f 71/71/71 70/70/70 69/69/69
f 72/72/72 69/69/69 70/70/70
f 75/75/75 74/74/74 73/73/73
f 76/76/76 73/73/73 74/74/74
f 79/79/79 78/78/78 77/77/77
f 80/80/80 77/77/77 78/78/78
f 83/83/83 82/82/82 81/81/81
f 84/84/84 81/81/81 82/82/82
f 87/87/87 86/86/86 85/85/85
f 88/88/88 85/85/85 86/86/86
f 91/91/91 90/90/90 89/89/89
f 92/92/92 89/89/89 90/90/90
f 95/95/95 94/94/94 93/93/93
f 96/96/96 93/93/93 94/94/94
f 99/99/99 98/98/98 97/97/97
f 100/100/100 97/97/97 98/98/98
f 103/103/103 102/102/102 101/101/101
f 104/104/104 101/101/101 102/102/102
f 107/107/107 106/106/106 105/105/105
f 108/108/108 105/105/105 106/106/106
f 111/111/111 110/110/110 109/109/109
f 112/112/112 109/109/109 110/110/110
f 115/115/115 114/114/114 113/113/113
f 116/116/116 113/113/113 114/114/114
f 119/119/119 118/118/118 117/117/117
f 120/120/120 117/117/117 118/118/118
f 123/123/123 122/122/122 121/121/121
f 124/124/124 121/121/121 122/122/122
f 127/127/127 126/126/126 125/125/125
f 128/128/128 125/125/125 126/126/126
f 131/131/131 130/130/130 129/129/129
f 132/132/132 129/129/129 130/130/130
f 135/135/135 134/134/134 133/133/133
f 136/136/136 133/133/133 134/134/134
f 139/139/139 138/138/138 137/137/137
f 140/140/140 137/137/137 138/138/138
f 143/143/143 142/142/142 141/141/141
f 144/144/144 141/141/141 142/142/142
f 147/147/147 146/146/146 145/145/145
f 148/148/148 145/145/145 146/146/146
f 151/151/151 150/150/150 149/149/149
f 152/152/152 149/149/149 150/150/150
f 155/155/155 154/154/154 153/153/153
f 156/156/156 153/153/153 154/154/154
f 159/159/159 158/158/158 157/157/157
f 160/160/160 157/157/157 158/158/158
f 163/163/163 162/162/162 161/161/161
f 164/164/164 161/161/161 162/162/162
f 167/167/167 166/166/166 165/165/165
f 168/168/168 165/165/165 166/166/166
f 171/171/171 170/170/170 169/169/169
f 172/172/172 169/169/169 170/170/170
f 175/175/175 174/174/174 173/173/173
f 176/176/176 173/173/173 174/174/174
f 179/179/179 178/178/178 177/177/177
f 180/180/180 177/177/177 178/178/178
f 183/183/183 182/182/182 181/181/181
f 184/184/184 181/181/181 182/182/182
f 187/187/187 186/186/186 185/185/185
f 188/188/188 185/185/185 186/186/186
f 191/191/191 190/190/190 189/189/189
f 192/192/192 189/189/189 190/190/190
f 195/195/195 194/194/194 193/193/193
f 196/196/196 193/193/193 194/194/194
f 199/199/199 198/198/198 197/197/197
f 200/200/200 197/197/197 198/198/198
f 203/203/203 202/202/202 201/201/201
f 204/204/204 201/201/201 202/202/202
f 207/207/207 206/206/206 205/205/205
f 208/208/208 205/205/205 206/206/206
f 211/211/211 210/210/210 209/209/209
f 212/212/212 209/209/209 210/210/210
f 215/215/215 214/214/214 213/213/213
f 216/216/216 213/213/213 214/214/214
f 219/219/219 218/218/218 217/217/217
f 220/220/220 217/217/217 218/218/218
f 223/223/223 222/222/222 221/221/221
f 224/224/224 221/221/221 222/222/222
f 227/227/227 226/226/226 225/225/225
f 228/228/228 225/225/225 226/226/226
f 231/231/231 230/230/230 229/229/229
f 232/232/232 229/229/229 230/230/230
f 235/235/235 234/234/234 233/233/233
f 236/236/236 233/233/233 234/234/234
f 239/239/239 238/238/238 237/237/237
f 240/240/240 237/237/237 238/238/238
f 243/243/243 242/242/242 241/241/241
f 244/244/244 241/241/241 242/242/242
f 247/247/247 246/246/246 245/245/245
f 248/248/248 245/245/245 246/246/246
f 251/251/251 250/250/250 249/249/249
f 252/252/252 249/249/249 250/250/250
f 255/255/255 254/254/254 253/253/253
f 256/256/256 253/253/253 254/254/254
f 259/259/259 258/258/258 257/257/257
f 260/260/260 257/257/257 258/258/258
f 263/263/263 262/262/262 261/261/261
f 264/264/264 261/261/261 262/262/262
f 267/267/267 266/266/266 265/265/265
f 268/268/268 265/265/265 266/266/266
f 271/271/271 270/270/270 269/269/269
f 272/272/272 269/269/269 270/270/270
f 275/275/275 274/274/274 273/273/273
f 276/276/276 273/273/273 274/274/274
f 279/279/279 278/278/278 277/277/277
f 280/280/280 277/277/277 278/278/278
f 283/283/283 282/282/282 281/281/281
f 284/284/284 281/281/281 282/282/282
f 287/287/287 286/286/286 285/285/285
f 288/288/288 285/285/285 286/286/286
f 291/291/291 290/290/290 289/289/289
f 292/292/292 289/289/289 290/290/290
f 295/295/295 294/294/294 293/293/293
f 296/296/296 293/293/293 294/294/294
f 299/299/299 298/298/298 297/297/297
f 300/300/300 297/297/297 298/298/298
f 303/303/303 302/302/302 301/301/301
f 304/304/304 301/301/301 302/302/302
f 307/307/307 306/306/306 305/305/305
f 308/308/308 305/305/305 306/306/306
f 311/311/311 310/310/310 309/309/309
f 312/312/312 309/309/309 310/310/310
f 315/315/315 314/314/314 313/313/313
f 316/316/316 313/313/313 314/314/314
f 319/319/319 318/318/318 317/317/317
f 319/319/319 320/320/320 318/318/318
f 319/319/319 321/321/321 320/320/320
f 321/321/321 322/322/322 320/320/320
f 322/322/322 323/323/323 320/320/320
f 324/324/324 322/322/322 321/321/321
f 324/324/324 321/321/321 325/325/325
f 324/324/324 325/325/325 326/326/326
f 325/325/325 327/327/327 326/326/326
f 319/319/319 328/328/328 321/321/321
f 328/328/328 329/329/329 321/321/321
f 330/330/330 324/324/324 326/326/326
f 330/330/330 331/331/331 324/324/324
f 330/330/330 326/326/326 332/332/332
f 332/332/332 333/333/333 330/330/330
f 332/332/332 326/326/326 334/334/334
f 326/326/326 335/335/335 334/334/334
f 336/336/336 332/332/332 334/334/334
f 336/336/336 334/334/334 337/337/337
f 338/338/338 337/337/337 334/334/334
f 334/334/334 339/339/339 338/338/338
f 319/319/319 340/340/340 328/328/328
f 319/319/319 341/341/341 340/340/340
f 319/319/319 342/342/342 341/341/341
f 340/340/340 341/341/341 343/343/343
f 341/341/341 344/344/344 343/343/343
f 345/345/345 337/337/337 338/338/338
f 346/346/346 345/345/345 338/338/338
f 347/347/347 346/346/346 338/338/338
f 346/346/346 348/348/348 345/345/345
f 349/349/349 347/347/347 338/338/338
f 348/348/348 350/350/350 345/345/345
f 337/337/337 345/345/345 351/351/351
f 351/351/351 352/352/352 337/337/337
f 345/345/345 353/353/353 351/351/351
f 345/345/345 354/354/354 353/353/353
f 353/353/353 355/355/355 351/351/351
f 355/355/355 356/356/356 351/351/351
f 346/346/346 357/357/357 348/348/348
f 346/346/346 358/358/358 357/357/357
f 346/346/346 359/359/359 358/358/358
f 346/346/346 360/360/360 359/359/359
f 346/346/346 361/361/361 360/360/360
f 357/357/357 362/362/362 348/348/348
f 357/357/357 363/363/363 362/362/362
f 362/362/362 364/364/364 348/348/348
f 364/364/364 365/365/365 348/348/348
f 362/362/362 366/366/366 364/364/364
f 346/346/346 367/367/367 361/361/361
f 346/346/346 368/368/368 367/367/367
f 367/367/367 369/369/369 361/361/361
f 369/369/369 370/370/370 361/361/361
f 367/367/367 371/371/371 369/369/369
f 367/367/367 372/372/372 371/371/371
f 374/374/374 373/373/373 340/340/340
f 343/343/343 374/374/374 340/340/340
f 343/343/343 375/375/375 374/374/374
f 343/343/343 376/376/376 375/375/375
f 375/375/375 377/377/377 374/374/374
f 377/377/377 378/378/378 374/374/374
f 340/340/340 380/380/380 379/379/379
f 340/340/340 379/379/379 328/328/328
f 379/379/379 381/381/381 328/328/328
f 381/381/381 382/382/382 328/328/328
f 379/379/379 383/383/383 381/381/381
f 379/379/379 384/384/384 383/383/383
f 387/387/387 386/386/386 385/385/385
f 388/388/388 385/385/385 386/386/386
f 391/391/391 390/390/390 389/389/389
f 392/392/392 389/389/389 390/390/390
f 395/395/395 394/394/394 393/393/393
f 396/396/396 393/393/393 394/394/394
f 399/399/399 398/398/398 397/397/397
f 400/400/400 397/397/397 398/398/398
f 403/403/403 402/402/402 401/401/401
f 404/404/404 401/401/401 402/402/402
f 407/407/407 406/406/406 405/405/405
f 408/408/408 405/405/405 406/406/406
