g Rocks_Small_010
v -0.7245868 -0.8415334 -0.9819994
v -0.7245874 -0.9043198 -0.9819994
v -0.65917355 -0.9047814 -0.9819994
v -0.7214697 -0.07036274 -0.9819994
v -0.79735225 -0.8413509 -0.9819994
v -0.79733884 -0.07036945 -0.9819994
v -0.6425946 -0.0028037643 -0.9819994
v -0.72144103 -0.00084941863 -0.9819994
v -0.65917355 -0.9047814 -0.9819994
v -0.43300536 -0.98101705 -0.9819994
v -0.65917355 -0.9805561 -0.9819994
v -0.41988647 0.053225096 -0.9819994
v -0.64349914 0.05323978 -0.9819994
v -0.43300536 -0.98101705 -0.9819994
v -0.3397278 0.115587644 -0.9819994
v -0.419646 0.11516379 -0.9819994
v 0.54674804 -0.6008419 -0.98200184
v 0.54471374 0.19461304 -0.98200184
v -0.34128052 0.6088455 -0.9819994
v 0.6337933 0.19461234 -0.98200184
v 0.6337927 0.24682869 -0.98200184
v -0.34448424 -1.0328653 -0.9819994
v -0.4336035 -1.0335155 -0.9819994
v -0.27983886 -1.0956534 -0.9819994
v -0.34448364 -1.0954862 -0.9819994
v 0.7351269 0.74399275 -0.98200184
v -0.42224973 0.66411865 -0.9819994
v -0.4216919 0.60808164 -0.9819994
v 0.7334009 0.31210217 -0.98200184
v 0.7334002 0.24900143 -0.98200184
v 0.79735595 0.74328166 -0.98200184
v 0.7951581 0.31210202 -0.98200184
v 0.68972653 1.2786527 -0.98200184
v 0.73533565 1.2786895 -0.98200184
v 0.54083556 -1.0977845 -0.98200184
v 0.6316186 -1.0962044 -0.98200184
v 0.6297015 -0.5995301 -0.98200184
v -0.12116821 -1.1481225 -0.98200065
v -0.2813507 -1.1477058 -0.9819994
v -0.045092773 -1.2157147 -0.98200065
v -0.12116821 -1.2155159 -0.98200065
v 0.48231933 -1.2665601 -0.9820031
v 0.015566406 -1.3292296 -0.98200065
v -0.045300294 -1.3292283 -0.98200065
v 0.42467162 -1.3335762 -0.9819982
v 0.48286253 -1.3326559 -0.98199695
v 0.015574341 -1.3985753 -0.98200065
v 0.42521116 -1.3996091 -0.9820031
v 0.54083556 -1.0977845 -0.98200184
v 0.48231933 -1.2665601 -0.9820031
v 0.54083496 -1.2584006 -0.9820031
v 0.54083586 -1.0977876 0.981998
v 0.54083556 -1.2584045 0.98199725
v 0.48231933 -1.2665585 0.98199725
v -0.6425946 -0.0028062533 0.98200065
v -0.43300536 -0.98101985 0.98200077
v -0.65917385 -0.9047839 0.98200065
v -0.41831174 1.279174 -0.9819994
v -0.17685242 1.3418636 -0.9819994
v -0.41802612 1.34186 -0.9819994
v -0.49491942 1.2792686 -0.9819994
v -0.4949292 0.6637497 -0.9819994
v 0.62983215 1.3410279 -0.98200184
v 0.6901245 1.3406451 -0.98200184
v -0.1767639 1.3996358 -0.9819994
v 0.6299377 1.3991888 -0.98200184
v -0.4949292 0.6637497 -0.9819994
v -0.49493042 0.6637472 0.98200047
v -0.42224973 0.66411865 -0.9819994
v -0.42224973 0.6641158 0.98200065
v -0.49491942 1.2792686 -0.9819994
v -0.49492064 1.2792661 0.98200047
v -0.49493042 0.6637472 0.98200047
v -0.4949292 0.6637497 -0.9819994
v -0.49491942 1.2792686 -0.9819994
v -0.41831174 1.279174 -0.9819994
v -0.41831174 1.2791712 0.98200065
v -0.49492064 1.2792661 0.98200047
v -0.41802612 1.34186 -0.9819994
v -0.41802612 1.3418576 0.98200065
v -0.41831174 1.2791712 0.98200065
v -0.41831174 1.279174 -0.9819994
v -0.17685242 1.3418636 -0.9819994
v -0.17685181 1.3418595 0.98200065
v -0.41802612 1.3418576 0.98200065
v -0.41802612 1.34186 -0.9819994
v 0.79735595 0.74328166 -0.98200184
v 0.79735684 0.74327904 0.9819982
v 0.73512787 0.74399024 0.9819983
v 0.7351269 0.74399275 -0.98200184
v -0.43300536 -0.98101705 -0.9819994
v -0.43300536 -0.98101985 0.98200077
v -0.4336035 -1.0335194 0.98200065
v -0.4336035 -1.0335155 -0.9819994
v -0.4336035 -1.0335155 -0.9819994
v -0.4336035 -1.0335194 0.98200065
v -0.34448394 -1.0328679 0.98200065
v -0.34448424 -1.0328653 -0.9819994
v 0.6299377 1.3991888 -0.98200184
v 0.62993896 1.399185 0.9819982
v -0.17676269 1.399632 0.98200077
v -0.1767639 1.3996358 -0.9819994
v 0.62983215 1.3410279 -0.98200184
v 0.62983304 1.3410254 0.981998
v 0.62993896 1.399185 0.9819982
v 0.6299377 1.3991888 -0.98200184
v -0.1767639 1.3996358 -0.9819994
v -0.17676269 1.399632 0.98200077
v -0.17685181 1.3418595 0.98200065
v -0.17685242 1.3418636 -0.9819994
v 0.73533565 1.2786895 -0.98200184
v 0.73533565 1.2786872 0.981998
v 0.6897268 1.2786505 0.981998
v 0.68972653 1.2786527 -0.98200184
v 0.7351269 0.74399275 -0.98200184
v 0.73512787 0.74399024 0.9819983
v 0.73533565 1.2786872 0.981998
v 0.73533565 1.2786895 -0.98200184
v 0.6901245 1.3406451 -0.98200184
v 0.6901245 1.3406427 0.981998
v 0.62983304 1.3410254 0.981998
v 0.62983215 1.3410279 -0.98200184
v 0.68972653 1.2786527 -0.98200184
v 0.6897268 1.2786505 0.981998
v 0.6901245 1.3406427 0.981998
v 0.6901245 1.3406451 -0.98200184
v 0.54674804 -0.6008419 -0.98200184
v 0.54674804 -0.6008446 0.9819983
v 0.54471403 0.19460991 0.9819983
v 0.54471374 0.19461304 -0.98200184
v -0.419646 0.11516379 -0.9819994
v -0.41964477 0.115161315 0.98200065
v -0.41988584 0.053222645 0.98200065
v -0.41988647 0.053225096 -0.9819994
v -0.3397278 0.115587644 -0.9819994
v -0.33972716 0.1155852 0.98200047
v -0.41964477 0.115161315 0.98200065
v -0.419646 0.11516379 -0.9819994
v -0.4216919 0.60808164 -0.9819994
v -0.4216919 0.6080778 0.98200047
v -0.3412799 0.60884243 0.98200047
v -0.34128052 0.6088455 -0.9819994
v -0.42224973 0.66411865 -0.9819994
v -0.42224973 0.6641158 0.98200065
v -0.4216919 0.6080778 0.98200047
v -0.4216919 0.60808164 -0.9819994
v 0.7334002 0.24900143 -0.98200184
v 0.7334012 0.24899894 0.9819982
v 0.7334015 0.3120996 0.9819982
v 0.7334009 0.31210217 -0.98200184
v 0.6337927 0.24682869 -0.98200184
v 0.6337933 0.24682614 0.9819983
v 0.7334012 0.24899894 0.9819982
v 0.7334002 0.24900143 -0.98200184
v 0.7951581 0.31210202 -0.98200184
v 0.7951581 0.31209952 0.9819982
v 0.79735684 0.74327904 0.9819982
v 0.79735595 0.74328166 -0.98200184
v 0.7334009 0.31210217 -0.98200184
v 0.7334015 0.3120996 0.9819982
v 0.7951581 0.31209952 0.9819982
v 0.7951581 0.31210202 -0.98200184
v -0.34128052 0.6088455 -0.9819994
v -0.3412799 0.60884243 0.98200047
v -0.33972716 0.1155852 0.98200047
v -0.3397278 0.115587644 -0.9819994
v 0.6337933 0.19461234 -0.98200184
v 0.63379365 0.19460957 0.9819983
v 0.6337933 0.24682614 0.9819983
v 0.6337927 0.24682869 -0.98200184
v 0.54471374 0.19461304 -0.98200184
v 0.54471403 0.19460991 0.9819983
v 0.63379365 0.19460957 0.9819983
v 0.6337933 0.19461234 -0.98200184
v -0.79735225 -0.8413509 -0.9819994
v -0.7973535 -0.8413534 0.98200047
v -0.7245871 -0.8415359 0.98200065
v -0.7245868 -0.8415334 -0.9819994
v -0.79733884 -0.07036945 -0.9819994
v -0.79733974 -0.07037193 0.98200047
v -0.7973535 -0.8413534 0.98200047
v -0.79735225 -0.8413509 -0.9819994
v -0.7214697 -0.07036274 -0.9819994
v -0.7214703 -0.07036522 0.98200065
v -0.79733974 -0.07037193 0.98200047
v -0.79733884 -0.07036945 -0.9819994
v -0.72144103 -0.00084941863 -0.9819994
v -0.72144103 -0.0008519077 0.98200065
v -0.7214703 -0.07036522 0.98200065
v -0.7214697 -0.07036274 -0.9819994
v -0.6425946 -0.0028037643 -0.9819994
v -0.6425946 -0.0028062533 0.98200065
v -0.72144103 -0.0008519077 0.98200065
v -0.72144103 -0.00084941863 -0.9819994
v -0.64349914 0.05323978 -0.9819994
v -0.64349914 0.053237293 0.98200065
v -0.6425946 -0.0028062533 0.98200065
v -0.6425946 -0.0028037643 -0.9819994
v -0.41988647 0.053225096 -0.9819994
v -0.41988584 0.053222645 0.98200065
v -0.64349914 0.053237293 0.98200065
v -0.64349914 0.05323978 -0.9819994
v -0.7245874 -0.9043198 -0.9819994
v -0.7245874 -0.9043223 0.98200065
v -0.65917385 -0.9047839 0.98200065
v -0.65917355 -0.9047814 -0.9819994
v -0.7245868 -0.8415334 -0.9819994
v -0.7245871 -0.8415359 0.98200065
v -0.7245874 -0.9043223 0.98200065
v -0.7245874 -0.9043198 -0.9819994
v -0.65917355 -0.9805561 -0.9819994
v -0.65917385 -0.9805586 0.98200065
v -0.43300536 -0.98101985 0.98200077
v -0.43300536 -0.98101705 -0.9819994
v -0.65917355 -0.9047814 -0.9819994
v -0.65917385 -0.9047839 0.98200065
v -0.65917385 -0.9805586 0.98200065
v -0.65917355 -0.9805561 -0.9819994
v 0.54083556 -1.0977845 -0.98200184
v 0.54083586 -1.0977876 0.981998
v 0.631618 -1.0962071 0.9819982
v 0.6316186 -1.0962044 -0.98200184
v 0.6297015 -0.5995301 -0.98200184
v 0.6297015 -0.5995327 0.9819983
v 0.54674804 -0.6008446 0.9819983
v 0.54674804 -0.6008419 -0.98200184
v 0.6316186 -1.0962044 -0.98200184
v 0.631618 -1.0962071 0.9819982
v 0.6297015 -0.5995327 0.9819983
v 0.6297015 -0.5995301 -0.98200184
v -0.2813507 -1.1477058 -0.9819994
v -0.28134978 -1.1477098 0.98200047
v -0.121167295 -1.1481262 0.9819996
v -0.12116821 -1.1481225 -0.98200065
v -0.27983886 -1.0956534 -0.9819994
v -0.27983826 -1.0956563 0.98200065
v -0.28134978 -1.1477098 0.98200047
v -0.2813507 -1.1477058 -0.9819994
v -0.34448364 -1.0954862 -0.9819994
v -0.34448364 -1.0954887 0.98200065
v -0.27983826 -1.0956563 0.98200065
v -0.27983886 -1.0956534 -0.9819994
v -0.34448424 -1.0328653 -0.9819994
v -0.34448394 -1.0328679 0.98200065
v -0.34448364 -1.0954887 0.98200065
v -0.34448364 -1.0954862 -0.9819994
v -0.045092773 -1.2157147 -0.98200065
v -0.045091856 -1.2157174 0.9819994
v -0.04529907 -1.3292309 0.9819994
v -0.045300294 -1.3292283 -0.98200065
v -0.045300294 -1.3292283 -0.98200065
v -0.04529907 -1.3292309 0.9819994
v 0.015566406 -1.3292315 0.9819993
v 0.015566406 -1.3292296 -0.98200065
v 0.015574341 -1.3985753 -0.98200065
v 0.015572814 -1.3985797 0.9819993
v 0.4252121 -1.3996311 0.98199725
v 0.42521116 -1.3996091 -0.9820031
v 0.42521116 -1.3996091 -0.9820031
v 0.4252121 -1.3996311 0.98199725
v 0.4246704 -1.3335705 0.98200214
v 0.42467162 -1.3335762 -0.9819982
v 0.48231933 -1.2665601 -0.9820031
v 0.48231933 -1.2665585 0.98199725
v 0.54083556 -1.2584045 0.98199725
v 0.54083496 -1.2584006 -0.9820031
v 0.54083496 -1.2584006 -0.9820031
v 0.54083556 -1.2584045 0.98199725
v 0.54083586 -1.0977876 0.981998
v 0.54083556 -1.0977845 -0.98200184
v -0.12116821 -1.2155159 -0.98200065
v -0.121167295 -1.2155184 0.9819996
v -0.045091856 -1.2157174 0.9819994
v -0.045092773 -1.2157147 -0.98200065
v -0.12116821 -1.1481225 -0.98200065
v -0.121167295 -1.1481262 0.9819996
v -0.121167295 -1.2155184 0.9819996
v -0.12116821 -1.2155159 -0.98200065
v 0.015566406 -1.3292296 -0.98200065
v 0.015566406 -1.3292315 0.9819993
v 0.015572814 -1.3985797 0.9819993
v 0.015574341 -1.3985753 -0.98200065
v 0.48286253 -1.3326559 -0.98199695
v 0.4828595 -1.3326366 0.9820031
v 0.48231933 -1.2665585 0.98199725
v 0.48231933 -1.2665601 -0.9820031
v 0.42467162 -1.3335762 -0.9819982
v 0.4246704 -1.3335705 0.98200214
v 0.4828595 -1.3326366 0.9820031
v 0.48286253 -1.3326559 -0.98199695
v -0.41831174 1.2791712 0.98200065
v -0.41802612 1.3418576 0.98200065
v -0.17685181 1.3418595 0.98200065
v 0.6897268 1.2786505 0.981998
v 0.62983304 1.3410254 0.981998
v -0.17676269 1.399632 0.98200077
v 0.62993896 1.399185 0.9819982
v 0.6901245 1.3406427 0.981998
v -0.42224973 0.6641158 0.98200065
v -0.49492064 1.2792661 0.98200047
v -0.49493042 0.6637472 0.98200047
v 0.73512787 0.74399024 0.9819983
v 0.73533565 1.2786872 0.981998
v -0.3412799 0.60884243 0.98200047
v -0.4216919 0.6080778 0.98200047
v 0.6337933 0.24682614 0.9819983
v 0.63379365 0.19460957 0.9819983
v 0.54471403 0.19460991 0.9819983
v -0.33972716 0.1155852 0.98200047
v 0.54674804 -0.6008446 0.9819983
v 0.7334015 0.3120996 0.9819982
v 0.7334012 0.24899894 0.9819982
v 0.79735684 0.74327904 0.9819982
v 0.7951581 0.31209952 0.9819982
v -0.43300536 -0.98101985 0.98200077
v -0.41988584 0.053222645 0.98200065
v -0.41964477 0.115161315 0.98200065
v -0.6425946 -0.0028062533 0.98200065
v -0.64349914 0.053237293 0.98200065
v -0.34448394 -1.0328679 0.98200065
v -0.4336035 -1.0335194 0.98200065
v -0.27983826 -1.0956563 0.98200065
v -0.34448364 -1.0954887 0.98200065
v 0.54083586 -1.0977876 0.981998
v 0.631618 -1.0962071 0.9819982
v 0.6297015 -0.5995327 0.9819983
v -0.121167295 -1.1481262 0.9819996
v -0.28134978 -1.1477098 0.98200047
v -0.045091856 -1.2157174 0.9819994
v -0.121167295 -1.2155184 0.9819996
v 0.48231933 -1.2665585 0.98199725
v 0.015566406 -1.3292315 0.9819993
v -0.04529907 -1.3292309 0.9819994
v 0.4246704 -1.3335705 0.98200214
v 0.4828595 -1.3326366 0.9820031
v 0.015572814 -1.3985797 0.9819993
v 0.4252121 -1.3996311 0.98199725
v -0.65917385 -0.9047839 0.98200065
v -0.65917385 -0.9805586 0.98200065
v -0.7245871 -0.8415359 0.98200065
v -0.7245874 -0.9043223 0.98200065
v -0.7214703 -0.07036522 0.98200065
v -0.72144103 -0.0008519077 0.98200065
v -0.7973535 -0.8413534 0.98200047
v -0.79733974 -0.07037193 0.98200047
vt 0.59716797 0.3942871
vt 0.59716797 0.38623047
vt 0.58935547 0.38623047
vt 0.59716797 0.4958496
vt 0.6064453 0.3942871
vt 0.6064453 0.4958496
vt 0.58935547 0.50439453
vt 0.59716797 0.5048828
vt 0.58935547 0.38623047
vt 0.55908203 0.3791504
vt 0.58935547 0.3791504
vt 0.55908203 0.51171875
vt 0.58935547 0.51171875
vt 0.55908203 0.3791504
vt 0.55029297 0.51953125
vt 0.55908203 0.51953125
vt 0.43432617 0.4255371
vt 0.43432617 0.5283203
vt 0.55029297 0.5830078
vt 0.42578125 0.5283203
vt 0.42578125 0.53466797
vt 0.55078125 0.37158203
vt 0.55908203 0.37158203
vt 0.54248047 0.36328125
vt 0.55078125 0.36328125
vt 0.40966797 0.59765625
vt 0.55810547 0.59033203
vt 0.55810547 0.5830078
vt 0.4099121 0.54296875
vt 0.4099121 0.53515625
vt 0.40161133 0.59765625
vt 0.4020996 0.54296875
vt 0.41796875 0.66845703
vt 0.40966797 0.66845703
vt 0.43432617 0.36328125
vt 0.4255371 0.3635254
vt 0.4255371 0.42578125
vt 0.51953125 0.3552246
vt 0.54248047 0.3552246
vt 0.5097656 0.34643555
vt 0.51953125 0.34643555
vt 0.44213867 0.3400879
vt 0.5019531 0.3317871
vt 0.5097656 0.3317871
vt 0.4494629 0.3317871
vt 0.44213867 0.3317871
vt 0.5019531 0.32299805
vt 0.4494629 0.32299805
vt 0.43432617 0.36328125
vt 0.44213867 0.3400879
vt 0.43432617 0.3400879
vt 0.43432617 0.36328125
vt 0.43432617 0.3400879
vt 0.44213867 0.3400879
vt 0.58935547 0.50439453
vt 0.55908203 0.3791504
vt 0.58935547 0.38623047
vt 0.5576172 0.66845703
vt 0.52685547 0.6767578
vt 0.5576172 0.6767578
vt 0.56640625 0.66845703
vt 0.56640625 0.59033203
vt 0.42578125 0.67626953
vt 0.41796875 0.67626953
vt 0.52685547 0.68408203
vt 0.42578125 0.68408203
vt 0.65185547 0.5908203
vt 0.90625 0.5908203
vt 0.65185547 0.58154297
vt 0.9057617 0.58154297
vt 0.65185547 0.66796875
vt 0.90625 0.66796875
vt 0.90625 0.5908203
vt 0.65185547 0.5908203
vt 0.65185547 0.66796875
vt 0.65185547 0.68066406
vt 0.90625 0.68066406
vt 0.90625 0.66796875
vt 0.65185547 0.68847656
vt 0.90625 0.68847656
vt 0.90625 0.68066406
vt 0.65185547 0.68066406
vt 0.65185547 0.71972656
vt 0.90625 0.71972656
vt 0.90625 0.68847656
vt 0.65185547 0.68847656
vt 0.35058594 0.59033203
vt 0.09643555 0.59033203
vt 0.09643555 0.59814453
vt 0.35058594 0.59814453
vt 0.65185547 0.2524414
vt 0.9057617 0.2524414
vt 0.9057617 0.24572754
vt 0.65185547 0.24572754
vt 0.65185547 0.24572754
vt 0.9057617 0.24572754
vt 0.9057617 0.23425293
vt 0.65185547 0.23425293
vt 0.4260254 0.69921875
vt 0.4260254 0.9536133
vt 0.53027344 0.9536133
vt 0.53027344 0.69921875
vt 0.35058594 0.6894531
vt 0.09643555 0.6894531
vt 0.09643555 0.69677734
vt 0.35058594 0.69677734
vt 0.65185547 0.72753906
vt 0.90625 0.72753906
vt 0.90625 0.71972656
vt 0.65185547 0.71972656
vt 0.35058594 0.66748047
vt 0.09643555 0.66748047
vt 0.09643555 0.67333984
vt 0.35058594 0.67333984
vt 0.35058594 0.59814453
vt 0.09643555 0.59814453
vt 0.09643555 0.66748047
vt 0.35058594 0.66748047
vt 0.35058594 0.6816406
vt 0.09643555 0.6816406
vt 0.09643555 0.6894531
vt 0.35058594 0.6894531
vt 0.35058594 0.67333984
vt 0.09643555 0.67333984
vt 0.09643555 0.6816406
vt 0.35058594 0.6816406
vt 0.35058594 0.38427734
vt 0.09643555 0.38427734
vt 0.09643555 0.48706055
vt 0.35058594 0.48706055
vt 0.65185547 0.4897461
vt 0.9057617 0.4897461
vt 0.9057617 0.4819336
vt 0.65185547 0.4819336
vt 0.65185547 0.5
vt 0.9057617 0.5
vt 0.9057617 0.4897461
vt 0.65185547 0.4897461
vt 0.65185547 0.57421875
vt 0.9057617 0.57421875
vt 0.9057617 0.56396484
vt 0.65185547 0.56396484
vt 0.65185547 0.58154297
vt 0.9057617 0.58154297
vt 0.9057617 0.57421875
vt 0.65185547 0.57421875
vt 0.35058594 0.5185547
vt 0.09643555 0.5185547
vt 0.09643555 0.5263672
vt 0.35058594 0.5263672
vt 0.35058594 0.5053711
vt 0.09643555 0.5053711
vt 0.09643555 0.5185547
vt 0.35058594 0.5185547
vt 0.35058594 0.53466797
vt 0.09643555 0.53466797
vt 0.09643555 0.59033203
vt 0.35058594 0.59033203
vt 0.35058594 0.5263672
vt 0.09643555 0.5263672
vt 0.09643555 0.53466797
vt 0.35058594 0.53466797
vt 0.65185547 0.56396484
vt 0.9057617 0.56396484
vt 0.9057617 0.5
vt 0.65185547 0.5
vt 0.35058594 0.4987793
vt 0.09643555 0.4987793
vt 0.09643555 0.5053711
vt 0.35058594 0.5053711
vt 0.35058594 0.48706055
vt 0.09643555 0.48706055
vt 0.09643555 0.4987793
vt 0.35058594 0.4987793
vt 0.65185547 0.32006836
vt 0.9057617 0.32006836
vt 0.9057617 0.30786133
vt 0.65185547 0.30786133
vt 0.65185547 0.4169922
vt 0.9057617 0.4169922
vt 0.9057617 0.32006836
vt 0.65185547 0.32006836
vt 0.65185547 0.4267578
vt 0.9057617 0.4267578
vt 0.9057617 0.4169922
vt 0.65185547 0.4169922
vt 0.65185547 0.43676758
vt 0.9057617 0.43676758
vt 0.9057617 0.4267578
vt 0.65185547 0.4267578
vt 0.65185547 0.44580078
vt 0.9057617 0.44580078
vt 0.9057617 0.43676758
vt 0.65185547 0.43676758
vt 0.65185547 0.45288086
vt 0.9057617 0.45288086
vt 0.9057617 0.44580078
vt 0.65185547 0.44580078
vt 0.65185547 0.4819336
vt 0.9057617 0.4819336
vt 0.9057617 0.45288086
vt 0.65185547 0.45288086
vt 0.65185547 0.2998047
vt 0.9057617 0.2998047
vt 0.9057617 0.2915039
vt 0.65185547 0.2915039
vt 0.65185547 0.30786133
vt 0.9057617 0.30786133
vt 0.9057617 0.2998047
vt 0.65185547 0.2998047
vt 0.65185547 0.28173828
vt 0.9057617 0.28173828
vt 0.9057617 0.2524414
vt 0.65185547 0.2524414
vt 0.65185547 0.2915039
vt 0.9057617 0.2915039
vt 0.9057617 0.28173828
vt 0.65185547 0.28173828
vt 0.35058594 0.29736328
vt 0.09643555 0.29736328
vt 0.09643555 0.30908203
vt 0.35058594 0.30908203
vt 0.35058594 0.37353516
vt 0.09643555 0.37353516
vt 0.09643555 0.38427734
vt 0.35058594 0.38427734
vt 0.35058594 0.30908203
vt 0.09643555 0.30908203
vt 0.09643555 0.37353516
vt 0.35058594 0.37353516
vt 0.65185547 0.21118164
vt 0.9057617 0.21118164
vt 0.9057617 0.19042969
vt 0.65185547 0.19042969
vt 0.65185547 0.21789551
vt 0.9057617 0.21789551
vt 0.9057617 0.21118164
vt 0.65185547 0.21118164
vt 0.65185547 0.22619629
vt 0.9057617 0.22619629
vt 0.9057617 0.21789551
vt 0.65185547 0.21789551
vt 0.65185547 0.23425293
vt 0.9057617 0.23425293
vt 0.9057617 0.22619629
vt 0.65185547 0.22619629
vt 0.65185547 0.17199707
vt 0.9057617 0.17199707
vt 0.9057617 0.15722656
vt 0.65185547 0.15722656
vt 0.65185547 0.15722656
vt 0.9057617 0.15722656
vt 0.9057617 0.14941406
vt 0.65185547 0.14941406
vt 0.5019531 0.30004883
vt 0.5029297 0.046875
vt 0.44995117 0.04675293
vt 0.4494629 0.30004883
vt 0.35058594 0.2442627
vt 0.09643555 0.2442627
vt 0.09643555 0.2529297
vt 0.35058594 0.2529297
vt 0.35058594 0.26904297
vt 0.09643555 0.26904297
vt 0.09643555 0.27661133
vt 0.35058594 0.27661133
vt 0.35058594 0.27661133
vt 0.09643555 0.27661133
vt 0.09643555 0.29736328
vt 0.35058594 0.29736328
vt 0.65185547 0.1817627
vt 0.9057617 0.1817627
vt 0.9057617 0.17199707
vt 0.65185547 0.17199707
vt 0.65185547 0.19042969
vt 0.9057617 0.19042969
vt 0.9057617 0.1817627
vt 0.65185547 0.1817627
vt 0.65185547 0.14941406
vt 0.9057617 0.14941406
vt 0.9057617 0.14038086
vt 0.65185547 0.14038086
vt 0.35058594 0.26049805
vt 0.09643555 0.26049805
vt 0.09643555 0.26904297
vt 0.35058594 0.26904297
vt 0.35058594 0.2529297
vt 0.09643555 0.2529297
vt 0.09643555 0.26049805
vt 0.35058594 0.26049805
vt 0.5576172 0.66845703
vt 0.5576172 0.6767578
vt 0.52685547 0.6767578
vt 0.41796875 0.66845703
vt 0.42578125 0.67626953
vt 0.52685547 0.68408203
vt 0.42578125 0.68408203
vt 0.41796875 0.67626953
vt 0.55810547 0.59033203
vt 0.56640625 0.66845703
vt 0.56640625 0.59033203
vt 0.40966797 0.59765625
vt 0.40966797 0.66845703
vt 0.55029297 0.5830078
vt 0.55810547 0.5830078
vt 0.42578125 0.53466797
vt 0.42578125 0.5283203
vt 0.43432617 0.5283203
vt 0.55029297 0.51953125
vt 0.43432617 0.4255371
vt 0.4099121 0.54296875
vt 0.4099121 0.53515625
vt 0.40161133 0.59765625
vt 0.4020996 0.54296875
vt 0.55908203 0.3791504
vt 0.55908203 0.51171875
vt 0.55908203 0.51953125
vt 0.58935547 0.50439453
vt 0.58935547 0.51171875
vt 0.55078125 0.37158203
vt 0.55908203 0.37158203
vt 0.54248047 0.36328125
vt 0.55078125 0.36328125
vt 0.43432617 0.36328125
vt 0.4255371 0.3635254
vt 0.4255371 0.42578125
vt 0.51953125 0.3552246
vt 0.54248047 0.3552246
vt 0.5097656 0.34643555
vt 0.51953125 0.34643555
vt 0.44213867 0.3400879
vt 0.5019531 0.3317871
vt 0.5097656 0.3317871
vt 0.4494629 0.3317871
vt 0.44213867 0.3317871
vt 0.5019531 0.32299805
vt 0.4494629 0.32299805
vt 0.58935547 0.38623047
vt 0.58935547 0.3791504
vt 0.59716797 0.3942871
vt 0.59716797 0.38623047
vt 0.59716797 0.4958496
vt 0.59716797 0.5048828
vt 0.6064453 0.3942871
vt 0.6064453 0.4958496
vn -0 0 -1
vn -0 0 -1
vn -0 0 -1
vn -0 0 -1
vn -0 0 -1
vn -0 0 -1
vn -0 0 -1
vn -0 0 -1
vn -0 0 -1
vn -0 0 -1
vn -0 0 -1
vn -0 0 -1
vn -0 0 -1
vn -0 0 -1
vn -2.7418137E-06 0 -1
vn -0 0 -1
vn -2.7418137E-06 0 -1
vn -2.7418137E-06 0 -1
vn -1.9073486E-06 -2.8014183E-06 -1
vn -1.4305115E-06 2.503395E-06 -1
vn -0 0 -1
vn -0 0 -1
vn -0 0 -1
vn -2.9802322E-06 0 -1
vn -0 0 -1
vn -0 0 -1
vn -0 0 -1
vn -0 0 -1
vn -0 0 -1
vn -0 0 -1
vn -0 0 -1
vn -0 0 -1
vn -2.5629997E-06 3.695488E-06 -1
vn -0 0 -1
vn -0 0 -1
vn -0 0 -1
vn -0 0 -1
vn -7.6293945E-06 2.3841858E-07 -1
vn -7.6293945E-06 2.3841858E-07 -1
vn -1.66893E-06 -1.9073486E-06 -1
vn -0 0 -1
vn 5.1259995E-06 -7.7307224E-05 -1
vn -0 0 -1
vn -0 0 -1
vn -5.7816505E-06 7.390976E-05 -1
vn 2.2411346E-05 -9.214878E-05 -1
vn -5.7816505E-06 7.390976E-05 -1
vn -5.7816505E-06 7.390976E-05 -1
vn -1.0728836E-06 7.6293945E-06 -1
vn -1.0728836E-06 7.6293945E-06 -1
vn -1.0728836E-06 7.6293945E-06 -1
vn 6.556511E-07 -4.7683716E-06 1
vn 6.556511E-07 -4.7683716E-06 1
vn 6.556511E-07 -4.7683716E-06 1
vn -6.556511E-07 0 1
vn -6.556511E-07 0 1
vn -6.556511E-07 0 1
vn -0 0 -1
vn -0 0 -1
vn -0 0 -1
vn -0 0 -1
vn -0 0 -1
vn -3.0398369E-06 0 -1
vn -0 0 -1
vn -3.0398369E-06 0 -1
vn -3.0398369E-06 0 -1
vn 0.005077362 -1 -1.2516975E-06
vn 0.005077362 -1 -1.2516975E-06
vn 0.005077362 -1 -1.2516975E-06
vn 0.0050735474 -1 -1.4305115E-06
vn -1 1.5854836E-05 -5.9604645E-07
vn -1 1.5854836E-05 -5.9604645E-07
vn -1 1.5854836E-05 -5.9604645E-07
vn -1 1.5854836E-05 -5.9604645E-07
vn 0.0012378693 1 1.3113022E-06
vn 0.0012378693 1 1.3113022E-06
vn 0.0012378693 1 1.3113022E-06
vn 0.0012378693 1 1.3113022E-06
vn -1 0.004558563 0
vn -1 0.004558563 0
vn -1 0.004558563 0
vn -1 0.004558563 0
vn -1.1384487E-05 1 1.7285347E-06
vn -1.1384487E-05 1 1.7285347E-06
vn -1.1384487E-05 1 1.7285347E-06
vn -1.1384487E-05 1 1.7285347E-06
vn 0.011428833 1 1.3113022E-06
vn 0.011428833 1 1.3113022E-06
vn 0.011428833 1 1.3113022E-06
vn 0.011428833 1 1.3113022E-06
vn -1 0.011390686 0
vn -1 0.011390686 0
vn -1 0.011390686 0
vn -1 0.011390686 0
vn 0.0073013306 -1 -1.66893E-06
vn 0.0073013306 -1 -1.66893E-06
vn 0.0073013306 -1 -1.66893E-06
vn 0.0073013306 -1 -1.66893E-06
vn 0.0005540848 1 1.9669533E-06
vn 0.0005540848 1 1.9669533E-06
vn 0.0005540848 1 1.9669533E-06
vn 0.0005540848 1 1.9669533E-06
vn 1 -0.0018177032 -5.364418E-07
vn 1 -0.0018177032 -5.364418E-07
vn 1 -0.0018177032 -5.364418E-07
vn 1 -0.0018177032 -5.364418E-07
vn -1 0.001537323 4.7683716E-07
vn -1 0.001537323 4.7683716E-07
vn -1 0.001537323 4.7683716E-07
vn -1 0.001537323 4.7683716E-07
vn -0.00080633163 1 1.1324883E-06
vn -0.00080633163 1 1.1324883E-06
vn -0.00080633163 1 1.1324883E-06
vn -0.00080633163 1 1.1324883E-06
vn 1 -0.00038957596 -2.3841858E-07
vn 1 -0.00038957596 -2.3841858E-07
vn 1 -0.00038957596 -2.3841858E-07
vn 1 -0.00038957596 -2.3841858E-07
vn 0.0063476562 1 1.2516975E-06
vn 0.0063476562 1 1.2516975E-06
vn 0.0063476562 1 1.2516975E-06
vn 0.0063476562 1 1.2516975E-06
vn 1 -0.006416321 0
vn 1 -0.006416321 0
vn 1 -0.006416321 0
vn 1 -0.006416321 0
vn 1 0.0025577545 0
vn 1 0.0025577545 0
vn 1 0.0025577545 0
vn 1 0.0025577545 0
vn -1 0.0038871765 4.7683716E-07
vn -1 0.0038871765 4.7683716E-07
vn -1 0.0038871765 4.7683716E-07
vn -1 0.0038871765 4.7683716E-07
vn -0.005302429 1 1.2516975E-06
vn -0.005302429 1 1.2516975E-06
vn -0.005302429 1 1.2516975E-06
vn -0.005302429 1 1.2516975E-06
vn 0.009506226 -1 -1.7285347E-06
vn 0.009506226 -1 -1.7285347E-06
vn 0.009506226 -1 -1.7285347E-06
vn 0.009506226 -1 -1.7285347E-06
vn -1 -0.00995636 0
vn -1 -0.00995636 0
vn -1 -0.00995636 0
vn -1 -0.00995636 0
vn 1 -7.2717667E-06 -4.172325E-07
vn 1 -7.2717667E-06 -4.172325E-07
vn 1 -7.2717667E-06 -4.172325E-07
vn 1 -7.2717667E-06 -4.172325E-07
vn 0.02180481 -1 -1.3113022E-06
vn 0.02180481 -1 -1.3113022E-06
vn 0.02180481 -1 -1.3113022E-06
vn 0.02180481 -1 -1.3113022E-06
vn 1 -0.0051002502 -2.3841858E-07
vn 1 -0.0051002502 -2.3841858E-07
vn 1 -0.0051002502 -2.3841858E-07
vn 1 -0.0051002502 -2.3841858E-07
vn -1.847744E-06 -1 -1.3113022E-06
vn -1.847744E-06 -1 -1.3113022E-06
vn -1.847744E-06 -1 -1.3113022E-06
vn -1.847744E-06 -1 -1.3113022E-06
vn -1 -0.0031471252 2.9802322E-07
vn -1 -0.0031471252 2.9802322E-07
vn -1 -0.0031471252 2.9802322E-07
vn -1 -0.0031471252 2.9802322E-07
vn 1 8.761883E-06 -2.3841858E-07
vn 1 8.761883E-06 -2.3841858E-07
vn 1 8.761883E-06 -2.3841858E-07
vn 1 8.761883E-06 -2.3841858E-07
vn -5.7816505E-06 -1 -1.4901161E-06
vn -5.7816505E-06 -1 -1.4901161E-06
vn -5.7816505E-06 -1 -1.4901161E-06
vn -5.7816505E-06 -1 -1.4901161E-06
vn -0.0025081635 -1 -1.3113022E-06
vn -0.0025081635 -1 -1.3113022E-06
vn -0.0025081635 -1 -1.3113022E-06
vn -0.0025081635 -1 -1.3113022E-06
vn -1 1.7642975E-05 -5.364418E-07
vn -1 1.7642975E-05 -5.364418E-07
vn -1 1.7642975E-05 -5.364418E-07
vn -1 1.7642975E-05 -5.364418E-07
vn -8.85129E-05 1 1.2516975E-06
vn -8.85129E-05 1 1.2516975E-06
vn -8.85129E-05 1 1.2516975E-06
vn -8.85129E-05 1 1.2516975E-06
vn -1 0.0004169941 -1.7881393E-07
vn -1 0.0004169941 -1.7881393E-07
vn -1 0.0004169941 -1.7881393E-07
vn -1 0.0004169941 -1.7881393E-07
vn 0.024780273 0.9995117 1.2516975E-06
vn 0.024780273 0.9995117 1.2516975E-06
vn 0.024780273 0.9995117 1.2516975E-06
vn 0.024780273 0.9995117 1.2516975E-06
vn -1 -0.016143799 0
vn -1 -0.016143799 0
vn -1 -0.016143799 0
vn -1 -0.016143799 0
vn 6.556511E-05 1 1.2516975E-06
vn 6.556511E-05 1 1.2516975E-06
vn 6.556511E-05 1 1.2516975E-06
vn 6.556511E-05 1 1.2516975E-06
vn -0.00705719 -1 -1.3113022E-06
vn -0.00705719 -1 -1.3113022E-06
vn -0.00705719 -1 -1.3113022E-06
vn -0.00705719 -1 -1.3113022E-06
vn -1 7.2717667E-06 0
vn -1 7.2717667E-06 0
vn -1 7.2717667E-06 0
vn -1 7.2717667E-06 0
vn -0.0020389557 -1 -1.3709068E-06
vn -0.0020389557 -1 -1.3709068E-06
vn -0.0020389557 -1 -1.3709068E-06
vn -0.0020389557 -1 -1.3709068E-06
vn -1 0 -1.7881393E-07
vn -1 0 -1.7881393E-07
vn -1 0 -1.7881393E-07
vn -1 0 -1.7881393E-07
vn 0.017410278 -1 -1.4901161E-06
vn 0.017410278 -1 -1.4901161E-06
vn 0.017410278 -1 -1.4901161E-06
vn 0.017410278 -1 -1.4901161E-06
vn -0.015808105 1 1.3709068E-06
vn -0.015808105 1 1.3709068E-06
vn -0.015808105 1 1.3709068E-06
vn -0.015808105 1 1.3709068E-06
vn 1 0.0038585663 1.7881393E-07
vn 1 0.0038585663 1.7881393E-07
vn 1 0.0038585663 1.7881393E-07
vn 1 0.0038585663 1.7881393E-07
vn -0.0025997162 -1 -1.9669533E-06
vn -0.0025997162 -1 -1.9669533E-06
vn -0.0025997162 -1 -1.9669533E-06
vn -0.0025997162 -1 -1.9669533E-06
vn -0.9995117 0.029022217 4.172325E-07
vn -0.9995117 0.029022217 4.172325E-07
vn -0.9995117 0.029022217 4.172325E-07
vn -0.9995117 0.029022217 4.172325E-07
vn -0.0025901794 -1 -1.3709068E-06
vn -0.0025901794 -1 -1.3709068E-06
vn -0.0025901794 -1 -1.3709068E-06
vn -0.0025901794 -1 -1.3709068E-06
vn -1 -7.3313713E-06 0
vn -1 -7.3313713E-06 0
vn -1 -7.3313713E-06 0
vn -1 -7.3313713E-06 0
vn -1 0.00182724 5.364418E-07
vn -1 0.00182724 5.364418E-07
vn -1 0.00182724 5.364418E-07
vn -1 0.00182724 5.364418E-07
vn -1.50203705E-05 -1 -1.1920929E-06
vn -1.50203705E-05 -1 -1.1920929E-06
vn -1.50203705E-05 -1 -1.1920929E-06
vn -1.50203705E-05 -1 -1.1920929E-06
vn -0.002544403 -1 -6.735325E-06
vn -0.002544403 -1 -6.735325E-06
vn -0.002544403 -1 -6.735325E-06
vn -0.002544403 -1 -6.735325E-06
vn 1 0.00818634 1.1920929E-07
vn 1 0.00818634 1.1920929E-07
vn 1 0.00818634 1.1920929E-07
vn 1 0.00818634 1.1920929E-07
vn 0.13806152 -0.9902344 -5.9604645E-07
vn 0.13806152 -0.9902344 -5.9604645E-07
vn 0.13806152 -0.9902344 -5.9604645E-07
vn 0.13806152 -0.9902344 -5.9604645E-07
vn 1 -2.861023E-06 -2.3841858E-07
vn 1 -2.861023E-06 -2.3841858E-07
vn 1 -2.861023E-06 -2.3841858E-07
vn 1 -2.861023E-06 -2.3841858E-07
vn -0.002614975 -1 -1.3113022E-06
vn -0.002614975 -1 -1.3113022E-06
vn -0.002614975 -1 -1.3113022E-06
vn -0.002614975 -1 -1.3113022E-06
vn -1 0 4.7683716E-07
vn -1 0 4.7683716E-07
vn -1 0 4.7683716E-07
vn -1 0 4.7683716E-07
vn -1 -0.00010341406 -4.172325E-07
vn -1 -0.00010341406 -4.172325E-07
vn -1 -0.00010341406 -4.172325E-07
vn -1 -0.00010341406 -4.172325E-07
vn 1 0.00819397 7.1525574E-07
vn 1 0.00819397 7.1525574E-07
vn 1 0.00819397 7.1525574E-07
vn 1 0.00819397 7.1525574E-07
vn 0.015930176 -1 6.377697E-06
vn 0.015930176 -1 6.377697E-06
vn 0.015930176 -1 6.377697E-06
vn 0.015930176 -1 6.377697E-06
vn -1.9669533E-06 0 1
vn -0 0 1
vn -0 0 1
vn 2.682209E-06 -3.9339066E-06 1
vn 3.2186508E-06 -2.6226044E-06 1
vn 3.2186508E-06 -2.6226044E-06 1
vn 3.2186508E-06 -2.6226044E-06 1
vn -0 0 1
vn -1.9669533E-06 0 1
vn -1.9669533E-06 0 1
vn -2.0861626E-06 0 1
vn 2.4437904E-06 -3.5762787E-07 1
vn -0 5.9604645E-07 1
vn 1.9669533E-06 1.1920929E-07 1
vn -0 -2.7418137E-06 1
vn 1.5497208E-06 0 1
vn 1.2516975E-06 -2.1457672E-06 1
vn 2.4437904E-06 0 1
vn 2.4437904E-06 0 1
vn 2.4437904E-06 0 1
vn 2.4437904E-06 -3.5762787E-07 1
vn 1.5497208E-06 0 1
vn 2.4437904E-06 -3.5762787E-07 1
vn -0 0 1
vn -0 -2.9206276E-06 1
vn 1.9073486E-06 0 1
vn 1.9073486E-06 0 1
vn -0 0 1
vn -0 0 1
vn -0 -2.9206276E-06 1
vn -0 -2.9206276E-06 1
vn 3.1590462E-06 -6.556511E-07 1
vn -0 0 1
vn -1.66893E-06 -5.9604645E-07 1
vn -1.66893E-06 -5.9604645E-07 1
vn -0 -2.9802322E-07 1
vn 5.722046E-06 -3.0994415E-06 1
vn 5.722046E-06 -3.0994415E-06 1
vn 2.2649765E-06 2.9802322E-07 1
vn 2.026558E-06 0 1
vn -6.2584877E-06 7.82609E-05 1
vn 2.503395E-06 0 1
vn 2.503395E-06 0 1
vn 4.6491623E-06 -7.3850155E-05 1
vn -1.7166138E-05 8.761883E-05 1
vn 4.6491623E-06 -7.3850155E-05 1
vn 4.6491623E-06 -7.3850155E-05 1
vn -0 0 1
vn -6.556511E-07 0 1
vn -2.026558E-06 0 1
vn -0 0 1
vn -2.026558E-06 0 1
vn -0 0 1
vn -2.026558E-06 0 1
vn -2.026558E-06 0 1
g Rocks_Small_010_0
f 3/3/3 2/2/2 1/1/1
f 1/1/1 5/5/5 4/4/4
f 5/5/5 6/6/6 4/4/4
f 7/7/7 1/1/1 4/4/4
f 8/8/8 7/7/7 4/4/4
f 1/1/1 7/7/7 9/9/9
f 9/9/9 7/7/7 10/10/10
f 10/10/10 11/11/11 9/9/9
f 13/13/13 12/12/12 7/7/7
f 14/14/14 7/7/7 12/12/12
f 14/14/14 12/12/12 15/15/15
f 12/12/12 16/16/16 15/15/15
f 17/17/17 14/14/14 15/15/15
f 18/18/18 17/17/17 15/15/15
f 19/19/19 18/18/18 15/15/15
f 20/20/20 18/18/18 19/19/19
f 21/21/21 20/20/20 19/19/19
f 14/14/14 17/17/17 22/22/22
f 14/14/14 22/22/22 23/23/23
f 22/22/22 17/17/17 24/24/24
f 25/25/25 22/22/22 24/24/24
f 21/21/21 19/19/19 26/26/26
f 27/27/27 26/26/26 19/19/19
f 28/28/28 27/27/27 19/19/19
f 29/29/29 21/21/21 26/26/26
f 30/30/30 21/21/21 29/29/29
f 29/29/29 26/26/26 31/31/31
f 32/32/32 29/29/29 31/31/31
f 33/33/33 26/26/26 27/27/27
f 34/34/34 26/26/26 33/33/33
f 24/24/24 17/17/17 35/35/35
f 35/35/35 17/17/17 36/36/36
f 17/17/17 37/37/37 36/36/36
f 35/35/35 38/38/38 24/24/24
f 38/38/38 39/39/39 24/24/24
f 40/40/40 38/38/38 35/35/35
f 41/41/41 38/38/38 40/40/40
f 35/35/35 42/42/42 40/40/40
f 42/42/42 43/43/43 40/40/40
f 40/40/40 43/43/43 44/44/44
f 42/42/42 45/45/45 43/43/43
f 46/46/46 45/45/45 42/42/42
f 43/43/43 45/45/45 47/47/47
f 47/47/47 45/45/45 48/48/48
f 51/51/51 50/50/50 49/49/49
f 54/54/54 53/53/53 52/52/52
f 57/57/57 56/56/56 55/55/55
f 60/60/60 59/59/59 58/58/58
f 33/33/33 58/58/58 59/59/59
f 58/58/58 33/33/33 27/27/27
f 61/61/61 58/58/58 27/27/27
f 62/62/62 61/61/61 27/27/27
f 63/63/63 33/33/33 59/59/59
f 64/64/64 33/33/33 63/63/63
f 63/63/63 59/59/59 65/65/65
f 66/66/66 63/63/63 65/65/65
f 69/69/69 68/68/68 67/67/67
f 70/70/70 68/68/68 69/69/69
f 73/73/73 72/72/72 71/71/71
f 74/74/74 73/73/73 71/71/71
f 77/77/77 76/76/76 75/75/75
f 78/78/78 77/77/77 75/75/75
f 81/81/81 80/80/80 79/79/79
f 82/82/82 81/81/81 79/79/79
f 85/85/85 84/84/84 83/83/83
f 86/86/86 85/85/85 83/83/83
f 89/89/89 88/88/88 87/87/87
f 90/90/90 89/89/89 87/87/87
f 93/93/93 92/92/92 91/91/91
f 94/94/94 93/93/93 91/91/91
f 97/97/97 96/96/96 95/95/95
f 98/98/98 97/97/97 95/95/95
f 101/101/101 100/100/100 99/99/99
f 102/102/102 101/101/101 99/99/99
f 105/105/105 104/104/104 103/103/103
f 106/106/106 105/105/105 103/103/103
f 109/109/109 108/108/108 107/107/107
f 110/110/110 109/109/109 107/107/107
f 113/113/113 112/112/112 111/111/111
f 114/114/114 113/113/113 111/111/111
f 117/117/117 116/116/116 115/115/115
f 118/118/118 117/117/117 115/115/115
f 121/121/121 120/120/120 119/119/119
f 122/122/122 121/121/121 119/119/119
f 125/125/125 124/124/124 123/123/123
f 126/126/126 125/125/125 123/123/123
f 129/129/129 128/128/128 127/127/127
f 130/130/130 129/129/129 127/127/127
f 133/133/133 132/132/132 131/131/131
f 134/134/134 133/133/133 131/131/131
f 137/137/137 136/136/136 135/135/135
f 138/138/138 137/137/137 135/135/135
f 141/141/141 140/140/140 139/139/139
f 142/142/142 141/141/141 139/139/139
f 145/145/145 144/144/144 143/143/143
f 146/146/146 145/145/145 143/143/143
f 149/149/149 148/148/148 147/147/147
f 150/150/150 149/149/149 147/147/147
f 153/153/153 152/152/152 151/151/151
f 154/154/154 153/153/153 151/151/151
f 157/157/157 156/156/156 155/155/155
f 158/158/158 157/157/157 155/155/155
f 161/161/161 160/160/160 159/159/159
f 162/162/162 161/161/161 159/159/159
f 165/165/165 164/164/164 163/163/163
f 166/166/166 165/165/165 163/163/163
f 169/169/169 168/168/168 167/167/167
f 170/170/170 169/169/169 167/167/167
f 173/173/173 172/172/172 171/171/171
f 174/174/174 173/173/173 171/171/171
f 177/177/177 176/176/176 175/175/175
f 178/178/178 177/177/177 175/175/175
f 181/181/181 180/180/180 179/179/179
f 182/182/182 181/181/181 179/179/179
f 185/185/185 184/184/184 183/183/183
f 186/186/186 185/185/185 183/183/183
f 189/189/189 188/188/188 187/187/187
f 190/190/190 189/189/189 187/187/187
f 193/193/193 192/192/192 191/191/191
f 194/194/194 193/193/193 191/191/191
f 197/197/197 196/196/196 195/195/195
f 198/198/198 197/197/197 195/195/195
f 201/201/201 200/200/200 199/199/199
f 202/202/202 201/201/201 199/199/199
f 205/205/205 204/204/204 203/203/203
f 206/206/206 205/205/205 203/203/203
f 209/209/209 208/208/208 207/207/207
f 210/210/210 209/209/209 207/207/207
f 213/213/213 212/212/212 211/211/211
f 214/214/214 213/213/213 211/211/211
f 217/217/217 216/216/216 215/215/215
f 218/218/218 217/217/217 215/215/215
f 221/221/221 220/220/220 219/219/219
f 222/222/222 221/221/221 219/219/219
f 225/225/225 224/224/224 223/223/223
f 226/226/226 225/225/225 223/223/223
f 229/229/229 228/228/228 227/227/227
f 230/230/230 229/229/229 227/227/227
f 233/233/233 232/232/232 231/231/231
f 234/234/234 233/233/233 231/231/231
f 237/237/237 236/236/236 235/235/235
f 238/238/238 237/237/237 235/235/235
f 241/241/241 240/240/240 239/239/239
f 242/242/242 241/241/241 239/239/239
f 245/245/245 244/244/244 243/243/243
f 246/246/246 245/245/245 243/243/243
f 249/249/249 248/248/248 247/247/247
f 250/250/250 249/249/249 247/247/247
f 253/253/253 252/252/252 251/251/251
f 254/254/254 253/253/253 251/251/251
f 257/257/257 256/256/256 255/255/255
f 258/258/258 257/257/257 255/255/255
f 261/261/261 260/260/260 259/259/259
f 262/262/262 261/261/261 259/259/259
f 265/265/265 264/264/264 263/263/263
f 266/266/266 265/265/265 263/263/263
f 269/269/269 268/268/268 267/267/267
f 270/270/270 269/269/269 267/267/267
f 273/273/273 272/272/272 271/271/271
f 274/274/274 273/273/273 271/271/271
f 277/277/277 276/276/276 275/275/275
f 278/278/278 277/277/277 275/275/275
f 281/281/281 280/280/280 279/279/279
f 282/282/282 281/281/281 279/279/279
f 285/285/285 284/284/284 283/283/283
f 286/286/286 285/285/285 283/283/283
f 289/289/289 288/288/288 287/287/287
f 290/290/290 289/289/289 287/287/287
f 293/293/293 292/292/292 291/291/291
f 291/291/291 294/294/294 293/293/293
f 294/294/294 295/295/295 293/293/293
f 293/293/293 295/295/295 296/296/296
f 295/295/295 297/297/297 296/296/296
f 294/294/294 298/298/298 295/295/295
f 294/294/294 291/291/291 299/299/299
f 291/291/291 300/300/300 299/299/299
f 300/300/300 301/301/301 299/299/299
f 302/302/302 294/294/294 299/299/299
f 302/302/302 303/303/303 294/294/294
f 302/302/302 299/299/299 304/304/304
f 299/299/299 305/305/305 304/304/304
f 304/304/304 306/306/306 302/302/302
f 307/307/307 306/306/306 304/304/304
f 308/308/308 307/307/307 304/304/304
f 308/308/308 304/304/304 309/309/309
f 310/310/310 308/308/308 309/309/309
f 306/306/306 311/311/311 302/302/302
f 306/306/306 312/312/312 311/311/311
f 302/302/302 311/311/311 313/313/313
f 311/311/311 314/314/314 313/313/313
f 315/315/315 310/310/310 309/309/309
f 316/316/316 315/315/315 309/309/309
f 317/317/317 316/316/316 309/309/309
f 318/318/318 315/315/315 316/316/316
f 316/316/316 319/319/319 318/318/318
f 310/310/310 315/315/315 320/320/320
f 320/320/320 315/315/315 321/321/321
f 310/310/310 320/320/320 322/322/322
f 320/320/320 323/323/323 322/322/322
f 310/310/310 322/322/322 324/324/324
f 310/310/310 324/324/324 325/325/325
f 326/326/326 310/310/310 325/325/325
f 327/327/327 324/324/324 322/322/322
f 328/328/328 327/327/327 322/322/322
f 327/327/327 329/329/329 324/324/324
f 327/327/327 330/330/330 329/329/329
f 331/331/331 324/324/324 329/329/329
f 332/332/332 331/331/331 329/329/329
f 332/332/332 329/329/329 333/333/333
f 334/334/334 331/331/331 332/332/332
f 334/334/334 335/335/335 331/331/331
f 334/334/334 332/332/332 336/336/336
f 334/334/334 336/336/336 337/337/337
f 339/339/339 315/315/315 338/338/338
f 341/341/341 338/338/338 340/340/340
f 340/340/340 338/338/338 318/318/318
f 340/340/340 318/318/318 342/342/342
f 318/318/318 343/343/343 342/342/342
f 344/344/344 340/340/340 342/342/342
f 345/345/345 344/344/344 342/342/342
