g Rocks_Small_003
v 0.5812257 -1.6052423 -0.7004469
v 0.6277975 -1.6062226 0.70045125
v 0.6277975 -1.6062225 -0.7004469
v 0.6277975 -1.6062226 0.70045125
v 0.5812257 -1.6052423 -0.7004469
v 0.58122575 -1.6052424 0.7004513
v 0.5811183 -1.6527152 0.70045125
v 0.5812257 -1.6052423 -0.7004469
v 0.5811183 -1.6527151 -0.7004469
v 0.5812257 -1.6052423 -0.7004469
v 0.5811183 -1.6527152 0.70045125
v 0.58122575 -1.6052424 0.7004513
v 0.2897245 1.9933506 -0.70044637
v 0.18686523 1.992763 -0.7004464
v 0.29129112 1.9382466 -0.70044637
v -0.10198242 1.992763 -0.7004464
v -0.09828123 2.0392249 -0.7004464
v 0.18686523 2.0406492 -0.7004464
v -0.34319073 1.9382755 -0.70044655
v -0.34219727 1.992763 -0.70044655
v -0.39393443 1.8866425 -0.70044655
v -0.43649063 1.4541006 -0.7004466
v -0.39328867 1.9382755 -0.70044655
v -0.43618667 1.8881439 -0.70044655
v 0.29097632 0.5389486 -0.7004466
v 0.33545834 1.9382466 -0.70044637
v 0.3373913 0.5378469 -0.7004466
v 0.23965411 0.48892775 -0.70044667
v 0.2900353 0.487879 -0.7004466
v -0.4333105 0.24869205 -0.7004468
v 0.24003376 0.19140102 -0.70044667
v 0.4363628 0.14820503 -0.70044667
v 0.4371508 0.19150952 -0.70044667
v -0.53246087 0.29963595 -0.7004468
v -0.53246087 0.25041935 -0.70044684
v -0.43147457 -0.3974973 -0.7004469
v -0.5316812 1.4047364 -0.7004466
v -0.5313656 1.454161 -0.7004466
v -0.5827053 1.4053904 -0.7004466
v -0.5821969 0.30130923 -0.70044684
v 0.4855312 -0.39713585 -0.7004468
v 0.486325 0.14635412 -0.70044667
v 0.58490235 -0.4444293 -0.7004468
v 0.58490235 -0.39677504 -0.7004468
v -0.4848782 -1.2729443 -0.7004471
v -0.4829538 -0.3976165 -0.7004469
v 0.2815739 -1.6994476 -0.70044696
v 0.5812257 -1.6052423 -0.7004469
v -0.5375852 -1.315039 -0.7004471
v 0.5291861 -1.653182 -0.7004469
v -0.53768766 -1.2729443 -0.7004471
v 0.62708724 -0.4451613 -0.7004468
v 0.6277975 -1.6062225 -0.7004469
v 0.5811183 -1.6527151 -0.7004469
v 0.5290758 -1.7005035 -0.7004469
v -0.43282974 -1.9400309 -0.70044714
v -0.5777707 -1.8940508 -0.70044714
v -0.57824475 -1.9400309 -0.70044714
v -0.62779284 -1.8926593 -0.70044714
v -0.6277636 -1.3168896 -0.7004471
v -0.3833398 -1.98907 -0.70044714
v -0.43308878 -1.9889848 -0.70044714
v -0.3833398 -2.039979 -0.70044714
v 0.18565457 -1.9908502 -0.7004471
v 0.1856345 -2.0406466 -0.7004471
v 0.23399417 -1.9409724 -0.7004471
v 0.28188327 -1.9411334 -0.7004471
v 0.23399417 -1.990967 -0.7004471
v 0.18686523 1.992763 -0.7004464
v 0.18686523 2.040649 0.70045197
v 0.18686523 2.0406492 -0.7004464
v 0.18686523 1.9927629 0.70045197
v -0.09828123 2.0392249 -0.7004464
v 0.18686523 2.040649 0.70045197
v -0.09828123 2.0392246 0.70045197
v 0.18686523 2.0406492 -0.7004464
v -0.34219727 1.992763 -0.70044655
v -0.10198242 1.9927629 0.70045197
v -0.34219727 1.9927629 0.700452
v -0.10198242 1.992763 -0.7004464
v -0.39393443 1.8866425 -0.70044655
v -0.39328867 1.9382752 0.700452
v -0.39393443 1.8866422 0.700452
v -0.39328867 1.9382755 -0.70044655
v -0.5827053 1.4053904 -0.7004466
v -0.5316812 1.4047363 0.700452
v -0.5827053 1.4053903 0.700452
v -0.5316812 1.4047364 -0.7004466
v -0.4829538 -0.3976165 -0.7004469
v -0.43147457 -0.39749756 0.7004517
v -0.4829538 -0.3976167 0.7004517
v -0.43147457 -0.3974973 -0.7004469
v -0.4848782 -1.2729443 -0.7004471
v -0.4829538 -0.3976167 0.7004517
v -0.4848782 -1.2729445 0.7004515
v -0.4829538 -0.3976165 -0.7004469
v -0.5375852 -1.315039 -0.7004471
v -0.53768766 -1.2729445 0.7004515
v -0.5375852 -1.3150392 0.7004515
v -0.53768766 -1.2729443 -0.7004471
v -0.62779284 -1.8926593 -0.70044714
v -0.5777707 -1.894051 0.70045143
v -0.5777707 -1.8940508 -0.70044714
v -0.62779284 -1.8926594 0.70045143
v -0.57824475 -1.9400309 -0.70044714
v -0.5777707 -1.894051 0.70045143
v -0.57824475 -1.9400313 0.70045143
v -0.5777707 -1.8940508 -0.70044714
v -0.43308878 -1.9889848 -0.70044714
v -0.3833398 -1.9890703 0.7004513
v -0.3833398 -1.98907 -0.70044714
v -0.43308878 -1.9889851 0.70045143
v -0.3833398 -2.039979 -0.70044714
v -0.3833398 -1.9890703 0.7004513
v -0.3833398 -2.039979 0.7004513
v -0.3833398 -1.98907 -0.70044714
v 0.1856345 -2.0406466 -0.7004471
v -0.3833398 -2.039979 0.7004513
v 0.1856345 -2.0406466 0.7004513
v -0.3833398 -2.039979 -0.70044714
v 0.18565457 -1.9908502 -0.7004471
v 0.23399417 -1.9909672 0.7004513
v 0.23399417 -1.990967 -0.7004471
v 0.18565457 -1.9908503 0.7004513
v 0.23399417 -1.9409724 -0.7004471
v 0.23399417 -1.9909672 0.7004513
v 0.23399417 -1.9409724 0.7004513
v 0.23399417 -1.990967 -0.7004471
v 0.5290758 -1.7005035 -0.7004469
v 0.5291861 -1.6531821 0.70045125
v 0.5291861 -1.653182 -0.7004469
v 0.5290758 -1.7005037 0.70045125
v 0.5811183 -1.6527151 -0.7004469
v 0.5291861 -1.6531821 0.70045125
v 0.5811183 -1.6527152 0.70045125
v 0.5291861 -1.653182 -0.7004469
v 0.4363628 0.14820503 -0.70044667
v 0.4371508 0.19150935 0.70045155
v 0.4371508 0.19150952 -0.70044667
v 0.4363628 0.14820477 0.70045155
v 0.24003376 0.19140102 -0.70044667
v 0.4371508 0.19150935 0.70045155
v 0.24003376 0.19140087 0.7004517
v 0.4371508 0.19150952 -0.70044667
v 0.23965411 0.48892775 -0.70044667
v 0.2900353 0.48787886 0.70045173
v 0.2900353 0.487879 -0.7004466
v 0.23965411 0.48892745 0.70045173
v 0.29097632 0.5389486 -0.7004466
v 0.2900353 0.48787886 0.70045173
v 0.29097632 0.53894836 0.70045173
v 0.2900353 0.487879 -0.7004466
v 0.2897245 1.9933505 0.70045197
v 0.29129112 1.9382464 0.70045197
v 0.18686523 1.9927629 0.70045197
v -0.10198242 1.9927629 0.70045197
v -0.09828123 2.0392246 0.70045197
v 0.18686523 2.040649 0.70045197
v -0.34319073 1.9382752 0.700452
v -0.34219727 1.9927629 0.700452
v -0.39393443 1.8866422 0.700452
v -0.43649063 1.4541005 0.70045197
v -0.39328867 1.9382752 0.700452
v -0.43618667 1.8881438 0.700452
v 0.29097632 0.53894836 0.70045173
v 0.33545834 1.9382464 0.70045197
v 0.3373913 0.5378467 0.70045173
v 0.23965411 0.48892745 0.70045173
v 0.2900353 0.48787886 0.70045173
v -0.4333105 0.24869183 0.70045173
v 0.24003376 0.19140087 0.7004517
v 0.4363628 0.14820477 0.70045155
v 0.4371508 0.19150935 0.70045155
v -0.53246087 0.29963574 0.7004518
v -0.53246087 0.2504191 0.70045173
v -0.43147457 -0.39749756 0.7004517
v -0.5316812 1.4047363 0.700452
v -0.5313656 1.4541609 0.700452
v -0.5827053 1.4053903 0.700452
v -0.5821969 0.30130902 0.70045185
v 0.4855312 -0.39713606 0.7004515
v 0.486325 0.14635389 0.70045155
v 0.58490235 -0.44442946 0.7004515
v 0.58490235 -0.39677536 0.7004515
v -0.4848782 -1.2729445 0.7004515
v -0.4829538 -0.3976167 0.7004517
v 0.2815739 -1.6994478 0.7004513
v 0.58122575 -1.6052424 0.7004513
v -0.5375852 -1.3150392 0.7004515
v 0.5291861 -1.6531821 0.70045125
v -0.53768766 -1.2729445 0.7004515
v 0.62708724 -0.44516158 0.70045143
v 0.6277975 -1.6062226 0.70045125
v 0.5811183 -1.6527152 0.70045125
v 0.5290758 -1.7005037 0.70045125
v -0.43282974 -1.9400313 0.70045143
v -0.5777707 -1.894051 0.70045143
v -0.57824475 -1.9400313 0.70045143
v -0.62779284 -1.8926594 0.70045143
v -0.6277636 -1.3168898 0.70045155
v -0.3833398 -1.9890703 0.7004513
v -0.43308878 -1.9889851 0.70045143
v -0.3833398 -2.039979 0.7004513
v 0.18565457 -1.9908503 0.7004513
v 0.1856345 -2.0406466 0.7004513
v 0.23399417 -1.9409724 0.7004513
v 0.28188327 -1.9411335 0.7004513
v 0.23399417 -1.9909672 0.7004513
v -0.09828123 2.0392249 -0.7004464
v -0.10198242 1.9927629 0.70045197
v -0.10198242 1.992763 -0.7004464
v -0.09828123 2.0392246 0.70045197
v -0.34219727 1.992763 -0.70044655
v -0.34319073 1.9382752 0.700452
v -0.34319073 1.9382755 -0.70044655
v -0.34219727 1.9927629 0.700452
v -0.34319073 1.9382755 -0.70044655
v -0.39328867 1.9382752 0.700452
v -0.39328867 1.9382755 -0.70044655
v -0.34319073 1.9382752 0.700452
v -0.39393443 1.8866425 -0.70044655
v -0.43618667 1.8881438 0.700452
v -0.43618667 1.8881439 -0.70044655
v -0.39393443 1.8866422 0.700452
v -0.43618667 1.8881439 -0.70044655
v -0.43649063 1.4541005 0.70045197
v -0.43649063 1.4541006 -0.7004466
v -0.43618667 1.8881438 0.700452
v -0.43649063 1.4541006 -0.7004466
v -0.5313656 1.4541609 0.700452
v -0.5313656 1.454161 -0.7004466
v -0.43649063 1.4541005 0.70045197
v -0.5313656 1.454161 -0.7004466
v -0.5316812 1.4047363 0.700452
v -0.5316812 1.4047364 -0.7004466
v -0.5313656 1.4541609 0.700452
v -0.5827053 1.4053904 -0.7004466
v -0.5821969 0.30130902 0.70045185
v -0.5821969 0.30130923 -0.70044684
v -0.5827053 1.4053903 0.700452
v -0.5821969 0.30130923 -0.70044684
v -0.53246087 0.29963574 0.7004518
v -0.53246087 0.29963595 -0.7004468
v -0.5821969 0.30130902 0.70045185
v -0.53246087 0.29963595 -0.7004468
v -0.53246087 0.2504191 0.70045173
v -0.53246087 0.25041935 -0.70044684
v -0.53246087 0.29963574 0.7004518
v -0.53246087 0.25041935 -0.70044684
v -0.4333105 0.24869183 0.70045173
v -0.4333105 0.24869205 -0.7004468
v -0.53246087 0.2504191 0.70045173
v -0.4333105 0.24869205 -0.7004468
v -0.43147457 -0.39749756 0.7004517
v -0.43147457 -0.3974973 -0.7004469
v -0.4333105 0.24869183 0.70045173
v -0.4848782 -1.2729443 -0.7004471
v -0.53768766 -1.2729445 0.7004515
v -0.53768766 -1.2729443 -0.7004471
v -0.4848782 -1.2729445 0.7004515
v -0.5375852 -1.315039 -0.7004471
v -0.6277636 -1.3168898 0.70045155
v -0.6277636 -1.3168896 -0.7004471
v -0.5375852 -1.3150392 0.7004515
v -0.6277636 -1.3168896 -0.7004471
v -0.62779284 -1.8926594 0.70045143
v -0.62779284 -1.8926593 -0.70044714
v -0.6277636 -1.3168898 0.70045155
v -0.57824475 -1.9400309 -0.70044714
v -0.43282974 -1.9400313 0.70045143
v -0.43282974 -1.9400309 -0.70044714
v -0.57824475 -1.9400313 0.70045143
v -0.43282974 -1.9400309 -0.70044714
v -0.43308878 -1.9889851 0.70045143
v -0.43308878 -1.9889848 -0.70044714
v -0.43282974 -1.9400313 0.70045143
v 0.1856345 -2.0406466 0.7004513
v 0.18565457 -1.9908502 -0.7004471
v 0.1856345 -2.0406466 -0.7004471
v 0.18565457 -1.9908503 0.7004513
v 0.23399417 -1.9409724 0.7004513
v 0.28188327 -1.9411334 -0.7004471
v 0.23399417 -1.9409724 -0.7004471
v 0.28188327 -1.9411335 0.7004513
v 0.28188327 -1.9411334 -0.7004471
v 0.2815739 -1.6994478 0.7004513
v 0.2815739 -1.6994476 -0.70044696
v 0.28188327 -1.9411335 0.7004513
v 0.2815739 -1.6994476 -0.70044696
v 0.5290758 -1.7005037 0.70045125
v 0.5290758 -1.7005035 -0.7004469
v 0.2815739 -1.6994478 0.7004513
v 0.6277975 -1.6062226 0.70045125
v 0.62708724 -0.4451613 -0.7004468
v 0.6277975 -1.6062225 -0.7004469
v 0.62708724 -0.44516158 0.70045143
v 0.62708724 -0.4451613 -0.7004468
v 0.58490235 -0.44442946 0.7004515
v 0.58490235 -0.4444293 -0.7004468
v 0.62708724 -0.44516158 0.70045143
v 0.58490235 -0.44442946 0.7004515
v 0.58490235 -0.39677504 -0.7004468
v 0.58490235 -0.4444293 -0.7004468
v 0.58490235 -0.39677536 0.7004515
v 0.58490235 -0.39677504 -0.7004468
v 0.4855312 -0.39713606 0.7004515
v 0.4855312 -0.39713585 -0.7004468
v 0.58490235 -0.39677536 0.7004515
v 0.4855312 -0.39713585 -0.7004468
v 0.486325 0.14635389 0.70045155
v 0.486325 0.14635412 -0.70044667
v 0.4855312 -0.39713606 0.7004515
v 0.486325 0.14635412 -0.70044667
v 0.4363628 0.14820477 0.70045155
v 0.4363628 0.14820503 -0.70044667
v 0.486325 0.14635389 0.70045155
v 0.24003376 0.19140102 -0.70044667
v 0.23965411 0.48892745 0.70045173
v 0.23965411 0.48892775 -0.70044667
v 0.24003376 0.19140087 0.7004517
v 0.29097632 0.53894836 0.70045173
v 0.3373913 0.5378469 -0.7004466
v 0.29097632 0.5389486 -0.7004466
v 0.3373913 0.5378467 0.70045173
v 0.3373913 0.5378469 -0.7004466
v 0.33545834 1.9382464 0.70045197
v 0.33545834 1.9382466 -0.70044637
v 0.3373913 0.5378467 0.70045173
v 0.33545834 1.9382466 -0.70044637
v 0.29129112 1.9382464 0.70045197
v 0.29129112 1.9382466 -0.70044637
v 0.33545834 1.9382464 0.70045197
v 0.29129112 1.9382464 0.70045197
v 0.2897245 1.9933506 -0.70044637
v 0.29129112 1.9382466 -0.70044637
v 0.2897245 1.9933505 0.70045197
v 0.2897245 1.9933506 -0.70044637
v 0.18686523 1.9927629 0.70045197
v 0.18686523 1.992763 -0.7004464
v 0.2897245 1.9933505 0.70045197
vt 0.66308594 0.009048462
vt 0.6694336 0.15039062
vt 0.67041016 0.009315491
vt 0.6694336 0.15039062
vt 0.66308594 0.009048462
vt 0.6621094 0.15039062
vt 0.65625 0.15039062
vt 0.66308594 0.009048462
vt 0.6557617 0.00869751
vt 0.66308594 0.009048462
vt 0.65625 0.15039062
vt 0.6621094 0.15039062
vt 0.4453125 0.81591797
vt 0.46191406 0.81591797
vt 0.4453125 0.8071289
vt 0.5078125 0.81591797
vt 0.5078125 0.8232422
vt 0.46191406 0.82373047
vt 0.546875 0.8076172
vt 0.546875 0.81591797
vt 0.5551758 0.7988281
vt 0.5620117 0.7294922
vt 0.5551758 0.8071289
vt 0.5620117 0.7993164
vt 0.4453125 0.58251953
vt 0.43798828 0.8071289
vt 0.43774414 0.58251953
vt 0.45385742 0.57470703
vt 0.4453125 0.57470703
vt 0.56152344 0.5361328
vt 0.45336914 0.52685547
vt 0.421875 0.52001953
vt 0.421875 0.52685547
vt 0.57714844 0.5444336
vt 0.57714844 0.5366211
vt 0.56152344 0.43237305
vt 0.57714844 0.7216797
vt 0.57714844 0.7294922
vt 0.5854492 0.7216797
vt 0.5854492 0.5444336
vt 0.4140625 0.43310547
vt 0.41381836 0.51953125
vt 0.39794922 0.4248047
vt 0.39794922 0.4326172
vt 0.5698242 0.2919922
vt 0.56933594 0.43237305
vt 0.44677734 0.22351074
vt 0.39868164 0.23864746
vt 0.578125 0.28515625
vt 0.40698242 0.23095703
vt 0.578125 0.2919922
vt 0.39135742 0.4248047
vt 0.39111328 0.23864746
vt 0.39868164 0.23095703
vt 0.40698242 0.22338867
vt 0.56152344 0.18493652
vt 0.58447266 0.19226074
vt 0.58447266 0.18493652
vt 0.59277344 0.19250488
vt 0.59277344 0.2849121
vt 0.55322266 0.17700195
vt 0.56152344 0.17712402
vt 0.55322266 0.16894531
vt 0.4621582 0.17675781
vt 0.4621582 0.16882324
vt 0.4543457 0.18481445
vt 0.44677734 0.18481445
vt 0.4543457 0.17675781
vt 0.56103516 0.98583984
vt 0.55322266 0.8334961
vt 0.55322266 0.98583984
vt 0.56103516 0.8334961
vt 0.5078125 0.98583984
vt 0.55322266 0.8334961
vt 0.5078125 0.8334961
vt 0.55322266 0.98583984
vt 0.4621582 0.98583984
vt 0.5004883 0.8334961
vt 0.4621582 0.8334961
vt 0.5004883 0.98583984
vt 0.43725586 0.98583984
vt 0.44555664 0.8334961
vt 0.43725586 0.8334961
vt 0.44555664 0.98583984
vt 0.6166992 0.6982422
vt 0.83984375 0.7060547
vt 0.83984375 0.6982422
vt 0.6166992 0.7060547
vt 0.6166992 0.37939453
vt 0.83984375 0.3876953
vt 0.83984375 0.37939453
vt 0.6166992 0.3876953
vt 0.6166992 0.23999023
vt 0.83984375 0.37939453
vt 0.83984375 0.23999023
vt 0.6166992 0.37939453
vt 0.69091797 0.13244629
vt 0.9140625 0.13916016
vt 0.9140625 0.13244629
vt 0.69091797 0.13916016
vt 0.37890625 0.0088272095
vt 0.3869629 0.15039062
vt 0.3869629 0.0088272095
vt 0.37890625 0.15039062
vt 0.3942871 0.0088272095
vt 0.3869629 0.15039062
vt 0.3942871 0.15039062
vt 0.3869629 0.0088272095
vt 0.42529297 0.008834839
vt 0.43310547 0.15039062
vt 0.43310547 0.008834839
vt 0.42529297 0.15039062
vt 0.44140625 0.008834839
vt 0.43310547 0.15039062
vt 0.44140625 0.15039062
vt 0.43310547 0.008834839
vt 0.5317383 0.008834839
vt 0.44140625 0.15039062
vt 0.5317383 0.15039062
vt 0.44140625 0.008834839
vt 0.54003906 0.008834839
vt 0.54785156 0.15039062
vt 0.54785156 0.008834839
vt 0.54003906 0.15039062
vt 0.55566406 0.008834839
vt 0.54785156 0.15039062
vt 0.55566406 0.15039062
vt 0.54785156 0.008834839
vt 0.6411133 0.008834839
vt 0.6489258 0.15039062
vt 0.6484375 0.008712769
vt 0.6411133 0.15039062
vt 0.6557617 0.00869751
vt 0.6489258 0.15039062
vt 0.65625 0.15039062
vt 0.6484375 0.008712769
vt 0.34936523 0.4741211
vt 0.1262207 0.48095703
vt 0.34936523 0.48095703
vt 0.1262207 0.4741211
vt 0.34936523 0.5126953
vt 0.1262207 0.48095703
vt 0.1262207 0.5126953
vt 0.34936523 0.48095703
vt 0.34936523 0.5600586
vt 0.1262207 0.5678711
vt 0.34936523 0.5678711
vt 0.1262207 0.5600586
vt 0.34936523 0.5761719
vt 0.1262207 0.5678711
vt 0.1262207 0.5761719
vt 0.34936523 0.5678711
vt 0.4453125 0.81591797
vt 0.4453125 0.8071289
vt 0.46191406 0.81591797
vt 0.5078125 0.81591797
vt 0.5078125 0.8232422
vt 0.46191406 0.82373047
vt 0.546875 0.8076172
vt 0.546875 0.81591797
vt 0.5551758 0.7988281
vt 0.5620117 0.7294922
vt 0.5551758 0.8071289
vt 0.5620117 0.7993164
vt 0.4453125 0.58251953
vt 0.43798828 0.8071289
vt 0.43774414 0.58251953
vt 0.45385742 0.57470703
vt 0.4453125 0.57470703
vt 0.56152344 0.5361328
vt 0.45336914 0.52685547
vt 0.421875 0.52001953
vt 0.421875 0.52685547
vt 0.57714844 0.5444336
vt 0.57714844 0.5366211
vt 0.56152344 0.43237305
vt 0.57714844 0.7216797
vt 0.57714844 0.7294922
vt 0.5854492 0.7216797
vt 0.5854492 0.5444336
vt 0.4140625 0.43310547
vt 0.41381836 0.51953125
vt 0.39794922 0.4248047
vt 0.39794922 0.4326172
vt 0.5698242 0.2919922
vt 0.56933594 0.43237305
vt 0.44677734 0.22351074
vt 0.39868164 0.23864746
vt 0.578125 0.28515625
vt 0.40698242 0.23095703
vt 0.578125 0.2919922
vt 0.39135742 0.4248047
vt 0.39111328 0.23864746
vt 0.39868164 0.23095703
vt 0.40698242 0.22338867
vt 0.56152344 0.18493652
vt 0.58447266 0.19226074
vt 0.58447266 0.18493652
vt 0.59277344 0.19250488
vt 0.59277344 0.2849121
vt 0.55322266 0.17700195
vt 0.56152344 0.17712402
vt 0.55322266 0.16894531
vt 0.4621582 0.17675781
vt 0.4621582 0.16882324
vt 0.4543457 0.18481445
vt 0.44677734 0.18481445
vt 0.4543457 0.17675781
vt 0.5078125 0.98583984
vt 0.5004883 0.8334961
vt 0.5004883 0.98583984
vt 0.5078125 0.8334961
vt 0.4621582 0.98583984
vt 0.45361328 0.8334961
vt 0.45361328 0.98583984
vt 0.4621582 0.8334961
vt 0.45361328 0.98583984
vt 0.44555664 0.8334961
vt 0.44555664 0.98583984
vt 0.45361328 0.8334961
vt 0.43725586 0.98583984
vt 0.43066406 0.8334961
vt 0.43066406 0.98583984
vt 0.43725586 0.8334961
vt 0.6166992 0.79833984
vt 0.83984375 0.7290039
vt 0.6166992 0.7290039
vt 0.83984375 0.79833984
vt 0.6166992 0.7290039
vt 0.83984375 0.7138672
vt 0.6166992 0.7138672
vt 0.83984375 0.7290039
vt 0.6166992 0.7138672
vt 0.83984375 0.7060547
vt 0.6166992 0.7060547
vt 0.83984375 0.7138672
vt 0.6166992 0.6982422
vt 0.83984375 0.52197266
vt 0.6166992 0.52197266
vt 0.83984375 0.6982422
vt 0.6166992 0.52197266
vt 0.83984375 0.51416016
vt 0.6166992 0.51416016
vt 0.83984375 0.52197266
vt 0.6166992 0.51416016
vt 0.83984375 0.50634766
vt 0.6166992 0.50634766
vt 0.83984375 0.51416016
vt 0.6166992 0.50634766
vt 0.83984375 0.49047852
vt 0.6166992 0.49047852
vt 0.83984375 0.50634766
vt 0.6166992 0.49047852
vt 0.83984375 0.3876953
vt 0.6166992 0.3876953
vt 0.83984375 0.49047852
vt 0.69091797 0.14746094
vt 0.9140625 0.13916016
vt 0.69091797 0.13916016
vt 0.9140625 0.14746094
vt 0.69091797 0.13244629
vt 0.9140625 0.11804199
vt 0.69091797 0.11804199
vt 0.9140625 0.13244629
vt 0.69091797 0.11804199
vt 0.9140625 0.023452759
vt 0.69091797 0.023452759
vt 0.9140625 0.11804199
vt 0.3942871 0.0088272095
vt 0.41748047 0.15039062
vt 0.41748047 0.0088272095
vt 0.3942871 0.15039062
vt 0.41748047 0.0088272095
vt 0.42529297 0.15039062
vt 0.42529297 0.008834839
vt 0.41748047 0.15039062
vt 0.5317383 0.15039062
vt 0.54003906 0.008834839
vt 0.5317383 0.008834839
vt 0.54003906 0.15039062
vt 0.55566406 0.15039062
vt 0.5629883 0.008834839
vt 0.55566406 0.008834839
vt 0.5629883 0.15039062
vt 0.5629883 0.008834839
vt 0.6015625 0.15039062
vt 0.6015625 0.008834839
vt 0.5629883 0.15039062
vt 0.6015625 0.008834839
vt 0.6411133 0.15039062
vt 0.6411133 0.008834839
vt 0.6015625 0.15039062
vt 0.1262207 0.16455078
vt 0.34936523 0.34936523
vt 0.34936523 0.16455078
vt 0.1262207 0.34936523
vt 0.34936523 0.34936523
vt 0.1262207 0.35620117
vt 0.34936523 0.35620117
vt 0.1262207 0.34936523
vt 0.1262207 0.35620117
vt 0.34936523 0.36376953
vt 0.34936523 0.35620117
vt 0.1262207 0.36376953
vt 0.34936523 0.36376953
vt 0.1262207 0.37963867
vt 0.34936523 0.37963867
vt 0.1262207 0.36376953
vt 0.34936523 0.37963867
vt 0.1262207 0.4663086
vt 0.34936523 0.4663086
vt 0.1262207 0.37963867
vt 0.34936523 0.4663086
vt 0.1262207 0.4741211
vt 0.34936523 0.4741211
vt 0.1262207 0.4663086
vt 0.34936523 0.5126953
vt 0.1262207 0.5600586
vt 0.34936523 0.5600586
vt 0.1262207 0.5126953
vt 0.1262207 0.5761719
vt 0.34936523 0.5834961
vt 0.34936523 0.5761719
vt 0.1262207 0.5834961
vt 0.34936523 0.5834961
vt 0.1262207 0.8066406
vt 0.34936523 0.8066406
vt 0.1262207 0.5834961
vt 0.5932617 0.98583984
vt 0.5859375 0.8334961
vt 0.5859375 0.98583984
vt 0.5932617 0.8334961
vt 0.5859375 0.8334961
vt 0.57714844 0.98583984
vt 0.5859375 0.98583984
vt 0.57714844 0.8334961
vt 0.57714844 0.98583984
vt 0.56103516 0.8334961
vt 0.56103516 0.98583984
vt 0.57714844 0.8334961
vn -0.02104187 -1 -1.1920929E-07
vn -0.02104187 -1 -1.1920929E-07
vn -0.02104187 -1 -1.1920929E-07
vn -0.02104187 -1 -1.1920929E-07
vn -0.02104187 -1 -1.1920929E-07
vn -0.02104187 -1 -1.1920929E-07
vn 1 -0.0022621155 0
vn 1 -0.0022621155 0
vn 1 -0.0022621155 0
vn 1 -0.0022621155 0
vn 1 -0.0022621155 0
vn 1 -0.0022621155 0
vn 7.1525574E-07 0 -1
vn -0 -7.748604E-07 -1
vn 2.3841858E-07 0 -1
vn 1.7881393E-07 1.7881393E-07 -1
vn -0 0 -1
vn -0 0 -1
vn 2.3841858E-07 -1.1920929E-07 -1
vn 2.9802322E-07 0 -1
vn 1.1920929E-07 0 -1
vn 1.1920929E-07 1.1920929E-07 -1
vn -0 0 -1
vn -0 1.7881393E-07 -1
vn 5.9604645E-07 2.9802322E-07 -1
vn -0 1.7881393E-07 -1
vn -0 1.7881393E-07 -1
vn 5.364418E-07 2.3841858E-07 -1
vn 1.4901161E-06 0 -1
vn 1.7881393E-07 2.9802322E-07 -1
vn 1.7881393E-07 5.364418E-07 -1
vn -0 1.1920929E-07 -1
vn -0 0 -1
vn 7.1525574E-07 4.7683716E-07 -1
vn 7.748604E-07 1.5497208E-06 -1
vn -0 1.7881393E-07 -1
vn -0 1.1920929E-07 -1
vn -0 0 -1
vn -0 1.1920929E-07 -1
vn 1.5497208E-06 1.7881393E-07 -1
vn 1.1920929E-07 2.3841858E-07 -1
vn -0 1.1920929E-07 -1
vn -0 1.1920929E-07 -1
vn -0 0 -1
vn -0 0 -1
vn -0 1.7881393E-07 -1
vn 1.7881393E-07 1.1920929E-07 -1
vn 1.1920929E-07 0 -1
vn -0 0 -1
vn 2.9802322E-07 -2.3841858E-07 -1
vn -0 0 -1
vn -0 1.1920929E-07 -1
vn -0 1.1920929E-07 -1
vn -0 0 -1
vn 2.9802322E-07 0 -1
vn -0 1.1920929E-07 -1
vn -0 0 -1
vn -0 0 -1
vn -0 1.1920929E-07 -1
vn -0 1.1920929E-07 -1
vn 1.7881393E-07 0 -1
vn -0 0 -1
vn 1.7881393E-07 0 -1
vn -0 1.1920929E-07 -1
vn 1.1920929E-07 0 -1
vn -2.3841858E-07 2.9802322E-07 -1
vn -0 2.9802322E-07 -1
vn -0 0 -1
vn 1 0 0
vn 1 0 0
vn 1 0 0
vn 1 0 0
vn -0.0049934387 1 1.1920929E-07
vn -0.0049934387 1 1.1920929E-07
vn -0.0049934387 1 1.1920929E-07
vn -0.0049934387 1 1.1920929E-07
vn -0 1 1.1920929E-07
vn -0 1 1.1920929E-07
vn -0 1 1.1920929E-07
vn -0 1 1.1920929E-07
vn -1 0.012504578 0
vn -1 0.012504578 0
vn -1 0.012504578 0
vn -1 0.012504578 0
vn 0.012817383 1 1.1920929E-07
vn 0.012817383 1 1.1920929E-07
vn 0.012817383 1 1.1920929E-07
vn 0.012817383 1 1.1920929E-07
vn -0.0023155212 1 1.7881393E-07
vn -0.0023155212 1 1.7881393E-07
vn -0.0023155212 1 1.7881393E-07
vn -0.0023155212 1 1.7881393E-07
vn -1 0.002199173 0
vn -1 0.002199173 0
vn -1 0.002199173 0
vn -1 0.002199173 0
vn -1 -0.0024356842 0
vn -1 -0.0024356842 0
vn -1 -0.0024356842 0
vn -1 -0.0024356842 0
vn -0.027801514 -0.9995117 -1.1920929E-07
vn -0.027801514 -0.9995117 -1.1920929E-07
vn -0.027801514 -0.9995117 -1.1920929E-07
vn -0.027801514 -0.9995117 -1.1920929E-07
vn -1 0.010307312 0
vn -1 0.010307312 0
vn -1 0.010307312 0
vn -1 0.010307312 0
vn -0.0017147064 -1 -1.1920929E-07
vn -0.0017147064 -1 -1.1920929E-07
vn -0.0017147064 -1 -1.1920929E-07
vn -0.0017118454 -1 -2.3841858E-07
vn -1 0 0
vn -1 0 0
vn -1 0 0
vn -1 0 0
vn -0.0011730194 -1 0
vn -0.0011730194 -1 0
vn -0.0011730194 -1 0
vn -0.0011730194 -1 -1.1920929E-07
vn -0.002418518 -1 -1.1920929E-07
vn -0.002418518 -1 -1.1920929E-07
vn -0.002418518 -1 -1.1920929E-07
vn -0.002418518 -1 -1.1920929E-07
vn 1 0 0
vn 1 0 0
vn 1 0 0
vn 1 0 0
vn 1 -0.00233078 0
vn 1 -0.00233078 0
vn 1 -0.00233078 0
vn 1 -0.00233078 0
vn 0.008987427 -1 -1.1920929E-07
vn 0.008987427 -1 -1.1920929E-07
vn 0.008987427 -1 -1.1920929E-07
vn 0.008987427 -1 -1.1920929E-07
vn 1 -0.018188477 0
vn 1 -0.018188477 0
vn 1 -0.018188477 0
vn 1 -0.018188477 0
vn -0.0005502701 1 1.1920929E-07
vn -0.0005502701 1 1.1920929E-07
vn -0.0005502701 1 1.1920929E-07
vn -0.0005502701 1 1.1920929E-07
vn -0.020812988 -1 -1.1920929E-07
vn -0.020812988 -1 -1.1920929E-07
vn -0.020812988 -1 -1.1920929E-07
vn -0.020812988 -1 -2.3841858E-07
vn 1 -0.018417358 0
vn 1 -0.018417358 0
vn 1 -0.018417358 0
vn 1 -0.018417358 0
vn -0 0 1
vn -0 0 1
vn -0 0 1
vn -0 5.364418E-07 1
vn -0 0 1
vn -0 0 1
vn 1.7881393E-07 0 1
vn 2.9802322E-07 0 1
vn -0 -1.1920929E-07 1
vn 3.5762787E-07 -1.7881393E-07 1
vn -0 0 1
vn -0 -1.7881393E-07 1
vn -0 -1.1920929E-07 1
vn -0 -1.7881393E-07 1
vn -0 -1.7881393E-07 1
vn -0 -1.7881393E-07 1
vn -0 0 1
vn 2.3841858E-07 -2.9802322E-07 1
vn -0 -1.3709068E-06 1
vn 1.7881393E-07 -1.1920929E-07 1
vn 3.5762787E-07 0 1
vn 7.748604E-07 -4.7683716E-07 1
vn -0 -1.5497208E-06 1
vn 1.1920929E-07 -1.7881393E-07 1
vn 5.9604645E-07 -1.7881393E-07 1
vn 7.748604E-07 0 1
vn -0 -1.7881393E-07 1
vn 1.5497208E-06 -1.1920929E-07 1
vn 1.1920929E-07 1.7881393E-07 1
vn -0 -1.1920929E-07 1
vn 6.556511E-07 0 1
vn -0 0 1
vn 1.1920929E-07 -1.1920929E-07 1
vn -0 -1.7881393E-07 1
vn 1.1920929E-07 -1.7881393E-07 1
vn 6.556511E-07 -5.9604645E-07 1
vn 2.9802322E-07 -1.1920929E-07 1
vn 5.364418E-07 -1.5497208E-06 1
vn -0 0 1
vn 1.7881393E-06 -1.1920929E-07 1
vn 1.6093254E-06 -1.1920929E-07 1
vn -0 -1.6093254E-06 1
vn 2.9802322E-07 0 1
vn 4.172325E-07 -2.9802322E-07 1
vn -0 0 1
vn -0 0 1
vn -0 -1.1920929E-07 1
vn 8.34465E-07 -2.3841858E-07 1
vn 4.7683716E-07 -4.7683716E-07 1
vn 1.5497208E-06 0 1
vn -0 0 1
vn -0 0 1
vn -0 0 1
vn -0 0 1
vn -0 0 1
vn -0 0 1
vn -0.9970703 0.07940674 0
vn -0.9970703 0.07940674 0
vn -0.9970703 0.07940674 0
vn -0.9970703 0.07940674 0
vn -1 0.018234253 0
vn -1 0.018234253 0
vn -1 0.018234253 0
vn -1 0.018234253 0
vn -0 1 1.1920929E-07
vn -0 1 1.1920929E-07
vn -0 1 1.1920929E-07
vn -0 1 1.1920929E-07
vn 0.03552246 0.9995117 1.1920929E-07
vn 0.03552246 0.9995117 1.1920929E-07
vn 0.03552246 0.9995117 1.1920929E-07
vn 0.03552246 0.9995117 1.1920929E-07
vn -1 0.0007004738 0
vn -1 0.0007004738 0
vn -1 0.0007004738 0
vn -1 0.0007004738 0
vn 0.00063705444 1 1.1920929E-07
vn 0.00063705444 1 1.1920929E-07
vn 0.00063705444 1 1.1920929E-07
vn 0.00063705444 1 1.1920929E-07
vn -1 0.006385803 0
vn -1 0.006385803 0
vn -1 0.006385803 0
vn -1 0.006385803 0
vn -1 -0.00046038628 0
vn -1 -0.00046038628 0
vn -1 -0.00046038628 0
vn -1 -0.00046038628 0
vn -0.03363037 -0.9995117 -1.7881393E-07
vn -0.03363037 -0.9995117 -1.7881393E-07
vn -0.03363037 -0.9995117 -1.7881393E-07
vn -0.03363037 -0.9995117 -1.7881393E-07
vn -1 0 0
vn -1 0 0
vn -1 0 0
vn -1 0 0
vn -0.017425537 -1 -1.7881393E-07
vn -0.017425537 -1 -1.7881393E-07
vn -0.017425537 -1 -1.7881393E-07
vn -0.017425537 -1 -1.7881393E-07
vn -1 -0.0028419495 0
vn -1 -0.0028419495 0
vn -1 -0.0028419495 0
vn -1 -0.0028419495 0
vn -0 1 1.1920929E-07
vn -0 1 1.1920929E-07
vn -0 1 1.1920929E-07
vn -0 1 1.1920929E-07
vn -0.020523071 1 1.1920929E-07
vn -0.020523071 1 1.1920929E-07
vn -0.020523071 1 1.1920929E-07
vn -0.020523071 1 1.1920929E-07
vn -1 5.0723553E-05 0
vn -1 5.0723553E-05 0
vn -1 5.0723553E-05 0
vn -1 5.0723553E-05 0
vn -0 -1 -2.3841858E-07
vn -0 -1 -2.3841858E-07
vn -0 -1 -2.3841858E-07
vn -0 -1 -2.3841858E-07
vn -1 0.005290985 0
vn -1 0.005290985 0
vn -1 0.005290985 0
vn -1 0.005290985 0
vn 1 -0.0004029274 0
vn 1 -0.0004029274 0
vn 1 -0.0004029274 0
vn 1 -0.0004029274 0
vn -0.0033607483 -1 0
vn -0.0033607483 -1 0
vn -0.0033607483 -1 0
vn -0.003364563 -1 -1.1920929E-07
vn 1 0.0012798309 0
vn 1 0.0012798309 0
vn 1 0.0012798309 0
vn 1 0.0012798309 0
vn -0.0042648315 -1 -1.1920929E-07
vn -0.0042648315 -1 -1.1920929E-07
vn -0.0042648315 -1 -1.1920929E-07
vn -0.0042648315 -1 -1.1920929E-07
vn 1 0.0006117821 0
vn 1 0.0006117821 0
vn 1 0.0006117821 0
vn 1 0.0006117821 0
vn 0.017349243 1 1.1920929E-07
vn 0.017349243 1 1.1920929E-07
vn 0.017349243 1 1.1920929E-07
vn 0.017349243 1 1.7881393E-07
vn 1 0 0
vn 1 0 0
vn 1 0 0
vn 1 0 0
vn -0.0036315918 1 1.7881393E-07
vn -0.0036315918 1 1.7881393E-07
vn -0.0036315918 1 1.7881393E-07
vn -0.0036296844 1 2.3841858E-07
vn 1 -0.0014600754 0
vn 1 -0.0014600754 0
vn 1 -0.0014600754 0
vn 1 -0.0014600754 0
vn 0.037017822 0.9995117 1.7881393E-07
vn 0.037017822 0.9995117 1.7881393E-07
vn 0.037017822 0.9995117 1.7881393E-07
vn 0.037017822 0.9995117 1.7881393E-07
vn 1 0.0012760162 0
vn 1 0.0012760162 0
vn 1 0.0012760162 0
vn 1 0.0012760162 0
vn -0.023727417 -0.9995117 -1.7881393E-07
vn -0.023727417 -0.9995117 -1.7881393E-07
vn -0.023727417 -0.9995117 -1.7881393E-07
vn -0.023727417 -0.9995117 -1.7881393E-07
vn 1 0.0013799667 0
vn 1 0.0013799667 0
vn 1 0.0013799667 0
vn 1 0.0013799667 0
vn -0 1 1.1920929E-07
vn -0 1 1.1920929E-07
vn -0 1 1.1920929E-07
vn -0 1 1.1920929E-07
vn 0.9995117 0.028411865 0
vn 0.9995117 0.028411865 0
vn 0.9995117 0.028411865 0
vn 0.9995117 0.028411865 0
vn -0.0057144165 1 1.1920929E-07
vn -0.0057144165 1 1.1920929E-07
vn -0.0057144165 1 1.1920929E-07
vn -0.0057144165 1 1.1920929E-07
g Rocks_Small_003_0
f 3/3/3 2/2/2 1/1/1
f 6/6/6 5/5/5 4/4/4
f 9/9/9 8/8/8 7/7/7
f 12/12/12 11/11/11 10/10/10
f 15/15/15 14/14/14 13/13/13
f 16/16/16 14/14/14 15/15/15
f 17/17/17 14/14/14 16/16/16
f 18/18/18 14/14/14 17/17/17
f 19/19/19 16/16/16 15/15/15
f 20/20/20 16/16/16 19/19/19
f 21/21/21 19/19/19 15/15/15
f 22/22/22 21/21/21 15/15/15
f 23/23/23 19/19/19 21/21/21
f 24/24/24 21/21/21 22/22/22
f 25/25/25 22/22/22 15/15/15
f 26/26/26 25/25/25 15/15/15
f 27/27/27 25/25/25 26/26/26
f 28/28/28 22/22/22 25/25/25
f 29/29/29 28/28/28 25/25/25
f 30/30/30 22/22/22 28/28/28
f 31/31/31 30/30/30 28/28/28
f 30/30/30 31/31/31 32/32/32
f 33/33/33 32/32/32 31/31/31
f 34/34/34 22/22/22 30/30/30
f 35/35/35 34/34/34 30/30/30
f 36/36/36 30/30/30 32/32/32
f 37/37/37 22/22/22 34/34/34
f 38/38/38 22/22/22 37/37/37
f 39/39/39 37/37/37 34/34/34
f 40/40/40 39/39/39 34/34/34
f 41/41/41 36/36/36 32/32/32
f 42/42/42 41/41/41 32/32/32
f 43/43/43 36/36/36 41/41/41
f 44/44/44 43/43/43 41/41/41
f 45/45/45 36/36/36 43/43/43
f 46/46/46 36/36/36 45/45/45
f 47/47/47 45/45/45 43/43/43
f 48/48/48 47/47/47 43/43/43
f 49/49/49 45/45/45 47/47/47
f 50/50/50 47/47/47 48/48/48
f 51/51/51 45/45/45 49/49/49
f 52/52/52 48/48/48 43/43/43
f 53/53/53 48/48/48 52/52/52
f 54/54/54 50/50/50 48/48/48
f 55/55/55 47/47/47 50/50/50
f 56/56/56 49/49/49 47/47/47
f 57/57/57 49/49/49 56/56/56
f 58/58/58 57/57/57 56/56/56
f 59/59/59 49/49/49 57/57/57
f 60/60/60 49/49/49 59/59/59
f 61/61/61 56/56/56 47/47/47
f 62/62/62 56/56/56 61/61/61
f 63/63/63 61/61/61 47/47/47
f 64/64/64 63/63/63 47/47/47
f 65/65/65 63/63/63 64/64/64
f 66/66/66 64/64/64 47/47/47
f 67/67/67 66/66/66 47/47/47
f 68/68/68 64/64/64 66/66/66
f 71/71/71 70/70/70 69/69/69
f 72/72/72 69/69/69 70/70/70
f 75/75/75 74/74/74 73/73/73
f 76/76/76 73/73/73 74/74/74
f 79/79/79 78/78/78 77/77/77
f 80/80/80 77/77/77 78/78/78
f 83/83/83 82/82/82 81/81/81
f 84/84/84 81/81/81 82/82/82
f 87/87/87 86/86/86 85/85/85
f 88/88/88 85/85/85 86/86/86
f 91/91/91 90/90/90 89/89/89
f 92/92/92 89/89/89 90/90/90
f 95/95/95 94/94/94 93/93/93
f 96/96/96 93/93/93 94/94/94
f 99/99/99 98/98/98 97/97/97
f 100/100/100 97/97/97 98/98/98
f 103/103/103 102/102/102 101/101/101
f 104/104/104 101/101/101 102/102/102
f 107/107/107 106/106/106 105/105/105
f 108/108/108 105/105/105 106/106/106
f 111/111/111 110/110/110 109/109/109
f 112/112/112 109/109/109 110/110/110
f 115/115/115 114/114/114 113/113/113
f 116/116/116 113/113/113 114/114/114
f 119/119/119 118/118/118 117/117/117
f 120/120/120 117/117/117 118/118/118
f 123/123/123 122/122/122 121/121/121
f 124/124/124 121/121/121 122/122/122
f 127/127/127 126/126/126 125/125/125
f 128/128/128 125/125/125 126/126/126
f 131/131/131 130/130/130 129/129/129
f 132/132/132 129/129/129 130/130/130
f 135/135/135 134/134/134 133/133/133
f 136/136/136 133/133/133 134/134/134
f 139/139/139 138/138/138 137/137/137
f 140/140/140 137/137/137 138/138/138
f 143/143/143 142/142/142 141/141/141
f 144/144/144 141/141/141 142/142/142
f 147/147/147 146/146/146 145/145/145
f 148/148/148 145/145/145 146/146/146
f 151/151/151 150/150/150 149/149/149
f 152/152/152 149/149/149 150/150/150
f 155/155/155 154/154/154 153/153/153
f 156/156/156 154/154/154 155/155/155
f 155/155/155 157/157/157 156/156/156
f 155/155/155 158/158/158 157/157/157
f 159/159/159 154/154/154 156/156/156
f 160/160/160 159/159/159 156/156/156
f 154/154/154 159/159/159 161/161/161
f 161/161/161 162/162/162 154/154/154
f 163/163/163 161/161/161 159/159/159
f 161/161/161 164/164/164 162/162/162
f 162/162/162 165/165/165 154/154/154
f 165/165/165 166/166/166 154/154/154
f 165/165/165 167/167/167 166/166/166
f 162/162/162 168/168/168 165/165/165
f 168/168/168 169/169/169 165/165/165
f 162/162/162 170/170/170 168/168/168
f 170/170/170 171/171/171 168/168/168
f 171/171/171 170/170/170 172/172/172
f 172/172/172 173/173/173 171/171/171
f 162/162/162 174/174/174 170/170/170
f 174/174/174 175/175/175 170/170/170
f 170/170/170 176/176/176 172/172/172
f 162/162/162 177/177/177 174/174/174
f 162/162/162 178/178/178 177/177/177
f 177/177/177 179/179/179 174/174/174
f 179/179/179 180/180/180 174/174/174
f 176/176/176 181/181/181 172/172/172
f 181/181/181 182/182/182 172/172/172
f 176/176/176 183/183/183 181/181/181
f 183/183/183 184/184/184 181/181/181
f 176/176/176 185/185/185 183/183/183
f 176/176/176 186/186/186 185/185/185
f 185/185/185 187/187/187 183/183/183
f 187/187/187 188/188/188 183/183/183
f 185/185/185 189/189/189 187/187/187
f 187/187/187 190/190/190 188/188/188
f 185/185/185 191/191/191 189/189/189
f 188/188/188 192/192/192 183/183/183
f 188/188/188 193/193/193 192/192/192
f 190/190/190 194/194/194 188/188/188
f 187/187/187 195/195/195 190/190/190
f 189/189/189 196/196/196 187/187/187
f 189/189/189 197/197/197 196/196/196
f 197/197/197 198/198/198 196/196/196
f 189/189/189 199/199/199 197/197/197
f 189/189/189 200/200/200 199/199/199
f 196/196/196 201/201/201 187/187/187
f 196/196/196 202/202/202 201/201/201
f 201/201/201 203/203/203 187/187/187
f 203/203/203 204/204/204 187/187/187
f 203/203/203 205/205/205 204/204/204
f 204/204/204 206/206/206 187/187/187
f 206/206/206 207/207/207 187/187/187
f 204/204/204 208/208/208 206/206/206
f 211/211/211 210/210/210 209/209/209
f 212/212/212 209/209/209 210/210/210
f 215/215/215 214/214/214 213/213/213
f 216/216/216 213/213/213 214/214/214
f 219/219/219 218/218/218 217/217/217
f 220/220/220 217/217/217 218/218/218
f 223/223/223 222/222/222 221/221/221
f 224/224/224 221/221/221 222/222/222
f 227/227/227 226/226/226 225/225/225
f 228/228/228 225/225/225 226/226/226
f 231/231/231 230/230/230 229/229/229
f 232/232/232 229/229/229 230/230/230
f 235/235/235 234/234/234 233/233/233
f 236/236/236 233/233/233 234/234/234
f 239/239/239 238/238/238 237/237/237
f 240/240/240 237/237/237 238/238/238
f 243/243/243 242/242/242 241/241/241
f 244/244/244 241/241/241 242/242/242
f 247/247/247 246/246/246 245/245/245
f 248/248/248 245/245/245 246/246/246
f 251/251/251 250/250/250 249/249/249
f 252/252/252 249/249/249 250/250/250
f 255/255/255 254/254/254 253/253/253
f 256/256/256 253/253/253 254/254/254
f 259/259/259 258/258/258 257/257/257
f 260/260/260 257/257/257 258/258/258
f 263/263/263 262/262/262 261/261/261
f 264/264/264 261/261/261 262/262/262
f 267/267/267 266/266/266 265/265/265
f 268/268/268 265/265/265 266/266/266
f 271/271/271 270/270/270 269/269/269
f 272/272/272 269/269/269 270/270/270
f 275/275/275 274/274/274 273/273/273
f 276/276/276 273/273/273 274/274/274
f 279/279/279 278/278/278 277/277/277
f 280/280/280 277/277/277 278/278/278
f 283/283/283 282/282/282 281/281/281
f 284/284/284 281/281/281 282/282/282
f 287/287/287 286/286/286 285/285/285
f 288/288/288 285/285/285 286/286/286
f 291/291/291 290/290/290 289/289/289
f 292/292/292 289/289/289 290/290/290
f 295/295/295 294/294/294 293/293/293
f 296/296/296 293/293/293 294/294/294
f 299/299/299 298/298/298 297/297/297
f 300/300/300 297/297/297 298/298/298
f 303/303/303 302/302/302 301/301/301
f 304/304/304 301/301/301 302/302/302
f 307/307/307 306/306/306 305/305/305
f 308/308/308 305/305/305 306/306/306
f 311/311/311 310/310/310 309/309/309
f 312/312/312 309/309/309 310/310/310
f 315/315/315 314/314/314 313/313/313
f 316/316/316 313/313/313 314/314/314
f 319/319/319 318/318/318 317/317/317
f 320/320/320 317/317/317 318/318/318
f 323/323/323 322/322/322 321/321/321
f 324/324/324 321/321/321 322/322/322
f 327/327/327 326/326/326 325/325/325
f 328/328/328 325/325/325 326/326/326
f 331/331/331 330/330/330 329/329/329
f 332/332/332 329/329/329 330/330/330
f 335/335/335 334/334/334 333/333/333
f 336/336/336 333/333/333 334/334/334
f 339/339/339 338/338/338 337/337/337
f 340/340/340 337/337/337 338/338/338
