g Rocks_Small_018
v -0.39040968 1.4607449 -0.89678353
v 0.9155568 1.5407382 -0.89678353
v -0.39012465 1.5411545 -0.89678353
v 0.91438156 1.4604825 -0.89678353
v 0.9155568 1.5407382 -0.89678353
v -0.51004803 1.4078985 -0.89678353
v -0.51004285 1.4608377 -0.89678353
v -0.58560866 1.3292542 -0.8967841
v -0.58523023 1.40743 -0.89678276
v -0.65369093 1.3292538 -0.89678353
v -0.65417314 1.1467599 -0.89678353
v 1.2193067 1.1336834 -0.89678353
v 1.2782631 0.95854884 -0.89678353
v -1.0227656 1.0816791 -0.89678353
v -1.0216756 1.1464255 -0.89678353
v -1.1539009 0.9534073 -0.89678353
v -1.153498 1.0812067 -0.89678353
v -1.2709608 0.8912039 -0.89678353
v -1.2704756 0.9528787 -0.89678353
v 1.1552894 1.3294302 -0.89678353
v 1.2187806 1.3294302 -0.89678353
v 1.0800636 1.3949454 -0.89678353
v 1.1547059 1.3943539 -0.89678353
v 0.91438156 1.4604825 -0.89678353
v 1.0792866 1.4604385 -0.89678353
v 1.2782631 0.95854884 -0.89678353
v 1.2792518 1.1337631 -0.89678353
v -1.2701734 0.40165892 -0.89678353
v -1.2108235 0.34428954 -0.89678353
v -1.3357704 0.40165922 -0.89678353
v -1.3365577 0.8912036 -0.89678353
v -1.2108235 0.34428954 -0.89678353
v -1.2734364 0.3436743 -0.89678353
v 1.3352784 0.95815974 -0.89678353
v 1.3365577 0.027096862 -0.89678353
v 1.2717335 0.026604308 -0.89678353
v -1.151238 0.28465697 -0.89678353
v -1.2094612 0.2813333 -0.89678353
v -1.151238 0.28465697 -0.89678353
v -0.5867213 -0.28605255 -0.8967836
v 1.2207326 -0.035576478 -0.89678353
v 1.2717347 -0.03557953 -0.89678353
v 1.2210096 -0.10459869 -0.89678353
v -1.0193074 -0.10242828 -0.89678353
v -0.5867213 -0.28605255 -0.8967836
v -0.5865559 -0.3541342 -0.8967836
v 1.2787232 -0.17983611 -0.8967836
v 1.2783144 -0.10529999 -0.89678353
v -0.58515334 -0.916741 -0.8967834
v -0.6526185 -0.916304 -0.8967834
v -0.65241164 -0.3540805 -0.8967836
v -0.5187105 -0.9697348 -0.8967836
v -0.58590895 -0.97102016 -0.8967836
v 1.1470252 -1.3454611 -0.8967836
v 1.2706861 -1.2837284 -0.8967836
v 1.3323573 -0.18065093 -0.8967836
v 1.3293568 -1.284039 -0.8967836
v 1.2717775 -1.3455551 -0.8967836
v -1.0193074 -0.16506562 -0.8967836
v -0.9568159 -0.16475494 -0.8967836
v -0.46303603 -1.3444791 -0.8967836
v -0.51947707 -1.3441544 -0.8967836
v -0.39705825 -1.4071292 -0.8967836
v -0.4629689 -1.4068807 -0.8967836
v -0.39769608 -1.4729092 -0.8967836
v -0.33212265 -1.4726815 -0.8967836
v -0.9554646 -0.22178009 -0.8967836
v -0.89790726 -0.22173613 -0.8967836
v -0.8979701 -0.28724334 -0.8967836
v 1.1470082 -1.4075838 -0.8967836
v 1.0376496 -1.4075083 -0.8967836
v -0.5187105 -0.9697348 -0.8967836
v 0.6596623 -1.4732602 -0.8967836
v 1.0376469 -1.473375 -0.8967836
v -0.33212265 -1.4726815 -0.8967836
v -0.39705825 -1.4071292 -0.8967836
v 0.6596623 -1.5411545 -0.8967836
v -0.33212265 -1.5370523 -0.8967836
v -1.0193074 -0.10242828 -0.89678353
v -0.9568159 -0.16475494 -0.8967836
v -0.5867213 -0.28605255 -0.8967836
v -1.091421 -0.038974915 -0.89678353
v -1.091877 -0.10297821 -0.89678353
v -1.151238 0.28465697 -0.89678353
v -1.150243 -0.038996886 -0.89678353
v -0.39040968 1.4607449 0.8967812
v -0.39012465 1.5411545 0.8967812
v 0.9155568 1.5407385 0.8967812
v 0.9155568 1.5407385 0.8967812
v 0.91438156 1.4604825 0.8967812
v -0.51004803 1.4078985 0.8967812
v -0.51004285 1.4608377 0.8967812
v -0.58560866 1.3292544 0.89677846
v -0.58523023 1.40743 0.8967841
v -0.65417314 1.1467601 0.8967812
v -0.65369093 1.3292542 0.8967812
v 1.2193067 1.1336836 0.8967812
v 1.2782631 0.9585492 0.8967812
v 1.2792518 1.1337632 0.8967812
v -1.0227656 1.0816792 0.8967812
v -1.1539009 0.9534076 0.8967812
v -1.0216756 1.1464256 0.8967812
v -1.153498 1.0812068 0.8967812
v 1.1552894 1.3294305 0.8967812
v 1.2187806 1.3294305 0.8967812
v 1.0800636 1.3949454 0.8967812
v 1.1547059 1.3943539 0.8967812
v 0.91438156 1.4604825 0.8967812
v 1.0792866 1.4604385 0.8967812
v -1.2709608 0.89120406 0.8967812
v -1.2704756 0.95287883 0.8967812
v -1.2701734 0.40165922 0.8967812
v -1.3357704 0.40165937 0.8967812
v -1.3365577 0.89120376 0.8967812
v -1.2108235 0.34428984 0.8967812
v -1.151238 0.28465712 0.8967812
v -1.2094612 0.28133345 0.8967812
v 1.2717335 0.026604613 0.8967812
v -0.5867213 -0.28605255 0.89678115
v 1.3365577 0.027097167 0.8967812
v 1.3352784 0.9581599 0.8967812
v 1.2207326 -0.035576172 0.8967812
v 1.2717347 -0.035579223 0.8967812
v 1.2210096 -0.10459869 0.8967812
v -1.2108235 0.34428984 0.8967812
v -1.2734364 0.3436746 0.8967812
v -0.89790726 -0.22173554 0.89678115
v -0.9568159 -0.16475494 0.89678115
v 1.2787232 -0.17983611 0.89678115
v 1.2783144 -0.105299376 0.8967812
v -0.5865559 -0.3541342 0.89678115
v -0.5867213 -0.28605255 0.89678115
v -0.58515334 -0.916741 0.89678115
v -0.5187105 -0.9697348 0.89678115
v -0.58590895 -0.97102016 0.89678115
v -0.6526185 -0.916304 0.89678115
v -0.65241164 -0.35407987 0.89678115
v 1.1470252 -1.3454608 0.89678097
v 1.2706861 -1.2837284 0.89678097
v 1.3323573 -0.18065032 0.89678115
v 1.3293568 -1.284039 0.8967809
v 1.2717775 -1.3455548 0.89678097
v 1.0376496 -1.4075079 0.89678097
v 1.1470082 -1.4075836 0.89678097
v 0.6596623 -1.4732598 0.89678097
v 1.0376469 -1.4733746 0.89678097
v -0.33212265 -1.4726813 0.89678097
v 0.6596623 -1.5411541 0.89678097
v -0.33212265 -1.5370519 0.89678097
v -0.39705825 -1.4071289 0.89678097
v -0.39769608 -1.4729089 0.89678097
v -0.46303603 -1.3444787 0.89678097
v -0.4629689 -1.4068805 0.89678097
v -0.51947707 -1.344154 0.89678097
v -1.0193074 -0.102427974 0.8967812
v -0.5867213 -0.28605255 0.89678115
v -0.9568159 -0.16475494 0.89678115
v -1.091421 -0.03897461 0.8967812
v -1.091877 -0.10297821 0.8967812
v -1.151238 0.28465712 0.8967812
v -1.150243 -0.03899658 0.8967812
v -0.5187105 -0.9697348 0.89678115
v -0.33212265 -1.4726813 0.89678097
v -0.39705825 -1.4071289 0.89678097
v -0.39040968 1.4607449 -0.89678353
v -0.39040968 1.4607449 0.8967812
v -0.51004285 1.4608377 0.8967812
v -0.51004285 1.4608377 -0.89678353
v -0.51004285 1.4608377 -0.89678353
v -0.51004285 1.4608377 0.8967812
v -0.51004803 1.4078985 0.8967812
v -0.51004803 1.4078985 -0.89678353
v 0.91438156 1.4604825 -0.89678353
v 0.91438156 1.4604825 0.8967812
v 0.9155568 1.5407385 0.8967812
v 0.9155568 1.5407382 -0.89678353
v 1.0792866 1.4604385 -0.89678353
v 1.0792866 1.4604385 0.8967812
v 0.91438156 1.4604825 0.8967812
v 0.91438156 1.4604825 -0.89678353
v 1.0800636 1.3949454 -0.89678353
v 1.0800636 1.3949454 0.8967812
v 1.0792866 1.4604385 0.8967812
v 1.0792866 1.4604385 -0.89678353
v -0.39012465 1.5411545 -0.89678353
v -0.39012465 1.5411545 0.8967812
v -0.39040968 1.4607449 0.8967812
v -0.39040968 1.4607449 -0.89678353
v 0.9155568 1.5407382 -0.89678353
v 0.9155568 1.5407385 0.8967812
v -0.39012465 1.5411545 0.8967812
v -0.39012465 1.5411545 -0.89678353
v -0.65369093 1.3292538 -0.89678353
v -0.65369093 1.3292542 0.8967812
v -0.65417314 1.1467601 0.8967812
v -0.65417314 1.1467599 -0.89678353
v -0.58560866 1.3292542 -0.8967841
v -0.58560866 1.3292544 0.89677846
v -0.65369093 1.3292542 0.8967812
v -0.65369093 1.3292538 -0.89678353
v 1.2210096 -0.10459869 -0.89678353
v 1.2210096 -0.10459869 0.8967812
v 1.2207326 -0.035576172 0.8967812
v 1.2207326 -0.035576478 -0.89678353
v 1.1470252 -1.3454611 -0.8967836
v 1.1470252 -1.3454608 0.89678097
v 1.2717775 -1.3455548 0.89678097
v 1.2717775 -1.3455551 -0.8967836
v 1.2717775 -1.3455551 -0.8967836
v 1.2717775 -1.3455548 0.89678097
v 1.2706861 -1.2837284 0.89678097
v 1.2706861 -1.2837284 -0.8967836
v 1.2706861 -1.2837284 -0.8967836
v 1.2706861 -1.2837284 0.89678097
v 1.3293568 -1.284039 0.8967809
v 1.3293568 -1.284039 -0.8967836
v 1.2193067 1.1336834 -0.89678353
v 1.2193067 1.1336836 0.8967812
v 1.2187806 1.3294305 0.8967812
v 1.2187806 1.3294302 -0.89678353
v 1.2187806 1.3294302 -0.89678353
v 1.2187806 1.3294305 0.8967812
v 1.1552894 1.3294305 0.8967812
v 1.1552894 1.3294302 -0.89678353
v 1.3365577 0.027096862 -0.89678353
v 1.3365577 0.027097167 0.8967812
v 1.3352784 0.9581599 0.8967812
v 1.3352784 0.95815974 -0.89678353
v 1.3352784 0.95815974 -0.89678353
v 1.3352784 0.9581599 0.8967812
v 1.2782631 0.9585492 0.8967812
v 1.2782631 0.95854884 -0.89678353
v 1.2792518 1.1337631 -0.89678353
v 1.2792518 1.1337632 0.8967812
v 1.2193067 1.1336836 0.8967812
v 1.2193067 1.1336834 -0.89678353
v 1.2782631 0.95854884 -0.89678353
v 1.2782631 0.9585492 0.8967812
v 1.2792518 1.1337632 0.8967812
v 1.2792518 1.1337631 -0.89678353
v 1.2717335 0.026604308 -0.89678353
v 1.2717335 0.026604613 0.8967812
v 1.3365577 0.027097167 0.8967812
v 1.3365577 0.027096862 -0.89678353
v -0.58523023 1.40743 -0.89678276
v -0.58523023 1.40743 0.8967841
v -0.58560866 1.3292544 0.89677846
v -0.58560866 1.3292542 -0.8967841
v -0.51004803 1.4078985 -0.89678353
v -0.51004803 1.4078985 0.8967812
v -0.58523023 1.40743 0.8967841
v -0.58523023 1.40743 -0.89678276
v -1.3357704 0.40165922 -0.89678353
v -1.3357704 0.40165937 0.8967812
v -1.2701734 0.40165922 0.8967812
v -1.2701734 0.40165892 -0.89678353
v -1.3365577 0.8912036 -0.89678353
v -1.3365577 0.89120376 0.8967812
v -1.3357704 0.40165937 0.8967812
v -1.3357704 0.40165922 -0.89678353
v -1.2709608 0.8912039 -0.89678353
v -1.2709608 0.89120406 0.8967812
v -1.3365577 0.89120376 0.8967812
v -1.3365577 0.8912036 -0.89678353
v 1.0376496 -1.4075083 -0.8967836
v 1.0376496 -1.4075079 0.89678097
v 1.1470082 -1.4075836 0.89678097
v 1.1470082 -1.4075838 -0.8967836
v 1.1470082 -1.4075838 -0.8967836
v 1.1470082 -1.4075836 0.89678097
v 1.1470252 -1.3454608 0.89678097
v 1.1470252 -1.3454611 -0.8967836
v -0.65241164 -0.3540805 -0.8967836
v -0.65241164 -0.35407987 0.89678115
v -0.6526185 -0.916304 0.89678115
v -0.6526185 -0.916304 -0.8967834
v -1.2734364 0.3436743 -0.89678353
v -1.2734364 0.3436746 0.8967812
v -1.2108235 0.34428984 0.8967812
v -1.2108235 0.34428954 -0.89678353
v -1.2701734 0.40165892 -0.89678353
v -1.2701734 0.40165922 0.8967812
v -1.2734364 0.3436746 0.8967812
v -1.2734364 0.3436743 -0.89678353
v -1.151238 0.28465697 -0.89678353
v -1.151238 0.28465712 0.8967812
v -1.150243 -0.03899658 0.8967812
v -1.150243 -0.038996886 -0.89678353
v 1.2717347 -0.03557953 -0.89678353
v 1.2717347 -0.035579223 0.8967812
v 1.2717335 0.026604613 0.8967812
v 1.2717335 0.026604308 -0.89678353
v 1.2207326 -0.035576478 -0.89678353
v 1.2207326 -0.035576172 0.8967812
v 1.2717347 -0.035579223 0.8967812
v 1.2717347 -0.03557953 -0.89678353
v 1.0376469 -1.473375 -0.8967836
v 1.0376469 -1.4733746 0.89678097
v 1.0376496 -1.4075079 0.89678097
v 1.0376496 -1.4075083 -0.8967836
v -0.8979701 -0.28724334 -0.8967836
v -0.8979701 -0.28724274 0.89678115
v -0.5867213 -0.28605255 0.89678115
v -0.5867213 -0.28605255 -0.8967836
v -0.89790726 -0.22173613 -0.8967836
v -0.89790726 -0.22173554 0.89678115
v -0.8979701 -0.28724274 0.89678115
v -0.8979701 -0.28724334 -0.8967836
v 1.1552894 1.3294302 -0.89678353
v 1.1552894 1.3294305 0.8967812
v 1.1547059 1.3943539 0.8967812
v 1.1547059 1.3943539 -0.89678353
v 1.1547059 1.3943539 -0.89678353
v 1.1547059 1.3943539 0.8967812
v 1.0800636 1.3949454 0.8967812
v 1.0800636 1.3949454 -0.89678353
v 1.2783144 -0.10529999 -0.89678353
v 1.2783144 -0.105299376 0.8967812
v 1.2210096 -0.10459869 0.8967812
v 1.2210096 -0.10459869 -0.89678353
v 1.3293568 -1.284039 -0.8967836
v 1.3293568 -1.284039 0.8967809
v 1.3323573 -0.18065032 0.89678115
v 1.3323573 -0.18065093 -0.8967836
v 1.3323573 -0.18065093 -0.8967836
v 1.3323573 -0.18065032 0.89678115
v 1.2787232 -0.17983611 0.89678115
v 1.2787232 -0.17983611 -0.8967836
v 1.2787232 -0.17983611 -0.8967836
v 1.2787232 -0.17983611 0.89678115
v 1.2783144 -0.105299376 0.8967812
v 1.2783144 -0.10529999 -0.89678353
v -1.2108235 0.34428954 -0.89678353
v -1.2108235 0.34428984 0.8967812
v -1.2094612 0.28133345 0.8967812
v -1.2094612 0.2813333 -0.89678353
v -1.2094612 0.2813333 -0.89678353
v -1.2094612 0.28133345 0.8967812
v -1.151238 0.28465712 0.8967812
v -1.151238 0.28465697 -0.89678353
v -1.150243 -0.038996886 -0.89678353
v -1.150243 -0.03899658 0.8967812
v -1.091421 -0.03897461 0.8967812
v -1.091421 -0.038974915 -0.89678353
v -1.091421 -0.038974915 -0.89678353
v -1.091421 -0.03897461 0.8967812
v -1.091877 -0.10297821 0.8967812
v -1.091877 -0.10297821 -0.89678353
v -1.091877 -0.10297821 -0.89678353
v -1.091877 -0.10297821 0.8967812
v -1.0193074 -0.102427974 0.8967812
v -1.0193074 -0.10242828 -0.89678353
v -1.0193074 -0.10242828 -0.89678353
v -1.0193074 -0.102427974 0.8967812
v -1.0193074 -0.16506562 0.89678115
v -1.0193074 -0.16506562 -0.8967836
v -0.9554646 -0.22178009 -0.8967836
v -0.9554646 -0.22178009 0.89678115
v -0.89790726 -0.22173554 0.89678115
v -0.89790726 -0.22173613 -0.8967836
v -0.9568159 -0.16475494 -0.8967836
v -0.9568159 -0.16475494 0.89678115
v -0.9554646 -0.22178009 0.89678115
v -0.9554646 -0.22178009 -0.8967836
v -0.5867213 -0.28605255 -0.8967836
v -0.5867213 -0.28605255 0.89678115
v -0.5865559 -0.3541342 0.89678115
v -0.5865559 -0.3541342 -0.8967836
v -0.5865559 -0.3541342 -0.8967836
v -0.5865559 -0.3541342 0.89678115
v -0.65241164 -0.35407987 0.89678115
v -0.65241164 -0.3540805 -0.8967836
v -1.0193074 -0.16506562 -0.8967836
v -1.0193074 -0.16506562 0.89678115
v -0.9568159 -0.16475494 0.89678115
v -0.9568159 -0.16475494 -0.8967836
v -1.2704756 0.9528787 -0.89678353
v -1.2704756 0.95287883 0.8967812
v -1.2709608 0.89120406 0.8967812
v -1.2709608 0.8912039 -0.89678353
v -1.1539009 0.9534073 -0.89678353
v -1.1539009 0.9534076 0.8967812
v -1.2704756 0.95287883 0.8967812
v -1.2704756 0.9528787 -0.89678353
v -1.153498 1.0812067 -0.89678353
v -1.153498 1.0812068 0.8967812
v -1.1539009 0.9534076 0.8967812
v -1.1539009 0.9534073 -0.89678353
v -1.0227656 1.0816791 -0.89678353
v -1.0227656 1.0816792 0.8967812
v -1.153498 1.0812068 0.8967812
v -1.153498 1.0812067 -0.89678353
v -0.65417314 1.1467599 -0.89678353
v -0.65417314 1.1467601 0.8967812
v -1.0216756 1.1464256 0.8967812
v -1.0216756 1.1464255 -0.89678353
v -1.0216756 1.1464255 -0.89678353
v -1.0216756 1.1464256 0.8967812
v -1.0227656 1.0816792 0.8967812
v -1.0227656 1.0816791 -0.89678353
v 0.6596623 -1.4732602 -0.8967836
v 0.6596623 -1.4732598 0.89678097
v 1.0376469 -1.4733746 0.89678097
v 1.0376469 -1.473375 -0.8967836
v -0.33212265 -1.4726815 -0.8967836
v -0.33212265 -1.4726813 0.89678097
v -0.33212265 -1.5370519 0.89678097
v -0.33212265 -1.5370523 -0.8967836
v 0.6596623 -1.5411545 -0.8967836
v 0.6596623 -1.5411541 0.89678097
v 0.6596623 -1.4732598 0.89678097
v 0.6596623 -1.4732602 -0.8967836
v -0.33212265 -1.5370523 -0.8967836
v -0.33212265 -1.5370519 0.89678097
v 0.6596623 -1.5411541 0.89678097
v 0.6596623 -1.5411545 -0.8967836
v -0.58590895 -0.97102016 -0.8967836
v -0.58590895 -0.97102016 0.89678115
v -0.5187105 -0.9697348 0.89678115
v -0.5187105 -0.9697348 -0.8967836
v -0.5187105 -0.9697348 -0.8967836
v -0.5187105 -0.9697348 0.89678115
v -0.51947707 -1.344154 0.89678097
v -0.51947707 -1.3441544 -0.8967836
v -0.58515334 -0.916741 -0.8967834
v -0.58515334 -0.916741 0.89678115
v -0.58590895 -0.97102016 0.89678115
v -0.58590895 -0.97102016 -0.8967836
v -0.6526185 -0.916304 -0.8967834
v -0.6526185 -0.916304 0.89678115
v -0.58515334 -0.916741 0.89678115
v -0.58515334 -0.916741 -0.8967834
v -0.51947707 -1.3441544 -0.8967836
v -0.51947707 -1.344154 0.89678097
v -0.46303603 -1.3444787 0.89678097
v -0.46303603 -1.3444791 -0.8967836
v -0.46303603 -1.3444791 -0.8967836
v -0.46303603 -1.3444787 0.89678097
v -0.4629689 -1.4068805 0.89678097
v -0.4629689 -1.4068807 -0.8967836
v -0.4629689 -1.4068807 -0.8967836
v -0.4629689 -1.4068805 0.89678097
v -0.39705825 -1.4071289 0.89678097
v -0.39705825 -1.4071292 -0.8967836
v -0.39769608 -1.4729092 -0.8967836
v -0.39769608 -1.4729089 0.89678097
v -0.33212265 -1.4726813 0.89678097
v -0.33212265 -1.4726815 -0.8967836
v -0.39705825 -1.4071292 -0.8967836
v -0.39705825 -1.4071289 0.89678097
v -0.39769608 -1.4729089 0.89678097
v -0.39769608 -1.4729092 -0.8967836
v -0.8979701 -0.28724274 0.89678115
v -0.89790726 -0.22173554 0.89678115
v -1.151238 0.28465712 0.8967812
v -1.0193074 -0.102427974 0.8967812
v -0.9568159 -0.16475494 0.89678115
v -0.9554646 -0.22178009 0.89678115
v -1.0193074 -0.16506562 0.89678115
vt 0.5151367 0.54003906
vt 0.4326172 0.54785156
vt 0.515625 0.54785156
vt 0.43237305 0.54345703
vt 0.4326172 0.54785156
vt 0.5229492 0.5366211
vt 0.5229492 0.54003906
vt 0.52734375 0.5317383
vt 0.52734375 0.5366211
vt 0.5317383 0.5317383
vt 0.5317383 0.52001953
vt 0.41259766 0.5234375
vt 0.40844727 0.5126953
vt 0.5546875 0.515625
vt 0.5546875 0.52001953
vt 0.5629883 0.5078125
vt 0.5629883 0.515625
vt 0.5698242 0.50439453
vt 0.5698242 0.5078125
vt 0.41674805 0.53564453
vt 0.41259766 0.53564453
vt 0.42163086 0.5395508
vt 0.4169922 0.5395508
vt 0.43237305 0.54345703
vt 0.421875 0.54345703
vt 0.40844727 0.5126953
vt 0.40844727 0.5234375
vt 0.5698242 0.47338867
vt 0.5654297 0.47045898
vt 0.57421875 0.47338867
vt 0.57421875 0.50439453
vt 0.5654297 0.47045898
vt 0.5698242 0.47045898
vt 0.40405273 0.5126953
vt 0.40405273 0.45361328
vt 0.40771484 0.45336914
vt 0.5620117 0.4675293
vt 0.5654297 0.4675293
vt 0.5620117 0.4675293
vt 0.5258789 0.4326172
vt 0.4111328 0.4494629
vt 0.40771484 0.4494629
vt 0.4111328 0.4453125
vt 0.55322266 0.4440918
vt 0.5258789 0.4326172
vt 0.5258789 0.42871094
vt 0.4074707 0.44067383
vt 0.4074707 0.4453125
vt 0.5258789 0.3930664
vt 0.52978516 0.3930664
vt 0.53027344 0.42871094
vt 0.5214844 0.38989258
vt 0.5258789 0.38989258
vt 0.41552734 0.36669922
vt 0.40771484 0.37060547
vt 0.40405273 0.44067383
vt 0.4038086 0.37060547
vt 0.4074707 0.36669922
vt 0.55322266 0.43945312
vt 0.5493164 0.43945312
vt 0.5180664 0.36645508
vt 0.5214844 0.36645508
vt 0.5136719 0.3623047
vt 0.5180664 0.3623047
vt 0.5136719 0.3564453
vt 0.5097656 0.3564453
vt 0.5493164 0.43603516
vt 0.54541016 0.43603516
vt 0.54541016 0.4326172
vt 0.41552734 0.36279297
vt 0.42236328 0.36279297
vt 0.5214844 0.38989258
vt 0.44458008 0.35668945
vt 0.42236328 0.3569336
vt 0.5097656 0.3564453
vt 0.5136719 0.3623047
vt 0.44458008 0.35253906
vt 0.50927734 0.35253906
vt 0.55322266 0.4440918
vt 0.5493164 0.43945312
vt 0.5258789 0.4326172
vt 0.55810547 0.44726562
vt 0.55810547 0.4440918
vt 0.5620117 0.4675293
vt 0.5620117 0.44726562
vt 0.5151367 0.54003906
vt 0.515625 0.54785156
vt 0.4326172 0.54785156
vt 0.4326172 0.54785156
vt 0.43237305 0.54345703
vt 0.5229492 0.5366211
vt 0.5229492 0.54003906
vt 0.52734375 0.5317383
vt 0.52734375 0.5366211
vt 0.5317383 0.52001953
vt 0.5317383 0.5317383
vt 0.41259766 0.5234375
vt 0.40844727 0.5126953
vt 0.40844727 0.5234375
vt 0.5546875 0.515625
vt 0.5629883 0.5078125
vt 0.5546875 0.52001953
vt 0.5629883 0.515625
vt 0.41674805 0.53564453
vt 0.41259766 0.53564453
vt 0.42163086 0.5395508
vt 0.4169922 0.5395508
vt 0.43237305 0.54345703
vt 0.421875 0.54345703
vt 0.5698242 0.50439453
vt 0.5698242 0.5078125
vt 0.5698242 0.47338867
vt 0.57421875 0.47338867
vt 0.57421875 0.50439453
vt 0.5654297 0.47045898
vt 0.5620117 0.4675293
vt 0.5654297 0.4675293
vt 0.40771484 0.45336914
vt 0.5258789 0.4326172
vt 0.40405273 0.45361328
vt 0.40405273 0.5126953
vt 0.4111328 0.4494629
vt 0.40771484 0.4494629
vt 0.4111328 0.4453125
vt 0.5654297 0.47045898
vt 0.5698242 0.47045898
vt 0.54541016 0.43603516
vt 0.5493164 0.43945312
vt 0.4074707 0.44067383
vt 0.4074707 0.4453125
vt 0.5258789 0.42871094
vt 0.5258789 0.4326172
vt 0.5258789 0.3930664
vt 0.5214844 0.38989258
vt 0.5258789 0.38989258
vt 0.52978516 0.3930664
vt 0.53027344 0.42871094
vt 0.41552734 0.36669922
vt 0.40771484 0.37060547
vt 0.40405273 0.44067383
vt 0.4038086 0.37060547
vt 0.4074707 0.36669922
vt 0.42236328 0.36279297
vt 0.41552734 0.36279297
vt 0.44458008 0.35668945
vt 0.42236328 0.3569336
vt 0.5097656 0.3564453
vt 0.44458008 0.35253906
vt 0.50927734 0.35253906
vt 0.5136719 0.3623047
vt 0.5136719 0.3564453
vt 0.5180664 0.36645508
vt 0.5180664 0.3623047
vt 0.5214844 0.36645508
vt 0.55322266 0.4440918
vt 0.5258789 0.4326172
vt 0.5493164 0.43945312
vt 0.55810547 0.44726562
vt 0.55810547 0.4440918
vt 0.5620117 0.4675293
vt 0.5620117 0.44726562
vt 0.5214844 0.38989258
vt 0.5097656 0.3564453
vt 0.5136719 0.3623047
vt 0.5175781 0.5595703
vt 0.5175781 0.62646484
vt 0.5239258 0.62646484
vt 0.5239258 0.5595703
vt 0.5239258 0.5595703
vt 0.5239258 0.62646484
vt 0.52685547 0.62646484
vt 0.52685547 0.5595703
vt 0.3942871 0.56152344
vt 0.32250977 0.56152344
vt 0.32250977 0.5654297
vt 0.3942871 0.5654297
vt 0.3942871 0.5517578
vt 0.32250977 0.5517578
vt 0.32250977 0.56152344
vt 0.3942871 0.56152344
vt 0.3942871 0.5488281
vt 0.32250977 0.5488281
vt 0.32250977 0.5517578
vt 0.3942871 0.5517578
vt 0.5131836 0.5595703
vt 0.5131836 0.62646484
vt 0.5175781 0.62646484
vt 0.5175781 0.5595703
vt 0.43115234 0.5595703
vt 0.43115234 0.62646484
vt 0.5131836 0.62646484
vt 0.5131836 0.5595703
vt 0.5385742 0.5595703
vt 0.5385742 0.62646484
vt 0.5493164 0.62646484
vt 0.5493164 0.5595703
vt 0.53515625 0.5595703
vt 0.53515625 0.62646484
vt 0.5385742 0.62646484
vt 0.5385742 0.5595703
vt 0.3942871 0.44506836
vt 0.32250977 0.44506836
vt 0.32250977 0.4482422
vt 0.3942871 0.4482422
vt 0.41137695 0.34277344
vt 0.41137695 0.27612305
vt 0.40478516 0.27612305
vt 0.40478516 0.34277344
vt 0.40478516 0.34277344
vt 0.40478516 0.27612305
vt 0.4020996 0.27612305
vt 0.4020996 0.34277344
vt 0.4020996 0.34277344
vt 0.4020996 0.27612305
vt 0.3996582 0.27612305
vt 0.3996582 0.34277344
vt 0.3942871 0.5283203
vt 0.32250977 0.5283203
vt 0.32250977 0.5395508
vt 0.3942871 0.5395508
vt 0.3942871 0.5395508
vt 0.32250977 0.5395508
vt 0.32250977 0.5419922
vt 0.3942871 0.5419922
vt 0.3942871 0.4555664
vt 0.32250977 0.4555664
vt 0.32250977 0.5131836
vt 0.3942871 0.5131836
vt 0.3942871 0.5131836
vt 0.32250977 0.5131836
vt 0.32250977 0.515625
vt 0.3942871 0.515625
vt 0.3942871 0.5253906
vt 0.32250977 0.5253906
vt 0.32250977 0.5283203
vt 0.3942871 0.5283203
vt 0.3942871 0.515625
vt 0.32250977 0.515625
vt 0.32250977 0.5253906
vt 0.3942871 0.5253906
vt 0.3942871 0.45263672
vt 0.32250977 0.45263672
vt 0.32250977 0.4555664
vt 0.3942871 0.4555664
vt 0.5307617 0.5595703
vt 0.5307617 0.62646484
vt 0.53515625 0.62646484
vt 0.53515625 0.5595703
vt 0.52685547 0.5595703
vt 0.52685547 0.62646484
vt 0.5307617 0.62646484
vt 0.5307617 0.5595703
vt 0.58496094 0.47338867
vt 0.6567383 0.47338867
vt 0.6567383 0.46923828
vt 0.58496094 0.46923828
vt 0.58496094 0.50439453
vt 0.6567383 0.50439453
vt 0.6567383 0.47338867
vt 0.58496094 0.47338867
vt 0.6020508 0.5595703
vt 0.6020508 0.62646484
vt 0.60595703 0.62646484
vt 0.60595703 0.5595703
vt 0.4194336 0.34277344
vt 0.4194336 0.27612305
vt 0.41381836 0.27612305
vt 0.41381836 0.34277344
vt 0.41381836 0.34277344
vt 0.41381836 0.27612305
vt 0.41137695 0.27612305
vt 0.41137695 0.34277344
vt 0.58496094 0.37963867
vt 0.6567383 0.37963867
vt 0.6567383 0.34472656
vt 0.58496094 0.34472656
vt 0.58496094 0.46557617
vt 0.6567383 0.46557617
vt 0.6567383 0.46166992
vt 0.58496094 0.46166992
vt 0.58496094 0.46923828
vt 0.6567383 0.46923828
vt 0.6567383 0.46557617
vt 0.58496094 0.46557617
vt 0.58496094 0.45410156
vt 0.6567383 0.45410156
vt 0.6567383 0.4338379
vt 0.58496094 0.4338379
vt 0.3942871 0.4501953
vt 0.32250977 0.4501953
vt 0.32250977 0.45263672
vt 0.3942871 0.45263672
vt 0.3942871 0.4482422
vt 0.32250977 0.4482422
vt 0.32250977 0.4501953
vt 0.3942871 0.4501953
vt 0.42236328 0.34277344
vt 0.42236328 0.27612305
vt 0.4194336 0.27612305
vt 0.4194336 0.34277344
vt 0.58496094 0.40551758
vt 0.6567383 0.40551758
vt 0.6567383 0.3864746
vt 0.58496094 0.3864746
vt 0.58496094 0.4091797
vt 0.6567383 0.4091797
vt 0.6567383 0.40551758
vt 0.58496094 0.40551758
vt 0.3942871 0.5419922
vt 0.32250977 0.5419922
vt 0.32250977 0.54541016
vt 0.3942871 0.54541016
vt 0.3942871 0.54541016
vt 0.32250977 0.54541016
vt 0.32250977 0.5488281
vt 0.3942871 0.5488281
vt 0.3942871 0.4428711
vt 0.32250977 0.4428711
vt 0.32250977 0.44506836
vt 0.3942871 0.44506836
vt 0.3942871 0.36865234
vt 0.32250977 0.36865234
vt 0.32250977 0.4375
vt 0.3942871 0.4375
vt 0.3942871 0.4375
vt 0.32250977 0.4375
vt 0.32250977 0.43945312
vt 0.3942871 0.43945312
vt 0.3942871 0.43945312
vt 0.32250977 0.43945312
vt 0.32250977 0.4428711
vt 0.3942871 0.4428711
vt 0.58496094 0.46166992
vt 0.6567383 0.46166992
vt 0.6567383 0.45776367
vt 0.58496094 0.45776367
vt 0.58496094 0.45776367
vt 0.6567383 0.45776367
vt 0.6567383 0.45410156
vt 0.58496094 0.45410156
vt 0.58496094 0.4338379
vt 0.6567383 0.4338379
vt 0.6567383 0.43017578
vt 0.58496094 0.43017578
vt 0.58496094 0.43017578
vt 0.6567383 0.43017578
vt 0.6567383 0.42651367
vt 0.58496094 0.42651367
vt 0.58496094 0.42651367
vt 0.6567383 0.42651367
vt 0.6567383 0.42236328
vt 0.58496094 0.42236328
vt 0.58496094 0.42236328
vt 0.6567383 0.42236328
vt 0.6567383 0.41870117
vt 0.58496094 0.41870117
vt 0.58496094 0.41210938
vt 0.6567383 0.41210938
vt 0.6567383 0.4091797
vt 0.58496094 0.4091797
vt 0.58496094 0.4152832
vt 0.6567383 0.4152832
vt 0.6567383 0.41210938
vt 0.58496094 0.41210938
vt 0.58496094 0.3864746
vt 0.6567383 0.3864746
vt 0.6567383 0.3828125
vt 0.58496094 0.3828125
vt 0.58496094 0.3828125
vt 0.6567383 0.3828125
vt 0.6567383 0.37963867
vt 0.58496094 0.37963867
vt 0.58496094 0.41870117
vt 0.6567383 0.41870117
vt 0.6567383 0.4152832
vt 0.58496094 0.4152832
vt 0.5986328 0.5595703
vt 0.5986328 0.62646484
vt 0.6020508 0.62646484
vt 0.6020508 0.5595703
vt 0.5913086 0.5595703
vt 0.5913086 0.62646484
vt 0.5986328 0.62646484
vt 0.5986328 0.5595703
vt 0.5839844 0.5595703
vt 0.5839844 0.62646484
vt 0.5913086 0.62646484
vt 0.5913086 0.5595703
vt 0.5761719 0.5595703
vt 0.5761719 0.62646484
vt 0.5839844 0.62646484
vt 0.5839844 0.5595703
vt 0.5493164 0.5595703
vt 0.5493164 0.62646484
vt 0.5722656 0.62646484
vt 0.5722656 0.5595703
vt 0.5722656 0.5595703
vt 0.5722656 0.62646484
vt 0.5761719 0.62646484
vt 0.5761719 0.5595703
vt 0.44506836 0.34277344
vt 0.44506836 0.27612305
vt 0.42236328 0.27612305
vt 0.42236328 0.34277344
vt 0.5126953 0.34277344
vt 0.5126953 0.27612305
vt 0.5097656 0.27612305
vt 0.5097656 0.34277344
vt 0.4482422 0.34277344
vt 0.4482422 0.27612305
vt 0.44506836 0.27612305
vt 0.44506836 0.34277344
vt 0.5097656 0.34277344
vt 0.5097656 0.27612305
vt 0.4482422 0.27612305
vt 0.4482422 0.34277344
vt 0.58496094 0.33862305
vt 0.6567383 0.33862305
vt 0.6567383 0.33544922
vt 0.58496094 0.33544922
vt 0.58496094 0.33544922
vt 0.6567383 0.33544922
vt 0.6567383 0.31274414
vt 0.58496094 0.31274414
vt 0.58496094 0.3413086
vt 0.6567383 0.3413086
vt 0.6567383 0.33862305
vt 0.58496094 0.33862305
vt 0.58496094 0.34472656
vt 0.6567383 0.34472656
vt 0.6567383 0.3413086
vt 0.58496094 0.3413086
vt 0.52734375 0.34277344
vt 0.52734375 0.27612305
vt 0.52490234 0.27612305
vt 0.52490234 0.34277344
vt 0.52490234 0.34277344
vt 0.52490234 0.27612305
vt 0.52197266 0.27612305
vt 0.52197266 0.34277344
vt 0.52197266 0.34277344
vt 0.52197266 0.27612305
vt 0.51904297 0.27612305
vt 0.51904297 0.34277344
vt 0.515625 0.34277344
vt 0.515625 0.27612305
vt 0.5126953 0.27612305
vt 0.5126953 0.34277344
vt 0.51904297 0.34277344
vt 0.51904297 0.27612305
vt 0.515625 0.27612305
vt 0.515625 0.34277344
vt 0.54541016 0.4326172
vt 0.54541016 0.43603516
vt 0.5620117 0.4675293
vt 0.55322266 0.4440918
vt 0.5493164 0.43945312
vt 0.5493164 0.43603516
vt 0.55322266 0.43945312
vn -0 0 -1
vn -0 0 -1
vn -0 0 -1
vn -0 0 -1
vn -0 0 -1
vn -0 0 -1
vn -0 0 -1
vn -8.940697E-06 0 -1
vn -1.0251999E-05 1.7642975E-05 -1
vn -8.940697E-06 0 -1
vn -8.940697E-06 0 -1
vn -0 0 -1
vn -0 0 -1
vn -0 0 -1
vn -0 0 -1
vn -0 0 -1
vn -0 0 -1
vn -0 0 -1
vn -0 0 -1
vn -0 0 -1
vn -0 0 -1
vn 3.5762787E-07 4.172325E-07 -1
vn -0 0 -1
vn -0 0 -1
vn -0 0 -1
vn -0 0 -1
vn -0 0 -1
vn -0 0 -1
vn -0 0 -1
vn -0 0 -1
vn -0 0 -1
vn -0 0 -1
vn -0 0 -1
vn -0 0 -1
vn -0 0 -1
vn -0 0 -1
vn -1.7881393E-07 0 -1
vn -0 0 -1
vn -0 0 -1
vn -0 0 -1
vn -0 0 -1
vn -0 0 -1
vn -0 1.013279E-06 -1
vn -0 1.1920929E-06 -1
vn -0 0 -1
vn -0 0 -1
vn -0 1.013279E-06 -1
vn -0 1.013279E-06 -1
vn -0 -2.9802322E-07 -1
vn -0 -2.9802322E-07 -1
vn -0 -2.9802322E-07 -1
vn -8.34465E-07 1.847744E-06 -1
vn -0 2.8014183E-06 -1
vn -0 0 -1
vn -0 0 -1
vn -0 0 -1
vn -0 0 -1
vn -0 0 -1
vn -0 1.1920929E-06 -1
vn -0 1.1920929E-06 -1
vn -0 0 -1
vn -0 0 -1
vn -0 0 -1
vn -0 0 -1
vn -0 0 -1
vn -0 0 -1
vn -0 0 -1
vn -0 0 -1
vn -0 0 -1
vn -0 0 -1
vn -0 0 -1
vn -0 0 -1
vn -0 0 -1
vn -0 0 -1
vn -0 0 -1
vn -0 0 -1
vn -0 0 -1
vn -0 0 -1
vn -0 0 -1
vn 5.9604645E-07 1.847744E-06 -1
vn 5.9604645E-07 1.847744E-06 -1
vn -0 0 -1
vn -0 0 -1
vn -0 0 -1
vn -0 0 -1
vn -0 0 1
vn -0 0 1
vn -0 0 1
vn -0 0 1
vn -0 0 1
vn -0 0 1
vn -0 0 1
vn 4.0352345E-05 -1.1920929E-07 1
vn 3.9041042E-05 -7.241964E-05 1
vn 4.0352345E-05 -1.1920929E-07 1
vn 4.0352345E-05 -1.1920929E-07 1
vn -0 0 1
vn -0 0 1
vn -0 0 1
vn -0 0 1
vn -0 0 1
vn -0 0 1
vn -0 0 1
vn -0 0 1
vn -0 0 1
vn -1.5497208E-06 -1.7881393E-06 1
vn -0 0 1
vn -0 0 1
vn -0 0 1
vn -0 0 1
vn -0 0 1
vn -0 0 1
vn -0 0 1
vn -0 0 1
vn -0 0 1
vn -0 0 1
vn -0 0 1
vn -0 0 1
vn -0 0 1
vn -0 0 1
vn -0 0 1
vn -0 0 1
vn -0 0 1
vn -0 -1.013279E-06 1
vn -0 0 1
vn -0 0 1
vn -0 0 1
vn -0 0 1
vn -0 -1.013279E-06 1
vn -0 -1.013279E-06 1
vn -0 0 1
vn -0 0 1
vn -0 0 1
vn -0 -2.3841858E-07 1
vn -0 0 1
vn -0 0 1
vn -0 0 1
vn -0 0 1
vn -0 0 1
vn -0 -1.1920929E-07 1
vn 1.3113022E-06 -2.3841858E-07 1
vn -0 0 1
vn -0 0 1
vn -0 0 1
vn -0 -2.3841858E-07 1
vn -0 0 1
vn -0 0 1
vn -0 0 1
vn -0 0 1
vn -4.7683716E-07 -4.7683716E-07 1
vn -0 0 1
vn -4.7683716E-07 -4.7683716E-07 1
vn -0 0 1
vn -0 -4.172325E-07 1
vn -0 0 1
vn -5.9604645E-07 -1.847744E-06 1
vn -5.9604645E-07 -1.847744E-06 1
vn -0 0 1
vn -0 0 1
vn -0 0 1
vn -0 0 1
vn -4.7683716E-07 -4.7683716E-07 1
vn -4.7683716E-07 -4.7683716E-07 1
vn -4.7683716E-07 -4.7683716E-07 1
vn 0.0007753372 1 0
vn 0.0007753372 1 0
vn 0.0007753372 1 0
vn 0.0007753372 1 0
vn -1 9.7990036E-05 0
vn -1 9.7990036E-05 0
vn -1 9.7990036E-05 0
vn -1 9.7990036E-05 0
vn 1 -0.014640808 0
vn 1 -0.014640808 0
vn 1 -0.014640808 0
vn 1 -0.014640808 0
vn 0.00026655197 1 0
vn 0.00026655197 1 0
vn 0.00026655197 1 0
vn 0.00026655197 1 0
vn 1 0.0118637085 0
vn 1 0.0118637085 0
vn 1 0.0118637085 0
vn 1 0.0118637085 0
vn -1 0.0035438538 0
vn -1 0.0035438538 0
vn -1 0.0035438538 0
vn -1 0.0035438538 0
vn 0.00031876564 1 0
vn 0.00031876564 1 0
vn 0.00031876564 1 0
vn 0.00031876564 1 0
vn -1 0.0026416779 0
vn -1 0.0026416779 0
vn -1 0.0026416779 0
vn -1 0.0026416779 0
vn -4.4703484E-06 1 -1.7881393E-07
vn -4.4703484E-06 1 -1.7881393E-07
vn -4.4703484E-06 1 -1.7881393E-07
vn -4.4703484E-06 1 -1.7881393E-07
vn 1 0.0040130615 0
vn 1 0.0040130615 0
vn 1 0.0040130615 0
vn 1 0.0040130615 0
vn -0.0007534027 -1 1.7881393E-07
vn -0.0007534027 -1 1.7881393E-07
vn -0.0007534027 -1 1.7881393E-07
vn -0.0007534027 -1 1.7881393E-07
vn 1 0.017654419 0
vn 1 0.017654419 0
vn 1 0.017654419 0
vn 1 0.017654419 0
vn -0.0052948 -1 0
vn -0.0052948 -1 0
vn -0.0052948 -1 0
vn -0.0052948 -1 0
vn 1 0.0026874542 0
vn 1 0.0026874542 0
vn 1 0.0026874542 0
vn 1 0.0026874542 0
vn -0 1 -1.7881393E-07
vn -0 1 -1.7881393E-07
vn -0 1 -1.7881393E-07
vn -0 1 -1.7881393E-07
vn 1 0.0013742447 0
vn 1 0.0013742447 0
vn 1 0.0013742447 0
vn 1 0.0013742447 0
vn 0.0068244934 1 -1.1920929E-07
vn 0.0068244934 1 -1.1920929E-07
vn 0.0068244934 1 -1.1920929E-07
vn 0.0068244934 1 -1.1920929E-07
vn -0.0013284683 1 0
vn -0.0013284683 1 0
vn -0.0013284683 1 0
vn -0.0013284683 1 0
vn 1 -0.0056419373 0
vn 1 -0.0056419373 0
vn 1 -0.0056419373 0
vn 1 -0.0056419373 0
vn 0.007598877 -1 1.7881393E-07
vn 0.007598877 -1 1.7881393E-07
vn 0.007598877 -1 1.7881393E-07
vn 0.007598877 -1 1.7881393E-07
vn -1 0.004840851 0
vn -1 0.004840851 0
vn -1 0.004840851 0
vn -1 0.004840851 0
vn -0.0062294006 1 0
vn -0.0062294006 1 0
vn -0.0062294006 1 0
vn -0.0062294006 1 0
vn -3.516674E-06 -1 1.1920929E-07
vn -3.516674E-06 -1 1.1920929E-07
vn -3.516674E-06 -1 1.1920929E-07
vn -3.516674E-06 -1 1.1920929E-07
vn -1 -0.0016078949 0
vn -1 -0.0016078949 0
vn -1 -0.0016078949 0
vn -1 -0.0016078949 0
vn -4.6491623E-06 1 0
vn -4.6491623E-06 1 0
vn -4.6491623E-06 1 0
vn -4.6491623E-06 1 0
vn -0.0006918907 -1 1.7881393E-07
vn -0.0006918907 -1 1.7881393E-07
vn -0.0006918907 -1 1.7881393E-07
vn -0.0006918907 -1 1.7881393E-07
vn 1 -0.00027513504 0
vn 1 -0.00027513504 0
vn 1 -0.00027513504 0
vn 1 -0.00027513504 0
vn -1 0.0003681183 0
vn -1 0.0003681183 0
vn -1 0.0003681183 0
vn -1 0.0003681183 0
vn 0.00982666 -1 1.7881393E-07
vn 0.00982666 -1 1.7881393E-07
vn 0.00982666 -1 1.7881393E-07
vn 0.00982666 -1 1.7881393E-07
vn -0.99853516 0.05618286 0
vn -0.99853516 0.05618286 0
vn -0.99853516 0.05618286 0
vn -0.99853516 0.05618286 0
vn -1 -0.003074646 0
vn -1 -0.003074646 0
vn -1 -0.003074646 0
vn -1 -0.003074646 0
vn 1 1.9609928E-05 0
vn 1 1.9609928E-05 0
vn 1 1.9609928E-05 0
vn 1 1.9609928E-05 0
vn -5.9843063E-05 -1 1.7881393E-07
vn -5.9843063E-05 -1 1.7881393E-07
vn -5.9843063E-05 -1 1.7881393E-07
vn -5.9843063E-05 -1 1.7881393E-07
vn 1 -4.172325E-05 0
vn 1 -4.172325E-05 0
vn 1 -4.172325E-05 0
vn 1 -4.172325E-05 0
vn 0.003824234 -1 1.7881393E-07
vn 0.003824234 -1 1.7881393E-07
vn 0.003824234 -1 1.7881393E-07
vn 0.003824234 -1 1.7881393E-07
vn -1 0.0009598732 0
vn -1 0.0009598732 0
vn -1 0.0009598732 0
vn -1 0.0009598732 0
vn 1 0.008987427 0
vn 1 0.008987427 0
vn 1 0.008987427 0
vn 1 0.008987427 0
vn 0.007926941 1 0
vn 0.007926941 1 0
vn 0.007926941 1 0
vn 0.007926941 1 0
vn 0.012229919 1 -1.7881393E-07
vn 0.012229919 1 -1.7881393E-07
vn 0.012229919 1 -1.7881393E-07
vn 0.012229919 1 -1.7881393E-07
vn 1 -0.0027198792 0
vn 1 -0.0027198792 0
vn 1 -0.0027198792 0
vn 1 -0.0027198792 0
vn 0.015182495 1 -1.7881393E-07
vn 0.015182495 1 -1.7881393E-07
vn 0.015182495 1 -1.7881393E-07
vn 0.015182495 1 -1.7881393E-07
vn 1 0.0054855347 0
vn 1 0.0054855347 0
vn 1 0.0054855347 0
vn 1 0.0054855347 0
vn -1 -0.021636963 0
vn -1 -0.021636963 0
vn -1 -0.021636963 0
vn -1 -0.021636963 0
vn 0.057006836 -0.99853516 0
vn 0.057006836 -0.99853516 0
vn 0.057006836 -0.99853516 0
vn 0.057006836 -0.99853516 0
vn 0.0003736019 -1 1.7881393E-07
vn 0.0003736019 -1 1.7881393E-07
vn 0.0003736019 -1 1.7881393E-07
vn 0.0003736019 -1 1.7881393E-07
vn -1 0.00712204 0
vn -1 0.00712204 0
vn -1 0.00712204 0
vn -1 0.00712204 0
vn 0.0075798035 -1 0
vn 0.0075798035 -1 0
vn 0.0075798035 -1 0
vn 0.0075798035 -1 0
vn -1 0 0
vn -1 0 0
vn -1 0 0
vn -1 0 0
vn 0.0007686615 -1 1.7881393E-07
vn 0.0007686615 -1 1.7881393E-07
vn 0.0007686615 -1 1.7881393E-07
vn 0.0007686615 -1 1.7881393E-07
vn -0.9995117 -0.0236969 0
vn -0.9995117 -0.0236969 0
vn -0.9995117 -0.0236969 0
vn -0.9995117 -0.0236969 0
vn -1 -0.0024299622 0
vn -1 -0.0024299622 0
vn -1 -0.0024299622 0
vn -1 -0.0024299622 0
vn 0.0008201599 1 -1.7881393E-07
vn 0.0008201599 1 -1.7881393E-07
vn 0.0008201599 1 -1.7881393E-07
vn 0.0008201599 1 -1.7881393E-07
vn 0.0049705505 -1 0
vn 0.0049705505 -1 0
vn 0.0049705505 -1 0
vn 0.0049705505 -1 0
vn -1 0.007865906 0
vn -1 0.007865906 0
vn -1 0.007865906 0
vn -1 0.007865906 0
vn -0.004535675 1 -1.1920929E-07
vn -0.004535675 1 -1.1920929E-07
vn -0.004535675 1 -1.1920929E-07
vn -0.004535675 1 -1.1920929E-07
vn -1 0.0031528473 0
vn -1 0.0031528473 0
vn -1 0.0031528473 0
vn -1 0.0031528473 0
vn -0.0036144257 1 0
vn -0.0036144257 1 0
vn -0.0036144257 1 0
vn -0.0036144257 1 0
vn -0.00091028214 1 0
vn -0.00091028214 1 0
vn -0.00091028214 1 0
vn -0.00091028214 1 0
vn -1 0.016830444 0
vn -1 0.016830444 0
vn -1 0.016830444 0
vn -1 0.016830444 0
vn -0.00030350685 -1 1.7881393E-07
vn -0.00030350685 -1 1.7881393E-07
vn -0.00030350685 -1 1.7881393E-07
vn -0.00030350685 -1 1.7881393E-07
vn -1 0 0
vn -1 0 0
vn -1 0 0
vn -1 0 0
vn 1 0 0
vn 1 0 0
vn 1 0 0
vn 1 0 0
vn -0.004135132 -1 1.7881393E-07
vn -0.004135132 -1 1.7881393E-07
vn -0.004135132 -1 1.7881393E-07
vn -0.004135132 -1 1.7881393E-07
vn 0.019119263 -1 0
vn 0.019119263 -1 0
vn 0.019119263 -1 0
vn 0.019119263 -1 0
vn -1 0.002046585 0
vn -1 0.002046585 0
vn -1 0.002046585 0
vn -1 0.002046585 0
vn -1 0.013916016 0
vn -1 0.013916016 0
vn -1 0.013916016 0
vn -1 0.013916016 0
vn -0.006477356 -1 0
vn -0.006477356 -1 0
vn -0.006477356 -1 0
vn -0.006477356 -1 0
vn -0.0057525635 -1 1.7881393E-07
vn -0.0057525635 -1 1.7881393E-07
vn -0.0057525635 -1 1.7881393E-07
vn -0.0057525635 -1 1.7881393E-07
vn -1 -0.0010757446 0
vn -1 -0.0010757446 0
vn -1 -0.0010757446 0
vn -1 -0.0010757446 0
vn -0.003768921 -1 1.7881393E-07
vn -0.003768921 -1 1.7881393E-07
vn -0.003768921 -1 1.7881393E-07
vn -0.003768921 -1 1.7881393E-07
vn 0.0034713745 -1 1.7881393E-07
vn 0.0034713745 -1 1.7881393E-07
vn 0.0034713745 -1 1.7881393E-07
vn 0.0034713745 -1 1.7881393E-07
vn -1 0.00969696 0
vn -1 0.00969696 0
vn -1 0.00969696 0
vn -1 0.00969696 0
vn -0 0 1
vn -0 0 1
vn 1.7881393E-07 0 1
vn -0 -1.1920929E-06 1
vn -0 -1.1920929E-06 1
vn -0 0 1
vn -0 -1.1920929E-06 1
g Rocks_Small_018_0
f 3/3/3 2/2/2 1/1/1
f 5/5/5 4/4/4 1/1/1
f 4/4/4 6/6/6 1/1/1
f 1/1/1 6/6/6 7/7/7
f 8/8/8 6/6/6 4/4/4
f 8/8/8 9/9/9 6/6/6
f 11/11/11 10/10/10 8/8/8
f 8/8/8 12/12/12 11/11/11
f 12/12/12 13/13/13 11/11/11
f 11/11/11 13/13/13 14/14/14
f 14/14/14 15/15/15 11/11/11
f 14/14/14 13/13/13 16/16/16
f 14/14/14 16/16/16 17/17/17
f 13/13/13 18/18/18 16/16/16
f 19/19/19 16/16/16 18/18/18
f 12/12/12 8/8/8 20/20/20
f 12/12/12 20/20/20 21/21/21
f 8/8/8 22/22/22 20/20/20
f 22/22/22 23/23/23 20/20/20
f 24/24/24 22/22/22 8/8/8
f 24/24/24 25/25/25 22/22/22
f 27/27/27 26/26/26 12/12/12
f 18/18/18 26/26/26 28/28/28
f 28/28/28 26/26/26 29/29/29
f 28/28/28 30/30/30 18/18/18
f 31/31/31 18/18/18 30/30/30
f 33/33/33 28/28/28 32/32/32
f 35/35/35 26/26/26 34/34/34
f 36/36/36 26/26/26 35/35/35
f 26/26/26 36/36/36 37/37/37
f 32/32/32 39/39/39 38/38/38
f 13/13/13 39/39/39 32/32/32
f 36/36/36 40/40/40 39/39/39
f 36/36/36 41/41/41 40/40/40
f 42/42/42 41/41/41 36/36/36
f 41/41/41 43/43/43 40/40/40
f 45/45/45 44/44/44 37/37/37
f 43/43/43 46/46/46 45/45/45
f 47/47/47 46/46/46 43/43/43
f 43/43/43 48/48/48 47/47/47
f 49/49/49 46/46/46 47/47/47
f 50/50/50 46/46/46 49/49/49
f 51/51/51 46/46/46 50/50/50
f 52/52/52 49/49/49 47/47/47
f 52/52/52 53/53/53 49/49/49
f 54/54/54 52/52/52 47/47/47
f 55/55/55 54/54/54 47/47/47
f 56/56/56 55/55/55 47/47/47
f 57/57/57 55/55/55 56/56/56
f 54/54/54 55/55/55 58/58/58
f 60/60/60 59/59/59 44/44/44
f 62/62/62 52/52/52 61/61/61
f 52/52/52 63/63/63 61/61/61
f 64/64/64 61/61/61 63/63/63
f 66/66/66 65/65/65 63/63/63
f 68/68/68 67/67/67 60/60/60
f 68/68/68 60/60/60 40/40/40
f 69/69/69 68/68/68 45/45/45
f 71/71/71 54/54/54 70/70/70
f 71/71/71 72/72/72 54/54/54
f 73/73/73 72/72/72 71/71/71
f 74/74/74 73/73/73 71/71/71
f 73/73/73 75/75/75 72/72/72
f 75/75/75 76/76/76 72/72/72
f 73/73/73 77/77/77 75/75/75
f 77/77/77 78/78/78 75/75/75
f 81/81/81 80/80/80 79/79/79
f 79/79/79 83/83/83 82/82/82
f 84/84/84 79/79/79 82/82/82
f 84/84/84 82/82/82 85/85/85
f 88/88/88 87/87/87 86/86/86
f 90/90/90 89/89/89 86/86/86
f 91/91/91 90/90/90 86/86/86
f 91/91/91 86/86/86 92/92/92
f 91/91/91 93/93/93 90/90/90
f 94/94/94 93/93/93 91/91/91
f 96/96/96 95/95/95 93/93/93
f 97/97/97 93/93/93 95/95/95
f 98/98/98 97/97/97 95/95/95
f 98/98/98 99/99/99 97/97/97
f 98/98/98 95/95/95 100/100/100
f 98/98/98 100/100/100 101/101/101
f 102/102/102 100/100/100 95/95/95
f 101/101/101 100/100/100 103/103/103
f 93/93/93 97/97/97 104/104/104
f 104/104/104 97/97/97 105/105/105
f 106/106/106 93/93/93 104/104/104
f 107/107/107 106/106/106 104/104/104
f 106/106/106 108/108/108 93/93/93
f 109/109/109 108/108/108 106/106/106
f 110/110/110 98/98/98 101/101/101
f 101/101/101 111/111/111 110/110/110
f 98/98/98 110/110/110 112/112/112
f 113/113/113 112/112/112 110/110/110
f 110/110/110 114/114/114 113/113/113
f 98/98/98 112/112/112 115/115/115
f 116/116/116 98/98/98 115/115/115
f 116/116/116 115/115/115 117/117/117
f 118/118/118 98/98/98 116/116/116
f 119/119/119 118/118/118 116/116/116
f 98/98/98 118/118/118 120/120/120
f 98/98/98 120/120/120 121/121/121
f 122/122/122 118/118/118 119/119/119
f 122/122/122 123/123/123 118/118/118
f 124/124/124 122/122/122 119/119/119
f 112/112/112 126/126/126 125/125/125
f 128/128/128 127/127/127 119/119/119
f 130/130/130 124/124/124 129/129/129
f 131/131/131 129/129/129 124/124/124
f 131/131/131 124/124/124 132/132/132
f 131/131/131 133/133/133 129/129/129
f 133/133/133 134/134/134 129/129/129
f 135/135/135 134/134/134 133/133/133
f 131/131/131 136/136/136 133/133/133
f 131/131/131 137/137/137 136/136/136
f 134/134/134 138/138/138 129/129/129
f 138/138/138 139/139/139 129/129/129
f 139/139/139 140/140/140 129/129/129
f 139/139/139 141/141/141 140/140/140
f 139/139/139 138/138/138 142/142/142
f 134/134/134 143/143/143 138/138/138
f 138/138/138 143/143/143 144/144/144
f 134/134/134 145/145/145 143/143/143
f 145/145/145 146/146/146 143/143/143
f 147/147/147 145/145/145 134/134/134
f 148/148/148 145/145/145 147/147/147
f 149/149/149 148/148/148 147/147/147
f 151/151/151 147/147/147 150/150/150
f 150/150/150 134/134/134 152/152/152
f 152/152/152 153/153/153 150/150/150
f 134/134/134 154/154/154 152/152/152
f 157/157/157 156/156/156 155/155/155
f 159/159/159 155/155/155 158/158/158
f 155/155/155 160/160/160 158/158/158
f 158/158/158 160/160/160 161/161/161
f 164/164/164 163/163/163 162/162/162
f 167/167/167 166/166/166 165/165/165
f 168/168/168 167/167/167 165/165/165
f 171/171/171 170/170/170 169/169/169
f 172/172/172 171/171/171 169/169/169
f 175/175/175 174/174/174 173/173/173
f 176/176/176 175/175/175 173/173/173
f 179/179/179 178/178/178 177/177/177
f 180/180/180 179/179/179 177/177/177
f 183/183/183 182/182/182 181/181/181
f 184/184/184 183/183/183 181/181/181
f 187/187/187 186/186/186 185/185/185
f 188/188/188 187/187/187 185/185/185
f 191/191/191 190/190/190 189/189/189
f 192/192/192 191/191/191 189/189/189
f 195/195/195 194/194/194 193/193/193
f 196/196/196 195/195/195 193/193/193
f 199/199/199 198/198/198 197/197/197
f 200/200/200 199/199/199 197/197/197
f 203/203/203 202/202/202 201/201/201
f 204/204/204 203/203/203 201/201/201
f 207/207/207 206/206/206 205/205/205
f 208/208/208 207/207/207 205/205/205
f 211/211/211 210/210/210 209/209/209
f 212/212/212 211/211/211 209/209/209
f 215/215/215 214/214/214 213/213/213
f 216/216/216 215/215/215 213/213/213
f 219/219/219 218/218/218 217/217/217
f 220/220/220 219/219/219 217/217/217
f 223/223/223 222/222/222 221/221/221
f 224/224/224 223/223/223 221/221/221
f 227/227/227 226/226/226 225/225/225
f 228/228/228 227/227/227 225/225/225
f 231/231/231 230/230/230 229/229/229
f 232/232/232 231/231/231 229/229/229
f 235/235/235 234/234/234 233/233/233
f 236/236/236 235/235/235 233/233/233
f 239/239/239 238/238/238 237/237/237
f 240/240/240 239/239/239 237/237/237
f 243/243/243 242/242/242 241/241/241
f 244/244/244 243/243/243 241/241/241
f 247/247/247 246/246/246 245/245/245
f 248/248/248 247/247/247 245/245/245
f 251/251/251 250/250/250 249/249/249
f 252/252/252 251/251/251 249/249/249
f 255/255/255 254/254/254 253/253/253
f 256/256/256 255/255/255 253/253/253
f 259/259/259 258/258/258 257/257/257
f 260/260/260 259/259/259 257/257/257
f 263/263/263 262/262/262 261/261/261
f 264/264/264 263/263/263 261/261/261
f 267/267/267 266/266/266 265/265/265
f 268/268/268 267/267/267 265/265/265
f 271/271/271 270/270/270 269/269/269
f 272/272/272 271/271/271 269/269/269
f 275/275/275 274/274/274 273/273/273
f 276/276/276 275/275/275 273/273/273
f 279/279/279 278/278/278 277/277/277
f 280/280/280 279/279/279 277/277/277
f 283/283/283 282/282/282 281/281/281
f 284/284/284 283/283/283 281/281/281
f 287/287/287 286/286/286 285/285/285
f 288/288/288 287/287/287 285/285/285
f 291/291/291 290/290/290 289/289/289
f 292/292/292 291/291/291 289/289/289
f 295/295/295 294/294/294 293/293/293
f 296/296/296 295/295/295 293/293/293
f 299/299/299 298/298/298 297/297/297
f 300/300/300 299/299/299 297/297/297
f 303/303/303 302/302/302 301/301/301
f 304/304/304 303/303/303 301/301/301
f 307/307/307 306/306/306 305/305/305
f 308/308/308 307/307/307 305/305/305
f 311/311/311 310/310/310 309/309/309
f 312/312/312 311/311/311 309/309/309
f 315/315/315 314/314/314 313/313/313
f 316/316/316 315/315/315 313/313/313
f 319/319/319 318/318/318 317/317/317
f 320/320/320 319/319/319 317/317/317
f 323/323/323 322/322/322 321/321/321
f 324/324/324 323/323/323 321/321/321
f 327/327/327 326/326/326 325/325/325
f 328/328/328 327/327/327 325/325/325
f 331/331/331 330/330/330 329/329/329
f 332/332/332 331/331/331 329/329/329
f 335/335/335 334/334/334 333/333/333
f 336/336/336 335/335/335 333/333/333
f 339/339/339 338/338/338 337/337/337
f 340/340/340 339/339/339 337/337/337
f 343/343/343 342/342/342 341/341/341
f 344/344/344 343/343/343 341/341/341
f 347/347/347 346/346/346 345/345/345
f 348/348/348 347/347/347 345/345/345
f 351/351/351 350/350/350 349/349/349
f 352/352/352 351/351/351 349/349/349
f 355/355/355 354/354/354 353/353/353
f 356/356/356 355/355/355 353/353/353
f 359/359/359 358/358/358 357/357/357
f 360/360/360 359/359/359 357/357/357
f 363/363/363 362/362/362 361/361/361
f 364/364/364 363/363/363 361/361/361
f 367/367/367 366/366/366 365/365/365
f 368/368/368 367/367/367 365/365/365
f 371/371/371 370/370/370 369/369/369
f 372/372/372 371/371/371 369/369/369
f 375/375/375 374/374/374 373/373/373
f 376/376/376 375/375/375 373/373/373
f 379/379/379 378/378/378 377/377/377
f 380/380/380 379/379/379 377/377/377
f 383/383/383 382/382/382 381/381/381
f 384/384/384 383/383/383 381/381/381
f 387/387/387 386/386/386 385/385/385
f 388/388/388 387/387/387 385/385/385
f 391/391/391 390/390/390 389/389/389
f 392/392/392 391/391/391 389/389/389
f 395/395/395 394/394/394 393/393/393
f 396/396/396 395/395/395 393/393/393
f 399/399/399 398/398/398 397/397/397
f 400/400/400 399/399/399 397/397/397
f 403/403/403 402/402/402 401/401/401
f 404/404/404 403/403/403 401/401/401
f 407/407/407 406/406/406 405/405/405
f 408/408/408 407/407/407 405/405/405
f 411/411/411 410/410/410 409/409/409
f 412/412/412 411/411/411 409/409/409
f 415/415/415 414/414/414 413/413/413
f 416/416/416 415/415/415 413/413/413
f 419/419/419 418/418/418 417/417/417
f 420/420/420 419/419/419 417/417/417
f 423/423/423 422/422/422 421/421/421
f 424/424/424 423/423/423 421/421/421
f 427/427/427 426/426/426 425/425/425
f 428/428/428 427/427/427 425/425/425
f 431/431/431 430/430/430 429/429/429
f 432/432/432 431/431/431 429/429/429
f 435/435/435 434/434/434 433/433/433
f 436/436/436 435/435/435 433/433/433
f 439/439/439 438/438/438 437/437/437
f 440/440/440 439/439/439 437/437/437
f 443/443/443 442/442/442 441/441/441
f 444/444/444 443/443/443 441/441/441
f 447/447/447 446/446/446 445/445/445
f 448/448/448 447/447/447 445/445/445
f 451/451/451 450/450/450 449/449/449
f 452/452/452 451/451/451 449/449/449
f 454/454/454 453/453/453 132/132/132
f 456/456/456 132/132/132 455/455/455
f 458/458/458 454/454/454 457/457/457
f 459/459/459 457/457/457 456/456/456
