g Rocks_Small_005
v -0.6773535 0.6779608 0.6883024
v -0.634414 0.6774101 0.6883024
v -0.67464834 0.63130635 0.6883024
v -0.6318201 -0.84111756 0.6883029
v -0.67466795 -0.7923584 0.6883029
v -0.71221846 0.62978715 0.6883024
v -0.7095411 -0.79097164 0.6883029
v -0.6746565 -0.8405038 0.6883029
v -0.5274121 -0.88888013 0.688303
v -0.6317463 -0.8900265 0.6883029
v -0.5807404 0.730702 0.6883024
v -0.63443357 0.7298253 0.6883024
v 0.39172813 -0.7848761 0.68830335
v 0.39564452 0.6327248 0.6883028
v 0.5904558 -0.5392718 0.68830335
v -0.5311686 0.7814134 0.6883024
v -0.5807536 0.7811645 0.6883024
v -0.48353347 -1.1305859 0.68830305
v -0.5300781 -1.1305859 0.68830305
v -0.47745904 1.078482 0.6883024
v -0.53107774 1.0786078 0.6883023
v -0.43244138 -1.177876 0.6883031
v -0.48306975 -1.177876 0.6883031
v -0.3799733 1.1213647 0.6883023
v -0.47744328 1.1214076 0.6883023
v -0.3817548 -1.2250688 0.68830305
v -0.43266732 -1.2252121 0.6883031
v 0.34661132 1.4119412 0.6883025
v 0.39564452 1.4119831 0.6883025
v -0.33746472 1.4120252 0.6883022
v -0.38086653 1.4119412 0.6883022
v 0.34661132 1.4500635 0.6883025
v -0.33784777 1.4500635 0.6883022
v 0.34777886 -1.2276129 0.68830353
v 0.39176804 -1.2269497 0.68830353
v -0.2846487 -1.278999 0.68830323
v -0.3821526 -1.278999 0.68830323
v 0.29496115 -1.277208 0.68830353
v 0.34821668 -1.2761416 0.68830353
v 0.24709961 -1.3266617 0.68830353
v 0.29488257 -1.3265119 0.68830353
v -0.23255977 -1.3261315 0.6883033
v -0.28369114 -1.3265244 0.6883033
v 0.19928573 -1.3762457 0.68830353
v 0.24733524 -1.3761727 0.68830353
v -0.18259765 -1.3765066 0.6883033
v -0.23206915 -1.376465 0.6883033
v -0.17993164 -1.4473926 0.68830335
v 0.19805801 -1.4500684 0.68830353
v 0.542896 -0.7412873 0.6883034
v 0.53849214 -0.78431576 0.6883034
v 0.5912057 -0.73951405 0.6883034
v 0.642012 -0.4939324 0.68830335
v 0.6419142 -0.5399873 0.68830335
v 0.64176756 -0.20372377 0.6883033
v 0.71093804 -0.49241614 0.68830335
v 0.71222603 -0.20256528 0.6883033
v 0.5937012 -0.16009277 0.68830323
v 0.64137787 -0.16009279 0.68830323
v 0.54441404 0.5813623 0.6883029
v 0.5937012 0.5813623 0.6883029
v 0.54441404 0.6315633 0.6883029
v -0.3799733 1.1213647 0.6883023
v -0.3799733 1.1213647 -0.68830013
v -0.38086653 1.4119412 -0.68830013
v -0.38086653 1.4119412 0.6883022
v -0.38086653 1.4119412 0.6883022
v -0.38086653 1.4119412 -0.68830013
v -0.33746475 1.4120252 -0.68830013
v -0.33746472 1.4120252 0.6883022
v -0.33746472 1.4120252 0.6883022
v -0.33746475 1.4120252 -0.68830013
v -0.33784774 1.4500635 -0.68830013
v -0.33784777 1.4500635 0.6883022
v -0.33784777 1.4500635 0.6883022
v -0.33784774 1.4500635 -0.68830013
v 0.34661132 1.4500635 -0.6883005
v 0.34661132 1.4500635 0.6883025
v 0.34661132 1.4500635 0.6883025
v 0.34661132 1.4500635 -0.6883005
v 0.34661132 1.4119412 -0.6883005
v 0.34661132 1.4119412 0.6883025
v 0.34661132 1.4119412 0.6883025
v 0.34661132 1.4119412 -0.6883005
v 0.39564452 1.4119831 -0.6883005
v 0.39564452 1.4119831 0.6883025
v 0.39564452 1.4119831 0.6883025
v 0.39564452 1.4119831 -0.6883005
v 0.39564452 0.6327248 -0.6883008
v 0.39564452 0.6327248 0.6883028
v 0.39564452 0.6327248 0.6883028
v 0.39564452 0.6327248 -0.6883008
v 0.54441404 0.6315633 -0.6883008
v 0.54441404 0.6315633 0.6883029
v 0.54441404 0.6315633 0.6883029
v 0.54441404 0.6315633 -0.6883008
v 0.54441404 0.5813623 -0.6883008
v 0.54441404 0.5813623 0.6883029
v 0.54441404 0.5813623 0.6883029
v 0.54441404 0.5813623 -0.6883008
v 0.5937012 0.5813623 -0.6883008
v 0.5937012 0.5813623 0.6883029
v 0.5937012 0.5813623 0.6883029
v 0.5937012 0.5813623 -0.6883008
v 0.5937012 -0.16009277 -0.6883011
v 0.5937012 -0.16009277 0.68830323
v 0.5937012 -0.16009277 0.68830323
v 0.5937012 -0.16009277 -0.6883011
v 0.64137787 -0.16009277 -0.6883011
v 0.64137787 -0.16009279 0.68830323
v 0.64137787 -0.16009279 0.68830323
v 0.64137787 -0.16009277 -0.6883011
v 0.64176756 -0.20372374 -0.6883011
v 0.64176756 -0.20372377 0.6883033
v 0.64176756 -0.20372377 0.6883033
v 0.64176756 -0.20372374 -0.6883011
v 0.71222603 -0.2025653 -0.6883011
v 0.71222603 -0.20256528 0.6883033
v 0.71222603 -0.20256528 0.6883033
v 0.71222603 -0.2025653 -0.6883011
v 0.71093804 -0.49241605 -0.6883012
v 0.71093804 -0.49241614 0.68830335
v 0.71093804 -0.49241614 0.68830335
v 0.71093804 -0.49241605 -0.6883012
v 0.642012 -0.4939325 -0.6883012
v 0.642012 -0.4939324 0.68830335
v 0.642012 -0.4939324 0.68830335
v 0.642012 -0.4939325 -0.6883012
v 0.6419142 -0.5399873 -0.6883012
v 0.6419142 -0.5399873 0.68830335
v 0.6419142 -0.5399873 0.68830335
v 0.6419142 -0.5399873 -0.6883012
v 0.59045583 -0.53927183 -0.6883012
v 0.5904558 -0.5392718 0.68830335
v 0.5904558 -0.5392718 0.68830335
v 0.59045583 -0.53927183 -0.6883012
v 0.5912057 -0.7395142 -0.6883014
v 0.5912057 -0.73951405 0.6883034
v 0.5912057 -0.73951405 0.6883034
v 0.5912057 -0.7395142 -0.6883014
v 0.542896 -0.74128723 -0.6883014
v 0.542896 -0.7412873 0.6883034
v 0.542896 -0.7412873 0.6883034
v 0.542896 -0.74128723 -0.6883014
v 0.53849214 -0.78431576 -0.6883014
v 0.53849214 -0.78431576 0.6883034
v 0.53849214 -0.78431576 0.6883034
v 0.53849214 -0.78431576 -0.6883014
v 0.39172813 -0.7848761 -0.6883012
v 0.39172813 -0.7848761 0.68830335
v 0.39172813 -0.7848761 0.68830335
v 0.39172813 -0.7848761 -0.6883012
v 0.39176804 -1.2269497 -0.6883014
v 0.39176804 -1.2269497 0.68830353
v 0.39176804 -1.2269497 0.68830353
v 0.39176804 -1.2269497 -0.6883014
v 0.34777886 -1.2276129 -0.6883014
v 0.34777886 -1.2276129 0.68830353
v 0.34777886 -1.2276129 0.68830353
v 0.34777886 -1.2276129 -0.6883014
v 0.34821668 -1.2761416 -0.6883014
v 0.34821668 -1.2761416 0.68830353
v 0.34821668 -1.2761416 0.68830353
v 0.34821668 -1.2761416 -0.6883014
v 0.29496115 -1.277208 -0.6883014
v 0.29496115 -1.277208 0.68830353
v 0.29496115 -1.277208 0.68830353
v 0.29496115 -1.277208 -0.6883014
v 0.2948826 -1.3265119 -0.6883014
v 0.29488257 -1.3265119 0.68830353
v 0.29488257 -1.3265119 0.68830353
v 0.2948826 -1.3265119 -0.6883014
v 0.24709961 -1.3266617 -0.6883014
v 0.24709961 -1.3266617 0.68830353
v 0.24709961 -1.3266617 0.68830353
v 0.24709961 -1.3266617 -0.6883014
v 0.24733524 -1.3761724 -0.6883014
v 0.24733524 -1.3761727 0.68830353
v 0.24733524 -1.3761727 0.68830353
v 0.24733524 -1.3761724 -0.6883014
v 0.19928573 -1.3762457 -0.6883014
v 0.19928573 -1.3762457 0.68830353
v 0.19928573 -1.3762457 0.68830353
v 0.19928573 -1.3762457 -0.6883014
v 0.19805801 -1.4500684 -0.6883014
v 0.19805801 -1.4500684 0.68830353
v 0.19805801 -1.4500684 0.68830353
v 0.19805801 -1.4500684 -0.6883014
v -0.17993164 -1.4473926 -0.6883012
v -0.17993164 -1.4473926 0.68830335
v -0.17993164 -1.4473926 0.68830335
v -0.17993164 -1.4473926 -0.6883012
v -0.18259765 -1.3765066 -0.6883011
v -0.18259765 -1.3765066 0.6883033
v -0.18259765 -1.3765066 0.6883033
v -0.18259765 -1.3765066 -0.6883011
v -0.23206916 -1.3764648 -0.6883011
v -0.23206915 -1.376465 0.6883033
v -0.23206915 -1.376465 0.6883033
v -0.23206916 -1.3764648 -0.6883011
v -0.23255977 -1.3261316 -0.6883011
v -0.23255977 -1.3261315 0.6883033
v -0.23255977 -1.3261315 0.6883033
v -0.23255977 -1.3261316 -0.6883011
v -0.28369114 -1.3265244 -0.6883011
v -0.28369114 -1.3265244 0.6883033
v -0.28369114 -1.3265244 0.6883033
v -0.28369114 -1.3265244 -0.6883011
v -0.2846487 -1.278999 -0.6883011
v -0.2846487 -1.278999 0.68830323
v -0.2846487 -1.278999 0.68830323
v -0.2846487 -1.278999 -0.6883011
v -0.38215256 -1.278999 -0.6883011
v -0.3821526 -1.278999 0.68830323
v -0.3821526 -1.278999 0.68830323
v -0.38215256 -1.278999 -0.6883011
v -0.38175476 -1.2250689 -0.6883009
v -0.3817548 -1.2250688 0.68830305
v -0.3817548 -1.2250688 0.68830305
v -0.38175476 -1.2250689 -0.6883009
v -0.43266732 -1.2252121 -0.6883011
v -0.43266732 -1.2252121 0.6883031
v -0.43266732 -1.2252121 0.6883031
v -0.43266732 -1.2252121 -0.6883011
v -0.43244138 -1.177876 -0.6883011
v -0.43244138 -1.177876 0.6883031
v -0.43244138 -1.177876 0.6883031
v -0.43244138 -1.177876 -0.6883011
v -0.48306975 -1.177876 -0.6883011
v -0.48306975 -1.177876 0.6883031
v -0.48306975 -1.177876 0.6883031
v -0.48306975 -1.177876 -0.6883011
v -0.48353347 -1.1305859 -0.6883009
v -0.48353347 -1.1305859 0.68830305
v -0.48353347 -1.1305859 0.68830305
v -0.48353347 -1.1305859 -0.6883009
v -0.5300781 -1.1305859 -0.6883009
v -0.5300781 -1.1305859 0.68830305
v -0.5300781 -1.1305859 0.68830305
v -0.5300781 -1.1305859 -0.6883009
v -0.5274121 -0.88888013 -0.6883008
v -0.5274121 -0.88888013 0.688303
v -0.47744328 1.1214076 0.6883023
v -0.47744322 1.1214076 -0.68830013
v -0.3799733 1.1213647 -0.68830013
v -0.3799733 1.1213647 0.6883023
v -0.47745904 1.078482 0.6883024
v -0.4774591 1.0784819 -0.68830013
v -0.47744322 1.1214076 -0.68830013
v -0.47744328 1.1214076 0.6883023
v -0.53107774 1.0786078 0.6883023
v -0.53107774 1.0786078 -0.68830013
v -0.4774591 1.0784819 -0.68830013
v -0.47745904 1.078482 0.6883024
v -0.5311686 0.7814134 0.6883024
v -0.5311686 0.7814134 -0.68830013
v -0.53107774 1.0786078 -0.68830013
v -0.53107774 1.0786078 0.6883023
v -0.5807536 0.7811645 0.6883024
v -0.5807536 0.7811645 -0.68830013
v -0.5311686 0.7814134 -0.68830013
v -0.5311686 0.7814134 0.6883024
v -0.5807404 0.730702 0.6883024
v -0.5807404 0.730702 -0.68830013
v -0.5807536 0.7811645 -0.68830013
v -0.5807536 0.7811645 0.6883024
v -0.63443357 0.7298253 0.6883024
v -0.63443357 0.7298253 -0.68830013
v -0.5807404 0.730702 -0.68830013
v -0.5807404 0.730702 0.6883024
v -0.634414 0.6774101 0.6883024
v -0.6344141 0.6774101 -0.68830013
v -0.63443357 0.7298253 -0.68830013
v -0.63443357 0.7298253 0.6883024
v -0.6773535 0.6779608 0.6883024
v -0.6773535 0.6779608 -0.68830013
v -0.6344141 0.6774101 -0.68830013
v -0.634414 0.6774101 0.6883024
v -0.67464834 0.63130635 0.6883024
v -0.67464834 0.63130635 -0.68830013
v -0.6773535 0.6779608 -0.68830013
v -0.6773535 0.6779608 0.6883024
v -0.71221846 0.62978715 0.6883024
v -0.71221846 0.62978715 -0.68830013
v -0.67464834 0.63130635 -0.68830013
v -0.67464834 0.63130635 0.6883024
v -0.7095411 -0.79097164 0.6883029
v -0.7095411 -0.79097164 -0.6883008
v -0.71221846 0.62978715 -0.68830013
v -0.71221846 0.62978715 0.6883024
v -0.67466795 -0.7923584 0.6883029
v -0.67466795 -0.7923584 -0.6883008
v -0.7095411 -0.79097164 -0.6883008
v -0.7095411 -0.79097164 0.6883029
v -0.6746565 -0.8405038 0.6883029
v -0.6746565 -0.8405038 -0.6883008
v -0.67466795 -0.7923584 -0.6883008
v -0.67466795 -0.7923584 0.6883029
v -0.5274121 -0.88888013 0.688303
v -0.5274121 -0.88888013 -0.6883008
v -0.63174635 -0.8900265 -0.6883008
v -0.6317463 -0.8900265 0.6883029
v -0.6317463 -0.8900265 0.6883029
v -0.63174635 -0.8900265 -0.6883008
v -0.6318201 -0.84111756 -0.6883008
v -0.6318201 -0.84111756 0.6883029
v -0.6318201 -0.84111756 0.6883029
v -0.6318201 -0.84111756 -0.6883008
v -0.6746565 -0.8405038 -0.6883008
v -0.6746565 -0.8405038 0.6883029
v -0.6773535 0.6779608 -0.68830013
v -0.67464834 0.63130635 -0.68830013
v -0.6344141 0.6774101 -0.68830013
v -0.6318201 -0.84111756 -0.6883008
v -0.67466795 -0.7923584 -0.6883008
v -0.71221846 0.62978715 -0.68830013
v -0.7095411 -0.79097164 -0.6883008
v -0.6746565 -0.8405038 -0.6883008
v -0.5274121 -0.88888013 -0.6883008
v -0.63174635 -0.8900265 -0.6883008
v -0.5807404 0.730702 -0.68830013
v -0.63443357 0.7298253 -0.68830013
v 0.39172813 -0.7848761 -0.6883012
v 0.39564452 0.6327248 -0.6883008
v 0.59045583 -0.53927183 -0.6883012
v -0.5311686 0.7814134 -0.68830013
v -0.5807536 0.7811645 -0.68830013
v -0.48353347 -1.1305859 -0.6883009
v -0.5300781 -1.1305859 -0.6883009
v -0.4774591 1.0784819 -0.68830013
v -0.53107774 1.0786078 -0.68830013
v -0.43244138 -1.177876 -0.6883011
v -0.48306975 -1.177876 -0.6883011
v -0.3799733 1.1213647 -0.68830013
v -0.47744322 1.1214076 -0.68830013
v -0.38175476 -1.2250689 -0.6883009
v -0.43266732 -1.2252121 -0.6883011
v 0.34661132 1.4119412 -0.6883005
v 0.39564452 1.4119831 -0.6883005
v -0.33746475 1.4120252 -0.68830013
v -0.38086653 1.4119412 -0.68830013
v 0.34661132 1.4500635 -0.6883005
v -0.33784774 1.4500635 -0.68830013
v 0.34777886 -1.2276129 -0.6883014
v 0.39176804 -1.2269497 -0.6883014
v -0.2846487 -1.278999 -0.6883011
v -0.38215256 -1.278999 -0.6883011
v 0.29496115 -1.277208 -0.6883014
v 0.34821668 -1.2761416 -0.6883014
v 0.24709961 -1.3266617 -0.6883014
v 0.2948826 -1.3265119 -0.6883014
v -0.23255977 -1.3261316 -0.6883011
v -0.28369114 -1.3265244 -0.6883011
v 0.19928573 -1.3762457 -0.6883014
v 0.24733524 -1.3761724 -0.6883014
v -0.18259765 -1.3765066 -0.6883011
v -0.23206916 -1.3764648 -0.6883011
v -0.17993164 -1.4473926 -0.6883012
v 0.19805801 -1.4500684 -0.6883014
v 0.53849214 -0.78431576 -0.6883014
v 0.542896 -0.74128723 -0.6883014
v 0.5912057 -0.7395142 -0.6883014
v 0.6419142 -0.5399873 -0.6883012
v 0.642012 -0.4939325 -0.6883012
v 0.64176756 -0.20372374 -0.6883011
v 0.71093804 -0.49241605 -0.6883012
v 0.71222603 -0.2025653 -0.6883011
v 0.5937012 -0.16009277 -0.6883011
v 0.64137787 -0.16009277 -0.6883011
v 0.54441404 0.5813623 -0.6883008
v 0.5937012 0.5813623 -0.6883008
v 0.54441404 0.6315633 -0.6883008
vt 0.39160156 0.6088867
vt 0.3984375 0.6088867
vt 0.39208984 0.6015625
vt 0.39868164 0.36767578
vt 0.3918457 0.37548828
vt 0.38623047 0.6010742
vt 0.3864746 0.37573242
vt 0.3918457 0.36791992
vt 0.4152832 0.36010742
vt 0.39868164 0.35986328
vt 0.40698242 0.6171875
vt 0.3984375 0.6171875
vt 0.56103516 0.37646484
vt 0.5620117 0.6015625
vt 0.59277344 0.41552734
vt 0.41503906 0.6254883
vt 0.40698242 0.625
vt 0.42236328 0.32177734
vt 0.41479492 0.32177734
vt 0.42358398 0.6723633
vt 0.41503906 0.6723633
vt 0.43041992 0.31420898
vt 0.42236328 0.31420898
vt 0.43896484 0.6791992
vt 0.42358398 0.6791992
vt 0.43847656 0.30737305
vt 0.43041992 0.30737305
vt 0.5541992 0.72509766
vt 0.5620117 0.72509766
vt 0.44580078 0.72558594
vt 0.43896484 0.72509766
vt 0.5541992 0.7314453
vt 0.44580078 0.7314453
vt 0.5541992 0.30541992
vt 0.56103516 0.3059082
vt 0.45385742 0.2980957
vt 0.43847656 0.2980957
vt 0.54589844 0.29833984
vt 0.5541992 0.29858398
vt 0.53808594 0.29052734
vt 0.54589844 0.29052734
vt 0.4621582 0.29077148
vt 0.45410156 0.29052734
vt 0.5307617 0.28271484
vt 0.53808594 0.28271484
vt 0.4699707 0.28271484
vt 0.4621582 0.28271484
vt 0.47045898 0.27148438
vt 0.53027344 0.2709961
vt 0.5854492 0.38354492
vt 0.58447266 0.37670898
vt 0.59277344 0.38378906
vt 0.6010742 0.42260742
vt 0.6010742 0.4152832
vt 0.6010742 0.46875
vt 0.6118164 0.42285156
vt 0.6123047 0.46899414
vt 0.5932617 0.47558594
vt 0.6010742 0.47558594
vt 0.5854492 0.5932617
vt 0.5932617 0.5932617
vt 0.5854492 0.6015625
vt 0.3474121 0.7324219
vt 0.12878418 0.7324219
vt 0.12878418 0.7788086
vt 0.3474121 0.7788086
vt 0.5673828 0.9746094
vt 0.5673828 0.75634766
vt 0.5605469 0.75634766
vt 0.5605469 0.9746094
vt 0.5605469 0.9746094
vt 0.5605469 0.75634766
vt 0.5541992 0.75634766
vt 0.5541992 0.9746094
vt 0.5541992 0.9746094
vt 0.5541992 0.75634766
vt 0.44555664 0.75634766
vt 0.44555664 0.9746094
vt 0.44555664 0.9746094
vt 0.44555664 0.75634766
vt 0.43945312 0.75634766
vt 0.43945312 0.9746094
vt 0.43945312 0.9746094
vt 0.43945312 0.75634766
vt 0.43164062 0.75634766
vt 0.43164062 0.9746094
vt 0.64404297 0.7651367
vt 0.86279297 0.7651367
vt 0.86279297 0.64160156
vt 0.64404297 0.64160156
vt 0.64404297 0.64160156
vt 0.86279297 0.64160156
vt 0.86279297 0.6176758
vt 0.64404297 0.6176758
vt 0.64404297 0.6176758
vt 0.86279297 0.6176758
vt 0.86279297 0.6098633
vt 0.64404297 0.6098633
vt 0.64404297 0.6098633
vt 0.86279297 0.6098633
vt 0.86279297 0.6020508
vt 0.64404297 0.6020508
vt 0.64404297 0.6020508
vt 0.86279297 0.6020508
vt 0.86279297 0.48413086
vt 0.64404297 0.48413086
vt 0.64404297 0.48413086
vt 0.86279297 0.48413086
vt 0.86279297 0.4765625
vt 0.64404297 0.4765625
vt 0.64404297 0.4765625
vt 0.86279297 0.4765625
vt 0.86279297 0.46972656
vt 0.64404297 0.46972656
vt 0.64404297 0.46972656
vt 0.86279297 0.46972656
vt 0.86279297 0.4584961
vt 0.64404297 0.4584961
vt 0.64404297 0.4584961
vt 0.86279297 0.4584961
vt 0.86279297 0.41259766
vt 0.64404297 0.41259766
vt 0.64404297 0.41259766
vt 0.86279297 0.41259766
vt 0.86279297 0.40161133
vt 0.64404297 0.40161133
vt 0.64404297 0.40161133
vt 0.86279297 0.40161133
vt 0.86279297 0.3942871
vt 0.64404297 0.3942871
vt 0.64404297 0.3942871
vt 0.86279297 0.3942871
vt 0.86279297 0.38598633
vt 0.64404297 0.38598633
vt 0.64404297 0.38598633
vt 0.86279297 0.38598633
vt 0.86279297 0.35424805
vt 0.64404297 0.35424805
vt 0.64404297 0.35424805
vt 0.86279297 0.35424805
vt 0.86279297 0.3466797
vt 0.64404297 0.3466797
vt 0.64404297 0.3466797
vt 0.86279297 0.3466797
vt 0.86279297 0.3395996
vt 0.64404297 0.3395996
vt 0.64404297 0.3395996
vt 0.86279297 0.3395996
vt 0.86279297 0.31640625
vt 0.64404297 0.31640625
vt 0.64404297 0.31640625
vt 0.86279297 0.31640625
vt 0.86279297 0.24621582
vt 0.64404297 0.24621582
vt 0.5966797 0.24401855
vt 0.5966797 0.025421143
vt 0.58935547 0.025421143
vt 0.58935547 0.24401855
vt 0.58935547 0.24401855
vt 0.58935547 0.025421143
vt 0.58203125 0.025421143
vt 0.58203125 0.24401855
vt 0.58203125 0.24401855
vt 0.58203125 0.025421143
vt 0.5732422 0.025421143
vt 0.5732422 0.24401855
vt 0.5732422 0.24401855
vt 0.5732422 0.025421143
vt 0.5654297 0.025421143
vt 0.5654297 0.24401855
vt 0.5654297 0.24401855
vt 0.5654297 0.025421143
vt 0.55810547 0.025421143
vt 0.55810547 0.24401855
vt 0.55810547 0.24401855
vt 0.55810547 0.025421143
vt 0.55029297 0.025421143
vt 0.55029297 0.24401855
vt 0.55029297 0.24401855
vt 0.55029297 0.025421143
vt 0.54248047 0.025421143
vt 0.54248047 0.24401855
vt 0.54248047 0.24401855
vt 0.54248047 0.025421143
vt 0.5307617 0.025421143
vt 0.5307617 0.24401855
vt 0.5307617 0.24401855
vt 0.5307617 0.025421143
vt 0.47070312 0.025421143
vt 0.47070312 0.24401855
vt 0.47070312 0.24401855
vt 0.47070312 0.025421143
vt 0.45947266 0.025421143
vt 0.45947266 0.24401855
vt 0.45947266 0.24401855
vt 0.45947266 0.025421143
vt 0.45166016 0.025421143
vt 0.45166016 0.24401855
vt 0.45166016 0.24401855
vt 0.45166016 0.025421143
vt 0.44360352 0.025421143
vt 0.44360352 0.24401855
vt 0.44360352 0.24401855
vt 0.44360352 0.025421143
vt 0.43554688 0.025421143
vt 0.43554688 0.24401855
vt 0.43554688 0.24401855
vt 0.43554688 0.025421143
vt 0.42797852 0.025421143
vt 0.42797852 0.24401855
vt 0.42797852 0.24401855
vt 0.42797852 0.025421143
vt 0.41259766 0.025421143
vt 0.41259766 0.24401855
vt 0.41259766 0.24401855
vt 0.41259766 0.025421143
vt 0.40405273 0.025421143
vt 0.40405273 0.24401855
vt 0.40405273 0.24401855
vt 0.40405273 0.025421143
vt 0.3959961 0.025421143
vt 0.3959961 0.24401855
vt 0.3959961 0.24401855
vt 0.3959961 0.025421143
vt 0.38842773 0.025421143
vt 0.38842773 0.24401855
vt 0.38842773 0.24401855
vt 0.38842773 0.025421143
vt 0.3803711 0.025421143
vt 0.3803711 0.24401855
vt 0.3803711 0.24401855
vt 0.3803711 0.025421143
vt 0.37280273 0.025421143
vt 0.37280273 0.24401855
vt 0.37280273 0.24401855
vt 0.37280273 0.025421143
vt 0.36547852 0.025421143
vt 0.36547852 0.24401855
vt 0.3474121 0.2932129
vt 0.12878418 0.2932129
vt 0.12878418 0.33154297
vt 0.3474121 0.33154297
vt 0.3474121 0.7167969
vt 0.12878418 0.7167969
vt 0.12878418 0.7324219
vt 0.3474121 0.7324219
vt 0.3474121 0.70996094
vt 0.12878418 0.70996094
vt 0.12878418 0.7167969
vt 0.3474121 0.7167969
vt 0.3474121 0.70166016
vt 0.12878418 0.70166016
vt 0.12878418 0.70996094
vt 0.3474121 0.70996094
vt 0.3474121 0.6542969
vt 0.12878418 0.6542969
vt 0.12878418 0.70166016
vt 0.3474121 0.70166016
vt 0.3474121 0.6464844
vt 0.12878418 0.6464844
vt 0.12878418 0.6542969
vt 0.3474121 0.6542969
vt 0.3474121 0.6386719
vt 0.12878418 0.6386719
vt 0.12878418 0.6464844
vt 0.3474121 0.6464844
vt 0.3474121 0.6298828
vt 0.12878418 0.6298828
vt 0.12878418 0.6386719
vt 0.3474121 0.6386719
vt 0.3474121 0.62158203
vt 0.12878418 0.62158203
vt 0.12878418 0.6298828
vt 0.3474121 0.6298828
vt 0.3474121 0.6147461
vt 0.12878418 0.6147461
vt 0.12878418 0.62158203
vt 0.3474121 0.62158203
vt 0.3474121 0.6074219
vt 0.12878418 0.6074219
vt 0.12878418 0.6147461
vt 0.3474121 0.6147461
vt 0.3474121 0.6015625
vt 0.12878418 0.6015625
vt 0.12878418 0.6074219
vt 0.3474121 0.6074219
vt 0.3474121 0.37597656
vt 0.12878418 0.37597656
vt 0.12878418 0.6015625
vt 0.3474121 0.6015625
vt 0.3474121 0.37036133
vt 0.12878418 0.37036133
vt 0.12878418 0.37597656
vt 0.3474121 0.37597656
vt 0.3474121 0.36279297
vt 0.12878418 0.36279297
vt 0.12878418 0.37036133
vt 0.3474121 0.37036133
vt 0.3474121 0.33154297
vt 0.12878418 0.33154297
vt 0.12878418 0.34814453
vt 0.3474121 0.34814453
vt 0.3474121 0.34814453
vt 0.12878418 0.34814453
vt 0.12878418 0.35595703
vt 0.3474121 0.35595703
vt 0.3474121 0.35595703
vt 0.12878418 0.35595703
vt 0.12878418 0.36279297
vt 0.3474121 0.36279297
vt 0.39160156 0.6088867
vt 0.39208984 0.6015625
vt 0.3984375 0.6088867
vt 0.39868164 0.36767578
vt 0.3918457 0.37548828
vt 0.38623047 0.6010742
vt 0.3864746 0.37573242
vt 0.3918457 0.36791992
vt 0.4152832 0.36010742
vt 0.39868164 0.35986328
vt 0.40698242 0.6171875
vt 0.3984375 0.6171875
vt 0.56103516 0.37646484
vt 0.5620117 0.6015625
vt 0.59277344 0.41552734
vt 0.41503906 0.6254883
vt 0.40698242 0.625
vt 0.42236328 0.32177734
vt 0.41479492 0.32177734
vt 0.42358398 0.6723633
vt 0.41503906 0.6723633
vt 0.43041992 0.31420898
vt 0.42236328 0.31420898
vt 0.43896484 0.6791992
vt 0.42358398 0.6791992
vt 0.43847656 0.30737305
vt 0.43041992 0.30737305
vt 0.5541992 0.72509766
vt 0.5620117 0.72509766
vt 0.44580078 0.72558594
vt 0.43896484 0.72509766
vt 0.5541992 0.7314453
vt 0.44580078 0.7314453
vt 0.5541992 0.30541992
vt 0.56103516 0.3059082
vt 0.45385742 0.2980957
vt 0.43847656 0.2980957
vt 0.54589844 0.29833984
vt 0.5541992 0.29858398
vt 0.53808594 0.29052734
vt 0.54589844 0.29052734
vt 0.4621582 0.29077148
vt 0.45410156 0.29052734
vt 0.5307617 0.28271484
vt 0.53808594 0.28271484
vt 0.4699707 0.28271484
vt 0.4621582 0.28271484
vt 0.47045898 0.27148438
vt 0.53027344 0.2709961
vt 0.58447266 0.37670898
vt 0.5854492 0.38354492
vt 0.59277344 0.38378906
vt 0.6010742 0.4152832
vt 0.6010742 0.42260742
vt 0.6010742 0.46875
vt 0.6118164 0.42285156
vt 0.6123047 0.46899414
vt 0.5932617 0.47558594
vt 0.6010742 0.47558594
vt 0.5854492 0.5932617
vt 0.5932617 0.5932617
vt 0.5854492 0.6015625
vn -0 0 1
vn -2.3841858E-07 2.3841858E-07 1
vn -1.7881393E-07 2.9802322E-07 1
vn -3.5762787E-07 1.7881393E-07 1
vn 2.3841858E-07 2.9802322E-07 1
vn -0 3.5762787E-07 1
vn -0 3.5762787E-07 1
vn -0 0 1
vn -4.7683716E-07 2.9802322E-07 1
vn -7.1525574E-07 0 1
vn -2.9802322E-07 2.3841858E-07 1
vn -0 0 1
vn -4.7683716E-07 3.5762787E-07 1
vn -4.172325E-07 3.5762787E-07 1
vn -3.5762787E-07 2.9802322E-07 1
vn -4.172325E-07 2.3841858E-07 1
vn -0 0 1
vn -2.9802322E-07 6.556511E-07 1
vn -0 2.9802322E-07 1
vn -5.364418E-07 7.748604E-07 1
vn -1.4305115E-06 2.3841858E-07 1
vn -0 2.9802322E-07 1
vn -0 1.6093254E-06 1
vn -1.1920929E-07 9.536743E-07 1
vn -0 1.7881393E-06 1
vn 2.3841858E-07 3.5762787E-07 1
vn 1.4901161E-06 0 1
vn -2.9802322E-07 2.3841858E-07 1
vn -0 4.172325E-07 1
vn -2.9802322E-07 1.7881393E-07 1
vn -0 2.3841858E-07 1
vn -4.172325E-07 0 1
vn -4.172325E-07 0 1
vn -2.9802322E-07 3.5762787E-07 1
vn -0 3.5762787E-07 1
vn -4.172325E-07 1.66893E-06 1
vn -0 2.8014183E-06 1
vn -3.5762787E-07 3.5762787E-07 1
vn -0 0 1
vn -3.5762787E-07 3.5762787E-07 1
vn -0 0 1
vn -3.5762787E-07 7.1525574E-07 1
vn -0 1.6093254E-06 1
vn -3.5762787E-07 2.3841858E-07 1
vn -0 0 1
vn -4.7683716E-07 0 1
vn -0 0 1
vn -5.9604645E-07 9.536743E-07 1
vn -4.172325E-07 0 1
vn -4.172325E-07 3.5762787E-07 1
vn -5.364418E-07 0 1
vn -0 3.5762787E-07 1
vn -1.1920929E-07 2.3841858E-07 1
vn -0 0 1
vn -5.364418E-07 5.9604645E-07 1
vn -0 2.3841858E-07 1
vn -0 2.3841858E-07 1
vn -4.172325E-07 5.9604645E-07 1
vn -0 1.7285347E-06 1
vn -2.9802322E-07 2.9802322E-07 1
vn -0 4.172325E-07 1
vn -5.364418E-07 0 1
vn -1 -0.003074646 0
vn -1 -0.003074646 0
vn -1 -0.003074646 0
vn -1 -0.003074646 0
vn -0.0019369125 1 0
vn -0.0019369125 1 0
vn -0.0019369125 1 0
vn -0.0019369125 1 0
vn -1 -0.010070801 0
vn -1 -0.010070801 0
vn -1 -0.010070801 0
vn -1 -0.010070801 0
vn -0 1 0
vn -0 1 0
vn -0 1 0
vn -0 1 0
vn 1 0 0
vn 1 0 0
vn 1 0 0
vn 1 0 0
vn -0.0008559227 1 0
vn -0.0008559227 1 0
vn -0.0008559227 1 0
vn -0.0008559227 1 0
vn 1 0 0
vn 1 0 0
vn 1 0 0
vn 1 0 0
vn 0.0078086853 1 0
vn 0.0078086853 1 0
vn 0.0078086853 1 0
vn 0.0078086853 1 0
vn 1 0 0
vn 1 0 0
vn 1 0 0
vn 1 0 0
vn -0 1 0
vn -0 1 0
vn -0 1 0
vn -0 1 0
vn 1 0 0
vn 1 0 0
vn 1 0 0
vn 1 0 0
vn 1.7881393E-07 1 0
vn 1.7881393E-07 1 0
vn 1.7881393E-07 1 0
vn 1.7881393E-07 1 0
vn 1 0.008934021 0
vn 1 0.008934021 0
vn 1 0.008934021 0
vn 1 0.008934021 0
vn -0.016433716 1 0
vn -0.016433716 1 0
vn -0.016433716 1 0
vn -0.016433716 1 0
vn 1 -0.0044441223 0
vn 1 -0.0044441223 0
vn 1 -0.0044441223 0
vn 1 -0.0044441223 0
vn 0.021987915 -1 0
vn 0.021987915 -1 0
vn 0.021987915 -1 0
vn 0.021987915 -1 0
vn 1 -0.002122879 0
vn 1 -0.002122879 0
vn 1 -0.002122879 0
vn 1 -0.002122879 0
vn -0.013900757 -1 0
vn -0.013900757 -1 0
vn -0.013900757 -1 0
vn -0.013900757 -1 0
vn 1 0.0037460327 0
vn 1 0.0037460327 0
vn 1 0.0037460327 0
vn 1 0.0037460327 0
vn 0.03668213 -0.9995117 0
vn 0.03668213 -0.9995117 0
vn 0.03668213 -0.9995117 0
vn 0.03668213 -0.9995117 0
vn 0.9946289 -0.10180664 0
vn 0.9946289 -0.10180664 0
vn 0.9946289 -0.10180664 0
vn 0.9946289 -0.10180664 0
vn 0.003818512 -1 0
vn 0.003818512 -1 0
vn 0.003818512 -1 0
vn 0.003818512 -1 0
vn 1 9.024143E-05 0
vn 1 9.024143E-05 0
vn 1 9.024143E-05 0
vn 1 9.024143E-05 0
vn 0.015075684 -1 0
vn 0.015075684 -1 0
vn 0.015075684 -1 0
vn 0.015075684 -1 0
vn 1 0.009025574 0
vn 1 0.009025574 0
vn 1 0.009025574 0
vn 1 0.009025574 0
vn 0.020019531 -1 0
vn 0.020019531 -1 0
vn 0.020019531 -1 0
vn 0.020019531 -1 0
vn 1 -0.0015935898 0
vn 1 -0.0015935898 0
vn 1 -0.0015935898 0
vn 1 -0.0015935898 0
vn 0.0031356812 -1 0
vn 0.0031356812 -1 0
vn 0.0031356812 -1 0
vn 0.0031356812 -1 0
vn 1 0.004760742 0
vn 1 0.004760742 0
vn 1 0.004760742 0
vn 1 0.004760742 0
vn 0.0015230179 -1 0
vn 0.0015230179 -1 0
vn 0.0015230179 -1 0
vn 0.0015230179 -1 0
vn 1 -0.01663208 0
vn 1 -0.01663208 0
vn 1 -0.01663208 0
vn 1 -0.01663208 0
vn -0.007080078 -1 0
vn -0.007080078 -1 0
vn -0.007080078 -1 0
vn -0.007080078 -1 0
vn -0.9995117 -0.037597656 0
vn -0.9995117 -0.037597656 0
vn -0.9995117 -0.037597656 0
vn -0.9995117 -0.037597656 0
vn -0.00084352493 -1 0
vn -0.00084352493 -1 0
vn -0.00084352493 -1 0
vn -0.00084352493 -1 0
vn -1 -0.009750366 0
vn -1 -0.009750366 0
vn -1 -0.009750366 0
vn -1 -0.009750366 0
vn 0.0076828003 -1 0
vn 0.0076828003 -1 0
vn 0.0076828003 -1 0
vn 0.0076828003 -1 0
vn -1 -0.020141602 0
vn -1 -0.020141602 0
vn -1 -0.020141602 0
vn -1 -0.020141602 0
vn -0 -1 0
vn -0 -1 0
vn -0 -1 0
vn -0 -1 0
vn -1 0.0073776245 0
vn -1 0.0073776245 0
vn -1 0.0073776245 0
vn -1 0.0073776245 0
vn 0.002811432 -1 0
vn 0.002811432 -1 0
vn 0.002811432 -1 0
vn 0.002811432 -1 0
vn -1 0.0047721863 0
vn -1 0.0047721863 0
vn -1 0.0047721863 0
vn -1 0.0047721863 0
vn -0 -1 0
vn -0 -1 0
vn -0 -1 0
vn -0 -1 0
vn -1 -0.009803772 0
vn -1 -0.009803772 0
vn -1 -0.009803772 0
vn -1 -0.009803772 0
vn -0 -1 0
vn -0 -1 0
vn -0 -1 0
vn -0 -1 0
vn -1 0.0110321045 0
vn -1 0.0110321045 0
vn -1 0.0110321045 0
vn -1 0.0110321045 0
vn 0.00043988228 1 0
vn 0.00043988228 1 0
vn 0.00043988228 1 0
vn 0.00043988228 1 0
vn -1 0.00036883354 0
vn -1 0.00036883354 0
vn -1 0.00036883354 0
vn -1 0.00036883354 0
vn 0.0023460388 1 0
vn 0.0023460388 1 0
vn 0.0023460388 1 0
vn 0.0023460388 1 0
vn -1 0.00030565262 0
vn -1 0.00030565262 0
vn -1 0.00030565262 0
vn -1 0.00030565262 0
vn -0.0050201416 1 0
vn -0.0050201416 1 0
vn -0.0050201416 1 0
vn -0.0050201416 1 0
vn -1 -0.00026154518 0
vn -1 -0.00026154518 0
vn -1 -0.00026154518 0
vn -1 -0.00026154518 0
vn -0.016326904 1 0
vn -0.016326904 1 0
vn -0.016326904 1 0
vn -0.016326904 1 0
vn -1 -0.00037264824 0
vn -1 -0.00037264824 0
vn -1 -0.00037264824 0
vn -1 -0.00037264824 0
vn 0.012825012 1 0
vn 0.012825012 1 0
vn 0.012825012 1 0
vn 0.012825012 1 0
vn -0.99853516 -0.057891846 0
vn -0.99853516 -0.057891846 0
vn -0.99853516 -0.057891846 0
vn -0.99853516 -0.057891846 0
vn -0.040405273 0.99902344 0
vn -0.040405273 0.99902344 0
vn -0.040405273 0.99902344 0
vn -0.040405273 0.99902344 0
vn -1 -0.0018844604 0
vn -1 -0.0018844604 0
vn -1 -0.0018844604 0
vn -1 -0.0018844604 0
vn -0.039733887 -0.99902344 0
vn -0.039733887 -0.99902344 0
vn -0.039733887 -0.99902344 0
vn -0.039733887 -0.99902344 0
vn -1 -0.00023770332 0
vn -1 -0.00023770332 0
vn -1 -0.00023770332 0
vn -1 -0.00023770332 0
vn 0.010986328 -1 0
vn 0.010986328 -1 0
vn 0.010986328 -1 0
vn 0.010986328 -1 0
vn -1 -0.0015077591 0
vn -1 -0.0015077591 0
vn -1 -0.0015077591 0
vn -1 -0.0015077591 0
vn -0.014328003 -1 0
vn -0.014328003 -1 0
vn -0.014328003 -1 0
vn -0.014328003 -1 0
vn -0 0 -1
vn -2.3841858E-07 3.5762787E-07 -1
vn -2.3841858E-07 2.3841858E-07 -1
vn 1.1920929E-07 2.3841858E-07 -1
vn 2.3841858E-07 3.5762787E-07 -1
vn -0 4.172325E-07 -1
vn -0 4.172325E-07 -1
vn -0 0 -1
vn -2.9802322E-07 4.172325E-07 -1
vn -0 0 -1
vn -3.5762787E-07 2.9802322E-07 -1
vn -0 0 -1
vn -6.556511E-07 4.172325E-07 -1
vn -3.5762787E-07 3.5762787E-07 -1
vn -3.5762787E-07 4.172325E-07 -1
vn -4.7683716E-07 2.9802322E-07 -1
vn -0 0 -1
vn -4.172325E-07 1.3709068E-06 -1
vn -0 6.556511E-07 -1
vn -2.3841858E-07 1.7881393E-07 -1
vn -0 0 -1
vn 2.9802322E-07 7.748604E-07 -1
vn -0 3.2186508E-06 -1
vn -3.5762787E-07 4.172325E-07 -1
vn -0 0 -1
vn 7.1525574E-07 0 -1
vn 2.9802322E-06 0 -1
vn -3.5762787E-07 2.3841858E-07 -1
vn -0 4.172325E-07 -1
vn -2.9802322E-07 0 -1
vn -0 0 -1
vn -4.172325E-07 0 -1
vn -4.172325E-07 0 -1
vn -2.9802322E-07 3.5762787E-07 -1
vn -0 3.5762787E-07 -1
vn -4.172325E-07 1.1324883E-06 -1
vn -0 2.8014183E-06 -1
vn -3.5762787E-07 3.5762787E-07 -1
vn -0 0 -1
vn -3.5762787E-07 3.5762787E-07 -1
vn -0 0 -1
vn -4.7683716E-07 -4.7683716E-07 -1
vn -0 0 -1
vn -4.7683716E-07 3.5762787E-07 -1
vn -0 0 -1
vn -6.556511E-07 2.9802322E-07 -1
vn -0 0 -1
vn -7.748604E-07 1.847744E-06 -1
vn -4.172325E-07 0 -1
vn -1.013279E-06 1.1920929E-07 -1
vn -8.940697E-07 7.1525574E-07 -1
vn -0 7.748604E-07 -1
vn -0 0 -1
vn -2.3841858E-07 4.172325E-07 -1
vn 1.1920929E-07 3.5762787E-07 -1
vn -0 5.364418E-07 -1
vn -0 5.364418E-07 -1
vn 1.1920929E-07 3.5762787E-07 -1
vn -0 0 -1
vn -0 2.9802322E-07 -1
vn -0 4.172325E-07 -1
vn -0 0 -1
g Rocks_Small_005_0
f 3/3/3 2/2/2 1/1/1
f 4/4/4 2/2/2 3/3/3
f 5/5/5 4/4/4 3/3/3
f 6/6/6 5/5/5 3/3/3
f 7/7/7 5/5/5 6/6/6
f 8/8/8 4/4/4 5/5/5
f 2/2/2 4/4/4 9/9/9
f 9/9/9 4/4/4 10/10/10
f 11/11/11 2/2/2 9/9/9
f 12/12/12 2/2/2 11/11/11
f 13/13/13 11/11/11 9/9/9
f 14/14/14 11/11/11 13/13/13
f 15/15/15 14/14/14 13/13/13
f 16/16/16 11/11/11 14/14/14
f 17/17/17 11/11/11 16/16/16
f 18/18/18 13/13/13 9/9/9
f 19/19/19 18/18/18 9/9/9
f 20/20/20 16/16/16 14/14/14
f 21/21/21 16/16/16 20/20/20
f 22/22/22 13/13/13 18/18/18
f 23/23/23 22/22/22 18/18/18
f 24/24/24 20/20/20 14/14/14
f 25/25/25 20/20/20 24/24/24
f 26/26/26 13/13/13 22/22/22
f 27/27/27 26/26/26 22/22/22
f 28/28/28 24/24/24 14/14/14
f 29/29/29 28/28/28 14/14/14
f 30/30/30 24/24/24 28/28/28
f 31/31/31 24/24/24 30/30/30
f 32/32/32 30/30/30 28/28/28
f 33/33/33 30/30/30 32/32/32
f 34/34/34 13/13/13 26/26/26
f 35/35/35 13/13/13 34/34/34
f 36/36/36 34/34/34 26/26/26
f 37/37/37 36/36/36 26/26/26
f 38/38/38 34/34/34 36/36/36
f 39/39/39 34/34/34 38/38/38
f 40/40/40 38/38/38 36/36/36
f 41/41/41 38/38/38 40/40/40
f 42/42/42 40/40/40 36/36/36
f 43/43/43 42/42/42 36/36/36
f 44/44/44 40/40/40 42/42/42
f 45/45/45 40/40/40 44/44/44
f 46/46/46 44/44/44 42/42/42
f 47/47/47 46/46/46 42/42/42
f 48/48/48 44/44/44 46/46/46
f 49/49/49 44/44/44 48/48/48
f 51/51/51 50/50/50 13/13/13
f 50/50/50 15/15/15 13/13/13
f 52/52/52 15/15/15 50/50/50
f 54/54/54 53/53/53 15/15/15
f 53/53/53 55/55/55 15/15/15
f 56/56/56 55/55/55 53/53/53
f 57/57/57 55/55/55 56/56/56
f 55/55/55 58/58/58 15/15/15
f 59/59/59 58/58/58 55/55/55
f 58/58/58 14/14/14 15/15/15
f 60/60/60 14/14/14 58/58/58
f 61/61/61 60/60/60 58/58/58
f 62/62/62 14/14/14 60/60/60
f 65/65/65 64/64/64 63/63/63
f 66/66/66 65/65/65 63/63/63
f 69/69/69 68/68/68 67/67/67
f 70/70/70 69/69/69 67/67/67
f 73/73/73 72/72/72 71/71/71
f 74/74/74 73/73/73 71/71/71
f 77/77/77 76/76/76 75/75/75
f 78/78/78 77/77/77 75/75/75
f 81/81/81 80/80/80 79/79/79
f 82/82/82 81/81/81 79/79/79
f 85/85/85 84/84/84 83/83/83
f 86/86/86 85/85/85 83/83/83
f 89/89/89 88/88/88 87/87/87
f 90/90/90 89/89/89 87/87/87
f 93/93/93 92/92/92 91/91/91
f 94/94/94 93/93/93 91/91/91
f 97/97/97 96/96/96 95/95/95
f 98/98/98 97/97/97 95/95/95
f 101/101/101 100/100/100 99/99/99
f 102/102/102 101/101/101 99/99/99
f 105/105/105 104/104/104 103/103/103
f 106/106/106 105/105/105 103/103/103
f 109/109/109 108/108/108 107/107/107
f 110/110/110 109/109/109 107/107/107
f 113/113/113 112/112/112 111/111/111
f 114/114/114 113/113/113 111/111/111
f 117/117/117 116/116/116 115/115/115
f 118/118/118 117/117/117 115/115/115
f 121/121/121 120/120/120 119/119/119
f 122/122/122 121/121/121 119/119/119
f 125/125/125 124/124/124 123/123/123
f 126/126/126 125/125/125 123/123/123
f 129/129/129 128/128/128 127/127/127
f 130/130/130 129/129/129 127/127/127
f 133/133/133 132/132/132 131/131/131
f 134/134/134 133/133/133 131/131/131
f 137/137/137 136/136/136 135/135/135
f 138/138/138 137/137/137 135/135/135
f 141/141/141 140/140/140 139/139/139
f 142/142/142 141/141/141 139/139/139
f 145/145/145 144/144/144 143/143/143
f 146/146/146 145/145/145 143/143/143
f 149/149/149 148/148/148 147/147/147
f 150/150/150 149/149/149 147/147/147
f 153/153/153 152/152/152 151/151/151
f 154/154/154 153/153/153 151/151/151
f 157/157/157 156/156/156 155/155/155
f 158/158/158 157/157/157 155/155/155
f 161/161/161 160/160/160 159/159/159
f 162/162/162 161/161/161 159/159/159
f 165/165/165 164/164/164 163/163/163
f 166/166/166 165/165/165 163/163/163
f 169/169/169 168/168/168 167/167/167
f 170/170/170 169/169/169 167/167/167
f 173/173/173 172/172/172 171/171/171
f 174/174/174 173/173/173 171/171/171
f 177/177/177 176/176/176 175/175/175
f 178/178/178 177/177/177 175/175/175
f 181/181/181 180/180/180 179/179/179
f 182/182/182 181/181/181 179/179/179
f 185/185/185 184/184/184 183/183/183
f 186/186/186 185/185/185 183/183/183
f 189/189/189 188/188/188 187/187/187
f 190/190/190 189/189/189 187/187/187
f 193/193/193 192/192/192 191/191/191
f 194/194/194 193/193/193 191/191/191
f 197/197/197 196/196/196 195/195/195
f 198/198/198 197/197/197 195/195/195
f 201/201/201 200/200/200 199/199/199
f 202/202/202 201/201/201 199/199/199
f 205/205/205 204/204/204 203/203/203
f 206/206/206 205/205/205 203/203/203
f 209/209/209 208/208/208 207/207/207
f 210/210/210 209/209/209 207/207/207
f 213/213/213 212/212/212 211/211/211
f 214/214/214 213/213/213 211/211/211
f 217/217/217 216/216/216 215/215/215
f 218/218/218 217/217/217 215/215/215
f 221/221/221 220/220/220 219/219/219
f 222/222/222 221/221/221 219/219/219
f 225/225/225 224/224/224 223/223/223
f 226/226/226 225/225/225 223/223/223
f 229/229/229 228/228/228 227/227/227
f 230/230/230 229/229/229 227/227/227
f 233/233/233 232/232/232 231/231/231
f 234/234/234 233/233/233 231/231/231
f 237/237/237 236/236/236 235/235/235
f 238/238/238 237/237/237 235/235/235
f 241/241/241 240/240/240 239/239/239
f 242/242/242 241/241/241 239/239/239
f 245/245/245 244/244/244 243/243/243
f 246/246/246 245/245/245 243/243/243
f 249/249/249 248/248/248 247/247/247
f 250/250/250 249/249/249 247/247/247
f 253/253/253 252/252/252 251/251/251
f 254/254/254 253/253/253 251/251/251
f 257/257/257 256/256/256 255/255/255
f 258/258/258 257/257/257 255/255/255
f 261/261/261 260/260/260 259/259/259
f 262/262/262 261/261/261 259/259/259
f 265/265/265 264/264/264 263/263/263
f 266/266/266 265/265/265 263/263/263
f 269/269/269 268/268/268 267/267/267
f 270/270/270 269/269/269 267/267/267
f 273/273/273 272/272/272 271/271/271
f 274/274/274 273/273/273 271/271/271
f 277/277/277 276/276/276 275/275/275
f 278/278/278 277/277/277 275/275/275
f 281/281/281 280/280/280 279/279/279
f 282/282/282 281/281/281 279/279/279
f 285/285/285 284/284/284 283/283/283
f 286/286/286 285/285/285 283/283/283
f 289/289/289 288/288/288 287/287/287
f 290/290/290 289/289/289 287/287/287
f 293/293/293 292/292/292 291/291/291
f 294/294/294 293/293/293 291/291/291
f 297/297/297 296/296/296 295/295/295
f 298/298/298 297/297/297 295/295/295
f 301/301/301 300/300/300 299/299/299
f 302/302/302 301/301/301 299/299/299
f 305/305/305 304/304/304 303/303/303
f 306/306/306 305/305/305 303/303/303
f 309/309/309 308/308/308 307/307/307
f 310/310/310 309/309/309 307/307/307
f 313/313/313 312/312/312 311/311/311
f 313/313/313 314/314/314 312/312/312
f 314/314/314 315/315/315 312/312/312
f 315/315/315 316/316/316 312/312/312
f 315/315/315 317/317/317 316/316/316
f 314/314/314 318/318/318 315/315/315
f 314/314/314 313/313/313 319/319/319
f 314/314/314 319/319/319 320/320/320
f 313/313/313 321/321/321 319/319/319
f 313/313/313 322/322/322 321/321/321
f 321/321/321 323/323/323 319/319/319
f 321/321/321 324/324/324 323/323/323
f 324/324/324 325/325/325 323/323/323
f 321/321/321 326/326/326 324/324/324
f 321/321/321 327/327/327 326/326/326
f 323/323/323 328/328/328 319/319/319
f 328/328/328 329/329/329 319/319/319
f 326/326/326 330/330/330 324/324/324
f 326/326/326 331/331/331 330/330/330
f 323/323/323 332/332/332 328/328/328
f 332/332/332 333/333/333 328/328/328
f 330/330/330 334/334/334 324/324/324
f 330/330/330 335/335/335 334/334/334
f 323/323/323 336/336/336 332/332/332
f 336/336/336 337/337/337 332/332/332
f 334/334/334 338/338/338 324/324/324
f 338/338/338 339/339/339 324/324/324
f 334/334/334 340/340/340 338/338/338
f 334/334/334 341/341/341 340/340/340
f 340/340/340 342/342/342 338/338/338
f 340/340/340 343/343/343 342/342/342
f 323/323/323 344/344/344 336/336/336
f 323/323/323 345/345/345 344/344/344
f 344/344/344 346/346/346 336/336/336
f 346/346/346 347/347/347 336/336/336
f 344/344/344 348/348/348 346/346/346
f 344/344/344 349/349/349 348/348/348
f 348/348/348 350/350/350 346/346/346
f 348/348/348 351/351/351 350/350/350
f 350/350/350 352/352/352 346/346/346
f 352/352/352 353/353/353 346/346/346
f 350/350/350 354/354/354 352/352/352
f 350/350/350 355/355/355 354/354/354
f 354/354/354 356/356/356 352/352/352
f 356/356/356 357/357/357 352/352/352
f 354/354/354 358/358/358 356/356/356
f 354/354/354 359/359/359 358/358/358
f 361/361/361 360/360/360 323/323/323
f 325/325/325 361/361/361 323/323/323
f 325/325/325 362/362/362 361/361/361
f 364/364/364 363/363/363 325/325/325
f 365/365/365 364/364/364 325/325/325
f 365/365/365 366/366/366 364/364/364
f 365/365/365 367/367/367 366/366/366
f 368/368/368 365/365/365 325/325/325
f 368/368/368 369/369/369 365/365/365
f 324/324/324 368/368/368 325/325/325
f 324/324/324 370/370/370 368/368/368
f 370/370/370 371/371/371 368/368/368
f 324/324/324 372/372/372 370/370/370
