g Rocks_Small_021
v 0.9063534 0.003171692 -0.8959193
v 0.90456635 1.2455288 -0.8959193
v 0.84008145 0.0033670042 -0.8959193
v 0.84201264 1.2452627 -0.8959193
v -0.7783386 -0.120976865 -0.8959193
v -0.77782714 -0.81355435 -0.8959193
v -0.8386218 -0.057400815 -0.8959193
v -0.838573 -0.1208255 -0.8959193
v 0.77032197 -0.29983672 -0.8959193
v 0.83998626 -0.30014923 -0.8959193
v 0.7114987 -0.67307097 -0.8959195
v 0.77062225 -0.6730209 -0.8959195
v 0.6515768 -0.74523526 -0.8959193
v 0.7113351 -0.74523526 -0.8959193
v -0.7212598 -0.86222076 -0.8959193
v -0.77799314 -0.86222076 -0.8959193
v 0.5887106 -0.805159 -0.8959193
v 0.651362 -0.805159 -0.8959193
v -0.6488098 -0.9298617 -0.8959193
v -0.7205798 -0.9299362 -0.8959193
v -0.40019315 -0.98811674 -0.8959193
v -0.64872193 -0.98856044 -0.8959193
v -0.33929473 -1.1155527 -0.8959193
v -0.40037626 -1.1157199 -0.8959193
v 0.52797574 -1.1758548 -0.8959193
v 0.5882736 -1.1756455 -0.8959193
v -0.27761993 -1.2435501 -0.8959193
v -0.33929473 -1.2435873 -0.8959193
v 0.46013275 -1.2431228 -0.8959193
v 0.5280002 -1.2435123 -0.8959193
v -0.15819733 -1.304122 -0.8959193
v -0.27761993 -1.3041501 -0.8959193
v 0.40214935 -1.3040988 -0.8959193
v 0.46056 -1.3040963 -0.8959193
v -0.15819733 -1.3757718 -0.8959193
v 0.40212494 -1.375671 -0.8959193
v 0.7822201 1.3130288 -0.8959193
v 0.84223235 1.3130411 -0.8959193
v -0.65208614 1.31116 -0.8959193
v -0.65208614 1.3744534 -0.8959193
v 0.78251064 1.3757718 -0.8959193
v -0.8379858 1.2338187 -0.8959193
v -0.8383569 1.31116 -0.8959193
v -0.9019165 1.2336661 -0.8959193
v -0.9063537 -0.057522886 -0.8959193
v 0.84008145 0.0033670042 -0.8959193
v 0.8400824 0.0033670042 0.8959193
v 0.90635437 0.003171692 0.8959193
v 0.9063534 0.003171692 -0.8959193
v 0.9063534 0.003171692 -0.8959193
v 0.90635437 0.003171692 0.8959193
v 0.90456724 1.2455288 0.8959195
v 0.90456635 1.2455288 -0.8959193
v -0.33929473 -1.1155527 -0.8959193
v -0.3392932 -1.1155527 0.8959193
v -0.3392932 -1.2435873 0.8959193
v -0.33929473 -1.2435873 -0.8959193
v -0.40037626 -1.1157199 -0.8959193
v -0.40037474 -1.1157199 0.8959193
v -0.3392932 -1.1155527 0.8959193
v -0.33929473 -1.1155527 -0.8959193
v 0.651362 -0.805159 -0.8959193
v 0.6513635 -0.8051587 0.8959193
v 0.65157837 -0.74523526 0.8959193
v 0.6515768 -0.74523526 -0.8959193
v 0.5887106 -0.805159 -0.8959193
v 0.58871216 -0.8051587 0.8959193
v 0.6513635 -0.8051587 0.8959193
v 0.651362 -0.805159 -0.8959193
v -0.77799314 -0.86222076 -0.8959193
v -0.77799195 -0.86222047 0.8959193
v -0.7212585 -0.86222047 0.8959193
v -0.7212598 -0.86222076 -0.8959193
v -0.77782714 -0.81355435 -0.8959193
v -0.77799195 -0.86222047 0.8959193
v -0.77799314 -0.86222076 -0.8959193
v -0.7778259 -0.81355435 0.8959193
v -0.7783386 -0.120976865 -0.8959193
v -0.77833736 -0.12097656 0.8959193
v 0.5280002 -1.2435123 -0.8959193
v 0.5280017 -1.2435119 0.8959193
v 0.5279773 -1.1758544 0.8959193
v 0.52797574 -1.1758548 -0.8959193
v 0.46013275 -1.2431228 -0.8959193
v 0.46013364 -1.2431226 0.8959193
v 0.5280017 -1.2435119 0.8959193
v 0.5280002 -1.2435123 -0.8959193
v 0.5882736 -1.1756455 -0.8959193
v 0.58827513 -1.1756455 0.8959193
v 0.58871216 -0.8051587 0.8959193
v 0.5887106 -0.805159 -0.8959193
v 0.52797574 -1.1758548 -0.8959193
v 0.5279773 -1.1758544 0.8959193
v 0.58827513 -1.1756455 0.8959193
v 0.5882736 -1.1756455 -0.8959193
v 0.83998626 -0.30014923 -0.8959193
v 0.83998716 -0.3001489 0.8959193
v 0.8400824 0.0033670042 0.8959193
v 0.84008145 0.0033670042 -0.8959193
v 0.77032197 -0.29983672 -0.8959193
v 0.77032346 -0.29983643 0.8959193
v 0.83998716 -0.3001489 0.8959193
v 0.83998626 -0.30014923 -0.8959193
v -0.838573 -0.1208255 -0.8959193
v -0.8385718 -0.120825194 0.8959193
v -0.77833736 -0.12097656 0.8959193
v -0.7783386 -0.120976865 -0.8959193
v -0.8386218 -0.057400815 -0.8959193
v -0.8386206 -0.057400815 0.8959193
v -0.8385718 -0.120825194 0.8959193
v -0.838573 -0.1208255 -0.8959193
v 0.6515768 -0.74523526 -0.8959193
v 0.65157837 -0.74523526 0.8959193
v 0.7113367 -0.74523526 0.8959193
v 0.7113351 -0.74523526 -0.8959193
v 0.7113351 -0.74523526 -0.8959193
v 0.7113367 -0.74523526 0.8959193
v 0.7115002 -0.67307097 0.89591914
v 0.7114987 -0.67307097 -0.8959195
v 0.84223235 1.3130411 -0.8959193
v 0.84223324 1.3130411 0.8959195
v 0.7822211 1.3130288 0.8959195
v 0.7822201 1.3130288 -0.8959193
v 0.84201264 1.2452627 -0.8959193
v 0.84201354 1.2452627 0.8959195
v 0.84223324 1.3130411 0.8959195
v 0.84223235 1.3130411 -0.8959193
v -0.8383569 1.31116 -0.8959193
v -0.8383557 1.31116 0.8959195
v -0.8379846 1.2338187 0.8959195
v -0.8379858 1.2338187 -0.8959193
v -0.65208614 1.31116 -0.8959193
v -0.65208495 1.31116 0.8959195
v -0.8383557 1.31116 0.8959195
v -0.8383569 1.31116 -0.8959193
v -0.8379858 1.2338187 -0.8959193
v -0.8379846 1.2338187 0.8959195
v -0.90191525 1.2336661 0.8959195
v -0.9019165 1.2336661 -0.8959193
v -0.9019165 1.2336661 -0.8959193
v -0.90191525 1.2336661 0.8959195
v -0.9063525 -0.057522886 0.8959193
v -0.9063537 -0.057522886 -0.8959193
v -0.9063537 -0.057522886 -0.8959193
v -0.9063525 -0.057522886 0.8959193
v -0.8386206 -0.057400815 0.8959193
v -0.8386218 -0.057400815 -0.8959193
v 0.78251064 1.3757718 -0.8959193
v 0.7825116 1.3757718 0.8959195
v -0.65208495 1.3744534 0.8959195
v -0.65208614 1.3744534 -0.8959193
v 0.7822201 1.3130288 -0.8959193
v 0.7822211 1.3130288 0.8959195
v 0.7825116 1.3757718 0.8959195
v 0.78251064 1.3757718 -0.8959193
v -0.65208614 1.3744534 -0.8959193
v -0.65208495 1.3744534 0.8959195
v -0.65208495 1.31116 0.8959195
v -0.65208614 1.31116 -0.8959193
v 0.77062225 -0.6730209 -0.8959195
v 0.77062374 -0.6730209 0.89591914
v 0.77032346 -0.29983643 0.8959193
v 0.77032197 -0.29983672 -0.8959193
v 0.7114987 -0.67307097 -0.8959195
v 0.7115002 -0.67307097 0.89591914
v 0.77062374 -0.6730209 0.89591914
v 0.77062225 -0.6730209 -0.8959195
v 0.90456635 1.2455288 -0.8959193
v 0.90456724 1.2455288 0.8959195
v 0.84201354 1.2452627 0.8959195
v 0.84201264 1.2452627 -0.8959193
v -0.64872193 -0.98856044 -0.8959193
v -0.6487207 -0.98856044 0.8959193
v -0.40019163 -0.98811644 0.8959193
v -0.40019315 -0.98811674 -0.8959193
v -0.6488098 -0.9298617 -0.8959193
v -0.6488086 -0.9298617 0.8959193
v -0.6487207 -0.98856044 0.8959193
v -0.64872193 -0.98856044 -0.8959193
v -0.7212598 -0.86222076 -0.8959193
v -0.7212585 -0.86222047 0.8959193
v -0.7205786 -0.9299362 0.8959193
v -0.7205798 -0.9299362 -0.8959193
v -0.7205798 -0.9299362 -0.8959193
v -0.7205786 -0.9299362 0.8959193
v -0.6488086 -0.9298617 0.8959193
v -0.6488098 -0.9298617 -0.8959193
v -0.40019315 -0.98811674 -0.8959193
v -0.40019163 -0.98811644 0.8959193
v -0.40037474 -1.1157199 0.8959193
v -0.40037626 -1.1157199 -0.8959193
v -0.33929473 -1.2435873 -0.8959193
v -0.3392932 -1.2435873 0.8959193
v -0.2776184 -1.2435498 0.8959193
v -0.27761993 -1.2435501 -0.8959193
v -0.27761993 -1.2435501 -0.8959193
v -0.2776184 -1.2435498 0.8959193
v -0.2776184 -1.3041501 0.8959193
v -0.27761993 -1.3041501 -0.8959193
v -0.27761993 -1.3041501 -0.8959193
v -0.2776184 -1.3041501 0.8959193
v -0.1581964 -1.304122 0.8959193
v -0.15819733 -1.304122 -0.8959193
v -0.15819733 -1.304122 -0.8959193
v -0.1581964 -1.304122 0.8959193
v -0.1581964 -1.3757714 0.8959193
v -0.15819733 -1.3757718 -0.8959193
v -0.15819733 -1.3757718 -0.8959193
v -0.1581964 -1.3757714 0.8959193
v 0.40212584 -1.375671 0.8959193
v 0.40212494 -1.375671 -0.8959193
v 0.40212494 -1.375671 -0.8959193
v 0.40212584 -1.375671 0.8959193
v 0.40215027 -1.3040988 0.8959193
v 0.40214935 -1.3040988 -0.8959193
v 0.40214935 -1.3040988 -0.8959193
v 0.40215027 -1.3040988 0.8959193
v 0.4605609 -1.3040963 0.8959193
v 0.46056 -1.3040963 -0.8959193
v 0.46056 -1.3040963 -0.8959193
v 0.4605609 -1.3040963 0.8959193
v 0.46013364 -1.2431226 0.8959193
v 0.46013275 -1.2431228 -0.8959193
v 0.90635437 0.003171692 0.8959193
v 0.8400824 0.0033670042 0.8959193
v 0.90456724 1.2455288 0.8959195
v 0.84201354 1.2452627 0.8959195
v -0.77833736 -0.12097656 0.8959193
v -0.7778259 -0.81355435 0.8959193
v -0.8386206 -0.057400815 0.8959193
v -0.8385718 -0.120825194 0.8959193
v 0.77032346 -0.29983643 0.8959193
v 0.83998716 -0.3001489 0.8959193
v 0.7115002 -0.67307097 0.89591914
v 0.77062374 -0.6730209 0.89591914
v 0.65157837 -0.74523526 0.8959193
v 0.7113367 -0.74523526 0.8959193
v -0.7212585 -0.86222047 0.8959193
v -0.77799195 -0.86222047 0.8959193
v 0.58871216 -0.8051587 0.8959193
v 0.6513635 -0.8051587 0.8959193
v -0.6488086 -0.9298617 0.8959193
v -0.7205786 -0.9299362 0.8959193
v -0.40019163 -0.98811644 0.8959193
v -0.6487207 -0.98856044 0.8959193
v -0.3392932 -1.1155527 0.8959193
v -0.40037474 -1.1157199 0.8959193
v 0.5279773 -1.1758544 0.8959193
v 0.58827513 -1.1756455 0.8959193
v -0.2776184 -1.2435498 0.8959193
v -0.3392932 -1.2435873 0.8959193
v 0.46013364 -1.2431226 0.8959193
v 0.5280017 -1.2435119 0.8959193
v -0.1581964 -1.304122 0.8959193
v -0.2776184 -1.3041501 0.8959193
v 0.40215027 -1.3040988 0.8959193
v 0.4605609 -1.3040963 0.8959193
v -0.1581964 -1.3757714 0.8959193
v 0.40212584 -1.375671 0.8959193
v 0.7822211 1.3130288 0.8959195
v 0.84223324 1.3130411 0.8959195
v -0.65208495 1.31116 0.8959195
v -0.65208495 1.3744534 0.8959195
v 0.7825116 1.3757718 0.8959195
v -0.8379846 1.2338187 0.8959195
v -0.8383557 1.31116 0.8959195
v -0.90191525 1.2336661 0.8959195
v -0.9063525 -0.057522886 0.8959193
vt 0.7944336 0.11218262
vt 0.7944336 0.19116211
vt 0.7988281 0.11218262
vt 0.7988281 0.19116211
vt 0.90185547 0.10308838
vt 0.90185547 0.06036377
vt 0.90527344 0.10699463
vt 0.90527344 0.10308838
vt 0.8027344 0.0927124
vt 0.7988281 0.09277344
vt 0.8066406 0.068847656
vt 0.8027344 0.06890869
vt 0.8105469 0.06414795
vt 0.8066406 0.06427002
vt 0.89746094 0.057373047
vt 0.9013672 0.057128906
vt 0.8144531 0.06021118
vt 0.8105469 0.060302734
vt 0.8930664 0.053222656
vt 0.89746094 0.053100586
vt 0.8774414 0.04953003
vt 0.8930664 0.04953003
vt 0.87353516 0.04144287
vt 0.8774414 0.04144287
vt 0.8183594 0.03668213
vt 0.8149414 0.03665161
vt 0.8696289 0.033294678
vt 0.87353516 0.033325195
vt 0.8227539 0.032470703
vt 0.81884766 0.03237915
vt 0.8623047 0.029327393
vt 0.8701172 0.029449463
vt 0.82666016 0.028656006
vt 0.8227539 0.02859497
vt 0.8623047 0.024795532
vt 0.82666016 0.024108887
vt 0.8027344 0.19543457
vt 0.7988281 0.19543457
vt 0.89404297 0.19482422
vt 0.89404297 0.19909668
vt 0.8027344 0.19909668
vt 0.9057617 0.1899414
vt 0.9057617 0.19482422
vt 0.90966797 0.1899414
vt 0.90966797 0.106933594
vt 0.78125 0.10784912
vt 0.70996094 0.107910156
vt 0.70996094 0.11242676
vt 0.78125 0.11242676
vt 0.78125 0.11242676
vt 0.70996094 0.11242676
vt 0.70996094 0.19165039
vt 0.7817383 0.19152832
vt 0.35839844 0.087890625
vt 0.35839844 0.021255493
vt 0.34985352 0.021255493
vt 0.34985352 0.087890625
vt 0.36254883 0.087890625
vt 0.36254883 0.021255493
vt 0.35839844 0.021255493
vt 0.35839844 0.087890625
vt 0.78125 0.042663574
vt 0.70996094 0.04272461
vt 0.70996094 0.046722412
vt 0.78125 0.046661377
vt 0.78125 0.0385437
vt 0.70996094 0.038604736
vt 0.70996094 0.04272461
vt 0.78125 0.042663574
vt 0.92089844 0.04547119
vt 0.9926758 0.04547119
vt 0.9926758 0.041412354
vt 0.92089844 0.041412354
vt 0.92089844 0.048980713
vt 0.9926758 0.04547119
vt 0.92089844 0.04547119
vt 0.9926758 0.048980713
vt 0.92089844 0.09423828
vt 0.9926758 0.09423828
vt 0.78125 0.00667572
vt 0.70996094 0.0067367554
vt 0.70996094 0.011077881
vt 0.78125 0.011016846
vt 0.78125 0.0023555756
vt 0.70996094 0.002412796
vt 0.70996094 0.0067367554
vt 0.78125 0.00667572
vt 0.78125 0.014930725
vt 0.70996094 0.01499176
vt 0.70996094 0.038604736
vt 0.78125 0.0385437
vt 0.78125 0.011016846
vt 0.70996094 0.011077881
vt 0.70996094 0.01499176
vt 0.78125 0.014930725
vt 0.78125 0.0881958
vt 0.70996094 0.088256836
vt 0.70996094 0.107910156
vt 0.78125 0.10784912
vt 0.78125 0.083496094
vt 0.70996094 0.08355713
vt 0.70996094 0.088256836
vt 0.78125 0.0881958
vt 0.92089844 0.09716797
vt 0.9926758 0.09716797
vt 0.9926758 0.09423828
vt 0.92089844 0.09423828
vt 0.92089844 0.10308838
vt 0.9926758 0.10308838
vt 0.9926758 0.09716797
vt 0.92089844 0.09716797
vt 0.78125 0.046661377
vt 0.70996094 0.046722412
vt 0.70996094 0.050720215
vt 0.78125 0.05065918
vt 0.78125 0.05065918
vt 0.70996094 0.050720215
vt 0.70996094 0.055541992
vt 0.78125 0.055480957
vt 0.7939453 0.21130371
vt 0.7939453 0.27807617
vt 0.79833984 0.27807617
vt 0.79833984 0.21130371
vt 0.7890625 0.21130371
vt 0.7890625 0.27807617
vt 0.7939453 0.27807617
vt 0.7939453 0.21130371
vt 0.9111328 0.21130371
vt 0.9111328 0.27807617
vt 0.9165039 0.27807617
vt 0.9165039 0.21130371
vt 0.8989258 0.21130371
vt 0.8989258 0.27807617
vt 0.9111328 0.27807617
vt 0.9111328 0.21130371
vt 0.9165039 0.21130371
vt 0.9165039 0.27807617
vt 0.92089844 0.27807617
vt 0.92089844 0.21130371
vt 0.92089844 0.18969727
vt 0.9926758 0.18969727
vt 0.9926758 0.10784912
vt 0.92089844 0.10784912
vt 0.92089844 0.10784912
vt 0.9926758 0.10784912
vt 0.9926758 0.10308838
vt 0.92089844 0.10308838
vt 0.8027344 0.21130371
vt 0.8027344 0.27807617
vt 0.89404297 0.27807617
vt 0.89404297 0.21130371
vt 0.79833984 0.21130371
vt 0.79833984 0.27807617
vt 0.8027344 0.27807617
vt 0.8027344 0.21130371
vt 0.89404297 0.21130371
vt 0.89404297 0.27807617
vt 0.8989258 0.27807617
vt 0.8989258 0.21130371
vt 0.78125 0.059509277
vt 0.70996094 0.059570312
vt 0.70996094 0.08355713
vt 0.78125 0.083496094
vt 0.78125 0.055480957
vt 0.70996094 0.055541992
vt 0.70996094 0.059570312
vt 0.78125 0.059509277
vt 0.78466797 0.21130371
vt 0.78466797 0.27807617
vt 0.7890625 0.27807617
vt 0.7890625 0.21130371
vt 0.92089844 0.027664185
vt 0.9926758 0.027664185
vt 0.9926758 0.011505127
vt 0.92089844 0.011505127
vt 0.92089844 0.0317688
vt 0.9926758 0.0317688
vt 0.9926758 0.027664185
vt 0.92089844 0.027664185
vt 0.92089844 0.041412354
vt 0.9926758 0.041412354
vt 0.9926758 0.036712646
vt 0.92089844 0.036712646
vt 0.92089844 0.036712646
vt 0.9926758 0.036712646
vt 0.9926758 0.0317688
vt 0.92089844 0.0317688
vt 0.3708496 0.087890625
vt 0.3708496 0.021255493
vt 0.36254883 0.021255493
vt 0.36254883 0.087890625
vt 0.34985352 0.087890625
vt 0.34985352 0.021255493
vt 0.34570312 0.021255493
vt 0.34570312 0.087890625
vt 0.34570312 0.087890625
vt 0.34570312 0.021255493
vt 0.34155273 0.021255493
vt 0.34155273 0.087890625
vt 0.34155273 0.087890625
vt 0.34155273 0.021255493
vt 0.33374023 0.021255493
vt 0.33374023 0.087890625
vt 0.33374023 0.087890625
vt 0.33374023 0.021255493
vt 0.32910156 0.021255493
vt 0.32910156 0.087890625
vt 0.32910156 0.087890625
vt 0.32910156 0.021255493
vt 0.2932129 0.021255493
vt 0.2932129 0.087890625
vt 0.2932129 0.087890625
vt 0.2932129 0.021255493
vt 0.28857422 0.021255493
vt 0.28857422 0.087890625
vt 0.28857422 0.087890625
vt 0.28857422 0.021255493
vt 0.2849121 0.021255493
vt 0.2849121 0.087890625
vt 0.2849121 0.087890625
vt 0.2849121 0.021255493
vt 0.28100586 0.021255493
vt 0.28100586 0.087890625
vt 0.7944336 0.11218262
vt 0.7988281 0.11218262
vt 0.7944336 0.19116211
vt 0.7988281 0.19116211
vt 0.90185547 0.10308838
vt 0.90185547 0.06036377
vt 0.90527344 0.10699463
vt 0.90527344 0.10308838
vt 0.8027344 0.0927124
vt 0.7988281 0.09277344
vt 0.8066406 0.068847656
vt 0.8027344 0.06890869
vt 0.8105469 0.06414795
vt 0.8066406 0.06427002
vt 0.89746094 0.057373047
vt 0.9013672 0.057128906
vt 0.8144531 0.06021118
vt 0.8105469 0.060302734
vt 0.8930664 0.053222656
vt 0.89746094 0.053100586
vt 0.8774414 0.04953003
vt 0.8930664 0.04953003
vt 0.87353516 0.04144287
vt 0.8774414 0.04144287
vt 0.8183594 0.03668213
vt 0.8149414 0.03665161
vt 0.8696289 0.033294678
vt 0.87353516 0.033325195
vt 0.8227539 0.032470703
vt 0.81884766 0.03237915
vt 0.8623047 0.029327393
vt 0.8701172 0.029449463
vt 0.82666016 0.028656006
vt 0.8227539 0.02859497
vt 0.8623047 0.024795532
vt 0.82666016 0.024108887
vt 0.8027344 0.19543457
vt 0.7988281 0.19543457
vt 0.89404297 0.19482422
vt 0.89404297 0.19909668
vt 0.8027344 0.19909668
vt 0.9057617 0.1899414
vt 0.9057617 0.19482422
vt 0.90966797 0.1899414
vt 0.90966797 0.106933594
vn -0 0 -1
vn -0 0 -1
vn -0 0 -1
vn -0 0 -1
vn -0 0 -1
vn 1.1920929E-07 -2.2053719E-06 -1
vn -0 0 -1
vn -0 0 -1
vn -0 0 -1
vn -0 0 -1
vn 1.1920929E-07 -2.2053719E-06 -1
vn -0 4.172325E-07 -1
vn 1.1920929E-07 -2.2053719E-06 -1
vn -0 -2.0861626E-06 -1
vn -0 0 -1
vn -0 0 -1
vn -0 0 -1
vn -0 0 -1
vn -0 0 -1
vn -0 0 -1
vn -0 0 -1
vn -0 0 -1
vn -0 0 -1
vn -0 0 -1
vn -0 0 -1
vn -0 0 -1
vn -0 0 -1
vn -0 0 -1
vn -0 0 -1
vn -0 0 -1
vn -0 0 -1
vn -0 0 -1
vn -0 0 -1
vn -0 0 -1
vn -0 0 -1
vn -0 0 -1
vn -0 0 -1
vn -0 0 -1
vn -0 0 -1
vn -0 0 -1
vn -0 0 -1
vn -0 0 -1
vn -0 0 -1
vn -0 0 -1
vn -0 0 -1
vn -0.0029468536 -1 0
vn -0.0029468536 -1 0
vn -0.0029468536 -1 0
vn -0.0029468536 -1 0
vn 1 0.0014381409 -5.364418E-07
vn 1 0.0014381409 -5.364418E-07
vn 1 0.0014381409 -5.364418E-07
vn 1 0.0014381409 -5.364418E-07
vn -1 0 8.34465E-07
vn -1 0 8.34465E-07
vn -1 0 8.34465E-07
vn -1 0 8.34465E-07
vn 0.0027370453 -1 0
vn 0.0027370453 -1 0
vn 0.0027370453 -1 0
vn 0.0027370453 -1 0
vn 1 -0.0035858154 -8.34465E-07
vn 1 -0.0035858154 -8.34465E-07
vn 1 -0.0035858154 -8.34465E-07
vn 1 -0.0035858154 -8.34465E-07
vn -0 -1 1.7881393E-07
vn -0 -1 1.7881393E-07
vn -0 -1 1.7881393E-07
vn -0 -1 1.7881393E-07
vn -0 -1 1.7881393E-07
vn -0 -1 1.7881393E-07
vn -0 -1 1.7881393E-07
vn -0 -1 1.7881393E-07
vn -1 0.0034103394 6.556511E-07
vn -1 0.0034103394 6.556511E-07
vn -1 0.0034103394 6.556511E-07
vn -1 0.0034103394 6.556511E-07
vn -1 -0.00073862076 6.556511E-07
vn -1 -0.00073862076 6.556511E-07
vn 1 0.00036096573 -8.34465E-07
vn 1 0.00036096573 -8.34465E-07
vn 1 0.00036096573 -8.34465E-07
vn 1 0.00036096573 -8.34465E-07
vn -0.0057373047 -1 1.7881393E-07
vn -0.0057373047 -1 1.7881393E-07
vn -0.0057373047 -1 1.7881393E-07
vn -0.0057373047 -1 1.7881393E-07
vn 1 -0.0011796951 -8.34465E-07
vn 1 -0.0011796951 -8.34465E-07
vn 1 -0.0011796951 -8.34465E-07
vn 1 -0.0011796951 -8.34465E-07
vn 0.0034694672 -1 0
vn 0.0034694672 -1 0
vn 0.0034694672 -1 0
vn 0.0034694672 -1 0
vn 1 -0.00031375885 -5.364418E-07
vn 1 -0.00031375885 -5.364418E-07
vn 1 -0.00031375885 -5.364418E-07
vn 1 -0.00031375885 -5.364418E-07
vn -0.004486084 -1 1.7881393E-07
vn -0.004486084 -1 1.7881393E-07
vn -0.004486084 -1 1.7881393E-07
vn -0.004486084 -1 1.7881393E-07
vn -0.0025138855 -1 1.7881393E-07
vn -0.0025138855 -1 1.7881393E-07
vn -0.0025138855 -1 1.7881393E-07
vn -0.0025138855 -1 1.7881393E-07
vn -1 -0.000770092 6.556511E-07
vn -1 -0.000770092 6.556511E-07
vn -1 -0.000770092 6.556511E-07
vn -1 -0.000770092 6.556511E-07
vn -0 -1 0
vn -0 -1 0
vn -0 -1 0
vn -0 -1 0
vn 1 -0.0022659302 -8.34465E-07
vn 1 -0.0022659302 -8.34465E-07
vn 1 -0.0022659302 -8.34465E-07
vn 1 -0.0022659302 -8.34465E-07
vn -0.00020337105 1 0
vn -0.00020337105 1 0
vn -0.00020337105 1 0
vn -0.00020337105 1 0
vn 1 -0.0032424927 -5.364418E-07
vn 1 -0.0032424927 -5.364418E-07
vn 1 -0.0032424927 -5.364418E-07
vn 1 -0.0032424927 -5.364418E-07
vn -1 -0.004798889 6.556511E-07
vn -1 -0.004798889 6.556511E-07
vn -1 -0.004798889 6.556511E-07
vn -1 -0.004798889 6.556511E-07
vn -0 1 0
vn -0 1 0
vn -0 1 0
vn -0 1 0
vn -0.0023860931 1 0
vn -0.0023860931 1 0
vn -0.0023860931 1 0
vn -0.0023860931 1 0
vn -1 0.0034370422 6.556511E-07
vn -1 0.0034370422 6.556511E-07
vn -1 0.0034370422 6.556511E-07
vn -1 0.0034370422 6.556511E-07
vn 0.0018024445 -1 0
vn 0.0018024445 -1 0
vn 0.0018024445 -1 0
vn 0.0018024445 -1 0
vn -0.0009188652 1 0
vn -0.0009188652 1 0
vn -0.0009188652 1 0
vn -0.0009188652 1 0
vn 1 -0.0046310425 -5.364418E-07
vn 1 -0.0046310425 -5.364418E-07
vn 1 -0.0046310425 -5.364418E-07
vn 1 -0.0046310425 -5.364418E-07
vn -1 0 6.556511E-07
vn -1 0 6.556511E-07
vn -1 0 6.556511E-07
vn -1 0 6.556511E-07
vn 1 0.0008049011 -8.34465E-07
vn 1 0.0008049011 -8.34465E-07
vn 1 0.0008049011 -8.34465E-07
vn 1 0.0008049011 -8.34465E-07
vn 0.00084638596 -1 0
vn 0.00084638596 -1 0
vn 0.00084638596 -1 0
vn 0.00084638596 -1 0
vn -0.0042533875 1 0
vn -0.0042533875 1 0
vn -0.0042533875 1 0
vn -0.0042533875 1 0
vn 0.001786232 -1 0
vn 0.001786232 -1 0
vn 0.001786232 -1 0
vn 0.001786232 -1 0
vn -1 -0.0014972687 6.556511E-07
vn -1 -0.0014972687 6.556511E-07
vn -1 -0.0014972687 6.556511E-07
vn -1 -0.0014972687 6.556511E-07
vn -1 -0.010040283 6.556511E-07
vn -1 -0.010040283 6.556511E-07
vn -1 -0.010040283 6.556511E-07
vn -1 -0.010040283 6.556511E-07
vn 0.0010375977 -1 0
vn 0.0010375977 -1 0
vn 0.0010375977 -1 0
vn 0.0010375977 -1 0
vn -1 0.0014352798 8.34465E-07
vn -1 0.0014352798 8.34465E-07
vn -1 0.0014352798 8.34465E-07
vn -1 0.0014352798 8.34465E-07
vn 0.00060606 -1 0
vn 0.00060606 -1 0
vn 0.00060606 -1 0
vn 0.00060606 -1 0
vn -1 0 8.34465E-07
vn -1 0 8.34465E-07
vn -1 0 8.34465E-07
vn -1 0 8.34465E-07
vn 0.00023508072 -1 0
vn 0.00023508072 -1 0
vn 0.00023508072 -1 0
vn 0.00023508072 -1 0
vn -1 0 5.364418E-07
vn -1 0 5.364418E-07
vn -1 0 5.364418E-07
vn -1 0 5.364418E-07
vn 0.00017940998 -1 0
vn 0.00017940998 -1 0
vn 0.00017940998 -1 0
vn 0.00017940998 -1 0
vn 1 -0.000341177 -5.364418E-07
vn 1 -0.000341177 -5.364418E-07
vn 1 -0.000341177 -5.364418E-07
vn 1 -0.000341177 -5.364418E-07
vn 4.1782856E-05 -1 0
vn 4.1782856E-05 -1 0
vn 4.1782856E-05 -1 0
vn 4.1782856E-05 -1 0
vn 1 0.007007599 -5.364418E-07
vn 1 0.007007599 -5.364418E-07
vn 1 0.007007599 -5.364418E-07
vn 1 0.007007599 -5.364418E-07
vn -0 -1.1920929E-07 1
vn -0 -1.1920929E-07 1
vn -0 -1.1920929E-07 1
vn -0 0 1
vn -0 0 1
vn -1.1920929E-07 2.2053719E-06 1
vn -0 0 1
vn -0 0 1
vn -0 0 1
vn -0 0 1
vn -1.1920929E-07 2.2053719E-06 1
vn -0 -4.172325E-07 1
vn -1.1920929E-07 2.2053719E-06 1
vn -0 2.0861626E-06 1
vn -0 0 1
vn -0 0 1
vn -0 0 1
vn -0 0 1
vn -0 0 1
vn -0 0 1
vn -0 0 1
vn -0 0 1
vn -0 0 1
vn -0 0 1
vn -0 0 1
vn -0 0 1
vn -0 0 1
vn -0 0 1
vn -0 0 1
vn -0 0 1
vn -0 0 1
vn -0 0 1
vn -0 0 1
vn -0 0 1
vn -0 0 1
vn -0 0 1
vn -0 0 1
vn -0 0 1
vn -0 0 1
vn -0 0 1
vn -0 0 1
vn -0 -1.1920929E-07 1
vn -0 0 1
vn -0 -1.1920929E-07 1
vn -0 -1.1920929E-07 1
g Rocks_Small_021_0
f 3/3/3 2/2/2 1/1/1
f 2/2/2 3/3/3 4/4/4
f 5/5/5 4/4/4 3/3/3
f 6/6/6 5/5/5 3/3/3
f 7/7/7 4/4/4 5/5/5
f 8/8/8 7/7/7 5/5/5
f 9/9/9 6/6/6 3/3/3
f 10/10/10 9/9/9 3/3/3
f 11/11/11 6/6/6 9/9/9
f 9/9/9 12/12/12 11/11/11
f 13/13/13 6/6/6 11/11/11
f 13/13/13 11/11/11 14/14/14
f 15/15/15 6/6/6 13/13/13
f 16/16/16 6/6/6 15/15/15
f 17/17/17 15/15/15 13/13/13
f 18/18/18 17/17/17 13/13/13
f 19/19/19 15/15/15 17/17/17
f 15/15/15 19/19/19 20/20/20
f 21/21/21 19/19/19 17/17/17
f 21/21/21 22/22/22 19/19/19
f 23/23/23 21/21/21 17/17/17
f 24/24/24 21/21/21 23/23/23
f 25/25/25 23/23/23 17/17/17
f 26/26/26 25/25/25 17/17/17
f 23/23/23 25/25/25 27/27/27
f 28/28/28 23/23/23 27/27/27
f 25/25/25 29/29/29 27/27/27
f 30/30/30 29/29/29 25/25/25
f 29/29/29 31/31/31 27/27/27
f 31/31/31 32/32/32 27/27/27
f 33/33/33 31/31/31 29/29/29
f 34/34/34 33/33/33 29/29/29
f 31/31/31 33/33/33 35/35/35
f 35/35/35 33/33/33 36/36/36
f 38/38/38 4/4/4 37/37/37
f 37/37/37 4/4/4 39/39/39
f 40/40/40 37/37/37 39/39/39
f 41/41/41 37/37/37 40/40/40
f 39/39/39 4/4/4 42/42/42
f 42/42/42 43/43/43 39/39/39
f 42/42/42 4/4/4 7/7/7
f 44/44/44 42/42/42 7/7/7
f 45/45/45 44/44/44 7/7/7
f 48/48/48 47/47/47 46/46/46
f 49/49/49 48/48/48 46/46/46
f 52/52/52 51/51/51 50/50/50
f 53/53/53 52/52/52 50/50/50
f 56/56/56 55/55/55 54/54/54
f 57/57/57 56/56/56 54/54/54
f 60/60/60 59/59/59 58/58/58
f 61/61/61 60/60/60 58/58/58
f 64/64/64 63/63/63 62/62/62
f 65/65/65 64/64/64 62/62/62
f 68/68/68 67/67/67 66/66/66
f 69/69/69 68/68/68 66/66/66
f 72/72/72 71/71/71 70/70/70
f 73/73/73 72/72/72 70/70/70
f 76/76/76 75/75/75 74/74/74
f 75/75/75 77/77/77 74/74/74
f 74/74/74 77/77/77 78/78/78
f 77/77/77 79/79/79 78/78/78
f 82/82/82 81/81/81 80/80/80
f 83/83/83 82/82/82 80/80/80
f 86/86/86 85/85/85 84/84/84
f 87/87/87 86/86/86 84/84/84
f 90/90/90 89/89/89 88/88/88
f 91/91/91 90/90/90 88/88/88
f 94/94/94 93/93/93 92/92/92
f 95/95/95 94/94/94 92/92/92
f 98/98/98 97/97/97 96/96/96
f 99/99/99 98/98/98 96/96/96
f 102/102/102 101/101/101 100/100/100
f 103/103/103 102/102/102 100/100/100
f 106/106/106 105/105/105 104/104/104
f 107/107/107 106/106/106 104/104/104
f 110/110/110 109/109/109 108/108/108
f 111/111/111 110/110/110 108/108/108
f 114/114/114 113/113/113 112/112/112
f 115/115/115 114/114/114 112/112/112
f 118/118/118 117/117/117 116/116/116
f 119/119/119 118/118/118 116/116/116
f 122/122/122 121/121/121 120/120/120
f 123/123/123 122/122/122 120/120/120
f 126/126/126 125/125/125 124/124/124
f 127/127/127 126/126/126 124/124/124
f 130/130/130 129/129/129 128/128/128
f 131/131/131 130/130/130 128/128/128
f 134/134/134 133/133/133 132/132/132
f 135/135/135 134/134/134 132/132/132
f 138/138/138 137/137/137 136/136/136
f 139/139/139 138/138/138 136/136/136
f 142/142/142 141/141/141 140/140/140
f 143/143/143 142/142/142 140/140/140
f 146/146/146 145/145/145 144/144/144
f 147/147/147 146/146/146 144/144/144
f 150/150/150 149/149/149 148/148/148
f 151/151/151 150/150/150 148/148/148
f 154/154/154 153/153/153 152/152/152
f 155/155/155 154/154/154 152/152/152
f 158/158/158 157/157/157 156/156/156
f 159/159/159 158/158/158 156/156/156
f 162/162/162 161/161/161 160/160/160
f 163/163/163 162/162/162 160/160/160
f 166/166/166 165/165/165 164/164/164
f 167/167/167 166/166/166 164/164/164
f 170/170/170 169/169/169 168/168/168
f 171/171/171 170/170/170 168/168/168
f 174/174/174 173/173/173 172/172/172
f 175/175/175 174/174/174 172/172/172
f 178/178/178 177/177/177 176/176/176
f 179/179/179 178/178/178 176/176/176
f 182/182/182 181/181/181 180/180/180
f 183/183/183 182/182/182 180/180/180
f 186/186/186 185/185/185 184/184/184
f 187/187/187 186/186/186 184/184/184
f 190/190/190 189/189/189 188/188/188
f 191/191/191 190/190/190 188/188/188
f 194/194/194 193/193/193 192/192/192
f 195/195/195 194/194/194 192/192/192
f 198/198/198 197/197/197 196/196/196
f 199/199/199 198/198/198 196/196/196
f 202/202/202 201/201/201 200/200/200
f 203/203/203 202/202/202 200/200/200
f 206/206/206 205/205/205 204/204/204
f 207/207/207 206/206/206 204/204/204
f 210/210/210 209/209/209 208/208/208
f 211/211/211 210/210/210 208/208/208
f 214/214/214 213/213/213 212/212/212
f 215/215/215 214/214/214 212/212/212
f 218/218/218 217/217/217 216/216/216
f 219/219/219 218/218/218 216/216/216
f 222/222/222 221/221/221 220/220/220
f 223/223/223 222/222/222 220/220/220
f 226/226/226 225/225/225 224/224/224
f 225/225/225 226/226/226 227/227/227
f 227/227/227 228/228/228 225/225/225
f 228/228/228 229/229/229 225/225/225
f 227/227/227 230/230/230 228/228/228
f 230/230/230 231/231/231 228/228/228
f 229/229/229 232/232/232 225/225/225
f 232/232/232 233/233/233 225/225/225
f 229/229/229 234/234/234 232/232/232
f 235/235/235 232/232/232 234/234/234
f 229/229/229 236/236/236 234/234/234
f 234/234/234 236/236/236 237/237/237
f 229/229/229 238/238/238 236/236/236
f 229/229/229 239/239/239 238/238/238
f 238/238/238 240/240/240 236/236/236
f 240/240/240 241/241/241 236/236/236
f 238/238/238 242/242/242 240/240/240
f 242/242/242 238/238/238 243/243/243
f 242/242/242 244/244/244 240/240/240
f 245/245/245 244/244/244 242/242/242
f 244/244/244 246/246/246 240/240/240
f 244/244/244 247/247/247 246/246/246
f 246/246/246 248/248/248 240/240/240
f 248/248/248 249/249/249 240/240/240
f 248/248/248 246/246/246 250/250/250
f 246/246/246 251/251/251 250/250/250
f 252/252/252 248/248/248 250/250/250
f 252/252/252 253/253/253 248/248/248
f 254/254/254 252/252/252 250/250/250
f 255/255/255 254/254/254 250/250/250
f 254/254/254 256/256/256 252/252/252
f 256/256/256 257/257/257 252/252/252
f 256/256/256 254/254/254 258/258/258
f 256/256/256 258/258/258 259/259/259
f 227/227/227 261/261/261 260/260/260
f 227/227/227 260/260/260 262/262/262
f 260/260/260 263/263/263 262/262/262
f 260/260/260 264/264/264 263/263/263
f 227/227/227 262/262/262 265/265/265
f 266/266/266 265/265/265 262/262/262
f 227/227/227 265/265/265 230/230/230
f 265/265/265 267/267/267 230/230/230
f 267/267/267 268/268/268 230/230/230
