g Rocks_Small_016
v 0.95424724 0.53144413 -0.89806503
v 0.8883078 0.7659504 -0.89806503
v 0.7256967 0.8386893 -0.89806503
v 0.8337979 -0.946343 -0.89806503
v 0.77462494 -1.0148331 -0.89806503
v 0.8340109 -1.0147552 -0.89806503
v 0.63373506 -1.0691481 -0.89806503
v 0.77577055 -1.0704942 -0.89806503
v -0.27160308 -1.0934595 -0.89806503
v -0.35500762 -1.0256793 -0.89806503
v -0.35529083 -1.0928805 -0.89806503
v -0.2718106 -1.156615 -0.89806503
v 0.63348114 -1.1558881 -0.89806503
v -0.7237057 -0.95650184 -0.89806503
v -0.7237051 -1.0255111 -0.89806503
v 0.77462494 -1.0148331 -0.89806503
v -0.90460235 -0.46329856 -0.89806503
v -0.35500762 -1.0256793 -0.89806503
v 0.8910373 -0.39021873 -0.89806503
v -0.8403085 -0.83730304 -0.89806503
v -0.84037197 -0.9571526 -0.89806503
v -0.90541774 -0.83684194 -0.89806503
v 0.95475364 -0.33407006 -0.89806503
v 0.9547532 -0.38804525 -0.89806503
v 0.95424724 0.53144413 -0.89806503
v 1.0380528 0.5307337 -0.89806503
v 1.0375173 -0.33406973 -0.89806503
v -0.77940273 0.5328727 -0.89806503
v -0.7225888 0.5932264 -0.89806503
v -0.7794003 0.59147775 -0.89806503
v -0.89819306 0.46566686 -0.89806503
v -0.89818937 0.5328724 -0.89806503
v 0.7256967 0.8386893 -0.89806503
v 0.3420688 0.8980875 -0.89806503
v 0.7257004 0.8980436 -0.89806503
v 0.2720358 0.9716773 -0.89806503
v 0.3432443 0.9718735 -0.89806503
v 0.14052704 1.0983014 -0.89806503
v 0.27246568 1.0988605 -0.89806503
v -0.4683084 1.0977423 -0.89806503
v 0.14052704 1.1566154 -0.89806503
v -0.4683084 1.1560563 -0.89806503
v -0.66250515 1.0280616 -0.89806503
v -0.72215056 1.0280616 -0.89806503
v -0.6538565 1.0977423 -0.89806503
v 0.95427305 0.76595193 -0.89806503
v 0.8883078 0.7659504 -0.89806503
v 0.88614714 0.8391126 -0.89806503
v -0.96130764 -0.3958727 -0.89806503
v -0.89819306 0.46566686 -0.89806503
v -0.9541763 0.39481115 -0.89806503
v -0.9541763 0.39481115 -0.89806503
v -0.89819306 0.46566686 -0.89806503
v -0.95338714 0.4702442 -0.89806503
v -0.90460235 -0.46329856 -0.89806503
v -0.89819306 0.46566686 -0.89806503
v -0.96130764 -0.3958727 -0.89806503
v 0.9542472 0.53144383 0.89806485
v 0.7256967 0.8386893 0.89806485
v 0.8883078 0.7659501 0.89806485
v -0.96130764 -0.3958732 0.89806503
v -0.9541763 0.39481115 0.89806503
v -0.89819306 0.46566686 0.89806503
v -0.9541763 0.39481115 0.89806503
v -0.95338714 0.4702439 0.89806503
v -0.89819306 0.46566686 0.89806503
v -0.90460265 -0.463299 0.89806503
v -0.96130764 -0.3958732 0.89806503
v -0.89819306 0.46566686 0.89806503
v -0.9612796 -0.46320397 -0.89806503
v -0.96130764 -0.3958727 -0.89806503
v -0.9541763 0.39481115 -0.89806503
v -1.0380533 -0.3958727 -0.89806503
v -1.0301236 0.39481115 -0.89806503
v 0.8337979 -0.946343 -0.89806503
v 0.8903122 -0.94631886 -0.89806503
v 0.77462494 -1.0148331 -0.89806503
v 0.3420688 0.8980875 -0.89806503
v 0.34206846 0.8980872 0.89806485
v 0.3432443 0.9718735 -0.89806503
v 0.34324402 0.9718735 0.89806485
v 1.0380528 0.5307337 -0.89806503
v 1.0380527 0.5307334 0.89806485
v 0.9542472 0.53144383 0.89806485
v 0.95424724 0.53144413 -0.89806503
v -0.8403085 -0.83730304 -0.89806503
v -0.8403085 -0.8373037 0.89806503
v -0.84037197 -0.9571529 0.89806503
v -0.84037197 -0.9571526 -0.89806503
v -0.84037197 -0.9571526 -0.89806503
v -0.84037197 -0.9571529 0.89806503
v -0.7237057 -0.95650196 0.89806503
v -0.7237057 -0.95650184 -0.89806503
v 0.9547532 -0.38804525 -0.89806503
v 0.9547532 -0.38804573 0.89806503
v 0.9547536 -0.33407035 0.89806503
v 0.95475364 -0.33407006 -0.89806503
v 0.8910373 -0.39021873 -0.89806503
v 0.8910373 -0.39021918 0.89806503
v 0.9547532 -0.38804525 -0.89806503
v 0.9547532 -0.38804573 0.89806503
v 1.0375173 -0.33406973 -0.89806503
v 1.0376797 -0.3340702 0.89806503
v 1.0380527 0.5307334 0.89806485
v 1.0380528 0.5307337 -0.89806503
v 0.95475364 -0.33407006 -0.89806503
v 0.9547536 -0.33407035 0.89806503
v 1.0376797 -0.3340702 0.89806503
v 1.0375173 -0.33406973 -0.89806503
v -0.89819306 0.46566686 -0.89806503
v -0.89819306 0.46566686 0.89806503
v -0.95338714 0.4702439 0.89806503
v -0.95338714 0.4702442 -0.89806503
v -0.90541774 -0.83684194 -0.89806503
v -0.90541774 -0.83684254 0.89806503
v -0.8403085 -0.8373037 0.89806503
v -0.8403085 -0.83730304 -0.89806503
v -0.35529083 -1.0928805 -0.89806503
v -0.35529083 -1.092881 0.89806503
v -0.27160308 -1.0934598 0.89806503
v -0.27160308 -1.0934595 -0.89806503
v -0.35500762 -1.0256793 -0.89806503
v -0.35500762 -1.0256797 0.89806503
v -0.35529083 -1.092881 0.89806503
v -0.35529083 -1.0928805 -0.89806503
v -0.7237051 -1.0255111 -0.89806503
v -0.7237051 -1.0255116 0.89806503
v -0.35500762 -1.0256797 0.89806503
v -0.35500762 -1.0256793 -0.89806503
v -0.7237057 -0.95650184 -0.89806503
v -0.7237057 -0.95650196 0.89806503
v -0.7237051 -1.0255116 0.89806503
v -0.7237051 -1.0255111 -0.89806503
v 0.95424724 0.53144413 -0.89806503
v 0.9542472 0.53144383 0.89806485
v 0.954273 0.76595193 0.89806485
v 0.95427305 0.76595193 -0.89806503
v 0.95427305 0.76595193 -0.89806503
v 0.954273 0.76595193 0.89806485
v 0.8883078 0.7659501 0.89806485
v 0.8883078 0.7659504 -0.89806503
v -0.7794003 0.59147775 -0.89806503
v -0.7794003 0.5914774 0.89806503
v -0.77940273 0.5328724 0.89806503
v -0.77940273 0.5328727 -0.89806503
v -0.7225888 0.5932264 -0.89806503
v -0.7225888 0.5932261 0.89806503
v -0.7794003 0.5914774 0.89806503
v -0.7794003 0.59147775 -0.89806503
v -0.89818937 0.5328724 -0.89806503
v -0.89818937 0.5328721 0.89806503
v -0.89819306 0.46566686 0.89806503
v -0.89819306 0.46566686 -0.89806503
v -0.77940273 0.5328727 -0.89806503
v -0.77940273 0.5328724 0.89806503
v -0.89818937 0.5328721 0.89806503
v -0.89818937 0.5328724 -0.89806503
v 0.7257004 0.8980436 -0.89806503
v 0.7257004 0.8980436 0.89806485
v 0.34206846 0.8980872 0.89806485
v 0.3420688 0.8980875 -0.89806503
v 0.7256967 0.8386893 -0.89806503
v 0.7256967 0.8386893 0.89806485
v 0.7257004 0.8980436 0.89806485
v 0.7257004 0.8980436 -0.89806503
v 0.88614714 0.8391126 -0.89806503
v 0.88614714 0.8391123 0.89806485
v 0.7256967 0.8386893 0.89806485
v 0.7256967 0.8386893 -0.89806503
v 0.8883078 0.7659504 -0.89806503
v 0.8883078 0.7659501 0.89806485
v 0.88614714 0.8391123 0.89806485
v 0.88614714 0.8391126 -0.89806503
v 0.8340109 -1.0147552 -0.89806503
v 0.8340106 -1.0147556 0.89806503
v 0.8337979 -0.9463433 0.89806503
v 0.8337979 -0.946343 -0.89806503
v 0.77462494 -1.0148331 -0.89806503
v 0.77462465 -1.0148335 0.89806503
v 0.8340106 -1.0147556 0.89806503
v 0.8340109 -1.0147552 -0.89806503
v 0.8903122 -0.94631886 -0.89806503
v 0.8903122 -0.94631916 0.89806503
v 0.8910373 -0.39021918 0.89806503
v 0.8910373 -0.39021873 -0.89806503
v 0.8337979 -0.946343 -0.89806503
v 0.8337979 -0.9463433 0.89806503
v 0.8903122 -0.94631916 0.89806503
v 0.8903122 -0.94631886 -0.89806503
v -0.2718106 -1.156615 -0.89806503
v -0.2718106 -1.1566154 0.89806503
v 0.63348114 -1.1558884 0.89806503
v 0.63348114 -1.1558881 -0.89806503
v 0.63348114 -1.1558881 -0.89806503
v 0.63348114 -1.1558884 0.89806503
v 0.63373506 -1.0691484 0.89806503
v 0.63373506 -1.0691481 -0.89806503
v -0.27160308 -1.0934595 -0.89806503
v -0.27160308 -1.0934598 0.89806503
v -0.2718106 -1.1566154 0.89806503
v -0.2718106 -1.156615 -0.89806503
v 0.77577055 -1.0704942 -0.89806503
v 0.77577055 -1.0704945 0.89806503
v 0.77462465 -1.0148335 0.89806503
v 0.77462494 -1.0148331 -0.89806503
v 0.63373506 -1.0691481 -0.89806503
v 0.63373506 -1.0691484 0.89806503
v 0.77577055 -1.0704945 0.89806503
v 0.77577055 -1.0704942 -0.89806503
v 0.2720358 0.9716773 -0.89806503
v 0.2720358 0.971677 0.89806485
v 0.2724655 1.0988603 0.89806485
v 0.27246568 1.0988605 -0.89806503
v -0.4683084 1.1560563 -0.89806503
v -0.46830872 1.1560559 0.89806485
v -0.46830872 1.0977421 0.89806485
v -0.4683084 1.0977423 -0.89806503
v 0.14052704 1.1566154 -0.89806503
v 0.14052704 1.156615 0.89806485
v -0.46830872 1.1560559 0.89806485
v -0.4683084 1.1560563 -0.89806503
v 0.27246568 1.0988605 -0.89806503
v 0.2724655 1.0988603 0.89806485
v 0.14052704 1.0983012 0.89806485
v 0.14052704 1.0983014 -0.89806503
v 0.14052704 1.0983014 -0.89806503
v 0.14052704 1.0983012 0.89806485
v 0.14052704 1.156615 0.89806485
v 0.14052704 1.1566154 -0.89806503
v -0.4683084 1.0977423 -0.89806503
v -0.46830872 1.0977421 0.89806485
v -0.6538568 1.0977421 0.89806485
v -0.6538565 1.0977423 -0.89806503
v -0.6538565 1.0977423 -0.89806503
v -0.6538568 1.0977421 0.89806485
v -0.66250515 1.0280613 0.89806485
v -0.66250515 1.0280616 -0.89806503
v -0.66250515 1.0280616 -0.89806503
v -0.66250515 1.0280613 0.89806485
v -0.72215056 1.0280613 0.89806485
v -0.72215056 1.0280616 -0.89806503
v -0.72215056 1.0280616 -0.89806503
v -0.72215056 1.0280613 0.89806485
v -0.7225888 0.5932261 0.89806503
v -0.7225888 0.5932264 -0.89806503
v 0.3432443 0.9718735 -0.89806503
v 0.34324402 0.9718735 0.89806485
v 0.2720358 0.971677 0.89806485
v 0.2720358 0.9716773 -0.89806503
v -0.95338714 0.4702442 -0.89806503
v -0.95338714 0.4702439 0.89806503
v -0.9541763 0.39481115 0.89806503
v -0.9541763 0.39481115 -0.89806503
v -1.0380533 -0.3958727 -0.89806503
v -1.0380533 -0.3958732 0.89806503
v -0.96130764 -0.3958732 0.89806503
v -0.96130764 -0.3958727 -0.89806503
v -0.9541763 0.39481115 -0.89806503
v -0.9541763 0.39481115 0.89806503
v -1.0301236 0.39481115 0.89806503
v -1.0301236 0.39481115 -0.89806503
v -1.0301236 0.39481115 -0.89806503
v -1.0301236 0.39481115 0.89806503
v -1.0380533 -0.3958732 0.89806503
v -1.0380533 -0.3958727 -0.89806503
v -0.96130764 -0.3958727 -0.89806503
v -0.96130764 -0.3958732 0.89806503
v -0.96127987 -0.4632044 0.89806503
v -0.9612796 -0.46320397 -0.89806503
v -0.9612796 -0.46320397 -0.89806503
v -0.96127987 -0.4632044 0.89806503
v -0.90460235 -0.46329856 -0.89806503
v -0.90460265 -0.463299 0.89806503
v -0.90460235 -0.46329856 -0.89806503
v -0.90460265 -0.463299 0.89806503
v -0.90541774 -0.83684254 0.89806503
v -0.90541774 -0.83684194 -0.89806503
v -0.84037197 -0.9571529 0.89806503
v -0.8403085 -0.8373037 0.89806503
v -0.7237057 -0.95650196 0.89806503
v -0.90460265 -0.463299 0.89806503
v -0.90541774 -0.83684254 0.89806503
v -0.35500762 -1.0256797 0.89806503
v -0.35500762 -1.0256797 0.89806503
v -0.7237051 -1.0255116 0.89806503
v 0.77462465 -1.0148335 0.89806503
v -0.27160308 -1.0934598 0.89806503
v -0.35529083 -1.092881 0.89806503
v 0.63373506 -1.0691484 0.89806503
v -0.2718106 -1.1566154 0.89806503
v 0.63348114 -1.1558884 0.89806503
v 0.77577055 -1.0704945 0.89806503
v 0.8910373 -0.39021918 0.89806503
v 0.8337979 -0.9463433 0.89806503
v 0.8340106 -1.0147556 0.89806503
v 0.8903122 -0.94631916 0.89806503
v 0.9547536 -0.33407035 0.89806503
v 0.9547532 -0.38804573 0.89806503
v 0.9542472 0.53144383 0.89806485
v 1.0380527 0.5307334 0.89806485
v 1.0376797 -0.3340702 0.89806503
v -0.77940273 0.5328724 0.89806503
v -0.7225888 0.5932261 0.89806503
v -0.7794003 0.5914774 0.89806503
v -0.89819306 0.46566686 0.89806503
v -0.89818937 0.5328721 0.89806503
v 0.7256967 0.8386893 0.89806485
v 0.34206846 0.8980872 0.89806485
v 0.7257004 0.8980436 0.89806485
v 0.2720358 0.971677 0.89806485
v 0.34324402 0.9718735 0.89806485
v 0.14052704 1.0983012 0.89806485
v 0.2724655 1.0988603 0.89806485
v -0.46830872 1.0977421 0.89806485
v 0.14052704 1.156615 0.89806485
v -0.46830872 1.1560559 0.89806485
v -0.66250515 1.0280613 0.89806485
v -0.72215056 1.0280613 0.89806485
v -0.6538568 1.0977421 0.89806485
v 0.954273 0.76595193 0.89806485
v 0.8883078 0.7659501 0.89806485
v 0.88614714 0.8391123 0.89806485
v -0.96127987 -0.4632044 0.89806503
v -0.96130764 -0.3958732 0.89806503
v -1.0380533 -0.3958732 0.89806503
v -0.9541763 0.39481115 0.89806503
v -1.0301236 0.39481115 0.89806503
vt 0.7885742 0.8647461
vt 0.79052734 0.8803711
vt 0.7998047 0.88427734
vt 0.796875 0.7705078
vt 0.80078125 0.76660156
vt 0.796875 0.76660156
vt 0.8100586 0.7626953
vt 0.80078125 0.7626953
vt 0.8671875 0.7626953
vt 0.8725586 0.76660156
vt 0.8725586 0.7626953
vt 0.8676758 0.7583008
vt 0.8100586 0.7583008
vt 0.89404297 0.77197266
vt 0.89404297 0.76660156
vt 0.80078125 0.76660156
vt 0.9057617 0.80371094
vt 0.8725586 0.76660156
vt 0.79296875 0.8022461
vt 0.90185547 0.77978516
vt 0.90185547 0.77246094
vt 0.9057617 0.77978516
vt 0.7885742 0.80859375
vt 0.7885742 0.8022461
vt 0.7885742 0.8647461
vt 0.78222656 0.8647461
vt 0.78222656 0.80859375
vt 0.89697266 0.8652344
vt 0.8930664 0.8691406
vt 0.89697266 0.8691406
vt 0.90527344 0.8613281
vt 0.90527344 0.8652344
vt 0.7998047 0.88427734
vt 0.8251953 0.8876953
vt 0.7998047 0.8876953
vt 0.8310547 0.8925781
vt 0.8251953 0.8925781
vt 0.8383789 0.9003906
vt 0.8310547 0.9003906
vt 0.87646484 0.9003906
vt 0.8383789 0.9042969
vt 0.87646484 0.9042969
vt 0.88916016 0.8964844
vt 0.8930664 0.8964844
vt 0.88916016 0.9003906
vt 0.7885742 0.8803711
vt 0.79052734 0.8803711
vt 0.7910156 0.88427734
vt 0.91015625 0.8076172
vt 0.90527344 0.8613281
vt 0.9086914 0.85791016
vt 0.9086914 0.85791016
vt 0.90527344 0.8613281
vt 0.9086914 0.8613281
vt 0.9057617 0.80371094
vt 0.90527344 0.8613281
vt 0.91015625 0.8076172
vt 0.7885742 0.8647461
vt 0.7998047 0.88427734
vt 0.79052734 0.8803711
vt 0.91015625 0.8076172
vt 0.9086914 0.85791016
vt 0.90527344 0.8613281
vt 0.9086914 0.85791016
vt 0.9086914 0.8613281
vt 0.90527344 0.8613281
vt 0.9057617 0.80371094
vt 0.91015625 0.8076172
vt 0.90527344 0.8613281
vt 0.91015625 0.80371094
vt 0.91015625 0.8076172
vt 0.9086914 0.85791016
vt 0.9140625 0.8076172
vt 0.9140625 0.85791016
vt 0.796875 0.7705078
vt 0.79296875 0.7705078
vt 0.80078125 0.76660156
vt 0.8076172 0.9223633
vt 0.8076172 0.98876953
vt 0.8125 0.9223633
vt 0.8125 0.98876953
vt 0.76464844 0.8613281
vt 0.6928711 0.8613281
vt 0.6928711 0.8666992
vt 0.76464844 0.8666992
vt 0.9213867 0.7675781
vt 0.99316406 0.7675781
vt 0.99316406 0.7597656
vt 0.9213867 0.7597656
vt 0.9213867 0.7597656
vt 0.99316406 0.7597656
vt 0.99316406 0.7524414
vt 0.9213867 0.7524414
vt 0.76464844 0.79785156
vt 0.6928711 0.79785156
vt 0.6928711 0.80126953
vt 0.76464844 0.80126953
vt 0.76464844 0.79345703
vt 0.6928711 0.79345703
vt 0.76464844 0.79785156
vt 0.6928711 0.79785156
vt 0.76464844 0.80615234
vt 0.6928711 0.80615234
vt 0.6928711 0.8613281
vt 0.76464844 0.8613281
vt 0.76464844 0.80126953
vt 0.6928711 0.80126953
vt 0.6928711 0.80615234
vt 0.76464844 0.80615234
vt 0.9213867 0.87158203
vt 0.99316406 0.87158203
vt 0.99316406 0.86816406
vt 0.9213867 0.86816406
vt 0.9213867 0.7714844
vt 0.99316406 0.7714844
vt 0.99316406 0.7675781
vt 0.9213867 0.7675781
vt 0.8774414 0.74316406
vt 0.8774414 0.67626953
vt 0.8725586 0.67626953
vt 0.8725586 0.74316406
vt 0.88183594 0.74316406
vt 0.88183594 0.67626953
vt 0.8774414 0.67626953
vt 0.8774414 0.74316406
vt 0.90527344 0.74316406
vt 0.90527344 0.67626953
vt 0.88183594 0.67626953
vt 0.88183594 0.74316406
vt 0.90966797 0.74316406
vt 0.90966797 0.67626953
vt 0.90527344 0.67626953
vt 0.90527344 0.74316406
vt 0.76464844 0.8666992
vt 0.6928711 0.8666992
vt 0.6928711 0.88183594
vt 0.76464844 0.88183594
vt 0.7607422 0.9223633
vt 0.7607422 0.98876953
vt 0.76464844 0.98876953
vt 0.76464844 0.9223633
vt 0.9213867 0.88720703
vt 0.99316406 0.88720703
vt 0.99316406 0.8833008
vt 0.9213867 0.8833008
vt 0.9213867 0.8911133
vt 0.99316406 0.8911133
vt 0.99316406 0.88720703
vt 0.9213867 0.88720703
vt 0.9213867 0.87597656
vt 0.99316406 0.87597656
vt 0.99316406 0.87158203
vt 0.9213867 0.87158203
vt 0.9213867 0.8833008
vt 0.99316406 0.8833008
vt 0.99316406 0.87597656
vt 0.9213867 0.87597656
vt 0.7832031 0.9223633
vt 0.7832031 0.98876953
vt 0.8076172 0.98876953
vt 0.8076172 0.9223633
vt 0.77978516 0.9223633
vt 0.77978516 0.98876953
vt 0.7832031 0.98876953
vt 0.7832031 0.9223633
vt 0.76953125 0.9223633
vt 0.76953125 0.98876953
vt 0.77978516 0.98876953
vt 0.77978516 0.9223633
vt 0.76464844 0.9223633
vt 0.76464844 0.98876953
vt 0.76953125 0.98876953
vt 0.76953125 0.9223633
vt 0.7890625 0.74316406
vt 0.7890625 0.67626953
vt 0.78466797 0.67626953
vt 0.78466797 0.74316406
vt 0.79248047 0.74316406
vt 0.79248047 0.67626953
vt 0.7890625 0.67626953
vt 0.7890625 0.74316406
vt 0.76464844 0.7583008
vt 0.6928711 0.7583008
vt 0.6928711 0.79345703
vt 0.76464844 0.79345703
vt 0.78466797 0.74316406
vt 0.78466797 0.67626953
vt 0.7807617 0.67626953
vt 0.7807617 0.74316406
vt 0.86816406 0.74316406
vt 0.86816406 0.67626953
vt 0.8105469 0.67626953
vt 0.8105469 0.74316406
vt 0.8105469 0.74316406
vt 0.8105469 0.67626953
vt 0.8051758 0.67626953
vt 0.8051758 0.74316406
vt 0.8725586 0.74316406
vt 0.8725586 0.67626953
vt 0.86816406 0.67626953
vt 0.86816406 0.74316406
vt 0.7963867 0.74316406
vt 0.7963867 0.67626953
vt 0.79248047 0.67626953
vt 0.79248047 0.74316406
vt 0.8051758 0.74316406
vt 0.8051758 0.67626953
vt 0.7963867 0.67626953
vt 0.7963867 0.74316406
vt 0.81689453 0.9223633
vt 0.81689453 0.98876953
vt 0.8251953 0.98876953
vt 0.8251953 0.9223633
vt 0.87597656 0.9223633
vt 0.87597656 0.98876953
vt 0.8798828 0.98876953
vt 0.8798828 0.9223633
vt 0.83740234 0.9223633
vt 0.83740234 0.98876953
vt 0.87597656 0.98876953
vt 0.87597656 0.9223633
vt 0.8251953 0.9223633
vt 0.8251953 0.98876953
vt 0.8334961 0.98876953
vt 0.8334961 0.9223633
vt 0.8334961 0.9223633
vt 0.8334961 0.98876953
vt 0.83740234 0.98876953
vt 0.83740234 0.9223633
vt 0.8798828 0.9223633
vt 0.8798828 0.98876953
vt 0.89160156 0.98876953
vt 0.89160156 0.9223633
vt 0.89160156 0.9223633
vt 0.89160156 0.98876953
vt 0.8959961 0.98876953
vt 0.8959961 0.9223633
vt 0.8959961 0.9223633
vt 0.8959961 0.98876953
vt 0.89990234 0.98876953
vt 0.89990234 0.9223633
vt 0.9213867 0.91845703
vt 0.99316406 0.91845703
vt 0.99316406 0.8911133
vt 0.9213867 0.8911133
vt 0.8125 0.9223633
vt 0.8125 0.98876953
vt 0.81689453 0.98876953
vt 0.81689453 0.9223633
vt 0.9213867 0.86816406
vt 0.99316406 0.86816406
vt 0.99316406 0.86328125
vt 0.9213867 0.86328125
vt 0.9213867 0.80810547
vt 0.99316406 0.80810547
vt 0.99316406 0.80322266
vt 0.9213867 0.80322266
vt 0.9213867 0.86328125
vt 0.99316406 0.86328125
vt 0.99316406 0.85839844
vt 0.9213867 0.85839844
vt 0.9213867 0.85839844
vt 0.99316406 0.85839844
vt 0.99316406 0.80810547
vt 0.9213867 0.80810547
vt 0.9213867 0.80322266
vt 0.99316406 0.80322266
vt 0.99316406 0.7993164
vt 0.9213867 0.7993164
vt 0.9213867 0.7993164
vt 0.99316406 0.7993164
vt 0.9213867 0.79541016
vt 0.99316406 0.79541016
vt 0.9213867 0.79541016
vt 0.99316406 0.79541016
vt 0.99316406 0.7714844
vt 0.9213867 0.7714844
vt 0.90185547 0.77246094
vt 0.90185547 0.77978516
vt 0.89404297 0.77197266
vt 0.9057617 0.80371094
vt 0.9057617 0.77978516
vt 0.8725586 0.76660156
vt 0.8725586 0.76660156
vt 0.89404297 0.76660156
vt 0.80078125 0.76660156
vt 0.8671875 0.7626953
vt 0.8725586 0.7626953
vt 0.8100586 0.7626953
vt 0.8676758 0.7583008
vt 0.8100586 0.7583008
vt 0.80078125 0.7626953
vt 0.79296875 0.8022461
vt 0.796875 0.7705078
vt 0.796875 0.76660156
vt 0.79296875 0.7705078
vt 0.7885742 0.80859375
vt 0.7885742 0.8022461
vt 0.7885742 0.8647461
vt 0.78222656 0.8647461
vt 0.78222656 0.80859375
vt 0.89697266 0.8652344
vt 0.8930664 0.8691406
vt 0.89697266 0.8691406
vt 0.90527344 0.8613281
vt 0.90527344 0.8652344
vt 0.7998047 0.88427734
vt 0.8251953 0.8876953
vt 0.7998047 0.8876953
vt 0.8310547 0.8925781
vt 0.8251953 0.8925781
vt 0.8383789 0.9003906
vt 0.8310547 0.9003906
vt 0.87646484 0.9003906
vt 0.8383789 0.9042969
vt 0.87646484 0.9042969
vt 0.88916016 0.8964844
vt 0.8930664 0.8964844
vt 0.88916016 0.9003906
vt 0.7885742 0.8803711
vt 0.79052734 0.8803711
vt 0.7910156 0.88427734
vt 0.91015625 0.80371094
vt 0.91015625 0.8076172
vt 0.9140625 0.8076172
vt 0.9086914 0.85791016
vt 0.9140625 0.85791016
vn 1.7881393E-07 3.5762787E-07 -1
vn 1.7881393E-07 3.5762787E-07 -1
vn 1.7881393E-07 3.5762787E-07 -1
vn -0 0 -1
vn -0 0 -1
vn -0 0 -1
vn -0 0 -1
vn -0 0 -1
vn -0 0 -1
vn -0 0 -1
vn -0 0 -1
vn -0 0 -1
vn -0 0 -1
vn -0 0 -1
vn -0 0 -1
vn -0 0 -1
vn -0 0 -1
vn -0 0 -1
vn -0 0 -1
vn -0 0 -1
vn -0 0 -1
vn -0 0 -1
vn -0 0 -1
vn -0 0 -1
vn -1.1324883E-06 0 -1
vn 4.7683716E-07 0 -1
vn 4.7683716E-07 0 -1
vn -0 0 -1
vn -0 0 -1
vn -0 0 -1
vn -0 0 -1
vn -0 0 -1
vn -0 2.3841858E-07 -1
vn -0 0 -1
vn -0 0 -1
vn -0 0 -1
vn -0 0 -1
vn -0 0 -1
vn -0 0 -1
vn -0 0 -1
vn -0 0 -1
vn -0 0 -1
vn -0 0 -1
vn -0 0 -1
vn -0 0 -1
vn -1.1324883E-06 0 -1
vn -1.1324883E-06 0 -1
vn -0 0 -1
vn -1.1920929E-07 0 -1
vn -1.1920929E-07 0 -1
vn -1.1920929E-07 0 -1
vn -0 0 -1
vn -0 0 -1
vn -0 0 -1
vn -0 0 -1
vn -0 0 -1
vn -0 0 -1
vn -0 0 1
vn -0 0 1
vn -0 0 1
vn 1.1920929E-07 0 1
vn 1.1920929E-07 0 1
vn 1.1920929E-07 0 1
vn -0 0 1
vn -0 0 1
vn -0 0 1
vn -0 0 1
vn -0 0 1
vn -0 0 1
vn -0 0 -1
vn -0 0 -1
vn -0 0 -1
vn -0 0 -1
vn -0 0 -1
vn -0 0 -1
vn -0 0 -1
vn -0 0 -1
vn 1 -0.015930176 1.7881393E-07
vn 1 -0.015930176 1.7881393E-07
vn 1 -0.015930176 1.7881393E-07
vn 1 -0.015930176 1.7881393E-07
vn 0.008476257 1 1.7881393E-07
vn 0.008476257 1 1.7881393E-07
vn 0.008476257 1 1.7881393E-07
vn 0.008476257 1 1.7881393E-07
vn -1 0.0005297661 0
vn -1 0.0005297661 0
vn -1 0.0005297661 0
vn -1 0.0005297661 0
vn 0.0055770874 -1 -1.1920929E-07
vn 0.0055770874 -1 -1.1920929E-07
vn 0.0055770874 -1 -1.1920929E-07
vn 0.0055770874 -1 -1.1920929E-07
vn 1 -6.377697E-06 0
vn 1 -6.377697E-06 0
vn 1 -6.377697E-06 0
vn 1 -6.377697E-06 0
vn 0.034088135 -0.9995117 -2.3841858E-07
vn 0.034088135 -0.9995117 -2.3841858E-07
vn 0.034088135 -0.9995117 -2.3841858E-07
vn 0.034088135 -0.9995117 -2.3841858E-07
vn 1 -0.00052547455 -4.518032E-05
vn 1 -0.00052547455 -4.518032E-05
vn 1 -0.00052547455 -4.518032E-05
vn 1 -0.00052547455 -4.518032E-05
vn 2.7418137E-06 -1 -2.3841858E-07
vn 2.7418137E-06 -1 -2.3841858E-07
vn 2.7418137E-06 -1 -2.3841858E-07
vn 2.7418137E-06 -1 -2.3841858E-07
vn 0.0826416 0.99658203 0
vn 0.0826416 0.99658203 0
vn 0.0826416 0.99658203 0
vn 0.0826416 0.99658203 1.7881393E-07
vn -0.007083893 -1 -3.5762787E-07
vn -0.007083893 -1 -3.5762787E-07
vn -0.007083893 -1 -3.5762787E-07
vn -0.007083893 -1 -3.5762787E-07
vn -0.006916046 -1 -2.3841858E-07
vn -0.006916046 -1 -2.3841858E-07
vn -0.006916046 -1 -2.3841858E-07
vn -0.006916046 -1 -2.3841858E-07
vn -1 0.0042152405 0
vn -1 0.0042152405 0
vn -1 0.0042152405 0
vn -1 0.0042152405 0
vn -0.00045609474 -1 -2.3841858E-07
vn -0.00045609474 -1 -2.3841858E-07
vn -0.00045609474 -1 -2.3841858E-07
vn -0.00045609474 -1 -2.3841858E-07
vn -1 -8.821487E-06 0
vn -1 -8.821487E-06 0
vn -1 -8.821487E-06 0
vn -1 -8.821487E-06 0
vn 1 -0.00010997057 0
vn 1 -0.00010997057 0
vn 1 -0.00010997057 0
vn 1 -0.00010997057 0
vn -2.5451183E-05 1 0
vn -2.5451183E-05 1 0
vn -2.5451183E-05 1 0
vn -2.5451183E-05 1 0
vn -1 4.1663647E-05 0
vn -1 4.1663647E-05 0
vn -1 4.1663647E-05 0
vn -1 4.1663647E-05 0
vn -0.030761719 0.9995117 1.7881393E-07
vn -0.030761719 0.9995117 1.7881393E-07
vn -0.030761719 0.9995117 1.7881393E-07
vn -0.030761719 0.9995117 1.7881393E-07
vn -1 5.4478645E-05 0
vn -1 5.4478645E-05 0
vn -1 5.4478645E-05 0
vn -1 5.4478645E-05 0
vn -2.5629997E-06 1 1.7881393E-07
vn -2.5629997E-06 1 1.7881393E-07
vn -2.5629997E-06 1 1.7881393E-07
vn -2.5629997E-06 1 1.7881393E-07
vn 0.000114142895 1 0
vn 0.000114142895 1 0
vn 0.000114142895 1 0
vn 0.000114142895 1 0
vn 1 -6.169081E-05 0
vn 1 -6.169081E-05 0
vn 1 -6.169081E-05 0
vn 1 -6.169081E-05 0
vn -0.0026378632 1 0
vn -0.0026378632 1 0
vn -0.0026378632 1 0
vn -0.0026378632 1 0
vn 0.9995117 0.029525757 0
vn 0.9995117 0.029525757 0
vn 0.9995117 0.029525757 0
vn 0.9995117 0.029525757 0
vn 1 0.0031108856 0
vn 1 0.0031108856 0
vn 1 0.0031108856 0
vn 1 0.0031108856 0
vn 0.0013113022 -1 -2.3841858E-07
vn 0.0013113022 -1 -2.3841858E-07
vn 0.0013113022 -1 -2.3841858E-07
vn 0.0013113022 -1 -2.3841858E-07
vn 1 -0.0013036728 0
vn 1 -0.0013036728 0
vn 1 -0.0013036728 0
vn 1 -0.0013036728 0
vn 0.00042653084 -1 -1.7881393E-07
vn 0.00042653084 -1 -1.7881393E-07
vn 0.00042653084 -1 -1.7881393E-07
vn 0.00042653084 -1 -1.7881393E-07
vn 0.0008029938 -1 -2.3841858E-07
vn 0.0008029938 -1 -2.3841858E-07
vn 0.0008029938 -1 -2.3841858E-07
vn 0.0008029938 -1 -2.3841858E-07
vn 1 -0.0029277802 0
vn 1 -0.0029277802 0
vn 1 -0.0029277802 0
vn 1 -0.0029277802 0
vn -1 0.0032863617 0
vn -1 0.0032863617 0
vn -1 0.0032863617 0
vn -1 0.0032863617 0
vn 1 0.020584106 0
vn 1 0.020584106 0
vn 1 0.020584106 0
vn 1 0.020584106 0
vn -0.009475708 -1 -2.3841858E-07
vn -0.009475708 -1 -2.3841858E-07
vn -0.009475708 -1 -2.3841858E-07
vn -0.009475708 -1 -2.3841858E-07
vn 1 -0.0033798218 0
vn 1 -0.0033798218 0
vn 1 -0.0033798218 0
vn 1 -0.0033798218 0
vn -1 0 -1.7881393E-07
vn -1 0 -1.7881393E-07
vn -1 0 -1.7881393E-07
vn -1 0 -1.7881393E-07
vn -0.00091838837 1 1.7881393E-07
vn -0.00091838837 1 1.7881393E-07
vn -0.00091838837 1 1.7881393E-07
vn -0.00091838837 1 1.7881393E-07
vn -0.0042381287 1 1.7881393E-07
vn -0.0042381287 1 1.7881393E-07
vn -0.0042381287 1 1.7881393E-07
vn -0.0042381287 1 1.7881393E-07
vn 1 0 0
vn 1 0 0
vn 1 0 0
vn 1 0 0
vn -0 1 1.7881393E-07
vn -0 1 1.7881393E-07
vn -0 1 1.7881393E-07
vn -0 1 1.7881393E-07
vn -0.9921875 0.123168945 0
vn -0.9921875 0.123168945 0
vn -0.9921875 0.123168945 0
vn -0.9921875 0.123168945 0
vn -0 1 1.7881393E-07
vn -0 1 1.7881393E-07
vn -0 1 1.7881393E-07
vn -0 1 1.7881393E-07
vn -1 0.0010080338 0
vn -1 0.0010080338 0
vn -1 0.0010080338 0
vn -1 0.0010080338 0
vn -0.0027580261 1 0
vn -0.0027580261 1 0
vn -0.0027580261 1 0
vn -0.0027580261 1 0
vn -1 0.0104599 0
vn -1 0.0104599 0
vn -1 0.0104599 0
vn -1 0.0104599 0
vn -0 -1 -2.3841858E-07
vn -0 -1 -2.3841858E-07
vn -0 -1 -2.3841858E-07
vn -0 -1 -2.3841858E-07
vn -0 1 0
vn -0 1 0
vn -0 1 0
vn -0 1 0
vn -1 0.010025024 0
vn -1 0.010025024 0
vn -1 0.010025024 0
vn -1 0.010025024 0
vn -1 -0.00041246414 0
vn -1 -0.00041246414 0
vn -1 -0.00041246414 0
vn -1 -0.0004169941 -1.7881393E-07
vn -0.00166893 -1 -2.3841858E-07
vn -0.00166893 -1 -2.3841858E-07
vn -0.00166893 -1 -2.3841858E-07
vn -0.00166893 -1 -2.3841858E-07
vn -1 0.0021820068 0
vn -1 0.0021820068 0
vn -1 0.0021820068 0
vn -1 0.0021820068 0
vn -0 0 1
vn -0 0 1
vn -0 0 1
vn -0 0 1
vn -0 0 1
vn -0 0 1
vn -0 0 1
vn -0 0 1
vn -0 0 1
vn -0 0 1
vn -0 0 1
vn -0 0 1
vn -0 0 1
vn -0 0 1
vn -0 0 1
vn -0 0 1
vn -0 0 1
vn -0 0 1
vn -0 0 1
vn -0 0 1
vn -0 0 1
vn -0 0 1
vn -0 0 1
vn -0 0 1
vn -0 0 1
vn -0 0 1
vn -0 0 1
vn -0 0 1
vn -0 0 1
vn -0 0 1
vn -0 0 1
vn -0 0 1
vn -0 0 1
vn -0 0 1
vn -0 0 1
vn 1.1920929E-07 1.1920929E-07 1
vn -0 0 1
vn -0 0 1
vn -0 0 1
vn -0 0 1
vn -0 3.5762787E-07 1
vn -0 0 1
vn -0 0 1
vn -0 0 1
vn -0 0 1
vn -0 0 1
vn -0 0 1
vn -0 0 1
vn -0 0 1
vn -0 0 1
g Rocks_Small_016_0
f 3/3/3 2/2/2 1/1/1
f 6/6/6 5/5/5 4/4/4
f 8/8/8 7/7/7 5/5/5
f 5/5/5 7/7/7 9/9/9
f 5/5/5 9/9/9 10/10/10
f 9/9/9 11/11/11 10/10/10
f 12/12/12 9/9/9 7/7/7
f 12/12/12 7/7/7 13/13/13
f 15/15/15 14/14/14 10/10/10
f 17/17/17 16/16/16 10/10/10
f 17/17/17 18/18/18 14/14/14
f 19/19/19 16/16/16 17/17/17
f 20/20/20 17/17/17 14/14/14
f 20/20/20 14/14/14 21/21/21
f 22/22/22 17/17/17 20/20/20
f 19/19/19 17/17/17 23/23/23
f 24/24/24 19/19/19 23/23/23
f 23/23/23 17/17/17 25/25/25
f 23/23/23 25/25/25 26/26/26
f 27/27/27 23/23/23 26/26/26
f 17/17/17 28/28/28 25/25/25
f 28/28/28 29/29/29 25/25/25
f 28/28/28 30/30/30 29/29/29
f 31/31/31 28/28/28 17/17/17
f 31/31/31 32/32/32 28/28/28
f 29/29/29 33/33/33 25/25/25
f 34/34/34 33/33/33 29/29/29
f 35/35/35 33/33/33 34/34/34
f 34/34/34 29/29/29 36/36/36
f 37/37/37 34/34/34 36/36/36
f 29/29/29 38/38/38 36/36/36
f 38/38/38 39/39/39 36/36/36
f 40/40/40 38/38/38 29/29/29
f 40/40/40 41/41/41 38/38/38
f 42/42/42 41/41/41 40/40/40
f 43/43/43 40/40/40 29/29/29
f 29/29/29 44/44/44 43/43/43
f 43/43/43 45/45/45 40/40/40
f 25/25/25 47/47/47 46/46/46
f 48/48/48 47/47/47 33/33/33
f 51/51/51 50/50/50 49/49/49
f 54/54/54 53/53/53 52/52/52
f 57/57/57 56/56/56 55/55/55
f 60/60/60 59/59/59 58/58/58
f 63/63/63 62/62/62 61/61/61
f 66/66/66 65/65/65 64/64/64
f 69/69/69 68/68/68 67/67/67
f 71/71/71 17/17/17 70/70/70
f 73/73/73 72/72/72 71/71/71
f 73/73/73 74/74/74 72/72/72
f 76/76/76 75/75/75 19/19/19
f 75/75/75 77/77/77 19/19/19
f 80/80/80 79/79/79 78/78/78
f 81/81/81 79/79/79 80/80/80
f 84/84/84 83/83/83 82/82/82
f 85/85/85 84/84/84 82/82/82
f 88/88/88 87/87/87 86/86/86
f 89/89/89 88/88/88 86/86/86
f 92/92/92 91/91/91 90/90/90
f 93/93/93 92/92/92 90/90/90
f 96/96/96 95/95/95 94/94/94
f 97/97/97 96/96/96 94/94/94
f 100/100/100 99/99/99 98/98/98
f 101/101/101 99/99/99 100/100/100
f 104/104/104 103/103/103 102/102/102
f 105/105/105 104/104/104 102/102/102
f 108/108/108 107/107/107 106/106/106
f 109/109/109 108/108/108 106/106/106
f 112/112/112 111/111/111 110/110/110
f 113/113/113 112/112/112 110/110/110
f 116/116/116 115/115/115 114/114/114
f 117/117/117 116/116/116 114/114/114
f 120/120/120 119/119/119 118/118/118
f 121/121/121 120/120/120 118/118/118
f 124/124/124 123/123/123 122/122/122
f 125/125/125 124/124/124 122/122/122
f 128/128/128 127/127/127 126/126/126
f 129/129/129 128/128/128 126/126/126
f 132/132/132 131/131/131 130/130/130
f 133/133/133 132/132/132 130/130/130
f 136/136/136 135/135/135 134/134/134
f 137/137/137 136/136/136 134/134/134
f 140/140/140 139/139/139 138/138/138
f 141/141/141 140/140/140 138/138/138
f 144/144/144 143/143/143 142/142/142
f 145/145/145 144/144/144 142/142/142
f 148/148/148 147/147/147 146/146/146
f 149/149/149 148/148/148 146/146/146
f 152/152/152 151/151/151 150/150/150
f 153/153/153 152/152/152 150/150/150
f 156/156/156 155/155/155 154/154/154
f 157/157/157 156/156/156 154/154/154
f 160/160/160 159/159/159 158/158/158
f 161/161/161 160/160/160 158/158/158
f 164/164/164 163/163/163 162/162/162
f 165/165/165 164/164/164 162/162/162
f 168/168/168 167/167/167 166/166/166
f 169/169/169 168/168/168 166/166/166
f 172/172/172 171/171/171 170/170/170
f 173/173/173 172/172/172 170/170/170
f 176/176/176 175/175/175 174/174/174
f 177/177/177 176/176/176 174/174/174
f 180/180/180 179/179/179 178/178/178
f 181/181/181 180/180/180 178/178/178
f 184/184/184 183/183/183 182/182/182
f 185/185/185 184/184/184 182/182/182
f 188/188/188 187/187/187 186/186/186
f 189/189/189 188/188/188 186/186/186
f 192/192/192 191/191/191 190/190/190
f 193/193/193 192/192/192 190/190/190
f 196/196/196 195/195/195 194/194/194
f 197/197/197 196/196/196 194/194/194
f 200/200/200 199/199/199 198/198/198
f 201/201/201 200/200/200 198/198/198
f 204/204/204 203/203/203 202/202/202
f 205/205/205 204/204/204 202/202/202
f 208/208/208 207/207/207 206/206/206
f 209/209/209 208/208/208 206/206/206
f 212/212/212 211/211/211 210/210/210
f 213/213/213 212/212/212 210/210/210
f 216/216/216 215/215/215 214/214/214
f 217/217/217 216/216/216 214/214/214
f 220/220/220 219/219/219 218/218/218
f 221/221/221 220/220/220 218/218/218
f 224/224/224 223/223/223 222/222/222
f 225/225/225 224/224/224 222/222/222
f 228/228/228 227/227/227 226/226/226
f 229/229/229 228/228/228 226/226/226
f 232/232/232 231/231/231 230/230/230
f 233/233/233 232/232/232 230/230/230
f 236/236/236 235/235/235 234/234/234
f 237/237/237 236/236/236 234/234/234
f 240/240/240 239/239/239 238/238/238
f 241/241/241 240/240/240 238/238/238
f 244/244/244 243/243/243 242/242/242
f 245/245/245 244/244/244 242/242/242
f 248/248/248 247/247/247 246/246/246
f 249/249/249 248/248/248 246/246/246
f 252/252/252 251/251/251 250/250/250
f 253/253/253 252/252/252 250/250/250
f 256/256/256 255/255/255 254/254/254
f 257/257/257 256/256/256 254/254/254
f 260/260/260 259/259/259 258/258/258
f 261/261/261 260/260/260 258/258/258
f 264/264/264 263/263/263 262/262/262
f 265/265/265 264/264/264 262/262/262
f 268/268/268 267/267/267 266/266/266
f 269/269/269 268/268/268 266/266/266
f 272/272/272 271/271/271 270/270/270
f 273/273/273 271/271/271 272/272/272
f 276/276/276 275/275/275 274/274/274
f 277/277/277 276/276/276 274/274/274
f 280/280/280 279/279/279 278/278/278
f 281/281/281 279/279/279 280/280/280
f 281/281/281 282/282/282 279/279/279
f 283/283/283 281/281/281 280/280/280
f 280/280/280 285/285/285 284/284/284
f 286/286/286 281/281/281 284/284/284
f 287/287/287 286/286/286 284/284/284
f 288/288/288 287/287/287 284/284/284
f 289/289/289 286/286/286 287/287/287
f 287/287/287 290/290/290 289/289/289
f 289/289/289 290/290/290 291/291/291
f 289/289/289 292/292/292 286/286/286
f 286/286/286 293/293/293 281/281/281
f 286/286/286 294/294/294 293/293/293
f 286/286/286 295/295/295 294/294/294
f 294/294/294 296/296/296 293/293/293
f 281/281/281 293/293/293 297/297/297
f 293/293/293 298/298/298 297/297/297
f 281/281/281 297/297/297 299/299/299
f 300/300/300 299/299/299 297/297/297
f 301/301/301 300/300/300 297/297/297
f 302/302/302 281/281/281 299/299/299
f 303/303/303 302/302/302 299/299/299
f 304/304/304 302/302/302 303/303/303
f 302/302/302 305/305/305 281/281/281
f 306/306/306 305/305/305 302/302/302
f 307/307/307 303/303/303 299/299/299
f 307/307/307 308/308/308 303/303/303
f 307/307/307 309/309/309 308/308/308
f 303/303/303 308/308/308 310/310/310
f 308/308/308 311/311/311 310/310/310
f 303/303/303 310/310/310 312/312/312
f 310/310/310 313/313/313 312/312/312
f 312/312/312 314/314/314 303/303/303
f 315/315/315 314/314/314 312/312/312
f 315/315/315 316/316/316 314/314/314
f 314/314/314 317/317/317 303/303/303
f 318/318/318 303/303/303 317/317/317
f 319/319/319 317/317/317 314/314/314
f 321/321/321 299/299/299 320/320/320
f 321/321/321 322/322/322 307/307/307
f 281/281/281 324/324/324 323/323/323
f 326/326/326 325/325/325 324/324/324
f 327/327/327 325/325/325 326/326/326
