g Rocks_Small_007
v -0.623317 0.09876348 -0.9999999
v -0.6233365 -1.0565988 -0.9999999
v -0.5426545 -1.0577044 -0.99999976
v -0.5382179 0.098519534 -0.9999999
v 0.5885349 -0.79316646 -1
v -0.49659827 -1.1141863 -0.99999976
v -0.5426924 -1.1134986 -0.9999999
v 0.59525096 0.25627926 -1
v 0.6222525 -0.7925168 -1
v 0.62333107 0.25580934 -1
v 0.54860294 0.31174463 -1
v 0.5958027 0.3116087 -0.9999999
v -0.5378395 0.33967057 -0.9999999
v 0.536743 -1.06541 -0.9999999
v 0.59131706 -1.0658506 -1
v 0.4904045 0.7632321 -0.9999999
v 0.5501856 0.76252073 -1
v 0.48030913 -1.1160136 -1
v 0.5373012 -1.1153362 -1
v 0.42160895 -1.1685147 -1
v 0.48025805 -1.1686212 -0.9999999
v -0.44708025 -1.1685147 -0.9999999
v -0.49586305 -1.1685146 -0.9999999
v -0.44708028 -1.2170458 -0.9999999
v 0.42160898 -1.2193298 -1
v 0.4425551 1.048701 -1
v 0.49275467 1.0487378 -1
v -0.53390163 1.0492215 -0.9999999
v -0.6191799 1.0493163 -0.9999999
v -0.6191897 0.33930224 -0.9999999
v -0.4803037 1.1550934 -0.9999999
v -0.5336162 1.1550934 -0.9999999
v 0.38266155 1.1542611 -1
v 0.4429522 1.1538786 -1
v -0.4798526 1.2193257 -0.9999999
v 0.38276774 1.2176421 -1
v -0.5426543 -1.0577044 1
v -0.62333626 -1.0565988 1
v -0.62331676 0.098763496 1
v -0.53821766 0.09851954 1
v 0.58853513 -0.7931664 0.9999999
v -0.49659804 -1.1141863 1
v -0.5426921 -1.1134986 1
v 0.59525126 0.2562793 0.9999999
v 0.62225264 -0.7925168 0.9999999
v 0.6233314 0.25580937 0.9999999
v 0.5486032 0.31174463 0.9999999
v 0.5958031 0.31160873 0.9999999
v -0.53783923 0.33967057 1
v 0.5367435 -1.0654103 0.9999999
v 0.59131837 -1.0658505 0.9999999
v 0.49040473 0.7632321 0.9999999
v 0.55018586 0.76252073 0.9999999
v 0.48030937 -1.1160145 0.9999999
v 0.5373014 -1.1153374 0.9999999
v 0.4216092 -1.1685147 0.9999999
v 0.4802583 -1.1686212 0.9999999
v -0.44708008 -1.1685147 1
v -0.4958629 -1.1685147 1
v -0.44708008 -1.2170458 1
v 0.4216092 -1.2193297 0.9999999
v 0.44255537 1.048701 0.9999999
v 0.49275503 1.0487378 0.9999999
v -0.53390145 1.0492215 1
v -0.61917967 1.0493163 1
v -0.61918944 0.33930224 1
v -0.4803035 1.1550934 1
v -0.533616 1.1550934 1
v 0.38266176 1.1542611 0.9999999
v 0.44295242 1.1538787 0.9999999
v -0.47985235 1.2193257 1
v 0.38276798 1.2176421 0.9999999
v -0.5382179 0.098519534 -0.9999999
v -0.53821766 0.09851954 1
v -0.62331676 0.098763496 1
v -0.623317 0.09876348 -0.9999999
v -0.6233365 -1.0565988 -0.9999999
v -0.62333626 -1.0565988 1
v -0.5426543 -1.0577044 1
v -0.5426545 -1.0577044 -0.99999976
v -0.623317 0.09876348 -0.9999999
v -0.62331676 0.098763496 1
v -0.62333626 -1.0565988 1
v -0.6233365 -1.0565988 -0.9999999
v -0.53390163 1.0492215 -0.9999999
v -0.53390145 1.0492215 1
v -0.61917967 1.0493163 1
v -0.6191799 1.0493163 -0.9999999
v -0.6191897 0.33930224 -0.9999999
v -0.61918944 0.33930224 1
v -0.53783923 0.33967057 1
v -0.5378395 0.33967057 -0.9999999
v -0.6191799 1.0493163 -0.9999999
v -0.61917967 1.0493163 1
v -0.61918944 0.33930224 1
v -0.6191897 0.33930224 -0.9999999
v -0.5336162 1.1550934 -0.9999999
v -0.533616 1.1550934 1
v -0.53390145 1.0492215 1
v -0.53390163 1.0492215 -0.9999999
v -0.4803037 1.1550934 -0.9999999
v -0.4803035 1.1550934 1
v -0.533616 1.1550934 1
v -0.5336162 1.1550934 -0.9999999
v 0.54860294 0.31174463 -1
v 0.5486032 0.31174463 0.9999999
v 0.55018586 0.76252073 0.9999999
v 0.5501856 0.76252073 -1
v 0.5501856 0.76252073 -1
v 0.55018586 0.76252073 0.9999999
v 0.49040473 0.7632321 0.9999999
v 0.4904045 0.7632321 -0.9999999
v -0.49659827 -1.1141863 -0.99999976
v -0.49659804 -1.1141863 1
v -0.4958629 -1.1685147 1
v -0.49586305 -1.1685146 -0.9999999
v -0.49586305 -1.1685146 -0.9999999
v -0.4958629 -1.1685147 1
v -0.44708008 -1.1685147 1
v -0.44708025 -1.1685147 -0.9999999
v -0.4798526 1.2193257 -0.9999999
v -0.47985235 1.2193257 1
v -0.4803035 1.1550934 1
v -0.4803037 1.1550934 -0.9999999
v 0.38276774 1.2176421 -1
v 0.38276798 1.2176421 0.9999999
v -0.47985235 1.2193257 1
v -0.4798526 1.2193257 -0.9999999
v 0.38266155 1.1542611 -1
v 0.38266176 1.1542611 0.9999999
v 0.38276798 1.2176421 0.9999999
v 0.38276774 1.2176421 -1
v 0.49275467 1.0487378 -1
v 0.49275503 1.0487378 0.9999999
v 0.44255537 1.048701 0.9999999
v 0.4425551 1.048701 -1
v 0.4904045 0.7632321 -0.9999999
v 0.49040473 0.7632321 0.9999999
v 0.49275503 1.0487378 0.9999999
v 0.49275467 1.0487378 -1
v 0.4429522 1.1538786 -1
v 0.44295242 1.1538787 0.9999999
v 0.38266176 1.1542611 0.9999999
v 0.38266155 1.1542611 -1
v 0.4425551 1.048701 -1
v 0.44255537 1.048701 0.9999999
v 0.44295242 1.1538787 0.9999999
v 0.4429522 1.1538786 -1
v 0.5958027 0.3116087 -0.9999999
v 0.5958031 0.31160873 0.9999999
v 0.5486032 0.31174463 0.9999999
v 0.54860294 0.31174463 -1
v 0.59525096 0.25627926 -1
v 0.59525126 0.2562793 0.9999999
v 0.5958031 0.31160873 0.9999999
v 0.5958027 0.3116087 -0.9999999
v 0.62333107 0.25580934 -1
v 0.6233314 0.25580937 0.9999999
v 0.59525126 0.2562793 0.9999999
v 0.59525096 0.25627926 -1
v 0.6222525 -0.7925168 -1
v 0.62225264 -0.7925168 0.9999999
v 0.6233314 0.25580937 0.9999999
v 0.62333107 0.25580934 -1
v 0.5885349 -0.79316646 -1
v 0.58853513 -0.7931664 0.9999999
v 0.62225264 -0.7925168 0.9999999
v 0.6222525 -0.7925168 -1
v -0.5378395 0.33967057 -0.9999999
v -0.53783923 0.33967057 1
v -0.53821766 0.09851954 1
v -0.5382179 0.098519534 -0.9999999
v 0.5373012 -1.1153362 -1
v 0.5373014 -1.1153374 0.9999999
v 0.5367435 -1.0654103 0.9999999
v 0.536743 -1.06541 -0.9999999
v 0.48030913 -1.1160136 -1
v 0.48030937 -1.1160145 0.9999999
v 0.5373014 -1.1153374 0.9999999
v 0.5373012 -1.1153362 -1
v 0.48025805 -1.1686212 -0.9999999
v 0.4802583 -1.1686212 0.9999999
v 0.48030937 -1.1160145 0.9999999
v 0.48030913 -1.1160136 -1
v 0.42160895 -1.1685147 -1
v 0.4216092 -1.1685147 0.9999999
v 0.4802583 -1.1686212 0.9999999
v 0.48025805 -1.1686212 -0.9999999
v -0.44708025 -1.1685147 -0.9999999
v -0.44708008 -1.1685147 1
v -0.44708008 -1.2170458 1
v -0.44708028 -1.2170458 -0.9999999
v 0.42160898 -1.2193298 -1
v 0.4216092 -1.2193297 0.9999999
v 0.4216092 -1.1685147 0.9999999
v 0.42160895 -1.1685147 -1
v -0.44708028 -1.2170458 -0.9999999
v -0.44708008 -1.2170458 1
v 0.4216092 -1.2193297 0.9999999
v 0.42160898 -1.2193298 -1
v -0.5426924 -1.1134986 -0.9999999
v -0.5426921 -1.1134986 1
v -0.49659804 -1.1141863 1
v -0.49659827 -1.1141863 -0.99999976
v -0.5426545 -1.0577044 -0.99999976
v -0.5426543 -1.0577044 1
v -0.5426921 -1.1134986 1
v -0.5426924 -1.1134986 -0.9999999
v 0.59131706 -1.0658506 -1
v 0.59131837 -1.0658505 0.9999999
v 0.58853513 -0.7931664 0.9999999
v 0.5885349 -0.79316646 -1
v 0.536743 -1.06541 -0.9999999
v 0.5367435 -1.0654103 0.9999999
v 0.59131837 -1.0658505 0.9999999
v 0.59131706 -1.0658506 -1
vt 0.59228516 0.51464844
vt 0.59228516 0.35302734
vt 0.5810547 0.3527832
vt 0.5805664 0.51464844
vt 0.42333984 0.3918457
vt 0.57373047 0.34472656
vt 0.5810547 0.34472656
vt 0.42333984 0.53808594
vt 0.41845703 0.39160156
vt 0.4194336 0.53808594
vt 0.42651367 0.5449219
vt 0.42333984 0.5449219
vt 0.5805664 0.54833984
vt 0.42651367 0.35424805
vt 0.41918945 0.3544922
vt 0.43432617 0.60839844
vt 0.42700195 0.60839844
vt 0.43481445 0.34472656
vt 0.42700195 0.34472656
vt 0.44311523 0.33813477
vt 0.43481445 0.33789062
vt 0.56591797 0.3371582
vt 0.57373047 0.33691406
vt 0.56591797 0.32885742
vt 0.4428711 0.3293457
vt 0.4423828 0.6479492
vt 0.43432617 0.6479492
vt 0.58203125 0.6479492
vt 0.59228516 0.6479492
vt 0.59228516 0.54833984
vt 0.5732422 0.66308594
vt 0.58203125 0.66308594
vt 0.44995117 0.6640625
vt 0.44262695 0.6640625
vt 0.5732422 0.6713867
vt 0.4501953 0.6713867
vt 0.5810547 0.3527832
vt 0.59228516 0.35302734
vt 0.59228516 0.51464844
vt 0.5805664 0.51464844
vt 0.42333984 0.3918457
vt 0.57373047 0.34472656
vt 0.5810547 0.34472656
vt 0.42333984 0.53808594
vt 0.41845703 0.39160156
vt 0.4194336 0.53808594
vt 0.42651367 0.5449219
vt 0.42333984 0.5449219
vt 0.5805664 0.54833984
vt 0.42651367 0.35424805
vt 0.41918945 0.3544922
vt 0.43432617 0.60839844
vt 0.42700195 0.60839844
vt 0.43481445 0.34472656
vt 0.42700195 0.34472656
vt 0.44311523 0.33813477
vt 0.43481445 0.33789062
vt 0.56591797 0.3371582
vt 0.57373047 0.33691406
vt 0.56591797 0.32885742
vt 0.4428711 0.3293457
vt 0.4423828 0.6479492
vt 0.43432617 0.6479492
vt 0.58203125 0.6479492
vt 0.59228516 0.6479492
vt 0.59228516 0.54833984
vt 0.5732422 0.66308594
vt 0.58203125 0.66308594
vt 0.44995117 0.6640625
vt 0.44262695 0.6640625
vt 0.5732422 0.6713867
vt 0.4501953 0.6713867
vt 0.65966797 0.49902344
vt 0.9526367 0.49902344
vt 0.9526367 0.48657227
vt 0.65966797 0.48657227
vt 0.6147461 0.3034668
vt 0.6147461 0.010597229
vt 0.60302734 0.010597229
vt 0.60302734 0.3034668
vt 0.65966797 0.48657227
vt 0.9526367 0.48657227
vt 0.9526367 0.3173828
vt 0.65966797 0.3173828
vt 0.60791016 0.69628906
vt 0.60791016 0.9892578
vt 0.62060547 0.9892578
vt 0.62060547 0.69628906
vt 0.65966797 0.5463867
vt 0.9526367 0.5463867
vt 0.9526367 0.53466797
vt 0.65966797 0.53466797
vt 0.65966797 0.6503906
vt 0.9526367 0.6503906
vt 0.9526367 0.5463867
vt 0.65966797 0.5463867
vt 0.5913086 0.69628906
vt 0.5913086 0.9892578
vt 0.60791016 0.9892578
vt 0.60791016 0.69628906
vt 0.5834961 0.69628906
vt 0.5834961 0.9892578
vt 0.5913086 0.9892578
vt 0.5913086 0.69628906
vt 0.36621094 0.5449219
vt 0.07324219 0.5449219
vt 0.07324219 0.61083984
vt 0.36621094 0.61083984
vt 0.36621094 0.61083984
vt 0.07324219 0.61083984
vt 0.07324219 0.6196289
vt 0.36621094 0.6196289
vt 0.5878906 0.3034668
vt 0.5878906 0.010597229
vt 0.5800781 0.010597229
vt 0.5800781 0.3034668
vt 0.5800781 0.3034668
vt 0.5800781 0.010597229
vt 0.5727539 0.010597229
vt 0.5727539 0.3034668
vt 0.57373047 0.69628906
vt 0.57373047 0.9892578
vt 0.5834961 0.9892578
vt 0.5834961 0.69628906
vt 0.44750977 0.69628906
vt 0.44750977 0.9892578
vt 0.57373047 0.9892578
vt 0.57373047 0.69628906
vt 0.43969727 0.69628906
vt 0.43969727 0.9892578
vt 0.44750977 0.9892578
vt 0.44750977 0.69628906
vt 0.36621094 0.6611328
vt 0.07324219 0.6611328
vt 0.07324219 0.6689453
vt 0.36621094 0.6689453
vt 0.36621094 0.6196289
vt 0.07324219 0.6196289
vt 0.07324219 0.6611328
vt 0.36621094 0.6611328
vt 0.36621094 0.68408203
vt 0.07324219 0.68408203
vt 0.07324219 0.6928711
vt 0.36621094 0.6928711
vt 0.36621094 0.6689453
vt 0.07324219 0.6689453
vt 0.07324219 0.68408203
vt 0.36621094 0.68408203
vt 0.36621094 0.53808594
vt 0.07324219 0.53808594
vt 0.07324219 0.5449219
vt 0.36621094 0.5449219
vt 0.36621094 0.52978516
vt 0.07324219 0.52978516
vt 0.07324219 0.53808594
vt 0.36621094 0.53808594
vt 0.36694336 0.52490234
vt 0.074035645 0.52490234
vt 0.07324219 0.52978516
vt 0.36621094 0.52978516
vt 0.36694336 0.3713379
vt 0.074035645 0.3713379
vt 0.074035645 0.52490234
vt 0.36694336 0.52490234
vt 0.36694336 0.36645508
vt 0.074035645 0.36645508
vt 0.074035645 0.3713379
vt 0.36694336 0.3713379
vt 0.65966797 0.53466797
vt 0.9526367 0.53466797
vt 0.9526367 0.49902344
vt 0.65966797 0.49902344
vt 0.36694336 0.31103516
vt 0.074035645 0.31103516
vt 0.074035645 0.31835938
vt 0.36694336 0.31835938
vt 0.36694336 0.30273438
vt 0.074035645 0.30273438
vt 0.074035645 0.31103516
vt 0.36694336 0.31103516
vt 0.36694336 0.29516602
vt 0.074035645 0.29516602
vt 0.074035645 0.30273438
vt 0.36694336 0.30273438
vt 0.36694336 0.2866211
vt 0.074035645 0.2866211
vt 0.074035645 0.29516602
vt 0.36694336 0.29516602
vt 0.5727539 0.3034668
vt 0.5727539 0.010597229
vt 0.56591797 0.010597229
vt 0.56591797 0.3034668
vt 0.36694336 0.27905273
vt 0.074035645 0.27905273
vt 0.074035645 0.2866211
vt 0.36694336 0.2866211
vt 0.56591797 0.3034668
vt 0.56591797 0.010597229
vt 0.43847656 0.010597229
vt 0.43847656 0.3034668
vt 0.59472656 0.3034668
vt 0.59472656 0.010597229
vt 0.5878906 0.010597229
vt 0.5878906 0.3034668
vt 0.60302734 0.3034668
vt 0.60302734 0.010597229
vt 0.59472656 0.010597229
vt 0.59472656 0.3034668
vt 0.36694336 0.32641602
vt 0.074035645 0.32641602
vt 0.074035645 0.36645508
vt 0.36694336 0.36645508
vt 0.36694336 0.31835938
vt 0.074035645 0.31835938
vt 0.074035645 0.32641602
vt 0.36694336 0.32641602
vn 8.940697E-07 0 -1
vn 8.940697E-07 0 -1
vn 6.556511E-07 2.9802322E-07 -1
vn 1.7881393E-07 0 -1
vn -2.3841858E-07 -1.7881393E-07 -1
vn 4.7683716E-07 1.1324883E-06 -1
vn 3.33786E-06 2.7418137E-06 -1
vn 4.172325E-07 4.172325E-07 -1
vn -0 0 -1
vn -0 0 -1
vn 4.172325E-07 5.364418E-07 -1
vn 3.2186508E-06 2.7418137E-06 -1
vn -0 0 -1
vn -8.940697E-07 8.34465E-07 -1
vn -2.8014183E-06 0 -1
vn -7.1525574E-07 -1.1920929E-07 -1
vn -2.5629997E-06 0 -1
vn 2.3841858E-07 1.9073486E-06 -1
vn -0 3.0398369E-06 -1
vn 2.3841858E-07 2.9802322E-07 -1
vn 2.6226044E-06 -2.9206276E-06 -1
vn -1.7881393E-07 1.1920929E-06 -1
vn -0 2.8014183E-06 -1
vn -1.7881393E-07 0 -1
vn -1.7881393E-07 0 -1
vn -0 -2.9802322E-07 -1
vn -0 -5.364418E-07 -1
vn -0 0 -1
vn -0 0 -1
vn -0 0 -1
vn -1.1920929E-07 0 -1
vn -0 0 -1
vn -1.1920929E-07 0 -1
vn -0 0 -1
vn -1.7881393E-07 0 -1
vn -1.7881393E-07 0 -1
vn 1.1920929E-07 0 1
vn 1.1920929E-07 0 1
vn 1.1920929E-07 0 1
vn 1.1920929E-07 0 1
vn 1.1920929E-07 0 1
vn 1.1920929E-07 0 1
vn 1.1920929E-07 0 1
vn 1.1920929E-07 0 1
vn -0 0 1
vn 1.1920929E-07 0 1
vn 1.1920929E-07 0 1
vn 1.7881393E-07 0 1
vn 1.1920929E-07 0 1
vn 2.3841858E-07 -1.1920929E-07 1
vn 6.556511E-07 0 1
vn 1.1920929E-07 0 1
vn 1.1920929E-07 0 1
vn 1.1920929E-07 -4.172325E-07 1
vn -0 -5.9604645E-07 1
vn 1.1920929E-07 0 1
vn 1.1920929E-07 0 1
vn 1.1920929E-07 0 1
vn -0 0 1
vn 1.1920929E-07 0 1
vn 1.1920929E-07 0 1
vn 1.1920929E-07 0 1
vn 1.7881393E-07 0 1
vn 1.1920929E-07 0 1
vn 1.1920929E-07 0 1
vn 1.1920929E-07 0 1
vn 1.1920929E-07 0 1
vn 1.1920929E-07 0 1
vn 1.1920929E-07 0 1
vn 1.1920929E-07 0 1
vn 1.1920929E-07 0 1
vn 1.1920929E-07 0 1
vn 0.002866745 1 0
vn 0.002866745 1 0
vn 0.002866745 1 0
vn 0.002866745 1 0
vn -0.013702393 -1 0
vn -0.013702393 -1 0
vn -0.013702393 -1 0
vn -0.013702393 -1 0
vn -1 1.6868114E-05 1.1920929E-07
vn -1 1.6868114E-05 1.1920929E-07
vn -1 1.6868114E-05 1.1920929E-07
vn -1 1.6868114E-05 1.1920929E-07
vn 0.0011119843 1 0
vn 0.0011119843 1 0
vn 0.0011119843 1 0
vn 0.0011119843 1 0
vn 0.0045280457 -1 0
vn 0.0045280457 -1 0
vn 0.0045280457 -1 0
vn 0.0045280457 -1 0
vn -1 1.3768673E-05 1.1920929E-07
vn -1 1.3768673E-05 1.1920929E-07
vn -1 1.3768673E-05 1.1920929E-07
vn -1 1.3768673E-05 1.1920929E-07
vn -1 0.0026950836 1.1920929E-07
vn -1 0.0026950836 1.1920929E-07
vn -1 0.0026950836 1.1920929E-07
vn -1 0.0026950836 1.1920929E-07
vn -0 1 0
vn -0 1 0
vn -0 1 0
vn -0 1 0
vn 1 -0.0035114288 -1.1920929E-07
vn 1 -0.0035114288 -1.1920929E-07
vn 1 -0.0035114288 -1.1920929E-07
vn 1 -0.0035114288 -1.1920929E-07
vn 0.0119018555 1 0
vn 0.0119018555 1 0
vn 0.0119018555 1 0
vn 0.0119018555 1 0
vn -1 -0.0135269165 0
vn -1 -0.0135269165 0
vn -1 -0.0135269165 0
vn -1 -0.0135269165 0
vn -7.748604E-07 -1 0
vn -7.748604E-07 -1 0
vn -7.748604E-07 -1 0
vn -7.748604E-07 -1 0
vn -1 0.0070228577 1.1920929E-07
vn -1 0.0070228577 1.1920929E-07
vn -1 0.0070228577 1.1920929E-07
vn -1 0.0070228577 1.1920929E-07
vn 0.0019512177 1 0
vn 0.0019512177 1 0
vn 0.0019512177 1 0
vn 0.0019512177 1 0
vn 1 -0.0016756058 -1.1920929E-07
vn 1 -0.0016756058 -1.1920929E-07
vn 1 -0.0016756058 -1.1920929E-07
vn 1 -0.0016756058 -1.1920929E-07
vn -0.0007324219 1 0
vn -0.0007324219 1 0
vn -0.0007324219 1 0
vn -0.0007324219 1 0
vn 1 -0.008232117 -1.7881393E-07
vn 1 -0.008232117 -1.7881393E-07
vn 1 -0.008232117 -1.7881393E-07
vn 1 -0.008232117 -1.7881393E-07
vn 0.0063438416 1 0
vn 0.0063438416 1 0
vn 0.0063438416 1 0
vn 0.0063438416 1 0
vn 1 -0.003774643 -1.1920929E-07
vn 1 -0.003774643 -1.1920929E-07
vn 1 -0.003774643 -1.1920929E-07
vn 1 -0.003774643 -1.1920929E-07
vn 0.0028800964 1 0
vn 0.0028800964 1 0
vn 0.0028800964 1 0
vn 0.0028800964 1 0
vn 1 -0.009971619 -1.1920929E-07
vn 1 -0.009971619 -1.1920929E-07
vn 1 -0.009971619 -1.1920929E-07
vn 1 -0.009971619 -1.1920929E-07
vn 0.016738892 1 0
vn 0.016738892 1 0
vn 0.016738892 1 0
vn 0.016738892 1 0
vn 1 -0.0010290146 -1.1920929E-07
vn 1 -0.0010290146 -1.1920929E-07
vn 1 -0.0010290146 -1.1920929E-07
vn 1 -0.0010290146 -1.1920929E-07
vn 0.019256592 -1 0
vn 0.019256592 -1 0
vn 0.019256592 -1 0
vn 0.019256592 -1 0
vn -1 0.0015687943 1.1920929E-07
vn -1 0.0015687943 1.1920929E-07
vn -1 0.0015687943 1.1920929E-07
vn -1 0.0015687943 1.1920929E-07
vn 1 0.011177063 -1.7881393E-07
vn 1 0.011177063 -1.7881393E-07
vn 1 0.011177063 -1.7881393E-07
vn 1 0.011177063 -1.7881393E-07
vn 0.011886597 -1 -5.364418E-07
vn 0.011886597 -1 -5.364418E-07
vn 0.011886597 -1 -5.364418E-07
vn 0.011886597 -1 -5.364418E-07
vn 1 -0.00097084045 -1.1920929E-07
vn 1 -0.00097084045 -1.1920929E-07
vn 1 -0.00097084045 -1.1920929E-07
vn 1 -0.00097084045 -1.1920929E-07
vn -0.0018157959 -1 0
vn -0.0018157959 -1 0
vn -0.0018157959 -1 0
vn -0.0018157959 -1 0
vn -1 4.172325E-07 1.1920929E-07
vn -1 4.172325E-07 1.1920929E-07
vn -1 4.172325E-07 1.1920929E-07
vn -1 4.172325E-07 1.1920929E-07
vn 1 3.5762787E-07 -1.1920929E-07
vn 1 3.5762787E-07 -1.1920929E-07
vn 1 3.5762787E-07 -1.1920929E-07
vn 1 3.5762787E-07 -1.1920929E-07
vn -0.0026283264 -1 0
vn -0.0026283264 -1 0
vn -0.0026283264 -1 0
vn -0.0026283264 -1 0
vn -0.014915466 -1 0
vn -0.014915466 -1 0
vn -0.014915466 -1 0
vn -0.014915466 -1 0
vn -1 0.0006785393 1.1920929E-07
vn -1 0.0006785393 1.1920929E-07
vn -1 0.0006785393 1.1920929E-07
vn -1 0.0006785393 1.1920929E-07
vn 1 0.0102005005 -4.172325E-07
vn 1 0.0102005005 -4.172325E-07
vn 1 0.0102005005 -4.172325E-07
vn 1 0.0102005005 -4.172325E-07
vn -0.008071899 -1 0
vn -0.008071899 -1 0
vn -0.008071899 -1 0
vn -0.008071899 -1 0
g Rocks_Small_007_0
f 3/3/3 2/2/2 1/1/1
f 4/4/4 3/3/3 1/1/1
f 4/4/4 5/5/5 3/3/3
f 3/3/3 5/5/5 6/6/6
f 7/7/7 3/3/3 6/6/6
f 8/8/8 5/5/5 4/4/4
f 9/9/9 5/5/5 8/8/8
f 10/10/10 9/9/9 8/8/8
f 11/11/11 8/8/8 4/4/4
f 12/12/12 8/8/8 11/11/11
f 13/13/13 11/11/11 4/4/4
f 5/5/5 14/14/14 6/6/6
f 15/15/15 14/14/14 5/5/5
f 13/13/13 16/16/16 11/11/11
f 11/11/11 16/16/16 17/17/17
f 14/14/14 18/18/18 6/6/6
f 19/19/19 18/18/18 14/14/14
f 18/18/18 20/20/20 6/6/6
f 21/21/21 20/20/20 18/18/18
f 20/20/20 22/22/22 6/6/6
f 6/6/6 22/22/22 23/23/23
f 24/24/24 22/22/22 20/20/20
f 25/25/25 24/24/24 20/20/20
f 26/26/26 16/16/16 13/13/13
f 27/27/27 16/16/16 26/26/26
f 28/28/28 26/26/26 13/13/13
f 28/28/28 13/13/13 29/29/29
f 13/13/13 30/30/30 29/29/29
f 31/31/31 26/26/26 28/28/28
f 32/32/32 31/31/31 28/28/28
f 33/33/33 26/26/26 31/31/31
f 34/34/34 26/26/26 33/33/33
f 35/35/35 33/33/33 31/31/31
f 36/36/36 33/33/33 35/35/35
f 39/39/39 38/38/38 37/37/37
f 40/40/40 39/39/39 37/37/37
f 40/40/40 37/37/37 41/41/41
f 37/37/37 42/42/42 41/41/41
f 43/43/43 42/42/42 37/37/37
f 44/44/44 40/40/40 41/41/41
f 45/45/45 44/44/44 41/41/41
f 46/46/46 44/44/44 45/45/45
f 47/47/47 40/40/40 44/44/44
f 48/48/48 47/47/47 44/44/44
f 49/49/49 40/40/40 47/47/47
f 41/41/41 42/42/42 50/50/50
f 51/51/51 41/41/41 50/50/50
f 49/49/49 47/47/47 52/52/52
f 47/47/47 53/53/53 52/52/52
f 50/50/50 42/42/42 54/54/54
f 55/55/55 50/50/50 54/54/54
f 54/54/54 42/42/42 56/56/56
f 57/57/57 54/54/54 56/56/56
f 42/42/42 58/58/58 56/56/56
f 42/42/42 59/59/59 58/58/58
f 60/60/60 56/56/56 58/58/58
f 61/61/61 56/56/56 60/60/60
f 62/62/62 49/49/49 52/52/52
f 63/63/63 62/62/62 52/52/52
f 64/64/64 49/49/49 62/62/62
f 64/64/64 65/65/65 49/49/49
f 65/65/65 66/66/66 49/49/49
f 67/67/67 64/64/64 62/62/62
f 68/68/68 64/64/64 67/67/67
f 69/69/69 67/67/67 62/62/62
f 70/70/70 69/69/69 62/62/62
f 71/71/71 67/67/67 69/69/69
f 72/72/72 71/71/71 69/69/69
f 75/75/75 74/74/74 73/73/73
f 76/76/76 75/75/75 73/73/73
f 79/79/79 78/78/78 77/77/77
f 80/80/80 79/79/79 77/77/77
f 83/83/83 82/82/82 81/81/81
f 84/84/84 83/83/83 81/81/81
f 87/87/87 86/86/86 85/85/85
f 88/88/88 87/87/87 85/85/85
f 91/91/91 90/90/90 89/89/89
f 92/92/92 91/91/91 89/89/89
f 95/95/95 94/94/94 93/93/93
f 96/96/96 95/95/95 93/93/93
f 99/99/99 98/98/98 97/97/97
f 100/100/100 99/99/99 97/97/97
f 103/103/103 102/102/102 101/101/101
f 104/104/104 103/103/103 101/101/101
f 107/107/107 106/106/106 105/105/105
f 108/108/108 107/107/107 105/105/105
f 111/111/111 110/110/110 109/109/109
f 112/112/112 111/111/111 109/109/109
f 115/115/115 114/114/114 113/113/113
f 116/116/116 115/115/115 113/113/113
f 119/119/119 118/118/118 117/117/117
f 120/120/120 119/119/119 117/117/117
f 123/123/123 122/122/122 121/121/121
f 124/124/124 123/123/123 121/121/121
f 127/127/127 126/126/126 125/125/125
f 128/128/128 127/127/127 125/125/125
f 131/131/131 130/130/130 129/129/129
f 132/132/132 131/131/131 129/129/129
f 135/135/135 134/134/134 133/133/133
f 136/136/136 135/135/135 133/133/133
f 139/139/139 138/138/138 137/137/137
f 140/140/140 139/139/139 137/137/137
f 143/143/143 142/142/142 141/141/141
f 144/144/144 143/143/143 141/141/141
f 147/147/147 146/146/146 145/145/145
f 148/148/148 147/147/147 145/145/145
f 151/151/151 150/150/150 149/149/149
f 152/152/152 151/151/151 149/149/149
f 155/155/155 154/154/154 153/153/153
f 156/156/156 155/155/155 153/153/153
f 159/159/159 158/158/158 157/157/157
f 160/160/160 159/159/159 157/157/157
f 163/163/163 162/162/162 161/161/161
f 164/164/164 163/163/163 161/161/161
f 167/167/167 166/166/166 165/165/165
f 168/168/168 167/167/167 165/165/165
f 171/171/171 170/170/170 169/169/169
f 172/172/172 171/171/171 169/169/169
f 175/175/175 174/174/174 173/173/173
f 176/176/176 175/175/175 173/173/173
f 179/179/179 178/178/178 177/177/177
f 180/180/180 179/179/179 177/177/177
f 183/183/183 182/182/182 181/181/181
f 184/184/184 183/183/183 181/181/181
f 187/187/187 186/186/186 185/185/185
f 188/188/188 187/187/187 185/185/185
f 191/191/191 190/190/190 189/189/189
f 192/192/192 191/191/191 189/189/189
f 195/195/195 194/194/194 193/193/193
f 196/196/196 195/195/195 193/193/193
f 199/199/199 198/198/198 197/197/197
f 200/200/200 199/199/199 197/197/197
f 203/203/203 202/202/202 201/201/201
f 204/204/204 203/203/203 201/201/201
f 207/207/207 206/206/206 205/205/205
f 208/208/208 207/207/207 205/205/205
f 211/211/211 210/210/210 209/209/209
f 212/212/212 211/211/211 209/209/209
f 215/215/215 214/214/214 213/213/213
f 216/216/216 215/215/215 213/213/213
