g Rocks_Small_011
v 0.6562018 0.55421376 -0.98200065
v 0.30003724 0.83528197 -0.98200005
v 0.6589831 -0.00948101 -0.98200065
v 0.6562022 0.55421156 0.9819996
v 0.6589836 -0.009483471 0.9819994
v 0.30003813 0.83527875 0.9820002
v 0.5416629 -0.12696967 -0.98200065
v -0.686582 -0.5980976 -0.9819976
v -0.63275087 -0.6743334 -0.9819976
v -0.6865829 -0.5981001 0.982002
v 0.54166317 -0.12697291 0.9819996
v -0.63275087 -0.67433625 0.98200214
v -0.50111234 0.90562034 -0.9819988
v -0.50112027 0.47375694 -0.9819988
v -0.43784332 0.9055256 -0.9819982
v 0.23680602 0.9052656 -0.98200005
v 0.23798156 0.98552114 -0.98200005
v -0.4375589 0.98593724 -0.9819982
v 0.30003724 0.83528197 -0.98200005
v 0.3000409 0.90522176 -0.98200065
v 0.6589831 -0.00948101 -0.98200065
v -0.5530722 0.41515145 -0.9819982
v -0.5530695 0.47375664 -0.9819988
v 0.5941583 -0.06562979 -0.98200065
v 0.5416629 -0.12696967 -0.98200065
v 0.59415895 -0.12697059 -0.98200065
v 0.48675627 -0.6767371 -0.98200065
v 0.54393065 -0.67671293 -0.98200065
v 0.4282431 -0.7452273 -0.98200065
v 0.48828855 -0.7451494 -0.98200065
v -0.3230026 -0.78897053 -0.9819982
v -0.5500195 -0.7412628 -0.9819976
v -0.5500189 -0.7888024 -0.9819982
v -0.63275087 -0.6743334 -0.9819976
v -0.6328143 -0.7419137 -0.9819976
v -0.686582 -0.5980976 -0.9819976
v -0.6865811 -0.6738723 -0.9819976
v -0.6860815 -0.25607598 -0.9819982
v -0.74293363 -0.59763604 -0.9819976
v -0.74216187 -0.2559743 -0.9819982
v -0.63099396 0.28744963 -0.9819982
v -0.68618804 0.2884294 -0.9819982
v 0.5941583 -0.06562979 -0.98200065
v -0.63099027 0.41515112 -0.9819982
v 0.6589816 -0.063456416 -0.98200065
v 0.7429339 0.55350316 -0.98200065
v 0.74073577 -0.009480819 -0.98200065
v 0.6562018 0.55421376 -0.98200065
v 0.6563437 0.7887216 -0.98200125
v 0.5914288 0.7887201 -0.98200184
v 0.5892685 0.8357051 -0.98200184
v -0.3230026 -0.78897053 -0.9819982
v -0.32328612 -0.8598996 -0.9819988
v -0.23959838 -0.8633456 -0.9819988
v 0.33685607 -0.9061782 -0.98200184
v 0.42938903 -0.9075242 -0.98200244
v -0.23959838 -0.8633456 -0.9819988
v -0.2398059 -0.98593193 -0.9819994
v 0.33660215 -0.9834265 -0.9819976
v -0.43784332 0.9055256 -0.9819982
v -0.43784332 0.905523 0.982002
v -0.5011136 0.90561783 0.98200154
v -0.50111234 0.90562034 -0.9819988
v -0.50111234 0.90562034 -0.9819988
v -0.5011136 0.90561783 0.98200154
v -0.50112 0.47375423 0.9820014
v -0.50112027 0.47375694 -0.9819988
v 0.23680602 0.9052656 -0.98200005
v 0.2368068 0.9052629 0.98200035
v 0.23798217 0.98551863 0.98200035
v 0.23798156 0.98552114 -0.98200005
v 0.7429339 0.55350316 -0.98200065
v 0.7429347 0.55350053 0.9819994
v 0.6562022 0.55421156 0.9819996
v 0.6562018 0.55421376 -0.98200065
v -0.63275087 -0.6743334 -0.9819976
v -0.63275087 -0.67433625 0.98200214
v -0.6328143 -0.74191743 0.982002
v -0.6328143 -0.7419137 -0.9819976
v -0.6328143 -0.7419137 -0.9819976
v -0.6328143 -0.74191743 0.982002
v -0.5500192 -0.74126554 0.982002
v -0.5500195 -0.7412628 -0.9819976
v 0.6589816 -0.063456416 -0.98200065
v 0.6589836 -0.009483471 0.9819994
v 0.6589831 -0.00948101 -0.98200065
v 0.6589828 -0.06345897 0.9819994
v 0.5941583 -0.06562979 -0.98200065
v 0.6589828 -0.06345897 0.9819994
v 0.6589816 -0.063456416 -0.98200065
v 0.59415895 -0.06563208 0.9819996
v 0.74073577 -0.009480819 -0.98200065
v 0.74073577 -0.009483376 0.9819994
v 0.7429347 0.55350053 0.9819994
v 0.7429339 0.55350316 -0.98200065
v 0.6589831 -0.00948101 -0.98200065
v 0.74073577 -0.009483376 0.9819994
v 0.74073577 -0.009480819 -0.98200065
v 0.6589836 -0.009483471 0.9819994
v 0.59415895 -0.12697059 -0.98200065
v 0.59415925 -0.12697338 0.9819996
v 0.5941583 -0.06562979 -0.98200065
v 0.59415895 -0.06563208 0.9819996
v 0.5416629 -0.12696967 -0.98200065
v 0.59415925 -0.12697338 0.9819996
v 0.59415895 -0.12697059 -0.98200065
v 0.54166317 -0.12697291 0.9819996
v -0.68618804 0.2884294 -0.9819982
v -0.6861865 0.28842688 0.98200184
v -0.68608123 -0.2560784 0.98200184
v -0.6860815 -0.25607598 -0.9819982
v -0.63099396 0.28744963 -0.9819982
v -0.6309933 0.28744704 0.9820017
v -0.6861865 0.28842688 0.98200184
v -0.68618804 0.2884294 -0.9819982
v -0.74293363 -0.59763604 -0.9819976
v -0.74293363 -0.59763855 0.982002
v -0.6865829 -0.5981001 0.982002
v -0.686582 -0.5980976 -0.9819976
v -0.74216187 -0.2559743 -0.9819982
v -0.74216187 -0.25597686 0.98200184
v -0.74293363 -0.59763855 0.982002
v -0.74293363 -0.59763604 -0.9819976
v -0.6865811 -0.6738723 -0.9819976
v -0.6865826 -0.6738748 0.982002
v -0.63275087 -0.67433625 0.98200214
v -0.63275087 -0.6743334 -0.9819976
v -0.686582 -0.5980976 -0.9819976
v -0.6865829 -0.5981001 0.982002
v -0.6865826 -0.6738748 0.982002
v -0.6865811 -0.6738723 -0.9819976
v -0.32328612 -0.8598996 -0.9819988
v -0.32328612 -0.8599032 0.98200125
v -0.23959747 -0.86334884 0.98200125
v -0.23959838 -0.8633456 -0.9819988
v -0.3230026 -0.78897053 -0.9819982
v -0.3230023 -0.7889731 0.9820017
v -0.32328612 -0.8599032 0.98200125
v -0.32328612 -0.8598996 -0.9819988
v -0.5500189 -0.7888024 -0.9819982
v -0.5500189 -0.7888049 0.9820017
v -0.3230023 -0.7889731 0.9820017
v -0.3230026 -0.78897053 -0.9819982
v -0.5500195 -0.7412628 -0.9819976
v -0.5500192 -0.74126554 0.982002
v -0.5500189 -0.7888049 0.9820017
v -0.5500189 -0.7888024 -0.9819982
v 0.6562018 0.55421376 -0.98200065
v 0.6562022 0.55421156 0.9819996
v 0.65634245 0.7887197 0.9819991
v 0.6563437 0.7887216 -0.98200125
v 0.6563437 0.7887216 -0.98200125
v 0.65634245 0.7887197 0.9819991
v 0.591429 0.78871804 0.9819986
v 0.5914288 0.7887201 -0.98200184
v -0.5530695 0.47375664 -0.9819988
v -0.5530695 0.47375408 0.9820014
v -0.5530719 0.41514876 0.9820017
v -0.5530722 0.41515145 -0.9819982
v -0.50112027 0.47375694 -0.9819988
v -0.50112 0.47375423 0.9820014
v -0.5530695 0.47375408 0.9820014
v -0.5530695 0.47375664 -0.9819988
v -0.4375589 0.98593724 -0.9819982
v -0.4375583 0.98593473 0.982002
v -0.43784332 0.905523 0.982002
v -0.43784332 0.9055256 -0.9819982
v 0.23798156 0.98552114 -0.98200005
v 0.23798217 0.98551863 0.98200035
v -0.4375583 0.98593473 0.982002
v -0.4375589 0.98593724 -0.9819982
v -0.63099027 0.41515112 -0.9819982
v -0.63099027 0.41514862 0.9820017
v -0.6309933 0.28744704 0.9820017
v -0.63099396 0.28744963 -0.9819982
v -0.5530722 0.41515145 -0.9819982
v -0.5530719 0.41514876 0.9820017
v -0.63099027 0.41514862 0.9820017
v -0.63099027 0.41515112 -0.9819982
v 0.3000409 0.90522176 -0.98200065
v 0.3000421 0.90521926 0.9819999
v 0.2368068 0.9052629 0.98200035
v 0.23680602 0.9052656 -0.98200005
v 0.30003724 0.83528197 -0.98200005
v 0.30003813 0.83527875 0.9820002
v 0.3000421 0.90521926 0.9819999
v 0.3000409 0.90522176 -0.98200065
v 0.5892685 0.8357051 -0.98200184
v 0.5892695 0.8357026 0.9819986
v 0.30003813 0.83527875 0.9820002
v 0.30003724 0.83528197 -0.98200005
v 0.5914288 0.7887201 -0.98200184
v 0.591429 0.78871804 0.9819986
v 0.5892695 0.8357026 0.9819986
v 0.5892685 0.8357051 -0.98200184
v -0.6860815 -0.25607598 -0.9819982
v -0.68608123 -0.2560784 0.98200184
v -0.74216187 -0.25597686 0.98200184
v -0.74216187 -0.2559743 -0.9819982
v 0.48828855 -0.7451494 -0.98200065
v 0.48828977 -0.745153 0.9819991
v 0.48675704 -0.6767401 0.9819993
v 0.48675627 -0.6767371 -0.98200065
v 0.4282431 -0.7452273 -0.98200065
v 0.42824417 -0.7452307 0.9819993
v 0.48828977 -0.745153 0.9819991
v 0.48828855 -0.7451494 -0.98200065
v 0.54393065 -0.67671293 -0.98200065
v 0.543932 -0.6767159 0.9819991
v 0.54166317 -0.12697291 0.9819996
v 0.5416629 -0.12696967 -0.98200065
v 0.48675627 -0.6767371 -0.98200065
v 0.48675704 -0.6767401 0.9819993
v 0.543932 -0.6767159 0.9819991
v 0.54393065 -0.67671293 -0.98200065
v -0.2398059 -0.98593193 -0.9819994
v -0.23980483 -0.98593444 0.98200065
v 0.33660126 -0.9834152 0.98200244
v 0.33660215 -0.9834265 -0.9819976
v 0.33660215 -0.9834265 -0.9819976
v 0.33660126 -0.9834152 0.98200244
v 0.3368567 -0.90617776 0.9819983
v 0.33685607 -0.9061782 -0.98200184
v -0.23959838 -0.8633456 -0.9819988
v -0.23959747 -0.86334884 0.98200125
v -0.23980483 -0.98593444 0.98200065
v -0.2398059 -0.98593193 -0.9819994
v 0.42938903 -0.9075242 -0.98200244
v 0.4293907 -0.90752864 0.9819977
v 0.42824417 -0.7452307 0.9819993
v 0.4282431 -0.7452273 -0.98200065
v 0.33685607 -0.9061782 -0.98200184
v 0.3368567 -0.90617776 0.9819983
v 0.4293907 -0.90752864 0.9819977
v 0.42938903 -0.9075242 -0.98200244
v -0.5011136 0.90561783 0.98200154
v -0.43784332 0.905523 0.982002
v -0.50112 0.47375423 0.9820014
v 0.2368068 0.9052629 0.98200035
v 0.23798217 0.98551863 0.98200035
v -0.4375583 0.98593473 0.982002
v 0.30003813 0.83527875 0.9820002
v 0.3000421 0.90521926 0.9819999
v 0.6589836 -0.009483471 0.9819994
v -0.5530719 0.41514876 0.9820017
v -0.5530695 0.47375408 0.9820014
v 0.59415895 -0.06563208 0.9819996
v 0.59415925 -0.12697338 0.9819996
v 0.54166317 -0.12697291 0.9819996
v 0.543932 -0.6767159 0.9819991
v 0.48675704 -0.6767401 0.9819993
v 0.42824417 -0.7452307 0.9819993
v 0.48828977 -0.745153 0.9819991
v -0.3230023 -0.7889731 0.9820017
v -0.5500192 -0.74126554 0.982002
v -0.5500189 -0.7888049 0.9820017
v -0.63275087 -0.67433625 0.98200214
v -0.6328143 -0.74191743 0.982002
v -0.6865829 -0.5981001 0.982002
v -0.6865826 -0.6738748 0.982002
v -0.68608123 -0.2560784 0.98200184
v -0.74293363 -0.59763855 0.982002
v -0.74216187 -0.25597686 0.98200184
v -0.6309933 0.28744704 0.9820017
v -0.6861865 0.28842688 0.98200184
v 0.59415895 -0.06563208 0.9819996
v -0.63099027 0.41514862 0.9820017
v 0.6589828 -0.06345897 0.9819994
v 0.7429347 0.55350053 0.9819994
v 0.74073577 -0.009483376 0.9819994
v 0.6562022 0.55421156 0.9819996
v 0.65634245 0.7887197 0.9819991
v 0.591429 0.78871804 0.9819986
v 0.5892695 0.8357026 0.9819986
v -0.3230023 -0.7889731 0.9820017
v -0.23959747 -0.86334884 0.98200125
v -0.32328612 -0.8599032 0.98200125
v 0.4293907 -0.90752864 0.9819977
v 0.3368567 -0.90617776 0.9819983
v -0.23959747 -0.86334884 0.98200125
v -0.23980483 -0.98593444 0.98200065
v 0.33660126 -0.9834152 0.98200244
vt 0.43408203 0.5698242
vt 0.4807129 0.60839844
vt 0.4338379 0.5
vt 0.43408203 0.5698242
vt 0.4338379 0.5
vt 0.4807129 0.60839844
vt 0.4501953 0.48364258
vt 0.60546875 0.421875
vt 0.59765625 0.41455078
vt 0.60546875 0.421875
vt 0.4501953 0.48364258
vt 0.59765625 0.41455078
vt 0.58203125 0.6176758
vt 0.58203125 0.56152344
vt 0.57373047 0.6176758
vt 0.48876953 0.6176758
vt 0.4885254 0.6245117
vt 0.57373047 0.6245117
vt 0.4807129 0.60839844
vt 0.4807129 0.6176758
vt 0.4338379 0.5
vt 0.5883789 0.5541992
vt 0.5883789 0.56152344
vt 0.44140625 0.49169922
vt 0.4501953 0.48364258
vt 0.44140625 0.48364258
vt 0.45703125 0.41430664
vt 0.44970703 0.41430664
vt 0.46435547 0.40551758
vt 0.4567871 0.40551758
vt 0.55859375 0.39868164
vt 0.58935547 0.40600586
vt 0.58935547 0.39868164
vt 0.59765625 0.41455078
vt 0.59765625 0.40600586
vt 0.60546875 0.421875
vt 0.60546875 0.41455078
vt 0.60546875 0.46850586
vt 0.61376953 0.42211914
vt 0.61376953 0.46850586
vt 0.59814453 0.53808594
vt 0.60546875 0.53808594
vt 0.44140625 0.49169922
vt 0.59814453 0.5541992
vt 0.4338379 0.49169922
vt 0.42456055 0.5698242
vt 0.42504883 0.5
vt 0.43408203 0.5698242
vt 0.43408203 0.60253906
vt 0.4416504 0.60253906
vt 0.44213867 0.6088867
vt 0.55859375 0.39868164
vt 0.55859375 0.39086914
vt 0.55078125 0.39086914
vt 0.4729004 0.38354492
vt 0.46435547 0.38330078
vt 0.55078125 0.39086914
vt 0.55078125 0.37524414
vt 0.4729004 0.37548828
vt 0.6484375 0.6245117
vt 0.89697266 0.6245117
vt 0.89697266 0.61621094
vt 0.6484375 0.61621094
vt 0.6484375 0.61621094
vt 0.89697266 0.61621094
vt 0.89697266 0.56152344
vt 0.6484375 0.56152344
vt 0.38720703 0.6689453
vt 0.13830566 0.6689453
vt 0.13830566 0.67871094
vt 0.38720703 0.67871094
vt 0.38720703 0.5605469
vt 0.13830566 0.5605469
vt 0.13830566 0.57128906
vt 0.38720703 0.57128906
vt 0.6484375 0.37158203
vt 0.89697266 0.37158203
vt 0.89697266 0.3630371
vt 0.6484375 0.3630371
vt 0.6484375 0.3630371
vt 0.89697266 0.3630371
vt 0.89697266 0.35253906
vt 0.6484375 0.35253906
vt 0.38720703 0.4716797
vt 0.13830566 0.47851562
vt 0.38720703 0.47851562
vt 0.13830566 0.4716797
vt 0.38720703 0.46362305
vt 0.13830566 0.4716797
vt 0.38720703 0.4716797
vt 0.13830566 0.46362305
vt 0.38720703 0.48901367
vt 0.13830566 0.48901367
vt 0.13830566 0.5605469
vt 0.38720703 0.5605469
vt 0.38720703 0.47851562
vt 0.13830566 0.48901367
vt 0.38720703 0.48901367
vt 0.13830566 0.47851562
vt 0.38720703 0.45581055
vt 0.13830566 0.45581055
vt 0.38720703 0.46362305
vt 0.13830566 0.46362305
vt 0.38720703 0.44921875
vt 0.13830566 0.45581055
vt 0.38720703 0.45581055
vt 0.13830566 0.44921875
vt 0.6484375 0.51464844
vt 0.89697266 0.51464844
vt 0.89697266 0.44555664
vt 0.6484375 0.44555664
vt 0.6484375 0.5214844
vt 0.89697266 0.5214844
vt 0.89697266 0.51464844
vt 0.6484375 0.51464844
vt 0.6484375 0.39526367
vt 0.89697266 0.39526367
vt 0.89697266 0.38793945
vt 0.6484375 0.38793945
vt 0.6484375 0.43847656
vt 0.89697266 0.43847656
vt 0.89697266 0.39526367
vt 0.6484375 0.39526367
vt 0.6484375 0.37841797
vt 0.89697266 0.37841797
vt 0.89697266 0.37158203
vt 0.6484375 0.37158203
vt 0.6484375 0.38793945
vt 0.89697266 0.38793945
vt 0.89697266 0.37841797
vt 0.6484375 0.37841797
vt 0.6484375 0.3088379
vt 0.89697266 0.3088379
vt 0.89697266 0.2980957
vt 0.6484375 0.2980957
vt 0.6484375 0.3178711
vt 0.89697266 0.3178711
vt 0.89697266 0.3088379
vt 0.6484375 0.3088379
vt 0.6484375 0.34643555
vt 0.89697266 0.34643555
vt 0.89697266 0.3178711
vt 0.6484375 0.3178711
vt 0.6484375 0.35253906
vt 0.89697266 0.35253906
vt 0.89697266 0.34643555
vt 0.6484375 0.34643555
vt 0.38720703 0.57128906
vt 0.13830566 0.57128906
vt 0.13830566 0.6010742
vt 0.38720703 0.6010742
vt 0.38720703 0.6010742
vt 0.13830566 0.6010742
vt 0.13830566 0.609375
vt 0.38720703 0.609375
vt 0.6484375 0.5551758
vt 0.89697266 0.5551758
vt 0.89697266 0.5473633
vt 0.6484375 0.5473633
vt 0.6484375 0.56152344
vt 0.89697266 0.56152344
vt 0.89697266 0.5551758
vt 0.6484375 0.5551758
vt 0.6484375 0.6347656
vt 0.89697266 0.6347656
vt 0.89697266 0.6245117
vt 0.6484375 0.6245117
vt 0.47070312 0.65283203
vt 0.47070312 0.90185547
vt 0.5566406 0.90185547
vt 0.5566406 0.65283203
vt 0.6484375 0.53759766
vt 0.89697266 0.53759766
vt 0.89697266 0.5214844
vt 0.6484375 0.5214844
vt 0.6484375 0.5473633
vt 0.89697266 0.5473633
vt 0.89697266 0.53759766
vt 0.6484375 0.53759766
vt 0.38720703 0.66064453
vt 0.13830566 0.66064453
vt 0.13830566 0.6689453
vt 0.38720703 0.6689453
vt 0.38720703 0.65185547
vt 0.13830566 0.65185547
vt 0.13830566 0.66064453
vt 0.38720703 0.66064453
vt 0.38720703 0.6152344
vt 0.13830566 0.6152344
vt 0.13830566 0.65185547
vt 0.38720703 0.65185547
vt 0.38720703 0.609375
vt 0.13830566 0.609375
vt 0.13830566 0.6152344
vt 0.38720703 0.6152344
vt 0.6484375 0.44555664
vt 0.89697266 0.44555664
vt 0.89697266 0.43847656
vt 0.6484375 0.43847656
vt 0.38720703 0.3635254
vt 0.13830566 0.3635254
vt 0.13830566 0.37231445
vt 0.38720703 0.37231445
vt 0.38720703 0.35595703
vt 0.13830566 0.35595703
vt 0.13830566 0.3635254
vt 0.38720703 0.3635254
vt 0.38720703 0.37939453
vt 0.13830566 0.37939453
vt 0.13830566 0.44921875
vt 0.38720703 0.44921875
vt 0.38720703 0.37231445
vt 0.13830566 0.37231445
vt 0.13830566 0.37939453
vt 0.38720703 0.37939453
vt 0.47680664 0.10772705
vt 0.47680664 0.35668945
vt 0.5498047 0.35668945
vt 0.5498047 0.10772705
vt 0.38720703 0.31396484
vt 0.13830566 0.31396484
vt 0.13830566 0.32373047
vt 0.38720703 0.32373047
vt 0.6484375 0.2980957
vt 0.89697266 0.2980957
vt 0.89697266 0.28271484
vt 0.6484375 0.28271484
vt 0.38720703 0.33544922
vt 0.13830566 0.33544922
vt 0.13830566 0.35595703
vt 0.38720703 0.35595703
vt 0.38720703 0.32373047
vt 0.13830566 0.32373047
vt 0.13830566 0.33544922
vt 0.38720703 0.33544922
vt 0.58203125 0.6176758
vt 0.57373047 0.6176758
vt 0.58203125 0.56152344
vt 0.48876953 0.6176758
vt 0.4885254 0.6245117
vt 0.57373047 0.6245117
vt 0.4807129 0.60839844
vt 0.4807129 0.6176758
vt 0.4338379 0.5
vt 0.5883789 0.5541992
vt 0.5883789 0.56152344
vt 0.44140625 0.49169922
vt 0.44140625 0.48364258
vt 0.4501953 0.48364258
vt 0.44970703 0.41430664
vt 0.45703125 0.41430664
vt 0.46435547 0.40551758
vt 0.4567871 0.40551758
vt 0.55859375 0.39868164
vt 0.58935547 0.40600586
vt 0.58935547 0.39868164
vt 0.59765625 0.41455078
vt 0.59765625 0.40600586
vt 0.60546875 0.421875
vt 0.60546875 0.41455078
vt 0.60546875 0.46850586
vt 0.61376953 0.42211914
vt 0.61376953 0.46850586
vt 0.59814453 0.53808594
vt 0.60546875 0.53808594
vt 0.44140625 0.49169922
vt 0.59814453 0.5541992
vt 0.4338379 0.49169922
vt 0.42456055 0.5698242
vt 0.42504883 0.5
vt 0.43408203 0.5698242
vt 0.43408203 0.60253906
vt 0.4416504 0.60253906
vt 0.44213867 0.6088867
vt 0.55859375 0.39868164
vt 0.55078125 0.39086914
vt 0.55859375 0.39086914
vt 0.46435547 0.38330078
vt 0.4729004 0.38354492
vt 0.55078125 0.39086914
vt 0.55078125 0.37524414
vt 0.4729004 0.37548828
vn -1.7285347E-06 0 -1
vn -1.7285347E-06 0 -1
vn -1.7285347E-06 0 -1
vn 1.4901161E-06 -2.3841858E-07 1
vn 1.4901161E-06 -2.3841858E-07 1
vn 1.4901161E-06 -2.3841858E-07 1
vn -1.9669533E-06 -1.3709068E-06 -1
vn -1.9669533E-06 -1.3709068E-06 -1
vn -1.9669533E-06 -1.3709068E-06 -1
vn 9.536743E-07 2.682209E-06 1
vn 9.536743E-07 2.682209E-06 1
vn 9.536743E-07 2.682209E-06 1
vn 9.655952E-06 0 -1
vn 9.655952E-06 0 -1
vn 9.655952E-06 0 -1
vn -2.7418137E-06 0 -1
vn -2.7418137E-06 0 -1
vn -2.682209E-06 0 -1
vn -7.4505806E-06 -7.2717667E-06 -1
vn -9.655952E-06 -8.702278E-06 -1
vn -0 0 -1
vn -0 -1.0430813E-05 -1
vn -0 -1.0430813E-05 -1
vn -1.4305115E-06 1.66893E-06 -1
vn -1.6093254E-06 1.3709068E-06 -1
vn -0 0 -1
vn -0 0 -1
vn -0 0 -1
vn -3.516674E-06 4.2915344E-06 -1
vn -0 0 -1
vn -2.7418137E-06 -1.1920929E-07 -1
vn -0 0 -1
vn -0 1.2814999E-05 -1
vn -0 0 -1
vn -0 0 -1
vn -0 0 -1
vn -0 0 -1
vn -0 0 -1
vn -0 -1.7881393E-06 -1
vn -0 -1.7881393E-06 -1
vn -1.6093254E-06 1.3709068E-06 -1
vn -0 0 -1
vn -0 0 -1
vn -0 0 -1
vn -0 0 -1
vn -0 0 -1
vn -0 0 -1
vn -0 0 -1
vn 9.417534E-06 -2.6226044E-06 -1
vn 9.417534E-06 -2.6226044E-06 -1
vn -6.3180923E-06 -2.9802322E-07 -1
vn 3.5762787E-07 8.583069E-06 -1
vn 3.5762787E-07 8.583069E-06 -1
vn 3.5762787E-07 8.583069E-06 -1
vn -4.529953E-06 1.013279E-05 -1
vn -6.4373016E-06 1.1265278E-05 -1
vn -4.529953E-06 1.013279E-05 -1
vn 3.3974648E-06 -5.531311E-05 -1
vn 3.3974648E-06 -5.531311E-05 -1
vn 0.0014972687 1 1.3113022E-06
vn 0.0014972687 1 1.3113022E-06
vn 0.0014972687 1 1.3113022E-06
vn 0.0014972687 1 1.3113022E-06
vn -1 1.6629696E-05 -2.3841858E-07
vn -1 1.6629696E-05 -2.3841858E-07
vn -1 1.6629696E-05 -2.3841858E-07
vn -1 1.6629696E-05 -2.3841858E-07
vn 1 -0.0146484375 -3.5762787E-07
vn 1 -0.0146484375 -3.5762787E-07
vn 1 -0.0146484375 -3.5762787E-07
vn 1 -0.0146484375 -3.5762787E-07
vn 0.00819397 1 1.2516975E-06
vn 0.00819397 1 1.2516975E-06
vn 0.00819397 1 1.2516975E-06
vn 0.00819397 1 1.2516975E-06
vn -1 0.0009393692 0
vn -1 0.0009393692 0
vn -1 0.0009393692 0
vn -1 0.0009393692 0
vn 0.007865906 -1 -1.66893E-06
vn 0.007865906 -1 -1.66893E-06
vn 0.007865906 -1 -1.66893E-06
vn 0.007865906 -1 -1.66893E-06
vn 1 -2.8252602E-05 -2.3841858E-07
vn 1 -2.8252602E-05 -2.3841858E-07
vn 1 -2.8252602E-05 -2.3841858E-07
vn 1 -1.4126301E-05 -5.9604645E-07
vn 0.0335083 -0.9995117 -1.3113022E-06
vn 0.0335083 -0.9995117 -1.3113022E-06
vn 0.0335083 -0.9995117 -1.3113022E-06
vn 0.0335083 -0.9995117 -1.1920929E-06
vn 1 -0.0039043427 -1.7881393E-07
vn 1 -0.0039043427 -1.7881393E-07
vn 1 -0.0039043427 -1.7881393E-07
vn 1 -0.0039043427 -1.7881393E-07
vn 2.3245811E-06 -1 -1.3113022E-06
vn 2.3245811E-06 -1 -1.3113022E-06
vn 2.3245811E-06 -1 -1.3113022E-06
vn 1.1920929E-06 -1 -1.2516975E-06
vn 1 9.953976E-06 -1.7881393E-07
vn 1 9.953976E-06 -1.7881393E-07
vn 1 9.953976E-06 -1.7881393E-07
vn 1 4.9471855E-06 -2.9802322E-07
vn -1.7821789E-05 -1 -1.4305115E-06
vn -1.7821789E-05 -1 -1.4305115E-06
vn -1.7821789E-05 -1 -1.4305115E-06
vn -8.881092E-06 -1 -1.66893E-06
vn -1 -0.00019443035 4.7683716E-07
vn -1 -0.00019443035 4.7683716E-07
vn -1 -0.00019443035 4.7683716E-07
vn -1 -0.00019443035 4.7683716E-07
vn 0.017745972 1 1.3113022E-06
vn 0.017745972 1 1.3113022E-06
vn 0.017745972 1 1.3113022E-06
vn 0.017745972 1 1.3113022E-06
vn -0.00819397 -1 -1.3113022E-06
vn -0.00819397 -1 -1.3113022E-06
vn -0.00819397 -1 -1.3113022E-06
vn -0.00819397 -1 -1.3113022E-06
vn -1 0.0022583008 0
vn -1 0.0022583008 0
vn -1 0.0022583008 0
vn -1 0.0022583008 0
vn -0.00856781 -1 -1.3709068E-06
vn -0.00856781 -1 -1.3709068E-06
vn -0.00856781 -1 -1.3709068E-06
vn -0.00856781 -1 -1.3709068E-06
vn -1 -8.046627E-06 -5.9604645E-07
vn -1 -8.046627E-06 -5.9604645E-07
vn -1 -8.046627E-06 -5.9604645E-07
vn -1 -8.046627E-06 -5.9604645E-07
vn -0.041137695 -0.99902344 -1.7285347E-06
vn -0.041137695 -0.99902344 -1.7285347E-06
vn -0.041137695 -0.99902344 -1.7285347E-06
vn -0.041137695 -0.99902344 -1.7285347E-06
vn -1 0.0039978027 0
vn -1 0.0039978027 0
vn -1 0.0039978027 0
vn -1 0.0039978027 0
vn -0.0007405281 -1 -1.3113022E-06
vn -0.0007405281 -1 -1.3113022E-06
vn -0.0007405281 -1 -1.3113022E-06
vn -0.0007405281 -1 -1.3113022E-06
vn -1 -9.655952E-06 0
vn -1 -9.655952E-06 0
vn -1 -9.655952E-06 0
vn -1 -9.655952E-06 0
vn 1 -0.0006017685 1.7881393E-07
vn 1 -0.0006017685 1.7881393E-07
vn 1 -0.0006017685 1.7881393E-07
vn 1 -0.0006017685 1.7881393E-07
vn -2.4676323E-05 1 1.013279E-06
vn -2.4676323E-05 1 1.013279E-06
vn -2.4676323E-05 1 1.013279E-06
vn -2.4676323E-05 1 1.013279E-06
vn -1 4.428625E-05 0
vn -1 4.428625E-05 0
vn -1 4.428625E-05 0
vn -1 4.428625E-05 0
vn -4.4107437E-06 1 1.3113022E-06
vn -4.4107437E-06 1 1.3113022E-06
vn -4.4107437E-06 1 1.3113022E-06
vn -4.4107437E-06 1 1.3113022E-06
vn -1 0.003540039 1.7881393E-07
vn -1 0.003540039 1.7881393E-07
vn -1 0.003540039 1.7881393E-07
vn -1 0.003540039 1.7881393E-07
vn 0.0006160736 1 1.3113022E-06
vn 0.0006160736 1 1.3113022E-06
vn 0.0006160736 1 1.3113022E-06
vn 0.0006160736 1 1.3113022E-06
vn -1 2.6285648E-05 1.7881393E-07
vn -1 2.6285648E-05 1.7881393E-07
vn -1 2.6285648E-05 1.7881393E-07
vn -1 2.6285648E-05 1.7881393E-07
vn -2.9206276E-06 1 1.3113022E-06
vn -2.9206276E-06 1 1.3113022E-06
vn -2.9206276E-06 1 1.3113022E-06
vn -2.9206276E-06 1 1.3113022E-06
vn 0.0006918907 1 1.3113022E-06
vn 0.0006918907 1 1.3113022E-06
vn 0.0006918907 1 1.3113022E-06
vn 0.0006918907 1 1.3113022E-06
vn 1 -5.453825E-05 -5.364418E-07
vn 1 -5.453825E-05 -5.364418E-07
vn 1 -5.453825E-05 -5.364418E-07
vn 1 -5.453825E-05 -5.364418E-07
vn -0.0014638901 1 1.4305115E-06
vn -0.0014638901 1 1.4305115E-06
vn -0.0014638901 1 1.4305115E-06
vn -0.0014638901 1 1.4305115E-06
vn 0.99902344 0.045928955 -2.3841858E-07
vn 0.99902344 0.045928955 -2.3841858E-07
vn 0.99902344 0.045928955 -2.3841858E-07
vn 0.99902344 0.045928955 -2.3841858E-07
vn 0.0018119812 1 1.2516975E-06
vn 0.0018119812 1 1.2516975E-06
vn 0.0018119812 1 1.2516975E-06
vn 0.0018119812 1 1.2516975E-06
vn 0.9995117 0.022399902 -4.7683716E-07
vn 0.9995117 0.022399902 -4.7683716E-07
vn 0.9995117 0.022399902 -4.7683716E-07
vn 0.9995117 0.022399902 -4.7683716E-07
vn 0.0012950897 -1 -1.7881393E-06
vn 0.0012950897 -1 -1.7881393E-06
vn 0.0012950897 -1 -1.7881393E-06
vn 0.0012950897 -1 -1.7881393E-06
vn 1 0.0041275024 -4.172325E-07
vn 1 0.0041275024 -4.172325E-07
vn 1 0.0041275024 -4.172325E-07
vn 1 0.0041275024 -4.172325E-07
vn 0.0004234314 -1 -1.5497208E-06
vn 0.0004234314 -1 -1.5497208E-06
vn 0.0004234314 -1 -1.5497208E-06
vn 0.0004234314 -1 -1.5497208E-06
vn 0.004360199 -1 2.2053719E-06
vn 0.004360199 -1 2.2053719E-06
vn 0.004360199 -1 2.2053719E-06
vn 0.004360199 -1 2.2053719E-06
vn 1 -0.0032978058 0
vn 1 -0.0032978058 0
vn 1 -0.0032978058 0
vn 1 -0.0032978058 0
vn -1 0.0016918182 5.364418E-07
vn -1 0.0016918182 5.364418E-07
vn -1 0.0016918182 5.364418E-07
vn -1 0.0016918182 5.364418E-07
vn 1 0.0070610046 -6.556511E-07
vn 1 0.0070610046 -6.556511E-07
vn 1 0.0070610046 -6.556511E-07
vn 1 0.0070610046 -6.556511E-07
vn -0.014572144 -1 -1.013279E-06
vn -0.014572144 -1 -1.013279E-06
vn -0.014572144 -1 -1.013279E-06
vn -0.014572144 -1 -1.013279E-06
vn -7.212162E-06 -3.5762787E-07 1
vn -7.212162E-06 -3.5762787E-07 1
vn -7.212162E-06 -3.5762787E-07 1
vn 2.503395E-06 0 1
vn 2.503395E-06 0 1
vn 2.503395E-06 0 1
vn 6.1392784E-06 5.6028366E-06 1
vn 7.2717667E-06 4.351139E-06 1
vn 1.7285347E-06 -2.3841858E-07 1
vn -0 5.185604E-06 1
vn -0 5.185604E-06 1
vn 2.026558E-06 3.5762787E-07 1
vn -0 0 1
vn 1.3709068E-06 -1.1920929E-06 1
vn 2.682209E-06 -8.34465E-07 1
vn 2.5629997E-06 -2.1457672E-06 1
vn 3.3974648E-06 -2.3841858E-06 1
vn 2.5629997E-06 -2.1457672E-06 1
vn 1.6093254E-06 1.1324883E-06 1
vn -0 -2.2649765E-06 1
vn -0 -6.4373016E-06 1
vn -0 -2.2649765E-06 1
vn -0 -2.2649765E-06 1
vn -2.861023E-06 0 1
vn -2.861023E-06 0 1
vn 2.7418137E-06 0 1
vn -0 4.172325E-07 1
vn -0 4.172325E-07 1
vn 1.3709068E-06 -1.1920929E-06 1
vn 2.7418137E-06 0 1
vn 2.3245811E-06 0 1
vn -0 0 1
vn 2.3245811E-06 0 1
vn 1.7285347E-06 -2.3841858E-07 1
vn -0 0 1
vn 1.7285347E-06 -2.3841858E-07 1
vn -7.033348E-06 1.9669533E-06 1
vn -7.033348E-06 1.9669533E-06 1
vn 5.3048134E-06 2.3841858E-07 1
vn -2.3841858E-07 -6.4373016E-06 1
vn -2.3841858E-07 -6.4373016E-06 1
vn -2.3841858E-07 -6.4373016E-06 1
vn 6.4373016E-06 -9.357929E-06 1
vn 4.4107437E-06 -8.225441E-06 1
vn 4.4107437E-06 -8.225441E-06 1
vn -3.3974648E-06 5.3346157E-05 1
vn -3.3974648E-06 5.3346157E-05 1
g Rocks_Small_011_0
f 3/3/3 2/2/2 1/1/1
f 6/6/6 5/5/5 4/4/4
f 9/9/9 8/8/8 7/7/7
f 12/12/12 11/11/11 10/10/10
f 15/15/15 14/14/14 13/13/13
f 16/16/16 14/14/14 15/15/15
f 17/17/17 16/16/16 15/15/15
f 18/18/18 17/17/17 15/15/15
f 19/19/19 14/14/14 16/16/16
f 20/20/20 19/19/19 16/16/16
f 14/14/14 19/19/19 21/21/21
f 22/22/22 14/14/14 21/21/21
f 22/22/22 23/23/23 14/14/14
f 24/24/24 22/22/22 21/21/21
f 26/26/26 25/25/25 24/24/24
f 28/28/28 27/27/27 25/25/25
f 27/27/27 29/29/29 25/25/25
f 30/30/30 29/29/29 27/27/27
f 25/25/25 29/29/29 31/31/31
f 32/32/32 25/25/25 31/31/31
f 33/33/33 32/32/32 31/31/31
f 34/34/34 25/25/25 32/32/32
f 34/34/34 32/32/32 35/35/35
f 34/34/34 37/37/37 36/36/36
f 25/25/25 36/36/36 38/38/38
f 36/36/36 39/39/39 38/38/38
f 38/38/38 39/39/39 40/40/40
f 41/41/41 25/25/25 38/38/38
f 42/42/42 41/41/41 38/38/38
f 43/43/43 25/25/25 41/41/41
f 41/41/41 22/22/22 43/43/43
f 41/41/41 44/44/44 22/22/22
f 45/45/45 43/43/43 21/21/21
f 47/47/47 21/21/21 46/46/46
f 21/21/21 48/48/48 46/46/46
f 48/48/48 50/50/50 49/49/49
f 19/19/19 50/50/50 48/48/48
f 51/51/51 50/50/50 19/19/19
f 54/54/54 53/53/53 52/52/52
f 29/29/29 54/54/54 52/52/52
f 56/56/56 55/55/55 29/29/29
f 29/29/29 55/55/55 57/57/57
f 58/58/58 57/57/57 55/55/55
f 58/58/58 55/55/55 59/59/59
f 62/62/62 61/61/61 60/60/60
f 63/63/63 62/62/62 60/60/60
f 66/66/66 65/65/65 64/64/64
f 67/67/67 66/66/66 64/64/64
f 70/70/70 69/69/69 68/68/68
f 71/71/71 70/70/70 68/68/68
f 74/74/74 73/73/73 72/72/72
f 75/75/75 74/74/74 72/72/72
f 78/78/78 77/77/77 76/76/76
f 79/79/79 78/78/78 76/76/76
f 82/82/82 81/81/81 80/80/80
f 83/83/83 82/82/82 80/80/80
f 86/86/86 85/85/85 84/84/84
f 87/87/87 84/84/84 85/85/85
f 90/90/90 89/89/89 88/88/88
f 91/91/91 88/88/88 89/89/89
f 94/94/94 93/93/93 92/92/92
f 95/95/95 94/94/94 92/92/92
f 98/98/98 97/97/97 96/96/96
f 99/99/99 96/96/96 97/97/97
f 102/102/102 101/101/101 100/100/100
f 103/103/103 101/101/101 102/102/102
f 106/106/106 105/105/105 104/104/104
f 107/107/107 104/104/104 105/105/105
f 110/110/110 109/109/109 108/108/108
f 111/111/111 110/110/110 108/108/108
f 114/114/114 113/113/113 112/112/112
f 115/115/115 114/114/114 112/112/112
f 118/118/118 117/117/117 116/116/116
f 119/119/119 118/118/118 116/116/116
f 122/122/122 121/121/121 120/120/120
f 123/123/123 122/122/122 120/120/120
f 126/126/126 125/125/125 124/124/124
f 127/127/127 126/126/126 124/124/124
f 130/130/130 129/129/129 128/128/128
f 131/131/131 130/130/130 128/128/128
f 134/134/134 133/133/133 132/132/132
f 135/135/135 134/134/134 132/132/132
f 138/138/138 137/137/137 136/136/136
f 139/139/139 138/138/138 136/136/136
f 142/142/142 141/141/141 140/140/140
f 143/143/143 142/142/142 140/140/140
f 146/146/146 145/145/145 144/144/144
f 147/147/147 146/146/146 144/144/144
f 150/150/150 149/149/149 148/148/148
f 151/151/151 150/150/150 148/148/148
f 154/154/154 153/153/153 152/152/152
f 155/155/155 154/154/154 152/152/152
f 158/158/158 157/157/157 156/156/156
f 159/159/159 158/158/158 156/156/156
f 162/162/162 161/161/161 160/160/160
f 163/163/163 162/162/162 160/160/160
f 166/166/166 165/165/165 164/164/164
f 167/167/167 166/166/166 164/164/164
f 170/170/170 169/169/169 168/168/168
f 171/171/171 170/170/170 168/168/168
f 174/174/174 173/173/173 172/172/172
f 175/175/175 174/174/174 172/172/172
f 178/178/178 177/177/177 176/176/176
f 179/179/179 178/178/178 176/176/176
f 182/182/182 181/181/181 180/180/180
f 183/183/183 182/182/182 180/180/180
f 186/186/186 185/185/185 184/184/184
f 187/187/187 186/186/186 184/184/184
f 190/190/190 189/189/189 188/188/188
f 191/191/191 190/190/190 188/188/188
f 194/194/194 193/193/193 192/192/192
f 195/195/195 194/194/194 192/192/192
f 198/198/198 197/197/197 196/196/196
f 199/199/199 198/198/198 196/196/196
f 202/202/202 201/201/201 200/200/200
f 203/203/203 202/202/202 200/200/200
f 206/206/206 205/205/205 204/204/204
f 207/207/207 206/206/206 204/204/204
f 210/210/210 209/209/209 208/208/208
f 211/211/211 210/210/210 208/208/208
f 214/214/214 213/213/213 212/212/212
f 215/215/215 214/214/214 212/212/212
f 218/218/218 217/217/217 216/216/216
f 219/219/219 218/218/218 216/216/216
f 222/222/222 221/221/221 220/220/220
f 223/223/223 222/222/222 220/220/220
f 226/226/226 225/225/225 224/224/224
f 227/227/227 226/226/226 224/224/224
f 230/230/230 229/229/229 228/228/228
f 231/231/231 230/230/230 228/228/228
f 234/234/234 233/233/233 232/232/232
f 235/235/235 234/234/234 232/232/232
f 238/238/238 237/237/237 236/236/236
f 238/238/238 239/239/239 237/237/237
f 239/239/239 240/240/240 237/237/237
f 240/240/240 241/241/241 237/237/237
f 238/238/238 242/242/242 239/239/239
f 242/242/242 243/243/243 239/239/239
f 242/242/242 238/238/238 244/244/244
f 238/238/238 245/245/245 244/244/244
f 246/246/246 245/245/245 238/238/238
f 245/245/245 247/247/247 244/244/244
f 249/249/249 248/248/248 247/247/247
f 251/251/251 250/250/250 249/249/249
f 252/252/252 251/251/251 249/249/249
f 252/252/252 253/253/253 251/251/251
f 252/252/252 249/249/249 254/254/254
f 249/249/249 255/255/255 254/254/254
f 255/255/255 256/256/256 254/254/254
f 249/249/249 257/257/257 255/255/255
f 255/255/255 257/257/257 258/258/258
f 260/260/260 257/257/257 259/259/259
f 259/259/259 249/249/249 261/261/261
f 259/259/259 261/261/261 262/262/262
f 262/262/262 261/261/261 263/263/263
f 249/249/249 264/264/264 261/261/261
f 264/264/264 265/265/265 261/261/261
f 249/249/249 266/266/266 264/264/264
f 245/245/245 264/264/264 266/266/266
f 267/267/267 264/264/264 245/245/245
f 266/266/266 268/268/268 244/244/244
f 244/244/244 270/270/270 269/269/269
f 271/271/271 244/244/244 269/269/269
f 273/273/273 271/271/271 272/272/272
f 273/273/273 242/242/242 271/271/271
f 273/273/273 274/274/274 242/242/242
f 277/277/277 276/276/276 275/275/275
f 276/276/276 252/252/252 275/275/275
f 279/279/279 278/278/278 252/252/252
f 279/279/279 252/252/252 280/280/280
f 280/280/280 281/281/281 279/279/279
f 279/279/279 281/281/281 282/282/282
