g Rocks_Small_019
v -1.1246667 -0.6730606 -0.8954065
v -1.123595 -1.1585306 -0.8954066
v -1.0514636 -1.1580191 -0.8954066
v -1.0580883 -0.6726236 -0.8954065
v -0.87048584 -0.6022018 -0.8954066
v -1.0578815 -0.60293794 -0.8954066
v -0.68141174 -0.53791535 -0.8954066
v -0.8688452 -0.5390945 -0.8954066
v 0.99775666 -1.1635293 -0.8954066
v 1.0553356 -0.3466928 -0.89540696
v 1.0561868 -1.162576 -0.8954066
v -0.6243786 -0.17043975 -0.8954065
v -0.6815515 -0.17028838 -0.8954065
v 0.92481965 -1.223508 -0.8954066
v 0.9978979 -1.2231156 -0.8954066
v -0.93223995 -1.2248684 -0.8954066
v -1.0524487 -1.2250766 -0.8954066
v 0.92481965 -1.2866025 -0.8954066
v -0.93223995 -1.2879635 -0.8954066
v -0.4876651 0.019951476 -0.8954065
v -0.5565796 -0.046629332 -0.8954065
v -0.624989 -0.046134338 -0.8954065
v -0.556463 0.019825744 -0.8954065
v -0.37569335 0.080646664 -0.8954065
v -0.3098236 0.33040923 -0.8954066
v -0.24429595 0.39211395 -0.89540654
v -0.3096524 0.39222565 -0.89540654
v 1.0558984 0.45522612 -0.89540684
v 1.1246667 0.45522612 -0.89540684
v 1.1246667 -0.3466928 -0.89540696
v -0.057311706 1.1502261 -0.89540654
v 0.9931915 1.1485727 -0.89540684
v 1.0558984 1.1485727 -0.89540684
v 0.8729135 1.2145699 -0.89540684
v 0.99222165 1.2145699 -0.89540684
v 0.059192505 1.2140652 -0.8954067
v -0.057113953 1.2143277 -0.89540654
v 0.059229735 1.2734677 -0.8954067
v 0.8729129 1.2879635 -0.89540684
v -0.12504485 1.074371 -0.89540654
v -0.1250348 1.1504239 -0.89540654
v -0.18216369 0.8901028 -0.89540654
v -0.18215026 1.074371 -0.89540654
v -0.24424133 0.8901028 -0.89540654
v -0.37569335 0.080646664 -0.8954065
v -0.48776975 0.080229186 -0.8954065
v -0.37535095 0.32964996 -0.8954066
v 0.8729129 1.2879635 -0.89540684
v 0.8729127 1.2879639 0.8954067
v 0.059229583 1.2734677 0.8954067
v 0.059229735 1.2734677 -0.8954067
v 0.059229735 1.2734677 -0.8954067
v 0.059229583 1.2734677 0.8954067
v 0.059192352 1.2140653 0.8954067
v 0.059192505 1.2140652 -0.8954067
v -1.1246667 -0.6730606 -0.8954065
v -1.1246669 -0.6730606 0.89540684
v -1.1235951 -1.1585306 0.8954068
v -1.123595 -1.1585306 -0.8954066
v 0.9931915 1.1485727 -0.89540684
v 0.99319136 1.1485728 0.8954067
v 0.99222153 1.2145699 0.8954067
v 0.99222165 1.2145699 -0.89540684
v 0.99222165 1.2145699 -0.89540684
v 0.99222153 1.2145699 0.8954067
v 0.87291336 1.2145699 0.8954067
v 0.8729135 1.2145699 -0.89540684
v 0.059192505 1.2140652 -0.8954067
v 0.059192352 1.2140653 0.8954067
v -0.057114255 1.2143277 0.89540684
v -0.057113953 1.2143277 -0.89540654
v -0.057113953 1.2143277 -0.89540654
v -0.057114255 1.2143277 0.89540684
v -0.05731201 1.1502262 0.89540684
v -0.057311706 1.1502261 -0.89540654
v 0.8729135 1.2145699 -0.89540684
v 0.87291336 1.2145699 0.8954067
v 0.8729127 1.2879639 0.8954067
v 0.8729129 1.2879635 -0.89540684
v -0.057311706 1.1502261 -0.89540654
v -0.05731201 1.1502262 0.89540684
v -0.12503494 1.150424 0.89540684
v -0.1250348 1.1504239 -0.89540654
v 1.0561868 -1.162576 -0.8954066
v 1.0561867 -1.162576 0.8954068
v 1.0553355 -0.3466928 0.8954066
v 1.0553356 -0.3466928 -0.89540696
v 0.99775666 -1.1635293 -0.8954066
v 0.9977565 -1.1635293 0.8954068
v 1.0561867 -1.162576 0.8954068
v 1.0561868 -1.162576 -0.8954066
v 1.0558984 1.1485727 -0.89540684
v 1.0558981 1.1485728 0.8954067
v 0.99319136 1.1485728 0.8954067
v 0.9931915 1.1485727 -0.89540684
v 1.0558984 0.45522612 -0.89540684
v 1.0558983 0.45522612 0.8954067
v 1.0558981 1.1485728 0.8954067
v 1.0558984 1.1485727 -0.89540684
v 0.9978979 -1.2231156 -0.8954066
v 0.9978976 -1.2231156 0.8954068
v 0.9977565 -1.1635293 0.8954068
v 0.99775666 -1.1635293 -0.8954066
v 0.92481965 -1.223508 -0.8954066
v 0.92481947 -1.223508 0.8954068
v 0.9978976 -1.2231156 0.8954068
v 0.9978979 -1.2231156 -0.8954066
v -1.123595 -1.1585306 -0.8954066
v -1.1235951 -1.1585306 0.8954068
v -1.0514637 -1.1580191 0.8954068
v -1.0514636 -1.1580191 -0.8954066
v -1.0514636 -1.1580191 -0.8954066
v -1.0514637 -1.1580191 0.8954068
v -1.0524489 -1.2250766 0.8954068
v -1.0524487 -1.2250766 -0.8954066
v -1.0524487 -1.2250766 -0.8954066
v -1.0524489 -1.2250766 0.8954068
v -0.9322401 -1.2248684 0.8954068
v -0.93223995 -1.2248684 -0.8954066
v 0.92481965 -1.2866025 -0.8954066
v 0.92481947 -1.2866025 0.8954068
v 0.92481947 -1.223508 0.8954068
v 0.92481965 -1.223508 -0.8954066
v -0.93223995 -1.2248684 -0.8954066
v -0.9322401 -1.2248684 0.8954068
v -0.9322401 -1.2879635 0.8954068
v -0.93223995 -1.2879635 -0.8954066
v -0.93223995 -1.2879635 -0.8954066
v -0.9322401 -1.2879635 0.8954068
v 0.92481947 -1.2866025 0.8954068
v 0.92481965 -1.2866025 -0.8954066
v 1.0553356 -0.3466928 -0.89540696
v 1.0553355 -0.3466928 0.8954066
v 1.1246665 -0.3466928 0.8954066
v 1.1246667 -0.3466928 -0.89540696
v 1.1246667 0.45522612 -0.89540684
v 1.1246665 0.45522612 0.8954067
v 1.0558983 0.45522612 0.8954067
v 1.0558984 0.45522612 -0.89540684
v 1.1246667 -0.3466928 -0.89540696
v 1.1246665 -0.3466928 0.8954066
v 1.1246665 0.45522612 0.8954067
v 1.1246667 0.45522612 -0.89540684
v -0.1250348 1.1504239 -0.89540654
v -0.12503494 1.150424 0.89540684
v -0.12504502 1.0743713 0.89540684
v -0.12504485 1.074371 -0.89540654
v -0.12504485 1.074371 -0.89540654
v -0.12504502 1.0743713 0.89540684
v -0.18215042 1.0743713 0.89540684
v -0.18215026 1.074371 -0.89540654
v -0.18215026 1.074371 -0.89540654
v -0.18215042 1.0743713 0.89540684
v -0.18216385 0.8901031 0.89540684
v -0.18216369 0.8901028 -0.89540654
v -0.18216369 0.8901028 -0.89540654
v -0.18216385 0.8901031 0.89540684
v -0.24424148 0.8901031 0.89540684
v -0.24424133 0.8901028 -0.89540654
v -0.24424133 0.8901028 -0.89540654
v -0.24424148 0.8901031 0.89540684
v -0.2442961 0.39211395 0.89540684
v -0.24429595 0.39211395 -0.89540654
v -0.37535095 0.32964996 -0.8954066
v -0.3753511 0.32964996 0.8954068
v -0.3756935 0.080646664 0.89540684
v -0.37569335 0.080646664 -0.8954065
v -0.24429595 0.39211395 -0.89540654
v -0.2442961 0.39211395 0.89540684
v -0.30965254 0.39222565 0.89540684
v -0.3096524 0.39222565 -0.89540654
v -0.3096524 0.39222565 -0.89540654
v -0.30965254 0.39222565 0.89540684
v -0.30982375 0.33040923 0.8954068
v -0.3098236 0.33040923 -0.8954066
v -0.3098236 0.33040923 -0.8954066
v -0.30982375 0.33040923 0.8954068
v -0.3753511 0.32964996 0.8954068
v -0.37535095 0.32964996 -0.8954066
v -0.6815515 -0.17028838 -0.8954065
v -0.68155164 -0.17028838 0.89540696
v -0.68141186 -0.53791535 0.8954068
v -0.68141174 -0.53791535 -0.8954066
v -1.0580883 -0.6726236 -0.8954065
v -1.0580885 -0.6726236 0.89540684
v -1.1246669 -0.6730606 0.89540684
v -1.1246667 -0.6730606 -0.8954065
v -0.6243786 -0.17043975 -0.8954065
v -0.6243788 -0.17043975 0.89540696
v -0.68155164 -0.17028838 0.89540696
v -0.6815515 -0.17028838 -0.8954065
v -0.37569335 0.080646664 -0.8954065
v -0.3756935 0.080646664 0.89540684
v -0.48777008 0.080229186 0.89540684
v -0.48776975 0.080229186 -0.8954065
v -0.48776975 0.080229186 -0.8954065
v -0.48777008 0.080229186 0.89540684
v -0.48766539 0.019951781 0.89540696
v -0.4876651 0.019951476 -0.8954065
v -0.4876651 0.019951476 -0.8954065
v -0.48766539 0.019951781 0.89540696
v -0.5564632 0.019825744 0.89540696
v -0.556463 0.019825744 -0.8954065
v -0.624989 -0.046134338 -0.8954065
v -0.62498915 -0.046134338 0.89540696
v -0.6243788 -0.17043975 0.89540696
v -0.6243786 -0.17043975 -0.8954065
v -0.5565796 -0.046629332 -0.8954065
v -0.5565799 -0.046629332 0.89540696
v -0.62498915 -0.046134338 0.89540696
v -0.624989 -0.046134338 -0.8954065
v -0.556463 0.019825744 -0.8954065
v -0.5564632 0.019825744 0.89540696
v -0.5565799 -0.046629332 0.89540696
v -0.5565796 -0.046629332 -0.8954065
v -0.68141174 -0.53791535 -0.8954066
v -0.68141186 -0.53791535 0.8954068
v -0.8688455 -0.5390945 0.8954068
v -0.8688452 -0.5390945 -0.8954066
v -0.8688452 -0.5390945 -0.8954066
v -0.8688455 -0.5390945 0.8954068
v -0.87048596 -0.6022018 0.8954068
v -0.87048584 -0.6022018 -0.8954066
v -0.87048584 -0.6022018 -0.8954066
v -0.87048596 -0.6022018 0.8954068
v -1.057882 -0.60293794 0.8954068
v -1.0578815 -0.60293794 -0.8954066
v -1.0578815 -0.60293794 -0.8954066
v -1.057882 -0.60293794 0.8954068
v -1.0580885 -0.6726236 0.89540684
v -1.0580883 -0.6726236 -0.8954065
v -1.1246669 -0.6730606 0.89540684
v -1.0514637 -1.1580191 0.8954068
v -1.1235951 -1.1585306 0.8954068
v -1.0580885 -0.6726236 0.89540684
v -0.87048596 -0.6022018 0.8954068
v -1.057882 -0.60293794 0.8954068
v -0.68141186 -0.53791535 0.8954068
v -0.8688455 -0.5390945 0.8954068
v 0.9977565 -1.1635293 0.8954068
v 1.0553355 -0.3466928 0.8954066
v 1.0561867 -1.162576 0.8954068
v -0.6243788 -0.17043975 0.89540696
v -0.68155164 -0.17028838 0.89540696
v 0.92481947 -1.223508 0.8954068
v 0.9978976 -1.2231156 0.8954068
v -0.9322401 -1.2248684 0.8954068
v -1.0524489 -1.2250766 0.8954068
v 0.92481947 -1.2866025 0.8954068
v -0.9322401 -1.2879635 0.8954068
v -0.48766539 0.019951781 0.89540696
v -0.5565799 -0.046629332 0.89540696
v -0.62498915 -0.046134338 0.89540696
v -0.5564632 0.019825744 0.89540696
v -0.3756935 0.080646664 0.89540684
v -0.30982375 0.33040923 0.8954068
v -0.2442961 0.39211395 0.89540684
v -0.30965254 0.39222565 0.89540684
v 1.0558983 0.45522612 0.8954067
v 1.1246665 0.45522612 0.8954067
v 1.1246665 -0.3466928 0.8954066
v -0.05731201 1.1502262 0.89540684
v 0.99319136 1.1485728 0.8954067
v 1.0558981 1.1485728 0.8954067
v 0.87291336 1.2145699 0.8954067
v 0.99222153 1.2145699 0.8954067
v 0.059192352 1.2140653 0.8954067
v -0.057114255 1.2143277 0.89540684
v 0.059229583 1.2734677 0.8954067
v 0.8729127 1.2879639 0.8954067
v -0.12504502 1.0743713 0.89540684
v -0.12503494 1.150424 0.89540684
v -0.18216385 0.8901031 0.89540684
v -0.18215042 1.0743713 0.89540684
v -0.24424148 0.8901031 0.89540684
v -0.3756935 0.080646664 0.89540684
v -0.48777008 0.080229186 0.89540684
v -0.3753511 0.32964996 0.8954068
vt 0.9067383 0.44580078
vt 0.9067383 0.41674805
vt 0.90234375 0.41674805
vt 0.90234375 0.44580078
vt 0.890625 0.44995117
vt 0.90234375 0.44995117
vt 0.87939453 0.45361328
vt 0.8901367 0.45361328
vt 0.77197266 0.41503906
vt 0.7675781 0.46484375
vt 0.7680664 0.41503906
vt 0.8745117 0.47485352
vt 0.87939453 0.47485352
vt 0.77685547 0.41137695
vt 0.77197266 0.41137695
vt 0.89501953 0.41259766
vt 0.90234375 0.41259766
vt 0.77685547 0.4074707
vt 0.89501953 0.4086914
vt 0.86572266 0.48632812
vt 0.8701172 0.48242188
vt 0.8745117 0.48242188
vt 0.8701172 0.48632812
vt 0.85839844 0.48999023
vt 0.8540039 0.50683594
vt 0.8496094 0.5107422
vt 0.8540039 0.5107422
vt 0.76708984 0.5107422
vt 0.7626953 0.5107422
vt 0.7631836 0.46484375
vt 0.83740234 0.5566406
vt 0.7705078 0.55615234
vt 0.76660156 0.55615234
vt 0.7783203 0.5600586
vt 0.7705078 0.5600586
vt 0.8300781 0.5605469
vt 0.83740234 0.5605469
vt 0.8300781 0.56396484
vt 0.7783203 0.5644531
vt 0.8417969 0.5522461
vt 0.8417969 0.5566406
vt 0.8457031 0.5410156
vt 0.8457031 0.5522461
vt 0.8496094 0.5410156
vt 0.85839844 0.48999023
vt 0.86572266 0.48999023
vt 0.85839844 0.50683594
vt 0.7792969 0.5761719
vt 0.7792969 0.6425781
vt 0.83203125 0.6425781
vt 0.83203125 0.5761719
vt 0.83203125 0.5761719
vt 0.83203125 0.6425781
vt 0.8364258 0.6425781
vt 0.8364258 0.5761719
vt 0.9194336 0.4506836
vt 0.99121094 0.4506836
vt 0.99121094 0.4194336
vt 0.9194336 0.4194336
vt 0.74902344 0.5595703
vt 0.6772461 0.5595703
vt 0.6772461 0.5644531
vt 0.74902344 0.5644531
vt 0.74902344 0.5644531
vt 0.6772461 0.5644531
vt 0.6772461 0.5732422
vt 0.74902344 0.5732422
vt 0.8364258 0.5761719
vt 0.8364258 0.6425781
vt 0.84521484 0.6425781
vt 0.84521484 0.5761719
vt 0.84521484 0.5761719
vt 0.84521484 0.6425781
vt 0.85009766 0.6425781
vt 0.85009766 0.5761719
vt 0.74902344 0.5732422
vt 0.6772461 0.5732422
vt 0.6772461 0.5786133
vt 0.74902344 0.5786133
vt 0.85009766 0.5761719
vt 0.85009766 0.6425781
vt 0.85546875 0.6425781
vt 0.85546875 0.5761719
vt 0.74902344 0.39575195
vt 0.6772461 0.39575195
vt 0.6772461 0.4482422
vt 0.74902344 0.4482422
vt 0.765625 0.38305664
vt 0.765625 0.31640625
vt 0.76171875 0.31640625
vt 0.76171875 0.38305664
vt 0.74902344 0.5546875
vt 0.6772461 0.5546875
vt 0.6772461 0.5595703
vt 0.74902344 0.5595703
vt 0.74902344 0.5097656
vt 0.6772461 0.5097656
vt 0.6772461 0.5546875
vt 0.74902344 0.5546875
vt 0.76953125 0.38305664
vt 0.76953125 0.31640625
vt 0.765625 0.31640625
vt 0.765625 0.38305664
vt 0.7739258 0.38305664
vt 0.7739258 0.31640625
vt 0.76953125 0.31640625
vt 0.76953125 0.38305664
vt 0.9194336 0.4194336
vt 0.99121094 0.4194336
vt 0.99121094 0.41479492
vt 0.9194336 0.41479492
vt 0.9194336 0.41479492
vt 0.99121094 0.41479492
vt 0.99121094 0.4104004
vt 0.9194336 0.4104004
vt 0.9194336 0.4104004
vt 0.99121094 0.4104004
vt 0.99121094 0.40283203
vt 0.9194336 0.40283203
vt 0.77783203 0.38305664
vt 0.77783203 0.31640625
vt 0.7739258 0.31640625
vt 0.7739258 0.38305664
vt 0.9003906 0.38305664
vt 0.9003906 0.31640625
vt 0.8964844 0.31640625
vt 0.8964844 0.38305664
vt 0.8964844 0.38305664
vt 0.8964844 0.31640625
vt 0.77783203 0.31640625
vt 0.77783203 0.38305664
vt 0.74902344 0.4482422
vt 0.6772461 0.4482422
vt 0.6772461 0.453125
vt 0.74902344 0.453125
vt 0.74902344 0.5048828
vt 0.6772461 0.5048828
vt 0.6772461 0.5097656
vt 0.74902344 0.5097656
vt 0.74902344 0.453125
vt 0.6772461 0.453125
vt 0.6772461 0.5048828
vt 0.74902344 0.5048828
vt 0.85546875 0.5761719
vt 0.85546875 0.6425781
vt 0.8613281 0.6425781
vt 0.8613281 0.5761719
vt 0.8613281 0.5761719
vt 0.8613281 0.6425781
vt 0.86621094 0.6425781
vt 0.86621094 0.5761719
vt 0.86621094 0.5761719
vt 0.86621094 0.6425781
vt 0.87890625 0.6425781
vt 0.87890625 0.5761719
vt 0.9194336 0.6230469
vt 0.99121094 0.6230469
vt 0.99121094 0.61816406
vt 0.9194336 0.61816406
vt 0.9194336 0.61816406
vt 0.99121094 0.61816406
vt 0.99121094 0.5854492
vt 0.9194336 0.5854492
vt 0.9194336 0.5703125
vt 0.99121094 0.5703125
vt 0.99121094 0.55371094
vt 0.9194336 0.55371094
vt 0.9194336 0.5854492
vt 0.99121094 0.5854492
vt 0.99121094 0.5800781
vt 0.9194336 0.5800781
vt 0.9194336 0.5800781
vt 0.99121094 0.5800781
vt 0.99121094 0.5751953
vt 0.9194336 0.5751953
vt 0.9194336 0.5751953
vt 0.99121094 0.5751953
vt 0.99121094 0.5703125
vt 0.9194336 0.5703125
vt 0.9194336 0.5131836
vt 0.99121094 0.5131836
vt 0.99121094 0.48901367
vt 0.9194336 0.48901367
vt 0.9194336 0.45507812
vt 0.99121094 0.45507812
vt 0.99121094 0.4506836
vt 0.9194336 0.4506836
vt 0.9194336 0.51708984
vt 0.99121094 0.51708984
vt 0.99121094 0.5131836
vt 0.9194336 0.5131836
vt 0.9194336 0.55371094
vt 0.99121094 0.55371094
vt 0.99121094 0.54541016
vt 0.9194336 0.54541016
vt 0.9194336 0.54541016
vt 0.99121094 0.54541016
vt 0.99121094 0.5410156
vt 0.9194336 0.5410156
vt 0.9194336 0.5410156
vt 0.99121094 0.5410156
vt 0.99121094 0.53564453
vt 0.9194336 0.53564453
vt 0.9194336 0.5258789
vt 0.99121094 0.5258789
vt 0.99121094 0.51708984
vt 0.9194336 0.51708984
vt 0.9194336 0.5307617
vt 0.99121094 0.5307617
vt 0.99121094 0.5258789
vt 0.9194336 0.5258789
vt 0.9194336 0.53564453
vt 0.99121094 0.53564453
vt 0.99121094 0.5307617
vt 0.9194336 0.5307617
vt 0.9194336 0.48901367
vt 0.99121094 0.48901367
vt 0.99121094 0.4765625
vt 0.9194336 0.4765625
vt 0.9194336 0.4765625
vt 0.99121094 0.4765625
vt 0.99121094 0.47216797
vt 0.9194336 0.47216797
vt 0.9194336 0.47216797
vt 0.99121094 0.47216797
vt 0.99121094 0.45996094
vt 0.9194336 0.45996094
vt 0.9194336 0.45996094
vt 0.99121094 0.45996094
vt 0.99121094 0.45507812
vt 0.9194336 0.45507812
vt 0.9067383 0.44580078
vt 0.90234375 0.41674805
vt 0.9067383 0.41674805
vt 0.90234375 0.44580078
vt 0.890625 0.44995117
vt 0.90234375 0.44995117
vt 0.87939453 0.45361328
vt 0.8901367 0.45361328
vt 0.77197266 0.41503906
vt 0.7675781 0.46484375
vt 0.7680664 0.41503906
vt 0.8745117 0.47485352
vt 0.87939453 0.47485352
vt 0.77685547 0.41137695
vt 0.77197266 0.41137695
vt 0.89501953 0.41259766
vt 0.90234375 0.41259766
vt 0.77685547 0.4074707
vt 0.89501953 0.4086914
vt 0.86572266 0.48632812
vt 0.8701172 0.48242188
vt 0.8745117 0.48242188
vt 0.8701172 0.48632812
vt 0.85839844 0.48999023
vt 0.8540039 0.50683594
vt 0.8496094 0.5107422
vt 0.8540039 0.5107422
vt 0.76708984 0.5107422
vt 0.7626953 0.5107422
vt 0.7631836 0.46484375
vt 0.83740234 0.5566406
vt 0.7705078 0.55615234
vt 0.76660156 0.55615234
vt 0.7783203 0.5600586
vt 0.7705078 0.5600586
vt 0.8300781 0.5605469
vt 0.83740234 0.5605469
vt 0.8300781 0.56396484
vt 0.7783203 0.5644531
vt 0.8417969 0.5522461
vt 0.8417969 0.5566406
vt 0.8457031 0.5410156
vt 0.8457031 0.5522461
vt 0.8496094 0.5410156
vt 0.85839844 0.48999023
vt 0.86572266 0.48999023
vt 0.85839844 0.50683594
vn -0 2.9802322E-07 -1
vn -0 2.9802322E-07 -1
vn -0 2.9802322E-07 -1
vn -0 -2.2053719E-06 -1
vn -0 0 -1
vn -0 -2.2053719E-06 -1
vn -0 0 -1
vn -0 0 -1
vn -0 0 -1
vn 2.3841858E-07 9.536743E-07 -1
vn -0 -3.5762787E-07 -1
vn -0 0 -1
vn -0 4.172325E-07 -1
vn -0 0 -1
vn -0 0 -1
vn -0 0 -1
vn -0 0 -1
vn -0 0 -1
vn -0 0 -1
vn -0 0 -1
vn -0 0 -1
vn -0 0 -1
vn -0 0 -1
vn -4.7683716E-07 -4.7683716E-07 -1
vn 2.3841858E-07 9.536743E-07 -1
vn 2.3841858E-07 9.536743E-07 -1
vn -0 1.2516975E-06 -1
vn -0 0 -1
vn -0 0 -1
vn -0 0 -1
vn -1.3113022E-06 0 -1
vn -0 0 -1
vn -0 0 -1
vn -1.7881393E-07 0 -1
vn -0 0 -1
vn -1.7881393E-07 0 -1
vn -1.3113022E-06 0 -1
vn -1.7881393E-07 0 -1
vn -1.7881393E-07 0 -1
vn -0 0 -1
vn -0 0 -1
vn -0 0 -1
vn -0 0 -1
vn -0 0 -1
vn -0 -5.9604645E-07 -1
vn -0 0 -1
vn -0 -5.9604645E-07 -1
vn -0.017807007 1 0
vn -0.017807007 1 0
vn -0.017807007 1 0
vn -0.017807007 1 0
vn -1 0.000626564 0
vn -1 0.000626564 0
vn -1 0.000626564 0
vn -1 0.000626564 0
vn -1 -0.0022068024 0
vn -1 -0.0022068024 0
vn -1 -0.0022068024 0
vn -1 -0.0022068024 0
vn 1 0.014694214 0
vn 1 0.014694214 0
vn 1 0.014694214 0
vn 1 0.014694214 0
vn -0 1 0
vn -0 1 0
vn -0 1 0
vn -0 1 0
vn 0.0022563934 1 0
vn 0.0022563934 1 0
vn 0.0022563934 1 0
vn 0.0022563934 1 0
vn -1 0.0030841827 -1.7881393E-07
vn -1 0.0030841827 -1.7881393E-07
vn -1 0.0030841827 -1.7881393E-07
vn -1 0.0030841827 -1.7881393E-07
vn 1 8.34465E-06 0
vn 1 8.34465E-06 0
vn 1 8.34465E-06 0
vn 1 8.34465E-06 0
vn 0.0029201508 1 0
vn 0.0029201508 1 0
vn 0.0029201508 1 0
vn 0.0029201508 1 0
vn 1 0.0010433197 0
vn 1 0.0010433197 0
vn 1 0.0010433197 0
vn 1 0.0010433197 0
vn 0.016311646 -1 0
vn 0.016311646 -1 0
vn 0.016311646 -1 0
vn 0.016311646 -1 0
vn -0 1 0
vn -0 1 0
vn -0 1 0
vn -0 1 0
vn 1 1.1920929E-07 1.1920929E-07
vn 1 1.1920929E-07 1.1920929E-07
vn 1 1.1920929E-07 1.1920929E-07
vn 1 1.1920929E-07 1.1920929E-07
vn 1 0.0023708344 1.1920929E-07
vn 1 0.0023708344 1.1920929E-07
vn 1 0.0023708344 1.1920929E-07
vn 1 0.0023708344 1.1920929E-07
vn 0.0053710938 -1 0
vn 0.0053710938 -1 0
vn 0.0053710938 -1 0
vn 0.0053710938 -1 0
vn 0.007091522 -1 0
vn 0.007091522 -1 0
vn 0.007091522 -1 0
vn 0.007091522 -1 0
vn -1 0.0146865845 0
vn -1 0.0146865845 0
vn -1 0.0146865845 0
vn -1 0.0146865845 0
vn 0.0017318726 -1 0
vn 0.0017318726 -1 0
vn 0.0017318726 -1 0
vn 0.0017318726 -1 0
vn 1 0 0
vn 1 0 0
vn 1 0 0
vn 1 0 0
vn -1 0 0
vn -1 0 0
vn -1 0 0
vn -1 0 0
vn 0.0007328987 -1 0
vn 0.0007328987 -1 0
vn 0.0007328987 -1 0
vn 0.0007328987 -1 0
vn -0 -1 0
vn -0 -1 0
vn -0 -1 0
vn -0 -1 0
vn -0 1 0
vn -0 1 0
vn -0 1 0
vn -0 1 0
vn 1 0 1.7881393E-07
vn 1 0 1.7881393E-07
vn 1 0 1.7881393E-07
vn 1 0 1.7881393E-07
vn -1 0.00013244152 0
vn -1 0.00013244152 0
vn -1 0.00013244152 0
vn -1 0.00013244152 0
vn -0 1 -1.7881393E-07
vn -0 1 -1.7881393E-07
vn -0 1 -1.7881393E-07
vn -0 1 -1.7881393E-07
vn -1 7.289648E-05 0
vn -1 7.289648E-05 0
vn -1 7.289648E-05 0
vn -1 7.289648E-05 0
vn -0 1 -1.7881393E-07
vn -0 1 -1.7881393E-07
vn -0 1 -1.7881393E-07
vn -0 1 -1.7881393E-07
vn -1 0.00010967255 0
vn -1 0.00010967255 0
vn -1 0.00010967255 0
vn -1 0.00010967255 0
vn -1 0.0013751984 0
vn -1 0.0013751984 0
vn -1 0.0013751984 0
vn -1 0.0013751984 0
vn 0.0017089844 1 0
vn 0.0017089844 1 0
vn 0.0017089844 1 0
vn 0.0017089844 1 0
vn -1 0.0027694702 0
vn -1 0.0027694702 0
vn -1 0.0027694702 0
vn -1 0.0027694702 0
vn -0.01158905 1 0
vn -0.01158905 1 0
vn -0.01158905 1 0
vn -0.01158905 1 0
vn -1 -0.00038027763 0
vn -1 -0.00038027763 0
vn -1 -0.00038027763 0
vn -1 -0.00038027763 0
vn -0.006565094 1 0
vn -0.006565094 1 0
vn -0.006565094 1 0
vn -0.006565094 1 0
vn 0.0026474 1 0
vn 0.0026474 1 0
vn 0.0026474 1 0
vn 0.0026474 1 0
vn -0.0037250519 1 0
vn -0.0037250519 1 0
vn -0.0037250519 1 0
vn -0.0037250519 1 0
vn -1 -0.0017366409 -1.7881393E-07
vn -1 -0.0017366409 -1.7881393E-07
vn -1 -0.0017366409 -1.7881393E-07
vn -1 -0.0017366409 -1.7881393E-07
vn -0.001830101 1 0
vn -0.001830101 1 0
vn -0.001830101 1 0
vn -0.001830101 1 0
vn -1 -0.0049095154 0
vn -1 -0.0049095154 0
vn -1 -0.0049095154 0
vn -1 -0.0049095154 0
vn 0.0072364807 1 0
vn 0.0072364807 1 0
vn 0.0072364807 1 0
vn 0.0072364807 1 0
vn -1 0.0017557144 -1.1920929E-07
vn -1 0.0017557144 -1.1920929E-07
vn -1 0.0017557144 -1.1920929E-07
vn -1 0.0017557144 -1.1920929E-07
vn -0.006290436 1 0
vn -0.006290436 1 0
vn -0.006290436 1 0
vn -0.006290436 1 0
vn -0.9995117 0.025985718 -1.1920929E-07
vn -0.9995117 0.025985718 -1.1920929E-07
vn -0.9995117 0.025985718 -1.1920929E-07
vn -0.9995117 0.025985718 -1.1920929E-07
vn -0.003929138 1 0
vn -0.003929138 1 0
vn -0.003929138 1 0
vn -0.003929138 1 0
vn -1 0.0029678345 -1.7881393E-07
vn -1 0.0029678345 -1.7881393E-07
vn -1 0.0029678345 -1.7881393E-07
vn -1 0.0029678345 -1.7881393E-07
vn -0 -1.7881393E-07 1
vn -0 -1.7881393E-07 1
vn -0 -1.7881393E-07 1
vn -0 1.0728836E-06 1
vn -0 0 1
vn -0 1.0728836E-06 1
vn -0 0 1
vn -0 0 1
vn -0 0 1
vn -3.5762787E-07 -8.940697E-07 1
vn -0 1.7881393E-07 1
vn -0 0 1
vn -0 -4.172325E-07 1
vn -0 0 1
vn -0 0 1
vn -0 0 1
vn -0 0 1
vn -0 0 1
vn -0 0 1
vn -0 1.2516975E-06 1
vn -0 0 1
vn -0 0 1
vn -0 0 1
vn 2.3841858E-07 2.3841858E-07 1
vn -3.5762787E-07 -8.940697E-07 1
vn -3.5762787E-07 -8.940697E-07 1
vn -0 -1.2516975E-06 1
vn -0 0 1
vn -0 0 1
vn -0 0 1
vn 1.3113022E-06 0 1
vn -0 0 1
vn -0 0 1
vn -0 0 1
vn -0 0 1
vn -0 0 1
vn 1.3113022E-06 0 1
vn -0 0 1
vn -0 0 1
vn -0 0 1
vn -0 0 1
vn -0 0 1
vn -0 0 1
vn -0 0 1
vn -0 2.9802322E-07 1
vn -0 1.2516975E-06 1
vn -0 2.9802322E-07 1
g Rocks_Small_019_0
f 3/3/3 2/2/2 1/1/1
f 1/1/1 4/4/4 3/3/3
f 4/4/4 5/5/5 3/3/3
f 5/5/5 4/4/4 6/6/6
f 3/3/3 5/5/5 7/7/7
f 7/7/7 5/5/5 8/8/8
f 9/9/9 3/3/3 7/7/7
f 10/10/10 9/9/9 7/7/7
f 11/11/11 9/9/9 10/10/10
f 12/12/12 10/10/10 7/7/7
f 13/13/13 12/12/12 7/7/7
f 9/9/9 14/14/14 3/3/3
f 15/15/15 14/14/14 9/9/9
f 14/14/14 16/16/16 3/3/3
f 17/17/17 3/3/3 16/16/16
f 14/14/14 18/18/18 16/16/16
f 18/18/18 19/19/19 16/16/16
f 10/10/10 12/12/12 20/20/20
f 12/12/12 21/21/21 20/20/20
f 12/12/12 22/22/22 21/21/21
f 20/20/20 21/21/21 23/23/23
f 24/24/24 10/10/10 20/20/20
f 24/24/24 25/25/25 10/10/10
f 25/25/25 26/26/26 10/10/10
f 25/25/25 27/27/27 26/26/26
f 10/10/10 26/26/26 28/28/28
f 28/28/28 29/29/29 10/10/10
f 29/29/29 30/30/30 10/10/10
f 28/28/28 26/26/26 31/31/31
f 32/32/32 28/28/28 31/31/31
f 32/32/32 33/33/33 28/28/28
f 34/34/34 32/32/32 31/31/31
f 34/34/34 35/35/35 32/32/32
f 36/36/36 34/34/34 31/31/31
f 31/31/31 37/37/37 36/36/36
f 36/36/36 38/38/38 34/34/34
f 38/38/38 39/39/39 34/34/34
f 26/26/26 40/40/40 31/31/31
f 41/41/41 31/31/31 40/40/40
f 26/26/26 42/42/42 40/40/40
f 42/42/42 43/43/43 40/40/40
f 26/26/26 44/44/44 42/42/42
f 20/20/20 46/46/46 45/45/45
f 45/45/45 47/47/47 25/25/25
f 50/50/50 49/49/49 48/48/48
f 51/51/51 50/50/50 48/48/48
f 54/54/54 53/53/53 52/52/52
f 55/55/55 54/54/54 52/52/52
f 58/58/58 57/57/57 56/56/56
f 59/59/59 58/58/58 56/56/56
f 62/62/62 61/61/61 60/60/60
f 63/63/63 62/62/62 60/60/60
f 66/66/66 65/65/65 64/64/64
f 67/67/67 66/66/66 64/64/64
f 70/70/70 69/69/69 68/68/68
f 71/71/71 70/70/70 68/68/68
f 74/74/74 73/73/73 72/72/72
f 75/75/75 74/74/74 72/72/72
f 78/78/78 77/77/77 76/76/76
f 79/79/79 78/78/78 76/76/76
f 82/82/82 81/81/81 80/80/80
f 83/83/83 82/82/82 80/80/80
f 86/86/86 85/85/85 84/84/84
f 87/87/87 86/86/86 84/84/84
f 90/90/90 89/89/89 88/88/88
f 91/91/91 90/90/90 88/88/88
f 94/94/94 93/93/93 92/92/92
f 95/95/95 94/94/94 92/92/92
f 98/98/98 97/97/97 96/96/96
f 99/99/99 98/98/98 96/96/96
f 102/102/102 101/101/101 100/100/100
f 103/103/103 102/102/102 100/100/100
f 106/106/106 105/105/105 104/104/104
f 107/107/107 106/106/106 104/104/104
f 110/110/110 109/109/109 108/108/108
f 111/111/111 110/110/110 108/108/108
f 114/114/114 113/113/113 112/112/112
f 115/115/115 114/114/114 112/112/112
f 118/118/118 117/117/117 116/116/116
f 119/119/119 118/118/118 116/116/116
f 122/122/122 121/121/121 120/120/120
f 123/123/123 122/122/122 120/120/120
f 126/126/126 125/125/125 124/124/124
f 127/127/127 126/126/126 124/124/124
f 130/130/130 129/129/129 128/128/128
f 131/131/131 130/130/130 128/128/128
f 134/134/134 133/133/133 132/132/132
f 135/135/135 134/134/134 132/132/132
f 138/138/138 137/137/137 136/136/136
f 139/139/139 138/138/138 136/136/136
f 142/142/142 141/141/141 140/140/140
f 143/143/143 142/142/142 140/140/140
f 146/146/146 145/145/145 144/144/144
f 147/147/147 146/146/146 144/144/144
f 150/150/150 149/149/149 148/148/148
f 151/151/151 150/150/150 148/148/148
f 154/154/154 153/153/153 152/152/152
f 155/155/155 154/154/154 152/152/152
f 158/158/158 157/157/157 156/156/156
f 159/159/159 158/158/158 156/156/156
f 162/162/162 161/161/161 160/160/160
f 163/163/163 162/162/162 160/160/160
f 166/166/166 165/165/165 164/164/164
f 167/167/167 166/166/166 164/164/164
f 170/170/170 169/169/169 168/168/168
f 171/171/171 170/170/170 168/168/168
f 174/174/174 173/173/173 172/172/172
f 175/175/175 174/174/174 172/172/172
f 178/178/178 177/177/177 176/176/176
f 179/179/179 178/178/178 176/176/176
f 182/182/182 181/181/181 180/180/180
f 183/183/183 182/182/182 180/180/180
f 186/186/186 185/185/185 184/184/184
f 187/187/187 186/186/186 184/184/184
f 190/190/190 189/189/189 188/188/188
f 191/191/191 190/190/190 188/188/188
f 194/194/194 193/193/193 192/192/192
f 195/195/195 194/194/194 192/192/192
f 198/198/198 197/197/197 196/196/196
f 199/199/199 198/198/198 196/196/196
f 202/202/202 201/201/201 200/200/200
f 203/203/203 202/202/202 200/200/200
f 206/206/206 205/205/205 204/204/204
f 207/207/207 206/206/206 204/204/204
f 210/210/210 209/209/209 208/208/208
f 211/211/211 210/210/210 208/208/208
f 214/214/214 213/213/213 212/212/212
f 215/215/215 214/214/214 212/212/212
f 218/218/218 217/217/217 216/216/216
f 219/219/219 218/218/218 216/216/216
f 222/222/222 221/221/221 220/220/220
f 223/223/223 222/222/222 220/220/220
f 226/226/226 225/225/225 224/224/224
f 227/227/227 226/226/226 224/224/224
f 230/230/230 229/229/229 228/228/228
f 231/231/231 230/230/230 228/228/228
f 234/234/234 233/233/233 232/232/232
f 235/235/235 232/232/232 233/233/233
f 236/236/236 235/235/235 233/233/233
f 235/235/235 236/236/236 237/237/237
f 236/236/236 233/233/233 238/238/238
f 236/236/236 238/238/238 239/239/239
f 233/233/233 240/240/240 238/238/238
f 240/240/240 241/241/241 238/238/238
f 240/240/240 242/242/242 241/241/241
f 241/241/241 243/243/243 238/238/238
f 243/243/243 244/244/244 238/238/238
f 245/245/245 240/240/240 233/233/233
f 245/245/245 246/246/246 240/240/240
f 247/247/247 245/245/245 233/233/233
f 233/233/233 248/248/248 247/247/247
f 249/249/249 245/245/245 247/247/247
f 250/250/250 249/249/249 247/247/247
f 243/243/243 241/241/241 251/251/251
f 252/252/252 243/243/243 251/251/251
f 253/253/253 243/243/243 252/252/252
f 252/252/252 251/251/251 254/254/254
f 241/241/241 255/255/255 251/251/251
f 256/256/256 255/255/255 241/241/241
f 257/257/257 256/256/256 241/241/241
f 258/258/258 256/256/256 257/257/257
f 257/257/257 241/241/241 259/259/259
f 260/260/260 259/259/259 241/241/241
f 261/261/261 260/260/260 241/241/241
f 257/257/257 259/259/259 262/262/262
f 259/259/259 263/263/263 262/262/262
f 264/264/264 263/263/263 259/259/259
f 263/263/263 265/265/265 262/262/262
f 266/266/266 265/265/265 263/263/263
f 265/265/265 267/267/267 262/262/262
f 268/268/268 262/262/262 267/267/267
f 269/269/269 267/267/267 265/265/265
f 270/270/270 269/269/269 265/265/265
f 271/271/271 257/257/257 262/262/262
f 262/262/262 272/272/272 271/271/271
f 273/273/273 257/257/257 271/271/271
f 274/274/274 273/273/273 271/271/271
f 275/275/275 257/257/257 273/273/273
f 277/277/277 251/251/251 276/276/276
f 278/278/278 276/276/276 256/256/256
