g Rocks_Small_014
v 0.90822875 -0.2685474 -0.98200077
v 0.80077755 -0.7057119 -0.982002
v 0.85277706 -0.6372243 -0.982002
v 0.90822935 -0.26855013 0.9819991
v 0.8527783 -0.6372275 0.9819983
v 0.80077815 -0.70571685 0.9819983
v -0.67213136 1.7879105 -0.98199713
v -0.6707556 1.712705 -0.98199713
v -0.58994997 1.7878169 -0.98199654
v 0.5648419 1.7175714 -0.9819996
v -0.73841554 0.5123877 -0.9819977
v -0.7444189 1.7132336 -0.98199713
v 0.5016113 1.7875562 -0.981999
v 0.56484556 1.7875118 -0.9819996
v 0.5027869 1.8678112 -0.981999
v -0.5896643 1.8682274 -0.98199654
v 0.6139538 0.9941157 -0.98200077
v 0.61138 1.7164745 -0.9819996
v 0.9065893 0.95364165 -0.9820014
v 0.9063635 0.996539 -0.9820014
v 0.90822875 0.52345073 -0.98200077
v 0.9761096 0.52479744 -0.9820014
v 0.97389525 0.9536433 -0.9820014
v -0.9025195 0.4537809 -0.9819977
v -0.9025165 0.51238644 -0.9819977
v -0.9011133 -0.16442493 -0.98199713
v -0.98097044 -0.16233288 -0.98199713
v -0.980437 0.4537807 -0.9819977
v -0.84465206 -0.28682634 -0.98199713
v -0.90331787 -0.2868259 -0.98199713
v 0.90822875 0.26585087 -0.98200077
v 0.90822875 -0.2685474 -0.98200077
v 0.9809619 0.26585087 -0.98200077
v 0.9809619 -0.26854786 -0.98200077
v -0.78547055 -0.94779277 -0.9819977
v -0.84303707 -0.9476256 -0.9819977
v 0.6101538 -0.7478921 -0.9820026
v 0.80077755 -0.7057119 -0.982002
v -0.7259997 -1.0095394 -0.9819983
v -0.7857544 -1.0085146 -0.9819983
v 0.5546039 -1.0085486 -0.9819996
v 0.6098999 -1.0089824 -0.981999
v -0.66979 -1.431649 -0.9819983
v -0.7260358 -1.4316902 -0.9819983
v 0.49643615 -1.4308488 -0.9819996
v 0.5546033 -1.4308075 -0.9819996
v 0.4446582 -1.4943025 -0.9819996
v 0.4969635 -1.4946235 -0.9819996
v 0.38133118 -1.7889721 -0.9820002
v 0.44621032 -1.7890829 -0.9820002
v -0.5942584 -1.7892257 -0.981999
v -0.66963863 -1.7888303 -0.9819983
v 0.38163757 -1.8675576 -0.9820002
v -0.5926721 -1.8682251 -0.981999
v 0.80077755 -0.7057119 -0.982002
v 0.8019238 -0.74824756 -0.9820032
v 0.85277706 -0.6372243 -0.982002
v 0.8543097 -0.705637 -0.982002
v 0.90995234 -0.63720024 -0.982002
v -0.58994997 1.7878169 -0.98199654
v -0.58994997 1.7878137 0.9820032
v -0.67213196 1.7879078 0.9820028
v -0.67213136 1.7879105 -0.98199713
v -0.67213136 1.7879105 -0.98199713
v -0.67213196 1.7879078 0.9820028
v -0.6707556 1.7127023 0.9820026
v -0.6707556 1.712705 -0.98199713
v 0.5016113 1.7875562 -0.981999
v 0.5016113 1.7875531 0.98200095
v 0.5027869 1.8678087 0.98200095
v 0.5027869 1.8678112 -0.981999
v -0.7857544 -1.0085146 -0.9819983
v -0.7857544 -1.0085185 0.98200184
v -0.7259991 -1.0095423 0.98200184
v -0.7259997 -1.0095394 -0.9819983
v -0.78547055 -0.94779277 -0.9819977
v -0.78546995 -0.94779587 0.9820023
v -0.7857544 -1.0085185 0.98200184
v -0.7857544 -1.0085146 -0.9819983
v 0.9761096 0.52479744 -0.9820014
v 0.9761108 0.5247955 0.9819986
v 0.973894 0.95364094 0.9819988
v 0.97389525 0.9536433 -0.9820014
v 0.97389525 0.9536433 -0.9820014
v 0.973894 0.95364094 0.9819988
v 0.9065893 0.9536392 0.9819986
v 0.9065893 0.95364165 -0.9820014
v 0.90822875 0.52345073 -0.98200077
v 0.90822935 0.5234486 0.9819993
v 0.9761108 0.5247955 0.9819986
v 0.9761096 0.52479744 -0.9820014
v -0.9025165 0.51238644 -0.9819977
v -0.9025158 0.5123839 0.98200214
v -0.9025189 0.45377836 0.98200214
v -0.9025195 0.4537809 -0.9819977
v -0.73841554 0.5123877 -0.9819977
v -0.7384149 0.51238453 0.98200214
v -0.9025158 0.5123839 0.98200214
v -0.9025165 0.51238644 -0.9819977
v -0.5896643 1.8682274 -0.98199654
v -0.5896643 1.8682247 0.9820032
v -0.58994997 1.7878137 0.9820032
v -0.58994997 1.7878169 -0.98199654
v 0.5027869 1.8678112 -0.981999
v 0.5027869 1.8678087 0.98200095
v -0.5896643 1.8682247 0.9820032
v -0.5896643 1.8682274 -0.98199654
v 0.56484556 1.7875118 -0.9819996
v 0.5648468 1.7875093 0.98200047
v 0.5016113 1.7875531 0.98200095
v 0.5016113 1.7875562 -0.981999
v 0.5648419 1.7175714 -0.9819996
v 0.5648425 1.7175685 0.98200035
v 0.5648468 1.7875093 0.98200047
v 0.56484556 1.7875118 -0.9819996
v 0.8543097 -0.705637 -0.982002
v 0.8543115 -0.70564055 0.9819982
v 0.8527783 -0.6372275 0.9819983
v 0.85277706 -0.6372243 -0.982002
v 0.80077755 -0.7057119 -0.982002
v 0.80077815 -0.70571685 0.9819983
v 0.8543115 -0.70564055 0.9819982
v 0.8543097 -0.705637 -0.982002
v 0.90995234 -0.63720024 -0.982002
v 0.9099536 -0.63720334 0.9819982
v 0.90822935 -0.26855013 0.9819991
v 0.90822875 -0.2685474 -0.98200077
v 0.85277706 -0.6372243 -0.982002
v 0.8527783 -0.6372275 0.9819983
v 0.9099536 -0.63720334 0.9819982
v 0.90995234 -0.63720024 -0.982002
v 0.5546039 -1.0085486 -0.9819996
v 0.5546033 -1.008549 0.98200077
v 0.6098987 -1.0089815 0.98200125
v 0.6098999 -1.0089824 -0.981999
v 0.6098999 -1.0089824 -0.981999
v 0.6098987 -1.0089815 0.98200125
v 0.6101538 -0.7478946 0.9819977
v 0.6101538 -0.7478921 -0.9820026
v 0.8019238 -0.74824756 -0.9820032
v 0.801925 -0.7482573 0.98199713
v 0.80077815 -0.70571685 0.9819983
v 0.80077755 -0.7057119 -0.982002
v 0.6101538 -0.7478921 -0.9820026
v 0.6101538 -0.7478946 0.9819977
v 0.801925 -0.7482573 0.98199713
v 0.8019238 -0.74824756 -0.9820032
v 0.61138 1.7164745 -0.9819996
v 0.6113818 1.7164718 0.98200035
v 0.5648425 1.7175685 0.98200035
v 0.5648419 1.7175714 -0.9819996
v 0.6139538 0.9941157 -0.98200077
v 0.6139544 0.9941127 0.9819994
v 0.6113818 1.7164718 0.98200035
v 0.61138 1.7164745 -0.9819996
v -0.980437 0.4537807 -0.9819977
v -0.980437 0.4537783 0.98200214
v -0.98097044 -0.16233528 0.9820026
v -0.98097044 -0.16233288 -0.98199713
v -0.9025195 0.4537809 -0.9819977
v -0.9025189 0.45377836 0.98200214
v -0.980437 0.4537783 0.98200214
v -0.980437 0.4537807 -0.9819977
v -0.9011133 -0.16442493 -0.98199713
v -0.9011133 -0.16442715 0.9820026
v -0.90331906 -0.28682843 0.9820026
v -0.90331787 -0.2868259 -0.98199713
v -0.90331787 -0.2868259 -0.98199713
v -0.90331906 -0.28682843 0.9820026
v -0.84465206 -0.28682864 0.9820026
v -0.84465206 -0.28682634 -0.98199713
v -0.98097044 -0.16233288 -0.98199713
v -0.98097044 -0.16233528 0.9820026
v -0.9011133 -0.16442715 0.9820026
v -0.9011133 -0.16442493 -0.98199713
v -0.84303707 -0.9476256 -0.9819977
v -0.84303707 -0.9476283 0.9820023
v -0.78546995 -0.94779587 0.9820023
v -0.78547055 -0.94779277 -0.9819977
v -0.84465206 -0.28682634 -0.98199713
v -0.84465206 -0.28682864 0.9820026
v -0.84303707 -0.9476283 0.9820023
v -0.84303707 -0.9476256 -0.9819977
v 0.90822875 0.26585087 -0.98200077
v 0.90822935 0.2658483 0.9819994
v 0.90822935 0.5234486 0.9819993
v 0.90822875 0.52345073 -0.98200077
v -0.7444189 1.7132336 -0.98199713
v -0.7444189 1.713231 0.9820026
v -0.7384149 0.51238453 0.98200214
v -0.73841554 0.5123877 -0.9819977
v -0.6707556 1.712705 -0.98199713
v -0.6707556 1.7127023 0.9820026
v -0.7444189 1.713231 0.9820026
v -0.7444189 1.7132336 -0.98199713
v 0.9063635 0.996539 -0.9820014
v 0.90636474 0.99653643 0.9819986
v 0.6139544 0.9941127 0.9819994
v 0.6139538 0.9941157 -0.98200077
v 0.9065893 0.95364165 -0.9820014
v 0.9065893 0.9536392 0.9819986
v 0.90636474 0.99653643 0.9819986
v 0.9063635 0.996539 -0.9820014
v 0.9809619 -0.26854786 -0.98200077
v 0.9809619 -0.26855037 0.9819991
v 0.9809619 0.2658483 0.9819991
v 0.9809619 0.26585087 -0.98200077
v 0.90822875 -0.2685474 -0.98200077
v 0.90822935 -0.26855013 0.9819991
v 0.9809619 -0.26855037 0.9819991
v 0.9809619 -0.26854786 -0.98200077
v 0.9809619 0.26585087 -0.98200077
v 0.9809619 0.2658483 0.9819991
v 0.90822935 0.2658483 0.9819994
v 0.90822875 0.26585087 -0.98200077
v -0.7260358 -1.4316902 -0.9819983
v -0.7260351 -1.4316931 0.9820014
v -0.66979 -1.4316518 0.9820014
v -0.66979 -1.431649 -0.9819983
v -0.7259997 -1.0095394 -0.9819983
v -0.7259991 -1.0095423 0.98200184
v -0.7260351 -1.4316931 0.9820014
v -0.7260358 -1.4316902 -0.9819983
v 0.5546033 -1.4308075 -0.9819996
v 0.5546033 -1.4308106 0.98200035
v 0.5546033 -1.008549 0.98200077
v 0.5546039 -1.0085486 -0.9819996
v 0.49643615 -1.4308488 -0.9819996
v 0.49643615 -1.4308517 0.98200035
v 0.5546033 -1.4308106 0.98200035
v 0.5546033 -1.4308075 -0.9819996
v 0.44621032 -1.7890829 -0.9820002
v 0.44621032 -1.7890859 0.98200005
v 0.4446582 -1.4943051 0.98200035
v 0.4446582 -1.4943025 -0.9819996
v 0.38133118 -1.7889721 -0.9820002
v 0.38133177 -1.7889749 0.98200005
v 0.44621032 -1.7890859 0.98200005
v 0.44621032 -1.7890829 -0.9820002
v -0.66979 -1.431649 -0.9819983
v -0.66979 -1.4316518 0.9820014
v -0.66963863 -1.7888328 0.9820014
v -0.66963863 -1.7888303 -0.9819983
v -0.66963863 -1.7888303 -0.9819983
v -0.66963863 -1.7888328 0.9820014
v -0.5942578 -1.7892283 0.98200107
v -0.5942584 -1.7892257 -0.981999
v 0.38163757 -1.8675576 -0.9820002
v 0.38163817 -1.8675603 0.98200005
v 0.38133177 -1.7889749 0.98200005
v 0.38133118 -1.7889721 -0.9820002
v -0.5926721 -1.8682251 -0.981999
v -0.5926715 -1.8682276 0.98200107
v 0.38163817 -1.8675603 0.98200005
v 0.38163757 -1.8675576 -0.9820002
v -0.5942584 -1.7892257 -0.981999
v -0.5942578 -1.7892283 0.98200107
v -0.5926715 -1.8682276 0.98200107
v -0.5926721 -1.8682251 -0.981999
v 0.49643615 -1.4308517 0.98200035
v 0.49643615 -1.4308488 -0.9819996
v 0.4969635 -1.4946235 -0.9819996
v 0.4969635 -1.4946262 0.98200035
v 0.4446582 -1.4943051 0.98200035
v 0.4969635 -1.4946262 0.98200035
v 0.4969635 -1.4946235 -0.9819996
v 0.4446582 -1.4943025 -0.9819996
v -0.67213196 1.7879078 0.9820028
v -0.58994997 1.7878137 0.9820032
v -0.6707556 1.7127023 0.9820026
v 0.5648425 1.7175685 0.98200035
v -0.7384149 0.51238453 0.98200214
v -0.7444189 1.713231 0.9820026
v 0.5016113 1.7875531 0.98200095
v 0.5648468 1.7875093 0.98200047
v 0.5027869 1.8678087 0.98200095
v -0.5896643 1.8682247 0.9820032
v 0.6139544 0.9941127 0.9819994
v 0.6113818 1.7164718 0.98200035
v 0.9065893 0.9536392 0.9819986
v 0.90636474 0.99653643 0.9819986
v 0.90822935 0.5234486 0.9819993
v 0.9761108 0.5247955 0.9819986
v 0.973894 0.95364094 0.9819988
v -0.9025189 0.45377836 0.98200214
v -0.9025158 0.5123839 0.98200214
v -0.9011133 -0.16442715 0.9820026
v -0.98097044 -0.16233528 0.9820026
v -0.980437 0.4537783 0.98200214
v -0.84465206 -0.28682864 0.9820026
v -0.90331906 -0.28682843 0.9820026
v 0.90822935 0.2658483 0.9819994
v 0.90822935 -0.26855013 0.9819991
v 0.9809619 0.2658483 0.9819991
v 0.9809619 -0.26855037 0.9819991
v -0.78546995 -0.94779587 0.9820023
v -0.84303707 -0.9476283 0.9820023
v 0.6101538 -0.7478946 0.9819977
v 0.80077815 -0.70571685 0.9819983
v -0.7259991 -1.0095423 0.98200184
v -0.7857544 -1.0085185 0.98200184
v 0.5546033 -1.008549 0.98200077
v 0.6098987 -1.0089815 0.98200125
v -0.66979 -1.4316518 0.9820014
v -0.7260351 -1.4316931 0.9820014
v 0.49643615 -1.4308517 0.98200035
v 0.5546033 -1.4308106 0.98200035
v 0.4446582 -1.4943051 0.98200035
v 0.4969635 -1.4946262 0.98200035
v 0.38133177 -1.7889749 0.98200005
v 0.44621032 -1.7890859 0.98200005
v -0.5942578 -1.7892283 0.98200107
v -0.66963863 -1.7888328 0.9820014
v 0.38163817 -1.8675603 0.98200005
v -0.5926715 -1.8682276 0.98200107
v 0.80077815 -0.70571685 0.9819983
v 0.801925 -0.7482573 0.98199713
v 0.8527783 -0.6372275 0.9819983
v 0.8543115 -0.70564055 0.9819982
v 0.9099536 -0.63720334 0.9819982
vt 0.36328125 0.5234375
vt 0.37841797 0.46875
vt 0.3713379 0.47680664
vt 0.36328125 0.5234375
vt 0.3713379 0.47680664
vt 0.37841797 0.46875
vt 0.56591797 0.7885742
vt 0.56591797 0.7807617
vt 0.55859375 0.7885742
vt 0.4104004 0.78125
vt 0.57373047 0.625
vt 0.57421875 0.7807617
vt 0.41845703 0.7885742
vt 0.4104004 0.7885742
vt 0.4182129 0.7988281
vt 0.55859375 0.7988281
vt 0.4020996 0.6870117
vt 0.40234375 0.78125
vt 0.3635254 0.6791992
vt 0.3635254 0.6870117
vt 0.3635254 0.625
vt 0.3557129 0.6254883
vt 0.35595703 0.6791992
vt 0.5966797 0.6176758
vt 0.5966797 0.625
vt 0.5961914 0.53808594
vt 0.6064453 0.5385742
vt 0.6064453 0.6176758
vt 0.58935547 0.52246094
vt 0.5966797 0.52246094
vt 0.3635254 0.5932617
vt 0.36328125 0.5234375
vt 0.3557129 0.5932617
vt 0.3557129 0.5234375
vt 0.58154297 0.43774414
vt 0.5888672 0.43774414
vt 0.4025879 0.4609375
vt 0.37841797 0.46875
vt 0.57373047 0.42993164
vt 0.58154297 0.42993164
vt 0.4104004 0.42993164
vt 0.4025879 0.42993164
vt 0.56689453 0.37573242
vt 0.57373047 0.37573242
vt 0.4177246 0.375
vt 0.4104004 0.375
vt 0.42578125 0.36767578
vt 0.41748047 0.36767578
vt 0.4338379 0.32885742
vt 0.4255371 0.32885742
vt 0.55908203 0.32885742
vt 0.56689453 0.32885742
vt 0.4338379 0.31689453
vt 0.55908203 0.31689453
vt 0.37841797 0.46875
vt 0.37841797 0.4609375
vt 0.3713379 0.47680664
vt 0.37109375 0.46875
vt 0.36328125 0.47680664
vt 0.67041016 0.82128906
vt 0.92285156 0.82128906
vt 0.92285156 0.8105469
vt 0.67041016 0.8105469
vt 0.67041016 0.8105469
vt 0.92285156 0.8105469
vt 0.92285156 0.80078125
vt 0.67041016 0.80078125
vt 0.30126953 0.8041992
vt 0.048858643 0.8041992
vt 0.050201416 0.8144531
vt 0.30273438 0.8144531
vt 0.67041016 0.3857422
vt 0.92285156 0.3857422
vt 0.92285156 0.3779297
vt 0.67041016 0.3779297
vt 0.67041016 0.3935547
vt 0.92285156 0.3935547
vt 0.92285156 0.3857422
vt 0.67041016 0.3857422
vt 0.30126953 0.58154297
vt 0.048858643 0.58154297
vt 0.048858643 0.63623047
vt 0.30126953 0.63623047
vt 0.30126953 0.63623047
vt 0.048858643 0.63623047
vt 0.048858643 0.64501953
vt 0.30126953 0.64501953
vt 0.30126953 0.5727539
vt 0.048858643 0.5727539
vt 0.048858643 0.58154297
vt 0.30126953 0.58154297
vt 0.67041016 0.61621094
vt 0.92285156 0.61621094
vt 0.92285156 0.60839844
vt 0.67041016 0.60839844
vt 0.67041016 0.63720703
vt 0.92285156 0.63720703
vt 0.92285156 0.61621094
vt 0.67041016 0.61621094
vt 0.67041016 0.83154297
vt 0.92285156 0.83154297
vt 0.92285156 0.82128906
vt 0.67041016 0.82128906
vt 0.30273438 0.8144531
vt 0.050201416 0.8144531
vt 0.050201416 0.95458984
vt 0.30273438 0.95458984
vt 0.30126953 0.79589844
vt 0.048858643 0.79589844
vt 0.048858643 0.8041992
vt 0.30126953 0.8041992
vt 0.30126953 0.7871094
vt 0.048858643 0.7871094
vt 0.048858643 0.79589844
vt 0.30126953 0.79589844
vt 0.30126953 0.38891602
vt 0.048858643 0.38891602
vt 0.048858643 0.39770508
vt 0.30126953 0.39770508
vt 0.30126953 0.38208008
vt 0.048858643 0.38208008
vt 0.048858643 0.38891602
vt 0.30126953 0.38891602
vt 0.30126953 0.4050293
vt 0.048858643 0.4050293
vt 0.048858643 0.45239258
vt 0.30126953 0.45239258
vt 0.30126953 0.39770508
vt 0.048858643 0.39770508
vt 0.048858643 0.4050293
vt 0.30126953 0.4050293
vt 0.30126953 0.31152344
vt 0.048858643 0.31152344
vt 0.048858643 0.31860352
vt 0.30126953 0.31860352
vt 0.30126953 0.31860352
vt 0.048858643 0.31860352
vt 0.048858643 0.35205078
vt 0.30126953 0.35205078
vt 0.30126953 0.37670898
vt 0.048858643 0.37670898
vt 0.048858643 0.38208008
vt 0.30126953 0.38208008
vt 0.30126953 0.35205078
vt 0.048858643 0.35205078
vt 0.048858643 0.37670898
vt 0.30126953 0.37670898
vt 0.30126953 0.7807617
vt 0.048858643 0.7807617
vt 0.048858643 0.7871094
vt 0.30126953 0.7871094
vt 0.30126953 0.6879883
vt 0.048858643 0.6879883
vt 0.048858643 0.7807617
vt 0.30126953 0.7807617
vt 0.67041016 0.5986328
vt 0.92285156 0.5986328
vt 0.92285156 0.51953125
vt 0.67041016 0.51953125
vt 0.67041016 0.60839844
vt 0.92285156 0.60839844
vt 0.92285156 0.5986328
vt 0.67041016 0.5986328
vt 0.67041016 0.50878906
vt 0.92285156 0.50878906
vt 0.92285156 0.4934082
vt 0.67041016 0.4934082
vt 0.67041016 0.4934082
vt 0.92285156 0.4934082
vt 0.92285156 0.48583984
vt 0.67041016 0.48583984
vt 0.67041016 0.51953125
vt 0.92285156 0.51953125
vt 0.92285156 0.50878906
vt 0.67041016 0.50878906
vt 0.67041016 0.4008789
vt 0.92285156 0.4008789
vt 0.92285156 0.3935547
vt 0.67041016 0.3935547
vt 0.67041016 0.48583984
vt 0.92285156 0.48583984
vt 0.92285156 0.4008789
vt 0.67041016 0.4008789
vt 0.30126953 0.5395508
vt 0.048858643 0.5395508
vt 0.048858643 0.5727539
vt 0.30126953 0.5727539
vt 0.67041016 0.7915039
vt 0.92285156 0.7915039
vt 0.92285156 0.63720703
vt 0.67041016 0.63720703
vt 0.67041016 0.80078125
vt 0.92285156 0.80078125
vt 0.92285156 0.7915039
vt 0.67041016 0.7915039
vt 0.30126953 0.6503906
vt 0.048858643 0.6503906
vt 0.048858643 0.6879883
vt 0.30126953 0.6879883
vt 0.30126953 0.64501953
vt 0.048858643 0.64501953
vt 0.048858643 0.6503906
vt 0.30126953 0.6503906
vt 0.30126953 0.46166992
vt 0.048858643 0.46166992
vt 0.048858643 0.53027344
vt 0.30126953 0.53027344
vt 0.30126953 0.45239258
vt 0.048858643 0.45239258
vt 0.048858643 0.46166992
vt 0.30126953 0.46166992
vt 0.30126953 0.53027344
vt 0.048858643 0.53027344
vt 0.048858643 0.5395508
vt 0.30126953 0.5395508
vt 0.67041016 0.32373047
vt 0.92285156 0.32373047
vt 0.92285156 0.31640625
vt 0.67041016 0.31640625
vt 0.67041016 0.3779297
vt 0.92285156 0.3779297
vt 0.92285156 0.32373047
vt 0.67041016 0.32373047
vt 0.30126953 0.25708008
vt 0.048858643 0.25708008
vt 0.048858643 0.31152344
vt 0.30126953 0.31152344
vt 0.30126953 0.24975586
vt 0.048858643 0.24975586
vt 0.048858643 0.25708008
vt 0.30126953 0.25708008
vt 0.30126953 0.19702148
vt 0.048858643 0.19702148
vt 0.048858643 0.23486328
vt 0.30126953 0.23486328
vt 0.30126953 0.18859863
vt 0.048858643 0.18859863
vt 0.048858643 0.19702148
vt 0.30126953 0.19702148
vt 0.67041016 0.31640625
vt 0.92285156 0.31640625
vt 0.92285156 0.2705078
vt 0.67041016 0.2705078
vt 0.67041016 0.2705078
vt 0.92285156 0.2705078
vt 0.92285156 0.26098633
vt 0.67041016 0.26098633
vt 0.30126953 0.17858887
vt 0.048858643 0.17858887
vt 0.048858643 0.18859863
vt 0.30126953 0.18859863
vt 0.55859375 0.05227661
vt 0.55859375 0.3046875
vt 0.43310547 0.3046875
vt 0.43310547 0.05227661
vt 0.67041016 0.26098633
vt 0.92285156 0.26098633
vt 0.92285156 0.25073242
vt 0.67041016 0.25073242
vt 0.048858643 0.24975586
vt 0.30126953 0.24975586
vt 0.30126953 0.24157715
vt 0.048858643 0.24157715
vt 0.048858643 0.23486328
vt 0.048858643 0.24157715
vt 0.30126953 0.24157715
vt 0.30126953 0.23486328
vt 0.56591797 0.7885742
vt 0.55859375 0.7885742
vt 0.56591797 0.7807617
vt 0.4104004 0.78125
vt 0.57373047 0.625
vt 0.57421875 0.7807617
vt 0.41845703 0.7885742
vt 0.4104004 0.7885742
vt 0.4182129 0.7988281
vt 0.55859375 0.7988281
vt 0.4020996 0.6870117
vt 0.40234375 0.78125
vt 0.3635254 0.6791992
vt 0.3635254 0.6870117
vt 0.3635254 0.625
vt 0.3557129 0.6254883
vt 0.35595703 0.6791992
vt 0.5966797 0.6176758
vt 0.5966797 0.625
vt 0.5961914 0.53808594
vt 0.6064453 0.5385742
vt 0.6064453 0.6176758
vt 0.58935547 0.52246094
vt 0.5966797 0.52246094
vt 0.3635254 0.5932617
vt 0.36328125 0.5234375
vt 0.3557129 0.5932617
vt 0.3557129 0.5234375
vt 0.58154297 0.43774414
vt 0.5888672 0.43774414
vt 0.4025879 0.4609375
vt 0.37841797 0.46875
vt 0.57373047 0.42993164
vt 0.58154297 0.42993164
vt 0.4104004 0.42993164
vt 0.4025879 0.42993164
vt 0.56689453 0.37573242
vt 0.57373047 0.37573242
vt 0.4177246 0.375
vt 0.4104004 0.375
vt 0.42578125 0.36767578
vt 0.41748047 0.36767578
vt 0.4338379 0.32885742
vt 0.4255371 0.32885742
vt 0.55908203 0.32885742
vt 0.56689453 0.32885742
vt 0.4338379 0.31689453
vt 0.55908203 0.31689453
vt 0.37841797 0.46875
vt 0.37841797 0.4609375
vt 0.3713379 0.47680664
vt 0.37109375 0.46875
vt 0.36328125 0.47680664
vn -5.4240227E-06 4.1127205E-06 -1
vn -5.4240227E-06 4.1127205E-06 -1
vn -5.4240227E-06 4.1127205E-06 -1
vn 3.3974648E-06 -2.5629997E-06 1
vn 3.3974648E-06 -2.5629997E-06 1
vn 3.3974648E-06 -2.5629997E-06 1
vn 7.4505806E-06 1.1920929E-07 -1
vn 7.4505806E-06 1.1920929E-07 -1
vn 7.4505806E-06 1.1920929E-07 -1
vn -2.0861626E-06 8.6426735E-06 -1
vn -0 0 -1
vn -0 5.364418E-07 -1
vn -2.2649765E-06 0 -1
vn -9.655952E-06 0 -1
vn -2.2649765E-06 0 -1
vn -2.2053719E-06 0 -1
vn -2.1457672E-06 -3.5762787E-07 -1
vn -0 1.66893E-06 -1
vn -0 0 -1
vn -2.0861626E-06 0 -1
vn -8.940697E-06 -1.4305115E-06 -1
vn -0 0 -1
vn -0 0 -1
vn -0 0 -1
vn -0 0 -1
vn -0 0 -1
vn -0 -1.013279E-06 -1
vn -0 -1.013279E-06 -1
vn -0 0 -1
vn -0 0 -1
vn -2.0861626E-06 0 -1
vn -0 3.33786E-06 -1
vn -0 0 -1
vn -0 0 -1
vn 1.7881393E-07 1.0073185E-05 -1
vn -0 8.940697E-07 -1
vn -4.2915344E-06 5.722046E-06 -1
vn -3.6358833E-06 6.0796738E-06 -1
vn 1.7881393E-07 1.0073185E-05 -1
vn 1.7881393E-07 1.0073185E-05 -1
vn 1.090765E-05 -1.40070915E-05 -1
vn 1.090765E-05 -1.40070915E-05 -1
vn -9.536743E-07 -1.1920929E-07 -1
vn -0 0 -1
vn -1.0728836E-06 1.1920929E-07 -1
vn -0 0 -1
vn -0 2.0861626E-06 -1
vn -0 0 -1
vn -0 2.0861626E-06 -1
vn -0 2.0861626E-06 -1
vn -8.106232E-06 0 -1
vn -8.106232E-06 0 -1
vn -1.2516975E-06 0 -1
vn -1.2516975E-06 0 -1
vn -0 0 -1
vn -3.1590462E-06 2.861023E-05 -1
vn -0 0 -1
vn -0 0 -1
vn -0 3.33786E-06 -1
vn 0.0011415482 1 1.4901161E-06
vn 0.0011415482 1 1.4901161E-06
vn 0.0011415482 1 1.4901161E-06
vn 0.0011415482 1 1.4901161E-06
vn -1 -0.018295288 -1.7881393E-07
vn -1 -0.018295288 -1.7881393E-07
vn -1 -0.018295288 -1.7881393E-07
vn -1 -0.018295288 -1.7881393E-07
vn 1 -0.0146484375 0
vn 1 -0.0146484375 0
vn 1 -0.0146484375 0
vn 1 -0.0146484375 0
vn -0.01713562 -1 -1.7285347E-06
vn -0.01713562 -1 -1.7285347E-06
vn -0.01713562 -1 -1.7285347E-06
vn -0.01713562 -1 -1.7285347E-06
vn -1 0.0046806335 1.7881393E-07
vn -1 0.0046806335 1.7881393E-07
vn -1 0.0046806335 1.7881393E-07
vn -1 0.0046806335 1.7881393E-07
vn 1 0.0051651 0
vn 1 0.0051651 0
vn 1 0.0051651 0
vn 1 0.0051651 0
vn -2.5510788E-05 1 1.2516975E-06
vn -2.5510788E-05 1 1.2516975E-06
vn -2.5510788E-05 1 1.2516975E-06
vn -2.5510788E-05 1 1.2516975E-06
vn 0.019836426 -1 -1.0728836E-06
vn 0.019836426 -1 -1.0728836E-06
vn 0.019836426 -1 -1.0728836E-06
vn 0.019836426 -1 -1.0728836E-06
vn -1 5.209446E-05 2.9802322E-07
vn -1 5.209446E-05 2.9802322E-07
vn -1 5.209446E-05 2.9802322E-07
vn -1 5.209446E-05 2.9802322E-07
vn -5.841255E-06 1 1.4305115E-06
vn -5.841255E-06 1 1.4305115E-06
vn -5.841255E-06 1 1.4305115E-06
vn -5.841255E-06 1 1.4305115E-06
vn -1 0.0035514832 0
vn -1 0.0035514832 0
vn -1 0.0035514832 0
vn -1 0.0035514832 0
vn 0.0003809929 1 1.3113022E-06
vn 0.0003809929 1 1.3113022E-06
vn 0.0003809929 1 1.3113022E-06
vn 0.0003809929 1 1.3113022E-06
vn 0.00069618225 1 1.4305115E-06
vn 0.00069618225 1 1.4305115E-06
vn 0.00069618225 1 1.4305115E-06
vn 0.00069618225 1 1.4305115E-06
vn 1 -5.6743622E-05 -4.7683716E-07
vn 1 -5.6743622E-05 -4.7683716E-07
vn 1 -5.6743622E-05 -4.7683716E-07
vn 1 -5.6743622E-05 -4.7683716E-07
vn 0.9995117 0.022399902 -7.1525574E-07
vn 0.9995117 0.022399902 -7.1525574E-07
vn 0.9995117 0.022399902 -7.1525574E-07
vn 0.9995117 0.022399902 -7.1525574E-07
vn 0.0014123917 -1 -2.2053719E-06
vn 0.0014123917 -1 -2.2053719E-06
vn 0.0014123917 -1 -2.2053719E-06
vn 0.0014123917 -1 -2.2053719E-06
vn 1 0.004676819 -4.7683716E-07
vn 1 0.004676819 -4.7683716E-07
vn 1 0.004676819 -4.7683716E-07
vn 1 0.004676819 -4.7683716E-07
vn 0.00042176247 -1 -1.6093254E-06
vn 0.00042176247 -1 -1.6093254E-06
vn 0.00042176247 -1 -1.6093254E-06
vn 0.00042176247 -1 -1.6093254E-06
vn -0.007835388 -1 1.1920929E-07
vn -0.007835388 -1 1.1920929E-07
vn -0.007835388 -1 1.1920929E-07
vn -0.007835388 -1 1.1920929E-07
vn 1 -0.00097465515 2.9802322E-07
vn 1 -0.00097465515 2.9802322E-07
vn 1 -0.00097465515 2.9802322E-07
vn 1 -0.00097465515 2.9802322E-07
vn 0.9995117 0.026947021 -3.5762787E-07
vn 0.9995117 0.026947021 -3.5762787E-07
vn 0.9995117 0.026947021 -3.5762787E-07
vn 0.9995117 0.026947021 -3.5762787E-07
vn -0.0018730164 -1 -3.0994415E-06
vn -0.0018730164 -1 -3.0994415E-06
vn -0.0018730164 -1 -3.0994415E-06
vn -0.0018730164 -1 -3.0994415E-06
vn 0.02355957 0.9995117 1.4305115E-06
vn 0.02355957 0.9995117 1.4305115E-06
vn 0.02355957 0.9995117 1.4305115E-06
vn 0.02355957 0.9995117 1.4305115E-06
vn 1 0.0035629272 -5.9604645E-07
vn 1 0.0035629272 -5.9604645E-07
vn 1 0.0035629272 -5.9604645E-07
vn 1 0.0035629272 -5.9604645E-07
vn -1 0.0008659363 0
vn -1 0.0008659363 0
vn -1 0.0008659363 0
vn -1 0.0008659363 0
vn -1.7285347E-06 1 1.2516975E-06
vn -1.7285347E-06 1 1.2516975E-06
vn -1.7285347E-06 1 1.2516975E-06
vn -1.7285347E-06 1 1.2516975E-06
vn -1 0.01802063 -2.9802322E-07
vn -1 0.01802063 -2.9802322E-07
vn -1 0.01802063 -2.9802322E-07
vn -1 0.01802063 -2.9802322E-07
vn -5.841255E-06 -1 -1.2516975E-06
vn -5.841255E-06 -1 -1.2516975E-06
vn -5.841255E-06 -1 -1.2516975E-06
vn -5.841255E-06 -1 -1.2516975E-06
vn -0.026184082 -0.9995117 -1.1920929E-06
vn -0.026184082 -0.9995117 -1.1920929E-06
vn -0.026184082 -0.9995117 -1.1920929E-06
vn -0.026184082 -0.9995117 -1.1920929E-06
vn -0.0029067993 -1 -1.4901161E-06
vn -0.0029067993 -1 -1.4901161E-06
vn -0.0029067993 -1 -1.4901161E-06
vn -0.0029067993 -1 -1.4901161E-06
vn -1 -0.0024433136 0
vn -1 -0.0024433136 0
vn -1 -0.0024433136 0
vn -1 -0.0024433136 0
vn 1 0 -2.9802322E-07
vn 1 0 -2.9802322E-07
vn 1 0 -2.9802322E-07
vn 1 0 -2.9802322E-07
vn -1 -0.005001068 1.1920929E-07
vn -1 -0.005001068 1.1920929E-07
vn -1 -0.005001068 1.1920929E-07
vn -1 -0.005001068 1.1920929E-07
vn 0.0071754456 1 1.3709068E-06
vn 0.0071754456 1 1.3709068E-06
vn 0.0071754456 1 1.3709068E-06
vn 0.0071754456 1 1.3709068E-06
vn -0.008285522 1 1.4305115E-06
vn -0.008285522 1 1.4305115E-06
vn -0.008285522 1 1.4305115E-06
vn -0.008285522 1 1.4305115E-06
vn 1 0.0052490234 -2.9802322E-07
vn 1 0.0052490234 -2.9802322E-07
vn 1 0.0052490234 -2.9802322E-07
vn 1 0.0052490234 -2.9802322E-07
vn 1 0 0
vn 1 0 0
vn 1 0 0
vn 1 0 0
vn -4.708767E-06 -1 -1.3113022E-06
vn -4.708767E-06 -1 -1.3113022E-06
vn -4.708767E-06 -1 -1.3113022E-06
vn -4.708767E-06 -1 -1.3113022E-06
vn -0 1 1.3113022E-06
vn -0 1 1.3113022E-06
vn -0 1 1.3113022E-06
vn -0 1 1.3113022E-06
vn 0.0007324219 -1 -1.4901161E-06
vn 0.0007324219 -1 -1.4901161E-06
vn 0.0007324219 -1 -1.4901161E-06
vn 0.0007324219 -1 -1.4901161E-06
vn -1 8.529425E-05 2.9802322E-07
vn -1 8.529425E-05 2.9802322E-07
vn -1 8.529425E-05 2.9802322E-07
vn -1 8.529425E-05 2.9802322E-07
vn 1 -7.1525574E-07 1.7881393E-07
vn 1 -7.1525574E-07 1.7881393E-07
vn 1 -7.1525574E-07 1.7881393E-07
vn 1 -7.1525574E-07 1.7881393E-07
vn 0.0007095337 -1 -1.4901161E-06
vn 0.0007095337 -1 -1.4901161E-06
vn 0.0007095337 -1 -1.4901161E-06
vn 0.0007095337 -1 -1.4901161E-06
vn 1 0.005264282 0
vn 1 0.005264282 0
vn 1 0.005264282 0
vn 1 0.005264282 0
vn -0.0017089844 -1 -1.4305115E-06
vn -0.0017089844 -1 -1.4305115E-06
vn -0.0017089844 -1 -1.4305115E-06
vn -0.0017089844 -1 -1.4305115E-06
vn -1 -0.00042366982 0
vn -1 -0.00042366982 0
vn -1 -0.00042366982 0
vn -1 -0.00042366982 0
vn -0.0052452087 -1 -1.3113022E-06
vn -0.0052452087 -1 -1.3113022E-06
vn -0.0052452087 -1 -1.3113022E-06
vn -0.0052452087 -1 -1.3113022E-06
vn 1 0.0038986206 -2.9802322E-07
vn 1 0.0038986206 -2.9802322E-07
vn 1 0.0038986206 -2.9802322E-07
vn 1 0.0038986206 -2.9802322E-07
vn 0.000685215 -1 -1.3113022E-06
vn 0.000685215 -1 -1.3113022E-06
vn 0.000685215 -1 -1.3113022E-06
vn 0.000685215 -1 -1.3113022E-06
vn -1 -0.020080566 2.9802322E-07
vn -1 -0.020080566 2.9802322E-07
vn -1 -0.020080566 2.9802322E-07
vn -1 -0.020080566 2.9802322E-07
vn 1 0.008270264 0
vn 1 0.008270264 0
vn 1 0.008270264 0
vn 1 0.008270264 0
vn -0.006137848 -1 -1.3113022E-06
vn -0.006137848 -1 -1.3113022E-06
vn -0.006137848 -1 -1.3113022E-06
vn -0.006137848 -1 -1.3113022E-06
vn -5.543232E-06 -2.1457672E-06 1
vn -5.543232E-06 -2.1457672E-06 1
vn -5.543232E-06 -2.1457672E-06 1
vn 1.9669533E-06 -8.6426735E-06 1
vn -0 0 1
vn -0 -3.5762787E-07 1
vn 2.0861626E-06 0 1
vn 7.212162E-06 -2.2053719E-06 1
vn 2.0861626E-06 0 1
vn 2.0861626E-06 0 1
vn 2.4437904E-06 -1.1920929E-06 1
vn -0 -1.2516975E-06 1
vn -2.2649765E-06 -3.5762787E-07 1
vn 2.6226044E-06 0 1
vn 8.940697E-06 1.4305115E-06 1
vn -2.2649765E-06 -3.5762787E-07 1
vn -2.2649765E-06 -3.5762787E-07 1
vn -0 0 1
vn -0 0 1
vn -0 0 1
vn -0 7.1525574E-07 1
vn -0 7.1525574E-07 1
vn -0 0 1
vn -0 0 1
vn 1.66893E-06 5.9604645E-07 1
vn 2.682209E-06 -2.4437904E-06 1
vn -0 0 1
vn -0 0 1
vn -1.1920929E-07 -7.5101852E-06 1
vn -0 -4.7683716E-07 1
vn 3.8146973E-06 -3.7550926E-06 1
vn 3.2186508E-06 -4.887581E-06 1
vn -1.1920929E-07 -7.5101852E-06 1
vn -1.1920929E-07 -7.5101852E-06 1
vn -8.165836E-06 1.347065E-05 1
vn -8.165836E-06 1.347065E-05 1
vn 8.34465E-07 -9.536743E-07 1
vn -0 -1.0728836E-06 1
vn 8.940697E-07 -1.1920929E-06 1
vn -0 -1.0728836E-06 1
vn -0 -1.013279E-06 1
vn -0 0 1
vn -0 -1.013279E-06 1
vn -0 -1.013279E-06 1
vn 4.053116E-06 0 1
vn 4.053116E-06 0 1
vn 1.0728836E-06 0 1
vn 1.0728836E-06 0 1
vn 2.861023E-06 -2.1457672E-06 1
vn 3.0994415E-06 -2.861023E-05 1
vn 2.861023E-06 -2.1457672E-06 1
vn 2.861023E-06 -2.1457672E-06 1
vn 2.682209E-06 -2.4437904E-06 1
g Rocks_Small_014_0
f 3/3/3 2/2/2 1/1/1
f 6/6/6 5/5/5 4/4/4
f 9/9/9 8/8/8 7/7/7
f 10/10/10 8/8/8 9/9/9
f 11/11/11 8/8/8 10/10/10
f 11/11/11 12/12/12 8/8/8
f 13/13/13 10/10/10 9/9/9
f 14/14/14 10/10/10 13/13/13
f 15/15/15 13/13/13 9/9/9
f 16/16/16 15/15/15 9/9/9
f 10/10/10 17/17/17 11/11/11
f 18/18/18 17/17/17 10/10/10
f 17/17/17 19/19/19 11/11/11
f 20/20/20 19/19/19 17/17/17
f 11/11/11 19/19/19 21/21/21
f 21/21/21 19/19/19 22/22/22
f 22/22/22 19/19/19 23/23/23
f 24/24/24 11/11/11 21/21/21
f 24/24/24 25/25/25 11/11/11
f 24/24/24 21/21/21 26/26/26
f 27/27/27 24/24/24 26/26/26
f 28/28/28 24/24/24 27/27/27
f 21/21/21 29/29/29 26/26/26
f 26/26/26 29/29/29 30/30/30
f 31/31/31 29/29/29 21/21/21
f 32/32/32 29/29/29 31/31/31
f 31/31/31 33/33/33 32/32/32
f 33/33/33 34/34/34 32/32/32
f 35/35/35 29/29/29 32/32/32
f 36/36/36 29/29/29 35/35/35
f 37/37/37 35/35/35 32/32/32
f 38/38/38 37/37/37 32/32/32
f 37/37/37 39/39/39 35/35/35
f 39/39/39 40/40/40 35/35/35
f 41/41/41 39/39/39 37/37/37
f 41/41/41 37/37/37 42/42/42
f 43/43/43 39/39/39 41/41/41
f 44/44/44 39/39/39 43/43/43
f 45/45/45 43/43/43 41/41/41
f 46/46/46 45/45/45 41/41/41
f 45/45/45 47/47/47 43/43/43
f 48/48/48 47/47/47 45/45/45
f 47/47/47 49/49/49 43/43/43
f 50/50/50 49/49/49 47/47/47
f 49/49/49 51/51/51 43/43/43
f 43/43/43 51/51/51 52/52/52
f 53/53/53 51/51/51 49/49/49
f 54/54/54 51/51/51 53/53/53
f 56/56/56 37/37/37 55/55/55
f 58/58/58 55/55/55 57/57/57
f 59/59/59 57/57/57 32/32/32
f 62/62/62 61/61/61 60/60/60
f 63/63/63 62/62/62 60/60/60
f 66/66/66 65/65/65 64/64/64
f 67/67/67 66/66/66 64/64/64
f 70/70/70 69/69/69 68/68/68
f 71/71/71 70/70/70 68/68/68
f 74/74/74 73/73/73 72/72/72
f 75/75/75 74/74/74 72/72/72
f 78/78/78 77/77/77 76/76/76
f 79/79/79 78/78/78 76/76/76
f 82/82/82 81/81/81 80/80/80
f 83/83/83 82/82/82 80/80/80
f 86/86/86 85/85/85 84/84/84
f 87/87/87 86/86/86 84/84/84
f 90/90/90 89/89/89 88/88/88
f 91/91/91 90/90/90 88/88/88
f 94/94/94 93/93/93 92/92/92
f 95/95/95 94/94/94 92/92/92
f 98/98/98 97/97/97 96/96/96
f 99/99/99 98/98/98 96/96/96
f 102/102/102 101/101/101 100/100/100
f 103/103/103 102/102/102 100/100/100
f 106/106/106 105/105/105 104/104/104
f 107/107/107 106/106/106 104/104/104
f 110/110/110 109/109/109 108/108/108
f 111/111/111 110/110/110 108/108/108
f 114/114/114 113/113/113 112/112/112
f 115/115/115 114/114/114 112/112/112
f 118/118/118 117/117/117 116/116/116
f 119/119/119 118/118/118 116/116/116
f 122/122/122 121/121/121 120/120/120
f 123/123/123 122/122/122 120/120/120
f 126/126/126 125/125/125 124/124/124
f 127/127/127 126/126/126 124/124/124
f 130/130/130 129/129/129 128/128/128
f 131/131/131 130/130/130 128/128/128
f 134/134/134 133/133/133 132/132/132
f 135/135/135 134/134/134 132/132/132
f 138/138/138 137/137/137 136/136/136
f 139/139/139 138/138/138 136/136/136
f 142/142/142 141/141/141 140/140/140
f 143/143/143 142/142/142 140/140/140
f 146/146/146 145/145/145 144/144/144
f 147/147/147 146/146/146 144/144/144
f 150/150/150 149/149/149 148/148/148
f 151/151/151 150/150/150 148/148/148
f 154/154/154 153/153/153 152/152/152
f 155/155/155 154/154/154 152/152/152
f 158/158/158 157/157/157 156/156/156
f 159/159/159 158/158/158 156/156/156
f 162/162/162 161/161/161 160/160/160
f 163/163/163 162/162/162 160/160/160
f 166/166/166 165/165/165 164/164/164
f 167/167/167 166/166/166 164/164/164
f 170/170/170 169/169/169 168/168/168
f 171/171/171 170/170/170 168/168/168
f 174/174/174 173/173/173 172/172/172
f 175/175/175 174/174/174 172/172/172
f 178/178/178 177/177/177 176/176/176
f 179/179/179 178/178/178 176/176/176
f 182/182/182 181/181/181 180/180/180
f 183/183/183 182/182/182 180/180/180
f 186/186/186 185/185/185 184/184/184
f 187/187/187 186/186/186 184/184/184
f 190/190/190 189/189/189 188/188/188
f 191/191/191 190/190/190 188/188/188
f 194/194/194 193/193/193 192/192/192
f 195/195/195 194/194/194 192/192/192
f 198/198/198 197/197/197 196/196/196
f 199/199/199 198/198/198 196/196/196
f 202/202/202 201/201/201 200/200/200
f 203/203/203 202/202/202 200/200/200
f 206/206/206 205/205/205 204/204/204
f 207/207/207 206/206/206 204/204/204
f 210/210/210 209/209/209 208/208/208
f 211/211/211 210/210/210 208/208/208
f 214/214/214 213/213/213 212/212/212
f 215/215/215 214/214/214 212/212/212
f 218/218/218 217/217/217 216/216/216
f 219/219/219 218/218/218 216/216/216
f 222/222/222 221/221/221 220/220/220
f 223/223/223 222/222/222 220/220/220
f 226/226/226 225/225/225 224/224/224
f 227/227/227 226/226/226 224/224/224
f 230/230/230 229/229/229 228/228/228
f 231/231/231 230/230/230 228/228/228
f 234/234/234 233/233/233 232/232/232
f 235/235/235 234/234/234 232/232/232
f 238/238/238 237/237/237 236/236/236
f 239/239/239 238/238/238 236/236/236
f 242/242/242 241/241/241 240/240/240
f 243/243/243 242/242/242 240/240/240
f 246/246/246 245/245/245 244/244/244
f 247/247/247 246/246/246 244/244/244
f 250/250/250 249/249/249 248/248/248
f 251/251/251 250/250/250 248/248/248
f 254/254/254 253/253/253 252/252/252
f 255/255/255 254/254/254 252/252/252
f 258/258/258 257/257/257 256/256/256
f 259/259/259 258/258/258 256/256/256
f 262/262/262 261/261/261 260/260/260
f 263/263/263 262/262/262 260/260/260
f 266/266/266 265/265/265 264/264/264
f 267/267/267 266/266/266 264/264/264
f 270/270/270 269/269/269 268/268/268
f 270/270/270 271/271/271 269/269/269
f 270/270/270 272/272/272 271/271/271
f 273/273/273 272/272/272 270/270/270
f 271/271/271 274/274/274 269/269/269
f 271/271/271 275/275/275 274/274/274
f 274/274/274 276/276/276 269/269/269
f 276/276/276 277/277/277 269/269/269
f 278/278/278 271/271/271 272/272/272
f 278/278/278 279/279/279 271/271/271
f 280/280/280 278/278/278 272/272/272
f 280/280/280 281/281/281 278/278/278
f 280/280/280 272/272/272 282/282/282
f 280/280/280 282/282/282 283/283/283
f 280/280/280 283/283/283 284/284/284
f 272/272/272 285/285/285 282/282/282
f 286/286/286 285/285/285 272/272/272
f 282/282/282 285/285/285 287/287/287
f 285/285/285 288/288/288 287/287/287
f 285/285/285 289/289/289 288/288/288
f 290/290/290 282/282/282 287/287/287
f 290/290/290 287/287/287 291/291/291
f 290/290/290 292/292/292 282/282/282
f 290/290/290 293/293/293 292/292/292
f 294/294/294 292/292/292 293/293/293
f 295/295/295 294/294/294 293/293/293
f 290/290/290 296/296/296 293/293/293
f 290/290/290 297/297/297 296/296/296
f 296/296/296 298/298/298 293/293/293
f 298/298/298 299/299/299 293/293/293
f 300/300/300 298/298/298 296/296/296
f 301/301/301 300/300/300 296/296/296
f 300/300/300 302/302/302 298/298/298
f 298/298/298 302/302/302 303/303/303
f 300/300/300 304/304/304 302/302/302
f 300/300/300 305/305/305 304/304/304
f 304/304/304 306/306/306 302/302/302
f 306/306/306 307/307/307 302/302/302
f 308/308/308 306/306/306 304/304/304
f 308/308/308 309/309/309 306/306/306
f 310/310/310 308/308/308 304/304/304
f 310/310/310 311/311/311 308/308/308
f 312/312/312 310/310/310 304/304/304
f 312/312/312 304/304/304 313/313/313
f 312/312/312 314/314/314 310/310/310
f 312/312/312 315/315/315 314/314/314
f 298/298/298 317/317/317 316/316/316
f 316/316/316 319/319/319 318/318/318
f 318/318/318 320/320/320 293/293/293
