g Rocks_Small_013
v -0.3322125 1.233682 -0.9819988
v -0.3322177 1.1807431 -0.9819988
v -0.26894438 1.2335894 -0.9819976
v 0.28289002 1.233327 -0.98200005
v 0.28406525 1.3135829 -0.98200005
v -0.26865935 1.3139989 -0.9819976
v -0.390654 0.987179 -0.9819988
v -0.38894865 1.1802746 -0.9819988
v 0.34130767 0.8867581 -0.98200005
v 0.34339508 1.233283 -0.98200005
v 0.39996064 0.750444 -0.98200005
v 0.40029266 0.88675827 -0.98200005
v -0.46529388 0.9285736 -0.9819988
v -0.4652911 0.9871786 -0.9819988
v -0.52361387 0.87738633 -0.9819988
v -0.52361053 0.92857313 -0.9819988
v 0.50828975 0.70181197 -0.98200005
v 0.50828826 0.7498896 -0.98200005
v -0.5770242 0.81054693 -0.9819976
v -0.57780427 0.8783667 -0.9819976
v 0.39996064 0.750444 -0.98200005
v -0.63947326 0.38904586 -0.9819976
v -0.64014953 0.8100513 -0.9819976
v 0.58992124 0.63008237 -0.98200005
v 0.58992183 0.70181197 -0.98200005
v -0.63947326 0.38904586 -0.9819976
v 0.50828975 0.70181197 -0.98200005
v 0.64677155 0.579565 -0.98200005
v -0.6386862 0.085596964 -0.9819976
v -0.5793362 0.0282275 -0.9819976
v 0.64677155 0.579565 -0.98200005
v 0.64776 0.6301619 -0.98200005
v -0.7050702 0.38904577 -0.9819976
v -0.7042834 0.08559711 -0.9819976
v -0.6386862 0.085596964 -0.9819976
v -0.5793362 0.0282275 -0.9819976
v -0.6419495 0.027612342 -0.9819976
v -0.5793368 -0.45323148 -0.9819976
v 0.6402423 -0.5184106 -0.98200005
v 0.7050659 -0.517918 -0.98200005
v 0.7037866 0.5791758 -0.98200005
v 0.58774686 -0.5805913 -0.98200005
v 0.64024353 -0.58059424 -0.98200005
v 0.44125122 -0.6407758 -0.98200125
v 0.5900165 -0.64074826 -0.98200125
v -0.63523006 -0.5387622 -0.9819976
v -0.63492674 -0.45375013 -0.9819976
v -0.6420172 -0.95091885 -0.9819976
v -0.6980316 -0.9504576 -0.9819976
v -0.6991528 -0.5381957 -0.9819976
v -0.5830258 -1.0652207 -0.9819976
v -0.64208037 -1.0664114 -0.9819976
v 0.38294432 -0.9407179 -0.98200125
v 0.4416147 -0.9410286 -0.98200244
v -0.47160858 -1.1382927 -0.9819988
v -0.583309 -1.1374558 -0.9819988
v 0.3827185 -0.99462676 -0.9819976
v 0.33418456 -0.99414533 -0.98200125
v -0.47160858 -1.1382927 -0.9819988
v 0.2829251 -1.2582926 -0.9819988
v 0.33539063 -1.258368 -0.9819976
v -0.47181547 -1.3139195 -0.9819988
v 0.28292236 -1.3139929 -0.9819988
v -0.26894438 1.2335894 -0.9819976
v -0.26894408 1.2335858 0.98200244
v -0.33221373 1.2336795 0.9820017
v -0.3322125 1.233682 -0.9819988
v -0.3322125 1.233682 -0.9819988
v -0.33221373 1.2336795 0.9820017
v -0.3322174 1.1807401 0.9820017
v -0.3322177 1.1807431 -0.9819988
v 0.28289002 1.233327 -0.98200005
v 0.28289062 1.2333244 0.98200047
v 0.28406617 1.3135803 0.98200047
v 0.28406525 1.3135829 -0.98200005
v -0.57780427 0.8783667 -0.9819976
v -0.5778027 0.87836415 0.98200244
v -0.5770239 0.8105445 0.98200244
v -0.5770242 0.81054693 -0.9819976
v -0.52361387 0.87738633 -0.9819988
v -0.5236133 0.877384 0.9820017
v -0.5778027 0.87836415 0.98200244
v -0.57780427 0.8783667 -0.9819976
v -0.583309 -1.1374558 -0.9819988
v -0.583309 -1.1374595 0.9820014
v -0.47160766 -1.1382954 0.9820014
v -0.47160858 -1.1382927 -0.9819988
v -0.5830258 -1.0652207 -0.9819976
v -0.5830255 -1.0652238 0.98200214
v -0.583309 -1.1374595 0.9820014
v -0.583309 -1.1374558 -0.9819988
v 0.34339508 1.233283 -0.98200005
v 0.3433963 1.2332808 0.98200035
v 0.28289062 1.2333244 0.98200047
v 0.28289002 1.233327 -0.98200005
v 0.34130767 0.8867581 -0.98200005
v 0.34130797 0.88675565 0.98200047
v 0.3433963 1.2332808 0.98200035
v 0.34339508 1.233283 -0.98200005
v -0.4652911 0.9871786 -0.9819988
v -0.4652911 0.98717606 0.9820017
v -0.46529356 0.92857087 0.9820017
v -0.46529388 0.9285736 -0.9819988
v -0.390654 0.987179 -0.9819988
v -0.39065367 0.98717624 0.9820017
v -0.4652911 0.98717606 0.9820017
v -0.4652911 0.9871786 -0.9819988
v -0.26865935 1.3139989 -0.9819976
v -0.26865843 1.3139964 0.98200244
v -0.26894408 1.2335858 0.98200244
v -0.26894438 1.2335894 -0.9819976
v 0.28406525 1.3135829 -0.98200005
v 0.28406617 1.3135803 0.98200047
v -0.26865843 1.3139964 0.98200244
v -0.26865935 1.3139989 -0.9819976
v -0.52361053 0.92857313 -0.9819988
v -0.52361053 0.9285705 0.9820017
v -0.5236133 0.877384 0.9820017
v -0.52361387 0.87738633 -0.9819988
v -0.46529388 0.9285736 -0.9819988
v -0.46529356 0.92857087 0.9820017
v -0.52361053 0.9285705 0.9820017
v -0.52361053 0.92857313 -0.9819988
v 0.5900165 -0.64074826 -0.98200125
v 0.5900171 -0.6407546 0.981999
v 0.58774716 -0.5805954 0.9819999
v 0.58774686 -0.5805913 -0.98200005
v 0.44125122 -0.6407758 -0.98200125
v 0.4412518 -0.64078045 0.9819991
v 0.5900171 -0.6407546 0.981999
v 0.5900165 -0.64074826 -0.98200125
v 0.33418456 -0.99414533 -0.98200125
v 0.33418152 -0.9941415 0.9819991
v 0.3827014 -0.99460936 0.98200244
v 0.3827185 -0.99462676 -0.9819976
v 0.3827185 -0.99462676 -0.9819976
v 0.3827014 -0.99460936 0.98200244
v 0.3829428 -0.9407176 0.9819986
v 0.38294432 -0.9407179 -0.98200125
v 0.4416147 -0.9410286 -0.98200244
v 0.44161743 -0.9410324 0.9819977
v 0.4412518 -0.64078045 0.9819991
v 0.44125122 -0.6407758 -0.98200125
v 0.38294432 -0.9407179 -0.98200125
v 0.3829428 -0.9407176 0.9819986
v 0.44161743 -0.9410324 0.9819977
v 0.4416147 -0.9410286 -0.98200244
v 0.39996064 0.750444 -0.98200005
v 0.39996123 0.75044084 0.98200047
v 0.40029266 0.88675565 0.98200047
v 0.40029266 0.88675827 -0.98200005
v 0.40029266 0.88675827 -0.98200005
v 0.40029266 0.88675565 0.98200047
v 0.34130797 0.88675565 0.98200047
v 0.34130767 0.8867581 -0.98200005
v 0.7050659 -0.517918 -0.98200005
v 0.7050671 -0.5179205 0.9819999
v 0.7037866 0.5791731 0.98200005
v 0.7037866 0.5791758 -0.98200005
v 0.7037866 0.5791758 -0.98200005
v 0.7037866 0.5791731 0.98200005
v 0.64677185 0.57956254 0.98200005
v 0.64677155 0.579565 -0.98200005
v 0.50828826 0.7498896 -0.98200005
v 0.50828975 0.74988705 0.9820002
v 0.39996123 0.75044084 0.98200047
v 0.39996064 0.750444 -0.98200005
v 0.50828975 0.70181197 -0.98200005
v 0.5082904 0.70180947 0.98200005
v 0.50828975 0.74988705 0.9820002
v 0.50828826 0.7498896 -0.98200005
v 0.58992183 0.70181197 -0.98200005
v 0.58992183 0.70180947 0.98200005
v 0.5082904 0.70180947 0.98200005
v 0.50828975 0.70181197 -0.98200005
v 0.58992124 0.63008237 -0.98200005
v 0.58992153 0.6300801 0.98200005
v 0.58992183 0.70180947 0.98200005
v 0.58992183 0.70181197 -0.98200005
v 0.64776 0.6301619 -0.98200005
v 0.64776 0.6301594 0.98200005
v 0.58992153 0.6300801 0.98200005
v 0.58992124 0.63008237 -0.98200005
v 0.64677155 0.579565 -0.98200005
v 0.64677185 0.57956254 0.98200005
v 0.64776 0.6301594 0.98200005
v 0.64776 0.6301619 -0.98200005
v 0.6402423 -0.5184106 -0.98200005
v 0.64024293 -0.51841325 0.98200005
v 0.7050671 -0.5179205 0.9819999
v 0.7050659 -0.517918 -0.98200005
v -0.38894865 1.1802746 -0.9819988
v -0.38894865 1.180272 0.9820017
v -0.39065367 0.98717624 0.9820017
v -0.390654 0.987179 -0.9819988
v -0.3322177 1.1807431 -0.9819988
v -0.3322174 1.1807401 0.9820017
v -0.38894865 1.180272 0.9820017
v -0.38894865 1.1802746 -0.9819988
v -0.7042834 0.08559711 -0.9819976
v -0.7042834 0.08559458 0.9820023
v -0.6386859 0.0855945 0.9820023
v -0.6386862 0.085596964 -0.9819976
v -0.7050702 0.38904577 -0.9819976
v -0.7050702 0.38904324 0.9820023
v -0.7042834 0.08559458 0.9820023
v -0.7042834 0.08559711 -0.9819976
v -0.63947326 0.38904586 -0.9819976
v -0.63947296 0.38904327 0.9820023
v -0.7050702 0.38904324 0.9820023
v -0.7050702 0.38904577 -0.9819976
v -0.64014953 0.8100513 -0.9819976
v -0.64014953 0.8100488 0.98200244
v -0.63947296 0.38904327 0.9820023
v -0.63947326 0.38904586 -0.9819976
v -0.5770242 0.81054693 -0.9819976
v -0.5770239 0.8105445 0.98200244
v -0.64014953 0.8100488 0.98200244
v -0.64014953 0.8100513 -0.9819976
v 0.2829251 -1.2582926 -0.9819988
v 0.28292358 -1.2582932 0.9820014
v 0.33538634 -1.2583674 0.98200244
v 0.33539063 -1.258368 -0.9819976
v 0.33539063 -1.258368 -0.9819976
v 0.33538634 -1.2583674 0.98200244
v 0.33418152 -0.9941415 0.9819991
v 0.33418456 -0.99414533 -0.98200125
v -0.47160858 -1.1382927 -0.9819988
v -0.47160766 -1.1382954 0.9820014
v -0.47181487 -1.3139223 0.98200107
v -0.47181547 -1.3139195 -0.9819988
v -0.63492674 -0.45375013 -0.9819976
v -0.63492674 -0.4537527 0.9820023
v -0.63522977 -0.5387648 0.9820023
v -0.63523006 -0.5387622 -0.9819976
v -0.5793368 -0.45323148 -0.9819976
v -0.5793365 -0.4532343 0.9820023
v -0.63492674 -0.4537527 0.9820023
v -0.63492674 -0.45375013 -0.9819976
v -0.6419495 0.027612342 -0.9819976
v -0.6419495 0.027609805 0.9820023
v -0.5793359 0.028225098 0.9820023
v -0.5793362 0.0282275 -0.9819976
v -0.6386862 0.085596964 -0.9819976
v -0.6386859 0.0855945 0.9820023
v -0.6419495 0.027609805 0.9820023
v -0.6419495 0.027612342 -0.9819976
v 0.64024353 -0.58059424 -0.98200005
v 0.64024353 -0.5805968 0.9819999
v 0.64024293 -0.51841325 0.98200005
v 0.6402423 -0.5184106 -0.98200005
v 0.58774686 -0.5805913 -0.98200005
v 0.58774716 -0.5805954 0.9819999
v 0.64024353 -0.5805968 0.9819999
v 0.64024353 -0.58059424 -0.98200005
v -0.6991528 -0.5381957 -0.9819976
v -0.6991528 -0.53819823 0.9820023
v -0.6980328 -0.95046 0.98200214
v -0.6980316 -0.9504576 -0.9819976
v -0.63523006 -0.5387622 -0.9819976
v -0.63522977 -0.5387648 0.9820023
v -0.6991528 -0.53819823 0.9820023
v -0.6991528 -0.5381957 -0.9819976
v -0.6980316 -0.9504576 -0.9819976
v -0.6980328 -0.95046 0.98200214
v -0.6420172 -0.9509215 0.9820023
v -0.6420172 -0.95091885 -0.9819976
v 0.28292236 -1.3139929 -0.9819988
v 0.28292236 -1.3139954 0.9820014
v 0.28292358 -1.2582932 0.9820014
v 0.2829251 -1.2582926 -0.9819988
v -0.47181547 -1.3139195 -0.9819988
v -0.47181487 -1.3139223 0.98200107
v 0.28292236 -1.3139954 0.9820014
v 0.28292236 -1.3139929 -0.9819988
v -0.64208037 -1.0664114 -0.9819976
v -0.64208037 -1.0664146 0.98200214
v -0.5830255 -1.0652238 0.98200214
v -0.5830258 -1.0652207 -0.9819976
v -0.6420172 -0.95091885 -0.9819976
v -0.6420172 -0.9509215 0.9820023
v -0.64208037 -1.0664146 0.98200214
v -0.64208037 -1.0664114 -0.9819976
v -0.5793362 0.0282275 -0.9819976
v -0.5793359 0.028225098 0.9820023
v -0.5793365 -0.4532343 0.9820023
v -0.5793368 -0.45323148 -0.9819976
v -0.33221373 1.2336795 0.9820017
v -0.26894408 1.2335858 0.98200244
v -0.3322174 1.1807401 0.9820017
v 0.28289062 1.2333244 0.98200047
v 0.28406617 1.3135803 0.98200047
v -0.26865843 1.3139964 0.98200244
v -0.39065367 0.98717624 0.9820017
v -0.38894865 1.180272 0.9820017
v 0.34130797 0.88675565 0.98200047
v 0.3433963 1.2332808 0.98200035
v 0.39996123 0.75044084 0.98200047
v 0.40029266 0.88675565 0.98200047
v -0.46529356 0.92857087 0.9820017
v -0.4652911 0.98717606 0.9820017
v -0.5236133 0.877384 0.9820017
v -0.52361053 0.9285705 0.9820017
v 0.50828975 0.74988705 0.9820002
v 0.5082904 0.70180947 0.98200005
v -0.5770239 0.8105445 0.98200244
v -0.5778027 0.87836415 0.98200244
v 0.39996123 0.75044084 0.98200047
v -0.63947296 0.38904327 0.9820023
v -0.64014953 0.8100488 0.98200244
v 0.58992153 0.6300801 0.98200005
v 0.58992183 0.70180947 0.98200005
v -0.63947296 0.38904327 0.9820023
v 0.5082904 0.70180947 0.98200005
v 0.64677185 0.57956254 0.98200005
v -0.6386859 0.0855945 0.9820023
v -0.5793359 0.028225098 0.9820023
v 0.64776 0.6301594 0.98200005
v 0.64677185 0.57956254 0.98200005
v -0.7042834 0.08559458 0.9820023
v -0.7050702 0.38904324 0.9820023
v -0.6386859 0.0855945 0.9820023
v -0.5793359 0.028225098 0.9820023
v -0.6419495 0.027609805 0.9820023
v -0.5793365 -0.4532343 0.9820023
v 0.64024293 -0.51841325 0.98200005
v 0.7050671 -0.5179205 0.9819999
v 0.7037866 0.5791731 0.98200005
v 0.58774716 -0.5805954 0.9819999
v 0.64024353 -0.5805968 0.9819999
v 0.4412518 -0.64078045 0.9819991
v 0.5900171 -0.6407546 0.981999
v -0.63522977 -0.5387648 0.9820023
v -0.63492674 -0.4537527 0.9820023
v -0.6420172 -0.9509215 0.9820023
v -0.6980328 -0.95046 0.98200214
v -0.6991528 -0.53819823 0.9820023
v -0.5830255 -1.0652238 0.98200214
v -0.64208037 -1.0664146 0.98200214
v 0.3829428 -0.9407176 0.9819986
v 0.44161743 -0.9410324 0.9819977
v -0.47160766 -1.1382954 0.9820014
v -0.583309 -1.1374595 0.9820014
v 0.3827014 -0.99460936 0.98200244
v 0.33418152 -0.9941415 0.9819991
v -0.47160766 -1.1382954 0.9820014
v 0.28292358 -1.2582932 0.9820014
v 0.33538634 -1.2583674 0.98200244
v -0.47181487 -1.3139223 0.98200107
v 0.28292236 -1.3139954 0.9820014
vt 0.51123047 0.703125
vt 0.51123047 0.69433594
vt 0.5029297 0.703125
vt 0.4326172 0.703125
vt 0.43237305 0.7104492
vt 0.5029297 0.7104492
vt 0.51904297 0.6713867
vt 0.51904297 0.69433594
vt 0.4260254 0.6557617
vt 0.4260254 0.703125
vt 0.4177246 0.640625
vt 0.4177246 0.6557617
vt 0.52685547 0.6640625
vt 0.52685547 0.6713867
vt 0.53564453 0.65625
vt 0.53564453 0.6640625
vt 0.40283203 0.6323242
vt 0.40283203 0.6401367
vt 0.54248047 0.6479492
vt 0.54248047 0.6567383
vt 0.4177246 0.640625
vt 0.55029297 0.59375
vt 0.55029297 0.6479492
vt 0.39501953 0.625
vt 0.39501953 0.6323242
vt 0.55029297 0.59375
vt 0.40283203 0.6323242
vt 0.3864746 0.6166992
vt 0.55029297 0.5551758
vt 0.54248047 0.5463867
vt 0.3864746 0.6166992
vt 0.3864746 0.625
vt 0.5625 0.59375
vt 0.5625 0.5551758
vt 0.55029297 0.5551758
vt 0.54248047 0.5463867
vt 0.55029297 0.5463867
vt 0.54248047 0.484375
vt 0.3864746 0.4765625
vt 0.3786621 0.47680664
vt 0.37890625 0.6166992
vt 0.3942871 0.46875
vt 0.3864746 0.46875
vt 0.4104004 0.4609375
vt 0.3942871 0.4609375
vt 0.55029297 0.47607422
vt 0.55029297 0.484375
vt 0.55029297 0.42138672
vt 0.5620117 0.42138672
vt 0.5625 0.47607422
vt 0.54296875 0.40698242
vt 0.55029297 0.40673828
vt 0.4177246 0.421875
vt 0.4104004 0.421875
vt 0.52685547 0.3984375
vt 0.54296875 0.3984375
vt 0.4177246 0.41430664
vt 0.4260254 0.41430664
vt 0.52685547 0.3984375
vt 0.43359375 0.38232422
vt 0.4260254 0.38232422
vt 0.52685547 0.37109375
vt 0.43359375 0.37109375
vt 0.6230469 0.75683594
vt 0.8745117 0.75683594
vt 0.8745117 0.74853516
vt 0.6230469 0.74853516
vt 0.6230469 0.74853516
vt 0.8745117 0.74853516
vt 0.8745117 0.7416992
vt 0.6230469 0.7416992
vt 0.35351562 0.7548828
vt 0.10217285 0.7548828
vt 0.10217285 0.7651367
vt 0.35351562 0.7651367
vt 0.6230469 0.671875
vt 0.8745117 0.671875
vt 0.8745117 0.6635742
vt 0.6230469 0.6635742
vt 0.6230469 0.67871094
vt 0.8745117 0.67871094
vt 0.8745117 0.671875
vt 0.6230469 0.671875
vt 0.6230469 0.35131836
vt 0.8745117 0.35131836
vt 0.8745117 0.33691406
vt 0.6230469 0.33691406
vt 0.6230469 0.3605957
vt 0.8745117 0.3605957
vt 0.8745117 0.35131836
vt 0.6230469 0.35131836
vt 0.35351562 0.7470703
vt 0.10217285 0.7470703
vt 0.10217285 0.7548828
vt 0.35351562 0.7548828
vt 0.35351562 0.7026367
vt 0.10217285 0.7026367
vt 0.10217285 0.7470703
vt 0.35351562 0.7470703
vt 0.6230469 0.7001953
vt 0.8745117 0.7001953
vt 0.8745117 0.6928711
vt 0.6230469 0.6928711
vt 0.6230469 0.70996094
vt 0.8745117 0.70996094
vt 0.8745117 0.7001953
vt 0.6230469 0.7001953
vt 0.6230469 0.76708984
vt 0.8745117 0.76708984
vt 0.8745117 0.75683594
vt 0.6230469 0.75683594
vt 0.8730469 0.78759766
vt 0.62158203 0.78759766
vt 0.62158203 0.85839844
vt 0.8730469 0.85839844
vt 0.6230469 0.6855469
vt 0.8745117 0.6855469
vt 0.8745117 0.67871094
vt 0.6230469 0.67871094
vt 0.6230469 0.6928711
vt 0.8745117 0.6928711
vt 0.8745117 0.6855469
vt 0.6230469 0.6855469
vt 0.35351562 0.44604492
vt 0.10217285 0.44604492
vt 0.10217285 0.45361328
vt 0.35351562 0.45361328
vt 0.35351562 0.42700195
vt 0.10217285 0.42700195
vt 0.10217285 0.44604492
vt 0.35351562 0.44604492
vt 0.35351562 0.36791992
vt 0.10217285 0.36791992
vt 0.10217285 0.37402344
vt 0.35351562 0.37402344
vt 0.35351562 0.37402344
vt 0.10217285 0.37402344
vt 0.10217285 0.38110352
vt 0.35351562 0.38110352
vt 0.35351562 0.38842773
vt 0.10217285 0.38842773
vt 0.10217285 0.42700195
vt 0.35351562 0.42700195
vt 0.35351562 0.38110352
vt 0.10217285 0.38110352
vt 0.10217285 0.38842773
vt 0.35351562 0.38842773
vt 0.35351562 0.6777344
vt 0.10217285 0.6777344
vt 0.10217285 0.6953125
vt 0.35351562 0.6953125
vt 0.35351562 0.6953125
vt 0.10217285 0.6953125
vt 0.10217285 0.7026367
vt 0.35351562 0.7026367
vt 0.35351562 0.4765625
vt 0.10217285 0.4765625
vt 0.10217285 0.6171875
vt 0.35351562 0.6171875
vt 0.35351562 0.6171875
vt 0.10217285 0.6171875
vt 0.10217285 0.6245117
vt 0.35351562 0.6245117
vt 0.35351562 0.6640625
vt 0.10217285 0.6640625
vt 0.10217285 0.6777344
vt 0.35351562 0.6777344
vt 0.35351562 0.65771484
vt 0.10217285 0.65771484
vt 0.10217285 0.6640625
vt 0.35351562 0.6640625
vt 0.35351562 0.64746094
vt 0.10217285 0.64746094
vt 0.10217285 0.65771484
vt 0.35351562 0.65771484
vt 0.35351562 0.6381836
vt 0.10217285 0.6381836
vt 0.10217285 0.64746094
vt 0.35351562 0.64746094
vt 0.35351562 0.6308594
vt 0.10217285 0.6308594
vt 0.10217285 0.6381836
vt 0.35351562 0.6381836
vt 0.35351562 0.6245117
vt 0.10217285 0.6245117
vt 0.10217285 0.6308594
vt 0.35351562 0.6308594
vt 0.35351562 0.46826172
vt 0.10217285 0.46826172
vt 0.10217285 0.4765625
vt 0.35351562 0.4765625
vt 0.6230469 0.734375
vt 0.8745117 0.734375
vt 0.8745117 0.70996094
vt 0.6230469 0.70996094
vt 0.6230469 0.7416992
vt 0.8745117 0.7416992
vt 0.8745117 0.734375
vt 0.6230469 0.734375
vt 0.6230469 0.5541992
vt 0.8745117 0.5541992
vt 0.8745117 0.54589844
vt 0.6230469 0.54589844
vt 0.6230469 0.5932617
vt 0.8745117 0.5932617
vt 0.8745117 0.5541992
vt 0.6230469 0.5541992
vt 0.6230469 0.6015625
vt 0.8745117 0.6015625
vt 0.8745117 0.5932617
vt 0.6230469 0.5932617
vt 0.6230469 0.65527344
vt 0.8745117 0.65527344
vt 0.8745117 0.6015625
vt 0.6230469 0.6015625
vt 0.6230469 0.6635742
vt 0.8745117 0.6635742
vt 0.8745117 0.65527344
vt 0.6230469 0.65527344
vt 0.35351562 0.32739258
vt 0.10217285 0.32739258
vt 0.10217285 0.33398438
vt 0.35351562 0.33398438
vt 0.35351562 0.33398438
vt 0.10217285 0.33398438
vt 0.10217285 0.36791992
vt 0.35351562 0.36791992
vt 0.6230469 0.33691406
vt 0.8745117 0.33691406
vt 0.8745117 0.31445312
vt 0.6230469 0.31445312
vt 0.6230469 0.46166992
vt 0.8745117 0.46166992
vt 0.8745117 0.45092773
vt 0.6230469 0.45092773
vt 0.6230469 0.46899414
vt 0.8745117 0.46899414
vt 0.8745117 0.46166992
vt 0.6230469 0.46166992
vt 0.6230469 0.5385742
vt 0.8745117 0.5385742
vt 0.8745117 0.53027344
vt 0.6230469 0.53027344
vt 0.6230469 0.54589844
vt 0.8745117 0.54589844
vt 0.8745117 0.5385742
vt 0.6230469 0.5385742
vt 0.35351562 0.46044922
vt 0.10217285 0.46044922
vt 0.10217285 0.46826172
vt 0.35351562 0.46826172
vt 0.35351562 0.45361328
vt 0.10217285 0.45361328
vt 0.10217285 0.46044922
vt 0.35351562 0.46044922
vt 0.6230469 0.4428711
vt 0.8745117 0.4428711
vt 0.8745117 0.39013672
vt 0.6230469 0.39013672
vt 0.6230469 0.45092773
vt 0.8745117 0.45092773
vt 0.8745117 0.4428711
vt 0.6230469 0.4428711
vt 0.6230469 0.39013672
vt 0.8745117 0.39013672
vt 0.8745117 0.3828125
vt 0.6230469 0.3828125
vt 0.35351562 0.3203125
vt 0.10217285 0.3203125
vt 0.10217285 0.32739258
vt 0.35351562 0.32739258
vt 0.875 0.19628906
vt 0.62353516 0.19628906
vt 0.62353516 0.29296875
vt 0.875 0.29296875
vt 0.6230469 0.36816406
vt 0.8745117 0.36816406
vt 0.8745117 0.3605957
vt 0.6230469 0.3605957
vt 0.6230469 0.3828125
vt 0.8745117 0.3828125
vt 0.8745117 0.36816406
vt 0.6230469 0.36816406
vt 0.6230469 0.53027344
vt 0.8745117 0.53027344
vt 0.8745117 0.46899414
vt 0.6230469 0.46899414
vt 0.51123047 0.703125
vt 0.5029297 0.703125
vt 0.51123047 0.69433594
vt 0.4326172 0.703125
vt 0.43237305 0.7104492
vt 0.5029297 0.7104492
vt 0.51904297 0.6713867
vt 0.51904297 0.69433594
vt 0.4260254 0.6557617
vt 0.4260254 0.703125
vt 0.4177246 0.640625
vt 0.4177246 0.6557617
vt 0.52685547 0.6640625
vt 0.52685547 0.6713867
vt 0.53564453 0.65625
vt 0.53564453 0.6640625
vt 0.40283203 0.6401367
vt 0.40283203 0.6323242
vt 0.54248047 0.6479492
vt 0.54248047 0.6567383
vt 0.4177246 0.640625
vt 0.55029297 0.59375
vt 0.55029297 0.6479492
vt 0.39501953 0.625
vt 0.39501953 0.6323242
vt 0.55029297 0.59375
vt 0.40283203 0.6323242
vt 0.3864746 0.6166992
vt 0.55029297 0.5551758
vt 0.54248047 0.5463867
vt 0.3864746 0.625
vt 0.3864746 0.6166992
vt 0.5625 0.5551758
vt 0.5625 0.59375
vt 0.55029297 0.5551758
vt 0.54248047 0.5463867
vt 0.55029297 0.5463867
vt 0.54248047 0.484375
vt 0.3864746 0.4765625
vt 0.3786621 0.47680664
vt 0.37890625 0.6166992
vt 0.3942871 0.46875
vt 0.3864746 0.46875
vt 0.4104004 0.4609375
vt 0.3942871 0.4609375
vt 0.55029297 0.47607422
vt 0.55029297 0.484375
vt 0.55029297 0.42138672
vt 0.5620117 0.42138672
vt 0.5625 0.47607422
vt 0.54296875 0.40698242
vt 0.55029297 0.40673828
vt 0.4177246 0.421875
vt 0.4104004 0.421875
vt 0.52685547 0.3984375
vt 0.54296875 0.3984375
vt 0.4177246 0.41430664
vt 0.4260254 0.41430664
vt 0.52685547 0.3984375
vt 0.43359375 0.38232422
vt 0.4260254 0.38232422
vt 0.52685547 0.37109375
vt 0.43359375 0.37109375
vn 1.9311905E-05 0 -1
vn 1.9311905E-05 0 -1
vn 1.9311905E-05 0 -1
vn -4.4107437E-06 0 -1
vn -4.4107437E-06 0 -1
vn -4.4107437E-06 0 -1
vn -0 0 -1
vn -0 0 -1
vn -0 0 -1
vn -0 0 -1
vn -0 0 -1
vn -0 0 -1
vn -0 0 -1
vn -0 0 -1
vn -2.2530556E-05 -2.3841858E-07 -1
vn -0 0 -1
vn -0 0 -1
vn -0 0 -1
vn -2.2530556E-05 -2.3841858E-07 -1
vn -2.2530556E-05 -2.3841858E-07 -1
vn -1.3113022E-06 -2.9206276E-06 -1
vn -0 0 -1
vn -0 0 -1
vn -0 0 -1
vn -0 0 -1
vn -1.3113022E-06 -2.9206276E-06 -1
vn -1.3113022E-06 -2.9206276E-06 -1
vn -1.3709068E-06 -1.4305115E-06 -1
vn -1.3709068E-06 -1.4305115E-06 -1
vn -1.3709068E-06 -1.4305115E-06 -1
vn -0 0 -1
vn -0 0 -1
vn -0 0 -1
vn -0 0 -1
vn -0 0 -1
vn -0 0 -1
vn -0 0 -1
vn -0 0 -1
vn -0 0 -1
vn -0 0 -1
vn -0 0 -1
vn -0 2.026558E-05 -1
vn -0 0 -1
vn -4.1127205E-06 2.682209E-06 -1
vn -0 2.026558E-05 -1
vn -0 0 -1
vn -0 0 -1
vn -2.9206276E-06 -1.5497208E-06 -1
vn -0 0 -1
vn -0 0 -1
vn 1.1920929E-07 1.692772E-05 -1
vn -0 0 -1
vn -4.1127205E-06 2.682209E-06 -1
vn -2.0802021E-05 4.053116E-06 -1
vn 1.1920929E-07 1.692772E-05 -1
vn 1.1920929E-07 1.692772E-05 -1
vn 7.480383E-05 -6.824732E-05 -1
vn 7.480383E-05 -6.824732E-05 -1
vn -3.6358833E-06 3.2782555E-06 -1
vn 2.3245811E-05 -1.3768673E-05 -1
vn 2.3245811E-05 -1.3768673E-05 -1
vn -0 0 -1
vn -0 0 -1
vn 0.0014724731 1 1.6093254E-06
vn 0.0014724731 1 1.6093254E-06
vn 0.0014724731 1 1.6093254E-06
vn 0.0014724731 1 1.6093254E-06
vn -1 8.356571E-05 -2.3841858E-07
vn -1 8.356571E-05 -2.3841858E-07
vn -1 8.356571E-05 -2.3841858E-07
vn -1 8.356571E-05 -2.3841858E-07
vn 1 -0.014640808 -4.172325E-07
vn 1 -0.014640808 -4.172325E-07
vn 1 -0.014640808 -4.172325E-07
vn 1 -0.014640808 -4.172325E-07
vn -1 -0.011489868 4.7683716E-07
vn -1 -0.011489868 4.7683716E-07
vn -1 -0.011489868 4.7683716E-07
vn -1 -0.011489868 4.7683716E-07
vn 0.018081665 1 1.1920929E-06
vn 0.018081665 1 1.1920929E-06
vn 0.018081665 1 1.1920929E-06
vn 0.018081665 1 1.1920929E-06
vn -0.0074882507 -1 -1.6093254E-06
vn -0.0074882507 -1 -1.6093254E-06
vn -0.0074882507 -1 -1.6093254E-06
vn -0.0074882507 -1 -1.6093254E-06
vn -1 0.003921509 0
vn -1 0.003921509 0
vn -1 0.003921509 0
vn -1 0.003921509 0
vn 0.0007238388 1 1.2516975E-06
vn 0.0007238388 1 1.2516975E-06
vn 0.0007238388 1 1.2516975E-06
vn 0.0007238388 1 1.2516975E-06
vn 1 -0.006023407 -4.172325E-07
vn 1 -0.006023407 -4.172325E-07
vn 1 -0.006023407 -4.172325E-07
vn 1 -0.006023407 -4.172325E-07
vn -1 4.428625E-05 0
vn -1 4.428625E-05 0
vn -1 4.428625E-05 0
vn -1 4.428625E-05 0
vn -4.1127205E-06 1 1.3709068E-06
vn -4.1127205E-06 1 1.3709068E-06
vn -4.1127205E-06 1 1.3709068E-06
vn -4.1127205E-06 1 1.3709068E-06
vn -1 0.0035476685 2.9802322E-07
vn -1 0.0035476685 2.9802322E-07
vn -1 0.0035476685 2.9802322E-07
vn -1 0.0035476685 2.9802322E-07
vn 0.0007529259 1 1.3113022E-06
vn 0.0007529259 1 1.3113022E-06
vn 0.0007529259 1 1.3113022E-06
vn 0.0007529259 1 1.3113022E-06
vn -1 5.9604645E-05 1.7881393E-07
vn -1 5.9604645E-05 1.7881393E-07
vn -1 5.9604645E-05 1.7881393E-07
vn -1 5.9604645E-05 1.7881393E-07
vn -6.556511E-06 1 1.3709068E-06
vn -6.556511E-06 1 1.3709068E-06
vn -6.556511E-06 1 1.3709068E-06
vn -6.556511E-06 1 1.3709068E-06
vn 0.9995117 0.03768921 -1.1920929E-07
vn 0.9995117 0.03768921 -1.1920929E-07
vn 0.9995117 0.03768921 -1.1920929E-07
vn 0.9995117 0.03768921 -1.1920929E-07
vn 0.0001796484 -1 -2.8014183E-06
vn 0.0001796484 -1 -2.8014183E-06
vn 0.0001796484 -1 -2.8014183E-06
vn 0.0001796484 -1 -2.8014183E-06
vn -0.009780884 -1 5.364418E-06
vn -0.009780884 -1 5.364418E-06
vn -0.009780884 -1 5.364418E-06
vn -0.009780884 -1 5.364418E-06
vn 1 -0.004333496 4.7683716E-06
vn 1 -0.004333496 4.7683716E-06
vn 1 -0.004333496 4.7683716E-06
vn 1 -0.004333496 4.7683716E-06
vn 1 0.0012140274 -8.34465E-07
vn 1 0.0012140274 -8.34465E-07
vn 1 0.0012140274 -8.34465E-07
vn 1 0.0012140274 -8.34465E-07
vn -0.005329132 -1 -8.940697E-07
vn -0.005329132 -1 -8.940697E-07
vn -0.005329132 -1 -8.940697E-07
vn -0.005329132 -1 -8.940697E-07
vn 1 -0.0024337769 -1.7881393E-07
vn 1 -0.0024337769 -1.7881393E-07
vn 1 -0.0024337769 -1.7881393E-07
vn 1 -0.0024337769 -1.7881393E-07
vn -1.3113022E-06 1 1.3113022E-06
vn -1.3113022E-06 1 1.3113022E-06
vn -1.3113022E-06 1 1.3113022E-06
vn -1.3113022E-06 1 1.3113022E-06
vn 1 0.0011663437 -2.9802322E-07
vn 1 0.0011663437 -2.9802322E-07
vn 1 0.0011663437 -2.9802322E-07
vn 1 0.0011663437 -2.9802322E-07
vn 0.006828308 1 1.3113022E-06
vn 0.006828308 1 1.3113022E-06
vn 0.006828308 1 1.3113022E-06
vn 0.006828308 1 1.3113022E-06
vn 0.005115509 1 1.4305115E-06
vn 0.005115509 1 1.4305115E-06
vn 0.005115509 1 1.4305115E-06
vn 0.005115509 1 1.4305115E-06
vn 1 2.2232533E-05 -5.364418E-07
vn 1 2.2232533E-05 -5.364418E-07
vn 1 2.2232533E-05 -5.364418E-07
vn 1 2.2232533E-05 -5.364418E-07
vn -0 1 1.3113022E-06
vn -0 1 1.3113022E-06
vn -0 1 1.3113022E-06
vn -0 1 1.3113022E-06
vn 1 -6.377697E-06 0
vn 1 -6.377697E-06 0
vn 1 -6.377697E-06 0
vn 1 -6.377697E-06 0
vn -0.0013723373 1 1.2516975E-06
vn -0.0013723373 1 1.2516975E-06
vn -0.0013723373 1 1.2516975E-06
vn -0.0013723373 1 1.2516975E-06
vn 1 -0.01953125 -1.1920929E-07
vn 1 -0.01953125 -1.1920929E-07
vn 1 -0.01953125 -1.1920929E-07
vn 1 -0.01953125 -1.1920929E-07
vn 0.007598877 -1 -1.3113022E-06
vn 0.007598877 -1 -1.3113022E-06
vn 0.007598877 -1 -1.3113022E-06
vn 0.007598877 -1 -1.3113022E-06
vn -1 0.0088272095 0
vn -1 0.0088272095 0
vn -1 0.0088272095 0
vn -1 0.0088272095 0
vn -0.008255005 1 1.3709068E-06
vn -0.008255005 1 1.3709068E-06
vn -0.008255005 1 1.3709068E-06
vn -0.008255005 1 1.3709068E-06
vn -1.7285347E-06 -1 -1.2516975E-06
vn -1.7285347E-06 -1 -1.2516975E-06
vn -1.7285347E-06 -1 -1.2516975E-06
vn -1.7285347E-06 -1 -1.2516975E-06
vn -1 -0.0025920868 0
vn -1 -0.0025920868 0
vn -1 -0.0025920868 0
vn -1 -0.0025920868 0
vn -8.940697E-07 1 1.3113022E-06
vn -8.940697E-07 1 1.3113022E-06
vn -8.940697E-07 1 1.3113022E-06
vn -8.940697E-07 1 1.3113022E-06
vn -1 -0.0016069412 0
vn -1 -0.0016069412 0
vn -1 -0.0016069412 0
vn -1 -0.0016069412 0
vn -0.007850647 1 1.2516975E-06
vn -0.007850647 1 1.2516975E-06
vn -0.007850647 1 1.2516975E-06
vn -0.007850647 1 1.2516975E-06
vn -0.0014276505 -1 0
vn -0.0014276505 -1 0
vn -0.0014276505 -1 0
vn -0.0014276505 -1 0
vn 1 0.004562378 1.847744E-06
vn 1 0.004562378 1.847744E-06
vn 1 0.004562378 1.847744E-06
vn 1 0.004562378 1.847744E-06
vn -1 0.0011787415 4.172325E-07
vn -1 0.0011787415 4.172325E-07
vn -1 0.0011787415 4.172325E-07
vn -1 0.0011787415 4.172325E-07
vn -1 0.003566742 0
vn -1 0.003566742 0
vn -1 0.003566742 0
vn -1 0.003566742 0
vn -0.0093307495 1 1.3709068E-06
vn -0.0093307495 1 1.3709068E-06
vn -0.0093307495 1 1.3709068E-06
vn -0.0093307495 1 1.3709068E-06
vn 0.00982666 -1 -1.2516975E-06
vn 0.00982666 -1 -1.2516975E-06
vn 0.00982666 -1 -1.2516975E-06
vn 0.00982666 -1 -1.2516975E-06
vn -0.99853516 0.05618286 1.7881393E-07
vn -0.99853516 0.05618286 1.7881393E-07
vn -0.99853516 0.05618286 1.7881393E-07
vn -0.99853516 0.05618286 1.7881393E-07
vn 1 1.4722347E-05 -1.7881393E-07
vn 1 1.4722347E-05 -1.7881393E-07
vn 1 1.4722347E-05 -1.7881393E-07
vn 1 1.4722347E-05 -1.7881393E-07
vn -4.1425228E-05 -1 -1.66893E-06
vn -4.1425228E-05 -1 -1.66893E-06
vn -4.1425228E-05 -1 -1.66893E-06
vn -4.1425228E-05 -1 -1.66893E-06
vn -1 -0.0027179718 -2.9802322E-07
vn -1 -0.0027179718 -2.9802322E-07
vn -1 -0.0027179718 -2.9802322E-07
vn -1 -0.0027179718 -2.9802322E-07
vn 0.008865356 1 1.3113022E-06
vn 0.008865356 1 1.3113022E-06
vn 0.008865356 1 1.3113022E-06
vn 0.008865356 1 1.3113022E-06
vn -0.008232117 -1 -1.3113022E-06
vn -0.008232117 -1 -1.3113022E-06
vn -0.008232117 -1 -1.3113022E-06
vn -0.008232117 -1 -1.3113022E-06
vn 1 -3.5583973E-05 4.172325E-07
vn 1 -3.5583973E-05 4.172325E-07
vn 1 -3.5583973E-05 4.172325E-07
vn 1 -3.5583973E-05 4.172325E-07
vn -9.7095966E-05 -1 -1.3113022E-06
vn -9.7095966E-05 -1 -1.3113022E-06
vn -9.7095966E-05 -1 -1.3113022E-06
vn -9.7095966E-05 -1 -1.3113022E-06
vn 0.02015686 -1 -1.6093254E-06
vn 0.02015686 -1 -1.6093254E-06
vn 0.02015686 -1 -1.6093254E-06
vn 0.02015686 -1 -1.6093254E-06
vn -1 0.0005469322 0
vn -1 0.0005469322 0
vn -1 0.0005469322 0
vn -1 0.0005469322 0
vn -1 1.2516975E-06 1.7881393E-07
vn -1 1.2516975E-06 1.7881393E-07
vn -1 1.2516975E-06 1.7881393E-07
vn -1 1.2516975E-06 1.7881393E-07
vn -1.2040138E-05 0 1
vn -1.2040138E-05 0 1
vn -1.2040138E-05 0 1
vn 3.5762787E-06 0 1
vn 3.5762787E-06 0 1
vn 3.5762787E-06 0 1
vn -0 0 1
vn -0 0 1
vn 2.503395E-06 4.172325E-07 1
vn 2.503395E-06 4.172325E-07 1
vn -0 0 1
vn -0 0 1
vn -0 0 1
vn -0 0 1
vn 1.4066696E-05 1.7881393E-07 1
vn -0 0 1
vn 2.8014183E-06 -3.1590462E-06 1
vn 2.8014183E-06 -3.1590462E-06 1
vn 1.4066696E-05 1.7881393E-07 1
vn 1.4066696E-05 1.7881393E-07 1
vn 2.861023E-06 -3.0994415E-06 1
vn -0 0 1
vn -0 -3.5762787E-07 1
vn -0 0 1
vn -0 0 1
vn 2.861023E-06 -3.0994415E-06 1
vn 2.861023E-06 -3.0994415E-06 1
vn 1.2516975E-06 1.3113022E-06 1
vn 1.2516975E-06 1.3113022E-06 1
vn 1.2516975E-06 1.3113022E-06 1
vn -0 0 1
vn -0 -1.1920929E-07 1
vn -0 0 1
vn -0 0 1
vn -0 0 1
vn -0 0 1
vn -0 0 1
vn -0 0 1
vn 2.3245811E-06 0 1
vn -0 -1.1920929E-07 1
vn -0 -1.1920929E-07 1
vn 1.013279E-06 -1.5199184E-05 1
vn -0 -2.4437904E-06 1
vn 3.993511E-06 -2.682209E-06 1
vn 1.013279E-06 -1.5199184E-05 1
vn -0 0 1
vn -0 0 1
vn 2.9206276E-06 1.7881393E-07 1
vn -0 -3.5762787E-07 1
vn -0 -3.5762787E-07 1
vn -0 -1.0550022E-05 1
vn -0 -1.3113022E-06 1
vn 3.993511E-06 -2.682209E-06 1
vn 1.5556812E-05 -4.529953E-06 1
vn -0 -1.0550022E-05 1
vn -0 -1.0550022E-05 1
vn -6.848574E-05 7.110834E-05 1
vn -6.848574E-05 7.110834E-05 1
vn 1.5497208E-06 7.1525574E-06 1
vn -2.0325184E-05 1.2636185E-05 1
vn -2.0325184E-05 1.2636185E-05 1
vn -4.172325E-07 0 1
vn -4.172325E-07 0 1
g Rocks_Small_013_0
f 3/3/3 2/2/2 1/1/1
f 4/4/4 2/2/2 3/3/3
f 5/5/5 4/4/4 3/3/3
f 6/6/6 5/5/5 3/3/3
f 7/7/7 2/2/2 4/4/4
f 7/7/7 8/8/8 2/2/2
f 7/7/7 4/4/4 9/9/9
f 4/4/4 10/10/10 9/9/9
f 9/9/9 11/11/11 7/7/7
f 11/11/11 9/9/9 12/12/12
f 11/11/11 13/13/13 7/7/7
f 13/13/13 14/14/14 7/7/7
f 13/13/13 11/11/11 15/15/15
f 15/15/15 16/16/16 13/13/13
f 18/18/18 17/17/17 11/11/11
f 20/20/20 15/15/15 19/19/19
f 15/15/15 21/21/21 19/19/19
f 19/19/19 11/11/11 22/22/22
f 23/23/23 19/19/19 22/22/22
f 17/17/17 24/24/24 22/22/22
f 25/25/25 24/24/24 17/17/17
f 21/21/21 27/27/27 26/26/26
f 24/24/24 28/28/28 26/26/26
f 26/26/26 28/28/28 29/29/29
f 29/29/29 28/28/28 30/30/30
f 32/32/32 31/31/31 24/24/24
f 34/34/34 33/33/33 22/22/22
f 35/35/35 34/34/34 22/22/22
f 37/37/37 35/35/35 36/36/36
f 36/36/36 28/28/28 38/38/38
f 31/31/31 39/39/39 38/38/38
f 39/39/39 31/31/31 40/40/40
f 40/40/40 31/31/31 41/41/41
f 39/39/39 42/42/42 38/38/38
f 43/43/43 42/42/42 39/39/39
f 42/42/42 44/44/44 38/38/38
f 45/45/45 44/44/44 42/42/42
f 44/44/44 46/46/46 38/38/38
f 46/46/46 47/47/47 38/38/38
f 48/48/48 46/46/46 44/44/44
f 49/49/49 46/46/46 48/48/48
f 49/49/49 50/50/50 46/46/46
f 48/48/48 44/44/44 51/51/51
f 52/52/52 48/48/48 51/51/51
f 44/44/44 53/53/53 51/51/51
f 54/54/54 53/53/53 44/44/44
f 53/53/53 55/55/55 51/51/51
f 55/55/55 56/56/56 51/51/51
f 58/58/58 53/53/53 57/57/57
f 58/58/58 59/59/59 53/53/53
f 60/60/60 59/59/59 58/58/58
f 60/60/60 58/58/58 61/61/61
f 62/62/62 55/55/55 60/60/60
f 63/63/63 62/62/62 60/60/60
f 66/66/66 65/65/65 64/64/64
f 67/67/67 66/66/66 64/64/64
f 70/70/70 69/69/69 68/68/68
f 71/71/71 70/70/70 68/68/68
f 74/74/74 73/73/73 72/72/72
f 75/75/75 74/74/74 72/72/72
f 78/78/78 77/77/77 76/76/76
f 79/79/79 78/78/78 76/76/76
f 82/82/82 81/81/81 80/80/80
f 83/83/83 82/82/82 80/80/80
f 86/86/86 85/85/85 84/84/84
f 87/87/87 86/86/86 84/84/84
f 90/90/90 89/89/89 88/88/88
f 91/91/91 90/90/90 88/88/88
f 94/94/94 93/93/93 92/92/92
f 95/95/95 94/94/94 92/92/92
f 98/98/98 97/97/97 96/96/96
f 99/99/99 98/98/98 96/96/96
f 102/102/102 101/101/101 100/100/100
f 103/103/103 102/102/102 100/100/100
f 106/106/106 105/105/105 104/104/104
f 107/107/107 106/106/106 104/104/104
f 110/110/110 109/109/109 108/108/108
f 111/111/111 110/110/110 108/108/108
f 114/114/114 113/113/113 112/112/112
f 115/115/115 114/114/114 112/112/112
f 118/118/118 117/117/117 116/116/116
f 119/119/119 118/118/118 116/116/116
f 122/122/122 121/121/121 120/120/120
f 123/123/123 122/122/122 120/120/120
f 126/126/126 125/125/125 124/124/124
f 127/127/127 126/126/126 124/124/124
f 130/130/130 129/129/129 128/128/128
f 131/131/131 130/130/130 128/128/128
f 134/134/134 133/133/133 132/132/132
f 135/135/135 134/134/134 132/132/132
f 138/138/138 137/137/137 136/136/136
f 139/139/139 138/138/138 136/136/136
f 142/142/142 141/141/141 140/140/140
f 143/143/143 142/142/142 140/140/140
f 146/146/146 145/145/145 144/144/144
f 147/147/147 146/146/146 144/144/144
f 150/150/150 149/149/149 148/148/148
f 151/151/151 150/150/150 148/148/148
f 154/154/154 153/153/153 152/152/152
f 155/155/155 154/154/154 152/152/152
f 158/158/158 157/157/157 156/156/156
f 159/159/159 158/158/158 156/156/156
f 162/162/162 161/161/161 160/160/160
f 163/163/163 162/162/162 160/160/160
f 166/166/166 165/165/165 164/164/164
f 167/167/167 166/166/166 164/164/164
f 170/170/170 169/169/169 168/168/168
f 171/171/171 170/170/170 168/168/168
f 174/174/174 173/173/173 172/172/172
f 175/175/175 174/174/174 172/172/172
f 178/178/178 177/177/177 176/176/176
f 179/179/179 178/178/178 176/176/176
f 182/182/182 181/181/181 180/180/180
f 183/183/183 182/182/182 180/180/180
f 186/186/186 185/185/185 184/184/184
f 187/187/187 186/186/186 184/184/184
f 190/190/190 189/189/189 188/188/188
f 191/191/191 190/190/190 188/188/188
f 194/194/194 193/193/193 192/192/192
f 195/195/195 194/194/194 192/192/192
f 198/198/198 197/197/197 196/196/196
f 199/199/199 198/198/198 196/196/196
f 202/202/202 201/201/201 200/200/200
f 203/203/203 202/202/202 200/200/200
f 206/206/206 205/205/205 204/204/204
f 207/207/207 206/206/206 204/204/204
f 210/210/210 209/209/209 208/208/208
f 211/211/211 210/210/210 208/208/208
f 214/214/214 213/213/213 212/212/212
f 215/215/215 214/214/214 212/212/212
f 218/218/218 217/217/217 216/216/216
f 219/219/219 218/218/218 216/216/216
f 222/222/222 221/221/221 220/220/220
f 223/223/223 222/222/222 220/220/220
f 226/226/226 225/225/225 224/224/224
f 227/227/227 226/226/226 224/224/224
f 230/230/230 229/229/229 228/228/228
f 231/231/231 230/230/230 228/228/228
f 234/234/234 233/233/233 232/232/232
f 235/235/235 234/234/234 232/232/232
f 238/238/238 237/237/237 236/236/236
f 239/239/239 238/238/238 236/236/236
f 242/242/242 241/241/241 240/240/240
f 243/243/243 242/242/242 240/240/240
f 246/246/246 245/245/245 244/244/244
f 247/247/247 246/246/246 244/244/244
f 250/250/250 249/249/249 248/248/248
f 251/251/251 250/250/250 248/248/248
f 254/254/254 253/253/253 252/252/252
f 255/255/255 254/254/254 252/252/252
f 258/258/258 257/257/257 256/256/256
f 259/259/259 258/258/258 256/256/256
f 262/262/262 261/261/261 260/260/260
f 263/263/263 262/262/262 260/260/260
f 266/266/266 265/265/265 264/264/264
f 267/267/267 266/266/266 264/264/264
f 270/270/270 269/269/269 268/268/268
f 271/271/271 270/270/270 268/268/268
f 274/274/274 273/273/273 272/272/272
f 275/275/275 274/274/274 272/272/272
f 278/278/278 277/277/277 276/276/276
f 279/279/279 278/278/278 276/276/276
f 282/282/282 281/281/281 280/280/280
f 283/283/283 282/282/282 280/280/280
f 286/286/286 285/285/285 284/284/284
f 287/287/287 286/286/286 284/284/284
f 290/290/290 289/289/289 288/288/288
f 290/290/290 291/291/291 289/289/289
f 291/291/291 292/292/292 289/289/289
f 292/292/292 293/293/293 289/289/289
f 290/290/290 294/294/294 291/291/291
f 295/295/295 294/294/294 290/290/290
f 291/291/291 294/294/294 296/296/296
f 297/297/297 291/291/291 296/296/296
f 298/298/298 296/296/296 294/294/294
f 296/296/296 298/298/298 299/299/299
f 300/300/300 298/298/298 294/294/294
f 301/301/301 300/300/300 294/294/294
f 298/298/298 300/300/300 302/302/302
f 303/303/303 302/302/302 300/300/300
f 305/305/305 304/304/304 298/298/298
f 302/302/302 307/307/307 306/306/306
f 308/308/308 302/302/302 306/306/306
f 298/298/298 306/306/306 309/309/309
f 306/306/306 310/310/310 309/309/309
f 311/311/311 305/305/305 309/309/309
f 311/311/311 312/312/312 305/305/305
f 314/314/314 308/308/308 313/313/313
f 315/315/315 311/311/311 313/313/313
f 315/315/315 313/313/313 316/316/316
f 315/315/315 316/316/316 317/317/317
f 319/319/319 318/318/318 311/311/311
f 321/321/321 320/320/320 309/309/309
f 320/320/320 322/322/322 309/309/309
f 322/322/322 324/324/324 323/323/323
f 315/315/315 323/323/323 325/325/325
f 326/326/326 319/319/319 325/325/325
f 319/319/319 326/326/326 327/327/327
f 319/319/319 327/327/327 328/328/328
f 329/329/329 326/326/326 325/325/325
f 329/329/329 330/330/330 326/326/326
f 331/331/331 329/329/329 325/325/325
f 331/331/331 332/332/332 329/329/329
f 333/333/333 331/331/331 325/325/325
f 334/334/334 333/333/333 325/325/325
f 333/333/333 335/335/335 331/331/331
f 333/333/333 336/336/336 335/335/335
f 337/337/337 336/336/336 333/333/333
f 331/331/331 335/335/335 338/338/338
f 335/335/335 339/339/339 338/338/338
f 340/340/340 331/331/331 338/338/338
f 340/340/340 341/341/341 331/331/331
f 342/342/342 340/340/340 338/338/338
f 343/343/343 342/342/342 338/338/338
f 340/340/340 345/345/345 344/344/344
f 346/346/346 345/345/345 340/340/340
f 346/346/346 347/347/347 345/345/345
f 345/345/345 347/347/347 348/348/348
f 349/349/349 347/347/347 342/342/342
f 349/349/349 350/350/350 347/347/347
