g Rocks_Small_015
v -0.7204309 -1.4130572 -0.8986943
v -0.8344537 -0.89330226 -0.89869416
v -0.78218746 -1.3405557 -0.8986942
v 0.7112202 -1.0318259 -0.89869416
v -0.65305996 -1.4674155 -0.8986943
v 0.58969694 -1.4667206 -0.8986943
v 0.4663513 -1.5250247 -0.8986943
v 0.58902663 -1.5258023 -0.8986943
v -0.53345186 -1.5298218 -0.8986943
v 0.465202 -1.5898749 -0.8986943
v -0.53350735 -1.5898749 -0.8986943
v -0.65295166 -1.5297576 -0.8986943
v 0.6508162 -1.4045148 -0.8986942
v 0.7112202 -1.4039526 -0.8986942
v 0.6508162 -1.4668435 -0.8986943
v 1.0816222 -0.97169095 -0.89869416
v 1.0816222 -1.0314925 -0.89869416
v 1.144715 -0.903764 -0.89869416
v 1.144715 -0.97169095 -0.89869416
v 1.1491095 -0.033138886 -0.89869416
v 1.2141949 -0.84783536 -0.89869416
v 1.2137567 -0.90383756 -0.89869416
v 1.2173517 -0.16004196 -0.89869416
v 1.2773166 -0.847821 -0.89869416
v 1.2748834 -0.1610884 -0.89869416
v 1.2182257 -0.03233963 -0.89869416
v 1.0716485 0.028201446 -0.89869416
v 1.1495618 0.027964018 -0.89869416
v 0.97003293 0.090257265 -0.89869416
v 1.0710123 0.090384215 -0.89869416
v 0.83706665 0.15307434 -0.89869416
v 0.96956295 0.15372711 -0.89869416
v -0.8344537 -0.89330226 -0.89869416
v -0.70685697 0.34304503 -0.89869416
v -0.7204309 -1.4130572 -0.8986943
v 0.7687607 0.46621186 -0.89869416
v 0.83701813 0.46555603 -0.89869416
v -0.6526196 0.6503906 -0.89869416
v 0.71514004 0.7778345 -0.89869416
v 0.7678931 0.77687806 -0.89869416
v 0.65957516 0.84713435 -0.89869416
v 0.7152856 0.84696686 -0.89869416
v 0.5851631 0.90566987 -0.89869416
v 0.6602383 0.9053128 -0.89869416
v 0.5267343 0.9615542 -0.89869416
v 0.5848698 0.96177214 -0.89869416
v -1.0855474 -0.8361569 -0.89869416
v -1.0856069 -0.89357346 -0.89869416
v -0.5913211 1.4665881 -0.89869404
v -0.65056306 1.4665881 -0.89869404
v 0.46863067 1.3398635 -0.89869404
v 0.52633816 1.3398635 -0.89869404
v -0.5291849 1.530198 -0.89869404
v -0.5913211 1.530198 -0.89869404
v 0.40344268 1.4603195 -0.89869404
v 0.4677513 1.4602532 -0.89869404
v 0.34261748 1.5298623 -0.89869404
v 0.34261748 1.588627 -0.89869404
v -0.52874756 1.5898745 -0.89869404
v 0.40344268 1.4603195 -0.89869404
v 0.402912 1.5299857 -0.89869404
v -0.7084927 0.6506119 -0.89869416
v -0.70896393 0.52791107 -0.89869416
v -0.76739043 0.46344024 -0.89869416
v -0.7676904 0.52791107 -0.89869416
v -0.84855956 0.34281462 -0.89869416
v -0.8477929 0.46344024 -0.89869416
v -1.0143319 0.27521178 -0.89869416
v -1.0143307 0.3425589 -0.89869416
v -1.1569269 0.20536438 -0.89869416
v -1.151279 0.27457306 -0.89869416
v -1.1494421 -0.7713318 -0.89869416
v -1.1501852 -0.8358609 -0.89869416
v -1.2191947 0.14657333 -0.89869416
v -1.2197403 0.20464294 -0.89869416
v -1.2152493 -0.71226805 -0.89869416
v -1.2153037 -0.7716812 -0.89869416
v -1.2765728 0.14665191 -0.89869416
v -1.2773172 -0.71211576 -0.89869416
v 0.58969694 -1.4667206 -0.8986943
v 0.6508162 -1.4045148 -0.8986942
v 0.7112202 -1.0318259 -0.89869416
v -0.72043073 -1.4130572 0.8986937
v -0.78218734 -1.3405557 0.89869404
v -0.8344536 -0.89330244 0.89869416
v 0.7112204 -1.031826 0.89869416
v -0.65305984 -1.4674155 0.8986937
v 0.58969724 -1.4667206 0.8986937
v 0.46635145 -1.5250247 0.8986937
v 0.5890268 -1.5258023 0.8986937
v -0.5334517 -1.5298218 0.8986937
v 0.46520218 -1.5898749 0.8986937
v -0.53350705 -1.5898749 0.8986937
v -0.6529515 -1.5297576 0.8986937
v 0.6508163 -1.4045148 0.89869404
v 0.6508163 -1.4668435 0.8986937
v 0.7112204 -1.4039526 0.89869404
v -0.72043073 -1.4130572 0.8986937
v -0.72050154 -1.467507 0.8986937
v -0.8344536 -0.89330244 0.89869416
v 0.83706665 0.15307419 0.89869416
v -0.70685667 0.34304473 0.89869416
v -1.0855473 -0.8361571 0.89869416
v -1.0856068 -0.89357346 0.89869416
v 0.768761 0.46621153 0.8986943
v 0.83701843 0.46555603 0.8986943
v -0.6526195 0.6503906 0.8986943
v 0.7151402 0.7778345 0.89869416
v 0.7678931 0.77687806 0.89869416
v 0.65957534 0.84713435 0.89869416
v 0.71528596 0.84696686 0.89869416
v 0.58516324 0.90566987 0.89869416
v 0.6602385 0.9053128 0.89869416
v 0.5267346 0.9615542 0.89869416
v 0.58487 0.96177214 0.89869416
v -0.59132093 1.4665881 0.8986942
v -0.6505629 1.4665881 0.8986942
v 0.46863082 1.3398639 0.8986942
v 0.5263385 1.3398639 0.8986942
v -0.5291847 1.5301983 0.8986942
v -0.59132093 1.5301983 0.8986942
v 0.40344283 1.4603198 0.8986942
v 0.34261778 1.5298626 0.8986942
v 0.34261778 1.5886273 0.8986942
v -0.52874726 1.5898749 0.8986942
v 0.40344283 1.4603198 0.8986942
v 0.46775144 1.4602532 0.8986942
v 0.4029123 1.5299859 0.8986942
v -0.7084926 0.6506119 0.8986943
v -0.70896375 0.52791107 0.8986943
v -0.76739025 0.46343994 0.8986943
v -0.76769024 0.52791107 0.8986943
v -0.8485594 0.34281433 0.8986943
v -0.8477928 0.46343994 0.8986943
v -1.0143318 0.27521148 0.89869416
v -1.0143306 0.3425586 0.8986943
v -1.1569265 0.20536438 0.89869416
v -1.1512789 0.27457306 0.89869416
v -1.149442 -0.7713321 0.89869416
v -1.1501851 -0.8358612 0.89869416
v -1.2191944 0.14657317 0.89869416
v -1.2197402 0.20464294 0.89869416
v -1.2152492 -0.71226805 0.89869416
v -1.2153034 -0.7716815 0.89869416
v -1.2765726 0.14665191 0.89869416
v -1.277317 -0.71211576 0.89869416
v 0.58969724 -1.4667206 0.8986937
v 0.7112204 -1.031826 0.89869416
v 0.6508163 -1.4045148 0.89869404
v 0.97003293 0.090257265 0.89869416
v 0.96956295 0.15372711 0.89869416
v 1.0716485 0.028201446 0.89869416
v 1.0710125 0.090384215 0.89869416
v 1.1491095 -0.033138886 0.89869416
v 1.1495618 0.027963867 0.89869416
v 1.2173517 -0.1600421 0.89869416
v 1.2182257 -0.03233978 0.89869416
v 1.2141949 -0.84783566 0.89869416
v 1.2773168 -0.84782135 0.89869416
v 1.2748837 -0.16108856 0.89869416
v 1.144715 -0.9037642 0.89869416
v 1.2137567 -0.90383774 0.89869416
v 1.0816222 -0.97169113 0.89869416
v 1.144715 -0.97169113 0.89869416
v 1.0816222 -1.0314927 0.89869416
v -0.7205017 -1.467507 -0.8986943
v -0.78218746 -1.3405557 -0.8986942
v -0.78233457 -1.4130408 -0.8986943
v -0.83503294 -1.3399402 -0.8986942
v -0.78233445 -1.4130408 0.8986937
v -0.78218734 -1.3405557 0.89869404
v -0.83503276 -1.3399402 0.89869404
v 0.5267343 0.9615542 -0.89869416
v 0.5267346 0.9615542 0.89869416
v 0.5263385 1.3398639 0.8986942
v 0.52633816 1.3398635 -0.89869404
v 0.52633816 1.3398635 -0.89869404
v 0.5263385 1.3398639 0.8986942
v 0.46863082 1.3398639 0.8986942
v 0.46863067 1.3398635 -0.89869404
v 0.46863067 1.3398635 -0.89869404
v 0.46863082 1.3398639 0.8986942
v 0.46775144 1.4602532 0.8986942
v 0.4677513 1.4602532 -0.89869404
v 0.34261748 1.5298623 -0.89869404
v 0.34261778 1.5298626 0.8986942
v 0.34261778 1.5886273 0.8986942
v 0.34261748 1.588627 -0.89869404
v 0.34261748 1.588627 -0.89869404
v 0.34261778 1.5886273 0.8986942
v -0.52874726 1.5898749 0.8986942
v -0.52874756 1.5898745 -0.89869404
v -0.52874756 1.5898745 -0.89869404
v -0.52874726 1.5898749 0.8986942
v -0.5291847 1.5301983 0.8986942
v -0.5291849 1.530198 -0.89869404
v -0.5291849 1.530198 -0.89869404
v -0.5291847 1.5301983 0.8986942
v -0.59132093 1.5301983 0.8986942
v -0.5913211 1.530198 -0.89869404
v -0.5913211 1.530198 -0.89869404
v -0.59132093 1.5301983 0.8986942
v -0.59132093 1.4665881 0.8986942
v -0.5913211 1.4665881 -0.89869404
v -0.5913211 1.4665881 -0.89869404
v -0.59132093 1.4665881 0.8986942
v -0.6505629 1.4665881 0.8986942
v -0.65056306 1.4665881 -0.89869404
v -0.65056306 1.4665881 -0.89869404
v -0.6505629 1.4665881 0.8986942
v -0.6526195 0.6503906 0.8986943
v -0.6526196 0.6503906 -0.89869416
v -0.6526196 0.6503906 -0.89869416
v -0.6526195 0.6503906 0.8986943
v -0.7084926 0.6506119 0.8986943
v -0.7084927 0.6506119 -0.89869416
v -1.0143307 0.3425589 -0.89869416
v -1.0143306 0.3425586 0.8986943
v -1.0143318 0.27521148 0.89869416
v -1.0143319 0.27521178 -0.89869416
v -0.84855956 0.34281462 -0.89869416
v -0.8485594 0.34281433 0.8986943
v -1.0143306 0.3425586 0.8986943
v -1.0143307 0.3425589 -0.89869416
v -1.0143319 0.27521178 -0.89869416
v -1.0143318 0.27521148 0.89869416
v -1.1512789 0.27457306 0.89869416
v -1.151279 0.27457306 -0.89869416
v -1.1494421 -0.7713318 -0.89869416
v -1.149442 -0.7713321 0.89869416
v -1.1501851 -0.8358612 0.89869416
v -1.1501852 -0.8358609 -0.89869416
v -1.1501852 -0.8358609 -0.89869416
v -1.1501851 -0.8358612 0.89869416
v -1.0855473 -0.8361571 0.89869416
v -1.0855474 -0.8361569 -0.89869416
v -1.0855474 -0.8361569 -0.89869416
v -1.0855473 -0.8361571 0.89869416
v -1.0856068 -0.89357346 0.89869416
v -1.0856069 -0.89357346 -0.89869416
v -1.0856069 -0.89357346 -0.89869416
v -1.0856068 -0.89357346 0.89869416
v -0.8344536 -0.89330244 0.89869416
v -0.8344537 -0.89330226 -0.89869416
v -0.8344537 -0.89330226 -0.89869416
v -0.8344536 -0.89330244 0.89869416
v -0.83503276 -1.3399402 0.89869404
v -0.83503294 -1.3399402 -0.8986942
v -0.83503294 -1.3399402 -0.8986942
v -0.83503276 -1.3399402 0.89869404
v -0.78218734 -1.3405557 0.89869404
v -0.78218746 -1.3405557 -0.8986942
v -0.78218746 -1.3405557 -0.8986942
v -0.78218734 -1.3405557 0.89869404
v -0.78233445 -1.4130408 0.8986937
v -0.78233457 -1.4130408 -0.8986943
v -0.65305996 -1.4674155 -0.8986943
v -0.65305984 -1.4674155 0.8986937
v -0.6529515 -1.5297576 0.8986937
v -0.65295166 -1.5297576 -0.8986943
v -0.65295166 -1.5297576 -0.8986943
v -0.6529515 -1.5297576 0.8986937
v -0.5334517 -1.5298218 0.8986937
v -0.53345186 -1.5298218 -0.8986943
v -0.53345186 -1.5298218 -0.8986943
v -0.5334517 -1.5298218 0.8986937
v -0.53350705 -1.5898749 0.8986937
v -0.53350735 -1.5898749 -0.8986943
v -0.53350735 -1.5898749 -0.8986943
v -0.53350705 -1.5898749 0.8986937
v 0.46520218 -1.5898749 0.8986937
v 0.465202 -1.5898749 -0.8986943
v 0.465202 -1.5898749 -0.8986943
v 0.46520218 -1.5898749 0.8986937
v 0.46635145 -1.5250247 0.8986937
v 0.4663513 -1.5250247 -0.8986943
v 0.4663513 -1.5250247 -0.8986943
v 0.46635145 -1.5250247 0.8986937
v 0.5890268 -1.5258023 0.8986937
v 0.58902663 -1.5258023 -0.8986943
v 0.58902663 -1.5258023 -0.8986943
v 0.5890268 -1.5258023 0.8986937
v 0.58969724 -1.4667206 0.8986937
v 0.58969694 -1.4667206 -0.8986943
v 0.58969694 -1.4667206 -0.8986943
v 0.58969724 -1.4667206 0.8986937
v 0.6508163 -1.4668435 0.8986937
v 0.6508162 -1.4668435 -0.8986943
v 0.7112202 -1.0318259 -0.89869416
v 0.7112204 -1.031826 0.89869416
v 1.0816222 -1.0314927 0.89869416
v 1.0816222 -1.0314925 -0.89869416
v 1.0816222 -1.0314925 -0.89869416
v 1.0816222 -1.0314927 0.89869416
v 1.0816222 -0.97169113 0.89869416
v 1.0816222 -0.97169095 -0.89869416
v 1.0816222 -0.97169095 -0.89869416
v 1.0816222 -0.97169113 0.89869416
v 1.144715 -0.97169113 0.89869416
v 1.144715 -0.97169095 -0.89869416
v 1.144715 -0.97169095 -0.89869416
v 1.144715 -0.97169113 0.89869416
v 1.144715 -0.9037642 0.89869416
v 1.144715 -0.903764 -0.89869416
v 1.144715 -0.903764 -0.89869416
v 1.144715 -0.9037642 0.89869416
v 1.2137567 -0.90383774 0.89869416
v 1.2137567 -0.90383756 -0.89869416
v 1.2137567 -0.90383756 -0.89869416
v 1.2137567 -0.90383774 0.89869416
v 1.2141949 -0.84783566 0.89869416
v 1.2141949 -0.84783536 -0.89869416
v 1.2141949 -0.84783536 -0.89869416
v 1.2141949 -0.84783566 0.89869416
v 1.2773168 -0.84782135 0.89869416
v 1.2773166 -0.847821 -0.89869416
v 1.0716485 0.028201446 -0.89869416
v 1.0716485 0.028201446 0.89869416
v 1.0710125 0.090384215 0.89869416
v 1.0710123 0.090384215 -0.89869416
v 1.0710123 0.090384215 -0.89869416
v 1.0710125 0.090384215 0.89869416
v 0.97003293 0.090257265 0.89869416
v 0.97003293 0.090257265 -0.89869416
v 0.97003293 0.090257265 -0.89869416
v 0.97003293 0.090257265 0.89869416
v 0.96956295 0.15372711 0.89869416
v 0.96956295 0.15372711 -0.89869416
v 0.96956295 0.15372711 -0.89869416
v 0.96956295 0.15372711 0.89869416
v 0.83706665 0.15307419 0.89869416
v 0.83706665 0.15307434 -0.89869416
v 0.83706665 0.15307434 -0.89869416
v 0.83706665 0.15307419 0.89869416
v 0.83701843 0.46555603 0.8986943
v 0.83701813 0.46555603 -0.89869416
v 0.83701813 0.46555603 -0.89869416
v 0.83701843 0.46555603 0.8986943
v 0.768761 0.46621153 0.8986943
v 0.7687607 0.46621186 -0.89869416
v 0.7687607 0.46621186 -0.89869416
v 0.768761 0.46621153 0.8986943
v 0.7678931 0.77687806 0.89869416
v 0.7678931 0.77687806 -0.89869416
v 0.7678931 0.77687806 -0.89869416
v 0.7678931 0.77687806 0.89869416
v 0.7151402 0.7778345 0.89869416
v 0.71514004 0.7778345 -0.89869416
v 0.71514004 0.7778345 -0.89869416
v 0.7151402 0.7778345 0.89869416
v 0.71528596 0.84696686 0.89869416
v 0.7152856 0.84696686 -0.89869416
v 0.7152856 0.84696686 -0.89869416
v 0.71528596 0.84696686 0.89869416
v 0.65957534 0.84713435 0.89869416
v 0.65957516 0.84713435 -0.89869416
v -1.151279 0.27457306 -0.89869416
v -1.1512789 0.27457306 0.89869416
v -1.1569265 0.20536438 0.89869416
v -1.1569269 0.20536438 -0.89869416
v -0.7084927 0.6506119 -0.89869416
v -0.7084926 0.6506119 0.8986943
v -0.70896375 0.52791107 0.8986943
v -0.70896393 0.52791107 -0.89869416
v -0.70896393 0.52791107 -0.89869416
v -0.70896375 0.52791107 0.8986943
v -0.76769024 0.52791107 0.8986943
v -0.7676904 0.52791107 -0.89869416
v -0.7676904 0.52791107 -0.89869416
v -0.76769024 0.52791107 0.8986943
v -0.76739025 0.46343994 0.8986943
v -0.76739043 0.46344024 -0.89869416
v -0.76739043 0.46344024 -0.89869416
v -0.76739025 0.46343994 0.8986943
v -0.8477928 0.46343994 0.8986943
v -0.8477929 0.46344024 -0.89869416
v -0.8477929 0.46344024 -0.89869416
v -0.8477928 0.46343994 0.8986943
v -0.8485594 0.34281433 0.8986943
v -0.84855956 0.34281462 -0.89869416
v -0.78233457 -1.4130408 -0.8986943
v -0.78233445 -1.4130408 0.8986937
v -0.72043073 -1.4130572 0.8986937
v -0.7204309 -1.4130572 -0.8986943
v -0.7205017 -1.467507 -0.8986943
v -0.72050154 -1.467507 0.8986937
v -0.65305984 -1.4674155 0.8986937
v -0.65305996 -1.4674155 -0.8986943
v -0.7204309 -1.4130572 -0.8986943
v -0.72043073 -1.4130572 0.8986937
v -0.72050154 -1.467507 0.8986937
v -0.7205017 -1.467507 -0.8986943
v 0.7112202 -1.4039526 -0.8986942
v 0.7112204 -1.4039526 0.89869404
v 0.7112204 -1.031826 0.89869416
v 0.7112202 -1.0318259 -0.89869416
v 0.6508162 -1.4045148 -0.8986942
v 0.6508163 -1.4045148 0.89869404
v 0.7112204 -1.4039526 0.89869404
v 0.7112202 -1.4039526 -0.8986942
v 0.6508162 -1.4668435 -0.8986943
v 0.6508163 -1.4668435 0.8986937
v 0.6508163 -1.4045148 0.89869404
v 0.6508162 -1.4045148 -0.8986942
v 1.2773166 -0.847821 -0.89869416
v 1.2773168 -0.84782135 0.89869416
v 1.2748837 -0.16108856 0.89869416
v 1.2748834 -0.1610884 -0.89869416
v 1.2748834 -0.1610884 -0.89869416
v 1.2748837 -0.16108856 0.89869416
v 1.2173517 -0.1600421 0.89869416
v 1.2173517 -0.16004196 -0.89869416
v 1.2173517 -0.16004196 -0.89869416
v 1.2173517 -0.1600421 0.89869416
v 1.2182257 -0.03233978 0.89869416
v 1.2182257 -0.03233963 -0.89869416
v 1.2182257 -0.03233963 -0.89869416
v 1.2182257 -0.03233978 0.89869416
v 1.1491095 -0.033138886 0.89869416
v 1.1491095 -0.033138886 -0.89869416
v 1.1491095 -0.033138886 -0.89869416
v 1.1491095 -0.033138886 0.89869416
v 1.1495618 0.027963867 0.89869416
v 1.1495618 0.027964018 -0.89869416
v 1.1495618 0.027964018 -0.89869416
v 1.1495618 0.027963867 0.89869416
v 1.0716485 0.028201446 0.89869416
v 1.0716485 0.028201446 -0.89869416
v 0.4677513 1.4602532 -0.89869404
v 0.46775144 1.4602532 0.8986942
v 0.40344283 1.4603198 0.8986942
v 0.40344268 1.4603195 -0.89869404
v 0.402912 1.5299857 -0.89869404
v 0.4029123 1.5299859 0.8986942
v 0.34261778 1.5298626 0.8986942
v 0.34261748 1.5298623 -0.89869404
v 0.40344268 1.4603195 -0.89869404
v 0.40344283 1.4603198 0.8986942
v 0.4029123 1.5299859 0.8986942
v 0.402912 1.5299857 -0.89869404
v 0.5851631 0.90566987 -0.89869416
v 0.58516324 0.90566987 0.89869416
v 0.58487 0.96177214 0.89869416
v 0.5848698 0.96177214 -0.89869416
v 0.5848698 0.96177214 -0.89869416
v 0.58487 0.96177214 0.89869416
v 0.5267346 0.9615542 0.89869416
v 0.5267343 0.9615542 -0.89869416
v 0.65957516 0.84713435 -0.89869416
v 0.65957534 0.84713435 0.89869416
v 0.6602385 0.9053128 0.89869416
v 0.6602383 0.9053128 -0.89869416
v 0.6602383 0.9053128 -0.89869416
v 0.6602385 0.9053128 0.89869416
v 0.58516324 0.90566987 0.89869416
v 0.5851631 0.90566987 -0.89869416
v -1.2765728 0.14665191 -0.89869416
v -1.2765726 0.14665191 0.89869416
v -1.277317 -0.71211576 0.89869416
v -1.2773172 -0.71211576 -0.89869416
v -1.2152493 -0.71226805 -0.89869416
v -1.2152492 -0.71226805 0.89869416
v -1.2153034 -0.7716815 0.89869416
v -1.2153037 -0.7716812 -0.89869416
v -1.2773172 -0.71211576 -0.89869416
v -1.277317 -0.71211576 0.89869416
v -1.2152492 -0.71226805 0.89869416
v -1.2152493 -0.71226805 -0.89869416
v -1.2153037 -0.7716812 -0.89869416
v -1.2153034 -0.7716815 0.89869416
v -1.149442 -0.7713321 0.89869416
v -1.1494421 -0.7713318 -0.89869416
v -1.2191947 0.14657333 -0.89869416
v -1.2191944 0.14657317 0.89869416
v -1.2765726 0.14665191 0.89869416
v -1.2765728 0.14665191 -0.89869416
v -1.2197403 0.20464294 -0.89869416
v -1.2197402 0.20464294 0.89869416
v -1.2191944 0.14657317 0.89869416
v -1.2191947 0.14657333 -0.89869416
v -1.1569269 0.20536438 -0.89869416
v -1.1569265 0.20536438 0.89869416
v -1.2197402 0.20464294 0.89869416
v -1.2197403 0.20464294 -0.89869416
vt 0.5361328 0.7319336
vt 0.54296875 0.76416016
vt 0.54003906 0.7368164
vt 0.44482422 0.7558594
vt 0.5317383 0.72802734
vt 0.45263672 0.72802734
vt 0.46069336 0.7241211
vt 0.45288086 0.7236328
vt 0.52441406 0.7246094
vt 0.46069336 0.72021484
vt 0.52441406 0.72021484
vt 0.5317383 0.7246094
vt 0.44873047 0.7319336
vt 0.44506836 0.7319336
vt 0.4489746 0.72802734
vt 0.42236328 0.75927734
vt 0.42236328 0.7558594
vt 0.4182129 0.7636719
vt 0.4182129 0.75927734
vt 0.41723633 0.8178711
vt 0.41381836 0.76708984
vt 0.41381836 0.7636719
vt 0.41308594 0.8095703
vt 0.40966797 0.76708984
vt 0.40942383 0.8095703
vt 0.4128418 0.8178711
vt 0.42211914 0.82177734
vt 0.41723633 0.82177734
vt 0.4284668 0.8256836
vt 0.42211914 0.8256836
vt 0.43701172 0.82958984
vt 0.4284668 0.82958984
vt 0.54296875 0.76416016
vt 0.5336914 0.84228516
vt 0.5361328 0.7319336
vt 0.4399414 0.8491211
vt 0.43579102 0.8491211
vt 0.52978516 0.8618164
vt 0.4440918 0.86865234
vt 0.4399414 0.86865234
vt 0.44799805 0.8730469
vt 0.4440918 0.8730469
vt 0.45214844 0.8769531
vt 0.44799805 0.8769531
vt 0.4560547 0.8803711
vt 0.4519043 0.8803711
vt 0.55859375 0.7675781
vt 0.55859375 0.76416016
vt 0.5253906 0.9116211
vt 0.5288086 0.9116211
vt 0.45947266 0.90478516
vt 0.4560547 0.9042969
vt 0.5214844 0.9160156
vt 0.5253906 0.9160156
vt 0.4633789 0.9121094
vt 0.45947266 0.9121094
vt 0.46728516 0.9160156
vt 0.46728516 0.92089844
vt 0.5209961 0.92089844
vt 0.4633789 0.9121094
vt 0.4633789 0.9160156
vt 0.5336914 0.8618164
vt 0.5336914 0.8540039
vt 0.53759766 0.85009766
vt 0.53759766 0.8540039
vt 0.54248047 0.84228516
vt 0.54248047 0.85009766
vt 0.55322266 0.8383789
vt 0.55322266 0.84277344
vt 0.5625 0.8339844
vt 0.5620117 0.8383789
vt 0.5625 0.77197266
vt 0.5629883 0.7675781
vt 0.56640625 0.8300781
vt 0.56640625 0.8339844
vt 0.56689453 0.7758789
vt 0.56689453 0.77197266
vt 0.5698242 0.8305664
vt 0.5708008 0.7758789
vt 0.45263672 0.72802734
vt 0.44873047 0.7319336
vt 0.44482422 0.7558594
vt 0.5361328 0.7319336
vt 0.54003906 0.7368164
vt 0.54296875 0.76416016
vt 0.44482422 0.7558594
vt 0.5317383 0.72802734
vt 0.45263672 0.72802734
vt 0.46069336 0.7241211
vt 0.45288086 0.7236328
vt 0.52441406 0.7246094
vt 0.46069336 0.72021484
vt 0.52441406 0.72021484
vt 0.5317383 0.7246094
vt 0.44873047 0.7319336
vt 0.4489746 0.72802734
vt 0.44506836 0.7319336
vt 0.5361328 0.7319336
vt 0.5361328 0.72802734
vt 0.54296875 0.76416016
vt 0.43701172 0.82958984
vt 0.5336914 0.84228516
vt 0.55859375 0.7675781
vt 0.55859375 0.76416016
vt 0.4399414 0.8491211
vt 0.43579102 0.8491211
vt 0.52978516 0.8618164
vt 0.4440918 0.86865234
vt 0.4399414 0.86865234
vt 0.44799805 0.8730469
vt 0.4440918 0.8730469
vt 0.45214844 0.8769531
vt 0.44799805 0.8769531
vt 0.4560547 0.8803711
vt 0.4519043 0.8803711
vt 0.5253906 0.9116211
vt 0.5288086 0.9116211
vt 0.45947266 0.90478516
vt 0.4560547 0.9042969
vt 0.5214844 0.9160156
vt 0.5253906 0.9160156
vt 0.4633789 0.9121094
vt 0.46728516 0.9160156
vt 0.46728516 0.92089844
vt 0.5209961 0.92089844
vt 0.4633789 0.9121094
vt 0.45947266 0.9121094
vt 0.4633789 0.9160156
vt 0.5336914 0.8618164
vt 0.5336914 0.8540039
vt 0.53759766 0.85009766
vt 0.53759766 0.8540039
vt 0.54248047 0.84228516
vt 0.54248047 0.85009766
vt 0.55322266 0.8383789
vt 0.55322266 0.84277344
vt 0.5625 0.8339844
vt 0.5620117 0.8383789
vt 0.5625 0.77197266
vt 0.5629883 0.7675781
vt 0.56640625 0.8300781
vt 0.56640625 0.8339844
vt 0.56689453 0.7758789
vt 0.56689453 0.77197266
vt 0.5698242 0.8305664
vt 0.5708008 0.7758789
vt 0.45263672 0.72802734
vt 0.44482422 0.7558594
vt 0.44873047 0.7319336
vt 0.4284668 0.8256836
vt 0.4284668 0.82958984
vt 0.42211914 0.82177734
vt 0.42211914 0.8256836
vt 0.41723633 0.8178711
vt 0.41723633 0.82177734
vt 0.41308594 0.8095703
vt 0.4128418 0.8178711
vt 0.41381836 0.76708984
vt 0.40966797 0.76708984
vt 0.40942383 0.8095703
vt 0.4182129 0.7636719
vt 0.41381836 0.7636719
vt 0.42236328 0.75927734
vt 0.4182129 0.75927734
vt 0.42236328 0.7558594
vt 0.5361328 0.72802734
vt 0.54003906 0.7368164
vt 0.54003906 0.7319336
vt 0.54296875 0.7368164
vt 0.54003906 0.7319336
vt 0.54003906 0.7368164
vt 0.54296875 0.7368164
vt 0.39648438 0.9580078
vt 0.3244629 0.9580078
vt 0.3244629 0.9824219
vt 0.39648438 0.9824219
vt 0.44189453 0.92626953
vt 0.44189453 0.99316406
vt 0.44555664 0.99316406
vt 0.44555664 0.92626953
vt 0.44555664 0.92626953
vt 0.44555664 0.99316406
vt 0.453125 0.99316406
vt 0.453125 0.92626953
vt 0.46557617 0.92626953
vt 0.46557617 0.99316406
vt 0.46923828 0.99316406
vt 0.46923828 0.92626953
vt 0.46923828 0.92626953
vt 0.46923828 0.99316406
vt 0.52441406 0.99316406
vt 0.52441406 0.92626953
vt 0.58691406 0.9291992
vt 0.6586914 0.9291992
vt 0.6586914 0.92529297
vt 0.58691406 0.92529297
vt 0.58691406 0.92529297
vt 0.6586914 0.92529297
vt 0.6586914 0.9213867
vt 0.58691406 0.9213867
vt 0.58691406 0.9213867
vt 0.6586914 0.9213867
vt 0.6586914 0.91748047
vt 0.58691406 0.91748047
vt 0.58691406 0.91748047
vt 0.6586914 0.91748047
vt 0.6586914 0.9135742
vt 0.58691406 0.9135742
vt 0.58691406 0.9135742
vt 0.6586914 0.9135742
vt 0.6586914 0.8618164
vt 0.58691406 0.8618164
vt 0.58691406 0.8618164
vt 0.6586914 0.8618164
vt 0.6586914 0.85839844
vt 0.58691406 0.85839844
vt 0.58691406 0.81933594
vt 0.6586914 0.81933594
vt 0.6586914 0.8154297
vt 0.58691406 0.8154297
vt 0.58691406 0.8300781
vt 0.6586914 0.8300781
vt 0.6586914 0.81933594
vt 0.58691406 0.81933594
vt 0.58691406 0.8154297
vt 0.6586914 0.8154297
vt 0.6586914 0.8066406
vt 0.58691406 0.8066406
vt 0.58691406 0.7246094
vt 0.6586914 0.7246094
vt 0.6586914 0.7207031
vt 0.58691406 0.7207031
vt 0.58691406 0.7207031
vt 0.6586914 0.7207031
vt 0.6586914 0.7167969
vt 0.58691406 0.7167969
vt 0.58691406 0.7167969
vt 0.6586914 0.7167969
vt 0.6586914 0.7128906
vt 0.58691406 0.7128906
vt 0.58691406 0.7128906
vt 0.6586914 0.7128906
vt 0.6586914 0.6972656
vt 0.58691406 0.6972656
vt 0.58691406 0.6972656
vt 0.6586914 0.6972656
vt 0.6586914 0.66845703
vt 0.58691406 0.66845703
vt 0.5571289 0.7084961
vt 0.5571289 0.64160156
vt 0.55371094 0.64160156
vt 0.55371094 0.7084961
vt 0.55371094 0.7084961
vt 0.55371094 0.64160156
vt 0.5493164 0.64160156
vt 0.5493164 0.7084961
vt 0.53759766 0.7084961
vt 0.53759766 0.64160156
vt 0.5336914 0.64160156
vt 0.5336914 0.7084961
vt 0.5336914 0.7084961
vt 0.5336914 0.64160156
vt 0.5258789 0.64160156
vt 0.5258789 0.7084961
vt 0.5258789 0.7084961
vt 0.5258789 0.64160156
vt 0.52197266 0.64160156
vt 0.52197266 0.7084961
vt 0.52197266 0.7084961
vt 0.52197266 0.64160156
vt 0.45874023 0.64160156
vt 0.45874023 0.7084961
vt 0.45874023 0.7084961
vt 0.45874023 0.64160156
vt 0.45458984 0.64160156
vt 0.45458984 0.7084961
vt 0.45458984 0.7084961
vt 0.45458984 0.64160156
vt 0.44677734 0.64160156
vt 0.44677734 0.7084961
vt 0.44677734 0.7084961
vt 0.44677734 0.64160156
vt 0.44311523 0.64160156
vt 0.44311523 0.7084961
vt 0.44311523 0.7084961
vt 0.44311523 0.64160156
vt 0.43920898 0.64160156
vt 0.43920898 0.7084961
vt 0.39648438 0.74902344
vt 0.3244629 0.74902344
vt 0.3244629 0.77246094
vt 0.39648438 0.77246094
vt 0.39648438 0.77246094
vt 0.3244629 0.77246094
vt 0.3244629 0.7763672
vt 0.39648438 0.7763672
vt 0.39648438 0.7763672
vt 0.3244629 0.7763672
vt 0.3244629 0.78027344
vt 0.39648438 0.78027344
vt 0.39648438 0.78027344
vt 0.3244629 0.78027344
vt 0.3244629 0.78466797
vt 0.39648438 0.78466797
vt 0.39648438 0.78466797
vt 0.3244629 0.78466797
vt 0.3244629 0.7890625
vt 0.39648438 0.7890625
vt 0.39648438 0.7890625
vt 0.3244629 0.7890625
vt 0.3244629 0.79248047
vt 0.39648438 0.79248047
vt 0.39648438 0.79248047
vt 0.3244629 0.79248047
vt 0.3244629 0.7963867
vt 0.39648438 0.7963867
vt 0.39648438 0.8647461
vt 0.3244629 0.8647461
vt 0.3244629 0.86865234
vt 0.39648438 0.86865234
vt 0.39648438 0.86865234
vt 0.3244629 0.86865234
vt 0.3244629 0.875
vt 0.39648438 0.875
vt 0.39648438 0.875
vt 0.3244629 0.875
vt 0.3244629 0.87939453
vt 0.39648438 0.87939453
vt 0.39648438 0.87939453
vt 0.3244629 0.87939453
vt 0.3244629 0.88671875
vt 0.39648438 0.88671875
vt 0.39648438 0.88671875
vt 0.3244629 0.88671875
vt 0.3244629 0.90722656
vt 0.39648438 0.90722656
vt 0.39648438 0.90722656
vt 0.3244629 0.90722656
vt 0.3244629 0.9116211
vt 0.39648438 0.9116211
vt 0.39648438 0.9116211
vt 0.3244629 0.9116211
vt 0.3244629 0.93115234
vt 0.39648438 0.93115234
vt 0.39648438 0.93115234
vt 0.3244629 0.93115234
vt 0.3244629 0.9345703
vt 0.39648438 0.9345703
vt 0.39648438 0.9345703
vt 0.3244629 0.9345703
vt 0.3244629 0.93896484
vt 0.39648438 0.93896484
vt 0.39648438 0.93896484
vt 0.3244629 0.93896484
vt 0.3244629 0.9423828
vt 0.39648438 0.9423828
vt 0.58691406 0.8066406
vt 0.6586914 0.8066406
vt 0.6586914 0.8022461
vt 0.58691406 0.8022461
vt 0.58691406 0.85839844
vt 0.6586914 0.85839844
vt 0.6586914 0.85058594
vt 0.58691406 0.85058594
vt 0.58691406 0.85058594
vt 0.6586914 0.85058594
vt 0.6586914 0.8466797
vt 0.58691406 0.8466797
vt 0.58691406 0.8466797
vt 0.6586914 0.8466797
vt 0.6586914 0.84277344
vt 0.58691406 0.84277344
vt 0.58691406 0.84277344
vt 0.6586914 0.84277344
vt 0.6586914 0.8378906
vt 0.58691406 0.8378906
vt 0.58691406 0.8378906
vt 0.6586914 0.8378906
vt 0.6586914 0.8300781
vt 0.58691406 0.8300781
vt 0.5493164 0.7084961
vt 0.5493164 0.64160156
vt 0.54541016 0.64160156
vt 0.54541016 0.7084961
vt 0.5419922 0.7084961
vt 0.5419922 0.64160156
vt 0.53759766 0.64160156
vt 0.53759766 0.7084961
vt 0.54541016 0.7084961
vt 0.54541016 0.64160156
vt 0.5419922 0.64160156
vt 0.5419922 0.7084961
vt 0.39648438 0.72558594
vt 0.3244629 0.72558594
vt 0.3244629 0.74902344
vt 0.39648438 0.74902344
vt 0.43530273 0.7084961
vt 0.43530273 0.64160156
vt 0.43139648 0.64160156
vt 0.43139648 0.7084961
vt 0.43920898 0.7084961
vt 0.43920898 0.64160156
vt 0.43530273 0.64160156
vt 0.43530273 0.7084961
vt 0.39648438 0.7963867
vt 0.3244629 0.7963867
vt 0.3244629 0.84033203
vt 0.39648438 0.84033203
vt 0.39648438 0.84033203
vt 0.3244629 0.84033203
vt 0.3244629 0.84375
vt 0.39648438 0.84375
vt 0.39648438 0.84375
vt 0.3244629 0.84375
vt 0.3244629 0.8520508
vt 0.39648438 0.8520508
vt 0.39648438 0.8520508
vt 0.3244629 0.8520508
vt 0.3244629 0.8564453
vt 0.39648438 0.8564453
vt 0.39648438 0.8564453
vt 0.3244629 0.8564453
vt 0.3244629 0.8598633
vt 0.39648438 0.8598633
vt 0.39648438 0.8598633
vt 0.3244629 0.8598633
vt 0.3244629 0.8647461
vt 0.39648438 0.8647461
vt 0.453125 0.92626953
vt 0.453125 0.99316406
vt 0.4572754 0.99316406
vt 0.4572754 0.92626953
vt 0.46166992 0.92626953
vt 0.46166992 0.99316406
vt 0.46557617 0.99316406
vt 0.46557617 0.92626953
vt 0.4572754 0.92626953
vt 0.4572754 0.99316406
vt 0.46166992 0.99316406
vt 0.46166992 0.92626953
vt 0.39648438 0.9511719
vt 0.3244629 0.9511719
vt 0.3244629 0.95458984
vt 0.39648438 0.95458984
vt 0.39648438 0.95458984
vt 0.3244629 0.95458984
vt 0.3244629 0.9580078
vt 0.39648438 0.9580078
vt 0.39648438 0.9423828
vt 0.3244629 0.9423828
vt 0.3244629 0.94628906
vt 0.39648438 0.94628906
vt 0.39648438 0.94628906
vt 0.3244629 0.94628906
vt 0.3244629 0.9511719
vt 0.39648438 0.9511719
vt 0.58691406 0.7910156
vt 0.6586914 0.7910156
vt 0.6586914 0.7368164
vt 0.58691406 0.7368164
vt 0.58691406 0.73291016
vt 0.6586914 0.73291016
vt 0.6586914 0.7290039
vt 0.58691406 0.7290039
vt 0.58691406 0.7368164
vt 0.6586914 0.7368164
vt 0.6586914 0.73291016
vt 0.58691406 0.73291016
vt 0.58691406 0.7290039
vt 0.6586914 0.7290039
vt 0.6586914 0.7246094
vt 0.58691406 0.7246094
vt 0.58691406 0.7949219
vt 0.6586914 0.7949219
vt 0.6586914 0.7910156
vt 0.58691406 0.7910156
vt 0.58691406 0.79833984
vt 0.6586914 0.79833984
vt 0.6586914 0.7949219
vt 0.58691406 0.7949219
vt 0.58691406 0.8022461
vt 0.6586914 0.8022461
vt 0.6586914 0.79833984
vt 0.58691406 0.79833984
vn -1.4305115E-06 -1.7881393E-07 -1
vn -1.4305115E-06 -1.7881393E-07 -1
vn -1.4305115E-06 -1.7881393E-07 -1
vn -0 1.7881393E-07 -1
vn -0 0 -1
vn -0 1.2516975E-06 -1
vn -0 0 -1
vn -0 0 -1
vn -0 0 -1
vn -0 0 -1
vn -0 0 -1
vn -0 0 -1
vn -0 1.2516975E-06 -1
vn -0 0 -1
vn -0 1.2516975E-06 -1
vn -0 0 -1
vn -0 0 -1
vn -0 0 -1
vn -0 0 -1
vn -0 0 -1
vn -0 0 -1
vn -0 0 -1
vn -0 0 -1
vn -0 0 -1
vn -0 0 -1
vn -0 0 -1
vn -0 0 -1
vn -0 0 -1
vn -0 0 -1
vn -0 0 -1
vn -0 2.3841858E-07 -1
vn -0 0 -1
vn -0 0 -1
vn -0 2.3841858E-07 -1
vn -0 1.7881393E-07 -1
vn -0 0 -1
vn -0 2.3841858E-07 -1
vn -0 0 -1
vn -0 0 -1
vn -0 0 -1
vn -0 0 -1
vn -0 0 -1
vn -0 0 -1
vn -0 0 -1
vn -0 0 -1
vn -0 0 -1
vn -0 0 -1
vn -0 0 -1
vn -0 0 -1
vn -0 0 -1
vn -0 0 -1
vn -0 0 -1
vn -0 0 -1
vn -0 0 -1
vn -0 0 -1
vn -0 0 -1
vn -0 0 -1
vn -0 0 -1
vn -0 0 -1
vn -0 0 -1
vn -0 0 -1
vn -0 0 -1
vn -0 0 -1
vn -0 0 -1
vn -0 0 -1
vn 4.7683716E-07 0 -1
vn -0 0 -1
vn -0 0 -1
vn -0 1.1324883E-06 -1
vn -0 0 -1
vn -0 0 -1
vn -0 0 -1
vn -0 0 -1
vn -0 0 -1
vn -0 0 -1
vn -0 0 -1
vn -0 0 -1
vn -0 0 -1
vn -0 0 -1
vn 1.4901161E-06 -2.3841858E-07 -1
vn 1.4901161E-06 -2.3841858E-07 -1
vn 1.4901161E-06 -2.3841858E-07 -1
vn 7.1525574E-06 8.34465E-07 1
vn 7.1525574E-06 8.34465E-07 1
vn 7.1525574E-06 8.34465E-07 1
vn -0 -7.748604E-07 1
vn -0 0 1
vn -0 -6.1392784E-06 1
vn -0 0 1
vn -0 0 1
vn -0 0 1
vn -0 0 1
vn -0 0 1
vn -0 0 1
vn -0 -6.1392784E-06 1
vn -0 -6.1392784E-06 1
vn -0 0 1
vn -0 -7.748604E-07 1
vn -0 0 1
vn -0 0 1
vn -0 -2.3841858E-07 1
vn -0 -2.3841858E-07 1
vn -0 0 1
vn -0 0 1
vn -0 2.3841858E-07 1
vn -0 -2.3841858E-07 1
vn -0 0 1
vn -0 0 1
vn -0 2.3841858E-07 1
vn -0 0 1
vn -0 0 1
vn -0 0 1
vn -0 0 1
vn -0 0 1
vn -0 0 1
vn -0 0 1
vn -0 0 1
vn -0 0 1
vn -0 0 1
vn -0 0 1
vn -0 0 1
vn -0 0 1
vn -0 0 1
vn -0 0 1
vn -0 0 1
vn -0 0 1
vn -0 0 1
vn -0 0 1
vn -0 0 1
vn -0 0 1
vn -0 0 1
vn -0 0 1
vn -4.172325E-07 0 1
vn -0 0 1
vn -0 0 1
vn -0 -1.1324883E-06 1
vn -0 0 1
vn -0 0 1
vn -0 0 1
vn -0 0 1
vn -0 0 1
vn -0 0 1
vn -0 0 1
vn -0 0 1
vn -0 0 1
vn -0 0 1
vn -7.4505806E-06 1.1920929E-06 1
vn -7.4505806E-06 1.1920929E-06 1
vn -7.4505806E-06 1.1920929E-06 1
vn -0 0 1
vn -0 0 1
vn -0 0 1
vn -0 0 1
vn -0 0 1
vn -0 0 1
vn -0 -1.1920929E-07 1
vn -0 0 1
vn -0 0 1
vn -0 -1.1920929E-07 1
vn -0 -1.1920929E-07 1
vn -0 0 1
vn -0 0 1
vn -0 0 1
vn -0 0 1
vn -0 0 1
vn -0 0 -1
vn -0 0 -1
vn -0 1.0728836E-06 -1
vn -0 0 -1
vn -0 -5.2452087E-06 1
vn -0 0 1
vn -0 0 1
vn 1 0.0010471344 -1.7881393E-07
vn 1 0.0010471344 -1.7881393E-07
vn 1 0.0010471344 -1.7881393E-07
vn 1 0.0010471344 -1.7881393E-07
vn -0 1 -1.7881393E-07
vn -0 1 -1.7881393E-07
vn -0 1 -1.7881393E-07
vn -0 1 -1.7881393E-07
vn 1 0.0073051453 0
vn 1 0.0073051453 0
vn 1 0.0073051453 0
vn 1 0.0073051453 0
vn 1 0 -1.7881393E-07
vn 1 0 -1.7881393E-07
vn 1 0 -1.7881393E-07
vn 1 0 -1.7881393E-07
vn 0.0014314651 1 -1.7881393E-07
vn 0.0014314651 1 -1.7881393E-07
vn 0.0014314651 1 -1.7881393E-07
vn 0.0014314651 1 -1.7881393E-07
vn -1 0.0073280334 1.1920929E-07
vn -1 0.0073280334 1.1920929E-07
vn -1 0.0073280334 1.1920929E-07
vn -1 0.0073280334 1.1920929E-07
vn -0 1 -1.7881393E-07
vn -0 1 -1.7881393E-07
vn -0 1 -1.7881393E-07
vn -0 1 -1.7881393E-07
vn -1 0 0
vn -1 0 0
vn -1 0 0
vn -1 0 0
vn -0 1 0
vn -0 1 0
vn -0 1 0
vn -0 1 0
vn -1 0.0025196075 0
vn -1 0.0025196075 0
vn -1 0.0025196075 0
vn -1 0.0025196075 0
vn 0.0039596558 1 0
vn 0.0039596558 1 0
vn 0.0039596558 1 0
vn 0.0039596558 1 0
vn -1 1.8119812E-05 0
vn -1 1.8119812E-05 0
vn -1 1.8119812E-05 0
vn -1 1.8119812E-05 0
vn -0.001543045 1 1.7881393E-07
vn -0.001543045 1 1.7881393E-07
vn -0.001543045 1 1.7881393E-07
vn -0.001543045 1 1.7881393E-07
vn -0.00466156 1 0
vn -0.00466156 1 0
vn -0.00466156 1 0
vn -0.00466156 1 0
vn -1 0.011512756 0
vn -1 0.011512756 0
vn -1 0.011512756 0
vn -1 0.011512756 0
vn -0.0045776367 -1 -1.1920929E-07
vn -0.0045776367 -1 -1.1920929E-07
vn -0.0045776367 -1 -1.1920929E-07
vn -0.0045776367 -1 -1.1920929E-07
vn -1 0.001036644 0
vn -1 0.001036644 0
vn -1 0.001036644 0
vn -1 0.001036644 0
vn 0.0010795593 -1 0
vn 0.0010795593 -1 0
vn 0.0010795593 -1 0
vn 0.0010795593 -1 0
vn -1 0.0012969971 0
vn -1 0.0012969971 0
vn -1 0.0012969971 0
vn -1 0.0012969971 0
vn -0.011650085 -1 0
vn -0.011650085 -1 0
vn -0.011650085 -1 0
vn -0.011650085 -1 0
vn -1 0.002029419 0
vn -1 0.002029419 0
vn -1 0.002029419 0
vn -1 0.002029419 0
vn -1 -0.0017375946 0
vn -1 -0.0017375946 0
vn -1 -0.0017375946 0
vn -1 -0.0017375946 0
vn -0.0005364418 -1 0
vn -0.0005364418 -1 0
vn -0.0005364418 -1 0
vn -0.0005364418 -1 0
vn -1 0.0009236336 1.1920929E-07
vn -1 0.0009236336 1.1920929E-07
vn -1 0.0009236336 1.1920929E-07
vn -1 0.0009236336 1.1920929E-07
vn -0 -1 0
vn -0 -1 0
vn -0 -1 0
vn -0 -1 0
vn 1 -0.017715454 0
vn 1 -0.017715454 0
vn 1 -0.017715454 0
vn 1 -0.017715454 0
vn -0.006340027 -1 0
vn -0.006340027 -1 0
vn -0.006340027 -1 0
vn -0.006340027 -1 0
vn 1 -0.01134491 -1.1920929E-07
vn 1 -0.01134491 -1.1920929E-07
vn 1 -0.01134491 -1.1920929E-07
vn 1 -0.01134491 -1.1920929E-07
vn -0.0020122528 -1 0
vn -0.0020122528 -1 0
vn -0.0020122528 -1 0
vn -0.0020122528 -1 0
vn 0.00090026855 -1 0
vn 0.00090026855 -1 0
vn 0.00090026855 -1 0
vn 0.00090026855 -1 0
vn 1 0 0
vn 1 0 0
vn 1 0 0
vn 1 0 0
vn -0 -1 0
vn -0 -1 0
vn -0 -1 0
vn -0 -1 0
vn 1 0 0
vn 1 0 0
vn 1 0 0
vn 1 0 0
vn -0.0010652542 -1 0
vn -0.0010652542 -1 0
vn -0.0010652542 -1 0
vn -0.0010652542 -1 0
vn 1 -0.007827759 0
vn 1 -0.007827759 0
vn 1 -0.007827759 0
vn 1 -0.007827759 0
vn 0.0002272129 -1 -1.7881393E-07
vn 0.0002272129 -1 -1.7881393E-07
vn 0.0002272129 -1 -1.7881393E-07
vn 0.0002272129 -1 -1.7881393E-07
vn 1 0.010231018 0
vn 1 0.010231018 0
vn 1 0.010231018 0
vn 1 0.010231018 0
vn -0.0012569427 1 0
vn -0.0012569427 1 0
vn -0.0012569427 1 0
vn -0.0012569427 1 0
vn 1 0.0074043274 0
vn 1 0.0074043274 0
vn 1 0.0074043274 0
vn 1 0.0074043274 0
vn -0.004928589 1 0
vn -0.004928589 1 0
vn -0.004928589 1 0
vn -0.004928589 1 0
vn 1 0.00015485287 0
vn 1 0.00015485287 0
vn 1 0.00015485287 0
vn 1 0.00015485287 0
vn 0.009605408 1 0
vn 0.009605408 1 0
vn 0.009605408 1 0
vn 0.009605408 1 0
vn 1 0.0027923584 0
vn 1 0.0027923584 0
vn 1 0.0027923584 0
vn 1 0.0027923584 0
vn 0.018127441 1 0
vn 0.018127441 1 0
vn 0.018127441 1 0
vn 0.018127441 1 0
vn 1 -0.0021076202 -1.1920929E-07
vn 1 -0.0021076202 -1.1920929E-07
vn 1 -0.0021076202 -1.1920929E-07
vn 1 -0.0021076202 -1.1920929E-07
vn 0.0030078888 1 0
vn 0.0030078888 1 0
vn 0.0030078888 1 0
vn 0.0030078888 1 0
vn -0.99658203 0.08135986 1.1920929E-07
vn -0.99658203 0.08135986 1.1920929E-07
vn -0.99658203 0.08135986 1.1920929E-07
vn -0.99658203 0.08135986 1.1920929E-07
vn -1 0.0038394928 0
vn -1 0.0038394928 0
vn -1 0.0038394928 0
vn -1 0.0038394928 0
vn -0 1 0
vn -0 1 0
vn -0 1 0
vn -0 1 0
vn -1 -0.0046539307 0
vn -1 -0.0046539307 0
vn -1 -0.0046539307 0
vn -1 -0.0046539307 0
vn -0 1 1.7881393E-07
vn -0 1 1.7881393E-07
vn -0 1 1.7881393E-07
vn -0 1 1.7881393E-07
vn -1 0.0063552856 0
vn -1 0.0063552856 0
vn -1 0.0063552856 0
vn -1 0.0063552856 0
vn -0.00026631355 -1 0
vn -0.00026631355 -1 0
vn -0.00026631355 -1 0
vn -0.00026631355 -1 0
vn 0.0013570786 -1 0
vn 0.0013570786 -1 0
vn 0.0013570786 -1 0
vn 0.0013570786 -1 0
vn -1 0.0012998581 0
vn -1 0.0012998581 0
vn -1 0.0012998581 0
vn -1 0.0012998581 0
vn 1 0 0
vn 1 0 0
vn 1 0 0
vn 1 0 0
vn 0.009307861 -1 0
vn 0.009307861 -1 0
vn 0.009307861 -1 0
vn 0.009307861 -1 0
vn 1 0 0
vn 1 0 0
vn 1 0 0
vn 1 0 0
vn 1 0.0035438538 -1.7881393E-07
vn 1 0.0035438538 -1.7881393E-07
vn 1 0.0035438538 -1.7881393E-07
vn 1 0.0035438538 -1.7881393E-07
vn 0.018188477 1 0
vn 0.018188477 1 0
vn 0.018188477 1 0
vn 0.018188477 1 0
vn 1 -0.006843567 0
vn 1 -0.006843567 0
vn 1 -0.006843567 0
vn 1 -0.006843567 0
vn -0.011558533 1 0
vn -0.011558533 1 0
vn -0.011558533 1 0
vn -0.011558533 1 0
vn 1 -0.0074005127 0
vn 1 -0.0074005127 0
vn 1 -0.0074005127 0
vn 1 -0.0074005127 0
vn 0.003047943 1 0
vn 0.003047943 1 0
vn 0.003047943 1 0
vn 0.003047943 1 0
vn 0.0010318756 1 0
vn 0.0010318756 1 0
vn 0.0010318756 1 0
vn 0.0010318756 1 0
vn -0.0020446777 1 -1.7881393E-07
vn -0.0020446777 1 -1.7881393E-07
vn -0.0020446777 1 -1.7881393E-07
vn -0.0020446777 1 -1.7881393E-07
vn 1 0.0076179504 -1.1920929E-07
vn 1 0.0076179504 -1.1920929E-07
vn 1 0.0076179504 -1.1920929E-07
vn 1 0.0076179504 -1.1920929E-07
vn 1 0.0052261353 0
vn 1 0.0052261353 0
vn 1 0.0052261353 0
vn 1 0.0052261353 0
vn -0.00374794 1 0
vn -0.00374794 1 0
vn -0.00374794 1 0
vn -0.00374794 1 0
vn 1 -0.011398315 0
vn 1 -0.011398315 0
vn 1 -0.011398315 0
vn 1 -0.011398315 0
vn 0.0047569275 1 0
vn 0.0047569275 1 0
vn 0.0047569275 1 0
vn 0.0047569275 1 0
vn -1 0.00086688995 1.1920929E-07
vn -1 0.00086688995 1.1920929E-07
vn -1 0.00086688995 1.1920929E-07
vn -1 0.00086688995 1.1920929E-07
vn -1 0.00091409683 0
vn -1 0.00091409683 0
vn -1 0.00091409683 0
vn -1 0.00091409683 0
vn -0.0024528503 -1 0
vn -0.0024528503 -1 0
vn -0.0024528503 -1 0
vn -0.0024528503 -1 0
vn 0.005306244 -1 -1.7881393E-07
vn 0.005306244 -1 -1.7881393E-07
vn 0.005306244 -1 -1.7881393E-07
vn 0.005306244 -1 -1.7881393E-07
vn 0.00137043 1 0
vn 0.00137043 1 0
vn 0.00137043 1 0
vn 0.00137043 1 0
vn -1 -0.009399414 0
vn -1 -0.009399414 0
vn -1 -0.009399414 0
vn -1 -0.009399414 0
vn -0.011482239 1 0
vn -0.011482239 1 0
vn -0.011482239 1 0
vn -0.011482239 1 0
g Rocks_Small_015_0
f 3/3/3 2/2/2 1/1/1
f 5/5/5 1/1/1 4/4/4
f 6/6/6 5/5/5 4/4/4
f 7/7/7 5/5/5 6/6/6
f 8/8/8 7/7/7 6/6/6
f 9/9/9 5/5/5 7/7/7
f 10/10/10 9/9/9 7/7/7
f 11/11/11 9/9/9 10/10/10
f 12/12/12 5/5/5 9/9/9
f 14/14/14 13/13/13 4/4/4
f 15/15/15 6/6/6 13/13/13
f 17/17/17 4/4/4 16/16/16
f 16/16/16 4/4/4 18/18/18
f 19/19/19 16/16/16 18/18/18
f 18/18/18 4/4/4 20/20/20
f 21/21/21 18/18/18 20/20/20
f 22/22/22 18/18/18 21/21/21
f 23/23/23 21/21/21 20/20/20
f 24/24/24 21/21/21 23/23/23
f 23/23/23 25/25/25 24/24/24
f 20/20/20 26/26/26 23/23/23
f 20/20/20 4/4/4 27/27/27
f 27/27/27 28/28/28 20/20/20
f 27/27/27 4/4/4 29/29/29
f 30/30/30 27/27/27 29/29/29
f 29/29/29 4/4/4 31/31/31
f 32/32/32 29/29/29 31/31/31
f 4/4/4 33/33/33 31/31/31
f 33/33/33 34/34/34 31/31/31
f 35/35/35 33/33/33 4/4/4
f 31/31/31 34/34/34 36/36/36
f 37/37/37 31/31/31 36/36/36
f 36/36/36 34/34/34 38/38/38
f 39/39/39 36/36/36 38/38/38
f 40/40/40 36/36/36 39/39/39
f 41/41/41 39/39/39 38/38/38
f 42/42/42 39/39/39 41/41/41
f 43/43/43 41/41/41 38/38/38
f 43/43/43 44/44/44 41/41/41
f 45/45/45 43/43/43 38/38/38
f 45/45/45 46/46/46 43/43/43
f 33/33/33 47/47/47 34/34/34
f 48/48/48 47/47/47 33/33/33
f 45/45/45 38/38/38 49/49/49
f 50/50/50 49/49/49 38/38/38
f 51/51/51 45/45/45 49/49/49
f 52/52/52 45/45/45 51/51/51
f 53/53/53 51/51/51 49/49/49
f 54/54/54 53/53/53 49/49/49
f 55/55/55 51/51/51 53/53/53
f 56/56/56 51/51/51 55/55/55
f 57/57/57 55/55/55 53/53/53
f 58/58/58 57/57/57 53/53/53
f 59/59/59 58/58/58 53/53/53
f 57/57/57 61/61/61 60/60/60
f 38/38/38 63/63/63 62/62/62
f 34/34/34 63/63/63 38/38/38
f 34/34/34 64/64/64 63/63/63
f 64/64/64 65/65/65 63/63/63
f 34/34/34 66/66/66 64/64/64
f 66/66/66 67/67/67 64/64/64
f 34/34/34 47/47/47 66/66/66
f 66/66/66 47/47/47 68/68/68
f 69/69/69 66/66/66 68/68/68
f 47/47/47 70/70/70 68/68/68
f 68/68/68 70/70/70 71/71/71
f 72/72/72 70/70/70 47/47/47
f 73/73/73 72/72/72 47/47/47
f 74/74/74 70/70/70 72/72/72
f 75/75/75 70/70/70 74/74/74
f 76/76/76 74/74/74 72/72/72
f 76/76/76 72/72/72 77/77/77
f 74/74/74 76/76/76 78/78/78
f 78/78/78 76/76/76 79/79/79
f 82/82/82 81/81/81 80/80/80
f 85/85/85 84/84/84 83/83/83
f 83/83/83 87/87/87 86/86/86
f 87/87/87 88/88/88 86/86/86
f 87/87/87 89/89/89 88/88/88
f 89/89/89 90/90/90 88/88/88
f 87/87/87 91/91/91 89/89/89
f 91/91/91 92/92/92 89/89/89
f 91/91/91 93/93/93 92/92/92
f 87/87/87 94/94/94 91/91/91
f 88/88/88 96/96/96 95/95/95
f 95/95/95 97/97/97 86/86/86
f 99/99/99 87/87/87 98/98/98
f 100/100/100 98/98/98 86/86/86
f 86/86/86 101/101/101 100/100/100
f 101/101/101 102/102/102 100/100/100
f 103/103/103 100/100/100 102/102/102
f 103/103/103 104/104/104 100/100/100
f 102/102/102 101/101/101 105/105/105
f 101/101/101 106/106/106 105/105/105
f 102/102/102 105/105/105 107/107/107
f 105/105/105 108/108/108 107/107/107
f 105/105/105 109/109/109 108/108/108
f 108/108/108 110/110/110 107/107/107
f 108/108/108 111/111/111 110/110/110
f 110/110/110 112/112/112 107/107/107
f 113/113/113 112/112/112 110/110/110
f 112/112/112 114/114/114 107/107/107
f 115/115/115 114/114/114 112/112/112
f 116/116/116 107/107/107 114/114/114
f 116/116/116 117/117/117 107/107/107
f 118/118/118 116/116/116 114/114/114
f 114/114/114 119/119/119 118/118/118
f 118/118/118 120/120/120 116/116/116
f 120/120/120 121/121/121 116/116/116
f 118/118/118 122/122/122 120/120/120
f 122/122/122 123/123/123 120/120/120
f 123/123/123 124/124/124 120/120/120
f 124/124/124 125/125/125 120/120/120
f 118/118/118 127/127/127 126/126/126
f 128/128/128 123/123/123 126/126/126
f 130/130/130 107/107/107 129/129/129
f 130/130/130 102/102/102 107/107/107
f 131/131/131 102/102/102 130/130/130
f 132/132/132 131/131/131 130/130/130
f 133/133/133 102/102/102 131/131/131
f 134/134/134 133/133/133 131/131/131
f 103/103/103 102/102/102 133/133/133
f 103/103/103 133/133/133 135/135/135
f 133/133/133 136/136/136 135/135/135
f 137/137/137 103/103/103 135/135/135
f 137/137/137 135/135/135 138/138/138
f 137/137/137 139/139/139 103/103/103
f 139/139/139 140/140/140 103/103/103
f 137/137/137 141/141/141 139/139/139
f 137/137/137 142/142/142 141/141/141
f 141/141/141 143/143/143 139/139/139
f 139/139/139 143/143/143 144/144/144
f 143/143/143 141/141/141 145/145/145
f 143/143/143 145/145/145 146/146/146
f 149/149/149 148/148/148 147/147/147
f 148/148/148 150/150/150 101/101/101
f 150/150/150 151/151/151 101/101/101
f 148/148/148 152/152/152 150/150/150
f 152/152/152 153/153/153 150/150/150
f 148/148/148 154/154/154 152/152/152
f 155/155/155 152/152/152 154/154/154
f 157/157/157 154/154/154 156/156/156
f 158/158/158 156/156/156 154/154/154
f 158/158/158 159/159/159 156/156/156
f 160/160/160 156/156/156 159/159/159
f 161/161/161 158/158/158 154/154/154
f 161/161/161 162/162/162 158/158/158
f 86/86/86 161/161/161 154/154/154
f 86/86/86 163/163/163 161/161/161
f 163/163/163 164/164/164 161/161/161
f 86/86/86 165/165/165 163/163/163
f 5/5/5 166/166/166 35/35/35
f 168/168/168 167/167/167 35/35/35
f 169/169/169 33/33/33 167/167/167
f 171/171/171 170/170/170 98/98/98
f 100/100/100 172/172/172 171/171/171
f 175/175/175 174/174/174 173/173/173
f 176/176/176 175/175/175 173/173/173
f 179/179/179 178/178/178 177/177/177
f 180/180/180 179/179/179 177/177/177
f 183/183/183 182/182/182 181/181/181
f 184/184/184 183/183/183 181/181/181
f 187/187/187 186/186/186 185/185/185
f 188/188/188 187/187/187 185/185/185
f 191/191/191 190/190/190 189/189/189
f 192/192/192 191/191/191 189/189/189
f 195/195/195 194/194/194 193/193/193
f 196/196/196 195/195/195 193/193/193
f 199/199/199 198/198/198 197/197/197
f 200/200/200 199/199/199 197/197/197
f 203/203/203 202/202/202 201/201/201
f 204/204/204 203/203/203 201/201/201
f 207/207/207 206/206/206 205/205/205
f 208/208/208 207/207/207 205/205/205
f 211/211/211 210/210/210 209/209/209
f 212/212/212 211/211/211 209/209/209
f 215/215/215 214/214/214 213/213/213
f 216/216/216 215/215/215 213/213/213
f 219/219/219 218/218/218 217/217/217
f 220/220/220 219/219/219 217/217/217
f 223/223/223 222/222/222 221/221/221
f 224/224/224 223/223/223 221/221/221
f 227/227/227 226/226/226 225/225/225
f 228/228/228 227/227/227 225/225/225
f 231/231/231 230/230/230 229/229/229
f 232/232/232 231/231/231 229/229/229
f 235/235/235 234/234/234 233/233/233
f 236/236/236 235/235/235 233/233/233
f 239/239/239 238/238/238 237/237/237
f 240/240/240 239/239/239 237/237/237
f 243/243/243 242/242/242 241/241/241
f 244/244/244 243/243/243 241/241/241
f 247/247/247 246/246/246 245/245/245
f 248/248/248 247/247/247 245/245/245
f 251/251/251 250/250/250 249/249/249
f 252/252/252 251/251/251 249/249/249
f 255/255/255 254/254/254 253/253/253
f 256/256/256 255/255/255 253/253/253
f 259/259/259 258/258/258 257/257/257
f 260/260/260 259/259/259 257/257/257
f 263/263/263 262/262/262 261/261/261
f 264/264/264 263/263/263 261/261/261
f 267/267/267 266/266/266 265/265/265
f 268/268/268 267/267/267 265/265/265
f 271/271/271 270/270/270 269/269/269
f 272/272/272 271/271/271 269/269/269
f 275/275/275 274/274/274 273/273/273
f 276/276/276 275/275/275 273/273/273
f 279/279/279 278/278/278 277/277/277
f 280/280/280 279/279/279 277/277/277
f 283/283/283 282/282/282 281/281/281
f 284/284/284 283/283/283 281/281/281
f 287/287/287 286/286/286 285/285/285
f 288/288/288 287/287/287 285/285/285
f 291/291/291 290/290/290 289/289/289
f 292/292/292 291/291/291 289/289/289
f 295/295/295 294/294/294 293/293/293
f 296/296/296 295/295/295 293/293/293
f 299/299/299 298/298/298 297/297/297
f 300/300/300 299/299/299 297/297/297
f 303/303/303 302/302/302 301/301/301
f 304/304/304 303/303/303 301/301/301
f 307/307/307 306/306/306 305/305/305
f 308/308/308 307/307/307 305/305/305
f 311/311/311 310/310/310 309/309/309
f 312/312/312 311/311/311 309/309/309
f 315/315/315 314/314/314 313/313/313
f 316/316/316 315/315/315 313/313/313
f 319/319/319 318/318/318 317/317/317
f 320/320/320 319/319/319 317/317/317
f 323/323/323 322/322/322 321/321/321
f 324/324/324 323/323/323 321/321/321
f 327/327/327 326/326/326 325/325/325
f 328/328/328 327/327/327 325/325/325
f 331/331/331 330/330/330 329/329/329
f 332/332/332 331/331/331 329/329/329
f 335/335/335 334/334/334 333/333/333
f 336/336/336 335/335/335 333/333/333
f 339/339/339 338/338/338 337/337/337
f 340/340/340 339/339/339 337/337/337
f 343/343/343 342/342/342 341/341/341
f 344/344/344 343/343/343 341/341/341
f 347/347/347 346/346/346 345/345/345
f 348/348/348 347/347/347 345/345/345
f 351/351/351 350/350/350 349/349/349
f 352/352/352 351/351/351 349/349/349
f 355/355/355 354/354/354 353/353/353
f 356/356/356 355/355/355 353/353/353
f 359/359/359 358/358/358 357/357/357
f 360/360/360 359/359/359 357/357/357
f 363/363/363 362/362/362 361/361/361
f 364/364/364 363/363/363 361/361/361
f 367/367/367 366/366/366 365/365/365
f 368/368/368 367/367/367 365/365/365
f 371/371/371 370/370/370 369/369/369
f 372/372/372 371/371/371 369/369/369
f 375/375/375 374/374/374 373/373/373
f 376/376/376 375/375/375 373/373/373
f 379/379/379 378/378/378 377/377/377
f 380/380/380 379/379/379 377/377/377
f 383/383/383 382/382/382 381/381/381
f 384/384/384 383/383/383 381/381/381
f 387/387/387 386/386/386 385/385/385
f 388/388/388 387/387/387 385/385/385
f 391/391/391 390/390/390 389/389/389
f 392/392/392 391/391/391 389/389/389
f 395/395/395 394/394/394 393/393/393
f 396/396/396 395/395/395 393/393/393
f 399/399/399 398/398/398 397/397/397
f 400/400/400 399/399/399 397/397/397
f 403/403/403 402/402/402 401/401/401
f 404/404/404 403/403/403 401/401/401
f 407/407/407 406/406/406 405/405/405
f 408/408/408 407/407/407 405/405/405
f 411/411/411 410/410/410 409/409/409
f 412/412/412 411/411/411 409/409/409
f 415/415/415 414/414/414 413/413/413
f 416/416/416 415/415/415 413/413/413
f 419/419/419 418/418/418 417/417/417
f 420/420/420 419/419/419 417/417/417
f 423/423/423 422/422/422 421/421/421
f 424/424/424 423/423/423 421/421/421
f 427/427/427 426/426/426 425/425/425
f 428/428/428 427/427/427 425/425/425
f 431/431/431 430/430/430 429/429/429
f 432/432/432 431/431/431 429/429/429
f 435/435/435 434/434/434 433/433/433
f 436/436/436 435/435/435 433/433/433
f 439/439/439 438/438/438 437/437/437
f 440/440/440 439/439/439 437/437/437
f 443/443/443 442/442/442 441/441/441
f 444/444/444 443/443/443 441/441/441
f 447/447/447 446/446/446 445/445/445
f 448/448/448 447/447/447 445/445/445
f 451/451/451 450/450/450 449/449/449
f 452/452/452 451/451/451 449/449/449
f 455/455/455 454/454/454 453/453/453
f 456/456/456 455/455/455 453/453/453
f 459/459/459 458/458/458 457/457/457
f 460/460/460 459/459/459 457/457/457
f 463/463/463 462/462/462 461/461/461
f 464/464/464 463/463/463 461/461/461
f 467/467/467 466/466/466 465/465/465
f 468/468/468 467/467/467 465/465/465
f 471/471/471 470/470/470 469/469/469
f 472/472/472 471/471/471 469/469/469
f 475/475/475 474/474/474 473/473/473
f 476/476/476 475/475/475 473/473/473
f 479/479/479 478/478/478 477/477/477
f 480/480/480 479/479/479 477/477/477
f 483/483/483 482/482/482 481/481/481
f 484/484/484 483/483/483 481/481/481
