g Rocks_Small_004
v 0.2717107 -1.0945659 0.92891383
v 0.21896416 -1.0945659 0.92891383
v 0.27115065 -1.0350968 0.92891383
v -0.43064535 -1.0969303 0.92891383
v 0.21825363 -1.1771868 0.928914
v -0.43046537 -1.179551 0.92891383
v -0.48229498 -1.0333899 0.92891383
v -0.48267353 -1.0969303 0.92891383
v -0.53628343 -0.8151442 0.92891383
v -0.537281 -1.0329957 0.92891383
v -0.5474062 -0.053563513 0.928914
v 0.43524525 0.42972597 0.9289143
v -0.596396 -0.7593171 0.928914
v -0.59654105 -0.81631964 0.928914
v 0.3301175 -0.9792843 0.92891383
v 0.33027652 -1.035397 0.92891383
v -0.64372426 -0.70819426 0.928914
v -0.6438771 -0.7583107 0.928914
v -0.6442153 -0.112036236 0.9289142
v -0.6743589 -0.70783406 0.928914
v -0.6838045 -0.113120645 0.9289142
v -0.6438934 -0.053563513 0.9289142
v -0.4308633 1.1462651 0.92891437
v -0.48947096 1.0881366 0.9289143
v -0.5441296 1.0862128 0.9289143
v -0.488143 1.1452817 0.92891437
v 0.32530737 1.1398104 0.9289145
v -0.43017295 1.1795506 0.9289143
v 0.3239794 1.1795506 0.92891437
v 0.37736282 1.0852345 0.9289145
v 0.3765871 1.1411321 0.9289145
v 0.43791366 1.0870669 0.9289145
v 0.5455973 0.38022417 0.9289143
v 0.54501706 0.43039 0.9289143
v 0.60195935 -0.9263004 0.92891383
v 0.60152185 -0.98005545 0.9289137
v 0.59826624 0.32337496 0.9289142
v 0.5987115 0.3802243 0.9289142
v 0.6838045 -0.92560834 0.92891383
v 0.6828085 0.32337496 0.9289142
v 0.2717107 -1.0945655 -0.9289143
v 0.27115065 -1.0350964 -0.9289143
v 0.21896416 -1.0945655 -0.9289143
v -0.4306454 -1.0969298 -0.9289143
v 0.21825363 -1.1771865 -0.9289142
v -0.43046546 -1.1795509 -0.9289143
v -0.48229507 -1.0333896 -0.9289143
v -0.4826736 -1.0969298 -0.9289143
v -0.5362835 -0.8151439 -0.9289143
v -0.53728104 -1.0329955 -0.9289143
v -0.5474062 -0.053563308 -0.9289142
v 0.4352452 0.42972618 -0.9289142
v -0.596396 -0.7593169 -0.9289143
v -0.5965411 -0.8163194 -0.9289143
v 0.3301175 -0.97928387 -0.9289143
v 0.33027652 -1.0353966 -0.9289143
v -0.6437243 -0.7081941 -0.9289143
v -0.64387715 -0.75831044 -0.9289143
v -0.6442154 -0.112036034 -0.928914
v -0.6743589 -0.707834 -0.9289143
v -0.68380463 -0.11312046 -0.928914
v -0.6438934 -0.053563308 -0.928914
v -0.43086332 1.1462653 -0.92891407
v -0.48947102 1.088137 -0.9289142
v -0.54412967 1.0862134 -0.9289142
v -0.48814303 1.145282 -0.92891407
v 0.32530737 1.1398107 -0.928914
v -0.43017298 1.1795511 -0.9289142
v 0.3239794 1.1795511 -0.92891407
v 0.37736282 1.0852352 -0.928914
v 0.3765871 1.1411326 -0.928914
v 0.43791357 1.0870674 -0.928914
v 0.54559726 0.38022438 -0.9289142
v 0.54501706 0.43039012 -0.9289142
v 0.60195935 -0.92630005 -0.9289145
v 0.6015218 -0.980055 -0.9289145
v 0.59826624 0.32337517 -0.9289143
v 0.5987115 0.38022444 -0.9289143
v 0.68380445 -0.92560804 -0.9289145
v 0.68280846 0.32337517 -0.9289143
v -0.48947102 1.088137 -0.9289142
v -0.48814303 1.145282 -0.92891407
v -0.488143 1.1452817 0.92891437
v -0.48947096 1.0881366 0.9289143
v -0.48814303 1.145282 -0.92891407
v -0.43086332 1.1462653 -0.92891407
v -0.4308633 1.1462651 0.92891437
v -0.488143 1.1452817 0.92891437
v -0.43086332 1.1462653 -0.92891407
v -0.43017298 1.1795511 -0.9289142
v -0.43017295 1.1795506 0.9289143
v -0.4308633 1.1462651 0.92891437
v -0.43017298 1.1795511 -0.9289142
v 0.3239794 1.1795511 -0.92891407
v 0.3239794 1.1795506 0.92891437
v -0.43017295 1.1795506 0.9289143
v 0.3239794 1.1795511 -0.92891407
v 0.32530737 1.1398107 -0.928914
v 0.32530737 1.1398104 0.9289145
v 0.3239794 1.1795506 0.92891437
v 0.32530737 1.1398107 -0.928914
v 0.3765871 1.1411326 -0.928914
v 0.3765871 1.1411321 0.9289145
v 0.32530737 1.1398104 0.9289145
v 0.3765871 1.1411326 -0.928914
v 0.37736282 1.0852352 -0.928914
v 0.37736282 1.0852345 0.9289145
v 0.3765871 1.1411321 0.9289145
v 0.37736282 1.0852352 -0.928914
v 0.43791357 1.0870674 -0.928914
v 0.43791366 1.0870669 0.9289145
v 0.37736282 1.0852345 0.9289145
v 0.43791357 1.0870674 -0.928914
v 0.4352452 0.42972618 -0.9289142
v 0.43524525 0.42972597 0.9289143
v 0.43791366 1.0870669 0.9289145
v -0.54412967 1.0862134 -0.9289142
v -0.48947102 1.088137 -0.9289142
v -0.48947096 1.0881366 0.9289143
v -0.5441296 1.0862128 0.9289143
v -0.5474062 -0.053563308 -0.9289142
v -0.54412967 1.0862134 -0.9289142
v -0.5441296 1.0862128 0.9289143
v -0.5474062 -0.053563513 0.928914
v -0.6438934 -0.053563308 -0.928914
v -0.5474062 -0.053563308 -0.9289142
v -0.5474062 -0.053563513 0.928914
v -0.6438934 -0.053563513 0.9289142
v -0.6442154 -0.112036034 -0.928914
v -0.6438934 -0.053563308 -0.928914
v -0.6438934 -0.053563513 0.9289142
v -0.6442153 -0.112036236 0.9289142
v -0.68380463 -0.11312046 -0.928914
v -0.6442154 -0.112036034 -0.928914
v -0.6442153 -0.112036236 0.9289142
v -0.6838045 -0.113120645 0.9289142
v -0.6743589 -0.707834 -0.9289143
v -0.68380463 -0.11312046 -0.928914
v -0.6838045 -0.113120645 0.9289142
v -0.6743589 -0.70783406 0.928914
v -0.6437243 -0.7081941 -0.9289143
v -0.6743589 -0.707834 -0.9289143
v -0.6743589 -0.70783406 0.928914
v -0.64372426 -0.70819426 0.928914
v -0.64387715 -0.75831044 -0.9289143
v -0.6437243 -0.7081941 -0.9289143
v -0.64372426 -0.70819426 0.928914
v -0.6438771 -0.7583107 0.928914
v -0.596396 -0.7593169 -0.9289143
v -0.64387715 -0.75831044 -0.9289143
v -0.6438771 -0.7583107 0.928914
v -0.596396 -0.7593171 0.928914
v -0.5965411 -0.8163194 -0.9289143
v -0.596396 -0.7593169 -0.9289143
v -0.596396 -0.7593171 0.928914
v -0.59654105 -0.81631964 0.928914
v -0.5362835 -0.8151439 -0.9289143
v -0.5965411 -0.8163194 -0.9289143
v -0.59654105 -0.81631964 0.928914
v -0.53628343 -0.8151442 0.92891383
v -0.53728104 -1.0329955 -0.9289143
v -0.5362835 -0.8151439 -0.9289143
v -0.53628343 -0.8151442 0.92891383
v -0.537281 -1.0329957 0.92891383
v -0.48229507 -1.0333896 -0.9289143
v -0.53728104 -1.0329955 -0.9289143
v -0.537281 -1.0329957 0.92891383
v -0.48229498 -1.0333899 0.92891383
v -0.4826736 -1.0969298 -0.9289143
v -0.48229507 -1.0333896 -0.9289143
v -0.48229498 -1.0333899 0.92891383
v -0.48267353 -1.0969303 0.92891383
v -0.4306454 -1.0969298 -0.9289143
v -0.4826736 -1.0969298 -0.9289143
v -0.48267353 -1.0969303 0.92891383
v -0.43064535 -1.0969303 0.92891383
v -0.43046546 -1.1795509 -0.9289143
v -0.4306454 -1.0969298 -0.9289143
v -0.43064535 -1.0969303 0.92891383
v -0.43046537 -1.179551 0.92891383
v 0.21825363 -1.1771865 -0.9289142
v -0.43046546 -1.1795509 -0.9289143
v -0.43046537 -1.179551 0.92891383
v 0.21825363 -1.1771868 0.928914
v 0.21896416 -1.0945655 -0.9289143
v 0.21825363 -1.1771865 -0.9289142
v 0.21825363 -1.1771868 0.928914
v 0.21896416 -1.0945659 0.92891383
v 0.2717107 -1.0945655 -0.9289143
v 0.21896416 -1.0945655 -0.9289143
v 0.21896416 -1.0945659 0.92891383
v 0.2717107 -1.0945659 0.92891383
v 0.27115065 -1.0350964 -0.9289143
v 0.2717107 -1.0945655 -0.9289143
v 0.2717107 -1.0945659 0.92891383
v 0.27115065 -1.0350968 0.92891383
v 0.4352452 0.42972618 -0.9289142
v 0.54501706 0.43039012 -0.9289142
v 0.54501706 0.43039 0.9289143
v 0.43524525 0.42972597 0.9289143
v 0.54501706 0.43039012 -0.9289142
v 0.54559726 0.38022438 -0.9289142
v 0.5455973 0.38022417 0.9289143
v 0.54501706 0.43039 0.9289143
v 0.54559726 0.38022438 -0.9289142
v 0.5987115 0.38022444 -0.9289143
v 0.5987115 0.3802243 0.9289142
v 0.5455973 0.38022417 0.9289143
v 0.5987115 0.38022444 -0.9289143
v 0.59826624 0.32337517 -0.9289143
v 0.59826624 0.32337496 0.9289142
v 0.5987115 0.3802243 0.9289142
v 0.59826624 0.32337517 -0.9289143
v 0.68280846 0.32337517 -0.9289143
v 0.6828085 0.32337496 0.9289142
v 0.59826624 0.32337496 0.9289142
v 0.68280846 0.32337517 -0.9289143
v 0.68380445 -0.92560804 -0.9289145
v 0.6838045 -0.92560834 0.92891383
v 0.6828085 0.32337496 0.9289142
v 0.68380445 -0.92560804 -0.9289145
v 0.60195935 -0.92630005 -0.9289145
v 0.60195935 -0.9263004 0.92891383
v 0.6838045 -0.92560834 0.92891383
v 0.60195935 -0.92630005 -0.9289145
v 0.6015218 -0.980055 -0.9289145
v 0.60152185 -0.98005545 0.9289137
v 0.60195935 -0.9263004 0.92891383
v 0.6015218 -0.980055 -0.9289145
v 0.3301175 -0.97928387 -0.9289143
v 0.3301175 -0.9792843 0.92891383
v 0.60152185 -0.98005545 0.9289137
v 0.3301175 -0.97928387 -0.9289143
v 0.33027652 -1.0353966 -0.9289143
v 0.33027652 -1.035397 0.92891383
v 0.3301175 -0.9792843 0.92891383
v 0.33027652 -1.0353966 -0.9289143
v 0.27115065 -1.0350964 -0.9289143
v 0.27115065 -1.0350968 0.92891383
v 0.33027652 -1.035397 0.92891383
vt 0.57666016 0.18688965
vt 0.5620117 0.18688965
vt 0.57666016 0.20397949
vt 0.3762207 0.1862793
vt 0.56152344 0.16333008
vt 0.3762207 0.16271973
vt 0.36132812 0.20446777
vt 0.36132812 0.1862793
vt 0.34594727 0.2668457
vt 0.34570312 0.20458984
vt 0.34277344 0.484375
vt 0.62353516 0.6225586
vt 0.32885742 0.28271484
vt 0.32885742 0.26635742
vt 0.59375 0.21984863
vt 0.59375 0.20385742
vt 0.31518555 0.29736328
vt 0.31518555 0.28295898
vt 0.31518555 0.46777344
vt 0.30664062 0.29736328
vt 0.30371094 0.4675293
vt 0.31518555 0.484375
vt 0.3762207 0.82714844
vt 0.359375 0.8105469
vt 0.34375 0.8100586
vt 0.35961914 0.82714844
vt 0.59228516 0.8256836
vt 0.3762207 0.83691406
vt 0.5917969 0.83691406
vt 0.6069336 0.8100586
vt 0.6069336 0.8256836
vt 0.6245117 0.8105469
vt 0.65527344 0.60839844
vt 0.65478516 0.6225586
vt 0.6713867 0.23498535
vt 0.67089844 0.21972656
vt 0.67041016 0.59228516
vt 0.67041016 0.60839844
vt 0.6948242 0.23522949
vt 0.69433594 0.59228516
vt 0.57666016 0.18688965
vt 0.57666016 0.20397949
vt 0.5620117 0.18688965
vt 0.3762207 0.1862793
vt 0.56152344 0.16333008
vt 0.3762207 0.16271973
vt 0.36132812 0.20446777
vt 0.36132812 0.1862793
vt 0.34594727 0.2668457
vt 0.34570312 0.20458984
vt 0.34277344 0.484375
vt 0.62353516 0.6225586
vt 0.32885742 0.28271484
vt 0.32885742 0.26635742
vt 0.59375 0.21984863
vt 0.59375 0.20385742
vt 0.31518555 0.29736328
vt 0.31518555 0.28295898
vt 0.31518555 0.46777344
vt 0.30664062 0.29736328
vt 0.30371094 0.4675293
vt 0.31518555 0.484375
vt 0.3762207 0.82714844
vt 0.359375 0.8105469
vt 0.34375 0.8100586
vt 0.35961914 0.82714844
vt 0.59228516 0.8256836
vt 0.3762207 0.83691406
vt 0.5917969 0.83691406
vt 0.6069336 0.8100586
vt 0.6069336 0.8256836
vt 0.6245117 0.8105469
vt 0.65527344 0.60839844
vt 0.65478516 0.6225586
vt 0.6713867 0.23498535
vt 0.67089844 0.21972656
vt 0.67041016 0.59228516
vt 0.67041016 0.60839844
vt 0.6948242 0.23522949
vt 0.69433594 0.59228516
vt 0.6328125 0.8457031
vt 0.6166992 0.8457031
vt 0.6166992 0.9951172
vt 0.6328125 0.9951172
vt 0.6166992 0.8457031
vt 0.60009766 0.8457031
vt 0.60009766 0.9951172
vt 0.6166992 0.9951172
vt 0.60009766 0.8457031
vt 0.5908203 0.8457031
vt 0.5908203 0.9951172
vt 0.60009766 0.9951172
vt 0.5908203 0.8457031
vt 0.37670898 0.8457031
vt 0.37670898 0.9951172
vt 0.5908203 0.9951172
vt 0.37670898 0.8457031
vt 0.36547852 0.8457031
vt 0.36547852 0.9951172
vt 0.37670898 0.9951172
vt 0.36547852 0.8457031
vt 0.35107422 0.8457031
vt 0.35107422 0.9951172
vt 0.36547852 0.9951172
vt 0.35107422 0.8457031
vt 0.33520508 0.8457031
vt 0.33520508 0.9951172
vt 0.35107422 0.9951172
vt 0.33520508 0.8457031
vt 0.3178711 0.8457031
vt 0.3178711 0.9951172
vt 0.33520508 0.9951172
vt 0.9765625 0.8798828
vt 0.9765625 0.6933594
vt 0.7158203 0.6933594
vt 0.7158203 0.8798828
vt 0.6484375 0.8457031
vt 0.6328125 0.8457031
vt 0.6328125 0.9951172
vt 0.6484375 0.9951172
vt 0.012992859 0.52197266
vt 0.012992859 0.84521484
vt 0.2788086 0.84521484
vt 0.2788086 0.52197266
vt 0.012992859 0.49438477
vt 0.012992859 0.52197266
vt 0.2788086 0.52197266
vt 0.2788086 0.49438477
vt 0.012992859 0.4777832
vt 0.012992859 0.49438477
vt 0.2788086 0.49438477
vt 0.2788086 0.4777832
vt 0.012992859 0.46655273
vt 0.012992859 0.4777832
vt 0.2788086 0.4777832
vt 0.2788086 0.46655273
vt 0.012992859 0.29785156
vt 0.012992859 0.46655273
vt 0.2788086 0.46655273
vt 0.2788086 0.29785156
vt 0.1842041 0.008285522
vt 0.17553711 0.008285522
vt 0.17553711 0.15515137
vt 0.1842041 0.15515137
vt 0.19836426 0.008285522
vt 0.1842041 0.008285522
vt 0.1842041 0.15515137
vt 0.19836426 0.15515137
vt 0.21191406 0.008285522
vt 0.19836426 0.008285522
vt 0.19836426 0.15515137
vt 0.21191406 0.15515137
vt 0.22802734 0.008285522
vt 0.21191406 0.008285522
vt 0.21191406 0.15515137
vt 0.22802734 0.15515137
vt 0.24511719 0.008285522
vt 0.22802734 0.008285522
vt 0.22802734 0.15515137
vt 0.24511719 0.15515137
vt 0.30688477 0.008285522
vt 0.24511719 0.008285522
vt 0.24511719 0.15515137
vt 0.30688477 0.15515137
vt 0.32250977 0.008285522
vt 0.30688477 0.008285522
vt 0.30688477 0.15515137
vt 0.32250977 0.15515137
vt 0.34057617 0.008285522
vt 0.32250977 0.008285522
vt 0.32250977 0.15515137
vt 0.34057617 0.15515137
vt 0.35546875 0.008285522
vt 0.34057617 0.008285522
vt 0.34057617 0.15515137
vt 0.35546875 0.15515137
vt 0.37890625 0.008285522
vt 0.35546875 0.008285522
vt 0.35546875 0.15515137
vt 0.37890625 0.15515137
vt 0.5629883 0.008285522
vt 0.37890625 0.008285522
vt 0.37890625 0.15515137
vt 0.5629883 0.15515137
vt 0.5864258 0.008285522
vt 0.5629883 0.008285522
vt 0.5629883 0.15515137
vt 0.5864258 0.15515137
vt 0.6015625 0.008285522
vt 0.5864258 0.008285522
vt 0.5864258 0.15515137
vt 0.6015625 0.15515137
vt 0.61816406 0.008285522
vt 0.6015625 0.008285522
vt 0.6015625 0.15515137
vt 0.61816406 0.15515137
vt 0.9765625 0.6933594
vt 0.9765625 0.6621094
vt 0.7158203 0.6621094
vt 0.7158203 0.6933594
vt 0.9765625 0.6621094
vt 0.9765625 0.6479492
vt 0.7158203 0.6479492
vt 0.7158203 0.6621094
vt 0.9765625 0.6479492
vt 0.9765625 0.6328125
vt 0.7158203 0.6328125
vt 0.7158203 0.6479492
vt 0.9765625 0.6328125
vt 0.9765625 0.6166992
vt 0.7158203 0.6166992
vt 0.7158203 0.6328125
vt 0.9765625 0.6166992
vt 0.9765625 0.59277344
vt 0.7158203 0.59277344
vt 0.7158203 0.6166992
vt 0.9765625 0.59277344
vt 0.9765625 0.23840332
vt 0.7158203 0.23840332
vt 0.7158203 0.59277344
vt 0.76660156 0.008285522
vt 0.74316406 0.008285522
vt 0.74316406 0.15515137
vt 0.76660156 0.15515137
vt 0.74316406 0.008285522
vt 0.72802734 0.008285522
vt 0.72802734 0.15515137
vt 0.74316406 0.15515137
vt 0.72802734 0.008285522
vt 0.6508789 0.008285522
vt 0.6508789 0.15515137
vt 0.72802734 0.15515137
vt 0.6508789 0.008285522
vt 0.6352539 0.008285522
vt 0.6352539 0.15515137
vt 0.6508789 0.15515137
vt 0.6352539 0.008285522
vt 0.61816406 0.008285522
vt 0.61816406 0.15515137
vt 0.6352539 0.15515137
vn -0 0 1
vn -0 3.5762787E-07 1
vn -0 -1.1920929E-07 1
vn -0 2.9802322E-07 1
vn -1.1920929E-07 9.536743E-07 1
vn -1.1920929E-07 8.940697E-07 1
vn -0 -2.3841858E-07 1
vn -0 0 1
vn 3.5762787E-07 -1.7881393E-07 1
vn -0 -3.5762787E-07 1
vn 4.172325E-07 -1.7881393E-07 1
vn -1.1920929E-07 -2.3841858E-07 1
vn 7.748604E-07 0 1
vn 1.2516975E-06 0 1
vn 1.7881393E-07 -3.5762787E-07 1
vn -0 0 1
vn -0 0 1
vn -0 0 1
vn 1.1324883E-06 -1.7881393E-07 1
vn -0 -2.3841858E-07 1
vn -0 -2.3841858E-07 1
vn 1.6093254E-06 0 1
vn -0 5.9604645E-07 1
vn 1.7881393E-07 -2.9802322E-07 1
vn -0 -3.5762787E-07 1
vn -0 0 1
vn -1.1920929E-07 5.364418E-07 1
vn -0 2.2649765E-06 1
vn -1.1920929E-07 1.9073486E-06 1
vn -1.1920929E-07 -1.7881393E-07 1
vn -0 0 1
vn -0 -2.3841858E-07 1
vn 8.940697E-07 -1.1920929E-07 1
vn -0 0 1
vn 1.7881393E-07 -1.013279E-06 1
vn 5.364418E-07 -2.861023E-06 1
vn 1.847744E-06 -1.7881393E-07 1
vn 2.861023E-06 0 1
vn -0 -1.7881393E-07 1
vn -0 -1.7881393E-07 1
vn -0 0 -1
vn -0 0 -1
vn -0 -3.5762787E-07 -1
vn -0 -2.9802322E-07 -1
vn 1.1920929E-07 -9.536743E-07 -1
vn 1.1920929E-07 -8.940697E-07 -1
vn -0 0 -1
vn -0 0 -1
vn -2.9802322E-07 1.1920929E-07 -1
vn -0 0 -1
vn -5.364418E-07 1.1920929E-07 -1
vn -0 0 -1
vn -7.1525574E-07 1.1920929E-07 -1
vn -1.2516975E-06 0 -1
vn -1.7881393E-07 0 -1
vn -0 0 -1
vn -0 1.7881393E-07 -1
vn -0 0 -1
vn -1.1920929E-06 2.9802322E-07 -1
vn -0 3.5762787E-07 -1
vn -0 3.5762787E-07 -1
vn -1.6093254E-06 0 -1
vn -0 -7.1525574E-07 -1
vn -0 0 -1
vn -0 0 -1
vn -0 0 -1
vn 1.1920929E-07 -5.364418E-07 -1
vn -0 -2.2649765E-06 -1
vn 1.1920929E-07 -1.9073486E-06 -1
vn 1.1920929E-07 1.7881393E-07 -1
vn -0 0 -1
vn -0 2.3841858E-07 -1
vn -9.536743E-07 0 -1
vn -0 0 -1
vn -4.172325E-07 0 -1
vn -5.364418E-07 0 -1
vn -1.9073486E-06 0 -1
vn -2.861023E-06 0 -1
vn -0 0 -1
vn -0 0 -1
vn -0.9995117 0.023239136 0
vn -0.9995117 0.023239136 0
vn -0.9995117 0.023239136 0
vn -0.9995117 0.023239136 0
vn -0.017166138 1 1.1920929E-07
vn -0.017166138 1 1.1920929E-07
vn -0.017166138 1 1.1920929E-07
vn -0.017166138 1 1.1920929E-07
vn -1 0.020736694 0
vn -1 0.020736694 0
vn -1 0.020736694 0
vn -1 0.020736694 0
vn -0 1 2.3841858E-07
vn -0 1 2.3841858E-07
vn -0 1 2.3841858E-07
vn -0 1 2.3841858E-07
vn 0.9995117 0.03338623 0
vn 0.9995117 0.03338623 0
vn 0.9995117 0.03338623 0
vn 0.9995117 0.03338623 0
vn -0.025772095 0.9995117 1.7881393E-07
vn -0.025772095 0.9995117 1.7881393E-07
vn -0.025772095 0.9995117 1.7881393E-07
vn -0.025772095 0.9995117 1.7881393E-07
vn 1 0.013877869 0
vn 1 0.013877869 0
vn 1 0.013877869 0
vn 1 0.013877869 0
vn -0.03024292 0.9995117 2.9802322E-07
vn -0.03024292 0.9995117 2.9802322E-07
vn -0.03024292 0.9995117 2.9802322E-07
vn -0.03024292 0.9995117 2.9802322E-07
vn 1 -0.004058838 0
vn 1 -0.004058838 0
vn 1 -0.004058838 0
vn 1 -0.004058838 0
vn -0.035186768 0.9995117 2.9802322E-07
vn -0.035186768 0.9995117 2.9802322E-07
vn -0.035186768 0.9995117 2.9802322E-07
vn -0.035186768 0.9995117 2.9802322E-07
vn -1 0.0028743744 0
vn -1 0.0028743744 0
vn -1 0.0028743744 0
vn -1 0.0028743744 0
vn -0 1 1.1920929E-07
vn -0 1 1.1920929E-07
vn -0 1 1.1920929E-07
vn -0 1 1.1920929E-07
vn -1 0.005504608 0
vn -1 0.005504608 0
vn -1 0.005504608 0
vn -1 0.005504608 0
vn -0.027374268 0.9995117 1.1920929E-07
vn -0.027374268 0.9995117 1.1920929E-07
vn -0.027374268 0.9995117 1.1920929E-07
vn -0.027374268 0.9995117 1.1920929E-07
vn -1 -0.0158844 0
vn -1 -0.0158844 0
vn -1 -0.0158844 0
vn -1 -0.0158844 0
vn -0.011756897 -1 0
vn -0.011756897 -1 0
vn -0.011756897 -1 0
vn -0.011756897 -1 0
vn -1 0.0030498505 0
vn -1 0.0030498505 0
vn -1 0.0030498505 0
vn -1 0.0030498505 0
vn -0.021194458 -1 -1.1920929E-07
vn -0.021194458 -1 -1.1920929E-07
vn -0.021194458 -1 -1.1920929E-07
vn -0.021194458 -1 -1.1920929E-07
vn -1 0.002544403 0
vn -1 0.002544403 0
vn -1 0.002544403 0
vn -1 0.002544403 0
vn 0.019500732 -1 -1.1920929E-07
vn 0.019500732 -1 -1.1920929E-07
vn 0.019500732 -1 -1.1920929E-07
vn 0.019500732 -1 -1.1920929E-07
vn -1 0.0045776367 0
vn -1 0.0045776367 0
vn -1 0.0045776367 0
vn -1 0.0045776367 0
vn -0.007167816 -1 -1.7881393E-07
vn -0.007167816 -1 -1.7881393E-07
vn -0.007167816 -1 -1.7881393E-07
vn -0.007167816 -1 -1.7881393E-07
vn -1 0.005958557 0
vn -1 0.005958557 0
vn -1 0.005958557 0
vn -1 0.005958557 0
vn -0 -1 -1.7881393E-07
vn -0 -1 -1.7881393E-07
vn -0 -1 -1.7881393E-07
vn -0 -1 -1.7881393E-07
vn -1 -0.0021781921 0
vn -1 -0.0021781921 0
vn -1 -0.0021781921 0
vn -1 -0.0021781921 0
vn 0.0036449432 -1 -1.7881393E-07
vn 0.0036449432 -1 -1.7881393E-07
vn 0.0036449432 -1 -1.7881393E-07
vn 0.0036449432 -1 -1.7881393E-07
vn 1 -0.008598328 0
vn 1 -0.008598328 0
vn 1 -0.008598328 0
vn 1 -0.008598328 0
vn -0 -1 -1.7881393E-07
vn -0 -1 -1.7881393E-07
vn -0 -1 -1.7881393E-07
vn -0 -1 -1.7881393E-07
vn 1 0.009414673 0
vn 1 0.009414673 0
vn 1 0.009414673 0
vn 1 0.009414673 0
vn -0.00605011 1 0
vn -0.00605011 1 0
vn -0.00605011 1 0
vn -0.00605011 1 0
vn 1 0.011566162 0
vn 1 0.011566162 0
vn 1 0.011566162 0
vn 1 0.011566162 0
vn -1.7881393E-06 1 0
vn -1.7881393E-06 1 0
vn -1.7881393E-06 1 0
vn -1.7881393E-06 1 0
vn 1 -0.007835388 0
vn 1 -0.007835388 0
vn 1 -0.007835388 0
vn 1 -0.007835388 0
vn -0 1 1.1920929E-07
vn -0 1 1.1920929E-07
vn -0 1 1.1920929E-07
vn -0 1 1.1920929E-07
vn 1 0.0007972717 0
vn 1 0.0007972717 0
vn 1 0.0007972717 0
vn 1 0.0007972717 0
vn 0.008453369 -1 -1.7881393E-07
vn 0.008453369 -1 -1.7881393E-07
vn 0.008453369 -1 -1.7881393E-07
vn 0.008453369 -1 -1.7881393E-07
vn 1 -0.008140564 0
vn 1 -0.008140564 0
vn 1 -0.008140564 0
vn 1 -0.008140564 0
vn -0.0028419495 -1 -2.3841858E-07
vn -0.0028419495 -1 -2.3841858E-07
vn -0.0028419495 -1 -2.3841858E-07
vn -0.0028419495 -1 -2.3841858E-07
vn 1 0.00283432 0
vn 1 0.00283432 0
vn 1 0.00283432 0
vn 1 0.00283432 0
vn -0.005077362 -1 -2.3841858E-07
vn -0.005077362 -1 -2.3841858E-07
vn -0.005077362 -1 -2.3841858E-07
vn -0.005077362 -1 -2.3841858E-07
g Rocks_Small_004_0
f 3/3/3 2/2/2 1/1/1
f 4/4/4 2/2/2 3/3/3
f 5/5/5 2/2/2 4/4/4
f 6/6/6 5/5/5 4/4/4
f 7/7/7 4/4/4 3/3/3
f 8/8/8 4/4/4 7/7/7
f 9/9/9 7/7/7 3/3/3
f 10/10/10 7/7/7 9/9/9
f 11/11/11 9/9/9 3/3/3
f 12/12/12 11/11/11 3/3/3
f 13/13/13 9/9/9 11/11/11
f 14/14/14 9/9/9 13/13/13
f 12/12/12 3/3/3 15/15/15
f 15/15/15 3/3/3 16/16/16
f 17/17/17 13/13/13 11/11/11
f 18/18/18 13/13/13 17/17/17
f 19/19/19 17/17/17 11/11/11
f 20/20/20 17/17/17 19/19/19
f 21/21/21 20/20/20 19/19/19
f 22/22/22 19/19/19 11/11/11
f 23/23/23 11/11/11 12/12/12
f 23/23/23 24/24/24 11/11/11
f 25/25/25 11/11/11 24/24/24
f 26/26/26 24/24/24 23/23/23
f 27/27/27 23/23/23 12/12/12
f 28/28/28 23/23/23 27/27/27
f 29/29/29 28/28/28 27/27/27
f 30/30/30 27/27/27 12/12/12
f 31/31/31 27/27/27 30/30/30
f 32/32/32 30/30/30 12/12/12
f 34/34/34 12/12/12 33/33/33
f 33/33/33 12/12/12 15/15/15
f 35/35/35 33/33/33 15/15/15
f 36/36/36 35/35/35 15/15/15
f 37/37/37 33/33/33 35/35/35
f 38/38/38 33/33/33 37/37/37
f 39/39/39 37/37/37 35/35/35
f 40/40/40 37/37/37 39/39/39
f 43/43/43 42/42/42 41/41/41
f 43/43/43 44/44/44 42/42/42
f 43/43/43 45/45/45 44/44/44
f 45/45/45 46/46/46 44/44/44
f 44/44/44 47/47/47 42/42/42
f 44/44/44 48/48/48 47/47/47
f 47/47/47 49/49/49 42/42/42
f 47/47/47 50/50/50 49/49/49
f 49/49/49 51/51/51 42/42/42
f 51/51/51 52/52/52 42/42/42
f 49/49/49 53/53/53 51/51/51
f 49/49/49 54/54/54 53/53/53
f 42/42/42 52/52/52 55/55/55
f 42/42/42 55/55/55 56/56/56
f 53/53/53 57/57/57 51/51/51
f 53/53/53 58/58/58 57/57/57
f 57/57/57 59/59/59 51/51/51
f 57/57/57 60/60/60 59/59/59
f 60/60/60 61/61/61 59/59/59
f 59/59/59 62/62/62 51/51/51
f 51/51/51 63/63/63 52/52/52
f 64/64/64 63/63/63 51/51/51
f 51/51/51 65/65/65 64/64/64
f 64/64/64 66/66/66 63/63/63
f 63/63/63 67/67/67 52/52/52
f 63/63/63 68/68/68 67/67/67
f 68/68/68 69/69/69 67/67/67
f 67/67/67 70/70/70 52/52/52
f 67/67/67 71/71/71 70/70/70
f 70/70/70 72/72/72 52/52/52
f 52/52/52 74/74/74 73/73/73
f 52/52/52 73/73/73 55/55/55
f 73/73/73 75/75/75 55/55/55
f 75/75/75 76/76/76 55/55/55
f 73/73/73 77/77/77 75/75/75
f 73/73/73 78/78/78 77/77/77
f 77/77/77 79/79/79 75/75/75
f 77/77/77 80/80/80 79/79/79
f 83/83/83 82/82/82 81/81/81
f 84/84/84 83/83/83 81/81/81
f 87/87/87 86/86/86 85/85/85
f 88/88/88 87/87/87 85/85/85
f 91/91/91 90/90/90 89/89/89
f 92/92/92 91/91/91 89/89/89
f 95/95/95 94/94/94 93/93/93
f 96/96/96 95/95/95 93/93/93
f 99/99/99 98/98/98 97/97/97
f 100/100/100 99/99/99 97/97/97
f 103/103/103 102/102/102 101/101/101
f 104/104/104 103/103/103 101/101/101
f 107/107/107 106/106/106 105/105/105
f 108/108/108 107/107/107 105/105/105
f 111/111/111 110/110/110 109/109/109
f 112/112/112 111/111/111 109/109/109
f 115/115/115 114/114/114 113/113/113
f 116/116/116 115/115/115 113/113/113
f 119/119/119 118/118/118 117/117/117
f 120/120/120 119/119/119 117/117/117
f 123/123/123 122/122/122 121/121/121
f 124/124/124 123/123/123 121/121/121
f 127/127/127 126/126/126 125/125/125
f 128/128/128 127/127/127 125/125/125
f 131/131/131 130/130/130 129/129/129
f 132/132/132 131/131/131 129/129/129
f 135/135/135 134/134/134 133/133/133
f 136/136/136 135/135/135 133/133/133
f 139/139/139 138/138/138 137/137/137
f 140/140/140 139/139/139 137/137/137
f 143/143/143 142/142/142 141/141/141
f 144/144/144 143/143/143 141/141/141
f 147/147/147 146/146/146 145/145/145
f 148/148/148 147/147/147 145/145/145
f 151/151/151 150/150/150 149/149/149
f 152/152/152 151/151/151 149/149/149
f 155/155/155 154/154/154 153/153/153
f 156/156/156 155/155/155 153/153/153
f 159/159/159 158/158/158 157/157/157
f 160/160/160 159/159/159 157/157/157
f 163/163/163 162/162/162 161/161/161
f 164/164/164 163/163/163 161/161/161
f 167/167/167 166/166/166 165/165/165
f 168/168/168 167/167/167 165/165/165
f 171/171/171 170/170/170 169/169/169
f 172/172/172 171/171/171 169/169/169
f 175/175/175 174/174/174 173/173/173
f 176/176/176 175/175/175 173/173/173
f 179/179/179 178/178/178 177/177/177
f 180/180/180 179/179/179 177/177/177
f 183/183/183 182/182/182 181/181/181
f 184/184/184 183/183/183 181/181/181
f 187/187/187 186/186/186 185/185/185
f 188/188/188 187/187/187 185/185/185
f 191/191/191 190/190/190 189/189/189
f 192/192/192 191/191/191 189/189/189
f 195/195/195 194/194/194 193/193/193
f 196/196/196 195/195/195 193/193/193
f 199/199/199 198/198/198 197/197/197
f 200/200/200 199/199/199 197/197/197
f 203/203/203 202/202/202 201/201/201
f 204/204/204 203/203/203 201/201/201
f 207/207/207 206/206/206 205/205/205
f 208/208/208 207/207/207 205/205/205
f 211/211/211 210/210/210 209/209/209
f 212/212/212 211/211/211 209/209/209
f 215/215/215 214/214/214 213/213/213
f 216/216/216 215/215/215 213/213/213
f 219/219/219 218/218/218 217/217/217
f 220/220/220 219/219/219 217/217/217
f 223/223/223 222/222/222 221/221/221
f 224/224/224 223/223/223 221/221/221
f 227/227/227 226/226/226 225/225/225
f 228/228/228 227/227/227 225/225/225
f 231/231/231 230/230/230 229/229/229
f 232/232/232 231/231/231 229/229/229
f 235/235/235 234/234/234 233/233/233
f 236/236/236 235/235/235 233/233/233
f 239/239/239 238/238/238 237/237/237
f 240/240/240 239/239/239 237/237/237
