g Rocks_Small_017
v -0.78458923 -0.99245524 -0.89994323
v -0.7844513 -1.0583308 -0.89994323
v -0.7255389 -1.0578189 -0.89994323
v 0.6488504 -0.7455598 -0.89994323
v 0.7068515 -0.683629 -0.89994323
v 0.7072989 -0.74447554 -0.89994323
v -0.83835506 -0.6212396 -0.89994323
v -0.8389349 -0.9930473 -0.89994323
v 0.58612764 -0.8695726 -0.89994323
v 0.6486685 -0.8695726 -0.89994323
v 0.838519 -0.61642456 -0.89994323
v 0.83888394 -0.6844237 -0.89994323
v 0.8945358 -0.498455 -0.89994323
v 0.89480007 -0.6161876 -0.89994323
v -0.8998016 -0.24449383 -0.89994323
v -0.90067196 -0.6214917 -0.89994323
v 0.95909816 -0.30313945 -0.89994323
v 0.95899075 -0.49862528 -0.89994323
v 0.52593416 -0.93442243 -0.89994323
v 0.5857309 -0.93415177 -0.89994323
v -0.9671112 0.06822514 -0.89994323
v -0.9667743 -0.2444955 -0.89994323
v 0.018746031 -1.0011706 -0.89994323
v 0.52617276 -0.9986575 -0.89994323
v -0.9765863 1.0576341 -0.89994323
v -1.0321941 0.06913105 -0.89994323
v -1.0320575 1.0578319 -0.89994323
v -0.035763245 -1.0576643 -0.89994323
v 0.018817443 -1.0588269 -0.89994323
v -0.16279571 -1.123308 -0.89994323
v -0.035763245 -1.1229157 -0.89994323
v -0.6532623 -1.1246687 -0.89994323
v -0.72652406 -1.1248765 -0.89994323
v -0.16279571 -1.1864024 -0.8999433
v -0.6532623 -1.1877635 -0.8999433
v 0.95933133 1.0483726 -0.89994323
v 1.0321945 1.0483726 -0.89994323
v 1.0321945 -0.30313945 -0.89994323
v 0.9003116 1.115442 -0.89994323
v 0.95933133 1.115442 -0.89994323
v -0.9056097 1.119648 -0.89994323
v -0.9763885 1.121416 -0.89994323
v -0.9055731 1.1808754 -0.8999431
v 0.90031093 1.1877633 -0.8999431
v -1.0320575 1.0578319 -0.89994323
v -1.0320575 1.0578321 0.89994305
v -1.0321941 0.06913113 0.89994305
v -1.0321941 0.06913105 -0.89994323
v 0.90031093 1.1877633 -0.8999431
v 0.90031093 1.1877635 0.8999431
v -0.9055731 1.1808755 0.8999431
v -0.9055731 1.1808754 -0.8999431
v -0.9055731 1.1808754 -0.8999431
v -0.9055731 1.1808755 0.8999431
v -0.9056097 1.1196481 0.89994305
v -0.9056097 1.119648 -0.89994323
v -0.78458923 -0.99245524 -0.89994323
v -0.78458923 -0.99245495 0.89994305
v -0.7844513 -1.0583305 0.89994305
v -0.7844513 -1.0583308 -0.89994323
v 0.95899075 -0.49862528 -0.89994323
v 0.95899075 -0.49862513 0.89994305
v 0.95909816 -0.3031393 0.89994323
v 0.95909816 -0.30313945 -0.89994323
v 0.95909816 -0.30313945 -0.89994323
v 0.95909816 -0.3031393 0.89994323
v 1.0321945 -0.3031393 0.89994323
v 1.0321945 -0.30313945 -0.89994323
v -0.83835506 -0.6212396 -0.89994323
v -0.83835506 -0.6212395 0.89994305
v -0.8389349 -0.993047 0.89994305
v -0.8389349 -0.9930473 -0.89994323
v -0.8389349 -0.9930473 -0.89994323
v -0.8389349 -0.993047 0.89994305
v -0.78458923 -0.99245495 0.89994305
v -0.78458923 -0.99245524 -0.89994323
v 0.95933133 1.0483726 -0.89994323
v 0.95933133 1.048373 0.89994305
v 0.95933133 1.1154422 0.89994305
v 0.95933133 1.115442 -0.89994323
v 0.95933133 1.115442 -0.89994323
v 0.95933133 1.1154422 0.89994305
v 0.9003116 1.1154422 0.89994305
v 0.9003116 1.115442 -0.89994323
v -0.9056097 1.119648 -0.89994323
v -0.9056097 1.1196481 0.89994305
v -0.9763885 1.1214161 0.89994305
v -0.9763885 1.121416 -0.89994323
v -0.9763885 1.121416 -0.89994323
v -0.9763885 1.1214161 0.89994305
v -0.9765863 1.0576344 0.89994305
v -0.9765863 1.0576341 -0.89994323
v 0.9003116 1.115442 -0.89994323
v 0.9003116 1.1154422 0.89994305
v 0.90031093 1.1877635 0.8999431
v 0.90031093 1.1877633 -0.8999431
v 0.52593416 -0.93442243 -0.89994323
v 0.52593446 -0.93442214 0.89994305
v 0.58573055 -0.9341514 0.89994305
v 0.5857309 -0.93415177 -0.89994323
v -0.9765863 1.0576341 -0.89994323
v -0.9765863 1.0576344 0.89994305
v -1.0320575 1.0578321 0.89994305
v -1.0320575 1.0578319 -0.89994323
v 0.018746031 -1.0011706 -0.89994323
v 0.018745728 -1.0011705 0.89994305
v 0.52617246 -0.99865735 0.89994305
v 0.52617276 -0.9986575 -0.89994323
v 0.52617276 -0.9986575 -0.89994323
v 0.52617246 -0.99865735 0.89994305
v 0.52593446 -0.93442214 0.89994305
v 0.52593416 -0.93442243 -0.89994323
v 0.8945358 -0.498455 -0.89994323
v 0.8945358 -0.49845484 0.89994305
v 0.95899075 -0.49862513 0.89994305
v 0.95899075 -0.49862528 -0.89994323
v 0.018817443 -1.0588269 -0.89994323
v 0.018817749 -1.0588266 0.89994305
v 0.018745728 -1.0011705 0.89994305
v 0.018746031 -1.0011706 -0.89994323
v -0.035763245 -1.0576643 -0.89994323
v -0.03576355 -1.057664 0.89994305
v 0.018817749 -1.0588266 0.89994305
v 0.018817443 -1.0588269 -0.89994323
v 1.0321945 1.0483726 -0.89994323
v 1.0321945 1.048373 0.89994305
v 0.95933133 1.048373 0.89994305
v 0.95933133 1.0483726 -0.89994323
v 1.0321945 -0.30313945 -0.89994323
v 1.0321945 -0.3031393 0.89994323
v 1.0321945 1.048373 0.89994305
v 1.0321945 1.0483726 -0.89994323
v 0.5857309 -0.93415177 -0.89994323
v 0.58573055 -0.9341514 0.89994305
v 0.5861273 -0.8695723 0.89994305
v 0.58612764 -0.8695726 -0.89994323
v 0.58612764 -0.8695726 -0.89994323
v 0.5861273 -0.8695723 0.89994305
v 0.6486688 -0.8695723 0.89994305
v 0.6486685 -0.8695726 -0.89994323
v 0.6486685 -0.8695726 -0.89994323
v 0.6486688 -0.8695723 0.89994305
v 0.6488507 -0.7455595 0.89994305
v 0.6488504 -0.7455598 -0.89994323
v 0.7072989 -0.74447554 -0.89994323
v 0.7072992 -0.74447525 0.89994305
v 0.7068512 -0.6836287 0.89994305
v 0.7068515 -0.683629 -0.89994323
v 0.6488504 -0.7455598 -0.89994323
v 0.6488507 -0.7455595 0.89994305
v 0.7072992 -0.74447525 0.89994305
v 0.7072989 -0.74447554 -0.89994323
v 0.7068515 -0.683629 -0.89994323
v 0.7068512 -0.6836287 0.89994305
v 0.83888394 -0.6844233 0.89994305
v 0.83888394 -0.6844237 -0.89994323
v 0.83888394 -0.6844237 -0.89994323
v 0.83888394 -0.6844233 0.89994305
v 0.838519 -0.6164244 0.89994305
v 0.838519 -0.61642456 -0.89994323
v 0.89480007 -0.6161876 -0.89994323
v 0.89480007 -0.61618733 0.89994305
v 0.8945358 -0.49845484 0.89994305
v 0.8945358 -0.498455 -0.89994323
v 0.838519 -0.61642456 -0.89994323
v 0.838519 -0.6164244 0.89994305
v 0.89480007 -0.61618733 0.89994305
v 0.89480007 -0.6161876 -0.89994323
v -1.0321941 0.06913105 -0.89994323
v -1.0321941 0.06913113 0.89994305
v -0.9671112 0.06822521 0.89994305
v -0.9671112 0.06822514 -0.89994323
v -0.9671112 0.06822514 -0.89994323
v -0.9671112 0.06822521 0.89994305
v -0.9667743 -0.24449535 0.89994323
v -0.9667743 -0.2444955 -0.89994323
v -0.9667743 -0.2444955 -0.89994323
v -0.9667743 -0.24449535 0.89994323
v -0.8998016 -0.24449366 0.89994323
v -0.8998016 -0.24449383 -0.89994323
v -0.8998016 -0.24449383 -0.89994323
v -0.8998016 -0.24449366 0.89994323
v -0.90067196 -0.62149155 0.89994305
v -0.90067196 -0.6214917 -0.89994323
v -0.90067196 -0.6214917 -0.89994323
v -0.90067196 -0.62149155 0.89994305
v -0.83835506 -0.6212395 0.89994305
v -0.83835506 -0.6212396 -0.89994323
v -0.035763245 -1.1229157 -0.89994323
v -0.03576355 -1.1229155 0.89994305
v -0.03576355 -1.057664 0.89994305
v -0.035763245 -1.0576643 -0.89994323
v -0.16279571 -1.123308 -0.89994323
v -0.16279602 -1.1233075 0.89994305
v -0.03576355 -1.1229155 0.89994305
v -0.035763245 -1.1229157 -0.89994323
v -0.7844513 -1.0583308 -0.89994323
v -0.7844513 -1.0583305 0.89994305
v -0.7255383 -1.0578185 0.89994305
v -0.7255389 -1.0578189 -0.89994323
v -0.7255389 -1.0578189 -0.89994323
v -0.7255383 -1.0578185 0.89994305
v -0.72652406 -1.1248764 0.89994305
v -0.72652406 -1.1248765 -0.89994323
v -0.72652406 -1.1248765 -0.89994323
v -0.72652406 -1.1248764 0.89994305
v -0.6532623 -1.1246684 0.89994305
v -0.6532623 -1.1246687 -0.89994323
v -0.16279571 -1.1864024 -0.8999433
v -0.16279602 -1.1864024 0.899943
v -0.16279602 -1.1233075 0.89994305
v -0.16279571 -1.123308 -0.89994323
v -0.6532623 -1.1246687 -0.89994323
v -0.6532623 -1.1246684 0.89994305
v -0.6532623 -1.1877635 0.899943
v -0.6532623 -1.1877635 -0.8999433
v -0.6532623 -1.1877635 -0.8999433
v -0.6532623 -1.1877635 0.899943
v -0.16279602 -1.1864024 0.899943
v -0.16279571 -1.1864024 -0.8999433
v -0.78458923 -0.99245495 0.89994305
v -0.7255383 -1.0578185 0.89994305
v -0.7844513 -1.0583305 0.89994305
v 0.6488507 -0.7455595 0.89994305
v 0.7068512 -0.6836287 0.89994305
v 0.7072992 -0.74447525 0.89994305
v -0.83835506 -0.6212395 0.89994305
v -0.8389349 -0.993047 0.89994305
v 0.5861273 -0.8695723 0.89994305
v 0.6486688 -0.8695723 0.89994305
v 0.838519 -0.6164244 0.89994305
v 0.83888394 -0.6844233 0.89994305
v 0.8945358 -0.49845484 0.89994305
v 0.89480007 -0.61618733 0.89994305
v -0.8998016 -0.24449366 0.89994323
v -0.90067196 -0.62149155 0.89994305
v 0.95909816 -0.3031393 0.89994323
v 0.95899075 -0.49862513 0.89994305
v 0.52593446 -0.93442214 0.89994305
v 0.58573055 -0.9341514 0.89994305
v -0.9671112 0.06822521 0.89994305
v -0.9667743 -0.24449535 0.89994323
v 0.018745728 -1.0011705 0.89994305
v 0.52617246 -0.99865735 0.89994305
v -0.9765863 1.0576344 0.89994305
v -1.0321941 0.06913113 0.89994305
v -1.0320575 1.0578321 0.89994305
v -0.03576355 -1.057664 0.89994305
v 0.018817749 -1.0588266 0.89994305
v -0.16279602 -1.1233075 0.89994305
v -0.03576355 -1.1229155 0.89994305
v -0.6532623 -1.1246684 0.89994305
v -0.72652406 -1.1248764 0.89994305
v -0.16279602 -1.1864024 0.899943
v -0.6532623 -1.1877635 0.899943
v 0.95933133 1.048373 0.89994305
v 1.0321945 1.048373 0.89994305
v 1.0321945 -0.3031393 0.89994323
v 0.9003116 1.1154422 0.89994305
v 0.95933133 1.1154422 0.89994305
v -0.9056097 1.1196481 0.89994305
v -0.9763885 1.1214161 0.89994305
v -0.9055731 1.1808755 0.8999431
v 0.90031093 1.1877635 0.8999431
vt 0.20703125 0.33276367
vt 0.20703125 0.32861328
vt 0.20324707 0.32836914
vt 0.115600586 0.34765625
vt 0.11187744 0.3515625
vt 0.11187744 0.34765625
vt 0.21032715 0.3564453
vt 0.21032715 0.33276367
vt 0.119628906 0.33984375
vt 0.11566162 0.33984375
vt 0.10345459 0.35595703
vt 0.10345459 0.3515625
vt 0.099853516 0.36328125
vt 0.099853516 0.3557129
vt 0.21411133 0.3803711
vt 0.21411133 0.3564453
vt 0.09564209 0.37573242
vt 0.09564209 0.36328125
vt 0.123535156 0.33569336
vt 0.11968994 0.33569336
vt 0.21813965 0.40039062
vt 0.21813965 0.3803711
vt 0.15588379 0.3317871
vt 0.123535156 0.3317871
vt 0.21813965 0.46264648
vt 0.22216797 0.40039062
vt 0.22167969 0.46264648
vt 0.15930176 0.328125
vt 0.15588379 0.328125
vt 0.16748047 0.3239746
vt 0.15942383 0.3239746
vt 0.19873047 0.32421875
vt 0.20336914 0.32421875
vt 0.16748047 0.32006836
vt 0.19873047 0.32006836
vt 0.09490967 0.46264648
vt 0.090270996 0.46264648
vt 0.09094238 0.37573242
vt 0.09863281 0.46679688
vt 0.09484863 0.46679688
vt 0.21362305 0.46679688
vt 0.21813965 0.46679688
vt 0.21362305 0.47094727
vt 0.09857178 0.47094727
vt 0.3034668 0.47070312
vt 0.23132324 0.47070312
vt 0.23132324 0.40771484
vt 0.3034668 0.40771484
vt 0.09863281 0.47998047
vt 0.09863281 0.546875
vt 0.21362305 0.546875
vt 0.21362305 0.47998047
vt 0.21362305 0.47998047
vt 0.21362305 0.546875
vt 0.2175293 0.546875
vt 0.2175293 0.47998047
vt 0.3034668 0.32421875
vt 0.23132324 0.32421875
vt 0.23132324 0.32006836
vt 0.3034668 0.32006836
vt 0.080322266 0.35595703
vt 0.008140564 0.35595703
vt 0.008140564 0.3684082
vt 0.080322266 0.3684082
vt 0.080322266 0.3684082
vt 0.008140564 0.3684082
vt 0.008132935 0.37304688
vt 0.080322266 0.37304688
vt 0.3034668 0.35131836
vt 0.23132324 0.35131836
vt 0.23132324 0.32763672
vt 0.3034668 0.32763672
vt 0.3034668 0.32763672
vt 0.23132324 0.32763672
vt 0.23132324 0.32421875
vt 0.3034668 0.32421875
vt 0.085998535 0.47998047
vt 0.085998535 0.546875
vt 0.090270996 0.546875
vt 0.090270996 0.47998047
vt 0.090270996 0.47998047
vt 0.090270996 0.546875
vt 0.09399414 0.546875
vt 0.09399414 0.47998047
vt 0.2175293 0.47998047
vt 0.2175293 0.546875
vt 0.2220459 0.546875
vt 0.2220459 0.47998047
vt 0.2220459 0.47998047
vt 0.2220459 0.546875
vt 0.22607422 0.546875
vt 0.22607422 0.47998047
vt 0.09399414 0.47998047
vt 0.09399414 0.546875
vt 0.09863281 0.546875
vt 0.09863281 0.47998047
vt 0.11956787 0.30322266
vt 0.11956787 0.23620605
vt 0.115722656 0.23620605
vt 0.115722656 0.30322266
vt 0.22607422 0.47998047
vt 0.22607422 0.546875
vt 0.22961426 0.546875
vt 0.22961426 0.47998047
vt 0.15637207 0.30322266
vt 0.15637207 0.23620605
vt 0.12365723 0.23620605
vt 0.12365723 0.30322266
vt 0.12365723 0.30322266
vt 0.12365723 0.23620605
vt 0.11956787 0.23620605
vt 0.11956787 0.30322266
vt 0.080322266 0.35180664
vt 0.008148193 0.35180664
vt 0.008140564 0.35595703
vt 0.080322266 0.35595703
vt 0.15893555 0.30322266
vt 0.15893555 0.23620605
vt 0.15637207 0.23620605
vt 0.15637207 0.30322266
vt 0.16308594 0.30322266
vt 0.16308594 0.23620605
vt 0.15893555 0.23620605
vt 0.15893555 0.30322266
vt 0.08135986 0.47998047
vt 0.08135986 0.546875
vt 0.085998535 0.546875
vt 0.085998535 0.47998047
vt 0.080322266 0.37304688
vt 0.008132935 0.37304688
vt 0.008132935 0.45898438
vt 0.080322266 0.45898438
vt 0.115722656 0.30322266
vt 0.115722656 0.23620605
vt 0.1116333 0.23620605
vt 0.1116333 0.30322266
vt 0.1116333 0.30322266
vt 0.1116333 0.23620605
vt 0.10760498 0.23620605
vt 0.10760498 0.30322266
vt 0.10760498 0.30322266
vt 0.10760498 0.23620605
vt 0.099731445 0.23620605
vt 0.099731445 0.30322266
vt 0.0960083 0.30322266
vt 0.0960083 0.23620605
vt 0.09210205 0.23620605
vt 0.09210205 0.30322266
vt 0.099731445 0.30322266
vt 0.099731445 0.23620605
vt 0.0960083 0.23620605
vt 0.0960083 0.30322266
vt 0.09210205 0.30322266
vt 0.09210205 0.23620605
vt 0.0836792 0.23620605
vt 0.0836792 0.30322266
vt 0.0836792 0.30322266
vt 0.0836792 0.23620605
vt 0.0793457 0.23620605
vt 0.0793457 0.30322266
vt 0.080322266 0.34423828
vt 0.008155823 0.34423828
vt 0.008148193 0.35180664
vt 0.080322266 0.35180664
vt 0.080322266 0.34057617
vt 0.008163452 0.34057617
vt 0.008155823 0.34423828
vt 0.080322266 0.34423828
vt 0.3034668 0.40771484
vt 0.23132324 0.40771484
vt 0.23132324 0.40356445
vt 0.3034668 0.40356445
vt 0.3034668 0.40356445
vt 0.23132324 0.40356445
vt 0.23132324 0.38354492
vt 0.3034668 0.38354492
vt 0.3034668 0.38354492
vt 0.23132324 0.38354492
vt 0.23132324 0.3791504
vt 0.3034668 0.3791504
vt 0.3034668 0.3791504
vt 0.23132324 0.3791504
vt 0.23132324 0.3552246
vt 0.3034668 0.3552246
vt 0.3034668 0.3552246
vt 0.23132324 0.3552246
vt 0.23132324 0.35131836
vt 0.3034668 0.35131836
vt 0.1673584 0.30322266
vt 0.1673584 0.23620605
vt 0.16308594 0.23620605
vt 0.16308594 0.30322266
vt 0.17541504 0.30322266
vt 0.17541504 0.23620605
vt 0.1673584 0.23620605
vt 0.1673584 0.30322266
vt 0.3034668 0.32006836
vt 0.23132324 0.32006836
vt 0.23132324 0.3161621
vt 0.3034668 0.3161621
vt 0.3034668 0.3161621
vt 0.23132324 0.3161621
vt 0.23132324 0.31201172
vt 0.3034668 0.31201172
vt 0.3034668 0.31201172
vt 0.23132324 0.31201172
vt 0.23132324 0.30737305
vt 0.3034668 0.30737305
vt 0.17944336 0.30322266
vt 0.17944336 0.23620605
vt 0.17541504 0.23620605
vt 0.17541504 0.30322266
vt 0.3034668 0.30737305
vt 0.23132324 0.30737305
vt 0.23132324 0.30322266
vt 0.3034668 0.30322266
vt 0.21069336 0.30322266
vt 0.21069336 0.23620605
vt 0.17944336 0.23620605
vt 0.17944336 0.30322266
vt 0.20703125 0.33276367
vt 0.20324707 0.32836914
vt 0.20703125 0.32861328
vt 0.115600586 0.34765625
vt 0.11187744 0.3515625
vt 0.11187744 0.34765625
vt 0.21032715 0.3564453
vt 0.21032715 0.33276367
vt 0.119628906 0.33984375
vt 0.11566162 0.33984375
vt 0.10345459 0.35595703
vt 0.10345459 0.3515625
vt 0.099853516 0.36328125
vt 0.099853516 0.3557129
vt 0.21411133 0.3803711
vt 0.21411133 0.3564453
vt 0.09564209 0.37573242
vt 0.09564209 0.36328125
vt 0.123535156 0.33569336
vt 0.11968994 0.33569336
vt 0.21813965 0.40039062
vt 0.21813965 0.3803711
vt 0.15588379 0.3317871
vt 0.123535156 0.3317871
vt 0.21813965 0.46264648
vt 0.22216797 0.40039062
vt 0.22167969 0.46264648
vt 0.15930176 0.328125
vt 0.15588379 0.328125
vt 0.16748047 0.3239746
vt 0.15942383 0.3239746
vt 0.19873047 0.32421875
vt 0.20336914 0.32421875
vt 0.16748047 0.32006836
vt 0.19873047 0.32006836
vt 0.09490967 0.46264648
vt 0.090270996 0.46264648
vt 0.09094238 0.37573242
vt 0.09863281 0.46679688
vt 0.09484863 0.46679688
vt 0.21362305 0.46679688
vt 0.21813965 0.46679688
vt 0.21362305 0.47094727
vt 0.09857178 0.47094727
vn -0 0 -1
vn -0 0 -1
vn -0 0 -1
vn -0 0 -1
vn -0 0 -1
vn -0 0 -1
vn -0 0 -1
vn -0 0 -1
vn -0 0 -1
vn -0 0 -1
vn -0 0 -1
vn -0 0 -1
vn -0 4.172325E-07 -1
vn -0 0 -1
vn -0 0 -1
vn -0 1.7881393E-07 -1
vn -0 0 -1
vn -0 4.172325E-07 -1
vn -0 0 -1
vn -0 0 -1
vn -0 0 -1
vn -0 0 -1
vn -0 0 -1
vn -0 0 -1
vn -0 0 -1
vn -0 0 -1
vn -0 0 -1
vn -0 0 -1
vn -0 0 -1
vn -0 0 -1
vn -0 0 -1
vn -0 0 -1
vn -0 0 -1
vn -0 0 -1
vn -0 0 -1
vn -0 0 -1
vn -0 0 -1
vn -0 0 -1
vn -0 0 -1
vn -0 0 -1
vn -0 0 -1
vn -0 0 -1
vn -0 0 -1
vn -0 0 -1
vn -1 0.00013828278 0
vn -1 0.00013828278 0
vn -1 0.00013828278 0
vn -1 0.00013828278 0
vn -0.0038146973 1 0
vn -0.0038146973 1 0
vn -0.0038146973 1 0
vn -0.0038146973 1 0
vn -1 0.0005979538 0
vn -1 0.0005979538 0
vn -1 0.0005979538 0
vn -1 0.0005979538 0
vn -1 -0.0020942688 0
vn -1 -0.0020942688 0
vn -1 -0.0020942688 0
vn -1 -0.0020942688 0
vn 1 -0.0005493164 0
vn 1 -0.0005493164 0
vn 1 -0.0005493164 0
vn 1 -0.0005493164 0
vn -0 -1 0
vn -0 -1 0
vn -0 -1 0
vn -0 -1 0
vn -1 0.0015592575 0
vn -1 0.0015592575 0
vn -1 0.0015592575 0
vn -1 0.0015592575 0
vn 0.010894775 -1 1.7881393E-07
vn 0.010894775 -1 1.7881393E-07
vn 0.010894775 -1 1.7881393E-07
vn 0.010894775 -1 1.7881393E-07
vn 1 0 0
vn 1 0 0
vn 1 0 0
vn 1 0 0
vn -0 1 0
vn -0 1 0
vn -0 1 0
vn -0 1 0
vn 0.024978638 0.9995117 0
vn 0.024978638 0.9995117 0
vn 0.024978638 0.9995117 0
vn 0.024978638 0.9995117 0
vn -1 0.0031013489 0
vn -1 0.0031013489 0
vn -1 0.0031013489 0
vn -1 0.0031013489 0
vn 1 8.46386E-06 0
vn 1 8.46386E-06 0
vn 1 8.46386E-06 0
vn 1 8.46386E-06 0
vn 0.0045280457 -1 1.7881393E-07
vn 0.0045280457 -1 1.7881393E-07
vn 0.0045280457 -1 1.7881393E-07
vn 0.0045280457 -1 1.7881393E-07
vn 0.0035648346 1 -1.7881393E-07
vn 0.0035648346 1 -1.7881393E-07
vn 0.0035648346 1 -1.7881393E-07
vn 0.0035648346 1 -1.7881393E-07
vn 0.004951477 -1 0
vn 0.004951477 -1 0
vn 0.004951477 -1 0
vn 0.004951477 -1 0
vn 1 0.003709793 0
vn 1 0.003709793 0
vn 1 0.003709793 0
vn 1 0.003709793 0
vn -0.0026416779 -1 0
vn -0.0026416779 -1 0
vn -0.0026416779 -1 0
vn -0.0026416779 -1 0
vn 1 0.0012435913 0
vn 1 0.0012435913 0
vn 1 0.0012435913 0
vn 1 0.0012435913 0
vn -0.02130127 -1 1.7881393E-07
vn -0.02130127 -1 1.7881393E-07
vn -0.02130127 -1 1.7881393E-07
vn -0.02130127 -1 1.7881393E-07
vn -0 1 -1.7881393E-07
vn -0 1 -1.7881393E-07
vn -0 1 -1.7881393E-07
vn -0 1 -1.7881393E-07
vn 1 0 0
vn 1 0 0
vn 1 0 0
vn 1 0 0
vn 1 -0.0061416626 1.7881393E-07
vn 1 -0.0061416626 1.7881393E-07
vn 1 -0.0061416626 1.7881393E-07
vn 1 -0.0061416626 1.7881393E-07
vn -0 -1 1.7881393E-07
vn -0 -1 1.7881393E-07
vn -0 -1 1.7881393E-07
vn -0 -1 1.7881393E-07
vn 1 -0.0014667511 -1.7881393E-07
vn 1 -0.0014667511 -1.7881393E-07
vn 1 -0.0014667511 -1.7881393E-07
vn 1 -0.0014667511 -1.7881393E-07
vn 1 0.007358551 0
vn 1 0.007358551 0
vn 1 0.007358551 0
vn 1 0.007358551 0
vn 0.018554688 -1 1.7881393E-07
vn 0.018554688 -1 1.7881393E-07
vn 0.018554688 -1 1.7881393E-07
vn 0.018554688 -1 1.7881393E-07
vn -0.0060195923 -1 1.7881393E-07
vn -0.0060195923 -1 1.7881393E-07
vn -0.0060195923 -1 1.7881393E-07
vn -0.0060195923 -1 1.7881393E-07
vn 1 0.005367279 0
vn 1 0.005367279 0
vn 1 0.005367279 0
vn 1 0.005367279 0
vn 1 0.0022449493 0
vn 1 0.0022449493 0
vn 1 0.0022449493 0
vn 1 0.0022449493 0
vn 0.004211426 -1 1.1920929E-07
vn 0.004211426 -1 1.1920929E-07
vn 0.004211426 -1 1.1920929E-07
vn 0.004211426 -1 1.1920929E-07
vn -0.013916016 -1 0
vn -0.013916016 -1 0
vn -0.013916016 -1 0
vn -0.013916016 -1 0
vn -1 -0.001077652 0
vn -1 -0.001077652 0
vn -1 -0.001077652 0
vn -1 -0.001077652 0
vn 2.503395E-05 -1 0
vn 2.503395E-05 -1 0
vn 2.503395E-05 -1 0
vn 2.503395E-05 -1 0
vn -1 0.0023078918 0
vn -1 0.0023078918 0
vn -1 0.0023078918 0
vn -1 0.0023078918 0
vn 0.004043579 -1 0
vn 0.004043579 -1 0
vn 0.004043579 -1 0
vn 0.004043579 -1 0
vn 1 0 1.7881393E-07
vn 1 0 1.7881393E-07
vn 1 0 1.7881393E-07
vn 1 0 1.7881393E-07
vn 0.00308609 -1 2.3841858E-07
vn 0.00308609 -1 2.3841858E-07
vn 0.00308609 -1 2.3841858E-07
vn 0.00308609 -1 2.3841858E-07
vn 0.00868988 -1 1.7881393E-07
vn 0.00868988 -1 1.7881393E-07
vn 0.00868988 -1 1.7881393E-07
vn 0.00868988 -1 1.7881393E-07
vn -1 0.014694214 1.7881393E-07
vn -1 0.014694214 1.7881393E-07
vn -1 0.014694214 1.7881393E-07
vn -1 0.014694214 1.7881393E-07
vn 0.0028381348 -1 1.1920929E-07
vn 0.0028381348 -1 1.1920929E-07
vn 0.0028381348 -1 1.1920929E-07
vn 0.0028381348 -1 1.1920929E-07
vn 1 0 1.7881393E-07
vn 1 0 1.7881393E-07
vn 1 0 1.7881393E-07
vn 1 0 1.7881393E-07
vn -1 0 0
vn -1 0 0
vn -1 0 0
vn -1 0 0
vn 0.0027751923 -1 0
vn 0.0027751923 -1 0
vn 0.0027751923 -1 0
vn 0.0027751923 -1 0
vn -0 0 1
vn -0 0 1
vn -0 0 1
vn -0 0 1
vn -0 0 1
vn -0 0 1
vn -0 0 1
vn -0 0 1
vn -0 0 1
vn -0 0 1
vn -0 0 1
vn -0 0 1
vn -0 -1.1920929E-06 1
vn -0 0 1
vn -0 4.7683716E-07 1
vn -0 -5.9604645E-07 1
vn -0 1.1920929E-07 1
vn -0 -1.1920929E-06 1
vn -0 0 1
vn -0 0 1
vn -0 0 1
vn -0 4.7683716E-07 1
vn -0 0 1
vn -0 0 1
vn -0 1.1920929E-07 1
vn -0 0 1
vn -0 0 1
vn -0 0 1
vn -0 0 1
vn -0 0 1
vn -0 0 1
vn -0 0 1
vn -0 0 1
vn -0 0 1
vn -0 0 1
vn -0 1.1920929E-07 1
vn -0 1.1920929E-07 1
vn -0 1.1920929E-07 1
vn -0 0 1
vn -0 0 1
vn -0 0 1
vn -0 0 1
vn -0 0 1
vn -0 0 1
g Rocks_Small_017_0
f 3/3/3 2/2/2 1/1/1
f 4/4/4 3/3/3 1/1/1
f 4/4/4 1/1/1 5/5/5
f 5/5/5 6/6/6 4/4/4
f 5/5/5 1/1/1 7/7/7
f 1/1/1 8/8/8 7/7/7
f 4/4/4 9/9/9 3/3/3
f 4/4/4 10/10/10 9/9/9
f 11/11/11 5/5/5 7/7/7
f 11/11/11 12/12/12 5/5/5
f 13/13/13 11/11/11 7/7/7
f 13/13/13 14/14/14 11/11/11
f 13/13/13 7/7/7 15/15/15
f 7/7/7 16/16/16 15/15/15
f 17/17/17 13/13/13 15/15/15
f 18/18/18 13/13/13 17/17/17
f 9/9/9 19/19/19 3/3/3
f 9/9/9 20/20/20 19/19/19
f 15/15/15 21/21/21 17/17/17
f 22/22/22 21/21/21 15/15/15
f 19/19/19 23/23/23 3/3/3
f 19/19/19 24/24/24 23/23/23
f 17/17/17 21/21/21 25/25/25
f 25/25/25 21/21/21 26/26/26
f 27/27/27 25/25/25 26/26/26
f 23/23/23 28/28/28 3/3/3
f 23/23/23 29/29/29 28/28/28
f 28/28/28 30/30/30 3/3/3
f 31/31/31 30/30/30 28/28/28
f 30/30/30 32/32/32 3/3/3
f 33/33/33 3/3/3 32/32/32
f 30/30/30 34/34/34 32/32/32
f 34/34/34 35/35/35 32/32/32
f 25/25/25 36/36/36 17/17/17
f 36/36/36 37/37/37 17/17/17
f 37/37/37 38/38/38 17/17/17
f 39/39/39 36/36/36 25/25/25
f 39/39/39 40/40/40 36/36/36
f 41/41/41 39/39/39 25/25/25
f 25/25/25 42/42/42 41/41/41
f 41/41/41 43/43/43 39/39/39
f 43/43/43 44/44/44 39/39/39
f 47/47/47 46/46/46 45/45/45
f 48/48/48 47/47/47 45/45/45
f 51/51/51 50/50/50 49/49/49
f 52/52/52 51/51/51 49/49/49
f 55/55/55 54/54/54 53/53/53
f 56/56/56 55/55/55 53/53/53
f 59/59/59 58/58/58 57/57/57
f 60/60/60 59/59/59 57/57/57
f 63/63/63 62/62/62 61/61/61
f 64/64/64 63/63/63 61/61/61
f 67/67/67 66/66/66 65/65/65
f 68/68/68 67/67/67 65/65/65
f 71/71/71 70/70/70 69/69/69
f 72/72/72 71/71/71 69/69/69
f 75/75/75 74/74/74 73/73/73
f 76/76/76 75/75/75 73/73/73
f 79/79/79 78/78/78 77/77/77
f 80/80/80 79/79/79 77/77/77
f 83/83/83 82/82/82 81/81/81
f 84/84/84 83/83/83 81/81/81
f 87/87/87 86/86/86 85/85/85
f 88/88/88 87/87/87 85/85/85
f 91/91/91 90/90/90 89/89/89
f 92/92/92 91/91/91 89/89/89
f 95/95/95 94/94/94 93/93/93
f 96/96/96 95/95/95 93/93/93
f 99/99/99 98/98/98 97/97/97
f 100/100/100 99/99/99 97/97/97
f 103/103/103 102/102/102 101/101/101
f 104/104/104 103/103/103 101/101/101
f 107/107/107 106/106/106 105/105/105
f 108/108/108 107/107/107 105/105/105
f 111/111/111 110/110/110 109/109/109
f 112/112/112 111/111/111 109/109/109
f 115/115/115 114/114/114 113/113/113
f 116/116/116 115/115/115 113/113/113
f 119/119/119 118/118/118 117/117/117
f 120/120/120 119/119/119 117/117/117
f 123/123/123 122/122/122 121/121/121
f 124/124/124 123/123/123 121/121/121
f 127/127/127 126/126/126 125/125/125
f 128/128/128 127/127/127 125/125/125
f 131/131/131 130/130/130 129/129/129
f 132/132/132 131/131/131 129/129/129
f 135/135/135 134/134/134 133/133/133
f 136/136/136 135/135/135 133/133/133
f 139/139/139 138/138/138 137/137/137
f 140/140/140 139/139/139 137/137/137
f 143/143/143 142/142/142 141/141/141
f 144/144/144 143/143/143 141/141/141
f 147/147/147 146/146/146 145/145/145
f 148/148/148 147/147/147 145/145/145
f 151/151/151 150/150/150 149/149/149
f 152/152/152 151/151/151 149/149/149
f 155/155/155 154/154/154 153/153/153
f 156/156/156 155/155/155 153/153/153
f 159/159/159 158/158/158 157/157/157
f 160/160/160 159/159/159 157/157/157
f 163/163/163 162/162/162 161/161/161
f 164/164/164 163/163/163 161/161/161
f 167/167/167 166/166/166 165/165/165
f 168/168/168 167/167/167 165/165/165
f 171/171/171 170/170/170 169/169/169
f 172/172/172 171/171/171 169/169/169
f 175/175/175 174/174/174 173/173/173
f 176/176/176 175/175/175 173/173/173
f 179/179/179 178/178/178 177/177/177
f 180/180/180 179/179/179 177/177/177
f 183/183/183 182/182/182 181/181/181
f 184/184/184 183/183/183 181/181/181
f 187/187/187 186/186/186 185/185/185
f 188/188/188 187/187/187 185/185/185
f 191/191/191 190/190/190 189/189/189
f 192/192/192 191/191/191 189/189/189
f 195/195/195 194/194/194 193/193/193
f 196/196/196 195/195/195 193/193/193
f 199/199/199 198/198/198 197/197/197
f 200/200/200 199/199/199 197/197/197
f 203/203/203 202/202/202 201/201/201
f 204/204/204 203/203/203 201/201/201
f 207/207/207 206/206/206 205/205/205
f 208/208/208 207/207/207 205/205/205
f 211/211/211 210/210/210 209/209/209
f 212/212/212 211/211/211 209/209/209
f 215/215/215 214/214/214 213/213/213
f 216/216/216 215/215/215 213/213/213
f 219/219/219 218/218/218 217/217/217
f 220/220/220 219/219/219 217/217/217
f 223/223/223 222/222/222 221/221/221
f 222/222/222 224/224/224 221/221/221
f 221/221/221 224/224/224 225/225/225
f 226/226/226 225/225/225 224/224/224
f 221/221/221 225/225/225 227/227/227
f 228/228/228 221/221/221 227/227/227
f 229/229/229 224/224/224 222/222/222
f 230/230/230 224/224/224 229/229/229
f 225/225/225 231/231/231 227/227/227
f 232/232/232 231/231/231 225/225/225
f 231/231/231 233/233/233 227/227/227
f 234/234/234 233/233/233 231/231/231
f 227/227/227 233/233/233 235/235/235
f 236/236/236 227/227/227 235/235/235
f 233/233/233 237/237/237 235/235/235
f 233/233/233 238/238/238 237/237/237
f 239/239/239 229/229/229 222/222/222
f 240/240/240 229/229/229 239/239/239
f 241/241/241 235/235/235 237/237/237
f 241/241/241 242/242/242 235/235/235
f 243/243/243 239/239/239 222/222/222
f 244/244/244 239/239/239 243/243/243
f 241/241/241 237/237/237 245/245/245
f 241/241/241 245/245/245 246/246/246
f 245/245/245 247/247/247 246/246/246
f 248/248/248 243/243/243 222/222/222
f 249/249/249 243/243/243 248/248/248
f 250/250/250 248/248/248 222/222/222
f 250/250/250 251/251/251 248/248/248
f 252/252/252 250/250/250 222/222/222
f 222/222/222 253/253/253 252/252/252
f 254/254/254 250/250/250 252/252/252
f 255/255/255 254/254/254 252/252/252
f 256/256/256 245/245/245 237/237/237
f 257/257/257 256/256/256 237/237/237
f 258/258/258 257/257/257 237/237/237
f 256/256/256 259/259/259 245/245/245
f 260/260/260 259/259/259 256/256/256
f 259/259/259 261/261/261 245/245/245
f 262/262/262 245/245/245 261/261/261
f 263/263/263 261/261/261 259/259/259
f 264/264/264 263/263/263 259/259/259
