g Rock_Moray_Eel
v -1.0116528 0.6888428 0.3217855
v -1.0349365 0.6305956 0.35677445
v -1.0579858 0.64507055 0.2886783
v 0.06733215 0.7745752 -0.08154787
v 0.09060486 0.7355995 -0.13720614
v 0.113663934 0.72112286 -0.0691022
v -1.058225 0.5710487 0.39149353
v -1.0676819 0.5961051 0.27361226
v -1.0349365 0.6305956 0.35677445
v -1.0579858 0.64507055 0.2886783
v -1.0349365 0.6305956 0.35677445
v -1.0676819 0.5961051 0.27361226
v -0.27064452 0.5072866 0.6914706
v -0.3731079 0.49379143 0.75496036
v -0.2802014 0.55812997 0.69769543
v -0.6736859 0.75908476 -0.49312338
v -0.5712201 0.7725771 -0.55660284
v -0.66412413 0.80806404 -0.47812524
v 0.11389591 0.6953196 -0.19313474
v 0.123353876 0.6702644 -0.075259425
v 0.09060486 0.7355995 -0.13720614
v 0.113663934 0.72112286 -0.0691022
v 0.09060486 0.7355995 -0.13720614
v 0.123353876 0.6702644 -0.075259425
v -0.24728611 0.6855142 0.20472908
v -0.25583708 0.6332106 0.25320768
v -0.30059066 0.63829786 0.19533576
v 0.6360954 0.7062003 -0.7395764
v 0.6408079 0.6593498 -0.7938104
v 0.68557125 0.6542607 -0.7359337
v -0.26444274 0.57958233 0.3016185
v -0.31320435 0.5878672 0.191315
v -0.25583708 0.6332106 0.25320768
v -0.30059066 0.63829786 0.19533576
v -0.25583708 0.6332106 0.25320768
v -0.31320435 0.5878672 0.191315
v 0.4860117 0.54826146 0.34186926
v 0.41085088 0.5456416 0.43703115
v 0.47748742 0.5996308 0.34378096
v -0.104974516 0.6424905 -0.88838196
v -0.029808274 0.6451096 -0.9835346
v -0.092507705 0.6929279 -0.8843823
v 0.6454852 0.6111689 -0.84812254
v 0.6942483 0.6028843 -0.73782545
v 0.6408079 0.6593498 -0.7938104
v 0.68557125 0.6542607 -0.7359337
v 0.6408079 0.6593498 -0.7938104
v 0.6942483 0.6028843 -0.73782545
v -0.46606123 0.34655896 0.8687416
v -0.47881335 0.29439804 0.9164473
v -0.52519894 0.3065476 0.860963
v 0.49277365 0.23321766 0.2649018
v 0.4891194 0.18764839 0.20950466
v 0.53551704 0.17549646 0.26499274
v -0.49178573 0.24093154 0.9640555
v -0.5441648 0.25818565 0.8564816
v -0.47881335 0.29439804 0.9164473
v -0.52519894 0.3065476 0.860963
v -0.47881335 0.29439804 0.9164473
v -0.5441648 0.25818565 0.8564816
v 0.47363594 0.07897957 0.9638153
v 0.40319106 0.08303337 1.0624708
v 0.4716632 0.1309358 0.9672474
v -0.48016393 0.30272147 0.1542374
v -0.40971687 0.2986655 0.05558834
v -0.46134993 0.35110942 0.15870468
v 0.48525986 0.14076711 0.15400554
v 0.53763777 0.12351379 0.26157263
v 0.4891194 0.18764839 0.20950466
v 0.53551704 0.17549646 0.26499274
v 0.4891194 0.18764839 0.20950466
v 0.53763777 0.12351379 0.26157263
v -0.32653686 0.61158407 0.6852558
v -0.2802014 0.55812997 0.69769543
v -0.34982544 0.55333805 0.72024274
v -0.3731079 0.49379143 0.75496036
v -0.6177875 0.8518321 -0.44501323
v -0.66412413 0.80806404 -0.47812524
v -0.5945062 0.81285644 -0.5006718
v -0.5712201 0.7725771 -0.55660284
v -1.0116528 0.6888428 0.3217855
v -0.32653686 0.61158407 0.6852558
v -1.0349365 0.6305956 0.35677445
v -0.34982544 0.55333805 0.72024274
v -1.058225 0.5710487 0.39149353
v -0.3731079 0.49379143 0.75496036
v 0.113663934 0.72112286 -0.0691022
v -0.2802014 0.55812997 0.69769543
v 0.06733215 0.7745752 -0.08154787
v -0.32653686 0.61158407 0.6852558
v 0.06733215 0.7745752 -0.08154787
v -0.6177875 0.8518321 -0.44501323
v 0.09060486 0.7355995 -0.13720614
v -0.5945062 0.81285644 -0.5006718
v 0.11389591 0.6953196 -0.19313474
v -0.5712201 0.7725771 -0.55660284
v -1.0579858 0.64507055 0.2886783
v -0.66412413 0.80806404 -0.47812524
v -1.0116528 0.6888428 0.3217855
v -0.6177875 0.8518321 -0.44501323
v 0.123353876 0.6702644 -0.075259425
v -0.27064452 0.5072866 0.6914706
v 0.113663934 0.72112286 -0.0691022
v -0.2802014 0.55812997 0.69769543
v -1.0676819 0.5961051 0.27361226
v -0.6736859 0.75908476 -0.49312338
v -1.0579858 0.64507055 0.2886783
v -0.66412413 0.80806404 -0.47812524
v 0.42800802 0.6515732 0.34014532
v 0.47748742 0.5996308 0.34378096
v 0.4194522 0.59926975 0.3886244
v 0.41085088 0.5456416 0.43703115
v -0.03919884 0.7401409 -0.87498564
v -0.092507705 0.6929279 -0.8843823
v -0.034480512 0.69328904 -0.9292225
v -0.029808274 0.6451096 -0.9835346
v -0.24728611 0.6855142 0.20472908
v 0.42800802 0.6515732 0.34014532
v -0.25583708 0.6332106 0.25320768
v 0.4194522 0.59926975 0.3886244
v -0.26444274 0.57958233 0.3016185
v 0.41085088 0.5456416 0.43703115
v 0.68557125 0.6542607 -0.7359337
v 0.47748742 0.5996308 0.34378096
v 0.6360954 0.7062003 -0.7395764
v 0.42800802 0.6515732 0.34014532
v 0.6360954 0.7062003 -0.7395764
v -0.03919884 0.7401409 -0.87498564
v 0.6408079 0.6593498 -0.7938104
v -0.034480512 0.69328904 -0.9292225
v 0.6454852 0.6111689 -0.84812254
v -0.029808274 0.6451096 -0.9835346
v -0.30059066 0.63829786 0.19533576
v -0.092507705 0.6929279 -0.8843823
v -0.24728611 0.6855142 0.20472908
v -0.03919884 0.7401409 -0.87498564
v 0.6942483 0.6028843 -0.73782545
v 0.4860117 0.54826146 0.34186926
v 0.68557125 0.6542607 -0.7359337
v 0.47748742 0.5996308 0.34378096
v -0.31320435 0.5878672 0.191315
v -0.104974516 0.6424905 -0.88838196
v -0.30059066 0.63829786 0.19533576
v -0.092507705 0.6929279 -0.8843823
v 0.42891562 0.18866098 0.967162
v 0.4716632 0.1309358 0.9672474
v 0.4161598 0.1365001 1.0148661
v 0.40319106 0.08303337 1.0624708
v -0.40220428 0.39111593 0.16648757
v -0.46134993 0.35110942 0.15870468
v -0.4058525 0.34554583 0.11108856
v -0.40971687 0.2986655 0.05558834
v -0.46606123 0.34655896 0.8687416
v 0.42891562 0.18866098 0.967162
v -0.47881335 0.29439804 0.9164473
v 0.4161598 0.1365001 1.0148661
v -0.49178573 0.24093154 0.9640555
v 0.40319106 0.08303337 1.0624708
v 0.53551704 0.17549646 0.26499274
v 0.4716632 0.1309358 0.9672474
v 0.49277365 0.23321766 0.2649018
v 0.42891562 0.18866098 0.967162
v 0.49277365 0.23321766 0.2649018
v -0.40220428 0.39111593 0.16648757
v 0.4891194 0.18764839 0.20950466
v -0.4058525 0.34554583 0.11108856
v 0.48525986 0.14076711 0.15400554
v -0.40971687 0.2986655 0.05558834
v -0.52519894 0.3065476 0.860963
v -0.46134993 0.35110942 0.15870468
v -0.46606123 0.34655896 0.8687416
v -0.40220428 0.39111593 0.16648757
v 0.53763777 0.12351379 0.26157263
v 0.47363594 0.07897957 0.9638153
v 0.53551704 0.17549646 0.26499274
v 0.4716632 0.1309358 0.9672474
v -0.5441648 0.25818565 0.8564816
v -0.48016393 0.30272147 0.1542374
v -0.52519894 0.3065476 0.860963
v -0.46134993 0.35110942 0.15870468
v -0.3731079 0.49379143 0.75496036
v -0.27064452 0.5072866 0.6914706
v -0.37696776 -0.20859298 0.6135219
v -0.27450803 -0.19509761 0.5500312
v -0.37696776 -0.20859298 0.6135219
v -0.27064452 0.5072866 0.6914706
v -1.0620812 -0.13133518 0.25005543
v -1.0715479 -0.10627864 0.13217387
v -1.058225 0.5710487 0.39149353
v -1.0676819 0.5961051 0.27361226
v -1.058225 0.5710487 0.39149353
v -1.0715479 -0.10627864 0.13217387
v 0.123353876 0.6702644 -0.075259425
v 0.11389591 0.6953196 -0.19313474
v 0.12335392 -0.030521926 -0.22421587
v 0.11389591 -0.005466766 -0.34209105
v 0.12335392 -0.030521926 -0.22421587
v 0.11389591 0.6953196 -0.19313474
v -0.5712201 0.7725771 -0.55660284
v -0.6736859 0.75908476 -0.49312338
v -0.57121766 0.07179138 -0.7055593
v -0.67367977 0.05829742 -0.6420752
v -0.57121766 0.07179138 -0.7055593
v -0.6736859 0.75908476 -0.49312338
v -1.0715479 -0.10627864 0.13217387
v -1.0620812 -0.13133518 0.25005543
v -1.0155053 -0.15945213 0.14933746
v -0.27450803 -0.19509761 0.5500312
v -0.33040527 -0.2367083 0.5127964
v -0.37696776 -0.20859298 0.6135219
v -0.57121766 0.07179138 -0.7055593
v -0.67367977 0.05829742 -0.6420752
v -0.6177875 0.0051392363 -0.6249835
v 0.11389591 -0.005466766 -0.34209105
v 0.06733097 -0.0721183 -0.26151812
v 0.12335392 -0.030521926 -0.22421587
v 0.41085088 0.5456416 0.43703115
v 0.4860117 0.54826146 0.34186926
v 0.38214958 -0.3582067 0.4040706
v 0.45730674 -0.35558662 0.30890867
v 0.38214958 -0.3582067 0.4040706
v 0.4860117 0.54826146 0.34186926
v -0.29314408 -0.32426596 0.268658
v -0.34191284 -0.31598273 0.15835682
v -0.26444274 0.57958233 0.3016185
v -0.31320435 0.5878672 0.191315
v -0.26444274 0.57958233 0.3016185
v -0.34191284 -0.31598273 0.15835682
v 0.6942483 0.6028843 -0.73782545
v 0.6454852 0.6111689 -0.84812254
v 0.666643 -0.30051276 -0.77930313
v 0.61787975 -0.29222807 -0.8896005
v 0.666643 -0.30051276 -0.77930313
v 0.6454852 0.6111689 -0.84812254
v -0.029808274 0.6451096 -0.9835346
v -0.104974516 0.6424905 -0.88838196
v -0.057410277 -0.25828728 -1.0250148
v -0.13257088 -0.26090676 -0.9298582
v -0.057410277 -0.25828728 -1.0250148
v -0.104974516 0.6424905 -0.88838196
v -0.34191284 -0.31598273 0.15835682
v -0.29314408 -0.32426596 0.268658
v -0.28172714 -0.367145 0.16313396
v 0.45730674 -0.35558662 0.30890867
v 0.39354745 -0.4010849 0.29854414
v 0.38214958 -0.3582067 0.4040706
v -0.057410277 -0.25828728 -1.0250148
v -0.13257088 -0.26090676 -0.9298582
v -0.07255035 -0.3120617 -0.9251004
v 0.61787975 -0.29222807 -0.8896005
v 0.60274273 -0.34600243 -0.7896901
v 0.666643 -0.30051276 -0.77930313
v 0.40319106 0.08303337 1.0624708
v 0.47363594 0.07897957 0.9638153
v 0.2520742 -0.8137698 1.0004852
v 0.32251304 -0.8178226 0.90182847
v 0.2520742 -0.8137698 1.0004852
v 0.47363594 0.07897957 0.9638153
v -0.64290357 -0.6558708 0.9020694
v -0.6952899 -0.63861555 0.7944977
v -0.49178573 0.24093154 0.9640555
v -0.5441648 0.25818565 0.8564816
v -0.49178573 0.24093154 0.9640555
v -0.6952899 -0.63861555 0.7944977
v 0.53763777 0.12351379 0.26157263
v 0.48525986 0.14076711 0.15400554
v 0.3872721 -0.77274245 0.19103691
v 0.33489433 -0.7554892 0.08346893
v 0.3872721 -0.77274245 0.19103691
v 0.48525986 0.14076711 0.15400554
v -0.40971687 0.2986655 0.05558834
v -0.48016393 0.30272147 0.1542374
v -0.5600812 -0.59759027 -0.014948807
v -0.6305223 -0.59353614 0.08370315
v -0.5600812 -0.59759027 -0.014948807
v -0.48016393 0.30272147 0.1542374
v -0.6952899 -0.63861555 0.7944977
v -0.64290357 -0.6558708 0.9020694
v -0.641781 -0.6969171 0.7952138
v 0.32251304 -0.8178226 0.90182847
v 0.2531801 -0.8548129 0.8936296
v 0.2520742 -0.8137698 1.0004852
v -0.5600812 -0.59759027 -0.014948807
v -0.6305223 -0.59353614 0.08370315
v -0.57717824 -0.65180916 0.08440738
v 0.33489433 -0.7554892 0.08346893
v 0.31780082 -0.80970824 0.18282196
v 0.3872721 -0.77274245 0.19103691
v -1.058225 0.5710487 0.39149353
v -0.3731079 0.49379143 0.75496036
v -1.0620812 -0.13133518 0.25005543
v -0.37696776 -0.20859298 0.6135219
v -0.27064452 0.5072866 0.6914706
v 0.123353876 0.6702644 -0.075259425
v -0.27450803 -0.19509761 0.5500312
v 0.12335392 -0.030521926 -0.22421587
v 0.11389591 0.6953196 -0.19313474
v -0.5712201 0.7725771 -0.55660284
v 0.11389591 -0.005466766 -0.34209105
v -0.57121766 0.07179138 -0.7055593
v -0.6736859 0.75908476 -0.49312338
v -1.0676819 0.5961051 0.27361226
v -0.67367977 0.05829742 -0.6420752
v -1.0715479 -0.10627864 0.13217387
v -0.6177875 0.0051392363 -0.6249835
v -0.67367977 0.05829742 -0.6420752
v -1.0155053 -0.15945213 0.14933746
v -1.0715479 -0.10627864 0.13217387
v 0.06733097 -0.0721183 -0.26151812
v 0.11389591 -0.005466766 -0.34209105
v -0.6177875 0.0051392363 -0.6249835
v -0.57121766 0.07179138 -0.7055593
v -0.33040527 -0.2367083 0.5127964
v -0.27450803 -0.19509761 0.5500312
v 0.06733097 -0.0721183 -0.26151812
v 0.12335392 -0.030521926 -0.22421587
v -1.0155053 -0.15945213 0.14933746
v -1.0620812 -0.13133518 0.25005543
v -0.33040527 -0.2367083 0.5127964
v -0.37696776 -0.20859298 0.6135219
v -0.26444274 0.57958233 0.3016185
v 0.41085088 0.5456416 0.43703115
v -0.29314408 -0.32426596 0.268658
v 0.38214958 -0.3582067 0.4040706
v 0.4860117 0.54826146 0.34186926
v 0.6942483 0.6028843 -0.73782545
v 0.45730674 -0.35558662 0.30890867
v 0.666643 -0.30051276 -0.77930313
v 0.6454852 0.6111689 -0.84812254
v -0.029808274 0.6451096 -0.9835346
v 0.61787975 -0.29222807 -0.8896005
v -0.057410277 -0.25828728 -1.0250148
v -0.104974516 0.6424905 -0.88838196
v -0.31320435 0.5878672 0.191315
v -0.13257088 -0.26090676 -0.9298582
v -0.34191284 -0.31598273 0.15835682
v -0.07255035 -0.3120617 -0.9251004
v -0.13257088 -0.26090676 -0.9298582
v -0.28172714 -0.367145 0.16313396
v -0.34191284 -0.31598273 0.15835682
v 0.60274273 -0.34600243 -0.7896901
v 0.61787975 -0.29222807 -0.8896005
v -0.07255035 -0.3120617 -0.9251004
v -0.057410277 -0.25828728 -1.0250148
v 0.39354745 -0.4010849 0.29854414
v 0.45730674 -0.35558662 0.30890867
v 0.60274273 -0.34600243 -0.7896901
v 0.666643 -0.30051276 -0.77930313
v -0.28172714 -0.367145 0.16313396
v -0.29314408 -0.32426596 0.268658
v 0.39354745 -0.4010849 0.29854414
v 0.38214958 -0.3582067 0.4040706
v -0.49178573 0.24093154 0.9640555
v 0.40319106 0.08303337 1.0624708
v -0.64290357 -0.6558708 0.9020694
v 0.2520742 -0.8137698 1.0004852
v 0.47363594 0.07897957 0.9638153
v 0.53763777 0.12351379 0.26157263
v 0.32251304 -0.8178226 0.90182847
v 0.3872721 -0.77274245 0.19103691
v 0.48525986 0.14076711 0.15400554
v -0.40971687 0.2986655 0.05558834
v 0.33489433 -0.7554892 0.08346893
v -0.5600812 -0.59759027 -0.014948807
v -0.48016393 0.30272147 0.1542374
v -0.5441648 0.25818565 0.8564816
v -0.6305223 -0.59353614 0.08370315
v -0.6952899 -0.63861555 0.7944977
v -0.57717824 -0.65180916 0.08440738
v -0.6305223 -0.59353614 0.08370315
v -0.641781 -0.6969171 0.7952138
v -0.6952899 -0.63861555 0.7944977
v 0.31780082 -0.80970824 0.18282196
v 0.33489433 -0.7554892 0.08346893
v -0.57717824 -0.65180916 0.08440738
v -0.5600812 -0.59759027 -0.014948807
v 0.2531801 -0.8548129 0.8936296
v 0.32251304 -0.8178226 0.90182847
v 0.31780082 -0.80970824 0.18282196
v 0.3872721 -0.77274245 0.19103691
v -0.641781 -0.6969171 0.7952138
v -0.64290357 -0.6558708 0.9020694
v 0.2531801 -0.8548129 0.8936296
v 0.2520742 -0.8137698 1.0004852
v -0.33040527 -0.2367083 0.5127964
v 0.06733097 -0.0721183 -0.26151812
v -1.0155053 -0.15945213 0.14933746
v -0.6177875 0.0051392363 -0.6249835
v 0.39354745 -0.4010849 0.29854414
v 0.60274273 -0.34600243 -0.7896901
v -0.28172714 -0.367145 0.16313396
v -0.07255035 -0.3120617 -0.9251004
v 0.2531801 -0.8548129 0.8936296
v 0.31780082 -0.80970824 0.18282196
v -0.641781 -0.6969171 0.7952138
v -0.57717824 -0.65180916 0.08440738
v -0.6177875 0.8518321 -0.44501323
v 0.06733215 0.7745752 -0.08154787
v -1.0116528 0.6888428 0.3217855
v -0.32653686 0.61158407 0.6852558
v -0.03919884 0.7401409 -0.87498564
v 0.6360954 0.7062003 -0.7395764
v -0.24728611 0.6855142 0.20472908
v 0.42800802 0.6515732 0.34014532
v -0.40220428 0.39111593 0.16648757
v 0.49277365 0.23321766 0.2649018
v -0.46606123 0.34655896 0.8687416
v 0.42891562 0.18866098 0.967162
vt 0.03289795 0.9404297
vt 0.03289795 0.61035156
vt 0.03289795 0.61035156
vt 0.027618408 0.9404297
vt 0.027618408 0.61035156
vt 0.027618408 0.61035156
vt 0.03289795 0.028457642
vt 0.03289795 0.028457642
vt 0.03289795 0.61035156
vt 0.03289795 0.61035156
vt 0.03289795 0.61035156
vt 0.03289795 0.028457642
vt 0.027618408 0.028457642
vt 0.027618408 0.028457642
vt 0.027618408 0.61035156
vt 0.027618408 0.028457642
vt 0.027618408 0.028457642
vt 0.027618408 0.61035156
vt 0.027618408 0.028457642
vt 0.027618408 0.028457642
vt 0.027618408 0.61035156
vt 0.027618408 0.61035156
vt 0.027618408 0.61035156
vt 0.027618408 0.028457642
vt 0.03289795 0.9404297
vt 0.03289795 0.61035156
vt 0.03289795 0.61035156
vt 0.027618408 0.9404297
vt 0.027618408 0.61035156
vt 0.027618408 0.61035156
vt 0.03289795 0.028457642
vt 0.03289795 0.028457642
vt 0.03289795 0.61035156
vt 0.03289795 0.61035156
vt 0.03289795 0.61035156
vt 0.03289795 0.028457642
vt 0.027618408 0.028457642
vt 0.027618408 0.028457642
vt 0.027618408 0.61035156
vt 0.027618408 0.028457642
vt 0.027618408 0.028457642
vt 0.027618408 0.61035156
vt 0.027618408 0.028457642
vt 0.027618408 0.028457642
vt 0.027618408 0.61035156
vt 0.027618408 0.61035156
vt 0.027618408 0.61035156
vt 0.027618408 0.028457642
vt 0.03289795 0.9404297
vt 0.03289795 0.61035156
vt 0.03289795 0.61035156
vt 0.027618408 0.9404297
vt 0.027618408 0.61035156
vt 0.027618408 0.61035156
vt 0.03289795 0.028457642
vt 0.03289795 0.028457642
vt 0.03289795 0.61035156
vt 0.03289795 0.61035156
vt 0.03289795 0.61035156
vt 0.03289795 0.028457642
vt 0.027618408 0.028457642
vt 0.027618408 0.028457642
vt 0.027618408 0.61035156
vt 0.027618408 0.028457642
vt 0.027618408 0.028457642
vt 0.027618408 0.61035156
vt 0.027618408 0.028457642
vt 0.027618408 0.028457642
vt 0.027618408 0.61035156
vt 0.027618408 0.61035156
vt 0.027618408 0.61035156
vt 0.027618408 0.028457642
vt 0.027618408 0.9404297
vt 0.027618408 0.61035156
vt 0.027618408 0.61035156
vt 0.027618408 0.028457642
vt 0.027618408 0.9404297
vt 0.027618408 0.61035156
vt 0.027618408 0.61035156
vt 0.027618408 0.028457642
vt 0.64501953 0.9404297
vt 0.027618408 0.9404297
vt 0.64501953 0.61035156
vt 0.027618408 0.61035156
vt 0.64501953 0.028457642
vt 0.027618408 0.028457642
vt 0.027618408 0.61035156
vt 0.64501953 0.61035156
vt 0.027618408 0.9404297
vt 0.64501953 0.9404297
vt 0.64501953 0.9404297
vt 0.027618408 0.9404297
vt 0.64501953 0.61035156
vt 0.027618408 0.61035156
vt 0.64501953 0.028457642
vt 0.027618408 0.028457642
vt 0.03289795 0.61035156
vt 0.64501953 0.61035156
vt 0.03289795 0.9404297
vt 0.64501953 0.9404297
vt 0.027618408 0.028457642
vt 0.64501953 0.028457642
vt 0.027618408 0.61035156
vt 0.64501953 0.61035156
vt 0.03289795 0.028457642
vt 0.64501953 0.028457642
vt 0.03289795 0.61035156
vt 0.64501953 0.61035156
vt 0.027618408 0.9404297
vt 0.027618408 0.61035156
vt 0.027618408 0.61035156
vt 0.027618408 0.028457642
vt 0.027618408 0.9404297
vt 0.027618408 0.61035156
vt 0.027618408 0.61035156
vt 0.027618408 0.028457642
vt 0.64501953 0.9404297
vt 0.027618408 0.9404297
vt 0.64501953 0.61035156
vt 0.027618408 0.61035156
vt 0.64501953 0.028457642
vt 0.027618408 0.028457642
vt 0.027618408 0.61035156
vt 0.64501953 0.61035156
vt 0.027618408 0.9404297
vt 0.64501953 0.9404297
vt 0.64501953 0.9404297
vt 0.027618408 0.9404297
vt 0.64501953 0.61035156
vt 0.027618408 0.61035156
vt 0.64501953 0.028457642
vt 0.027618408 0.028457642
vt 0.03289795 0.61035156
vt 0.64501953 0.61035156
vt 0.03289795 0.9404297
vt 0.64501953 0.9404297
vt 0.027618408 0.028457642
vt 0.64501953 0.028457642
vt 0.027618408 0.61035156
vt 0.64501953 0.61035156
vt 0.03289795 0.028457642
vt 0.64501953 0.028457642
vt 0.03289795 0.61035156
vt 0.64501953 0.61035156
vt 0.027618408 0.9404297
vt 0.027618408 0.61035156
vt 0.027618408 0.61035156
vt 0.027618408 0.028457642
vt 0.027618408 0.9404297
vt 0.027618408 0.61035156
vt 0.027618408 0.61035156
vt 0.027618408 0.028457642
vt 0.64501953 0.9404297
vt 0.027618408 0.9404297
vt 0.64501953 0.61035156
vt 0.027618408 0.61035156
vt 0.64501953 0.028457642
vt 0.027618408 0.028457642
vt 0.027618408 0.61035156
vt 0.64501953 0.61035156
vt 0.027618408 0.9404297
vt 0.64501953 0.9404297
vt 0.64501953 0.9404297
vt 0.027618408 0.9404297
vt 0.64501953 0.61035156
vt 0.027618408 0.61035156
vt 0.64501953 0.028457642
vt 0.027618408 0.028457642
vt 0.03289795 0.61035156
vt 0.64501953 0.61035156
vt 0.03289795 0.9404297
vt 0.64501953 0.9404297
vt 0.027618408 0.028457642
vt 0.64501953 0.028457642
vt 0.027618408 0.61035156
vt 0.64501953 0.61035156
vt 0.03289795 0.028457642
vt 0.64501953 0.028457642
vt 0.03289795 0.61035156
vt 0.64501953 0.61035156
vt -3.3847656 2.4804688
vt -3.3535156 2.4804688
vt -3.3847656 2.296875
vt -3.3613281 2.2929688
vt -3.3847656 2.296875
vt -3.3535156 2.4804688
vt -2.6328125 2.2910156
vt -2.6621094 2.2929688
vt -2.6328125 2.4804688
vt -2.6621094 2.4804688
vt -2.6328125 2.4804688
vt -2.6621094 2.2929688
vt -3.1347656 2.4804688
vt -3.1015625 2.4804688
vt -3.1347656 2.2929688
vt -3.1113281 2.296875
vt -3.1347656 2.2929688
vt -3.1015625 2.4804688
vt -2.9082031 2.4804688
vt -2.875 2.4804688
vt -2.9140625 2.296875
vt -2.890625 2.2929688
vt -2.9140625 2.296875
vt -2.875 2.4804688
vt -2.6621094 2.2929688
vt -2.6328125 2.2910156
vt -2.6621094 2.2734375
vt -3.3613281 2.2929688
vt -3.3730469 2.2714844
vt -3.3847656 2.296875
vt -2.9140625 2.296875
vt -2.890625 2.2929688
vt -2.9042969 2.2714844
vt -3.1113281 2.296875
vt -3.1269531 2.2734375
vt -3.1347656 2.2929688
vt -3.1757812 1.0302734
vt -3.1425781 1.0302734
vt -3.1738281 0.84716797
vt -3.1503906 0.8432617
vt -3.1738281 0.84716797
vt -3.1425781 1.0302734
vt -2.3339844 0.8408203
vt -2.3632812 0.84472656
vt -2.3339844 1.0302734
vt -2.3632812 1.0302734
vt -2.3339844 1.0302734
vt -2.3632812 0.84472656
vt -2.8671875 1.0302734
vt -2.8359375 1.0302734
vt -2.8671875 0.8442383
vt -2.84375 0.84765625
vt -2.8671875 0.8442383
vt -2.8359375 1.0302734
vt -2.6621094 1.0302734
vt -2.6308594 1.0302734
vt -2.671875 0.84814453
vt -2.6484375 0.8442383
vt -2.671875 0.84814453
vt -2.6308594 1.0302734
vt -2.3632812 0.84472656
vt -2.3339844 0.8408203
vt -2.3632812 0.82470703
vt -3.1503906 0.8432617
vt -3.1621094 0.8232422
vt -3.1738281 0.84716797
vt -2.671875 0.84814453
vt -2.6484375 0.8442383
vt -2.6621094 0.8227539
vt -2.84375 0.84765625
vt -2.859375 0.82373047
vt -2.8671875 0.8442383
vt -3.3359375 2.0800781
vt -3.3046875 2.0800781
vt -3.3359375 1.8427734
vt -3.3105469 1.8388672
vt -3.3359375 1.8427734
vt -3.3046875 2.0800781
vt -2.6269531 1.8359375
vt -2.6582031 1.8398438
vt -2.6269531 2.0800781
vt -2.6582031 2.0800781
vt -2.6269531 2.0800781
vt -2.6582031 1.8398438
vt -3.1269531 2.0800781
vt -3.09375 2.0800781
vt -3.1269531 1.8398438
vt -3.1035156 1.8427734
vt -3.1269531 1.8398438
vt -3.09375 2.0800781
vt -2.8652344 2.0800781
vt -2.8320312 2.0800781
vt -2.8691406 1.84375
vt -2.8457031 1.8398438
vt -2.8691406 1.84375
vt -2.8320312 2.0800781
vt -2.6582031 1.8398438
vt -2.6269531 1.8359375
vt -2.6582031 1.8193359
vt -3.3105469 1.8388672
vt -3.3222656 1.8183594
vt -3.3359375 1.8427734
vt -2.8691406 1.84375
vt -2.8457031 1.8398438
vt -2.859375 1.8183594
vt -3.1035156 1.8427734
vt -3.1191406 1.8183594
vt -3.1269531 1.8398438
vt -3.5800781 2.4804688
vt -3.3847656 2.4804688
vt -3.5839844 2.2910156
vt -3.3847656 2.296875
vt -3.3535156 2.4804688
vt -3.1347656 2.4804688
vt -3.3613281 2.2929688
vt -3.1347656 2.2929688
vt -3.1015625 2.4804688
vt -2.9082031 2.4804688
vt -3.1113281 2.296875
vt -2.9140625 2.296875
vt -2.875 2.4804688
vt -2.6621094 2.4804688
vt -2.890625 2.2929688
vt -2.6621094 2.2929688
vt -2.9042969 2.2714844
vt -2.890625 2.2929688
vt -2.6621094 2.2734375
vt -2.6621094 2.2929688
vt -3.1269531 2.2734375
vt -3.1113281 2.296875
vt -2.9042969 2.2714844
vt -2.9140625 2.296875
vt -3.3730469 2.2714844
vt -3.3613281 2.2929688
vt -3.1269531 2.2734375
vt -3.1347656 2.2929688
vt -3.5800781 2.2617188
vt -3.5839844 2.2910156
vt -3.3730469 2.2714844
vt -3.3847656 2.296875
vt -3.3457031 1.0302734
vt -3.1757812 1.0302734
vt -3.3457031 0.8413086
vt -3.1738281 0.84716797
vt -3.1425781 1.0302734
vt -2.8671875 1.0302734
vt -3.1503906 0.8432617
vt -2.8671875 0.8442383
vt -2.8359375 1.0302734
vt -2.6621094 1.0302734
vt -2.84375 0.84765625
vt -2.671875 0.84814453
vt -2.6308594 1.0302734
vt -2.3632812 1.0302734
vt -2.6484375 0.8442383
vt -2.3632812 0.84472656
vt -2.6621094 0.8227539
vt -2.6484375 0.8442383
vt -2.3632812 0.82470703
vt -2.3632812 0.84472656
vt -2.859375 0.82373047
vt -2.84375 0.84765625
vt -2.6621094 0.8227539
vt -2.671875 0.84814453
vt -3.1621094 0.8232422
vt -3.1503906 0.8432617
vt -2.859375 0.82373047
vt -2.8671875 0.8442383
vt -3.34375 0.81103516
vt -3.3457031 0.8413086
vt -3.1621094 0.8232422
vt -3.1738281 0.84716797
vt -3.5644531 2.0800781
vt -3.3359375 2.0800781
vt -3.5703125 1.8388672
vt -3.3359375 1.8427734
vt -3.3046875 2.0800781
vt -3.1269531 2.0800781
vt -3.3105469 1.8388672
vt -3.1269531 1.8398438
vt -3.09375 2.0800781
vt -2.8652344 2.0800781
vt -3.1035156 1.8427734
vt -2.8691406 1.84375
vt -2.8320312 2.0800781
vt -2.6582031 2.0800781
vt -2.8457031 1.8398438
vt -2.6582031 1.8398438
vt -2.859375 1.8183594
vt -2.8457031 1.8398438
vt -2.6582031 1.8193359
vt -2.6582031 1.8398438
vt -3.1191406 1.8183594
vt -3.1035156 1.8427734
vt -2.859375 1.8183594
vt -2.8691406 1.84375
vt -3.3222656 1.8183594
vt -3.3105469 1.8388672
vt -3.1191406 1.8183594
vt -3.1269531 1.8398438
vt -3.5664062 1.8076172
vt -3.5703125 1.8388672
vt -3.3222656 1.8183594
vt -3.3359375 1.8427734
vt 8.2734375 -3.046875
vt 8.4453125 -3.0605469
vt 8.2734375 -3.2128906
vt 8.4453125 -3.2246094
vt 8.2734375 -3.046875
vt 8.4453125 -3.0605469
vt 8.2734375 -3.2128906
vt 8.4453125 -3.2246094
vt 8.2734375 -3.046875
vt 8.4453125 -3.0605469
vt 8.2734375 -3.2128906
vt 8.4453125 -3.2246094
vt 6.8164062 4.1835938
vt 6.8164062 4.046875
vt 6.6757812 4.1757812
vt 6.6757812 4.0351562
vt 6.8164062 4.1835938
vt 6.8164062 4.046875
vt 6.6757812 4.1757812
vt 6.6757812 4.0351562
vt 6.8164062 4.1835938
vt 6.8164062 4.046875
vt 6.6757812 4.1757812
vt 6.6757812 4.0351562
vn -0.7636719 0.5283203 0.3708496
vn -0.7636719 0.5283203 0.3708496
vn -0.7636719 0.5283203 0.3708496
vn 0.76416016 0.6333008 -0.12402344
vn 0.76416016 0.6333008 -0.12402344
vn 0.76416016 0.6333008 -0.12402344
vn -0.8823242 0.44091797 0.16455078
vn -0.8823242 0.44091797 0.16455078
vn -0.8823242 0.44091797 0.16455078
vn -0.93847656 0.08270264 0.33520508
vn -0.93847656 0.08270264 0.33520508
vn -0.93847656 0.08270264 0.33520508
vn 0.52734375 -0.0049438477 0.8496094
vn 0.52734375 -0.0049438477 0.8496094
vn 0.52734375 -0.0049438477 0.8496094
vn -0.52685547 0.3413086 -0.7783203
vn -0.52685547 0.3413086 -0.7783203
vn -0.52685547 0.3413086 -0.7783203
vn 0.8823242 0.46972656 0.029067993
vn 0.8823242 0.46972656 0.029067993
vn 0.8823242 0.46972656 0.029067993
vn 0.93847656 0.21179199 -0.27270508
vn 0.93847656 0.21179199 -0.27270508
vn 0.93847656 0.21179199 -0.27270508
vn -0.61376953 0.5883789 0.5263672
vn -0.61376953 0.5883789 0.5263672
vn -0.61376953 0.5883789 0.5263672
vn 0.65966797 0.5961914 -0.45776367
vn 0.65966797 0.5961914 -0.45776367
vn 0.65966797 0.5961914 -0.45776367
vn -0.7910156 0.47485352 0.38549805
vn -0.7910156 0.47485352 0.38549805
vn -0.7910156 0.47485352 0.38549805
vn -0.7763672 0.14526367 0.61328125
vn -0.7763672 0.14526367 0.61328125
vn -0.7763672 0.14526367 0.61328125
vn 0.7788086 0.10626221 0.61816406
vn 0.7788086 0.10626221 0.61816406
vn 0.7788086 0.10626221 0.61816406
vn -0.765625 0.23669434 -0.59814453
vn -0.765625 0.23669434 -0.59814453
vn -0.765625 0.23669434 -0.59814453
vn 0.82714844 0.45410156 -0.33154297
vn 0.82714844 0.45410156 -0.33154297
vn 0.82714844 0.45410156 -0.33154297
vn 0.78808594 0.1550293 -0.5957031
vn 0.78808594 0.1550293 -0.5957031
vn 0.78808594 0.1550293 -0.5957031
vn -0.51123047 0.64501953 0.5683594
vn -0.51123047 0.64501953 0.5683594
vn -0.51123047 0.64501953 0.5683594
vn 0.70703125 0.52246094 -0.4765625
vn 0.70703125 0.52246094 -0.4765625
vn 0.70703125 0.52246094 -0.4765625
vn -0.70751953 0.55810547 0.4338379
vn -0.70751953 0.55810547 0.4338379
vn -0.70751953 0.55810547 0.4338379
vn -0.72314453 0.22314453 0.6533203
vn -0.72314453 0.22314453 0.6533203
vn -0.72314453 0.22314453 0.6533203
vn 0.81347656 -0.007507324 0.5810547
vn 0.81347656 -0.007507324 0.5810547
vn 0.81347656 -0.007507324 0.5810547
vn -0.75683594 0.34545898 -0.5546875
vn -0.75683594 0.34545898 -0.5546875
vn -0.75683594 0.34545898 -0.5546875
vn 0.86083984 0.35742188 -0.3618164
vn 0.86083984 0.35742188 -0.3618164
vn 0.86083984 0.35742188 -0.3618164
vn 0.7729492 0.07299805 -0.6303711
vn 0.7729492 0.07299805 -0.6303711
vn 0.7729492 0.07299805 -0.6303711
vn 0.2529297 0.421875 0.87060547
vn 0.2529297 0.421875 0.87060547
vn 0.2529297 0.421875 0.87060547
vn 0.25512695 0.41064453 0.8754883
vn -0.2529297 0.7397461 -0.62353516
vn -0.2529297 0.7397461 -0.62353516
vn -0.2529297 0.7397461 -0.62353516
vn -0.2553711 0.73095703 -0.6328125
vn -0.33007812 0.57958984 0.7451172
vn -0.33007812 0.57958984 0.7451172
vn -0.33007812 0.57958984 0.7451172
vn -0.33007812 0.57958984 0.7451172
vn -0.33447266 0.56884766 0.75146484
vn -0.33447266 0.56884766 0.75146484
vn 0.61816406 0.64160156 0.45385742
vn 0.61816406 0.64160156 0.45385742
vn 0.61816406 0.64160156 0.45385742
vn 0.61816406 0.64160156 0.45385742
vn 0.33007812 0.83251953 -0.44506836
vn 0.32983398 0.83251953 -0.44506836
vn 0.32983398 0.83251953 -0.44506836
vn 0.32983398 0.83251953 -0.44506836
vn 0.33447266 0.8251953 -0.45507812
vn 0.33447266 0.8251953 -0.45507812
vn -0.61816406 0.7709961 -0.1538086
vn -0.61816406 0.7709961 -0.1538086
vn -0.61816406 0.7709961 -0.1538086
vn -0.61816406 0.7709961 -0.15368652
vn 0.8745117 0.109375 0.47265625
vn 0.8745117 0.109375 0.47265625
vn 0.8745117 0.109375 0.47265625
vn 0.875 0.10668945 0.47216797
vn -0.8745117 0.29223633 -0.38720703
vn -0.8745117 0.29223633 -0.38720703
vn -0.8745117 0.29223633 -0.38720703
vn -0.875 0.28955078 -0.38793945
vn 0.51416016 0.5366211 0.6694336
vn 0.51416016 0.5366211 0.6694336
vn 0.51416016 0.5366211 0.6694336
vn 0.5180664 0.5258789 0.6748047
vn -0.46826172 0.6479492 -0.60058594
vn -0.46826172 0.6479492 -0.60058594
vn -0.46826172 0.6479492 -0.60058594
vn -0.47314453 0.6386719 -0.6069336
vn -0.10992432 0.6850586 0.71972656
vn -0.10992432 0.6850586 0.71972656
vn -0.10992432 0.6850586 0.71972656
vn -0.10992432 0.6850586 0.71972656
vn -0.11212158 0.67578125 0.7285156
vn -0.11212158 0.67578125 0.7285156
vn 0.70751953 0.68603516 0.17102051
vn 0.70751953 0.68603516 0.17102051
vn 0.70751953 0.68603516 0.17102051
vn 0.70751953 0.68603516 0.17102051
vn 0.16552734 0.75341797 -0.63623047
vn 0.16552734 0.75341797 -0.63623047
vn 0.16552734 0.75341797 -0.63623047
vn 0.16552734 0.75341797 -0.63623047
vn 0.16699219 0.7446289 -0.6459961
vn 0.16699219 0.7446289 -0.6459961
vn -0.65185547 0.75341797 -0.087524414
vn -0.65185547 0.75341797 -0.087524414
vn -0.65185547 0.75341797 -0.087524414
vn -0.65185547 0.75341797 -0.087524414
vn 0.9682617 0.15637207 0.19470215
vn 0.9682617 0.15637207 0.19470215
vn 0.9682617 0.15637207 0.19470215
vn 0.96875 0.15356445 0.19445801
vn -0.9526367 0.25195312 -0.17102051
vn -0.9526367 0.25195312 -0.17102051
vn -0.9526367 0.25195312 -0.17102051
vn -0.953125 0.24914551 -0.17114258
vn 0.6069336 0.45043945 0.65478516
vn 0.6069336 0.45043945 0.65478516
vn 0.6069336 0.45043945 0.65478516
vn 0.6098633 0.43920898 0.65966797
vn -0.4111328 0.71728516 -0.5629883
vn -0.4111328 0.71728516 -0.5629883
vn -0.4111328 0.71728516 -0.5629883
vn -0.41748047 0.7084961 -0.56933594
vn 0.03656006 0.6694336 0.7416992
vn 0.03652954 0.6694336 0.7416992
vn 0.03652954 0.6694336 0.7416992
vn 0.03652954 0.6694336 0.7416992
vn 0.03390503 0.66015625 0.7504883
vn 0.03390503 0.66015625 0.7504883
vn 0.7988281 0.5917969 0.11016846
vn 0.7988281 0.5917969 0.11016846
vn 0.7988281 0.5917969 0.11016846
vn 0.7988281 0.5917969 0.11016846
vn 0.20153809 0.75 -0.6303711
vn 0.20153809 0.75 -0.6298828
vn 0.20153809 0.75 -0.6298828
vn 0.20153809 0.75 -0.6298828
vn 0.20117188 0.74121094 -0.6401367
vn 0.20117188 0.74121094 -0.6401367
vn -0.5605469 0.828125 0.0015878677
vn -0.5605469 0.828125 0.0015878677
vn -0.5605469 0.828125 0.0015878677
vn -0.5605469 0.828125 0.0015888214
vn 0.9951172 0.034484863 0.09289551
vn 0.9951172 0.034484863 0.09289551
vn 0.9951172 0.034484863 0.09289551
vn 0.9951172 0.031677246 0.0925293
vn -0.9272461 0.36938477 -0.06109619
vn -0.9272461 0.36938477 -0.06109619
vn -0.9272461 0.36938477 -0.06109619
vn -0.92822266 0.36669922 -0.061157227
vn 0.53515625 -0.16955566 0.8276367
vn 0.53515625 -0.16955566 0.8276367
vn 0.53515625 -0.16955566 0.8276367
vn 0.53515625 -0.16955566 0.8276367
vn 0.53515625 -0.16955566 0.8276367
vn 0.53515625 -0.16955566 0.8276367
vn -0.9970703 -0.01020813 0.07788086
vn -0.9970703 -0.01020813 0.07788086
vn -0.9970703 -0.01020813 0.07788086
vn -0.9970703 -0.010185242 0.077819824
vn -0.9970703 -0.010185242 0.077819824
vn -0.9970703 -0.010185242 0.077819824
vn 0.9970703 0.01626587 -0.076538086
vn 0.9970703 0.01626587 -0.076538086
vn 0.9970703 0.01626587 -0.076538086
vn 0.9970703 0.01626587 -0.076538086
vn 0.9970703 0.01626587 -0.076538086
vn 0.9970703 0.01626587 -0.076538086
vn -0.53515625 0.17565918 -0.8261719
vn -0.53515625 0.17565918 -0.8261719
vn -0.53515625 0.17565918 -0.8261719
vn -0.53515625 0.17565918 -0.8261719
vn -0.53515625 0.17565918 -0.8261719
vn -0.53515625 0.17565918 -0.8261719
vn -0.66796875 -0.7373047 -0.103027344
vn -0.66796875 -0.7373047 -0.103027344
vn -0.66796875 -0.7373047 -0.103027344
vn 0.35961914 -0.84228516 0.4013672
vn 0.35961914 -0.84228516 0.4013672
vn 0.35961914 -0.84228516 0.4013672
vn -0.35961914 -0.6064453 -0.70947266
vn -0.35961914 -0.6064453 -0.70947266
vn -0.35961914 -0.6064453 -0.70947266
vn 0.66796875 -0.71533203 -0.2055664
vn 0.66796875 -0.71533203 -0.2055664
vn 0.66796875 -0.71533203 -0.2055664
vn 0.78466797 -0.047454834 0.61816406
vn 0.78466797 -0.047454834 0.61816406
vn 0.78466797 -0.047454834 0.61816406
vn 0.78466797 -0.047454834 0.61816406
vn 0.78466797 -0.047454834 0.61816406
vn 0.78466797 -0.047454834 0.61816406
vn -0.9140625 0.014251709 0.40527344
vn -0.9140625 0.014251709 0.40527344
vn -0.9140625 0.014251709 0.40527344
vn -0.9140625 0.014259338 0.40527344
vn -0.9140625 0.014259338 0.40527344
vn -0.9140625 0.014259338 0.40527344
vn 0.9140625 -0.009346008 -0.4050293
vn 0.9140625 -0.009346008 -0.4050293
vn 0.9140625 -0.009346008 -0.4050293
vn 0.9140625 -0.009346008 -0.4050293
vn 0.9140625 -0.009346008 -0.4050293
vn 0.9140625 -0.009346008 -0.4050293
vn -0.7841797 0.052337646 -0.61816406
vn -0.7841797 0.052337646 -0.61816406
vn -0.7841797 0.052337646 -0.61816406
vn -0.7841797 0.052337646 -0.61816406
vn -0.7841797 0.052337646 -0.61816406
vn -0.7841797 0.052337646 -0.61816406
vn -0.6411133 -0.73291016 0.22839355
vn -0.6411133 -0.73291016 0.22839355
vn -0.6411133 -0.73291016 0.22839355
vn 0.49829102 -0.7832031 0.3720703
vn 0.49829102 -0.7832031 0.3720703
vn 0.49829102 -0.7832031 0.3720703
vn -0.5551758 -0.69433594 -0.45776367
vn -0.5551758 -0.69433594 -0.45776367
vn -0.5551758 -0.69433594 -0.45776367
vn 0.5839844 -0.74853516 -0.31445312
vn 0.5839844 -0.74853516 -0.31445312
vn 0.5839844 -0.74853516 -0.31445312
vn 0.79785156 -0.1743164 0.57714844
vn 0.79785156 -0.1743164 0.57714844
vn 0.79785156 -0.1743164 0.57714844
vn 0.79785156 -0.1743164 0.57714844
vn 0.79785156 -0.1743164 0.57714844
vn 0.79785156 -0.1743164 0.57714844
vn -0.8852539 0.11804199 0.44995117
vn -0.8852539 0.11804199 0.44995117
vn -0.8852539 0.11804199 0.44995117
vn -0.8852539 0.11804199 0.44995117
vn -0.8852539 0.11804199 0.44995117
vn -0.8852539 0.11804199 0.44995117
vn 0.88623047 -0.11328125 -0.44970703
vn 0.88623047 -0.11328125 -0.44970703
vn 0.88623047 -0.11328125 -0.44970703
vn 0.88623047 -0.11328125 -0.44970703
vn 0.88623047 -0.11328125 -0.44970703
vn 0.88623047 -0.11328125 -0.44970703
vn -0.7973633 0.17907715 -0.57666016
vn -0.7973633 0.17907715 -0.57666016
vn -0.7973633 0.17907715 -0.57666016
vn -0.7973633 0.17907715 -0.57666016
vn -0.7973633 0.17907715 -0.57666016
vn -0.7973633 0.17907715 -0.57666016
vn -0.7158203 -0.6542969 0.24377441
vn -0.7158203 -0.6542969 0.24377441
vn -0.7158203 -0.6542969 0.24377441
vn 0.41357422 -0.8486328 0.33007812
vn 0.41357422 -0.8486328 0.33007812
vn 0.41357422 -0.8486328 0.33007812
vn -0.65771484 -0.6074219 -0.44482422
vn -0.65771484 -0.6074219 -0.44482422
vn -0.65771484 -0.6074219 -0.44482422
vn 0.4711914 -0.80566406 -0.35864258
vn 0.4711914 -0.80566406 -0.35864258
vn 0.4711914 -0.80566406 -0.35864258
vn -0.47680664 -0.17102051 0.8623047
vn -0.47680664 -0.17102051 0.8623047
vn -0.47680664 -0.17102051 0.8623047
vn -0.47680664 -0.17102051 0.8623047
vn 0.8935547 -0.09338379 0.43920898
vn 0.8935547 -0.09338379 0.43920898
vn 0.8935547 -0.09338379 0.43920898
vn 0.8935547 -0.09338379 0.43920898
vn 0.47680664 0.18273926 -0.8598633
vn 0.47680664 0.18273926 -0.8598633
vn 0.47680664 0.18273926 -0.8598633
vn 0.47680664 0.18273926 -0.8598633
vn -0.8935547 0.09338379 -0.43920898
vn -0.8935547 0.09338379 -0.43920898
vn -0.8935547 0.09338379 -0.43920898
vn -0.8935547 0.09338379 -0.43920898
vn -0.54785156 -0.71533203 -0.43359375
vn -0.54785156 -0.71533203 -0.43359375
vn -0.54785156 -0.71533203 -0.43359375
vn -0.546875 -0.7163086 -0.4333496
vn 0.2019043 -0.80859375 -0.5522461
vn 0.2019043 -0.80859375 -0.5522461
vn 0.2019043 -0.80859375 -0.5522461
vn 0.20178223 -0.80859375 -0.5522461
vn 0.54785156 -0.8300781 0.10498047
vn 0.54785156 -0.8300781 0.10498047
vn 0.54785156 -0.8300781 0.10498047
vn 0.546875 -0.8305664 0.10455322
vn -0.20178223 -0.9633789 0.17565918
vn -0.20178223 -0.9633789 0.17565918
vn -0.20178223 -0.9633789 0.17565918
vn -0.20178223 -0.9633789 0.17565918
vn -0.19799805 -0.029449463 0.97998047
vn -0.19799805 -0.029449463 0.97998047
vn -0.19799805 -0.029449463 0.97998047
vn -0.19799805 -0.029449463 0.97998047
vn 0.9814453 -0.037994385 0.18737793
vn 0.9814453 -0.037994385 0.18737793
vn 0.9814453 -0.037994385 0.18737793
vn 0.9814453 -0.03857422 0.18688965
vn 0.19836426 0.038909912 -0.9794922
vn 0.19836426 0.038909912 -0.9794922
vn 0.19836426 0.038909912 -0.9794922
vn 0.19836426 0.038909912 -0.9794922
vn -0.9814453 0.03857422 -0.18737793
vn -0.9814453 0.03857422 -0.18737793
vn -0.9814453 0.03857422 -0.18737793
vn -0.9814453 0.037994385 -0.18688965
vn -0.6328125 -0.7573242 -0.16003418
vn -0.6328125 -0.7573242 -0.16003418
vn -0.6328125 -0.7573242 -0.16003418
vn -0.63183594 -0.7583008 -0.15991211
vn 0.04940796 -0.8828125 -0.4675293
vn 0.04940796 -0.8828125 -0.4675293
vn 0.04940796 -0.8828125 -0.4675293
vn 0.04940796 -0.8828125 -0.4675293
vn 0.5722656 -0.8173828 0.068603516
vn 0.5722656 -0.8173828 0.068603516
vn 0.5722656 -0.8173828 0.068603516
vn 0.57128906 -0.8178711 0.068481445
vn -0.11920166 -0.9243164 0.36279297
vn -0.11920166 -0.9243164 0.36279297
vn -0.11920166 -0.9243164 0.36279297
vn -0.11920166 -0.9243164 0.36279297
vn -0.11767578 -0.048736572 0.9916992
vn -0.11767578 -0.048736572 0.9916992
vn -0.11767578 -0.048736572 0.9916992
vn -0.11767578 -0.048736572 0.9916992
vn 0.9819336 -0.17089844 0.07867432
vn 0.9819336 -0.17089844 0.07867432
vn 0.9819336 -0.17089844 0.07867432
vn 0.9819336 -0.17102051 0.07861328
vn 0.11920166 0.058013916 -0.99121094
vn 0.11920166 0.058013916 -0.99121094
vn 0.11920166 0.058013916 -0.99121094
vn 0.11920166 0.058013916 -0.99121094
vn -0.9819336 0.17089844 -0.07867432
vn -0.9819336 0.17089844 -0.07867432
vn -0.9819336 0.17089844 -0.07867432
vn -0.9819336 0.17089844 -0.07867432
vn -0.7324219 -0.671875 -0.109191895
vn -0.7324219 -0.671875 -0.109191895
vn -0.7324219 -0.671875 -0.109191895
vn -0.7314453 -0.67285156 -0.109313965
vn -0.09899902 -0.86621094 -0.4897461
vn -0.09899902 -0.86621094 -0.4897461
vn -0.09899902 -0.86621094 -0.4897461
vn -0.09899902 -0.86621094 -0.4897461
vn 0.47192383 -0.88134766 -0.013038635
vn 0.47192383 -0.88134766 -0.013038635
vn 0.47192383 -0.88134766 -0.013038635
vn 0.47094727 -0.8823242 -0.013038635
vn -0.19995117 -0.91552734 0.34960938
vn -0.19995117 -0.91552734 0.34960938
vn -0.19995117 -0.91552734 0.34960938
vn -0.19995117 -0.91552734 0.34960938
vn 1.6093254E-06 -0.97802734 -0.20788574
vn 1.6093254E-06 -0.97802734 -0.20788574
vn 1.6093254E-06 -0.97802734 -0.20788574
vn 1.66893E-06 -0.97802734 -0.20788574
vn -0.0385437 -0.9975586 -0.057891846
vn -0.0385437 -0.9975586 -0.057891846
vn -0.0385437 -0.9975586 -0.057891846
vn -0.0385437 -0.9975586 -0.057891846
vn -0.16491699 -0.98339844 -0.07739258
vn -0.16491699 -0.98339844 -0.07739258
vn -0.16491699 -0.98339844 -0.07739258
vn -0.16491699 -0.98339844 -0.07739258
vn -7.1525574E-07 0.97802734 0.20788574
vn -7.1525574E-07 0.97802734 0.20788574
vn -7.1525574E-07 0.97802734 0.20788574
vn -2.9802322E-07 0.97802734 0.20788574
vn 0.0385437 0.9975586 0.057891846
vn 0.0385437 0.9975586 0.057891846
vn 0.0385437 0.9975586 0.057891846
vn 0.0385437 0.9975586 0.057891846
vn 0.16491699 0.98339844 0.07739258
vn 0.16491699 0.98339844 0.07739258
vn 0.16491699 0.98339844 0.07739258
vn 0.16491699 0.98339844 0.07739258
g Rock_Moray_Eel_0
f 3/3/3 2/2/2 1/1/1
f 6/6/6 5/5/5 4/4/4
f 9/9/9 8/8/8 7/7/7
f 12/12/12 11/11/11 10/10/10
f 15/15/15 14/14/14 13/13/13
f 18/18/18 17/17/17 16/16/16
f 21/21/21 20/20/20 19/19/19
f 24/24/24 23/23/23 22/22/22
f 27/27/27 26/26/26 25/25/25
f 30/30/30 29/29/29 28/28/28
f 33/33/33 32/32/32 31/31/31
f 36/36/36 35/35/35 34/34/34
f 39/39/39 38/38/38 37/37/37
f 42/42/42 41/41/41 40/40/40
f 45/45/45 44/44/44 43/43/43
f 48/48/48 47/47/47 46/46/46
f 51/51/51 50/50/50 49/49/49
f 54/54/54 53/53/53 52/52/52
f 57/57/57 56/56/56 55/55/55
f 60/60/60 59/59/59 58/58/58
f 63/63/63 62/62/62 61/61/61
f 66/66/66 65/65/65 64/64/64
f 69/69/69 68/68/68 67/67/67
f 72/72/72 71/71/71 70/70/70
f 75/75/75 74/74/74 73/73/73
f 76/76/76 74/74/74 75/75/75
f 79/79/79 78/78/78 77/77/77
f 80/80/80 78/78/78 79/79/79
f 83/83/83 82/82/82 81/81/81
f 82/82/82 83/83/83 84/84/84
f 85/85/85 84/84/84 83/83/83
f 84/84/84 85/85/85 86/86/86
f 89/89/89 88/88/88 87/87/87
f 88/88/88 89/89/89 90/90/90
f 93/93/93 92/92/92 91/91/91
f 92/92/92 93/93/93 94/94/94
f 95/95/95 94/94/94 93/93/93
f 94/94/94 95/95/95 96/96/96
f 99/99/99 98/98/98 97/97/97
f 98/98/98 99/99/99 100/100/100
f 103/103/103 102/102/102 101/101/101
f 102/102/102 103/103/103 104/104/104
f 107/107/107 106/106/106 105/105/105
f 106/106/106 107/107/107 108/108/108
f 111/111/111 110/110/110 109/109/109
f 112/112/112 110/110/110 111/111/111
f 115/115/115 114/114/114 113/113/113
f 116/116/116 114/114/114 115/115/115
f 119/119/119 118/118/118 117/117/117
f 118/118/118 119/119/119 120/120/120
f 121/121/121 120/120/120 119/119/119
f 120/120/120 121/121/121 122/122/122
f 125/125/125 124/124/124 123/123/123
f 124/124/124 125/125/125 126/126/126
f 129/129/129 128/128/128 127/127/127
f 128/128/128 129/129/129 130/130/130
f 131/131/131 130/130/130 129/129/129
f 130/130/130 131/131/131 132/132/132
f 135/135/135 134/134/134 133/133/133
f 134/134/134 135/135/135 136/136/136
f 139/139/139 138/138/138 137/137/137
f 138/138/138 139/139/139 140/140/140
f 143/143/143 142/142/142 141/141/141
f 142/142/142 143/143/143 144/144/144
f 147/147/147 146/146/146 145/145/145
f 148/148/148 146/146/146 147/147/147
f 151/151/151 150/150/150 149/149/149
f 152/152/152 150/150/150 151/151/151
f 155/155/155 154/154/154 153/153/153
f 154/154/154 155/155/155 156/156/156
f 157/157/157 156/156/156 155/155/155
f 156/156/156 157/157/157 158/158/158
f 161/161/161 160/160/160 159/159/159
f 160/160/160 161/161/161 162/162/162
f 165/165/165 164/164/164 163/163/163
f 164/164/164 165/165/165 166/166/166
f 167/167/167 166/166/166 165/165/165
f 166/166/166 167/167/167 168/168/168
f 171/171/171 170/170/170 169/169/169
f 170/170/170 171/171/171 172/172/172
f 175/175/175 174/174/174 173/173/173
f 174/174/174 175/175/175 176/176/176
f 179/179/179 178/178/178 177/177/177
f 178/178/178 179/179/179 180/180/180
g Rock_Moray_Eel_1
f 183/183/183 182/182/182 181/181/181
f 186/186/186 185/185/185 184/184/184
f 189/189/189 188/188/188 187/187/187
f 192/192/192 191/191/191 190/190/190
f 195/195/195 194/194/194 193/193/193
f 198/198/198 197/197/197 196/196/196
f 201/201/201 200/200/200 199/199/199
f 204/204/204 203/203/203 202/202/202
f 207/207/207 206/206/206 205/205/205
f 210/210/210 209/209/209 208/208/208
f 213/213/213 212/212/212 211/211/211
f 216/216/216 215/215/215 214/214/214
f 219/219/219 218/218/218 217/217/217
f 222/222/222 221/221/221 220/220/220
f 225/225/225 224/224/224 223/223/223
f 228/228/228 227/227/227 226/226/226
f 231/231/231 230/230/230 229/229/229
f 234/234/234 233/233/233 232/232/232
f 237/237/237 236/236/236 235/235/235
f 240/240/240 239/239/239 238/238/238
f 243/243/243 242/242/242 241/241/241
f 246/246/246 245/245/245 244/244/244
f 249/249/249 248/248/248 247/247/247
f 252/252/252 251/251/251 250/250/250
f 255/255/255 254/254/254 253/253/253
f 258/258/258 257/257/257 256/256/256
f 261/261/261 260/260/260 259/259/259
f 264/264/264 263/263/263 262/262/262
f 267/267/267 266/266/266 265/265/265
f 270/270/270 269/269/269 268/268/268
f 273/273/273 272/272/272 271/271/271
f 276/276/276 275/275/275 274/274/274
f 279/279/279 278/278/278 277/277/277
f 282/282/282 281/281/281 280/280/280
f 285/285/285 284/284/284 283/283/283
f 288/288/288 287/287/287 286/286/286
f 291/291/291 290/290/290 289/289/289
f 290/290/290 291/291/291 292/292/292
f 295/295/295 294/294/294 293/293/293
f 294/294/294 295/295/295 296/296/296
f 299/299/299 298/298/298 297/297/297
f 298/298/298 299/299/299 300/300/300
f 303/303/303 302/302/302 301/301/301
f 302/302/302 303/303/303 304/304/304
f 307/307/307 306/306/306 305/305/305
f 306/306/306 307/307/307 308/308/308
f 311/311/311 310/310/310 309/309/309
f 310/310/310 311/311/311 312/312/312
f 315/315/315 314/314/314 313/313/313
f 314/314/314 315/315/315 316/316/316
f 319/319/319 318/318/318 317/317/317
f 318/318/318 319/319/319 320/320/320
f 323/323/323 322/322/322 321/321/321
f 322/322/322 323/323/323 324/324/324
f 327/327/327 326/326/326 325/325/325
f 326/326/326 327/327/327 328/328/328
f 331/331/331 330/330/330 329/329/329
f 330/330/330 331/331/331 332/332/332
f 335/335/335 334/334/334 333/333/333
f 334/334/334 335/335/335 336/336/336
f 339/339/339 338/338/338 337/337/337
f 338/338/338 339/339/339 340/340/340
f 343/343/343 342/342/342 341/341/341
f 342/342/342 343/343/343 344/344/344
f 347/347/347 346/346/346 345/345/345
f 346/346/346 347/347/347 348/348/348
f 351/351/351 350/350/350 349/349/349
f 350/350/350 351/351/351 352/352/352
f 355/355/355 354/354/354 353/353/353
f 354/354/354 355/355/355 356/356/356
f 359/359/359 358/358/358 357/357/357
f 358/358/358 359/359/359 360/360/360
f 363/363/363 362/362/362 361/361/361
f 362/362/362 363/363/363 364/364/364
f 367/367/367 366/366/366 365/365/365
f 366/366/366 367/367/367 368/368/368
f 371/371/371 370/370/370 369/369/369
f 370/370/370 371/371/371 372/372/372
f 375/375/375 374/374/374 373/373/373
f 374/374/374 375/375/375 376/376/376
f 379/379/379 378/378/378 377/377/377
f 378/378/378 379/379/379 380/380/380
f 383/383/383 382/382/382 381/381/381
f 382/382/382 383/383/383 384/384/384
g Rock_Moray_Eel_2
f 387/387/387 386/386/386 385/385/385
f 386/386/386 387/387/387 388/388/388
f 391/391/391 390/390/390 389/389/389
f 390/390/390 391/391/391 392/392/392
f 395/395/395 394/394/394 393/393/393
f 394/394/394 395/395/395 396/396/396
g Rock_Moray_Eel_3
f 399/399/399 398/398/398 397/397/397
f 398/398/398 399/399/399 400/400/400
f 403/403/403 402/402/402 401/401/401
f 402/402/402 403/403/403 404/404/404
f 407/407/407 406/406/406 405/405/405
f 406/406/406 407/407/407 408/408/408
